<?xml version="1.0" encoding="utf-8" standalone="no"?>
<!DOCTYPE svg PUBLIC "-//W3C//DTD SVG 1.1//EN"
  "http://www.w3.org/Graphics/SVG/1.1/DTD/svg11.dtd">
<!-- Created with matplotlib (https://matplotlib.org/) -->
<svg height="352.455pt" version="1.1" viewBox="0 0 555.48 352.455" width="555.48pt" xmlns="http://www.w3.org/2000/svg" xmlns:xlink="http://www.w3.org/1999/xlink">
 <defs>
  <style type="text/css">
*{stroke-linecap:butt;stroke-linejoin:round;}
  </style>
 </defs>
 <g id="figure_1">
  <g id="patch_1">
   <path d="M 0 352.455 
L 555.48 352.455 
L 555.48 0 
L 0 0 
z
" style="fill:none;"/>
  </g>
  <g id="axes_1">
   <g id="patch_2">
    <path clip-path="url(#p5d86bc6a8c)" d="M 86.866487 89.76825 
C 86.233942 90.550302 85.711892 91.64141 85.349946 92.937887 
C 84.988001 94.234363 84.798 95.693798 84.798 97.1775 
C 84.798 98.661202 84.988001 100.120637 85.349946 101.417113 
C 85.711892 102.71359 86.233942 103.804698 86.866487 104.58675 
" style="fill:none;stroke:#000000;stroke-linejoin:miter;stroke-width:1.5;"/>
   </g>
   <g id="patch_3">
    <path clip-path="url(#p5d86bc6a8c)" d="M 346.066487 89.76825 
C 345.433942 90.550302 344.911892 91.64141 344.549946 92.937887 
C 344.188001 94.234363 343.998 95.693798 343.998 97.1775 
C 343.998 98.661202 344.188001 100.120637 344.549946 101.417113 
C 344.911892 102.71359 345.433942 103.804698 346.066487 104.58675 
" style="fill:none;stroke:#000000;stroke-linejoin:miter;stroke-width:1.5;"/>
   </g>
   <g id="patch_4">
    <path clip-path="url(#p5d86bc6a8c)" d="M 464.04 97.1775 
C 464.04 96.252912 463.613014 95.365247 462.853782 94.711465 
C 462.094551 94.057683 461.063715 93.69 459.99 93.69 
C 458.916285 93.69 457.885449 94.057683 457.126218 94.711465 
C 456.366986 95.365247 455.94 96.252912 455.94 97.1775 
" style="fill:none;stroke:#000000;stroke-linejoin:miter;stroke-width:1.5;"/>
   </g>
   <g id="patch_5">
    <path clip-path="url(#p5d86bc6a8c)" d="M 472.14 97.1775 
C 472.14 96.252912 471.713014 95.365247 470.953782 94.711465 
C 470.194551 94.057683 469.163715 93.69 468.09 93.69 
C 467.016285 93.69 465.985449 94.057683 465.226218 94.711465 
C 464.466986 95.365247 464.04 96.252912 464.04 97.1775 
" style="fill:none;stroke:#000000;stroke-linejoin:miter;stroke-width:1.5;"/>
   </g>
   <g id="patch_6">
    <path clip-path="url(#p5d86bc6a8c)" d="M 480.24 97.1775 
C 480.24 96.252912 479.813014 95.365247 479.053782 94.711465 
C 478.294551 94.057683 477.263715 93.69 476.19 93.69 
C 475.116285 93.69 474.085449 94.057683 473.326218 94.711465 
C 472.566986 95.365247 472.14 96.252912 472.14 97.1775 
" style="fill:none;stroke:#000000;stroke-linejoin:miter;stroke-width:1.5;"/>
   </g>
   <g id="patch_7">
    <path clip-path="url(#p5d86bc6a8c)" d="M 488.34 97.1775 
C 488.34 96.252912 487.913014 95.365247 487.153782 94.711465 
C 486.394551 94.057683 485.363715 93.69 484.29 93.69 
C 483.216285 93.69 482.185449 94.057683 481.426218 94.711465 
C 480.666986 95.365247 480.24 96.252912 480.24 97.1775 
" style="fill:none;stroke:#000000;stroke-linejoin:miter;stroke-width:1.5;"/>
   </g>
   <g id="patch_8">
    <path clip-path="url(#p5d86bc6a8c)" d="M 221.04 25.1025 
L 220.089576 30.870417 
L 218.339212 30.174759 
L 204.854709 55.333346 
L 204.825291 55.321654 
L 218.309794 30.163068 
L 216.55943 29.46741 
z
" style="stroke:#000000;stroke-linejoin:miter;stroke-width:1.5;"/>
   </g>
   <g id="patch_9">
    <path clip-path="url(#p5d86bc6a8c)" d="M 482.67 186.10875 
L 481.142884 191.784083 
L 479.469085 190.960468 
L 474.584066 198.321921 
L 474.555934 198.308079 
L 479.440954 190.946626 
L 477.767155 190.12301 
z
" style="stroke:#000000;stroke-linejoin:miter;stroke-width:1.5;"/>
   </g>
   <g id="patch_10">
    <path clip-path="url(#p5d86bc6a8c)" d="M 475.38 186.10875 
L 473.852884 191.784083 
L 472.179085 190.960468 
L 467.294066 198.321921 
L 467.265934 198.308079 
L 472.150954 190.946626 
L 470.477155 190.12301 
z
" style="stroke:#000000;stroke-linejoin:miter;stroke-width:1.5;"/>
   </g>
   <g id="patch_11">
    <path clip-path="url(#p5d86bc6a8c)" d="M 73.626954 239.716974 
L 75.683409 241.39015 
L 74.654429 241.766169 
L 74.259862 240.965531 
L 74.230037 240.97643 
L 74.624604 241.777068 
L 73.595625 242.153087 
z
" style="stroke:#000000;stroke-linejoin:miter;stroke-width:1.5;"/>
   </g>
   <g id="patch_12">
    <path clip-path="url(#p5d86bc6a8c)" d="M 67.537746 241.625446 
L 69.594201 243.298622 
L 68.565221 243.674641 
L 68.170654 242.874003 
L 68.140828 242.884902 
L 68.535396 243.68554 
L 67.506417 244.06156 
z
" style="stroke:#000000;stroke-linejoin:miter;stroke-width:1.5;"/>
   </g>
   <g id="patch_13">
    <path clip-path="url(#p5d86bc6a8c)" d="M 212.68425 251.895065 
L 210.627796 250.221889 
L 211.656775 249.84587 
L 212.051343 250.646508 
L 212.081168 250.635609 
L 211.686601 249.834971 
L 212.71558 249.458952 
z
" style="stroke:#000000;stroke-linejoin:miter;stroke-width:1.5;"/>
   </g>
   <g id="patch_14">
    <path clip-path="url(#p5d86bc6a8c)" d="M 206.595042 253.803537 
L 204.538588 252.130362 
L 205.567567 251.754342 
L 205.962134 252.55498 
L 205.99196 252.544081 
L 205.597392 251.743443 
L 206.626372 251.367424 
z
" style="stroke:#000000;stroke-linejoin:miter;stroke-width:1.5;"/>
   </g>
   <g id="line2d_1">
    <path clip-path="url(#p5d86bc6a8c)" d="M 34.74 41.3775 
L 67.14 41.3775 
L 69.84 34.4025 
L 75.24 48.3525 
L 80.64 34.4025 
L 86.04 48.3525 
L 91.44 34.4025 
L 96.84 48.3525 
L 99.54 41.3775 
L 131.94 41.3775 
" style="fill:none;stroke:#000000;stroke-linecap:round;stroke-width:1.5;"/>
   </g>
   <g id="line2d_2">
    <path clip-path="url(#p5d86bc6a8c)" d="M 164.34 41.3775 
L 196.74 41.3775 
L 199.44 34.4025 
L 204.84 48.3525 
L 210.24 34.4025 
L 215.64 48.3525 
L 221.04 34.4025 
L 226.44 48.3525 
L 229.14 41.3775 
L 261.54 41.3775 
" style="fill:none;stroke:#000000;stroke-linecap:round;stroke-width:1.5;"/>
   </g>
   <g id="line2d_3">
    <path clip-path="url(#p5d86bc6a8c)" d="M 204.84 55.3275 
L 221.04 25.1025 
" style="fill:none;stroke:#000000;stroke-linecap:round;stroke-width:1.5;"/>
   </g>
   <g id="line2d_4">
    <path clip-path="url(#p5d86bc6a8c)" d="M 293.94 41.3775 
L 326.34 41.3775 
L 326.34 34.4025 
L 358.74 34.4025 
L 358.74 48.3525 
L 326.34 48.3525 
L 326.34 41.3775 
M 358.74 41.3775 
L 391.14 41.3775 
" style="fill:none;stroke:#000000;stroke-linecap:round;stroke-width:1.5;"/>
   </g>
   <g id="line2d_5">
    <path clip-path="url(#p5d86bc6a8c)" d="M 423.54 41.3775 
L 469.224 41.3775 
M 469.224 34.4025 
L 469.224 48.3525 
M 475.056 34.4025 
L 475.056 48.3525 
M 475.056 41.3775 
L 520.74 41.3775 
" style="fill:none;stroke:#000000;stroke-linecap:round;stroke-width:1.5;"/>
   </g>
   <g id="line2d_6">
    <path clip-path="url(#p5d86bc6a8c)" d="M 34.74 97.1775 
L 80.424 97.1775 
M 80.424 90.2025 
L 80.424 104.1525 
M 86.256 97.1775 
L 131.94 97.1775 
" style="fill:none;stroke:#000000;stroke-linecap:round;stroke-width:1.5;"/>
   </g>
   <g id="line2d_7">
    <path clip-path="url(#p5d86bc6a8c)" d="M 164.34 97.1775 
L 210.024 97.1775 
M 210.024 90.2025 
L 210.024 104.1525 
M 215.856 90.2025 
L 215.856 104.1525 
M 215.856 97.1775 
L 261.54 97.1775 
" style="fill:none;stroke:#000000;stroke-linecap:round;stroke-width:1.5;"/>
   </g>
   <g id="line2d_8">
    <path clip-path="url(#p5d86bc6a8c)" d="M 293.94 97.1775 
L 339.624 97.1775 
M 339.624 90.2025 
L 339.624 104.1525 
M 345.456 97.1775 
L 391.14 97.1775 
" style="fill:none;stroke:#000000;stroke-linecap:round;stroke-width:1.5;"/>
   </g>
   <g id="line2d_9">
    <path clip-path="url(#p5d86bc6a8c)" d="M 423.54 97.1775 
L 455.94 97.1775 
M 488.34 97.1775 
L 520.74 97.1775 
" style="fill:none;stroke:#000000;stroke-linecap:round;stroke-width:1.5;"/>
   </g>
   <g id="line2d_10">
    <path clip-path="url(#p5d86bc6a8c)" d="M 34.74 152.9775 
L 67.14 152.9775 
L 67.260663 150.680255 
L 67.627584 148.362292 
L 68.232601 146.218014 
L 69.047584 144.427259 
L 70.026792 143.140215 
L 70.559791 142.721242 
L 71.110712 142.464824 
L 71.670786 142.376365 
L 72.231048 142.457729 
L 72.782531 142.707203 
L 73.31645 143.119527 
L 73.824395 143.686011 
L 74.731611 145.230696 
L 75.450702 147.21171 
L 75.943972 149.462906 
L 76.19266 151.795481 
L 76.198521 154.013805 
L 75.983675 155.931831 
L 75.588751 157.388696 
L 75.069483 158.262216 
L 74.783635 158.455218 
L 74.492031 158.479131 
L 74.203658 158.33345 
L 73.927437 158.021247 
L 73.445663 156.926966 
L 73.109727 155.288065 
L 72.970413 153.241995 
L 73.062017 150.960358 
L 73.399467 148.63451 
L 73.977073 146.459517 
L 74.769004 144.617792 
L 75.731451 143.263799 
L 76.258892 142.807073 
L 76.806308 142.511093 
L 77.365002 142.382097 
L 77.926039 142.422804 
L 78.480434 142.632356 
L 79.019344 143.006337 
L 79.534251 143.536862 
L 80.46068 145.019754 
L 81.204636 146.956666 
L 81.726334 149.18515 
L 82.004632 151.518308 
L 82.038801 153.760462 
L 81.848585 155.723564 
L 81.47255 157.242974 
L 80.964843 158.191259 
L 80.681699 158.424293 
L 80.390656 158.48889 
L 80.100692 158.383687 
L 79.820758 158.110903 
L 79.325554 157.089001 
L 78.969189 155.508889 
L 78.804161 153.503088 
L 78.866922 151.239822 
L 79.174819 148.908907 
L 79.724641 146.705834 
L 80.492886 144.815371 
L 81.437734 143.396068 
L 81.959142 142.902143 
L 82.502552 142.56696 
L 83.059352 142.397583 
L 83.620648 142.397583 
L 84.177448 142.56696 
L 84.720858 142.902143 
L 85.242266 143.396068 
L 85.733522 144.038323 
L 86.596321 145.710832 
L 87.259502 147.779401 
L 87.690058 150.070542 
L 87.87449 152.3921 
L 87.81994 154.549369 
L 87.553595 156.361423 
L 87.120404 157.676288 
L 86.579308 158.383687 
L 86.289344 158.48889 
L 85.998301 158.424293 
L 85.715157 158.191259 
L 85.20745 157.242974 
L 84.831415 155.723564 
L 84.641199 153.760462 
L 84.675368 151.518308 
L 84.953666 149.18515 
L 85.475364 146.956666 
L 86.21932 145.019754 
L 87.145749 143.536862 
L 87.660656 143.006337 
L 88.199566 142.632356 
L 88.753961 142.422804 
L 89.314998 142.382097 
L 89.873692 142.511093 
L 90.421108 142.807073 
L 90.948549 143.263799 
L 91.447739 143.871643 
L 92.331399 145.486521 
L 93.02059 147.516272 
L 93.480119 149.790662 
L 93.69406 152.118943 
L 93.667079 154.305844 
L 93.424052 156.167955 
L 93.00797 157.549101 
L 92.476342 158.33345 
L 92.187969 158.479131 
L 91.896365 158.455218 
L 91.610517 158.262216 
L 91.339292 157.904194 
L 90.874456 156.72659 
L 90.563452 155.021171 
L 90.454975 152.930967 
L 90.580734 150.631281 
L 90.952792 148.314983 
L 91.562558 146.176339 
L 92.381501 144.394713 
L 93.36355 143.119527 
L 93.897469 142.707203 
L 94.448952 142.457729 
L 95.009214 142.376365 
L 95.569288 142.464824 
L 96.120209 142.721242 
L 96.653208 143.140215 
L 97.159889 143.712911 
L 98.063669 145.268202 
L 98.77836 147.256675 
L 99.266633 149.51156 
L 99.51015 151.843743 
L 99.54 152.9775 
L 131.94 152.9775 
L 131.94 152.9775 
" style="fill:none;stroke:#000000;stroke-linecap:round;stroke-width:1.5;"/>
   </g>
   <g id="line2d_11">
    <path clip-path="url(#p5d86bc6a8c)" d="M 164.34 152.9775 
L 207.27 152.9775 
M 218.61 146.0025 
L 218.61 159.9525 
M 218.61 152.9775 
L 261.54 152.9775 
" style="fill:none;stroke:#000000;stroke-linecap:round;stroke-width:1.5;"/>
   </g>
   <g id="line2d_12">
    <path clip-path="url(#p5d86bc6a8c)" d="M 293.94 152.9775 
L 336.87 152.9775 
M 348.21 146.0025 
L 348.21 159.9525 
M 348.21 152.9775 
L 391.14 152.9775 
" style="fill:none;stroke:#000000;stroke-linecap:round;stroke-width:1.5;"/>
   </g>
   <g id="line2d_13">
    <path clip-path="url(#p5d86bc6a8c)" d="M 423.54 152.9775 
L 466.47 152.9775 
M 477.81 146.0025 
L 477.81 159.9525 
M 477.81 152.9775 
L 520.74 152.9775 
" style="fill:none;stroke:#000000;stroke-linecap:round;stroke-width:1.5;"/>
   </g>
   <g id="line2d_14">
    <path clip-path="url(#p5d86bc6a8c)" d="M 477.81 146.0025 
L 474.57 146.0025 
L 474.57 148.7925 
" style="fill:none;stroke:#000000;stroke-linecap:round;stroke-width:1.5;"/>
   </g>
   <g id="line2d_15">
    <path clip-path="url(#p5d86bc6a8c)" d="M 477.81 159.9525 
L 481.05 159.9525 
L 481.05 157.1625 
" style="fill:none;stroke:#000000;stroke-linecap:round;stroke-width:1.5;"/>
   </g>
   <g id="line2d_16">
    <path clip-path="url(#p5d86bc6a8c)" d="M 34.74 208.7775 
L 77.67 208.7775 
M 89.01 201.8025 
L 89.01 215.7525 
M 89.01 208.7775 
L 131.94 208.7775 
" style="fill:none;stroke:#000000;stroke-linecap:round;stroke-width:1.5;"/>
   </g>
   <g id="line2d_17">
    <path clip-path="url(#p5d86bc6a8c)" d="M 89.01 201.8025 
L 85.77 201.8025 
L 85.77 204.5925 
" style="fill:none;stroke:#000000;stroke-linecap:round;stroke-width:1.5;"/>
   </g>
   <g id="line2d_18">
    <path clip-path="url(#p5d86bc6a8c)" d="M 89.01 215.7525 
L 92.25 215.7525 
L 92.25 212.9625 
" style="fill:none;stroke:#000000;stroke-linecap:round;stroke-width:1.5;"/>
   </g>
   <g id="line2d_19">
    <path clip-path="url(#p5d86bc6a8c)" d="M 164.34 208.7775 
L 207.27 208.7775 
M 218.61 201.8025 
L 218.61 215.7525 
M 218.61 208.7775 
L 261.54 208.7775 
" style="fill:none;stroke:#000000;stroke-linecap:round;stroke-width:1.5;"/>
   </g>
   <g id="line2d_20">
    <path clip-path="url(#p5d86bc6a8c)" d="M 218.61 201.8025 
L 221.85 199.0125 
" style="fill:none;stroke:#000000;stroke-linecap:round;stroke-width:1.5;"/>
   </g>
   <g id="line2d_21">
    <path clip-path="url(#p5d86bc6a8c)" d="M 218.61 215.7525 
L 215.37 218.5425 
" style="fill:none;stroke:#000000;stroke-linecap:round;stroke-width:1.5;"/>
   </g>
   <g id="line2d_22">
    <path clip-path="url(#p5d86bc6a8c)" d="M 293.94 208.7775 
L 336.87 208.7775 
M 348.21 201.8025 
L 348.21 215.7525 
M 348.21 208.7775 
L 391.14 208.7775 
" style="fill:none;stroke:#000000;stroke-linecap:round;stroke-width:1.5;"/>
   </g>
   <g id="line2d_23">
    <path clip-path="url(#p5d86bc6a8c)" d="M 348.21 201.8025 
L 351.45 199.0125 
" style="fill:none;stroke:#000000;stroke-linecap:round;stroke-width:1.5;"/>
   </g>
   <g id="line2d_24">
    <path clip-path="url(#p5d86bc6a8c)" d="M 348.21 215.7525 
L 344.97 218.5425 
" style="fill:none;stroke:#000000;stroke-linecap:round;stroke-width:1.5;"/>
   </g>
   <g id="line2d_25">
    <path clip-path="url(#p5d86bc6a8c)" d="M 423.54 208.7775 
L 466.47 208.7775 
M 477.81 201.8025 
L 477.81 215.7525 
M 477.81 208.7775 
L 520.74 208.7775 
" style="fill:none;stroke:#000000;stroke-linecap:round;stroke-width:1.5;"/>
   </g>
   <g id="line2d_26">
    <path clip-path="url(#p5d86bc6a8c)" d="M 474.57 198.315 
L 482.67 186.10875 
" style="fill:none;stroke:#000000;stroke-linecap:round;stroke-width:1.5;"/>
   </g>
   <g id="line2d_27">
    <path clip-path="url(#p5d86bc6a8c)" d="M 34.74 264.5775 
L 77.67 264.5775 
M 89.01 257.6025 
L 89.01 271.5525 
M 89.01 264.5775 
L 131.94 264.5775 
" style="fill:none;stroke:#000000;stroke-linecap:round;stroke-width:1.5;"/>
   </g>
   <g id="line2d_28">
    <path clip-path="url(#p5d86bc6a8c)" d="M 73.626954 239.716974 
L 74.244949 240.97098 
L 74.809821 242.099303 
L 75.323829 243.107289 
L 75.789235 244.000288 
L 76.208299 244.783647 
L 76.583281 245.462715 
L 76.916443 246.04284 
L 77.210045 246.52937 
L 77.466347 246.927654 
L 77.68761 247.24304 
L 77.876095 247.480876 
L 78.034062 247.64651 
L 78.163772 247.745291 
L 78.267485 247.782567 
L 78.347463 247.763686 
L 78.405964 247.693997 
L 78.445251 247.578847 
L 78.467583 247.423585 
L 78.475222 247.23356 
L 78.470427 247.014119 
L 78.45546 246.770611 
L 78.432581 246.508384 
L 78.40405 246.232787 
L 78.372128 245.949167 
L 78.339076 245.662872 
L 78.307155 245.379252 
L 78.278624 245.103655 
L 78.255745 244.841428 
L 78.240778 244.59792 
L 78.235983 244.378479 
L 78.243622 244.188454 
L 78.265954 244.033192 
L 78.305241 243.918042 
L 78.363742 243.848353 
L 78.443719 243.829472 
L 78.547432 243.866748 
L 78.677142 243.965529 
L 78.835109 244.131163 
L 79.023594 244.368999 
L 79.244857 244.684385 
L 79.50116 245.082669 
L 79.794762 245.569199 
L 80.127923 246.149324 
L 80.502906 246.828392 
L 80.92197 247.611751 
L 81.387376 248.50475 
L 81.901384 249.512736 
L 82.466255 250.641058 
L 83.08425 251.895065 
" style="fill:none;stroke:#000000;stroke-linecap:round;stroke-width:1.5;"/>
   </g>
   <g id="line2d_29">
    <path clip-path="url(#p5d86bc6a8c)" d="M 67.537746 241.625446 
L 68.155741 242.879453 
L 68.720612 244.007775 
L 69.234621 245.015761 
L 69.700026 245.90876 
L 70.11909 246.692119 
L 70.494073 247.371187 
L 70.827235 247.951312 
L 71.120837 248.437842 
L 71.377139 248.836126 
L 71.598402 249.151512 
L 71.786887 249.389348 
L 71.944854 249.554982 
L 72.074564 249.653763 
L 72.178277 249.691039 
L 72.258254 249.672158 
L 72.316756 249.602469 
L 72.356043 249.487319 
L 72.378375 249.332058 
L 72.386013 249.142032 
L 72.381219 248.922592 
L 72.366252 248.679084 
L 72.343372 248.416857 
L 72.314842 248.141259 
L 72.28292 247.857639 
L 72.249868 247.571345 
L 72.217947 247.287725 
L 72.189416 247.012127 
L 72.166537 246.7499 
L 72.151569 246.506392 
L 72.146775 246.286951 
L 72.154413 246.096926 
L 72.176746 245.941664 
L 72.216032 245.826515 
L 72.274534 245.756825 
L 72.354511 245.737944 
L 72.458224 245.77522 
L 72.587934 245.874001 
L 72.745901 246.039636 
L 72.934386 246.277472 
L 73.155649 246.592857 
L 73.411952 246.991141 
L 73.705553 247.477672 
L 74.038715 248.057797 
L 74.413698 248.736865 
L 74.832762 249.520224 
L 75.298168 250.413222 
L 75.812176 251.421209 
L 76.377047 252.549531 
L 76.995042 253.803537 
" style="fill:none;stroke:#000000;stroke-linecap:round;stroke-width:1.5;"/>
   </g>
   <g id="line2d_30">
    <path clip-path="url(#p5d86bc6a8c)" d="M 164.34 264.5775 
L 207.27 264.5775 
M 218.61 257.6025 
L 218.61 271.5525 
M 218.61 264.5775 
L 261.54 264.5775 
" style="fill:none;stroke:#000000;stroke-linecap:round;stroke-width:1.5;"/>
   </g>
   <g id="line2d_31">
    <path clip-path="url(#p5d86bc6a8c)" d="M 203.226954 239.716974 
L 203.844949 240.97098 
L 204.409821 242.099303 
L 204.923829 243.107289 
L 205.389235 244.000288 
L 205.808299 244.783647 
L 206.183281 245.462715 
L 206.516443 246.04284 
L 206.810045 246.52937 
L 207.066347 246.927654 
L 207.28761 247.24304 
L 207.476095 247.480876 
L 207.634062 247.64651 
L 207.763772 247.745291 
L 207.867485 247.782567 
L 207.947463 247.763686 
L 208.005964 247.693997 
L 208.045251 247.578847 
L 208.067583 247.423585 
L 208.075222 247.23356 
L 208.070427 247.014119 
L 208.05546 246.770611 
L 208.032581 246.508384 
L 208.00405 246.232787 
L 207.972128 245.949167 
L 207.939076 245.662872 
L 207.907155 245.379252 
L 207.878624 245.103655 
L 207.855745 244.841428 
L 207.840778 244.59792 
L 207.835983 244.378479 
L 207.843622 244.188454 
L 207.865954 244.033192 
L 207.905241 243.918042 
L 207.963742 243.848353 
L 208.043719 243.829472 
L 208.147432 243.866748 
L 208.277142 243.965529 
L 208.435109 244.131163 
L 208.623594 244.368999 
L 208.844857 244.684385 
L 209.10116 245.082669 
L 209.394762 245.569199 
L 209.727923 246.149324 
L 210.102906 246.828392 
L 210.52197 247.611751 
L 210.987376 248.50475 
L 211.501384 249.512736 
L 212.066255 250.641058 
L 212.68425 251.895065 
" style="fill:none;stroke:#000000;stroke-linecap:round;stroke-width:1.5;"/>
   </g>
   <g id="line2d_32">
    <path clip-path="url(#p5d86bc6a8c)" d="M 197.137746 241.625446 
L 197.755741 242.879453 
L 198.320612 244.007775 
L 198.834621 245.015761 
L 199.300026 245.90876 
L 199.71909 246.692119 
L 200.094073 247.371187 
L 200.427235 247.951312 
L 200.720837 248.437842 
L 200.977139 248.836126 
L 201.198402 249.151512 
L 201.386887 249.389348 
L 201.544854 249.554982 
L 201.674564 249.653763 
L 201.778277 249.691039 
L 201.858254 249.672158 
L 201.916756 249.602469 
L 201.956043 249.487319 
L 201.978375 249.332058 
L 201.986013 249.142032 
L 201.981219 248.922592 
L 201.966252 248.679084 
L 201.943372 248.416857 
L 201.914842 248.141259 
L 201.88292 247.857639 
L 201.849868 247.571345 
L 201.817947 247.287725 
L 201.789416 247.012127 
L 201.766537 246.7499 
L 201.751569 246.506392 
L 201.746775 246.286951 
L 201.754413 246.096926 
L 201.776746 245.941664 
L 201.816032 245.826515 
L 201.874534 245.756825 
L 201.954511 245.737944 
L 202.058224 245.77522 
L 202.187934 245.874001 
L 202.345901 246.039636 
L 202.534386 246.277472 
L 202.755649 246.592857 
L 203.011952 246.991141 
L 203.305553 247.477672 
L 203.638715 248.057797 
L 204.013698 248.736865 
L 204.432762 249.520224 
L 204.898168 250.413222 
L 205.412176 251.421209 
L 205.977047 252.549531 
L 206.595042 253.803537 
" style="fill:none;stroke:#000000;stroke-linecap:round;stroke-width:1.5;"/>
   </g>
   <g id="line2d_33">
    <path clip-path="url(#p5d86bc6a8c)" d="M 293.94 264.5775 
L 336.06 264.5775 
M 336.06 257.6025 
L 336.06 271.5525 
M 339.3 257.6025 
L 339.3 271.5525 
L 345.78 271.5525 
L 345.78 257.6025 
L 339.3 257.6025 
M 349.02 257.6025 
L 349.02 271.5525 
M 349.02 264.5775 
L 391.14 264.5775 
" style="fill:none;stroke:#000000;stroke-linecap:round;stroke-width:1.5;"/>
   </g>
   <g id="line2d_34">
    <path clip-path="url(#p5d86bc6a8c)" d="M 423.54 264.5775 
L 455.94 264.5775 
L 462.42 264.5775 
L 462.42 268.7625 
L 468.9 268.7625 
L 468.9 260.3925 
L 475.38 260.3925 
L 475.38 268.7625 
L 481.86 268.7625 
L 481.86 264.5775 
L 488.34 264.5775 
L 520.74 264.5775 
" style="fill:none;stroke:#000000;stroke-linecap:round;stroke-width:1.5;"/>
   </g>
   <g id="line2d_35">
    <path clip-path="url(#p5d86bc6a8c)" d="M 455.94 257.6025 
L 488.34 257.6025 
L 488.34 271.5525 
L 455.94 271.5525 
L 455.94 257.6025 
" style="fill:none;stroke:#000000;stroke-linecap:round;stroke-width:1.5;"/>
   </g>
   <g id="line2d_36">
    <path clip-path="url(#p5d86bc6a8c)" d="M 34.74 320.3775 
L 60.66 320.3775 
L 60.66 313.4025 
L 67.14 313.4025 
L 67.14 327.3525 
L 73.62 327.3525 
L 73.62 313.4025 
L 80.1 313.4025 
L 80.1 327.3525 
L 86.58 327.3525 
L 86.58 313.4025 
L 93.06 313.4025 
L 93.06 327.3525 
L 99.54 327.3525 
L 99.54 320.3775 
L 106.02 320.3775 
L 131.94 320.3775 
" style="fill:none;stroke:#000000;stroke-linecap:round;stroke-width:1.5;"/>
   </g>
   <g id="line2d_37">
    <path clip-path="url(#p5d86bc6a8c)" d="M 164.34 320.3775 
L 212.94 320.3775 
M 204.84 313.4025 
L 221.04 327.3525 
M 221.04 313.4025 
L 204.84 327.3525 
M 212.94 320.3775 
L 261.54 320.3775 
" style="fill:none;stroke:#000000;stroke-linecap:round;stroke-width:1.5;"/>
   </g>
   <g id="patch_15">
    <path clip-path="url(#p5d86bc6a8c)" d="M 207.27 146.0025 
L 218.61 152.9775 
L 207.27 159.9525 
z
" style="fill:none;stroke:#000000;stroke-linejoin:miter;stroke-width:1.5;"/>
   </g>
   <g id="patch_16">
    <path clip-path="url(#p5d86bc6a8c)" d="M 336.87 146.0025 
L 348.21 152.9775 
L 336.87 159.9525 
z
" style="stroke:#000000;stroke-linejoin:miter;stroke-width:1.5;"/>
   </g>
   <g id="patch_17">
    <path clip-path="url(#p5d86bc6a8c)" d="M 336.87 146.0025 
L 348.21 152.9775 
L 336.87 159.9525 
z
" style="fill:none;stroke:#000000;stroke-linejoin:miter;stroke-width:1.5;"/>
   </g>
   <g id="patch_18">
    <path clip-path="url(#p5d86bc6a8c)" d="M 466.47 146.0025 
L 477.81 152.9775 
L 466.47 159.9525 
z
" style="fill:none;stroke:#000000;stroke-linejoin:miter;stroke-width:1.5;"/>
   </g>
   <g id="patch_19">
    <path clip-path="url(#p5d86bc6a8c)" d="M 77.67 201.8025 
L 89.01 208.7775 
L 77.67 215.7525 
z
" style="stroke:#000000;stroke-linejoin:miter;stroke-width:1.5;"/>
   </g>
   <g id="patch_20">
    <path clip-path="url(#p5d86bc6a8c)" d="M 77.67 201.8025 
L 89.01 208.7775 
L 77.67 215.7525 
z
" style="fill:none;stroke:#000000;stroke-linejoin:miter;stroke-width:1.5;"/>
   </g>
   <g id="patch_21">
    <path clip-path="url(#p5d86bc6a8c)" d="M 207.27 201.8025 
L 218.61 208.7775 
L 207.27 215.7525 
z
" style="fill:none;stroke:#000000;stroke-linejoin:miter;stroke-width:1.5;"/>
   </g>
   <g id="patch_22">
    <path clip-path="url(#p5d86bc6a8c)" d="M 336.87 201.8025 
L 348.21 208.7775 
L 336.87 215.7525 
z
" style="stroke:#000000;stroke-linejoin:miter;stroke-width:1.5;"/>
   </g>
   <g id="patch_23">
    <path clip-path="url(#p5d86bc6a8c)" d="M 336.87 201.8025 
L 348.21 208.7775 
L 336.87 215.7525 
z
" style="fill:none;stroke:#000000;stroke-linejoin:miter;stroke-width:1.5;"/>
   </g>
   <g id="patch_24">
    <path clip-path="url(#p5d86bc6a8c)" d="M 466.47 201.8025 
L 477.81 208.7775 
L 466.47 215.7525 
z
" style="fill:none;stroke:#000000;stroke-linejoin:miter;stroke-width:1.5;"/>
   </g>
   <g id="patch_25">
    <path clip-path="url(#p5d86bc6a8c)" d="M 77.67 257.6025 
L 89.01 264.5775 
L 77.67 271.5525 
z
" style="fill:none;stroke:#000000;stroke-linejoin:miter;stroke-width:1.5;"/>
   </g>
   <g id="patch_26">
    <path clip-path="url(#p5d86bc6a8c)" d="M 207.27 257.6025 
L 218.61 264.5775 
L 207.27 271.5525 
z
" style="fill:none;stroke:#000000;stroke-linejoin:miter;stroke-width:1.5;"/>
   </g>
   <g id="patch_27">
    <path clip-path="url(#p5d86bc6a8c)" d="M 455.94 257.6025 
L 455.94 271.5525 
L 459.18 271.5525 
L 459.18 257.6025 
z
" style="stroke:#000000;stroke-linejoin:miter;stroke-width:1.5;"/>
   </g>
   <g id="text_1">
    <!-- RES -->
    <defs>
     <path d="M 44.390625 34.1875 
Q 47.5625 33.109375 50.5625 29.59375 
Q 53.5625 26.078125 56.59375 19.921875 
L 66.609375 0 
L 56 0 
L 46.6875 18.703125 
Q 43.0625 26.03125 39.671875 28.421875 
Q 36.28125 30.8125 30.421875 30.8125 
L 19.671875 30.8125 
L 19.671875 0 
L 9.8125 0 
L 9.8125 72.90625 
L 32.078125 72.90625 
Q 44.578125 72.90625 50.734375 67.671875 
Q 56.890625 62.453125 56.890625 51.90625 
Q 56.890625 45.015625 53.6875 40.46875 
Q 50.484375 35.9375 44.390625 34.1875 
z
M 19.671875 64.796875 
L 19.671875 38.921875 
L 32.078125 38.921875 
Q 39.203125 38.921875 42.84375 42.21875 
Q 46.484375 45.515625 46.484375 51.90625 
Q 46.484375 58.296875 42.84375 61.546875 
Q 39.203125 64.796875 32.078125 64.796875 
z
" id="DejaVuSans-82"/>
     <path d="M 9.8125 72.90625 
L 55.90625 72.90625 
L 55.90625 64.59375 
L 19.671875 64.59375 
L 19.671875 43.015625 
L 54.390625 43.015625 
L 54.390625 34.71875 
L 19.671875 34.71875 
L 19.671875 8.296875 
L 56.78125 8.296875 
L 56.78125 0 
L 9.8125 0 
z
" id="DejaVuSans-69"/>
     <path d="M 53.515625 70.515625 
L 53.515625 60.890625 
Q 47.90625 63.578125 42.921875 64.890625 
Q 37.9375 66.21875 33.296875 66.21875 
Q 25.25 66.21875 20.875 63.09375 
Q 16.5 59.96875 16.5 54.203125 
Q 16.5 49.359375 19.40625 46.890625 
Q 22.3125 44.4375 30.421875 42.921875 
L 36.375 41.703125 
Q 47.40625 39.59375 52.65625 34.296875 
Q 57.90625 29 57.90625 20.125 
Q 57.90625 9.515625 50.796875 4.046875 
Q 43.703125 -1.421875 29.984375 -1.421875 
Q 24.8125 -1.421875 18.96875 -0.25 
Q 13.140625 0.921875 6.890625 3.21875 
L 6.890625 13.375 
Q 12.890625 10.015625 18.65625 8.296875 
Q 24.421875 6.59375 29.984375 6.59375 
Q 38.421875 6.59375 43.015625 9.90625 
Q 47.609375 13.234375 47.609375 19.390625 
Q 47.609375 24.75 44.3125 27.78125 
Q 41.015625 30.8125 33.5 32.328125 
L 27.484375 33.5 
Q 16.453125 35.6875 11.515625 40.375 
Q 6.59375 45.0625 6.59375 53.421875 
Q 6.59375 63.09375 13.40625 68.65625 
Q 20.21875 74.21875 32.171875 74.21875 
Q 37.3125 74.21875 42.625 73.28125 
Q 47.953125 72.359375 53.515625 70.515625 
z
" id="DejaVuSans-83"/>
    </defs>
    <g transform="translate(71.570625 27.94875)scale(0.12 -0.12)">
     <use xlink:href="#DejaVuSans-82"/>
     <use x="69.482422" xlink:href="#DejaVuSans-69"/>
     <use x="132.666016" xlink:href="#DejaVuSans-83"/>
    </g>
   </g>
   <g id="text_2">
    <!-- RES_VAR -->
    <defs>
     <path d="M 50.984375 -16.609375 
L 50.984375 -23.578125 
L -0.984375 -23.578125 
L -0.984375 -16.609375 
z
" id="DejaVuSans-95"/>
     <path d="M 28.609375 0 
L 0.78125 72.90625 
L 11.078125 72.90625 
L 34.1875 11.53125 
L 57.328125 72.90625 
L 67.578125 72.90625 
L 39.796875 0 
z
" id="DejaVuSans-86"/>
     <path d="M 34.1875 63.1875 
L 20.796875 26.90625 
L 47.609375 26.90625 
z
M 28.609375 72.90625 
L 39.796875 72.90625 
L 67.578125 0 
L 57.328125 0 
L 50.6875 18.703125 
L 17.828125 18.703125 
L 11.1875 0 
L 0.78125 0 
z
" id="DejaVuSans-65"/>
    </defs>
    <g transform="translate(185.798437 26.513437)scale(0.12 -0.12)">
     <use xlink:href="#DejaVuSans-82"/>
     <use x="69.482422" xlink:href="#DejaVuSans-69"/>
     <use x="132.666016" xlink:href="#DejaVuSans-83"/>
     <use x="196.142578" xlink:href="#DejaVuSans-95"/>
     <use x="246.142578" xlink:href="#DejaVuSans-86"/>
     <use x="314.457031" xlink:href="#DejaVuSans-65"/>
     <use x="382.865234" xlink:href="#DejaVuSans-82"/>
    </g>
   </g>
   <g id="text_3">
    <!-- RBOX -->
    <defs>
     <path d="M 19.671875 34.8125 
L 19.671875 8.109375 
L 35.5 8.109375 
Q 43.453125 8.109375 47.28125 11.40625 
Q 51.125 14.703125 51.125 21.484375 
Q 51.125 28.328125 47.28125 31.5625 
Q 43.453125 34.8125 35.5 34.8125 
z
M 19.671875 64.796875 
L 19.671875 42.828125 
L 34.28125 42.828125 
Q 41.5 42.828125 45.03125 45.53125 
Q 48.578125 48.25 48.578125 53.8125 
Q 48.578125 59.328125 45.03125 62.0625 
Q 41.5 64.796875 34.28125 64.796875 
z
M 9.8125 72.90625 
L 35.015625 72.90625 
Q 46.296875 72.90625 52.390625 68.21875 
Q 58.5 63.53125 58.5 54.890625 
Q 58.5 48.1875 55.375 44.234375 
Q 52.25 40.28125 46.1875 39.3125 
Q 53.46875 37.75 57.5 32.78125 
Q 61.53125 27.828125 61.53125 20.40625 
Q 61.53125 10.640625 54.890625 5.3125 
Q 48.25 0 35.984375 0 
L 9.8125 0 
z
" id="DejaVuSans-66"/>
     <path d="M 39.40625 66.21875 
Q 28.65625 66.21875 22.328125 58.203125 
Q 16.015625 50.203125 16.015625 36.375 
Q 16.015625 22.609375 22.328125 14.59375 
Q 28.65625 6.59375 39.40625 6.59375 
Q 50.140625 6.59375 56.421875 14.59375 
Q 62.703125 22.609375 62.703125 36.375 
Q 62.703125 50.203125 56.421875 58.203125 
Q 50.140625 66.21875 39.40625 66.21875 
z
M 39.40625 74.21875 
Q 54.734375 74.21875 63.90625 63.9375 
Q 73.09375 53.65625 73.09375 36.375 
Q 73.09375 19.140625 63.90625 8.859375 
Q 54.734375 -1.421875 39.40625 -1.421875 
Q 24.03125 -1.421875 14.8125 8.828125 
Q 5.609375 19.09375 5.609375 36.375 
Q 5.609375 53.65625 14.8125 63.9375 
Q 24.03125 74.21875 39.40625 74.21875 
z
" id="DejaVuSans-79"/>
     <path d="M 6.296875 72.90625 
L 16.890625 72.90625 
L 35.015625 45.796875 
L 53.21875 72.90625 
L 63.8125 72.90625 
L 40.375 37.890625 
L 65.375 0 
L 54.78125 0 
L 34.28125 31 
L 13.625 0 
L 2.984375 0 
L 29 38.921875 
z
" id="DejaVuSans-88"/>
    </defs>
    <g transform="translate(325.427812 27.94875)scale(0.12 -0.12)">
     <use xlink:href="#DejaVuSans-82"/>
     <use x="69.482422" xlink:href="#DejaVuSans-66"/>
     <use x="138.070312" xlink:href="#DejaVuSans-79"/>
     <use x="216.6875" xlink:href="#DejaVuSans-88"/>
    </g>
   </g>
   <g id="text_4">
    <!-- CAP -->
    <defs>
     <path d="M 64.40625 67.28125 
L 64.40625 56.890625 
Q 59.421875 61.53125 53.78125 63.8125 
Q 48.140625 66.109375 41.796875 66.109375 
Q 29.296875 66.109375 22.65625 58.46875 
Q 16.015625 50.828125 16.015625 36.375 
Q 16.015625 21.96875 22.65625 14.328125 
Q 29.296875 6.6875 41.796875 6.6875 
Q 48.140625 6.6875 53.78125 8.984375 
Q 59.421875 11.28125 64.40625 15.921875 
L 64.40625 5.609375 
Q 59.234375 2.09375 53.4375 0.328125 
Q 47.65625 -1.421875 41.21875 -1.421875 
Q 24.65625 -1.421875 15.125 8.703125 
Q 5.609375 18.84375 5.609375 36.375 
Q 5.609375 53.953125 15.125 64.078125 
Q 24.65625 74.21875 41.21875 74.21875 
Q 47.75 74.21875 53.53125 72.484375 
Q 59.328125 70.75 64.40625 67.28125 
z
" id="DejaVuSans-67"/>
     <path d="M 19.671875 64.796875 
L 19.671875 37.40625 
L 32.078125 37.40625 
Q 38.96875 37.40625 42.71875 40.96875 
Q 46.484375 44.53125 46.484375 51.125 
Q 46.484375 57.671875 42.71875 61.234375 
Q 38.96875 64.796875 32.078125 64.796875 
z
M 9.8125 72.90625 
L 32.078125 72.90625 
Q 44.34375 72.90625 50.609375 67.359375 
Q 56.890625 61.8125 56.890625 51.125 
Q 56.890625 40.328125 50.609375 34.8125 
Q 44.34375 29.296875 32.078125 29.296875 
L 19.671875 29.296875 
L 19.671875 0 
L 9.8125 0 
z
" id="DejaVuSans-80"/>
    </defs>
    <g transform="translate(460.228125 27.94875)scale(0.12 -0.12)">
     <use xlink:href="#DejaVuSans-67"/>
     <use x="69.824219" xlink:href="#DejaVuSans-65"/>
     <use x="138.232422" xlink:href="#DejaVuSans-80"/>
    </g>
   </g>
   <g id="text_5">
    <!-- CAP2 -->
    <defs>
     <path d="M 19.1875 8.296875 
L 53.609375 8.296875 
L 53.609375 0 
L 7.328125 0 
L 7.328125 8.296875 
Q 12.9375 14.109375 22.625 23.890625 
Q 32.328125 33.6875 34.8125 36.53125 
Q 39.546875 41.84375 41.421875 45.53125 
Q 43.3125 49.21875 43.3125 52.78125 
Q 43.3125 58.59375 39.234375 62.25 
Q 35.15625 65.921875 28.609375 65.921875 
Q 23.96875 65.921875 18.8125 64.3125 
Q 13.671875 62.703125 7.8125 59.421875 
L 7.8125 69.390625 
Q 13.765625 71.78125 18.9375 73 
Q 24.125 74.21875 28.421875 74.21875 
Q 39.75 74.21875 46.484375 68.546875 
Q 53.21875 62.890625 53.21875 53.421875 
Q 53.21875 48.921875 51.53125 44.890625 
Q 49.859375 40.875 45.40625 35.40625 
Q 44.1875 33.984375 37.640625 27.21875 
Q 31.109375 20.453125 19.1875 8.296875 
z
" id="DejaVuSans-50"/>
    </defs>
    <g transform="translate(67.610625 83.74875)scale(0.12 -0.12)">
     <use xlink:href="#DejaVuSans-67"/>
     <use x="69.824219" xlink:href="#DejaVuSans-65"/>
     <use x="138.232422" xlink:href="#DejaVuSans-80"/>
     <use x="198.535156" xlink:href="#DejaVuSans-50"/>
    </g>
   </g>
   <g id="text_6">
    <!-- CAP_P -->
    <g transform="translate(194.410312 83.475937)scale(0.12 -0.12)">
     <use xlink:href="#DejaVuSans-67"/>
     <use x="69.824219" xlink:href="#DejaVuSans-65"/>
     <use x="138.232422" xlink:href="#DejaVuSans-80"/>
     <use x="198.535156" xlink:href="#DejaVuSans-95"/>
     <use x="248.535156" xlink:href="#DejaVuSans-80"/>
    </g>
   </g>
   <g id="text_7">
    <!-- + -->
    <defs>
     <path d="M 46 62.703125 
L 46 35.5 
L 73.1875 35.5 
L 73.1875 27.203125 
L 46 27.203125 
L 46 0 
L 37.796875 0 
L 37.796875 27.203125 
L 10.59375 27.203125 
L 10.59375 35.5 
L 37.796875 35.5 
L 37.796875 62.703125 
z
" id="DejaVuSans-43"/>
    </defs>
    <g transform="translate(197.997787 95.46675)scale(0.12 -0.12)">
     <use xlink:href="#DejaVuSans-43"/>
    </g>
   </g>
   <g id="text_8">
    <!-- CAP2_P -->
    <g transform="translate(320.192812 83.475937)scale(0.12 -0.12)">
     <use xlink:href="#DejaVuSans-67"/>
     <use x="69.824219" xlink:href="#DejaVuSans-65"/>
     <use x="138.232422" xlink:href="#DejaVuSans-80"/>
     <use x="198.535156" xlink:href="#DejaVuSans-50"/>
     <use x="262.158203" xlink:href="#DejaVuSans-95"/>
     <use x="312.158203" xlink:href="#DejaVuSans-80"/>
    </g>
   </g>
   <g id="text_9">
    <!-- + -->
    <g transform="translate(327.597787 95.46675)scale(0.12 -0.12)">
     <use xlink:href="#DejaVuSans-43"/>
    </g>
   </g>
   <g id="text_10">
    <!-- INDUCTOR -->
    <defs>
     <path d="M 9.8125 72.90625 
L 19.671875 72.90625 
L 19.671875 0 
L 9.8125 0 
z
" id="DejaVuSans-73"/>
     <path d="M 9.8125 72.90625 
L 23.09375 72.90625 
L 55.421875 11.921875 
L 55.421875 72.90625 
L 64.984375 72.90625 
L 64.984375 0 
L 51.703125 0 
L 19.390625 60.984375 
L 19.390625 0 
L 9.8125 0 
z
" id="DejaVuSans-78"/>
     <path d="M 19.671875 64.796875 
L 19.671875 8.109375 
L 31.59375 8.109375 
Q 46.6875 8.109375 53.6875 14.9375 
Q 60.6875 21.78125 60.6875 36.53125 
Q 60.6875 51.171875 53.6875 57.984375 
Q 46.6875 64.796875 31.59375 64.796875 
z
M 9.8125 72.90625 
L 30.078125 72.90625 
Q 51.265625 72.90625 61.171875 64.09375 
Q 71.09375 55.28125 71.09375 36.53125 
Q 71.09375 17.671875 61.125 8.828125 
Q 51.171875 0 30.078125 0 
L 9.8125 0 
z
" id="DejaVuSans-68"/>
     <path d="M 8.6875 72.90625 
L 18.609375 72.90625 
L 18.609375 28.609375 
Q 18.609375 16.890625 22.84375 11.734375 
Q 27.09375 6.59375 36.625 6.59375 
Q 46.09375 6.59375 50.34375 11.734375 
Q 54.59375 16.890625 54.59375 28.609375 
L 54.59375 72.90625 
L 64.5 72.90625 
L 64.5 27.390625 
Q 64.5 13.140625 57.4375 5.859375 
Q 50.390625 -1.421875 36.625 -1.421875 
Q 22.796875 -1.421875 15.734375 5.859375 
Q 8.6875 13.140625 8.6875 27.390625 
z
" id="DejaVuSans-85"/>
     <path d="M -0.296875 72.90625 
L 61.375 72.90625 
L 61.375 64.59375 
L 35.5 64.59375 
L 35.5 0 
L 25.59375 0 
L 25.59375 64.59375 
L -0.296875 64.59375 
z
" id="DejaVuSans-84"/>
    </defs>
    <g transform="translate(440.123437 83.74875)scale(0.12 -0.12)">
     <use xlink:href="#DejaVuSans-73"/>
     <use x="29.492188" xlink:href="#DejaVuSans-78"/>
     <use x="104.296875" xlink:href="#DejaVuSans-68"/>
     <use x="181.298828" xlink:href="#DejaVuSans-85"/>
     <use x="254.492188" xlink:href="#DejaVuSans-67"/>
     <use x="324.316406" xlink:href="#DejaVuSans-84"/>
     <use x="385.400391" xlink:href="#DejaVuSans-79"/>
     <use x="464.111328" xlink:href="#DejaVuSans-82"/>
    </g>
   </g>
   <g id="text_11">
    <!-- INDUCTOR2 -->
    <g transform="translate(47.505937 137.003877)scale(0.12 -0.12)">
     <use xlink:href="#DejaVuSans-73"/>
     <use x="29.492188" xlink:href="#DejaVuSans-78"/>
     <use x="104.296875" xlink:href="#DejaVuSans-68"/>
     <use x="181.298828" xlink:href="#DejaVuSans-85"/>
     <use x="254.492188" xlink:href="#DejaVuSans-67"/>
     <use x="324.316406" xlink:href="#DejaVuSans-84"/>
     <use x="385.400391" xlink:href="#DejaVuSans-79"/>
     <use x="464.111328" xlink:href="#DejaVuSans-82"/>
     <use x="533.59375" xlink:href="#DejaVuSans-50"/>
    </g>
   </g>
   <g id="text_12">
    <!-- DIODE -->
    <g transform="translate(193.415625 139.54875)scale(0.12 -0.12)">
     <use xlink:href="#DejaVuSans-68"/>
     <use x="77.001953" xlink:href="#DejaVuSans-73"/>
     <use x="106.494141" xlink:href="#DejaVuSans-79"/>
     <use x="185.205078" xlink:href="#DejaVuSans-68"/>
     <use x="262.207031" xlink:href="#DejaVuSans-69"/>
    </g>
   </g>
   <g id="text_13">
    <!-- DIODE_F -->
    <defs>
     <path d="M 9.8125 72.90625 
L 51.703125 72.90625 
L 51.703125 64.59375 
L 19.671875 64.59375 
L 19.671875 43.109375 
L 48.578125 43.109375 
L 48.578125 34.8125 
L 19.671875 34.8125 
L 19.671875 0 
L 9.8125 0 
z
" id="DejaVuSans-70"/>
    </defs>
    <g transform="translate(316.564687 139.275937)scale(0.12 -0.12)">
     <use xlink:href="#DejaVuSans-68"/>
     <use x="77.001953" xlink:href="#DejaVuSans-73"/>
     <use x="106.494141" xlink:href="#DejaVuSans-79"/>
     <use x="185.205078" xlink:href="#DejaVuSans-68"/>
     <use x="262.207031" xlink:href="#DejaVuSans-69"/>
     <use x="325.390625" xlink:href="#DejaVuSans-95"/>
     <use x="375.390625" xlink:href="#DejaVuSans-70"/>
    </g>
   </g>
   <g id="text_14">
    <!-- SCHOTTKY -->
    <defs>
     <path d="M 9.8125 72.90625 
L 19.671875 72.90625 
L 19.671875 43.015625 
L 55.515625 43.015625 
L 55.515625 72.90625 
L 65.375 72.90625 
L 65.375 0 
L 55.515625 0 
L 55.515625 34.71875 
L 19.671875 34.71875 
L 19.671875 0 
L 9.8125 0 
z
" id="DejaVuSans-72"/>
     <path d="M 9.8125 72.90625 
L 19.671875 72.90625 
L 19.671875 42.09375 
L 52.390625 72.90625 
L 65.09375 72.90625 
L 28.90625 38.921875 
L 67.671875 0 
L 54.6875 0 
L 19.671875 35.109375 
L 19.671875 0 
L 9.8125 0 
z
" id="DejaVuSans-75"/>
     <path d="M -0.203125 72.90625 
L 10.40625 72.90625 
L 30.609375 42.921875 
L 50.6875 72.90625 
L 61.28125 72.90625 
L 35.5 34.71875 
L 35.5 0 
L 25.59375 0 
L 25.59375 34.71875 
z
" id="DejaVuSans-89"/>
    </defs>
    <g transform="translate(439.980937 139.54875)scale(0.12 -0.12)">
     <use xlink:href="#DejaVuSans-83"/>
     <use x="63.476562" xlink:href="#DejaVuSans-67"/>
     <use x="133.300781" xlink:href="#DejaVuSans-72"/>
     <use x="208.496094" xlink:href="#DejaVuSans-79"/>
     <use x="287.207031" xlink:href="#DejaVuSans-84"/>
     <use x="348.275391" xlink:href="#DejaVuSans-84"/>
     <use x="409.359375" xlink:href="#DejaVuSans-75"/>
     <use x="474.888672" xlink:href="#DejaVuSans-89"/>
    </g>
   </g>
   <g id="text_15">
    <!-- SCHOTTKY_F -->
    <g transform="translate(44.73 195.075937)scale(0.12 -0.12)">
     <use xlink:href="#DejaVuSans-83"/>
     <use x="63.476562" xlink:href="#DejaVuSans-67"/>
     <use x="133.300781" xlink:href="#DejaVuSans-72"/>
     <use x="208.496094" xlink:href="#DejaVuSans-79"/>
     <use x="287.207031" xlink:href="#DejaVuSans-84"/>
     <use x="348.275391" xlink:href="#DejaVuSans-84"/>
     <use x="409.359375" xlink:href="#DejaVuSans-75"/>
     <use x="474.888672" xlink:href="#DejaVuSans-89"/>
     <use x="535.972656" xlink:href="#DejaVuSans-95"/>
     <use x="585.972656" xlink:href="#DejaVuSans-70"/>
    </g>
   </g>
   <g id="text_16">
    <!-- ZENER -->
    <defs>
     <path d="M 5.609375 72.90625 
L 62.890625 72.90625 
L 62.890625 65.375 
L 16.796875 8.296875 
L 64.015625 8.296875 
L 64.015625 0 
L 4.5 0 
L 4.5 7.515625 
L 50.59375 64.59375 
L 5.609375 64.59375 
z
" id="DejaVuSans-90"/>
    </defs>
    <g transform="translate(192.589687 195.34875)scale(0.12 -0.12)">
     <use xlink:href="#DejaVuSans-90"/>
     <use x="68.505859" xlink:href="#DejaVuSans-69"/>
     <use x="131.689453" xlink:href="#DejaVuSans-78"/>
     <use x="206.494141" xlink:href="#DejaVuSans-69"/>
     <use x="269.677734" xlink:href="#DejaVuSans-82"/>
    </g>
   </g>
   <g id="text_17">
    <!-- ZENER_F -->
    <g transform="translate(315.73875 195.015)scale(0.12 -0.12)">
     <use xlink:href="#DejaVuSans-90"/>
     <use x="68.505859" xlink:href="#DejaVuSans-69"/>
     <use x="131.689453" xlink:href="#DejaVuSans-78"/>
     <use x="206.494141" xlink:href="#DejaVuSans-69"/>
     <use x="269.677734" xlink:href="#DejaVuSans-82"/>
     <use x="339.160156" xlink:href="#DejaVuSans-95"/>
     <use x="389.160156" xlink:href="#DejaVuSans-70"/>
    </g>
   </g>
   <g id="text_18">
    <!-- LED -->
    <defs>
     <path d="M 9.8125 72.90625 
L 19.671875 72.90625 
L 19.671875 8.296875 
L 55.171875 8.296875 
L 55.171875 0 
L 9.8125 0 
z
" id="DejaVuSans-76"/>
    </defs>
    <g transform="translate(460.385625 187.501875)scale(0.12 -0.12)">
     <use xlink:href="#DejaVuSans-76"/>
     <use x="55.712891" xlink:href="#DejaVuSans-69"/>
     <use x="118.896484" xlink:href="#DejaVuSans-68"/>
    </g>
   </g>
   <g id="text_19">
    <!-- LED2 -->
    <g transform="translate(67.768125 242.205987)scale(0.12 -0.12)">
     <use xlink:href="#DejaVuSans-76"/>
     <use x="55.712891" xlink:href="#DejaVuSans-69"/>
     <use x="118.896484" xlink:href="#DejaVuSans-68"/>
     <use x="195.898438" xlink:href="#DejaVuSans-50"/>
    </g>
   </g>
   <g id="text_20">
    <!-- PHOTODIODE -->
    <g transform="translate(172.174687 242.205987)scale(0.12 -0.12)">
     <use xlink:href="#DejaVuSans-80"/>
     <use x="60.302734" xlink:href="#DejaVuSans-72"/>
     <use x="135.498047" xlink:href="#DejaVuSans-79"/>
     <use x="214.208984" xlink:href="#DejaVuSans-84"/>
     <use x="275.292969" xlink:href="#DejaVuSans-79"/>
     <use x="354.003906" xlink:href="#DejaVuSans-68"/>
     <use x="431.005859" xlink:href="#DejaVuSans-73"/>
     <use x="460.498047" xlink:href="#DejaVuSans-79"/>
     <use x="539.208984" xlink:href="#DejaVuSans-68"/>
     <use x="616.210938" xlink:href="#DejaVuSans-69"/>
    </g>
   </g>
   <g id="text_21">
    <!-- XTAL -->
    <g transform="translate(327.325312 251.14875)scale(0.12 -0.12)">
     <use xlink:href="#DejaVuSans-88"/>
     <use x="68.490234" xlink:href="#DejaVuSans-84"/>
     <use x="129.464844" xlink:href="#DejaVuSans-65"/>
     <use x="197.873047" xlink:href="#DejaVuSans-76"/>
    </g>
   </g>
   <g id="text_22">
    <!-- MEMRISTOR -->
    <defs>
     <path d="M 9.8125 72.90625 
L 24.515625 72.90625 
L 43.109375 23.296875 
L 61.8125 72.90625 
L 76.515625 72.90625 
L 76.515625 0 
L 66.890625 0 
L 66.890625 64.015625 
L 48.09375 14.015625 
L 38.1875 14.015625 
L 19.390625 64.015625 
L 19.390625 0 
L 9.8125 0 
z
" id="DejaVuSans-77"/>
    </defs>
    <g transform="translate(435.69 251.14875)scale(0.12 -0.12)">
     <use xlink:href="#DejaVuSans-77"/>
     <use x="86.279297" xlink:href="#DejaVuSans-69"/>
     <use x="149.462891" xlink:href="#DejaVuSans-77"/>
     <use x="235.742188" xlink:href="#DejaVuSans-82"/>
     <use x="305.224609" xlink:href="#DejaVuSans-73"/>
     <use x="334.716797" xlink:href="#DejaVuSans-83"/>
     <use x="398.193359" xlink:href="#DejaVuSans-84"/>
     <use x="459.277344" xlink:href="#DejaVuSans-79"/>
     <use x="537.988281" xlink:href="#DejaVuSans-82"/>
    </g>
   </g>
   <g id="text_23">
    <!-- MEMRISTOR2 -->
    <g transform="translate(43.0725 306.94875)scale(0.12 -0.12)">
     <use xlink:href="#DejaVuSans-77"/>
     <use x="86.279297" xlink:href="#DejaVuSans-69"/>
     <use x="149.462891" xlink:href="#DejaVuSans-77"/>
     <use x="235.742188" xlink:href="#DejaVuSans-82"/>
     <use x="305.224609" xlink:href="#DejaVuSans-73"/>
     <use x="334.716797" xlink:href="#DejaVuSans-83"/>
     <use x="398.193359" xlink:href="#DejaVuSans-84"/>
     <use x="459.277344" xlink:href="#DejaVuSans-79"/>
     <use x="537.988281" xlink:href="#DejaVuSans-82"/>
     <use x="607.470703" xlink:href="#DejaVuSans-50"/>
    </g>
   </g>
   <g id="text_24">
    <!-- JJ -->
    <defs>
     <path d="M 9.8125 72.90625 
L 19.671875 72.90625 
L 19.671875 5.078125 
Q 19.671875 -8.109375 14.671875 -14.0625 
Q 9.671875 -20.015625 -1.421875 -20.015625 
L -5.171875 -20.015625 
L -5.171875 -11.71875 
L -2.09375 -11.71875 
Q 4.4375 -11.71875 7.125 -8.046875 
Q 9.8125 -4.390625 9.8125 5.078125 
z
" id="DejaVuSans-74"/>
    </defs>
    <g transform="translate(209.4 306.94875)scale(0.12 -0.12)">
     <use xlink:href="#DejaVuSans-74"/>
     <use x="29.492188" xlink:href="#DejaVuSans-74"/>
    </g>
   </g>
  </g>
 </g>
 <defs>
  <clipPath id="p5d86bc6a8c">
   <rect height="338.055" width="541.08" x="7.2" y="7.2"/>
  </clipPath>
 </defs>
</svg>
