<?xml version="1.0" encoding="utf-8" standalone="no"?>
<!DOCTYPE svg PUBLIC "-//W3C//DTD SVG 1.1//EN"
  "http://www.w3.org/Graphics/SVG/1.1/DTD/svg11.dtd">
<!-- Created with matplotlib (https://matplotlib.org/) -->
<svg height="459.87pt" version="1.1" viewBox="0 0 555.48 459.87" width="555.48pt" xmlns="http://www.w3.org/2000/svg" xmlns:xlink="http://www.w3.org/1999/xlink">
 <defs>
  <style type="text/css">
*{stroke-linecap:butt;stroke-linejoin:round;}
  </style>
 </defs>
 <g id="figure_1">
  <g id="patch_1">
   <path d="M 0 459.87 
L 555.48 459.87 
L 555.48 0 
L 0 0 
z
" style="fill:none;"/>
  </g>
  <g id="axes_1">
   <g id="patch_2">
    <path clip-path="url(#p81e9046052)" d="M 86.866487 101.62575 
C 86.233942 102.407802 85.711892 103.49891 85.349946 104.795387 
C 84.988001 106.091863 84.798 107.551298 84.798 109.035 
C 84.798 110.518702 84.988001 111.978137 85.349946 113.274613 
C 85.711892 114.57109 86.233942 115.662198 86.866487 116.44425 
" style="fill:none;stroke:#000000;stroke-linejoin:miter;stroke-width:1.5;"/>
   </g>
   <g id="patch_3">
    <path clip-path="url(#p81e9046052)" d="M 346.066487 101.62575 
C 345.433942 102.407802 344.911892 103.49891 344.549946 104.795387 
C 344.188001 106.091863 343.998 107.551298 343.998 109.035 
C 343.998 110.518702 344.188001 111.978137 344.549946 113.274613 
C 344.911892 114.57109 345.433942 115.662198 346.066487 116.44425 
" style="fill:none;stroke:#000000;stroke-linejoin:miter;stroke-width:1.5;"/>
   </g>
   <g id="patch_4">
    <path clip-path="url(#p81e9046052)" d="M 464.04 109.035 
C 464.04 108.110412 463.613014 107.222747 462.853782 106.568965 
C 462.094551 105.915183 461.063715 105.5475 459.99 105.5475 
C 458.916285 105.5475 457.885449 105.915183 457.126218 106.568965 
C 456.366986 107.222747 455.94 108.110412 455.94 109.035 
" style="fill:none;stroke:#000000;stroke-linejoin:miter;stroke-width:1.5;"/>
   </g>
   <g id="patch_5">
    <path clip-path="url(#p81e9046052)" d="M 472.14 109.035 
C 472.14 108.110412 471.713014 107.222747 470.953782 106.568965 
C 470.194551 105.915183 469.163715 105.5475 468.09 105.5475 
C 467.016285 105.5475 465.985449 105.915183 465.226218 106.568965 
C 464.466986 107.222747 464.04 108.110412 464.04 109.035 
" style="fill:none;stroke:#000000;stroke-linejoin:miter;stroke-width:1.5;"/>
   </g>
   <g id="patch_6">
    <path clip-path="url(#p81e9046052)" d="M 480.24 109.035 
C 480.24 108.110412 479.813014 107.222747 479.053782 106.568965 
C 478.294551 105.915183 477.263715 105.5475 476.19 105.5475 
C 475.116285 105.5475 474.085449 105.915183 473.326218 106.568965 
C 472.566986 107.222747 472.14 108.110412 472.14 109.035 
" style="fill:none;stroke:#000000;stroke-linejoin:miter;stroke-width:1.5;"/>
   </g>
   <g id="patch_7">
    <path clip-path="url(#p81e9046052)" d="M 488.34 109.035 
C 488.34 108.110412 487.913014 107.222747 487.153782 106.568965 
C 486.394551 105.915183 485.363715 105.5475 484.29 105.5475 
C 483.216285 105.5475 482.185449 105.915183 481.426218 106.568965 
C 480.666986 107.222747 480.24 108.110412 480.24 109.035 
" style="fill:none;stroke:#000000;stroke-linejoin:miter;stroke-width:1.5;"/>
   </g>
   <g id="patch_8">
    <path clip-path="url(#p81e9046052)" d="M 221.04 29.985 
L 220.089576 35.752917 
L 218.339212 35.057259 
L 204.854709 60.215846 
L 204.825291 60.204154 
L 218.309794 35.045568 
L 216.55943 34.34991 
z
" style="stroke:#000000;stroke-linejoin:miter;stroke-width:1.5;"/>
   </g>
   <g id="patch_9">
    <path clip-path="url(#p81e9046052)" d="M 482.67 211.91625 
L 481.142884 217.591583 
L 479.469085 216.767968 
L 474.584066 224.129421 
L 474.555934 224.115579 
L 479.440954 216.754126 
L 477.767155 215.93051 
z
" style="stroke:#000000;stroke-linejoin:miter;stroke-width:1.5;"/>
   </g>
   <g id="patch_10">
    <path clip-path="url(#p81e9046052)" d="M 475.38 211.91625 
L 473.852884 217.591583 
L 472.179085 216.767968 
L 467.294066 224.129421 
L 467.265934 224.115579 
L 472.150954 216.754126 
L 470.477155 215.93051 
z
" style="stroke:#000000;stroke-linejoin:miter;stroke-width:1.5;"/>
   </g>
   <g id="patch_11">
    <path clip-path="url(#p81e9046052)" d="M 73.626954 272.499474 
L 75.683409 274.17265 
L 74.654429 274.548669 
L 74.259862 273.748031 
L 74.230037 273.75893 
L 74.624604 274.559568 
L 73.595625 274.935587 
z
" style="stroke:#000000;stroke-linejoin:miter;stroke-width:1.5;"/>
   </g>
   <g id="patch_12">
    <path clip-path="url(#p81e9046052)" d="M 67.537746 274.407946 
L 69.594201 276.081122 
L 68.565221 276.457141 
L 68.170654 275.656503 
L 68.140828 275.667402 
L 68.535396 276.46804 
L 67.506417 276.84406 
z
" style="stroke:#000000;stroke-linejoin:miter;stroke-width:1.5;"/>
   </g>
   <g id="patch_13">
    <path clip-path="url(#p81e9046052)" d="M 212.68425 284.677565 
L 210.627796 283.004389 
L 211.656775 282.62837 
L 212.051343 283.429008 
L 212.081168 283.418109 
L 211.686601 282.617471 
L 212.71558 282.241452 
z
" style="stroke:#000000;stroke-linejoin:miter;stroke-width:1.5;"/>
   </g>
   <g id="patch_14">
    <path clip-path="url(#p81e9046052)" d="M 206.595042 286.586037 
L 204.538588 284.912862 
L 205.567567 284.536842 
L 205.962134 285.33748 
L 205.99196 285.326581 
L 205.597392 284.525943 
L 206.626372 284.149924 
z
" style="stroke:#000000;stroke-linejoin:miter;stroke-width:1.5;"/>
   </g>
   <g id="line2d_1">
    <path clip-path="url(#p81e9046052)" d="M 34.74 46.26 
L 67.14 46.26 
L 69.84 39.285 
L 75.24 53.235 
L 80.64 39.285 
L 86.04 53.235 
L 91.44 39.285 
L 96.84 53.235 
L 99.54 46.26 
L 131.94 46.26 
" style="fill:none;stroke:#000000;stroke-linecap:round;stroke-width:1.5;"/>
   </g>
   <g id="line2d_2">
    <path clip-path="url(#p81e9046052)" d="M 164.34 46.26 
L 196.74 46.26 
L 199.44 39.285 
L 204.84 53.235 
L 210.24 39.285 
L 215.64 53.235 
L 221.04 39.285 
L 226.44 53.235 
L 229.14 46.26 
L 261.54 46.26 
" style="fill:none;stroke:#000000;stroke-linecap:round;stroke-width:1.5;"/>
   </g>
   <g id="line2d_3">
    <path clip-path="url(#p81e9046052)" d="M 204.84 60.21 
L 221.04 29.985 
" style="fill:none;stroke:#000000;stroke-linecap:round;stroke-width:1.5;"/>
   </g>
   <g id="line2d_4">
    <path clip-path="url(#p81e9046052)" d="M 293.94 46.26 
L 326.34 46.26 
L 326.34 39.285 
L 358.74 39.285 
L 358.74 53.235 
L 326.34 53.235 
L 326.34 46.26 
M 358.74 46.26 
L 391.14 46.26 
" style="fill:none;stroke:#000000;stroke-linecap:round;stroke-width:1.5;"/>
   </g>
   <g id="line2d_5">
    <path clip-path="url(#p81e9046052)" d="M 423.54 46.26 
L 469.224 46.26 
M 469.224 39.285 
L 469.224 53.235 
M 475.056 39.285 
L 475.056 53.235 
M 475.056 46.26 
L 520.74 46.26 
" style="fill:none;stroke:#000000;stroke-linecap:round;stroke-width:1.5;"/>
   </g>
   <g id="line2d_6">
    <path clip-path="url(#p81e9046052)" d="M 34.74 109.035 
L 80.424 109.035 
M 80.424 102.06 
L 80.424 116.01 
M 86.256 109.035 
L 131.94 109.035 
" style="fill:none;stroke:#000000;stroke-linecap:round;stroke-width:1.5;"/>
   </g>
   <g id="line2d_7">
    <path clip-path="url(#p81e9046052)" d="M 164.34 109.035 
L 210.024 109.035 
M 210.024 102.06 
L 210.024 116.01 
M 215.856 102.06 
L 215.856 116.01 
M 215.856 109.035 
L 261.54 109.035 
" style="fill:none;stroke:#000000;stroke-linecap:round;stroke-width:1.5;"/>
   </g>
   <g id="line2d_8">
    <path clip-path="url(#p81e9046052)" d="M 293.94 109.035 
L 339.624 109.035 
M 339.624 102.06 
L 339.624 116.01 
M 345.456 109.035 
L 391.14 109.035 
" style="fill:none;stroke:#000000;stroke-linecap:round;stroke-width:1.5;"/>
   </g>
   <g id="line2d_9">
    <path clip-path="url(#p81e9046052)" d="M 423.54 109.035 
L 455.94 109.035 
M 488.34 109.035 
L 520.74 109.035 
" style="fill:none;stroke:#000000;stroke-linecap:round;stroke-width:1.5;"/>
   </g>
   <g id="line2d_10">
    <path clip-path="url(#p81e9046052)" d="M 34.74 171.81 
L 67.14 171.81 
L 67.260663 169.512755 
L 67.627584 167.194792 
L 68.232601 165.050514 
L 69.047584 163.259759 
L 70.026792 161.972715 
L 70.559791 161.553742 
L 71.110712 161.297324 
L 71.670786 161.208865 
L 72.231048 161.290229 
L 72.782531 161.539703 
L 73.31645 161.952027 
L 73.824395 162.518511 
L 74.731611 164.063196 
L 75.450702 166.04421 
L 75.943972 168.295406 
L 76.19266 170.627981 
L 76.198521 172.846305 
L 75.983675 174.764331 
L 75.588751 176.221196 
L 75.069483 177.094716 
L 74.783635 177.287718 
L 74.492031 177.311631 
L 74.203658 177.16595 
L 73.927437 176.853747 
L 73.445663 175.759466 
L 73.109727 174.120565 
L 72.970413 172.074495 
L 73.062017 169.792858 
L 73.399467 167.46701 
L 73.977073 165.292017 
L 74.769004 163.450292 
L 75.731451 162.096299 
L 76.258892 161.639573 
L 76.806308 161.343593 
L 77.365002 161.214597 
L 77.926039 161.255304 
L 78.480434 161.464856 
L 79.019344 161.838837 
L 79.534251 162.369362 
L 80.46068 163.852254 
L 81.204636 165.789166 
L 81.726334 168.01765 
L 82.004632 170.350808 
L 82.038801 172.592962 
L 81.848585 174.556064 
L 81.47255 176.075474 
L 80.964843 177.023759 
L 80.681699 177.256793 
L 80.390656 177.32139 
L 80.100692 177.216187 
L 79.820758 176.943403 
L 79.325554 175.921501 
L 78.969189 174.341389 
L 78.804161 172.335588 
L 78.866922 170.072322 
L 79.174819 167.741407 
L 79.724641 165.538334 
L 80.492886 163.647871 
L 81.437734 162.228568 
L 81.959142 161.734643 
L 82.502552 161.39946 
L 83.059352 161.230083 
L 83.620648 161.230083 
L 84.177448 161.39946 
L 84.720858 161.734643 
L 85.242266 162.228568 
L 85.733522 162.870823 
L 86.596321 164.543332 
L 87.259502 166.611901 
L 87.690058 168.903042 
L 87.87449 171.2246 
L 87.81994 173.381869 
L 87.553595 175.193923 
L 87.120404 176.508788 
L 86.579308 177.216187 
L 86.289344 177.32139 
L 85.998301 177.256793 
L 85.715157 177.023759 
L 85.20745 176.075474 
L 84.831415 174.556064 
L 84.641199 172.592962 
L 84.675368 170.350808 
L 84.953666 168.01765 
L 85.475364 165.789166 
L 86.21932 163.852254 
L 87.145749 162.369362 
L 87.660656 161.838837 
L 88.199566 161.464856 
L 88.753961 161.255304 
L 89.314998 161.214597 
L 89.873692 161.343593 
L 90.421108 161.639573 
L 90.948549 162.096299 
L 91.447739 162.704143 
L 92.331399 164.319021 
L 93.02059 166.348772 
L 93.480119 168.623162 
L 93.69406 170.951443 
L 93.667079 173.138344 
L 93.424052 175.000455 
L 93.00797 176.381601 
L 92.476342 177.16595 
L 92.187969 177.311631 
L 91.896365 177.287718 
L 91.610517 177.094716 
L 91.339292 176.736694 
L 90.874456 175.55909 
L 90.563452 173.853671 
L 90.454975 171.763467 
L 90.580734 169.463781 
L 90.952792 167.147483 
L 91.562558 165.008839 
L 92.381501 163.227213 
L 93.36355 161.952027 
L 93.897469 161.539703 
L 94.448952 161.290229 
L 95.009214 161.208865 
L 95.569288 161.297324 
L 96.120209 161.553742 
L 96.653208 161.972715 
L 97.159889 162.545411 
L 98.063669 164.100702 
L 98.77836 166.089175 
L 99.266633 168.34406 
L 99.51015 170.676243 
L 99.54 171.81 
L 131.94 171.81 
L 131.94 171.81 
" style="fill:none;stroke:#000000;stroke-linecap:round;stroke-width:1.5;"/>
   </g>
   <g id="line2d_11">
    <path clip-path="url(#p81e9046052)" d="M 164.34 171.81 
L 207.27 171.81 
M 218.61 164.835 
L 218.61 178.785 
M 218.61 171.81 
L 261.54 171.81 
" style="fill:none;stroke:#000000;stroke-linecap:round;stroke-width:1.5;"/>
   </g>
   <g id="line2d_12">
    <path clip-path="url(#p81e9046052)" d="M 293.94 171.81 
L 336.87 171.81 
M 348.21 164.835 
L 348.21 178.785 
M 348.21 171.81 
L 391.14 171.81 
" style="fill:none;stroke:#000000;stroke-linecap:round;stroke-width:1.5;"/>
   </g>
   <g id="line2d_13">
    <path clip-path="url(#p81e9046052)" d="M 423.54 171.81 
L 466.47 171.81 
M 477.81 164.835 
L 477.81 178.785 
M 477.81 171.81 
L 520.74 171.81 
" style="fill:none;stroke:#000000;stroke-linecap:round;stroke-width:1.5;"/>
   </g>
   <g id="line2d_14">
    <path clip-path="url(#p81e9046052)" d="M 477.81 164.835 
L 474.57 164.835 
L 474.57 167.625 
" style="fill:none;stroke:#000000;stroke-linecap:round;stroke-width:1.5;"/>
   </g>
   <g id="line2d_15">
    <path clip-path="url(#p81e9046052)" d="M 477.81 178.785 
L 481.05 178.785 
L 481.05 175.995 
" style="fill:none;stroke:#000000;stroke-linecap:round;stroke-width:1.5;"/>
   </g>
   <g id="line2d_16">
    <path clip-path="url(#p81e9046052)" d="M 34.74 234.585 
L 77.67 234.585 
M 89.01 227.61 
L 89.01 241.56 
M 89.01 234.585 
L 131.94 234.585 
" style="fill:none;stroke:#000000;stroke-linecap:round;stroke-width:1.5;"/>
   </g>
   <g id="line2d_17">
    <path clip-path="url(#p81e9046052)" d="M 89.01 227.61 
L 85.77 227.61 
L 85.77 230.4 
" style="fill:none;stroke:#000000;stroke-linecap:round;stroke-width:1.5;"/>
   </g>
   <g id="line2d_18">
    <path clip-path="url(#p81e9046052)" d="M 89.01 241.56 
L 92.25 241.56 
L 92.25 238.77 
" style="fill:none;stroke:#000000;stroke-linecap:round;stroke-width:1.5;"/>
   </g>
   <g id="line2d_19">
    <path clip-path="url(#p81e9046052)" d="M 164.34 234.585 
L 207.27 234.585 
M 218.61 227.61 
L 218.61 241.56 
M 218.61 234.585 
L 261.54 234.585 
" style="fill:none;stroke:#000000;stroke-linecap:round;stroke-width:1.5;"/>
   </g>
   <g id="line2d_20">
    <path clip-path="url(#p81e9046052)" d="M 218.61 227.61 
L 221.85 224.82 
" style="fill:none;stroke:#000000;stroke-linecap:round;stroke-width:1.5;"/>
   </g>
   <g id="line2d_21">
    <path clip-path="url(#p81e9046052)" d="M 218.61 241.56 
L 215.37 244.35 
" style="fill:none;stroke:#000000;stroke-linecap:round;stroke-width:1.5;"/>
   </g>
   <g id="line2d_22">
    <path clip-path="url(#p81e9046052)" d="M 293.94 234.585 
L 336.87 234.585 
M 348.21 227.61 
L 348.21 241.56 
M 348.21 234.585 
L 391.14 234.585 
" style="fill:none;stroke:#000000;stroke-linecap:round;stroke-width:1.5;"/>
   </g>
   <g id="line2d_23">
    <path clip-path="url(#p81e9046052)" d="M 348.21 227.61 
L 351.45 224.82 
" style="fill:none;stroke:#000000;stroke-linecap:round;stroke-width:1.5;"/>
   </g>
   <g id="line2d_24">
    <path clip-path="url(#p81e9046052)" d="M 348.21 241.56 
L 344.97 244.35 
" style="fill:none;stroke:#000000;stroke-linecap:round;stroke-width:1.5;"/>
   </g>
   <g id="line2d_25">
    <path clip-path="url(#p81e9046052)" d="M 423.54 234.585 
L 466.47 234.585 
M 477.81 227.61 
L 477.81 241.56 
M 477.81 234.585 
L 520.74 234.585 
" style="fill:none;stroke:#000000;stroke-linecap:round;stroke-width:1.5;"/>
   </g>
   <g id="line2d_26">
    <path clip-path="url(#p81e9046052)" d="M 474.57 224.1225 
L 482.67 211.91625 
" style="fill:none;stroke:#000000;stroke-linecap:round;stroke-width:1.5;"/>
   </g>
   <g id="line2d_27">
    <path clip-path="url(#p81e9046052)" d="M 34.74 297.36 
L 77.67 297.36 
M 89.01 290.385 
L 89.01 304.335 
M 89.01 297.36 
L 131.94 297.36 
" style="fill:none;stroke:#000000;stroke-linecap:round;stroke-width:1.5;"/>
   </g>
   <g id="line2d_28">
    <path clip-path="url(#p81e9046052)" d="M 73.626954 272.499474 
L 74.244949 273.75348 
L 74.809821 274.881803 
L 75.323829 275.889789 
L 75.789235 276.782788 
L 76.208299 277.566147 
L 76.583281 278.245215 
L 76.916443 278.82534 
L 77.210045 279.31187 
L 77.466347 279.710154 
L 77.68761 280.02554 
L 77.876095 280.263376 
L 78.034062 280.42901 
L 78.163772 280.527791 
L 78.267485 280.565067 
L 78.347463 280.546186 
L 78.405964 280.476497 
L 78.445251 280.361347 
L 78.467583 280.206085 
L 78.475222 280.01606 
L 78.470427 279.796619 
L 78.45546 279.553111 
L 78.432581 279.290884 
L 78.40405 279.015287 
L 78.372128 278.731667 
L 78.339076 278.445372 
L 78.307155 278.161752 
L 78.278624 277.886155 
L 78.255745 277.623928 
L 78.240778 277.38042 
L 78.235983 277.160979 
L 78.243622 276.970954 
L 78.265954 276.815692 
L 78.305241 276.700542 
L 78.363742 276.630853 
L 78.443719 276.611972 
L 78.547432 276.649248 
L 78.677142 276.748029 
L 78.835109 276.913663 
L 79.023594 277.151499 
L 79.244857 277.466885 
L 79.50116 277.865169 
L 79.794762 278.351699 
L 80.127923 278.931824 
L 80.502906 279.610892 
L 80.92197 280.394251 
L 81.387376 281.28725 
L 81.901384 282.295236 
L 82.466255 283.423558 
L 83.08425 284.677565 
" style="fill:none;stroke:#000000;stroke-linecap:round;stroke-width:1.5;"/>
   </g>
   <g id="line2d_29">
    <path clip-path="url(#p81e9046052)" d="M 67.537746 274.407946 
L 68.155741 275.661953 
L 68.720612 276.790275 
L 69.234621 277.798261 
L 69.700026 278.69126 
L 70.11909 279.474619 
L 70.494073 280.153687 
L 70.827235 280.733812 
L 71.120837 281.220342 
L 71.377139 281.618626 
L 71.598402 281.934012 
L 71.786887 282.171848 
L 71.944854 282.337482 
L 72.074564 282.436263 
L 72.178277 282.473539 
L 72.258254 282.454658 
L 72.316756 282.384969 
L 72.356043 282.269819 
L 72.378375 282.114558 
L 72.386013 281.924532 
L 72.381219 281.705092 
L 72.366252 281.461584 
L 72.343372 281.199357 
L 72.314842 280.923759 
L 72.28292 280.640139 
L 72.249868 280.353845 
L 72.217947 280.070225 
L 72.189416 279.794627 
L 72.166537 279.5324 
L 72.151569 279.288892 
L 72.146775 279.069451 
L 72.154413 278.879426 
L 72.176746 278.724164 
L 72.216032 278.609015 
L 72.274534 278.539325 
L 72.354511 278.520444 
L 72.458224 278.55772 
L 72.587934 278.656501 
L 72.745901 278.822136 
L 72.934386 279.059972 
L 73.155649 279.375357 
L 73.411952 279.773641 
L 73.705553 280.260172 
L 74.038715 280.840297 
L 74.413698 281.519365 
L 74.832762 282.302724 
L 75.298168 283.195722 
L 75.812176 284.203709 
L 76.377047 285.332031 
L 76.995042 286.586037 
" style="fill:none;stroke:#000000;stroke-linecap:round;stroke-width:1.5;"/>
   </g>
   <g id="line2d_30">
    <path clip-path="url(#p81e9046052)" d="M 164.34 297.36 
L 207.27 297.36 
M 218.61 290.385 
L 218.61 304.335 
M 218.61 297.36 
L 261.54 297.36 
" style="fill:none;stroke:#000000;stroke-linecap:round;stroke-width:1.5;"/>
   </g>
   <g id="line2d_31">
    <path clip-path="url(#p81e9046052)" d="M 203.226954 272.499474 
L 203.844949 273.75348 
L 204.409821 274.881803 
L 204.923829 275.889789 
L 205.389235 276.782788 
L 205.808299 277.566147 
L 206.183281 278.245215 
L 206.516443 278.82534 
L 206.810045 279.31187 
L 207.066347 279.710154 
L 207.28761 280.02554 
L 207.476095 280.263376 
L 207.634062 280.42901 
L 207.763772 280.527791 
L 207.867485 280.565067 
L 207.947463 280.546186 
L 208.005964 280.476497 
L 208.045251 280.361347 
L 208.067583 280.206085 
L 208.075222 280.01606 
L 208.070427 279.796619 
L 208.05546 279.553111 
L 208.032581 279.290884 
L 208.00405 279.015287 
L 207.972128 278.731667 
L 207.939076 278.445372 
L 207.907155 278.161752 
L 207.878624 277.886155 
L 207.855745 277.623928 
L 207.840778 277.38042 
L 207.835983 277.160979 
L 207.843622 276.970954 
L 207.865954 276.815692 
L 207.905241 276.700542 
L 207.963742 276.630853 
L 208.043719 276.611972 
L 208.147432 276.649248 
L 208.277142 276.748029 
L 208.435109 276.913663 
L 208.623594 277.151499 
L 208.844857 277.466885 
L 209.10116 277.865169 
L 209.394762 278.351699 
L 209.727923 278.931824 
L 210.102906 279.610892 
L 210.52197 280.394251 
L 210.987376 281.28725 
L 211.501384 282.295236 
L 212.066255 283.423558 
L 212.68425 284.677565 
" style="fill:none;stroke:#000000;stroke-linecap:round;stroke-width:1.5;"/>
   </g>
   <g id="line2d_32">
    <path clip-path="url(#p81e9046052)" d="M 197.137746 274.407946 
L 197.755741 275.661953 
L 198.320612 276.790275 
L 198.834621 277.798261 
L 199.300026 278.69126 
L 199.71909 279.474619 
L 200.094073 280.153687 
L 200.427235 280.733812 
L 200.720837 281.220342 
L 200.977139 281.618626 
L 201.198402 281.934012 
L 201.386887 282.171848 
L 201.544854 282.337482 
L 201.674564 282.436263 
L 201.778277 282.473539 
L 201.858254 282.454658 
L 201.916756 282.384969 
L 201.956043 282.269819 
L 201.978375 282.114558 
L 201.986013 281.924532 
L 201.981219 281.705092 
L 201.966252 281.461584 
L 201.943372 281.199357 
L 201.914842 280.923759 
L 201.88292 280.640139 
L 201.849868 280.353845 
L 201.817947 280.070225 
L 201.789416 279.794627 
L 201.766537 279.5324 
L 201.751569 279.288892 
L 201.746775 279.069451 
L 201.754413 278.879426 
L 201.776746 278.724164 
L 201.816032 278.609015 
L 201.874534 278.539325 
L 201.954511 278.520444 
L 202.058224 278.55772 
L 202.187934 278.656501 
L 202.345901 278.822136 
L 202.534386 279.059972 
L 202.755649 279.375357 
L 203.011952 279.773641 
L 203.305553 280.260172 
L 203.638715 280.840297 
L 204.013698 281.519365 
L 204.432762 282.302724 
L 204.898168 283.195722 
L 205.412176 284.203709 
L 205.977047 285.332031 
L 206.595042 286.586037 
" style="fill:none;stroke:#000000;stroke-linecap:round;stroke-width:1.5;"/>
   </g>
   <g id="line2d_33">
    <path clip-path="url(#p81e9046052)" d="M 293.94 297.36 
L 336.87 297.36 
M 348.21 284.805 
L 348.21 309.915 
M 336.87 284.805 
L 336.87 309.915 
M 348.21 297.36 
L 391.14 297.36 
" style="fill:none;stroke:#000000;stroke-linecap:round;stroke-width:1.5;"/>
   </g>
   <g id="line2d_34">
    <path clip-path="url(#p81e9046052)" d="M 423.54 297.36 
L 466.47 297.36 
M 477.81 284.805 
L 477.81 309.915 
M 466.47 284.805 
L 466.47 309.915 
M 477.81 297.36 
L 520.74 297.36 
" style="fill:none;stroke:#000000;stroke-linecap:round;stroke-width:1.5;"/>
   </g>
   <g id="line2d_35">
    <path clip-path="url(#p81e9046052)" d="M 34.74 360.135 
L 77.67 360.135 
M 89.01 347.58 
L 89.01 372.69 
M 77.67 347.58 
L 77.67 372.69 
M 89.01 360.135 
L 131.94 360.135 
" style="fill:none;stroke:#000000;stroke-linecap:round;stroke-width:1.5;"/>
   </g>
   <g id="line2d_36">
    <path clip-path="url(#p81e9046052)" d="M 89.01 353.16 
L 105.21 346.185 
" style="fill:none;stroke:#000000;stroke-linecap:round;stroke-width:1.5;"/>
   </g>
   <g id="line2d_37">
    <path clip-path="url(#p81e9046052)" d="M 164.34 360.135 
L 207.27 360.135 
M 218.61 347.58 
L 218.61 372.69 
M 207.27 347.58 
L 207.27 372.69 
M 218.61 360.135 
L 261.54 360.135 
" style="fill:none;stroke:#000000;stroke-linecap:round;stroke-width:1.5;"/>
   </g>
   <g id="line2d_38">
    <path clip-path="url(#p81e9046052)" d="M 218.61 353.16 
L 234.81 346.185 
" style="fill:none;stroke:#000000;stroke-linecap:round;stroke-width:1.5;"/>
   </g>
   <g id="line2d_39">
    <path clip-path="url(#p81e9046052)" d="M 293.94 360.135 
L 336.87 360.135 
M 348.21 353.16 
L 348.21 367.11 
M 348.21 360.135 
L 391.14 360.135 
" style="fill:none;stroke:#000000;stroke-linecap:round;stroke-width:1.5;"/>
   </g>
   <g id="line2d_40">
    <path clip-path="url(#p81e9046052)" d="M 348.21 360.135 
L 357.93 368.505 
L 357.93 374.085 
" style="fill:none;stroke:#000000;stroke-linecap:round;stroke-width:1.5;"/>
   </g>
   <g id="line2d_41">
    <path clip-path="url(#p81e9046052)" d="M 423.54 360.135 
L 466.47 360.135 
M 477.81 353.16 
L 477.81 367.11 
M 477.81 360.135 
L 520.74 360.135 
" style="fill:none;stroke:#000000;stroke-linecap:round;stroke-width:1.5;"/>
   </g>
   <g id="line2d_42">
    <path clip-path="url(#p81e9046052)" d="M 477.81 360.135 
L 487.53 368.505 
L 487.53 374.085 
" style="fill:none;stroke:#000000;stroke-linecap:round;stroke-width:1.5;"/>
   </g>
   <g id="line2d_43">
    <path clip-path="url(#p81e9046052)" d="M 34.74 422.91 
L 76.86 422.91 
M 76.86 415.935 
L 76.86 429.885 
M 80.1 415.935 
L 80.1 429.885 
L 86.58 429.885 
L 86.58 415.935 
L 80.1 415.935 
M 89.82 415.935 
L 89.82 429.885 
M 89.82 422.91 
L 131.94 422.91 
" style="fill:none;stroke:#000000;stroke-linecap:round;stroke-width:1.5;"/>
   </g>
   <g id="line2d_44">
    <path clip-path="url(#p81e9046052)" d="M 164.34 422.91 
L 196.74 422.91 
L 203.22 422.91 
L 203.22 427.095 
L 209.7 427.095 
L 209.7 418.725 
L 216.18 418.725 
L 216.18 427.095 
L 222.66 427.095 
L 222.66 422.91 
L 229.14 422.91 
L 261.54 422.91 
" style="fill:none;stroke:#000000;stroke-linecap:round;stroke-width:1.5;"/>
   </g>
   <g id="line2d_45">
    <path clip-path="url(#p81e9046052)" d="M 196.74 415.935 
L 229.14 415.935 
L 229.14 429.885 
L 196.74 429.885 
L 196.74 415.935 
" style="fill:none;stroke:#000000;stroke-linecap:round;stroke-width:1.5;"/>
   </g>
   <g id="line2d_46">
    <path clip-path="url(#p81e9046052)" d="M 293.94 422.91 
L 319.86 422.91 
L 319.86 415.935 
L 326.34 415.935 
L 326.34 429.885 
L 332.82 429.885 
L 332.82 415.935 
L 339.3 415.935 
L 339.3 429.885 
L 345.78 429.885 
L 345.78 415.935 
L 352.26 415.935 
L 352.26 429.885 
L 358.74 429.885 
L 358.74 422.91 
L 365.22 422.91 
L 391.14 422.91 
" style="fill:none;stroke:#000000;stroke-linecap:round;stroke-width:1.5;"/>
   </g>
   <g id="line2d_47">
    <path clip-path="url(#p81e9046052)" d="M 423.54 422.91 
L 472.14 422.91 
M 464.04 415.935 
L 480.24 429.885 
M 480.24 415.935 
L 464.04 429.885 
M 472.14 422.91 
L 520.74 422.91 
" style="fill:none;stroke:#000000;stroke-linecap:round;stroke-width:1.5;"/>
   </g>
   <g id="patch_15">
    <path clip-path="url(#p81e9046052)" d="M 207.27 164.835 
L 218.61 171.81 
L 207.27 178.785 
z
" style="fill:none;stroke:#000000;stroke-linejoin:miter;stroke-width:1.5;"/>
   </g>
   <g id="patch_16">
    <path clip-path="url(#p81e9046052)" d="M 336.87 164.835 
L 348.21 171.81 
L 336.87 178.785 
z
" style="stroke:#000000;stroke-linejoin:miter;stroke-width:1.5;"/>
   </g>
   <g id="patch_17">
    <path clip-path="url(#p81e9046052)" d="M 336.87 164.835 
L 348.21 171.81 
L 336.87 178.785 
z
" style="fill:none;stroke:#000000;stroke-linejoin:miter;stroke-width:1.5;"/>
   </g>
   <g id="patch_18">
    <path clip-path="url(#p81e9046052)" d="M 466.47 164.835 
L 477.81 171.81 
L 466.47 178.785 
z
" style="fill:none;stroke:#000000;stroke-linejoin:miter;stroke-width:1.5;"/>
   </g>
   <g id="patch_19">
    <path clip-path="url(#p81e9046052)" d="M 77.67 227.61 
L 89.01 234.585 
L 77.67 241.56 
z
" style="stroke:#000000;stroke-linejoin:miter;stroke-width:1.5;"/>
   </g>
   <g id="patch_20">
    <path clip-path="url(#p81e9046052)" d="M 77.67 227.61 
L 89.01 234.585 
L 77.67 241.56 
z
" style="fill:none;stroke:#000000;stroke-linejoin:miter;stroke-width:1.5;"/>
   </g>
   <g id="patch_21">
    <path clip-path="url(#p81e9046052)" d="M 207.27 227.61 
L 218.61 234.585 
L 207.27 241.56 
z
" style="fill:none;stroke:#000000;stroke-linejoin:miter;stroke-width:1.5;"/>
   </g>
   <g id="patch_22">
    <path clip-path="url(#p81e9046052)" d="M 336.87 227.61 
L 348.21 234.585 
L 336.87 241.56 
z
" style="stroke:#000000;stroke-linejoin:miter;stroke-width:1.5;"/>
   </g>
   <g id="patch_23">
    <path clip-path="url(#p81e9046052)" d="M 336.87 227.61 
L 348.21 234.585 
L 336.87 241.56 
z
" style="fill:none;stroke:#000000;stroke-linejoin:miter;stroke-width:1.5;"/>
   </g>
   <g id="patch_24">
    <path clip-path="url(#p81e9046052)" d="M 466.47 227.61 
L 477.81 234.585 
L 466.47 241.56 
z
" style="fill:none;stroke:#000000;stroke-linejoin:miter;stroke-width:1.5;"/>
   </g>
   <g id="patch_25">
    <path clip-path="url(#p81e9046052)" d="M 77.67 290.385 
L 89.01 297.36 
L 77.67 304.335 
z
" style="fill:none;stroke:#000000;stroke-linejoin:miter;stroke-width:1.5;"/>
   </g>
   <g id="patch_26">
    <path clip-path="url(#p81e9046052)" d="M 207.27 290.385 
L 218.61 297.36 
L 207.27 304.335 
z
" style="fill:none;stroke:#000000;stroke-linejoin:miter;stroke-width:1.5;"/>
   </g>
   <g id="patch_27">
    <path clip-path="url(#p81e9046052)" d="M 336.87 311.31 
L 348.21 304.335 
L 336.87 297.36 
z
" style="fill:none;stroke:#000000;stroke-linejoin:miter;stroke-width:1.5;"/>
   </g>
   <g id="patch_28">
    <path clip-path="url(#p81e9046052)" d="M 348.21 283.41 
L 336.87 290.385 
L 348.21 297.36 
z
" style="fill:none;stroke:#000000;stroke-linejoin:miter;stroke-width:1.5;"/>
   </g>
   <g id="patch_29">
    <path clip-path="url(#p81e9046052)" d="M 466.47 311.31 
L 477.81 304.335 
L 466.47 297.36 
z
" style="stroke:#000000;stroke-linejoin:miter;stroke-width:1.5;"/>
   </g>
   <g id="patch_30">
    <path clip-path="url(#p81e9046052)" d="M 477.81 283.41 
L 466.47 290.385 
L 477.81 297.36 
z
" style="stroke:#000000;stroke-linejoin:miter;stroke-width:1.5;"/>
   </g>
   <g id="patch_31">
    <path clip-path="url(#p81e9046052)" d="M 77.67 374.085 
L 89.01 367.11 
L 77.67 360.135 
z
" style="fill:none;stroke:#000000;stroke-linejoin:miter;stroke-width:1.5;"/>
   </g>
   <g id="patch_32">
    <path clip-path="url(#p81e9046052)" d="M 89.01 346.185 
L 77.67 353.16 
L 89.01 360.135 
z
" style="fill:none;stroke:#000000;stroke-linejoin:miter;stroke-width:1.5;"/>
   </g>
   <g id="patch_33">
    <path clip-path="url(#p81e9046052)" d="M 207.27 374.085 
L 218.61 367.11 
L 207.27 360.135 
z
" style="stroke:#000000;stroke-linejoin:miter;stroke-width:1.5;"/>
   </g>
   <g id="patch_34">
    <path clip-path="url(#p81e9046052)" d="M 218.61 346.185 
L 207.27 353.16 
L 218.61 360.135 
z
" style="stroke:#000000;stroke-linejoin:miter;stroke-width:1.5;"/>
   </g>
   <g id="patch_35">
    <path clip-path="url(#p81e9046052)" d="M 336.87 353.16 
L 348.21 360.135 
L 336.87 367.11 
z
" style="fill:none;stroke:#000000;stroke-linejoin:miter;stroke-width:1.5;"/>
   </g>
   <g id="patch_36">
    <path clip-path="url(#p81e9046052)" d="M 466.47 353.16 
L 477.81 360.135 
L 466.47 367.11 
z
" style="stroke:#000000;stroke-linejoin:miter;stroke-width:1.5;"/>
   </g>
   <g id="patch_37">
    <path clip-path="url(#p81e9046052)" d="M 466.47 353.16 
L 477.81 360.135 
L 466.47 367.11 
z
" style="fill:none;stroke:#000000;stroke-linejoin:miter;stroke-width:1.5;"/>
   </g>
   <g id="patch_38">
    <path clip-path="url(#p81e9046052)" d="M 196.74 415.935 
L 196.74 429.885 
L 199.98 429.885 
L 199.98 415.935 
z
" style="stroke:#000000;stroke-linejoin:miter;stroke-width:1.5;"/>
   </g>
   <g id="text_1">
    <!-- RES -->
    <defs>
     <path d="M 44.390625 34.1875 
Q 47.5625 33.109375 50.5625 29.59375 
Q 53.5625 26.078125 56.59375 19.921875 
L 66.609375 0 
L 56 0 
L 46.6875 18.703125 
Q 43.0625 26.03125 39.671875 28.421875 
Q 36.28125 30.8125 30.421875 30.8125 
L 19.671875 30.8125 
L 19.671875 0 
L 9.8125 0 
L 9.8125 72.90625 
L 32.078125 72.90625 
Q 44.578125 72.90625 50.734375 67.671875 
Q 56.890625 62.453125 56.890625 51.90625 
Q 56.890625 45.015625 53.6875 40.46875 
Q 50.484375 35.9375 44.390625 34.1875 
z
M 19.671875 64.796875 
L 19.671875 38.921875 
L 32.078125 38.921875 
Q 39.203125 38.921875 42.84375 42.21875 
Q 46.484375 45.515625 46.484375 51.90625 
Q 46.484375 58.296875 42.84375 61.546875 
Q 39.203125 64.796875 32.078125 64.796875 
z
" id="DejaVuSans-82"/>
     <path d="M 9.8125 72.90625 
L 55.90625 72.90625 
L 55.90625 64.59375 
L 19.671875 64.59375 
L 19.671875 43.015625 
L 54.390625 43.015625 
L 54.390625 34.71875 
L 19.671875 34.71875 
L 19.671875 8.296875 
L 56.78125 8.296875 
L 56.78125 0 
L 9.8125 0 
z
" id="DejaVuSans-69"/>
     <path d="M 53.515625 70.515625 
L 53.515625 60.890625 
Q 47.90625 63.578125 42.921875 64.890625 
Q 37.9375 66.21875 33.296875 66.21875 
Q 25.25 66.21875 20.875 63.09375 
Q 16.5 59.96875 16.5 54.203125 
Q 16.5 49.359375 19.40625 46.890625 
Q 22.3125 44.4375 30.421875 42.921875 
L 36.375 41.703125 
Q 47.40625 39.59375 52.65625 34.296875 
Q 57.90625 29 57.90625 20.125 
Q 57.90625 9.515625 50.796875 4.046875 
Q 43.703125 -1.421875 29.984375 -1.421875 
Q 24.8125 -1.421875 18.96875 -0.25 
Q 13.140625 0.921875 6.890625 3.21875 
L 6.890625 13.375 
Q 12.890625 10.015625 18.65625 8.296875 
Q 24.421875 6.59375 29.984375 6.59375 
Q 38.421875 6.59375 43.015625 9.90625 
Q 47.609375 13.234375 47.609375 19.390625 
Q 47.609375 24.75 44.3125 27.78125 
Q 41.015625 30.8125 33.5 32.328125 
L 27.484375 33.5 
Q 16.453125 35.6875 11.515625 40.375 
Q 6.59375 45.0625 6.59375 53.421875 
Q 6.59375 63.09375 13.40625 68.65625 
Q 20.21875 74.21875 32.171875 74.21875 
Q 37.3125 74.21875 42.625 73.28125 
Q 47.953125 72.359375 53.515625 70.515625 
z
" id="DejaVuSans-83"/>
    </defs>
    <g transform="translate(71.570625 21.67125)scale(0.12 -0.12)">
     <use xlink:href="#DejaVuSans-82"/>
     <use x="69.482422" xlink:href="#DejaVuSans-69"/>
     <use x="132.666016" xlink:href="#DejaVuSans-83"/>
    </g>
   </g>
   <g id="text_2">
    <!-- RES_VAR -->
    <defs>
     <path d="M 50.984375 -16.609375 
L 50.984375 -23.578125 
L -0.984375 -23.578125 
L -0.984375 -16.609375 
z
" id="DejaVuSans-95"/>
     <path d="M 28.609375 0 
L 0.78125 72.90625 
L 11.078125 72.90625 
L 34.1875 11.53125 
L 57.328125 72.90625 
L 67.578125 72.90625 
L 39.796875 0 
z
" id="DejaVuSans-86"/>
     <path d="M 34.1875 63.1875 
L 20.796875 26.90625 
L 47.609375 26.90625 
z
M 28.609375 72.90625 
L 39.796875 72.90625 
L 67.578125 0 
L 57.328125 0 
L 50.6875 18.703125 
L 17.828125 18.703125 
L 11.1875 0 
L 0.78125 0 
z
" id="DejaVuSans-65"/>
    </defs>
    <g transform="translate(185.798437 20.235937)scale(0.12 -0.12)">
     <use xlink:href="#DejaVuSans-82"/>
     <use x="69.482422" xlink:href="#DejaVuSans-69"/>
     <use x="132.666016" xlink:href="#DejaVuSans-83"/>
     <use x="196.142578" xlink:href="#DejaVuSans-95"/>
     <use x="246.142578" xlink:href="#DejaVuSans-86"/>
     <use x="314.457031" xlink:href="#DejaVuSans-65"/>
     <use x="382.865234" xlink:href="#DejaVuSans-82"/>
    </g>
   </g>
   <g id="text_3">
    <!-- RBOX -->
    <defs>
     <path d="M 19.671875 34.8125 
L 19.671875 8.109375 
L 35.5 8.109375 
Q 43.453125 8.109375 47.28125 11.40625 
Q 51.125 14.703125 51.125 21.484375 
Q 51.125 28.328125 47.28125 31.5625 
Q 43.453125 34.8125 35.5 34.8125 
z
M 19.671875 64.796875 
L 19.671875 42.828125 
L 34.28125 42.828125 
Q 41.5 42.828125 45.03125 45.53125 
Q 48.578125 48.25 48.578125 53.8125 
Q 48.578125 59.328125 45.03125 62.0625 
Q 41.5 64.796875 34.28125 64.796875 
z
M 9.8125 72.90625 
L 35.015625 72.90625 
Q 46.296875 72.90625 52.390625 68.21875 
Q 58.5 63.53125 58.5 54.890625 
Q 58.5 48.1875 55.375 44.234375 
Q 52.25 40.28125 46.1875 39.3125 
Q 53.46875 37.75 57.5 32.78125 
Q 61.53125 27.828125 61.53125 20.40625 
Q 61.53125 10.640625 54.890625 5.3125 
Q 48.25 0 35.984375 0 
L 9.8125 0 
z
" id="DejaVuSans-66"/>
     <path d="M 39.40625 66.21875 
Q 28.65625 66.21875 22.328125 58.203125 
Q 16.015625 50.203125 16.015625 36.375 
Q 16.015625 22.609375 22.328125 14.59375 
Q 28.65625 6.59375 39.40625 6.59375 
Q 50.140625 6.59375 56.421875 14.59375 
Q 62.703125 22.609375 62.703125 36.375 
Q 62.703125 50.203125 56.421875 58.203125 
Q 50.140625 66.21875 39.40625 66.21875 
z
M 39.40625 74.21875 
Q 54.734375 74.21875 63.90625 63.9375 
Q 73.09375 53.65625 73.09375 36.375 
Q 73.09375 19.140625 63.90625 8.859375 
Q 54.734375 -1.421875 39.40625 -1.421875 
Q 24.03125 -1.421875 14.8125 8.828125 
Q 5.609375 19.09375 5.609375 36.375 
Q 5.609375 53.65625 14.8125 63.9375 
Q 24.03125 74.21875 39.40625 74.21875 
z
" id="DejaVuSans-79"/>
     <path d="M 6.296875 72.90625 
L 16.890625 72.90625 
L 35.015625 45.796875 
L 53.21875 72.90625 
L 63.8125 72.90625 
L 40.375 37.890625 
L 65.375 0 
L 54.78125 0 
L 34.28125 31 
L 13.625 0 
L 2.984375 0 
L 29 38.921875 
z
" id="DejaVuSans-88"/>
    </defs>
    <g transform="translate(325.427812 21.67125)scale(0.12 -0.12)">
     <use xlink:href="#DejaVuSans-82"/>
     <use x="69.482422" xlink:href="#DejaVuSans-66"/>
     <use x="138.070312" xlink:href="#DejaVuSans-79"/>
     <use x="216.6875" xlink:href="#DejaVuSans-88"/>
    </g>
   </g>
   <g id="text_4">
    <!-- CAP -->
    <defs>
     <path d="M 64.40625 67.28125 
L 64.40625 56.890625 
Q 59.421875 61.53125 53.78125 63.8125 
Q 48.140625 66.109375 41.796875 66.109375 
Q 29.296875 66.109375 22.65625 58.46875 
Q 16.015625 50.828125 16.015625 36.375 
Q 16.015625 21.96875 22.65625 14.328125 
Q 29.296875 6.6875 41.796875 6.6875 
Q 48.140625 6.6875 53.78125 8.984375 
Q 59.421875 11.28125 64.40625 15.921875 
L 64.40625 5.609375 
Q 59.234375 2.09375 53.4375 0.328125 
Q 47.65625 -1.421875 41.21875 -1.421875 
Q 24.65625 -1.421875 15.125 8.703125 
Q 5.609375 18.84375 5.609375 36.375 
Q 5.609375 53.953125 15.125 64.078125 
Q 24.65625 74.21875 41.21875 74.21875 
Q 47.75 74.21875 53.53125 72.484375 
Q 59.328125 70.75 64.40625 67.28125 
z
" id="DejaVuSans-67"/>
     <path d="M 19.671875 64.796875 
L 19.671875 37.40625 
L 32.078125 37.40625 
Q 38.96875 37.40625 42.71875 40.96875 
Q 46.484375 44.53125 46.484375 51.125 
Q 46.484375 57.671875 42.71875 61.234375 
Q 38.96875 64.796875 32.078125 64.796875 
z
M 9.8125 72.90625 
L 32.078125 72.90625 
Q 44.34375 72.90625 50.609375 67.359375 
Q 56.890625 61.8125 56.890625 51.125 
Q 56.890625 40.328125 50.609375 34.8125 
Q 44.34375 29.296875 32.078125 29.296875 
L 19.671875 29.296875 
L 19.671875 0 
L 9.8125 0 
z
" id="DejaVuSans-80"/>
    </defs>
    <g transform="translate(460.228125 21.67125)scale(0.12 -0.12)">
     <use xlink:href="#DejaVuSans-67"/>
     <use x="69.824219" xlink:href="#DejaVuSans-65"/>
     <use x="138.232422" xlink:href="#DejaVuSans-80"/>
    </g>
   </g>
   <g id="text_5">
    <!-- CAP2 -->
    <defs>
     <path d="M 19.1875 8.296875 
L 53.609375 8.296875 
L 53.609375 0 
L 7.328125 0 
L 7.328125 8.296875 
Q 12.9375 14.109375 22.625 23.890625 
Q 32.328125 33.6875 34.8125 36.53125 
Q 39.546875 41.84375 41.421875 45.53125 
Q 43.3125 49.21875 43.3125 52.78125 
Q 43.3125 58.59375 39.234375 62.25 
Q 35.15625 65.921875 28.609375 65.921875 
Q 23.96875 65.921875 18.8125 64.3125 
Q 13.671875 62.703125 7.8125 59.421875 
L 7.8125 69.390625 
Q 13.765625 71.78125 18.9375 73 
Q 24.125 74.21875 28.421875 74.21875 
Q 39.75 74.21875 46.484375 68.546875 
Q 53.21875 62.890625 53.21875 53.421875 
Q 53.21875 48.921875 51.53125 44.890625 
Q 49.859375 40.875 45.40625 35.40625 
Q 44.1875 33.984375 37.640625 27.21875 
Q 31.109375 20.453125 19.1875 8.296875 
z
" id="DejaVuSans-50"/>
    </defs>
    <g transform="translate(67.610625 84.44625)scale(0.12 -0.12)">
     <use xlink:href="#DejaVuSans-67"/>
     <use x="69.824219" xlink:href="#DejaVuSans-65"/>
     <use x="138.232422" xlink:href="#DejaVuSans-80"/>
     <use x="198.535156" xlink:href="#DejaVuSans-50"/>
    </g>
   </g>
   <g id="text_6">
    <!-- CAP_P -->
    <g transform="translate(194.410312 84.173437)scale(0.12 -0.12)">
     <use xlink:href="#DejaVuSans-67"/>
     <use x="69.824219" xlink:href="#DejaVuSans-65"/>
     <use x="138.232422" xlink:href="#DejaVuSans-80"/>
     <use x="198.535156" xlink:href="#DejaVuSans-95"/>
     <use x="248.535156" xlink:href="#DejaVuSans-80"/>
    </g>
   </g>
   <g id="text_7">
    <!-- + -->
    <defs>
     <path d="M 46 62.703125 
L 46 35.5 
L 73.1875 35.5 
L 73.1875 27.203125 
L 46 27.203125 
L 46 0 
L 37.796875 0 
L 37.796875 27.203125 
L 10.59375 27.203125 
L 10.59375 35.5 
L 37.796875 35.5 
L 37.796875 62.703125 
z
" id="DejaVuSans-43"/>
    </defs>
    <g transform="translate(197.997787 107.32425)scale(0.12 -0.12)">
     <use xlink:href="#DejaVuSans-43"/>
    </g>
   </g>
   <g id="text_8">
    <!-- CAP2_P -->
    <g transform="translate(320.192812 84.173437)scale(0.12 -0.12)">
     <use xlink:href="#DejaVuSans-67"/>
     <use x="69.824219" xlink:href="#DejaVuSans-65"/>
     <use x="138.232422" xlink:href="#DejaVuSans-80"/>
     <use x="198.535156" xlink:href="#DejaVuSans-50"/>
     <use x="262.158203" xlink:href="#DejaVuSans-95"/>
     <use x="312.158203" xlink:href="#DejaVuSans-80"/>
    </g>
   </g>
   <g id="text_9">
    <!-- + -->
    <g transform="translate(327.597787 107.32425)scale(0.12 -0.12)">
     <use xlink:href="#DejaVuSans-43"/>
    </g>
   </g>
   <g id="text_10">
    <!-- INDUCTOR -->
    <defs>
     <path d="M 9.8125 72.90625 
L 19.671875 72.90625 
L 19.671875 0 
L 9.8125 0 
z
" id="DejaVuSans-73"/>
     <path d="M 9.8125 72.90625 
L 23.09375 72.90625 
L 55.421875 11.921875 
L 55.421875 72.90625 
L 64.984375 72.90625 
L 64.984375 0 
L 51.703125 0 
L 19.390625 60.984375 
L 19.390625 0 
L 9.8125 0 
z
" id="DejaVuSans-78"/>
     <path d="M 19.671875 64.796875 
L 19.671875 8.109375 
L 31.59375 8.109375 
Q 46.6875 8.109375 53.6875 14.9375 
Q 60.6875 21.78125 60.6875 36.53125 
Q 60.6875 51.171875 53.6875 57.984375 
Q 46.6875 64.796875 31.59375 64.796875 
z
M 9.8125 72.90625 
L 30.078125 72.90625 
Q 51.265625 72.90625 61.171875 64.09375 
Q 71.09375 55.28125 71.09375 36.53125 
Q 71.09375 17.671875 61.125 8.828125 
Q 51.171875 0 30.078125 0 
L 9.8125 0 
z
" id="DejaVuSans-68"/>
     <path d="M 8.6875 72.90625 
L 18.609375 72.90625 
L 18.609375 28.609375 
Q 18.609375 16.890625 22.84375 11.734375 
Q 27.09375 6.59375 36.625 6.59375 
Q 46.09375 6.59375 50.34375 11.734375 
Q 54.59375 16.890625 54.59375 28.609375 
L 54.59375 72.90625 
L 64.5 72.90625 
L 64.5 27.390625 
Q 64.5 13.140625 57.4375 5.859375 
Q 50.390625 -1.421875 36.625 -1.421875 
Q 22.796875 -1.421875 15.734375 5.859375 
Q 8.6875 13.140625 8.6875 27.390625 
z
" id="DejaVuSans-85"/>
     <path d="M -0.296875 72.90625 
L 61.375 72.90625 
L 61.375 64.59375 
L 35.5 64.59375 
L 35.5 0 
L 25.59375 0 
L 25.59375 64.59375 
L -0.296875 64.59375 
z
" id="DejaVuSans-84"/>
    </defs>
    <g transform="translate(440.123437 84.44625)scale(0.12 -0.12)">
     <use xlink:href="#DejaVuSans-73"/>
     <use x="29.492188" xlink:href="#DejaVuSans-78"/>
     <use x="104.296875" xlink:href="#DejaVuSans-68"/>
     <use x="181.298828" xlink:href="#DejaVuSans-85"/>
     <use x="254.492188" xlink:href="#DejaVuSans-67"/>
     <use x="324.316406" xlink:href="#DejaVuSans-84"/>
     <use x="385.400391" xlink:href="#DejaVuSans-79"/>
     <use x="464.111328" xlink:href="#DejaVuSans-82"/>
    </g>
   </g>
   <g id="text_11">
    <!-- INDUCTOR2 -->
    <g transform="translate(47.505937 144.676377)scale(0.12 -0.12)">
     <use xlink:href="#DejaVuSans-73"/>
     <use x="29.492188" xlink:href="#DejaVuSans-78"/>
     <use x="104.296875" xlink:href="#DejaVuSans-68"/>
     <use x="181.298828" xlink:href="#DejaVuSans-85"/>
     <use x="254.492188" xlink:href="#DejaVuSans-67"/>
     <use x="324.316406" xlink:href="#DejaVuSans-84"/>
     <use x="385.400391" xlink:href="#DejaVuSans-79"/>
     <use x="464.111328" xlink:href="#DejaVuSans-82"/>
     <use x="533.59375" xlink:href="#DejaVuSans-50"/>
    </g>
   </g>
   <g id="text_12">
    <!-- DIODE -->
    <g transform="translate(193.415625 147.22125)scale(0.12 -0.12)">
     <use xlink:href="#DejaVuSans-68"/>
     <use x="77.001953" xlink:href="#DejaVuSans-73"/>
     <use x="106.494141" xlink:href="#DejaVuSans-79"/>
     <use x="185.205078" xlink:href="#DejaVuSans-68"/>
     <use x="262.207031" xlink:href="#DejaVuSans-69"/>
    </g>
   </g>
   <g id="text_13">
    <!-- DIODE_F -->
    <defs>
     <path d="M 9.8125 72.90625 
L 51.703125 72.90625 
L 51.703125 64.59375 
L 19.671875 64.59375 
L 19.671875 43.109375 
L 48.578125 43.109375 
L 48.578125 34.8125 
L 19.671875 34.8125 
L 19.671875 0 
L 9.8125 0 
z
" id="DejaVuSans-70"/>
    </defs>
    <g transform="translate(316.564687 146.948437)scale(0.12 -0.12)">
     <use xlink:href="#DejaVuSans-68"/>
     <use x="77.001953" xlink:href="#DejaVuSans-73"/>
     <use x="106.494141" xlink:href="#DejaVuSans-79"/>
     <use x="185.205078" xlink:href="#DejaVuSans-68"/>
     <use x="262.207031" xlink:href="#DejaVuSans-69"/>
     <use x="325.390625" xlink:href="#DejaVuSans-95"/>
     <use x="375.390625" xlink:href="#DejaVuSans-70"/>
    </g>
   </g>
   <g id="text_14">
    <!-- SCHOTTKY -->
    <defs>
     <path d="M 9.8125 72.90625 
L 19.671875 72.90625 
L 19.671875 43.015625 
L 55.515625 43.015625 
L 55.515625 72.90625 
L 65.375 72.90625 
L 65.375 0 
L 55.515625 0 
L 55.515625 34.71875 
L 19.671875 34.71875 
L 19.671875 0 
L 9.8125 0 
z
" id="DejaVuSans-72"/>
     <path d="M 9.8125 72.90625 
L 19.671875 72.90625 
L 19.671875 42.09375 
L 52.390625 72.90625 
L 65.09375 72.90625 
L 28.90625 38.921875 
L 67.671875 0 
L 54.6875 0 
L 19.671875 35.109375 
L 19.671875 0 
L 9.8125 0 
z
" id="DejaVuSans-75"/>
     <path d="M -0.203125 72.90625 
L 10.40625 72.90625 
L 30.609375 42.921875 
L 50.6875 72.90625 
L 61.28125 72.90625 
L 35.5 34.71875 
L 35.5 0 
L 25.59375 0 
L 25.59375 34.71875 
z
" id="DejaVuSans-89"/>
    </defs>
    <g transform="translate(439.980937 147.22125)scale(0.12 -0.12)">
     <use xlink:href="#DejaVuSans-83"/>
     <use x="63.476562" xlink:href="#DejaVuSans-67"/>
     <use x="133.300781" xlink:href="#DejaVuSans-72"/>
     <use x="208.496094" xlink:href="#DejaVuSans-79"/>
     <use x="287.207031" xlink:href="#DejaVuSans-84"/>
     <use x="348.275391" xlink:href="#DejaVuSans-84"/>
     <use x="409.359375" xlink:href="#DejaVuSans-75"/>
     <use x="474.888672" xlink:href="#DejaVuSans-89"/>
    </g>
   </g>
   <g id="text_15">
    <!-- SCHOTTKY_F -->
    <g transform="translate(44.73 209.723437)scale(0.12 -0.12)">
     <use xlink:href="#DejaVuSans-83"/>
     <use x="63.476562" xlink:href="#DejaVuSans-67"/>
     <use x="133.300781" xlink:href="#DejaVuSans-72"/>
     <use x="208.496094" xlink:href="#DejaVuSans-79"/>
     <use x="287.207031" xlink:href="#DejaVuSans-84"/>
     <use x="348.275391" xlink:href="#DejaVuSans-84"/>
     <use x="409.359375" xlink:href="#DejaVuSans-75"/>
     <use x="474.888672" xlink:href="#DejaVuSans-89"/>
     <use x="535.972656" xlink:href="#DejaVuSans-95"/>
     <use x="585.972656" xlink:href="#DejaVuSans-70"/>
    </g>
   </g>
   <g id="text_16">
    <!-- ZENER -->
    <defs>
     <path d="M 5.609375 72.90625 
L 62.890625 72.90625 
L 62.890625 65.375 
L 16.796875 8.296875 
L 64.015625 8.296875 
L 64.015625 0 
L 4.5 0 
L 4.5 7.515625 
L 50.59375 64.59375 
L 5.609375 64.59375 
z
" id="DejaVuSans-90"/>
    </defs>
    <g transform="translate(192.589687 209.99625)scale(0.12 -0.12)">
     <use xlink:href="#DejaVuSans-90"/>
     <use x="68.505859" xlink:href="#DejaVuSans-69"/>
     <use x="131.689453" xlink:href="#DejaVuSans-78"/>
     <use x="206.494141" xlink:href="#DejaVuSans-69"/>
     <use x="269.677734" xlink:href="#DejaVuSans-82"/>
    </g>
   </g>
   <g id="text_17">
    <!-- ZENER_F -->
    <g transform="translate(315.73875 209.6625)scale(0.12 -0.12)">
     <use xlink:href="#DejaVuSans-90"/>
     <use x="68.505859" xlink:href="#DejaVuSans-69"/>
     <use x="131.689453" xlink:href="#DejaVuSans-78"/>
     <use x="206.494141" xlink:href="#DejaVuSans-69"/>
     <use x="269.677734" xlink:href="#DejaVuSans-82"/>
     <use x="339.160156" xlink:href="#DejaVuSans-95"/>
     <use x="389.160156" xlink:href="#DejaVuSans-70"/>
    </g>
   </g>
   <g id="text_18">
    <!-- LED -->
    <defs>
     <path d="M 9.8125 72.90625 
L 19.671875 72.90625 
L 19.671875 8.296875 
L 55.171875 8.296875 
L 55.171875 0 
L 9.8125 0 
z
" id="DejaVuSans-76"/>
    </defs>
    <g transform="translate(460.385625 202.149375)scale(0.12 -0.12)">
     <use xlink:href="#DejaVuSans-76"/>
     <use x="55.712891" xlink:href="#DejaVuSans-69"/>
     <use x="118.896484" xlink:href="#DejaVuSans-68"/>
    </g>
   </g>
   <g id="text_19">
    <!-- LED2 -->
    <g transform="translate(67.768125 263.828487)scale(0.12 -0.12)">
     <use xlink:href="#DejaVuSans-76"/>
     <use x="55.712891" xlink:href="#DejaVuSans-69"/>
     <use x="118.896484" xlink:href="#DejaVuSans-68"/>
     <use x="195.898438" xlink:href="#DejaVuSans-50"/>
    </g>
   </g>
   <g id="text_20">
    <!-- PHOTODIODE -->
    <g transform="translate(172.174687 263.828487)scale(0.12 -0.12)">
     <use xlink:href="#DejaVuSans-80"/>
     <use x="60.302734" xlink:href="#DejaVuSans-72"/>
     <use x="135.498047" xlink:href="#DejaVuSans-79"/>
     <use x="214.208984" xlink:href="#DejaVuSans-84"/>
     <use x="275.292969" xlink:href="#DejaVuSans-79"/>
     <use x="354.003906" xlink:href="#DejaVuSans-68"/>
     <use x="431.005859" xlink:href="#DejaVuSans-73"/>
     <use x="460.498047" xlink:href="#DejaVuSans-79"/>
     <use x="539.208984" xlink:href="#DejaVuSans-68"/>
     <use x="616.210938" xlink:href="#DejaVuSans-69"/>
    </g>
   </g>
   <g id="text_21">
    <!-- DIAC -->
    <g transform="translate(327.856875 272.77125)scale(0.12 -0.12)">
     <use xlink:href="#DejaVuSans-68"/>
     <use x="77.001953" xlink:href="#DejaVuSans-73"/>
     <use x="106.494141" xlink:href="#DejaVuSans-65"/>
     <use x="174.886719" xlink:href="#DejaVuSans-67"/>
    </g>
   </g>
   <g id="text_22">
    <!-- DIAC_F -->
    <g transform="translate(451.005937 272.498437)scale(0.12 -0.12)">
     <use xlink:href="#DejaVuSans-68"/>
     <use x="77.001953" xlink:href="#DejaVuSans-73"/>
     <use x="106.494141" xlink:href="#DejaVuSans-65"/>
     <use x="174.886719" xlink:href="#DejaVuSans-67"/>
     <use x="244.710938" xlink:href="#DejaVuSans-95"/>
     <use x="294.710938" xlink:href="#DejaVuSans-70"/>
    </g>
   </g>
   <g id="text_23">
    <!-- TRIAC -->
    <g transform="translate(65.443125 335.54625)scale(0.12 -0.12)">
     <use xlink:href="#DejaVuSans-84"/>
     <use x="61.083984" xlink:href="#DejaVuSans-82"/>
     <use x="130.566406" xlink:href="#DejaVuSans-73"/>
     <use x="160.058594" xlink:href="#DejaVuSans-65"/>
     <use x="228.451172" xlink:href="#DejaVuSans-67"/>
    </g>
   </g>
   <g id="text_24">
    <!-- TRIAC_F -->
    <g transform="translate(188.592187 335.273437)scale(0.12 -0.12)">
     <use xlink:href="#DejaVuSans-84"/>
     <use x="61.083984" xlink:href="#DejaVuSans-82"/>
     <use x="130.566406" xlink:href="#DejaVuSans-73"/>
     <use x="160.058594" xlink:href="#DejaVuSans-65"/>
     <use x="228.451172" xlink:href="#DejaVuSans-67"/>
     <use x="298.275391" xlink:href="#DejaVuSans-95"/>
     <use x="348.275391" xlink:href="#DejaVuSans-70"/>
    </g>
   </g>
   <g id="text_25">
    <!-- SCR -->
    <g transform="translate(330.372187 339.03375)scale(0.12 -0.12)">
     <use xlink:href="#DejaVuSans-83"/>
     <use x="63.476562" xlink:href="#DejaVuSans-67"/>
     <use x="133.300781" xlink:href="#DejaVuSans-82"/>
    </g>
   </g>
   <g id="text_26">
    <!-- SCR_F -->
    <g transform="translate(453.52125 338.760937)scale(0.12 -0.12)">
     <use xlink:href="#DejaVuSans-83"/>
     <use x="63.476562" xlink:href="#DejaVuSans-67"/>
     <use x="133.300781" xlink:href="#DejaVuSans-82"/>
     <use x="202.783203" xlink:href="#DejaVuSans-95"/>
     <use x="252.783203" xlink:href="#DejaVuSans-70"/>
    </g>
   </g>
   <g id="text_27">
    <!-- XTAL -->
    <g transform="translate(68.125312 398.32125)scale(0.12 -0.12)">
     <use xlink:href="#DejaVuSans-88"/>
     <use x="68.490234" xlink:href="#DejaVuSans-84"/>
     <use x="129.464844" xlink:href="#DejaVuSans-65"/>
     <use x="197.873047" xlink:href="#DejaVuSans-76"/>
    </g>
   </g>
   <g id="text_28">
    <!-- MEMRISTOR -->
    <defs>
     <path d="M 9.8125 72.90625 
L 24.515625 72.90625 
L 43.109375 23.296875 
L 61.8125 72.90625 
L 76.515625 72.90625 
L 76.515625 0 
L 66.890625 0 
L 66.890625 64.015625 
L 48.09375 14.015625 
L 38.1875 14.015625 
L 19.390625 64.015625 
L 19.390625 0 
L 9.8125 0 
z
" id="DejaVuSans-77"/>
    </defs>
    <g transform="translate(176.49 398.32125)scale(0.12 -0.12)">
     <use xlink:href="#DejaVuSans-77"/>
     <use x="86.279297" xlink:href="#DejaVuSans-69"/>
     <use x="149.462891" xlink:href="#DejaVuSans-77"/>
     <use x="235.742188" xlink:href="#DejaVuSans-82"/>
     <use x="305.224609" xlink:href="#DejaVuSans-73"/>
     <use x="334.716797" xlink:href="#DejaVuSans-83"/>
     <use x="398.193359" xlink:href="#DejaVuSans-84"/>
     <use x="459.277344" xlink:href="#DejaVuSans-79"/>
     <use x="537.988281" xlink:href="#DejaVuSans-82"/>
    </g>
   </g>
   <g id="text_29">
    <!-- MEMRISTOR2 -->
    <g transform="translate(302.2725 398.32125)scale(0.12 -0.12)">
     <use xlink:href="#DejaVuSans-77"/>
     <use x="86.279297" xlink:href="#DejaVuSans-69"/>
     <use x="149.462891" xlink:href="#DejaVuSans-77"/>
     <use x="235.742188" xlink:href="#DejaVuSans-82"/>
     <use x="305.224609" xlink:href="#DejaVuSans-73"/>
     <use x="334.716797" xlink:href="#DejaVuSans-83"/>
     <use x="398.193359" xlink:href="#DejaVuSans-84"/>
     <use x="459.277344" xlink:href="#DejaVuSans-79"/>
     <use x="537.988281" xlink:href="#DejaVuSans-82"/>
     <use x="607.470703" xlink:href="#DejaVuSans-50"/>
    </g>
   </g>
   <g id="text_30">
    <!-- JJ -->
    <defs>
     <path d="M 9.8125 72.90625 
L 19.671875 72.90625 
L 19.671875 5.078125 
Q 19.671875 -8.109375 14.671875 -14.0625 
Q 9.671875 -20.015625 -1.421875 -20.015625 
L -5.171875 -20.015625 
L -5.171875 -11.71875 
L -2.09375 -11.71875 
Q 4.4375 -11.71875 7.125 -8.046875 
Q 9.8125 -4.390625 9.8125 5.078125 
z
" id="DejaVuSans-74"/>
    </defs>
    <g transform="translate(468.6 398.32125)scale(0.12 -0.12)">
     <use xlink:href="#DejaVuSans-74"/>
     <use x="29.492188" xlink:href="#DejaVuSans-74"/>
    </g>
   </g>
  </g>
 </g>
 <defs>
  <clipPath id="p81e9046052">
   <rect height="445.47" width="541.08" x="7.2" y="7.2"/>
  </clipPath>
 </defs>
</svg>
