<?xml version="1.0" encoding="utf-8" standalone="no"?>
<!DOCTYPE svg PUBLIC "-//W3C//DTD SVG 1.1//EN"
  "http://www.w3.org/Graphics/SVG/1.1/DTD/svg11.dtd">
<!-- Created with matplotlib (http://matplotlib.org/) -->
<svg height="423pt" version="1.1" viewBox="0 0 377 423" width="377pt" xmlns="http://www.w3.org/2000/svg" xmlns:xlink="http://www.w3.org/1999/xlink">
 <defs>
  <style type="text/css">
*{stroke-linecap:butt;stroke-linejoin:round;stroke-miterlimit:100000;}
  </style>
 </defs>
 <g id="figure_1">
  <g id="patch_1">
   <path d="M 0 423.680625 
L 377.28 423.680625 
L 377.28 0 
L 0 0 
z
" style="fill:none;"/>
  </g>
  <g id="axes_1">
   <g id="patch_2">
    <path clip-path="url(#p1f5494f978)" d="M 193.014 91.489257 
C 192.570745 92.328479 192.202583 93.5358 191.94667 94.989375 
C 191.690757 96.44295 191.556 98.092181 191.556 99.770625 
C 191.556 101.449069 191.690757 103.0983 191.94667 104.551875 
C 192.202583 106.00545 192.570745 107.212771 193.014 108.051993 
" style="fill:none;stroke:#000000;stroke-linejoin:miter;stroke-width:1.5;"/>
   </g>
   <g id="patch_3">
    <path clip-path="url(#p1f5494f978)" d="M 63.414 152.689257 
C 62.970745 153.528479 62.602583 154.7358 62.34667 156.189375 
C 62.090757 157.64295 61.956 159.292181 61.956 160.970625 
C 61.956 162.649069 62.090757 164.2983 62.34667 165.751875 
C 62.602583 167.20545 62.970745 168.412771 63.414 169.251993 
" style="fill:none;stroke:#000000;stroke-linejoin:miter;stroke-width:1.5;"/>
   </g>
   <g id="patch_4">
    <path clip-path="url(#p1f5494f978)" d="M 180.54 160.970625 
C 180.54 159.956561 180.113014 158.982993 179.353782 158.265942 
C 178.594551 157.54889 177.563715 157.145625 176.49 157.145625 
C 175.416285 157.145625 174.385449 157.54889 173.626218 158.265942 
C 172.866986 158.982993 172.44 159.956561 172.44 160.970625 
" style="fill:none;stroke:#000000;stroke-linejoin:miter;stroke-width:1.5;"/>
   </g>
   <g id="patch_5">
    <path clip-path="url(#p1f5494f978)" d="M 188.64 160.970625 
C 188.64 159.956561 188.213014 158.982993 187.453782 158.265942 
C 186.694551 157.54889 185.663715 157.145625 184.59 157.145625 
C 183.516285 157.145625 182.485449 157.54889 181.726218 158.265942 
C 180.966986 158.982993 180.54 159.956561 180.54 160.970625 
" style="fill:none;stroke:#000000;stroke-linejoin:miter;stroke-width:1.5;"/>
   </g>
   <g id="patch_6">
    <path clip-path="url(#p1f5494f978)" d="M 196.74 160.970625 
C 196.74 159.956561 196.313014 158.982993 195.553782 158.265942 
C 194.794551 157.54889 193.763715 157.145625 192.69 157.145625 
C 191.616285 157.145625 190.585449 157.54889 189.826218 158.265942 
C 189.066986 158.982993 188.64 159.956561 188.64 160.970625 
" style="fill:none;stroke:#000000;stroke-linejoin:miter;stroke-width:1.5;"/>
   </g>
   <g id="patch_7">
    <path clip-path="url(#p1f5494f978)" d="M 204.84 160.970625 
C 204.84 159.956561 204.413014 158.982993 203.653782 158.265942 
C 202.894551 157.54889 201.863715 157.145625 200.79 157.145625 
C 199.716285 157.145625 198.685449 157.54889 197.926218 158.265942 
C 197.166986 158.982993 196.74 159.956561 196.74 160.970625 
" style="fill:none;stroke:#000000;stroke-linejoin:miter;stroke-width:1.5;"/>
   </g>
   <g id="patch_8">
    <path clip-path="url(#p1f5494f978)" d="M 196.74 20.720625 
L 195.789576 27.046727 
L 194.039212 26.283748 
L 180.554709 53.877037 
L 180.525291 53.864213 
L 194.009794 26.270925 
L 192.25943 25.507946 
z
" style="stroke:#000000;stroke-linejoin:miter;stroke-width:1.5;"/>
   </g>
   <g id="patch_9">
    <path clip-path="url(#p1f5494f978)" d="M 69.57 319.708125 
L 68.042884 325.932684 
L 66.369085 325.029364 
L 61.484066 333.103216 
L 61.455934 333.088034 
L 66.340954 325.014182 
L 64.667155 324.110862 
z
" style="stroke:#000000;stroke-linejoin:miter;stroke-width:1.5;"/>
   </g>
   <g id="patch_10">
    <path clip-path="url(#p1f5494f978)" d="M 62.28 319.708125 
L 60.752884 325.932684 
L 59.079085 325.029364 
L 54.194066 333.103216 
L 54.165934 333.088034 
L 59.050954 325.014182 
L 57.377155 324.110862 
z
" style="stroke:#000000;stroke-linejoin:miter;stroke-width:1.5;"/>
   </g>
   <g id="patch_11">
    <path clip-path="url(#p1f5494f978)" d="M 178.926954 317.304242 
L 180.983409 319.139338 
L 179.954429 319.551746 
L 179.559862 318.673627 
L 179.530037 318.68558 
L 179.924604 319.5637 
L 178.895625 319.976108 
z
" style="stroke:#000000;stroke-linejoin:miter;stroke-width:1.5;"/>
   </g>
   <g id="patch_12">
    <path clip-path="url(#p1f5494f978)" d="M 172.837746 319.397405 
L 174.894201 321.232501 
L 173.865221 321.644909 
L 173.470654 320.76679 
L 173.440828 320.778744 
L 173.835396 321.656863 
L 172.806417 322.069271 
z
" style="stroke:#000000;stroke-linejoin:miter;stroke-width:1.5;"/>
   </g>
   <g id="line2d_1">
    <path clip-path="url(#p1f5494f978)" d="M 10.44 38.570625 
L 42.84 38.570625 
L 45.54 30.920625 
L 50.94 46.220625 
L 56.34 30.920625 
L 61.74 46.220625 
L 67.14 30.920625 
L 72.54 46.220625 
L 75.24 38.570625 
L 107.64 38.570625 
" style="fill:none;stroke:#000000;stroke-linecap:round;stroke-width:1.5;"/>
   </g>
   <g id="line2d_2">
    <path clip-path="url(#p1f5494f978)" d="M 140.04 38.570625 
L 172.44 38.570625 
L 175.14 30.920625 
L 180.54 46.220625 
L 185.94 30.920625 
L 191.34 46.220625 
L 196.74 30.920625 
L 202.14 46.220625 
L 204.84 38.570625 
L 237.24 38.570625 
" style="fill:none;stroke:#000000;stroke-linecap:round;stroke-width:1.5;"/>
   </g>
   <g id="line2d_3">
    <path clip-path="url(#p1f5494f978)" d="M 180.54 53.870625 
L 196.74 20.720625 
" style="fill:none;stroke:#000000;stroke-linecap:round;stroke-width:1.5;"/>
   </g>
   <g id="line2d_4">
    <path clip-path="url(#p1f5494f978)" d="M 269.64 38.570625 
L 302.04 38.570625 
L 302.04 30.920625 
L 334.44 30.920625 
L 334.44 46.220625 
L 302.04 46.220625 
L 302.04 38.570625 
M 334.44 38.570625 
L 366.84 38.570625 
" style="fill:none;stroke:#000000;stroke-linecap:round;stroke-width:1.5;"/>
   </g>
   <g id="line2d_5">
    <path clip-path="url(#p1f5494f978)" d="M 10.44 99.770625 
L 56.124 99.770625 
M 56.124 92.120625 
L 56.124 107.420625 
M 61.956 92.120625 
L 61.956 107.420625 
M 61.956 99.770625 
L 107.64 99.770625 
" style="fill:none;stroke:#000000;stroke-linecap:round;stroke-width:1.5;"/>
   </g>
   <g id="line2d_6">
    <path clip-path="url(#p1f5494f978)" d="M 140.04 99.770625 
L 185.724 99.770625 
M 185.724 92.120625 
L 185.724 107.420625 
M 191.556 99.770625 
L 237.24 99.770625 
" style="fill:none;stroke:#000000;stroke-linecap:round;stroke-width:1.5;"/>
   </g>
   <g id="line2d_7">
    <path clip-path="url(#p1f5494f978)" d="M 269.64 99.770625 
L 315.324 99.770625 
M 315.324 92.120625 
L 315.324 107.420625 
M 321.156 92.120625 
L 321.156 107.420625 
M 321.156 99.770625 
L 366.84 99.770625 
" style="fill:none;stroke:#000000;stroke-linecap:round;stroke-width:1.5;"/>
   </g>
   <g id="line2d_8">
    <path clip-path="url(#p1f5494f978)" d="M 10.44 160.970625 
L 56.124 160.970625 
M 56.124 153.320625 
L 56.124 168.620625 
M 61.956 160.970625 
L 107.64 160.970625 
" style="fill:none;stroke:#000000;stroke-linecap:round;stroke-width:1.5;"/>
   </g>
   <g id="line2d_9">
    <path clip-path="url(#p1f5494f978)" d="M 140.04 160.970625 
L 172.44 160.970625 
M 204.84 160.970625 
L 237.24 160.970625 
" style="fill:none;stroke:#000000;stroke-linecap:round;stroke-width:1.5;"/>
   </g>
   <g id="line2d_10">
    <path clip-path="url(#p1f5494f978)" d="M 269.64 160.970625 
L 302.04 160.970625 
L 302.160663 158.451066 
L 302.527584 155.908784 
L 303.132601 153.556996 
L 303.947584 151.592942 
L 304.926792 150.181345 
L 305.459791 149.721826 
L 306.010712 149.440593 
L 306.570786 149.343573 
L 307.131048 149.432812 
L 307.682531 149.706428 
L 308.21645 150.158655 
L 308.724395 150.779959 
L 309.631611 152.474131 
L 310.350702 154.646855 
L 310.843972 157.115909 
L 311.09266 159.674217 
L 311.098521 162.107217 
L 310.883675 164.210858 
L 310.488751 165.808711 
L 309.969483 166.766766 
L 309.683635 166.978445 
L 309.392031 167.004672 
L 309.103658 166.844893 
L 308.827437 166.502476 
L 308.345663 165.302298 
L 308.009727 163.504793 
L 307.870413 161.260717 
L 307.962017 158.758276 
L 308.299467 156.207346 
L 308.877073 153.82187 
L 309.669004 151.801914 
L 310.631451 150.316888 
L 311.158892 149.815963 
L 311.706308 149.49134 
L 312.265002 149.349861 
L 312.826039 149.394507 
L 313.380434 149.624338 
L 313.919344 150.03451 
L 314.434251 150.616377 
L 314.917142 151.357673 
L 315.758359 153.253025 
L 316.395054 155.561605 
L 316.796441 158.089796 
L 316.951467 160.625562 
L 316.869741 162.956233 
L 316.580728 164.886339 
L 316.131279 166.254005 
L 315.581699 166.944527 
L 315.290656 167.015375 
L 315.000692 166.899992 
L 314.720758 166.600809 
L 314.225554 165.480014 
L 313.869189 163.746987 
L 313.704161 161.547076 
L 313.766922 159.064784 
L 314.074819 156.508297 
L 314.624641 154.092023 
L 315.392886 152.018612 
L 316.337734 150.461957 
L 316.859142 149.920234 
L 317.402552 149.552613 
L 317.959352 149.366846 
L 318.520648 149.366846 
L 319.077448 149.552613 
L 319.620858 149.920234 
L 320.142266 150.461957 
L 320.633522 151.166366 
L 321.496321 153.000732 
L 322.159502 155.269485 
L 322.590058 157.782349 
L 322.77449 160.328573 
L 322.71994 162.69461 
L 322.453595 164.682025 
L 322.020404 166.124134 
L 321.479308 166.899992 
L 321.189344 167.015375 
L 320.898301 166.944527 
L 320.615157 166.688941 
L 320.10745 165.648886 
L 319.731415 163.982437 
L 319.541199 161.829357 
L 319.575368 159.370221 
L 319.853666 156.811274 
L 320.375364 154.367129 
L 321.11932 152.242775 
L 322.045749 150.616377 
L 322.560656 150.03451 
L 323.099566 149.624338 
L 323.653961 149.394507 
L 324.214998 149.349861 
L 324.773692 149.49134 
L 325.321108 149.815963 
L 325.848549 150.316888 
L 326.347739 150.983556 
L 327.231399 152.754713 
L 327.92059 154.980891 
L 328.380119 157.475383 
L 328.59406 160.028981 
L 328.567079 162.427519 
L 328.324052 164.469833 
L 327.90797 165.984639 
L 327.376342 166.844893 
L 327.087969 167.004672 
L 326.796365 166.978445 
L 326.510517 166.766766 
L 326.239292 166.374095 
L 325.774456 165.08253 
L 325.463452 163.21207 
L 325.354975 160.919589 
L 325.480734 158.397352 
L 325.852792 155.856897 
L 326.462558 153.511287 
L 327.281501 151.557246 
L 328.26355 150.158655 
L 328.797469 149.706428 
L 329.348952 149.432812 
L 329.909214 149.343573 
L 330.469288 149.440593 
L 331.020209 149.721826 
L 331.553208 150.181345 
L 332.059889 150.809463 
L 332.963669 152.515266 
L 333.67836 154.696172 
L 334.166633 157.169272 
L 334.41015 159.72715 
L 334.44 160.970625 
L 366.84 160.970625 
L 366.84 160.970625 
" style="fill:none;stroke:#000000;stroke-linecap:round;stroke-width:1.5;"/>
   </g>
   <g id="line2d_11">
    <path clip-path="url(#p1f5494f978)" d="M 10.44 222.170625 
L 53.37 222.170625 
M 64.71 214.520625 
L 64.71 229.820625 
M 64.71 222.170625 
L 107.64 222.170625 
" style="fill:none;stroke:#000000;stroke-linecap:round;stroke-width:1.5;"/>
   </g>
   <g id="line2d_12">
    <path clip-path="url(#p1f5494f978)" d="M 140.04 222.170625 
L 182.97 222.170625 
M 194.31 214.520625 
L 194.31 229.820625 
M 194.31 222.170625 
L 237.24 222.170625 
" style="fill:none;stroke:#000000;stroke-linecap:round;stroke-width:1.5;"/>
   </g>
   <g id="line2d_13">
    <path clip-path="url(#p1f5494f978)" d="M 269.64 222.170625 
L 312.57 222.170625 
M 323.91 214.520625 
L 323.91 229.820625 
M 323.91 222.170625 
L 366.84 222.170625 
" style="fill:none;stroke:#000000;stroke-linecap:round;stroke-width:1.5;"/>
   </g>
   <g id="line2d_14">
    <path clip-path="url(#p1f5494f978)" d="M 323.91 214.520625 
L 320.67 214.520625 
L 320.67 217.580625 
" style="fill:none;stroke:#000000;stroke-linecap:round;stroke-width:1.5;"/>
   </g>
   <g id="line2d_15">
    <path clip-path="url(#p1f5494f978)" d="M 323.91 229.820625 
L 327.15 229.820625 
L 327.15 226.760625 
" style="fill:none;stroke:#000000;stroke-linecap:round;stroke-width:1.5;"/>
   </g>
   <g id="line2d_16">
    <path clip-path="url(#p1f5494f978)" d="M 10.44 283.370625 
L 53.37 283.370625 
M 64.71 275.720625 
L 64.71 291.020625 
M 64.71 283.370625 
L 107.64 283.370625 
" style="fill:none;stroke:#000000;stroke-linecap:round;stroke-width:1.5;"/>
   </g>
   <g id="line2d_17">
    <path clip-path="url(#p1f5494f978)" d="M 64.71 275.720625 
L 61.47 275.720625 
L 61.47 278.780625 
" style="fill:none;stroke:#000000;stroke-linecap:round;stroke-width:1.5;"/>
   </g>
   <g id="line2d_18">
    <path clip-path="url(#p1f5494f978)" d="M 64.71 291.020625 
L 67.95 291.020625 
L 67.95 287.960625 
" style="fill:none;stroke:#000000;stroke-linecap:round;stroke-width:1.5;"/>
   </g>
   <g id="line2d_19">
    <path clip-path="url(#p1f5494f978)" d="M 140.04 283.370625 
L 182.97 283.370625 
M 194.31 275.720625 
L 194.31 291.020625 
M 194.31 283.370625 
L 237.24 283.370625 
" style="fill:none;stroke:#000000;stroke-linecap:round;stroke-width:1.5;"/>
   </g>
   <g id="line2d_20">
    <path clip-path="url(#p1f5494f978)" d="M 194.31 275.720625 
L 197.55 272.660625 
" style="fill:none;stroke:#000000;stroke-linecap:round;stroke-width:1.5;"/>
   </g>
   <g id="line2d_21">
    <path clip-path="url(#p1f5494f978)" d="M 194.31 291.020625 
L 191.07 294.080625 
" style="fill:none;stroke:#000000;stroke-linecap:round;stroke-width:1.5;"/>
   </g>
   <g id="line2d_22">
    <path clip-path="url(#p1f5494f978)" d="M 269.64 283.370625 
L 312.57 283.370625 
M 323.91 275.720625 
L 323.91 291.020625 
M 323.91 283.370625 
L 366.84 283.370625 
" style="fill:none;stroke:#000000;stroke-linecap:round;stroke-width:1.5;"/>
   </g>
   <g id="line2d_23">
    <path clip-path="url(#p1f5494f978)" d="M 323.91 275.720625 
L 327.15 272.660625 
" style="fill:none;stroke:#000000;stroke-linecap:round;stroke-width:1.5;"/>
   </g>
   <g id="line2d_24">
    <path clip-path="url(#p1f5494f978)" d="M 323.91 291.020625 
L 320.67 294.080625 
" style="fill:none;stroke:#000000;stroke-linecap:round;stroke-width:1.5;"/>
   </g>
   <g id="line2d_25">
    <path clip-path="url(#p1f5494f978)" d="M 10.44 344.570625 
L 53.37 344.570625 
M 64.71 336.920625 
L 64.71 352.220625 
M 64.71 344.570625 
L 107.64 344.570625 
" style="fill:none;stroke:#000000;stroke-linecap:round;stroke-width:1.5;"/>
   </g>
   <g id="line2d_26">
    <path clip-path="url(#p1f5494f978)" d="M 61.47 333.095625 
L 69.57 319.708125 
" style="fill:none;stroke:#000000;stroke-linecap:round;stroke-width:1.5;"/>
   </g>
   <g id="line2d_27">
    <path clip-path="url(#p1f5494f978)" d="M 140.04 344.570625 
L 182.97 344.570625 
M 194.31 336.920625 
L 194.31 352.220625 
M 194.31 344.570625 
L 237.24 344.570625 
" style="fill:none;stroke:#000000;stroke-linecap:round;stroke-width:1.5;"/>
   </g>
   <g id="line2d_28">
    <path clip-path="url(#p1f5494f978)" d="M 178.926954 317.304242 
L 179.544949 318.679604 
L 180.109821 319.917118 
L 180.623829 321.022652 
L 181.089235 322.002069 
L 181.508299 322.861237 
L 181.883281 323.606022 
L 182.216443 324.242288 
L 182.510045 324.775902 
L 182.766347 325.212729 
L 182.98761 325.558636 
L 183.176095 325.819488 
L 183.334062 326.001152 
L 183.463772 326.109492 
L 183.567485 326.150376 
L 183.647463 326.129668 
L 183.705964 326.053234 
L 183.745251 325.926941 
L 183.767583 325.756654 
L 183.775222 325.548239 
L 183.770427 325.307562 
L 183.75546 325.040489 
L 183.732581 324.752885 
L 183.70405 324.450617 
L 183.672128 324.13955 
L 183.639076 323.82555 
L 183.607155 323.514482 
L 183.578624 323.212214 
L 183.555745 322.92461 
L 183.540778 322.657537 
L 183.535983 322.41686 
L 183.543622 322.208445 
L 183.565954 322.038158 
L 183.605241 321.911865 
L 183.663742 321.835431 
L 183.743719 321.814723 
L 183.847432 321.855607 
L 183.977142 321.963947 
L 184.135109 322.145611 
L 184.323594 322.406463 
L 184.544857 322.75237 
L 184.80116 323.189197 
L 185.094762 323.722811 
L 185.427923 324.359077 
L 185.802906 325.103862 
L 186.22197 325.96303 
L 186.687376 326.942447 
L 187.201384 328.047981 
L 187.766255 329.285496 
L 188.38425 330.660858 
" style="fill:none;stroke:#000000;stroke-linecap:round;stroke-width:1.5;"/>
   </g>
   <g id="line2d_29">
    <path clip-path="url(#p1f5494f978)" d="M 172.837746 319.397405 
L 173.455741 320.772767 
L 174.020612 322.010282 
L 174.534621 323.115815 
L 175.000026 324.095233 
L 175.41909 324.954401 
L 175.794073 325.699185 
L 176.127235 326.335451 
L 176.420837 326.869065 
L 176.677139 327.305892 
L 176.898402 327.651799 
L 177.086887 327.912652 
L 177.244854 328.094315 
L 177.374564 328.202656 
L 177.478277 328.243539 
L 177.558254 328.222831 
L 177.616756 328.146397 
L 177.656043 328.020104 
L 177.678375 327.849817 
L 177.686013 327.641402 
L 177.681219 327.400725 
L 177.666252 327.133652 
L 177.643372 326.846048 
L 177.614842 326.54378 
L 177.58292 326.232713 
L 177.549868 325.918713 
L 177.517947 325.607646 
L 177.489416 325.305377 
L 177.466537 325.017774 
L 177.451569 324.7507 
L 177.446775 324.510023 
L 177.454413 324.301608 
L 177.476746 324.131321 
L 177.516032 324.005028 
L 177.574534 323.928595 
L 177.654511 323.907887 
L 177.758224 323.94877 
L 177.887934 324.05711 
L 178.045901 324.238774 
L 178.234386 324.499626 
L 178.455649 324.845533 
L 178.711952 325.282361 
L 179.005553 325.815975 
L 179.338715 326.452241 
L 179.713698 327.197025 
L 180.132762 328.056193 
L 180.598168 329.035611 
L 181.112176 330.141144 
L 181.677047 331.378659 
L 182.295042 332.754021 
" style="fill:none;stroke:#000000;stroke-linecap:round;stroke-width:1.5;"/>
   </g>
   <g id="line2d_30">
    <path clip-path="url(#p1f5494f978)" d="M 269.64 344.570625 
L 311.76 344.570625 
M 311.76 336.920625 
L 311.76 352.220625 
M 315 336.920625 
L 315 352.220625 
L 321.48 352.220625 
L 321.48 336.920625 
L 315 336.920625 
M 324.72 336.920625 
L 324.72 352.220625 
M 324.72 344.570625 
L 366.84 344.570625 
" style="fill:none;stroke:#000000;stroke-linecap:round;stroke-width:1.5;"/>
   </g>
   <g id="line2d_31">
    <path clip-path="url(#p1f5494f978)" d="M 10.44 405.770625 
L 42.84 405.770625 
L 49.32 405.770625 
L 49.32 410.360625 
L 55.8 410.360625 
L 55.8 401.180625 
L 62.28 401.180625 
L 62.28 410.360625 
L 68.76 410.360625 
L 68.76 405.770625 
L 75.24 405.770625 
L 107.64 405.770625 
" style="fill:none;stroke:#000000;stroke-linecap:round;stroke-width:1.5;"/>
   </g>
   <g id="line2d_32">
    <path clip-path="url(#p1f5494f978)" d="M 42.84 398.120625 
L 75.24 398.120625 
L 75.24 413.420625 
L 42.84 413.420625 
L 42.84 398.120625 
" style="fill:none;stroke:#000000;stroke-linecap:round;stroke-width:1.5;"/>
   </g>
   <g id="line2d_33">
    <path clip-path="url(#p1f5494f978)" d="M 140.04 405.770625 
L 165.96 405.770625 
L 165.96 398.120625 
L 172.44 398.120625 
L 172.44 413.420625 
L 178.92 413.420625 
L 178.92 398.120625 
L 185.4 398.120625 
L 185.4 413.420625 
L 191.88 413.420625 
L 191.88 398.120625 
L 198.36 398.120625 
L 198.36 413.420625 
L 204.84 413.420625 
L 204.84 405.770625 
L 211.32 405.770625 
L 237.24 405.770625 
" style="fill:none;stroke:#000000;stroke-linecap:round;stroke-width:1.5;"/>
   </g>
   <g id="line2d_34">
    <path clip-path="url(#p1f5494f978)" d="M 269.64 405.770625 
L 318.24 405.770625 
M 310.14 398.120625 
L 326.34 413.420625 
M 326.34 398.120625 
L 310.14 413.420625 
M 318.24 405.770625 
L 366.84 405.770625 
" style="fill:none;stroke:#000000;stroke-linecap:round;stroke-width:1.5;"/>
   </g>
   <g id="patch_13">
    <path clip-path="url(#p1f5494f978)" d="M 53.37 214.520625 
L 64.71 222.170625 
L 53.37 229.820625 
z
" style="fill:none;stroke:#000000;stroke-linejoin:miter;stroke-width:1.5;"/>
   </g>
   <g id="patch_14">
    <path clip-path="url(#p1f5494f978)" d="M 182.97 214.520625 
L 194.31 222.170625 
L 182.97 229.820625 
z
" style="stroke:#000000;stroke-linejoin:miter;stroke-width:1.5;"/>
   </g>
   <g id="patch_15">
    <path clip-path="url(#p1f5494f978)" d="M 182.97 214.520625 
L 194.31 222.170625 
L 182.97 229.820625 
z
" style="fill:none;stroke:#000000;stroke-linejoin:miter;stroke-width:1.5;"/>
   </g>
   <g id="patch_16">
    <path clip-path="url(#p1f5494f978)" d="M 312.57 214.520625 
L 323.91 222.170625 
L 312.57 229.820625 
z
" style="fill:none;stroke:#000000;stroke-linejoin:miter;stroke-width:1.5;"/>
   </g>
   <g id="patch_17">
    <path clip-path="url(#p1f5494f978)" d="M 53.37 275.720625 
L 64.71 283.370625 
L 53.37 291.020625 
z
" style="stroke:#000000;stroke-linejoin:miter;stroke-width:1.5;"/>
   </g>
   <g id="patch_18">
    <path clip-path="url(#p1f5494f978)" d="M 53.37 275.720625 
L 64.71 283.370625 
L 53.37 291.020625 
z
" style="fill:none;stroke:#000000;stroke-linejoin:miter;stroke-width:1.5;"/>
   </g>
   <g id="patch_19">
    <path clip-path="url(#p1f5494f978)" d="M 182.97 275.720625 
L 194.31 283.370625 
L 182.97 291.020625 
z
" style="fill:none;stroke:#000000;stroke-linejoin:miter;stroke-width:1.5;"/>
   </g>
   <g id="patch_20">
    <path clip-path="url(#p1f5494f978)" d="M 312.57 275.720625 
L 323.91 283.370625 
L 312.57 291.020625 
z
" style="stroke:#000000;stroke-linejoin:miter;stroke-width:1.5;"/>
   </g>
   <g id="patch_21">
    <path clip-path="url(#p1f5494f978)" d="M 312.57 275.720625 
L 323.91 283.370625 
L 312.57 291.020625 
z
" style="fill:none;stroke:#000000;stroke-linejoin:miter;stroke-width:1.5;"/>
   </g>
   <g id="patch_22">
    <path clip-path="url(#p1f5494f978)" d="M 53.37 336.920625 
L 64.71 344.570625 
L 53.37 352.220625 
z
" style="fill:none;stroke:#000000;stroke-linejoin:miter;stroke-width:1.5;"/>
   </g>
   <g id="patch_23">
    <path clip-path="url(#p1f5494f978)" d="M 182.97 336.920625 
L 194.31 344.570625 
L 182.97 352.220625 
z
" style="fill:none;stroke:#000000;stroke-linejoin:miter;stroke-width:1.5;"/>
   </g>
   <g id="patch_24">
    <path clip-path="url(#p1f5494f978)" d="M 42.84 398.120625 
L 42.84 413.420625 
L 46.08 413.420625 
L 46.08 398.120625 
z
" style="stroke:#000000;stroke-linejoin:miter;stroke-width:1.5;"/>
   </g>
   <g id="text_1">
    <!-- RES -->
    <defs>
     <path d="M 53.515625 70.515625 
L 53.515625 60.890625 
Q 47.90625 63.578125 42.921875 64.890625 
Q 37.9375 66.21875 33.296875 66.21875 
Q 25.25 66.21875 20.875 63.09375 
Q 16.5 59.96875 16.5 54.203125 
Q 16.5 49.359375 19.40625 46.890625 
Q 22.3125 44.4375 30.421875 42.921875 
L 36.375 41.703125 
Q 47.40625 39.59375 52.65625 34.296875 
Q 57.90625 29 57.90625 20.125 
Q 57.90625 9.515625 50.796875 4.046875 
Q 43.703125 -1.421875 29.984375 -1.421875 
Q 24.8125 -1.421875 18.96875 -0.25 
Q 13.140625 0.921875 6.890625 3.21875 
L 6.890625 13.375 
Q 12.890625 10.015625 18.65625 8.296875 
Q 24.421875 6.59375 29.984375 6.59375 
Q 38.421875 6.59375 43.015625 9.90625 
Q 47.609375 13.234375 47.609375 19.390625 
Q 47.609375 24.75 44.3125 27.78125 
Q 41.015625 30.8125 33.5 32.328125 
L 27.484375 33.5 
Q 16.453125 35.6875 11.515625 40.375 
Q 6.59375 45.0625 6.59375 53.421875 
Q 6.59375 63.09375 13.40625 68.65625 
Q 20.21875 74.21875 32.171875 74.21875 
Q 37.3125 74.21875 42.625 73.28125 
Q 47.953125 72.359375 53.515625 70.515625 
" id="BitstreamVeraSans-Roman-53"/>
     <path d="M 9.8125 72.90625 
L 55.90625 72.90625 
L 55.90625 64.59375 
L 19.671875 64.59375 
L 19.671875 43.015625 
L 54.390625 43.015625 
L 54.390625 34.71875 
L 19.671875 34.71875 
L 19.671875 8.296875 
L 56.78125 8.296875 
L 56.78125 0 
L 9.8125 0 
z
" id="BitstreamVeraSans-Roman-45"/>
     <path d="M 44.390625 34.1875 
Q 47.5625 33.109375 50.5625 29.59375 
Q 53.5625 26.078125 56.59375 19.921875 
L 66.609375 0 
L 56 0 
L 46.6875 18.703125 
Q 43.0625 26.03125 39.671875 28.421875 
Q 36.28125 30.8125 30.421875 30.8125 
L 19.671875 30.8125 
L 19.671875 0 
L 9.8125 0 
L 9.8125 72.90625 
L 32.078125 72.90625 
Q 44.578125 72.90625 50.734375 67.671875 
Q 56.890625 62.453125 56.890625 51.90625 
Q 56.890625 45.015625 53.6875 40.46875 
Q 50.484375 35.9375 44.390625 34.1875 
M 19.671875 64.796875 
L 19.671875 38.921875 
L 32.078125 38.921875 
Q 39.203125 38.921875 42.84375 42.21875 
Q 46.484375 45.515625 46.484375 51.90625 
Q 46.484375 58.296875 42.84375 61.546875 
Q 39.203125 64.796875 32.078125 64.796875 
z
" id="BitstreamVeraSans-Roman-52"/>
    </defs>
    <g transform="translate(47.270625 17.715)scale(0.12 -0.12)">
     <use xlink:href="#BitstreamVeraSans-Roman-52"/>
     <use x="69.482421875" xlink:href="#BitstreamVeraSans-Roman-45"/>
     <use x="132.666015625" xlink:href="#BitstreamVeraSans-Roman-53"/>
    </g>
   </g>
   <g id="text_2">
    <!-- RES_VAR -->
    <defs>
     <path d="M 34.1875 63.1875 
L 20.796875 26.90625 
L 47.609375 26.90625 
z
M 28.609375 72.90625 
L 39.796875 72.90625 
L 67.578125 0 
L 57.328125 0 
L 50.6875 18.703125 
L 17.828125 18.703125 
L 11.1875 0 
L 0.78125 0 
z
" id="BitstreamVeraSans-Roman-41"/>
     <path d="M 28.609375 0 
L 0.78125 72.90625 
L 11.078125 72.90625 
L 34.1875 11.53125 
L 57.328125 72.90625 
L 67.578125 72.90625 
L 39.796875 0 
z
" id="BitstreamVeraSans-Roman-56"/>
     <path d="M 50.984375 -16.609375 
L 50.984375 -23.578125 
L -0.984375 -23.578125 
L -0.984375 -16.609375 
z
" id="BitstreamVeraSans-Roman-5f"/>
    </defs>
    <g transform="translate(161.4984375 16.10625)scale(0.12 -0.12)">
     <use xlink:href="#BitstreamVeraSans-Roman-52"/>
     <use x="69.482421875" xlink:href="#BitstreamVeraSans-Roman-45"/>
     <use x="132.666015625" xlink:href="#BitstreamVeraSans-Roman-53"/>
     <use x="196.142578125" xlink:href="#BitstreamVeraSans-Roman-5f"/>
     <use x="246.142578125" xlink:href="#BitstreamVeraSans-Roman-56"/>
     <use x="314.45703125" xlink:href="#BitstreamVeraSans-Roman-41"/>
     <use x="382.865234375" xlink:href="#BitstreamVeraSans-Roman-52"/>
    </g>
   </g>
   <g id="text_3">
    <!-- RBOX -->
    <defs>
     <path d="M 19.671875 34.8125 
L 19.671875 8.109375 
L 35.5 8.109375 
Q 43.453125 8.109375 47.28125 11.40625 
Q 51.125 14.703125 51.125 21.484375 
Q 51.125 28.328125 47.28125 31.5625 
Q 43.453125 34.8125 35.5 34.8125 
z
M 19.671875 64.796875 
L 19.671875 42.828125 
L 34.28125 42.828125 
Q 41.5 42.828125 45.03125 45.53125 
Q 48.578125 48.25 48.578125 53.8125 
Q 48.578125 59.328125 45.03125 62.0625 
Q 41.5 64.796875 34.28125 64.796875 
z
M 9.8125 72.90625 
L 35.015625 72.90625 
Q 46.296875 72.90625 52.390625 68.21875 
Q 58.5 63.53125 58.5 54.890625 
Q 58.5 48.1875 55.375 44.234375 
Q 52.25 40.28125 46.1875 39.3125 
Q 53.46875 37.75 57.5 32.78125 
Q 61.53125 27.828125 61.53125 20.40625 
Q 61.53125 10.640625 54.890625 5.3125 
Q 48.25 0 35.984375 0 
L 9.8125 0 
z
" id="BitstreamVeraSans-Roman-42"/>
     <path d="M 6.296875 72.90625 
L 16.890625 72.90625 
L 35.015625 45.796875 
L 53.21875 72.90625 
L 63.8125 72.90625 
L 40.375 37.890625 
L 65.375 0 
L 54.78125 0 
L 34.28125 31 
L 13.625 0 
L 2.984375 0 
L 29 38.921875 
z
" id="BitstreamVeraSans-Roman-58"/>
     <path d="M 39.40625 66.21875 
Q 28.65625 66.21875 22.328125 58.203125 
Q 16.015625 50.203125 16.015625 36.375 
Q 16.015625 22.609375 22.328125 14.59375 
Q 28.65625 6.59375 39.40625 6.59375 
Q 50.140625 6.59375 56.421875 14.59375 
Q 62.703125 22.609375 62.703125 36.375 
Q 62.703125 50.203125 56.421875 58.203125 
Q 50.140625 66.21875 39.40625 66.21875 
M 39.40625 74.21875 
Q 54.734375 74.21875 63.90625 63.9375 
Q 73.09375 53.65625 73.09375 36.375 
Q 73.09375 19.140625 63.90625 8.859375 
Q 54.734375 -1.421875 39.40625 -1.421875 
Q 24.03125 -1.421875 14.8125 8.828125 
Q 5.609375 19.09375 5.609375 36.375 
Q 5.609375 53.65625 14.8125 63.9375 
Q 24.03125 74.21875 39.40625 74.21875 
" id="BitstreamVeraSans-Roman-4f"/>
    </defs>
    <g transform="translate(301.1278125 17.715)scale(0.12 -0.12)">
     <use xlink:href="#BitstreamVeraSans-Roman-52"/>
     <use x="69.482421875" xlink:href="#BitstreamVeraSans-Roman-42"/>
     <use x="138.0703125" xlink:href="#BitstreamVeraSans-Roman-4f"/>
     <use x="216.6875" xlink:href="#BitstreamVeraSans-Roman-58"/>
    </g>
   </g>
   <g id="text_4">
    <!-- CAP -->
    <defs>
     <path d="M 64.40625 67.28125 
L 64.40625 56.890625 
Q 59.421875 61.53125 53.78125 63.8125 
Q 48.140625 66.109375 41.796875 66.109375 
Q 29.296875 66.109375 22.65625 58.46875 
Q 16.015625 50.828125 16.015625 36.375 
Q 16.015625 21.96875 22.65625 14.328125 
Q 29.296875 6.6875 41.796875 6.6875 
Q 48.140625 6.6875 53.78125 8.984375 
Q 59.421875 11.28125 64.40625 15.921875 
L 64.40625 5.609375 
Q 59.234375 2.09375 53.4375 0.328125 
Q 47.65625 -1.421875 41.21875 -1.421875 
Q 24.65625 -1.421875 15.125 8.703125 
Q 5.609375 18.84375 5.609375 36.375 
Q 5.609375 53.953125 15.125 64.078125 
Q 24.65625 74.21875 41.21875 74.21875 
Q 47.75 74.21875 53.53125 72.484375 
Q 59.328125 70.75 64.40625 67.28125 
" id="BitstreamVeraSans-Roman-43"/>
     <path d="M 19.671875 64.796875 
L 19.671875 37.40625 
L 32.078125 37.40625 
Q 38.96875 37.40625 42.71875 40.96875 
Q 46.484375 44.53125 46.484375 51.125 
Q 46.484375 57.671875 42.71875 61.234375 
Q 38.96875 64.796875 32.078125 64.796875 
z
M 9.8125 72.90625 
L 32.078125 72.90625 
Q 44.34375 72.90625 50.609375 67.359375 
Q 56.890625 61.8125 56.890625 51.125 
Q 56.890625 40.328125 50.609375 34.8125 
Q 44.34375 29.296875 32.078125 29.296875 
L 19.671875 29.296875 
L 19.671875 0 
L 9.8125 0 
z
" id="BitstreamVeraSans-Roman-50"/>
    </defs>
    <g transform="translate(47.128125 78.915)scale(0.12 -0.12)">
     <use xlink:href="#BitstreamVeraSans-Roman-43"/>
     <use x="69.82421875" xlink:href="#BitstreamVeraSans-Roman-41"/>
     <use x="138.232421875" xlink:href="#BitstreamVeraSans-Roman-50"/>
    </g>
   </g>
   <g id="text_5">
    <!-- CAP2 -->
    <defs>
     <path d="M 19.1875 8.296875 
L 53.609375 8.296875 
L 53.609375 0 
L 7.328125 0 
L 7.328125 8.296875 
Q 12.9375 14.109375 22.625 23.890625 
Q 32.328125 33.6875 34.8125 36.53125 
Q 39.546875 41.84375 41.421875 45.53125 
Q 43.3125 49.21875 43.3125 52.78125 
Q 43.3125 58.59375 39.234375 62.25 
Q 35.15625 65.921875 28.609375 65.921875 
Q 23.96875 65.921875 18.8125 64.3125 
Q 13.671875 62.703125 7.8125 59.421875 
L 7.8125 69.390625 
Q 13.765625 71.78125 18.9375 73 
Q 24.125 74.21875 28.421875 74.21875 
Q 39.75 74.21875 46.484375 68.546875 
Q 53.21875 62.890625 53.21875 53.421875 
Q 53.21875 48.921875 51.53125 44.890625 
Q 49.859375 40.875 45.40625 35.40625 
Q 44.1875 33.984375 37.640625 27.21875 
Q 31.109375 20.453125 19.1875 8.296875 
" id="BitstreamVeraSans-Roman-32"/>
    </defs>
    <g transform="translate(172.910625 78.915)scale(0.12 -0.12)">
     <use xlink:href="#BitstreamVeraSans-Roman-43"/>
     <use x="69.82421875" xlink:href="#BitstreamVeraSans-Roman-41"/>
     <use x="138.232421875" xlink:href="#BitstreamVeraSans-Roman-50"/>
     <use x="198.53515625" xlink:href="#BitstreamVeraSans-Roman-32"/>
    </g>
   </g>
   <g id="text_6">
    <!-- CAP_P -->
    <g transform="translate(299.7103125 78.58125)scale(0.12 -0.12)">
     <use xlink:href="#BitstreamVeraSans-Roman-43"/>
     <use x="69.82421875" xlink:href="#BitstreamVeraSans-Roman-41"/>
     <use x="138.232421875" xlink:href="#BitstreamVeraSans-Roman-50"/>
     <use x="198.53515625" xlink:href="#BitstreamVeraSans-Roman-5f"/>
     <use x="248.53515625" xlink:href="#BitstreamVeraSans-Roman-50"/>
    </g>
   </g>
   <g id="text_7">
    <!-- + -->
    <defs>
     <path d="M 46 62.703125 
L 46 35.5 
L 73.1875 35.5 
L 73.1875 27.203125 
L 46 27.203125 
L 46 0 
L 37.796875 0 
L 37.796875 27.203125 
L 10.59375 27.203125 
L 10.59375 35.5 
L 37.796875 35.5 
L 37.796875 62.703125 
z
" id="BitstreamVeraSans-Roman-2b"/>
    </defs>
    <g transform="translate(303.2977875 97.573875)scale(0.12 -0.12)">
     <use xlink:href="#BitstreamVeraSans-Roman-2b"/>
    </g>
   </g>
   <g id="text_8">
    <!-- CAP2_P -->
    <g transform="translate(36.6928125 139.78125)scale(0.12 -0.12)">
     <use xlink:href="#BitstreamVeraSans-Roman-43"/>
     <use x="69.82421875" xlink:href="#BitstreamVeraSans-Roman-41"/>
     <use x="138.232421875" xlink:href="#BitstreamVeraSans-Roman-50"/>
     <use x="198.53515625" xlink:href="#BitstreamVeraSans-Roman-32"/>
     <use x="262.158203125" xlink:href="#BitstreamVeraSans-Roman-5f"/>
     <use x="312.158203125" xlink:href="#BitstreamVeraSans-Roman-50"/>
    </g>
   </g>
   <g id="text_9">
    <!-- + -->
    <g transform="translate(44.0977875 158.773875)scale(0.12 -0.12)">
     <use xlink:href="#BitstreamVeraSans-Roman-2b"/>
    </g>
   </g>
   <g id="text_10">
    <!-- INDUCTOR -->
    <defs>
     <path d="M 9.8125 72.90625 
L 23.09375 72.90625 
L 55.421875 11.921875 
L 55.421875 72.90625 
L 64.984375 72.90625 
L 64.984375 0 
L 51.703125 0 
L 19.390625 60.984375 
L 19.390625 0 
L 9.8125 0 
z
" id="BitstreamVeraSans-Roman-4e"/>
     <path d="M 19.671875 64.796875 
L 19.671875 8.109375 
L 31.59375 8.109375 
Q 46.6875 8.109375 53.6875 14.9375 
Q 60.6875 21.78125 60.6875 36.53125 
Q 60.6875 51.171875 53.6875 57.984375 
Q 46.6875 64.796875 31.59375 64.796875 
z
M 9.8125 72.90625 
L 30.078125 72.90625 
Q 51.265625 72.90625 61.171875 64.09375 
Q 71.09375 55.28125 71.09375 36.53125 
Q 71.09375 17.671875 61.125 8.828125 
Q 51.171875 0 30.078125 0 
L 9.8125 0 
z
" id="BitstreamVeraSans-Roman-44"/>
     <path d="M 9.8125 72.90625 
L 19.671875 72.90625 
L 19.671875 0 
L 9.8125 0 
z
" id="BitstreamVeraSans-Roman-49"/>
     <path d="M -0.296875 72.90625 
L 61.375 72.90625 
L 61.375 64.59375 
L 35.5 64.59375 
L 35.5 0 
L 25.59375 0 
L 25.59375 64.59375 
L -0.296875 64.59375 
z
" id="BitstreamVeraSans-Roman-54"/>
     <path d="M 8.6875 72.90625 
L 18.609375 72.90625 
L 18.609375 28.609375 
Q 18.609375 16.890625 22.84375 11.734375 
Q 27.09375 6.59375 36.625 6.59375 
Q 46.09375 6.59375 50.34375 11.734375 
Q 54.59375 16.890625 54.59375 28.609375 
L 54.59375 72.90625 
L 64.5 72.90625 
L 64.5 27.390625 
Q 64.5 13.140625 57.4375 5.859375 
Q 50.390625 -1.421875 36.625 -1.421875 
Q 22.796875 -1.421875 15.734375 5.859375 
Q 8.6875 13.140625 8.6875 27.390625 
z
" id="BitstreamVeraSans-Roman-55"/>
    </defs>
    <g transform="translate(156.6234375 140.115)scale(0.12 -0.12)">
     <use xlink:href="#BitstreamVeraSans-Roman-49"/>
     <use x="29.4921875" xlink:href="#BitstreamVeraSans-Roman-4e"/>
     <use x="104.296875" xlink:href="#BitstreamVeraSans-Roman-44"/>
     <use x="181.298828125" xlink:href="#BitstreamVeraSans-Roman-55"/>
     <use x="254.4921875" xlink:href="#BitstreamVeraSans-Roman-43"/>
     <use x="324.31640625" xlink:href="#BitstreamVeraSans-Roman-54"/>
     <use x="385.400390625" xlink:href="#BitstreamVeraSans-Roman-4f"/>
     <use x="464.111328125" xlink:href="#BitstreamVeraSans-Roman-52"/>
    </g>
   </g>
   <g id="text_11">
    <!-- INDUCTOR2 -->
    <g transform="translate(282.4059375 137.323849073)scale(0.12 -0.12)">
     <use xlink:href="#BitstreamVeraSans-Roman-49"/>
     <use x="29.4921875" xlink:href="#BitstreamVeraSans-Roman-4e"/>
     <use x="104.296875" xlink:href="#BitstreamVeraSans-Roman-44"/>
     <use x="181.298828125" xlink:href="#BitstreamVeraSans-Roman-55"/>
     <use x="254.4921875" xlink:href="#BitstreamVeraSans-Roman-43"/>
     <use x="324.31640625" xlink:href="#BitstreamVeraSans-Roman-54"/>
     <use x="385.400390625" xlink:href="#BitstreamVeraSans-Roman-4f"/>
     <use x="464.111328125" xlink:href="#BitstreamVeraSans-Roman-52"/>
     <use x="533.59375" xlink:href="#BitstreamVeraSans-Roman-32"/>
    </g>
   </g>
   <g id="text_12">
    <!-- DIODE -->
    <g transform="translate(39.515625 201.315)scale(0.12 -0.12)">
     <use xlink:href="#BitstreamVeraSans-Roman-44"/>
     <use x="77.001953125" xlink:href="#BitstreamVeraSans-Roman-49"/>
     <use x="106.494140625" xlink:href="#BitstreamVeraSans-Roman-4f"/>
     <use x="185.205078125" xlink:href="#BitstreamVeraSans-Roman-44"/>
     <use x="262.20703125" xlink:href="#BitstreamVeraSans-Roman-45"/>
    </g>
   </g>
   <g id="text_13">
    <!-- DIODE_F -->
    <defs>
     <path d="M 9.8125 72.90625 
L 51.703125 72.90625 
L 51.703125 64.59375 
L 19.671875 64.59375 
L 19.671875 43.109375 
L 48.578125 43.109375 
L 48.578125 34.8125 
L 19.671875 34.8125 
L 19.671875 0 
L 9.8125 0 
z
" id="BitstreamVeraSans-Roman-46"/>
    </defs>
    <g transform="translate(162.6646875 200.98125)scale(0.12 -0.12)">
     <use xlink:href="#BitstreamVeraSans-Roman-44"/>
     <use x="77.001953125" xlink:href="#BitstreamVeraSans-Roman-49"/>
     <use x="106.494140625" xlink:href="#BitstreamVeraSans-Roman-4f"/>
     <use x="185.205078125" xlink:href="#BitstreamVeraSans-Roman-44"/>
     <use x="262.20703125" xlink:href="#BitstreamVeraSans-Roman-45"/>
     <use x="325.390625" xlink:href="#BitstreamVeraSans-Roman-5f"/>
     <use x="375.390625" xlink:href="#BitstreamVeraSans-Roman-46"/>
    </g>
   </g>
   <g id="text_14">
    <!-- SCHOTTKY -->
    <defs>
     <path d="M 9.8125 72.90625 
L 19.671875 72.90625 
L 19.671875 43.015625 
L 55.515625 43.015625 
L 55.515625 72.90625 
L 65.375 72.90625 
L 65.375 0 
L 55.515625 0 
L 55.515625 34.71875 
L 19.671875 34.71875 
L 19.671875 0 
L 9.8125 0 
z
" id="BitstreamVeraSans-Roman-48"/>
     <path d="M -0.203125 72.90625 
L 10.40625 72.90625 
L 30.609375 42.921875 
L 50.6875 72.90625 
L 61.28125 72.90625 
L 35.5 34.71875 
L 35.5 0 
L 25.59375 0 
L 25.59375 34.71875 
z
" id="BitstreamVeraSans-Roman-59"/>
     <path d="M 9.8125 72.90625 
L 19.671875 72.90625 
L 19.671875 42.09375 
L 52.390625 72.90625 
L 65.09375 72.90625 
L 28.90625 38.921875 
L 67.671875 0 
L 54.6875 0 
L 19.671875 35.109375 
L 19.671875 0 
L 9.8125 0 
z
" id="BitstreamVeraSans-Roman-4b"/>
    </defs>
    <g transform="translate(286.0809375 201.315)scale(0.12 -0.12)">
     <use xlink:href="#BitstreamVeraSans-Roman-53"/>
     <use x="63.4765625" xlink:href="#BitstreamVeraSans-Roman-43"/>
     <use x="133.30078125" xlink:href="#BitstreamVeraSans-Roman-48"/>
     <use x="208.49609375" xlink:href="#BitstreamVeraSans-Roman-4f"/>
     <use x="287.20703125" xlink:href="#BitstreamVeraSans-Roman-54"/>
     <use x="348.275390625" xlink:href="#BitstreamVeraSans-Roman-54"/>
     <use x="409.359375" xlink:href="#BitstreamVeraSans-Roman-4b"/>
     <use x="474.888671875" xlink:href="#BitstreamVeraSans-Roman-59"/>
    </g>
   </g>
   <g id="text_15">
    <!-- SCHOTTKY_F -->
    <g transform="translate(20.43 262.18125)scale(0.12 -0.12)">
     <use xlink:href="#BitstreamVeraSans-Roman-53"/>
     <use x="63.4765625" xlink:href="#BitstreamVeraSans-Roman-43"/>
     <use x="133.30078125" xlink:href="#BitstreamVeraSans-Roman-48"/>
     <use x="208.49609375" xlink:href="#BitstreamVeraSans-Roman-4f"/>
     <use x="287.20703125" xlink:href="#BitstreamVeraSans-Roman-54"/>
     <use x="348.275390625" xlink:href="#BitstreamVeraSans-Roman-54"/>
     <use x="409.359375" xlink:href="#BitstreamVeraSans-Roman-4b"/>
     <use x="474.888671875" xlink:href="#BitstreamVeraSans-Roman-59"/>
     <use x="535.97265625" xlink:href="#BitstreamVeraSans-Roman-5f"/>
     <use x="585.97265625" xlink:href="#BitstreamVeraSans-Roman-46"/>
    </g>
   </g>
   <g id="text_16">
    <!-- ZENER -->
    <defs>
     <path d="M 5.609375 72.90625 
L 62.890625 72.90625 
L 62.890625 65.375 
L 16.796875 8.296875 
L 64.015625 8.296875 
L 64.015625 0 
L 4.5 0 
L 4.5 7.515625 
L 50.59375 64.59375 
L 5.609375 64.59375 
z
" id="BitstreamVeraSans-Roman-5a"/>
    </defs>
    <g transform="translate(168.2896875 262.515)scale(0.12 -0.12)">
     <use xlink:href="#BitstreamVeraSans-Roman-5a"/>
     <use x="68.505859375" xlink:href="#BitstreamVeraSans-Roman-45"/>
     <use x="131.689453125" xlink:href="#BitstreamVeraSans-Roman-4e"/>
     <use x="206.494140625" xlink:href="#BitstreamVeraSans-Roman-45"/>
     <use x="269.677734375" xlink:href="#BitstreamVeraSans-Roman-52"/>
    </g>
   </g>
   <g id="text_17">
    <!-- ZENER_F -->
    <g transform="translate(291.43875 262.18125)scale(0.12 -0.12)">
     <use xlink:href="#BitstreamVeraSans-Roman-5a"/>
     <use x="68.505859375" xlink:href="#BitstreamVeraSans-Roman-45"/>
     <use x="131.689453125" xlink:href="#BitstreamVeraSans-Roman-4e"/>
     <use x="206.494140625" xlink:href="#BitstreamVeraSans-Roman-45"/>
     <use x="269.677734375" xlink:href="#BitstreamVeraSans-Roman-52"/>
     <use x="339.16015625" xlink:href="#BitstreamVeraSans-Roman-5f"/>
     <use x="389.16015625" xlink:href="#BitstreamVeraSans-Roman-46"/>
    </g>
   </g>
   <g id="text_18">
    <!-- LED -->
    <defs>
     <path d="M 9.8125 72.90625 
L 19.671875 72.90625 
L 19.671875 8.296875 
L 55.171875 8.296875 
L 55.171875 0 
L 9.8125 0 
z
" id="BitstreamVeraSans-Roman-4c"/>
    </defs>
    <g transform="translate(47.285625 315.10875)scale(0.12 -0.12)">
     <use xlink:href="#BitstreamVeraSans-Roman-4c"/>
     <use x="55.712890625" xlink:href="#BitstreamVeraSans-Roman-45"/>
     <use x="118.896484375" xlink:href="#BitstreamVeraSans-Roman-44"/>
    </g>
   </g>
   <g id="text_19">
    <!-- LED2 -->
    <g transform="translate(173.068125 313.906808268)scale(0.12 -0.12)">
     <use xlink:href="#BitstreamVeraSans-Roman-4c"/>
     <use x="55.712890625" xlink:href="#BitstreamVeraSans-Roman-45"/>
     <use x="118.896484375" xlink:href="#BitstreamVeraSans-Roman-44"/>
     <use x="195.8984375" xlink:href="#BitstreamVeraSans-Roman-32"/>
    </g>
   </g>
   <g id="text_20">
    <!-- XTAL -->
    <g transform="translate(303.0253125 323.715)scale(0.12 -0.12)">
     <use xlink:href="#BitstreamVeraSans-Roman-58"/>
     <use x="68.490234375" xlink:href="#BitstreamVeraSans-Roman-54"/>
     <use x="129.46484375" xlink:href="#BitstreamVeraSans-Roman-41"/>
     <use x="197.873046875" xlink:href="#BitstreamVeraSans-Roman-4c"/>
    </g>
   </g>
   <g id="text_21">
    <!-- MEMRISTOR -->
    <defs>
     <path d="M 9.8125 72.90625 
L 24.515625 72.90625 
L 43.109375 23.296875 
L 61.8125 72.90625 
L 76.515625 72.90625 
L 76.515625 0 
L 66.890625 0 
L 66.890625 64.015625 
L 48.09375 14.015625 
L 38.1875 14.015625 
L 19.390625 64.015625 
L 19.390625 0 
L 9.8125 0 
z
" id="BitstreamVeraSans-Roman-4d"/>
    </defs>
    <g transform="translate(22.59 384.915)scale(0.12 -0.12)">
     <use xlink:href="#BitstreamVeraSans-Roman-4d"/>
     <use x="86.279296875" xlink:href="#BitstreamVeraSans-Roman-45"/>
     <use x="149.462890625" xlink:href="#BitstreamVeraSans-Roman-4d"/>
     <use x="235.7421875" xlink:href="#BitstreamVeraSans-Roman-52"/>
     <use x="305.224609375" xlink:href="#BitstreamVeraSans-Roman-49"/>
     <use x="334.716796875" xlink:href="#BitstreamVeraSans-Roman-53"/>
     <use x="398.193359375" xlink:href="#BitstreamVeraSans-Roman-54"/>
     <use x="459.27734375" xlink:href="#BitstreamVeraSans-Roman-4f"/>
     <use x="537.98828125" xlink:href="#BitstreamVeraSans-Roman-52"/>
    </g>
   </g>
   <g id="text_22">
    <!-- MEMRISTOR2 -->
    <g transform="translate(148.3725 384.915)scale(0.12 -0.12)">
     <use xlink:href="#BitstreamVeraSans-Roman-4d"/>
     <use x="86.279296875" xlink:href="#BitstreamVeraSans-Roman-45"/>
     <use x="149.462890625" xlink:href="#BitstreamVeraSans-Roman-4d"/>
     <use x="235.7421875" xlink:href="#BitstreamVeraSans-Roman-52"/>
     <use x="305.224609375" xlink:href="#BitstreamVeraSans-Roman-49"/>
     <use x="334.716796875" xlink:href="#BitstreamVeraSans-Roman-53"/>
     <use x="398.193359375" xlink:href="#BitstreamVeraSans-Roman-54"/>
     <use x="459.27734375" xlink:href="#BitstreamVeraSans-Roman-4f"/>
     <use x="537.98828125" xlink:href="#BitstreamVeraSans-Roman-52"/>
     <use x="607.470703125" xlink:href="#BitstreamVeraSans-Roman-32"/>
    </g>
   </g>
   <g id="text_23">
    <!-- JJ -->
    <defs>
     <path d="M 9.8125 72.90625 
L 19.671875 72.90625 
L 19.671875 5.078125 
Q 19.671875 -8.109375 14.671875 -14.0625 
Q 9.671875 -20.015625 -1.421875 -20.015625 
L -5.171875 -20.015625 
L -5.171875 -11.71875 
L -2.09375 -11.71875 
Q 4.4375 -11.71875 7.125 -8.046875 
Q 9.8125 -4.390625 9.8125 5.078125 
z
" id="BitstreamVeraSans-Roman-4a"/>
    </defs>
    <g transform="translate(314.7 384.915)scale(0.12 -0.12)">
     <use xlink:href="#BitstreamVeraSans-Roman-4a"/>
     <use x="29.4921875" xlink:href="#BitstreamVeraSans-Roman-4a"/>
    </g>
   </g>
  </g>
 </g>
 <defs>
  <clipPath id="p1f5494f978">
   <rect height="398.82" width="362.88" x="7.2" y="17.660625"/>
  </clipPath>
 </defs>
</svg>
