<?xml version="1.0" encoding="utf-8" standalone="no"?>
<!DOCTYPE svg PUBLIC "-//W3C//DTD SVG 1.1//EN"
  "http://www.w3.org/Graphics/SVG/1.1/DTD/svg11.dtd">
<!-- Created with matplotlib (http://matplotlib.org/) -->
<svg height="359.455pt" version="1.1" viewBox="0 0 562.48 359.455" width="562.48pt" xmlns="http://www.w3.org/2000/svg" xmlns:xlink="http://www.w3.org/1999/xlink">
 <defs>
  <style type="text/css">
*{stroke-linecap:butt;stroke-linejoin:round;}
  </style>
 </defs>
 <g id="figure_1">
  <g id="patch_1">
   <path d="M 0 359.455 
L 562.48 359.455 
L 562.48 0 
L 0 0 
z
" style="fill:none;"/>
  </g>
  <g id="axes_1">
   <g id="patch_2">
    <path clip-path="url(#pe01188ec28)" d="M 90.062631 96.785657 
C 89.860979 97.994347 89.756 99.326775 89.756 100.6775 
C 89.756 102.028225 89.860979 103.360653 90.062631 104.569343 
" style="fill:none;stroke:#000000;stroke-linejoin:miter;stroke-width:1.5;"/>
   </g>
   <g id="patch_3">
    <path clip-path="url(#pe01188ec28)" d="M 349.262631 96.785657 
C 349.060979 97.994347 348.956 99.326775 348.956 100.6775 
C 348.956 102.028225 349.060979 103.360653 349.262631 104.569343 
" style="fill:none;stroke:#000000;stroke-linejoin:miter;stroke-width:1.5;"/>
   </g>
   <g id="patch_4">
    <path clip-path="url(#pe01188ec28)" d="M 467.54 100.6775 
C 467.54 99.752912 467.113014 98.865247 466.353782 98.211465 
C 465.594551 97.557683 464.563715 97.19 463.49 97.19 
C 462.416285 97.19 461.385449 97.557683 460.626218 98.211465 
C 459.866986 98.865247 459.44 99.752912 459.44 100.6775 
" style="fill:none;stroke:#000000;stroke-linejoin:miter;stroke-width:1.5;"/>
   </g>
   <g id="patch_5">
    <path clip-path="url(#pe01188ec28)" d="M 475.64 100.6775 
C 475.64 99.752912 475.213014 98.865247 474.453782 98.211465 
C 473.694551 97.557683 472.663715 97.19 471.59 97.19 
C 470.516285 97.19 469.485449 97.557683 468.726218 98.211465 
C 467.966986 98.865247 467.54 99.752912 467.54 100.6775 
" style="fill:none;stroke:#000000;stroke-linejoin:miter;stroke-width:1.5;"/>
   </g>
   <g id="patch_6">
    <path clip-path="url(#pe01188ec28)" d="M 483.74 100.6775 
C 483.74 99.752912 483.313014 98.865247 482.553782 98.211465 
C 481.794551 97.557683 480.763715 97.19 479.69 97.19 
C 478.616285 97.19 477.585449 97.557683 476.826218 98.211465 
C 476.066986 98.865247 475.64 99.752912 475.64 100.6775 
" style="fill:none;stroke:#000000;stroke-linejoin:miter;stroke-width:1.5;"/>
   </g>
   <g id="patch_7">
    <path clip-path="url(#pe01188ec28)" d="M 491.84 100.6775 
C 491.84 99.752912 491.413014 98.865247 490.653782 98.211465 
C 489.894551 97.557683 488.863715 97.19 487.79 97.19 
C 486.716285 97.19 485.685449 97.557683 484.926218 98.211465 
C 484.166986 98.865247 483.74 99.752912 483.74 100.6775 
" style="fill:none;stroke:#000000;stroke-linejoin:miter;stroke-width:1.5;"/>
   </g>
   <g id="patch_8">
    <path clip-path="url(#pe01188ec28)" d="M 224.54 28.6025 
L 223.589576 34.370417 
L 221.839212 33.674759 
L 208.354709 58.833346 
L 208.325291 58.821654 
L 221.809794 33.663068 
L 220.05943 32.96741 
z
" style="stroke:#000000;stroke-linejoin:miter;stroke-width:1.5;"/>
   </g>
   <g id="patch_9">
    <path clip-path="url(#pe01188ec28)" d="M 486.17 189.60875 
L 484.642884 195.284083 
L 482.969085 194.460468 
L 478.084066 201.821921 
L 478.055934 201.808079 
L 482.940954 194.446626 
L 481.267155 193.62301 
z
" style="stroke:#000000;stroke-linejoin:miter;stroke-width:1.5;"/>
   </g>
   <g id="patch_10">
    <path clip-path="url(#pe01188ec28)" d="M 478.88 189.60875 
L 477.352884 195.284083 
L 475.679085 194.460468 
L 470.794066 201.821921 
L 470.765934 201.808079 
L 475.650954 194.446626 
L 473.977155 193.62301 
z
" style="stroke:#000000;stroke-linejoin:miter;stroke-width:1.5;"/>
   </g>
   <g id="patch_11">
    <path clip-path="url(#pe01188ec28)" d="M 77.126954 243.216974 
L 79.183409 244.89015 
L 78.154429 245.266169 
L 77.759862 244.465531 
L 77.730037 244.47643 
L 78.124604 245.277068 
L 77.095625 245.653087 
z
" style="stroke:#000000;stroke-linejoin:miter;stroke-width:1.5;"/>
   </g>
   <g id="patch_12">
    <path clip-path="url(#pe01188ec28)" d="M 71.037746 245.125446 
L 73.094201 246.798622 
L 72.065221 247.174641 
L 71.670654 246.374003 
L 71.640828 246.384902 
L 72.035396 247.18554 
L 71.006417 247.56156 
z
" style="stroke:#000000;stroke-linejoin:miter;stroke-width:1.5;"/>
   </g>
   <g id="patch_13">
    <path clip-path="url(#pe01188ec28)" d="M 216.18425 255.395065 
L 214.127796 253.721889 
L 215.156775 253.34587 
L 215.551343 254.146508 
L 215.581168 254.135609 
L 215.186601 253.334971 
L 216.21558 252.958952 
z
" style="stroke:#000000;stroke-linejoin:miter;stroke-width:1.5;"/>
   </g>
   <g id="patch_14">
    <path clip-path="url(#pe01188ec28)" d="M 210.095042 257.303537 
L 208.038588 255.630362 
L 209.067567 255.254342 
L 209.462134 256.05498 
L 209.49196 256.044081 
L 209.097392 255.243443 
L 210.126372 254.867424 
z
" style="stroke:#000000;stroke-linejoin:miter;stroke-width:1.5;"/>
   </g>
   <g id="line2d_1">
    <path clip-path="url(#pe01188ec28)" d="M 38.24 44.8775 
L 70.64 44.8775 
L 73.34 37.9025 
L 78.74 51.8525 
L 84.14 37.9025 
L 89.54 51.8525 
L 94.94 37.9025 
L 100.34 51.8525 
L 103.04 44.8775 
L 135.44 44.8775 
" style="fill:none;stroke:#000000;stroke-linecap:round;stroke-width:1.5;"/>
   </g>
   <g id="line2d_2">
    <path clip-path="url(#pe01188ec28)" d="M 167.84 44.8775 
L 200.24 44.8775 
L 202.94 37.9025 
L 208.34 51.8525 
L 213.74 37.9025 
L 219.14 51.8525 
L 224.54 37.9025 
L 229.94 51.8525 
L 232.64 44.8775 
L 265.04 44.8775 
" style="fill:none;stroke:#000000;stroke-linecap:round;stroke-width:1.5;"/>
   </g>
   <g id="line2d_3">
    <path clip-path="url(#pe01188ec28)" d="M 208.34 58.8275 
L 224.54 28.6025 
" style="fill:none;stroke:#000000;stroke-linecap:round;stroke-width:1.5;"/>
   </g>
   <g id="line2d_4">
    <path clip-path="url(#pe01188ec28)" d="M 297.44 44.8775 
L 329.84 44.8775 
L 329.84 37.9025 
L 362.24 37.9025 
L 362.24 51.8525 
L 329.84 51.8525 
L 329.84 44.8775 
M 362.24 44.8775 
L 394.64 44.8775 
" style="fill:none;stroke:#000000;stroke-linecap:round;stroke-width:1.5;"/>
   </g>
   <g id="line2d_5">
    <path clip-path="url(#pe01188ec28)" d="M 427.04 44.8775 
L 472.724 44.8775 
M 472.724 37.9025 
L 472.724 51.8525 
M 478.556 37.9025 
L 478.556 51.8525 
M 478.556 44.8775 
L 524.24 44.8775 
" style="fill:none;stroke:#000000;stroke-linecap:round;stroke-width:1.5;"/>
   </g>
   <g id="line2d_6">
    <path clip-path="url(#pe01188ec28)" d="M 38.24 100.6775 
L 83.924 100.6775 
M 83.924 93.7025 
L 83.924 107.6525 
M 89.756 100.6775 
L 135.44 100.6775 
" style="fill:none;stroke:#000000;stroke-linecap:round;stroke-width:1.5;"/>
   </g>
   <g id="line2d_7">
    <path clip-path="url(#pe01188ec28)" d="M 167.84 100.6775 
L 213.524 100.6775 
M 213.524 93.7025 
L 213.524 107.6525 
M 219.356 93.7025 
L 219.356 107.6525 
M 219.356 100.6775 
L 265.04 100.6775 
" style="fill:none;stroke:#000000;stroke-linecap:round;stroke-width:1.5;"/>
   </g>
   <g id="line2d_8">
    <path clip-path="url(#pe01188ec28)" d="M 297.44 100.6775 
L 343.124 100.6775 
M 343.124 93.7025 
L 343.124 107.6525 
M 348.956 100.6775 
L 394.64 100.6775 
" style="fill:none;stroke:#000000;stroke-linecap:round;stroke-width:1.5;"/>
   </g>
   <g id="line2d_9">
    <path clip-path="url(#pe01188ec28)" d="M 427.04 100.6775 
L 459.44 100.6775 
M 491.84 100.6775 
L 524.24 100.6775 
" style="fill:none;stroke:#000000;stroke-linecap:round;stroke-width:1.5;"/>
   </g>
   <g id="line2d_10">
    <path clip-path="url(#pe01188ec28)" d="M 38.24 156.4775 
L 70.64 156.4775 
L 70.760663 154.180255 
L 71.127584 151.862292 
L 71.732601 149.718014 
L 72.547584 147.927259 
L 73.526792 146.640215 
L 74.059791 146.221242 
L 74.610712 145.964824 
L 75.170786 145.876365 
L 75.731048 145.957729 
L 76.282531 146.207203 
L 76.81645 146.619527 
L 77.324395 147.186011 
L 78.231611 148.730696 
L 78.950702 150.71171 
L 79.443972 152.962906 
L 79.69266 155.295481 
L 79.698521 157.513805 
L 79.483675 159.431831 
L 79.088751 160.888696 
L 78.569483 161.762216 
L 78.283635 161.955218 
L 77.992031 161.979131 
L 77.703658 161.83345 
L 77.427437 161.521247 
L 76.945663 160.426966 
L 76.609727 158.788065 
L 76.470413 156.741995 
L 76.562017 154.460358 
L 76.899467 152.13451 
L 77.477073 149.959517 
L 78.269004 148.117792 
L 79.231451 146.763799 
L 79.758892 146.307073 
L 80.306308 146.011093 
L 80.865002 145.882097 
L 81.426039 145.922804 
L 81.980434 146.132356 
L 82.519344 146.506337 
L 83.034251 147.036862 
L 83.96068 148.519754 
L 84.704636 150.456666 
L 85.226334 152.68515 
L 85.504632 155.018308 
L 85.538801 157.260462 
L 85.348585 159.223564 
L 84.97255 160.742974 
L 84.464843 161.691259 
L 84.181699 161.924293 
L 83.890656 161.98889 
L 83.600692 161.883687 
L 83.320758 161.610903 
L 82.825554 160.589001 
L 82.469189 159.008889 
L 82.304161 157.003088 
L 82.366922 154.739822 
L 82.674819 152.408907 
L 83.224641 150.205834 
L 83.992886 148.315371 
L 84.937734 146.896068 
L 85.459142 146.402143 
L 86.002552 146.06696 
L 86.559352 145.897583 
L 87.120648 145.897583 
L 87.677448 146.06696 
L 88.220858 146.402143 
L 88.742266 146.896068 
L 89.233522 147.538323 
L 90.096321 149.210832 
L 90.759502 151.279401 
L 91.190058 153.570542 
L 91.37449 155.8921 
L 91.31994 158.049369 
L 91.053595 159.861423 
L 90.620404 161.176288 
L 90.079308 161.883687 
L 89.789344 161.98889 
L 89.498301 161.924293 
L 89.215157 161.691259 
L 88.70745 160.742974 
L 88.331415 159.223564 
L 88.141199 157.260462 
L 88.175368 155.018308 
L 88.453666 152.68515 
L 88.975364 150.456666 
L 89.71932 148.519754 
L 90.645749 147.036862 
L 91.160656 146.506337 
L 91.699566 146.132356 
L 92.253961 145.922804 
L 92.814998 145.882097 
L 93.373692 146.011093 
L 93.921108 146.307073 
L 94.448549 146.763799 
L 94.947739 147.371643 
L 95.831399 148.986521 
L 96.52059 151.016272 
L 96.980119 153.290662 
L 97.19406 155.618943 
L 97.167079 157.805844 
L 96.924052 159.667955 
L 96.50797 161.049101 
L 95.976342 161.83345 
L 95.687969 161.979131 
L 95.396365 161.955218 
L 95.110517 161.762216 
L 94.839292 161.404194 
L 94.374456 160.22659 
L 94.063452 158.521171 
L 93.954975 156.430967 
L 94.080734 154.131281 
L 94.452792 151.814983 
L 95.062558 149.676339 
L 95.881501 147.894713 
L 96.86355 146.619527 
L 97.397469 146.207203 
L 97.948952 145.957729 
L 98.509214 145.876365 
L 99.069288 145.964824 
L 99.620209 146.221242 
L 100.153208 146.640215 
L 100.659889 147.212911 
L 101.563669 148.768202 
L 102.27836 150.756675 
L 102.766633 153.01156 
L 103.01015 155.343743 
L 103.04 156.4775 
L 135.44 156.4775 
L 135.44 156.4775 
" style="fill:none;stroke:#000000;stroke-linecap:round;stroke-width:1.5;"/>
   </g>
   <g id="line2d_11">
    <path clip-path="url(#pe01188ec28)" d="M 167.84 156.4775 
L 210.77 156.4775 
M 222.11 149.5025 
L 222.11 163.4525 
M 222.11 156.4775 
L 265.04 156.4775 
" style="fill:none;stroke:#000000;stroke-linecap:round;stroke-width:1.5;"/>
   </g>
   <g id="line2d_12">
    <path clip-path="url(#pe01188ec28)" d="M 297.44 156.4775 
L 340.37 156.4775 
M 351.71 149.5025 
L 351.71 163.4525 
M 351.71 156.4775 
L 394.64 156.4775 
" style="fill:none;stroke:#000000;stroke-linecap:round;stroke-width:1.5;"/>
   </g>
   <g id="line2d_13">
    <path clip-path="url(#pe01188ec28)" d="M 427.04 156.4775 
L 469.97 156.4775 
M 481.31 149.5025 
L 481.31 163.4525 
M 481.31 156.4775 
L 524.24 156.4775 
" style="fill:none;stroke:#000000;stroke-linecap:round;stroke-width:1.5;"/>
   </g>
   <g id="line2d_14">
    <path clip-path="url(#pe01188ec28)" d="M 481.31 149.5025 
L 478.07 149.5025 
L 478.07 152.2925 
" style="fill:none;stroke:#000000;stroke-linecap:round;stroke-width:1.5;"/>
   </g>
   <g id="line2d_15">
    <path clip-path="url(#pe01188ec28)" d="M 481.31 163.4525 
L 484.55 163.4525 
L 484.55 160.6625 
" style="fill:none;stroke:#000000;stroke-linecap:round;stroke-width:1.5;"/>
   </g>
   <g id="line2d_16">
    <path clip-path="url(#pe01188ec28)" d="M 38.24 212.2775 
L 81.17 212.2775 
M 92.51 205.3025 
L 92.51 219.2525 
M 92.51 212.2775 
L 135.44 212.2775 
" style="fill:none;stroke:#000000;stroke-linecap:round;stroke-width:1.5;"/>
   </g>
   <g id="line2d_17">
    <path clip-path="url(#pe01188ec28)" d="M 92.51 205.3025 
L 89.27 205.3025 
L 89.27 208.0925 
" style="fill:none;stroke:#000000;stroke-linecap:round;stroke-width:1.5;"/>
   </g>
   <g id="line2d_18">
    <path clip-path="url(#pe01188ec28)" d="M 92.51 219.2525 
L 95.75 219.2525 
L 95.75 216.4625 
" style="fill:none;stroke:#000000;stroke-linecap:round;stroke-width:1.5;"/>
   </g>
   <g id="line2d_19">
    <path clip-path="url(#pe01188ec28)" d="M 167.84 212.2775 
L 210.77 212.2775 
M 222.11 205.3025 
L 222.11 219.2525 
M 222.11 212.2775 
L 265.04 212.2775 
" style="fill:none;stroke:#000000;stroke-linecap:round;stroke-width:1.5;"/>
   </g>
   <g id="line2d_20">
    <path clip-path="url(#pe01188ec28)" d="M 222.11 205.3025 
L 225.35 202.5125 
" style="fill:none;stroke:#000000;stroke-linecap:round;stroke-width:1.5;"/>
   </g>
   <g id="line2d_21">
    <path clip-path="url(#pe01188ec28)" d="M 222.11 219.2525 
L 218.87 222.0425 
" style="fill:none;stroke:#000000;stroke-linecap:round;stroke-width:1.5;"/>
   </g>
   <g id="line2d_22">
    <path clip-path="url(#pe01188ec28)" d="M 297.44 212.2775 
L 340.37 212.2775 
M 351.71 205.3025 
L 351.71 219.2525 
M 351.71 212.2775 
L 394.64 212.2775 
" style="fill:none;stroke:#000000;stroke-linecap:round;stroke-width:1.5;"/>
   </g>
   <g id="line2d_23">
    <path clip-path="url(#pe01188ec28)" d="M 351.71 205.3025 
L 354.95 202.5125 
" style="fill:none;stroke:#000000;stroke-linecap:round;stroke-width:1.5;"/>
   </g>
   <g id="line2d_24">
    <path clip-path="url(#pe01188ec28)" d="M 351.71 219.2525 
L 348.47 222.0425 
" style="fill:none;stroke:#000000;stroke-linecap:round;stroke-width:1.5;"/>
   </g>
   <g id="line2d_25">
    <path clip-path="url(#pe01188ec28)" d="M 427.04 212.2775 
L 469.97 212.2775 
M 481.31 205.3025 
L 481.31 219.2525 
M 481.31 212.2775 
L 524.24 212.2775 
" style="fill:none;stroke:#000000;stroke-linecap:round;stroke-width:1.5;"/>
   </g>
   <g id="line2d_26">
    <path clip-path="url(#pe01188ec28)" d="M 478.07 201.815 
L 486.17 189.60875 
" style="fill:none;stroke:#000000;stroke-linecap:round;stroke-width:1.5;"/>
   </g>
   <g id="line2d_27">
    <path clip-path="url(#pe01188ec28)" d="M 38.24 268.0775 
L 81.17 268.0775 
M 92.51 261.1025 
L 92.51 275.0525 
M 92.51 268.0775 
L 135.44 268.0775 
" style="fill:none;stroke:#000000;stroke-linecap:round;stroke-width:1.5;"/>
   </g>
   <g id="line2d_28">
    <path clip-path="url(#pe01188ec28)" d="M 77.126954 243.216974 
L 77.744949 244.47098 
L 78.309821 245.599303 
L 78.823829 246.607289 
L 79.289235 247.500288 
L 79.708299 248.283647 
L 80.083281 248.962715 
L 80.416443 249.54284 
L 80.710045 250.02937 
L 80.966347 250.427654 
L 81.18761 250.74304 
L 81.376095 250.980876 
L 81.534062 251.14651 
L 81.663772 251.245291 
L 81.767485 251.282567 
L 81.847463 251.263686 
L 81.905964 251.193997 
L 81.945251 251.078847 
L 81.967583 250.923585 
L 81.975222 250.73356 
L 81.970427 250.514119 
L 81.95546 250.270611 
L 81.932581 250.008384 
L 81.90405 249.732787 
L 81.872128 249.449167 
L 81.839076 249.162872 
L 81.807155 248.879252 
L 81.778624 248.603655 
L 81.755745 248.341428 
L 81.740778 248.09792 
L 81.735983 247.878479 
L 81.743622 247.688454 
L 81.765954 247.533192 
L 81.805241 247.418042 
L 81.863742 247.348353 
L 81.943719 247.329472 
L 82.047432 247.366748 
L 82.177142 247.465529 
L 82.335109 247.631163 
L 82.523594 247.868999 
L 82.744857 248.184385 
L 83.00116 248.582669 
L 83.294762 249.069199 
L 83.627923 249.649324 
L 84.002906 250.328392 
L 84.42197 251.111751 
L 84.887376 252.00475 
L 85.401384 253.012736 
L 85.966255 254.141058 
L 86.58425 255.395065 
" style="fill:none;stroke:#000000;stroke-linecap:round;stroke-width:1.5;"/>
   </g>
   <g id="line2d_29">
    <path clip-path="url(#pe01188ec28)" d="M 71.037746 245.125446 
L 71.655741 246.379453 
L 72.220612 247.507775 
L 72.734621 248.515761 
L 73.200026 249.40876 
L 73.61909 250.192119 
L 73.994073 250.871187 
L 74.327235 251.451312 
L 74.620837 251.937842 
L 74.877139 252.336126 
L 75.098402 252.651512 
L 75.286887 252.889348 
L 75.444854 253.054982 
L 75.574564 253.153763 
L 75.678277 253.191039 
L 75.758254 253.172158 
L 75.816756 253.102469 
L 75.856043 252.987319 
L 75.878375 252.832058 
L 75.886013 252.642032 
L 75.881219 252.422592 
L 75.866252 252.179084 
L 75.843372 251.916857 
L 75.814842 251.641259 
L 75.78292 251.357639 
L 75.749868 251.071345 
L 75.717947 250.787725 
L 75.689416 250.512127 
L 75.666537 250.2499 
L 75.651569 250.006392 
L 75.646775 249.786951 
L 75.654413 249.596926 
L 75.676746 249.441664 
L 75.716032 249.326515 
L 75.774534 249.256825 
L 75.854511 249.237944 
L 75.958224 249.27522 
L 76.087934 249.374001 
L 76.245901 249.539636 
L 76.434386 249.777472 
L 76.655649 250.092857 
L 76.911952 250.491141 
L 77.205553 250.977672 
L 77.538715 251.557797 
L 77.913698 252.236865 
L 78.332762 253.020224 
L 78.798168 253.913222 
L 79.312176 254.921209 
L 79.877047 256.049531 
L 80.495042 257.303537 
" style="fill:none;stroke:#000000;stroke-linecap:round;stroke-width:1.5;"/>
   </g>
   <g id="line2d_30">
    <path clip-path="url(#pe01188ec28)" d="M 167.84 268.0775 
L 210.77 268.0775 
M 222.11 261.1025 
L 222.11 275.0525 
M 222.11 268.0775 
L 265.04 268.0775 
" style="fill:none;stroke:#000000;stroke-linecap:round;stroke-width:1.5;"/>
   </g>
   <g id="line2d_31">
    <path clip-path="url(#pe01188ec28)" d="M 206.726954 243.216974 
L 207.344949 244.47098 
L 207.909821 245.599303 
L 208.423829 246.607289 
L 208.889235 247.500288 
L 209.308299 248.283647 
L 209.683281 248.962715 
L 210.016443 249.54284 
L 210.310045 250.02937 
L 210.566347 250.427654 
L 210.78761 250.74304 
L 210.976095 250.980876 
L 211.134062 251.14651 
L 211.263772 251.245291 
L 211.367485 251.282567 
L 211.447463 251.263686 
L 211.505964 251.193997 
L 211.545251 251.078847 
L 211.567583 250.923585 
L 211.575222 250.73356 
L 211.570427 250.514119 
L 211.55546 250.270611 
L 211.532581 250.008384 
L 211.50405 249.732787 
L 211.472128 249.449167 
L 211.439076 249.162872 
L 211.407155 248.879252 
L 211.378624 248.603655 
L 211.355745 248.341428 
L 211.340778 248.09792 
L 211.335983 247.878479 
L 211.343622 247.688454 
L 211.365954 247.533192 
L 211.405241 247.418042 
L 211.463742 247.348353 
L 211.543719 247.329472 
L 211.647432 247.366748 
L 211.777142 247.465529 
L 211.935109 247.631163 
L 212.123594 247.868999 
L 212.344857 248.184385 
L 212.60116 248.582669 
L 212.894762 249.069199 
L 213.227923 249.649324 
L 213.602906 250.328392 
L 214.02197 251.111751 
L 214.487376 252.00475 
L 215.001384 253.012736 
L 215.566255 254.141058 
L 216.18425 255.395065 
" style="fill:none;stroke:#000000;stroke-linecap:round;stroke-width:1.5;"/>
   </g>
   <g id="line2d_32">
    <path clip-path="url(#pe01188ec28)" d="M 200.637746 245.125446 
L 201.255741 246.379453 
L 201.820612 247.507775 
L 202.334621 248.515761 
L 202.800026 249.40876 
L 203.21909 250.192119 
L 203.594073 250.871187 
L 203.927235 251.451312 
L 204.220837 251.937842 
L 204.477139 252.336126 
L 204.698402 252.651512 
L 204.886887 252.889348 
L 205.044854 253.054982 
L 205.174564 253.153763 
L 205.278277 253.191039 
L 205.358254 253.172158 
L 205.416756 253.102469 
L 205.456043 252.987319 
L 205.478375 252.832058 
L 205.486013 252.642032 
L 205.481219 252.422592 
L 205.466252 252.179084 
L 205.443372 251.916857 
L 205.414842 251.641259 
L 205.38292 251.357639 
L 205.349868 251.071345 
L 205.317947 250.787725 
L 205.289416 250.512127 
L 205.266537 250.2499 
L 205.251569 250.006392 
L 205.246775 249.786951 
L 205.254413 249.596926 
L 205.276746 249.441664 
L 205.316032 249.326515 
L 205.374534 249.256825 
L 205.454511 249.237944 
L 205.558224 249.27522 
L 205.687934 249.374001 
L 205.845901 249.539636 
L 206.034386 249.777472 
L 206.255649 250.092857 
L 206.511952 250.491141 
L 206.805553 250.977672 
L 207.138715 251.557797 
L 207.513698 252.236865 
L 207.932762 253.020224 
L 208.398168 253.913222 
L 208.912176 254.921209 
L 209.477047 256.049531 
L 210.095042 257.303537 
" style="fill:none;stroke:#000000;stroke-linecap:round;stroke-width:1.5;"/>
   </g>
   <g id="line2d_33">
    <path clip-path="url(#pe01188ec28)" d="M 297.44 268.0775 
L 339.56 268.0775 
M 339.56 261.1025 
L 339.56 275.0525 
M 342.8 261.1025 
L 342.8 275.0525 
L 349.28 275.0525 
L 349.28 261.1025 
L 342.8 261.1025 
M 352.52 261.1025 
L 352.52 275.0525 
M 352.52 268.0775 
L 394.64 268.0775 
" style="fill:none;stroke:#000000;stroke-linecap:round;stroke-width:1.5;"/>
   </g>
   <g id="line2d_34">
    <path clip-path="url(#pe01188ec28)" d="M 427.04 268.0775 
L 459.44 268.0775 
L 465.92 268.0775 
L 465.92 272.2625 
L 472.4 272.2625 
L 472.4 263.8925 
L 478.88 263.8925 
L 478.88 272.2625 
L 485.36 272.2625 
L 485.36 268.0775 
L 491.84 268.0775 
L 524.24 268.0775 
" style="fill:none;stroke:#000000;stroke-linecap:round;stroke-width:1.5;"/>
   </g>
   <g id="line2d_35">
    <path clip-path="url(#pe01188ec28)" d="M 459.44 261.1025 
L 491.84 261.1025 
L 491.84 275.0525 
L 459.44 275.0525 
L 459.44 261.1025 
" style="fill:none;stroke:#000000;stroke-linecap:round;stroke-width:1.5;"/>
   </g>
   <g id="line2d_36">
    <path clip-path="url(#pe01188ec28)" d="M 38.24 323.8775 
L 64.16 323.8775 
L 64.16 316.9025 
L 70.64 316.9025 
L 70.64 330.8525 
L 77.12 330.8525 
L 77.12 316.9025 
L 83.6 316.9025 
L 83.6 330.8525 
L 90.08 330.8525 
L 90.08 316.9025 
L 96.56 316.9025 
L 96.56 330.8525 
L 103.04 330.8525 
L 103.04 323.8775 
L 109.52 323.8775 
L 135.44 323.8775 
" style="fill:none;stroke:#000000;stroke-linecap:round;stroke-width:1.5;"/>
   </g>
   <g id="line2d_37">
    <path clip-path="url(#pe01188ec28)" d="M 167.84 323.8775 
L 216.44 323.8775 
M 208.34 316.9025 
L 224.54 330.8525 
M 224.54 316.9025 
L 208.34 330.8525 
M 216.44 323.8775 
L 265.04 323.8775 
" style="fill:none;stroke:#000000;stroke-linecap:round;stroke-width:1.5;"/>
   </g>
   <g id="patch_15">
    <path clip-path="url(#pe01188ec28)" d="M 210.77 149.5025 
L 222.11 156.4775 
L 210.77 163.4525 
z
" style="fill:none;stroke:#000000;stroke-linejoin:miter;stroke-width:1.5;"/>
   </g>
   <g id="patch_16">
    <path clip-path="url(#pe01188ec28)" d="M 340.37 149.5025 
L 351.71 156.4775 
L 340.37 163.4525 
z
" style="stroke:#000000;stroke-linejoin:miter;stroke-width:1.5;"/>
   </g>
   <g id="patch_17">
    <path clip-path="url(#pe01188ec28)" d="M 340.37 149.5025 
L 351.71 156.4775 
L 340.37 163.4525 
z
" style="fill:none;stroke:#000000;stroke-linejoin:miter;stroke-width:1.5;"/>
   </g>
   <g id="patch_18">
    <path clip-path="url(#pe01188ec28)" d="M 469.97 149.5025 
L 481.31 156.4775 
L 469.97 163.4525 
z
" style="fill:none;stroke:#000000;stroke-linejoin:miter;stroke-width:1.5;"/>
   </g>
   <g id="patch_19">
    <path clip-path="url(#pe01188ec28)" d="M 81.17 205.3025 
L 92.51 212.2775 
L 81.17 219.2525 
z
" style="stroke:#000000;stroke-linejoin:miter;stroke-width:1.5;"/>
   </g>
   <g id="patch_20">
    <path clip-path="url(#pe01188ec28)" d="M 81.17 205.3025 
L 92.51 212.2775 
L 81.17 219.2525 
z
" style="fill:none;stroke:#000000;stroke-linejoin:miter;stroke-width:1.5;"/>
   </g>
   <g id="patch_21">
    <path clip-path="url(#pe01188ec28)" d="M 210.77 205.3025 
L 222.11 212.2775 
L 210.77 219.2525 
z
" style="fill:none;stroke:#000000;stroke-linejoin:miter;stroke-width:1.5;"/>
   </g>
   <g id="patch_22">
    <path clip-path="url(#pe01188ec28)" d="M 340.37 205.3025 
L 351.71 212.2775 
L 340.37 219.2525 
z
" style="stroke:#000000;stroke-linejoin:miter;stroke-width:1.5;"/>
   </g>
   <g id="patch_23">
    <path clip-path="url(#pe01188ec28)" d="M 340.37 205.3025 
L 351.71 212.2775 
L 340.37 219.2525 
z
" style="fill:none;stroke:#000000;stroke-linejoin:miter;stroke-width:1.5;"/>
   </g>
   <g id="patch_24">
    <path clip-path="url(#pe01188ec28)" d="M 469.97 205.3025 
L 481.31 212.2775 
L 469.97 219.2525 
z
" style="fill:none;stroke:#000000;stroke-linejoin:miter;stroke-width:1.5;"/>
   </g>
   <g id="patch_25">
    <path clip-path="url(#pe01188ec28)" d="M 81.17 261.1025 
L 92.51 268.0775 
L 81.17 275.0525 
z
" style="fill:none;stroke:#000000;stroke-linejoin:miter;stroke-width:1.5;"/>
   </g>
   <g id="patch_26">
    <path clip-path="url(#pe01188ec28)" d="M 210.77 261.1025 
L 222.11 268.0775 
L 210.77 275.0525 
z
" style="fill:none;stroke:#000000;stroke-linejoin:miter;stroke-width:1.5;"/>
   </g>
   <g id="patch_27">
    <path clip-path="url(#pe01188ec28)" d="M 459.44 261.1025 
L 459.44 275.0525 
L 462.68 275.0525 
L 462.68 261.1025 
z
" style="stroke:#000000;stroke-linejoin:miter;stroke-width:1.5;"/>
   </g>
   <g id="text_1">
    <!-- RES -->
    <defs>
     <path d="M 44.390625 34.1875 
Q 47.5625 33.109375 50.5625 29.59375 
Q 53.5625 26.078125 56.59375 19.921875 
L 66.609375 0 
L 56 0 
L 46.6875 18.703125 
Q 43.0625 26.03125 39.671875 28.421875 
Q 36.28125 30.8125 30.421875 30.8125 
L 19.671875 30.8125 
L 19.671875 0 
L 9.8125 0 
L 9.8125 72.90625 
L 32.078125 72.90625 
Q 44.578125 72.90625 50.734375 67.671875 
Q 56.890625 62.453125 56.890625 51.90625 
Q 56.890625 45.015625 53.6875 40.46875 
Q 50.484375 35.9375 44.390625 34.1875 
z
M 19.671875 64.796875 
L 19.671875 38.921875 
L 32.078125 38.921875 
Q 39.203125 38.921875 42.84375 42.21875 
Q 46.484375 45.515625 46.484375 51.90625 
Q 46.484375 58.296875 42.84375 61.546875 
Q 39.203125 64.796875 32.078125 64.796875 
z
" id="DejaVuSans-52"/>
     <path d="M 9.8125 72.90625 
L 55.90625 72.90625 
L 55.90625 64.59375 
L 19.671875 64.59375 
L 19.671875 43.015625 
L 54.390625 43.015625 
L 54.390625 34.71875 
L 19.671875 34.71875 
L 19.671875 8.296875 
L 56.78125 8.296875 
L 56.78125 0 
L 9.8125 0 
z
" id="DejaVuSans-45"/>
     <path d="M 53.515625 70.515625 
L 53.515625 60.890625 
Q 47.90625 63.578125 42.921875 64.890625 
Q 37.9375 66.21875 33.296875 66.21875 
Q 25.25 66.21875 20.875 63.09375 
Q 16.5 59.96875 16.5 54.203125 
Q 16.5 49.359375 19.40625 46.890625 
Q 22.3125 44.4375 30.421875 42.921875 
L 36.375 41.703125 
Q 47.40625 39.59375 52.65625 34.296875 
Q 57.90625 29 57.90625 20.125 
Q 57.90625 9.515625 50.796875 4.046875 
Q 43.703125 -1.421875 29.984375 -1.421875 
Q 24.8125 -1.421875 18.96875 -0.25 
Q 13.140625 0.921875 6.890625 3.21875 
L 6.890625 13.375 
Q 12.890625 10.015625 18.65625 8.296875 
Q 24.421875 6.59375 29.984375 6.59375 
Q 38.421875 6.59375 43.015625 9.90625 
Q 47.609375 13.234375 47.609375 19.390625 
Q 47.609375 24.75 44.3125 27.78125 
Q 41.015625 30.8125 33.5 32.328125 
L 27.484375 33.5 
Q 16.453125 35.6875 11.515625 40.375 
Q 6.59375 45.0625 6.59375 53.421875 
Q 6.59375 63.09375 13.40625 68.65625 
Q 20.21875 74.21875 32.171875 74.21875 
Q 37.3125 74.21875 42.625 73.28125 
Q 47.953125 72.359375 53.515625 70.515625 
z
" id="DejaVuSans-53"/>
    </defs>
    <g transform="translate(75.070625 25.641875)scale(0.12 -0.12)">
     <use xlink:href="#DejaVuSans-52"/>
     <use x="69.482422" xlink:href="#DejaVuSans-45"/>
     <use x="132.666016" xlink:href="#DejaVuSans-53"/>
    </g>
   </g>
   <g id="text_2">
    <!-- RES_VAR -->
    <defs>
     <path d="M 50.984375 -16.609375 
L 50.984375 -23.578125 
L -0.984375 -23.578125 
L -0.984375 -16.609375 
z
" id="DejaVuSans-5f"/>
     <path d="M 28.609375 0 
L 0.78125 72.90625 
L 11.078125 72.90625 
L 34.1875 11.53125 
L 57.328125 72.90625 
L 67.578125 72.90625 
L 39.796875 0 
z
" id="DejaVuSans-56"/>
     <path d="M 34.1875 63.1875 
L 20.796875 26.90625 
L 47.609375 26.90625 
z
M 28.609375 72.90625 
L 39.796875 72.90625 
L 67.578125 0 
L 57.328125 0 
L 50.6875 18.703125 
L 17.828125 18.703125 
L 11.1875 0 
L 0.78125 0 
z
" id="DejaVuSans-41"/>
    </defs>
    <g transform="translate(189.298437 24.145625)scale(0.12 -0.12)">
     <use xlink:href="#DejaVuSans-52"/>
     <use x="69.482422" xlink:href="#DejaVuSans-45"/>
     <use x="132.666016" xlink:href="#DejaVuSans-53"/>
     <use x="196.142578" xlink:href="#DejaVuSans-5f"/>
     <use x="246.142578" xlink:href="#DejaVuSans-56"/>
     <use x="314.457031" xlink:href="#DejaVuSans-41"/>
     <use x="382.865234" xlink:href="#DejaVuSans-52"/>
    </g>
   </g>
   <g id="text_3">
    <!-- RBOX -->
    <defs>
     <path d="M 19.671875 34.8125 
L 19.671875 8.109375 
L 35.5 8.109375 
Q 43.453125 8.109375 47.28125 11.40625 
Q 51.125 14.703125 51.125 21.484375 
Q 51.125 28.328125 47.28125 31.5625 
Q 43.453125 34.8125 35.5 34.8125 
z
M 19.671875 64.796875 
L 19.671875 42.828125 
L 34.28125 42.828125 
Q 41.5 42.828125 45.03125 45.53125 
Q 48.578125 48.25 48.578125 53.8125 
Q 48.578125 59.328125 45.03125 62.0625 
Q 41.5 64.796875 34.28125 64.796875 
z
M 9.8125 72.90625 
L 35.015625 72.90625 
Q 46.296875 72.90625 52.390625 68.21875 
Q 58.5 63.53125 58.5 54.890625 
Q 58.5 48.1875 55.375 44.234375 
Q 52.25 40.28125 46.1875 39.3125 
Q 53.46875 37.75 57.5 32.78125 
Q 61.53125 27.828125 61.53125 20.40625 
Q 61.53125 10.640625 54.890625 5.3125 
Q 48.25 0 35.984375 0 
L 9.8125 0 
z
" id="DejaVuSans-42"/>
     <path d="M 39.40625 66.21875 
Q 28.65625 66.21875 22.328125 58.203125 
Q 16.015625 50.203125 16.015625 36.375 
Q 16.015625 22.609375 22.328125 14.59375 
Q 28.65625 6.59375 39.40625 6.59375 
Q 50.140625 6.59375 56.421875 14.59375 
Q 62.703125 22.609375 62.703125 36.375 
Q 62.703125 50.203125 56.421875 58.203125 
Q 50.140625 66.21875 39.40625 66.21875 
z
M 39.40625 74.21875 
Q 54.734375 74.21875 63.90625 63.9375 
Q 73.09375 53.65625 73.09375 36.375 
Q 73.09375 19.140625 63.90625 8.859375 
Q 54.734375 -1.421875 39.40625 -1.421875 
Q 24.03125 -1.421875 14.8125 8.828125 
Q 5.609375 19.09375 5.609375 36.375 
Q 5.609375 53.65625 14.8125 63.9375 
Q 24.03125 74.21875 39.40625 74.21875 
z
" id="DejaVuSans-4f"/>
     <path d="M 6.296875 72.90625 
L 16.890625 72.90625 
L 35.015625 45.796875 
L 53.21875 72.90625 
L 63.8125 72.90625 
L 40.375 37.890625 
L 65.375 0 
L 54.78125 0 
L 34.28125 31 
L 13.625 0 
L 2.984375 0 
L 29 38.921875 
z
" id="DejaVuSans-58"/>
    </defs>
    <g transform="translate(328.927812 25.641875)scale(0.12 -0.12)">
     <use xlink:href="#DejaVuSans-52"/>
     <use x="69.482422" xlink:href="#DejaVuSans-42"/>
     <use x="138.070312" xlink:href="#DejaVuSans-4f"/>
     <use x="216.6875" xlink:href="#DejaVuSans-58"/>
    </g>
   </g>
   <g id="text_4">
    <!-- CAP -->
    <defs>
     <path d="M 64.40625 67.28125 
L 64.40625 56.890625 
Q 59.421875 61.53125 53.78125 63.8125 
Q 48.140625 66.109375 41.796875 66.109375 
Q 29.296875 66.109375 22.65625 58.46875 
Q 16.015625 50.828125 16.015625 36.375 
Q 16.015625 21.96875 22.65625 14.328125 
Q 29.296875 6.6875 41.796875 6.6875 
Q 48.140625 6.6875 53.78125 8.984375 
Q 59.421875 11.28125 64.40625 15.921875 
L 64.40625 5.609375 
Q 59.234375 2.09375 53.4375 0.328125 
Q 47.65625 -1.421875 41.21875 -1.421875 
Q 24.65625 -1.421875 15.125 8.703125 
Q 5.609375 18.84375 5.609375 36.375 
Q 5.609375 53.953125 15.125 64.078125 
Q 24.65625 74.21875 41.21875 74.21875 
Q 47.75 74.21875 53.53125 72.484375 
Q 59.328125 70.75 64.40625 67.28125 
z
" id="DejaVuSans-43"/>
     <path d="M 19.671875 64.796875 
L 19.671875 37.40625 
L 32.078125 37.40625 
Q 38.96875 37.40625 42.71875 40.96875 
Q 46.484375 44.53125 46.484375 51.125 
Q 46.484375 57.671875 42.71875 61.234375 
Q 38.96875 64.796875 32.078125 64.796875 
z
M 9.8125 72.90625 
L 32.078125 72.90625 
Q 44.34375 72.90625 50.609375 67.359375 
Q 56.890625 61.8125 56.890625 51.125 
Q 56.890625 40.328125 50.609375 34.8125 
Q 44.34375 29.296875 32.078125 29.296875 
L 19.671875 29.296875 
L 19.671875 0 
L 9.8125 0 
z
" id="DejaVuSans-50"/>
    </defs>
    <g transform="translate(463.728125 25.641875)scale(0.12 -0.12)">
     <use xlink:href="#DejaVuSans-43"/>
     <use x="69.824219" xlink:href="#DejaVuSans-41"/>
     <use x="138.232422" xlink:href="#DejaVuSans-50"/>
    </g>
   </g>
   <g id="text_5">
    <!-- CAP2 -->
    <defs>
     <path d="M 19.1875 8.296875 
L 53.609375 8.296875 
L 53.609375 0 
L 7.328125 0 
L 7.328125 8.296875 
Q 12.9375 14.109375 22.625 23.890625 
Q 32.328125 33.6875 34.8125 36.53125 
Q 39.546875 41.84375 41.421875 45.53125 
Q 43.3125 49.21875 43.3125 52.78125 
Q 43.3125 58.59375 39.234375 62.25 
Q 35.15625 65.921875 28.609375 65.921875 
Q 23.96875 65.921875 18.8125 64.3125 
Q 13.671875 62.703125 7.8125 59.421875 
L 7.8125 69.390625 
Q 13.765625 71.78125 18.9375 73 
Q 24.125 74.21875 28.421875 74.21875 
Q 39.75 74.21875 46.484375 68.546875 
Q 53.21875 62.890625 53.21875 53.421875 
Q 53.21875 48.921875 51.53125 44.890625 
Q 49.859375 40.875 45.40625 35.40625 
Q 44.1875 33.984375 37.640625 27.21875 
Q 31.109375 20.453125 19.1875 8.296875 
z
" id="DejaVuSans-32"/>
    </defs>
    <g transform="translate(71.110625 81.441875)scale(0.12 -0.12)">
     <use xlink:href="#DejaVuSans-43"/>
     <use x="69.824219" xlink:href="#DejaVuSans-41"/>
     <use x="138.232422" xlink:href="#DejaVuSans-50"/>
     <use x="198.535156" xlink:href="#DejaVuSans-32"/>
    </g>
   </g>
   <g id="text_6">
    <!-- CAP_P -->
    <g transform="translate(197.910312 81.108125)scale(0.12 -0.12)">
     <use xlink:href="#DejaVuSans-43"/>
     <use x="69.824219" xlink:href="#DejaVuSans-41"/>
     <use x="138.232422" xlink:href="#DejaVuSans-50"/>
     <use x="198.535156" xlink:href="#DejaVuSans-5f"/>
     <use x="248.535156" xlink:href="#DejaVuSans-50"/>
    </g>
   </g>
   <g id="text_7">
    <!-- + -->
    <defs>
     <path d="M 46 62.703125 
L 46 35.5 
L 73.1875 35.5 
L 73.1875 27.203125 
L 46 27.203125 
L 46 0 
L 37.796875 0 
L 37.796875 27.203125 
L 10.59375 27.203125 
L 10.59375 35.5 
L 37.796875 35.5 
L 37.796875 62.703125 
z
" id="DejaVuSans-2b"/>
    </defs>
    <g transform="translate(201.497787 98.96675)scale(0.12 -0.12)">
     <use xlink:href="#DejaVuSans-2b"/>
    </g>
   </g>
   <g id="text_8">
    <!-- CAP2_P -->
    <g transform="translate(323.692812 81.108125)scale(0.12 -0.12)">
     <use xlink:href="#DejaVuSans-43"/>
     <use x="69.824219" xlink:href="#DejaVuSans-41"/>
     <use x="138.232422" xlink:href="#DejaVuSans-50"/>
     <use x="198.535156" xlink:href="#DejaVuSans-32"/>
     <use x="262.158203" xlink:href="#DejaVuSans-5f"/>
     <use x="312.158203" xlink:href="#DejaVuSans-50"/>
    </g>
   </g>
   <g id="text_9">
    <!-- + -->
    <g transform="translate(331.097787 98.96675)scale(0.12 -0.12)">
     <use xlink:href="#DejaVuSans-2b"/>
    </g>
   </g>
   <g id="text_10">
    <!-- INDUCTOR -->
    <defs>
     <path d="M 9.8125 72.90625 
L 19.671875 72.90625 
L 19.671875 0 
L 9.8125 0 
z
" id="DejaVuSans-49"/>
     <path d="M 9.8125 72.90625 
L 23.09375 72.90625 
L 55.421875 11.921875 
L 55.421875 72.90625 
L 64.984375 72.90625 
L 64.984375 0 
L 51.703125 0 
L 19.390625 60.984375 
L 19.390625 0 
L 9.8125 0 
z
" id="DejaVuSans-4e"/>
     <path d="M 19.671875 64.796875 
L 19.671875 8.109375 
L 31.59375 8.109375 
Q 46.6875 8.109375 53.6875 14.9375 
Q 60.6875 21.78125 60.6875 36.53125 
Q 60.6875 51.171875 53.6875 57.984375 
Q 46.6875 64.796875 31.59375 64.796875 
z
M 9.8125 72.90625 
L 30.078125 72.90625 
Q 51.265625 72.90625 61.171875 64.09375 
Q 71.09375 55.28125 71.09375 36.53125 
Q 71.09375 17.671875 61.125 8.828125 
Q 51.171875 0 30.078125 0 
L 9.8125 0 
z
" id="DejaVuSans-44"/>
     <path d="M 8.6875 72.90625 
L 18.609375 72.90625 
L 18.609375 28.609375 
Q 18.609375 16.890625 22.84375 11.734375 
Q 27.09375 6.59375 36.625 6.59375 
Q 46.09375 6.59375 50.34375 11.734375 
Q 54.59375 16.890625 54.59375 28.609375 
L 54.59375 72.90625 
L 64.5 72.90625 
L 64.5 27.390625 
Q 64.5 13.140625 57.4375 5.859375 
Q 50.390625 -1.421875 36.625 -1.421875 
Q 22.796875 -1.421875 15.734375 5.859375 
Q 8.6875 13.140625 8.6875 27.390625 
z
" id="DejaVuSans-55"/>
     <path d="M -0.296875 72.90625 
L 61.375 72.90625 
L 61.375 64.59375 
L 35.5 64.59375 
L 35.5 0 
L 25.59375 0 
L 25.59375 64.59375 
L -0.296875 64.59375 
z
" id="DejaVuSans-54"/>
    </defs>
    <g transform="translate(443.623437 81.441875)scale(0.12 -0.12)">
     <use xlink:href="#DejaVuSans-49"/>
     <use x="29.492188" xlink:href="#DejaVuSans-4e"/>
     <use x="104.296875" xlink:href="#DejaVuSans-44"/>
     <use x="181.298828" xlink:href="#DejaVuSans-55"/>
     <use x="254.492188" xlink:href="#DejaVuSans-43"/>
     <use x="324.316406" xlink:href="#DejaVuSans-54"/>
     <use x="385.400391" xlink:href="#DejaVuSans-4f"/>
     <use x="464.111328" xlink:href="#DejaVuSans-52"/>
    </g>
   </g>
   <g id="text_11">
    <!-- INDUCTOR2 -->
    <g transform="translate(51.005937 134.697002)scale(0.12 -0.12)">
     <use xlink:href="#DejaVuSans-49"/>
     <use x="29.492188" xlink:href="#DejaVuSans-4e"/>
     <use x="104.296875" xlink:href="#DejaVuSans-44"/>
     <use x="181.298828" xlink:href="#DejaVuSans-55"/>
     <use x="254.492188" xlink:href="#DejaVuSans-43"/>
     <use x="324.316406" xlink:href="#DejaVuSans-54"/>
     <use x="385.400391" xlink:href="#DejaVuSans-4f"/>
     <use x="464.111328" xlink:href="#DejaVuSans-52"/>
     <use x="533.59375" xlink:href="#DejaVuSans-32"/>
    </g>
   </g>
   <g id="text_12">
    <!-- DIODE -->
    <g transform="translate(196.915625 137.241875)scale(0.12 -0.12)">
     <use xlink:href="#DejaVuSans-44"/>
     <use x="77.001953" xlink:href="#DejaVuSans-49"/>
     <use x="106.494141" xlink:href="#DejaVuSans-4f"/>
     <use x="185.205078" xlink:href="#DejaVuSans-44"/>
     <use x="262.207031" xlink:href="#DejaVuSans-45"/>
    </g>
   </g>
   <g id="text_13">
    <!-- DIODE_F -->
    <defs>
     <path d="M 9.8125 72.90625 
L 51.703125 72.90625 
L 51.703125 64.59375 
L 19.671875 64.59375 
L 19.671875 43.109375 
L 48.578125 43.109375 
L 48.578125 34.8125 
L 19.671875 34.8125 
L 19.671875 0 
L 9.8125 0 
z
" id="DejaVuSans-46"/>
    </defs>
    <g transform="translate(320.064687 136.908125)scale(0.12 -0.12)">
     <use xlink:href="#DejaVuSans-44"/>
     <use x="77.001953" xlink:href="#DejaVuSans-49"/>
     <use x="106.494141" xlink:href="#DejaVuSans-4f"/>
     <use x="185.205078" xlink:href="#DejaVuSans-44"/>
     <use x="262.207031" xlink:href="#DejaVuSans-45"/>
     <use x="325.390625" xlink:href="#DejaVuSans-5f"/>
     <use x="375.390625" xlink:href="#DejaVuSans-46"/>
    </g>
   </g>
   <g id="text_14">
    <!-- SCHOTTKY -->
    <defs>
     <path d="M 9.8125 72.90625 
L 19.671875 72.90625 
L 19.671875 43.015625 
L 55.515625 43.015625 
L 55.515625 72.90625 
L 65.375 72.90625 
L 65.375 0 
L 55.515625 0 
L 55.515625 34.71875 
L 19.671875 34.71875 
L 19.671875 0 
L 9.8125 0 
z
" id="DejaVuSans-48"/>
     <path d="M 9.8125 72.90625 
L 19.671875 72.90625 
L 19.671875 42.09375 
L 52.390625 72.90625 
L 65.09375 72.90625 
L 28.90625 38.921875 
L 67.671875 0 
L 54.6875 0 
L 19.671875 35.109375 
L 19.671875 0 
L 9.8125 0 
z
" id="DejaVuSans-4b"/>
     <path d="M -0.203125 72.90625 
L 10.40625 72.90625 
L 30.609375 42.921875 
L 50.6875 72.90625 
L 61.28125 72.90625 
L 35.5 34.71875 
L 35.5 0 
L 25.59375 0 
L 25.59375 34.71875 
z
" id="DejaVuSans-59"/>
    </defs>
    <g transform="translate(443.480937 137.241875)scale(0.12 -0.12)">
     <use xlink:href="#DejaVuSans-53"/>
     <use x="63.476562" xlink:href="#DejaVuSans-43"/>
     <use x="133.300781" xlink:href="#DejaVuSans-48"/>
     <use x="208.496094" xlink:href="#DejaVuSans-4f"/>
     <use x="287.207031" xlink:href="#DejaVuSans-54"/>
     <use x="348.275391" xlink:href="#DejaVuSans-54"/>
     <use x="409.359375" xlink:href="#DejaVuSans-4b"/>
     <use x="474.888672" xlink:href="#DejaVuSans-59"/>
    </g>
   </g>
   <g id="text_15">
    <!-- SCHOTTKY_F -->
    <g transform="translate(48.23 192.708125)scale(0.12 -0.12)">
     <use xlink:href="#DejaVuSans-53"/>
     <use x="63.476562" xlink:href="#DejaVuSans-43"/>
     <use x="133.300781" xlink:href="#DejaVuSans-48"/>
     <use x="208.496094" xlink:href="#DejaVuSans-4f"/>
     <use x="287.207031" xlink:href="#DejaVuSans-54"/>
     <use x="348.275391" xlink:href="#DejaVuSans-54"/>
     <use x="409.359375" xlink:href="#DejaVuSans-4b"/>
     <use x="474.888672" xlink:href="#DejaVuSans-59"/>
     <use x="535.972656" xlink:href="#DejaVuSans-5f"/>
     <use x="585.972656" xlink:href="#DejaVuSans-46"/>
    </g>
   </g>
   <g id="text_16">
    <!-- ZENER -->
    <defs>
     <path d="M 5.609375 72.90625 
L 62.890625 72.90625 
L 62.890625 65.375 
L 16.796875 8.296875 
L 64.015625 8.296875 
L 64.015625 0 
L 4.5 0 
L 4.5 7.515625 
L 50.59375 64.59375 
L 5.609375 64.59375 
z
" id="DejaVuSans-5a"/>
    </defs>
    <g transform="translate(196.089687 193.041875)scale(0.12 -0.12)">
     <use xlink:href="#DejaVuSans-5a"/>
     <use x="68.505859" xlink:href="#DejaVuSans-45"/>
     <use x="131.689453" xlink:href="#DejaVuSans-4e"/>
     <use x="206.494141" xlink:href="#DejaVuSans-45"/>
     <use x="269.677734" xlink:href="#DejaVuSans-52"/>
    </g>
   </g>
   <g id="text_17">
    <!-- ZENER_F -->
    <g transform="translate(319.23875 192.708125)scale(0.12 -0.12)">
     <use xlink:href="#DejaVuSans-5a"/>
     <use x="68.505859" xlink:href="#DejaVuSans-45"/>
     <use x="131.689453" xlink:href="#DejaVuSans-4e"/>
     <use x="206.494141" xlink:href="#DejaVuSans-45"/>
     <use x="269.677734" xlink:href="#DejaVuSans-52"/>
     <use x="339.160156" xlink:href="#DejaVuSans-5f"/>
     <use x="389.160156" xlink:href="#DejaVuSans-46"/>
    </g>
   </g>
   <g id="text_18">
    <!-- LED -->
    <defs>
     <path d="M 9.8125 72.90625 
L 19.671875 72.90625 
L 19.671875 8.296875 
L 55.171875 8.296875 
L 55.171875 0 
L 9.8125 0 
z
" id="DejaVuSans-4c"/>
    </defs>
    <g transform="translate(463.885625 185.195)scale(0.12 -0.12)">
     <use xlink:href="#DejaVuSans-4c"/>
     <use x="55.712891" xlink:href="#DejaVuSans-45"/>
     <use x="118.896484" xlink:href="#DejaVuSans-44"/>
    </g>
   </g>
   <g id="text_19">
    <!-- LED2 -->
    <g transform="translate(71.268125 239.899112)scale(0.12 -0.12)">
     <use xlink:href="#DejaVuSans-4c"/>
     <use x="55.712891" xlink:href="#DejaVuSans-45"/>
     <use x="118.896484" xlink:href="#DejaVuSans-44"/>
     <use x="195.898438" xlink:href="#DejaVuSans-32"/>
    </g>
   </g>
   <g id="text_20">
    <!-- PHOTODIODE -->
    <g transform="translate(175.674687 239.899112)scale(0.12 -0.12)">
     <use xlink:href="#DejaVuSans-50"/>
     <use x="60.302734" xlink:href="#DejaVuSans-48"/>
     <use x="135.498047" xlink:href="#DejaVuSans-4f"/>
     <use x="214.208984" xlink:href="#DejaVuSans-54"/>
     <use x="275.292969" xlink:href="#DejaVuSans-4f"/>
     <use x="354.003906" xlink:href="#DejaVuSans-44"/>
     <use x="431.005859" xlink:href="#DejaVuSans-49"/>
     <use x="460.498047" xlink:href="#DejaVuSans-4f"/>
     <use x="539.208984" xlink:href="#DejaVuSans-44"/>
     <use x="616.210938" xlink:href="#DejaVuSans-45"/>
    </g>
   </g>
   <g id="text_21">
    <!-- XTAL -->
    <g transform="translate(330.825312 248.841875)scale(0.12 -0.12)">
     <use xlink:href="#DejaVuSans-58"/>
     <use x="68.490234" xlink:href="#DejaVuSans-54"/>
     <use x="129.464844" xlink:href="#DejaVuSans-41"/>
     <use x="197.873047" xlink:href="#DejaVuSans-4c"/>
    </g>
   </g>
   <g id="text_22">
    <!-- MEMRISTOR -->
    <defs>
     <path d="M 9.8125 72.90625 
L 24.515625 72.90625 
L 43.109375 23.296875 
L 61.8125 72.90625 
L 76.515625 72.90625 
L 76.515625 0 
L 66.890625 0 
L 66.890625 64.015625 
L 48.09375 14.015625 
L 38.1875 14.015625 
L 19.390625 64.015625 
L 19.390625 0 
L 9.8125 0 
z
" id="DejaVuSans-4d"/>
    </defs>
    <g transform="translate(439.19 248.841875)scale(0.12 -0.12)">
     <use xlink:href="#DejaVuSans-4d"/>
     <use x="86.279297" xlink:href="#DejaVuSans-45"/>
     <use x="149.462891" xlink:href="#DejaVuSans-4d"/>
     <use x="235.742188" xlink:href="#DejaVuSans-52"/>
     <use x="305.224609" xlink:href="#DejaVuSans-49"/>
     <use x="334.716797" xlink:href="#DejaVuSans-53"/>
     <use x="398.193359" xlink:href="#DejaVuSans-54"/>
     <use x="459.277344" xlink:href="#DejaVuSans-4f"/>
     <use x="537.988281" xlink:href="#DejaVuSans-52"/>
    </g>
   </g>
   <g id="text_23">
    <!-- MEMRISTOR2 -->
    <g transform="translate(46.5725 304.641875)scale(0.12 -0.12)">
     <use xlink:href="#DejaVuSans-4d"/>
     <use x="86.279297" xlink:href="#DejaVuSans-45"/>
     <use x="149.462891" xlink:href="#DejaVuSans-4d"/>
     <use x="235.742188" xlink:href="#DejaVuSans-52"/>
     <use x="305.224609" xlink:href="#DejaVuSans-49"/>
     <use x="334.716797" xlink:href="#DejaVuSans-53"/>
     <use x="398.193359" xlink:href="#DejaVuSans-54"/>
     <use x="459.277344" xlink:href="#DejaVuSans-4f"/>
     <use x="537.988281" xlink:href="#DejaVuSans-52"/>
     <use x="607.470703" xlink:href="#DejaVuSans-32"/>
    </g>
   </g>
   <g id="text_24">
    <!-- JJ -->
    <defs>
     <path d="M 9.8125 72.90625 
L 19.671875 72.90625 
L 19.671875 5.078125 
Q 19.671875 -8.109375 14.671875 -14.0625 
Q 9.671875 -20.015625 -1.421875 -20.015625 
L -5.171875 -20.015625 
L -5.171875 -11.71875 
L -2.09375 -11.71875 
Q 4.4375 -11.71875 7.125 -8.046875 
Q 9.8125 -4.390625 9.8125 5.078125 
z
" id="DejaVuSans-4a"/>
    </defs>
    <g transform="translate(212.9 304.641875)scale(0.12 -0.12)">
     <use xlink:href="#DejaVuSans-4a"/>
     <use x="29.492188" xlink:href="#DejaVuSans-4a"/>
    </g>
   </g>
  </g>
 </g>
 <defs>
  <clipPath id="pe01188ec28">
   <rect height="338.055" width="541.08" x="10.7" y="10.7"/>
  </clipPath>
 </defs>
</svg>
