<?xml version="1.0" encoding="utf-8" standalone="no"?>
<!DOCTYPE svg PUBLIC "-//W3C//DTD SVG 1.1//EN"
  "http://www.w3.org/Graphics/SVG/1.1/DTD/svg11.dtd">
<!-- Created with matplotlib (https://matplotlib.org/) -->
<svg height="528.9225pt" version="1.1" viewBox="0 0 555.48 528.9225" width="555.48pt" xmlns="http://www.w3.org/2000/svg" xmlns:xlink="http://www.w3.org/1999/xlink">
 <defs>
  <style type="text/css">
*{stroke-linecap:butt;stroke-linejoin:round;white-space:pre;}
  </style>
 </defs>
 <g id="figure_1">
  <g id="patch_1">
   <path d="M 0 528.9225 
L 555.48 528.9225 
L 555.48 0 
L 0 0 
z
" style="fill:none;"/>
  </g>
  <g id="axes_1">
   <g id="patch_2">
    <path clip-path="url(#p123d9423a8)" d="M 86.866487 104.7645 
C 86.233942 105.546552 85.711892 106.63766 85.349946 107.934137 
C 84.988001 109.230613 84.798 110.690048 84.798 112.17375 
C 84.798 113.657452 84.988001 115.116887 85.349946 116.413363 
C 85.711892 117.70984 86.233942 118.800948 86.866487 119.583 
" style="fill:none;stroke:#000000;stroke-linejoin:miter;stroke-width:2;"/>
   </g>
   <g id="patch_3">
    <path clip-path="url(#p123d9423a8)" d="M 346.066487 104.7645 
C 345.433942 105.546552 344.911892 106.63766 344.549946 107.934137 
C 344.188001 109.230613 343.998 110.690048 343.998 112.17375 
C 343.998 113.657452 344.188001 115.116887 344.549946 116.413363 
C 344.911892 117.70984 345.433942 118.800948 346.066487 119.583 
" style="fill:none;stroke:#000000;stroke-linejoin:miter;stroke-width:2;"/>
   </g>
   <g id="patch_4">
    <path clip-path="url(#p123d9423a8)" d="M 75.24 174.94875 
C 75.24 174.024162 74.813014 173.136497 74.053782 172.482715 
C 73.294551 171.828933 72.263715 171.46125 71.19 171.46125 
C 70.116285 171.46125 69.085449 171.828933 68.326218 172.482715 
C 67.566986 173.136497 67.14 174.024162 67.14 174.94875 
" style="fill:none;stroke:#000000;stroke-linejoin:miter;stroke-width:2;"/>
   </g>
   <g id="patch_5">
    <path clip-path="url(#p123d9423a8)" d="M 83.34 174.94875 
C 83.34 174.024162 82.913014 173.136497 82.153782 172.482715 
C 81.394551 171.828933 80.363715 171.46125 79.29 171.46125 
C 78.216285 171.46125 77.185449 171.828933 76.426218 172.482715 
C 75.666986 173.136497 75.24 174.024162 75.24 174.94875 
" style="fill:none;stroke:#000000;stroke-linejoin:miter;stroke-width:2;"/>
   </g>
   <g id="patch_6">
    <path clip-path="url(#p123d9423a8)" d="M 91.44 174.94875 
C 91.44 174.024162 91.013014 173.136497 90.253782 172.482715 
C 89.494551 171.828933 88.463715 171.46125 87.39 171.46125 
C 86.316285 171.46125 85.285449 171.828933 84.526218 172.482715 
C 83.766986 173.136497 83.34 174.024162 83.34 174.94875 
" style="fill:none;stroke:#000000;stroke-linejoin:miter;stroke-width:2;"/>
   </g>
   <g id="patch_7">
    <path clip-path="url(#p123d9423a8)" d="M 99.54 174.94875 
C 99.54 174.024162 99.113014 173.136497 98.353782 172.482715 
C 97.594551 171.828933 96.563715 171.46125 95.49 171.46125 
C 94.416285 171.46125 93.385449 171.828933 92.626218 172.482715 
C 91.866986 173.136497 91.44 174.024162 91.44 174.94875 
" style="fill:none;stroke:#000000;stroke-linejoin:miter;stroke-width:2;"/>
   </g>
   <g id="patch_8">
    <path clip-path="url(#p123d9423a8)" d="M 336.87 167.97375 
L 348.21 174.94875 
L 336.87 181.92375 
z
" style="fill:none;stroke:#000000;stroke-linejoin:miter;stroke-width:2;"/>
   </g>
   <g id="patch_9">
    <path clip-path="url(#p123d9423a8)" d="M 466.47 167.97375 
L 477.81 174.94875 
L 466.47 181.92375 
z
" style="stroke:#000000;stroke-linejoin:miter;stroke-width:2;"/>
   </g>
   <g id="patch_10">
    <path clip-path="url(#p123d9423a8)" d="M 77.67 230.74875 
L 89.01 237.72375 
L 77.67 244.69875 
z
" style="fill:none;stroke:#000000;stroke-linejoin:miter;stroke-width:2;"/>
   </g>
   <g id="patch_11">
    <path clip-path="url(#p123d9423a8)" d="M 207.27 230.74875 
L 218.61 237.72375 
L 207.27 244.69875 
z
" style="stroke:#000000;stroke-linejoin:miter;stroke-width:2;"/>
   </g>
   <g id="patch_12">
    <path clip-path="url(#p123d9423a8)" d="M 336.87 230.74875 
L 348.21 237.72375 
L 336.87 244.69875 
z
" style="fill:none;stroke:#000000;stroke-linejoin:miter;stroke-width:2;"/>
   </g>
   <g id="patch_13">
    <path clip-path="url(#p123d9423a8)" d="M 466.47 230.74875 
L 477.81 237.72375 
L 466.47 244.69875 
z
" style="stroke:#000000;stroke-linejoin:miter;stroke-width:2;"/>
   </g>
   <g id="patch_14">
    <path clip-path="url(#p123d9423a8)" d="M 77.67 293.52375 
L 89.01 300.49875 
L 77.67 307.47375 
z
" style="fill:none;stroke:#000000;stroke-linejoin:miter;stroke-width:2;"/>
   </g>
   <g id="patch_15">
    <path clip-path="url(#p123d9423a8)" d="M 207.27 293.52375 
L 218.61 300.49875 
L 207.27 307.47375 
z
" style="stroke:#000000;stroke-linejoin:miter;stroke-width:2;"/>
   </g>
   <g id="patch_16">
    <path clip-path="url(#p123d9423a8)" d="M 336.87 293.52375 
L 348.21 300.49875 
L 336.87 307.47375 
z
" style="fill:none;stroke:#000000;stroke-linejoin:miter;stroke-width:2;"/>
   </g>
   <g id="patch_17">
    <path clip-path="url(#p123d9423a8)" d="M 466.47 293.52375 
L 477.81 300.49875 
L 466.47 307.47375 
z
" style="fill:none;stroke:#000000;stroke-linejoin:miter;stroke-width:2;"/>
   </g>
   <g id="patch_18">
    <path clip-path="url(#p123d9423a8)" d="M 77.67 356.29875 
L 89.01 363.27375 
L 77.67 370.24875 
z
" style="fill:none;stroke:#000000;stroke-linejoin:miter;stroke-width:2;"/>
   </g>
   <g id="patch_19">
    <path clip-path="url(#p123d9423a8)" d="M 207.27 377.22375 
L 218.61 370.24875 
L 207.27 363.27375 
z
" style="fill:none;stroke:#000000;stroke-linejoin:miter;stroke-width:2;"/>
   </g>
   <g id="patch_20">
    <path clip-path="url(#p123d9423a8)" d="M 218.61 349.32375 
L 207.27 356.29875 
L 218.61 363.27375 
z
" style="fill:none;stroke:#000000;stroke-linejoin:miter;stroke-width:2;"/>
   </g>
   <g id="patch_21">
    <path clip-path="url(#p123d9423a8)" d="M 336.87 377.22375 
L 348.21 370.24875 
L 336.87 363.27375 
z
" style="stroke:#000000;stroke-linejoin:miter;stroke-width:2;"/>
   </g>
   <g id="patch_22">
    <path clip-path="url(#p123d9423a8)" d="M 348.21 349.32375 
L 336.87 356.29875 
L 348.21 363.27375 
z
" style="stroke:#000000;stroke-linejoin:miter;stroke-width:2;"/>
   </g>
   <g id="patch_23">
    <path clip-path="url(#p123d9423a8)" d="M 466.47 377.22375 
L 477.81 370.24875 
L 466.47 363.27375 
z
" style="fill:none;stroke:#000000;stroke-linejoin:miter;stroke-width:2;"/>
   </g>
   <g id="patch_24">
    <path clip-path="url(#p123d9423a8)" d="M 477.81 349.32375 
L 466.47 356.29875 
L 477.81 363.27375 
z
" style="fill:none;stroke:#000000;stroke-linejoin:miter;stroke-width:2;"/>
   </g>
   <g id="patch_25">
    <path clip-path="url(#p123d9423a8)" d="M 77.67 439.99875 
L 89.01 433.02375 
L 77.67 426.04875 
z
" style="stroke:#000000;stroke-linejoin:miter;stroke-width:2;"/>
   </g>
   <g id="patch_26">
    <path clip-path="url(#p123d9423a8)" d="M 89.01 412.09875 
L 77.67 419.07375 
L 89.01 426.04875 
z
" style="stroke:#000000;stroke-linejoin:miter;stroke-width:2;"/>
   </g>
   <g id="patch_27">
    <path clip-path="url(#p123d9423a8)" d="M 207.27 419.07375 
L 218.61 426.04875 
L 207.27 433.02375 
z
" style="fill:none;stroke:#000000;stroke-linejoin:miter;stroke-width:2;"/>
   </g>
   <g id="patch_28">
    <path clip-path="url(#p123d9423a8)" d="M 336.87 419.07375 
L 348.21 426.04875 
L 336.87 433.02375 
z
" style="stroke:#000000;stroke-linejoin:miter;stroke-width:2;"/>
   </g>
   <g id="patch_29">
    <path clip-path="url(#p123d9423a8)" d="M 453.51 430.23375 
C 454.798887 430.23375 456.035158 429.792792 456.946539 429.007992 
C 457.85792 428.223192 458.37 427.158625 458.37 426.04875 
C 458.37 424.938875 457.85792 423.874308 456.946539 423.089508 
C 456.035158 422.304708 454.798887 421.86375 453.51 421.86375 
C 452.221113 421.86375 450.984842 422.304708 450.073461 423.089508 
C 449.16208 423.874308 448.65 424.938875 448.65 426.04875 
C 448.65 427.158625 449.16208 428.223192 450.073461 429.007992 
C 450.984842 429.792792 452.221113 430.23375 453.51 430.23375 
z
" style="fill:#ffffff;stroke:#000000;stroke-linejoin:miter;stroke-width:2;"/>
   </g>
   <g id="patch_30">
    <path clip-path="url(#p123d9423a8)" d="M 490.77 430.23375 
C 492.058887 430.23375 493.295158 429.792792 494.206539 429.007992 
C 495.11792 428.223192 495.63 427.158625 495.63 426.04875 
C 495.63 424.938875 495.11792 423.874308 494.206539 423.089508 
C 493.295158 422.304708 492.058887 421.86375 490.77 421.86375 
C 489.481113 421.86375 488.244842 422.304708 487.333461 423.089508 
C 486.42208 423.874308 485.91 424.938875 485.91 426.04875 
C 485.91 427.158625 486.42208 428.223192 487.333461 429.007992 
C 488.244842 429.792792 489.481113 430.23375 490.77 430.23375 
z
" style="fill:#ffffff;stroke:#000000;stroke-linejoin:miter;stroke-width:2;"/>
   </g>
   <g id="patch_31">
    <path clip-path="url(#p123d9423a8)" d="M 196.74 481.84875 
L 196.74 495.79875 
L 199.98 495.79875 
L 199.98 481.84875 
z
" style="stroke:#000000;stroke-linejoin:miter;stroke-width:2;"/>
   </g>
   <g id="patch_32">
    <path clip-path="url(#p123d9423a8)" d="M 221.04 33.12375 
L 220.089576 38.891667 
L 218.339212 38.196009 
L 204.854709 63.354596 
L 204.825291 63.342904 
L 218.309794 38.184318 
L 216.55943 37.48866 
z
" style="stroke:#000000;stroke-linejoin:miter;stroke-width:2;"/>
   </g>
   <g id="patch_33">
    <path clip-path="url(#p123d9423a8)" d="M 485.424 102.87375 
L 481.230188 107.445064 
L 480.124667 106.085098 
L 458.43329 119.160178 
L 458.41471 119.137322 
L 480.106087 106.062242 
L 479.000566 104.702276 
z
" style="stroke:#000000;stroke-linejoin:miter;stroke-width:2;"/>
   </g>
   <g id="patch_34">
    <path clip-path="url(#p123d9423a8)" d="M 353.07 277.83 
L 351.542884 283.505333 
L 349.869085 282.681718 
L 344.984066 290.043171 
L 344.955934 290.029329 
L 349.840954 282.667876 
L 348.167155 281.84426 
z
" style="stroke:#000000;stroke-linejoin:miter;stroke-width:2;"/>
   </g>
   <g id="patch_35">
    <path clip-path="url(#p123d9423a8)" d="M 345.78 277.83 
L 344.252884 283.505333 
L 342.579085 282.681718 
L 337.694066 290.043171 
L 337.665934 290.029329 
L 342.550954 282.667876 
L 340.877155 281.84426 
z
" style="stroke:#000000;stroke-linejoin:miter;stroke-width:2;"/>
   </g>
   <g id="patch_36">
    <path clip-path="url(#p123d9423a8)" d="M 462.426954 275.638224 
L 464.483409 277.3114 
L 463.454429 277.687419 
L 463.059862 276.886781 
L 463.030037 276.89768 
L 463.424604 277.698318 
L 462.395625 278.074337 
z
" style="stroke:#000000;stroke-linejoin:miter;stroke-width:2;"/>
   </g>
   <g id="patch_37">
    <path clip-path="url(#p123d9423a8)" d="M 456.337746 277.546696 
L 458.394201 279.219872 
L 457.365221 279.595891 
L 456.970654 278.795253 
L 456.940828 278.806152 
L 457.335396 279.60679 
L 456.306417 279.98281 
z
" style="stroke:#000000;stroke-linejoin:miter;stroke-width:2;"/>
   </g>
   <g id="patch_38">
    <path clip-path="url(#p123d9423a8)" d="M 83.08425 350.591315 
L 81.027796 348.918139 
L 82.056775 348.54212 
L 82.451343 349.342758 
L 82.481168 349.331859 
L 82.086601 348.531221 
L 83.11558 348.155202 
z
" style="stroke:#000000;stroke-linejoin:miter;stroke-width:2;"/>
   </g>
   <g id="patch_39">
    <path clip-path="url(#p123d9423a8)" d="M 76.995042 352.499787 
L 74.938588 350.826612 
L 75.967567 350.450592 
L 76.362134 351.25123 
L 76.39196 351.240331 
L 75.997392 350.439693 
L 77.026372 350.063674 
z
" style="stroke:#000000;stroke-linejoin:miter;stroke-width:2;"/>
   </g>
   <g id="line2d_1">
    <path clip-path="url(#p123d9423a8)" d="M 34.74 49.39875 
L 67.14 49.39875 
L 69.84 42.42375 
L 75.24 56.37375 
L 80.64 42.42375 
L 86.04 56.37375 
L 91.44 42.42375 
L 96.84 56.37375 
L 99.54 49.39875 
L 131.94 49.39875 
" style="fill:none;stroke:#000000;stroke-linecap:round;stroke-width:2;"/>
   </g>
   <g id="line2d_2">
    <path clip-path="url(#p123d9423a8)" d="M 204.84 63.34875 
L 221.04 33.12375 
" style="fill:none;stroke:#000000;stroke-linecap:round;stroke-width:2;"/>
   </g>
   <g id="line2d_3">
    <path clip-path="url(#p123d9423a8)" d="M 164.34 49.39875 
L 196.74 49.39875 
L 199.44 42.42375 
L 204.84 56.37375 
L 210.24 42.42375 
L 215.64 56.37375 
L 221.04 42.42375 
L 226.44 56.37375 
L 229.14 49.39875 
L 261.54 49.39875 
" style="fill:none;stroke:#000000;stroke-linecap:round;stroke-width:2;"/>
   </g>
   <g id="line2d_4">
    <path clip-path="url(#p123d9423a8)" d="M 293.94 49.39875 
L 326.34 49.39875 
L 326.34 42.42375 
L 358.74 42.42375 
L 358.74 56.37375 
L 326.34 56.37375 
L 326.34 49.39875 
M 358.74 49.39875 
L 391.14 49.39875 
" style="fill:none;stroke:#000000;stroke-linecap:round;stroke-width:2;"/>
   </g>
   <g id="line2d_5">
    <path clip-path="url(#p123d9423a8)" d="M 423.54 49.39875 
L 469.224 49.39875 
M 469.224 42.42375 
L 469.224 56.37375 
M 475.056 42.42375 
L 475.056 56.37375 
M 475.056 49.39875 
L 520.74 49.39875 
" style="fill:none;stroke:#000000;stroke-linecap:round;stroke-width:2;"/>
   </g>
   <g id="line2d_6">
    <path clip-path="url(#p123d9423a8)" d="M 34.74 112.17375 
L 80.424 112.17375 
M 80.424 105.19875 
L 80.424 119.14875 
M 86.256 112.17375 
L 131.94 112.17375 
" style="fill:none;stroke:#000000;stroke-linecap:round;stroke-width:2;"/>
   </g>
   <g id="line2d_7">
    <path clip-path="url(#p123d9423a8)" d="M 164.34 112.17375 
L 210.024 112.17375 
M 210.024 105.19875 
L 210.024 119.14875 
M 215.856 105.19875 
L 215.856 119.14875 
M 215.856 112.17375 
L 261.54 112.17375 
" style="fill:none;stroke:#000000;stroke-linecap:round;stroke-width:2;"/>
   </g>
   <g id="line2d_8">
    <path clip-path="url(#p123d9423a8)" d="M 293.94 112.17375 
L 339.624 112.17375 
M 339.624 105.19875 
L 339.624 119.14875 
M 345.456 112.17375 
L 391.14 112.17375 
" style="fill:none;stroke:#000000;stroke-linecap:round;stroke-width:2;"/>
   </g>
   <g id="line2d_9">
    <path clip-path="url(#p123d9423a8)" d="M 423.54 112.17375 
L 469.224 112.17375 
M 469.224 105.19875 
L 469.224 119.14875 
M 475.056 105.19875 
L 475.056 119.14875 
M 475.056 112.17375 
L 520.74 112.17375 
" style="fill:none;stroke:#000000;stroke-linecap:round;stroke-width:2;"/>
   </g>
   <g id="line2d_10">
    <path clip-path="url(#p123d9423a8)" d="M 34.74 174.94875 
L 67.14 174.94875 
M 99.54 174.94875 
L 131.94 174.94875 
" style="fill:none;stroke:#000000;stroke-linecap:round;stroke-width:2;"/>
   </g>
   <g id="line2d_11">
    <path clip-path="url(#p123d9423a8)" d="M 164.34 174.94875 
L 196.74 174.94875 
L 196.860663 172.651505 
L 197.227584 170.333542 
L 197.832601 168.189264 
L 198.647584 166.398509 
L 199.626792 165.111465 
L 200.159791 164.692492 
L 200.710712 164.436074 
L 201.270786 164.347615 
L 201.831048 164.428979 
L 202.382531 164.678453 
L 202.91645 165.090777 
L 203.424395 165.657261 
L 204.331611 167.201946 
L 205.050702 169.18296 
L 205.543972 171.434156 
L 205.79266 173.766731 
L 205.798521 175.985055 
L 205.583675 177.903081 
L 205.188751 179.359946 
L 204.669483 180.233466 
L 204.383635 180.426468 
L 204.092031 180.450381 
L 203.803658 180.3047 
L 203.527437 179.992497 
L 203.045663 178.898216 
L 202.709727 177.259315 
L 202.570413 175.213245 
L 202.662017 172.931608 
L 202.999467 170.60576 
L 203.577073 168.430767 
L 204.369004 166.589042 
L 205.331451 165.235049 
L 205.858892 164.778323 
L 206.406308 164.482343 
L 206.965002 164.353347 
L 207.526039 164.394054 
L 208.080434 164.603606 
L 208.619344 164.977587 
L 209.134251 165.508112 
L 210.06068 166.991004 
L 210.804636 168.927916 
L 211.326334 171.1564 
L 211.604632 173.489558 
L 211.638801 175.731712 
L 211.448585 177.694814 
L 211.07255 179.214224 
L 210.564843 180.162509 
L 210.281699 180.395543 
L 209.990656 180.46014 
L 209.700692 180.354937 
L 209.420758 180.082153 
L 208.925554 179.060251 
L 208.569189 177.480139 
L 208.404161 175.474338 
L 208.466922 173.211072 
L 208.774819 170.880157 
L 209.324641 168.677084 
L 210.092886 166.786621 
L 211.037734 165.367318 
L 211.559142 164.873393 
L 212.102552 164.53821 
L 212.659352 164.368833 
L 213.220648 164.368833 
L 213.777448 164.53821 
L 214.320858 164.873393 
L 214.842266 165.367318 
L 215.333522 166.009573 
L 216.196321 167.682082 
L 216.859502 169.750651 
L 217.290058 172.041792 
L 217.47449 174.36335 
L 217.41994 176.520619 
L 217.153595 178.332673 
L 216.720404 179.647538 
L 216.179308 180.354937 
L 215.889344 180.46014 
L 215.598301 180.395543 
L 215.315157 180.162509 
L 214.80745 179.214224 
L 214.431415 177.694814 
L 214.241199 175.731712 
L 214.275368 173.489558 
L 214.553666 171.1564 
L 215.075364 168.927916 
L 215.81932 166.991004 
L 216.745749 165.508112 
L 217.260656 164.977587 
L 217.799566 164.603606 
L 218.353961 164.394054 
L 218.914998 164.353347 
L 219.473692 164.482343 
L 220.021108 164.778323 
L 220.548549 165.235049 
L 221.047739 165.842893 
L 221.931399 167.457771 
L 222.62059 169.487522 
L 223.080119 171.761912 
L 223.29406 174.090193 
L 223.267079 176.277094 
L 223.024052 178.139205 
L 222.60797 179.520351 
L 222.076342 180.3047 
L 221.787969 180.450381 
L 221.496365 180.426468 
L 221.210517 180.233466 
L 220.939292 179.875444 
L 220.474456 178.69784 
L 220.163452 176.992421 
L 220.054975 174.902217 
L 220.180734 172.602531 
L 220.552792 170.286233 
L 221.162558 168.147589 
L 221.981501 166.365963 
L 222.96355 165.090777 
L 223.497469 164.678453 
L 224.048952 164.428979 
L 224.609214 164.347615 
L 225.169288 164.436074 
L 225.720209 164.692492 
L 226.253208 165.111465 
L 226.759889 165.684161 
L 227.663669 167.239452 
L 228.37836 169.227925 
L 228.866633 171.48281 
L 229.11015 173.814993 
L 229.14 174.94875 
L 261.54 174.94875 
L 261.54 174.94875 
" style="fill:none;stroke:#000000;stroke-linecap:round;stroke-width:2;"/>
   </g>
   <g id="line2d_12">
    <path clip-path="url(#p123d9423a8)" d="M 293.94 174.94875 
L 336.87 174.94875 
M 348.21 167.97375 
L 348.21 181.92375 
M 348.21 174.94875 
L 391.14 174.94875 
" style="fill:none;stroke:#000000;stroke-linecap:round;stroke-width:2;"/>
   </g>
   <g id="line2d_13">
    <path clip-path="url(#p123d9423a8)" d="M 423.54 174.94875 
L 466.47 174.94875 
M 477.81 167.97375 
L 477.81 181.92375 
M 477.81 174.94875 
L 520.74 174.94875 
" style="fill:none;stroke:#000000;stroke-linecap:round;stroke-width:2;"/>
   </g>
   <g id="line2d_14">
    <path clip-path="url(#p123d9423a8)" d="M 89.01 230.74875 
L 85.77 230.74875 
L 85.77 233.53875 
" style="fill:none;stroke:#000000;stroke-linecap:round;stroke-width:2;"/>
   </g>
   <g id="line2d_15">
    <path clip-path="url(#p123d9423a8)" d="M 89.01 244.69875 
L 92.25 244.69875 
L 92.25 241.90875 
" style="fill:none;stroke:#000000;stroke-linecap:round;stroke-width:2;"/>
   </g>
   <g id="line2d_16">
    <path clip-path="url(#p123d9423a8)" d="M 34.74 237.72375 
L 77.67 237.72375 
M 89.01 230.74875 
L 89.01 244.69875 
M 89.01 237.72375 
L 131.94 237.72375 
" style="fill:none;stroke:#000000;stroke-linecap:round;stroke-width:2;"/>
   </g>
   <g id="line2d_17">
    <path clip-path="url(#p123d9423a8)" d="M 218.61 230.74875 
L 215.37 230.74875 
L 215.37 233.53875 
" style="fill:none;stroke:#000000;stroke-linecap:round;stroke-width:2;"/>
   </g>
   <g id="line2d_18">
    <path clip-path="url(#p123d9423a8)" d="M 218.61 244.69875 
L 221.85 244.69875 
L 221.85 241.90875 
" style="fill:none;stroke:#000000;stroke-linecap:round;stroke-width:2;"/>
   </g>
   <g id="line2d_19">
    <path clip-path="url(#p123d9423a8)" d="M 164.34 237.72375 
L 207.27 237.72375 
M 218.61 230.74875 
L 218.61 244.69875 
M 218.61 237.72375 
L 261.54 237.72375 
" style="fill:none;stroke:#000000;stroke-linecap:round;stroke-width:2;"/>
   </g>
   <g id="line2d_20">
    <path clip-path="url(#p123d9423a8)" d="M 348.21 230.74875 
L 344.97 230.74875 
" style="fill:none;stroke:#000000;stroke-linecap:round;stroke-width:2;"/>
   </g>
   <g id="line2d_21">
    <path clip-path="url(#p123d9423a8)" d="M 348.21 244.69875 
L 344.97 244.69875 
" style="fill:none;stroke:#000000;stroke-linecap:round;stroke-width:2;"/>
   </g>
   <g id="line2d_22">
    <path clip-path="url(#p123d9423a8)" d="M 293.94 237.72375 
L 336.87 237.72375 
M 348.21 230.74875 
L 348.21 244.69875 
M 348.21 237.72375 
L 391.14 237.72375 
" style="fill:none;stroke:#000000;stroke-linecap:round;stroke-width:2;"/>
   </g>
   <g id="line2d_23">
    <path clip-path="url(#p123d9423a8)" d="M 477.81 230.74875 
L 474.57 230.74875 
" style="fill:none;stroke:#000000;stroke-linecap:round;stroke-width:2;"/>
   </g>
   <g id="line2d_24">
    <path clip-path="url(#p123d9423a8)" d="M 477.81 244.69875 
L 474.57 244.69875 
" style="fill:none;stroke:#000000;stroke-linecap:round;stroke-width:2;"/>
   </g>
   <g id="line2d_25">
    <path clip-path="url(#p123d9423a8)" d="M 423.54 237.72375 
L 466.47 237.72375 
M 477.81 230.74875 
L 477.81 244.69875 
M 477.81 237.72375 
L 520.74 237.72375 
" style="fill:none;stroke:#000000;stroke-linecap:round;stroke-width:2;"/>
   </g>
   <g id="line2d_26">
    <path clip-path="url(#p123d9423a8)" d="M 89.01 293.52375 
L 92.25 290.73375 
" style="fill:none;stroke:#000000;stroke-linecap:round;stroke-width:2;"/>
   </g>
   <g id="line2d_27">
    <path clip-path="url(#p123d9423a8)" d="M 89.01 307.47375 
L 85.77 310.26375 
" style="fill:none;stroke:#000000;stroke-linecap:round;stroke-width:2;"/>
   </g>
   <g id="line2d_28">
    <path clip-path="url(#p123d9423a8)" d="M 34.74 300.49875 
L 77.67 300.49875 
M 89.01 293.52375 
L 89.01 307.47375 
M 89.01 300.49875 
L 131.94 300.49875 
" style="fill:none;stroke:#000000;stroke-linecap:round;stroke-width:2;"/>
   </g>
   <g id="line2d_29">
    <path clip-path="url(#p123d9423a8)" d="M 218.61 293.52375 
L 221.85 290.73375 
" style="fill:none;stroke:#000000;stroke-linecap:round;stroke-width:2;"/>
   </g>
   <g id="line2d_30">
    <path clip-path="url(#p123d9423a8)" d="M 218.61 307.47375 
L 215.37 310.26375 
" style="fill:none;stroke:#000000;stroke-linecap:round;stroke-width:2;"/>
   </g>
   <g id="line2d_31">
    <path clip-path="url(#p123d9423a8)" d="M 164.34 300.49875 
L 207.27 300.49875 
M 218.61 293.52375 
L 218.61 307.47375 
M 218.61 300.49875 
L 261.54 300.49875 
" style="fill:none;stroke:#000000;stroke-linecap:round;stroke-width:2;"/>
   </g>
   <g id="line2d_32">
    <path clip-path="url(#p123d9423a8)" d="M 344.97 290.03625 
L 353.07 277.83 
" style="fill:none;stroke:#000000;stroke-linecap:round;stroke-width:2;"/>
   </g>
   <g id="line2d_33">
    <path clip-path="url(#p123d9423a8)" d="M 293.94 300.49875 
L 336.87 300.49875 
M 348.21 293.52375 
L 348.21 307.47375 
M 348.21 300.49875 
L 391.14 300.49875 
" style="fill:none;stroke:#000000;stroke-linecap:round;stroke-width:2;"/>
   </g>
   <g id="line2d_34">
    <path clip-path="url(#p123d9423a8)" d="M 462.426954 275.638224 
L 463.044949 276.89223 
L 463.609821 278.020553 
L 464.123829 279.028539 
L 464.589235 279.921538 
L 465.008299 280.704897 
L 465.383281 281.383965 
L 465.716443 281.96409 
L 466.010045 282.45062 
L 466.266347 282.848904 
L 466.48761 283.16429 
L 466.676095 283.402126 
L 466.834062 283.56776 
L 466.963772 283.666541 
L 467.067485 283.703817 
L 467.147463 283.684936 
L 467.205964 283.615247 
L 467.245251 283.500097 
L 467.267583 283.344835 
L 467.275222 283.15481 
L 467.270427 282.935369 
L 467.25546 282.691861 
L 467.232581 282.429634 
L 467.20405 282.154037 
L 467.172128 281.870417 
L 467.139076 281.584122 
L 467.107155 281.300502 
L 467.078624 281.024905 
L 467.055745 280.762678 
L 467.040778 280.51917 
L 467.035983 280.299729 
L 467.043622 280.109704 
L 467.065954 279.954442 
L 467.105241 279.839292 
L 467.163742 279.769603 
L 467.243719 279.750722 
L 467.347432 279.787998 
L 467.477142 279.886779 
L 467.635109 280.052413 
L 467.823594 280.290249 
L 468.044857 280.605635 
L 468.30116 281.003919 
L 468.594762 281.490449 
L 468.927923 282.070574 
L 469.302906 282.749642 
L 469.72197 283.533001 
L 470.187376 284.426 
L 470.701384 285.433986 
L 471.266255 286.562308 
L 471.88425 287.816315 
" style="fill:none;stroke:#000000;stroke-linecap:round;stroke-width:2;"/>
   </g>
   <g id="line2d_35">
    <path clip-path="url(#p123d9423a8)" d="M 456.337746 277.546696 
L 456.955741 278.800703 
L 457.520612 279.929025 
L 458.034621 280.937011 
L 458.500026 281.83001 
L 458.91909 282.613369 
L 459.294073 283.292437 
L 459.627235 283.872562 
L 459.920837 284.359092 
L 460.177139 284.757376 
L 460.398402 285.072762 
L 460.586887 285.310598 
L 460.744854 285.476232 
L 460.874564 285.575013 
L 460.978277 285.612289 
L 461.058254 285.593408 
L 461.116756 285.523719 
L 461.156043 285.408569 
L 461.178375 285.253308 
L 461.186013 285.063282 
L 461.181219 284.843842 
L 461.166252 284.600334 
L 461.143372 284.338107 
L 461.114842 284.062509 
L 461.08292 283.778889 
L 461.049868 283.492595 
L 461.017947 283.208975 
L 460.989416 282.933377 
L 460.966537 282.67115 
L 460.951569 282.427642 
L 460.946775 282.208201 
L 460.954413 282.018176 
L 460.976746 281.862914 
L 461.016032 281.747765 
L 461.074534 281.678075 
L 461.154511 281.659194 
L 461.258224 281.69647 
L 461.387934 281.795251 
L 461.545901 281.960886 
L 461.734386 282.198722 
L 461.955649 282.514107 
L 462.211952 282.912391 
L 462.505553 283.398922 
L 462.838715 283.979047 
L 463.213698 284.658115 
L 463.632762 285.441474 
L 464.098168 286.334472 
L 464.612176 287.342459 
L 465.177047 288.470781 
L 465.795042 289.724787 
" style="fill:none;stroke:#000000;stroke-linecap:round;stroke-width:2;"/>
   </g>
   <g id="line2d_36">
    <path clip-path="url(#p123d9423a8)" d="M 423.54 300.49875 
L 466.47 300.49875 
M 477.81 293.52375 
L 477.81 307.47375 
M 477.81 300.49875 
L 520.74 300.49875 
" style="fill:none;stroke:#000000;stroke-linecap:round;stroke-width:2;"/>
   </g>
   <g id="line2d_37">
    <path clip-path="url(#p123d9423a8)" d="M 73.626954 338.413224 
L 74.244949 339.66723 
L 74.809821 340.795553 
L 75.323829 341.803539 
L 75.789235 342.696538 
L 76.208299 343.479897 
L 76.583281 344.158965 
L 76.916443 344.73909 
L 77.210045 345.22562 
L 77.466347 345.623904 
L 77.68761 345.93929 
L 77.876095 346.177126 
L 78.034062 346.34276 
L 78.163772 346.441541 
L 78.267485 346.478817 
L 78.347463 346.459936 
L 78.405964 346.390247 
L 78.445251 346.275097 
L 78.467583 346.119835 
L 78.475222 345.92981 
L 78.470427 345.710369 
L 78.45546 345.466861 
L 78.432581 345.204634 
L 78.40405 344.929037 
L 78.372128 344.645417 
L 78.339076 344.359122 
L 78.307155 344.075502 
L 78.278624 343.799905 
L 78.255745 343.537678 
L 78.240778 343.29417 
L 78.235983 343.074729 
L 78.243622 342.884704 
L 78.265954 342.729442 
L 78.305241 342.614292 
L 78.363742 342.544603 
L 78.443719 342.525722 
L 78.547432 342.562998 
L 78.677142 342.661779 
L 78.835109 342.827413 
L 79.023594 343.065249 
L 79.244857 343.380635 
L 79.50116 343.778919 
L 79.794762 344.265449 
L 80.127923 344.845574 
L 80.502906 345.524642 
L 80.92197 346.308001 
L 81.387376 347.201 
L 81.901384 348.208986 
L 82.466255 349.337308 
L 83.08425 350.591315 
" style="fill:none;stroke:#000000;stroke-linecap:round;stroke-width:2;"/>
   </g>
   <g id="line2d_38">
    <path clip-path="url(#p123d9423a8)" d="M 67.537746 340.321696 
L 68.155741 341.575703 
L 68.720612 342.704025 
L 69.234621 343.712011 
L 69.700026 344.60501 
L 70.11909 345.388369 
L 70.494073 346.067437 
L 70.827235 346.647562 
L 71.120837 347.134092 
L 71.377139 347.532376 
L 71.598402 347.847762 
L 71.786887 348.085598 
L 71.944854 348.251232 
L 72.074564 348.350013 
L 72.178277 348.387289 
L 72.258254 348.368408 
L 72.316756 348.298719 
L 72.356043 348.183569 
L 72.378375 348.028308 
L 72.386013 347.838282 
L 72.381219 347.618842 
L 72.366252 347.375334 
L 72.343372 347.113107 
L 72.314842 346.837509 
L 72.28292 346.553889 
L 72.249868 346.267595 
L 72.217947 345.983975 
L 72.189416 345.708377 
L 72.166537 345.44615 
L 72.151569 345.202642 
L 72.146775 344.983201 
L 72.154413 344.793176 
L 72.176746 344.637914 
L 72.216032 344.522765 
L 72.274534 344.453075 
L 72.354511 344.434194 
L 72.458224 344.47147 
L 72.587934 344.570251 
L 72.745901 344.735886 
L 72.934386 344.973722 
L 73.155649 345.289107 
L 73.411952 345.687391 
L 73.705553 346.173922 
L 74.038715 346.754047 
L 74.413698 347.433115 
L 74.832762 348.216474 
L 75.298168 349.109472 
L 75.812176 350.117459 
L 76.377047 351.245781 
L 76.995042 352.499787 
" style="fill:none;stroke:#000000;stroke-linecap:round;stroke-width:2;"/>
   </g>
   <g id="line2d_39">
    <path clip-path="url(#p123d9423a8)" d="M 34.74 363.27375 
L 77.67 363.27375 
M 89.01 356.29875 
L 89.01 370.24875 
M 89.01 363.27375 
L 131.94 363.27375 
" style="fill:none;stroke:#000000;stroke-linecap:round;stroke-width:2;"/>
   </g>
   <g id="line2d_40">
    <path clip-path="url(#p123d9423a8)" d="M 164.34 363.27375 
L 207.27 363.27375 
M 218.61 350.71875 
L 218.61 375.82875 
M 207.27 350.71875 
L 207.27 375.82875 
M 218.61 363.27375 
L 261.54 363.27375 
" style="fill:none;stroke:#000000;stroke-linecap:round;stroke-width:2;"/>
   </g>
   <g id="line2d_41">
    <path clip-path="url(#p123d9423a8)" d="M 293.94 363.27375 
L 336.87 363.27375 
M 348.21 350.71875 
L 348.21 375.82875 
M 336.87 350.71875 
L 336.87 375.82875 
M 348.21 363.27375 
L 391.14 363.27375 
" style="fill:none;stroke:#000000;stroke-linecap:round;stroke-width:2;"/>
   </g>
   <g id="line2d_42">
    <path clip-path="url(#p123d9423a8)" d="M 477.81 356.29875 
L 494.01 349.32375 
" style="fill:none;stroke:#000000;stroke-linecap:round;stroke-width:2;"/>
   </g>
   <g id="line2d_43">
    <path clip-path="url(#p123d9423a8)" d="M 423.54 363.27375 
L 466.47 363.27375 
M 477.81 350.71875 
L 477.81 375.82875 
M 466.47 350.71875 
L 466.47 375.82875 
M 477.81 363.27375 
L 520.74 363.27375 
" style="fill:none;stroke:#000000;stroke-linecap:round;stroke-width:2;"/>
   </g>
   <g id="line2d_44">
    <path clip-path="url(#p123d9423a8)" d="M 89.01 419.07375 
L 105.21 412.09875 
" style="fill:none;stroke:#000000;stroke-linecap:round;stroke-width:2;"/>
   </g>
   <g id="line2d_45">
    <path clip-path="url(#p123d9423a8)" d="M 34.74 426.04875 
L 77.67 426.04875 
M 89.01 413.49375 
L 89.01 438.60375 
M 77.67 413.49375 
L 77.67 438.60375 
M 89.01 426.04875 
L 131.94 426.04875 
" style="fill:none;stroke:#000000;stroke-linecap:round;stroke-width:2;"/>
   </g>
   <g id="line2d_46">
    <path clip-path="url(#p123d9423a8)" d="M 218.61 426.04875 
L 228.33 434.41875 
L 228.33 439.99875 
" style="fill:none;stroke:#000000;stroke-linecap:round;stroke-width:2;"/>
   </g>
   <g id="line2d_47">
    <path clip-path="url(#p123d9423a8)" d="M 164.34 426.04875 
L 207.27 426.04875 
M 218.61 419.07375 
L 218.61 433.02375 
M 218.61 426.04875 
L 261.54 426.04875 
" style="fill:none;stroke:#000000;stroke-linecap:round;stroke-width:2;"/>
   </g>
   <g id="line2d_48">
    <path clip-path="url(#p123d9423a8)" d="M 348.21 426.04875 
L 357.93 434.41875 
L 357.93 439.99875 
" style="fill:none;stroke:#000000;stroke-linecap:round;stroke-width:2;"/>
   </g>
   <g id="line2d_49">
    <path clip-path="url(#p123d9423a8)" d="M 293.94 426.04875 
L 336.87 426.04875 
M 348.21 419.07375 
L 348.21 433.02375 
M 348.21 426.04875 
L 391.14 426.04875 
" style="fill:none;stroke:#000000;stroke-linecap:round;stroke-width:2;"/>
   </g>
   <g id="line2d_50">
    <path clip-path="url(#p123d9423a8)" d="M 458.37 426.04875 
L 458.932041 425.156807 
L 459.494082 424.279509 
L 460.056122 423.431263 
L 460.618163 422.625995 
L 461.180204 421.876929 
L 461.742245 421.196364 
L 462.304286 420.595475 
L 462.866327 420.084129 
L 463.428367 419.670722 
L 463.990408 419.362042 
L 464.552449 419.163157 
L 465.11449 419.077334 
L 465.676531 419.105981 
L 466.238571 419.248628 
L 466.800612 419.502933 
L 467.362653 419.86472 
L 467.924694 420.328049 
L 468.486735 420.885311 
L 469.048776 421.527357 
L 469.610816 422.243644 
L 470.172857 423.022411 
L 470.734898 423.85087 
L 471.296939 424.715419 
L 471.85898 425.60186 
L 472.42102 426.49564 
L 472.983061 427.382081 
L 473.545102 428.24663 
L 474.107143 429.075089 
L 474.669184 429.853856 
L 475.231224 430.570143 
L 475.793265 431.212189 
L 476.355306 431.769451 
L 476.917347 432.23278 
L 477.479388 432.594567 
L 478.041429 432.848872 
L 478.603469 432.991519 
L 479.16551 433.020166 
L 479.727551 432.934343 
L 480.289592 432.735458 
L 480.851633 432.426778 
L 481.413673 432.013371 
L 481.975714 431.502025 
L 482.537755 430.901136 
L 483.099796 430.220571 
L 483.661837 429.471505 
L 484.223878 428.666237 
L 484.785918 427.817991 
L 485.347959 426.940693 
L 485.91 426.04875 
" style="fill:none;stroke:#000000;stroke-linecap:round;stroke-width:2;"/>
   </g>
   <g id="line2d_51">
    <path clip-path="url(#p123d9423a8)" d="M 423.54 426.04875 
L 448.65 426.04875 
M 495.63 426.04875 
L 520.74 426.04875 
" style="fill:none;stroke:#000000;stroke-linecap:round;stroke-width:2;"/>
   </g>
   <g id="line2d_52">
    <path clip-path="url(#p123d9423a8)" d="M 34.74 488.82375 
L 76.86 488.82375 
M 76.86 481.84875 
L 76.86 495.79875 
M 80.1 481.84875 
L 80.1 495.79875 
L 86.58 495.79875 
L 86.58 481.84875 
L 80.1 481.84875 
M 89.82 481.84875 
L 89.82 495.79875 
M 89.82 488.82375 
L 131.94 488.82375 
" style="fill:none;stroke:#000000;stroke-linecap:round;stroke-width:2;"/>
   </g>
   <g id="line2d_53">
    <path clip-path="url(#p123d9423a8)" d="M 196.74 481.84875 
L 229.14 481.84875 
L 229.14 495.79875 
L 196.74 495.79875 
L 196.74 481.84875 
" style="fill:none;stroke:#000000;stroke-linecap:round;stroke-width:2;"/>
   </g>
   <g id="line2d_54">
    <path clip-path="url(#p123d9423a8)" d="M 164.34 488.82375 
L 196.74 488.82375 
L 203.22 488.82375 
L 203.22 493.00875 
L 209.7 493.00875 
L 209.7 484.63875 
L 216.18 484.63875 
L 216.18 493.00875 
L 222.66 493.00875 
L 222.66 488.82375 
L 229.14 488.82375 
L 261.54 488.82375 
" style="fill:none;stroke:#000000;stroke-linecap:round;stroke-width:2;"/>
   </g>
   <g id="line2d_55">
    <path clip-path="url(#p123d9423a8)" d="M 293.94 488.82375 
L 319.86 488.82375 
L 319.86 481.84875 
L 326.34 481.84875 
L 326.34 495.79875 
L 332.82 495.79875 
L 332.82 481.84875 
L 339.3 481.84875 
L 339.3 495.79875 
L 345.78 495.79875 
L 345.78 481.84875 
L 352.26 481.84875 
L 352.26 495.79875 
L 358.74 495.79875 
L 358.74 488.82375 
L 365.22 488.82375 
L 391.14 488.82375 
" style="fill:none;stroke:#000000;stroke-linecap:round;stroke-width:2;"/>
   </g>
   <g id="line2d_56">
    <path clip-path="url(#p123d9423a8)" d="M 423.54 488.82375 
L 472.14 488.82375 
M 464.04 481.84875 
L 480.24 495.79875 
M 480.24 481.84875 
L 464.04 495.79875 
M 472.14 488.82375 
L 520.74 488.82375 
" style="fill:none;stroke:#000000;stroke-linecap:round;stroke-width:2;"/>
   </g>
   <g id="text_1">
    <!-- RES -->
    <defs>
     <path d="M 44.390625 34.1875 
Q 47.5625 33.109375 50.5625 29.59375 
Q 53.5625 26.078125 56.59375 19.921875 
L 66.609375 0 
L 56 0 
L 46.6875 18.703125 
Q 43.0625 26.03125 39.671875 28.421875 
Q 36.28125 30.8125 30.421875 30.8125 
L 19.671875 30.8125 
L 19.671875 0 
L 9.8125 0 
L 9.8125 72.90625 
L 32.078125 72.90625 
Q 44.578125 72.90625 50.734375 67.671875 
Q 56.890625 62.453125 56.890625 51.90625 
Q 56.890625 45.015625 53.6875 40.46875 
Q 50.484375 35.9375 44.390625 34.1875 
z
M 19.671875 64.796875 
L 19.671875 38.921875 
L 32.078125 38.921875 
Q 39.203125 38.921875 42.84375 42.21875 
Q 46.484375 45.515625 46.484375 51.90625 
Q 46.484375 58.296875 42.84375 61.546875 
Q 39.203125 64.796875 32.078125 64.796875 
z
" id="DejaVuSans-82"/>
     <path d="M 9.8125 72.90625 
L 55.90625 72.90625 
L 55.90625 64.59375 
L 19.671875 64.59375 
L 19.671875 43.015625 
L 54.390625 43.015625 
L 54.390625 34.71875 
L 19.671875 34.71875 
L 19.671875 8.296875 
L 56.78125 8.296875 
L 56.78125 0 
L 9.8125 0 
z
" id="DejaVuSans-69"/>
     <path d="M 53.515625 70.515625 
L 53.515625 60.890625 
Q 47.90625 63.578125 42.921875 64.890625 
Q 37.9375 66.21875 33.296875 66.21875 
Q 25.25 66.21875 20.875 63.09375 
Q 16.5 59.96875 16.5 54.203125 
Q 16.5 49.359375 19.40625 46.890625 
Q 22.3125 44.4375 30.421875 42.921875 
L 36.375 41.703125 
Q 47.40625 39.59375 52.65625 34.296875 
Q 57.90625 29 57.90625 20.125 
Q 57.90625 9.515625 50.796875 4.046875 
Q 43.703125 -1.421875 29.984375 -1.421875 
Q 24.8125 -1.421875 18.96875 -0.25 
Q 13.140625 0.921875 6.890625 3.21875 
L 6.890625 13.375 
Q 12.890625 10.015625 18.65625 8.296875 
Q 24.421875 6.59375 29.984375 6.59375 
Q 38.421875 6.59375 43.015625 9.90625 
Q 47.609375 13.234375 47.609375 19.390625 
Q 47.609375 24.75 44.3125 27.78125 
Q 41.015625 30.8125 33.5 32.328125 
L 27.484375 33.5 
Q 16.453125 35.6875 11.515625 40.375 
Q 6.59375 45.0625 6.59375 53.421875 
Q 6.59375 63.09375 13.40625 68.65625 
Q 20.21875 74.21875 32.171875 74.21875 
Q 37.3125 74.21875 42.625 73.28125 
Q 47.953125 72.359375 53.515625 70.515625 
z
" id="DejaVuSans-83"/>
    </defs>
    <g transform="translate(69.609062 25.361875)scale(0.14 -0.14)">
     <use xlink:href="#DejaVuSans-82"/>
     <use x="69.482422" xlink:href="#DejaVuSans-69"/>
     <use x="132.666016" xlink:href="#DejaVuSans-83"/>
    </g>
   </g>
   <g id="text_2">
    <!-- RES_VAR -->
    <defs>
     <path d="M 50.984375 -16.609375 
L 50.984375 -23.578125 
L -0.984375 -23.578125 
L -0.984375 -16.609375 
z
" id="DejaVuSans-95"/>
     <path d="M 28.609375 0 
L 0.78125 72.90625 
L 11.078125 72.90625 
L 34.1875 11.53125 
L 57.328125 72.90625 
L 67.578125 72.90625 
L 39.796875 0 
z
" id="DejaVuSans-86"/>
     <path d="M 34.1875 63.1875 
L 20.796875 26.90625 
L 47.609375 26.90625 
z
M 28.609375 72.90625 
L 39.796875 72.90625 
L 67.578125 0 
L 57.328125 0 
L 50.6875 18.703125 
L 17.828125 18.703125 
L 11.1875 0 
L 0.78125 0 
z
" id="DejaVuSans-65"/>
    </defs>
    <g transform="translate(181.274844 23.881094)scale(0.14 -0.14)">
     <use xlink:href="#DejaVuSans-82"/>
     <use x="69.482422" xlink:href="#DejaVuSans-69"/>
     <use x="132.666016" xlink:href="#DejaVuSans-83"/>
     <use x="196.142578" xlink:href="#DejaVuSans-95"/>
     <use x="246.142578" xlink:href="#DejaVuSans-86"/>
     <use x="314.457031" xlink:href="#DejaVuSans-65"/>
     <use x="382.865234" xlink:href="#DejaVuSans-82"/>
    </g>
   </g>
   <g id="text_3">
    <!-- RBOX -->
    <defs>
     <path d="M 19.671875 34.8125 
L 19.671875 8.109375 
L 35.5 8.109375 
Q 43.453125 8.109375 47.28125 11.40625 
Q 51.125 14.703125 51.125 21.484375 
Q 51.125 28.328125 47.28125 31.5625 
Q 43.453125 34.8125 35.5 34.8125 
z
M 19.671875 64.796875 
L 19.671875 42.828125 
L 34.28125 42.828125 
Q 41.5 42.828125 45.03125 45.53125 
Q 48.578125 48.25 48.578125 53.8125 
Q 48.578125 59.328125 45.03125 62.0625 
Q 41.5 64.796875 34.28125 64.796875 
z
M 9.8125 72.90625 
L 35.015625 72.90625 
Q 46.296875 72.90625 52.390625 68.21875 
Q 58.5 63.53125 58.5 54.890625 
Q 58.5 48.1875 55.375 44.234375 
Q 52.25 40.28125 46.1875 39.3125 
Q 53.46875 37.75 57.5 32.78125 
Q 61.53125 27.828125 61.53125 20.40625 
Q 61.53125 10.640625 54.890625 5.3125 
Q 48.25 0 35.984375 0 
L 9.8125 0 
z
" id="DejaVuSans-66"/>
     <path d="M 39.40625 66.21875 
Q 28.65625 66.21875 22.328125 58.203125 
Q 16.015625 50.203125 16.015625 36.375 
Q 16.015625 22.609375 22.328125 14.59375 
Q 28.65625 6.59375 39.40625 6.59375 
Q 50.140625 6.59375 56.421875 14.59375 
Q 62.703125 22.609375 62.703125 36.375 
Q 62.703125 50.203125 56.421875 58.203125 
Q 50.140625 66.21875 39.40625 66.21875 
z
M 39.40625 74.21875 
Q 54.734375 74.21875 63.90625 63.9375 
Q 73.09375 53.65625 73.09375 36.375 
Q 73.09375 19.140625 63.90625 8.859375 
Q 54.734375 -1.421875 39.40625 -1.421875 
Q 24.03125 -1.421875 14.8125 8.828125 
Q 5.609375 19.09375 5.609375 36.375 
Q 5.609375 53.65625 14.8125 63.9375 
Q 24.03125 74.21875 39.40625 74.21875 
z
" id="DejaVuSans-79"/>
     <path d="M 6.296875 72.90625 
L 16.890625 72.90625 
L 35.015625 45.796875 
L 53.21875 72.90625 
L 63.8125 72.90625 
L 40.375 37.890625 
L 65.375 0 
L 54.78125 0 
L 34.28125 31 
L 13.625 0 
L 2.984375 0 
L 29 38.921875 
z
" id="DejaVuSans-88"/>
    </defs>
    <g transform="translate(322.575781 25.361875)scale(0.14 -0.14)">
     <use xlink:href="#DejaVuSans-82"/>
     <use x="69.482422" xlink:href="#DejaVuSans-66"/>
     <use x="138.070312" xlink:href="#DejaVuSans-79"/>
     <use x="216.6875" xlink:href="#DejaVuSans-88"/>
    </g>
   </g>
   <g id="text_4">
    <!-- CAP -->
    <defs>
     <path d="M 64.40625 67.28125 
L 64.40625 56.890625 
Q 59.421875 61.53125 53.78125 63.8125 
Q 48.140625 66.109375 41.796875 66.109375 
Q 29.296875 66.109375 22.65625 58.46875 
Q 16.015625 50.828125 16.015625 36.375 
Q 16.015625 21.96875 22.65625 14.328125 
Q 29.296875 6.6875 41.796875 6.6875 
Q 48.140625 6.6875 53.78125 8.984375 
Q 59.421875 11.28125 64.40625 15.921875 
L 64.40625 5.609375 
Q 59.234375 2.09375 53.4375 0.328125 
Q 47.65625 -1.421875 41.21875 -1.421875 
Q 24.65625 -1.421875 15.125 8.703125 
Q 5.609375 18.84375 5.609375 36.375 
Q 5.609375 53.953125 15.125 64.078125 
Q 24.65625 74.21875 41.21875 74.21875 
Q 47.75 74.21875 53.53125 72.484375 
Q 59.328125 70.75 64.40625 67.28125 
z
" id="DejaVuSans-67"/>
     <path d="M 19.671875 64.796875 
L 19.671875 37.40625 
L 32.078125 37.40625 
Q 38.96875 37.40625 42.71875 40.96875 
Q 46.484375 44.53125 46.484375 51.125 
Q 46.484375 57.671875 42.71875 61.234375 
Q 38.96875 64.796875 32.078125 64.796875 
z
M 9.8125 72.90625 
L 32.078125 72.90625 
Q 44.34375 72.90625 50.609375 67.359375 
Q 56.890625 61.8125 56.890625 51.125 
Q 56.890625 40.328125 50.609375 34.8125 
Q 44.34375 29.296875 32.078125 29.296875 
L 19.671875 29.296875 
L 19.671875 0 
L 9.8125 0 
z
" id="DejaVuSans-80"/>
    </defs>
    <g transform="translate(458.242812 25.361875)scale(0.14 -0.14)">
     <use xlink:href="#DejaVuSans-67"/>
     <use x="69.824219" xlink:href="#DejaVuSans-65"/>
     <use x="138.232422" xlink:href="#DejaVuSans-80"/>
    </g>
   </g>
   <g id="text_5">
    <!-- CAP2 -->
    <defs>
     <path d="M 19.1875 8.296875 
L 53.609375 8.296875 
L 53.609375 0 
L 7.328125 0 
L 7.328125 8.296875 
Q 12.9375 14.109375 22.625 23.890625 
Q 32.328125 33.6875 34.8125 36.53125 
Q 39.546875 41.84375 41.421875 45.53125 
Q 43.3125 49.21875 43.3125 52.78125 
Q 43.3125 58.59375 39.234375 62.25 
Q 35.15625 65.921875 28.609375 65.921875 
Q 23.96875 65.921875 18.8125 64.3125 
Q 13.671875 62.703125 7.8125 59.421875 
L 7.8125 69.390625 
Q 13.765625 71.78125 18.9375 73 
Q 24.125 74.21875 28.421875 74.21875 
Q 39.75 74.21875 46.484375 68.546875 
Q 53.21875 62.890625 53.21875 53.421875 
Q 53.21875 48.921875 51.53125 44.890625 
Q 49.859375 40.875 45.40625 35.40625 
Q 44.1875 33.984375 37.640625 27.21875 
Q 31.109375 20.453125 19.1875 8.296875 
z
" id="DejaVuSans-50"/>
    </defs>
    <g transform="translate(64.989062 88.136875)scale(0.14 -0.14)">
     <use xlink:href="#DejaVuSans-67"/>
     <use x="69.824219" xlink:href="#DejaVuSans-65"/>
     <use x="138.232422" xlink:href="#DejaVuSans-80"/>
     <use x="198.535156" xlink:href="#DejaVuSans-50"/>
    </g>
   </g>
   <g id="text_6">
    <!-- + -->
    <defs>
     <path d="M 46 62.703125 
L 46 35.5 
L 73.1875 35.5 
L 73.1875 27.203125 
L 46 27.203125 
L 46 0 
L 37.796875 0 
L 37.796875 27.203125 
L 10.59375 27.203125 
L 10.59375 35.5 
L 37.796875 35.5 
L 37.796875 62.703125 
z
" id="DejaVuSans-43"/>
    </defs>
    <g transform="translate(197.159819 111.014875)scale(0.14 -0.14)">
     <use xlink:href="#DejaVuSans-43"/>
    </g>
   </g>
   <g id="text_7">
    <!-- CAP_P -->
    <g transform="translate(191.322031 87.818594)scale(0.14 -0.14)">
     <use xlink:href="#DejaVuSans-67"/>
     <use x="69.824219" xlink:href="#DejaVuSans-65"/>
     <use x="138.232422" xlink:href="#DejaVuSans-80"/>
     <use x="198.535156" xlink:href="#DejaVuSans-95"/>
     <use x="248.535156" xlink:href="#DejaVuSans-80"/>
    </g>
   </g>
   <g id="text_8">
    <!-- + -->
    <g transform="translate(326.759819 111.014875)scale(0.14 -0.14)">
     <use xlink:href="#DejaVuSans-43"/>
    </g>
   </g>
   <g id="text_9">
    <!-- CAP2_P -->
    <g transform="translate(316.468281 87.818594)scale(0.14 -0.14)">
     <use xlink:href="#DejaVuSans-67"/>
     <use x="69.824219" xlink:href="#DejaVuSans-65"/>
     <use x="138.232422" xlink:href="#DejaVuSans-80"/>
     <use x="198.535156" xlink:href="#DejaVuSans-50"/>
     <use x="262.158203" xlink:href="#DejaVuSans-95"/>
     <use x="312.158203" xlink:href="#DejaVuSans-80"/>
    </g>
   </g>
   <g id="text_10">
    <!-- CAP_VAR -->
    <g transform="translate(440.308594 86.656094)scale(0.14 -0.14)">
     <use xlink:href="#DejaVuSans-67"/>
     <use x="69.824219" xlink:href="#DejaVuSans-65"/>
     <use x="138.232422" xlink:href="#DejaVuSans-80"/>
     <use x="198.535156" xlink:href="#DejaVuSans-95"/>
     <use x="248.535156" xlink:href="#DejaVuSans-86"/>
     <use x="316.849609" xlink:href="#DejaVuSans-65"/>
     <use x="385.257812" xlink:href="#DejaVuSans-82"/>
    </g>
   </g>
   <g id="text_11">
    <!-- INDUCTOR -->
    <defs>
     <path d="M 9.8125 72.90625 
L 19.671875 72.90625 
L 19.671875 0 
L 9.8125 0 
z
" id="DejaVuSans-73"/>
     <path d="M 9.8125 72.90625 
L 23.09375 72.90625 
L 55.421875 11.921875 
L 55.421875 72.90625 
L 64.984375 72.90625 
L 64.984375 0 
L 51.703125 0 
L 19.390625 60.984375 
L 19.390625 0 
L 9.8125 0 
z
" id="DejaVuSans-78"/>
     <path d="M 19.671875 64.796875 
L 19.671875 8.109375 
L 31.59375 8.109375 
Q 46.6875 8.109375 53.6875 14.9375 
Q 60.6875 21.78125 60.6875 36.53125 
Q 60.6875 51.171875 53.6875 57.984375 
Q 46.6875 64.796875 31.59375 64.796875 
z
M 9.8125 72.90625 
L 30.078125 72.90625 
Q 51.265625 72.90625 61.171875 64.09375 
Q 71.09375 55.28125 71.09375 36.53125 
Q 71.09375 17.671875 61.125 8.828125 
Q 51.171875 0 30.078125 0 
L 9.8125 0 
z
" id="DejaVuSans-68"/>
     <path d="M 8.6875 72.90625 
L 18.609375 72.90625 
L 18.609375 28.609375 
Q 18.609375 16.890625 22.84375 11.734375 
Q 27.09375 6.59375 36.625 6.59375 
Q 46.09375 6.59375 50.34375 11.734375 
Q 54.59375 16.890625 54.59375 28.609375 
L 54.59375 72.90625 
L 64.5 72.90625 
L 64.5 27.390625 
Q 64.5 13.140625 57.4375 5.859375 
Q 50.390625 -1.421875 36.625 -1.421875 
Q 22.796875 -1.421875 15.734375 5.859375 
Q 8.6875 13.140625 8.6875 27.390625 
z
" id="DejaVuSans-85"/>
     <path d="M -0.296875 72.90625 
L 61.375 72.90625 
L 61.375 64.59375 
L 35.5 64.59375 
L 35.5 0 
L 25.59375 0 
L 25.59375 64.59375 
L -0.296875 64.59375 
z
" id="DejaVuSans-84"/>
    </defs>
    <g transform="translate(45.987344 150.911875)scale(0.14 -0.14)">
     <use xlink:href="#DejaVuSans-73"/>
     <use x="29.492188" xlink:href="#DejaVuSans-78"/>
     <use x="104.296875" xlink:href="#DejaVuSans-68"/>
     <use x="181.298828" xlink:href="#DejaVuSans-85"/>
     <use x="254.492188" xlink:href="#DejaVuSans-67"/>
     <use x="324.316406" xlink:href="#DejaVuSans-84"/>
     <use x="385.400391" xlink:href="#DejaVuSans-79"/>
     <use x="464.111328" xlink:href="#DejaVuSans-82"/>
    </g>
   </g>
   <g id="text_12">
    <!-- INDUCTOR2 -->
    <g transform="translate(171.133594 148.367002)scale(0.14 -0.14)">
     <use xlink:href="#DejaVuSans-73"/>
     <use x="29.492188" xlink:href="#DejaVuSans-78"/>
     <use x="104.296875" xlink:href="#DejaVuSans-68"/>
     <use x="181.298828" xlink:href="#DejaVuSans-85"/>
     <use x="254.492188" xlink:href="#DejaVuSans-67"/>
     <use x="324.316406" xlink:href="#DejaVuSans-84"/>
     <use x="385.400391" xlink:href="#DejaVuSans-79"/>
     <use x="464.111328" xlink:href="#DejaVuSans-82"/>
     <use x="533.59375" xlink:href="#DejaVuSans-50"/>
    </g>
   </g>
   <g id="text_13">
    <!-- DIODE -->
    <g transform="translate(319.761562 150.911875)scale(0.14 -0.14)">
     <use xlink:href="#DejaVuSans-68"/>
     <use x="77.001953" xlink:href="#DejaVuSans-73"/>
     <use x="106.494141" xlink:href="#DejaVuSans-79"/>
     <use x="185.205078" xlink:href="#DejaVuSans-68"/>
     <use x="262.207031" xlink:href="#DejaVuSans-69"/>
    </g>
   </g>
   <g id="text_14">
    <!-- DIODE_F -->
    <defs>
     <path d="M 9.8125 72.90625 
L 51.703125 72.90625 
L 51.703125 64.59375 
L 19.671875 64.59375 
L 19.671875 43.109375 
L 48.578125 43.109375 
L 48.578125 34.8125 
L 19.671875 34.8125 
L 19.671875 0 
L 9.8125 0 
z
" id="DejaVuSans-70"/>
    </defs>
    <g transform="translate(441.835469 150.593594)scale(0.14 -0.14)">
     <use xlink:href="#DejaVuSans-68"/>
     <use x="77.001953" xlink:href="#DejaVuSans-73"/>
     <use x="106.494141" xlink:href="#DejaVuSans-79"/>
     <use x="185.205078" xlink:href="#DejaVuSans-68"/>
     <use x="262.207031" xlink:href="#DejaVuSans-69"/>
     <use x="325.390625" xlink:href="#DejaVuSans-95"/>
     <use x="375.390625" xlink:href="#DejaVuSans-70"/>
    </g>
   </g>
   <g id="text_15">
    <!-- SCHOTTKY -->
    <defs>
     <path d="M 9.8125 72.90625 
L 19.671875 72.90625 
L 19.671875 43.015625 
L 55.515625 43.015625 
L 55.515625 72.90625 
L 65.375 72.90625 
L 65.375 0 
L 55.515625 0 
L 55.515625 34.71875 
L 19.671875 34.71875 
L 19.671875 0 
L 9.8125 0 
z
" id="DejaVuSans-72"/>
     <path d="M 9.8125 72.90625 
L 19.671875 72.90625 
L 19.671875 42.09375 
L 52.390625 72.90625 
L 65.09375 72.90625 
L 28.90625 38.921875 
L 67.671875 0 
L 54.6875 0 
L 19.671875 35.109375 
L 19.671875 0 
L 9.8125 0 
z
" id="DejaVuSans-75"/>
     <path d="M -0.203125 72.90625 
L 10.40625 72.90625 
L 30.609375 42.921875 
L 50.6875 72.90625 
L 61.28125 72.90625 
L 35.5 34.71875 
L 35.5 0 
L 25.59375 0 
L 25.59375 34.71875 
z
" id="DejaVuSans-89"/>
    </defs>
    <g transform="translate(45.821094 213.686875)scale(0.14 -0.14)">
     <use xlink:href="#DejaVuSans-83"/>
     <use x="63.476562" xlink:href="#DejaVuSans-67"/>
     <use x="133.300781" xlink:href="#DejaVuSans-72"/>
     <use x="208.496094" xlink:href="#DejaVuSans-79"/>
     <use x="287.207031" xlink:href="#DejaVuSans-84"/>
     <use x="348.275391" xlink:href="#DejaVuSans-84"/>
     <use x="409.359375" xlink:href="#DejaVuSans-75"/>
     <use x="474.888672" xlink:href="#DejaVuSans-89"/>
    </g>
   </g>
   <g id="text_16">
    <!-- SCHOTTKY_F -->
    <g transform="translate(167.895 213.368594)scale(0.14 -0.14)">
     <use xlink:href="#DejaVuSans-83"/>
     <use x="63.476562" xlink:href="#DejaVuSans-67"/>
     <use x="133.300781" xlink:href="#DejaVuSans-72"/>
     <use x="208.496094" xlink:href="#DejaVuSans-79"/>
     <use x="287.207031" xlink:href="#DejaVuSans-84"/>
     <use x="348.275391" xlink:href="#DejaVuSans-84"/>
     <use x="409.359375" xlink:href="#DejaVuSans-75"/>
     <use x="474.888672" xlink:href="#DejaVuSans-89"/>
     <use x="535.972656" xlink:href="#DejaVuSans-95"/>
     <use x="585.972656" xlink:href="#DejaVuSans-70"/>
    </g>
   </g>
   <g id="text_17">
    <!-- DIODE_TUNNEL -->
    <defs>
     <path d="M 9.8125 72.90625 
L 19.671875 72.90625 
L 19.671875 8.296875 
L 55.171875 8.296875 
L 55.171875 0 
L 9.8125 0 
z
" id="DejaVuSans-76"/>
    </defs>
    <g transform="translate(288.065781 213.368594)scale(0.14 -0.14)">
     <use xlink:href="#DejaVuSans-68"/>
     <use x="77.001953" xlink:href="#DejaVuSans-73"/>
     <use x="106.494141" xlink:href="#DejaVuSans-79"/>
     <use x="185.205078" xlink:href="#DejaVuSans-68"/>
     <use x="262.207031" xlink:href="#DejaVuSans-69"/>
     <use x="325.390625" xlink:href="#DejaVuSans-95"/>
     <use x="375.390625" xlink:href="#DejaVuSans-84"/>
     <use x="436.474609" xlink:href="#DejaVuSans-85"/>
     <use x="509.667969" xlink:href="#DejaVuSans-78"/>
     <use x="584.472656" xlink:href="#DejaVuSans-78"/>
     <use x="659.277344" xlink:href="#DejaVuSans-69"/>
     <use x="722.460938" xlink:href="#DejaVuSans-76"/>
    </g>
   </g>
   <g id="text_18">
    <!-- DIODE_TUNNEL_F -->
    <g transform="translate(410.139687 213.368594)scale(0.14 -0.14)">
     <use xlink:href="#DejaVuSans-68"/>
     <use x="77.001953" xlink:href="#DejaVuSans-73"/>
     <use x="106.494141" xlink:href="#DejaVuSans-79"/>
     <use x="185.205078" xlink:href="#DejaVuSans-68"/>
     <use x="262.207031" xlink:href="#DejaVuSans-69"/>
     <use x="325.390625" xlink:href="#DejaVuSans-95"/>
     <use x="375.390625" xlink:href="#DejaVuSans-84"/>
     <use x="436.474609" xlink:href="#DejaVuSans-85"/>
     <use x="509.667969" xlink:href="#DejaVuSans-78"/>
     <use x="584.472656" xlink:href="#DejaVuSans-78"/>
     <use x="659.277344" xlink:href="#DejaVuSans-69"/>
     <use x="722.460938" xlink:href="#DejaVuSans-76"/>
     <use x="778.173828" xlink:href="#DejaVuSans-95"/>
     <use x="828.173828" xlink:href="#DejaVuSans-70"/>
    </g>
   </g>
   <g id="text_19">
    <!-- ZENER -->
    <defs>
     <path d="M 5.609375 72.90625 
L 62.890625 72.90625 
L 62.890625 65.375 
L 16.796875 8.296875 
L 64.015625 8.296875 
L 64.015625 0 
L 4.5 0 
L 4.5 7.515625 
L 50.59375 64.59375 
L 5.609375 64.59375 
z
" id="DejaVuSans-90"/>
    </defs>
    <g transform="translate(59.597969 276.461875)scale(0.14 -0.14)">
     <use xlink:href="#DejaVuSans-90"/>
     <use x="68.505859" xlink:href="#DejaVuSans-69"/>
     <use x="131.689453" xlink:href="#DejaVuSans-78"/>
     <use x="206.494141" xlink:href="#DejaVuSans-69"/>
     <use x="269.677734" xlink:href="#DejaVuSans-82"/>
    </g>
   </g>
   <g id="text_20">
    <!-- ZENER_F -->
    <g transform="translate(181.671875 276.0725)scale(0.14 -0.14)">
     <use xlink:href="#DejaVuSans-90"/>
     <use x="68.505859" xlink:href="#DejaVuSans-69"/>
     <use x="131.689453" xlink:href="#DejaVuSans-78"/>
     <use x="206.494141" xlink:href="#DejaVuSans-69"/>
     <use x="269.677734" xlink:href="#DejaVuSans-82"/>
     <use x="339.160156" xlink:href="#DejaVuSans-95"/>
     <use x="389.160156" xlink:href="#DejaVuSans-70"/>
    </g>
   </g>
   <g id="text_21">
    <!-- LED -->
    <g transform="translate(328.826562 268.615)scale(0.14 -0.14)">
     <use xlink:href="#DejaVuSans-76"/>
     <use x="55.712891" xlink:href="#DejaVuSans-69"/>
     <use x="118.896484" xlink:href="#DejaVuSans-68"/>
    </g>
   </g>
   <g id="text_22">
    <!-- LED2 -->
    <g transform="translate(453.972812 267.519112)scale(0.14 -0.14)">
     <use xlink:href="#DejaVuSans-76"/>
     <use x="55.712891" xlink:href="#DejaVuSans-69"/>
     <use x="118.896484" xlink:href="#DejaVuSans-68"/>
     <use x="195.898438" xlink:href="#DejaVuSans-50"/>
    </g>
   </g>
   <g id="text_23">
    <!-- PHOTODIODE -->
    <g transform="translate(35.780469 330.294112)scale(0.14 -0.14)">
     <use xlink:href="#DejaVuSans-80"/>
     <use x="60.302734" xlink:href="#DejaVuSans-72"/>
     <use x="135.498047" xlink:href="#DejaVuSans-79"/>
     <use x="214.208984" xlink:href="#DejaVuSans-84"/>
     <use x="275.292969" xlink:href="#DejaVuSans-79"/>
     <use x="354.003906" xlink:href="#DejaVuSans-68"/>
     <use x="431.005859" xlink:href="#DejaVuSans-73"/>
     <use x="460.498047" xlink:href="#DejaVuSans-79"/>
     <use x="539.208984" xlink:href="#DejaVuSans-68"/>
     <use x="616.210938" xlink:href="#DejaVuSans-69"/>
    </g>
   </g>
   <g id="text_24">
    <!-- DIAC -->
    <g transform="translate(195.809687 339.236875)scale(0.14 -0.14)">
     <use xlink:href="#DejaVuSans-68"/>
     <use x="77.001953" xlink:href="#DejaVuSans-73"/>
     <use x="106.494141" xlink:href="#DejaVuSans-65"/>
     <use x="174.886719" xlink:href="#DejaVuSans-67"/>
    </g>
   </g>
   <g id="text_25">
    <!-- DIAC_F -->
    <g transform="translate(317.883594 338.918594)scale(0.14 -0.14)">
     <use xlink:href="#DejaVuSans-68"/>
     <use x="77.001953" xlink:href="#DejaVuSans-73"/>
     <use x="106.494141" xlink:href="#DejaVuSans-65"/>
     <use x="174.886719" xlink:href="#DejaVuSans-67"/>
     <use x="244.710938" xlink:href="#DejaVuSans-95"/>
     <use x="294.710938" xlink:href="#DejaVuSans-70"/>
    </g>
   </g>
   <g id="text_26">
    <!-- TRIAC -->
    <g transform="translate(451.260312 339.236875)scale(0.14 -0.14)">
     <use xlink:href="#DejaVuSans-84"/>
     <use x="61.083984" xlink:href="#DejaVuSans-82"/>
     <use x="130.566406" xlink:href="#DejaVuSans-73"/>
     <use x="160.058594" xlink:href="#DejaVuSans-65"/>
     <use x="228.451172" xlink:href="#DejaVuSans-67"/>
    </g>
   </g>
   <g id="text_27">
    <!-- TRIAC_F -->
    <g transform="translate(54.934219 401.693594)scale(0.14 -0.14)">
     <use xlink:href="#DejaVuSans-84"/>
     <use x="61.083984" xlink:href="#DejaVuSans-82"/>
     <use x="130.566406" xlink:href="#DejaVuSans-73"/>
     <use x="160.058594" xlink:href="#DejaVuSans-65"/>
     <use x="228.451172" xlink:href="#DejaVuSans-67"/>
     <use x="298.275391" xlink:href="#DejaVuSans-95"/>
     <use x="348.275391" xlink:href="#DejaVuSans-70"/>
    </g>
   </g>
   <g id="text_28">
    <!-- SCR -->
    <g transform="translate(198.744219 405.499375)scale(0.14 -0.14)">
     <use xlink:href="#DejaVuSans-83"/>
     <use x="63.476562" xlink:href="#DejaVuSans-67"/>
     <use x="133.300781" xlink:href="#DejaVuSans-82"/>
    </g>
   </g>
   <g id="text_29">
    <!-- SCR_F -->
    <g transform="translate(320.818125 405.181094)scale(0.14 -0.14)">
     <use xlink:href="#DejaVuSans-83"/>
     <use x="63.476562" xlink:href="#DejaVuSans-67"/>
     <use x="133.300781" xlink:href="#DejaVuSans-82"/>
     <use x="202.783203" xlink:href="#DejaVuSans-95"/>
     <use x="252.783203" xlink:href="#DejaVuSans-70"/>
    </g>
   </g>
   <g id="text_30">
    <!-- FUSE -->
    <g transform="translate(454.12375 402.011875)scale(0.14 -0.14)">
     <use xlink:href="#DejaVuSans-70"/>
     <use x="57.519531" xlink:href="#DejaVuSans-85"/>
     <use x="130.712891" xlink:href="#DejaVuSans-83"/>
     <use x="194.189453" xlink:href="#DejaVuSans-69"/>
    </g>
   </g>
   <g id="text_31">
    <!-- XTAL -->
    <g transform="translate(65.589531 464.786875)scale(0.14 -0.14)">
     <use xlink:href="#DejaVuSans-88"/>
     <use x="68.490234" xlink:href="#DejaVuSans-84"/>
     <use x="129.464844" xlink:href="#DejaVuSans-65"/>
     <use x="197.873047" xlink:href="#DejaVuSans-76"/>
    </g>
   </g>
   <g id="text_32">
    <!-- MEMRISTOR -->
    <defs>
     <path d="M 9.8125 72.90625 
L 24.515625 72.90625 
L 43.109375 23.296875 
L 61.8125 72.90625 
L 76.515625 72.90625 
L 76.515625 0 
L 66.890625 0 
L 66.890625 64.015625 
L 48.09375 14.015625 
L 38.1875 14.015625 
L 19.390625 64.015625 
L 19.390625 0 
L 9.8125 0 
z
" id="DejaVuSans-77"/>
    </defs>
    <g transform="translate(170.415 464.786875)scale(0.14 -0.14)">
     <use xlink:href="#DejaVuSans-77"/>
     <use x="86.279297" xlink:href="#DejaVuSans-69"/>
     <use x="149.462891" xlink:href="#DejaVuSans-77"/>
     <use x="235.742188" xlink:href="#DejaVuSans-82"/>
     <use x="305.224609" xlink:href="#DejaVuSans-73"/>
     <use x="334.716797" xlink:href="#DejaVuSans-83"/>
     <use x="398.193359" xlink:href="#DejaVuSans-84"/>
     <use x="459.277344" xlink:href="#DejaVuSans-79"/>
     <use x="537.988281" xlink:href="#DejaVuSans-82"/>
    </g>
   </g>
   <g id="text_33">
    <!-- MEMRISTOR2 -->
    <g transform="translate(295.56125 464.786875)scale(0.14 -0.14)">
     <use xlink:href="#DejaVuSans-77"/>
     <use x="86.279297" xlink:href="#DejaVuSans-69"/>
     <use x="149.462891" xlink:href="#DejaVuSans-77"/>
     <use x="235.742188" xlink:href="#DejaVuSans-82"/>
     <use x="305.224609" xlink:href="#DejaVuSans-73"/>
     <use x="334.716797" xlink:href="#DejaVuSans-83"/>
     <use x="398.193359" xlink:href="#DejaVuSans-84"/>
     <use x="459.277344" xlink:href="#DejaVuSans-79"/>
     <use x="537.988281" xlink:href="#DejaVuSans-82"/>
     <use x="607.470703" xlink:href="#DejaVuSans-50"/>
    </g>
   </g>
   <g id="text_34">
    <!-- JJ -->
    <defs>
     <path d="M 9.8125 72.90625 
L 19.671875 72.90625 
L 19.671875 5.078125 
Q 19.671875 -8.109375 14.671875 -14.0625 
Q 9.671875 -20.015625 -1.421875 -20.015625 
L -5.171875 -20.015625 
L -5.171875 -11.71875 
L -2.09375 -11.71875 
Q 4.4375 -11.71875 7.125 -8.046875 
Q 9.8125 -4.390625 9.8125 5.078125 
z
" id="DejaVuSans-74"/>
    </defs>
    <g transform="translate(468.01 464.786875)scale(0.14 -0.14)">
     <use xlink:href="#DejaVuSans-74"/>
     <use x="29.492188" xlink:href="#DejaVuSans-74"/>
    </g>
   </g>
  </g>
 </g>
 <defs>
  <clipPath id="p123d9423a8">
   <rect height="514.5225" width="541.08" x="7.2" y="7.2"/>
  </clipPath>
 </defs>
</svg>
