<?xml version="1.0" encoding="utf-8" standalone="no"?>
<!DOCTYPE svg PUBLIC "-//W3C//DTD SVG 1.1//EN"
  "http://www.w3.org/Graphics/SVG/1.1/DTD/svg11.dtd">
<!-- Created with matplotlib (http://matplotlib.org/) -->
<svg height="392pt" version="1.1" viewBox="0 0 562 392" width="562pt" xmlns="http://www.w3.org/2000/svg" xmlns:xlink="http://www.w3.org/1999/xlink">
 <defs>
  <style type="text/css">
*{stroke-linecap:butt;stroke-linejoin:round;}
  </style>
 </defs>
 <g id="figure_1">
  <g id="patch_1">
   <path d="M 0 392.17 
L 562.48 392.17 
L 562.48 0 
L 0 0 
z
" style="fill:none;"/>
  </g>
  <g id="axes_1">
   <g id="patch_2">
    <path clip-path="url(#pd9d3854f2f)" d="M 91.214 101.103632 
C 90.770745 101.942854 90.402583 103.150175 90.14667 104.60375 
C 89.890757 106.057325 89.756 107.706556 89.756 109.385 
C 89.756 111.063444 89.890757 112.712675 90.14667 114.16625 
C 90.402583 115.619825 90.770745 116.827146 91.214 117.666368 
" style="fill:none;stroke:#000000;stroke-linejoin:miter;stroke-width:1.5;"/>
   </g>
   <g id="patch_3">
    <path clip-path="url(#pd9d3854f2f)" d="M 350.414 101.103632 
C 349.970745 101.942854 349.602583 103.150175 349.34667 104.60375 
C 349.090757 106.057325 348.956 107.706556 348.956 109.385 
C 348.956 111.063444 349.090757 112.712675 349.34667 114.16625 
C 349.602583 115.619825 349.970745 116.827146 350.414 117.666368 
" style="fill:none;stroke:#000000;stroke-linejoin:miter;stroke-width:1.5;"/>
   </g>
   <g id="patch_4">
    <path clip-path="url(#pd9d3854f2f)" d="M 467.54 109.385 
C 467.54 108.370936 467.113014 107.397368 466.353782 106.680317 
C 465.594551 105.963265 464.563715 105.56 463.49 105.56 
C 462.416285 105.56 461.385449 105.963265 460.626218 106.680317 
C 459.866986 107.397368 459.44 108.370936 459.44 109.385 
" style="fill:none;stroke:#000000;stroke-linejoin:miter;stroke-width:1.5;"/>
   </g>
   <g id="patch_5">
    <path clip-path="url(#pd9d3854f2f)" d="M 475.64 109.385 
C 475.64 108.370936 475.213014 107.397368 474.453782 106.680317 
C 473.694551 105.963265 472.663715 105.56 471.59 105.56 
C 470.516285 105.56 469.485449 105.963265 468.726218 106.680317 
C 467.966986 107.397368 467.54 108.370936 467.54 109.385 
" style="fill:none;stroke:#000000;stroke-linejoin:miter;stroke-width:1.5;"/>
   </g>
   <g id="patch_6">
    <path clip-path="url(#pd9d3854f2f)" d="M 483.74 109.385 
C 483.74 108.370936 483.313014 107.397368 482.553782 106.680317 
C 481.794551 105.963265 480.763715 105.56 479.69 105.56 
C 478.616285 105.56 477.585449 105.963265 476.826218 106.680317 
C 476.066986 107.397368 475.64 108.370936 475.64 109.385 
" style="fill:none;stroke:#000000;stroke-linejoin:miter;stroke-width:1.5;"/>
   </g>
   <g id="patch_7">
    <path clip-path="url(#pd9d3854f2f)" d="M 491.84 109.385 
C 491.84 108.370936 491.413014 107.397368 490.653782 106.680317 
C 489.894551 105.963265 488.863715 105.56 487.79 105.56 
C 486.716285 105.56 485.685449 105.963265 484.926218 106.680317 
C 484.166986 107.397368 483.74 108.370936 483.74 109.385 
" style="fill:none;stroke:#000000;stroke-linejoin:miter;stroke-width:1.5;"/>
   </g>
   <g id="patch_8">
    <path clip-path="url(#pd9d3854f2f)" d="M 224.54 30.335 
L 223.589576 36.661102 
L 221.839212 35.898123 
L 208.354709 63.491412 
L 208.325291 63.478588 
L 221.809794 35.8853 
L 220.05943 35.122321 
z
" style="stroke:#000000;stroke-linejoin:miter;stroke-width:1.5;"/>
   </g>
   <g id="patch_9">
    <path clip-path="url(#pd9d3854f2f)" d="M 486.17 206.9225 
L 484.642884 213.147059 
L 482.969085 212.243739 
L 478.084066 220.317591 
L 478.055934 220.302409 
L 482.940954 212.228557 
L 481.267155 211.325237 
z
" style="stroke:#000000;stroke-linejoin:miter;stroke-width:1.5;"/>
   </g>
   <g id="patch_10">
    <path clip-path="url(#pd9d3854f2f)" d="M 478.88 206.9225 
L 477.352884 213.147059 
L 475.679085 212.243739 
L 470.794066 220.317591 
L 470.765934 220.302409 
L 475.650954 212.228557 
L 473.977155 211.325237 
z
" style="stroke:#000000;stroke-linejoin:miter;stroke-width:1.5;"/>
   </g>
   <g id="patch_11">
    <path clip-path="url(#pd9d3854f2f)" d="M 77.126954 265.718617 
L 79.183409 267.553713 
L 78.154429 267.966121 
L 77.759862 267.088002 
L 77.730037 267.099955 
L 78.124604 267.978075 
L 77.095625 268.390483 
z
" style="stroke:#000000;stroke-linejoin:miter;stroke-width:1.5;"/>
   </g>
   <g id="patch_12">
    <path clip-path="url(#pd9d3854f2f)" d="M 71.037746 267.81178 
L 73.094201 269.646876 
L 72.065221 270.059284 
L 71.670654 269.181165 
L 71.640828 269.193119 
L 72.035396 270.071238 
L 71.006417 270.483646 
z
" style="stroke:#000000;stroke-linejoin:miter;stroke-width:1.5;"/>
   </g>
   <g id="patch_13">
    <path clip-path="url(#pd9d3854f2f)" d="M 216.18425 279.075233 
L 214.127796 277.240137 
L 215.156775 276.827728 
L 215.551343 277.705847 
L 215.581168 277.693894 
L 215.186601 276.815774 
L 216.21558 276.403366 
z
" style="stroke:#000000;stroke-linejoin:miter;stroke-width:1.5;"/>
   </g>
   <g id="patch_14">
    <path clip-path="url(#pd9d3854f2f)" d="M 210.095042 281.168396 
L 208.038588 279.3333 
L 209.067567 278.920892 
L 209.462134 279.799011 
L 209.49196 279.787057 
L 209.097392 278.908938 
L 210.126372 278.49653 
z
" style="stroke:#000000;stroke-linejoin:miter;stroke-width:1.5;"/>
   </g>
   <g id="line2d_1">
    <path clip-path="url(#pd9d3854f2f)" d="M 38.24 48.185 
L 70.64 48.185 
L 73.34 40.535 
L 78.74 55.835 
L 84.14 40.535 
L 89.54 55.835 
L 94.94 40.535 
L 100.34 55.835 
L 103.04 48.185 
L 135.44 48.185 
" style="fill:none;stroke:#000000;stroke-linecap:round;stroke-width:1.5;"/>
   </g>
   <g id="line2d_2">
    <path clip-path="url(#pd9d3854f2f)" d="M 167.84 48.185 
L 200.24 48.185 
L 202.94 40.535 
L 208.34 55.835 
L 213.74 40.535 
L 219.14 55.835 
L 224.54 40.535 
L 229.94 55.835 
L 232.64 48.185 
L 265.04 48.185 
" style="fill:none;stroke:#000000;stroke-linecap:round;stroke-width:1.5;"/>
   </g>
   <g id="line2d_3">
    <path clip-path="url(#pd9d3854f2f)" d="M 208.34 63.485 
L 224.54 30.335 
" style="fill:none;stroke:#000000;stroke-linecap:round;stroke-width:1.5;"/>
   </g>
   <g id="line2d_4">
    <path clip-path="url(#pd9d3854f2f)" d="M 297.44 48.185 
L 329.84 48.185 
L 329.84 40.535 
L 362.24 40.535 
L 362.24 55.835 
L 329.84 55.835 
L 329.84 48.185 
M 362.24 48.185 
L 394.64 48.185 
" style="fill:none;stroke:#000000;stroke-linecap:round;stroke-width:1.5;"/>
   </g>
   <g id="line2d_5">
    <path clip-path="url(#pd9d3854f2f)" d="M 427.04 48.185 
L 472.724 48.185 
M 472.724 40.535 
L 472.724 55.835 
M 478.556 40.535 
L 478.556 55.835 
M 478.556 48.185 
L 524.24 48.185 
" style="fill:none;stroke:#000000;stroke-linecap:round;stroke-width:1.5;"/>
   </g>
   <g id="line2d_6">
    <path clip-path="url(#pd9d3854f2f)" d="M 38.24 109.385 
L 83.924 109.385 
M 83.924 101.735 
L 83.924 117.035 
M 89.756 109.385 
L 135.44 109.385 
" style="fill:none;stroke:#000000;stroke-linecap:round;stroke-width:1.5;"/>
   </g>
   <g id="line2d_7">
    <path clip-path="url(#pd9d3854f2f)" d="M 167.84 109.385 
L 213.524 109.385 
M 213.524 101.735 
L 213.524 117.035 
M 219.356 101.735 
L 219.356 117.035 
M 219.356 109.385 
L 265.04 109.385 
" style="fill:none;stroke:#000000;stroke-linecap:round;stroke-width:1.5;"/>
   </g>
   <g id="line2d_8">
    <path clip-path="url(#pd9d3854f2f)" d="M 297.44 109.385 
L 343.124 109.385 
M 343.124 101.735 
L 343.124 117.035 
M 348.956 109.385 
L 394.64 109.385 
" style="fill:none;stroke:#000000;stroke-linecap:round;stroke-width:1.5;"/>
   </g>
   <g id="line2d_9">
    <path clip-path="url(#pd9d3854f2f)" d="M 427.04 109.385 
L 459.44 109.385 
M 491.84 109.385 
L 524.24 109.385 
" style="fill:none;stroke:#000000;stroke-linecap:round;stroke-width:1.5;"/>
   </g>
   <g id="line2d_10">
    <path clip-path="url(#pd9d3854f2f)" d="M 38.24 170.585 
L 70.64 170.585 
L 70.760663 168.065441 
L 71.127584 165.523159 
L 71.732601 163.171371 
L 72.547584 161.207317 
L 73.526792 159.79572 
L 74.059791 159.336201 
L 74.610712 159.054968 
L 75.170786 158.957948 
L 75.731048 159.047187 
L 76.282531 159.320803 
L 76.81645 159.77303 
L 77.324395 160.394334 
L 78.231611 162.088506 
L 78.950702 164.26123 
L 79.443972 166.730284 
L 79.69266 169.288592 
L 79.698521 171.721592 
L 79.483675 173.825233 
L 79.088751 175.423086 
L 78.569483 176.381141 
L 78.283635 176.59282 
L 77.992031 176.619047 
L 77.703658 176.459268 
L 77.427437 176.116851 
L 76.945663 174.916673 
L 76.609727 173.119168 
L 76.470413 170.875092 
L 76.562017 168.372651 
L 76.899467 165.821721 
L 77.477073 163.436245 
L 78.269004 161.416289 
L 79.231451 159.931263 
L 79.758892 159.430338 
L 80.306308 159.105715 
L 80.865002 158.964236 
L 81.426039 159.008882 
L 81.980434 159.238713 
L 82.519344 159.648885 
L 83.034251 160.230752 
L 83.517142 160.972048 
L 84.358359 162.8674 
L 84.995054 165.17598 
L 85.396441 167.704171 
L 85.551467 170.239937 
L 85.469741 172.570608 
L 85.180728 174.500714 
L 84.731279 175.86838 
L 84.181699 176.558902 
L 83.890656 176.62975 
L 83.600692 176.514367 
L 83.320758 176.215184 
L 82.825554 175.094389 
L 82.469189 173.361362 
L 82.304161 171.161451 
L 82.366922 168.679159 
L 82.674819 166.122672 
L 83.224641 163.706398 
L 83.992886 161.632987 
L 84.937734 160.076332 
L 85.459142 159.534609 
L 86.002552 159.166988 
L 86.559352 158.981221 
L 87.120648 158.981221 
L 87.677448 159.166988 
L 88.220858 159.534609 
L 88.742266 160.076332 
L 89.233522 160.780741 
L 90.096321 162.615107 
L 90.759502 164.88386 
L 91.190058 167.396724 
L 91.37449 169.942948 
L 91.31994 172.308985 
L 91.053595 174.2964 
L 90.620404 175.738509 
L 90.079308 176.514367 
L 89.789344 176.62975 
L 89.498301 176.558902 
L 89.215157 176.303316 
L 88.70745 175.263261 
L 88.331415 173.596812 
L 88.141199 171.443732 
L 88.175368 168.984596 
L 88.453666 166.425649 
L 88.975364 163.981504 
L 89.71932 161.85715 
L 90.645749 160.230752 
L 91.160656 159.648885 
L 91.699566 159.238713 
L 92.253961 159.008882 
L 92.814998 158.964236 
L 93.373692 159.105715 
L 93.921108 159.430338 
L 94.448549 159.931263 
L 94.947739 160.597931 
L 95.831399 162.369088 
L 96.52059 164.595266 
L 96.980119 167.089758 
L 97.19406 169.643356 
L 97.167079 172.041894 
L 96.924052 174.084208 
L 96.50797 175.599014 
L 95.976342 176.459268 
L 95.687969 176.619047 
L 95.396365 176.59282 
L 95.110517 176.381141 
L 94.839292 175.98847 
L 94.374456 174.696905 
L 94.063452 172.826445 
L 93.954975 170.533964 
L 94.080734 168.011727 
L 94.452792 165.471272 
L 95.062558 163.125662 
L 95.881501 161.171621 
L 96.86355 159.77303 
L 97.397469 159.320803 
L 97.948952 159.047187 
L 98.509214 158.957948 
L 99.069288 159.054968 
L 99.620209 159.336201 
L 100.153208 159.79572 
L 100.659889 160.423838 
L 101.563669 162.129641 
L 102.27836 164.310547 
L 102.766633 166.783647 
L 103.01015 169.341525 
L 103.04 170.585 
L 135.44 170.585 
L 135.44 170.585 
" style="fill:none;stroke:#000000;stroke-linecap:round;stroke-width:1.5;"/>
   </g>
   <g id="line2d_11">
    <path clip-path="url(#pd9d3854f2f)" d="M 167.84 170.585 
L 210.77 170.585 
M 222.11 162.935 
L 222.11 178.235 
M 222.11 170.585 
L 265.04 170.585 
" style="fill:none;stroke:#000000;stroke-linecap:round;stroke-width:1.5;"/>
   </g>
   <g id="line2d_12">
    <path clip-path="url(#pd9d3854f2f)" d="M 297.44 170.585 
L 340.37 170.585 
M 351.71 162.935 
L 351.71 178.235 
M 351.71 170.585 
L 394.64 170.585 
" style="fill:none;stroke:#000000;stroke-linecap:round;stroke-width:1.5;"/>
   </g>
   <g id="line2d_13">
    <path clip-path="url(#pd9d3854f2f)" d="M 427.04 170.585 
L 469.97 170.585 
M 481.31 162.935 
L 481.31 178.235 
M 481.31 170.585 
L 524.24 170.585 
" style="fill:none;stroke:#000000;stroke-linecap:round;stroke-width:1.5;"/>
   </g>
   <g id="line2d_14">
    <path clip-path="url(#pd9d3854f2f)" d="M 481.31 162.935 
L 478.07 162.935 
L 478.07 165.995 
" style="fill:none;stroke:#000000;stroke-linecap:round;stroke-width:1.5;"/>
   </g>
   <g id="line2d_15">
    <path clip-path="url(#pd9d3854f2f)" d="M 481.31 178.235 
L 484.55 178.235 
L 484.55 175.175 
" style="fill:none;stroke:#000000;stroke-linecap:round;stroke-width:1.5;"/>
   </g>
   <g id="line2d_16">
    <path clip-path="url(#pd9d3854f2f)" d="M 38.24 231.785 
L 81.17 231.785 
M 92.51 224.135 
L 92.51 239.435 
M 92.51 231.785 
L 135.44 231.785 
" style="fill:none;stroke:#000000;stroke-linecap:round;stroke-width:1.5;"/>
   </g>
   <g id="line2d_17">
    <path clip-path="url(#pd9d3854f2f)" d="M 92.51 224.135 
L 89.27 224.135 
L 89.27 227.195 
" style="fill:none;stroke:#000000;stroke-linecap:round;stroke-width:1.5;"/>
   </g>
   <g id="line2d_18">
    <path clip-path="url(#pd9d3854f2f)" d="M 92.51 239.435 
L 95.75 239.435 
L 95.75 236.375 
" style="fill:none;stroke:#000000;stroke-linecap:round;stroke-width:1.5;"/>
   </g>
   <g id="line2d_19">
    <path clip-path="url(#pd9d3854f2f)" d="M 167.84 231.785 
L 210.77 231.785 
M 222.11 224.135 
L 222.11 239.435 
M 222.11 231.785 
L 265.04 231.785 
" style="fill:none;stroke:#000000;stroke-linecap:round;stroke-width:1.5;"/>
   </g>
   <g id="line2d_20">
    <path clip-path="url(#pd9d3854f2f)" d="M 222.11 224.135 
L 225.35 221.075 
" style="fill:none;stroke:#000000;stroke-linecap:round;stroke-width:1.5;"/>
   </g>
   <g id="line2d_21">
    <path clip-path="url(#pd9d3854f2f)" d="M 222.11 239.435 
L 218.87 242.495 
" style="fill:none;stroke:#000000;stroke-linecap:round;stroke-width:1.5;"/>
   </g>
   <g id="line2d_22">
    <path clip-path="url(#pd9d3854f2f)" d="M 297.44 231.785 
L 340.37 231.785 
M 351.71 224.135 
L 351.71 239.435 
M 351.71 231.785 
L 394.64 231.785 
" style="fill:none;stroke:#000000;stroke-linecap:round;stroke-width:1.5;"/>
   </g>
   <g id="line2d_23">
    <path clip-path="url(#pd9d3854f2f)" d="M 351.71 224.135 
L 354.95 221.075 
" style="fill:none;stroke:#000000;stroke-linecap:round;stroke-width:1.5;"/>
   </g>
   <g id="line2d_24">
    <path clip-path="url(#pd9d3854f2f)" d="M 351.71 239.435 
L 348.47 242.495 
" style="fill:none;stroke:#000000;stroke-linecap:round;stroke-width:1.5;"/>
   </g>
   <g id="line2d_25">
    <path clip-path="url(#pd9d3854f2f)" d="M 427.04 231.785 
L 469.97 231.785 
M 481.31 224.135 
L 481.31 239.435 
M 481.31 231.785 
L 524.24 231.785 
" style="fill:none;stroke:#000000;stroke-linecap:round;stroke-width:1.5;"/>
   </g>
   <g id="line2d_26">
    <path clip-path="url(#pd9d3854f2f)" d="M 478.07 220.31 
L 486.17 206.9225 
" style="fill:none;stroke:#000000;stroke-linecap:round;stroke-width:1.5;"/>
   </g>
   <g id="line2d_27">
    <path clip-path="url(#pd9d3854f2f)" d="M 38.24 292.985 
L 81.17 292.985 
M 92.51 285.335 
L 92.51 300.635 
M 92.51 292.985 
L 135.44 292.985 
" style="fill:none;stroke:#000000;stroke-linecap:round;stroke-width:1.5;"/>
   </g>
   <g id="line2d_28">
    <path clip-path="url(#pd9d3854f2f)" d="M 77.126954 265.718617 
L 77.744949 267.093979 
L 78.309821 268.331493 
L 78.823829 269.437027 
L 79.289235 270.416444 
L 79.708299 271.275612 
L 80.083281 272.020397 
L 80.416443 272.656663 
L 80.710045 273.190277 
L 80.966347 273.627104 
L 81.18761 273.973011 
L 81.376095 274.233863 
L 81.534062 274.415527 
L 81.663772 274.523867 
L 81.767485 274.564751 
L 81.847463 274.544043 
L 81.905964 274.467609 
L 81.945251 274.341316 
L 81.967583 274.171029 
L 81.975222 273.962614 
L 81.970427 273.721937 
L 81.95546 273.454864 
L 81.932581 273.16726 
L 81.90405 272.864992 
L 81.872128 272.553925 
L 81.839076 272.239925 
L 81.807155 271.928857 
L 81.778624 271.626589 
L 81.755745 271.338985 
L 81.740778 271.071912 
L 81.735983 270.831235 
L 81.743622 270.62282 
L 81.765954 270.452533 
L 81.805241 270.32624 
L 81.863742 270.249806 
L 81.943719 270.229098 
L 82.047432 270.269982 
L 82.177142 270.378322 
L 82.335109 270.559986 
L 82.523594 270.820838 
L 82.744857 271.166745 
L 83.00116 271.603572 
L 83.294762 272.137186 
L 83.627923 272.773452 
L 84.002906 273.518237 
L 84.42197 274.377405 
L 84.887376 275.356822 
L 85.401384 276.462356 
L 85.966255 277.699871 
L 86.58425 279.075233 
" style="fill:none;stroke:#000000;stroke-linecap:round;stroke-width:1.5;"/>
   </g>
   <g id="line2d_29">
    <path clip-path="url(#pd9d3854f2f)" d="M 71.037746 267.81178 
L 71.655741 269.187142 
L 72.220612 270.424657 
L 72.734621 271.53019 
L 73.200026 272.509608 
L 73.61909 273.368776 
L 73.994073 274.11356 
L 74.327235 274.749826 
L 74.620837 275.28344 
L 74.877139 275.720267 
L 75.098402 276.066174 
L 75.286887 276.327027 
L 75.444854 276.50869 
L 75.574564 276.617031 
L 75.678277 276.657914 
L 75.758254 276.637206 
L 75.816756 276.560772 
L 75.856043 276.434479 
L 75.878375 276.264192 
L 75.886013 276.055777 
L 75.881219 275.8151 
L 75.866252 275.548027 
L 75.843372 275.260423 
L 75.814842 274.958155 
L 75.78292 274.647088 
L 75.749868 274.333088 
L 75.717947 274.022021 
L 75.689416 273.719752 
L 75.666537 273.432149 
L 75.651569 273.165075 
L 75.646775 272.924398 
L 75.654413 272.715983 
L 75.676746 272.545696 
L 75.716032 272.419403 
L 75.774534 272.34297 
L 75.854511 272.322262 
L 75.958224 272.363145 
L 76.087934 272.471485 
L 76.245901 272.653149 
L 76.434386 272.914001 
L 76.655649 273.259908 
L 76.911952 273.696736 
L 77.205553 274.23035 
L 77.538715 274.866616 
L 77.913698 275.6114 
L 78.332762 276.470568 
L 78.798168 277.449986 
L 79.312176 278.555519 
L 79.877047 279.793034 
L 80.495042 281.168396 
" style="fill:none;stroke:#000000;stroke-linecap:round;stroke-width:1.5;"/>
   </g>
   <g id="line2d_30">
    <path clip-path="url(#pd9d3854f2f)" d="M 167.84 292.985 
L 210.77 292.985 
M 222.11 285.335 
L 222.11 300.635 
M 222.11 292.985 
L 265.04 292.985 
" style="fill:none;stroke:#000000;stroke-linecap:round;stroke-width:1.5;"/>
   </g>
   <g id="line2d_31">
    <path clip-path="url(#pd9d3854f2f)" d="M 206.726954 265.718617 
L 207.344949 267.093979 
L 207.909821 268.331493 
L 208.423829 269.437027 
L 208.889235 270.416444 
L 209.308299 271.275612 
L 209.683281 272.020397 
L 210.016443 272.656663 
L 210.310045 273.190277 
L 210.566347 273.627104 
L 210.78761 273.973011 
L 210.976095 274.233863 
L 211.134062 274.415527 
L 211.263772 274.523867 
L 211.367485 274.564751 
L 211.447463 274.544043 
L 211.505964 274.467609 
L 211.545251 274.341316 
L 211.567583 274.171029 
L 211.575222 273.962614 
L 211.570427 273.721937 
L 211.55546 273.454864 
L 211.532581 273.16726 
L 211.50405 272.864992 
L 211.472128 272.553925 
L 211.439076 272.239925 
L 211.407155 271.928857 
L 211.378624 271.626589 
L 211.355745 271.338985 
L 211.340778 271.071912 
L 211.335983 270.831235 
L 211.343622 270.62282 
L 211.365954 270.452533 
L 211.405241 270.32624 
L 211.463742 270.249806 
L 211.543719 270.229098 
L 211.647432 270.269982 
L 211.777142 270.378322 
L 211.935109 270.559986 
L 212.123594 270.820838 
L 212.344857 271.166745 
L 212.60116 271.603572 
L 212.894762 272.137186 
L 213.227923 272.773452 
L 213.602906 273.518237 
L 214.02197 274.377405 
L 214.487376 275.356822 
L 215.001384 276.462356 
L 215.566255 277.699871 
L 216.18425 279.075233 
" style="fill:none;stroke:#000000;stroke-linecap:round;stroke-width:1.5;"/>
   </g>
   <g id="line2d_32">
    <path clip-path="url(#pd9d3854f2f)" d="M 200.637746 267.81178 
L 201.255741 269.187142 
L 201.820612 270.424657 
L 202.334621 271.53019 
L 202.800026 272.509608 
L 203.21909 273.368776 
L 203.594073 274.11356 
L 203.927235 274.749826 
L 204.220837 275.28344 
L 204.477139 275.720267 
L 204.698402 276.066174 
L 204.886887 276.327027 
L 205.044854 276.50869 
L 205.174564 276.617031 
L 205.278277 276.657914 
L 205.358254 276.637206 
L 205.416756 276.560772 
L 205.456043 276.434479 
L 205.478375 276.264192 
L 205.486013 276.055777 
L 205.481219 275.8151 
L 205.466252 275.548027 
L 205.443372 275.260423 
L 205.414842 274.958155 
L 205.38292 274.647088 
L 205.349868 274.333088 
L 205.317947 274.022021 
L 205.289416 273.719752 
L 205.266537 273.432149 
L 205.251569 273.165075 
L 205.246775 272.924398 
L 205.254413 272.715983 
L 205.276746 272.545696 
L 205.316032 272.419403 
L 205.374534 272.34297 
L 205.454511 272.322262 
L 205.558224 272.363145 
L 205.687934 272.471485 
L 205.845901 272.653149 
L 206.034386 272.914001 
L 206.255649 273.259908 
L 206.511952 273.696736 
L 206.805553 274.23035 
L 207.138715 274.866616 
L 207.513698 275.6114 
L 207.932762 276.470568 
L 208.398168 277.449986 
L 208.912176 278.555519 
L 209.477047 279.793034 
L 210.095042 281.168396 
" style="fill:none;stroke:#000000;stroke-linecap:round;stroke-width:1.5;"/>
   </g>
   <g id="line2d_33">
    <path clip-path="url(#pd9d3854f2f)" d="M 297.44 292.985 
L 339.56 292.985 
M 339.56 285.335 
L 339.56 300.635 
M 342.8 285.335 
L 342.8 300.635 
L 349.28 300.635 
L 349.28 285.335 
L 342.8 285.335 
M 352.52 285.335 
L 352.52 300.635 
M 352.52 292.985 
L 394.64 292.985 
" style="fill:none;stroke:#000000;stroke-linecap:round;stroke-width:1.5;"/>
   </g>
   <g id="line2d_34">
    <path clip-path="url(#pd9d3854f2f)" d="M 427.04 292.985 
L 459.44 292.985 
L 465.92 292.985 
L 465.92 297.575 
L 472.4 297.575 
L 472.4 288.395 
L 478.88 288.395 
L 478.88 297.575 
L 485.36 297.575 
L 485.36 292.985 
L 491.84 292.985 
L 524.24 292.985 
" style="fill:none;stroke:#000000;stroke-linecap:round;stroke-width:1.5;"/>
   </g>
   <g id="line2d_35">
    <path clip-path="url(#pd9d3854f2f)" d="M 459.44 285.335 
L 491.84 285.335 
L 491.84 300.635 
L 459.44 300.635 
L 459.44 285.335 
" style="fill:none;stroke:#000000;stroke-linecap:round;stroke-width:1.5;"/>
   </g>
   <g id="line2d_36">
    <path clip-path="url(#pd9d3854f2f)" d="M 38.24 354.185 
L 64.16 354.185 
L 64.16 346.535 
L 70.64 346.535 
L 70.64 361.835 
L 77.12 361.835 
L 77.12 346.535 
L 83.6 346.535 
L 83.6 361.835 
L 90.08 361.835 
L 90.08 346.535 
L 96.56 346.535 
L 96.56 361.835 
L 103.04 361.835 
L 103.04 354.185 
L 109.52 354.185 
L 135.44 354.185 
" style="fill:none;stroke:#000000;stroke-linecap:round;stroke-width:1.5;"/>
   </g>
   <g id="line2d_37">
    <path clip-path="url(#pd9d3854f2f)" d="M 167.84 354.185 
L 216.44 354.185 
M 208.34 346.535 
L 224.54 361.835 
M 224.54 346.535 
L 208.34 361.835 
M 216.44 354.185 
L 265.04 354.185 
" style="fill:none;stroke:#000000;stroke-linecap:round;stroke-width:1.5;"/>
   </g>
   <g id="patch_15">
    <path clip-path="url(#pd9d3854f2f)" d="M 210.77 162.935 
L 222.11 170.585 
L 210.77 178.235 
z
" style="fill:none;stroke:#000000;stroke-linejoin:miter;stroke-width:1.5;"/>
   </g>
   <g id="patch_16">
    <path clip-path="url(#pd9d3854f2f)" d="M 340.37 162.935 
L 351.71 170.585 
L 340.37 178.235 
z
" style="stroke:#000000;stroke-linejoin:miter;stroke-width:1.5;"/>
   </g>
   <g id="patch_17">
    <path clip-path="url(#pd9d3854f2f)" d="M 340.37 162.935 
L 351.71 170.585 
L 340.37 178.235 
z
" style="fill:none;stroke:#000000;stroke-linejoin:miter;stroke-width:1.5;"/>
   </g>
   <g id="patch_18">
    <path clip-path="url(#pd9d3854f2f)" d="M 469.97 162.935 
L 481.31 170.585 
L 469.97 178.235 
z
" style="fill:none;stroke:#000000;stroke-linejoin:miter;stroke-width:1.5;"/>
   </g>
   <g id="patch_19">
    <path clip-path="url(#pd9d3854f2f)" d="M 81.17 224.135 
L 92.51 231.785 
L 81.17 239.435 
z
" style="stroke:#000000;stroke-linejoin:miter;stroke-width:1.5;"/>
   </g>
   <g id="patch_20">
    <path clip-path="url(#pd9d3854f2f)" d="M 81.17 224.135 
L 92.51 231.785 
L 81.17 239.435 
z
" style="fill:none;stroke:#000000;stroke-linejoin:miter;stroke-width:1.5;"/>
   </g>
   <g id="patch_21">
    <path clip-path="url(#pd9d3854f2f)" d="M 210.77 224.135 
L 222.11 231.785 
L 210.77 239.435 
z
" style="fill:none;stroke:#000000;stroke-linejoin:miter;stroke-width:1.5;"/>
   </g>
   <g id="patch_22">
    <path clip-path="url(#pd9d3854f2f)" d="M 340.37 224.135 
L 351.71 231.785 
L 340.37 239.435 
z
" style="stroke:#000000;stroke-linejoin:miter;stroke-width:1.5;"/>
   </g>
   <g id="patch_23">
    <path clip-path="url(#pd9d3854f2f)" d="M 340.37 224.135 
L 351.71 231.785 
L 340.37 239.435 
z
" style="fill:none;stroke:#000000;stroke-linejoin:miter;stroke-width:1.5;"/>
   </g>
   <g id="patch_24">
    <path clip-path="url(#pd9d3854f2f)" d="M 469.97 224.135 
L 481.31 231.785 
L 469.97 239.435 
z
" style="fill:none;stroke:#000000;stroke-linejoin:miter;stroke-width:1.5;"/>
   </g>
   <g id="patch_25">
    <path clip-path="url(#pd9d3854f2f)" d="M 81.17 285.335 
L 92.51 292.985 
L 81.17 300.635 
z
" style="fill:none;stroke:#000000;stroke-linejoin:miter;stroke-width:1.5;"/>
   </g>
   <g id="patch_26">
    <path clip-path="url(#pd9d3854f2f)" d="M 210.77 285.335 
L 222.11 292.985 
L 210.77 300.635 
z
" style="fill:none;stroke:#000000;stroke-linejoin:miter;stroke-width:1.5;"/>
   </g>
   <g id="patch_27">
    <path clip-path="url(#pd9d3854f2f)" d="M 459.44 285.335 
L 459.44 300.635 
L 462.68 300.635 
L 462.68 285.335 
z
" style="stroke:#000000;stroke-linejoin:miter;stroke-width:1.5;"/>
   </g>
   <g id="text_1">
    <!-- RES -->
    <defs>
     <path d="M 44.390625 34.1875 
Q 47.5625 33.109375 50.5625 29.59375 
Q 53.5625 26.078125 56.59375 19.921875 
L 66.609375 0 
L 56 0 
L 46.6875 18.703125 
Q 43.0625 26.03125 39.671875 28.421875 
Q 36.28125 30.8125 30.421875 30.8125 
L 19.671875 30.8125 
L 19.671875 0 
L 9.8125 0 
L 9.8125 72.90625 
L 32.078125 72.90625 
Q 44.578125 72.90625 50.734375 67.671875 
Q 56.890625 62.453125 56.890625 51.90625 
Q 56.890625 45.015625 53.6875 40.46875 
Q 50.484375 35.9375 44.390625 34.1875 
z
M 19.671875 64.796875 
L 19.671875 38.921875 
L 32.078125 38.921875 
Q 39.203125 38.921875 42.84375 42.21875 
Q 46.484375 45.515625 46.484375 51.90625 
Q 46.484375 58.296875 42.84375 61.546875 
Q 39.203125 64.796875 32.078125 64.796875 
z
" id="DejaVuSans-52"/>
     <path d="M 9.8125 72.90625 
L 55.90625 72.90625 
L 55.90625 64.59375 
L 19.671875 64.59375 
L 19.671875 43.015625 
L 54.390625 43.015625 
L 54.390625 34.71875 
L 19.671875 34.71875 
L 19.671875 8.296875 
L 56.78125 8.296875 
L 56.78125 0 
L 9.8125 0 
z
" id="DejaVuSans-45"/>
     <path d="M 53.515625 70.515625 
L 53.515625 60.890625 
Q 47.90625 63.578125 42.921875 64.890625 
Q 37.9375 66.21875 33.296875 66.21875 
Q 25.25 66.21875 20.875 63.09375 
Q 16.5 59.96875 16.5 54.203125 
Q 16.5 49.359375 19.40625 46.890625 
Q 22.3125 44.4375 30.421875 42.921875 
L 36.375 41.703125 
Q 47.40625 39.59375 52.65625 34.296875 
Q 57.90625 29 57.90625 20.125 
Q 57.90625 9.515625 50.796875 4.046875 
Q 43.703125 -1.421875 29.984375 -1.421875 
Q 24.8125 -1.421875 18.96875 -0.25 
Q 13.140625 0.921875 6.890625 3.21875 
L 6.890625 13.375 
Q 12.890625 10.015625 18.65625 8.296875 
Q 24.421875 6.59375 29.984375 6.59375 
Q 38.421875 6.59375 43.015625 9.90625 
Q 47.609375 13.234375 47.609375 19.390625 
Q 47.609375 24.75 44.3125 27.78125 
Q 41.015625 30.8125 33.5 32.328125 
L 27.484375 33.5 
Q 16.453125 35.6875 11.515625 40.375 
Q 6.59375 45.0625 6.59375 53.421875 
Q 6.59375 63.09375 13.40625 68.65625 
Q 20.21875 74.21875 32.171875 74.21875 
Q 37.3125 74.21875 42.625 73.28125 
Q 47.953125 72.359375 53.515625 70.515625 
z
" id="DejaVuSans-53"/>
    </defs>
    <g transform="translate(75.070625 27.329375)scale(0.12 -0.12)">
     <use xlink:href="#DejaVuSans-52"/>
     <use x="69.482422" xlink:href="#DejaVuSans-45"/>
     <use x="132.666016" xlink:href="#DejaVuSans-53"/>
    </g>
   </g>
   <g id="text_2">
    <!-- RES_VAR -->
    <defs>
     <path d="M 50.984375 -16.609375 
L 50.984375 -23.578125 
L -0.984375 -23.578125 
L -0.984375 -16.609375 
z
" id="DejaVuSans-5f"/>
     <path d="M 28.609375 0 
L 0.78125 72.90625 
L 11.078125 72.90625 
L 34.1875 11.53125 
L 57.328125 72.90625 
L 67.578125 72.90625 
L 39.796875 0 
z
" id="DejaVuSans-56"/>
     <path d="M 34.1875 63.1875 
L 20.796875 26.90625 
L 47.609375 26.90625 
z
M 28.609375 72.90625 
L 39.796875 72.90625 
L 67.578125 0 
L 57.328125 0 
L 50.6875 18.703125 
L 17.828125 18.703125 
L 11.1875 0 
L 0.78125 0 
z
" id="DejaVuSans-41"/>
    </defs>
    <g transform="translate(189.298437 25.720625)scale(0.12 -0.12)">
     <use xlink:href="#DejaVuSans-52"/>
     <use x="69.482422" xlink:href="#DejaVuSans-45"/>
     <use x="132.666016" xlink:href="#DejaVuSans-53"/>
     <use x="196.142578" xlink:href="#DejaVuSans-5f"/>
     <use x="246.142578" xlink:href="#DejaVuSans-56"/>
     <use x="314.457031" xlink:href="#DejaVuSans-41"/>
     <use x="382.865234" xlink:href="#DejaVuSans-52"/>
    </g>
   </g>
   <g id="text_3">
    <!-- RBOX -->
    <defs>
     <path d="M 19.671875 34.8125 
L 19.671875 8.109375 
L 35.5 8.109375 
Q 43.453125 8.109375 47.28125 11.40625 
Q 51.125 14.703125 51.125 21.484375 
Q 51.125 28.328125 47.28125 31.5625 
Q 43.453125 34.8125 35.5 34.8125 
z
M 19.671875 64.796875 
L 19.671875 42.828125 
L 34.28125 42.828125 
Q 41.5 42.828125 45.03125 45.53125 
Q 48.578125 48.25 48.578125 53.8125 
Q 48.578125 59.328125 45.03125 62.0625 
Q 41.5 64.796875 34.28125 64.796875 
z
M 9.8125 72.90625 
L 35.015625 72.90625 
Q 46.296875 72.90625 52.390625 68.21875 
Q 58.5 63.53125 58.5 54.890625 
Q 58.5 48.1875 55.375 44.234375 
Q 52.25 40.28125 46.1875 39.3125 
Q 53.46875 37.75 57.5 32.78125 
Q 61.53125 27.828125 61.53125 20.40625 
Q 61.53125 10.640625 54.890625 5.3125 
Q 48.25 0 35.984375 0 
L 9.8125 0 
z
" id="DejaVuSans-42"/>
     <path d="M 39.40625 66.21875 
Q 28.65625 66.21875 22.328125 58.203125 
Q 16.015625 50.203125 16.015625 36.375 
Q 16.015625 22.609375 22.328125 14.59375 
Q 28.65625 6.59375 39.40625 6.59375 
Q 50.140625 6.59375 56.421875 14.59375 
Q 62.703125 22.609375 62.703125 36.375 
Q 62.703125 50.203125 56.421875 58.203125 
Q 50.140625 66.21875 39.40625 66.21875 
z
M 39.40625 74.21875 
Q 54.734375 74.21875 63.90625 63.9375 
Q 73.09375 53.65625 73.09375 36.375 
Q 73.09375 19.140625 63.90625 8.859375 
Q 54.734375 -1.421875 39.40625 -1.421875 
Q 24.03125 -1.421875 14.8125 8.828125 
Q 5.609375 19.09375 5.609375 36.375 
Q 5.609375 53.65625 14.8125 63.9375 
Q 24.03125 74.21875 39.40625 74.21875 
z
" id="DejaVuSans-4f"/>
     <path d="M 6.296875 72.90625 
L 16.890625 72.90625 
L 35.015625 45.796875 
L 53.21875 72.90625 
L 63.8125 72.90625 
L 40.375 37.890625 
L 65.375 0 
L 54.78125 0 
L 34.28125 31 
L 13.625 0 
L 2.984375 0 
L 29 38.921875 
z
" id="DejaVuSans-58"/>
    </defs>
    <g transform="translate(328.927812 27.329375)scale(0.12 -0.12)">
     <use xlink:href="#DejaVuSans-52"/>
     <use x="69.482422" xlink:href="#DejaVuSans-42"/>
     <use x="138.070312" xlink:href="#DejaVuSans-4f"/>
     <use x="216.6875" xlink:href="#DejaVuSans-58"/>
    </g>
   </g>
   <g id="text_4">
    <!-- CAP -->
    <defs>
     <path d="M 64.40625 67.28125 
L 64.40625 56.890625 
Q 59.421875 61.53125 53.78125 63.8125 
Q 48.140625 66.109375 41.796875 66.109375 
Q 29.296875 66.109375 22.65625 58.46875 
Q 16.015625 50.828125 16.015625 36.375 
Q 16.015625 21.96875 22.65625 14.328125 
Q 29.296875 6.6875 41.796875 6.6875 
Q 48.140625 6.6875 53.78125 8.984375 
Q 59.421875 11.28125 64.40625 15.921875 
L 64.40625 5.609375 
Q 59.234375 2.09375 53.4375 0.328125 
Q 47.65625 -1.421875 41.21875 -1.421875 
Q 24.65625 -1.421875 15.125 8.703125 
Q 5.609375 18.84375 5.609375 36.375 
Q 5.609375 53.953125 15.125 64.078125 
Q 24.65625 74.21875 41.21875 74.21875 
Q 47.75 74.21875 53.53125 72.484375 
Q 59.328125 70.75 64.40625 67.28125 
z
" id="DejaVuSans-43"/>
     <path d="M 19.671875 64.796875 
L 19.671875 37.40625 
L 32.078125 37.40625 
Q 38.96875 37.40625 42.71875 40.96875 
Q 46.484375 44.53125 46.484375 51.125 
Q 46.484375 57.671875 42.71875 61.234375 
Q 38.96875 64.796875 32.078125 64.796875 
z
M 9.8125 72.90625 
L 32.078125 72.90625 
Q 44.34375 72.90625 50.609375 67.359375 
Q 56.890625 61.8125 56.890625 51.125 
Q 56.890625 40.328125 50.609375 34.8125 
Q 44.34375 29.296875 32.078125 29.296875 
L 19.671875 29.296875 
L 19.671875 0 
L 9.8125 0 
z
" id="DejaVuSans-50"/>
    </defs>
    <g transform="translate(463.728125 27.329375)scale(0.12 -0.12)">
     <use xlink:href="#DejaVuSans-43"/>
     <use x="69.824219" xlink:href="#DejaVuSans-41"/>
     <use x="138.232422" xlink:href="#DejaVuSans-50"/>
    </g>
   </g>
   <g id="text_5">
    <!-- CAP2 -->
    <defs>
     <path d="M 19.1875 8.296875 
L 53.609375 8.296875 
L 53.609375 0 
L 7.328125 0 
L 7.328125 8.296875 
Q 12.9375 14.109375 22.625 23.890625 
Q 32.328125 33.6875 34.8125 36.53125 
Q 39.546875 41.84375 41.421875 45.53125 
Q 43.3125 49.21875 43.3125 52.78125 
Q 43.3125 58.59375 39.234375 62.25 
Q 35.15625 65.921875 28.609375 65.921875 
Q 23.96875 65.921875 18.8125 64.3125 
Q 13.671875 62.703125 7.8125 59.421875 
L 7.8125 69.390625 
Q 13.765625 71.78125 18.9375 73 
Q 24.125 74.21875 28.421875 74.21875 
Q 39.75 74.21875 46.484375 68.546875 
Q 53.21875 62.890625 53.21875 53.421875 
Q 53.21875 48.921875 51.53125 44.890625 
Q 49.859375 40.875 45.40625 35.40625 
Q 44.1875 33.984375 37.640625 27.21875 
Q 31.109375 20.453125 19.1875 8.296875 
z
" id="DejaVuSans-32"/>
    </defs>
    <g transform="translate(71.110625 88.529375)scale(0.12 -0.12)">
     <use xlink:href="#DejaVuSans-43"/>
     <use x="69.824219" xlink:href="#DejaVuSans-41"/>
     <use x="138.232422" xlink:href="#DejaVuSans-50"/>
     <use x="198.535156" xlink:href="#DejaVuSans-32"/>
    </g>
   </g>
   <g id="text_6">
    <!-- CAP_P -->
    <g transform="translate(197.910312 88.195625)scale(0.12 -0.12)">
     <use xlink:href="#DejaVuSans-43"/>
     <use x="69.824219" xlink:href="#DejaVuSans-41"/>
     <use x="138.232422" xlink:href="#DejaVuSans-50"/>
     <use x="198.535156" xlink:href="#DejaVuSans-5f"/>
     <use x="248.535156" xlink:href="#DejaVuSans-50"/>
    </g>
   </g>
   <g id="text_7">
    <!-- + -->
    <defs>
     <path d="M 46 62.703125 
L 46 35.5 
L 73.1875 35.5 
L 73.1875 27.203125 
L 46 27.203125 
L 46 0 
L 37.796875 0 
L 37.796875 27.203125 
L 10.59375 27.203125 
L 10.59375 35.5 
L 37.796875 35.5 
L 37.796875 62.703125 
z
" id="DejaVuSans-2b"/>
    </defs>
    <g transform="translate(201.497787 107.18825)scale(0.12 -0.12)">
     <use xlink:href="#DejaVuSans-2b"/>
    </g>
   </g>
   <g id="text_8">
    <!-- CAP2_P -->
    <g transform="translate(323.692812 88.195625)scale(0.12 -0.12)">
     <use xlink:href="#DejaVuSans-43"/>
     <use x="69.824219" xlink:href="#DejaVuSans-41"/>
     <use x="138.232422" xlink:href="#DejaVuSans-50"/>
     <use x="198.535156" xlink:href="#DejaVuSans-32"/>
     <use x="262.158203" xlink:href="#DejaVuSans-5f"/>
     <use x="312.158203" xlink:href="#DejaVuSans-50"/>
    </g>
   </g>
   <g id="text_9">
    <!-- + -->
    <g transform="translate(331.097787 107.18825)scale(0.12 -0.12)">
     <use xlink:href="#DejaVuSans-2b"/>
    </g>
   </g>
   <g id="text_10">
    <!-- INDUCTOR -->
    <defs>
     <path d="M 9.8125 72.90625 
L 19.671875 72.90625 
L 19.671875 0 
L 9.8125 0 
z
" id="DejaVuSans-49"/>
     <path d="M 9.8125 72.90625 
L 23.09375 72.90625 
L 55.421875 11.921875 
L 55.421875 72.90625 
L 64.984375 72.90625 
L 64.984375 0 
L 51.703125 0 
L 19.390625 60.984375 
L 19.390625 0 
L 9.8125 0 
z
" id="DejaVuSans-4e"/>
     <path d="M 19.671875 64.796875 
L 19.671875 8.109375 
L 31.59375 8.109375 
Q 46.6875 8.109375 53.6875 14.9375 
Q 60.6875 21.78125 60.6875 36.53125 
Q 60.6875 51.171875 53.6875 57.984375 
Q 46.6875 64.796875 31.59375 64.796875 
z
M 9.8125 72.90625 
L 30.078125 72.90625 
Q 51.265625 72.90625 61.171875 64.09375 
Q 71.09375 55.28125 71.09375 36.53125 
Q 71.09375 17.671875 61.125 8.828125 
Q 51.171875 0 30.078125 0 
L 9.8125 0 
z
" id="DejaVuSans-44"/>
     <path d="M 8.6875 72.90625 
L 18.609375 72.90625 
L 18.609375 28.609375 
Q 18.609375 16.890625 22.84375 11.734375 
Q 27.09375 6.59375 36.625 6.59375 
Q 46.09375 6.59375 50.34375 11.734375 
Q 54.59375 16.890625 54.59375 28.609375 
L 54.59375 72.90625 
L 64.5 72.90625 
L 64.5 27.390625 
Q 64.5 13.140625 57.4375 5.859375 
Q 50.390625 -1.421875 36.625 -1.421875 
Q 22.796875 -1.421875 15.734375 5.859375 
Q 8.6875 13.140625 8.6875 27.390625 
z
" id="DejaVuSans-55"/>
     <path d="M -0.296875 72.90625 
L 61.375 72.90625 
L 61.375 64.59375 
L 35.5 64.59375 
L 35.5 0 
L 25.59375 0 
L 25.59375 64.59375 
L -0.296875 64.59375 
z
" id="DejaVuSans-54"/>
    </defs>
    <g transform="translate(443.623437 88.529375)scale(0.12 -0.12)">
     <use xlink:href="#DejaVuSans-49"/>
     <use x="29.492188" xlink:href="#DejaVuSans-4e"/>
     <use x="104.296875" xlink:href="#DejaVuSans-44"/>
     <use x="181.298828" xlink:href="#DejaVuSans-55"/>
     <use x="254.492188" xlink:href="#DejaVuSans-43"/>
     <use x="324.316406" xlink:href="#DejaVuSans-54"/>
     <use x="385.400391" xlink:href="#DejaVuSans-4f"/>
     <use x="464.111328" xlink:href="#DejaVuSans-52"/>
    </g>
   </g>
   <g id="text_11">
    <!-- INDUCTOR2 -->
    <g transform="translate(51.005937 146.938224)scale(0.12 -0.12)">
     <use xlink:href="#DejaVuSans-49"/>
     <use x="29.492188" xlink:href="#DejaVuSans-4e"/>
     <use x="104.296875" xlink:href="#DejaVuSans-44"/>
     <use x="181.298828" xlink:href="#DejaVuSans-55"/>
     <use x="254.492188" xlink:href="#DejaVuSans-43"/>
     <use x="324.316406" xlink:href="#DejaVuSans-54"/>
     <use x="385.400391" xlink:href="#DejaVuSans-4f"/>
     <use x="464.111328" xlink:href="#DejaVuSans-52"/>
     <use x="533.59375" xlink:href="#DejaVuSans-32"/>
    </g>
   </g>
   <g id="text_12">
    <!-- DIODE -->
    <g transform="translate(196.915625 149.729375)scale(0.12 -0.12)">
     <use xlink:href="#DejaVuSans-44"/>
     <use x="77.001953" xlink:href="#DejaVuSans-49"/>
     <use x="106.494141" xlink:href="#DejaVuSans-4f"/>
     <use x="185.205078" xlink:href="#DejaVuSans-44"/>
     <use x="262.207031" xlink:href="#DejaVuSans-45"/>
    </g>
   </g>
   <g id="text_13">
    <!-- DIODE_F -->
    <defs>
     <path d="M 9.8125 72.90625 
L 51.703125 72.90625 
L 51.703125 64.59375 
L 19.671875 64.59375 
L 19.671875 43.109375 
L 48.578125 43.109375 
L 48.578125 34.8125 
L 19.671875 34.8125 
L 19.671875 0 
L 9.8125 0 
z
" id="DejaVuSans-46"/>
    </defs>
    <g transform="translate(320.064687 149.395625)scale(0.12 -0.12)">
     <use xlink:href="#DejaVuSans-44"/>
     <use x="77.001953" xlink:href="#DejaVuSans-49"/>
     <use x="106.494141" xlink:href="#DejaVuSans-4f"/>
     <use x="185.205078" xlink:href="#DejaVuSans-44"/>
     <use x="262.207031" xlink:href="#DejaVuSans-45"/>
     <use x="325.390625" xlink:href="#DejaVuSans-5f"/>
     <use x="375.390625" xlink:href="#DejaVuSans-46"/>
    </g>
   </g>
   <g id="text_14">
    <!-- SCHOTTKY -->
    <defs>
     <path d="M 9.8125 72.90625 
L 19.671875 72.90625 
L 19.671875 43.015625 
L 55.515625 43.015625 
L 55.515625 72.90625 
L 65.375 72.90625 
L 65.375 0 
L 55.515625 0 
L 55.515625 34.71875 
L 19.671875 34.71875 
L 19.671875 0 
L 9.8125 0 
z
" id="DejaVuSans-48"/>
     <path d="M 9.8125 72.90625 
L 19.671875 72.90625 
L 19.671875 42.09375 
L 52.390625 72.90625 
L 65.09375 72.90625 
L 28.90625 38.921875 
L 67.671875 0 
L 54.6875 0 
L 19.671875 35.109375 
L 19.671875 0 
L 9.8125 0 
z
" id="DejaVuSans-4b"/>
     <path d="M -0.203125 72.90625 
L 10.40625 72.90625 
L 30.609375 42.921875 
L 50.6875 72.90625 
L 61.28125 72.90625 
L 35.5 34.71875 
L 35.5 0 
L 25.59375 0 
L 25.59375 34.71875 
z
" id="DejaVuSans-59"/>
    </defs>
    <g transform="translate(443.480937 149.729375)scale(0.12 -0.12)">
     <use xlink:href="#DejaVuSans-53"/>
     <use x="63.476562" xlink:href="#DejaVuSans-43"/>
     <use x="133.300781" xlink:href="#DejaVuSans-48"/>
     <use x="208.496094" xlink:href="#DejaVuSans-4f"/>
     <use x="287.207031" xlink:href="#DejaVuSans-54"/>
     <use x="348.275391" xlink:href="#DejaVuSans-54"/>
     <use x="409.359375" xlink:href="#DejaVuSans-4b"/>
     <use x="474.888672" xlink:href="#DejaVuSans-59"/>
    </g>
   </g>
   <g id="text_15">
    <!-- SCHOTTKY_F -->
    <g transform="translate(48.23 210.595625)scale(0.12 -0.12)">
     <use xlink:href="#DejaVuSans-53"/>
     <use x="63.476562" xlink:href="#DejaVuSans-43"/>
     <use x="133.300781" xlink:href="#DejaVuSans-48"/>
     <use x="208.496094" xlink:href="#DejaVuSans-4f"/>
     <use x="287.207031" xlink:href="#DejaVuSans-54"/>
     <use x="348.275391" xlink:href="#DejaVuSans-54"/>
     <use x="409.359375" xlink:href="#DejaVuSans-4b"/>
     <use x="474.888672" xlink:href="#DejaVuSans-59"/>
     <use x="535.972656" xlink:href="#DejaVuSans-5f"/>
     <use x="585.972656" xlink:href="#DejaVuSans-46"/>
    </g>
   </g>
   <g id="text_16">
    <!-- ZENER -->
    <defs>
     <path d="M 5.609375 72.90625 
L 62.890625 72.90625 
L 62.890625 65.375 
L 16.796875 8.296875 
L 64.015625 8.296875 
L 64.015625 0 
L 4.5 0 
L 4.5 7.515625 
L 50.59375 64.59375 
L 5.609375 64.59375 
z
" id="DejaVuSans-5a"/>
    </defs>
    <g transform="translate(196.089687 210.929375)scale(0.12 -0.12)">
     <use xlink:href="#DejaVuSans-5a"/>
     <use x="68.505859" xlink:href="#DejaVuSans-45"/>
     <use x="131.689453" xlink:href="#DejaVuSans-4e"/>
     <use x="206.494141" xlink:href="#DejaVuSans-45"/>
     <use x="269.677734" xlink:href="#DejaVuSans-52"/>
    </g>
   </g>
   <g id="text_17">
    <!-- ZENER_F -->
    <g transform="translate(319.23875 210.595625)scale(0.12 -0.12)">
     <use xlink:href="#DejaVuSans-5a"/>
     <use x="68.505859" xlink:href="#DejaVuSans-45"/>
     <use x="131.689453" xlink:href="#DejaVuSans-4e"/>
     <use x="206.494141" xlink:href="#DejaVuSans-45"/>
     <use x="269.677734" xlink:href="#DejaVuSans-52"/>
     <use x="339.160156" xlink:href="#DejaVuSans-5f"/>
     <use x="389.160156" xlink:href="#DejaVuSans-46"/>
    </g>
   </g>
   <g id="text_18">
    <!-- LED -->
    <defs>
     <path d="M 9.8125 72.90625 
L 19.671875 72.90625 
L 19.671875 8.296875 
L 55.171875 8.296875 
L 55.171875 0 
L 9.8125 0 
z
" id="DejaVuSans-4c"/>
    </defs>
    <g transform="translate(463.885625 202.323125)scale(0.12 -0.12)">
     <use xlink:href="#DejaVuSans-4c"/>
     <use x="55.712891" xlink:href="#DejaVuSans-45"/>
     <use x="118.896484" xlink:href="#DejaVuSans-44"/>
    </g>
   </g>
   <g id="text_19">
    <!-- LED2 -->
    <g transform="translate(71.268125 262.321183)scale(0.12 -0.12)">
     <use xlink:href="#DejaVuSans-4c"/>
     <use x="55.712891" xlink:href="#DejaVuSans-45"/>
     <use x="118.896484" xlink:href="#DejaVuSans-44"/>
     <use x="195.898438" xlink:href="#DejaVuSans-32"/>
    </g>
   </g>
   <g id="text_20">
    <!-- PHOTODIODE -->
    <g transform="translate(175.674687 262.321183)scale(0.12 -0.12)">
     <use xlink:href="#DejaVuSans-50"/>
     <use x="60.302734" xlink:href="#DejaVuSans-48"/>
     <use x="135.498047" xlink:href="#DejaVuSans-4f"/>
     <use x="214.208984" xlink:href="#DejaVuSans-54"/>
     <use x="275.292969" xlink:href="#DejaVuSans-4f"/>
     <use x="354.003906" xlink:href="#DejaVuSans-44"/>
     <use x="431.005859" xlink:href="#DejaVuSans-49"/>
     <use x="460.498047" xlink:href="#DejaVuSans-4f"/>
     <use x="539.208984" xlink:href="#DejaVuSans-44"/>
     <use x="616.210938" xlink:href="#DejaVuSans-45"/>
    </g>
   </g>
   <g id="text_21">
    <!-- XTAL -->
    <g transform="translate(330.825312 272.129375)scale(0.12 -0.12)">
     <use xlink:href="#DejaVuSans-58"/>
     <use x="68.490234" xlink:href="#DejaVuSans-54"/>
     <use x="129.464844" xlink:href="#DejaVuSans-41"/>
     <use x="197.873047" xlink:href="#DejaVuSans-4c"/>
    </g>
   </g>
   <g id="text_22">
    <!-- MEMRISTOR -->
    <defs>
     <path d="M 9.8125 72.90625 
L 24.515625 72.90625 
L 43.109375 23.296875 
L 61.8125 72.90625 
L 76.515625 72.90625 
L 76.515625 0 
L 66.890625 0 
L 66.890625 64.015625 
L 48.09375 14.015625 
L 38.1875 14.015625 
L 19.390625 64.015625 
L 19.390625 0 
L 9.8125 0 
z
" id="DejaVuSans-4d"/>
    </defs>
    <g transform="translate(439.19 272.129375)scale(0.12 -0.12)">
     <use xlink:href="#DejaVuSans-4d"/>
     <use x="86.279297" xlink:href="#DejaVuSans-45"/>
     <use x="149.462891" xlink:href="#DejaVuSans-4d"/>
     <use x="235.742188" xlink:href="#DejaVuSans-52"/>
     <use x="305.224609" xlink:href="#DejaVuSans-49"/>
     <use x="334.716797" xlink:href="#DejaVuSans-53"/>
     <use x="398.193359" xlink:href="#DejaVuSans-54"/>
     <use x="459.277344" xlink:href="#DejaVuSans-4f"/>
     <use x="537.988281" xlink:href="#DejaVuSans-52"/>
    </g>
   </g>
   <g id="text_23">
    <!-- MEMRISTOR2 -->
    <g transform="translate(46.5725 333.329375)scale(0.12 -0.12)">
     <use xlink:href="#DejaVuSans-4d"/>
     <use x="86.279297" xlink:href="#DejaVuSans-45"/>
     <use x="149.462891" xlink:href="#DejaVuSans-4d"/>
     <use x="235.742188" xlink:href="#DejaVuSans-52"/>
     <use x="305.224609" xlink:href="#DejaVuSans-49"/>
     <use x="334.716797" xlink:href="#DejaVuSans-53"/>
     <use x="398.193359" xlink:href="#DejaVuSans-54"/>
     <use x="459.277344" xlink:href="#DejaVuSans-4f"/>
     <use x="537.988281" xlink:href="#DejaVuSans-52"/>
     <use x="607.470703" xlink:href="#DejaVuSans-32"/>
    </g>
   </g>
   <g id="text_24">
    <!-- JJ -->
    <defs>
     <path d="M 9.8125 72.90625 
L 19.671875 72.90625 
L 19.671875 5.078125 
Q 19.671875 -8.109375 14.671875 -14.0625 
Q 9.671875 -20.015625 -1.421875 -20.015625 
L -5.171875 -20.015625 
L -5.171875 -11.71875 
L -2.09375 -11.71875 
Q 4.4375 -11.71875 7.125 -8.046875 
Q 9.8125 -4.390625 9.8125 5.078125 
z
" id="DejaVuSans-4a"/>
    </defs>
    <g transform="translate(212.9 333.329375)scale(0.12 -0.12)">
     <use xlink:href="#DejaVuSans-4a"/>
     <use x="29.492188" xlink:href="#DejaVuSans-4a"/>
    </g>
   </g>
  </g>
 </g>
 <defs>
  <clipPath id="pd9d3854f2f">
   <rect height="370.77" width="541.08" x="10.7" y="10.7"/>
  </clipPath>
 </defs>
</svg>
