<?xml version="1.0" encoding="utf-8" standalone="no"?>
<!DOCTYPE svg PUBLIC "-//W3C//DTD SVG 1.1//EN"
  "http://www.w3.org/Graphics/SVG/1.1/DTD/svg11.dtd">
<!-- Created with matplotlib (https://matplotlib.org/) -->
<svg height="331.1766pt" version="1.1" viewBox="0 0 401.504428 331.1766" width="401.504428pt" xmlns="http://www.w3.org/2000/svg" xmlns:xlink="http://www.w3.org/1999/xlink">
 <defs>
  <style type="text/css">
*{stroke-linecap:butt;stroke-linejoin:round;white-space:pre;}
  </style>
 </defs>
 <g id="figure_1">
  <g id="patch_1">
   <path d="M 0 331.1766 
L 401.504428 331.1766 
L 401.504428 -0 
L 0 -0 
z
" style="fill:none;"/>
  </g>
  <g id="axes_1">
   <g id="patch_2">
    <path clip-path="url(#p9f68206c06)" d="M 142.455625 291.2778 
C 143.100069 291.2778 143.718204 291.057321 144.173894 290.664921 
C 144.629585 290.272521 144.885625 289.740237 144.885625 289.1853 
C 144.885625 288.630363 144.629585 288.098079 144.173894 287.705679 
C 143.718204 287.313279 143.100069 287.0928 142.455625 287.0928 
C 141.811181 287.0928 141.193046 287.313279 140.737356 287.705679 
C 140.281665 288.098079 140.025625 288.630363 140.025625 289.1853 
C 140.025625 289.740237 140.281665 290.272521 140.737356 290.664921 
C 141.193046 291.057321 141.811181 291.2778 142.455625 291.2778 
z
" style="stroke:#000000;stroke-linejoin:miter;stroke-width:2;"/>
   </g>
   <g id="patch_3">
    <path clip-path="url(#p9f68206c06)" d="M 247.755625 291.2778 
C 248.400069 291.2778 249.018204 291.057321 249.473894 290.664921 
C 249.929585 290.272521 250.185625 289.740237 250.185625 289.1853 
C 250.185625 288.630363 249.929585 288.098079 249.473894 287.705679 
C 249.018204 287.313279 248.400069 287.0928 247.755625 287.0928 
C 247.111181 287.0928 246.493046 287.313279 246.037356 287.705679 
C 245.581665 288.098079 245.325625 288.630363 245.325625 289.1853 
C 245.325625 289.740237 245.581665 290.272521 246.037356 290.664921 
C 246.493046 291.057321 247.111181 291.2778 247.755625 291.2778 
z
" style="stroke:#000000;stroke-linejoin:miter;stroke-width:2;"/>
   </g>
   <g id="patch_4">
    <path clip-path="url(#p9f68206c06)" d="M 37.155625 122.13405 
C 37.800069 122.13405 38.418204 121.913571 38.873894 121.521171 
C 39.329585 121.128771 39.585625 120.596487 39.585625 120.04155 
C 39.585625 119.486613 39.329585 118.954329 38.873894 118.561929 
C 38.418204 118.169529 37.800069 117.94905 37.155625 117.94905 
C 36.511181 117.94905 35.893046 118.169529 35.437356 118.561929 
C 34.981665 118.954329 34.725625 119.486613 34.725625 120.04155 
C 34.725625 120.596487 34.981665 121.128771 35.437356 121.521171 
C 35.893046 121.913571 36.511181 122.13405 37.155625 122.13405 
z
" style="stroke:#000000;stroke-linejoin:miter;stroke-width:2;"/>
   </g>
   <g id="patch_5">
    <path clip-path="url(#p9f68206c06)" d="M 37.155625 197.46405 
C 37.800069 197.46405 38.418204 197.243571 38.873894 196.851171 
C 39.329585 196.458771 39.585625 195.926487 39.585625 195.37155 
C 39.585625 194.816613 39.329585 194.284329 38.873894 193.891929 
C 38.418204 193.499529 37.800069 193.27905 37.155625 193.27905 
C 36.511181 193.27905 35.893046 193.499529 35.437356 193.891929 
C 34.981665 194.284329 34.725625 194.816613 34.725625 195.37155 
C 34.725625 195.926487 34.981665 196.458771 35.437356 196.851171 
C 35.893046 197.243571 36.511181 197.46405 37.155625 197.46405 
z
" style="stroke:#000000;stroke-linejoin:miter;stroke-width:2;"/>
   </g>
   <g id="patch_6">
    <path clip-path="url(#p9f68206c06)" d="M 37.155625 225.7128 
C 37.800069 225.7128 38.418204 225.492321 38.873894 225.099921 
C 39.329585 224.707521 39.585625 224.175237 39.585625 223.6203 
C 39.585625 223.065363 39.329585 222.533079 38.873894 222.140679 
C 38.418204 221.748279 37.800069 221.5278 37.155625 221.5278 
C 36.511181 221.5278 35.893046 221.748279 35.437356 222.140679 
C 34.981665 222.533079 34.725625 223.065363 34.725625 223.6203 
C 34.725625 224.175237 34.981665 224.707521 35.437356 225.099921 
C 35.893046 225.492321 36.511181 225.7128 37.155625 225.7128 
z
" style="stroke:#000000;stroke-linejoin:miter;stroke-width:2;"/>
   </g>
   <g id="patch_7">
    <path clip-path="url(#p9f68206c06)" d="M 178.905625 47.1528 
C 179.550069 47.1528 180.168204 46.932321 180.623894 46.539921 
C 181.079585 46.147521 181.335625 45.615237 181.335625 45.0603 
C 181.335625 44.505363 181.079585 43.973079 180.623894 43.580679 
C 180.168204 43.188279 179.550069 42.9678 178.905625 42.9678 
C 178.261181 42.9678 177.643046 43.188279 177.187356 43.580679 
C 176.731665 43.973079 176.475625 44.505363 176.475625 45.0603 
C 176.475625 45.615237 176.731665 46.147521 177.187356 46.539921 
C 177.643046 46.932321 178.261181 47.1528 178.905625 47.1528 
z
" style="stroke:#000000;stroke-linejoin:miter;stroke-width:2;"/>
   </g>
   <g id="patch_8">
    <path clip-path="url(#p9f68206c06)" d="M 353.055625 199.730925 
L 344.955625 209.495925 
L 336.855625 199.730925 
z
" style="fill:none;stroke:#000000;stroke-linejoin:miter;stroke-width:2;"/>
   </g>
   <g id="patch_9">
    <path clip-path="url(#p9f68206c06)" d="M 373.825913 196.249413 
L 371.882871 198.020249 
L 371.446203 197.134184 
L 372.375976 196.794417 
L 372.363319 196.768734 
L 371.433546 197.108501 
L 370.996878 196.222435 
z
" style="stroke:#000000;stroke-linejoin:miter;stroke-width:2;"/>
   </g>
   <g id="patch_10">
    <path clip-path="url(#p9f68206c06)" d="M 371.609623 191.005929 
L 369.66658 192.776764 
L 369.229913 191.890699 
L 370.159686 191.550932 
L 370.147029 191.525249 
L 369.217255 191.865016 
L 368.780588 190.97895 
z
" style="stroke:#000000;stroke-linejoin:miter;stroke-width:2;"/>
   </g>
   <g id="line2d_1">
    <path clip-path="url(#p9f68206c06)" d="M 69.555625 261.2853 
L 215.355625 261.2853 
L 215.355625 72.9603 
L 69.555625 72.9603 
L 69.555625 261.2853 
" style="fill:none;stroke:#000000;stroke-linecap:round;stroke-width:2;"/>
   </g>
   <g id="line2d_2">
    <path clip-path="url(#p9f68206c06)" d="M 69.555625 223.6203 
L 37.155625 223.6203 
" style="fill:none;stroke:#000000;stroke-linecap:round;stroke-width:2;"/>
   </g>
   <g id="line2d_3">
    <path clip-path="url(#p9f68206c06)" d="M 69.555625 195.37155 
L 37.155625 195.37155 
" style="fill:none;stroke:#000000;stroke-linecap:round;stroke-width:2;"/>
   </g>
   <g id="line2d_4">
    <path clip-path="url(#p9f68206c06)" d="M 69.555625 120.04155 
L 37.155625 120.04155 
" style="fill:none;stroke:#000000;stroke-linecap:round;stroke-width:2;"/>
   </g>
   <g id="line2d_5">
    <path clip-path="url(#p9f68206c06)" d="M 215.355625 214.20405 
L 247.755625 214.20405 
" style="fill:none;stroke:#000000;stroke-linecap:round;stroke-width:2;"/>
   </g>
   <g id="line2d_6">
    <path clip-path="url(#p9f68206c06)" d="M 215.355625 120.04155 
L 247.755625 120.04155 
" style="fill:none;stroke:#000000;stroke-linecap:round;stroke-width:2;"/>
   </g>
   <g id="line2d_7">
    <path clip-path="url(#p9f68206c06)" d="M 106.005625 72.9603 
L 106.005625 45.0603 
" style="fill:none;stroke:#000000;stroke-linecap:round;stroke-width:2;"/>
   </g>
   <g id="line2d_8">
    <path clip-path="url(#p9f68206c06)" d="M 178.905625 72.9603 
L 178.905625 45.0603 
" style="fill:none;stroke:#000000;stroke-linecap:round;stroke-width:2;"/>
   </g>
   <g id="line2d_9">
    <path clip-path="url(#p9f68206c06)" d="M 142.455625 261.2853 
L 142.455625 289.1853 
" style="fill:none;stroke:#000000;stroke-linecap:round;stroke-width:2;"/>
   </g>
   <g id="line2d_10">
    <path clip-path="url(#p9f68206c06)" d="M 142.455625 289.1853 
L 142.455625 300.3453 
L 134.355625 300.3453 
L 150.555625 300.3453 
M 136.785625 303.6933 
L 148.125625 303.6933 
M 140.835625 307.0413 
L 144.075625 307.0413 
" style="fill:none;stroke:#000000;stroke-linecap:round;stroke-width:2;"/>
   </g>
   <g id="line2d_11">
    <path clip-path="url(#p9f68206c06)" d="M 142.455625 289.1853 
" style="fill:none;stroke:#000000;stroke-linecap:round;stroke-width:2;"/>
   </g>
   <g id="line2d_12">
    <path clip-path="url(#p9f68206c06)" d="M 37.155625 120.04155 
L 37.155625 143.75655 
L 45.255625 146.08155 
L 29.055625 150.73155 
L 45.255625 155.38155 
L 29.055625 160.03155 
L 45.255625 164.68155 
L 29.055625 169.33155 
L 37.155625 171.65655 
L 37.155625 195.37155 
" style="fill:none;stroke:#000000;stroke-linecap:round;stroke-width:2;"/>
   </g>
   <g id="line2d_13">
    <path clip-path="url(#p9f68206c06)" d="M 37.155625 120.04155 
L 37.155625 92.14155 
L 29.055625 89.81655 
L 45.255625 85.16655 
L 29.055625 80.51655 
L 45.255625 75.86655 
L 29.055625 71.21655 
L 45.255625 66.56655 
L 37.155625 64.24155 
L 37.155625 36.34155 
" style="fill:none;stroke:#000000;stroke-linecap:round;stroke-width:2;"/>
   </g>
   <g id="line2d_14">
    <path clip-path="url(#p9f68206c06)" d="M 37.155625 195.37155 
L 37.155625 209.495925 
L 37.155625 223.6203 
" style="fill:none;stroke:#000000;stroke-linecap:round;stroke-width:2;"/>
   </g>
   <g id="line2d_15">
    <path clip-path="url(#p9f68206c06)" d="M 37.155625 223.6203 
L 37.155625 253.8918 
M 45.255625 253.8918 
L 29.055625 253.8918 
M 45.255625 258.9138 
L 29.055625 258.9138 
M 37.155625 258.9138 
L 37.155625 289.1853 
" style="fill:none;stroke:#000000;stroke-linecap:round;stroke-width:2;"/>
   </g>
   <g id="line2d_16">
    <path clip-path="url(#p9f68206c06)" d="M 37.155625 289.1853 
L 89.805625 289.1853 
L 142.455625 289.1853 
" style="fill:none;stroke:#000000;stroke-linecap:round;stroke-width:2;"/>
   </g>
   <g id="line2d_17">
    <path clip-path="url(#p9f68206c06)" d="M 247.755625 214.20405 
L 247.755625 249.183675 
M 255.855625 249.183675 
L 239.655625 249.183675 
M 255.855625 254.205675 
L 239.655625 254.205675 
M 247.755625 254.205675 
L 247.755625 289.1853 
" style="fill:none;stroke:#000000;stroke-linecap:round;stroke-width:2;"/>
   </g>
   <g id="line2d_18">
    <path clip-path="url(#p9f68206c06)" d="M 247.755625 289.1853 
" style="fill:none;stroke:#000000;stroke-linecap:round;stroke-width:2;"/>
   </g>
   <g id="line2d_19">
    <path clip-path="url(#p9f68206c06)" d="M 37.155625 120.04155 
" style="fill:none;stroke:#000000;stroke-linecap:round;stroke-width:2;"/>
   </g>
   <g id="line2d_20">
    <path clip-path="url(#p9f68206c06)" d="M 37.155625 195.37155 
" style="fill:none;stroke:#000000;stroke-linecap:round;stroke-width:2;"/>
   </g>
   <g id="line2d_21">
    <path clip-path="url(#p9f68206c06)" d="M 37.155625 223.6203 
" style="fill:none;stroke:#000000;stroke-linecap:round;stroke-width:2;"/>
   </g>
   <g id="line2d_22">
    <path clip-path="url(#p9f68206c06)" d="M 106.005625 45.0603 
L 142.455625 45.0603 
L 178.905625 45.0603 
" style="fill:none;stroke:#000000;stroke-linecap:round;stroke-width:2;"/>
   </g>
   <g id="line2d_23">
    <path clip-path="url(#p9f68206c06)" d="M 178.905625 45.0603 
" style="fill:none;stroke:#000000;stroke-linecap:round;stroke-width:2;"/>
   </g>
   <g id="line2d_24">
    <path clip-path="url(#p9f68206c06)" d="M 178.905625 45.0603 
L 178.905625 34.5978 
L 178.905625 24.1353 
" style="fill:none;stroke:#000000;stroke-linecap:round;stroke-width:2;"/>
   </g>
   <g id="line2d_25">
    <path clip-path="url(#p9f68206c06)" d="M 247.755625 120.04155 
L 280.155625 120.04155 
L 282.855625 113.06655 
L 288.255625 127.01655 
L 293.655625 113.06655 
L 299.055625 127.01655 
L 304.455625 113.06655 
L 309.855625 127.01655 
L 312.555625 120.04155 
L 344.955625 120.04155 
" style="fill:none;stroke:#000000;stroke-linecap:round;stroke-width:2;"/>
   </g>
   <g id="line2d_26">
    <path clip-path="url(#p9f68206c06)" d="M 373.825913 196.249413 
L 372.369648 196.781576 
L 371.059338 197.267993 
L 369.888773 197.710611 
L 368.851743 198.111377 
L 367.942035 198.472238 
L 367.15344 198.795139 
L 366.479747 199.082029 
L 365.914744 199.334853 
L 365.452221 199.555557 
L 365.085966 199.74609 
L 364.80977 199.908396 
L 364.61742 200.044423 
L 364.502707 200.156118 
L 364.459418 200.245426 
L 364.481345 200.314296 
L 364.562274 200.364672 
L 364.695996 200.398502 
L 364.8763 200.417733 
L 365.096975 200.42431 
L 365.351809 200.420182 
L 365.634593 200.407293 
L 365.939114 200.387592 
L 366.259163 200.363023 
L 366.588528 200.335535 
L 366.920999 200.307074 
L 367.250364 200.279586 
L 367.570413 200.255018 
L 367.874935 200.235316 
L 368.157718 200.222428 
L 368.412553 200.218299 
L 368.633227 200.224877 
L 368.813531 200.244108 
L 368.947253 200.277938 
L 369.028183 200.328314 
L 369.050109 200.397183 
L 369.006821 200.486492 
L 368.892107 200.598186 
L 368.699758 200.734214 
L 368.423561 200.89652 
L 368.057307 201.087052 
L 367.594784 201.307757 
L 367.029781 201.560581 
L 366.356087 201.84747 
L 365.567492 202.170372 
L 364.657785 202.531233 
L 363.620754 202.931999 
L 362.450189 203.374617 
L 361.13988 203.861034 
L 359.683614 204.393196 
" style="fill:none;stroke:#000000;stroke-linecap:round;stroke-width:2;"/>
   </g>
   <g id="line2d_27">
    <path clip-path="url(#p9f68206c06)" d="M 371.609623 191.005929 
L 370.153357 191.538091 
L 368.843047 192.024508 
L 367.672483 192.467126 
L 366.635452 192.867892 
L 365.725745 193.228753 
L 364.93715 193.551655 
L 364.263456 193.838544 
L 363.698453 194.091368 
L 363.23593 194.312072 
L 362.869676 194.502605 
L 362.593479 194.664911 
L 362.401129 194.800938 
L 362.286416 194.912633 
L 362.243128 195.001942 
L 362.265054 195.070811 
L 362.345984 195.121187 
L 362.479706 195.155017 
L 362.66001 195.174248 
L 362.880684 195.180825 
L 363.135519 195.176697 
L 363.418302 195.163808 
L 363.722824 195.144107 
L 364.042873 195.119539 
L 364.372238 195.092051 
L 364.704709 195.063589 
L 365.034074 195.036101 
L 365.354123 195.011533 
L 365.658644 194.991832 
L 365.941428 194.978943 
L 366.196262 194.974814 
L 366.416937 194.981392 
L 366.597241 195.000623 
L 366.730963 195.034453 
L 366.811892 195.084829 
L 366.833819 195.153698 
L 366.79053 195.243007 
L 366.675817 195.354702 
L 366.483467 195.490729 
L 366.207271 195.653035 
L 365.841016 195.843567 
L 365.378493 196.064272 
L 364.81349 196.317096 
L 364.139797 196.603985 
L 363.351202 196.926887 
L 362.441494 197.287748 
L 361.404464 197.688514 
L 360.233899 198.131132 
L 358.923589 198.617549 
L 357.467324 199.149711 
" style="fill:none;stroke:#000000;stroke-linecap:round;stroke-width:2;"/>
   </g>
   <g id="line2d_28">
    <path clip-path="url(#p9f68206c06)" d="M 344.955625 120.04155 
L 344.955625 199.730925 
M 353.055625 209.495925 
L 336.855625 209.495925 
M 344.955625 209.495925 
L 344.955625 289.1853 
" style="fill:none;stroke:#000000;stroke-linecap:round;stroke-width:2;"/>
   </g>
   <g id="line2d_29">
    <path clip-path="url(#p9f68206c06)" d="M 344.955625 289.1853 
L 243.705625 289.1853 
L 142.455625 289.1853 
" style="fill:none;stroke:#000000;stroke-linecap:round;stroke-width:2;"/>
   </g>
   <g id="text_1">
    <!-- 555 -->
    <defs>
     <path d="M 10.796875 72.90625 
L 49.515625 72.90625 
L 49.515625 64.59375 
L 19.828125 64.59375 
L 19.828125 46.734375 
Q 21.96875 47.46875 24.109375 47.828125 
Q 26.265625 48.1875 28.421875 48.1875 
Q 40.625 48.1875 47.75 41.5 
Q 54.890625 34.8125 54.890625 23.390625 
Q 54.890625 11.625 47.5625 5.09375 
Q 40.234375 -1.421875 26.90625 -1.421875 
Q 22.3125 -1.421875 17.546875 -0.640625 
Q 12.796875 0.140625 7.71875 1.703125 
L 7.71875 11.625 
Q 12.109375 9.234375 16.796875 8.0625 
Q 21.484375 6.890625 26.703125 6.890625 
Q 35.15625 6.890625 40.078125 11.328125 
Q 45.015625 15.765625 45.015625 23.390625 
Q 45.015625 31 40.078125 35.4375 
Q 35.15625 39.890625 26.703125 39.890625 
Q 22.75 39.890625 18.8125 39.015625 
Q 14.890625 38.140625 10.796875 36.28125 
z
" id="DejaVuSans-53"/>
    </defs>
    <g transform="translate(129.094375 139.598425)scale(0.14 -0.14)">
     <use xlink:href="#DejaVuSans-53"/>
     <use x="63.623047" xlink:href="#DejaVuSans-53"/>
     <use x="127.246094" xlink:href="#DejaVuSans-53"/>
    </g>
   </g>
   <g id="text_2">
    <!-- TRG -->
    <defs>
     <path d="M -0.296875 72.90625 
L 61.375 72.90625 
L 61.375 64.59375 
L 35.5 64.59375 
L 35.5 0 
L 25.59375 0 
L 25.59375 64.59375 
L -0.296875 64.59375 
z
" id="DejaVuSans-84"/>
     <path d="M 44.390625 34.1875 
Q 47.5625 33.109375 50.5625 29.59375 
Q 53.5625 26.078125 56.59375 19.921875 
L 66.609375 0 
L 56 0 
L 46.6875 18.703125 
Q 43.0625 26.03125 39.671875 28.421875 
Q 36.28125 30.8125 30.421875 30.8125 
L 19.671875 30.8125 
L 19.671875 0 
L 9.8125 0 
L 9.8125 72.90625 
L 32.078125 72.90625 
Q 44.578125 72.90625 50.734375 67.671875 
Q 56.890625 62.453125 56.890625 51.90625 
Q 56.890625 45.015625 53.6875 40.46875 
Q 50.484375 35.9375 44.390625 34.1875 
z
M 19.671875 64.796875 
L 19.671875 38.921875 
L 32.078125 38.921875 
Q 39.203125 38.921875 42.84375 42.21875 
Q 46.484375 45.515625 46.484375 51.90625 
Q 46.484375 58.296875 42.84375 61.546875 
Q 39.203125 64.796875 32.078125 64.796875 
z
" id="DejaVuSans-82"/>
     <path d="M 59.515625 10.40625 
L 59.515625 29.984375 
L 43.40625 29.984375 
L 43.40625 38.09375 
L 69.28125 38.09375 
L 69.28125 6.78125 
Q 63.578125 2.734375 56.6875 0.65625 
Q 49.8125 -1.421875 42 -1.421875 
Q 24.90625 -1.421875 15.25 8.5625 
Q 5.609375 18.5625 5.609375 36.375 
Q 5.609375 54.25 15.25 64.234375 
Q 24.90625 74.21875 42 74.21875 
Q 49.125 74.21875 55.546875 72.453125 
Q 61.96875 70.703125 67.390625 67.28125 
L 67.390625 56.78125 
Q 61.921875 61.421875 55.765625 63.765625 
Q 49.609375 66.109375 42.828125 66.109375 
Q 29.4375 66.109375 22.71875 58.640625 
Q 16.015625 51.171875 16.015625 36.375 
Q 16.015625 21.625 22.71875 14.15625 
Q 29.4375 6.6875 42.828125 6.6875 
Q 48.046875 6.6875 52.140625 7.59375 
Q 56.25 8.5 59.515625 10.40625 
z
" id="DejaVuSans-71"/>
    </defs>
    <g transform="translate(74.415625 227.483425)scale(0.14 -0.14)">
     <use xlink:href="#DejaVuSans-84"/>
     <use x="61.083984" xlink:href="#DejaVuSans-82"/>
     <use x="130.566406" xlink:href="#DejaVuSans-71"/>
    </g>
   </g>
   <g id="text_3">
    <!-- 2 -->
    <defs>
     <path d="M 19.1875 8.296875 
L 53.609375 8.296875 
L 53.609375 0 
L 7.328125 0 
L 7.328125 8.296875 
Q 12.9375 14.109375 22.625 23.890625 
Q 32.328125 33.6875 34.8125 36.53125 
Q 39.546875 41.84375 41.421875 45.53125 
Q 43.3125 49.21875 43.3125 52.78125 
Q 43.3125 58.59375 39.234375 62.25 
Q 35.15625 65.921875 28.609375 65.921875 
Q 23.96875 65.921875 18.8125 64.3125 
Q 13.671875 62.703125 7.8125 59.421875 
L 7.8125 69.390625 
Q 13.765625 71.78125 18.9375 73 
Q 24.125 74.21875 28.421875 74.21875 
Q 39.75 74.21875 46.484375 68.546875 
Q 53.21875 62.890625 53.21875 53.421875 
Q 53.21875 48.921875 51.53125 44.890625 
Q 49.859375 40.875 45.40625 35.40625 
Q 44.1875 33.984375 37.640625 27.21875 
Q 31.109375 20.453125 19.1875 8.296875 
z
" id="DejaVuSans-50"/>
    </defs>
    <g transform="translate(57.408125 220.708737)scale(0.14 -0.14)">
     <use xlink:href="#DejaVuSans-50"/>
    </g>
   </g>
   <g id="text_4">
    <!-- THR -->
    <defs>
     <path d="M 9.8125 72.90625 
L 19.671875 72.90625 
L 19.671875 43.015625 
L 55.515625 43.015625 
L 55.515625 72.90625 
L 65.375 72.90625 
L 65.375 0 
L 55.515625 0 
L 55.515625 34.71875 
L 19.671875 34.71875 
L 19.671875 0 
L 9.8125 0 
z
" id="DejaVuSans-72"/>
    </defs>
    <g transform="translate(74.415625 199.234675)scale(0.14 -0.14)">
     <use xlink:href="#DejaVuSans-84"/>
     <use x="61.083984" xlink:href="#DejaVuSans-72"/>
     <use x="136.279297" xlink:href="#DejaVuSans-82"/>
    </g>
   </g>
   <g id="text_5">
    <!-- 6 -->
    <defs>
     <path d="M 33.015625 40.375 
Q 26.375 40.375 22.484375 35.828125 
Q 18.609375 31.296875 18.609375 23.390625 
Q 18.609375 15.53125 22.484375 10.953125 
Q 26.375 6.390625 33.015625 6.390625 
Q 39.65625 6.390625 43.53125 10.953125 
Q 47.40625 15.53125 47.40625 23.390625 
Q 47.40625 31.296875 43.53125 35.828125 
Q 39.65625 40.375 33.015625 40.375 
z
M 52.59375 71.296875 
L 52.59375 62.3125 
Q 48.875 64.0625 45.09375 64.984375 
Q 41.3125 65.921875 37.59375 65.921875 
Q 27.828125 65.921875 22.671875 59.328125 
Q 17.53125 52.734375 16.796875 39.40625 
Q 19.671875 43.65625 24.015625 45.921875 
Q 28.375 48.1875 33.59375 48.1875 
Q 44.578125 48.1875 50.953125 41.515625 
Q 57.328125 34.859375 57.328125 23.390625 
Q 57.328125 12.15625 50.6875 5.359375 
Q 44.046875 -1.421875 33.015625 -1.421875 
Q 20.359375 -1.421875 13.671875 8.265625 
Q 6.984375 17.96875 6.984375 36.375 
Q 6.984375 53.65625 15.1875 63.9375 
Q 23.390625 74.21875 37.203125 74.21875 
Q 40.921875 74.21875 44.703125 73.484375 
Q 48.484375 72.75 52.59375 71.296875 
z
" id="DejaVuSans-54"/>
    </defs>
    <g transform="translate(57.408125 192.459987)scale(0.14 -0.14)">
     <use xlink:href="#DejaVuSans-54"/>
    </g>
   </g>
   <g id="text_6">
    <!-- DIS -->
    <defs>
     <path d="M 19.671875 64.796875 
L 19.671875 8.109375 
L 31.59375 8.109375 
Q 46.6875 8.109375 53.6875 14.9375 
Q 60.6875 21.78125 60.6875 36.53125 
Q 60.6875 51.171875 53.6875 57.984375 
Q 46.6875 64.796875 31.59375 64.796875 
z
M 9.8125 72.90625 
L 30.078125 72.90625 
Q 51.265625 72.90625 61.171875 64.09375 
Q 71.09375 55.28125 71.09375 36.53125 
Q 71.09375 17.671875 61.125 8.828125 
Q 51.171875 0 30.078125 0 
L 9.8125 0 
z
" id="DejaVuSans-68"/>
     <path d="M 9.8125 72.90625 
L 19.671875 72.90625 
L 19.671875 0 
L 9.8125 0 
z
" id="DejaVuSans-73"/>
     <path d="M 53.515625 70.515625 
L 53.515625 60.890625 
Q 47.90625 63.578125 42.921875 64.890625 
Q 37.9375 66.21875 33.296875 66.21875 
Q 25.25 66.21875 20.875 63.09375 
Q 16.5 59.96875 16.5 54.203125 
Q 16.5 49.359375 19.40625 46.890625 
Q 22.3125 44.4375 30.421875 42.921875 
L 36.375 41.703125 
Q 47.40625 39.59375 52.65625 34.296875 
Q 57.90625 29 57.90625 20.125 
Q 57.90625 9.515625 50.796875 4.046875 
Q 43.703125 -1.421875 29.984375 -1.421875 
Q 24.8125 -1.421875 18.96875 -0.25 
Q 13.140625 0.921875 6.890625 3.21875 
L 6.890625 13.375 
Q 12.890625 10.015625 18.65625 8.296875 
Q 24.421875 6.59375 29.984375 6.59375 
Q 38.421875 6.59375 43.015625 9.90625 
Q 47.609375 13.234375 47.609375 19.390625 
Q 47.609375 24.75 44.3125 27.78125 
Q 41.015625 30.8125 33.5 32.328125 
L 27.484375 33.5 
Q 16.453125 35.6875 11.515625 40.375 
Q 6.59375 45.0625 6.59375 53.421875 
Q 6.59375 63.09375 13.40625 68.65625 
Q 20.21875 74.21875 32.171875 74.21875 
Q 37.3125 74.21875 42.625 73.28125 
Q 47.953125 72.359375 53.515625 70.515625 
z
" id="DejaVuSans-83"/>
    </defs>
    <g transform="translate(74.415625 123.904675)scale(0.14 -0.14)">
     <use xlink:href="#DejaVuSans-68"/>
     <use x="77.001953" xlink:href="#DejaVuSans-73"/>
     <use x="106.494141" xlink:href="#DejaVuSans-83"/>
    </g>
   </g>
   <g id="text_7">
    <!-- 7 -->
    <defs>
     <path d="M 8.203125 72.90625 
L 55.078125 72.90625 
L 55.078125 68.703125 
L 28.609375 0 
L 18.3125 0 
L 43.21875 64.59375 
L 8.203125 64.59375 
z
" id="DejaVuSans-55"/>
    </defs>
    <g transform="translate(57.408125 117.129987)scale(0.14 -0.14)">
     <use xlink:href="#DejaVuSans-55"/>
    </g>
   </g>
   <g id="text_8">
    <!-- CTL -->
    <defs>
     <path d="M 64.40625 67.28125 
L 64.40625 56.890625 
Q 59.421875 61.53125 53.78125 63.8125 
Q 48.140625 66.109375 41.796875 66.109375 
Q 29.296875 66.109375 22.65625 58.46875 
Q 16.015625 50.828125 16.015625 36.375 
Q 16.015625 21.96875 22.65625 14.328125 
Q 29.296875 6.6875 41.796875 6.6875 
Q 48.140625 6.6875 53.78125 8.984375 
Q 59.421875 11.28125 64.40625 15.921875 
L 64.40625 5.609375 
Q 59.234375 2.09375 53.4375 0.328125 
Q 47.65625 -1.421875 41.21875 -1.421875 
Q 24.65625 -1.421875 15.125 8.703125 
Q 5.609375 18.84375 5.609375 36.375 
Q 5.609375 53.953125 15.125 64.078125 
Q 24.65625 74.21875 41.21875 74.21875 
Q 47.75 74.21875 53.53125 72.484375 
Q 59.328125 70.75 64.40625 67.28125 
z
" id="DejaVuSans-67"/>
     <path d="M 9.8125 72.90625 
L 19.671875 72.90625 
L 19.671875 8.296875 
L 55.171875 8.296875 
L 55.171875 0 
L 9.8125 0 
z
" id="DejaVuSans-76"/>
    </defs>
    <g transform="translate(184.368125 218.067175)scale(0.14 -0.14)">
     <use xlink:href="#DejaVuSans-67"/>
     <use x="69.824219" xlink:href="#DejaVuSans-84"/>
     <use x="130.908203" xlink:href="#DejaVuSans-76"/>
    </g>
   </g>
   <g id="text_9">
    <!-- 5 -->
    <g transform="translate(218.595625 211.292487)scale(0.14 -0.14)">
     <use xlink:href="#DejaVuSans-53"/>
    </g>
   </g>
   <g id="text_10">
    <!-- OUT -->
    <defs>
     <path d="M 39.40625 66.21875 
Q 28.65625 66.21875 22.328125 58.203125 
Q 16.015625 50.203125 16.015625 36.375 
Q 16.015625 22.609375 22.328125 14.59375 
Q 28.65625 6.59375 39.40625 6.59375 
Q 50.140625 6.59375 56.421875 14.59375 
Q 62.703125 22.609375 62.703125 36.375 
Q 62.703125 50.203125 56.421875 58.203125 
Q 50.140625 66.21875 39.40625 66.21875 
z
M 39.40625 74.21875 
Q 54.734375 74.21875 63.90625 63.9375 
Q 73.09375 53.65625 73.09375 36.375 
Q 73.09375 19.140625 63.90625 8.859375 
Q 54.734375 -1.421875 39.40625 -1.421875 
Q 24.03125 -1.421875 14.8125 8.828125 
Q 5.609375 19.09375 5.609375 36.375 
Q 5.609375 53.65625 14.8125 63.9375 
Q 24.03125 74.21875 39.40625 74.21875 
z
" id="DejaVuSans-79"/>
     <path d="M 8.6875 72.90625 
L 18.609375 72.90625 
L 18.609375 28.609375 
Q 18.609375 16.890625 22.84375 11.734375 
Q 27.09375 6.59375 36.625 6.59375 
Q 46.09375 6.59375 50.34375 11.734375 
Q 54.59375 16.890625 54.59375 28.609375 
L 54.59375 72.90625 
L 64.5 72.90625 
L 64.5 27.390625 
Q 64.5 13.140625 57.4375 5.859375 
Q 50.390625 -1.421875 36.625 -1.421875 
Q 22.796875 -1.421875 15.734375 5.859375 
Q 8.6875 13.140625 8.6875 27.390625 
z
" id="DejaVuSans-85"/>
    </defs>
    <g transform="translate(180.677812 123.904675)scale(0.14 -0.14)">
     <use xlink:href="#DejaVuSans-79"/>
     <use x="78.710938" xlink:href="#DejaVuSans-85"/>
     <use x="151.904297" xlink:href="#DejaVuSans-84"/>
    </g>
   </g>
   <g id="text_11">
    <!-- 3 -->
    <defs>
     <path d="M 40.578125 39.3125 
Q 47.65625 37.796875 51.625 33 
Q 55.609375 28.21875 55.609375 21.1875 
Q 55.609375 10.40625 48.1875 4.484375 
Q 40.765625 -1.421875 27.09375 -1.421875 
Q 22.515625 -1.421875 17.65625 -0.515625 
Q 12.796875 0.390625 7.625 2.203125 
L 7.625 11.71875 
Q 11.71875 9.328125 16.59375 8.109375 
Q 21.484375 6.890625 26.8125 6.890625 
Q 36.078125 6.890625 40.9375 10.546875 
Q 45.796875 14.203125 45.796875 21.1875 
Q 45.796875 27.640625 41.28125 31.265625 
Q 36.765625 34.90625 28.71875 34.90625 
L 20.21875 34.90625 
L 20.21875 43.015625 
L 29.109375 43.015625 
Q 36.375 43.015625 40.234375 45.921875 
Q 44.09375 48.828125 44.09375 54.296875 
Q 44.09375 59.90625 40.109375 62.90625 
Q 36.140625 65.921875 28.71875 65.921875 
Q 24.65625 65.921875 20.015625 65.03125 
Q 15.375 64.15625 9.8125 62.3125 
L 9.8125 71.09375 
Q 15.4375 72.65625 20.34375 73.4375 
Q 25.25 74.21875 29.59375 74.21875 
Q 40.828125 74.21875 47.359375 69.109375 
Q 53.90625 64.015625 53.90625 55.328125 
Q 53.90625 49.265625 50.4375 45.09375 
Q 46.96875 40.921875 40.578125 39.3125 
z
" id="DejaVuSans-51"/>
    </defs>
    <g transform="translate(218.595625 117.129987)scale(0.14 -0.14)">
     <use xlink:href="#DejaVuSans-51"/>
    </g>
   </g>
   <g id="text_12">
    <!-- RST -->
    <g transform="translate(92.422344 87.783112)scale(0.14 -0.14)">
     <use xlink:href="#DejaVuSans-82"/>
     <use x="69.482422" xlink:href="#DejaVuSans-83"/>
     <use x="132.958984" xlink:href="#DejaVuSans-84"/>
    </g>
   </g>
   <g id="text_13">
    <!-- 4 -->
    <defs>
     <path d="M 37.796875 64.3125 
L 12.890625 25.390625 
L 37.796875 25.390625 
z
M 35.203125 72.90625 
L 47.609375 72.90625 
L 47.609375 25.390625 
L 58.015625 25.390625 
L 58.015625 17.1875 
L 47.609375 17.1875 
L 47.609375 0 
L 37.796875 0 
L 37.796875 17.1875 
L 4.890625 17.1875 
L 4.890625 26.703125 
z
" id="DejaVuSans-52"/>
    </defs>
    <g transform="translate(109.245625 70.048737)scale(0.14 -0.14)">
     <use xlink:href="#DejaVuSans-52"/>
    </g>
   </g>
   <g id="text_14">
    <!-- Vcc -->
    <defs>
     <path d="M 28.609375 0 
L 0.78125 72.90625 
L 11.078125 72.90625 
L 34.1875 11.53125 
L 57.328125 72.90625 
L 67.578125 72.90625 
L 39.796875 0 
z
" id="DejaVuSans-86"/>
     <path d="M 48.78125 52.59375 
L 48.78125 44.1875 
Q 44.96875 46.296875 41.140625 47.34375 
Q 37.3125 48.390625 33.40625 48.390625 
Q 24.65625 48.390625 19.8125 42.84375 
Q 14.984375 37.3125 14.984375 27.296875 
Q 14.984375 17.28125 19.8125 11.734375 
Q 24.65625 6.203125 33.40625 6.203125 
Q 37.3125 6.203125 41.140625 7.25 
Q 44.96875 8.296875 48.78125 10.40625 
L 48.78125 2.09375 
Q 45.015625 0.34375 40.984375 -0.53125 
Q 36.96875 -1.421875 32.421875 -1.421875 
Q 20.0625 -1.421875 12.78125 6.34375 
Q 5.515625 14.109375 5.515625 27.296875 
Q 5.515625 40.671875 12.859375 48.328125 
Q 20.21875 56 33.015625 56 
Q 37.15625 56 41.109375 55.140625 
Q 45.0625 54.296875 48.78125 52.59375 
z
" id="DejaVuSans-99"/>
    </defs>
    <g transform="translate(166.419375 87.783112)scale(0.14 -0.14)">
     <use xlink:href="#DejaVuSans-86"/>
     <use x="68.408203" xlink:href="#DejaVuSans-99"/>
     <use x="123.388672" xlink:href="#DejaVuSans-99"/>
    </g>
   </g>
   <g id="text_15">
    <!-- 8 -->
    <defs>
     <path d="M 31.78125 34.625 
Q 24.75 34.625 20.71875 30.859375 
Q 16.703125 27.09375 16.703125 20.515625 
Q 16.703125 13.921875 20.71875 10.15625 
Q 24.75 6.390625 31.78125 6.390625 
Q 38.8125 6.390625 42.859375 10.171875 
Q 46.921875 13.96875 46.921875 20.515625 
Q 46.921875 27.09375 42.890625 30.859375 
Q 38.875 34.625 31.78125 34.625 
z
M 21.921875 38.8125 
Q 15.578125 40.375 12.03125 44.71875 
Q 8.5 49.078125 8.5 55.328125 
Q 8.5 64.0625 14.71875 69.140625 
Q 20.953125 74.21875 31.78125 74.21875 
Q 42.671875 74.21875 48.875 69.140625 
Q 55.078125 64.0625 55.078125 55.328125 
Q 55.078125 49.078125 51.53125 44.71875 
Q 48 40.375 41.703125 38.8125 
Q 48.828125 37.15625 52.796875 32.3125 
Q 56.78125 27.484375 56.78125 20.515625 
Q 56.78125 9.90625 50.3125 4.234375 
Q 43.84375 -1.421875 31.78125 -1.421875 
Q 19.734375 -1.421875 13.25 4.234375 
Q 6.78125 9.90625 6.78125 20.515625 
Q 6.78125 27.484375 10.78125 32.3125 
Q 14.796875 37.15625 21.921875 38.8125 
z
M 18.3125 54.390625 
Q 18.3125 48.734375 21.84375 45.5625 
Q 25.390625 42.390625 31.78125 42.390625 
Q 38.140625 42.390625 41.71875 45.5625 
Q 45.3125 48.734375 45.3125 54.390625 
Q 45.3125 60.0625 41.71875 63.234375 
Q 38.140625 66.40625 31.78125 66.40625 
Q 25.390625 66.40625 21.84375 63.234375 
Q 18.3125 60.0625 18.3125 54.390625 
z
" id="DejaVuSans-56"/>
    </defs>
    <g transform="translate(182.145625 70.048737)scale(0.14 -0.14)">
     <use xlink:href="#DejaVuSans-56"/>
    </g>
   </g>
   <g id="text_16">
    <!-- GND -->
    <defs>
     <path d="M 9.8125 72.90625 
L 23.09375 72.90625 
L 55.421875 11.921875 
L 55.421875 72.90625 
L 64.984375 72.90625 
L 64.984375 0 
L 51.703125 0 
L 19.390625 60.984375 
L 19.390625 0 
L 9.8125 0 
z
" id="DejaVuSans-78"/>
    </defs>
    <g transform="translate(126.404844 254.188737)scale(0.14 -0.14)">
     <use xlink:href="#DejaVuSans-71"/>
     <use x="77.490234" xlink:href="#DejaVuSans-78"/>
     <use x="152.294922" xlink:href="#DejaVuSans-68"/>
    </g>
   </g>
   <g id="text_17">
    <!-- 1 -->
    <defs>
     <path d="M 12.40625 8.296875 
L 28.515625 8.296875 
L 28.515625 63.921875 
L 10.984375 60.40625 
L 10.984375 69.390625 
L 28.421875 72.90625 
L 38.28125 72.90625 
L 38.28125 8.296875 
L 54.390625 8.296875 
L 54.390625 0 
L 12.40625 0 
z
" id="DejaVuSans-49"/>
    </defs>
    <g transform="translate(145.695625 274.713112)scale(0.14 -0.14)">
     <use xlink:href="#DejaVuSans-49"/>
    </g>
   </g>
   <g id="text_18">
    <!-- Rb -->
    <defs>
     <path d="M 48.6875 27.296875 
Q 48.6875 37.203125 44.609375 42.84375 
Q 40.53125 48.484375 33.40625 48.484375 
Q 26.265625 48.484375 22.1875 42.84375 
Q 18.109375 37.203125 18.109375 27.296875 
Q 18.109375 17.390625 22.1875 11.75 
Q 26.265625 6.109375 33.40625 6.109375 
Q 40.53125 6.109375 44.609375 11.75 
Q 48.6875 17.390625 48.6875 27.296875 
z
M 18.109375 46.390625 
Q 20.953125 51.265625 25.265625 53.625 
Q 29.59375 56 35.59375 56 
Q 45.5625 56 51.78125 48.09375 
Q 58.015625 40.1875 58.015625 27.296875 
Q 58.015625 14.40625 51.78125 6.484375 
Q 45.5625 -1.421875 35.59375 -1.421875 
Q 29.59375 -1.421875 25.265625 0.953125 
Q 20.953125 3.328125 18.109375 8.203125 
L 18.109375 0 
L 9.078125 0 
L 9.078125 75.984375 
L 18.109375 75.984375 
z
" id="DejaVuSans-98"/>
    </defs>
    <g transform="translate(7.2 161.569675)scale(0.14 -0.14)">
     <use xlink:href="#DejaVuSans-82"/>
     <use x="69.482422" xlink:href="#DejaVuSans-98"/>
    </g>
   </g>
   <g id="text_19">
    <!-- Ra -->
    <defs>
     <path d="M 34.28125 27.484375 
Q 23.390625 27.484375 19.1875 25 
Q 14.984375 22.515625 14.984375 16.5 
Q 14.984375 11.71875 18.140625 8.90625 
Q 21.296875 6.109375 26.703125 6.109375 
Q 34.1875 6.109375 38.703125 11.40625 
Q 43.21875 16.703125 43.21875 25.484375 
L 43.21875 27.484375 
z
M 52.203125 31.203125 
L 52.203125 0 
L 43.21875 0 
L 43.21875 8.296875 
Q 40.140625 3.328125 35.546875 0.953125 
Q 30.953125 -1.421875 24.3125 -1.421875 
Q 15.921875 -1.421875 10.953125 3.296875 
Q 6 8.015625 6 15.921875 
Q 6 25.140625 12.171875 29.828125 
Q 18.359375 34.515625 30.609375 34.515625 
L 43.21875 34.515625 
L 43.21875 35.40625 
Q 43.21875 41.609375 39.140625 45 
Q 35.0625 48.390625 27.6875 48.390625 
Q 23 48.390625 18.546875 47.265625 
Q 14.109375 46.140625 10.015625 43.890625 
L 10.015625 52.203125 
Q 14.9375 54.109375 19.578125 55.046875 
Q 24.21875 56 28.609375 56 
Q 40.484375 56 46.34375 49.84375 
Q 52.203125 43.703125 52.203125 31.203125 
z
" id="DejaVuSans-97"/>
    </defs>
    <g transform="translate(7.512812 82.054675)scale(0.14 -0.14)">
     <use xlink:href="#DejaVuSans-82"/>
     <use x="69.451172" xlink:href="#DejaVuSans-97"/>
    </g>
   </g>
   <g id="text_20">
    <!-- +Vcc -->
    <defs>
     <path d="M 46 62.703125 
L 46 35.5 
L 73.1875 35.5 
L 73.1875 27.203125 
L 46 27.203125 
L 46 0 
L 37.796875 0 
L 37.796875 27.203125 
L 10.59375 27.203125 
L 10.59375 35.5 
L 37.796875 35.5 
L 37.796875 62.703125 
z
" id="DejaVuSans-43"/>
    </defs>
    <g transform="translate(18.803594 30.639987)scale(0.14 -0.14)">
     <use xlink:href="#DejaVuSans-43"/>
     <use x="83.789062" xlink:href="#DejaVuSans-86"/>
     <use x="152.197266" xlink:href="#DejaVuSans-99"/>
     <use x="207.177734" xlink:href="#DejaVuSans-99"/>
    </g>
   </g>
   <g id="text_21">
    <!-- C -->
    <g transform="translate(16.039687 260.265925)scale(0.14 -0.14)">
     <use xlink:href="#DejaVuSans-67"/>
    </g>
   </g>
   <g id="text_22">
    <!-- .01$\mu$F -->
    <defs>
     <path d="M 10.6875 12.40625 
L 21 12.40625 
L 21 0 
L 10.6875 0 
z
" id="DejaVuSans-46"/>
     <path d="M 31.78125 66.40625 
Q 24.171875 66.40625 20.328125 58.90625 
Q 16.5 51.421875 16.5 36.375 
Q 16.5 21.390625 20.328125 13.890625 
Q 24.171875 6.390625 31.78125 6.390625 
Q 39.453125 6.390625 43.28125 13.890625 
Q 47.125 21.390625 47.125 36.375 
Q 47.125 51.421875 43.28125 58.90625 
Q 39.453125 66.40625 31.78125 66.40625 
z
M 31.78125 74.21875 
Q 44.046875 74.21875 50.515625 64.515625 
Q 56.984375 54.828125 56.984375 36.375 
Q 56.984375 17.96875 50.515625 8.265625 
Q 44.046875 -1.421875 31.78125 -1.421875 
Q 19.53125 -1.421875 13.0625 8.265625 
Q 6.59375 17.96875 6.59375 36.375 
Q 6.59375 54.828125 13.0625 64.515625 
Q 19.53125 74.21875 31.78125 74.21875 
z
" id="DejaVuSans-48"/>
     <path d="M 8.5 -20.796875 
L 8.5 54.6875 
L 17.484375 54.6875 
L 17.484375 20.703125 
Q 17.484375 13.625 20.84375 10 
Q 24.21875 6.390625 30.8125 6.390625 
Q 38.03125 6.390625 41.671875 10.484375 
Q 45.3125 14.59375 45.3125 22.796875 
L 45.3125 54.6875 
L 54.296875 54.6875 
L 54.296875 12.59375 
Q 54.296875 9.671875 55.140625 8.28125 
Q 56 6.890625 57.8125 6.890625 
Q 58.25 6.890625 59.03125 7.15625 
Q 59.8125 7.421875 61.1875 8.015625 
L 61.1875 0.78125 
Q 59.1875 -0.34375 57.390625 -0.875 
Q 55.609375 -1.421875 53.90625 -1.421875 
Q 50.53125 -1.421875 48.53125 0.484375 
Q 46.53125 2.390625 45.796875 6.296875 
Q 43.359375 2.4375 39.8125 0.5 
Q 36.28125 -1.421875 31.5 -1.421875 
Q 26.515625 -1.421875 23.015625 0.484375 
Q 19.53125 2.390625 17.484375 6.203125 
L 17.484375 -20.796875 
z
" id="DejaVuSans-956"/>
     <path d="M 9.8125 72.90625 
L 51.703125 72.90625 
L 51.703125 64.59375 
L 19.671875 64.59375 
L 19.671875 43.109375 
L 48.578125 43.109375 
L 48.578125 34.8125 
L 19.671875 34.8125 
L 19.671875 0 
L 9.8125 0 
z
" id="DejaVuSans-70"/>
    </defs>
    <g transform="translate(259.095625 255.529362)scale(0.14 -0.14)">
     <use transform="translate(0 0.78125)" xlink:href="#DejaVuSans-46"/>
     <use transform="translate(31.787109 0.78125)" xlink:href="#DejaVuSans-48"/>
     <use transform="translate(95.410156 0.78125)" xlink:href="#DejaVuSans-49"/>
     <use transform="translate(159.033203 0.78125)" xlink:href="#DejaVuSans-956"/>
     <use transform="translate(222.65625 0.78125)" xlink:href="#DejaVuSans-70"/>
    </g>
   </g>
   <g id="text_23">
    <!-- +Vcc -->
    <g transform="translate(160.553594 18.433737)scale(0.14 -0.14)">
     <use xlink:href="#DejaVuSans-43"/>
     <use x="83.789062" xlink:href="#DejaVuSans-86"/>
     <use x="152.197266" xlink:href="#DejaVuSans-99"/>
     <use x="207.177734" xlink:href="#DejaVuSans-99"/>
    </g>
   </g>
   <g id="text_24">
    <!-- 330 -->
    <g transform="translate(282.994375 107.364987)scale(0.14 -0.14)">
     <use xlink:href="#DejaVuSans-51"/>
     <use x="63.623047" xlink:href="#DejaVuSans-51"/>
     <use x="127.246094" xlink:href="#DejaVuSans-48"/>
    </g>
   </g>
  </g>
 </g>
 <defs>
  <clipPath id="p9f68206c06">
   <rect height="316.7766" width="385.727317" x="8.577111" y="7.2"/>
  </clipPath>
 </defs>
</svg>
