<?xml version="1.0" encoding="utf-8" standalone="no"?>
<!DOCTYPE svg PUBLIC "-//W3C//DTD SVG 1.1//EN"
  "http://www.w3.org/Graphics/SVG/1.1/DTD/svg11.dtd">
<!-- Created with matplotlib (https://matplotlib.org/) -->
<svg height="50.67pt" version="1.1" viewBox="0 0 86.814 50.67" width="86.814pt" xmlns="http://www.w3.org/2000/svg" xmlns:xlink="http://www.w3.org/1999/xlink">
 <defs>
  <style type="text/css">
*{stroke-linecap:butt;stroke-linejoin:round;}
  </style>
 </defs>
 <g id="figure_1">
  <g id="patch_1">
   <path d="M 0 50.67 
L 86.814 50.67 
L 86.814 0 
L 0 0 
z
" style="fill:none;"/>
  </g>
  <g id="axes_1">
   <g id="patch_2">
    <path clip-path="url(#p13448b44ec)" d="M 45.837 39.285 
C 50.131859 39.285 54.255206 37.814269 57.29213 35.19914 
C 60.329054 32.58401 62.037 29.033351 62.037 25.335 
C 62.037 21.636649 60.329054 18.08599 57.29213 15.47086 
C 54.255206 12.855731 50.131859 11.385 45.837 11.385 
" style="fill:none;stroke:#000000;stroke-linejoin:miter;stroke-width:1.5;"/>
   </g>
   <g id="line2d_1">
    <path clip-path="url(#p13448b44ec)" d="M 13.437 25.335 
M 69.813 25.335 
L 73.377 25.335 
" style="fill:none;stroke:#000000;stroke-linecap:round;stroke-width:1.5;"/>
   </g>
   <g id="line2d_2">
    <path clip-path="url(#p13448b44ec)" d="M 24.777 25.335 
L 24.777 39.285 
L 45.837 39.285 
" style="fill:none;stroke:#000000;stroke-linecap:round;stroke-width:1.5;"/>
   </g>
   <g id="line2d_3">
    <path clip-path="url(#p13448b44ec)" d="M 24.777 25.335 
L 24.777 11.385 
L 45.837 11.385 
" style="fill:none;stroke:#000000;stroke-linecap:round;stroke-width:1.5;"/>
   </g>
   <g id="line2d_4">
    <path clip-path="url(#p13448b44ec)" d="M 13.437 34.542 
L 24.777 34.542 
" style="fill:none;stroke:#000000;stroke-linecap:round;stroke-width:1.5;"/>
   </g>
   <g id="line2d_5">
    <path clip-path="url(#p13448b44ec)" d="M 13.437 25.335 
L 24.777 25.335 
" style="fill:none;stroke:#000000;stroke-linecap:round;stroke-width:1.5;"/>
   </g>
   <g id="line2d_6">
    <path clip-path="url(#p13448b44ec)" d="M 13.437 16.128 
L 17.001 16.128 
" style="fill:none;stroke:#000000;stroke-linecap:round;stroke-width:1.5;"/>
   </g>
   <g id="patch_3">
    <path clip-path="url(#p13448b44ec)" d="M 65.925 28.683 
C 66.95611 28.683 67.945127 28.330234 68.674231 27.702394 
C 69.403336 27.074553 69.813 26.2229 69.813 25.335 
C 69.813 24.4471 69.403336 23.595447 68.674231 22.967606 
C 67.945127 22.339766 66.95611 21.987 65.925 21.987 
C 64.89389 21.987 63.904873 22.339766 63.175769 22.967606 
C 62.446664 23.595447 62.037 24.4471 62.037 25.335 
C 62.037 26.2229 62.446664 27.074553 63.175769 27.702394 
C 63.904873 28.330234 64.89389 28.683 65.925 28.683 
z
" style="fill:none;stroke:#000000;stroke-linejoin:miter;stroke-width:1.5;"/>
   </g>
   <g id="patch_4">
    <path clip-path="url(#p13448b44ec)" d="M 20.889 19.476 
C 21.92011 19.476 22.909127 19.123234 23.638231 18.495394 
C 24.367336 17.867553 24.777 17.0159 24.777 16.128 
C 24.777 15.2401 24.367336 14.388447 23.638231 13.760606 
C 22.909127 13.132766 21.92011 12.78 20.889 12.78 
C 19.85789 12.78 18.868873 13.132766 18.139769 13.760606 
C 17.410664 14.388447 17.001 15.2401 17.001 16.128 
C 17.001 17.0159 17.410664 17.867553 18.139769 18.495394 
C 18.868873 19.123234 19.85789 19.476 20.889 19.476 
z
" style="fill:none;stroke:#000000;stroke-linejoin:miter;stroke-width:1.5;"/>
   </g>
  </g>
 </g>
 <defs>
  <clipPath id="p13448b44ec">
   <rect height="36.27" width="72.414" x="7.2" y="7.2"/>
  </clipPath>
 </defs>
</svg>
