<?xml version="1.0" encoding="utf-8" standalone="no"?>
<!DOCTYPE svg PUBLIC "-//W3C//DTD SVG 1.1//EN"
  "http://www.w3.org/Graphics/SVG/1.1/DTD/svg11.dtd">
<!-- Created with matplotlib (http://matplotlib.org/) -->
<svg height="51pt" version="1.1" viewBox="0 0 80 51" width="80pt" xmlns="http://www.w3.org/2000/svg" xmlns:xlink="http://www.w3.org/1999/xlink">
 <defs>
  <style type="text/css">
*{stroke-linecap:butt;stroke-linejoin:round;stroke-miterlimit:100000;}
  </style>
 </defs>
 <g id="figure_1">
  <g id="patch_1">
   <path d="M 0 51.12 
L 80.82 51.12 
L 80.82 0 
L 0 0 
z
" style="fill:none;"/>
  </g>
  <g id="axes_1">
   <g id="patch_2">
    <path clip-path="url(#p84c1d750e3)" d="M 42.84 40.86 
C 47.134859 40.86 51.258206 39.24694 54.29513 36.378734 
C 57.332054 33.510528 59.04 29.616256 59.04 25.56 
C 59.04 21.503744 57.332054 17.609472 54.29513 14.741266 
C 51.258206 11.87306 47.134859 10.26 42.84 10.26 
" style="fill:none;stroke:#000000;stroke-linejoin:miter;stroke-width:1.5;"/>
   </g>
   <g id="line2d_1">
    <path clip-path="url(#p84c1d750e3)" d="M 66.816 25.56 
L 70.38 25.56 
" style="fill:none;stroke:#000000;stroke-linecap:round;stroke-width:1.5;"/>
   </g>
   <g id="line2d_2">
    <path clip-path="url(#p84c1d750e3)" d="M 21.78 25.56 
L 21.78 40.86 
L 42.84 40.86 
" style="fill:none;stroke:#000000;stroke-linecap:round;stroke-width:1.5;"/>
   </g>
   <g id="line2d_3">
    <path clip-path="url(#p84c1d750e3)" d="M 21.78 25.56 
L 21.78 10.26 
L 42.84 10.26 
" style="fill:none;stroke:#000000;stroke-linecap:round;stroke-width:1.5;"/>
   </g>
   <g id="line2d_4">
    <path clip-path="url(#p84c1d750e3)" d="M 10.44 35.658 
L 21.78 35.658 
" style="fill:none;stroke:#000000;stroke-linecap:round;stroke-width:1.5;"/>
   </g>
   <g id="line2d_5">
    <path clip-path="url(#p84c1d750e3)" d="M 10.44 25.56 
L 21.78 25.56 
" style="fill:none;stroke:#000000;stroke-linecap:round;stroke-width:1.5;"/>
   </g>
   <g id="line2d_6">
    <path clip-path="url(#p84c1d750e3)" d="M 10.44 15.462 
L 14.004 15.462 
" style="fill:none;stroke:#000000;stroke-linecap:round;stroke-width:1.5;"/>
   </g>
   <g id="patch_3">
    <path clip-path="url(#p84c1d750e3)" d="M 62.928 29.232 
C 63.95911 29.232 64.948127 28.845095 65.677231 28.156496 
C 66.406336 27.467897 66.816 26.533826 66.816 25.56 
C 66.816 24.586174 66.406336 23.652103 65.677231 22.963504 
C 64.948127 22.274905 63.95911 21.888 62.928 21.888 
C 61.89689 21.888 60.907873 22.274905 60.178769 22.963504 
C 59.449664 23.652103 59.04 24.586174 59.04 25.56 
C 59.04 26.533826 59.449664 27.467897 60.178769 28.156496 
C 60.907873 28.845095 61.89689 29.232 62.928 29.232 
z
" style="fill:none;stroke:#000000;stroke-linejoin:miter;stroke-width:1.5;"/>
   </g>
   <g id="patch_4">
    <path clip-path="url(#p84c1d750e3)" d="M 17.892 19.134 
C 18.92311 19.134 19.912127 18.747095 20.641231 18.058496 
C 21.370336 17.369897 21.78 16.435826 21.78 15.462 
C 21.78 14.488174 21.370336 13.554103 20.641231 12.865504 
C 19.912127 12.176905 18.92311 11.79 17.892 11.79 
C 16.86089 11.79 15.871873 12.176905 15.142769 12.865504 
C 14.413664 13.554103 14.004 14.488174 14.004 15.462 
C 14.004 16.435826 14.413664 17.369897 15.142769 18.058496 
C 15.871873 18.747095 16.86089 19.134 17.892 19.134 
z
" style="fill:none;stroke:#000000;stroke-linejoin:miter;stroke-width:1.5;"/>
   </g>
  </g>
 </g>
 <defs>
  <clipPath id="p84c1d750e3">
   <rect height="36.72" width="66.42" x="7.2" y="7.2"/>
  </clipPath>
 </defs>
</svg>
