<?xml version="1.0" encoding="utf-8" standalone="no"?>
<!DOCTYPE svg PUBLIC "-//W3C//DTD SVG 1.1//EN"
  "http://www.w3.org/Graphics/SVG/1.1/DTD/svg11.dtd">
<!-- Created with matplotlib (http://matplotlib.org/) -->
<svg height="57.67pt" version="1.1" viewBox="0 0 93.814 57.67" width="93.814pt" xmlns="http://www.w3.org/2000/svg" xmlns:xlink="http://www.w3.org/1999/xlink">
 <defs>
  <style type="text/css">
*{stroke-linecap:butt;stroke-linejoin:round;}
  </style>
 </defs>
 <g id="figure_1">
  <g id="patch_1">
   <path d="M 0 57.67 
L 93.814 57.67 
L 93.814 0 
L 0 0 
z
" style="fill:none;"/>
  </g>
  <g id="axes_1">
   <g id="patch_2">
    <path clip-path="url(#p87bd2dc6f8)" d="M 49.337 42.785 
C 53.631859 42.785 57.755206 41.314269 60.79213 38.69914 
C 63.829054 36.08401 65.537 32.533351 65.537 28.835 
C 65.537 25.136649 63.829054 21.58599 60.79213 18.97086 
C 57.755206 16.355731 53.631859 14.885 49.337 14.885 
" style="fill:none;stroke:#000000;stroke-linejoin:miter;stroke-width:1.5;"/>
   </g>
   <g id="line2d_1">
    <path clip-path="url(#p87bd2dc6f8)" d="M 16.937 28.835 
M 73.313 28.835 
L 76.877 28.835 
" style="fill:none;stroke:#000000;stroke-linecap:round;stroke-width:1.5;"/>
   </g>
   <g id="line2d_2">
    <path clip-path="url(#p87bd2dc6f8)" d="M 28.277 28.835 
L 28.277 42.785 
L 49.337 42.785 
" style="fill:none;stroke:#000000;stroke-linecap:round;stroke-width:1.5;"/>
   </g>
   <g id="line2d_3">
    <path clip-path="url(#p87bd2dc6f8)" d="M 28.277 28.835 
L 28.277 14.885 
L 49.337 14.885 
" style="fill:none;stroke:#000000;stroke-linecap:round;stroke-width:1.5;"/>
   </g>
   <g id="line2d_4">
    <path clip-path="url(#p87bd2dc6f8)" d="M 16.937 38.042 
L 28.277 38.042 
" style="fill:none;stroke:#000000;stroke-linecap:round;stroke-width:1.5;"/>
   </g>
   <g id="line2d_5">
    <path clip-path="url(#p87bd2dc6f8)" d="M 16.937 28.835 
L 28.277 28.835 
" style="fill:none;stroke:#000000;stroke-linecap:round;stroke-width:1.5;"/>
   </g>
   <g id="line2d_6">
    <path clip-path="url(#p87bd2dc6f8)" d="M 16.937 19.628 
L 20.501 19.628 
" style="fill:none;stroke:#000000;stroke-linecap:round;stroke-width:1.5;"/>
   </g>
   <g id="patch_3">
    <path clip-path="url(#p87bd2dc6f8)" d="M 69.425 32.183 
C 70.45611 32.183 71.445127 31.830234 72.174231 31.202394 
C 72.903336 30.574553 73.313 29.7229 73.313 28.835 
C 73.313 27.9471 72.903336 27.095447 72.174231 26.467606 
C 71.445127 25.839766 70.45611 25.487 69.425 25.487 
C 68.39389 25.487 67.404873 25.839766 66.675769 26.467606 
C 65.946664 27.095447 65.537 27.9471 65.537 28.835 
C 65.537 29.7229 65.946664 30.574553 66.675769 31.202394 
C 67.404873 31.830234 68.39389 32.183 69.425 32.183 
z
" style="fill:none;stroke:#000000;stroke-linejoin:miter;stroke-width:1.5;"/>
   </g>
   <g id="patch_4">
    <path clip-path="url(#p87bd2dc6f8)" d="M 24.389 22.976 
C 25.42011 22.976 26.409127 22.623234 27.138231 21.995394 
C 27.867336 21.367553 28.277 20.5159 28.277 19.628 
C 28.277 18.7401 27.867336 17.888447 27.138231 17.260606 
C 26.409127 16.632766 25.42011 16.28 24.389 16.28 
C 23.35789 16.28 22.368873 16.632766 21.639769 17.260606 
C 20.910664 17.888447 20.501 18.7401 20.501 19.628 
C 20.501 20.5159 20.910664 21.367553 21.639769 21.995394 
C 22.368873 22.623234 23.35789 22.976 24.389 22.976 
z
" style="fill:none;stroke:#000000;stroke-linejoin:miter;stroke-width:1.5;"/>
   </g>
  </g>
 </g>
 <defs>
  <clipPath id="p87bd2dc6f8">
   <rect height="36.27" width="72.414" x="10.7" y="10.7"/>
  </clipPath>
 </defs>
</svg>
