<?xml version="1.0" encoding="utf-8" standalone="no"?>
<!DOCTYPE svg PUBLIC "-//W3C//DTD SVG 1.1//EN"
  "http://www.w3.org/Graphics/SVG/1.1/DTD/svg11.dtd">
<!-- Created with matplotlib (http://matplotlib.org/) -->
<svg height="160pt" version="1.1" viewBox="0 0 341 160" width="341pt" xmlns="http://www.w3.org/2000/svg" xmlns:xlink="http://www.w3.org/1999/xlink">
 <defs>
  <style type="text/css">
*{stroke-linecap:butt;stroke-linejoin:round;}
  </style>
 </defs>
 <g id="figure_1">
  <g id="patch_1">
   <path d="M 0 160.72655 
L 341.977512 160.72655 
L 341.977512 0 
L 0 0 
z
" style="fill:none;"/>
  </g>
  <g id="axes_1">
   <g id="patch_2">
    <path clip-path="url(#p7323ed781d)" d="M 182.0717 58.89975 
L 175.043153 57.240232 
L 177.141174 54.928523 
L 169.587157 48.813367 
L 169.608243 48.790133 
L 177.16226 54.90529 
L 179.260281 52.593582 
z
" style="stroke:#000000;stroke-linejoin:miter;stroke-width:1.5;"/>
   </g>
   <g id="patch_3">
    <path clip-path="url(#p7323ed781d)" d="M 299.1977 37.58175 
L 302.009119 31.275582 
L 304.10714 33.58729 
L 311.661157 27.472133 
L 311.682243 27.495367 
L 304.128226 33.610523 
L 306.226247 35.922232 
z
" style="stroke:#000000;stroke-linejoin:miter;stroke-width:1.5;"/>
   </g>
   <g id="patch_4">
    <path clip-path="url(#p7323ed781d)" d="M 52.4717 135.39975 
L 45.443153 133.740232 
L 47.541174 131.428523 
L 39.987157 125.313367 
L 40.008243 125.290133 
L 47.56226 131.40529 
L 49.660281 129.093582 
z
" style="stroke:#000000;stroke-linejoin:miter;stroke-width:1.5;"/>
   </g>
   <g id="patch_5">
    <path clip-path="url(#p7323ed781d)" d="M 169.5977 114.08175 
L 172.409119 107.775582 
L 174.50714 110.08729 
L 182.061157 103.972133 
L 182.082243 103.995367 
L 174.528226 110.110523 
L 176.626247 112.422232 
z
" style="stroke:#000000;stroke-linejoin:miter;stroke-width:1.5;"/>
   </g>
   <g id="patch_6">
    <path clip-path="url(#p7323ed781d)" d="M 299.1977 114.08175 
L 302.009119 107.775582 
L 304.10714 110.08729 
L 311.661157 103.972133 
L 311.682243 103.995367 
L 304.128226 110.110523 
L 306.226247 112.422232 
z
" style="stroke:#000000;stroke-linejoin:miter;stroke-width:1.5;"/>
   </g>
   <g id="line2d_1">
    <path clip-path="url(#p7323ed781d)" d="M 39.9977 48.80175 
L 52.4717 58.89975 
L 52.4717 64.50975 
" style="fill:none;stroke:#000000;stroke-linecap:round;stroke-width:1.5;"/>
   </g>
   <g id="line2d_2">
    <path clip-path="url(#p7323ed781d)" d="M 28.1177 43.19175 
L 39.9977 43.19175 
" style="fill:none;stroke:#000000;stroke-linecap:round;stroke-width:1.5;"/>
   </g>
   <g id="line2d_3">
    <path clip-path="url(#p7323ed781d)" d="M 39.9977 31.97175 
L 39.9977 54.41175 
" style="fill:none;stroke:#000000;stroke-linecap:round;stroke-width:1.5;"/>
   </g>
   <g id="line2d_4">
    <path clip-path="url(#p7323ed781d)" d="M 39.9977 37.58175 
L 52.4717 27.48375 
L 52.4717 21.87375 
" style="fill:none;stroke:#000000;stroke-linecap:round;stroke-width:1.5;"/>
   </g>
   <g id="line2d_5">
    <path clip-path="url(#p7323ed781d)" d="M 169.5977 48.80175 
L 182.0717 58.89975 
L 182.0717 64.50975 
" style="fill:none;stroke:#000000;stroke-linecap:round;stroke-width:1.5;"/>
   </g>
   <g id="line2d_6">
    <path clip-path="url(#p7323ed781d)" d="M 157.7177 43.19175 
L 169.5977 43.19175 
" style="fill:none;stroke:#000000;stroke-linecap:round;stroke-width:1.5;"/>
   </g>
   <g id="line2d_7">
    <path clip-path="url(#p7323ed781d)" d="M 169.5977 31.97175 
L 169.5977 54.41175 
" style="fill:none;stroke:#000000;stroke-linecap:round;stroke-width:1.5;"/>
   </g>
   <g id="line2d_8">
    <path clip-path="url(#p7323ed781d)" d="M 169.5977 37.58175 
L 182.0717 27.48375 
L 182.0717 21.87375 
" style="fill:none;stroke:#000000;stroke-linecap:round;stroke-width:1.5;"/>
   </g>
   <g id="line2d_9">
    <path clip-path="url(#p7323ed781d)" d="M 299.1977 48.80175 
L 311.6717 58.89975 
L 311.6717 64.50975 
" style="fill:none;stroke:#000000;stroke-linecap:round;stroke-width:1.5;"/>
   </g>
   <g id="line2d_10">
    <path clip-path="url(#p7323ed781d)" d="M 287.3177 43.19175 
L 299.1977 43.19175 
" style="fill:none;stroke:#000000;stroke-linecap:round;stroke-width:1.5;"/>
   </g>
   <g id="line2d_11">
    <path clip-path="url(#p7323ed781d)" d="M 299.1977 31.97175 
L 299.1977 54.41175 
" style="fill:none;stroke:#000000;stroke-linecap:round;stroke-width:1.5;"/>
   </g>
   <g id="line2d_12">
    <path clip-path="url(#p7323ed781d)" d="M 299.1977 37.58175 
L 311.6717 27.48375 
L 311.6717 21.87375 
" style="fill:none;stroke:#000000;stroke-linecap:round;stroke-width:1.5;"/>
   </g>
   <g id="line2d_13">
    <path clip-path="url(#p7323ed781d)" d="M 39.9977 125.30175 
L 52.4717 135.39975 
L 52.4717 141.00975 
" style="fill:none;stroke:#000000;stroke-linecap:round;stroke-width:1.5;"/>
   </g>
   <g id="line2d_14">
    <path clip-path="url(#p7323ed781d)" d="M 28.1177 119.69175 
L 39.9977 119.69175 
" style="fill:none;stroke:#000000;stroke-linecap:round;stroke-width:1.5;"/>
   </g>
   <g id="line2d_15">
    <path clip-path="url(#p7323ed781d)" d="M 39.9977 108.47175 
L 39.9977 130.91175 
" style="fill:none;stroke:#000000;stroke-linecap:round;stroke-width:1.5;"/>
   </g>
   <g id="line2d_16">
    <path clip-path="url(#p7323ed781d)" d="M 39.9977 114.08175 
L 52.4717 103.98375 
L 52.4717 98.37375 
" style="fill:none;stroke:#000000;stroke-linecap:round;stroke-width:1.5;"/>
   </g>
   <g id="line2d_17">
    <path clip-path="url(#p7323ed781d)" d="M 169.5977 125.30175 
L 182.0717 135.39975 
L 182.0717 141.00975 
" style="fill:none;stroke:#000000;stroke-linecap:round;stroke-width:1.5;"/>
   </g>
   <g id="line2d_18">
    <path clip-path="url(#p7323ed781d)" d="M 157.7177 119.69175 
L 169.5977 119.69175 
" style="fill:none;stroke:#000000;stroke-linecap:round;stroke-width:1.5;"/>
   </g>
   <g id="line2d_19">
    <path clip-path="url(#p7323ed781d)" d="M 169.5977 108.47175 
L 169.5977 130.91175 
" style="fill:none;stroke:#000000;stroke-linecap:round;stroke-width:1.5;"/>
   </g>
   <g id="line2d_20">
    <path clip-path="url(#p7323ed781d)" d="M 169.5977 114.08175 
L 182.0717 103.98375 
L 182.0717 98.37375 
" style="fill:none;stroke:#000000;stroke-linecap:round;stroke-width:1.5;"/>
   </g>
   <g id="line2d_21">
    <path clip-path="url(#p7323ed781d)" d="M 299.1977 125.30175 
L 311.6717 135.39975 
L 311.6717 141.00975 
" style="fill:none;stroke:#000000;stroke-linecap:round;stroke-width:1.5;"/>
   </g>
   <g id="line2d_22">
    <path clip-path="url(#p7323ed781d)" d="M 299.1977 117.65175 
L 311.6717 127.74975 
" style="fill:none;stroke:#000000;stroke-linecap:round;stroke-width:1.5;"/>
   </g>
   <g id="line2d_23">
    <path clip-path="url(#p7323ed781d)" d="M 287.3177 119.69175 
L 299.1977 119.69175 
" style="fill:none;stroke:#000000;stroke-linecap:round;stroke-width:1.5;"/>
   </g>
   <g id="line2d_24">
    <path clip-path="url(#p7323ed781d)" d="M 299.1977 108.47175 
L 299.1977 130.91175 
" style="fill:none;stroke:#000000;stroke-linecap:round;stroke-width:1.5;"/>
   </g>
   <g id="line2d_25">
    <path clip-path="url(#p7323ed781d)" d="M 299.1977 114.08175 
L 311.6717 103.98375 
L 311.6717 98.37375 
" style="fill:none;stroke:#000000;stroke-linecap:round;stroke-width:1.5;"/>
   </g>
   <g id="patch_7">
    <path clip-path="url(#p7323ed781d)" d="M 45.9377 136.52175 
C 50.663619 136.52175 55.196613 134.748435 58.538343 131.592357 
C 61.880072 128.436279 63.7577 124.155118 63.7577 119.69175 
C 63.7577 115.228382 61.880072 110.947221 58.538343 107.791143 
C 55.196613 104.635065 50.663619 102.86175 45.9377 102.86175 
C 41.211781 102.86175 36.678787 104.635065 33.337057 107.791143 
C 29.995328 110.947221 28.1177 115.228382 28.1177 119.69175 
C 28.1177 124.155118 29.995328 128.436279 33.337057 131.592357 
C 36.678787 134.748435 41.211781 136.52175 45.9377 136.52175 
z
" style="fill:none;stroke:#000000;stroke-linejoin:miter;stroke-width:1.5;"/>
   </g>
   <g id="patch_8">
    <path clip-path="url(#p7323ed781d)" d="M 175.5377 136.52175 
C 180.263619 136.52175 184.796613 134.748435 188.138343 131.592357 
C 191.480072 128.436279 193.3577 124.155118 193.3577 119.69175 
C 193.3577 115.228382 191.480072 110.947221 188.138343 107.791143 
C 184.796613 104.635065 180.263619 102.86175 175.5377 102.86175 
C 170.811781 102.86175 166.278787 104.635065 162.937057 107.791143 
C 159.595328 110.947221 157.7177 115.228382 157.7177 119.69175 
C 157.7177 124.155118 159.595328 128.436279 162.937057 131.592357 
C 166.278787 134.748435 170.811781 136.52175 175.5377 136.52175 
z
" style="fill:none;stroke:#000000;stroke-linejoin:miter;stroke-width:1.5;"/>
   </g>
   <g id="text_1">
    <!-- BJT -->
    <defs>
     <path d="M 19.671875 34.8125 
L 19.671875 8.109375 
L 35.5 8.109375 
Q 43.453125 8.109375 47.28125 11.40625 
Q 51.125 14.703125 51.125 21.484375 
Q 51.125 28.328125 47.28125 31.5625 
Q 43.453125 34.8125 35.5 34.8125 
z
M 19.671875 64.796875 
L 19.671875 42.828125 
L 34.28125 42.828125 
Q 41.5 42.828125 45.03125 45.53125 
Q 48.578125 48.25 48.578125 53.8125 
Q 48.578125 59.328125 45.03125 62.0625 
Q 41.5 64.796875 34.28125 64.796875 
z
M 9.8125 72.90625 
L 35.015625 72.90625 
Q 46.296875 72.90625 52.390625 68.21875 
Q 58.5 63.53125 58.5 54.890625 
Q 58.5 48.1875 55.375 44.234375 
Q 52.25 40.28125 46.1875 39.3125 
Q 53.46875 37.75 57.5 32.78125 
Q 61.53125 27.828125 61.53125 20.40625 
Q 61.53125 10.640625 54.890625 5.3125 
Q 48.25 0 35.984375 0 
L 9.8125 0 
z
" id="DejaVuSans-42"/>
     <path d="M 9.8125 72.90625 
L 19.671875 72.90625 
L 19.671875 5.078125 
Q 19.671875 -8.109375 14.671875 -14.0625 
Q 9.671875 -20.015625 -1.421875 -20.015625 
L -5.171875 -20.015625 
L -5.171875 -11.71875 
L -2.09375 -11.71875 
Q 4.4375 -11.71875 7.125 -8.046875 
Q 9.8125 -4.390625 9.8125 5.078125 
z
" id="DejaVuSans-4a"/>
     <path d="M -0.296875 72.90625 
L 61.375 72.90625 
L 61.375 64.59375 
L 35.5 64.59375 
L 35.5 0 
L 25.59375 0 
L 25.59375 64.59375 
L -0.296875 64.59375 
z
" id="DejaVuSans-54"/>
    </defs>
    <g transform="translate(30.74345 16.318125)scale(0.12 -0.12)">
     <use xlink:href="#DejaVuSans-42"/>
     <use x="68.603516" xlink:href="#DejaVuSans-4a"/>
     <use x="98.095703" xlink:href="#DejaVuSans-54"/>
    </g>
   </g>
   <g id="text_2">
    <!-- BJT_NPN -->
    <defs>
     <path d="M 50.984375 -16.609375 
L 50.984375 -23.578125 
L -0.984375 -23.578125 
L -0.984375 -16.609375 
z
" id="DejaVuSans-5f"/>
     <path d="M 9.8125 72.90625 
L 23.09375 72.90625 
L 55.421875 11.921875 
L 55.421875 72.90625 
L 64.984375 72.90625 
L 64.984375 0 
L 51.703125 0 
L 19.390625 60.984375 
L 19.390625 0 
L 9.8125 0 
z
" id="DejaVuSans-4e"/>
     <path d="M 19.671875 64.796875 
L 19.671875 37.40625 
L 32.078125 37.40625 
Q 38.96875 37.40625 42.71875 40.96875 
Q 46.484375 44.53125 46.484375 51.125 
Q 46.484375 57.671875 42.71875 61.234375 
Q 38.96875 64.796875 32.078125 64.796875 
z
M 9.8125 72.90625 
L 32.078125 72.90625 
Q 44.34375 72.90625 50.609375 67.359375 
Q 56.890625 61.8125 56.890625 51.125 
Q 56.890625 40.328125 50.609375 34.8125 
Q 44.34375 29.296875 32.078125 29.296875 
L 19.671875 29.296875 
L 19.671875 0 
L 9.8125 0 
z
" id="DejaVuSans-50"/>
    </defs>
    <g transform="translate(144.748138 15.984375)scale(0.12 -0.12)">
     <use xlink:href="#DejaVuSans-42"/>
     <use x="68.603516" xlink:href="#DejaVuSans-4a"/>
     <use x="98.095703" xlink:href="#DejaVuSans-54"/>
     <use x="159.179688" xlink:href="#DejaVuSans-5f"/>
     <use x="209.179688" xlink:href="#DejaVuSans-4e"/>
     <use x="283.984375" xlink:href="#DejaVuSans-50"/>
     <use x="344.287109" xlink:href="#DejaVuSans-4e"/>
    </g>
   </g>
   <g id="text_3">
    <!-- BJT_PNP -->
    <g transform="translate(275.219075 15.984375)scale(0.12 -0.12)">
     <use xlink:href="#DejaVuSans-42"/>
     <use x="68.603516" xlink:href="#DejaVuSans-4a"/>
     <use x="98.095703" xlink:href="#DejaVuSans-54"/>
     <use x="159.179688" xlink:href="#DejaVuSans-5f"/>
     <use x="209.179688" xlink:href="#DejaVuSans-50"/>
     <use x="269.482422" xlink:href="#DejaVuSans-4e"/>
     <use x="344.287109" xlink:href="#DejaVuSans-50"/>
    </g>
   </g>
   <g id="text_4">
    <!-- BJT_NPN_C -->
    <defs>
     <path d="M 64.40625 67.28125 
L 64.40625 56.890625 
Q 59.421875 61.53125 53.78125 63.8125 
Q 48.140625 66.109375 41.796875 66.109375 
Q 29.296875 66.109375 22.65625 58.46875 
Q 16.015625 50.828125 16.015625 36.375 
Q 16.015625 21.96875 22.65625 14.328125 
Q 29.296875 6.6875 41.796875 6.6875 
Q 48.140625 6.6875 53.78125 8.984375 
Q 59.421875 11.28125 64.40625 15.921875 
L 64.40625 5.609375 
Q 59.234375 2.09375 53.4375 0.328125 
Q 47.65625 -1.421875 41.21875 -1.421875 
Q 24.65625 -1.421875 15.125 8.703125 
Q 5.609375 18.84375 5.609375 36.375 
Q 5.609375 53.953125 15.125 64.078125 
Q 24.65625 74.21875 41.21875 74.21875 
Q 47.75 74.21875 53.53125 72.484375 
Q 59.328125 70.75 64.40625 67.28125 
z
" id="DejaVuSans-43"/>
    </defs>
    <g transform="translate(13.60145 92.484375)scale(0.12 -0.12)">
     <use xlink:href="#DejaVuSans-42"/>
     <use x="68.603516" xlink:href="#DejaVuSans-4a"/>
     <use x="98.095703" xlink:href="#DejaVuSans-54"/>
     <use x="159.179688" xlink:href="#DejaVuSans-5f"/>
     <use x="209.179688" xlink:href="#DejaVuSans-4e"/>
     <use x="283.984375" xlink:href="#DejaVuSans-50"/>
     <use x="344.287109" xlink:href="#DejaVuSans-4e"/>
     <use x="419.091797" xlink:href="#DejaVuSans-5f"/>
     <use x="469.091797" xlink:href="#DejaVuSans-43"/>
    </g>
   </g>
   <g id="text_5">
    <!-- BJT_PNP_C -->
    <g transform="translate(144.072387 92.484375)scale(0.12 -0.12)">
     <use xlink:href="#DejaVuSans-42"/>
     <use x="68.603516" xlink:href="#DejaVuSans-4a"/>
     <use x="98.095703" xlink:href="#DejaVuSans-54"/>
     <use x="159.179688" xlink:href="#DejaVuSans-5f"/>
     <use x="209.179688" xlink:href="#DejaVuSans-50"/>
     <use x="269.482422" xlink:href="#DejaVuSans-4e"/>
     <use x="344.287109" xlink:href="#DejaVuSans-50"/>
     <use x="404.589844" xlink:href="#DejaVuSans-5f"/>
     <use x="454.589844" xlink:href="#DejaVuSans-43"/>
    </g>
   </g>
   <g id="text_6">
    <!-- BJT_PNP_2C -->
    <defs>
     <path d="M 19.1875 8.296875 
L 53.609375 8.296875 
L 53.609375 0 
L 7.328125 0 
L 7.328125 8.296875 
Q 12.9375 14.109375 22.625 23.890625 
Q 32.328125 33.6875 34.8125 36.53125 
Q 39.546875 41.84375 41.421875 45.53125 
Q 43.3125 49.21875 43.3125 52.78125 
Q 43.3125 58.59375 39.234375 62.25 
Q 35.15625 65.921875 28.609375 65.921875 
Q 23.96875 65.921875 18.8125 64.3125 
Q 13.671875 62.703125 7.8125 59.421875 
L 7.8125 69.390625 
Q 13.765625 71.78125 18.9375 73 
Q 24.125 74.21875 28.421875 74.21875 
Q 39.75 74.21875 46.484375 68.546875 
Q 53.21875 62.890625 53.21875 53.421875 
Q 53.21875 48.921875 51.53125 44.890625 
Q 49.859375 40.875 45.40625 35.40625 
Q 44.1875 33.984375 37.640625 27.21875 
Q 31.109375 20.453125 19.1875 8.296875 
z
" id="DejaVuSans-32"/>
    </defs>
    <g transform="translate(264.211887 92.484375)scale(0.12 -0.12)">
     <use xlink:href="#DejaVuSans-42"/>
     <use x="68.603516" xlink:href="#DejaVuSans-4a"/>
     <use x="98.095703" xlink:href="#DejaVuSans-54"/>
     <use x="159.179688" xlink:href="#DejaVuSans-5f"/>
     <use x="209.179688" xlink:href="#DejaVuSans-50"/>
     <use x="269.482422" xlink:href="#DejaVuSans-4e"/>
     <use x="344.287109" xlink:href="#DejaVuSans-50"/>
     <use x="404.589844" xlink:href="#DejaVuSans-5f"/>
     <use x="454.589844" xlink:href="#DejaVuSans-32"/>
     <use x="518.212891" xlink:href="#DejaVuSans-43"/>
    </g>
   </g>
  </g>
 </g>
 <defs>
  <clipPath id="p7323ed781d">
   <rect height="137.1696" width="318.3894" x="10.7" y="12.85695"/>
  </clipPath>
 </defs>
</svg>
