<?xml version="1.0" encoding="utf-8" standalone="no"?>
<!DOCTYPE svg PUBLIC "-//W3C//DTD SVG 1.1//EN"
  "http://www.w3.org/Graphics/SVG/1.1/DTD/svg11.dtd">
<!-- Created with matplotlib (https://matplotlib.org/) -->
<svg height="145.64895pt" version="1.1" viewBox="0 0 338.477512 145.64895" width="338.477512pt" xmlns="http://www.w3.org/2000/svg" xmlns:xlink="http://www.w3.org/1999/xlink">
 <defs>
  <style type="text/css">
*{stroke-linecap:butt;stroke-linejoin:round;}
  </style>
 </defs>
 <g id="figure_1">
  <g id="patch_1">
   <path d="M 0 145.64895 
L 338.477512 145.64895 
L 338.477512 0 
L 0 0 
z
" style="fill:none;"/>
  </g>
  <g id="axes_1">
   <g id="patch_2">
    <path clip-path="url(#p680830f8ec)" d="M 178.5717 55.36275 
L 171.543153 53.84966 
L 173.641174 51.741926 
L 166.087157 46.166342 
L 166.108243 46.145158 
L 173.66226 51.720743 
L 175.760281 49.613008 
z
" style="stroke:#000000;stroke-linejoin:miter;stroke-width:1.5;"/>
   </g>
   <g id="patch_3">
    <path clip-path="url(#p680830f8ec)" d="M 295.6977 35.92575 
L 298.509119 30.176008 
L 300.60714 32.283743 
L 308.161157 26.708158 
L 308.182243 26.729342 
L 300.628226 32.304926 
L 302.726247 34.41266 
z
" style="stroke:#000000;stroke-linejoin:miter;stroke-width:1.5;"/>
   </g>
   <g id="patch_4">
    <path clip-path="url(#p680830f8ec)" d="M 48.9717 125.11275 
L 41.943153 123.59966 
L 44.041174 121.491926 
L 36.487157 115.916342 
L 36.508243 115.895158 
L 44.06226 121.470743 
L 46.160281 119.363008 
z
" style="stroke:#000000;stroke-linejoin:miter;stroke-width:1.5;"/>
   </g>
   <g id="patch_5">
    <path clip-path="url(#p680830f8ec)" d="M 166.0977 105.67575 
L 168.909119 99.926008 
L 171.00714 102.033743 
L 178.561157 96.458158 
L 178.582243 96.479342 
L 171.028226 102.054926 
L 173.126247 104.16266 
z
" style="stroke:#000000;stroke-linejoin:miter;stroke-width:1.5;"/>
   </g>
   <g id="patch_6">
    <path clip-path="url(#p680830f8ec)" d="M 295.6977 105.67575 
L 298.509119 99.926008 
L 300.60714 102.033743 
L 308.161157 96.458158 
L 308.182243 96.479342 
L 300.628226 102.054926 
L 302.726247 104.16266 
z
" style="stroke:#000000;stroke-linejoin:miter;stroke-width:1.5;"/>
   </g>
   <g id="line2d_1">
    <path clip-path="url(#p680830f8ec)" d="M 36.4977 46.15575 
L 48.9717 55.36275 
L 48.9717 60.47775 
" style="fill:none;stroke:#000000;stroke-linecap:round;stroke-width:1.5;"/>
   </g>
   <g id="line2d_2">
    <path clip-path="url(#p680830f8ec)" d="M 24.6177 41.04075 
L 36.4977 41.04075 
" style="fill:none;stroke:#000000;stroke-linecap:round;stroke-width:1.5;"/>
   </g>
   <g id="line2d_3">
    <path clip-path="url(#p680830f8ec)" d="M 36.4977 30.81075 
L 36.4977 51.27075 
" style="fill:none;stroke:#000000;stroke-linecap:round;stroke-width:1.5;"/>
   </g>
   <g id="line2d_4">
    <path clip-path="url(#p680830f8ec)" d="M 36.4977 35.92575 
L 48.9717 26.71875 
L 48.9717 21.60375 
" style="fill:none;stroke:#000000;stroke-linecap:round;stroke-width:1.5;"/>
   </g>
   <g id="line2d_5">
    <path clip-path="url(#p680830f8ec)" d="M 166.0977 46.15575 
L 178.5717 55.36275 
L 178.5717 60.47775 
" style="fill:none;stroke:#000000;stroke-linecap:round;stroke-width:1.5;"/>
   </g>
   <g id="line2d_6">
    <path clip-path="url(#p680830f8ec)" d="M 154.2177 41.04075 
L 166.0977 41.04075 
" style="fill:none;stroke:#000000;stroke-linecap:round;stroke-width:1.5;"/>
   </g>
   <g id="line2d_7">
    <path clip-path="url(#p680830f8ec)" d="M 166.0977 30.81075 
L 166.0977 51.27075 
" style="fill:none;stroke:#000000;stroke-linecap:round;stroke-width:1.5;"/>
   </g>
   <g id="line2d_8">
    <path clip-path="url(#p680830f8ec)" d="M 166.0977 35.92575 
L 178.5717 26.71875 
L 178.5717 21.60375 
" style="fill:none;stroke:#000000;stroke-linecap:round;stroke-width:1.5;"/>
   </g>
   <g id="line2d_9">
    <path clip-path="url(#p680830f8ec)" d="M 295.6977 46.15575 
L 308.1717 55.36275 
L 308.1717 60.47775 
" style="fill:none;stroke:#000000;stroke-linecap:round;stroke-width:1.5;"/>
   </g>
   <g id="line2d_10">
    <path clip-path="url(#p680830f8ec)" d="M 283.8177 41.04075 
L 295.6977 41.04075 
" style="fill:none;stroke:#000000;stroke-linecap:round;stroke-width:1.5;"/>
   </g>
   <g id="line2d_11">
    <path clip-path="url(#p680830f8ec)" d="M 295.6977 30.81075 
L 295.6977 51.27075 
" style="fill:none;stroke:#000000;stroke-linecap:round;stroke-width:1.5;"/>
   </g>
   <g id="line2d_12">
    <path clip-path="url(#p680830f8ec)" d="M 295.6977 35.92575 
L 308.1717 26.71875 
L 308.1717 21.60375 
" style="fill:none;stroke:#000000;stroke-linecap:round;stroke-width:1.5;"/>
   </g>
   <g id="line2d_13">
    <path clip-path="url(#p680830f8ec)" d="M 36.4977 115.90575 
L 48.9717 125.11275 
L 48.9717 130.22775 
" style="fill:none;stroke:#000000;stroke-linecap:round;stroke-width:1.5;"/>
   </g>
   <g id="line2d_14">
    <path clip-path="url(#p680830f8ec)" d="M 24.6177 110.79075 
L 36.4977 110.79075 
" style="fill:none;stroke:#000000;stroke-linecap:round;stroke-width:1.5;"/>
   </g>
   <g id="line2d_15">
    <path clip-path="url(#p680830f8ec)" d="M 36.4977 100.56075 
L 36.4977 121.02075 
" style="fill:none;stroke:#000000;stroke-linecap:round;stroke-width:1.5;"/>
   </g>
   <g id="line2d_16">
    <path clip-path="url(#p680830f8ec)" d="M 36.4977 105.67575 
L 48.9717 96.46875 
L 48.9717 91.35375 
" style="fill:none;stroke:#000000;stroke-linecap:round;stroke-width:1.5;"/>
   </g>
   <g id="line2d_17">
    <path clip-path="url(#p680830f8ec)" d="M 166.0977 115.90575 
L 178.5717 125.11275 
L 178.5717 130.22775 
" style="fill:none;stroke:#000000;stroke-linecap:round;stroke-width:1.5;"/>
   </g>
   <g id="line2d_18">
    <path clip-path="url(#p680830f8ec)" d="M 154.2177 110.79075 
L 166.0977 110.79075 
" style="fill:none;stroke:#000000;stroke-linecap:round;stroke-width:1.5;"/>
   </g>
   <g id="line2d_19">
    <path clip-path="url(#p680830f8ec)" d="M 166.0977 100.56075 
L 166.0977 121.02075 
" style="fill:none;stroke:#000000;stroke-linecap:round;stroke-width:1.5;"/>
   </g>
   <g id="line2d_20">
    <path clip-path="url(#p680830f8ec)" d="M 166.0977 105.67575 
L 178.5717 96.46875 
L 178.5717 91.35375 
" style="fill:none;stroke:#000000;stroke-linecap:round;stroke-width:1.5;"/>
   </g>
   <g id="line2d_21">
    <path clip-path="url(#p680830f8ec)" d="M 295.6977 115.90575 
L 308.1717 125.11275 
L 308.1717 130.22775 
" style="fill:none;stroke:#000000;stroke-linecap:round;stroke-width:1.5;"/>
   </g>
   <g id="line2d_22">
    <path clip-path="url(#p680830f8ec)" d="M 295.6977 108.93075 
L 308.1717 118.13775 
" style="fill:none;stroke:#000000;stroke-linecap:round;stroke-width:1.5;"/>
   </g>
   <g id="line2d_23">
    <path clip-path="url(#p680830f8ec)" d="M 283.8177 110.79075 
L 295.6977 110.79075 
" style="fill:none;stroke:#000000;stroke-linecap:round;stroke-width:1.5;"/>
   </g>
   <g id="line2d_24">
    <path clip-path="url(#p680830f8ec)" d="M 295.6977 100.56075 
L 295.6977 121.02075 
" style="fill:none;stroke:#000000;stroke-linecap:round;stroke-width:1.5;"/>
   </g>
   <g id="line2d_25">
    <path clip-path="url(#p680830f8ec)" d="M 295.6977 105.67575 
L 308.1717 96.46875 
L 308.1717 91.35375 
" style="fill:none;stroke:#000000;stroke-linecap:round;stroke-width:1.5;"/>
   </g>
   <g id="patch_7">
    <path clip-path="url(#p680830f8ec)" d="M 42.4377 126.13575 
C 47.163619 126.13575 51.696613 124.518904 55.038343 121.641304 
C 58.380072 118.763703 60.2577 114.860292 60.2577 110.79075 
C 60.2577 106.721208 58.380072 102.817797 55.038343 99.940196 
C 51.696613 97.062596 47.163619 95.44575 42.4377 95.44575 
C 37.711781 95.44575 33.178787 97.062596 29.837057 99.940196 
C 26.495328 102.817797 24.6177 106.721208 24.6177 110.79075 
C 24.6177 114.860292 26.495328 118.763703 29.837057 121.641304 
C 33.178787 124.518904 37.711781 126.13575 42.4377 126.13575 
z
" style="fill:none;stroke:#000000;stroke-linejoin:miter;stroke-width:1.5;"/>
   </g>
   <g id="patch_8">
    <path clip-path="url(#p680830f8ec)" d="M 172.0377 126.13575 
C 176.763619 126.13575 181.296613 124.518904 184.638343 121.641304 
C 187.980072 118.763703 189.8577 114.860292 189.8577 110.79075 
C 189.8577 106.721208 187.980072 102.817797 184.638343 99.940196 
C 181.296613 97.062596 176.763619 95.44575 172.0377 95.44575 
C 167.311781 95.44575 162.778787 97.062596 159.437057 99.940196 
C 156.095328 102.817797 154.2177 106.721208 154.2177 110.79075 
C 154.2177 114.860292 156.095328 118.763703 159.437057 121.641304 
C 162.778787 124.518904 167.311781 126.13575 172.0377 126.13575 
z
" style="fill:none;stroke:#000000;stroke-linejoin:miter;stroke-width:1.5;"/>
   </g>
   <g id="text_1">
    <!-- BJT -->
    <defs>
     <path d="M 19.671875 34.8125 
L 19.671875 8.109375 
L 35.5 8.109375 
Q 43.453125 8.109375 47.28125 11.40625 
Q 51.125 14.703125 51.125 21.484375 
Q 51.125 28.328125 47.28125 31.5625 
Q 43.453125 34.8125 35.5 34.8125 
z
M 19.671875 64.796875 
L 19.671875 42.828125 
L 34.28125 42.828125 
Q 41.5 42.828125 45.03125 45.53125 
Q 48.578125 48.25 48.578125 53.8125 
Q 48.578125 59.328125 45.03125 62.0625 
Q 41.5 64.796875 34.28125 64.796875 
z
M 9.8125 72.90625 
L 35.015625 72.90625 
Q 46.296875 72.90625 52.390625 68.21875 
Q 58.5 63.53125 58.5 54.890625 
Q 58.5 48.1875 55.375 44.234375 
Q 52.25 40.28125 46.1875 39.3125 
Q 53.46875 37.75 57.5 32.78125 
Q 61.53125 27.828125 61.53125 20.40625 
Q 61.53125 10.640625 54.890625 5.3125 
Q 48.25 0 35.984375 0 
L 9.8125 0 
z
" id="DejaVuSans-66"/>
     <path d="M 9.8125 72.90625 
L 19.671875 72.90625 
L 19.671875 5.078125 
Q 19.671875 -8.109375 14.671875 -14.0625 
Q 9.671875 -20.015625 -1.421875 -20.015625 
L -5.171875 -20.015625 
L -5.171875 -11.71875 
L -2.09375 -11.71875 
Q 4.4375 -11.71875 7.125 -8.046875 
Q 9.8125 -4.390625 9.8125 5.078125 
z
" id="DejaVuSans-74"/>
     <path d="M -0.296875 72.90625 
L 61.375 72.90625 
L 61.375 64.59375 
L 35.5 64.59375 
L 35.5 0 
L 25.59375 0 
L 25.59375 64.59375 
L -0.296875 64.59375 
z
" id="DejaVuSans-84"/>
    </defs>
    <g transform="translate(27.24345 16.318125)scale(0.12 -0.12)">
     <use xlink:href="#DejaVuSans-66"/>
     <use x="68.603516" xlink:href="#DejaVuSans-74"/>
     <use x="98.095703" xlink:href="#DejaVuSans-84"/>
    </g>
   </g>
   <g id="text_2">
    <!-- BJT_NPN -->
    <defs>
     <path d="M 50.984375 -16.609375 
L 50.984375 -23.578125 
L -0.984375 -23.578125 
L -0.984375 -16.609375 
z
" id="DejaVuSans-95"/>
     <path d="M 9.8125 72.90625 
L 23.09375 72.90625 
L 55.421875 11.921875 
L 55.421875 72.90625 
L 64.984375 72.90625 
L 64.984375 0 
L 51.703125 0 
L 19.390625 60.984375 
L 19.390625 0 
L 9.8125 0 
z
" id="DejaVuSans-78"/>
     <path d="M 19.671875 64.796875 
L 19.671875 37.40625 
L 32.078125 37.40625 
Q 38.96875 37.40625 42.71875 40.96875 
Q 46.484375 44.53125 46.484375 51.125 
Q 46.484375 57.671875 42.71875 61.234375 
Q 38.96875 64.796875 32.078125 64.796875 
z
M 9.8125 72.90625 
L 32.078125 72.90625 
Q 44.34375 72.90625 50.609375 67.359375 
Q 56.890625 61.8125 56.890625 51.125 
Q 56.890625 40.328125 50.609375 34.8125 
Q 44.34375 29.296875 32.078125 29.296875 
L 19.671875 29.296875 
L 19.671875 0 
L 9.8125 0 
z
" id="DejaVuSans-80"/>
    </defs>
    <g transform="translate(141.248138 15.984375)scale(0.12 -0.12)">
     <use xlink:href="#DejaVuSans-66"/>
     <use x="68.603516" xlink:href="#DejaVuSans-74"/>
     <use x="98.095703" xlink:href="#DejaVuSans-84"/>
     <use x="159.179688" xlink:href="#DejaVuSans-95"/>
     <use x="209.179688" xlink:href="#DejaVuSans-78"/>
     <use x="283.984375" xlink:href="#DejaVuSans-80"/>
     <use x="344.287109" xlink:href="#DejaVuSans-78"/>
    </g>
   </g>
   <g id="text_3">
    <!-- BJT_PNP -->
    <g transform="translate(271.719075 15.984375)scale(0.12 -0.12)">
     <use xlink:href="#DejaVuSans-66"/>
     <use x="68.603516" xlink:href="#DejaVuSans-74"/>
     <use x="98.095703" xlink:href="#DejaVuSans-84"/>
     <use x="159.179688" xlink:href="#DejaVuSans-95"/>
     <use x="209.179688" xlink:href="#DejaVuSans-80"/>
     <use x="269.482422" xlink:href="#DejaVuSans-78"/>
     <use x="344.287109" xlink:href="#DejaVuSans-80"/>
    </g>
   </g>
   <g id="text_4">
    <!-- BJT_NPN_C -->
    <defs>
     <path d="M 64.40625 67.28125 
L 64.40625 56.890625 
Q 59.421875 61.53125 53.78125 63.8125 
Q 48.140625 66.109375 41.796875 66.109375 
Q 29.296875 66.109375 22.65625 58.46875 
Q 16.015625 50.828125 16.015625 36.375 
Q 16.015625 21.96875 22.65625 14.328125 
Q 29.296875 6.6875 41.796875 6.6875 
Q 48.140625 6.6875 53.78125 8.984375 
Q 59.421875 11.28125 64.40625 15.921875 
L 64.40625 5.609375 
Q 59.234375 2.09375 53.4375 0.328125 
Q 47.65625 -1.421875 41.21875 -1.421875 
Q 24.65625 -1.421875 15.125 8.703125 
Q 5.609375 18.84375 5.609375 36.375 
Q 5.609375 53.953125 15.125 64.078125 
Q 24.65625 74.21875 41.21875 74.21875 
Q 47.75 74.21875 53.53125 72.484375 
Q 59.328125 70.75 64.40625 67.28125 
z
" id="DejaVuSans-67"/>
    </defs>
    <g transform="translate(10.10145 85.734375)scale(0.12 -0.12)">
     <use xlink:href="#DejaVuSans-66"/>
     <use x="68.603516" xlink:href="#DejaVuSans-74"/>
     <use x="98.095703" xlink:href="#DejaVuSans-84"/>
     <use x="159.179688" xlink:href="#DejaVuSans-95"/>
     <use x="209.179688" xlink:href="#DejaVuSans-78"/>
     <use x="283.984375" xlink:href="#DejaVuSans-80"/>
     <use x="344.287109" xlink:href="#DejaVuSans-78"/>
     <use x="419.091797" xlink:href="#DejaVuSans-95"/>
     <use x="469.091797" xlink:href="#DejaVuSans-67"/>
    </g>
   </g>
   <g id="text_5">
    <!-- BJT_PNP_C -->
    <g transform="translate(140.572387 85.734375)scale(0.12 -0.12)">
     <use xlink:href="#DejaVuSans-66"/>
     <use x="68.603516" xlink:href="#DejaVuSans-74"/>
     <use x="98.095703" xlink:href="#DejaVuSans-84"/>
     <use x="159.179688" xlink:href="#DejaVuSans-95"/>
     <use x="209.179688" xlink:href="#DejaVuSans-80"/>
     <use x="269.482422" xlink:href="#DejaVuSans-78"/>
     <use x="344.287109" xlink:href="#DejaVuSans-80"/>
     <use x="404.589844" xlink:href="#DejaVuSans-95"/>
     <use x="454.589844" xlink:href="#DejaVuSans-67"/>
    </g>
   </g>
   <g id="text_6">
    <!-- BJT_PNP_2C -->
    <defs>
     <path d="M 19.1875 8.296875 
L 53.609375 8.296875 
L 53.609375 0 
L 7.328125 0 
L 7.328125 8.296875 
Q 12.9375 14.109375 22.625 23.890625 
Q 32.328125 33.6875 34.8125 36.53125 
Q 39.546875 41.84375 41.421875 45.53125 
Q 43.3125 49.21875 43.3125 52.78125 
Q 43.3125 58.59375 39.234375 62.25 
Q 35.15625 65.921875 28.609375 65.921875 
Q 23.96875 65.921875 18.8125 64.3125 
Q 13.671875 62.703125 7.8125 59.421875 
L 7.8125 69.390625 
Q 13.765625 71.78125 18.9375 73 
Q 24.125 74.21875 28.421875 74.21875 
Q 39.75 74.21875 46.484375 68.546875 
Q 53.21875 62.890625 53.21875 53.421875 
Q 53.21875 48.921875 51.53125 44.890625 
Q 49.859375 40.875 45.40625 35.40625 
Q 44.1875 33.984375 37.640625 27.21875 
Q 31.109375 20.453125 19.1875 8.296875 
z
" id="DejaVuSans-50"/>
    </defs>
    <g transform="translate(260.711887 85.734375)scale(0.12 -0.12)">
     <use xlink:href="#DejaVuSans-66"/>
     <use x="68.603516" xlink:href="#DejaVuSans-74"/>
     <use x="98.095703" xlink:href="#DejaVuSans-84"/>
     <use x="159.179688" xlink:href="#DejaVuSans-95"/>
     <use x="209.179688" xlink:href="#DejaVuSans-80"/>
     <use x="269.482422" xlink:href="#DejaVuSans-78"/>
     <use x="344.287109" xlink:href="#DejaVuSans-80"/>
     <use x="404.589844" xlink:href="#DejaVuSans-95"/>
     <use x="454.589844" xlink:href="#DejaVuSans-50"/>
     <use x="518.212891" xlink:href="#DejaVuSans-67"/>
    </g>
   </g>
  </g>
 </g>
 <defs>
  <clipPath id="p680830f8ec">
   <rect height="125.0664" width="318.3894" x="7.2" y="13.38255"/>
  </clipPath>
 </defs>
</svg>
