<?xml version="1.0" encoding="utf-8" standalone="no"?>
<!DOCTYPE svg PUBLIC "-//W3C//DTD SVG 1.1//EN"
  "http://www.w3.org/Graphics/SVG/1.1/DTD/svg11.dtd">
<!-- Created with matplotlib (http://matplotlib.org/) -->
<svg height="151pt" version="1.1" viewBox="0 0 335 151" width="335pt" xmlns="http://www.w3.org/2000/svg" xmlns:xlink="http://www.w3.org/1999/xlink">
 <defs>
  <style type="text/css">
*{stroke-linecap:butt;stroke-linejoin:round;stroke-miterlimit:100000;}
  </style>
 </defs>
 <g id="figure_1">
  <g id="patch_1">
   <path d="M 0 151.26975 
L 335.576062 151.26975 
L 335.576062 0 
L 0 0 
z
" style="fill:none;"/>
  </g>
  <g id="axes_1">
   <g id="patch_2">
    <path clip-path="url(#p992d24f986)" d="M 175.67025 58.89975 
L 168.641703 57.240232 
L 170.739724 54.928523 
L 163.185707 48.813367 
L 163.206793 48.790133 
L 170.76081 54.90529 
L 172.858831 52.593582 
z
" style="stroke:#000000;stroke-linejoin:miter;stroke-width:1.5;"/>
   </g>
   <g id="patch_3">
    <path clip-path="url(#p992d24f986)" d="M 292.79625 37.58175 
L 295.607669 31.275582 
L 297.70569 33.58729 
L 305.259707 27.472133 
L 305.280793 27.495367 
L 297.726776 33.610523 
L 299.824797 35.922232 
z
" style="stroke:#000000;stroke-linejoin:miter;stroke-width:1.5;"/>
   </g>
   <g id="patch_4">
    <path clip-path="url(#p992d24f986)" d="M 46.07025 135.39975 
L 39.041703 133.740232 
L 41.139724 131.428523 
L 33.585707 125.313367 
L 33.606793 125.290133 
L 41.16081 131.40529 
L 43.258831 129.093582 
z
" style="stroke:#000000;stroke-linejoin:miter;stroke-width:1.5;"/>
   </g>
   <g id="patch_5">
    <path clip-path="url(#p992d24f986)" d="M 163.19625 114.08175 
L 166.007669 107.775582 
L 168.10569 110.08729 
L 175.659707 103.972133 
L 175.680793 103.995367 
L 168.126776 110.110523 
L 170.224797 112.422232 
z
" style="stroke:#000000;stroke-linejoin:miter;stroke-width:1.5;"/>
   </g>
   <g id="patch_6">
    <path clip-path="url(#p992d24f986)" d="M 292.79625 114.08175 
L 295.607669 107.775582 
L 297.70569 110.08729 
L 305.259707 103.972133 
L 305.280793 103.995367 
L 297.726776 110.110523 
L 299.824797 112.422232 
z
" style="stroke:#000000;stroke-linejoin:miter;stroke-width:1.5;"/>
   </g>
   <g id="line2d_1">
    <path clip-path="url(#p992d24f986)" d="M 33.59625 48.80175 
L 46.07025 58.89975 
L 46.07025 64.50975 
" style="fill:none;stroke:#000000;stroke-linecap:round;stroke-width:1.5;"/>
   </g>
   <g id="line2d_2">
    <path clip-path="url(#p992d24f986)" d="M 21.71625 43.19175 
L 33.59625 43.19175 
" style="fill:none;stroke:#000000;stroke-linecap:round;stroke-width:1.5;"/>
   </g>
   <g id="line2d_3">
    <path clip-path="url(#p992d24f986)" d="M 33.59625 31.97175 
L 33.59625 54.41175 
" style="fill:none;stroke:#000000;stroke-linecap:round;stroke-width:1.5;"/>
   </g>
   <g id="line2d_4">
    <path clip-path="url(#p992d24f986)" d="M 33.59625 37.58175 
L 46.07025 27.48375 
L 46.07025 21.87375 
" style="fill:none;stroke:#000000;stroke-linecap:round;stroke-width:1.5;"/>
   </g>
   <g id="line2d_5">
    <path clip-path="url(#p992d24f986)" d="M 163.19625 48.80175 
L 175.67025 58.89975 
L 175.67025 64.50975 
" style="fill:none;stroke:#000000;stroke-linecap:round;stroke-width:1.5;"/>
   </g>
   <g id="line2d_6">
    <path clip-path="url(#p992d24f986)" d="M 151.31625 43.19175 
L 163.19625 43.19175 
" style="fill:none;stroke:#000000;stroke-linecap:round;stroke-width:1.5;"/>
   </g>
   <g id="line2d_7">
    <path clip-path="url(#p992d24f986)" d="M 163.19625 31.97175 
L 163.19625 54.41175 
" style="fill:none;stroke:#000000;stroke-linecap:round;stroke-width:1.5;"/>
   </g>
   <g id="line2d_8">
    <path clip-path="url(#p992d24f986)" d="M 163.19625 37.58175 
L 175.67025 27.48375 
L 175.67025 21.87375 
" style="fill:none;stroke:#000000;stroke-linecap:round;stroke-width:1.5;"/>
   </g>
   <g id="line2d_9">
    <path clip-path="url(#p992d24f986)" d="M 292.79625 48.80175 
L 305.27025 58.89975 
L 305.27025 64.50975 
" style="fill:none;stroke:#000000;stroke-linecap:round;stroke-width:1.5;"/>
   </g>
   <g id="line2d_10">
    <path clip-path="url(#p992d24f986)" d="M 280.91625 43.19175 
L 292.79625 43.19175 
" style="fill:none;stroke:#000000;stroke-linecap:round;stroke-width:1.5;"/>
   </g>
   <g id="line2d_11">
    <path clip-path="url(#p992d24f986)" d="M 292.79625 31.97175 
L 292.79625 54.41175 
" style="fill:none;stroke:#000000;stroke-linecap:round;stroke-width:1.5;"/>
   </g>
   <g id="line2d_12">
    <path clip-path="url(#p992d24f986)" d="M 292.79625 37.58175 
L 305.27025 27.48375 
L 305.27025 21.87375 
" style="fill:none;stroke:#000000;stroke-linecap:round;stroke-width:1.5;"/>
   </g>
   <g id="line2d_13">
    <path clip-path="url(#p992d24f986)" d="M 33.59625 125.30175 
L 46.07025 135.39975 
L 46.07025 141.00975 
" style="fill:none;stroke:#000000;stroke-linecap:round;stroke-width:1.5;"/>
   </g>
   <g id="line2d_14">
    <path clip-path="url(#p992d24f986)" d="M 21.71625 119.69175 
L 33.59625 119.69175 
" style="fill:none;stroke:#000000;stroke-linecap:round;stroke-width:1.5;"/>
   </g>
   <g id="line2d_15">
    <path clip-path="url(#p992d24f986)" d="M 33.59625 108.47175 
L 33.59625 130.91175 
" style="fill:none;stroke:#000000;stroke-linecap:round;stroke-width:1.5;"/>
   </g>
   <g id="line2d_16">
    <path clip-path="url(#p992d24f986)" d="M 33.59625 114.08175 
L 46.07025 103.98375 
L 46.07025 98.37375 
" style="fill:none;stroke:#000000;stroke-linecap:round;stroke-width:1.5;"/>
   </g>
   <g id="line2d_17">
    <path clip-path="url(#p992d24f986)" d="M 163.19625 125.30175 
L 175.67025 135.39975 
L 175.67025 141.00975 
" style="fill:none;stroke:#000000;stroke-linecap:round;stroke-width:1.5;"/>
   </g>
   <g id="line2d_18">
    <path clip-path="url(#p992d24f986)" d="M 151.31625 119.69175 
L 163.19625 119.69175 
" style="fill:none;stroke:#000000;stroke-linecap:round;stroke-width:1.5;"/>
   </g>
   <g id="line2d_19">
    <path clip-path="url(#p992d24f986)" d="M 163.19625 108.47175 
L 163.19625 130.91175 
" style="fill:none;stroke:#000000;stroke-linecap:round;stroke-width:1.5;"/>
   </g>
   <g id="line2d_20">
    <path clip-path="url(#p992d24f986)" d="M 163.19625 114.08175 
L 175.67025 103.98375 
L 175.67025 98.37375 
" style="fill:none;stroke:#000000;stroke-linecap:round;stroke-width:1.5;"/>
   </g>
   <g id="line2d_21">
    <path clip-path="url(#p992d24f986)" d="M 292.79625 125.30175 
L 305.27025 135.39975 
L 305.27025 141.00975 
" style="fill:none;stroke:#000000;stroke-linecap:round;stroke-width:1.5;"/>
   </g>
   <g id="line2d_22">
    <path clip-path="url(#p992d24f986)" d="M 292.79625 117.65175 
L 305.27025 127.74975 
" style="fill:none;stroke:#000000;stroke-linecap:round;stroke-width:1.5;"/>
   </g>
   <g id="line2d_23">
    <path clip-path="url(#p992d24f986)" d="M 280.91625 119.69175 
L 292.79625 119.69175 
" style="fill:none;stroke:#000000;stroke-linecap:round;stroke-width:1.5;"/>
   </g>
   <g id="line2d_24">
    <path clip-path="url(#p992d24f986)" d="M 292.79625 108.47175 
L 292.79625 130.91175 
" style="fill:none;stroke:#000000;stroke-linecap:round;stroke-width:1.5;"/>
   </g>
   <g id="line2d_25">
    <path clip-path="url(#p992d24f986)" d="M 292.79625 114.08175 
L 305.27025 103.98375 
L 305.27025 98.37375 
" style="fill:none;stroke:#000000;stroke-linecap:round;stroke-width:1.5;"/>
   </g>
   <g id="patch_7">
    <path clip-path="url(#p992d24f986)" d="M 39.53625 136.52175 
C 44.262169 136.52175 48.795163 134.748435 52.136893 131.592357 
C 55.478622 128.436279 57.35625 124.155118 57.35625 119.69175 
C 57.35625 115.228382 55.478622 110.947221 52.136893 107.791143 
C 48.795163 104.635065 44.262169 102.86175 39.53625 102.86175 
C 34.810331 102.86175 30.277337 104.635065 26.935607 107.791143 
C 23.593878 110.947221 21.71625 115.228382 21.71625 119.69175 
C 21.71625 124.155118 23.593878 128.436279 26.935607 131.592357 
C 30.277337 134.748435 34.810331 136.52175 39.53625 136.52175 
z
" style="fill:none;stroke:#000000;stroke-linejoin:miter;stroke-width:1.5;"/>
   </g>
   <g id="patch_8">
    <path clip-path="url(#p992d24f986)" d="M 169.13625 136.52175 
C 173.862169 136.52175 178.395163 134.748435 181.736893 131.592357 
C 185.078622 128.436279 186.95625 124.155118 186.95625 119.69175 
C 186.95625 115.228382 185.078622 110.947221 181.736893 107.791143 
C 178.395163 104.635065 173.862169 102.86175 169.13625 102.86175 
C 164.410331 102.86175 159.877337 104.635065 156.535607 107.791143 
C 153.193878 110.947221 151.31625 115.228382 151.31625 119.69175 
C 151.31625 124.155118 153.193878 128.436279 156.535607 131.592357 
C 159.877337 134.748435 164.410331 136.52175 169.13625 136.52175 
z
" style="fill:none;stroke:#000000;stroke-linejoin:miter;stroke-width:1.5;"/>
   </g>
   <g id="text_1">
    <!-- BJT -->
    <defs>
     <path d="M 9.8125 72.90625 
L 19.671875 72.90625 
L 19.671875 5.078125 
Q 19.671875 -8.109375 14.671875 -14.0625 
Q 9.671875 -20.015625 -1.421875 -20.015625 
L -5.171875 -20.015625 
L -5.171875 -11.71875 
L -2.09375 -11.71875 
Q 4.4375 -11.71875 7.125 -8.046875 
Q 9.8125 -4.390625 9.8125 5.078125 
z
" id="BitstreamVeraSans-Roman-4a"/>
     <path d="M 19.671875 34.8125 
L 19.671875 8.109375 
L 35.5 8.109375 
Q 43.453125 8.109375 47.28125 11.40625 
Q 51.125 14.703125 51.125 21.484375 
Q 51.125 28.328125 47.28125 31.5625 
Q 43.453125 34.8125 35.5 34.8125 
z
M 19.671875 64.796875 
L 19.671875 42.828125 
L 34.28125 42.828125 
Q 41.5 42.828125 45.03125 45.53125 
Q 48.578125 48.25 48.578125 53.8125 
Q 48.578125 59.328125 45.03125 62.0625 
Q 41.5 64.796875 34.28125 64.796875 
z
M 9.8125 72.90625 
L 35.015625 72.90625 
Q 46.296875 72.90625 52.390625 68.21875 
Q 58.5 63.53125 58.5 54.890625 
Q 58.5 48.1875 55.375 44.234375 
Q 52.25 40.28125 46.1875 39.3125 
Q 53.46875 37.75 57.5 32.78125 
Q 61.53125 27.828125 61.53125 20.40625 
Q 61.53125 10.640625 54.890625 5.3125 
Q 48.25 0 35.984375 0 
L 9.8125 0 
z
" id="BitstreamVeraSans-Roman-42"/>
     <path d="M -0.296875 72.90625 
L 61.375 72.90625 
L 61.375 64.59375 
L 35.5 64.59375 
L 35.5 0 
L 25.59375 0 
L 25.59375 64.59375 
L -0.296875 64.59375 
z
" id="BitstreamVeraSans-Roman-54"/>
    </defs>
    <g transform="translate(24.342 16.318125)scale(0.12 -0.12)">
     <use xlink:href="#BitstreamVeraSans-Roman-42"/>
     <use x="68.603515625" xlink:href="#BitstreamVeraSans-Roman-4a"/>
     <use x="98.095703125" xlink:href="#BitstreamVeraSans-Roman-54"/>
    </g>
   </g>
   <g id="text_2">
    <!-- BJT_NPN -->
    <defs>
     <path d="M 9.8125 72.90625 
L 23.09375 72.90625 
L 55.421875 11.921875 
L 55.421875 72.90625 
L 64.984375 72.90625 
L 64.984375 0 
L 51.703125 0 
L 19.390625 60.984375 
L 19.390625 0 
L 9.8125 0 
z
" id="BitstreamVeraSans-Roman-4e"/>
     <path d="M 50.984375 -16.609375 
L 50.984375 -23.578125 
L -0.984375 -23.578125 
L -0.984375 -16.609375 
z
" id="BitstreamVeraSans-Roman-5f"/>
     <path d="M 19.671875 64.796875 
L 19.671875 37.40625 
L 32.078125 37.40625 
Q 38.96875 37.40625 42.71875 40.96875 
Q 46.484375 44.53125 46.484375 51.125 
Q 46.484375 57.671875 42.71875 61.234375 
Q 38.96875 64.796875 32.078125 64.796875 
z
M 9.8125 72.90625 
L 32.078125 72.90625 
Q 44.34375 72.90625 50.609375 67.359375 
Q 56.890625 61.8125 56.890625 51.125 
Q 56.890625 40.328125 50.609375 34.8125 
Q 44.34375 29.296875 32.078125 29.296875 
L 19.671875 29.296875 
L 19.671875 0 
L 9.8125 0 
z
" id="BitstreamVeraSans-Roman-50"/>
    </defs>
    <g transform="translate(138.3466875 15.984375)scale(0.12 -0.12)">
     <use xlink:href="#BitstreamVeraSans-Roman-42"/>
     <use x="68.603515625" xlink:href="#BitstreamVeraSans-Roman-4a"/>
     <use x="98.095703125" xlink:href="#BitstreamVeraSans-Roman-54"/>
     <use x="159.1796875" xlink:href="#BitstreamVeraSans-Roman-5f"/>
     <use x="209.1796875" xlink:href="#BitstreamVeraSans-Roman-4e"/>
     <use x="283.984375" xlink:href="#BitstreamVeraSans-Roman-50"/>
     <use x="344.287109375" xlink:href="#BitstreamVeraSans-Roman-4e"/>
    </g>
   </g>
   <g id="text_3">
    <!-- BJT_PNP -->
    <g transform="translate(268.817625 15.984375)scale(0.12 -0.12)">
     <use xlink:href="#BitstreamVeraSans-Roman-42"/>
     <use x="68.603515625" xlink:href="#BitstreamVeraSans-Roman-4a"/>
     <use x="98.095703125" xlink:href="#BitstreamVeraSans-Roman-54"/>
     <use x="159.1796875" xlink:href="#BitstreamVeraSans-Roman-5f"/>
     <use x="209.1796875" xlink:href="#BitstreamVeraSans-Roman-50"/>
     <use x="269.482421875" xlink:href="#BitstreamVeraSans-Roman-4e"/>
     <use x="344.287109375" xlink:href="#BitstreamVeraSans-Roman-50"/>
    </g>
   </g>
   <g id="text_4">
    <!-- BJT_NPN_C -->
    <defs>
     <path d="M 64.40625 67.28125 
L 64.40625 56.890625 
Q 59.421875 61.53125 53.78125 63.8125 
Q 48.140625 66.109375 41.796875 66.109375 
Q 29.296875 66.109375 22.65625 58.46875 
Q 16.015625 50.828125 16.015625 36.375 
Q 16.015625 21.96875 22.65625 14.328125 
Q 29.296875 6.6875 41.796875 6.6875 
Q 48.140625 6.6875 53.78125 8.984375 
Q 59.421875 11.28125 64.40625 15.921875 
L 64.40625 5.609375 
Q 59.234375 2.09375 53.4375 0.328125 
Q 47.65625 -1.421875 41.21875 -1.421875 
Q 24.65625 -1.421875 15.125 8.703125 
Q 5.609375 18.84375 5.609375 36.375 
Q 5.609375 53.953125 15.125 64.078125 
Q 24.65625 74.21875 41.21875 74.21875 
Q 47.75 74.21875 53.53125 72.484375 
Q 59.328125 70.75 64.40625 67.28125 
" id="BitstreamVeraSans-Roman-43"/>
    </defs>
    <g transform="translate(7.2 92.484375)scale(0.12 -0.12)">
     <use xlink:href="#BitstreamVeraSans-Roman-42"/>
     <use x="68.603515625" xlink:href="#BitstreamVeraSans-Roman-4a"/>
     <use x="98.095703125" xlink:href="#BitstreamVeraSans-Roman-54"/>
     <use x="159.1796875" xlink:href="#BitstreamVeraSans-Roman-5f"/>
     <use x="209.1796875" xlink:href="#BitstreamVeraSans-Roman-4e"/>
     <use x="283.984375" xlink:href="#BitstreamVeraSans-Roman-50"/>
     <use x="344.287109375" xlink:href="#BitstreamVeraSans-Roman-4e"/>
     <use x="419.091796875" xlink:href="#BitstreamVeraSans-Roman-5f"/>
     <use x="469.091796875" xlink:href="#BitstreamVeraSans-Roman-43"/>
    </g>
   </g>
   <g id="text_5">
    <!-- BJT_PNP_C -->
    <g transform="translate(137.6709375 92.484375)scale(0.12 -0.12)">
     <use xlink:href="#BitstreamVeraSans-Roman-42"/>
     <use x="68.603515625" xlink:href="#BitstreamVeraSans-Roman-4a"/>
     <use x="98.095703125" xlink:href="#BitstreamVeraSans-Roman-54"/>
     <use x="159.1796875" xlink:href="#BitstreamVeraSans-Roman-5f"/>
     <use x="209.1796875" xlink:href="#BitstreamVeraSans-Roman-50"/>
     <use x="269.482421875" xlink:href="#BitstreamVeraSans-Roman-4e"/>
     <use x="344.287109375" xlink:href="#BitstreamVeraSans-Roman-50"/>
     <use x="404.58984375" xlink:href="#BitstreamVeraSans-Roman-5f"/>
     <use x="454.58984375" xlink:href="#BitstreamVeraSans-Roman-43"/>
    </g>
   </g>
   <g id="text_6">
    <!-- BJT_PNP_2C -->
    <defs>
     <path d="M 19.1875 8.296875 
L 53.609375 8.296875 
L 53.609375 0 
L 7.328125 0 
L 7.328125 8.296875 
Q 12.9375 14.109375 22.625 23.890625 
Q 32.328125 33.6875 34.8125 36.53125 
Q 39.546875 41.84375 41.421875 45.53125 
Q 43.3125 49.21875 43.3125 52.78125 
Q 43.3125 58.59375 39.234375 62.25 
Q 35.15625 65.921875 28.609375 65.921875 
Q 23.96875 65.921875 18.8125 64.3125 
Q 13.671875 62.703125 7.8125 59.421875 
L 7.8125 69.390625 
Q 13.765625 71.78125 18.9375 73 
Q 24.125 74.21875 28.421875 74.21875 
Q 39.75 74.21875 46.484375 68.546875 
Q 53.21875 62.890625 53.21875 53.421875 
Q 53.21875 48.921875 51.53125 44.890625 
Q 49.859375 40.875 45.40625 35.40625 
Q 44.1875 33.984375 37.640625 27.21875 
Q 31.109375 20.453125 19.1875 8.296875 
" id="BitstreamVeraSans-Roman-32"/>
    </defs>
    <g transform="translate(257.8104375 92.484375)scale(0.12 -0.12)">
     <use xlink:href="#BitstreamVeraSans-Roman-42"/>
     <use x="68.603515625" xlink:href="#BitstreamVeraSans-Roman-4a"/>
     <use x="98.095703125" xlink:href="#BitstreamVeraSans-Roman-54"/>
     <use x="159.1796875" xlink:href="#BitstreamVeraSans-Roman-5f"/>
     <use x="209.1796875" xlink:href="#BitstreamVeraSans-Roman-50"/>
     <use x="269.482421875" xlink:href="#BitstreamVeraSans-Roman-4e"/>
     <use x="344.287109375" xlink:href="#BitstreamVeraSans-Roman-50"/>
     <use x="404.58984375" xlink:href="#BitstreamVeraSans-Roman-5f"/>
     <use x="454.58984375" xlink:href="#BitstreamVeraSans-Roman-32"/>
     <use x="518.212890625" xlink:href="#BitstreamVeraSans-Roman-43"/>
    </g>
   </g>
  </g>
 </g>
 <defs>
  <clipPath id="p992d24f986">
   <rect height="125.256" width="290.034" x="18.47625" y="18.81375"/>
  </clipPath>
 </defs>
</svg>
