<?xml version="1.0" encoding="utf-8" standalone="no"?>
<!DOCTYPE svg PUBLIC "-//W3C//DTD SVG 1.1//EN"
  "http://www.w3.org/Graphics/SVG/1.1/DTD/svg11.dtd">
<!-- Created with matplotlib (http://matplotlib.org/) -->
<svg height="59pt" version="1.1" viewBox="0 0 277 59" width="277pt" xmlns="http://www.w3.org/2000/svg" xmlns:xlink="http://www.w3.org/1999/xlink">
 <defs>
  <style type="text/css">
*{stroke-linecap:butt;stroke-linejoin:round;}
  </style>
 </defs>
 <g id="figure_1">
  <g id="patch_1">
   <path d="M 0 59.91485 
L 277.36 59.91485 
L 277.36 0 
L 0 0 
z
" style="fill:none;"/>
  </g>
  <g id="axes_1">
   <g id="line2d_1">
    <path clip-path="url(#pcecba427e1)" d="M 25.28 39.92775 
L 57.68 39.92775 
M 61.568 30.74775 
L 86.192 30.74775 
M 73.88 30.74775 
L 73.88 24.62775 
M 90.08 39.92775 
L 122.48 39.92775 
" style="fill:none;stroke:#000000;stroke-linecap:round;stroke-width:1.5;"/>
   </g>
   <g id="line2d_2">
    <path clip-path="url(#pcecba427e1)" d="M 154.88 39.92775 
L 187.28 39.92775 
M 191.168 45.12975 
L 215.792 45.12975 
M 203.48 45.12975 
L 203.48 31.66575 
M 219.68 39.92775 
L 252.08 39.92775 
" style="fill:none;stroke:#000000;stroke-linecap:round;stroke-width:1.5;"/>
   </g>
   <g id="patch_2">
    <path clip-path="url(#pcecba427e1)" d="M 61.568 43.59975 
C 62.59911 43.59975 63.588127 43.212845 64.317231 42.524246 
C 65.046336 41.835647 65.456 40.901576 65.456 39.92775 
C 65.456 38.953924 65.046336 38.019853 64.317231 37.331254 
C 63.588127 36.642655 62.59911 36.25575 61.568 36.25575 
C 60.53689 36.25575 59.547873 36.642655 58.818769 37.331254 
C 58.089664 38.019853 57.68 38.953924 57.68 39.92775 
C 57.68 40.901576 58.089664 41.835647 58.818769 42.524246 
C 59.547873 43.212845 60.53689 43.59975 61.568 43.59975 
z
" style="fill:none;stroke:#000000;stroke-linejoin:miter;stroke-width:1.5;"/>
   </g>
   <g id="patch_3">
    <path clip-path="url(#pcecba427e1)" d="M 86.192 43.59975 
C 87.22311 43.59975 88.212127 43.212845 88.941231 42.524246 
C 89.670336 41.835647 90.08 40.901576 90.08 39.92775 
C 90.08 38.953924 89.670336 38.019853 88.941231 37.331254 
C 88.212127 36.642655 87.22311 36.25575 86.192 36.25575 
C 85.16089 36.25575 84.171873 36.642655 83.442769 37.331254 
C 82.713664 38.019853 82.304 38.953924 82.304 39.92775 
C 82.304 40.901576 82.713664 41.835647 83.442769 42.524246 
C 84.171873 43.212845 85.16089 43.59975 86.192 43.59975 
z
" style="fill:none;stroke:#000000;stroke-linejoin:miter;stroke-width:1.5;"/>
   </g>
   <g id="patch_4">
    <path clip-path="url(#pcecba427e1)" d="M 191.168 43.59975 
C 192.19911 43.59975 193.188127 43.212845 193.917231 42.524246 
C 194.646336 41.835647 195.056 40.901576 195.056 39.92775 
C 195.056 38.953924 194.646336 38.019853 193.917231 37.331254 
C 193.188127 36.642655 192.19911 36.25575 191.168 36.25575 
C 190.13689 36.25575 189.147873 36.642655 188.418769 37.331254 
C 187.689664 38.019853 187.28 38.953924 187.28 39.92775 
C 187.28 40.901576 187.689664 41.835647 188.418769 42.524246 
C 189.147873 43.212845 190.13689 43.59975 191.168 43.59975 
z
" style="fill:none;stroke:#000000;stroke-linejoin:miter;stroke-width:1.5;"/>
   </g>
   <g id="patch_5">
    <path clip-path="url(#pcecba427e1)" d="M 215.792 43.59975 
C 216.82311 43.59975 217.812127 43.212845 218.541231 42.524246 
C 219.270336 41.835647 219.68 40.901576 219.68 39.92775 
C 219.68 38.953924 219.270336 38.019853 218.541231 37.331254 
C 217.812127 36.642655 216.82311 36.25575 215.792 36.25575 
C 214.76089 36.25575 213.771873 36.642655 213.042769 37.331254 
C 212.313664 38.019853 211.904 38.953924 211.904 39.92775 
C 211.904 40.901576 212.313664 41.835647 213.042769 42.524246 
C 213.771873 43.212845 214.76089 43.59975 215.792 43.59975 
z
" style="fill:none;stroke:#000000;stroke-linejoin:miter;stroke-width:1.5;"/>
   </g>
   <g id="text_1">
    <!-- BUTTON -->
    <defs>
     <path d="M 19.671875 34.8125 
L 19.671875 8.109375 
L 35.5 8.109375 
Q 43.453125 8.109375 47.28125 11.40625 
Q 51.125 14.703125 51.125 21.484375 
Q 51.125 28.328125 47.28125 31.5625 
Q 43.453125 34.8125 35.5 34.8125 
z
M 19.671875 64.796875 
L 19.671875 42.828125 
L 34.28125 42.828125 
Q 41.5 42.828125 45.03125 45.53125 
Q 48.578125 48.25 48.578125 53.8125 
Q 48.578125 59.328125 45.03125 62.0625 
Q 41.5 64.796875 34.28125 64.796875 
z
M 9.8125 72.90625 
L 35.015625 72.90625 
Q 46.296875 72.90625 52.390625 68.21875 
Q 58.5 63.53125 58.5 54.890625 
Q 58.5 48.1875 55.375 44.234375 
Q 52.25 40.28125 46.1875 39.3125 
Q 53.46875 37.75 57.5 32.78125 
Q 61.53125 27.828125 61.53125 20.40625 
Q 61.53125 10.640625 54.890625 5.3125 
Q 48.25 0 35.984375 0 
L 9.8125 0 
z
" id="DejaVuSans-42"/>
     <path d="M 8.6875 72.90625 
L 18.609375 72.90625 
L 18.609375 28.609375 
Q 18.609375 16.890625 22.84375 11.734375 
Q 27.09375 6.59375 36.625 6.59375 
Q 46.09375 6.59375 50.34375 11.734375 
Q 54.59375 16.890625 54.59375 28.609375 
L 54.59375 72.90625 
L 64.5 72.90625 
L 64.5 27.390625 
Q 64.5 13.140625 57.4375 5.859375 
Q 50.390625 -1.421875 36.625 -1.421875 
Q 22.796875 -1.421875 15.734375 5.859375 
Q 8.6875 13.140625 8.6875 27.390625 
z
" id="DejaVuSans-55"/>
     <path d="M -0.296875 72.90625 
L 61.375 72.90625 
L 61.375 64.59375 
L 35.5 64.59375 
L 35.5 0 
L 25.59375 0 
L 25.59375 64.59375 
L -0.296875 64.59375 
z
" id="DejaVuSans-54"/>
     <path d="M 39.40625 66.21875 
Q 28.65625 66.21875 22.328125 58.203125 
Q 16.015625 50.203125 16.015625 36.375 
Q 16.015625 22.609375 22.328125 14.59375 
Q 28.65625 6.59375 39.40625 6.59375 
Q 50.140625 6.59375 56.421875 14.59375 
Q 62.703125 22.609375 62.703125 36.375 
Q 62.703125 50.203125 56.421875 58.203125 
Q 50.140625 66.21875 39.40625 66.21875 
z
M 39.40625 74.21875 
Q 54.734375 74.21875 63.90625 63.9375 
Q 73.09375 53.65625 73.09375 36.375 
Q 73.09375 19.140625 63.90625 8.859375 
Q 54.734375 -1.421875 39.40625 -1.421875 
Q 24.03125 -1.421875 14.8125 8.828125 
Q 5.609375 19.09375 5.609375 36.375 
Q 5.609375 53.65625 14.8125 63.9375 
Q 24.03125 74.21875 39.40625 74.21875 
z
" id="DejaVuSans-4f"/>
     <path d="M 9.8125 72.90625 
L 23.09375 72.90625 
L 55.421875 11.921875 
L 55.421875 72.90625 
L 64.984375 72.90625 
L 64.984375 0 
L 51.703125 0 
L 19.390625 60.984375 
L 19.390625 0 
L 9.8125 0 
z
" id="DejaVuSans-4e"/>
    </defs>
    <g transform="translate(48.831875 16.318125)scale(0.12 -0.12)">
     <use xlink:href="#DejaVuSans-42"/>
     <use x="68.603516" xlink:href="#DejaVuSans-55"/>
     <use x="141.796875" xlink:href="#DejaVuSans-54"/>
     <use x="202.865234" xlink:href="#DejaVuSans-54"/>
     <use x="263.949219" xlink:href="#DejaVuSans-4f"/>
     <use x="342.660156" xlink:href="#DejaVuSans-4e"/>
    </g>
   </g>
   <g id="text_2">
    <!-- BUTTON_NC -->
    <defs>
     <path d="M 50.984375 -16.609375 
L 50.984375 -23.578125 
L -0.984375 -23.578125 
L -0.984375 -16.609375 
z
" id="DejaVuSans-5f"/>
     <path d="M 64.40625 67.28125 
L 64.40625 56.890625 
Q 59.421875 61.53125 53.78125 63.8125 
Q 48.140625 66.109375 41.796875 66.109375 
Q 29.296875 66.109375 22.65625 58.46875 
Q 16.015625 50.828125 16.015625 36.375 
Q 16.015625 21.96875 22.65625 14.328125 
Q 29.296875 6.6875 41.796875 6.6875 
Q 48.140625 6.6875 53.78125 8.984375 
Q 59.421875 11.28125 64.40625 15.921875 
L 64.40625 5.609375 
Q 59.234375 2.09375 53.4375 0.328125 
Q 47.65625 -1.421875 41.21875 -1.421875 
Q 24.65625 -1.421875 15.125 8.703125 
Q 5.609375 18.84375 5.609375 36.375 
Q 5.609375 53.953125 15.125 64.078125 
Q 24.65625 74.21875 41.21875 74.21875 
Q 47.75 74.21875 53.53125 72.484375 
Q 59.328125 70.75 64.40625 67.28125 
z
" id="DejaVuSans-43"/>
    </defs>
    <g transform="translate(166.753437 20.268375)scale(0.12 -0.12)">
     <use xlink:href="#DejaVuSans-42"/>
     <use x="68.603516" xlink:href="#DejaVuSans-55"/>
     <use x="141.796875" xlink:href="#DejaVuSans-54"/>
     <use x="202.865234" xlink:href="#DejaVuSans-54"/>
     <use x="263.949219" xlink:href="#DejaVuSans-4f"/>
     <use x="342.660156" xlink:href="#DejaVuSans-4e"/>
     <use x="417.464844" xlink:href="#DejaVuSans-5f"/>
     <use x="467.464844" xlink:href="#DejaVuSans-4e"/>
     <use x="542.269531" xlink:href="#DejaVuSans-43"/>
    </g>
   </g>
  </g>
 </g>
 <defs>
  <clipPath id="pcecba427e1">
   <rect height="28.6722" width="255.96" x="10.7" y="20.54265"/>
  </clipPath>
 </defs>
</svg>
