<?xml version="1.0" encoding="utf-8" standalone="no"?>
<!DOCTYPE svg PUBLIC "-//W3C//DTD SVG 1.1//EN"
  "http://www.w3.org/Graphics/SVG/1.1/DTD/svg11.dtd">
<!-- Created with matplotlib (http://matplotlib.org/) -->
<svg height="55pt" version="1.1" viewBox="0 0 247 55" width="247pt" xmlns="http://www.w3.org/2000/svg" xmlns:xlink="http://www.w3.org/1999/xlink">
 <defs>
  <style type="text/css">
*{stroke-linecap:butt;stroke-linejoin:round;}
  </style>
 </defs>
 <g id="figure_1">
  <g id="patch_1">
   <path d="
M0 55.3897
L247.68 55.3897
L247.68 0
L0 0
L0 55.3897" style="fill:none;"/>
  </g>
  <g id="axes_1">
   <g id="line2d_1">
    <path clip-path="url(#p22c89bd80e)" d="
M10.44 39.9277
L42.84 39.9277
M46.728 30.7477
L71.352 30.7477
M59.04 30.7477
L59.04 24.6277
M75.24 39.9277
L107.64 39.9277" style="fill:none;stroke:#000000;stroke-linecap:round;stroke-width:1.5;"/>
   </g>
   <g id="line2d_2">
    <path clip-path="url(#p22c89bd80e)" d="
M140.04 39.9277
L172.44 39.9277
M176.328 45.1297
L200.952 45.1297
M188.64 45.1297
L188.64 31.6657
M204.84 39.9277
L237.24 39.9277" style="fill:none;stroke:#000000;stroke-linecap:round;stroke-width:1.5;"/>
   </g>
   <g id="patch_2">
    <path clip-path="url(#p22c89bd80e)" d="
M46.728 43.5997
C47.7591 43.5997 48.7481 43.2128 49.4772 42.5242
C50.2063 41.8356 50.616 40.9016 50.616 39.9277
C50.616 38.9539 50.2063 38.0199 49.4772 37.3313
C48.7481 36.6427 47.7591 36.2557 46.728 36.2557
C45.6969 36.2557 44.7079 36.6427 43.9788 37.3313
C43.2497 38.0199 42.84 38.9539 42.84 39.9277
C42.84 40.9016 43.2497 41.8356 43.9788 42.5242
C44.7079 43.2128 45.6969 43.5997 46.728 43.5997
L46.728 43.5997" style="fill:none;stroke:#000000;stroke-linejoin:miter;stroke-width:1.5;"/>
   </g>
   <g id="patch_3">
    <path clip-path="url(#p22c89bd80e)" d="
M71.352 43.5997
C72.3831 43.5997 73.3721 43.2128 74.1012 42.5242
C74.8303 41.8356 75.24 40.9016 75.24 39.9277
C75.24 38.9539 74.8303 38.0199 74.1012 37.3313
C73.3721 36.6427 72.3831 36.2557 71.352 36.2557
C70.3209 36.2557 69.3319 36.6427 68.6028 37.3313
C67.8737 38.0199 67.464 38.9539 67.464 39.9277
C67.464 40.9016 67.8737 41.8356 68.6028 42.5242
C69.3319 43.2128 70.3209 43.5997 71.352 43.5997
L71.352 43.5997" style="fill:none;stroke:#000000;stroke-linejoin:miter;stroke-width:1.5;"/>
   </g>
   <g id="patch_4">
    <path clip-path="url(#p22c89bd80e)" d="
M176.328 43.5997
C177.359 43.5997 178.348 43.2128 179.077 42.5242
C179.806 41.8356 180.216 40.9016 180.216 39.9277
C180.216 38.9539 179.806 38.0199 179.077 37.3313
C178.348 36.6427 177.359 36.2557 176.328 36.2557
C175.297 36.2557 174.308 36.6427 173.579 37.3313
C172.85 38.0199 172.44 38.9539 172.44 39.9277
C172.44 40.9016 172.85 41.8356 173.579 42.5242
C174.308 43.2128 175.297 43.5997 176.328 43.5997
L176.328 43.5997" style="fill:none;stroke:#000000;stroke-linejoin:miter;stroke-width:1.5;"/>
   </g>
   <g id="patch_5">
    <path clip-path="url(#p22c89bd80e)" d="
M200.952 43.5997
C201.983 43.5997 202.972 43.2128 203.701 42.5242
C204.43 41.8356 204.84 40.9016 204.84 39.9277
C204.84 38.9539 204.43 38.0199 203.701 37.3313
C202.972 36.6427 201.983 36.2557 200.952 36.2557
C199.921 36.2557 198.932 36.6427 198.203 37.3313
C197.474 38.0199 197.064 38.9539 197.064 39.9277
C197.064 40.9016 197.474 41.8356 198.203 42.5242
C198.932 43.2128 199.921 43.5997 200.952 43.5997
L200.952 43.5997" style="fill:none;stroke:#000000;stroke-linejoin:miter;stroke-width:1.5;"/>
   </g>
   <g id="text_1">
    <!-- BUTTON -->
    <defs>
     <path d="
M19.6719 34.8125
L19.6719 8.10938
L35.5 8.10938
Q43.4531 8.10938 47.2812 11.4062
Q51.125 14.7031 51.125 21.4844
Q51.125 28.3281 47.2812 31.5625
Q43.4531 34.8125 35.5 34.8125
z

M19.6719 64.7969
L19.6719 42.8281
L34.2812 42.8281
Q41.5 42.8281 45.0312 45.5312
Q48.5781 48.25 48.5781 53.8125
Q48.5781 59.3281 45.0312 62.0625
Q41.5 64.7969 34.2812 64.7969
z

M9.8125 72.9062
L35.0156 72.9062
Q46.2969 72.9062 52.3906 68.2188
Q58.5 63.5312 58.5 54.8906
Q58.5 48.1875 55.375 44.2344
Q52.25 40.2812 46.1875 39.3125
Q53.4688 37.75 57.5 32.7812
Q61.5312 27.8281 61.5312 20.4062
Q61.5312 10.6406 54.8906 5.3125
Q48.25 0 35.9844 0
L9.8125 0
z
" id="BitstreamVeraSans-Roman-42"/>
     <path d="
M9.8125 72.9062
L23.0938 72.9062
L55.4219 11.9219
L55.4219 72.9062
L64.9844 72.9062
L64.9844 0
L51.7031 0
L19.3906 60.9844
L19.3906 0
L9.8125 0
z
" id="BitstreamVeraSans-Roman-4e"/>
     <path d="
M-0.296875 72.9062
L61.375 72.9062
L61.375 64.5938
L35.5 64.5938
L35.5 0
L25.5938 0
L25.5938 64.5938
L-0.296875 64.5938
z
" id="BitstreamVeraSans-Roman-54"/>
     <path d="
M8.6875 72.9062
L18.6094 72.9062
L18.6094 28.6094
Q18.6094 16.8906 22.8438 11.7344
Q27.0938 6.59375 36.625 6.59375
Q46.0938 6.59375 50.3438 11.7344
Q54.5938 16.8906 54.5938 28.6094
L54.5938 72.9062
L64.5 72.9062
L64.5 27.3906
Q64.5 13.1406 57.4375 5.85938
Q50.3906 -1.42188 36.625 -1.42188
Q22.7969 -1.42188 15.7344 5.85938
Q8.6875 13.1406 8.6875 27.3906
z
" id="BitstreamVeraSans-Roman-55"/>
     <path d="
M39.4062 66.2188
Q28.6562 66.2188 22.3281 58.2031
Q16.0156 50.2031 16.0156 36.375
Q16.0156 22.6094 22.3281 14.5938
Q28.6562 6.59375 39.4062 6.59375
Q50.1406 6.59375 56.4219 14.5938
Q62.7031 22.6094 62.7031 36.375
Q62.7031 50.2031 56.4219 58.2031
Q50.1406 66.2188 39.4062 66.2188
M39.4062 74.2188
Q54.7344 74.2188 63.9062 63.9375
Q73.0938 53.6562 73.0938 36.375
Q73.0938 19.1406 63.9062 8.85938
Q54.7344 -1.42188 39.4062 -1.42188
Q24.0312 -1.42188 14.8125 8.82812
Q5.60938 19.0938 5.60938 36.375
Q5.60938 53.6562 14.8125 63.9375
Q24.0312 74.2188 39.4062 74.2188" id="BitstreamVeraSans-Roman-4f"/>
    </defs>
    <g transform="translate(35.274375 16.318125)scale(0.12 -0.12)">
     <use xlink:href="#BitstreamVeraSans-Roman-42"/>
     <use x="68.603515625" xlink:href="#BitstreamVeraSans-Roman-55"/>
     <use x="141.796875" xlink:href="#BitstreamVeraSans-Roman-54"/>
     <use x="201.130859375" xlink:href="#BitstreamVeraSans-Roman-54"/>
     <use x="262.21484375" xlink:href="#BitstreamVeraSans-Roman-4f"/>
     <use x="340.92578125" xlink:href="#BitstreamVeraSans-Roman-4e"/>
    </g>
   </g>
   <g id="text_2">
    <!-- BUTTON_NC -->
    <defs>
     <path d="
M64.4062 67.2812
L64.4062 56.8906
Q59.4219 61.5312 53.7812 63.8125
Q48.1406 66.1094 41.7969 66.1094
Q29.2969 66.1094 22.6562 58.4688
Q16.0156 50.8281 16.0156 36.375
Q16.0156 21.9688 22.6562 14.3281
Q29.2969 6.6875 41.7969 6.6875
Q48.1406 6.6875 53.7812 8.98438
Q59.4219 11.2812 64.4062 15.9219
L64.4062 5.60938
Q59.2344 2.09375 53.4375 0.328125
Q47.6562 -1.42188 41.2188 -1.42188
Q24.6562 -1.42188 15.125 8.70312
Q5.60938 18.8438 5.60938 36.375
Q5.60938 53.9531 15.125 64.0781
Q24.6562 74.2188 41.2188 74.2188
Q47.75 74.2188 53.5312 72.4844
Q59.3281 70.75 64.4062 67.2812" id="BitstreamVeraSans-Roman-43"/>
     <path d="
M50.9844 -16.6094
L50.9844 -23.5781
L-0.984375 -23.5781
L-0.984375 -16.6094
z
" id="BitstreamVeraSans-Roman-5f"/>
    </defs>
    <g transform="translate(152.9315625 20.268375)scale(0.12 -0.12)">
     <use xlink:href="#BitstreamVeraSans-Roman-42"/>
     <use x="68.603515625" xlink:href="#BitstreamVeraSans-Roman-55"/>
     <use x="141.796875" xlink:href="#BitstreamVeraSans-Roman-54"/>
     <use x="201.130859375" xlink:href="#BitstreamVeraSans-Roman-54"/>
     <use x="262.21484375" xlink:href="#BitstreamVeraSans-Roman-4f"/>
     <use x="340.92578125" xlink:href="#BitstreamVeraSans-Roman-4e"/>
     <use x="415.73046875" xlink:href="#BitstreamVeraSans-Roman-5f"/>
     <use x="465.73046875" xlink:href="#BitstreamVeraSans-Roman-4e"/>
     <use x="540.53515625" xlink:href="#BitstreamVeraSans-Roman-43"/>
    </g>
   </g>
  </g>
 </g>
 <defs>
  <clipPath id="p22c89bd80e">
   <rect height="26.622" width="233.28" x="7.2" y="21.56775"/>
  </clipPath>
 </defs>
</svg>
