<?xml version="1.0" encoding="utf-8" standalone="no"?>
<!DOCTYPE svg PUBLIC "-//W3C//DTD SVG 1.1//EN"
  "http://www.w3.org/Graphics/SVG/1.1/DTD/svg11.dtd">
<!-- Created with matplotlib (http://matplotlib.org/) -->
<svg height="55pt" version="1.1" viewBox="0 0 247 55" width="247pt" xmlns="http://www.w3.org/2000/svg" xmlns:xlink="http://www.w3.org/1999/xlink">
 <defs>
  <style type="text/css">
*{stroke-linecap:butt;stroke-linejoin:round;stroke-miterlimit:100000;}
  </style>
 </defs>
 <g id="figure_1">
  <g id="patch_1">
   <path d="M 0 55.38975 
L 247.68 55.38975 
L 247.68 0 
L 0 0 
z
" style="fill:none;"/>
  </g>
  <g id="axes_1">
   <g id="line2d_1">
    <path clip-path="url(#p9d15dd6289)" d="M 10.44 39.92775 
L 42.84 39.92775 
M 46.728 30.74775 
L 71.352 30.74775 
M 59.04 30.74775 
L 59.04 24.62775 
M 75.24 39.92775 
L 107.64 39.92775 
" style="fill:none;stroke:#000000;stroke-linecap:round;stroke-width:1.5;"/>
   </g>
   <g id="line2d_2">
    <path clip-path="url(#p9d15dd6289)" d="M 140.04 39.92775 
L 172.44 39.92775 
M 176.328 45.12975 
L 200.952 45.12975 
M 188.64 45.12975 
L 188.64 31.66575 
M 204.84 39.92775 
L 237.24 39.92775 
" style="fill:none;stroke:#000000;stroke-linecap:round;stroke-width:1.5;"/>
   </g>
   <g id="patch_2">
    <path clip-path="url(#p9d15dd6289)" d="M 46.728 43.59975 
C 47.75911 43.59975 48.748127 43.212845 49.477231 42.524246 
C 50.206336 41.835647 50.616 40.901576 50.616 39.92775 
C 50.616 38.953924 50.206336 38.019853 49.477231 37.331254 
C 48.748127 36.642655 47.75911 36.25575 46.728 36.25575 
C 45.69689 36.25575 44.707873 36.642655 43.978769 37.331254 
C 43.249664 38.019853 42.84 38.953924 42.84 39.92775 
C 42.84 40.901576 43.249664 41.835647 43.978769 42.524246 
C 44.707873 43.212845 45.69689 43.59975 46.728 43.59975 
z
" style="fill:none;stroke:#000000;stroke-linejoin:miter;stroke-width:1.5;"/>
   </g>
   <g id="patch_3">
    <path clip-path="url(#p9d15dd6289)" d="M 71.352 43.59975 
C 72.38311 43.59975 73.372127 43.212845 74.101231 42.524246 
C 74.830336 41.835647 75.24 40.901576 75.24 39.92775 
C 75.24 38.953924 74.830336 38.019853 74.101231 37.331254 
C 73.372127 36.642655 72.38311 36.25575 71.352 36.25575 
C 70.32089 36.25575 69.331873 36.642655 68.602769 37.331254 
C 67.873664 38.019853 67.464 38.953924 67.464 39.92775 
C 67.464 40.901576 67.873664 41.835647 68.602769 42.524246 
C 69.331873 43.212845 70.32089 43.59975 71.352 43.59975 
z
" style="fill:none;stroke:#000000;stroke-linejoin:miter;stroke-width:1.5;"/>
   </g>
   <g id="patch_4">
    <path clip-path="url(#p9d15dd6289)" d="M 176.328 43.59975 
C 177.35911 43.59975 178.348127 43.212845 179.077231 42.524246 
C 179.806336 41.835647 180.216 40.901576 180.216 39.92775 
C 180.216 38.953924 179.806336 38.019853 179.077231 37.331254 
C 178.348127 36.642655 177.35911 36.25575 176.328 36.25575 
C 175.29689 36.25575 174.307873 36.642655 173.578769 37.331254 
C 172.849664 38.019853 172.44 38.953924 172.44 39.92775 
C 172.44 40.901576 172.849664 41.835647 173.578769 42.524246 
C 174.307873 43.212845 175.29689 43.59975 176.328 43.59975 
z
" style="fill:none;stroke:#000000;stroke-linejoin:miter;stroke-width:1.5;"/>
   </g>
   <g id="patch_5">
    <path clip-path="url(#p9d15dd6289)" d="M 200.952 43.59975 
C 201.98311 43.59975 202.972127 43.212845 203.701231 42.524246 
C 204.430336 41.835647 204.84 40.901576 204.84 39.92775 
C 204.84 38.953924 204.430336 38.019853 203.701231 37.331254 
C 202.972127 36.642655 201.98311 36.25575 200.952 36.25575 
C 199.92089 36.25575 198.931873 36.642655 198.202769 37.331254 
C 197.473664 38.019853 197.064 38.953924 197.064 39.92775 
C 197.064 40.901576 197.473664 41.835647 198.202769 42.524246 
C 198.931873 43.212845 199.92089 43.59975 200.952 43.59975 
z
" style="fill:none;stroke:#000000;stroke-linejoin:miter;stroke-width:1.5;"/>
   </g>
   <g id="text_1">
    <!-- BUTTON -->
    <defs>
     <path d="M 9.8125 72.90625 
L 23.09375 72.90625 
L 55.421875 11.921875 
L 55.421875 72.90625 
L 64.984375 72.90625 
L 64.984375 0 
L 51.703125 0 
L 19.390625 60.984375 
L 19.390625 0 
L 9.8125 0 
z
" id="BitstreamVeraSans-Roman-4e"/>
     <path d="M 19.671875 34.8125 
L 19.671875 8.109375 
L 35.5 8.109375 
Q 43.453125 8.109375 47.28125 11.40625 
Q 51.125 14.703125 51.125 21.484375 
Q 51.125 28.328125 47.28125 31.5625 
Q 43.453125 34.8125 35.5 34.8125 
z
M 19.671875 64.796875 
L 19.671875 42.828125 
L 34.28125 42.828125 
Q 41.5 42.828125 45.03125 45.53125 
Q 48.578125 48.25 48.578125 53.8125 
Q 48.578125 59.328125 45.03125 62.0625 
Q 41.5 64.796875 34.28125 64.796875 
z
M 9.8125 72.90625 
L 35.015625 72.90625 
Q 46.296875 72.90625 52.390625 68.21875 
Q 58.5 63.53125 58.5 54.890625 
Q 58.5 48.1875 55.375 44.234375 
Q 52.25 40.28125 46.1875 39.3125 
Q 53.46875 37.75 57.5 32.78125 
Q 61.53125 27.828125 61.53125 20.40625 
Q 61.53125 10.640625 54.890625 5.3125 
Q 48.25 0 35.984375 0 
L 9.8125 0 
z
" id="BitstreamVeraSans-Roman-42"/>
     <path d="M -0.296875 72.90625 
L 61.375 72.90625 
L 61.375 64.59375 
L 35.5 64.59375 
L 35.5 0 
L 25.59375 0 
L 25.59375 64.59375 
L -0.296875 64.59375 
z
" id="BitstreamVeraSans-Roman-54"/>
     <path d="M 39.40625 66.21875 
Q 28.65625 66.21875 22.328125 58.203125 
Q 16.015625 50.203125 16.015625 36.375 
Q 16.015625 22.609375 22.328125 14.59375 
Q 28.65625 6.59375 39.40625 6.59375 
Q 50.140625 6.59375 56.421875 14.59375 
Q 62.703125 22.609375 62.703125 36.375 
Q 62.703125 50.203125 56.421875 58.203125 
Q 50.140625 66.21875 39.40625 66.21875 
M 39.40625 74.21875 
Q 54.734375 74.21875 63.90625 63.9375 
Q 73.09375 53.65625 73.09375 36.375 
Q 73.09375 19.140625 63.90625 8.859375 
Q 54.734375 -1.421875 39.40625 -1.421875 
Q 24.03125 -1.421875 14.8125 8.828125 
Q 5.609375 19.09375 5.609375 36.375 
Q 5.609375 53.65625 14.8125 63.9375 
Q 24.03125 74.21875 39.40625 74.21875 
" id="BitstreamVeraSans-Roman-4f"/>
     <path d="M 8.6875 72.90625 
L 18.609375 72.90625 
L 18.609375 28.609375 
Q 18.609375 16.890625 22.84375 11.734375 
Q 27.09375 6.59375 36.625 6.59375 
Q 46.09375 6.59375 50.34375 11.734375 
Q 54.59375 16.890625 54.59375 28.609375 
L 54.59375 72.90625 
L 64.5 72.90625 
L 64.5 27.390625 
Q 64.5 13.140625 57.4375 5.859375 
Q 50.390625 -1.421875 36.625 -1.421875 
Q 22.796875 -1.421875 15.734375 5.859375 
Q 8.6875 13.140625 8.6875 27.390625 
z
" id="BitstreamVeraSans-Roman-55"/>
    </defs>
    <g transform="translate(33.991875 16.318125)scale(0.12 -0.12)">
     <use xlink:href="#BitstreamVeraSans-Roman-42"/>
     <use x="68.603515625" xlink:href="#BitstreamVeraSans-Roman-55"/>
     <use x="141.796875" xlink:href="#BitstreamVeraSans-Roman-54"/>
     <use x="202.865234375" xlink:href="#BitstreamVeraSans-Roman-54"/>
     <use x="263.94921875" xlink:href="#BitstreamVeraSans-Roman-4f"/>
     <use x="342.66015625" xlink:href="#BitstreamVeraSans-Roman-4e"/>
    </g>
   </g>
   <g id="text_2">
    <!-- BUTTON_NC -->
    <defs>
     <path d="M 50.984375 -16.609375 
L 50.984375 -23.578125 
L -0.984375 -23.578125 
L -0.984375 -16.609375 
z
" id="BitstreamVeraSans-Roman-5f"/>
     <path d="M 64.40625 67.28125 
L 64.40625 56.890625 
Q 59.421875 61.53125 53.78125 63.8125 
Q 48.140625 66.109375 41.796875 66.109375 
Q 29.296875 66.109375 22.65625 58.46875 
Q 16.015625 50.828125 16.015625 36.375 
Q 16.015625 21.96875 22.65625 14.328125 
Q 29.296875 6.6875 41.796875 6.6875 
Q 48.140625 6.6875 53.78125 8.984375 
Q 59.421875 11.28125 64.40625 15.921875 
L 64.40625 5.609375 
Q 59.234375 2.09375 53.4375 0.328125 
Q 47.65625 -1.421875 41.21875 -1.421875 
Q 24.65625 -1.421875 15.125 8.703125 
Q 5.609375 18.84375 5.609375 36.375 
Q 5.609375 53.953125 15.125 64.078125 
Q 24.65625 74.21875 41.21875 74.21875 
Q 47.75 74.21875 53.53125 72.484375 
Q 59.328125 70.75 64.40625 67.28125 
" id="BitstreamVeraSans-Roman-43"/>
    </defs>
    <g transform="translate(151.9134375 20.268375)scale(0.12 -0.12)">
     <use xlink:href="#BitstreamVeraSans-Roman-42"/>
     <use x="68.603515625" xlink:href="#BitstreamVeraSans-Roman-55"/>
     <use x="141.796875" xlink:href="#BitstreamVeraSans-Roman-54"/>
     <use x="202.865234375" xlink:href="#BitstreamVeraSans-Roman-54"/>
     <use x="263.94921875" xlink:href="#BitstreamVeraSans-Roman-4f"/>
     <use x="342.66015625" xlink:href="#BitstreamVeraSans-Roman-4e"/>
     <use x="417.46484375" xlink:href="#BitstreamVeraSans-Roman-5f"/>
     <use x="467.46484375" xlink:href="#BitstreamVeraSans-Roman-4e"/>
     <use x="542.26953125" xlink:href="#BitstreamVeraSans-Roman-43"/>
    </g>
   </g>
  </g>
 </g>
 <defs>
  <clipPath id="p9d15dd6289">
   <rect height="26.622" width="233.28" x="7.2" y="21.56775"/>
  </clipPath>
 </defs>
</svg>
