<?xml version="1.0" encoding="utf-8" standalone="no"?>
<!DOCTYPE svg PUBLIC "-//W3C//DTD SVG 1.1//EN"
  "http://www.w3.org/Graphics/SVG/1.1/DTD/svg11.dtd">
<!-- Created with matplotlib (https://matplotlib.org/) -->
<svg height="48.893338pt" version="1.1" viewBox="0 0 270.36 48.893338" width="270.36pt" xmlns="http://www.w3.org/2000/svg" xmlns:xlink="http://www.w3.org/1999/xlink">
 <defs>
  <style type="text/css">
*{stroke-linecap:butt;stroke-linejoin:round;white-space:pre;}
  </style>
 </defs>
 <g id="figure_1">
  <g id="patch_1">
   <path d="M 0 48.893338 
L 270.36 48.893338 
L 270.36 0 
L 0 0 
z
" style="fill:none;"/>
  </g>
  <g id="axes_1">
   <g id="patch_2">
    <path clip-path="url(#p181fdcc564)" d="M 58.068 36.573687 
C 59.09911 36.573687 60.088127 36.220921 60.817231 35.593081 
C 61.546336 34.965241 61.956 34.113587 61.956 33.225687 
C 61.956 32.337788 61.546336 31.486134 60.817231 30.858294 
C 60.088127 30.230454 59.09911 29.877688 58.068 29.877688 
C 57.03689 29.877688 56.047873 30.230454 55.318769 30.858294 
C 54.589664 31.486134 54.18 32.337788 54.18 33.225687 
C 54.18 34.113587 54.589664 34.965241 55.318769 35.593081 
C 56.047873 36.220921 57.03689 36.573687 58.068 36.573687 
z
" style="fill:none;stroke:#000000;stroke-linejoin:miter;stroke-width:2;"/>
   </g>
   <g id="patch_3">
    <path clip-path="url(#p181fdcc564)" d="M 82.692 36.573687 
C 83.72311 36.573687 84.712127 36.220921 85.441231 35.593081 
C 86.170336 34.965241 86.58 34.113587 86.58 33.225687 
C 86.58 32.337788 86.170336 31.486134 85.441231 30.858294 
C 84.712127 30.230454 83.72311 29.877688 82.692 29.877688 
C 81.66089 29.877688 80.671873 30.230454 79.942769 30.858294 
C 79.213664 31.486134 78.804 32.337788 78.804 33.225687 
C 78.804 34.113587 79.213664 34.965241 79.942769 35.593081 
C 80.671873 36.220921 81.66089 36.573687 82.692 36.573687 
z
" style="fill:none;stroke:#000000;stroke-linejoin:miter;stroke-width:2;"/>
   </g>
   <g id="patch_4">
    <path clip-path="url(#p181fdcc564)" d="M 187.668 36.573687 
C 188.69911 36.573687 189.688127 36.220921 190.417231 35.593081 
C 191.146336 34.965241 191.556 34.113587 191.556 33.225687 
C 191.556 32.337788 191.146336 31.486134 190.417231 30.858294 
C 189.688127 30.230454 188.69911 29.877688 187.668 29.877688 
C 186.63689 29.877688 185.647873 30.230454 184.918769 30.858294 
C 184.189664 31.486134 183.78 32.337788 183.78 33.225687 
C 183.78 34.113587 184.189664 34.965241 184.918769 35.593081 
C 185.647873 36.220921 186.63689 36.573687 187.668 36.573687 
z
" style="fill:none;stroke:#000000;stroke-linejoin:miter;stroke-width:2;"/>
   </g>
   <g id="patch_5">
    <path clip-path="url(#p181fdcc564)" d="M 212.292 36.573687 
C 213.32311 36.573687 214.312127 36.220921 215.041231 35.593081 
C 215.770336 34.965241 216.18 34.113587 216.18 33.225687 
C 216.18 32.337788 215.770336 31.486134 215.041231 30.858294 
C 214.312127 30.230454 213.32311 29.877688 212.292 29.877688 
C 211.26089 29.877688 210.271873 30.230454 209.542769 30.858294 
C 208.813664 31.486134 208.404 32.337788 208.404 33.225687 
C 208.404 34.113587 208.813664 34.965241 209.542769 35.593081 
C 210.271873 36.220921 211.26089 36.573687 212.292 36.573687 
z
" style="fill:none;stroke:#000000;stroke-linejoin:miter;stroke-width:2;"/>
   </g>
   <g id="line2d_1">
    <path clip-path="url(#p181fdcc564)" d="M 21.78 33.225687 
L 54.18 33.225687 
M 58.068 24.855687 
L 82.692 24.855687 
M 70.38 24.855687 
L 70.38 19.275687 
M 86.58 33.225687 
L 118.98 33.225687 
" style="fill:none;stroke:#000000;stroke-linecap:round;stroke-width:2;"/>
   </g>
   <g id="line2d_2">
    <path clip-path="url(#p181fdcc564)" d="M 151.38 33.225687 
L 183.78 33.225687 
M 187.668 37.968688 
L 212.292 37.968688 
M 199.98 37.968688 
L 199.98 25.692687 
M 216.18 33.225687 
L 248.58 33.225687 
" style="fill:none;stroke:#000000;stroke-linecap:round;stroke-width:2;"/>
   </g>
   <g id="text_1">
    <!-- BUTTON -->
    <defs>
     <path d="M 19.671875 34.8125 
L 19.671875 8.109375 
L 35.5 8.109375 
Q 43.453125 8.109375 47.28125 11.40625 
Q 51.125 14.703125 51.125 21.484375 
Q 51.125 28.328125 47.28125 31.5625 
Q 43.453125 34.8125 35.5 34.8125 
z
M 19.671875 64.796875 
L 19.671875 42.828125 
L 34.28125 42.828125 
Q 41.5 42.828125 45.03125 45.53125 
Q 48.578125 48.25 48.578125 53.8125 
Q 48.578125 59.328125 45.03125 62.0625 
Q 41.5 64.796875 34.28125 64.796875 
z
M 9.8125 72.90625 
L 35.015625 72.90625 
Q 46.296875 72.90625 52.390625 68.21875 
Q 58.5 63.53125 58.5 54.890625 
Q 58.5 48.1875 55.375 44.234375 
Q 52.25 40.28125 46.1875 39.3125 
Q 53.46875 37.75 57.5 32.78125 
Q 61.53125 27.828125 61.53125 20.40625 
Q 61.53125 10.640625 54.890625 5.3125 
Q 48.25 0 35.984375 0 
L 9.8125 0 
z
" id="DejaVuSans-66"/>
     <path d="M 8.6875 72.90625 
L 18.609375 72.90625 
L 18.609375 28.609375 
Q 18.609375 16.890625 22.84375 11.734375 
Q 27.09375 6.59375 36.625 6.59375 
Q 46.09375 6.59375 50.34375 11.734375 
Q 54.59375 16.890625 54.59375 28.609375 
L 54.59375 72.90625 
L 64.5 72.90625 
L 64.5 27.390625 
Q 64.5 13.140625 57.4375 5.859375 
Q 50.390625 -1.421875 36.625 -1.421875 
Q 22.796875 -1.421875 15.734375 5.859375 
Q 8.6875 13.140625 8.6875 27.390625 
z
" id="DejaVuSans-85"/>
     <path d="M -0.296875 72.90625 
L 61.375 72.90625 
L 61.375 64.59375 
L 35.5 64.59375 
L 35.5 0 
L 25.59375 0 
L 25.59375 64.59375 
L -0.296875 64.59375 
z
" id="DejaVuSans-84"/>
     <path d="M 39.40625 66.21875 
Q 28.65625 66.21875 22.328125 58.203125 
Q 16.015625 50.203125 16.015625 36.375 
Q 16.015625 22.609375 22.328125 14.59375 
Q 28.65625 6.59375 39.40625 6.59375 
Q 50.140625 6.59375 56.421875 14.59375 
Q 62.703125 22.609375 62.703125 36.375 
Q 62.703125 50.203125 56.421875 58.203125 
Q 50.140625 66.21875 39.40625 66.21875 
z
M 39.40625 74.21875 
Q 54.734375 74.21875 63.90625 63.9375 
Q 73.09375 53.65625 73.09375 36.375 
Q 73.09375 19.140625 63.90625 8.859375 
Q 54.734375 -1.421875 39.40625 -1.421875 
Q 24.03125 -1.421875 14.8125 8.828125 
Q 5.609375 19.09375 5.609375 36.375 
Q 5.609375 53.65625 14.8125 63.9375 
Q 24.03125 74.21875 39.40625 74.21875 
z
" id="DejaVuSans-79"/>
     <path d="M 9.8125 72.90625 
L 23.09375 72.90625 
L 55.421875 11.921875 
L 55.421875 72.90625 
L 64.984375 72.90625 
L 64.984375 0 
L 51.703125 0 
L 19.390625 60.984375 
L 19.390625 0 
L 9.8125 0 
z
" id="DejaVuSans-78"/>
    </defs>
    <g transform="translate(41.157188 17.837813)scale(0.14 -0.14)">
     <use xlink:href="#DejaVuSans-66"/>
     <use x="68.603516" xlink:href="#DejaVuSans-85"/>
     <use x="141.796875" xlink:href="#DejaVuSans-84"/>
     <use x="202.865234" xlink:href="#DejaVuSans-84"/>
     <use x="263.949219" xlink:href="#DejaVuSans-79"/>
     <use x="342.660156" xlink:href="#DejaVuSans-78"/>
    </g>
   </g>
   <g id="text_2">
    <!-- BUTTON_NC -->
    <defs>
     <path d="M 50.984375 -16.609375 
L 50.984375 -23.578125 
L -0.984375 -23.578125 
L -0.984375 -16.609375 
z
" id="DejaVuSans-95"/>
     <path d="M 64.40625 67.28125 
L 64.40625 56.890625 
Q 59.421875 61.53125 53.78125 63.8125 
Q 48.140625 66.109375 41.796875 66.109375 
Q 29.296875 66.109375 22.65625 58.46875 
Q 16.015625 50.828125 16.015625 36.375 
Q 16.015625 21.96875 22.65625 14.328125 
Q 29.296875 6.6875 41.796875 6.6875 
Q 48.140625 6.6875 53.78125 8.984375 
Q 59.421875 11.28125 64.40625 15.921875 
L 64.40625 5.609375 
Q 59.234375 2.09375 53.4375 0.328125 
Q 47.65625 -1.421875 41.21875 -1.421875 
Q 24.65625 -1.421875 15.125 8.703125 
Q 5.609375 18.84375 5.609375 36.375 
Q 5.609375 53.953125 15.125 64.078125 
Q 24.65625 74.21875 41.21875 74.21875 
Q 47.75 74.21875 53.53125 72.484375 
Q 59.328125 70.75 64.40625 67.28125 
z
" id="DejaVuSans-67"/>
    </defs>
    <g transform="translate(157.132344 21.425531)scale(0.14 -0.14)">
     <use xlink:href="#DejaVuSans-66"/>
     <use x="68.603516" xlink:href="#DejaVuSans-85"/>
     <use x="141.796875" xlink:href="#DejaVuSans-84"/>
     <use x="202.865234" xlink:href="#DejaVuSans-84"/>
     <use x="263.949219" xlink:href="#DejaVuSans-79"/>
     <use x="342.660156" xlink:href="#DejaVuSans-78"/>
     <use x="417.464844" xlink:href="#DejaVuSans-95"/>
     <use x="467.464844" xlink:href="#DejaVuSans-78"/>
     <use x="542.269531" xlink:href="#DejaVuSans-67"/>
    </g>
   </g>
  </g>
 </g>
 <defs>
  <clipPath id="p181fdcc564">
   <rect height="26.1423" width="255.96" x="7.2" y="15.551037"/>
  </clipPath>
 </defs>
</svg>
