<?xml version="1.0" encoding="utf-8" standalone="no"?>
<!DOCTYPE svg PUBLIC "-//W3C//DTD SVG 1.1//EN"
  "http://www.w3.org/Graphics/SVG/1.1/DTD/svg11.dtd">
<!-- Created with matplotlib (https://matplotlib.org/) -->
<svg height="47.925525pt" version="1.1" viewBox="0 0 270.36 47.925525" width="270.36pt" xmlns="http://www.w3.org/2000/svg" xmlns:xlink="http://www.w3.org/1999/xlink">
 <defs>
  <style type="text/css">
*{stroke-linecap:butt;stroke-linejoin:round;}
  </style>
 </defs>
 <g id="figure_1">
  <g id="patch_1">
   <path d="M 0 47.925525 
L 270.36 47.925525 
L 270.36 0 
L 0 0 
z
" style="fill:none;"/>
  </g>
  <g id="axes_1">
   <g id="line2d_1">
    <path clip-path="url(#p2c2bd086c0)" d="M 21.78 32.257875 
L 54.18 32.257875 
M 58.068 23.887875 
L 82.692 23.887875 
M 70.38 23.887875 
L 70.38 18.307875 
M 86.58 32.257875 
L 118.98 32.257875 
" style="fill:none;stroke:#000000;stroke-linecap:round;stroke-width:1.5;"/>
   </g>
   <g id="line2d_2">
    <path clip-path="url(#p2c2bd086c0)" d="M 151.38 32.257875 
L 183.78 32.257875 
M 187.668 37.000875 
L 212.292 37.000875 
M 199.98 37.000875 
L 199.98 24.724875 
M 216.18 32.257875 
L 248.58 32.257875 
" style="fill:none;stroke:#000000;stroke-linecap:round;stroke-width:1.5;"/>
   </g>
   <g id="patch_2">
    <path clip-path="url(#p2c2bd086c0)" d="M 58.068 35.605875 
C 59.09911 35.605875 60.088127 35.253109 60.817231 34.625269 
C 61.546336 33.997428 61.956 33.145775 61.956 32.257875 
C 61.956 31.369975 61.546336 30.518322 60.817231 29.890481 
C 60.088127 29.262641 59.09911 28.909875 58.068 28.909875 
C 57.03689 28.909875 56.047873 29.262641 55.318769 29.890481 
C 54.589664 30.518322 54.18 31.369975 54.18 32.257875 
C 54.18 33.145775 54.589664 33.997428 55.318769 34.625269 
C 56.047873 35.253109 57.03689 35.605875 58.068 35.605875 
z
" style="fill:none;stroke:#000000;stroke-linejoin:miter;stroke-width:1.5;"/>
   </g>
   <g id="patch_3">
    <path clip-path="url(#p2c2bd086c0)" d="M 82.692 35.605875 
C 83.72311 35.605875 84.712127 35.253109 85.441231 34.625269 
C 86.170336 33.997428 86.58 33.145775 86.58 32.257875 
C 86.58 31.369975 86.170336 30.518322 85.441231 29.890481 
C 84.712127 29.262641 83.72311 28.909875 82.692 28.909875 
C 81.66089 28.909875 80.671873 29.262641 79.942769 29.890481 
C 79.213664 30.518322 78.804 31.369975 78.804 32.257875 
C 78.804 33.145775 79.213664 33.997428 79.942769 34.625269 
C 80.671873 35.253109 81.66089 35.605875 82.692 35.605875 
z
" style="fill:none;stroke:#000000;stroke-linejoin:miter;stroke-width:1.5;"/>
   </g>
   <g id="patch_4">
    <path clip-path="url(#p2c2bd086c0)" d="M 187.668 35.605875 
C 188.69911 35.605875 189.688127 35.253109 190.417231 34.625269 
C 191.146336 33.997428 191.556 33.145775 191.556 32.257875 
C 191.556 31.369975 191.146336 30.518322 190.417231 29.890481 
C 189.688127 29.262641 188.69911 28.909875 187.668 28.909875 
C 186.63689 28.909875 185.647873 29.262641 184.918769 29.890481 
C 184.189664 30.518322 183.78 31.369975 183.78 32.257875 
C 183.78 33.145775 184.189664 33.997428 184.918769 34.625269 
C 185.647873 35.253109 186.63689 35.605875 187.668 35.605875 
z
" style="fill:none;stroke:#000000;stroke-linejoin:miter;stroke-width:1.5;"/>
   </g>
   <g id="patch_5">
    <path clip-path="url(#p2c2bd086c0)" d="M 212.292 35.605875 
C 213.32311 35.605875 214.312127 35.253109 215.041231 34.625269 
C 215.770336 33.997428 216.18 33.145775 216.18 32.257875 
C 216.18 31.369975 215.770336 30.518322 215.041231 29.890481 
C 214.312127 29.262641 213.32311 28.909875 212.292 28.909875 
C 211.26089 28.909875 210.271873 29.262641 209.542769 29.890481 
C 208.813664 30.518322 208.404 31.369975 208.404 32.257875 
C 208.404 33.145775 208.813664 33.997428 209.542769 34.625269 
C 210.271873 35.253109 211.26089 35.605875 212.292 35.605875 
z
" style="fill:none;stroke:#000000;stroke-linejoin:miter;stroke-width:1.5;"/>
   </g>
   <g id="text_1">
    <!-- BUTTON -->
    <defs>
     <path d="M 19.671875 34.8125 
L 19.671875 8.109375 
L 35.5 8.109375 
Q 43.453125 8.109375 47.28125 11.40625 
Q 51.125 14.703125 51.125 21.484375 
Q 51.125 28.328125 47.28125 31.5625 
Q 43.453125 34.8125 35.5 34.8125 
z
M 19.671875 64.796875 
L 19.671875 42.828125 
L 34.28125 42.828125 
Q 41.5 42.828125 45.03125 45.53125 
Q 48.578125 48.25 48.578125 53.8125 
Q 48.578125 59.328125 45.03125 62.0625 
Q 41.5 64.796875 34.28125 64.796875 
z
M 9.8125 72.90625 
L 35.015625 72.90625 
Q 46.296875 72.90625 52.390625 68.21875 
Q 58.5 63.53125 58.5 54.890625 
Q 58.5 48.1875 55.375 44.234375 
Q 52.25 40.28125 46.1875 39.3125 
Q 53.46875 37.75 57.5 32.78125 
Q 61.53125 27.828125 61.53125 20.40625 
Q 61.53125 10.640625 54.890625 5.3125 
Q 48.25 0 35.984375 0 
L 9.8125 0 
z
" id="DejaVuSans-66"/>
     <path d="M 8.6875 72.90625 
L 18.609375 72.90625 
L 18.609375 28.609375 
Q 18.609375 16.890625 22.84375 11.734375 
Q 27.09375 6.59375 36.625 6.59375 
Q 46.09375 6.59375 50.34375 11.734375 
Q 54.59375 16.890625 54.59375 28.609375 
L 54.59375 72.90625 
L 64.5 72.90625 
L 64.5 27.390625 
Q 64.5 13.140625 57.4375 5.859375 
Q 50.390625 -1.421875 36.625 -1.421875 
Q 22.796875 -1.421875 15.734375 5.859375 
Q 8.6875 13.140625 8.6875 27.390625 
z
" id="DejaVuSans-85"/>
     <path d="M -0.296875 72.90625 
L 61.375 72.90625 
L 61.375 64.59375 
L 35.5 64.59375 
L 35.5 0 
L 25.59375 0 
L 25.59375 64.59375 
L -0.296875 64.59375 
z
" id="DejaVuSans-84"/>
     <path d="M 39.40625 66.21875 
Q 28.65625 66.21875 22.328125 58.203125 
Q 16.015625 50.203125 16.015625 36.375 
Q 16.015625 22.609375 22.328125 14.59375 
Q 28.65625 6.59375 39.40625 6.59375 
Q 50.140625 6.59375 56.421875 14.59375 
Q 62.703125 22.609375 62.703125 36.375 
Q 62.703125 50.203125 56.421875 58.203125 
Q 50.140625 66.21875 39.40625 66.21875 
z
M 39.40625 74.21875 
Q 54.734375 74.21875 63.90625 63.9375 
Q 73.09375 53.65625 73.09375 36.375 
Q 73.09375 19.140625 63.90625 8.859375 
Q 54.734375 -1.421875 39.40625 -1.421875 
Q 24.03125 -1.421875 14.8125 8.828125 
Q 5.609375 19.09375 5.609375 36.375 
Q 5.609375 53.65625 14.8125 63.9375 
Q 24.03125 74.21875 39.40625 74.21875 
z
" id="DejaVuSans-79"/>
     <path d="M 9.8125 72.90625 
L 23.09375 72.90625 
L 55.421875 11.921875 
L 55.421875 72.90625 
L 64.984375 72.90625 
L 64.984375 0 
L 51.703125 0 
L 19.390625 60.984375 
L 19.390625 0 
L 9.8125 0 
z
" id="DejaVuSans-78"/>
    </defs>
    <g transform="translate(45.331875 16.318125)scale(0.12 -0.12)">
     <use xlink:href="#DejaVuSans-66"/>
     <use x="68.603516" xlink:href="#DejaVuSans-85"/>
     <use x="141.796875" xlink:href="#DejaVuSans-84"/>
     <use x="202.865234" xlink:href="#DejaVuSans-84"/>
     <use x="263.949219" xlink:href="#DejaVuSans-79"/>
     <use x="342.660156" xlink:href="#DejaVuSans-78"/>
    </g>
   </g>
   <g id="text_2">
    <!-- BUTTON_NC -->
    <defs>
     <path d="M 50.984375 -16.609375 
L 50.984375 -23.578125 
L -0.984375 -23.578125 
L -0.984375 -16.609375 
z
" id="DejaVuSans-95"/>
     <path d="M 64.40625 67.28125 
L 64.40625 56.890625 
Q 59.421875 61.53125 53.78125 63.8125 
Q 48.140625 66.109375 41.796875 66.109375 
Q 29.296875 66.109375 22.65625 58.46875 
Q 16.015625 50.828125 16.015625 36.375 
Q 16.015625 21.96875 22.65625 14.328125 
Q 29.296875 6.6875 41.796875 6.6875 
Q 48.140625 6.6875 53.78125 8.984375 
Q 59.421875 11.28125 64.40625 15.921875 
L 64.40625 5.609375 
Q 59.234375 2.09375 53.4375 0.328125 
Q 47.65625 -1.421875 41.21875 -1.421875 
Q 24.65625 -1.421875 15.125 8.703125 
Q 5.609375 18.84375 5.609375 36.375 
Q 5.609375 53.953125 15.125 64.078125 
Q 24.65625 74.21875 41.21875 74.21875 
Q 47.75 74.21875 53.53125 72.484375 
Q 59.328125 70.75 64.40625 67.28125 
z
" id="DejaVuSans-67"/>
    </defs>
    <g transform="translate(163.253437 19.951312)scale(0.12 -0.12)">
     <use xlink:href="#DejaVuSans-66"/>
     <use x="68.603516" xlink:href="#DejaVuSans-85"/>
     <use x="141.796875" xlink:href="#DejaVuSans-84"/>
     <use x="202.865234" xlink:href="#DejaVuSans-84"/>
     <use x="263.949219" xlink:href="#DejaVuSans-79"/>
     <use x="342.660156" xlink:href="#DejaVuSans-78"/>
     <use x="417.464844" xlink:href="#DejaVuSans-95"/>
     <use x="467.464844" xlink:href="#DejaVuSans-78"/>
     <use x="542.269531" xlink:href="#DejaVuSans-67"/>
    </g>
   </g>
  </g>
 </g>
 <defs>
  <clipPath id="p2c2bd086c0">
   <rect height="26.1423" width="255.96" x="7.2" y="14.583225"/>
  </clipPath>
 </defs>
</svg>
