<?xml version="1.0" encoding="utf-8" standalone="no"?>
<!DOCTYPE svg PUBLIC "-//W3C//DTD SVG 1.1//EN"
  "http://www.w3.org/Graphics/SVG/1.1/DTD/svg11.dtd">
<!-- Created with matplotlib (https://matplotlib.org/) -->
<svg height="123.6115pt" version="1.1" viewBox="0 0 250.36 123.6115" width="250.36pt" xmlns="http://www.w3.org/2000/svg" xmlns:xlink="http://www.w3.org/1999/xlink">
 <defs>
  <style type="text/css">
*{stroke-linecap:butt;stroke-linejoin:round;white-space:pre;}
  </style>
 </defs>
 <g id="figure_1">
  <g id="patch_1">
   <path d="M 0 123.6115 
L 250.36 123.6115 
L 250.36 -0 
L 0 -0 
z
" style="fill:none;"/>
  </g>
  <g id="axes_1">
   <g id="patch_2">
    <path clip-path="url(#p01f7c27277)" d="M 45.26 79.339375 
C 49.55629 79.339375 53.677194 77.869515 56.71513 75.253515 
C 59.753066 72.637514 61.46 69.088958 61.46 65.389375 
C 61.46 61.689792 59.753066 58.141236 56.71513 55.525235 
C 53.677194 52.909235 49.55629 51.439375 45.26 51.439375 
C 40.96371 51.439375 36.842806 52.909235 33.80487 55.525235 
C 30.766934 58.141236 29.06 61.689792 29.06 65.389375 
C 29.06 69.088958 30.766934 72.637514 33.80487 75.253515 
C 36.842806 77.869515 40.96371 79.339375 45.26 79.339375 
z
" style="fill:none;stroke:#000000;stroke-linejoin:miter;stroke-width:2;"/>
   </g>
   <g id="patch_3">
    <path clip-path="url(#p01f7c27277)" d="M 129.298482 36.142073 
C 126.891651 35.979652 124.454338 36.234271 122.301473 36.87303 
C 120.148607 37.511788 118.377087 38.505937 117.215815 39.727019 
" style="fill:none;stroke:#000000;stroke-linejoin:miter;stroke-width:2;"/>
   </g>
   <g id="patch_4">
    <path clip-path="url(#p01f7c27277)" d="M 131.12 51.439375 
C 132.15111 51.439375 133.140127 51.086609 133.869231 50.458769 
C 134.598336 49.830928 135.008 48.979275 135.008 48.091375 
C 135.008 47.203475 134.598336 46.351822 133.869231 45.723981 
C 133.140127 45.096141 132.15111 44.743375 131.12 44.743375 
C 130.08889 44.743375 129.099873 45.096141 128.370769 45.723981 
C 127.641664 46.351822 127.232 47.203475 127.232 48.091375 
C 127.232 48.979275 127.641664 49.830928 128.370769 50.458769 
C 129.099873 51.086609 130.08889 51.439375 131.12 51.439375 
z
" style="fill:none;stroke:#000000;stroke-linejoin:miter;stroke-width:2;"/>
   </g>
   <g id="patch_5">
    <path clip-path="url(#p01f7c27277)" d="M 144.08 30.235375 
C 145.11111 30.235375 146.100127 29.882609 146.829231 29.254769 
C 147.558336 28.626928 147.968 27.775275 147.968 26.887375 
C 147.968 25.999475 147.558336 25.147822 146.829231 24.519981 
C 146.100127 23.892141 145.11111 23.539375 144.08 23.539375 
C 143.04889 23.539375 142.059873 23.892141 141.330769 24.519981 
C 140.601664 25.147822 140.192 25.999475 140.192 26.887375 
C 140.192 27.775275 140.601664 28.626928 141.330769 29.254769 
C 142.059873 29.882609 143.04889 30.235375 144.08 30.235375 
z
" style="fill:none;stroke:#000000;stroke-linejoin:miter;stroke-width:2;"/>
   </g>
   <g id="patch_6">
    <path clip-path="url(#p01f7c27277)" d="M 118.16 30.235375 
C 119.19111 30.235375 120.180127 29.882609 120.909231 29.254769 
C 121.638336 28.626928 122.048 27.775275 122.048 26.887375 
C 122.048 25.999475 121.638336 25.147822 120.909231 24.519981 
C 120.180127 23.892141 119.19111 23.539375 118.16 23.539375 
C 117.12889 23.539375 116.139873 23.892141 115.410769 24.519981 
C 114.681664 25.147822 114.272 25.999475 114.272 26.887375 
C 114.272 27.775275 114.681664 28.626928 115.410769 29.254769 
C 116.139873 29.882609 117.12889 30.235375 118.16 30.235375 
z
" style="fill:none;stroke:#000000;stroke-linejoin:miter;stroke-width:2;"/>
   </g>
   <g id="patch_7">
    <path clip-path="url(#p01f7c27277)" d="M 131.12 109.331875 
C 131.764444 109.331875 132.382579 109.111396 132.838269 108.718996 
C 133.29396 108.326596 133.55 107.794312 133.55 107.239375 
C 133.55 106.684438 133.29396 106.152154 132.838269 105.759754 
C 132.382579 105.367354 131.764444 105.146875 131.12 105.146875 
C 130.475556 105.146875 129.857421 105.367354 129.401731 105.759754 
C 128.94604 106.152154 128.69 106.684438 128.69 107.239375 
C 128.69 107.794312 128.94604 108.326596 129.401731 108.718996 
C 129.857421 109.111396 130.475556 109.331875 131.12 109.331875 
z
" style="stroke:#000000;stroke-linejoin:miter;stroke-width:2;"/>
   </g>
   <g id="patch_8">
    <path clip-path="url(#p01f7c27277)" d="M 137.664875 36.988959 
L 129.33657 38.252836 
L 129.618375 36.1885 
L 129.29659 36.155927 
L 129.300373 36.128218 
L 129.622157 36.160791 
L 129.903962 34.096454 
z
" style="stroke:#000000;stroke-linejoin:miter;"/>
   </g>
   <g id="line2d_1">
    <path clip-path="url(#p01f7c27277)" d="M 48.5 72.364375 
L 42.02 72.364375 
" style="fill:none;stroke:#000000;stroke-linecap:round;stroke-width:2;"/>
   </g>
   <g id="line2d_2">
    <path clip-path="url(#p01f7c27277)" d="M 45.26 61.204375 
L 45.26 55.624375 
" style="fill:none;stroke:#000000;stroke-linecap:round;stroke-width:2;"/>
   </g>
   <g id="line2d_3">
    <path clip-path="url(#p01f7c27277)" d="M 48.5 58.414375 
L 42.02 58.414375 
" style="fill:none;stroke:#000000;stroke-linecap:round;stroke-width:2;"/>
   </g>
   <g id="line2d_4">
    <path clip-path="url(#p01f7c27277)" d="M 45.26 107.239375 
L 45.26 79.339375 
L 45.26 79.339375 
M 45.26 51.439375 
L 45.26 51.439375 
L 45.26 23.539375 
" style="fill:none;stroke:#000000;stroke-linecap:round;stroke-width:2;"/>
   </g>
   <g id="line2d_5">
    <path clip-path="url(#p01f7c27277)" d="M 45.26 23.539375 
L 81.71 23.539375 
L 118.16 23.539375 
" style="fill:none;stroke:#000000;stroke-linecap:round;stroke-width:2;"/>
   </g>
   <g id="line2d_6">
    <path clip-path="url(#p01f7c27277)" d="M 131.12 51.439375 
M 127.88 44.743375 
L 123.02 31.909375 
M 118.16 23.539375 
" style="fill:none;stroke:#000000;stroke-linecap:round;stroke-width:2;"/>
   </g>
   <g id="line2d_7">
    <path clip-path="url(#p01f7c27277)" d="M 144.08 23.539375 
L 180.53 23.539375 
L 216.98 23.539375 
" style="fill:none;stroke:#000000;stroke-linecap:round;stroke-width:2;"/>
   </g>
   <g id="line2d_8">
    <path clip-path="url(#p01f7c27277)" d="M 216.98 23.539375 
L 216.98 51.439375 
L 225.08 53.764375 
L 208.88 58.414375 
L 225.08 63.064375 
L 208.88 67.714375 
L 225.08 72.364375 
L 208.88 77.014375 
L 216.98 79.339375 
L 216.98 107.239375 
" style="fill:none;stroke:#000000;stroke-linecap:round;stroke-width:2;"/>
   </g>
   <g id="line2d_9">
    <path clip-path="url(#p01f7c27277)" d="M 216.98 107.239375 
L 131.12 107.239375 
L 45.26 107.239375 
" style="fill:none;stroke:#000000;stroke-linecap:round;stroke-width:2;"/>
   </g>
   <g id="line2d_10">
    <path clip-path="url(#p01f7c27277)" d="M 131.12 51.439375 
L 131.12 76.828375 
M 139.22 76.828375 
L 123.02 76.828375 
M 139.22 81.850375 
L 123.02 81.850375 
M 131.12 81.850375 
L 131.12 107.239375 
" style="fill:none;stroke:#000000;stroke-linecap:round;stroke-width:2;"/>
   </g>
   <g id="line2d_11">
    <path clip-path="url(#p01f7c27277)" d="M 131.12 107.239375 
" style="fill:none;stroke:#000000;stroke-linecap:round;stroke-width:2;"/>
   </g>
   <g id="text_1">
    <!-- $5V$ -->
    <defs>
     <path d="M 10.796875 72.90625 
L 49.515625 72.90625 
L 49.515625 64.59375 
L 19.828125 64.59375 
L 19.828125 46.734375 
Q 21.96875 47.46875 24.109375 47.828125 
Q 26.265625 48.1875 28.421875 48.1875 
Q 40.625 48.1875 47.75 41.5 
Q 54.890625 34.8125 54.890625 23.390625 
Q 54.890625 11.625 47.5625 5.09375 
Q 40.234375 -1.421875 26.90625 -1.421875 
Q 22.3125 -1.421875 17.546875 -0.640625 
Q 12.796875 0.140625 7.71875 1.703125 
L 7.71875 11.625 
Q 12.109375 9.234375 16.796875 8.0625 
Q 21.484375 6.890625 26.703125 6.890625 
Q 35.15625 6.890625 40.078125 11.328125 
Q 45.015625 15.765625 45.015625 23.390625 
Q 45.015625 31 40.078125 35.4375 
Q 35.15625 39.890625 26.703125 39.890625 
Q 22.75 39.890625 18.8125 39.015625 
Q 14.890625 38.140625 10.796875 36.28125 
z
" id="DejaVuSans-53"/>
     <path d="M 28.609375 0 
L 0.78125 72.90625 
L 11.078125 72.90625 
L 34.1875 11.53125 
L 57.328125 72.90625 
L 67.578125 72.90625 
L 39.796875 0 
z
" id="DejaVuSans-86"/>
    </defs>
    <g transform="translate(7.2 69.2525)scale(0.14 -0.14)">
     <use transform="translate(0 0.09375)" xlink:href="#DejaVuSans-53"/>
     <use transform="translate(63.623047 0.09375)" xlink:href="#DejaVuSans-86"/>
    </g>
   </g>
   <g id="text_2">
    <!-- $t=0$ -->
    <defs>
     <path d="M 18.3125 70.21875 
L 18.3125 54.6875 
L 36.8125 54.6875 
L 36.8125 47.703125 
L 18.3125 47.703125 
L 18.3125 18.015625 
Q 18.3125 11.328125 20.140625 9.421875 
Q 21.96875 7.515625 27.59375 7.515625 
L 36.8125 7.515625 
L 36.8125 0 
L 27.59375 0 
Q 17.1875 0 13.234375 3.875 
Q 9.28125 7.765625 9.28125 18.015625 
L 9.28125 47.703125 
L 2.6875 47.703125 
L 2.6875 54.6875 
L 9.28125 54.6875 
L 9.28125 70.21875 
z
" id="DejaVuSans-116"/>
     <path d="M 10.59375 45.40625 
L 73.1875 45.40625 
L 73.1875 37.203125 
L 10.59375 37.203125 
z
M 10.59375 25.484375 
L 73.1875 25.484375 
L 73.1875 17.1875 
L 10.59375 17.1875 
z
" id="DejaVuSans-61"/>
     <path d="M 31.78125 66.40625 
Q 24.171875 66.40625 20.328125 58.90625 
Q 16.5 51.421875 16.5 36.375 
Q 16.5 21.390625 20.328125 13.890625 
Q 24.171875 6.390625 31.78125 6.390625 
Q 39.453125 6.390625 43.28125 13.890625 
Q 47.125 21.390625 47.125 36.375 
Q 47.125 51.421875 43.28125 58.90625 
Q 39.453125 66.40625 31.78125 66.40625 
z
M 31.78125 74.21875 
Q 44.046875 74.21875 50.515625 64.515625 
Q 56.984375 54.828125 56.984375 36.375 
Q 56.984375 17.96875 50.515625 8.265625 
Q 44.046875 -1.421875 31.78125 -1.421875 
Q 19.53125 -1.421875 13.0625 8.265625 
Q 6.59375 17.96875 6.59375 36.375 
Q 6.59375 54.828125 13.0625 64.515625 
Q 19.53125 74.21875 31.78125 74.21875 
z
" id="DejaVuSans-48"/>
    </defs>
    <g transform="translate(112.06 17.837812)scale(0.14 -0.14)">
     <use transform="translate(0 0.78125)" xlink:href="#DejaVuSans-116"/>
     <use transform="translate(58.691406 0.78125)" xlink:href="#DejaVuSans-61"/>
     <use transform="translate(161.962891 0.78125)" xlink:href="#DejaVuSans-48"/>
    </g>
   </g>
   <g id="text_3">
    <!-- $100\Omega$ -->
    <defs>
     <path d="M 12.40625 8.296875 
L 28.515625 8.296875 
L 28.515625 63.921875 
L 10.984375 60.40625 
L 10.984375 69.390625 
L 28.421875 72.90625 
L 38.28125 72.90625 
L 38.28125 8.296875 
L 54.390625 8.296875 
L 54.390625 0 
L 12.40625 0 
z
" id="DejaVuSans-49"/>
     <path d="M 72.609375 8.6875 
L 72.609375 0 
L 43.3125 0 
L 43.3125 8.6875 
Q 51.953125 13.421875 56.78125 21.53125 
Q 61.625 29.640625 61.625 39.5 
Q 61.625 51.21875 55.171875 58.296875 
Q 48.734375 65.375 38.1875 65.375 
Q 27.640625 65.375 21.171875 58.265625 
Q 14.703125 51.171875 14.703125 39.5 
Q 14.703125 29.640625 19.53125 21.53125 
Q 24.421875 13.421875 33.109375 8.6875 
L 33.109375 0 
L 3.8125 0 
L 3.8125 8.6875 
L 19.390625 8.6875 
Q 11.671875 15.484375 8.109375 22.75 
Q 4.59375 30.03125 4.59375 39.015625 
Q 4.59375 54.546875 13.96875 64.15625 
Q 23.296875 73.78125 38.1875 73.78125 
Q 52.984375 73.78125 62.40625 64.15625 
Q 71.78125 54.59375 71.78125 39.5 
Q 71.78125 30.03125 68.3125 22.796875 
Q 64.84375 15.578125 56.984375 8.6875 
z
" id="DejaVuSans-937"/>
    </defs>
    <g transform="translate(168.12 69.2525)scale(0.14 -0.14)">
     <use transform="translate(0 0.78125)" xlink:href="#DejaVuSans-49"/>
     <use transform="translate(63.623047 0.78125)" xlink:href="#DejaVuSans-48"/>
     <use transform="translate(127.246094 0.78125)" xlink:href="#DejaVuSans-48"/>
     <use transform="translate(190.869141 0.78125)" xlink:href="#DejaVuSans-937"/>
    </g>
   </g>
   <g id="text_4">
    <!-- + -->
    <defs>
     <path d="M 46 62.703125 
L 46 35.5 
L 73.1875 35.5 
L 73.1875 27.203125 
L 46 27.203125 
L 46 0 
L 37.796875 0 
L 37.796875 27.203125 
L 10.59375 27.203125 
L 10.59375 35.5 
L 37.796875 35.5 
L 37.796875 62.703125 
z
" id="DejaVuSans-43"/>
    </defs>
    <g transform="translate(228.32 48.3275)scale(0.14 -0.14)">
     <use xlink:href="#DejaVuSans-43"/>
    </g>
   </g>
   <g id="text_5">
    <!-- $v_o$ -->
    <defs>
     <path d="M 2.984375 54.6875 
L 12.5 54.6875 
L 29.59375 8.796875 
L 46.6875 54.6875 
L 56.203125 54.6875 
L 35.6875 0 
L 23.484375 0 
z
" id="DejaVuSans-118"/>
     <path d="M 30.609375 48.390625 
Q 23.390625 48.390625 19.1875 42.75 
Q 14.984375 37.109375 14.984375 27.296875 
Q 14.984375 17.484375 19.15625 11.84375 
Q 23.34375 6.203125 30.609375 6.203125 
Q 37.796875 6.203125 41.984375 11.859375 
Q 46.1875 17.53125 46.1875 27.296875 
Q 46.1875 37.015625 41.984375 42.703125 
Q 37.796875 48.390625 30.609375 48.390625 
z
M 30.609375 56 
Q 42.328125 56 49.015625 48.375 
Q 55.71875 40.765625 55.71875 27.296875 
Q 55.71875 13.875 49.015625 6.21875 
Q 42.328125 -1.421875 30.609375 -1.421875 
Q 18.84375 -1.421875 12.171875 6.21875 
Q 5.515625 13.875 5.515625 27.296875 
Q 5.515625 40.765625 12.171875 48.375 
Q 18.84375 56 30.609375 56 
z
" id="DejaVuSans-111"/>
    </defs>
    <g transform="translate(228.32 69.2525)scale(0.14 -0.14)">
     <use transform="translate(0 0.3125)" xlink:href="#DejaVuSans-118"/>
     <use transform="translate(60.136719 -16.09375)scale(0.7)" xlink:href="#DejaVuSans-111"/>
    </g>
   </g>
   <g id="text_6">
    <!-- $-$ -->
    <defs>
     <path d="M 10.59375 35.5 
L 73.1875 35.5 
L 73.1875 27.203125 
L 10.59375 27.203125 
z
" id="DejaVuSans-8722"/>
    </defs>
    <g transform="translate(228.32 90.1775)scale(0.14 -0.14)">
     <use transform="translate(0 0.5)" xlink:href="#DejaVuSans-8722"/>
    </g>
   </g>
   <g id="text_7">
    <!-- 1$\mu$F -->
    <defs>
     <path d="M 8.5 -20.796875 
L 8.5 54.6875 
L 17.484375 54.6875 
L 17.484375 20.703125 
Q 17.484375 13.625 20.84375 10 
Q 24.21875 6.390625 30.8125 6.390625 
Q 38.03125 6.390625 41.671875 10.484375 
Q 45.3125 14.59375 45.3125 22.796875 
L 45.3125 54.6875 
L 54.296875 54.6875 
L 54.296875 12.59375 
Q 54.296875 9.671875 55.140625 8.28125 
Q 56 6.890625 57.8125 6.890625 
Q 58.25 6.890625 59.03125 7.15625 
Q 59.8125 7.421875 61.1875 8.015625 
L 61.1875 0.78125 
Q 59.1875 -0.34375 57.390625 -0.875 
Q 55.609375 -1.421875 53.90625 -1.421875 
Q 50.53125 -1.421875 48.53125 0.484375 
Q 46.53125 2.390625 45.796875 6.296875 
Q 43.359375 2.4375 39.8125 0.5 
Q 36.28125 -1.421875 31.5 -1.421875 
Q 26.515625 -1.421875 23.015625 0.484375 
Q 19.53125 2.390625 17.484375 6.203125 
L 17.484375 -20.796875 
z
" id="DejaVuSans-956"/>
     <path d="M 9.8125 72.90625 
L 51.703125 72.90625 
L 51.703125 64.59375 
L 19.671875 64.59375 
L 19.671875 43.109375 
L 48.578125 43.109375 
L 48.578125 34.8125 
L 19.671875 34.8125 
L 19.671875 0 
L 9.8125 0 
z
" id="DejaVuSans-70"/>
    </defs>
    <g transform="translate(93.88 83.174063)scale(0.14 -0.14)">
     <use transform="translate(0 0.09375)" xlink:href="#DejaVuSans-49"/>
     <use transform="translate(63.623047 0.09375)" xlink:href="#DejaVuSans-956"/>
     <use transform="translate(127.246094 0.09375)" xlink:href="#DejaVuSans-70"/>
    </g>
   </g>
  </g>
 </g>
 <defs>
  <clipPath id="p01f7c27277">
   <rect height="99.95175" width="222.102" x="16.019" y="16.45975"/>
  </clipPath>
 </defs>
</svg>
