<?xml version="1.0" encoding="utf-8" standalone="no"?>
<!DOCTYPE svg PUBLIC "-//W3C//DTD SVG 1.1//EN"
  "http://www.w3.org/Graphics/SVG/1.1/DTD/svg11.dtd">
<!-- Created with matplotlib (http://matplotlib.org/) -->
<svg height="129.047125pt" version="1.1" viewBox="0 0 255.14 129.047125" width="255.14pt" xmlns="http://www.w3.org/2000/svg" xmlns:xlink="http://www.w3.org/1999/xlink">
 <defs>
  <style type="text/css">
*{stroke-linecap:butt;stroke-linejoin:round;}
  </style>
 </defs>
 <g id="figure_1">
  <g id="patch_1">
   <path d="M 0 129.047125 
L 255.14 129.047125 
L 255.14 0 
L 0 0 
z
" style="fill:none;"/>
  </g>
  <g id="axes_1">
   <g id="patch_2">
    <path clip-path="url(#p3582435e13)" d="M 131.958482 38.077698 
C 129.551651 37.915277 127.114338 38.169896 124.961473 38.808655 
C 122.808607 39.447413 121.037087 40.441562 119.875815 41.662644 
" style="fill:none;stroke:#000000;stroke-linejoin:miter;stroke-width:1.5;"/>
   </g>
   <g id="patch_3">
    <path clip-path="url(#p3582435e13)" d="M 140.945846 39.39561 
L 132.546938 40.245124 
L 132.96609 38.198152 
L 132.647012 38.149704 
L 132.652638 38.122228 
L 132.971716 38.170676 
L 133.390868 36.123704 
z
" style="stroke:#000000;stroke-linejoin:miter;"/>
   </g>
   <g id="line2d_1">
    <path clip-path="url(#p3582435e13)" d="M 47.92 109.175 
L 47.92 81.275 
L 47.92 81.275 
M 47.92 53.375 
L 47.92 53.375 
L 47.92 25.475 
" style="fill:none;stroke:#000000;stroke-linecap:round;stroke-width:1.5;"/>
   </g>
   <g id="line2d_2">
    <path clip-path="url(#p3582435e13)" d="M 51.16 74.3 
L 44.68 74.3 
" style="fill:none;stroke:#000000;stroke-linecap:round;stroke-width:1.5;"/>
   </g>
   <g id="line2d_3">
    <path clip-path="url(#p3582435e13)" d="M 47.92 63.14 
L 47.92 57.56 
" style="fill:none;stroke:#000000;stroke-linecap:round;stroke-width:1.5;"/>
   </g>
   <g id="line2d_4">
    <path clip-path="url(#p3582435e13)" d="M 51.16 60.35 
L 44.68 60.35 
" style="fill:none;stroke:#000000;stroke-linecap:round;stroke-width:1.5;"/>
   </g>
   <g id="line2d_5">
    <path clip-path="url(#p3582435e13)" d="M 47.92 25.475 
L 84.37 25.475 
L 120.82 25.475 
" style="fill:none;stroke:#000000;stroke-linecap:round;stroke-width:1.5;"/>
   </g>
   <g id="line2d_6">
    <path clip-path="url(#p3582435e13)" d="M 133.78 53.375 
M 130.54 46.679 
L 125.68 33.845 
M 120.82 25.475 
" style="fill:none;stroke:#000000;stroke-linecap:round;stroke-width:1.5;"/>
   </g>
   <g id="line2d_7">
    <path clip-path="url(#p3582435e13)" d="M 146.74 25.475 
L 183.19 25.475 
L 219.64 25.475 
" style="fill:none;stroke:#000000;stroke-linecap:round;stroke-width:1.5;"/>
   </g>
   <g id="line2d_8">
    <path clip-path="url(#p3582435e13)" d="M 219.64 25.475 
L 219.64 53.375 
L 227.74 55.7 
L 211.54 60.35 
L 227.74 65 
L 211.54 69.65 
L 227.74 74.3 
L 211.54 78.95 
L 219.64 81.275 
L 219.64 109.175 
" style="fill:none;stroke:#000000;stroke-linecap:round;stroke-width:1.5;"/>
   </g>
   <g id="line2d_9">
    <path clip-path="url(#p3582435e13)" d="M 219.64 109.175 
L 133.78 109.175 
L 47.92 109.175 
" style="fill:none;stroke:#000000;stroke-linecap:round;stroke-width:1.5;"/>
   </g>
   <g id="line2d_10">
    <path clip-path="url(#p3582435e13)" d="M 133.78 53.375 
L 133.78 78.764 
M 141.88 78.764 
L 125.68 78.764 
M 141.88 83.786 
L 125.68 83.786 
M 133.78 83.786 
L 133.78 109.175 
" style="fill:none;stroke:#000000;stroke-linecap:round;stroke-width:1.5;"/>
   </g>
   <g id="line2d_11">
    <path clip-path="url(#p3582435e13)" d="M 133.78 109.175 
" style="fill:none;stroke:#000000;stroke-linecap:round;stroke-width:1.5;"/>
   </g>
   <g id="patch_4">
    <path clip-path="url(#p3582435e13)" d="M 47.92 81.275 
C 52.21629 81.275 56.337194 79.80514 59.37513 77.18914 
C 62.413066 74.573139 64.12 71.024583 64.12 67.325 
C 64.12 63.625417 62.413066 60.076861 59.37513 57.46086 
C 56.337194 54.84486 52.21629 53.375 47.92 53.375 
C 43.62371 53.375 39.502806 54.84486 36.46487 57.46086 
C 33.426934 60.076861 31.72 63.625417 31.72 67.325 
C 31.72 71.024583 33.426934 74.573139 36.46487 77.18914 
C 39.502806 79.80514 43.62371 81.275 47.92 81.275 
z
" style="fill:none;stroke:#000000;stroke-linejoin:miter;stroke-width:1.5;"/>
   </g>
   <g id="patch_5">
    <path clip-path="url(#p3582435e13)" d="M 133.78 53.375 
C 134.81111 53.375 135.800127 53.022234 136.529231 52.394394 
C 137.258336 51.766553 137.668 50.9149 137.668 50.027 
C 137.668 49.1391 137.258336 48.287447 136.529231 47.659606 
C 135.800127 47.031766 134.81111 46.679 133.78 46.679 
C 132.74889 46.679 131.759873 47.031766 131.030769 47.659606 
C 130.301664 48.287447 129.892 49.1391 129.892 50.027 
C 129.892 50.9149 130.301664 51.766553 131.030769 52.394394 
C 131.759873 53.022234 132.74889 53.375 133.78 53.375 
z
" style="fill:none;stroke:#000000;stroke-linejoin:miter;stroke-width:1.5;"/>
   </g>
   <g id="patch_6">
    <path clip-path="url(#p3582435e13)" d="M 146.74 32.171 
C 147.77111 32.171 148.760127 31.818234 149.489231 31.190394 
C 150.218336 30.562553 150.628 29.7109 150.628 28.823 
C 150.628 27.9351 150.218336 27.083447 149.489231 26.455606 
C 148.760127 25.827766 147.77111 25.475 146.74 25.475 
C 145.70889 25.475 144.719873 25.827766 143.990769 26.455606 
C 143.261664 27.083447 142.852 27.9351 142.852 28.823 
C 142.852 29.7109 143.261664 30.562553 143.990769 31.190394 
C 144.719873 31.818234 145.70889 32.171 146.74 32.171 
z
" style="fill:none;stroke:#000000;stroke-linejoin:miter;stroke-width:1.5;"/>
   </g>
   <g id="patch_7">
    <path clip-path="url(#p3582435e13)" d="M 120.82 32.171 
C 121.85111 32.171 122.840127 31.818234 123.569231 31.190394 
C 124.298336 30.562553 124.708 29.7109 124.708 28.823 
C 124.708 27.9351 124.298336 27.083447 123.569231 26.455606 
C 122.840127 25.827766 121.85111 25.475 120.82 25.475 
C 119.78889 25.475 118.799873 25.827766 118.070769 26.455606 
C 117.341664 27.083447 116.932 27.9351 116.932 28.823 
C 116.932 29.7109 117.341664 30.562553 118.070769 31.190394 
C 118.799873 31.818234 119.78889 32.171 120.82 32.171 
z
" style="fill:none;stroke:#000000;stroke-linejoin:miter;stroke-width:1.5;"/>
   </g>
   <g id="patch_8">
    <path clip-path="url(#p3582435e13)" d="M 133.78 111.2675 
C 134.424444 111.2675 135.042579 111.047021 135.498269 110.654621 
C 135.95396 110.262221 136.21 109.729937 136.21 109.175 
C 136.21 108.620063 135.95396 108.087779 135.498269 107.695379 
C 135.042579 107.302979 134.424444 107.0825 133.78 107.0825 
C 133.135556 107.0825 132.517421 107.302979 132.061731 107.695379 
C 131.60604 108.087779 131.35 108.620063 131.35 109.175 
C 131.35 109.729937 131.60604 110.262221 132.061731 110.654621 
C 132.517421 111.047021 133.135556 111.2675 133.78 111.2675 
z
" style="stroke:#000000;stroke-linejoin:miter;stroke-width:1.5;"/>
   </g>
   <g id="text_1">
    <!-- $5V$ -->
    <defs>
     <path d="M 10.796875 72.90625 
L 49.515625 72.90625 
L 49.515625 64.59375 
L 19.828125 64.59375 
L 19.828125 46.734375 
Q 21.96875 47.46875 24.109375 47.828125 
Q 26.265625 48.1875 28.421875 48.1875 
Q 40.625 48.1875 47.75 41.5 
Q 54.890625 34.8125 54.890625 23.390625 
Q 54.890625 11.625 47.5625 5.09375 
Q 40.234375 -1.421875 26.90625 -1.421875 
Q 22.3125 -1.421875 17.546875 -0.640625 
Q 12.796875 0.140625 7.71875 1.703125 
L 7.71875 11.625 
Q 12.109375 9.234375 16.796875 8.0625 
Q 21.484375 6.890625 26.703125 6.890625 
Q 35.15625 6.890625 40.078125 11.328125 
Q 45.015625 15.765625 45.015625 23.390625 
Q 45.015625 31 40.078125 35.4375 
Q 35.15625 39.890625 26.703125 39.890625 
Q 22.75 39.890625 18.8125 39.015625 
Q 14.890625 38.140625 10.796875 36.28125 
z
" id="DejaVuSans-35"/>
     <path d="M 28.609375 0 
L 0.78125 72.90625 
L 11.078125 72.90625 
L 34.1875 11.53125 
L 57.328125 72.90625 
L 67.578125 72.90625 
L 39.796875 0 
z
" id="DejaVuSans-56"/>
    </defs>
    <g transform="translate(7.2 71.74)scale(0.16 -0.16)">
     <use transform="translate(0 0.09375)" xlink:href="#DejaVuSans-35"/>
     <use transform="translate(63.623047 0.09375)" xlink:href="#DejaVuSans-56"/>
    </g>
   </g>
   <g id="text_2">
    <!-- $t=0$ -->
    <defs>
     <path d="M 18.3125 70.21875 
L 18.3125 54.6875 
L 36.8125 54.6875 
L 36.8125 47.703125 
L 18.3125 47.703125 
L 18.3125 18.015625 
Q 18.3125 11.328125 20.140625 9.421875 
Q 21.96875 7.515625 27.59375 7.515625 
L 36.8125 7.515625 
L 36.8125 0 
L 27.59375 0 
Q 17.1875 0 13.234375 3.875 
Q 9.28125 7.765625 9.28125 18.015625 
L 9.28125 47.703125 
L 2.6875 47.703125 
L 2.6875 54.6875 
L 9.28125 54.6875 
L 9.28125 70.21875 
z
" id="DejaVuSans-74"/>
     <path d="M 10.59375 45.40625 
L 73.1875 45.40625 
L 73.1875 37.203125 
L 10.59375 37.203125 
z
M 10.59375 25.484375 
L 73.1875 25.484375 
L 73.1875 17.1875 
L 10.59375 17.1875 
z
" id="DejaVuSans-3d"/>
     <path d="M 31.78125 66.40625 
Q 24.171875 66.40625 20.328125 58.90625 
Q 16.5 51.421875 16.5 36.375 
Q 16.5 21.390625 20.328125 13.890625 
Q 24.171875 6.390625 31.78125 6.390625 
Q 39.453125 6.390625 43.28125 13.890625 
Q 47.125 21.390625 47.125 36.375 
Q 47.125 51.421875 43.28125 58.90625 
Q 39.453125 66.40625 31.78125 66.40625 
z
M 31.78125 74.21875 
Q 44.046875 74.21875 50.515625 64.515625 
Q 56.984375 54.828125 56.984375 36.375 
Q 56.984375 17.96875 50.515625 8.265625 
Q 44.046875 -1.421875 31.78125 -1.421875 
Q 19.53125 -1.421875 13.0625 8.265625 
Q 6.59375 17.96875 6.59375 36.375 
Q 6.59375 54.828125 13.0625 64.515625 
Q 19.53125 74.21875 31.78125 74.21875 
z
" id="DejaVuSans-30"/>
    </defs>
    <g transform="translate(112.46 19.3575)scale(0.16 -0.16)">
     <use transform="translate(0 0.78125)" xlink:href="#DejaVuSans-74"/>
     <use transform="translate(58.691406 0.78125)" xlink:href="#DejaVuSans-3d"/>
     <use transform="translate(161.962891 0.78125)" xlink:href="#DejaVuSans-30"/>
    </g>
   </g>
   <g id="text_3">
    <!-- $100\Omega$ -->
    <defs>
     <path d="M 12.40625 8.296875 
L 28.515625 8.296875 
L 28.515625 63.921875 
L 10.984375 60.40625 
L 10.984375 69.390625 
L 28.421875 72.90625 
L 38.28125 72.90625 
L 38.28125 8.296875 
L 54.390625 8.296875 
L 54.390625 0 
L 12.40625 0 
z
" id="DejaVuSans-31"/>
     <path d="M 72.609375 8.6875 
L 72.609375 0 
L 43.3125 0 
L 43.3125 8.6875 
Q 51.953125 13.421875 56.78125 21.53125 
Q 61.625 29.640625 61.625 39.5 
Q 61.625 51.21875 55.171875 58.296875 
Q 48.734375 65.375 38.1875 65.375 
Q 27.640625 65.375 21.171875 58.265625 
Q 14.703125 51.171875 14.703125 39.5 
Q 14.703125 29.640625 19.53125 21.53125 
Q 24.421875 13.421875 33.109375 8.6875 
L 33.109375 0 
L 3.8125 0 
L 3.8125 8.6875 
L 19.390625 8.6875 
Q 11.671875 15.484375 8.109375 22.75 
Q 4.59375 30.03125 4.59375 39.015625 
Q 4.59375 54.546875 13.96875 64.15625 
Q 23.296875 73.78125 38.1875 73.78125 
Q 52.984375 73.78125 62.40625 64.15625 
Q 71.78125 54.59375 71.78125 39.5 
Q 71.78125 30.03125 68.3125 22.796875 
Q 64.84375 15.578125 56.984375 8.6875 
z
" id="DejaVuSans-3a9"/>
    </defs>
    <g transform="translate(165.42 71.74)scale(0.16 -0.16)">
     <use transform="translate(0 0.78125)" xlink:href="#DejaVuSans-31"/>
     <use transform="translate(63.623047 0.78125)" xlink:href="#DejaVuSans-30"/>
     <use transform="translate(127.246094 0.78125)" xlink:href="#DejaVuSans-30"/>
     <use transform="translate(190.869141 0.78125)" xlink:href="#DejaVuSans-3a9"/>
    </g>
   </g>
   <g id="text_4">
    <!-- + -->
    <defs>
     <path d="M 46 62.703125 
L 46 35.5 
L 73.1875 35.5 
L 73.1875 27.203125 
L 46 27.203125 
L 46 0 
L 37.796875 0 
L 37.796875 27.203125 
L 10.59375 27.203125 
L 10.59375 35.5 
L 37.796875 35.5 
L 37.796875 62.703125 
z
" id="DejaVuSans-2b"/>
    </defs>
    <g transform="translate(230.98 50.815)scale(0.16 -0.16)">
     <use xlink:href="#DejaVuSans-2b"/>
    </g>
   </g>
   <g id="text_5">
    <!-- $v_o$ -->
    <defs>
     <path d="M 2.984375 54.6875 
L 12.5 54.6875 
L 29.59375 8.796875 
L 46.6875 54.6875 
L 56.203125 54.6875 
L 35.6875 0 
L 23.484375 0 
z
" id="DejaVuSans-76"/>
     <path d="M 30.609375 48.390625 
Q 23.390625 48.390625 19.1875 42.75 
Q 14.984375 37.109375 14.984375 27.296875 
Q 14.984375 17.484375 19.15625 11.84375 
Q 23.34375 6.203125 30.609375 6.203125 
Q 37.796875 6.203125 41.984375 11.859375 
Q 46.1875 17.53125 46.1875 27.296875 
Q 46.1875 37.015625 41.984375 42.703125 
Q 37.796875 48.390625 30.609375 48.390625 
z
M 30.609375 56 
Q 42.328125 56 49.015625 48.375 
Q 55.71875 40.765625 55.71875 27.296875 
Q 55.71875 13.875 49.015625 6.21875 
Q 42.328125 -1.421875 30.609375 -1.421875 
Q 18.84375 -1.421875 12.171875 6.21875 
Q 5.515625 13.875 5.515625 27.296875 
Q 5.515625 40.765625 12.171875 48.375 
Q 18.84375 56 30.609375 56 
z
" id="DejaVuSans-6f"/>
    </defs>
    <g transform="translate(230.98 71.74)scale(0.16 -0.16)">
     <use transform="translate(0 0.3125)" xlink:href="#DejaVuSans-76"/>
     <use transform="translate(60.136719 -16.09375)scale(0.7)" xlink:href="#DejaVuSans-6f"/>
    </g>
   </g>
   <g id="text_6">
    <!-- $-$ -->
    <defs>
     <path d="M 10.59375 35.5 
L 73.1875 35.5 
L 73.1875 27.203125 
L 10.59375 27.203125 
z
" id="DejaVuSans-2212"/>
    </defs>
    <g transform="translate(230.98 92.665)scale(0.16 -0.16)">
     <use transform="translate(0 0.5)" xlink:href="#DejaVuSans-2212"/>
    </g>
   </g>
   <g id="text_7">
    <!-- 1$\mu$F -->
    <defs>
     <path d="M 8.5 -20.796875 
L 8.5 54.6875 
L 17.484375 54.6875 
L 17.484375 20.703125 
Q 17.484375 13.625 20.84375 10 
Q 24.21875 6.390625 30.8125 6.390625 
Q 38.03125 6.390625 41.671875 10.484375 
Q 45.3125 14.59375 45.3125 22.796875 
L 45.3125 54.6875 
L 54.296875 54.6875 
L 54.296875 12.59375 
Q 54.296875 9.671875 55.140625 8.28125 
Q 56 6.890625 57.8125 6.890625 
Q 58.25 6.890625 59.03125 7.15625 
Q 59.8125 7.421875 61.1875 8.015625 
L 61.1875 0.78125 
Q 59.1875 -0.34375 57.390625 -0.875 
Q 55.609375 -1.421875 53.90625 -1.421875 
Q 50.53125 -1.421875 48.53125 0.484375 
Q 46.53125 2.390625 45.796875 6.296875 
Q 43.359375 2.4375 39.8125 0.5 
Q 36.28125 -1.421875 31.5 -1.421875 
Q 26.515625 -1.421875 23.015625 0.484375 
Q 19.53125 2.390625 17.484375 6.203125 
L 17.484375 -20.796875 
z
" id="DejaVuSans-3bc"/>
     <path d="M 9.8125 72.90625 
L 51.703125 72.90625 
L 51.703125 64.59375 
L 19.671875 64.59375 
L 19.671875 43.109375 
L 48.578125 43.109375 
L 48.578125 34.8125 
L 19.671875 34.8125 
L 19.671875 0 
L 9.8125 0 
z
" id="DejaVuSans-46"/>
    </defs>
    <g transform="translate(92.84 85.6575)scale(0.16 -0.16)">
     <use transform="translate(0 0.09375)" xlink:href="#DejaVuSans-31"/>
     <use transform="translate(63.623047 0.09375)" xlink:href="#DejaVuSans-3bc"/>
     <use transform="translate(127.246094 0.09375)" xlink:href="#DejaVuSans-46"/>
    </g>
   </g>
  </g>
 </g>
 <defs>
  <clipPath id="p3582435e13">
   <rect height="99.95175" width="222.102" x="18.679" y="18.395375"/>
  </clipPath>
 </defs>
</svg>
