<?xml version="1.0" encoding="utf-8" standalone="no"?>
<!DOCTYPE svg PUBLIC "-//W3C//DTD SVG 1.1//EN"
  "http://www.w3.org/Graphics/SVG/1.1/DTD/svg11.dtd">
<!-- Created with matplotlib (http://matplotlib.org/) -->
<svg height="130pt" version="1.1" viewBox="0 0 257 130" width="257pt" xmlns="http://www.w3.org/2000/svg" xmlns:xlink="http://www.w3.org/1999/xlink">
 <defs>
  <style type="text/css">
*{stroke-linecap:butt;stroke-linejoin:round;}
  </style>
 </defs>
 <g id="figure_1">
  <g id="patch_1">
   <path d="
M0 130.1
L257.54 130.1
L257.54 0
L0 0
L0 130.1" style="fill:none;"/>
  </g>
  <g id="axes_1">
   <g id="patch_2">
    <path clip-path="url(#p5fc7c32c42)" d="
M132.65 39.6312
C129.837 39.319 126.938 39.6409 124.465 40.5399
C121.992 41.439 120.099 42.8589 119.123 44.5485" style="fill:none;stroke:#000000;stroke-linejoin:miter;stroke-width:1.5;"/>
   </g>
   <g id="patch_3">
    <path clip-path="url(#p5fc7c32c42)" d="
M140.946 41.0128
L132.547 41.9445
L132.966 39.6994
L132.647 39.6463
L132.653 39.6162
L132.972 39.6693
L133.391 37.4242
z
" style="stroke:#000000;stroke-linejoin:miter;"/>
   </g>
   <g id="line2d_1">
    <path clip-path="url(#p5fc7c32c42)" d="
M47.92 117.545
L47.92 86.945
L47.92 86.945
M47.92 56.345
L47.92 56.345
L47.92 25.745" style="fill:none;stroke:#000000;stroke-linecap:round;stroke-width:1.5;"/>
   </g>
   <g id="line2d_2">
    <path clip-path="url(#p5fc7c32c42)" d="
M51.16 79.295
L44.68 79.295" style="fill:none;stroke:#000000;stroke-linecap:round;stroke-width:1.5;"/>
   </g>
   <g id="line2d_3">
    <path clip-path="url(#p5fc7c32c42)" d="
M47.92 67.055
L47.92 60.935" style="fill:none;stroke:#000000;stroke-linecap:round;stroke-width:1.5;"/>
   </g>
   <g id="line2d_4">
    <path clip-path="url(#p5fc7c32c42)" d="
M51.16 63.995
L44.68 63.995" style="fill:none;stroke:#000000;stroke-linecap:round;stroke-width:1.5;"/>
   </g>
   <g id="line2d_5">
    <path clip-path="url(#p5fc7c32c42)" d="
M47.92 25.745
L84.37 25.745
L120.82 25.745" style="fill:none;stroke:#000000;stroke-linecap:round;stroke-width:1.5;"/>
   </g>
   <g id="line2d_6">
    <path clip-path="url(#p5fc7c32c42)" d="
M133.78 56.345
M130.54 49.001
L125.68 34.925
M120.82 25.745" style="fill:none;stroke:#000000;stroke-linecap:round;stroke-width:1.5;"/>
   </g>
   <g id="line2d_7">
    <path clip-path="url(#p5fc7c32c42)" d="
M146.74 25.745
L183.19 25.745
L219.64 25.745" style="fill:none;stroke:#000000;stroke-linecap:round;stroke-width:1.5;"/>
   </g>
   <g id="line2d_8">
    <path clip-path="url(#p5fc7c32c42)" d="
M219.64 25.745
L219.64 56.345
L227.74 58.895
L211.54 63.995
L227.74 69.095
L211.54 74.195
L227.74 79.295
L211.54 84.395
L219.64 86.945
L219.64 117.545" style="fill:none;stroke:#000000;stroke-linecap:round;stroke-width:1.5;"/>
   </g>
   <g id="line2d_9">
    <path clip-path="url(#p5fc7c32c42)" d="
M219.64 117.545
L133.78 117.545
L47.92 117.545" style="fill:none;stroke:#000000;stroke-linecap:round;stroke-width:1.5;"/>
   </g>
   <g id="line2d_10">
    <path clip-path="url(#p5fc7c32c42)" d="
M133.78 56.345
L133.78 84.191
M141.88 84.191
L125.68 84.191
M141.88 89.699
L125.68 89.699
M133.78 89.699
L133.78 117.545" style="fill:none;stroke:#000000;stroke-linecap:round;stroke-width:1.5;"/>
   </g>
   <g id="line2d_11">
    <path clip-path="url(#p5fc7c32c42)" d="
M133.78 117.545" style="fill:none;stroke:#000000;stroke-linecap:round;stroke-width:1.5;"/>
   </g>
   <g id="patch_4">
    <path clip-path="url(#p5fc7c32c42)" d="
M47.92 86.945
C52.2163 86.945 56.3372 85.3329 59.3751 82.4637
C62.4131 79.5946 64.12 75.7026 64.12 71.645
C64.12 67.5874 62.4131 63.6954 59.3751 60.8263
C56.3372 57.9571 52.2163 56.345 47.92 56.345
C43.6237 56.345 39.5028 57.9571 36.4649 60.8263
C33.4269 63.6954 31.72 67.5874 31.72 71.645
C31.72 75.7026 33.4269 79.5946 36.4649 82.4637
C39.5028 85.3329 43.6237 86.945 47.92 86.945
L47.92 86.945" style="fill:none;stroke:#000000;stroke-linejoin:miter;stroke-width:1.5;"/>
   </g>
   <g id="patch_5">
    <path clip-path="url(#p5fc7c32c42)" d="
M133.78 56.345
C134.811 56.345 135.8 55.9581 136.529 55.2695
C137.258 54.5809 137.668 53.6468 137.668 52.673
C137.668 51.6992 137.258 50.7651 136.529 50.0765
C135.8 49.3879 134.811 49.001 133.78 49.001
C132.749 49.001 131.76 49.3879 131.031 50.0765
C130.302 50.7651 129.892 51.6992 129.892 52.673
C129.892 53.6468 130.302 54.5809 131.031 55.2695
C131.76 55.9581 132.749 56.345 133.78 56.345
L133.78 56.345" style="fill:none;stroke:#000000;stroke-linejoin:miter;stroke-width:1.5;"/>
   </g>
   <g id="patch_6">
    <path clip-path="url(#p5fc7c32c42)" d="
M146.74 33.089
C147.771 33.089 148.76 32.7021 149.489 32.0135
C150.218 31.3249 150.628 30.3908 150.628 29.417
C150.628 28.4432 150.218 27.5091 149.489 26.8205
C148.76 26.1319 147.771 25.745 146.74 25.745
C145.709 25.745 144.72 26.1319 143.991 26.8205
C143.262 27.5091 142.852 28.4432 142.852 29.417
C142.852 30.3908 143.262 31.3249 143.991 32.0135
C144.72 32.7021 145.709 33.089 146.74 33.089
L146.74 33.089" style="fill:none;stroke:#000000;stroke-linejoin:miter;stroke-width:1.5;"/>
   </g>
   <g id="patch_7">
    <path clip-path="url(#p5fc7c32c42)" d="
M120.82 33.089
C121.851 33.089 122.84 32.7021 123.569 32.0135
C124.298 31.3249 124.708 30.3908 124.708 29.417
C124.708 28.4432 124.298 27.5091 123.569 26.8205
C122.84 26.1319 121.851 25.745 120.82 25.745
C119.789 25.745 118.8 26.1319 118.071 26.8205
C117.342 27.5091 116.932 28.4432 116.932 29.417
C116.932 30.3908 117.342 31.3249 118.071 32.0135
C118.8 32.7021 119.789 33.089 120.82 33.089
L120.82 33.089" style="fill:none;stroke:#000000;stroke-linejoin:miter;stroke-width:1.5;"/>
   </g>
   <g id="patch_8">
    <path clip-path="url(#p5fc7c32c42)" d="
M133.78 119.84
C134.424 119.84 135.043 119.598 135.498 119.168
C135.954 118.737 136.21 118.154 136.21 117.545
C136.21 116.936 135.954 116.353 135.498 115.922
C135.043 115.492 134.424 115.25 133.78 115.25
C133.136 115.25 132.517 115.492 132.062 115.922
C131.606 116.353 131.35 116.936 131.35 117.545
C131.35 118.154 131.606 118.737 132.062 119.168
C132.517 119.598 133.136 119.84 133.78 119.84
z
" style="stroke:#000000;stroke-linejoin:miter;stroke-width:1.5;"/>
   </g>
   <g id="text_1">
    <!-- $5V$ -->
    <defs>
     <path d="
M28.6094 0
L0.78125 72.9062
L11.0781 72.9062
L34.1875 11.5312
L57.3281 72.9062
L67.5781 72.9062
L39.7969 0
z
" id="BitstreamVeraSans-Roman-56"/>
     <path d="
M10.7969 72.9062
L49.5156 72.9062
L49.5156 64.5938
L19.8281 64.5938
L19.8281 46.7344
Q21.9688 47.4688 24.1094 47.8281
Q26.2656 48.1875 28.4219 48.1875
Q40.625 48.1875 47.75 41.5
Q54.8906 34.8125 54.8906 23.3906
Q54.8906 11.625 47.5625 5.09375
Q40.2344 -1.42188 26.9062 -1.42188
Q22.3125 -1.42188 17.5469 -0.640625
Q12.7969 0.140625 7.71875 1.70312
L7.71875 11.625
Q12.1094 9.23438 16.7969 8.0625
Q21.4844 6.89062 26.7031 6.89062
Q35.1562 6.89062 40.0781 11.3281
Q45.0156 15.7656 45.0156 23.3906
Q45.0156 31 40.0781 35.4375
Q35.1562 39.8906 26.7031 39.8906
Q22.75 39.8906 18.8125 39.0156
Q14.8906 38.1406 10.7969 36.2812
z
" id="BitstreamVeraSans-Roman-35"/>
    </defs>
    <g transform="translate(7.2 76.06)scale(0.16 -0.16)">
     <use transform="translate(0.0 0.09375)" xlink:href="#BitstreamVeraSans-Roman-35"/>
     <use transform="translate(63.623046875 0.09375)" xlink:href="#BitstreamVeraSans-Roman-56"/>
    </g>
   </g>
   <g id="text_2">
    <!-- $t=0$ -->
    <defs>
     <path d="
M10.5938 45.4062
L73.1875 45.4062
L73.1875 37.2031
L10.5938 37.2031
z

M10.5938 25.4844
L73.1875 25.4844
L73.1875 17.1875
L10.5938 17.1875
z
" id="BitstreamVeraSans-Roman-3d"/>
     <path d="
M31.7812 66.4062
Q24.1719 66.4062 20.3281 58.9062
Q16.5 51.4219 16.5 36.375
Q16.5 21.3906 20.3281 13.8906
Q24.1719 6.39062 31.7812 6.39062
Q39.4531 6.39062 43.2812 13.8906
Q47.125 21.3906 47.125 36.375
Q47.125 51.4219 43.2812 58.9062
Q39.4531 66.4062 31.7812 66.4062
M31.7812 74.2188
Q44.0469 74.2188 50.5156 64.5156
Q56.9844 54.8281 56.9844 36.375
Q56.9844 17.9688 50.5156 8.26562
Q44.0469 -1.42188 31.7812 -1.42188
Q19.5312 -1.42188 13.0625 8.26562
Q6.59375 17.9688 6.59375 36.375
Q6.59375 54.8281 13.0625 64.5156
Q19.5312 74.2188 31.7812 74.2188" id="BitstreamVeraSans-Roman-30"/>
     <path d="
M18.3125 70.2188
L18.3125 54.6875
L36.8125 54.6875
L36.8125 47.7031
L18.3125 47.7031
L18.3125 18.0156
Q18.3125 11.3281 20.1406 9.42188
Q21.9688 7.51562 27.5938 7.51562
L36.8125 7.51562
L36.8125 0
L27.5938 0
Q17.1875 0 13.2344 3.875
Q9.28125 7.76562 9.28125 18.0156
L9.28125 47.7031
L2.6875 47.7031
L2.6875 54.6875
L9.28125 54.6875
L9.28125 70.2188
z
" id="BitstreamVeraSans-Roman-74"/>
    </defs>
    <g transform="translate(114.14 19.3575)scale(0.16 -0.16)">
     <use transform="translate(0.0 0.78125)" xlink:href="#BitstreamVeraSans-Roman-74"/>
     <use transform="translate(58.69140625 0.78125)" xlink:href="#BitstreamVeraSans-Roman-3d"/>
     <use transform="translate(140.767578125 0.78125)" xlink:href="#BitstreamVeraSans-Roman-30"/>
    </g>
   </g>
   <g id="text_3">
    <!-- $100\Omega$ -->
    <defs>
     <path d="
M72.6094 8.6875
L72.6094 0
L43.3125 0
L43.3125 8.6875
Q51.9531 13.4219 56.7812 21.5312
Q61.625 29.6406 61.625 39.5
Q61.625 51.2188 55.1719 58.2969
Q48.7344 65.375 38.1875 65.375
Q27.6406 65.375 21.1719 58.2656
Q14.7031 51.1719 14.7031 39.5
Q14.7031 29.6406 19.5625 21.5312
Q24.4219 13.4219 33.1094 8.6875
L33.1094 0
L3.8125 0
L3.8125 8.6875
L19.3906 8.6875
Q11.6719 15.4844 8.125 22.75
Q4.59375 30.0312 4.59375 39.0156
Q4.59375 54.5469 13.9375 64.1562
Q23.2969 73.7812 38.1875 73.7812
Q52.9844 73.7812 62.375 64.1875
Q71.7812 54.5938 71.7812 39.5
Q71.7812 30.0312 68.3125 22.7969
Q64.8438 15.5781 56.9844 8.6875
z
" id="BitstreamVeraSans-Roman-3a9"/>
     <path d="
M12.4062 8.29688
L28.5156 8.29688
L28.5156 63.9219
L10.9844 60.4062
L10.9844 69.3906
L28.4219 72.9062
L38.2812 72.9062
L38.2812 8.29688
L54.3906 8.29688
L54.3906 0
L12.4062 0
z
" id="BitstreamVeraSans-Roman-31"/>
    </defs>
    <g transform="translate(165.42 76.06)scale(0.16 -0.16)">
     <use transform="translate(0.0 0.78125)" xlink:href="#BitstreamVeraSans-Roman-31"/>
     <use transform="translate(63.623046875 0.78125)" xlink:href="#BitstreamVeraSans-Roman-30"/>
     <use transform="translate(127.24609375 0.78125)" xlink:href="#BitstreamVeraSans-Roman-30"/>
     <use transform="translate(190.869140625 0.78125)" xlink:href="#BitstreamVeraSans-Roman-3a9"/>
    </g>
   </g>
   <g id="text_4">
    <!-- + -->
    <defs>
     <path d="
M46 62.7031
L46 35.5
L73.1875 35.5
L73.1875 27.2031
L46 27.2031
L46 0
L37.7969 0
L37.7969 27.2031
L10.5938 27.2031
L10.5938 35.5
L37.7969 35.5
L37.7969 62.7031
z
" id="BitstreamVeraSans-Roman-2b"/>
    </defs>
    <g transform="translate(230.98 53.11)scale(0.16 -0.16)">
     <use xlink:href="#BitstreamVeraSans-Roman-2b"/>
    </g>
   </g>
   <g id="text_5">
    <!-- $v_o$ -->
    <defs>
     <path d="
M30.6094 48.3906
Q23.3906 48.3906 19.1875 42.75
Q14.9844 37.1094 14.9844 27.2969
Q14.9844 17.4844 19.1562 11.8438
Q23.3438 6.20312 30.6094 6.20312
Q37.7969 6.20312 41.9844 11.8594
Q46.1875 17.5312 46.1875 27.2969
Q46.1875 37.0156 41.9844 42.7031
Q37.7969 48.3906 30.6094 48.3906
M30.6094 56
Q42.3281 56 49.0156 48.375
Q55.7188 40.7656 55.7188 27.2969
Q55.7188 13.875 49.0156 6.21875
Q42.3281 -1.42188 30.6094 -1.42188
Q18.8438 -1.42188 12.1719 6.21875
Q5.51562 13.875 5.51562 27.2969
Q5.51562 40.7656 12.1719 48.375
Q18.8438 56 30.6094 56" id="BitstreamVeraSans-Roman-6f"/>
     <path d="
M2.98438 54.6875
L12.5 54.6875
L29.5938 8.79688
L46.6875 54.6875
L56.2031 54.6875
L35.6875 0
L23.4844 0
z
" id="BitstreamVeraSans-Roman-76"/>
    </defs>
    <g transform="translate(230.98 74.1075)scale(0.16 -0.16)">
     <use transform="translate(0.0 0.3125)" xlink:href="#BitstreamVeraSans-Roman-76"/>
     <use transform="translate(59.1796875 -31.1875)scale(0.7)" xlink:href="#BitstreamVeraSans-Roman-6f"/>
    </g>
   </g>
   <g id="text_6">
    <!-- $-$ -->
    <defs>
     <path d="
M10.5938 35.5
L73.1875 35.5
L73.1875 27.2031
L10.5938 27.2031
z
" id="BitstreamVeraSans-Roman-2212"/>
    </defs>
    <g transform="translate(230.98 99.01)scale(0.16 -0.16)">
     <use transform="translate(0.0 0.5)" xlink:href="#BitstreamVeraSans-Roman-2212"/>
    </g>
   </g>
   <g id="text_7">
    <!-- 1$\mu$F -->
    <defs>
     <path d="
M48.2031 4.70312
L45.9062 -1
Q36.5 -1 35.0938 6.40625
L21.9062 -1
Q16.2969 -1 13.7969 1.5
L13.7969 -12.5938
Q13.7969 -17.7969 12.2031 -21.5
L4.40625 -21.5
Q6.29688 -17.2031 6.29688 -12.7031
L6.29688 45.2969
L14.2031 45.2969
L14.2031 14.9062
Q14.2031 6.09375 22.4062 6.09375
Q25.2031 6.09375 29.0938 9.04688
Q33 12 34.5 16.0938
L34.5 45.2969
L42.4062 45.2969
L42.4062 12.7969
Q42.4062 9.59375 43.5469 7.84375
Q44.7031 6.09375 48.2031 6.09375
z
" id="STIXNonUnicode-Regular-e1a1"/>
     <path d="
M9.8125 72.9062
L51.7031 72.9062
L51.7031 64.5938
L19.6719 64.5938
L19.6719 43.1094
L48.5781 43.1094
L48.5781 34.8125
L19.6719 34.8125
L19.6719 0
L9.8125 0
z
" id="BitstreamVeraSans-Roman-46"/>
    </defs>
    <g transform="translate(95.24 91.1675)scale(0.16 -0.16)">
     <use transform="translate(0.0 0.09375)" xlink:href="#BitstreamVeraSans-Roman-31"/>
     <use transform="translate(63.623046875 0.09375)" xlink:href="#STIXNonUnicode-Regular-e1a1"/>
     <use transform="translate(112.32304382324219 0.09375)" xlink:href="#BitstreamVeraSans-Roman-46"/>
    </g>
   </g>
  </g>
 </g>
 <defs>
  <clipPath id="p5fc7c32c42">
   <rect height="100.215" width="202.5" x="28.48" y="22.685"/>
  </clipPath>
 </defs>
</svg>
