<?xml version="1.0" encoding="utf-8" standalone="no"?>
<!DOCTYPE svg PUBLIC "-//W3C//DTD SVG 1.1//EN"
  "http://www.w3.org/Graphics/SVG/1.1/DTD/svg11.dtd">
<!-- Created with matplotlib (https://matplotlib.org/) -->
<svg height="61.412pt" version="1.1" viewBox="0 0 134.928 61.412" width="134.928pt" xmlns="http://www.w3.org/2000/svg" xmlns:xlink="http://www.w3.org/1999/xlink">
 <defs>
  <style type="text/css">
*{stroke-linecap:butt;stroke-linejoin:round;}
  </style>
 </defs>
 <g id="figure_1">
  <g id="patch_1">
   <path d="M 0 61.412 
L 134.928 61.412 
L 134.928 0 
L 0 0 
z
" style="fill:none;"/>
  </g>
  <g id="axes_1">
   <g id="patch_2">
    <path clip-path="url(#p8dcd448e77)" d="M 39.924 42.215 
C 39.924 41.115862 39.798287 40.027411 39.554055 39.01194 
C 39.309822 37.996468 38.951821 37.073724 38.500539 36.296516 
C 38.049257 35.519308 37.51347 34.90275 36.923841 34.482128 
C 36.334213 34.061506 35.702209 33.845 35.064 33.845 
C 34.425791 33.845 33.793787 34.061506 33.204159 34.482128 
C 32.61453 34.90275 32.078743 35.519308 31.627461 36.296516 
C 31.176179 37.073724 30.818178 37.996468 30.573945 39.01194 
C 30.329713 40.027411 30.204 41.115862 30.204 42.215 
C 30.204 43.314138 30.329713 44.402589 30.573945 45.41806 
C 30.818178 46.433532 31.176179 47.356276 31.627461 48.133484 
C 32.078743 48.910692 32.61453 49.52725 33.204159 49.947872 
C 33.793787 50.368494 34.425791 50.585 35.064 50.585 
C 35.702209 50.585 36.334213 50.368494 36.923841 49.947872 
C 37.51347 49.52725 38.049257 48.910692 38.500539 48.133484 
C 38.951821 47.356276 39.309822 46.433532 39.554055 45.41806 
C 39.798287 44.402589 39.924 43.314138 39.924 42.215 
" style="fill:none;stroke:#000000;stroke-linejoin:miter;stroke-width:1.5;"/>
   </g>
   <g id="patch_3">
    <path clip-path="url(#p8dcd448e77)" d="M 99.864 50.585 
C 100.502209 50.585 101.134213 50.368494 101.723841 49.947872 
C 102.31347 49.52725 102.849257 48.910692 103.300539 48.133484 
C 103.751821 47.356276 104.109822 46.433532 104.354055 45.41806 
C 104.598287 44.402589 104.724 43.314138 104.724 42.215 
C 104.724 41.115862 104.598287 40.027411 104.354055 39.01194 
C 104.109822 37.996468 103.751821 37.073724 103.300539 36.296516 
C 102.849257 35.519308 102.31347 34.90275 101.723841 34.482128 
C 101.134213 34.061506 100.502209 33.845 99.864 33.845 
" style="fill:none;stroke:#000000;stroke-linejoin:miter;stroke-width:1.5;"/>
   </g>
   <g id="line2d_1">
    <path clip-path="url(#p8dcd448e77)" d="M 104.724 42.215 
L 119.304 42.215 
" style="fill:none;stroke:#000000;stroke-linecap:round;stroke-width:1.5;"/>
   </g>
   <g id="line2d_2">
    <path clip-path="url(#p8dcd448e77)" d="M 15.624 42.215 
L 35.064 42.215 
" style="fill:none;stroke:#000000;stroke-linecap:round;stroke-width:1.5;"/>
   </g>
   <g id="line2d_3">
    <path clip-path="url(#p8dcd448e77)" d="M 35.064 33.845 
L 99.864 33.845 
" style="fill:none;stroke:#000000;stroke-linecap:round;stroke-width:1.5;"/>
   </g>
   <g id="line2d_4">
    <path clip-path="url(#p8dcd448e77)" d="M 35.064 50.585 
L 99.864 50.585 
" style="fill:none;stroke:#000000;stroke-linecap:round;stroke-width:1.5;"/>
   </g>
   <g id="text_1">
    <!-- $Z_o$ -->
    <defs>
     <path d="M 5.609375 72.90625 
L 62.890625 72.90625 
L 62.890625 65.375 
L 16.796875 8.296875 
L 64.015625 8.296875 
L 64.015625 0 
L 4.5 0 
L 4.5 7.515625 
L 50.59375 64.59375 
L 5.609375 64.59375 
z
" id="DejaVuSans-90"/>
     <path d="M 30.609375 48.390625 
Q 23.390625 48.390625 19.1875 42.75 
Q 14.984375 37.109375 14.984375 27.296875 
Q 14.984375 17.484375 19.15625 11.84375 
Q 23.34375 6.203125 30.609375 6.203125 
Q 37.796875 6.203125 41.984375 11.859375 
Q 46.1875 17.53125 46.1875 27.296875 
Q 46.1875 37.015625 41.984375 42.703125 
Q 37.796875 48.390625 30.609375 48.390625 
z
M 30.609375 56 
Q 42.328125 56 49.015625 48.375 
Q 55.71875 40.765625 55.71875 27.296875 
Q 55.71875 13.875 49.015625 6.21875 
Q 42.328125 -1.421875 30.609375 -1.421875 
Q 18.84375 -1.421875 12.171875 6.21875 
Q 5.515625 13.875 5.515625 27.296875 
Q 5.515625 40.765625 12.171875 48.375 
Q 18.84375 56 30.609375 56 
z
" id="DejaVuSans-111"/>
    </defs>
    <g transform="translate(58.184 19.3575)scale(0.16 -0.16)">
     <use transform="translate(0 0.09375)" xlink:href="#DejaVuSans-90"/>
     <use transform="translate(69.462891 -16.3125)scale(0.7)" xlink:href="#DejaVuSans-111"/>
    </g>
   </g>
  </g>
 </g>
 <defs>
  <clipPath id="p8dcd448e77">
   <rect height="23.994" width="120.528" x="7.2" y="30.218"/>
  </clipPath>
 </defs>
</svg>
