<?xml version="1.0" encoding="utf-8" standalone="no"?>
<!DOCTYPE svg PUBLIC "-//W3C//DTD SVG 1.1//EN"
  "http://www.w3.org/Graphics/SVG/1.1/DTD/svg11.dtd">
<!-- Created with matplotlib (https://matplotlib.org/) -->
<svg height="72.397625pt" version="1.1" viewBox="0 0 140.274 72.397625" width="140.274pt" xmlns="http://www.w3.org/2000/svg" xmlns:xlink="http://www.w3.org/1999/xlink">
 <defs>
  <style type="text/css">
*{stroke-linecap:butt;stroke-linejoin:round;}
  </style>
 </defs>
 <g id="figure_1">
  <g id="patch_1">
   <path d="M 0 72.397625 
L 140.274 72.397625 
L 140.274 0 
L 0 0 
z
" style="fill:none;"/>
  </g>
  <g id="axes_1">
   <g id="patch_2">
    <path clip-path="url(#p93f8bad64d)" d="M 18.297 44.3075 
C 18.941444 44.3075 19.559579 44.087021 20.015269 43.694621 
C 20.47096 43.302221 20.727 42.769937 20.727 42.215 
C 20.727 41.660063 20.47096 41.127779 20.015269 40.735379 
C 19.559579 40.342979 18.941444 40.1225 18.297 40.1225 
C 17.652556 40.1225 17.034421 40.342979 16.578731 40.735379 
C 16.12304 41.127779 15.867 41.660063 15.867 42.215 
C 15.867 42.769937 16.12304 43.302221 16.578731 43.694621 
C 17.034421 44.087021 17.652556 44.3075 18.297 44.3075 
z
" style="fill:#ffffff;stroke:#000000;stroke-linejoin:miter;stroke-width:1.5;"/>
   </g>
   <g id="patch_3">
    <path clip-path="url(#p93f8bad64d)" d="M 121.977 44.3075 
C 122.621444 44.3075 123.239579 44.087021 123.695269 43.694621 
C 124.15096 43.302221 124.407 42.769937 124.407 42.215 
C 124.407 41.660063 124.15096 41.127779 123.695269 40.735379 
C 123.239579 40.342979 122.621444 40.1225 121.977 40.1225 
C 121.332556 40.1225 120.714421 40.342979 120.258731 40.735379 
C 119.80304 41.127779 119.547 41.660063 119.547 42.215 
C 119.547 42.769937 119.80304 43.302221 120.258731 43.694621 
C 120.714421 44.087021 121.332556 44.3075 121.977 44.3075 
z
" style="fill:#ffffff;stroke:#000000;stroke-linejoin:miter;stroke-width:1.5;"/>
   </g>
   <g id="patch_4">
    <path clip-path="url(#p93f8bad64d)" d="M 18.297 61.0475 
C 18.941444 61.0475 19.559579 60.827021 20.015269 60.434621 
C 20.47096 60.042221 20.727 59.509937 20.727 58.955 
C 20.727 58.400063 20.47096 57.867779 20.015269 57.475379 
C 19.559579 57.082979 18.941444 56.8625 18.297 56.8625 
C 17.652556 56.8625 17.034421 57.082979 16.578731 57.475379 
C 16.12304 57.867779 15.867 58.400063 15.867 58.955 
C 15.867 59.509937 16.12304 60.042221 16.578731 60.434621 
C 17.034421 60.827021 17.652556 61.0475 18.297 61.0475 
z
" style="fill:#ffffff;stroke:#000000;stroke-linejoin:miter;stroke-width:1.5;"/>
   </g>
   <g id="patch_5">
    <path clip-path="url(#p93f8bad64d)" d="M 121.977 61.0475 
C 122.621444 61.0475 123.239579 60.827021 123.695269 60.434621 
C 124.15096 60.042221 124.407 59.509937 124.407 58.955 
C 124.407 58.400063 124.15096 57.867779 123.695269 57.475379 
C 123.239579 57.082979 122.621444 56.8625 121.977 56.8625 
C 121.332556 56.8625 120.714421 57.082979 120.258731 57.475379 
C 119.80304 57.867779 119.547 58.400063 119.547 58.955 
C 119.547 59.509937 119.80304 60.042221 120.258731 60.434621 
C 120.714421 60.827021 121.332556 61.0475 121.977 61.0475 
z
" style="fill:#ffffff;stroke:#000000;stroke-linejoin:miter;stroke-width:1.5;"/>
   </g>
   <g id="patch_6">
    <path clip-path="url(#p93f8bad64d)" d="M 42.597 42.215 
C 42.597 41.115862 42.471287 40.027411 42.227055 39.01194 
C 41.982822 37.996468 41.624821 37.073724 41.173539 36.296516 
C 40.722257 35.519308 40.18647 34.90275 39.596841 34.482128 
C 39.007213 34.061506 38.375209 33.845 37.737 33.845 
C 37.098791 33.845 36.466787 34.061506 35.877159 34.482128 
C 35.28753 34.90275 34.751743 35.519308 34.300461 36.296516 
C 33.849179 37.073724 33.491178 37.996468 33.246945 39.01194 
C 33.002713 40.027411 32.877 41.115862 32.877 42.215 
C 32.877 43.314138 33.002713 44.402589 33.246945 45.41806 
C 33.491178 46.433532 33.849179 47.356276 34.300461 48.133484 
C 34.751743 48.910692 35.28753 49.52725 35.877159 49.947872 
C 36.466787 50.368494 37.098791 50.585 37.737 50.585 
C 38.375209 50.585 39.007213 50.368494 39.596841 49.947872 
C 40.18647 49.52725 40.722257 48.910692 41.173539 48.133484 
C 41.624821 47.356276 41.982822 46.433532 42.227055 45.41806 
C 42.471287 44.402589 42.597 43.314138 42.597 42.215 
" style="fill:none;stroke:#000000;stroke-linejoin:miter;stroke-width:1.5;"/>
   </g>
   <g id="patch_7">
    <path clip-path="url(#p93f8bad64d)" d="M 102.537 50.585 
C 103.175209 50.585 103.807213 50.368494 104.396841 49.947872 
C 104.98647 49.52725 105.522257 48.910692 105.973539 48.133484 
C 106.424821 47.356276 106.782822 46.433532 107.027055 45.41806 
C 107.271287 44.402589 107.397 43.314138 107.397 42.215 
C 107.397 41.115862 107.271287 40.027411 107.027055 39.01194 
C 106.782822 37.996468 106.424821 37.073724 105.973539 36.296516 
C 105.522257 35.519308 104.98647 34.90275 104.396841 34.482128 
C 103.807213 34.061506 103.175209 33.845 102.537 33.845 
" style="fill:none;stroke:#000000;stroke-linejoin:miter;stroke-width:1.5;"/>
   </g>
   <g id="line2d_1">
    <path clip-path="url(#p93f8bad64d)" d="M 18.297 42.215 
" style="fill:none;stroke:#000000;stroke-linecap:round;stroke-width:1.5;"/>
   </g>
   <g id="line2d_2">
    <path clip-path="url(#p93f8bad64d)" d="M 107.397 42.215 
L 121.977 42.215 
" style="fill:none;stroke:#000000;stroke-linecap:round;stroke-width:1.5;"/>
   </g>
   <g id="line2d_3">
    <path clip-path="url(#p93f8bad64d)" d="M 18.297 42.215 
L 37.737 42.215 
" style="fill:none;stroke:#000000;stroke-linecap:round;stroke-width:1.5;"/>
   </g>
   <g id="line2d_4">
    <path clip-path="url(#p93f8bad64d)" d="M 37.737 33.845 
L 102.537 33.845 
" style="fill:none;stroke:#000000;stroke-linecap:round;stroke-width:1.5;"/>
   </g>
   <g id="line2d_5">
    <path clip-path="url(#p93f8bad64d)" d="M 37.737 50.585 
L 102.537 50.585 
" style="fill:none;stroke:#000000;stroke-linecap:round;stroke-width:1.5;"/>
   </g>
   <g id="line2d_6">
    <path clip-path="url(#p93f8bad64d)" d="M 121.977 42.215 
" style="fill:none;stroke:#000000;stroke-linecap:round;stroke-width:1.5;"/>
   </g>
   <g id="line2d_7">
    <path clip-path="url(#p93f8bad64d)" d="M 37.737 50.585 
L 37.737 54.77 
L 37.737 58.955 
" style="fill:none;stroke:#000000;stroke-linecap:round;stroke-width:1.5;"/>
   </g>
   <g id="line2d_8">
    <path clip-path="url(#p93f8bad64d)" d="M 37.737 58.955 
L 28.017 58.955 
L 18.297 58.955 
" style="fill:none;stroke:#000000;stroke-linecap:round;stroke-width:1.5;"/>
   </g>
   <g id="line2d_9">
    <path clip-path="url(#p93f8bad64d)" d="M 18.297 58.955 
" style="fill:none;stroke:#000000;stroke-linecap:round;stroke-width:1.5;"/>
   </g>
   <g id="line2d_10">
    <path clip-path="url(#p93f8bad64d)" d="M 102.537 50.585 
L 102.537 54.77 
L 102.537 58.955 
" style="fill:none;stroke:#000000;stroke-linecap:round;stroke-width:1.5;"/>
   </g>
   <g id="line2d_11">
    <path clip-path="url(#p93f8bad64d)" d="M 102.537 58.955 
L 112.257 58.955 
L 121.977 58.955 
" style="fill:none;stroke:#000000;stroke-linecap:round;stroke-width:1.5;"/>
   </g>
   <g id="line2d_12">
    <path clip-path="url(#p93f8bad64d)" d="M 121.977 58.955 
" style="fill:none;stroke:#000000;stroke-linecap:round;stroke-width:1.5;"/>
   </g>
   <g id="text_1">
    <!-- $Z_o$ -->
    <defs>
     <path d="M 5.609375 72.90625 
L 62.890625 72.90625 
L 62.890625 65.375 
L 16.796875 8.296875 
L 64.015625 8.296875 
L 64.015625 0 
L 4.5 0 
L 4.5 7.515625 
L 50.59375 64.59375 
L 5.609375 64.59375 
z
" id="DejaVuSans-90"/>
     <path d="M 30.609375 48.390625 
Q 23.390625 48.390625 19.1875 42.75 
Q 14.984375 37.109375 14.984375 27.296875 
Q 14.984375 17.484375 19.15625 11.84375 
Q 23.34375 6.203125 30.609375 6.203125 
Q 37.796875 6.203125 41.984375 11.859375 
Q 46.1875 17.53125 46.1875 27.296875 
Q 46.1875 37.015625 41.984375 42.703125 
Q 37.796875 48.390625 30.609375 48.390625 
z
M 30.609375 56 
Q 42.328125 56 49.015625 48.375 
Q 55.71875 40.765625 55.71875 27.296875 
Q 55.71875 13.875 49.015625 6.21875 
Q 42.328125 -1.421875 30.609375 -1.421875 
Q 18.84375 -1.421875 12.171875 6.21875 
Q 5.515625 13.875 5.515625 27.296875 
Q 5.515625 40.765625 12.171875 48.375 
Q 18.84375 56 30.609375 56 
z
" id="DejaVuSans-111"/>
    </defs>
    <g transform="translate(60.857 19.3575)scale(0.16 -0.16)">
     <use transform="translate(0 0.09375)" xlink:href="#DejaVuSans-90"/>
     <use transform="translate(69.462891 -16.3125)scale(0.7)" xlink:href="#DejaVuSans-111"/>
    </g>
   </g>
  </g>
 </g>
 <defs>
  <clipPath id="p93f8bad64d">
   <rect height="35.50275" width="125.874" x="7.2" y="29.694875"/>
  </clipPath>
 </defs>
</svg>
