<?xml version="1.0" encoding="utf-8" standalone="no"?>
<!DOCTYPE svg PUBLIC "-//W3C//DTD SVG 1.1//EN"
  "http://www.w3.org/Graphics/SVG/1.1/DTD/svg11.dtd">
<!-- Created with matplotlib (https://matplotlib.org/) -->
<svg height="237.399687pt" version="1.1" viewBox="0 0 484.2 237.399687" width="484.2pt" xmlns="http://www.w3.org/2000/svg" xmlns:xlink="http://www.w3.org/1999/xlink">
 <defs>
  <style type="text/css">
*{stroke-linecap:butt;stroke-linejoin:round;white-space:pre;}
  </style>
 </defs>
 <g id="figure_1">
  <g id="patch_1">
   <path d="M 0 237.399687 
L 484.2 237.399687 
L 484.2 0 
L 0 0 
z
" style="fill:none;"/>
  </g>
  <g id="axes_1">
   <g id="patch_2">
    <path clip-path="url(#pa55fc010a5)" d="M 177.3 50.244688 
C 181.59629 50.244688 185.717194 48.774827 188.75513 46.158827 
C 191.793066 43.542827 193.5 39.994271 193.5 36.294688 
C 193.5 32.595104 191.793066 29.046548 188.75513 26.430548 
C 185.717194 23.814548 181.59629 22.344688 177.3 22.344688 
C 173.00371 22.344688 168.882806 23.814548 165.84487 26.430548 
C 162.806934 29.046548 161.1 32.595104 161.1 36.294688 
C 161.1 39.994271 162.806934 43.542827 165.84487 46.158827 
C 168.882806 48.774827 173.00371 50.244688 177.3 50.244688 
z
" style="fill:none;stroke:#000000;stroke-linejoin:miter;stroke-width:2;"/>
   </g>
   <g id="patch_3">
    <path clip-path="url(#pa55fc010a5)" d="M 306.9 50.244688 
C 311.19629 50.244688 315.317194 48.774827 318.35513 46.158827 
C 321.393066 43.542827 323.1 39.994271 323.1 36.294688 
C 323.1 32.595104 321.393066 29.046548 318.35513 26.430548 
C 315.317194 23.814548 311.19629 22.344688 306.9 22.344688 
C 302.60371 22.344688 298.482806 23.814548 295.44487 26.430548 
C 292.406934 29.046548 290.7 32.595104 290.7 36.294688 
C 290.7 39.994271 292.406934 43.542827 295.44487 46.158827 
C 298.482806 48.774827 302.60371 50.244688 306.9 50.244688 
z
" style="fill:none;stroke:#000000;stroke-linejoin:miter;stroke-width:2;"/>
   </g>
   <g id="patch_4">
    <path clip-path="url(#pa55fc010a5)" d="M 436.5 50.244688 
C 440.79629 50.244688 444.917194 48.774827 447.95513 46.158827 
C 450.993066 43.542827 452.7 39.994271 452.7 36.294688 
C 452.7 32.595104 450.993066 29.046548 447.95513 26.430548 
C 444.917194 23.814548 440.79629 22.344688 436.5 22.344688 
C 432.20371 22.344688 428.082806 23.814548 425.04487 26.430548 
C 422.006934 29.046548 420.3 32.595104 420.3 36.294688 
C 420.3 39.994271 422.006934 43.542827 425.04487 46.158827 
C 428.082806 48.774827 432.20371 50.244688 436.5 50.244688 
z
" style="fill:none;stroke:#000000;stroke-linejoin:miter;stroke-width:2;"/>
   </g>
   <g id="patch_5">
    <path clip-path="url(#pa55fc010a5)" d="M 47.7 106.044688 
C 51.99629 106.044688 56.117194 104.574827 59.15513 101.958827 
C 62.193066 99.342827 63.9 95.794271 63.9 92.094688 
C 63.9 88.395104 62.193066 84.846548 59.15513 82.230548 
C 56.117194 79.614548 51.99629 78.144688 47.7 78.144688 
C 43.40371 78.144688 39.282806 79.614548 36.24487 82.230548 
C 33.206934 84.846548 31.5 88.395104 31.5 92.094688 
C 31.5 95.794271 33.206934 99.342827 36.24487 101.958827 
C 39.282806 104.574827 43.40371 106.044688 47.7 106.044688 
z
" style="fill:none;stroke:#000000;stroke-linejoin:miter;stroke-width:2;"/>
   </g>
   <g id="patch_6">
    <path clip-path="url(#pa55fc010a5)" d="M 47.7 161.844687 
C 51.99629 161.844687 56.117194 160.374827 59.15513 157.758827 
C 62.193066 155.142827 63.9 151.594271 63.9 147.894688 
C 63.9 144.195104 62.193066 140.646548 59.15513 138.030548 
C 56.117194 135.414548 51.99629 133.944688 47.7 133.944688 
C 43.40371 133.944688 39.282806 135.414548 36.24487 138.030548 
C 33.206934 140.646548 31.5 144.195104 31.5 147.894688 
C 31.5 151.594271 33.206934 155.142827 36.24487 157.758827 
C 39.282806 160.374827 43.40371 161.844687 47.7 161.844687 
z
" style="fill:none;stroke:#000000;stroke-linejoin:miter;stroke-width:2;"/>
   </g>
   <g id="line2d_1">
    <path clip-path="url(#pa55fc010a5)" d="M 31.5 36.294688 
L 31.5 22.344688 
L 63.9 22.344688 
L 63.9 50.244688 
L 31.5 50.244688 
L 31.5 36.294688 
" style="fill:none;stroke:#000000;stroke-linecap:round;stroke-width:2;"/>
   </g>
   <g id="line2d_2">
    <path clip-path="url(#pa55fc010a5)" d="M 306.9 30.714688 
L 306.9 41.874688 
" style="fill:none;stroke:#000000;stroke-linecap:round;stroke-width:2;"/>
   </g>
   <g id="line2d_3">
    <path clip-path="url(#pa55fc010a5)" d="M 300.42 36.294688 
L 313.38 36.294688 
" style="fill:none;stroke:#000000;stroke-linecap:round;stroke-width:2;"/>
   </g>
   <g id="line2d_4">
    <path clip-path="url(#pa55fc010a5)" d="M 59.15513 82.230548 
L 36.24487 101.958827 
" style="fill:none;stroke:#000000;stroke-linecap:round;stroke-width:2;"/>
   </g>
   <g id="line2d_5">
    <path clip-path="url(#pa55fc010a5)" d="M 59.15513 101.958827 
L 36.24487 82.230548 
" style="fill:none;stroke:#000000;stroke-linecap:round;stroke-width:2;"/>
   </g>
   <g id="line2d_6">
    <path clip-path="url(#pa55fc010a5)" d="M 161.1 92.094688 
L 161.1 85.119687 
L 169.2 85.119687 
L 169.2 99.069688 
L 161.1 99.069688 
L 161.1 92.094688 
" style="fill:none;stroke:#000000;stroke-linecap:round;stroke-width:2;"/>
   </g>
   <g id="line2d_7">
    <path clip-path="url(#pa55fc010a5)" d="M 169.2 85.119687 
L 177.3 78.144688 
L 177.3 106.044688 
L 169.2 99.069688 
L 169.2 85.119687 
" style="fill:none;stroke:#000000;stroke-linecap:round;stroke-width:2;"/>
   </g>
   <g id="line2d_8">
    <path clip-path="url(#pa55fc010a5)" d="M 290.7 92.094688 
L 290.7 106.044688 
L 315 92.094688 
L 290.7 78.144688 
L 290.7 92.094688 
" style="fill:none;stroke:#000000;stroke-linecap:round;stroke-width:2;"/>
   </g>
   <g id="line2d_9">
    <path clip-path="url(#pa55fc010a5)" d="M 426.78 92.094688 
L 427.803158 91.188776 
L 428.826316 90.381034 
L 429.849474 89.758993 
L 430.872632 89.390061 
L 431.895789 89.314217 
L 432.918947 89.53968 
L 433.942105 90.042018 
L 434.965263 90.766794 
L 435.988421 91.635469 
L 437.011579 92.553906 
L 438.034737 93.422581 
L 439.057895 94.147357 
L 440.081053 94.649695 
L 441.104211 94.875158 
L 442.127368 94.799314 
L 443.150526 94.430382 
L 444.173684 93.808341 
L 445.196842 93.000599 
L 446.22 92.094688 
" style="fill:none;stroke:#000000;stroke-linecap:round;stroke-width:2;"/>
   </g>
   <g id="line2d_10">
    <path clip-path="url(#pa55fc010a5)" d="M 420.3 92.094688 
L 420.3 78.144688 
L 452.7 78.144688 
L 452.7 106.044688 
L 420.3 106.044688 
L 420.3 92.094688 
" style="fill:none;stroke:#000000;stroke-linecap:round;stroke-width:2;"/>
   </g>
   <g id="line2d_11">
    <path clip-path="url(#pa55fc010a5)" d="M 37.98 147.894688 
L 39.003158 146.988776 
L 40.026316 146.181034 
L 41.049474 145.558993 
L 42.072632 145.190061 
L 43.095789 145.114217 
L 44.118947 145.33968 
L 45.142105 145.842018 
L 46.165263 146.566794 
L 47.188421 147.435469 
L 48.211579 148.353906 
L 49.234737 149.222581 
L 50.257895 149.947357 
L 51.281053 150.449695 
L 52.304211 150.675158 
L 53.327368 150.599314 
L 54.350526 150.230382 
L 55.373684 149.608341 
L 56.396842 148.800599 
L 57.42 147.894688 
" style="fill:none;stroke:#000000;stroke-linecap:round;stroke-width:2;"/>
   </g>
   <g id="line2d_12">
    <path clip-path="url(#pa55fc010a5)" d="M 167.58 147.894688 
L 168.603158 146.988776 
L 169.626316 146.181034 
L 170.649474 145.558993 
L 171.672632 145.190061 
L 172.695789 145.114217 
L 173.718947 145.33968 
L 174.742105 145.842018 
L 175.765263 146.566794 
L 176.788421 147.435469 
L 177.811579 148.353906 
L 178.834737 149.222581 
L 179.857895 149.947357 
L 180.881053 150.449695 
L 181.904211 150.675158 
L 182.927368 150.599314 
L 183.950526 150.230382 
L 184.973684 149.608341 
L 185.996842 148.800599 
L 187.02 147.894688 
" style="fill:none;stroke:#000000;stroke-linecap:round;stroke-width:2;"/>
   </g>
   <g id="line2d_13">
    <path clip-path="url(#pa55fc010a5)" d="M 167.58 140.919688 
L 168.603158 140.013776 
L 169.626316 139.206034 
L 170.649474 138.583993 
L 171.672632 138.215061 
L 172.695789 138.139217 
L 173.718947 138.36468 
L 174.742105 138.867018 
L 175.765263 139.591794 
L 176.788421 140.460469 
L 177.811579 141.378906 
L 178.834737 142.247581 
L 179.857895 142.972357 
L 180.881053 143.474695 
L 181.904211 143.700158 
L 182.927368 143.624314 
L 183.950526 143.255382 
L 184.973684 142.633341 
L 185.996842 141.825599 
L 187.02 140.919688 
" style="fill:none;stroke:#000000;stroke-linecap:round;stroke-width:2;"/>
   </g>
   <g id="line2d_14">
    <path clip-path="url(#pa55fc010a5)" d="M 167.58 154.869687 
L 168.603158 153.963776 
L 169.626316 153.156034 
L 170.649474 152.533993 
L 171.672632 152.165061 
L 172.695789 152.089217 
L 173.718947 152.31468 
L 174.742105 152.817018 
L 175.765263 153.541794 
L 176.788421 154.410469 
L 177.811579 155.328906 
L 178.834737 156.197581 
L 179.857895 156.922357 
L 180.881053 157.424695 
L 181.904211 157.650158 
L 182.927368 157.574314 
L 183.950526 157.205382 
L 184.973684 156.583341 
L 185.996842 155.775599 
L 187.02 154.869687 
" style="fill:none;stroke:#000000;stroke-linecap:round;stroke-width:2;"/>
   </g>
   <g id="line2d_15">
    <path clip-path="url(#pa55fc010a5)" d="M 161.1 147.894688 
L 161.1 133.944687 
L 193.5 133.944687 
L 193.5 161.844688 
L 161.1 161.844688 
L 161.1 147.894688 
" style="fill:none;stroke:#000000;stroke-linecap:round;stroke-width:2;"/>
   </g>
   <g id="line2d_16">
    <path clip-path="url(#pa55fc010a5)" d="M 305.28 143.151688 
L 308.52 138.687687 
" style="fill:none;stroke:#000000;stroke-linecap:round;stroke-width:2;"/>
   </g>
   <g id="line2d_17">
    <path clip-path="url(#pa55fc010a5)" d="M 305.28 150.126688 
L 308.52 145.662688 
" style="fill:none;stroke:#000000;stroke-linecap:round;stroke-width:2;"/>
   </g>
   <g id="line2d_18">
    <path clip-path="url(#pa55fc010a5)" d="M 297.18 147.894688 
L 298.203158 146.988776 
L 299.226316 146.181034 
L 300.249474 145.558993 
L 301.272632 145.190061 
L 302.295789 145.114217 
L 303.318947 145.33968 
L 304.342105 145.842018 
L 305.365263 146.566794 
L 306.388421 147.435469 
L 307.411579 148.353906 
L 308.434737 149.222581 
L 309.457895 149.947357 
L 310.481053 150.449695 
L 311.504211 150.675158 
L 312.527368 150.599314 
L 313.550526 150.230382 
L 314.573684 149.608341 
L 315.596842 148.800599 
L 316.62 147.894688 
" style="fill:none;stroke:#000000;stroke-linecap:round;stroke-width:2;"/>
   </g>
   <g id="line2d_19">
    <path clip-path="url(#pa55fc010a5)" d="M 297.18 140.919688 
L 298.203158 140.013776 
L 299.226316 139.206034 
L 300.249474 138.583993 
L 301.272632 138.215061 
L 302.295789 138.139217 
L 303.318947 138.36468 
L 304.342105 138.867018 
L 305.365263 139.591794 
L 306.388421 140.460469 
L 307.411579 141.378906 
L 308.434737 142.247581 
L 309.457895 142.972357 
L 310.481053 143.474695 
L 311.504211 143.700158 
L 312.527368 143.624314 
L 313.550526 143.255382 
L 314.573684 142.633341 
L 315.596842 141.825599 
L 316.62 140.919688 
" style="fill:none;stroke:#000000;stroke-linecap:round;stroke-width:2;"/>
   </g>
   <g id="line2d_20">
    <path clip-path="url(#pa55fc010a5)" d="M 297.18 154.869687 
L 298.203158 153.963776 
L 299.226316 153.156034 
L 300.249474 152.533993 
L 301.272632 152.165061 
L 302.295789 152.089217 
L 303.318947 152.31468 
L 304.342105 152.817018 
L 305.365263 153.541794 
L 306.388421 154.410469 
L 307.411579 155.328906 
L 308.434737 156.197581 
L 309.457895 156.922357 
L 310.481053 157.424695 
L 311.504211 157.650158 
L 312.527368 157.574314 
L 313.550526 157.205382 
L 314.573684 156.583341 
L 315.596842 155.775599 
L 316.62 154.869687 
" style="fill:none;stroke:#000000;stroke-linecap:round;stroke-width:2;"/>
   </g>
   <g id="line2d_21">
    <path clip-path="url(#pa55fc010a5)" d="M 290.7 147.894688 
L 290.7 133.944687 
L 323.1 133.944687 
L 323.1 161.844688 
L 290.7 161.844688 
L 290.7 147.894688 
" style="fill:none;stroke:#000000;stroke-linecap:round;stroke-width:2;"/>
   </g>
   <g id="line2d_22">
    <path clip-path="url(#pa55fc010a5)" d="M 434.88 143.151688 
L 438.12 138.687687 
" style="fill:none;stroke:#000000;stroke-linecap:round;stroke-width:2;"/>
   </g>
   <g id="line2d_23">
    <path clip-path="url(#pa55fc010a5)" d="M 434.88 157.101688 
L 438.12 152.637687 
" style="fill:none;stroke:#000000;stroke-linecap:round;stroke-width:2;"/>
   </g>
   <g id="line2d_24">
    <path clip-path="url(#pa55fc010a5)" d="M 426.78 147.894688 
L 427.803158 146.988776 
L 428.826316 146.181034 
L 429.849474 145.558993 
L 430.872632 145.190061 
L 431.895789 145.114217 
L 432.918947 145.33968 
L 433.942105 145.842018 
L 434.965263 146.566794 
L 435.988421 147.435469 
L 437.011579 148.353906 
L 438.034737 149.222581 
L 439.057895 149.947357 
L 440.081053 150.449695 
L 441.104211 150.675158 
L 442.127368 150.599314 
L 443.150526 150.230382 
L 444.173684 149.608341 
L 445.196842 148.800599 
L 446.22 147.894688 
" style="fill:none;stroke:#000000;stroke-linecap:round;stroke-width:2;"/>
   </g>
   <g id="line2d_25">
    <path clip-path="url(#pa55fc010a5)" d="M 426.78 140.919688 
L 427.803158 140.013776 
L 428.826316 139.206034 
L 429.849474 138.583993 
L 430.872632 138.215061 
L 431.895789 138.139217 
L 432.918947 138.36468 
L 433.942105 138.867018 
L 434.965263 139.591794 
L 435.988421 140.460469 
L 437.011579 141.378906 
L 438.034737 142.247581 
L 439.057895 142.972357 
L 440.081053 143.474695 
L 441.104211 143.700158 
L 442.127368 143.624314 
L 443.150526 143.255382 
L 444.173684 142.633341 
L 445.196842 141.825599 
L 446.22 140.919688 
" style="fill:none;stroke:#000000;stroke-linecap:round;stroke-width:2;"/>
   </g>
   <g id="line2d_26">
    <path clip-path="url(#pa55fc010a5)" d="M 426.78 154.869687 
L 427.803158 153.963776 
L 428.826316 153.156034 
L 429.849474 152.533993 
L 430.872632 152.165061 
L 431.895789 152.089217 
L 432.918947 152.31468 
L 433.942105 152.817018 
L 434.965263 153.541794 
L 435.988421 154.410469 
L 437.011579 155.328906 
L 438.034737 156.197581 
L 439.057895 156.922357 
L 440.081053 157.424695 
L 441.104211 157.650158 
L 442.127368 157.574314 
L 443.150526 157.205382 
L 444.173684 156.583341 
L 445.196842 155.775599 
L 446.22 154.869687 
" style="fill:none;stroke:#000000;stroke-linecap:round;stroke-width:2;"/>
   </g>
   <g id="line2d_27">
    <path clip-path="url(#pa55fc010a5)" d="M 420.3 147.894688 
L 420.3 133.944687 
L 452.7 133.944687 
L 452.7 161.844688 
L 420.3 161.844688 
L 420.3 147.894688 
" style="fill:none;stroke:#000000;stroke-linecap:round;stroke-width:2;"/>
   </g>
   <g id="line2d_28">
    <path clip-path="url(#pa55fc010a5)" d="M 46.08 205.926688 
L 49.32 201.462687 
" style="fill:none;stroke:#000000;stroke-linecap:round;stroke-width:2;"/>
   </g>
   <g id="line2d_29">
    <path clip-path="url(#pa55fc010a5)" d="M 46.08 212.901688 
L 49.32 208.437688 
" style="fill:none;stroke:#000000;stroke-linecap:round;stroke-width:2;"/>
   </g>
   <g id="line2d_30">
    <path clip-path="url(#pa55fc010a5)" d="M 37.98 203.694687 
L 39.003158 202.788776 
L 40.026316 201.981034 
L 41.049474 201.358993 
L 42.072632 200.990061 
L 43.095789 200.914217 
L 44.118947 201.13968 
L 45.142105 201.642018 
L 46.165263 202.366794 
L 47.188421 203.235469 
L 48.211579 204.153906 
L 49.234737 205.022581 
L 50.257895 205.747357 
L 51.281053 206.249695 
L 52.304211 206.475158 
L 53.327368 206.399314 
L 54.350526 206.030382 
L 55.373684 205.408341 
L 56.396842 204.600599 
L 57.42 203.694687 
" style="fill:none;stroke:#000000;stroke-linecap:round;stroke-width:2;"/>
   </g>
   <g id="line2d_31">
    <path clip-path="url(#pa55fc010a5)" d="M 37.98 196.719687 
L 39.003158 195.813776 
L 40.026316 195.006034 
L 41.049474 194.383993 
L 42.072632 194.015061 
L 43.095789 193.939217 
L 44.118947 194.16468 
L 45.142105 194.667018 
L 46.165263 195.391794 
L 47.188421 196.260469 
L 48.211579 197.178906 
L 49.234737 198.047581 
L 50.257895 198.772357 
L 51.281053 199.274695 
L 52.304211 199.500158 
L 53.327368 199.424314 
L 54.350526 199.055382 
L 55.373684 198.433341 
L 56.396842 197.625599 
L 57.42 196.719687 
" style="fill:none;stroke:#000000;stroke-linecap:round;stroke-width:2;"/>
   </g>
   <g id="line2d_32">
    <path clip-path="url(#pa55fc010a5)" d="M 37.98 210.669688 
L 39.003158 209.763776 
L 40.026316 208.956034 
L 41.049474 208.333993 
L 42.072632 207.965061 
L 43.095789 207.889217 
L 44.118947 208.11468 
L 45.142105 208.617018 
L 46.165263 209.341794 
L 47.188421 210.210469 
L 48.211579 211.128906 
L 49.234737 211.997581 
L 50.257895 212.722357 
L 51.281053 213.224695 
L 52.304211 213.450158 
L 53.327368 213.374314 
L 54.350526 213.005382 
L 55.373684 212.383341 
L 56.396842 211.575599 
L 57.42 210.669688 
" style="fill:none;stroke:#000000;stroke-linecap:round;stroke-width:2;"/>
   </g>
   <g id="line2d_33">
    <path clip-path="url(#pa55fc010a5)" d="M 31.5 203.694687 
L 31.5 189.744687 
L 63.9 189.744687 
L 63.9 217.644688 
L 31.5 217.644688 
L 31.5 203.694687 
" style="fill:none;stroke:#000000;stroke-linecap:round;stroke-width:2;"/>
   </g>
   <g id="line2d_34">
    <path clip-path="url(#pa55fc010a5)" d="M 161.1 203.694687 
L 168.228 189.744687 
L 206.46 189.744687 
L 206.46 217.644688 
L 168.228 217.644688 
L 161.1 203.694687 
" style="fill:none;stroke:#000000;stroke-linecap:round;stroke-width:2;"/>
   </g>
   <g id="line2d_35">
    <path clip-path="url(#pa55fc010a5)" d="M 290.7 203.694687 
L 290.7 189.744687 
L 328.932 189.744687 
L 336.06 203.694687 
L 328.932 217.644688 
L 290.7 217.644688 
L 290.7 203.694687 
" style="fill:none;stroke:#000000;stroke-linecap:round;stroke-width:2;"/>
   </g>
   <g id="line2d_36">
    <path clip-path="url(#pa55fc010a5)" d="M 425.16 203.694687 
L 447.84 203.694687 
" style="fill:none;stroke:#000000;stroke-linecap:round;stroke-width:2;"/>
   </g>
   <g id="line2d_37">
    <path clip-path="url(#pa55fc010a5)" d="M 442.98 196.719687 
L 442.98 210.669688 
" style="fill:none;stroke:#000000;stroke-linecap:round;stroke-width:2;"/>
   </g>
   <g id="line2d_38">
    <path clip-path="url(#pa55fc010a5)" d="M 420.3 203.694687 
L 420.3 189.744687 
L 452.7 189.744687 
L 452.7 217.644688 
L 420.3 217.644688 
L 420.3 203.694687 
" style="fill:none;stroke:#000000;stroke-linecap:round;stroke-width:2;"/>
   </g>
   <g id="patch_7">
    <path clip-path="url(#pa55fc010a5)" d="M 442.98 203.694687 
L 430.02 196.719687 
L 430.02 210.669688 
z
" style="stroke:#000000;stroke-linejoin:miter;stroke-width:2;"/>
   </g>
   <g id="text_1">
    <!-- BOX -->
    <defs>
     <path d="M 19.671875 34.8125 
L 19.671875 8.109375 
L 35.5 8.109375 
Q 43.453125 8.109375 47.28125 11.40625 
Q 51.125 14.703125 51.125 21.484375 
Q 51.125 28.328125 47.28125 31.5625 
Q 43.453125 34.8125 35.5 34.8125 
z
M 19.671875 64.796875 
L 19.671875 42.828125 
L 34.28125 42.828125 
Q 41.5 42.828125 45.03125 45.53125 
Q 48.578125 48.25 48.578125 53.8125 
Q 48.578125 59.328125 45.03125 62.0625 
Q 41.5 64.796875 34.28125 64.796875 
z
M 9.8125 72.90625 
L 35.015625 72.90625 
Q 46.296875 72.90625 52.390625 68.21875 
Q 58.5 63.53125 58.5 54.890625 
Q 58.5 48.1875 55.375 44.234375 
Q 52.25 40.28125 46.1875 39.3125 
Q 53.46875 37.75 57.5 32.78125 
Q 61.53125 27.828125 61.53125 20.40625 
Q 61.53125 10.640625 54.890625 5.3125 
Q 48.25 0 35.984375 0 
L 9.8125 0 
z
" id="DejaVuSans-66"/>
     <path d="M 39.40625 66.21875 
Q 28.65625 66.21875 22.328125 58.203125 
Q 16.015625 50.203125 16.015625 36.375 
Q 16.015625 22.609375 22.328125 14.59375 
Q 28.65625 6.59375 39.40625 6.59375 
Q 50.140625 6.59375 56.421875 14.59375 
Q 62.703125 22.609375 62.703125 36.375 
Q 62.703125 50.203125 56.421875 58.203125 
Q 50.140625 66.21875 39.40625 66.21875 
z
M 39.40625 74.21875 
Q 54.734375 74.21875 63.90625 63.9375 
Q 73.09375 53.65625 73.09375 36.375 
Q 73.09375 19.140625 63.90625 8.859375 
Q 54.734375 -1.421875 39.40625 -1.421875 
Q 24.03125 -1.421875 14.8125 8.828125 
Q 5.609375 19.09375 5.609375 36.375 
Q 5.609375 53.65625 14.8125 63.9375 
Q 24.03125 74.21875 39.40625 74.21875 
z
" id="DejaVuSans-79"/>
     <path d="M 6.296875 72.90625 
L 16.890625 72.90625 
L 35.015625 45.796875 
L 53.21875 72.90625 
L 63.8125 72.90625 
L 40.375 37.890625 
L 65.375 0 
L 54.78125 0 
L 34.28125 31 
L 13.625 0 
L 2.984375 0 
L 29 38.921875 
z
" id="DejaVuSans-88"/>
    </defs>
    <g transform="translate(32.599688 17.837813)scale(0.14 -0.14)">
     <use xlink:href="#DejaVuSans-66"/>
     <use x="68.587891" xlink:href="#DejaVuSans-79"/>
     <use x="147.205078" xlink:href="#DejaVuSans-88"/>
    </g>
   </g>
   <g id="text_2">
    <!-- CIRCLE -->
    <defs>
     <path d="M 64.40625 67.28125 
L 64.40625 56.890625 
Q 59.421875 61.53125 53.78125 63.8125 
Q 48.140625 66.109375 41.796875 66.109375 
Q 29.296875 66.109375 22.65625 58.46875 
Q 16.015625 50.828125 16.015625 36.375 
Q 16.015625 21.96875 22.65625 14.328125 
Q 29.296875 6.6875 41.796875 6.6875 
Q 48.140625 6.6875 53.78125 8.984375 
Q 59.421875 11.28125 64.40625 15.921875 
L 64.40625 5.609375 
Q 59.234375 2.09375 53.4375 0.328125 
Q 47.65625 -1.421875 41.21875 -1.421875 
Q 24.65625 -1.421875 15.125 8.703125 
Q 5.609375 18.84375 5.609375 36.375 
Q 5.609375 53.953125 15.125 64.078125 
Q 24.65625 74.21875 41.21875 74.21875 
Q 47.75 74.21875 53.53125 72.484375 
Q 59.328125 70.75 64.40625 67.28125 
z
" id="DejaVuSans-67"/>
     <path d="M 9.8125 72.90625 
L 19.671875 72.90625 
L 19.671875 0 
L 9.8125 0 
z
" id="DejaVuSans-73"/>
     <path d="M 44.390625 34.1875 
Q 47.5625 33.109375 50.5625 29.59375 
Q 53.5625 26.078125 56.59375 19.921875 
L 66.609375 0 
L 56 0 
L 46.6875 18.703125 
Q 43.0625 26.03125 39.671875 28.421875 
Q 36.28125 30.8125 30.421875 30.8125 
L 19.671875 30.8125 
L 19.671875 0 
L 9.8125 0 
L 9.8125 72.90625 
L 32.078125 72.90625 
Q 44.578125 72.90625 50.734375 67.671875 
Q 56.890625 62.453125 56.890625 51.90625 
Q 56.890625 45.015625 53.6875 40.46875 
Q 50.484375 35.9375 44.390625 34.1875 
z
M 19.671875 64.796875 
L 19.671875 38.921875 
L 32.078125 38.921875 
Q 39.203125 38.921875 42.84375 42.21875 
Q 46.484375 45.515625 46.484375 51.90625 
Q 46.484375 58.296875 42.84375 61.546875 
Q 39.203125 64.796875 32.078125 64.796875 
z
" id="DejaVuSans-82"/>
     <path d="M 9.8125 72.90625 
L 19.671875 72.90625 
L 19.671875 8.296875 
L 55.171875 8.296875 
L 55.171875 0 
L 9.8125 0 
z
" id="DejaVuSans-76"/>
     <path d="M 9.8125 72.90625 
L 55.90625 72.90625 
L 55.90625 64.59375 
L 19.671875 64.59375 
L 19.671875 43.015625 
L 54.390625 43.015625 
L 54.390625 34.71875 
L 19.671875 34.71875 
L 19.671875 8.296875 
L 56.78125 8.296875 
L 56.78125 0 
L 9.8125 0 
z
" id="DejaVuSans-69"/>
    </defs>
    <g transform="translate(152.277187 17.837813)scale(0.14 -0.14)">
     <use xlink:href="#DejaVuSans-67"/>
     <use x="69.824219" xlink:href="#DejaVuSans-73"/>
     <use x="99.316406" xlink:href="#DejaVuSans-82"/>
     <use x="168.720703" xlink:href="#DejaVuSans-67"/>
     <use x="238.544922" xlink:href="#DejaVuSans-76"/>
     <use x="294.257812" xlink:href="#DejaVuSans-69"/>
    </g>
   </g>
   <g id="text_3">
    <!-- SUM -->
    <defs>
     <path d="M 53.515625 70.515625 
L 53.515625 60.890625 
Q 47.90625 63.578125 42.921875 64.890625 
Q 37.9375 66.21875 33.296875 66.21875 
Q 25.25 66.21875 20.875 63.09375 
Q 16.5 59.96875 16.5 54.203125 
Q 16.5 49.359375 19.40625 46.890625 
Q 22.3125 44.4375 30.421875 42.921875 
L 36.375 41.703125 
Q 47.40625 39.59375 52.65625 34.296875 
Q 57.90625 29 57.90625 20.125 
Q 57.90625 9.515625 50.796875 4.046875 
Q 43.703125 -1.421875 29.984375 -1.421875 
Q 24.8125 -1.421875 18.96875 -0.25 
Q 13.140625 0.921875 6.890625 3.21875 
L 6.890625 13.375 
Q 12.890625 10.015625 18.65625 8.296875 
Q 24.421875 6.59375 29.984375 6.59375 
Q 38.421875 6.59375 43.015625 9.90625 
Q 47.609375 13.234375 47.609375 19.390625 
Q 47.609375 24.75 44.3125 27.78125 
Q 41.015625 30.8125 33.5 32.328125 
L 27.484375 33.5 
Q 16.453125 35.6875 11.515625 40.375 
Q 6.59375 45.0625 6.59375 53.421875 
Q 6.59375 63.09375 13.40625 68.65625 
Q 20.21875 74.21875 32.171875 74.21875 
Q 37.3125 74.21875 42.625 73.28125 
Q 47.953125 72.359375 53.515625 70.515625 
z
" id="DejaVuSans-83"/>
     <path d="M 8.6875 72.90625 
L 18.609375 72.90625 
L 18.609375 28.609375 
Q 18.609375 16.890625 22.84375 11.734375 
Q 27.09375 6.59375 36.625 6.59375 
Q 46.09375 6.59375 50.34375 11.734375 
Q 54.59375 16.890625 54.59375 28.609375 
L 54.59375 72.90625 
L 64.5 72.90625 
L 64.5 27.390625 
Q 64.5 13.140625 57.4375 5.859375 
Q 50.390625 -1.421875 36.625 -1.421875 
Q 22.796875 -1.421875 15.734375 5.859375 
Q 8.6875 13.140625 8.6875 27.390625 
z
" id="DejaVuSans-85"/>
     <path d="M 9.8125 72.90625 
L 24.515625 72.90625 
L 43.109375 23.296875 
L 61.8125 72.90625 
L 76.515625 72.90625 
L 76.515625 0 
L 66.890625 0 
L 66.890625 64.015625 
L 48.09375 14.015625 
L 38.1875 14.015625 
L 19.390625 64.015625 
L 19.390625 0 
L 9.8125 0 
z
" id="DejaVuSans-77"/>
    </defs>
    <g transform="translate(291.293281 17.837813)scale(0.14 -0.14)">
     <use xlink:href="#DejaVuSans-83"/>
     <use x="63.476562" xlink:href="#DejaVuSans-85"/>
     <use x="136.669922" xlink:href="#DejaVuSans-77"/>
    </g>
   </g>
   <g id="text_4">
    <!-- $\Sigma$ -->
    <defs>
     <path d="M 21.140625 8.296875 
L 56.78125 8.296875 
L 56.78125 0 
L 9.8125 0 
L 9.8125 8.296875 
L 33.203125 38.765625 
L 9.8125 64.59375 
L 9.8125 72.90625 
L 55.90625 72.90625 
L 55.90625 64.59375 
L 21.140625 64.59375 
L 44.53125 38.96875 
z
" id="DejaVuSans-931"/>
    </defs>
    <g transform="translate(430.4 40.157813)scale(0.14 -0.14)">
     <use transform="translate(0 0.09375)" xlink:href="#DejaVuSans-931"/>
    </g>
   </g>
   <g id="text_5">
    <!-- SUMSIGMA -->
    <defs>
     <path d="M 59.515625 10.40625 
L 59.515625 29.984375 
L 43.40625 29.984375 
L 43.40625 38.09375 
L 69.28125 38.09375 
L 69.28125 6.78125 
Q 63.578125 2.734375 56.6875 0.65625 
Q 49.8125 -1.421875 42 -1.421875 
Q 24.90625 -1.421875 15.25 8.5625 
Q 5.609375 18.5625 5.609375 36.375 
Q 5.609375 54.25 15.25 64.234375 
Q 24.90625 74.21875 42 74.21875 
Q 49.125 74.21875 55.546875 72.453125 
Q 61.96875 70.703125 67.390625 67.28125 
L 67.390625 56.78125 
Q 61.921875 61.421875 55.765625 63.765625 
Q 49.609375 66.109375 42.828125 66.109375 
Q 29.4375 66.109375 22.71875 58.640625 
Q 16.015625 51.171875 16.015625 36.375 
Q 16.015625 21.625 22.71875 14.15625 
Q 29.4375 6.6875 42.828125 6.6875 
Q 48.046875 6.6875 52.140625 7.59375 
Q 56.25 8.5 59.515625 10.40625 
z
" id="DejaVuSans-71"/>
     <path d="M 34.1875 63.1875 
L 20.796875 26.90625 
L 47.609375 26.90625 
z
M 28.609375 72.90625 
L 39.796875 72.90625 
L 67.578125 0 
L 57.328125 0 
L 50.6875 18.703125 
L 17.828125 18.703125 
L 11.1875 0 
L 0.78125 0 
z
" id="DejaVuSans-65"/>
    </defs>
    <g transform="translate(398.132344 17.837813)scale(0.14 -0.14)">
     <use xlink:href="#DejaVuSans-83"/>
     <use x="63.476562" xlink:href="#DejaVuSans-85"/>
     <use x="136.669922" xlink:href="#DejaVuSans-77"/>
     <use x="222.949219" xlink:href="#DejaVuSans-83"/>
     <use x="286.425781" xlink:href="#DejaVuSans-73"/>
     <use x="315.917969" xlink:href="#DejaVuSans-71"/>
     <use x="393.408203" xlink:href="#DejaVuSans-77"/>
     <use x="479.6875" xlink:href="#DejaVuSans-65"/>
    </g>
   </g>
   <g id="text_6">
    <!-- MIX -->
    <g transform="translate(34.800313 73.637812)scale(0.14 -0.14)">
     <use xlink:href="#DejaVuSans-77"/>
     <use x="86.279297" xlink:href="#DejaVuSans-73"/>
     <use x="115.771484" xlink:href="#DejaVuSans-88"/>
    </g>
   </g>
   <g id="text_7">
    <!-- SPEAKER1 -->
    <defs>
     <path d="M 19.671875 64.796875 
L 19.671875 37.40625 
L 32.078125 37.40625 
Q 38.96875 37.40625 42.71875 40.96875 
Q 46.484375 44.53125 46.484375 51.125 
Q 46.484375 57.671875 42.71875 61.234375 
Q 38.96875 64.796875 32.078125 64.796875 
z
M 9.8125 72.90625 
L 32.078125 72.90625 
Q 44.34375 72.90625 50.609375 67.359375 
Q 56.890625 61.8125 56.890625 51.125 
Q 56.890625 40.328125 50.609375 34.8125 
Q 44.34375 29.296875 32.078125 29.296875 
L 19.671875 29.296875 
L 19.671875 0 
L 9.8125 0 
z
" id="DejaVuSans-80"/>
     <path d="M 9.8125 72.90625 
L 19.671875 72.90625 
L 19.671875 42.09375 
L 52.390625 72.90625 
L 65.09375 72.90625 
L 28.90625 38.921875 
L 67.671875 0 
L 54.6875 0 
L 19.671875 35.109375 
L 19.671875 0 
L 9.8125 0 
z
" id="DejaVuSans-75"/>
     <path d="M 12.40625 8.296875 
L 28.515625 8.296875 
L 28.515625 63.921875 
L 10.984375 60.40625 
L 10.984375 69.390625 
L 28.421875 72.90625 
L 38.28125 72.90625 
L 38.28125 8.296875 
L 54.390625 8.296875 
L 54.390625 0 
L 12.40625 0 
z
" id="DejaVuSans-49"/>
    </defs>
    <g transform="translate(132.9925 73.637812)scale(0.14 -0.14)">
     <use xlink:href="#DejaVuSans-83"/>
     <use x="63.476562" xlink:href="#DejaVuSans-80"/>
     <use x="123.779297" xlink:href="#DejaVuSans-69"/>
     <use x="186.962891" xlink:href="#DejaVuSans-65"/>
     <use x="255.371094" xlink:href="#DejaVuSans-75"/>
     <use x="320.947266" xlink:href="#DejaVuSans-69"/>
     <use x="384.130859" xlink:href="#DejaVuSans-82"/>
     <use x="453.613281" xlink:href="#DejaVuSans-49"/>
    </g>
   </g>
   <g id="text_8">
    <!-- AMP -->
    <g transform="translate(287.801094 73.637812)scale(0.14 -0.14)">
     <use xlink:href="#DejaVuSans-65"/>
     <use x="68.408203" xlink:href="#DejaVuSans-77"/>
     <use x="154.6875" xlink:href="#DejaVuSans-80"/>
    </g>
   </g>
   <g id="text_9">
    <!-- OSCBOX -->
    <g transform="translate(406.5575 73.637812)scale(0.14 -0.14)">
     <use xlink:href="#DejaVuSans-79"/>
     <use x="78.710938" xlink:href="#DejaVuSans-83"/>
     <use x="142.1875" xlink:href="#DejaVuSans-67"/>
     <use x="212.011719" xlink:href="#DejaVuSans-66"/>
     <use x="280.599609" xlink:href="#DejaVuSans-79"/>
     <use x="359.216797" xlink:href="#DejaVuSans-88"/>
    </g>
   </g>
   <g id="text_10">
    <!-- OSC -->
    <g transform="translate(32.857813 129.437813)scale(0.14 -0.14)">
     <use xlink:href="#DejaVuSans-79"/>
     <use x="78.710938" xlink:href="#DejaVuSans-83"/>
     <use x="142.1875" xlink:href="#DejaVuSans-67"/>
    </g>
   </g>
   <g id="text_11">
    <!-- FILT -->
    <defs>
     <path d="M 9.8125 72.90625 
L 51.703125 72.90625 
L 51.703125 64.59375 
L 19.671875 64.59375 
L 19.671875 43.109375 
L 48.578125 43.109375 
L 48.578125 34.8125 
L 19.671875 34.8125 
L 19.671875 0 
L 9.8125 0 
z
" id="DejaVuSans-70"/>
     <path d="M -0.296875 72.90625 
L 61.375 72.90625 
L 61.375 64.59375 
L 35.5 64.59375 
L 35.5 0 
L 25.59375 0 
L 25.59375 64.59375 
L -0.296875 64.59375 
z
" id="DejaVuSans-84"/>
    </defs>
    <g transform="translate(163.047344 129.437813)scale(0.14 -0.14)">
     <use xlink:href="#DejaVuSans-70"/>
     <use x="57.519531" xlink:href="#DejaVuSans-73"/>
     <use x="87.011719" xlink:href="#DejaVuSans-76"/>
     <use x="142.521484" xlink:href="#DejaVuSans-84"/>
    </g>
   </g>
   <g id="text_12">
    <!-- FILT_LP -->
    <defs>
     <path d="M 50.984375 -16.609375 
L 50.984375 -23.578125 
L -0.984375 -23.578125 
L -0.984375 -16.609375 
z
" id="DejaVuSans-95"/>
    </defs>
    <g transform="translate(281.02625 129.048438)scale(0.14 -0.14)">
     <use xlink:href="#DejaVuSans-70"/>
     <use x="57.519531" xlink:href="#DejaVuSans-73"/>
     <use x="87.011719" xlink:href="#DejaVuSans-76"/>
     <use x="142.521484" xlink:href="#DejaVuSans-84"/>
     <use x="203.605469" xlink:href="#DejaVuSans-95"/>
     <use x="253.605469" xlink:href="#DejaVuSans-76"/>
     <use x="309.318359" xlink:href="#DejaVuSans-80"/>
    </g>
   </g>
   <g id="text_13">
    <!-- FILT_BP -->
    <g transform="translate(409.723906 129.048438)scale(0.14 -0.14)">
     <use xlink:href="#DejaVuSans-70"/>
     <use x="57.519531" xlink:href="#DejaVuSans-73"/>
     <use x="87.011719" xlink:href="#DejaVuSans-76"/>
     <use x="142.521484" xlink:href="#DejaVuSans-84"/>
     <use x="203.605469" xlink:href="#DejaVuSans-95"/>
     <use x="253.605469" xlink:href="#DejaVuSans-66"/>
     <use x="322.208984" xlink:href="#DejaVuSans-80"/>
    </g>
   </g>
   <g id="text_14">
    <!-- FILT_HP -->
    <defs>
     <path d="M 9.8125 72.90625 
L 19.671875 72.90625 
L 19.671875 43.015625 
L 55.515625 43.015625 
L 55.515625 72.90625 
L 65.375 72.90625 
L 65.375 0 
L 55.515625 0 
L 55.515625 34.71875 
L 19.671875 34.71875 
L 19.671875 0 
L 9.8125 0 
z
" id="DejaVuSans-72"/>
    </defs>
    <g transform="translate(20.462344 184.848437)scale(0.14 -0.14)">
     <use xlink:href="#DejaVuSans-70"/>
     <use x="57.519531" xlink:href="#DejaVuSans-73"/>
     <use x="87.011719" xlink:href="#DejaVuSans-76"/>
     <use x="142.521484" xlink:href="#DejaVuSans-84"/>
     <use x="203.605469" xlink:href="#DejaVuSans-95"/>
     <use x="253.605469" xlink:href="#DejaVuSans-72"/>
     <use x="328.800781" xlink:href="#DejaVuSans-80"/>
    </g>
   </g>
   <g id="text_15">
    <!-- ADC -->
    <defs>
     <path d="M 19.671875 64.796875 
L 19.671875 8.109375 
L 31.59375 8.109375 
Q 46.6875 8.109375 53.6875 14.9375 
Q 60.6875 21.78125 60.6875 36.53125 
Q 60.6875 51.171875 53.6875 57.984375 
Q 46.6875 64.796875 31.59375 64.796875 
z
M 9.8125 72.90625 
L 30.078125 72.90625 
Q 51.265625 72.90625 61.171875 64.09375 
Q 71.09375 55.28125 71.09375 36.53125 
Q 71.09375 17.671875 61.125 8.828125 
Q 51.171875 0 30.078125 0 
L 9.8125 0 
z
" id="DejaVuSans-68"/>
    </defs>
    <g transform="translate(168.713594 185.237812)scale(0.14 -0.14)">
     <use xlink:href="#DejaVuSans-65"/>
     <use x="68.408203" xlink:href="#DejaVuSans-68"/>
     <use x="145.410156" xlink:href="#DejaVuSans-67"/>
    </g>
   </g>
   <g id="text_16">
    <!-- DAC -->
    <g transform="translate(298.315781 185.237812)scale(0.14 -0.14)">
     <use xlink:href="#DejaVuSans-68"/>
     <use x="76.986328" xlink:href="#DejaVuSans-65"/>
     <use x="145.378906" xlink:href="#DejaVuSans-67"/>
    </g>
   </g>
   <g id="text_17">
    <!-- DEMOD -->
    <g transform="translate(409.746875 185.237812)scale(0.14 -0.14)">
     <use xlink:href="#DejaVuSans-68"/>
     <use x="77.001953" xlink:href="#DejaVuSans-69"/>
     <use x="140.185547" xlink:href="#DejaVuSans-77"/>
     <use x="226.464844" xlink:href="#DejaVuSans-79"/>
     <use x="305.175781" xlink:href="#DejaVuSans-68"/>
    </g>
   </g>
  </g>
 </g>
 <defs>
  <clipPath id="pa55fc010a5">
   <rect height="220.41" width="469.8" x="7.2" y="9.789688"/>
  </clipPath>
 </defs>
</svg>
