<?xml version="1.0" encoding="utf-8" standalone="no"?>
<!DOCTYPE svg PUBLIC "-//W3C//DTD SVG 1.1//EN"
  "http://www.w3.org/Graphics/SVG/1.1/DTD/svg11.dtd">
<!-- Created with matplotlib (https://matplotlib.org/) -->
<svg height="236.431875pt" version="1.1" viewBox="0 0 484.2 236.431875" width="484.2pt" xmlns="http://www.w3.org/2000/svg" xmlns:xlink="http://www.w3.org/1999/xlink">
 <defs>
  <style type="text/css">
*{stroke-linecap:butt;stroke-linejoin:round;}
  </style>
 </defs>
 <g id="figure_1">
  <g id="patch_1">
   <path d="M 0 236.431875 
L 484.2 236.431875 
L 484.2 0 
L 0 0 
z
" style="fill:none;"/>
  </g>
  <g id="axes_1">
   <g id="patch_2">
    <path clip-path="url(#p4e83d1ca46)" d="M 177.3 49.276875 
C 181.59629 49.276875 185.717194 47.807015 188.75513 45.191015 
C 191.793066 42.575014 193.5 39.026458 193.5 35.326875 
C 193.5 31.627292 191.793066 28.078736 188.75513 25.462735 
C 185.717194 22.846735 181.59629 21.376875 177.3 21.376875 
C 173.00371 21.376875 168.882806 22.846735 165.84487 25.462735 
C 162.806934 28.078736 161.1 31.627292 161.1 35.326875 
C 161.1 39.026458 162.806934 42.575014 165.84487 45.191015 
C 168.882806 47.807015 173.00371 49.276875 177.3 49.276875 
z
" style="fill:none;stroke:#000000;stroke-linejoin:miter;stroke-width:1.5;"/>
   </g>
   <g id="patch_3">
    <path clip-path="url(#p4e83d1ca46)" d="M 306.9 49.276875 
C 311.19629 49.276875 315.317194 47.807015 318.35513 45.191015 
C 321.393066 42.575014 323.1 39.026458 323.1 35.326875 
C 323.1 31.627292 321.393066 28.078736 318.35513 25.462735 
C 315.317194 22.846735 311.19629 21.376875 306.9 21.376875 
C 302.60371 21.376875 298.482806 22.846735 295.44487 25.462735 
C 292.406934 28.078736 290.7 31.627292 290.7 35.326875 
C 290.7 39.026458 292.406934 42.575014 295.44487 45.191015 
C 298.482806 47.807015 302.60371 49.276875 306.9 49.276875 
z
" style="fill:none;stroke:#000000;stroke-linejoin:miter;stroke-width:1.5;"/>
   </g>
   <g id="patch_4">
    <path clip-path="url(#p4e83d1ca46)" d="M 436.5 49.276875 
C 440.79629 49.276875 444.917194 47.807015 447.95513 45.191015 
C 450.993066 42.575014 452.7 39.026458 452.7 35.326875 
C 452.7 31.627292 450.993066 28.078736 447.95513 25.462735 
C 444.917194 22.846735 440.79629 21.376875 436.5 21.376875 
C 432.20371 21.376875 428.082806 22.846735 425.04487 25.462735 
C 422.006934 28.078736 420.3 31.627292 420.3 35.326875 
C 420.3 39.026458 422.006934 42.575014 425.04487 45.191015 
C 428.082806 47.807015 432.20371 49.276875 436.5 49.276875 
z
" style="fill:none;stroke:#000000;stroke-linejoin:miter;stroke-width:1.5;"/>
   </g>
   <g id="patch_5">
    <path clip-path="url(#p4e83d1ca46)" d="M 47.7 105.076875 
C 51.99629 105.076875 56.117194 103.607015 59.15513 100.991015 
C 62.193066 98.375014 63.9 94.826458 63.9 91.126875 
C 63.9 87.427292 62.193066 83.878736 59.15513 81.262735 
C 56.117194 78.646735 51.99629 77.176875 47.7 77.176875 
C 43.40371 77.176875 39.282806 78.646735 36.24487 81.262735 
C 33.206934 83.878736 31.5 87.427292 31.5 91.126875 
C 31.5 94.826458 33.206934 98.375014 36.24487 100.991015 
C 39.282806 103.607015 43.40371 105.076875 47.7 105.076875 
z
" style="fill:none;stroke:#000000;stroke-linejoin:miter;stroke-width:1.5;"/>
   </g>
   <g id="patch_6">
    <path clip-path="url(#p4e83d1ca46)" d="M 47.7 160.876875 
C 51.99629 160.876875 56.117194 159.407015 59.15513 156.791015 
C 62.193066 154.175014 63.9 150.626458 63.9 146.926875 
C 63.9 143.227292 62.193066 139.678736 59.15513 137.062735 
C 56.117194 134.446735 51.99629 132.976875 47.7 132.976875 
C 43.40371 132.976875 39.282806 134.446735 36.24487 137.062735 
C 33.206934 139.678736 31.5 143.227292 31.5 146.926875 
C 31.5 150.626458 33.206934 154.175014 36.24487 156.791015 
C 39.282806 159.407015 43.40371 160.876875 47.7 160.876875 
z
" style="fill:none;stroke:#000000;stroke-linejoin:miter;stroke-width:1.5;"/>
   </g>
   <g id="patch_7">
    <path clip-path="url(#p4e83d1ca46)" d="M 442.98 202.726875 
L 430.02 195.751875 
L 430.02 209.701875 
z
" style="stroke:#000000;stroke-linejoin:miter;stroke-width:1.5;"/>
   </g>
   <g id="line2d_1">
    <path clip-path="url(#p4e83d1ca46)" d="M 31.5 35.326875 
L 31.5 21.376875 
L 63.9 21.376875 
L 63.9 49.276875 
L 31.5 49.276875 
L 31.5 35.326875 
" style="fill:none;stroke:#000000;stroke-linecap:round;stroke-width:1.5;"/>
   </g>
   <g id="line2d_2">
    <path clip-path="url(#p4e83d1ca46)" d="M 300.42 35.326875 
L 313.38 35.326875 
" style="fill:none;stroke:#000000;stroke-linecap:round;stroke-width:1.5;"/>
   </g>
   <g id="line2d_3">
    <path clip-path="url(#p4e83d1ca46)" d="M 306.9 29.746875 
L 306.9 40.906875 
" style="fill:none;stroke:#000000;stroke-linecap:round;stroke-width:1.5;"/>
   </g>
   <g id="line2d_4">
    <path clip-path="url(#p4e83d1ca46)" d="M 59.15513 100.991015 
L 36.24487 81.262735 
" style="fill:none;stroke:#000000;stroke-linecap:round;stroke-width:1.5;"/>
   </g>
   <g id="line2d_5">
    <path clip-path="url(#p4e83d1ca46)" d="M 59.15513 81.262735 
L 36.24487 100.991015 
" style="fill:none;stroke:#000000;stroke-linecap:round;stroke-width:1.5;"/>
   </g>
   <g id="line2d_6">
    <path clip-path="url(#p4e83d1ca46)" d="M 169.2 84.151875 
L 177.3 77.176875 
L 177.3 105.076875 
L 169.2 98.101875 
L 169.2 84.151875 
" style="fill:none;stroke:#000000;stroke-linecap:round;stroke-width:1.5;"/>
   </g>
   <g id="line2d_7">
    <path clip-path="url(#p4e83d1ca46)" d="M 161.1 91.126875 
L 161.1 84.151875 
L 169.2 84.151875 
L 169.2 98.101875 
L 161.1 98.101875 
L 161.1 91.126875 
" style="fill:none;stroke:#000000;stroke-linecap:round;stroke-width:1.5;"/>
   </g>
   <g id="line2d_8">
    <path clip-path="url(#p4e83d1ca46)" d="M 290.7 91.126875 
L 290.7 105.076875 
L 315 91.126875 
L 290.7 77.176875 
L 290.7 91.126875 
" style="fill:none;stroke:#000000;stroke-linecap:round;stroke-width:1.5;"/>
   </g>
   <g id="line2d_9">
    <path clip-path="url(#p4e83d1ca46)" d="M 420.3 91.126875 
L 420.3 77.176875 
L 452.7 77.176875 
L 452.7 105.076875 
L 420.3 105.076875 
L 420.3 91.126875 
" style="fill:none;stroke:#000000;stroke-linecap:round;stroke-width:1.5;"/>
   </g>
   <g id="line2d_10">
    <path clip-path="url(#p4e83d1ca46)" d="M 426.78 91.126875 
L 427.803158 90.220963 
L 428.826316 89.413222 
L 429.849474 88.791181 
L 430.872632 88.422248 
L 431.895789 88.346404 
L 432.918947 88.571867 
L 433.942105 89.074205 
L 434.965263 89.798982 
L 435.988421 90.667656 
L 437.011579 91.586094 
L 438.034737 92.454768 
L 439.057895 93.179545 
L 440.081053 93.681883 
L 441.104211 93.907346 
L 442.127368 93.831502 
L 443.150526 93.462569 
L 444.173684 92.840528 
L 445.196842 92.032787 
L 446.22 91.126875 
" style="fill:none;stroke:#000000;stroke-linecap:round;stroke-width:1.5;"/>
   </g>
   <g id="line2d_11">
    <path clip-path="url(#p4e83d1ca46)" d="M 37.98 146.926875 
L 39.003158 146.020963 
L 40.026316 145.213222 
L 41.049474 144.591181 
L 42.072632 144.222248 
L 43.095789 144.146404 
L 44.118947 144.371867 
L 45.142105 144.874205 
L 46.165263 145.598982 
L 47.188421 146.467656 
L 48.211579 147.386094 
L 49.234737 148.254768 
L 50.257895 148.979545 
L 51.281053 149.481883 
L 52.304211 149.707346 
L 53.327368 149.631502 
L 54.350526 149.262569 
L 55.373684 148.640528 
L 56.396842 147.832787 
L 57.42 146.926875 
" style="fill:none;stroke:#000000;stroke-linecap:round;stroke-width:1.5;"/>
   </g>
   <g id="line2d_12">
    <path clip-path="url(#p4e83d1ca46)" d="M 161.1 146.926875 
L 161.1 132.976875 
L 193.5 132.976875 
L 193.5 160.876875 
L 161.1 160.876875 
L 161.1 146.926875 
" style="fill:none;stroke:#000000;stroke-linecap:round;stroke-width:1.5;"/>
   </g>
   <g id="line2d_13">
    <path clip-path="url(#p4e83d1ca46)" d="M 167.58 146.926875 
L 168.603158 146.020963 
L 169.626316 145.213222 
L 170.649474 144.591181 
L 171.672632 144.222248 
L 172.695789 144.146404 
L 173.718947 144.371867 
L 174.742105 144.874205 
L 175.765263 145.598982 
L 176.788421 146.467656 
L 177.811579 147.386094 
L 178.834737 148.254768 
L 179.857895 148.979545 
L 180.881053 149.481883 
L 181.904211 149.707346 
L 182.927368 149.631502 
L 183.950526 149.262569 
L 184.973684 148.640528 
L 185.996842 147.832787 
L 187.02 146.926875 
" style="fill:none;stroke:#000000;stroke-linecap:round;stroke-width:1.5;"/>
   </g>
   <g id="line2d_14">
    <path clip-path="url(#p4e83d1ca46)" d="M 167.58 139.951875 
L 168.603158 139.045963 
L 169.626316 138.238222 
L 170.649474 137.616181 
L 171.672632 137.247248 
L 172.695789 137.171404 
L 173.718947 137.396867 
L 174.742105 137.899205 
L 175.765263 138.623982 
L 176.788421 139.492656 
L 177.811579 140.411094 
L 178.834737 141.279768 
L 179.857895 142.004545 
L 180.881053 142.506883 
L 181.904211 142.732346 
L 182.927368 142.656502 
L 183.950526 142.287569 
L 184.973684 141.665528 
L 185.996842 140.857787 
L 187.02 139.951875 
" style="fill:none;stroke:#000000;stroke-linecap:round;stroke-width:1.5;"/>
   </g>
   <g id="line2d_15">
    <path clip-path="url(#p4e83d1ca46)" d="M 167.58 153.901875 
L 168.603158 152.995963 
L 169.626316 152.188222 
L 170.649474 151.566181 
L 171.672632 151.197248 
L 172.695789 151.121404 
L 173.718947 151.346867 
L 174.742105 151.849205 
L 175.765263 152.573982 
L 176.788421 153.442656 
L 177.811579 154.361094 
L 178.834737 155.229768 
L 179.857895 155.954545 
L 180.881053 156.456883 
L 181.904211 156.682346 
L 182.927368 156.606502 
L 183.950526 156.237569 
L 184.973684 155.615528 
L 185.996842 154.807787 
L 187.02 153.901875 
" style="fill:none;stroke:#000000;stroke-linecap:round;stroke-width:1.5;"/>
   </g>
   <g id="line2d_16">
    <path clip-path="url(#p4e83d1ca46)" d="M 290.7 146.926875 
L 290.7 132.976875 
L 323.1 132.976875 
L 323.1 160.876875 
L 290.7 160.876875 
L 290.7 146.926875 
" style="fill:none;stroke:#000000;stroke-linecap:round;stroke-width:1.5;"/>
   </g>
   <g id="line2d_17">
    <path clip-path="url(#p4e83d1ca46)" d="M 305.28 142.183875 
L 308.52 137.719875 
" style="fill:none;stroke:#000000;stroke-linecap:round;stroke-width:1.5;"/>
   </g>
   <g id="line2d_18">
    <path clip-path="url(#p4e83d1ca46)" d="M 305.28 149.158875 
L 308.52 144.694875 
" style="fill:none;stroke:#000000;stroke-linecap:round;stroke-width:1.5;"/>
   </g>
   <g id="line2d_19">
    <path clip-path="url(#p4e83d1ca46)" d="M 297.18 146.926875 
L 298.203158 146.020963 
L 299.226316 145.213222 
L 300.249474 144.591181 
L 301.272632 144.222248 
L 302.295789 144.146404 
L 303.318947 144.371867 
L 304.342105 144.874205 
L 305.365263 145.598982 
L 306.388421 146.467656 
L 307.411579 147.386094 
L 308.434737 148.254768 
L 309.457895 148.979545 
L 310.481053 149.481883 
L 311.504211 149.707346 
L 312.527368 149.631502 
L 313.550526 149.262569 
L 314.573684 148.640528 
L 315.596842 147.832787 
L 316.62 146.926875 
" style="fill:none;stroke:#000000;stroke-linecap:round;stroke-width:1.5;"/>
   </g>
   <g id="line2d_20">
    <path clip-path="url(#p4e83d1ca46)" d="M 297.18 139.951875 
L 298.203158 139.045963 
L 299.226316 138.238222 
L 300.249474 137.616181 
L 301.272632 137.247248 
L 302.295789 137.171404 
L 303.318947 137.396867 
L 304.342105 137.899205 
L 305.365263 138.623982 
L 306.388421 139.492656 
L 307.411579 140.411094 
L 308.434737 141.279768 
L 309.457895 142.004545 
L 310.481053 142.506883 
L 311.504211 142.732346 
L 312.527368 142.656502 
L 313.550526 142.287569 
L 314.573684 141.665528 
L 315.596842 140.857787 
L 316.62 139.951875 
" style="fill:none;stroke:#000000;stroke-linecap:round;stroke-width:1.5;"/>
   </g>
   <g id="line2d_21">
    <path clip-path="url(#p4e83d1ca46)" d="M 297.18 153.901875 
L 298.203158 152.995963 
L 299.226316 152.188222 
L 300.249474 151.566181 
L 301.272632 151.197248 
L 302.295789 151.121404 
L 303.318947 151.346867 
L 304.342105 151.849205 
L 305.365263 152.573982 
L 306.388421 153.442656 
L 307.411579 154.361094 
L 308.434737 155.229768 
L 309.457895 155.954545 
L 310.481053 156.456883 
L 311.504211 156.682346 
L 312.527368 156.606502 
L 313.550526 156.237569 
L 314.573684 155.615528 
L 315.596842 154.807787 
L 316.62 153.901875 
" style="fill:none;stroke:#000000;stroke-linecap:round;stroke-width:1.5;"/>
   </g>
   <g id="line2d_22">
    <path clip-path="url(#p4e83d1ca46)" d="M 420.3 146.926875 
L 420.3 132.976875 
L 452.7 132.976875 
L 452.7 160.876875 
L 420.3 160.876875 
L 420.3 146.926875 
" style="fill:none;stroke:#000000;stroke-linecap:round;stroke-width:1.5;"/>
   </g>
   <g id="line2d_23">
    <path clip-path="url(#p4e83d1ca46)" d="M 434.88 142.183875 
L 438.12 137.719875 
" style="fill:none;stroke:#000000;stroke-linecap:round;stroke-width:1.5;"/>
   </g>
   <g id="line2d_24">
    <path clip-path="url(#p4e83d1ca46)" d="M 434.88 156.133875 
L 438.12 151.669875 
" style="fill:none;stroke:#000000;stroke-linecap:round;stroke-width:1.5;"/>
   </g>
   <g id="line2d_25">
    <path clip-path="url(#p4e83d1ca46)" d="M 426.78 146.926875 
L 427.803158 146.020963 
L 428.826316 145.213222 
L 429.849474 144.591181 
L 430.872632 144.222248 
L 431.895789 144.146404 
L 432.918947 144.371867 
L 433.942105 144.874205 
L 434.965263 145.598982 
L 435.988421 146.467656 
L 437.011579 147.386094 
L 438.034737 148.254768 
L 439.057895 148.979545 
L 440.081053 149.481883 
L 441.104211 149.707346 
L 442.127368 149.631502 
L 443.150526 149.262569 
L 444.173684 148.640528 
L 445.196842 147.832787 
L 446.22 146.926875 
" style="fill:none;stroke:#000000;stroke-linecap:round;stroke-width:1.5;"/>
   </g>
   <g id="line2d_26">
    <path clip-path="url(#p4e83d1ca46)" d="M 426.78 139.951875 
L 427.803158 139.045963 
L 428.826316 138.238222 
L 429.849474 137.616181 
L 430.872632 137.247248 
L 431.895789 137.171404 
L 432.918947 137.396867 
L 433.942105 137.899205 
L 434.965263 138.623982 
L 435.988421 139.492656 
L 437.011579 140.411094 
L 438.034737 141.279768 
L 439.057895 142.004545 
L 440.081053 142.506883 
L 441.104211 142.732346 
L 442.127368 142.656502 
L 443.150526 142.287569 
L 444.173684 141.665528 
L 445.196842 140.857787 
L 446.22 139.951875 
" style="fill:none;stroke:#000000;stroke-linecap:round;stroke-width:1.5;"/>
   </g>
   <g id="line2d_27">
    <path clip-path="url(#p4e83d1ca46)" d="M 426.78 153.901875 
L 427.803158 152.995963 
L 428.826316 152.188222 
L 429.849474 151.566181 
L 430.872632 151.197248 
L 431.895789 151.121404 
L 432.918947 151.346867 
L 433.942105 151.849205 
L 434.965263 152.573982 
L 435.988421 153.442656 
L 437.011579 154.361094 
L 438.034737 155.229768 
L 439.057895 155.954545 
L 440.081053 156.456883 
L 441.104211 156.682346 
L 442.127368 156.606502 
L 443.150526 156.237569 
L 444.173684 155.615528 
L 445.196842 154.807787 
L 446.22 153.901875 
" style="fill:none;stroke:#000000;stroke-linecap:round;stroke-width:1.5;"/>
   </g>
   <g id="line2d_28">
    <path clip-path="url(#p4e83d1ca46)" d="M 31.5 202.726875 
L 31.5 188.776875 
L 63.9 188.776875 
L 63.9 216.676875 
L 31.5 216.676875 
L 31.5 202.726875 
" style="fill:none;stroke:#000000;stroke-linecap:round;stroke-width:1.5;"/>
   </g>
   <g id="line2d_29">
    <path clip-path="url(#p4e83d1ca46)" d="M 46.08 204.958875 
L 49.32 200.494875 
" style="fill:none;stroke:#000000;stroke-linecap:round;stroke-width:1.5;"/>
   </g>
   <g id="line2d_30">
    <path clip-path="url(#p4e83d1ca46)" d="M 46.08 211.933875 
L 49.32 207.469875 
" style="fill:none;stroke:#000000;stroke-linecap:round;stroke-width:1.5;"/>
   </g>
   <g id="line2d_31">
    <path clip-path="url(#p4e83d1ca46)" d="M 37.98 202.726875 
L 39.003158 201.820963 
L 40.026316 201.013222 
L 41.049474 200.391181 
L 42.072632 200.022248 
L 43.095789 199.946404 
L 44.118947 200.171867 
L 45.142105 200.674205 
L 46.165263 201.398982 
L 47.188421 202.267656 
L 48.211579 203.186094 
L 49.234737 204.054768 
L 50.257895 204.779545 
L 51.281053 205.281883 
L 52.304211 205.507346 
L 53.327368 205.431502 
L 54.350526 205.062569 
L 55.373684 204.440528 
L 56.396842 203.632787 
L 57.42 202.726875 
" style="fill:none;stroke:#000000;stroke-linecap:round;stroke-width:1.5;"/>
   </g>
   <g id="line2d_32">
    <path clip-path="url(#p4e83d1ca46)" d="M 37.98 195.751875 
L 39.003158 194.845963 
L 40.026316 194.038222 
L 41.049474 193.416181 
L 42.072632 193.047248 
L 43.095789 192.971404 
L 44.118947 193.196867 
L 45.142105 193.699205 
L 46.165263 194.423982 
L 47.188421 195.292656 
L 48.211579 196.211094 
L 49.234737 197.079768 
L 50.257895 197.804545 
L 51.281053 198.306883 
L 52.304211 198.532346 
L 53.327368 198.456502 
L 54.350526 198.087569 
L 55.373684 197.465528 
L 56.396842 196.657787 
L 57.42 195.751875 
" style="fill:none;stroke:#000000;stroke-linecap:round;stroke-width:1.5;"/>
   </g>
   <g id="line2d_33">
    <path clip-path="url(#p4e83d1ca46)" d="M 37.98 209.701875 
L 39.003158 208.795963 
L 40.026316 207.988222 
L 41.049474 207.366181 
L 42.072632 206.997248 
L 43.095789 206.921404 
L 44.118947 207.146867 
L 45.142105 207.649205 
L 46.165263 208.373982 
L 47.188421 209.242656 
L 48.211579 210.161094 
L 49.234737 211.029768 
L 50.257895 211.754545 
L 51.281053 212.256883 
L 52.304211 212.482346 
L 53.327368 212.406502 
L 54.350526 212.037569 
L 55.373684 211.415528 
L 56.396842 210.607787 
L 57.42 209.701875 
" style="fill:none;stroke:#000000;stroke-linecap:round;stroke-width:1.5;"/>
   </g>
   <g id="line2d_34">
    <path clip-path="url(#p4e83d1ca46)" d="M 161.1 202.726875 
L 168.228 188.776875 
L 206.46 188.776875 
L 206.46 216.676875 
L 168.228 216.676875 
L 161.1 202.726875 
" style="fill:none;stroke:#000000;stroke-linecap:round;stroke-width:1.5;"/>
   </g>
   <g id="line2d_35">
    <path clip-path="url(#p4e83d1ca46)" d="M 290.7 202.726875 
L 290.7 188.776875 
L 328.932 188.776875 
L 336.06 202.726875 
L 328.932 216.676875 
L 290.7 216.676875 
L 290.7 202.726875 
" style="fill:none;stroke:#000000;stroke-linecap:round;stroke-width:1.5;"/>
   </g>
   <g id="line2d_36">
    <path clip-path="url(#p4e83d1ca46)" d="M 420.3 202.726875 
L 420.3 188.776875 
L 452.7 188.776875 
L 452.7 216.676875 
L 420.3 216.676875 
L 420.3 202.726875 
" style="fill:none;stroke:#000000;stroke-linecap:round;stroke-width:1.5;"/>
   </g>
   <g id="line2d_37">
    <path clip-path="url(#p4e83d1ca46)" d="M 425.16 202.726875 
L 447.84 202.726875 
" style="fill:none;stroke:#000000;stroke-linecap:round;stroke-width:1.5;"/>
   </g>
   <g id="line2d_38">
    <path clip-path="url(#p4e83d1ca46)" d="M 442.98 195.751875 
L 442.98 209.701875 
" style="fill:none;stroke:#000000;stroke-linecap:round;stroke-width:1.5;"/>
   </g>
   <g id="text_1">
    <!-- BOX -->
    <defs>
     <path d="M 19.671875 34.8125 
L 19.671875 8.109375 
L 35.5 8.109375 
Q 43.453125 8.109375 47.28125 11.40625 
Q 51.125 14.703125 51.125 21.484375 
Q 51.125 28.328125 47.28125 31.5625 
Q 43.453125 34.8125 35.5 34.8125 
z
M 19.671875 64.796875 
L 19.671875 42.828125 
L 34.28125 42.828125 
Q 41.5 42.828125 45.03125 45.53125 
Q 48.578125 48.25 48.578125 53.8125 
Q 48.578125 59.328125 45.03125 62.0625 
Q 41.5 64.796875 34.28125 64.796875 
z
M 9.8125 72.90625 
L 35.015625 72.90625 
Q 46.296875 72.90625 52.390625 68.21875 
Q 58.5 63.53125 58.5 54.890625 
Q 58.5 48.1875 55.375 44.234375 
Q 52.25 40.28125 46.1875 39.3125 
Q 53.46875 37.75 57.5 32.78125 
Q 61.53125 27.828125 61.53125 20.40625 
Q 61.53125 10.640625 54.890625 5.3125 
Q 48.25 0 35.984375 0 
L 9.8125 0 
z
" id="DejaVuSans-66"/>
     <path d="M 39.40625 66.21875 
Q 28.65625 66.21875 22.328125 58.203125 
Q 16.015625 50.203125 16.015625 36.375 
Q 16.015625 22.609375 22.328125 14.59375 
Q 28.65625 6.59375 39.40625 6.59375 
Q 50.140625 6.59375 56.421875 14.59375 
Q 62.703125 22.609375 62.703125 36.375 
Q 62.703125 50.203125 56.421875 58.203125 
Q 50.140625 66.21875 39.40625 66.21875 
z
M 39.40625 74.21875 
Q 54.734375 74.21875 63.90625 63.9375 
Q 73.09375 53.65625 73.09375 36.375 
Q 73.09375 19.140625 63.90625 8.859375 
Q 54.734375 -1.421875 39.40625 -1.421875 
Q 24.03125 -1.421875 14.8125 8.828125 
Q 5.609375 19.09375 5.609375 36.375 
Q 5.609375 53.65625 14.8125 63.9375 
Q 24.03125 74.21875 39.40625 74.21875 
z
" id="DejaVuSans-79"/>
     <path d="M 6.296875 72.90625 
L 16.890625 72.90625 
L 35.015625 45.796875 
L 53.21875 72.90625 
L 63.8125 72.90625 
L 40.375 37.890625 
L 65.375 0 
L 54.78125 0 
L 34.28125 31 
L 13.625 0 
L 2.984375 0 
L 29 38.921875 
z
" id="DejaVuSans-88"/>
    </defs>
    <g transform="translate(34.756875 16.318125)scale(0.12 -0.12)">
     <use xlink:href="#DejaVuSans-66"/>
     <use x="68.587891" xlink:href="#DejaVuSans-79"/>
     <use x="147.205078" xlink:href="#DejaVuSans-88"/>
    </g>
   </g>
   <g id="text_2">
    <!-- CIRCLE -->
    <defs>
     <path d="M 64.40625 67.28125 
L 64.40625 56.890625 
Q 59.421875 61.53125 53.78125 63.8125 
Q 48.140625 66.109375 41.796875 66.109375 
Q 29.296875 66.109375 22.65625 58.46875 
Q 16.015625 50.828125 16.015625 36.375 
Q 16.015625 21.96875 22.65625 14.328125 
Q 29.296875 6.6875 41.796875 6.6875 
Q 48.140625 6.6875 53.78125 8.984375 
Q 59.421875 11.28125 64.40625 15.921875 
L 64.40625 5.609375 
Q 59.234375 2.09375 53.4375 0.328125 
Q 47.65625 -1.421875 41.21875 -1.421875 
Q 24.65625 -1.421875 15.125 8.703125 
Q 5.609375 18.84375 5.609375 36.375 
Q 5.609375 53.953125 15.125 64.078125 
Q 24.65625 74.21875 41.21875 74.21875 
Q 47.75 74.21875 53.53125 72.484375 
Q 59.328125 70.75 64.40625 67.28125 
z
" id="DejaVuSans-67"/>
     <path d="M 9.8125 72.90625 
L 19.671875 72.90625 
L 19.671875 0 
L 9.8125 0 
z
" id="DejaVuSans-73"/>
     <path d="M 44.390625 34.1875 
Q 47.5625 33.109375 50.5625 29.59375 
Q 53.5625 26.078125 56.59375 19.921875 
L 66.609375 0 
L 56 0 
L 46.6875 18.703125 
Q 43.0625 26.03125 39.671875 28.421875 
Q 36.28125 30.8125 30.421875 30.8125 
L 19.671875 30.8125 
L 19.671875 0 
L 9.8125 0 
L 9.8125 72.90625 
L 32.078125 72.90625 
Q 44.578125 72.90625 50.734375 67.671875 
Q 56.890625 62.453125 56.890625 51.90625 
Q 56.890625 45.015625 53.6875 40.46875 
Q 50.484375 35.9375 44.390625 34.1875 
z
M 19.671875 64.796875 
L 19.671875 38.921875 
L 32.078125 38.921875 
Q 39.203125 38.921875 42.84375 42.21875 
Q 46.484375 45.515625 46.484375 51.90625 
Q 46.484375 58.296875 42.84375 61.546875 
Q 39.203125 64.796875 32.078125 64.796875 
z
" id="DejaVuSans-82"/>
     <path d="M 9.8125 72.90625 
L 19.671875 72.90625 
L 19.671875 8.296875 
L 55.171875 8.296875 
L 55.171875 0 
L 9.8125 0 
z
" id="DejaVuSans-76"/>
     <path d="M 9.8125 72.90625 
L 55.90625 72.90625 
L 55.90625 64.59375 
L 19.671875 64.59375 
L 19.671875 43.015625 
L 54.390625 43.015625 
L 54.390625 34.71875 
L 19.671875 34.71875 
L 19.671875 8.296875 
L 56.78125 8.296875 
L 56.78125 0 
L 9.8125 0 
z
" id="DejaVuSans-69"/>
    </defs>
    <g transform="translate(155.851875 16.318125)scale(0.12 -0.12)">
     <use xlink:href="#DejaVuSans-67"/>
     <use x="69.824219" xlink:href="#DejaVuSans-73"/>
     <use x="99.316406" xlink:href="#DejaVuSans-82"/>
     <use x="168.720703" xlink:href="#DejaVuSans-67"/>
     <use x="238.544922" xlink:href="#DejaVuSans-76"/>
     <use x="294.257812" xlink:href="#DejaVuSans-69"/>
    </g>
   </g>
   <g id="text_3">
    <!-- SUM -->
    <defs>
     <path d="M 53.515625 70.515625 
L 53.515625 60.890625 
Q 47.90625 63.578125 42.921875 64.890625 
Q 37.9375 66.21875 33.296875 66.21875 
Q 25.25 66.21875 20.875 63.09375 
Q 16.5 59.96875 16.5 54.203125 
Q 16.5 49.359375 19.40625 46.890625 
Q 22.3125 44.4375 30.421875 42.921875 
L 36.375 41.703125 
Q 47.40625 39.59375 52.65625 34.296875 
Q 57.90625 29 57.90625 20.125 
Q 57.90625 9.515625 50.796875 4.046875 
Q 43.703125 -1.421875 29.984375 -1.421875 
Q 24.8125 -1.421875 18.96875 -0.25 
Q 13.140625 0.921875 6.890625 3.21875 
L 6.890625 13.375 
Q 12.890625 10.015625 18.65625 8.296875 
Q 24.421875 6.59375 29.984375 6.59375 
Q 38.421875 6.59375 43.015625 9.90625 
Q 47.609375 13.234375 47.609375 19.390625 
Q 47.609375 24.75 44.3125 27.78125 
Q 41.015625 30.8125 33.5 32.328125 
L 27.484375 33.5 
Q 16.453125 35.6875 11.515625 40.375 
Q 6.59375 45.0625 6.59375 53.421875 
Q 6.59375 63.09375 13.40625 68.65625 
Q 20.21875 74.21875 32.171875 74.21875 
Q 37.3125 74.21875 42.625 73.28125 
Q 47.953125 72.359375 53.515625 70.515625 
z
" id="DejaVuSans-83"/>
     <path d="M 8.6875 72.90625 
L 18.609375 72.90625 
L 18.609375 28.609375 
Q 18.609375 16.890625 22.84375 11.734375 
Q 27.09375 6.59375 36.625 6.59375 
Q 46.09375 6.59375 50.34375 11.734375 
Q 54.59375 16.890625 54.59375 28.609375 
L 54.59375 72.90625 
L 64.5 72.90625 
L 64.5 27.390625 
Q 64.5 13.140625 57.4375 5.859375 
Q 50.390625 -1.421875 36.625 -1.421875 
Q 22.796875 -1.421875 15.734375 5.859375 
Q 8.6875 13.140625 8.6875 27.390625 
z
" id="DejaVuSans-85"/>
     <path d="M 9.8125 72.90625 
L 24.515625 72.90625 
L 43.109375 23.296875 
L 61.8125 72.90625 
L 76.515625 72.90625 
L 76.515625 0 
L 66.890625 0 
L 66.890625 64.015625 
L 48.09375 14.015625 
L 38.1875 14.015625 
L 19.390625 64.015625 
L 19.390625 0 
L 9.8125 0 
z
" id="DejaVuSans-77"/>
    </defs>
    <g transform="translate(293.522813 16.318125)scale(0.12 -0.12)">
     <use xlink:href="#DejaVuSans-83"/>
     <use x="63.476562" xlink:href="#DejaVuSans-85"/>
     <use x="136.669922" xlink:href="#DejaVuSans-77"/>
    </g>
   </g>
   <g id="text_4">
    <!-- SUMSIGMA -->
    <defs>
     <path d="M 59.515625 10.40625 
L 59.515625 29.984375 
L 43.40625 29.984375 
L 43.40625 38.09375 
L 69.28125 38.09375 
L 69.28125 6.78125 
Q 63.578125 2.734375 56.6875 0.65625 
Q 49.8125 -1.421875 42 -1.421875 
Q 24.90625 -1.421875 15.25 8.5625 
Q 5.609375 18.5625 5.609375 36.375 
Q 5.609375 54.25 15.25 64.234375 
Q 24.90625 74.21875 42 74.21875 
Q 49.125 74.21875 55.546875 72.453125 
Q 61.96875 70.703125 67.390625 67.28125 
L 67.390625 56.78125 
Q 61.921875 61.421875 55.765625 63.765625 
Q 49.609375 66.109375 42.828125 66.109375 
Q 29.4375 66.109375 22.71875 58.640625 
Q 16.015625 51.171875 16.015625 36.375 
Q 16.015625 21.625 22.71875 14.15625 
Q 29.4375 6.6875 42.828125 6.6875 
Q 48.046875 6.6875 52.140625 7.59375 
Q 56.25 8.5 59.515625 10.40625 
z
" id="DejaVuSans-71"/>
     <path d="M 34.1875 63.1875 
L 20.796875 26.90625 
L 47.609375 26.90625 
z
M 28.609375 72.90625 
L 39.796875 72.90625 
L 67.578125 0 
L 57.328125 0 
L 50.6875 18.703125 
L 17.828125 18.703125 
L 11.1875 0 
L 0.78125 0 
z
" id="DejaVuSans-65"/>
    </defs>
    <g transform="translate(403.613438 16.318125)scale(0.12 -0.12)">
     <use xlink:href="#DejaVuSans-83"/>
     <use x="63.476562" xlink:href="#DejaVuSans-85"/>
     <use x="136.669922" xlink:href="#DejaVuSans-77"/>
     <use x="222.949219" xlink:href="#DejaVuSans-83"/>
     <use x="286.425781" xlink:href="#DejaVuSans-73"/>
     <use x="315.917969" xlink:href="#DejaVuSans-71"/>
     <use x="393.408203" xlink:href="#DejaVuSans-77"/>
     <use x="479.6875" xlink:href="#DejaVuSans-65"/>
    </g>
   </g>
   <g id="text_5">
    <!-- $\Sigma$ -->
    <defs>
     <path d="M 21.140625 8.296875 
L 56.78125 8.296875 
L 56.78125 0 
L 9.8125 0 
L 9.8125 8.296875 
L 33.203125 38.765625 
L 9.8125 64.59375 
L 9.8125 72.90625 
L 55.90625 72.90625 
L 55.90625 64.59375 
L 21.140625 64.59375 
L 44.53125 38.96875 
z
" id="DejaVuSans-931"/>
    </defs>
    <g transform="translate(431.04 38.638125)scale(0.12 -0.12)">
     <use transform="translate(0 0.09375)" xlink:href="#DejaVuSans-931"/>
    </g>
   </g>
   <g id="text_6">
    <!-- MIX -->
    <g transform="translate(36.643125 72.118125)scale(0.12 -0.12)">
     <use xlink:href="#DejaVuSans-77"/>
     <use x="86.279297" xlink:href="#DejaVuSans-73"/>
     <use x="115.771484" xlink:href="#DejaVuSans-88"/>
    </g>
   </g>
   <g id="text_7">
    <!-- SPEAKER1 -->
    <defs>
     <path d="M 19.671875 64.796875 
L 19.671875 37.40625 
L 32.078125 37.40625 
Q 38.96875 37.40625 42.71875 40.96875 
Q 46.484375 44.53125 46.484375 51.125 
Q 46.484375 57.671875 42.71875 61.234375 
Q 38.96875 64.796875 32.078125 64.796875 
z
M 9.8125 72.90625 
L 32.078125 72.90625 
Q 44.34375 72.90625 50.609375 67.359375 
Q 56.890625 61.8125 56.890625 51.125 
Q 56.890625 40.328125 50.609375 34.8125 
Q 44.34375 29.296875 32.078125 29.296875 
L 19.671875 29.296875 
L 19.671875 0 
L 9.8125 0 
z
" id="DejaVuSans-80"/>
     <path d="M 9.8125 72.90625 
L 19.671875 72.90625 
L 19.671875 42.09375 
L 52.390625 72.90625 
L 65.09375 72.90625 
L 28.90625 38.921875 
L 67.671875 0 
L 54.6875 0 
L 19.671875 35.109375 
L 19.671875 0 
L 9.8125 0 
z
" id="DejaVuSans-75"/>
     <path d="M 12.40625 8.296875 
L 28.515625 8.296875 
L 28.515625 63.921875 
L 10.984375 60.40625 
L 10.984375 69.390625 
L 28.421875 72.90625 
L 38.28125 72.90625 
L 38.28125 8.296875 
L 54.390625 8.296875 
L 54.390625 0 
L 12.40625 0 
z
" id="DejaVuSans-49"/>
    </defs>
    <g transform="translate(138.165 72.118125)scale(0.12 -0.12)">
     <use xlink:href="#DejaVuSans-83"/>
     <use x="63.476562" xlink:href="#DejaVuSans-80"/>
     <use x="123.779297" xlink:href="#DejaVuSans-69"/>
     <use x="186.962891" xlink:href="#DejaVuSans-65"/>
     <use x="255.371094" xlink:href="#DejaVuSans-75"/>
     <use x="320.947266" xlink:href="#DejaVuSans-69"/>
     <use x="384.130859" xlink:href="#DejaVuSans-82"/>
     <use x="453.613281" xlink:href="#DejaVuSans-49"/>
    </g>
   </g>
   <g id="text_8">
    <!-- AMP -->
    <g transform="translate(289.950938 72.118125)scale(0.12 -0.12)">
     <use xlink:href="#DejaVuSans-65"/>
     <use x="68.408203" xlink:href="#DejaVuSans-77"/>
     <use x="154.6875" xlink:href="#DejaVuSans-80"/>
    </g>
   </g>
   <g id="text_9">
    <!-- OSCBOX -->
    <g transform="translate(410.835 72.118125)scale(0.12 -0.12)">
     <use xlink:href="#DejaVuSans-79"/>
     <use x="78.710938" xlink:href="#DejaVuSans-83"/>
     <use x="142.1875" xlink:href="#DejaVuSans-67"/>
     <use x="212.011719" xlink:href="#DejaVuSans-66"/>
     <use x="280.599609" xlink:href="#DejaVuSans-79"/>
     <use x="359.216797" xlink:href="#DejaVuSans-88"/>
    </g>
   </g>
   <g id="text_10">
    <!-- OSC -->
    <g transform="translate(34.978125 127.918125)scale(0.12 -0.12)">
     <use xlink:href="#DejaVuSans-79"/>
     <use x="78.710938" xlink:href="#DejaVuSans-83"/>
     <use x="142.1875" xlink:href="#DejaVuSans-67"/>
    </g>
   </g>
   <g id="text_11">
    <!-- FILT -->
    <defs>
     <path d="M 9.8125 72.90625 
L 51.703125 72.90625 
L 51.703125 64.59375 
L 19.671875 64.59375 
L 19.671875 43.109375 
L 48.578125 43.109375 
L 48.578125 34.8125 
L 19.671875 34.8125 
L 19.671875 0 
L 9.8125 0 
z
" id="DejaVuSans-70"/>
     <path d="M -0.296875 72.90625 
L 61.375 72.90625 
L 61.375 64.59375 
L 35.5 64.59375 
L 35.5 0 
L 25.59375 0 
L 25.59375 64.59375 
L -0.296875 64.59375 
z
" id="DejaVuSans-84"/>
    </defs>
    <g transform="translate(165.083437 127.918125)scale(0.12 -0.12)">
     <use xlink:href="#DejaVuSans-70"/>
     <use x="57.519531" xlink:href="#DejaVuSans-73"/>
     <use x="87.011719" xlink:href="#DejaVuSans-76"/>
     <use x="142.521484" xlink:href="#DejaVuSans-84"/>
    </g>
   </g>
   <g id="text_12">
    <!-- FILT_LP -->
    <defs>
     <path d="M 50.984375 -16.609375 
L 50.984375 -23.578125 
L -0.984375 -23.578125 
L -0.984375 -16.609375 
z
" id="DejaVuSans-95"/>
    </defs>
    <g transform="translate(284.7225 127.584375)scale(0.12 -0.12)">
     <use xlink:href="#DejaVuSans-70"/>
     <use x="57.519531" xlink:href="#DejaVuSans-73"/>
     <use x="87.011719" xlink:href="#DejaVuSans-76"/>
     <use x="142.521484" xlink:href="#DejaVuSans-84"/>
     <use x="203.605469" xlink:href="#DejaVuSans-95"/>
     <use x="253.605469" xlink:href="#DejaVuSans-76"/>
     <use x="309.318359" xlink:href="#DejaVuSans-80"/>
    </g>
   </g>
   <g id="text_13">
    <!-- FILT_BP -->
    <g transform="translate(413.549062 127.584375)scale(0.12 -0.12)">
     <use xlink:href="#DejaVuSans-70"/>
     <use x="57.519531" xlink:href="#DejaVuSans-73"/>
     <use x="87.011719" xlink:href="#DejaVuSans-76"/>
     <use x="142.521484" xlink:href="#DejaVuSans-84"/>
     <use x="203.605469" xlink:href="#DejaVuSans-95"/>
     <use x="253.605469" xlink:href="#DejaVuSans-66"/>
     <use x="322.208984" xlink:href="#DejaVuSans-80"/>
    </g>
   </g>
   <g id="text_14">
    <!-- FILT_HP -->
    <defs>
     <path d="M 9.8125 72.90625 
L 19.671875 72.90625 
L 19.671875 43.015625 
L 55.515625 43.015625 
L 55.515625 72.90625 
L 65.375 72.90625 
L 65.375 0 
L 55.515625 0 
L 55.515625 34.71875 
L 19.671875 34.71875 
L 19.671875 0 
L 9.8125 0 
z
" id="DejaVuSans-72"/>
    </defs>
    <g transform="translate(24.353438 183.384375)scale(0.12 -0.12)">
     <use xlink:href="#DejaVuSans-70"/>
     <use x="57.519531" xlink:href="#DejaVuSans-73"/>
     <use x="87.011719" xlink:href="#DejaVuSans-76"/>
     <use x="142.521484" xlink:href="#DejaVuSans-84"/>
     <use x="203.605469" xlink:href="#DejaVuSans-95"/>
     <use x="253.605469" xlink:href="#DejaVuSans-72"/>
     <use x="328.800781" xlink:href="#DejaVuSans-80"/>
    </g>
   </g>
   <g id="text_15">
    <!-- ADC -->
    <defs>
     <path d="M 19.671875 64.796875 
L 19.671875 8.109375 
L 31.59375 8.109375 
Q 46.6875 8.109375 53.6875 14.9375 
Q 60.6875 21.78125 60.6875 36.53125 
Q 60.6875 51.171875 53.6875 57.984375 
Q 46.6875 64.796875 31.59375 64.796875 
z
M 9.8125 72.90625 
L 30.078125 72.90625 
Q 51.265625 72.90625 61.171875 64.09375 
Q 71.09375 55.28125 71.09375 36.53125 
Q 71.09375 17.671875 61.125 8.828125 
Q 51.171875 0 30.078125 0 
L 9.8125 0 
z
" id="DejaVuSans-68"/>
    </defs>
    <g transform="translate(170.865938 183.718125)scale(0.12 -0.12)">
     <use xlink:href="#DejaVuSans-65"/>
     <use x="68.408203" xlink:href="#DejaVuSans-68"/>
     <use x="145.410156" xlink:href="#DejaVuSans-67"/>
    </g>
   </g>
   <g id="text_16">
    <!-- DAC -->
    <g transform="translate(300.467812 183.718125)scale(0.12 -0.12)">
     <use xlink:href="#DejaVuSans-68"/>
     <use x="76.986328" xlink:href="#DejaVuSans-65"/>
     <use x="145.378906" xlink:href="#DejaVuSans-67"/>
    </g>
   </g>
   <g id="text_17">
    <!-- DEMOD -->
    <g transform="translate(413.56875 183.718125)scale(0.12 -0.12)">
     <use xlink:href="#DejaVuSans-68"/>
     <use x="77.001953" xlink:href="#DejaVuSans-69"/>
     <use x="140.185547" xlink:href="#DejaVuSans-77"/>
     <use x="226.464844" xlink:href="#DejaVuSans-79"/>
     <use x="305.175781" xlink:href="#DejaVuSans-68"/>
    </g>
   </g>
  </g>
 </g>
 <defs>
  <clipPath id="p4e83d1ca46">
   <rect height="220.41" width="469.8" x="7.2" y="8.821875"/>
  </clipPath>
 </defs>
</svg>
