<?xml version="1.0" encoding="utf-8" standalone="no"?>
<!DOCTYPE svg PUBLIC "-//W3C//DTD SVG 1.1//EN"
  "http://www.w3.org/Graphics/SVG/1.1/DTD/svg11.dtd">
<!-- Created with matplotlib (http://matplotlib.org/) -->
<svg height="165.665875pt" version="1.1" viewBox="0 0 459.7615 165.665875" width="459.7615pt" xmlns="http://www.w3.org/2000/svg" xmlns:xlink="http://www.w3.org/1999/xlink">
 <defs>
  <style type="text/css">
*{stroke-linecap:butt;stroke-linejoin:round;}
  </style>
 </defs>
 <g id="figure_1">
  <g id="patch_1">
   <path d="M 0 165.665875 
L 459.7615 165.665875 
L 459.7615 0 
L 0 0 
z
" style="fill:none;"/>
  </g>
  <g id="axes_1">
   <g id="patch_2">
    <path clip-path="url(#pe71ef5f367)" d="M 262.64 123.125 
L 261.02 117.545 
L 262.6238 117.545 
L 262.6238 109.175 
L 262.6562 109.175 
L 262.6562 117.545 
L 264.26 117.545 
z
" style="stroke:#000000;stroke-linejoin:miter;stroke-width:1.5;"/>
   </g>
   <g id="line2d_1">
    <path clip-path="url(#pe71ef5f367)" d="M 68.24 32.45 
L 68.24 46.4 
L 76.34 48.725 
L 60.14 53.375 
L 76.34 58.025 
L 60.14 62.675 
L 76.34 67.325 
L 60.14 71.975 
L 68.24 74.3 
L 68.24 88.25 
" style="fill:none;stroke:#000000;stroke-linecap:round;stroke-width:1.5;"/>
   </g>
   <g id="line2d_2">
    <path clip-path="url(#pe71ef5f367)" d="M 68.24 144.05 
L 68.24 130.1 
L 68.24 130.1 
M 68.24 102.2 
L 68.24 102.2 
L 68.24 88.25 
" style="fill:none;stroke:#000000;stroke-linecap:round;stroke-width:1.5;"/>
   </g>
   <g id="line2d_3">
    <path clip-path="url(#pe71ef5f367)" d="M 65 123.125 
L 71.48 123.125 
" style="fill:none;stroke:#000000;stroke-linecap:round;stroke-width:1.5;"/>
   </g>
   <g id="line2d_4">
    <path clip-path="url(#pe71ef5f367)" d="M 68.24 111.965 
L 68.24 106.385 
" style="fill:none;stroke:#000000;stroke-linecap:round;stroke-width:1.5;"/>
   </g>
   <g id="line2d_5">
    <path clip-path="url(#pe71ef5f367)" d="M 65 109.175 
L 71.48 109.175 
" style="fill:none;stroke:#000000;stroke-linecap:round;stroke-width:1.5;"/>
   </g>
   <g id="line2d_6">
    <path clip-path="url(#pe71ef5f367)" d="M 68.24 144.05 
L 116.84 144.05 
L 165.44 144.05 
" style="fill:none;stroke:#000000;stroke-linecap:round;stroke-width:1.5;"/>
   </g>
   <g id="line2d_7">
    <path clip-path="url(#pe71ef5f367)" d="M 165.44 144.05 
" style="fill:none;stroke:#000000;stroke-linecap:round;stroke-width:1.5;"/>
   </g>
   <g id="line2d_8">
    <path clip-path="url(#pe71ef5f367)" d="M 68.24 32.45 
L 116.84 32.45 
L 165.44 32.45 
" style="fill:none;stroke:#000000;stroke-linecap:round;stroke-width:1.5;"/>
   </g>
   <g id="line2d_9">
    <path clip-path="url(#pe71ef5f367)" d="M 165.44 32.45 
" style="fill:none;stroke:#000000;stroke-linecap:round;stroke-width:1.5;"/>
   </g>
   <g id="line2d_10">
    <path clip-path="url(#pe71ef5f367)" d="M 165.44 88.25 
L 165.44 74.3 
L 165.44 74.3 
M 165.44 46.4 
L 165.44 46.4 
L 165.44 32.45 
" style="fill:none;stroke:#000000;stroke-linecap:round;stroke-width:1.5;"/>
   </g>
   <g id="line2d_11">
    <path clip-path="url(#pe71ef5f367)" d="M 162.2 67.325 
L 168.68 67.325 
" style="fill:none;stroke:#000000;stroke-linecap:round;stroke-width:1.5;"/>
   </g>
   <g id="line2d_12">
    <path clip-path="url(#pe71ef5f367)" d="M 165.44 56.165 
L 165.44 50.585 
" style="fill:none;stroke:#000000;stroke-linecap:round;stroke-width:1.5;"/>
   </g>
   <g id="line2d_13">
    <path clip-path="url(#pe71ef5f367)" d="M 162.2 53.375 
L 168.68 53.375 
" style="fill:none;stroke:#000000;stroke-linecap:round;stroke-width:1.5;"/>
   </g>
   <g id="line2d_14">
    <path clip-path="url(#pe71ef5f367)" d="M 165.44 88.25 
L 165.44 102.2 
L 173.54 104.525 
L 157.34 109.175 
L 173.54 113.825 
L 157.34 118.475 
L 173.54 123.125 
L 157.34 127.775 
L 165.44 130.1 
L 165.44 144.05 
" style="fill:none;stroke:#000000;stroke-linecap:round;stroke-width:1.5;"/>
   </g>
   <g id="line2d_15">
    <path clip-path="url(#pe71ef5f367)" d="M 165.44 144.05 
" style="fill:none;stroke:#000000;stroke-linecap:round;stroke-width:1.5;"/>
   </g>
   <g id="line2d_16">
    <path clip-path="url(#pe71ef5f367)" d="M 165.44 144.05 
L 214.04 144.05 
L 262.64 144.05 
" style="fill:none;stroke:#000000;stroke-linecap:round;stroke-width:1.5;"/>
   </g>
   <g id="line2d_17">
    <path clip-path="url(#pe71ef5f367)" d="M 262.64 144.05 
L 262.64 130.1 
L 262.64 130.1 
M 262.64 102.2 
L 262.64 102.2 
L 262.64 88.25 
" style="fill:none;stroke:#000000;stroke-linecap:round;stroke-width:1.5;"/>
   </g>
   <g id="line2d_18">
    <path clip-path="url(#pe71ef5f367)" d="M 262.64 88.25 
L 262.64 74.3 
L 254.54 71.975 
L 270.74 67.325 
L 254.54 62.675 
L 270.74 58.025 
L 254.54 53.375 
L 270.74 48.725 
L 262.64 46.4 
L 262.64 32.45 
" style="fill:none;stroke:#000000;stroke-linecap:round;stroke-width:1.5;"/>
   </g>
   <g id="line2d_19">
    <path clip-path="url(#pe71ef5f367)" d="M 262.64 32.45 
" style="fill:none;stroke:#000000;stroke-linecap:round;stroke-width:1.5;"/>
   </g>
   <g id="line2d_20">
    <path clip-path="url(#pe71ef5f367)" d="M 262.64 32.45 
L 214.04 32.45 
L 165.44 32.45 
" style="fill:none;stroke:#000000;stroke-linecap:round;stroke-width:1.5;"/>
   </g>
   <g id="line2d_21">
    <path clip-path="url(#pe71ef5f367)" d="M 262.64 32.45 
L 311.24 32.45 
L 359.84 32.45 
" style="fill:none;stroke:#000000;stroke-linecap:round;stroke-width:1.5;"/>
   </g>
   <g id="line2d_22">
    <path clip-path="url(#pe71ef5f367)" d="M 359.84 32.45 
" style="fill:none;stroke:#000000;stroke-linecap:round;stroke-width:1.5;"/>
   </g>
   <g id="line2d_23">
    <path clip-path="url(#pe71ef5f367)" d="M 359.84 32.45 
L 359.84 74.3 
L 367.94 76.625 
L 351.74 81.275 
L 367.94 85.925 
L 351.74 90.575 
L 367.94 95.225 
L 351.74 99.875 
L 359.84 102.2 
L 359.84 144.05 
" style="fill:none;stroke:#000000;stroke-linecap:round;stroke-width:1.5;"/>
   </g>
   <g id="line2d_24">
    <path clip-path="url(#pe71ef5f367)" d="M 359.84 144.05 
" style="fill:none;stroke:#000000;stroke-linecap:round;stroke-width:1.5;"/>
   </g>
   <g id="line2d_25">
    <path clip-path="url(#pe71ef5f367)" d="M 359.84 144.05 
L 311.24 144.05 
L 262.64 144.05 
" style="fill:none;stroke:#000000;stroke-linecap:round;stroke-width:1.5;"/>
   </g>
   <g id="line2d_26">
    <path clip-path="url(#pe71ef5f367)" d="M 359.84 32.45 
L 376.04 32.45 
L 378.74 25.475 
L 384.14 39.425 
L 389.54 25.475 
L 394.94 39.425 
L 400.34 25.475 
L 405.74 39.425 
L 408.44 32.45 
L 424.64 32.45 
" style="fill:none;stroke:#000000;stroke-linecap:round;stroke-width:1.5;"/>
   </g>
   <g id="line2d_27">
    <path clip-path="url(#pe71ef5f367)" d="M 424.64 32.45 
" style="fill:none;stroke:#000000;stroke-linecap:round;stroke-width:1.5;"/>
   </g>
   <g id="line2d_28">
    <path clip-path="url(#pe71ef5f367)" d="M 359.84 144.05 
L 392.24 144.05 
L 424.64 144.05 
" style="fill:none;stroke:#000000;stroke-linecap:round;stroke-width:1.5;"/>
   </g>
   <g id="line2d_29">
    <path clip-path="url(#pe71ef5f367)" d="M 424.64 144.05 
" style="fill:none;stroke:#000000;stroke-linecap:round;stroke-width:1.5;"/>
   </g>
   <g id="patch_3">
    <path clip-path="url(#pe71ef5f367)" d="M 68.24 130.1 
C 72.53629 130.1 76.657194 128.63014 79.69513 126.01414 
C 82.733066 123.398139 84.44 119.849583 84.44 116.15 
C 84.44 112.450417 82.733066 108.901861 79.69513 106.28586 
C 76.657194 103.66986 72.53629 102.2 68.24 102.2 
C 63.94371 102.2 59.822806 103.66986 56.78487 106.28586 
C 53.746934 108.901861 52.04 112.450417 52.04 116.15 
C 52.04 119.849583 53.746934 123.398139 56.78487 126.01414 
C 59.822806 128.63014 63.94371 130.1 68.24 130.1 
z
" style="fill:none;stroke:#000000;stroke-linejoin:miter;stroke-width:1.5;"/>
   </g>
   <g id="patch_4">
    <path clip-path="url(#pe71ef5f367)" d="M 165.44 146.1425 
C 166.084444 146.1425 166.702579 145.922021 167.158269 145.529621 
C 167.61396 145.137221 167.87 144.604937 167.87 144.05 
C 167.87 143.495063 167.61396 142.962779 167.158269 142.570379 
C 166.702579 142.177979 166.084444 141.9575 165.44 141.9575 
C 164.795556 141.9575 164.177421 142.177979 163.721731 142.570379 
C 163.26604 142.962779 163.01 143.495063 163.01 144.05 
C 163.01 144.604937 163.26604 145.137221 163.721731 145.529621 
C 164.177421 145.922021 164.795556 146.1425 165.44 146.1425 
z
" style="stroke:#000000;stroke-linejoin:miter;stroke-width:1.5;"/>
   </g>
   <g id="patch_5">
    <path clip-path="url(#pe71ef5f367)" d="M 165.44 34.5425 
C 166.084444 34.5425 166.702579 34.322021 167.158269 33.929621 
C 167.61396 33.537221 167.87 33.004937 167.87 32.45 
C 167.87 31.895063 167.61396 31.362779 167.158269 30.970379 
C 166.702579 30.577979 166.084444 30.3575 165.44 30.3575 
C 164.795556 30.3575 164.177421 30.577979 163.721731 30.970379 
C 163.26604 31.362779 163.01 31.895063 163.01 32.45 
C 163.01 33.004937 163.26604 33.537221 163.721731 33.929621 
C 164.177421 34.322021 164.795556 34.5425 165.44 34.5425 
z
" style="stroke:#000000;stroke-linejoin:miter;stroke-width:1.5;"/>
   </g>
   <g id="patch_6">
    <path clip-path="url(#pe71ef5f367)" d="M 165.44 74.3 
C 169.73629 74.3 173.857194 72.83014 176.89513 70.21414 
C 179.933066 67.598139 181.64 64.049583 181.64 60.35 
C 181.64 56.650417 179.933066 53.101861 176.89513 50.48586 
C 173.857194 47.86986 169.73629 46.4 165.44 46.4 
C 161.14371 46.4 157.022806 47.86986 153.98487 50.48586 
C 150.946934 53.101861 149.24 56.650417 149.24 60.35 
C 149.24 64.049583 150.946934 67.598139 153.98487 70.21414 
C 157.022806 72.83014 161.14371 74.3 165.44 74.3 
z
" style="fill:none;stroke:#000000;stroke-linejoin:miter;stroke-width:1.5;"/>
   </g>
   <g id="patch_7">
    <path clip-path="url(#pe71ef5f367)" d="M 165.44 146.1425 
C 166.084444 146.1425 166.702579 145.922021 167.158269 145.529621 
C 167.61396 145.137221 167.87 144.604937 167.87 144.05 
C 167.87 143.495063 167.61396 142.962779 167.158269 142.570379 
C 166.702579 142.177979 166.084444 141.9575 165.44 141.9575 
C 164.795556 141.9575 164.177421 142.177979 163.721731 142.570379 
C 163.26604 142.962779 163.01 143.495063 163.01 144.05 
C 163.01 144.604937 163.26604 145.137221 163.721731 145.529621 
C 164.177421 145.922021 164.795556 146.1425 165.44 146.1425 
z
" style="stroke:#000000;stroke-linejoin:miter;stroke-width:1.5;"/>
   </g>
   <g id="patch_8">
    <path clip-path="url(#pe71ef5f367)" d="M 262.64 130.1 
C 266.93629 130.1 271.057194 128.63014 274.09513 126.01414 
C 277.133066 123.398139 278.84 119.849583 278.84 116.15 
C 278.84 112.450417 277.133066 108.901861 274.09513 106.28586 
C 271.057194 103.66986 266.93629 102.2 262.64 102.2 
C 258.34371 102.2 254.222806 103.66986 251.18487 106.28586 
C 248.146934 108.901861 246.44 112.450417 246.44 116.15 
C 246.44 119.849583 248.146934 123.398139 251.18487 126.01414 
C 254.222806 128.63014 258.34371 130.1 262.64 130.1 
z
" style="fill:none;stroke:#000000;stroke-linejoin:miter;stroke-width:1.5;"/>
   </g>
   <g id="patch_9">
    <path clip-path="url(#pe71ef5f367)" d="M 262.64 34.5425 
C 263.284444 34.5425 263.902579 34.322021 264.358269 33.929621 
C 264.81396 33.537221 265.07 33.004937 265.07 32.45 
C 265.07 31.895063 264.81396 31.362779 264.358269 30.970379 
C 263.902579 30.577979 263.284444 30.3575 262.64 30.3575 
C 261.995556 30.3575 261.377421 30.577979 260.921731 30.970379 
C 260.46604 31.362779 260.21 31.895063 260.21 32.45 
C 260.21 33.004937 260.46604 33.537221 260.921731 33.929621 
C 261.377421 34.322021 261.995556 34.5425 262.64 34.5425 
z
" style="stroke:#000000;stroke-linejoin:miter;stroke-width:1.5;"/>
   </g>
   <g id="patch_10">
    <path clip-path="url(#pe71ef5f367)" d="M 359.84 34.5425 
C 360.484444 34.5425 361.102579 34.322021 361.558269 33.929621 
C 362.01396 33.537221 362.27 33.004937 362.27 32.45 
C 362.27 31.895063 362.01396 31.362779 361.558269 30.970379 
C 361.102579 30.577979 360.484444 30.3575 359.84 30.3575 
C 359.195556 30.3575 358.577421 30.577979 358.121731 30.970379 
C 357.66604 31.362779 357.41 31.895063 357.41 32.45 
C 357.41 33.004937 357.66604 33.537221 358.121731 33.929621 
C 358.577421 34.322021 359.195556 34.5425 359.84 34.5425 
z
" style="stroke:#000000;stroke-linejoin:miter;stroke-width:1.5;"/>
   </g>
   <g id="patch_11">
    <path clip-path="url(#pe71ef5f367)" d="M 359.84 146.1425 
C 360.484444 146.1425 361.102579 145.922021 361.558269 145.529621 
C 362.01396 145.137221 362.27 144.604937 362.27 144.05 
C 362.27 143.495063 362.01396 142.962779 361.558269 142.570379 
C 361.102579 142.177979 360.484444 141.9575 359.84 141.9575 
C 359.195556 141.9575 358.577421 142.177979 358.121731 142.570379 
C 357.66604 142.962779 357.41 143.495063 357.41 144.05 
C 357.41 144.604937 357.66604 145.137221 358.121731 145.529621 
C 358.577421 145.922021 359.195556 146.1425 359.84 146.1425 
z
" style="stroke:#000000;stroke-linejoin:miter;stroke-width:1.5;"/>
   </g>
   <g id="patch_12">
    <path clip-path="url(#pe71ef5f367)" d="M 424.64 34.5425 
C 425.284444 34.5425 425.902579 34.322021 426.358269 33.929621 
C 426.81396 33.537221 427.07 33.004937 427.07 32.45 
C 427.07 31.895063 426.81396 31.362779 426.358269 30.970379 
C 425.902579 30.577979 425.284444 30.3575 424.64 30.3575 
C 423.995556 30.3575 423.377421 30.577979 422.921731 30.970379 
C 422.46604 31.362779 422.21 31.895063 422.21 32.45 
C 422.21 33.004937 422.46604 33.537221 422.921731 33.929621 
C 423.377421 34.322021 423.995556 34.5425 424.64 34.5425 
z
" style="stroke:#000000;stroke-linejoin:miter;stroke-width:1.5;"/>
   </g>
   <g id="patch_13">
    <path clip-path="url(#pe71ef5f367)" d="M 424.64 146.1425 
C 425.284444 146.1425 425.902579 145.922021 426.358269 145.529621 
C 426.81396 145.137221 427.07 144.604937 427.07 144.05 
C 427.07 143.495063 426.81396 142.962779 426.358269 142.570379 
C 425.902579 142.177979 425.284444 141.9575 424.64 141.9575 
C 423.995556 141.9575 423.377421 142.177979 422.921731 142.570379 
C 422.46604 142.962779 422.21 143.495063 422.21 144.05 
C 422.21 144.604937 422.46604 145.137221 422.921731 145.529621 
C 423.377421 145.922021 423.995556 146.1425 424.64 146.1425 
z
" style="stroke:#000000;stroke-linejoin:miter;stroke-width:1.5;"/>
   </g>
   <g id="text_1">
    <!-- 20$\Omega$ -->
    <defs>
     <path d="M 19.1875 8.296875 
L 53.609375 8.296875 
L 53.609375 0 
L 7.328125 0 
L 7.328125 8.296875 
Q 12.9375 14.109375 22.625 23.890625 
Q 32.328125 33.6875 34.8125 36.53125 
Q 39.546875 41.84375 41.421875 45.53125 
Q 43.3125 49.21875 43.3125 52.78125 
Q 43.3125 58.59375 39.234375 62.25 
Q 35.15625 65.921875 28.609375 65.921875 
Q 23.96875 65.921875 18.8125 64.3125 
Q 13.671875 62.703125 7.8125 59.421875 
L 7.8125 69.390625 
Q 13.765625 71.78125 18.9375 73 
Q 24.125 74.21875 28.421875 74.21875 
Q 39.75 74.21875 46.484375 68.546875 
Q 53.21875 62.890625 53.21875 53.421875 
Q 53.21875 48.921875 51.53125 44.890625 
Q 49.859375 40.875 45.40625 35.40625 
Q 44.1875 33.984375 37.640625 27.21875 
Q 31.109375 20.453125 19.1875 8.296875 
z
" id="DejaVuSans-32"/>
     <path d="M 31.78125 66.40625 
Q 24.171875 66.40625 20.328125 58.90625 
Q 16.5 51.421875 16.5 36.375 
Q 16.5 21.390625 20.328125 13.890625 
Q 24.171875 6.390625 31.78125 6.390625 
Q 39.453125 6.390625 43.28125 13.890625 
Q 47.125 21.390625 47.125 36.375 
Q 47.125 51.421875 43.28125 58.90625 
Q 39.453125 66.40625 31.78125 66.40625 
z
M 31.78125 74.21875 
Q 44.046875 74.21875 50.515625 64.515625 
Q 56.984375 54.828125 56.984375 36.375 
Q 56.984375 17.96875 50.515625 8.265625 
Q 44.046875 -1.421875 31.78125 -1.421875 
Q 19.53125 -1.421875 13.0625 8.265625 
Q 6.59375 17.96875 6.59375 36.375 
Q 6.59375 54.828125 13.0625 64.515625 
Q 19.53125 74.21875 31.78125 74.21875 
z
" id="DejaVuSans-30"/>
     <path d="M 72.609375 8.6875 
L 72.609375 0 
L 43.3125 0 
L 43.3125 8.6875 
Q 51.953125 13.421875 56.78125 21.53125 
Q 61.625 29.640625 61.625 39.5 
Q 61.625 51.21875 55.171875 58.296875 
Q 48.734375 65.375 38.1875 65.375 
Q 27.640625 65.375 21.171875 58.265625 
Q 14.703125 51.171875 14.703125 39.5 
Q 14.703125 29.640625 19.53125 21.53125 
Q 24.421875 13.421875 33.109375 8.6875 
L 33.109375 0 
L 3.8125 0 
L 3.8125 8.6875 
L 19.390625 8.6875 
Q 11.671875 15.484375 8.109375 22.75 
Q 4.59375 30.03125 4.59375 39.015625 
Q 4.59375 54.546875 13.96875 64.15625 
Q 23.296875 73.78125 38.1875 73.78125 
Q 52.984375 73.78125 62.40625 64.15625 
Q 71.78125 54.59375 71.78125 39.5 
Q 71.78125 30.03125 68.3125 22.796875 
Q 64.84375 15.578125 56.984375 8.6875 
z
" id="DejaVuSans-3a9"/>
    </defs>
    <g transform="translate(24.26 64.765)scale(0.16 -0.16)">
     <use transform="translate(0 0.78125)" xlink:href="#DejaVuSans-32"/>
     <use transform="translate(63.623047 0.78125)" xlink:href="#DejaVuSans-30"/>
     <use transform="translate(127.246094 0.78125)" xlink:href="#DejaVuSans-3a9"/>
    </g>
   </g>
   <g id="text_2">
    <!-- $120V$ -->
    <defs>
     <path d="M 12.40625 8.296875 
L 28.515625 8.296875 
L 28.515625 63.921875 
L 10.984375 60.40625 
L 10.984375 69.390625 
L 28.421875 72.90625 
L 38.28125 72.90625 
L 38.28125 8.296875 
L 54.390625 8.296875 
L 54.390625 0 
L 12.40625 0 
z
" id="DejaVuSans-31"/>
     <path d="M 28.609375 0 
L 0.78125 72.90625 
L 11.078125 72.90625 
L 34.1875 11.53125 
L 57.328125 72.90625 
L 67.578125 72.90625 
L 39.796875 0 
z
" id="DejaVuSans-56"/>
    </defs>
    <g transform="translate(7.2 120.565)scale(0.16 -0.16)">
     <use transform="translate(0 0.78125)" xlink:href="#DejaVuSans-31"/>
     <use transform="translate(63.623047 0.78125)" xlink:href="#DejaVuSans-32"/>
     <use transform="translate(127.246094 0.78125)" xlink:href="#DejaVuSans-30"/>
     <use transform="translate(190.869141 0.78125)" xlink:href="#DejaVuSans-56"/>
    </g>
   </g>
   <g id="text_3">
    <!-- $60V$ -->
    <defs>
     <path d="M 33.015625 40.375 
Q 26.375 40.375 22.484375 35.828125 
Q 18.609375 31.296875 18.609375 23.390625 
Q 18.609375 15.53125 22.484375 10.953125 
Q 26.375 6.390625 33.015625 6.390625 
Q 39.65625 6.390625 43.53125 10.953125 
Q 47.40625 15.53125 47.40625 23.390625 
Q 47.40625 31.296875 43.53125 35.828125 
Q 39.65625 40.375 33.015625 40.375 
z
M 52.59375 71.296875 
L 52.59375 62.3125 
Q 48.875 64.0625 45.09375 64.984375 
Q 41.3125 65.921875 37.59375 65.921875 
Q 27.828125 65.921875 22.671875 59.328125 
Q 17.53125 52.734375 16.796875 39.40625 
Q 19.671875 43.65625 24.015625 45.921875 
Q 28.375 48.1875 33.59375 48.1875 
Q 44.578125 48.1875 50.953125 41.515625 
Q 57.328125 34.859375 57.328125 23.390625 
Q 57.328125 12.15625 50.6875 5.359375 
Q 44.046875 -1.421875 33.015625 -1.421875 
Q 20.359375 -1.421875 13.671875 8.265625 
Q 6.984375 17.96875 6.984375 36.375 
Q 6.984375 53.65625 15.1875 63.9375 
Q 23.390625 74.21875 37.203125 74.21875 
Q 40.921875 74.21875 44.703125 73.484375 
Q 48.484375 72.75 52.59375 71.296875 
z
" id="DejaVuSans-36"/>
    </defs>
    <g transform="translate(114.64 64.765)scale(0.16 -0.16)">
     <use transform="translate(0 0.78125)" xlink:href="#DejaVuSans-36"/>
     <use transform="translate(63.623047 0.78125)" xlink:href="#DejaVuSans-30"/>
     <use transform="translate(127.246094 0.78125)" xlink:href="#DejaVuSans-56"/>
    </g>
   </g>
   <g id="text_4">
    <!-- 5$\Omega$ -->
    <defs>
     <path d="M 10.796875 72.90625 
L 49.515625 72.90625 
L 49.515625 64.59375 
L 19.828125 64.59375 
L 19.828125 46.734375 
Q 21.96875 47.46875 24.109375 47.828125 
Q 26.265625 48.1875 28.421875 48.1875 
Q 40.625 48.1875 47.75 41.5 
Q 54.890625 34.8125 54.890625 23.390625 
Q 54.890625 11.625 47.5625 5.09375 
Q 40.234375 -1.421875 26.90625 -1.421875 
Q 22.3125 -1.421875 17.546875 -0.640625 
Q 12.796875 0.140625 7.71875 1.703125 
L 7.71875 11.625 
Q 12.109375 9.234375 16.796875 8.0625 
Q 21.484375 6.890625 26.703125 6.890625 
Q 35.15625 6.890625 40.078125 11.328125 
Q 45.015625 15.765625 45.015625 23.390625 
Q 45.015625 31 40.078125 35.4375 
Q 35.15625 39.890625 26.703125 39.890625 
Q 22.75 39.890625 18.8125 39.015625 
Q 14.890625 38.140625 10.796875 36.28125 
z
" id="DejaVuSans-35"/>
    </defs>
    <g transform="translate(131.54 120.565)scale(0.16 -0.16)">
     <use transform="translate(0 0.21875)" xlink:href="#DejaVuSans-35"/>
     <use transform="translate(63.623047 0.21875)" xlink:href="#DejaVuSans-3a9"/>
    </g>
   </g>
   <g id="text_5">
    <!-- $36A$ -->
    <defs>
     <path d="M 40.578125 39.3125 
Q 47.65625 37.796875 51.625 33 
Q 55.609375 28.21875 55.609375 21.1875 
Q 55.609375 10.40625 48.1875 4.484375 
Q 40.765625 -1.421875 27.09375 -1.421875 
Q 22.515625 -1.421875 17.65625 -0.515625 
Q 12.796875 0.390625 7.625 2.203125 
L 7.625 11.71875 
Q 11.71875 9.328125 16.59375 8.109375 
Q 21.484375 6.890625 26.8125 6.890625 
Q 36.078125 6.890625 40.9375 10.546875 
Q 45.796875 14.203125 45.796875 21.1875 
Q 45.796875 27.640625 41.28125 31.265625 
Q 36.765625 34.90625 28.71875 34.90625 
L 20.21875 34.90625 
L 20.21875 43.015625 
L 29.109375 43.015625 
Q 36.375 43.015625 40.234375 45.921875 
Q 44.09375 48.828125 44.09375 54.296875 
Q 44.09375 59.90625 40.109375 62.90625 
Q 36.140625 65.921875 28.71875 65.921875 
Q 24.65625 65.921875 20.015625 65.03125 
Q 15.375 64.15625 9.8125 62.3125 
L 9.8125 71.09375 
Q 15.4375 72.65625 20.34375 73.4375 
Q 25.25 74.21875 29.59375 74.21875 
Q 40.828125 74.21875 47.359375 69.109375 
Q 53.90625 64.015625 53.90625 55.328125 
Q 53.90625 49.265625 50.4375 45.09375 
Q 46.96875 40.921875 40.578125 39.3125 
z
" id="DejaVuSans-33"/>
     <path d="M 34.1875 63.1875 
L 20.796875 26.90625 
L 47.609375 26.90625 
z
M 28.609375 72.90625 
L 39.796875 72.90625 
L 67.578125 0 
L 57.328125 0 
L 50.6875 18.703125 
L 17.828125 18.703125 
L 11.1875 0 
L 0.78125 0 
z
" id="DejaVuSans-41"/>
    </defs>
    <g transform="translate(211.84 120.565)scale(0.16 -0.16)">
     <use transform="translate(0 0.78125)" xlink:href="#DejaVuSans-33"/>
     <use transform="translate(63.623047 0.78125)" xlink:href="#DejaVuSans-36"/>
     <use transform="translate(127.246094 0.78125)" xlink:href="#DejaVuSans-41"/>
    </g>
   </g>
   <g id="text_6">
    <!-- 10$\Omega$ -->
    <g transform="translate(218.66 64.765)scale(0.16 -0.16)">
     <use transform="translate(0 0.78125)" xlink:href="#DejaVuSans-31"/>
     <use transform="translate(63.623047 0.78125)" xlink:href="#DejaVuSans-30"/>
     <use transform="translate(127.246094 0.78125)" xlink:href="#DejaVuSans-3a9"/>
    </g>
   </g>
   <g id="text_7">
    <!-- 6$\Omega$ -->
    <g transform="translate(325.94 92.665)scale(0.16 -0.16)">
     <use transform="translate(0 0.78125)" xlink:href="#DejaVuSans-36"/>
     <use transform="translate(63.623047 0.78125)" xlink:href="#DejaVuSans-3a9"/>
    </g>
   </g>
   <g id="text_8">
    <!-- 1.6$\Omega$ -->
    <defs>
     <path d="M 10.6875 12.40625 
L 21 12.40625 
L 21 0 
L 10.6875 0 
z
" id="DejaVuSans-2e"/>
    </defs>
    <g transform="translate(373.36 19.3575)scale(0.16 -0.16)">
     <use transform="translate(0 0.78125)" xlink:href="#DejaVuSans-31"/>
     <use transform="translate(63.623047 0.78125)" xlink:href="#DejaVuSans-2e"/>
     <use transform="translate(95.410156 0.78125)" xlink:href="#DejaVuSans-36"/>
     <use transform="translate(159.033203 0.78125)" xlink:href="#DejaVuSans-3a9"/>
    </g>
   </g>
   <g id="text_9">
    <!-- a -->
    <defs>
     <path d="M 34.28125 27.484375 
Q 23.390625 27.484375 19.1875 25 
Q 14.984375 22.515625 14.984375 16.5 
Q 14.984375 11.71875 18.140625 8.90625 
Q 21.296875 6.109375 26.703125 6.109375 
Q 34.1875 6.109375 38.703125 11.40625 
Q 43.21875 16.703125 43.21875 25.484375 
L 43.21875 27.484375 
z
M 52.203125 31.203125 
L 52.203125 0 
L 43.21875 0 
L 43.21875 8.296875 
Q 40.140625 3.328125 35.546875 0.953125 
Q 30.953125 -1.421875 24.3125 -1.421875 
Q 15.921875 -1.421875 10.953125 3.296875 
Q 6 8.015625 6 15.921875 
Q 6 25.140625 12.171875 29.828125 
Q 18.359375 34.515625 30.609375 34.515625 
L 43.21875 34.515625 
L 43.21875 35.40625 
Q 43.21875 41.609375 39.140625 45 
Q 35.0625 48.390625 27.6875 48.390625 
Q 23 48.390625 18.546875 47.265625 
Q 14.109375 46.140625 10.015625 43.890625 
L 10.015625 52.203125 
Q 14.9375 54.109375 19.578125 55.046875 
Q 24.21875 56 28.609375 56 
Q 40.484375 56 46.34375 49.84375 
Q 52.203125 43.703125 52.203125 31.203125 
z
" id="DejaVuSans-61"/>
    </defs>
    <g transform="translate(419.7375 24.24)scale(0.16 -0.16)">
     <use xlink:href="#DejaVuSans-61"/>
    </g>
   </g>
   <g id="text_10">
    <!-- b -->
    <defs>
     <path d="M 48.6875 27.296875 
Q 48.6875 37.203125 44.609375 42.84375 
Q 40.53125 48.484375 33.40625 48.484375 
Q 26.265625 48.484375 22.1875 42.84375 
Q 18.109375 37.203125 18.109375 27.296875 
Q 18.109375 17.390625 22.1875 11.75 
Q 26.265625 6.109375 33.40625 6.109375 
Q 40.53125 6.109375 44.609375 11.75 
Q 48.6875 17.390625 48.6875 27.296875 
z
M 18.109375 46.390625 
Q 20.953125 51.265625 25.265625 53.625 
Q 29.59375 56 35.59375 56 
Q 45.5625 56 51.78125 48.09375 
Q 58.015625 40.1875 58.015625 27.296875 
Q 58.015625 14.40625 51.78125 6.484375 
Q 45.5625 -1.421875 35.59375 -1.421875 
Q 29.59375 -1.421875 25.265625 0.953125 
Q 20.953125 3.328125 18.109375 8.203125 
L 18.109375 0 
L 9.078125 0 
L 9.078125 75.984375 
L 18.109375 75.984375 
z
" id="DejaVuSans-62"/>
    </defs>
    <g transform="translate(419.56125 135.84)scale(0.16 -0.16)">
     <use xlink:href="#DejaVuSans-62"/>
    </g>
   </g>
  </g>
 </g>
 <defs>
  <clipPath id="pe71ef5f367">
   <rect height="138.31425" width="419.013" x="30.0485" y="16.651625"/>
  </clipPath>
 </defs>
</svg>
