<?xml version="1.0" encoding="utf-8" standalone="no"?>
<!DOCTYPE svg PUBLIC "-//W3C//DTD SVG 1.1//EN"
  "http://www.w3.org/Graphics/SVG/1.1/DTD/svg11.dtd">
<!-- Created with matplotlib (https://matplotlib.org/) -->
<svg height="160.23025pt" version="1.1" viewBox="0 0 451.0615 160.23025" width="451.0615pt" xmlns="http://www.w3.org/2000/svg" xmlns:xlink="http://www.w3.org/1999/xlink">
 <defs>
  <style type="text/css">
*{stroke-linecap:butt;stroke-linejoin:round;white-space:pre;}
  </style>
 </defs>
 <g id="figure_1">
  <g id="patch_1">
   <path d="M 0 160.23025 
L 451.0615 160.23025 
L 451.0615 0 
L 0 0 
z
" style="fill:none;"/>
  </g>
  <g id="axes_1">
   <g id="patch_2">
    <path clip-path="url(#pa4ac6dae50)" d="M 63.04 128.164375 
C 67.33629 128.164375 71.457194 126.694515 74.49513 124.078515 
C 77.533066 121.462514 79.24 117.913958 79.24 114.214375 
C 79.24 110.514792 77.533066 106.966236 74.49513 104.350235 
C 71.457194 101.734235 67.33629 100.264375 63.04 100.264375 
C 58.74371 100.264375 54.622806 101.734235 51.58487 104.350235 
C 48.546934 106.966236 46.84 110.514792 46.84 114.214375 
C 46.84 117.913958 48.546934 121.462514 51.58487 124.078515 
C 54.622806 126.694515 58.74371 128.164375 63.04 128.164375 
z
" style="fill:none;stroke:#000000;stroke-linejoin:miter;stroke-width:2;"/>
   </g>
   <g id="patch_3">
    <path clip-path="url(#pa4ac6dae50)" d="M 160.24 144.206875 
C 160.884444 144.206875 161.502579 143.986396 161.958269 143.593996 
C 162.41396 143.201596 162.67 142.669312 162.67 142.114375 
C 162.67 141.559438 162.41396 141.027154 161.958269 140.634754 
C 161.502579 140.242354 160.884444 140.021875 160.24 140.021875 
C 159.595556 140.021875 158.977421 140.242354 158.521731 140.634754 
C 158.06604 141.027154 157.81 141.559438 157.81 142.114375 
C 157.81 142.669312 158.06604 143.201596 158.521731 143.593996 
C 158.977421 143.986396 159.595556 144.206875 160.24 144.206875 
z
" style="stroke:#000000;stroke-linejoin:miter;stroke-width:2;"/>
   </g>
   <g id="patch_4">
    <path clip-path="url(#pa4ac6dae50)" d="M 160.24 32.606875 
C 160.884444 32.606875 161.502579 32.386396 161.958269 31.993996 
C 162.41396 31.601596 162.67 31.069312 162.67 30.514375 
C 162.67 29.959438 162.41396 29.427154 161.958269 29.034754 
C 161.502579 28.642354 160.884444 28.421875 160.24 28.421875 
C 159.595556 28.421875 158.977421 28.642354 158.521731 29.034754 
C 158.06604 29.427154 157.81 29.959438 157.81 30.514375 
C 157.81 31.069312 158.06604 31.601596 158.521731 31.993996 
C 158.977421 32.386396 159.595556 32.606875 160.24 32.606875 
z
" style="stroke:#000000;stroke-linejoin:miter;stroke-width:2;"/>
   </g>
   <g id="patch_5">
    <path clip-path="url(#pa4ac6dae50)" d="M 160.24 72.364375 
C 164.53629 72.364375 168.657194 70.894515 171.69513 68.278515 
C 174.733066 65.662514 176.44 62.113958 176.44 58.414375 
C 176.44 54.714792 174.733066 51.166236 171.69513 48.550235 
C 168.657194 45.934235 164.53629 44.464375 160.24 44.464375 
C 155.94371 44.464375 151.822806 45.934235 148.78487 48.550235 
C 145.746934 51.166236 144.04 54.714792 144.04 58.414375 
C 144.04 62.113958 145.746934 65.662514 148.78487 68.278515 
C 151.822806 70.894515 155.94371 72.364375 160.24 72.364375 
z
" style="fill:none;stroke:#000000;stroke-linejoin:miter;stroke-width:2;"/>
   </g>
   <g id="patch_6">
    <path clip-path="url(#pa4ac6dae50)" d="M 160.24 144.206875 
C 160.884444 144.206875 161.502579 143.986396 161.958269 143.593996 
C 162.41396 143.201596 162.67 142.669312 162.67 142.114375 
C 162.67 141.559438 162.41396 141.027154 161.958269 140.634754 
C 161.502579 140.242354 160.884444 140.021875 160.24 140.021875 
C 159.595556 140.021875 158.977421 140.242354 158.521731 140.634754 
C 158.06604 141.027154 157.81 141.559438 157.81 142.114375 
C 157.81 142.669312 158.06604 143.201596 158.521731 143.593996 
C 158.977421 143.986396 159.595556 144.206875 160.24 144.206875 
z
" style="stroke:#000000;stroke-linejoin:miter;stroke-width:2;"/>
   </g>
   <g id="patch_7">
    <path clip-path="url(#pa4ac6dae50)" d="M 257.44 128.164375 
C 261.73629 128.164375 265.857194 126.694515 268.89513 124.078515 
C 271.933066 121.462514 273.64 117.913958 273.64 114.214375 
C 273.64 110.514792 271.933066 106.966236 268.89513 104.350235 
C 265.857194 101.734235 261.73629 100.264375 257.44 100.264375 
C 253.14371 100.264375 249.022806 101.734235 245.98487 104.350235 
C 242.946934 106.966236 241.24 110.514792 241.24 114.214375 
C 241.24 117.913958 242.946934 121.462514 245.98487 124.078515 
C 249.022806 126.694515 253.14371 128.164375 257.44 128.164375 
z
" style="fill:none;stroke:#000000;stroke-linejoin:miter;stroke-width:2;"/>
   </g>
   <g id="patch_8">
    <path clip-path="url(#pa4ac6dae50)" d="M 257.44 32.606875 
C 258.084444 32.606875 258.702579 32.386396 259.158269 31.993996 
C 259.61396 31.601596 259.87 31.069312 259.87 30.514375 
C 259.87 29.959438 259.61396 29.427154 259.158269 29.034754 
C 258.702579 28.642354 258.084444 28.421875 257.44 28.421875 
C 256.795556 28.421875 256.177421 28.642354 255.721731 29.034754 
C 255.26604 29.427154 255.01 29.959438 255.01 30.514375 
C 255.01 31.069312 255.26604 31.601596 255.721731 31.993996 
C 256.177421 32.386396 256.795556 32.606875 257.44 32.606875 
z
" style="stroke:#000000;stroke-linejoin:miter;stroke-width:2;"/>
   </g>
   <g id="patch_9">
    <path clip-path="url(#pa4ac6dae50)" d="M 354.64 32.606875 
C 355.284444 32.606875 355.902579 32.386396 356.358269 31.993996 
C 356.81396 31.601596 357.07 31.069312 357.07 30.514375 
C 357.07 29.959438 356.81396 29.427154 356.358269 29.034754 
C 355.902579 28.642354 355.284444 28.421875 354.64 28.421875 
C 353.995556 28.421875 353.377421 28.642354 352.921731 29.034754 
C 352.46604 29.427154 352.21 29.959438 352.21 30.514375 
C 352.21 31.069312 352.46604 31.601596 352.921731 31.993996 
C 353.377421 32.386396 353.995556 32.606875 354.64 32.606875 
z
" style="stroke:#000000;stroke-linejoin:miter;stroke-width:2;"/>
   </g>
   <g id="patch_10">
    <path clip-path="url(#pa4ac6dae50)" d="M 354.64 88.406875 
C 355.284444 88.406875 355.902579 88.186396 356.358269 87.793996 
C 356.81396 87.401596 357.07 86.869312 357.07 86.314375 
C 357.07 85.759438 356.81396 85.227154 356.358269 84.834754 
C 355.902579 84.442354 355.284444 84.221875 354.64 84.221875 
C 353.995556 84.221875 353.377421 84.442354 352.921731 84.834754 
C 352.46604 85.227154 352.21 85.759438 352.21 86.314375 
C 352.21 86.869312 352.46604 87.401596 352.921731 87.793996 
C 353.377421 88.186396 353.995556 88.406875 354.64 88.406875 
z
" style="stroke:#000000;stroke-linejoin:miter;stroke-width:2;"/>
   </g>
   <g id="patch_11">
    <path clip-path="url(#pa4ac6dae50)" d="M 419.44 32.606875 
C 420.084444 32.606875 420.702579 32.386396 421.158269 31.993996 
C 421.61396 31.601596 421.87 31.069312 421.87 30.514375 
C 421.87 29.959438 421.61396 29.427154 421.158269 29.034754 
C 420.702579 28.642354 420.084444 28.421875 419.44 28.421875 
C 418.795556 28.421875 418.177421 28.642354 417.721731 29.034754 
C 417.26604 29.427154 417.01 29.959438 417.01 30.514375 
C 417.01 31.069312 417.26604 31.601596 417.721731 31.993996 
C 418.177421 32.386396 418.795556 32.606875 419.44 32.606875 
z
" style="stroke:#000000;stroke-linejoin:miter;stroke-width:2;"/>
   </g>
   <g id="patch_12">
    <path clip-path="url(#pa4ac6dae50)" d="M 419.44 88.406875 
C 420.084444 88.406875 420.702579 88.186396 421.158269 87.793996 
C 421.61396 87.401596 421.87 86.869312 421.87 86.314375 
C 421.87 85.759438 421.61396 85.227154 421.158269 84.834754 
C 420.702579 84.442354 420.084444 84.221875 419.44 84.221875 
C 418.795556 84.221875 418.177421 84.442354 417.721731 84.834754 
C 417.26604 85.227154 417.01 85.759438 417.01 86.314375 
C 417.01 86.869312 417.26604 87.401596 417.721731 87.793996 
C 418.177421 88.186396 418.795556 88.406875 419.44 88.406875 
z
" style="stroke:#000000;stroke-linejoin:miter;stroke-width:2;"/>
   </g>
   <g id="patch_13">
    <path clip-path="url(#pa4ac6dae50)" d="M 257.44 107.239375 
L 259.06 112.819375 
L 257.4562 112.819375 
L 257.4562 121.189375 
L 257.4238 121.189375 
L 257.4238 112.819375 
L 255.82 112.819375 
z
" style="stroke:#000000;stroke-linejoin:miter;stroke-width:2;"/>
   </g>
   <g id="line2d_1">
    <path clip-path="url(#pa4ac6dae50)" d="M 63.04 30.514375 
L 63.04 44.464375 
L 71.14 46.789375 
L 54.94 51.439375 
L 71.14 56.089375 
L 54.94 60.739375 
L 71.14 65.389375 
L 54.94 70.039375 
L 63.04 72.364375 
L 63.04 86.314375 
" style="fill:none;stroke:#000000;stroke-linecap:round;stroke-width:2;"/>
   </g>
   <g id="line2d_2">
    <path clip-path="url(#pa4ac6dae50)" d="M 66.28 121.189375 
L 59.8 121.189375 
" style="fill:none;stroke:#000000;stroke-linecap:round;stroke-width:2;"/>
   </g>
   <g id="line2d_3">
    <path clip-path="url(#pa4ac6dae50)" d="M 63.04 104.449375 
L 63.04 110.029375 
" style="fill:none;stroke:#000000;stroke-linecap:round;stroke-width:2;"/>
   </g>
   <g id="line2d_4">
    <path clip-path="url(#pa4ac6dae50)" d="M 66.28 107.239375 
L 59.8 107.239375 
" style="fill:none;stroke:#000000;stroke-linecap:round;stroke-width:2;"/>
   </g>
   <g id="line2d_5">
    <path clip-path="url(#pa4ac6dae50)" d="M 63.04 86.314375 
L 63.04 100.264375 
L 63.04 100.264375 
M 63.04 128.164375 
L 63.04 128.164375 
L 63.04 142.114375 
" style="fill:none;stroke:#000000;stroke-linecap:round;stroke-width:2;"/>
   </g>
   <g id="line2d_6">
    <path clip-path="url(#pa4ac6dae50)" d="M 63.04 142.114375 
L 111.64 142.114375 
L 160.24 142.114375 
" style="fill:none;stroke:#000000;stroke-linecap:round;stroke-width:2;"/>
   </g>
   <g id="line2d_7">
    <path clip-path="url(#pa4ac6dae50)" d="M 160.24 142.114375 
" style="fill:none;stroke:#000000;stroke-linecap:round;stroke-width:2;"/>
   </g>
   <g id="line2d_8">
    <path clip-path="url(#pa4ac6dae50)" d="M 63.04 30.514375 
L 111.64 30.514375 
L 160.24 30.514375 
" style="fill:none;stroke:#000000;stroke-linecap:round;stroke-width:2;"/>
   </g>
   <g id="line2d_9">
    <path clip-path="url(#pa4ac6dae50)" d="M 160.24 30.514375 
" style="fill:none;stroke:#000000;stroke-linecap:round;stroke-width:2;"/>
   </g>
   <g id="line2d_10">
    <path clip-path="url(#pa4ac6dae50)" d="M 163.48 65.389375 
L 157 65.389375 
" style="fill:none;stroke:#000000;stroke-linecap:round;stroke-width:2;"/>
   </g>
   <g id="line2d_11">
    <path clip-path="url(#pa4ac6dae50)" d="M 160.24 48.649375 
L 160.24 54.229375 
" style="fill:none;stroke:#000000;stroke-linecap:round;stroke-width:2;"/>
   </g>
   <g id="line2d_12">
    <path clip-path="url(#pa4ac6dae50)" d="M 163.48 51.439375 
L 157 51.439375 
" style="fill:none;stroke:#000000;stroke-linecap:round;stroke-width:2;"/>
   </g>
   <g id="line2d_13">
    <path clip-path="url(#pa4ac6dae50)" d="M 160.24 30.514375 
L 160.24 44.464375 
L 160.24 44.464375 
M 160.24 72.364375 
L 160.24 72.364375 
L 160.24 86.314375 
" style="fill:none;stroke:#000000;stroke-linecap:round;stroke-width:2;"/>
   </g>
   <g id="line2d_14">
    <path clip-path="url(#pa4ac6dae50)" d="M 160.24 86.314375 
L 160.24 100.264375 
L 168.34 102.589375 
L 152.14 107.239375 
L 168.34 111.889375 
L 152.14 116.539375 
L 168.34 121.189375 
L 152.14 125.839375 
L 160.24 128.164375 
L 160.24 142.114375 
" style="fill:none;stroke:#000000;stroke-linecap:round;stroke-width:2;"/>
   </g>
   <g id="line2d_15">
    <path clip-path="url(#pa4ac6dae50)" d="M 160.24 142.114375 
" style="fill:none;stroke:#000000;stroke-linecap:round;stroke-width:2;"/>
   </g>
   <g id="line2d_16">
    <path clip-path="url(#pa4ac6dae50)" d="M 160.24 142.114375 
L 208.84 142.114375 
L 257.44 142.114375 
" style="fill:none;stroke:#000000;stroke-linecap:round;stroke-width:2;"/>
   </g>
   <g id="line2d_17">
    <path clip-path="url(#pa4ac6dae50)" d="M 257.44 142.114375 
L 257.44 128.164375 
L 257.44 128.164375 
M 257.44 100.264375 
L 257.44 100.264375 
L 257.44 86.314375 
" style="fill:none;stroke:#000000;stroke-linecap:round;stroke-width:2;"/>
   </g>
   <g id="line2d_18">
    <path clip-path="url(#pa4ac6dae50)" d="M 257.44 86.314375 
L 257.44 72.364375 
L 249.34 70.039375 
L 265.54 65.389375 
L 249.34 60.739375 
L 265.54 56.089375 
L 249.34 51.439375 
L 265.54 46.789375 
L 257.44 44.464375 
L 257.44 30.514375 
" style="fill:none;stroke:#000000;stroke-linecap:round;stroke-width:2;"/>
   </g>
   <g id="line2d_19">
    <path clip-path="url(#pa4ac6dae50)" d="M 257.44 30.514375 
" style="fill:none;stroke:#000000;stroke-linecap:round;stroke-width:2;"/>
   </g>
   <g id="line2d_20">
    <path clip-path="url(#pa4ac6dae50)" d="M 257.44 30.514375 
L 208.84 30.514375 
L 160.24 30.514375 
" style="fill:none;stroke:#000000;stroke-linecap:round;stroke-width:2;"/>
   </g>
   <g id="line2d_21">
    <path clip-path="url(#pa4ac6dae50)" d="M 257.44 30.514375 
L 306.04 30.514375 
L 354.64 30.514375 
" style="fill:none;stroke:#000000;stroke-linecap:round;stroke-width:2;"/>
   </g>
   <g id="line2d_22">
    <path clip-path="url(#pa4ac6dae50)" d="M 354.64 30.514375 
" style="fill:none;stroke:#000000;stroke-linecap:round;stroke-width:2;"/>
   </g>
   <g id="line2d_23">
    <path clip-path="url(#pa4ac6dae50)" d="M 354.64 30.514375 
L 354.64 44.464375 
L 362.74 46.789375 
L 346.54 51.439375 
L 362.74 56.089375 
L 346.54 60.739375 
L 362.74 65.389375 
L 346.54 70.039375 
L 354.64 72.364375 
L 354.64 86.314375 
" style="fill:none;stroke:#000000;stroke-linecap:round;stroke-width:2;"/>
   </g>
   <g id="line2d_24">
    <path clip-path="url(#pa4ac6dae50)" d="M 354.64 86.314375 
" style="fill:none;stroke:#000000;stroke-linecap:round;stroke-width:2;"/>
   </g>
   <g id="line2d_25">
    <path clip-path="url(#pa4ac6dae50)" d="M 354.64 86.314375 
L 306.04 86.314375 
L 257.44 86.314375 
" style="fill:none;stroke:#000000;stroke-linecap:round;stroke-width:2;"/>
   </g>
   <g id="line2d_26">
    <path clip-path="url(#pa4ac6dae50)" d="M 354.64 30.514375 
L 370.84 30.514375 
L 373.54 23.539375 
L 378.94 37.489375 
L 384.34 23.539375 
L 389.74 37.489375 
L 395.14 23.539375 
L 400.54 37.489375 
L 403.24 30.514375 
L 419.44 30.514375 
" style="fill:none;stroke:#000000;stroke-linecap:round;stroke-width:2;"/>
   </g>
   <g id="line2d_27">
    <path clip-path="url(#pa4ac6dae50)" d="M 419.44 30.514375 
" style="fill:none;stroke:#000000;stroke-linecap:round;stroke-width:2;"/>
   </g>
   <g id="line2d_28">
    <path clip-path="url(#pa4ac6dae50)" d="M 354.64 86.314375 
L 387.04 86.314375 
L 419.44 86.314375 
" style="fill:none;stroke:#000000;stroke-linecap:round;stroke-width:2;"/>
   </g>
   <g id="line2d_29">
    <path clip-path="url(#pa4ac6dae50)" d="M 419.44 86.314375 
" style="fill:none;stroke:#000000;stroke-linecap:round;stroke-width:2;"/>
   </g>
   <g id="text_1">
    <!-- 20$\Omega$ -->
    <defs>
     <path d="M 19.1875 8.296875 
L 53.609375 8.296875 
L 53.609375 0 
L 7.328125 0 
L 7.328125 8.296875 
Q 12.9375 14.109375 22.625 23.890625 
Q 32.328125 33.6875 34.8125 36.53125 
Q 39.546875 41.84375 41.421875 45.53125 
Q 43.3125 49.21875 43.3125 52.78125 
Q 43.3125 58.59375 39.234375 62.25 
Q 35.15625 65.921875 28.609375 65.921875 
Q 23.96875 65.921875 18.8125 64.3125 
Q 13.671875 62.703125 7.8125 59.421875 
L 7.8125 69.390625 
Q 13.765625 71.78125 18.9375 73 
Q 24.125 74.21875 28.421875 74.21875 
Q 39.75 74.21875 46.484375 68.546875 
Q 53.21875 62.890625 53.21875 53.421875 
Q 53.21875 48.921875 51.53125 44.890625 
Q 49.859375 40.875 45.40625 35.40625 
Q 44.1875 33.984375 37.640625 27.21875 
Q 31.109375 20.453125 19.1875 8.296875 
z
" id="DejaVuSans-50"/>
     <path d="M 31.78125 66.40625 
Q 24.171875 66.40625 20.328125 58.90625 
Q 16.5 51.421875 16.5 36.375 
Q 16.5 21.390625 20.328125 13.890625 
Q 24.171875 6.390625 31.78125 6.390625 
Q 39.453125 6.390625 43.28125 13.890625 
Q 47.125 21.390625 47.125 36.375 
Q 47.125 51.421875 43.28125 58.90625 
Q 39.453125 66.40625 31.78125 66.40625 
z
M 31.78125 74.21875 
Q 44.046875 74.21875 50.515625 64.515625 
Q 56.984375 54.828125 56.984375 36.375 
Q 56.984375 17.96875 50.515625 8.265625 
Q 44.046875 -1.421875 31.78125 -1.421875 
Q 19.53125 -1.421875 13.0625 8.265625 
Q 6.59375 17.96875 6.59375 36.375 
Q 6.59375 54.828125 13.0625 64.515625 
Q 19.53125 74.21875 31.78125 74.21875 
z
" id="DejaVuSans-48"/>
     <path d="M 72.609375 8.6875 
L 72.609375 0 
L 43.3125 0 
L 43.3125 8.6875 
Q 51.953125 13.421875 56.78125 21.53125 
Q 61.625 29.640625 61.625 39.5 
Q 61.625 51.21875 55.171875 58.296875 
Q 48.734375 65.375 38.1875 65.375 
Q 27.640625 65.375 21.171875 58.265625 
Q 14.703125 51.171875 14.703125 39.5 
Q 14.703125 29.640625 19.53125 21.53125 
Q 24.421875 13.421875 33.109375 8.6875 
L 33.109375 0 
L 3.8125 0 
L 3.8125 8.6875 
L 19.390625 8.6875 
Q 11.671875 15.484375 8.109375 22.75 
Q 4.59375 30.03125 4.59375 39.015625 
Q 4.59375 54.546875 13.96875 64.15625 
Q 23.296875 73.78125 38.1875 73.78125 
Q 52.984375 73.78125 62.40625 64.15625 
Q 71.78125 54.59375 71.78125 39.5 
Q 71.78125 30.03125 68.3125 22.796875 
Q 64.84375 15.578125 56.984375 8.6875 
z
" id="DejaVuSans-937"/>
    </defs>
    <g transform="translate(23.14 62.2775)scale(0.14 -0.14)">
     <use transform="translate(0 0.78125)" xlink:href="#DejaVuSans-50"/>
     <use transform="translate(63.623047 0.78125)" xlink:href="#DejaVuSans-48"/>
     <use transform="translate(127.246094 0.78125)" xlink:href="#DejaVuSans-937"/>
    </g>
   </g>
   <g id="text_2">
    <!-- $120V$ -->
    <defs>
     <path d="M 12.40625 8.296875 
L 28.515625 8.296875 
L 28.515625 63.921875 
L 10.984375 60.40625 
L 10.984375 69.390625 
L 28.421875 72.90625 
L 38.28125 72.90625 
L 38.28125 8.296875 
L 54.390625 8.296875 
L 54.390625 0 
L 12.40625 0 
z
" id="DejaVuSans-49"/>
     <path d="M 28.609375 0 
L 0.78125 72.90625 
L 11.078125 72.90625 
L 34.1875 11.53125 
L 57.328125 72.90625 
L 67.578125 72.90625 
L 39.796875 0 
z
" id="DejaVuSans-86"/>
    </defs>
    <g transform="translate(7.2 118.0775)scale(0.14 -0.14)">
     <use transform="translate(0 0.78125)" xlink:href="#DejaVuSans-49"/>
     <use transform="translate(63.623047 0.78125)" xlink:href="#DejaVuSans-50"/>
     <use transform="translate(127.246094 0.78125)" xlink:href="#DejaVuSans-48"/>
     <use transform="translate(190.869141 0.78125)" xlink:href="#DejaVuSans-86"/>
    </g>
   </g>
   <g id="text_3">
    <!-- $60V$ -->
    <defs>
     <path d="M 33.015625 40.375 
Q 26.375 40.375 22.484375 35.828125 
Q 18.609375 31.296875 18.609375 23.390625 
Q 18.609375 15.53125 22.484375 10.953125 
Q 26.375 6.390625 33.015625 6.390625 
Q 39.65625 6.390625 43.53125 10.953125 
Q 47.40625 15.53125 47.40625 23.390625 
Q 47.40625 31.296875 43.53125 35.828125 
Q 39.65625 40.375 33.015625 40.375 
z
M 52.59375 71.296875 
L 52.59375 62.3125 
Q 48.875 64.0625 45.09375 64.984375 
Q 41.3125 65.921875 37.59375 65.921875 
Q 27.828125 65.921875 22.671875 59.328125 
Q 17.53125 52.734375 16.796875 39.40625 
Q 19.671875 43.65625 24.015625 45.921875 
Q 28.375 48.1875 33.59375 48.1875 
Q 44.578125 48.1875 50.953125 41.515625 
Q 57.328125 34.859375 57.328125 23.390625 
Q 57.328125 12.15625 50.6875 5.359375 
Q 44.046875 -1.421875 33.015625 -1.421875 
Q 20.359375 -1.421875 13.671875 8.265625 
Q 6.984375 17.96875 6.984375 36.375 
Q 6.984375 53.65625 15.1875 63.9375 
Q 23.390625 74.21875 37.203125 74.21875 
Q 40.921875 74.21875 44.703125 73.484375 
Q 48.484375 72.75 52.59375 71.296875 
z
" id="DejaVuSans-54"/>
    </defs>
    <g transform="translate(113.36 62.2775)scale(0.14 -0.14)">
     <use transform="translate(0 0.78125)" xlink:href="#DejaVuSans-54"/>
     <use transform="translate(63.623047 0.78125)" xlink:href="#DejaVuSans-48"/>
     <use transform="translate(127.246094 0.78125)" xlink:href="#DejaVuSans-86"/>
    </g>
   </g>
   <g id="text_4">
    <!-- 5$\Omega$ -->
    <defs>
     <path d="M 10.796875 72.90625 
L 49.515625 72.90625 
L 49.515625 64.59375 
L 19.828125 64.59375 
L 19.828125 46.734375 
Q 21.96875 47.46875 24.109375 47.828125 
Q 26.265625 48.1875 28.421875 48.1875 
Q 40.625 48.1875 47.75 41.5 
Q 54.890625 34.8125 54.890625 23.390625 
Q 54.890625 11.625 47.5625 5.09375 
Q 40.234375 -1.421875 26.90625 -1.421875 
Q 22.3125 -1.421875 17.546875 -0.640625 
Q 12.796875 0.140625 7.71875 1.703125 
L 7.71875 11.625 
Q 12.109375 9.234375 16.796875 8.0625 
Q 21.484375 6.890625 26.703125 6.890625 
Q 35.15625 6.890625 40.078125 11.328125 
Q 45.015625 15.765625 45.015625 23.390625 
Q 45.015625 31 40.078125 35.4375 
Q 35.15625 39.890625 26.703125 39.890625 
Q 22.75 39.890625 18.8125 39.015625 
Q 14.890625 38.140625 10.796875 36.28125 
z
" id="DejaVuSans-53"/>
    </defs>
    <g transform="translate(129.16 118.0775)scale(0.14 -0.14)">
     <use transform="translate(0 0.21875)" xlink:href="#DejaVuSans-53"/>
     <use transform="translate(63.623047 0.21875)" xlink:href="#DejaVuSans-937"/>
    </g>
   </g>
   <g id="text_5">
    <!-- $36A$ -->
    <defs>
     <path d="M 40.578125 39.3125 
Q 47.65625 37.796875 51.625 33 
Q 55.609375 28.21875 55.609375 21.1875 
Q 55.609375 10.40625 48.1875 4.484375 
Q 40.765625 -1.421875 27.09375 -1.421875 
Q 22.515625 -1.421875 17.65625 -0.515625 
Q 12.796875 0.390625 7.625 2.203125 
L 7.625 11.71875 
Q 11.71875 9.328125 16.59375 8.109375 
Q 21.484375 6.890625 26.8125 6.890625 
Q 36.078125 6.890625 40.9375 10.546875 
Q 45.796875 14.203125 45.796875 21.1875 
Q 45.796875 27.640625 41.28125 31.265625 
Q 36.765625 34.90625 28.71875 34.90625 
L 20.21875 34.90625 
L 20.21875 43.015625 
L 29.109375 43.015625 
Q 36.375 43.015625 40.234375 45.921875 
Q 44.09375 48.828125 44.09375 54.296875 
Q 44.09375 59.90625 40.109375 62.90625 
Q 36.140625 65.921875 28.71875 65.921875 
Q 24.65625 65.921875 20.015625 65.03125 
Q 15.375 64.15625 9.8125 62.3125 
L 9.8125 71.09375 
Q 15.4375 72.65625 20.34375 73.4375 
Q 25.25 74.21875 29.59375 74.21875 
Q 40.828125 74.21875 47.359375 69.109375 
Q 53.90625 64.015625 53.90625 55.328125 
Q 53.90625 49.265625 50.4375 45.09375 
Q 46.96875 40.921875 40.578125 39.3125 
z
" id="DejaVuSans-51"/>
     <path d="M 34.1875 63.1875 
L 20.796875 26.90625 
L 47.609375 26.90625 
z
M 28.609375 72.90625 
L 39.796875 72.90625 
L 67.578125 0 
L 57.328125 0 
L 50.6875 18.703125 
L 17.828125 18.703125 
L 11.1875 0 
L 0.78125 0 
z
" id="DejaVuSans-65"/>
    </defs>
    <g transform="translate(210.56 118.0775)scale(0.14 -0.14)">
     <use transform="translate(0 0.78125)" xlink:href="#DejaVuSans-51"/>
     <use transform="translate(63.623047 0.78125)" xlink:href="#DejaVuSans-54"/>
     <use transform="translate(127.246094 0.78125)" xlink:href="#DejaVuSans-65"/>
    </g>
   </g>
   <g id="text_6">
    <!-- 10$\Omega$ -->
    <g transform="translate(217.54 62.2775)scale(0.14 -0.14)">
     <use transform="translate(0 0.78125)" xlink:href="#DejaVuSans-49"/>
     <use transform="translate(63.623047 0.78125)" xlink:href="#DejaVuSans-48"/>
     <use transform="translate(127.246094 0.78125)" xlink:href="#DejaVuSans-937"/>
    </g>
   </g>
   <g id="text_7">
    <!-- 6$\Omega$ -->
    <g transform="translate(323.56 62.2775)scale(0.14 -0.14)">
     <use transform="translate(0 0.78125)" xlink:href="#DejaVuSans-54"/>
     <use transform="translate(63.623047 0.78125)" xlink:href="#DejaVuSans-937"/>
    </g>
   </g>
   <g id="text_8">
    <!-- 1.6$\Omega$ -->
    <defs>
     <path d="M 10.6875 12.40625 
L 21 12.40625 
L 21 0 
L 10.6875 0 
z
" id="DejaVuSans-46"/>
    </defs>
    <g transform="translate(370.52 17.837812)scale(0.14 -0.14)">
     <use transform="translate(0 0.78125)" xlink:href="#DejaVuSans-49"/>
     <use transform="translate(63.623047 0.78125)" xlink:href="#DejaVuSans-46"/>
     <use transform="translate(95.410156 0.78125)" xlink:href="#DejaVuSans-54"/>
     <use transform="translate(159.033203 0.78125)" xlink:href="#DejaVuSans-937"/>
    </g>
   </g>
   <g id="text_9">
    <!-- a -->
    <defs>
     <path d="M 34.28125 27.484375 
Q 23.390625 27.484375 19.1875 25 
Q 14.984375 22.515625 14.984375 16.5 
Q 14.984375 11.71875 18.140625 8.90625 
Q 21.296875 6.109375 26.703125 6.109375 
Q 34.1875 6.109375 38.703125 11.40625 
Q 43.21875 16.703125 43.21875 25.484375 
L 43.21875 27.484375 
z
M 52.203125 31.203125 
L 52.203125 0 
L 43.21875 0 
L 43.21875 8.296875 
Q 40.140625 3.328125 35.546875 0.953125 
Q 30.953125 -1.421875 24.3125 -1.421875 
Q 15.921875 -1.421875 10.953125 3.296875 
Q 6 8.015625 6 15.921875 
Q 6 25.140625 12.171875 29.828125 
Q 18.359375 34.515625 30.609375 34.515625 
L 43.21875 34.515625 
L 43.21875 35.40625 
Q 43.21875 41.609375 39.140625 45 
Q 35.0625 48.390625 27.6875 48.390625 
Q 23 48.390625 18.546875 47.265625 
Q 14.109375 46.140625 10.015625 43.890625 
L 10.015625 52.203125 
Q 14.9375 54.109375 19.578125 55.046875 
Q 24.21875 56 28.609375 56 
Q 40.484375 56 46.34375 49.84375 
Q 52.203125 43.703125 52.203125 31.203125 
z
" id="DejaVuSans-97"/>
    </defs>
    <g transform="translate(415.150312 22.720313)scale(0.14 -0.14)">
     <use xlink:href="#DejaVuSans-97"/>
    </g>
   </g>
   <g id="text_10">
    <!-- b -->
    <defs>
     <path d="M 48.6875 27.296875 
Q 48.6875 37.203125 44.609375 42.84375 
Q 40.53125 48.484375 33.40625 48.484375 
Q 26.265625 48.484375 22.1875 42.84375 
Q 18.109375 37.203125 18.109375 27.296875 
Q 18.109375 17.390625 22.1875 11.75 
Q 26.265625 6.109375 33.40625 6.109375 
Q 40.53125 6.109375 44.609375 11.75 
Q 48.6875 17.390625 48.6875 27.296875 
z
M 18.109375 46.390625 
Q 20.953125 51.265625 25.265625 53.625 
Q 29.59375 56 35.59375 56 
Q 45.5625 56 51.78125 48.09375 
Q 58.015625 40.1875 58.015625 27.296875 
Q 58.015625 14.40625 51.78125 6.484375 
Q 45.5625 -1.421875 35.59375 -1.421875 
Q 29.59375 -1.421875 25.265625 0.953125 
Q 20.953125 3.328125 18.109375 8.203125 
L 18.109375 0 
L 9.078125 0 
L 9.078125 75.984375 
L 18.109375 75.984375 
z
" id="DejaVuSans-98"/>
    </defs>
    <g transform="translate(414.996094 78.520313)scale(0.14 -0.14)">
     <use xlink:href="#DejaVuSans-98"/>
    </g>
   </g>
  </g>
 </g>
 <defs>
  <clipPath id="pa4ac6dae50">
   <rect height="138.31425" width="419.013" x="24.8485" y="14.716"/>
  </clipPath>
 </defs>
</svg>
