<?xml version="1.0" encoding="utf-8" standalone="no"?>
<!DOCTYPE svg PUBLIC "-//W3C//DTD SVG 1.1//EN"
  "http://www.w3.org/Graphics/SVG/1.1/DTD/svg11.dtd">
<!-- Created with matplotlib (http://matplotlib.org/) -->
<svg height="168pt" version="1.1" viewBox="0 0 437 168" width="437pt" xmlns="http://www.w3.org/2000/svg" xmlns:xlink="http://www.w3.org/1999/xlink">
 <defs>
  <style type="text/css">
*{stroke-linecap:butt;stroke-linejoin:round;}
  </style>
 </defs>
 <g id="figure_1">
  <g id="patch_1">
   <path d="
M-3.55271e-15 168.35
L437.51 168.35
L437.51 0
L-3.55271e-15 0
L-3.55271e-15 168.35" style="fill:none;"/>
  </g>
  <g id="axes_1">
   <g id="patch_2">
    <path clip-path="url(#p01f5081edd)" d="
M262.64 132.845
L261.02 126.725
L262.624 126.725
L262.624 117.545
L262.656 117.545
L262.656 126.725
L264.26 126.725
z
" style="stroke:#000000;stroke-linejoin:miter;stroke-width:1.5;"/>
   </g>
   <g id="line2d_1">
    <path clip-path="url(#p01f5081edd)" d="
M68.24 33.395
L68.24 48.695
L76.34 51.245
L60.14 56.345
L76.34 61.445
L60.14 66.545
L76.34 71.645
L60.14 76.745
L68.24 79.295
L68.24 94.595" style="fill:none;stroke:#000000;stroke-linecap:round;stroke-width:1.5;"/>
   </g>
   <g id="line2d_2">
    <path clip-path="url(#p01f5081edd)" d="
M68.24 155.795
L68.24 140.495
L68.24 140.495
M68.24 109.895
L68.24 109.895
L68.24 94.595" style="fill:none;stroke:#000000;stroke-linecap:round;stroke-width:1.5;"/>
   </g>
   <g id="line2d_3">
    <path clip-path="url(#p01f5081edd)" d="
M65 132.845
L71.48 132.845" style="fill:none;stroke:#000000;stroke-linecap:round;stroke-width:1.5;"/>
   </g>
   <g id="line2d_4">
    <path clip-path="url(#p01f5081edd)" d="
M68.24 120.605
L68.24 114.485" style="fill:none;stroke:#000000;stroke-linecap:round;stroke-width:1.5;"/>
   </g>
   <g id="line2d_5">
    <path clip-path="url(#p01f5081edd)" d="
M65 117.545
L71.48 117.545" style="fill:none;stroke:#000000;stroke-linecap:round;stroke-width:1.5;"/>
   </g>
   <g id="line2d_6">
    <path clip-path="url(#p01f5081edd)" d="
M68.24 155.795
L116.84 155.795
L165.44 155.795" style="fill:none;stroke:#000000;stroke-linecap:round;stroke-width:1.5;"/>
   </g>
   <g id="line2d_7">
    <path clip-path="url(#p01f5081edd)" d="
M165.44 155.795" style="fill:none;stroke:#000000;stroke-linecap:round;stroke-width:1.5;"/>
   </g>
   <g id="line2d_8">
    <path clip-path="url(#p01f5081edd)" d="
M68.24 33.395
L116.84 33.395
L165.44 33.395" style="fill:none;stroke:#000000;stroke-linecap:round;stroke-width:1.5;"/>
   </g>
   <g id="line2d_9">
    <path clip-path="url(#p01f5081edd)" d="
M165.44 33.395" style="fill:none;stroke:#000000;stroke-linecap:round;stroke-width:1.5;"/>
   </g>
   <g id="line2d_10">
    <path clip-path="url(#p01f5081edd)" d="
M165.44 94.595
L165.44 79.295
L165.44 79.295
M165.44 48.695
L165.44 48.695
L165.44 33.395" style="fill:none;stroke:#000000;stroke-linecap:round;stroke-width:1.5;"/>
   </g>
   <g id="line2d_11">
    <path clip-path="url(#p01f5081edd)" d="
M162.2 71.645
L168.68 71.645" style="fill:none;stroke:#000000;stroke-linecap:round;stroke-width:1.5;"/>
   </g>
   <g id="line2d_12">
    <path clip-path="url(#p01f5081edd)" d="
M165.44 59.405
L165.44 53.285" style="fill:none;stroke:#000000;stroke-linecap:round;stroke-width:1.5;"/>
   </g>
   <g id="line2d_13">
    <path clip-path="url(#p01f5081edd)" d="
M162.2 56.345
L168.68 56.345" style="fill:none;stroke:#000000;stroke-linecap:round;stroke-width:1.5;"/>
   </g>
   <g id="line2d_14">
    <path clip-path="url(#p01f5081edd)" d="
M165.44 94.595
L165.44 109.895
L173.54 112.445
L157.34 117.545
L173.54 122.645
L157.34 127.745
L173.54 132.845
L157.34 137.945
L165.44 140.495
L165.44 155.795" style="fill:none;stroke:#000000;stroke-linecap:round;stroke-width:1.5;"/>
   </g>
   <g id="line2d_15">
    <path clip-path="url(#p01f5081edd)" d="
M165.44 155.795" style="fill:none;stroke:#000000;stroke-linecap:round;stroke-width:1.5;"/>
   </g>
   <g id="line2d_16">
    <path clip-path="url(#p01f5081edd)" d="
M165.44 155.795
L214.04 155.795
L262.64 155.795" style="fill:none;stroke:#000000;stroke-linecap:round;stroke-width:1.5;"/>
   </g>
   <g id="line2d_17">
    <path clip-path="url(#p01f5081edd)" d="
M262.64 155.795
L262.64 140.495
L262.64 140.495
M262.64 109.895
L262.64 109.895
L262.64 94.595" style="fill:none;stroke:#000000;stroke-linecap:round;stroke-width:1.5;"/>
   </g>
   <g id="line2d_18">
    <path clip-path="url(#p01f5081edd)" d="
M262.64 94.595
L262.64 79.295
L254.54 76.745
L270.74 71.645
L254.54 66.545
L270.74 61.445
L254.54 56.345
L270.74 51.245
L262.64 48.695
L262.64 33.395" style="fill:none;stroke:#000000;stroke-linecap:round;stroke-width:1.5;"/>
   </g>
   <g id="line2d_19">
    <path clip-path="url(#p01f5081edd)" d="
M262.64 33.395" style="fill:none;stroke:#000000;stroke-linecap:round;stroke-width:1.5;"/>
   </g>
   <g id="line2d_20">
    <path clip-path="url(#p01f5081edd)" d="
M262.64 33.395
L214.04 33.395
L165.44 33.395" style="fill:none;stroke:#000000;stroke-linecap:round;stroke-width:1.5;"/>
   </g>
   <g id="line2d_21">
    <path clip-path="url(#p01f5081edd)" d="
M262.64 33.395
L311.24 33.395
L359.84 33.395" style="fill:none;stroke:#000000;stroke-linecap:round;stroke-width:1.5;"/>
   </g>
   <g id="line2d_22">
    <path clip-path="url(#p01f5081edd)" d="
M359.84 33.395" style="fill:none;stroke:#000000;stroke-linecap:round;stroke-width:1.5;"/>
   </g>
   <g id="line2d_23">
    <path clip-path="url(#p01f5081edd)" d="
M359.84 33.395
L359.84 79.295
L367.94 81.845
L351.74 86.945
L367.94 92.045
L351.74 97.145
L367.94 102.245
L351.74 107.345
L359.84 109.895
L359.84 155.795" style="fill:none;stroke:#000000;stroke-linecap:round;stroke-width:1.5;"/>
   </g>
   <g id="line2d_24">
    <path clip-path="url(#p01f5081edd)" d="
M359.84 155.795" style="fill:none;stroke:#000000;stroke-linecap:round;stroke-width:1.5;"/>
   </g>
   <g id="line2d_25">
    <path clip-path="url(#p01f5081edd)" d="
M359.84 155.795
L311.24 155.795
L262.64 155.795" style="fill:none;stroke:#000000;stroke-linecap:round;stroke-width:1.5;"/>
   </g>
   <g id="line2d_26">
    <path clip-path="url(#p01f5081edd)" d="
M359.84 33.395
L376.04 33.395
L378.74 25.745
L384.14 41.045
L389.54 25.745
L394.94 41.045
L400.34 25.745
L405.74 41.045
L408.44 33.395
L424.64 33.395" style="fill:none;stroke:#000000;stroke-linecap:round;stroke-width:1.5;"/>
   </g>
   <g id="line2d_27">
    <path clip-path="url(#p01f5081edd)" d="
M424.64 33.395" style="fill:none;stroke:#000000;stroke-linecap:round;stroke-width:1.5;"/>
   </g>
   <g id="line2d_28">
    <path clip-path="url(#p01f5081edd)" d="
M359.84 155.795
L392.24 155.795
L424.64 155.795" style="fill:none;stroke:#000000;stroke-linecap:round;stroke-width:1.5;"/>
   </g>
   <g id="line2d_29">
    <path clip-path="url(#p01f5081edd)" d="
M424.64 155.795" style="fill:none;stroke:#000000;stroke-linecap:round;stroke-width:1.5;"/>
   </g>
   <g id="patch_3">
    <path clip-path="url(#p01f5081edd)" d="
M68.24 140.495
C72.5363 140.495 76.6572 138.883 79.6951 136.014
C82.7331 133.145 84.44 129.253 84.44 125.195
C84.44 121.137 82.7331 117.245 79.6951 114.376
C76.6572 111.507 72.5363 109.895 68.24 109.895
C63.9437 109.895 59.8228 111.507 56.7849 114.376
C53.7469 117.245 52.04 121.137 52.04 125.195
C52.04 129.253 53.7469 133.145 56.7849 136.014
C59.8228 138.883 63.9437 140.495 68.24 140.495
L68.24 140.495" style="fill:none;stroke:#000000;stroke-linejoin:miter;stroke-width:1.5;"/>
   </g>
   <g id="patch_4">
    <path clip-path="url(#p01f5081edd)" d="
M165.44 158.09
C166.084 158.09 166.703 157.848 167.158 157.418
C167.614 156.987 167.87 156.404 167.87 155.795
C167.87 155.186 167.614 154.603 167.158 154.172
C166.703 153.742 166.084 153.5 165.44 153.5
C164.796 153.5 164.177 153.742 163.722 154.172
C163.266 154.603 163.01 155.186 163.01 155.795
C163.01 156.404 163.266 156.987 163.722 157.418
C164.177 157.848 164.796 158.09 165.44 158.09
z
" style="stroke:#000000;stroke-linejoin:miter;stroke-width:1.5;"/>
   </g>
   <g id="patch_5">
    <path clip-path="url(#p01f5081edd)" d="
M165.44 35.69
C166.084 35.69 166.703 35.4482 167.158 35.0178
C167.614 34.5874 167.87 34.0036 167.87 33.395
C167.87 32.7864 167.614 32.2026 167.158 31.7722
C166.703 31.3418 166.084 31.1 165.44 31.1
C164.796 31.1 164.177 31.3418 163.722 31.7722
C163.266 32.2026 163.01 32.7864 163.01 33.395
C163.01 34.0036 163.266 34.5874 163.722 35.0178
C164.177 35.4482 164.796 35.69 165.44 35.69
z
" style="stroke:#000000;stroke-linejoin:miter;stroke-width:1.5;"/>
   </g>
   <g id="patch_6">
    <path clip-path="url(#p01f5081edd)" d="
M165.44 79.295
C169.736 79.295 173.857 77.6829 176.895 74.8137
C179.933 71.9446 181.64 68.0526 181.64 63.995
C181.64 59.9374 179.933 56.0454 176.895 53.1763
C173.857 50.3071 169.736 48.695 165.44 48.695
C161.144 48.695 157.023 50.3071 153.985 53.1763
C150.947 56.0454 149.24 59.9374 149.24 63.995
C149.24 68.0526 150.947 71.9446 153.985 74.8137
C157.023 77.6829 161.144 79.295 165.44 79.295
L165.44 79.295" style="fill:none;stroke:#000000;stroke-linejoin:miter;stroke-width:1.5;"/>
   </g>
   <g id="patch_7">
    <path clip-path="url(#p01f5081edd)" d="
M165.44 158.09
C166.084 158.09 166.703 157.848 167.158 157.418
C167.614 156.987 167.87 156.404 167.87 155.795
C167.87 155.186 167.614 154.603 167.158 154.172
C166.703 153.742 166.084 153.5 165.44 153.5
C164.796 153.5 164.177 153.742 163.722 154.172
C163.266 154.603 163.01 155.186 163.01 155.795
C163.01 156.404 163.266 156.987 163.722 157.418
C164.177 157.848 164.796 158.09 165.44 158.09
z
" style="stroke:#000000;stroke-linejoin:miter;stroke-width:1.5;"/>
   </g>
   <g id="patch_8">
    <path clip-path="url(#p01f5081edd)" d="
M262.64 140.495
C266.936 140.495 271.057 138.883 274.095 136.014
C277.133 133.145 278.84 129.253 278.84 125.195
C278.84 121.137 277.133 117.245 274.095 114.376
C271.057 111.507 266.936 109.895 262.64 109.895
C258.344 109.895 254.223 111.507 251.185 114.376
C248.147 117.245 246.44 121.137 246.44 125.195
C246.44 129.253 248.147 133.145 251.185 136.014
C254.223 138.883 258.344 140.495 262.64 140.495
L262.64 140.495" style="fill:none;stroke:#000000;stroke-linejoin:miter;stroke-width:1.5;"/>
   </g>
   <g id="patch_9">
    <path clip-path="url(#p01f5081edd)" d="
M262.64 35.69
C263.284 35.69 263.903 35.4482 264.358 35.0178
C264.814 34.5874 265.07 34.0036 265.07 33.395
C265.07 32.7864 264.814 32.2026 264.358 31.7722
C263.903 31.3418 263.284 31.1 262.64 31.1
C261.996 31.1 261.377 31.3418 260.922 31.7722
C260.466 32.2026 260.21 32.7864 260.21 33.395
C260.21 34.0036 260.466 34.5874 260.922 35.0178
C261.377 35.4482 261.996 35.69 262.64 35.69
z
" style="stroke:#000000;stroke-linejoin:miter;stroke-width:1.5;"/>
   </g>
   <g id="patch_10">
    <path clip-path="url(#p01f5081edd)" d="
M359.84 35.69
C360.484 35.69 361.103 35.4482 361.558 35.0178
C362.014 34.5874 362.27 34.0036 362.27 33.395
C362.27 32.7864 362.014 32.2026 361.558 31.7722
C361.103 31.3418 360.484 31.1 359.84 31.1
C359.196 31.1 358.577 31.3418 358.122 31.7722
C357.666 32.2026 357.41 32.7864 357.41 33.395
C357.41 34.0036 357.666 34.5874 358.122 35.0178
C358.577 35.4482 359.196 35.69 359.84 35.69
z
" style="stroke:#000000;stroke-linejoin:miter;stroke-width:1.5;"/>
   </g>
   <g id="patch_11">
    <path clip-path="url(#p01f5081edd)" d="
M359.84 158.09
C360.484 158.09 361.103 157.848 361.558 157.418
C362.014 156.987 362.27 156.404 362.27 155.795
C362.27 155.186 362.014 154.603 361.558 154.172
C361.103 153.742 360.484 153.5 359.84 153.5
C359.196 153.5 358.577 153.742 358.122 154.172
C357.666 154.603 357.41 155.186 357.41 155.795
C357.41 156.404 357.666 156.987 358.122 157.418
C358.577 157.848 359.196 158.09 359.84 158.09
z
" style="stroke:#000000;stroke-linejoin:miter;stroke-width:1.5;"/>
   </g>
   <g id="patch_12">
    <path clip-path="url(#p01f5081edd)" d="
M424.64 35.69
C425.284 35.69 425.903 35.4482 426.358 35.0178
C426.814 34.5874 427.07 34.0036 427.07 33.395
C427.07 32.7864 426.814 32.2026 426.358 31.7722
C425.903 31.3418 425.284 31.1 424.64 31.1
C423.996 31.1 423.377 31.3418 422.922 31.7722
C422.466 32.2026 422.21 32.7864 422.21 33.395
C422.21 34.0036 422.466 34.5874 422.922 35.0178
C423.377 35.4482 423.996 35.69 424.64 35.69
z
" style="stroke:#000000;stroke-linejoin:miter;stroke-width:1.5;"/>
   </g>
   <g id="patch_13">
    <path clip-path="url(#p01f5081edd)" d="
M424.64 158.09
C425.284 158.09 425.903 157.848 426.358 157.418
C426.814 156.987 427.07 156.404 427.07 155.795
C427.07 155.186 426.814 154.603 426.358 154.172
C425.903 153.742 425.284 153.5 424.64 153.5
C423.996 153.5 423.377 153.742 422.922 154.172
C422.466 154.603 422.21 155.186 422.21 155.795
C422.21 156.404 422.466 156.987 422.922 157.418
C423.377 157.848 423.996 158.09 424.64 158.09
z
" style="stroke:#000000;stroke-linejoin:miter;stroke-width:1.5;"/>
   </g>
   <g id="text_1">
    <!-- 20$\Omega$ -->
    <defs>
     <path d="
M19.1875 8.29688
L53.6094 8.29688
L53.6094 0
L7.32812 0
L7.32812 8.29688
Q12.9375 14.1094 22.625 23.8906
Q32.3281 33.6875 34.8125 36.5312
Q39.5469 41.8438 41.4219 45.5312
Q43.3125 49.2188 43.3125 52.7812
Q43.3125 58.5938 39.2344 62.25
Q35.1562 65.9219 28.6094 65.9219
Q23.9688 65.9219 18.8125 64.3125
Q13.6719 62.7031 7.8125 59.4219
L7.8125 69.3906
Q13.7656 71.7812 18.9375 73
Q24.125 74.2188 28.4219 74.2188
Q39.75 74.2188 46.4844 68.5469
Q53.2188 62.8906 53.2188 53.4219
Q53.2188 48.9219 51.5312 44.8906
Q49.8594 40.875 45.4062 35.4062
Q44.1875 33.9844 37.6406 27.2188
Q31.1094 20.4531 19.1875 8.29688" id="BitstreamVeraSans-Roman-32"/>
     <path d="
M31.7812 66.4062
Q24.1719 66.4062 20.3281 58.9062
Q16.5 51.4219 16.5 36.375
Q16.5 21.3906 20.3281 13.8906
Q24.1719 6.39062 31.7812 6.39062
Q39.4531 6.39062 43.2812 13.8906
Q47.125 21.3906 47.125 36.375
Q47.125 51.4219 43.2812 58.9062
Q39.4531 66.4062 31.7812 66.4062
M31.7812 74.2188
Q44.0469 74.2188 50.5156 64.5156
Q56.9844 54.8281 56.9844 36.375
Q56.9844 17.9688 50.5156 8.26562
Q44.0469 -1.42188 31.7812 -1.42188
Q19.5312 -1.42188 13.0625 8.26562
Q6.59375 17.9688 6.59375 36.375
Q6.59375 54.8281 13.0625 64.5156
Q19.5312 74.2188 31.7812 74.2188" id="BitstreamVeraSans-Roman-30"/>
     <path d="
M72.6094 8.6875
L72.6094 0
L43.3125 0
L43.3125 8.6875
Q51.9531 13.4219 56.7812 21.5312
Q61.625 29.6406 61.625 39.5
Q61.625 51.2188 55.1719 58.2969
Q48.7344 65.375 38.1875 65.375
Q27.6406 65.375 21.1719 58.2656
Q14.7031 51.1719 14.7031 39.5
Q14.7031 29.6406 19.5625 21.5312
Q24.4219 13.4219 33.1094 8.6875
L33.1094 0
L3.8125 0
L3.8125 8.6875
L19.3906 8.6875
Q11.6719 15.4844 8.125 22.75
Q4.59375 30.0312 4.59375 39.0156
Q4.59375 54.5469 13.9375 64.1562
Q23.2969 73.7812 38.1875 73.7812
Q52.9844 73.7812 62.375 64.1875
Q71.7812 54.5938 71.7812 39.5
Q71.7812 30.0312 68.3125 22.7969
Q64.8438 15.5781 56.9844 8.6875
z
" id="BitstreamVeraSans-Roman-3a9"/>
    </defs>
    <g transform="translate(24.26 68.41)scale(0.16 -0.16)">
     <use transform="translate(0.0 0.78125)" xlink:href="#BitstreamVeraSans-Roman-32"/>
     <use transform="translate(63.623046875 0.78125)" xlink:href="#BitstreamVeraSans-Roman-30"/>
     <use transform="translate(127.24609375 0.78125)" xlink:href="#BitstreamVeraSans-Roman-3a9"/>
    </g>
   </g>
   <g id="text_2">
    <!-- $120V$ -->
    <defs>
     <path d="
M28.6094 0
L0.78125 72.9062
L11.0781 72.9062
L34.1875 11.5312
L57.3281 72.9062
L67.5781 72.9062
L39.7969 0
z
" id="BitstreamVeraSans-Roman-56"/>
     <path d="
M12.4062 8.29688
L28.5156 8.29688
L28.5156 63.9219
L10.9844 60.4062
L10.9844 69.3906
L28.4219 72.9062
L38.2812 72.9062
L38.2812 8.29688
L54.3906 8.29688
L54.3906 0
L12.4062 0
z
" id="BitstreamVeraSans-Roman-31"/>
    </defs>
    <g transform="translate(7.2 129.61)scale(0.16 -0.16)">
     <use transform="translate(0.0 0.78125)" xlink:href="#BitstreamVeraSans-Roman-31"/>
     <use transform="translate(63.623046875 0.78125)" xlink:href="#BitstreamVeraSans-Roman-32"/>
     <use transform="translate(127.24609375 0.78125)" xlink:href="#BitstreamVeraSans-Roman-30"/>
     <use transform="translate(190.869140625 0.78125)" xlink:href="#BitstreamVeraSans-Roman-56"/>
    </g>
   </g>
   <g id="text_3">
    <!-- $60V$ -->
    <defs>
     <path d="
M33.0156 40.375
Q26.375 40.375 22.4844 35.8281
Q18.6094 31.2969 18.6094 23.3906
Q18.6094 15.5312 22.4844 10.9531
Q26.375 6.39062 33.0156 6.39062
Q39.6562 6.39062 43.5312 10.9531
Q47.4062 15.5312 47.4062 23.3906
Q47.4062 31.2969 43.5312 35.8281
Q39.6562 40.375 33.0156 40.375
M52.5938 71.2969
L52.5938 62.3125
Q48.875 64.0625 45.0938 64.9844
Q41.3125 65.9219 37.5938 65.9219
Q27.8281 65.9219 22.6719 59.3281
Q17.5312 52.7344 16.7969 39.4062
Q19.6719 43.6562 24.0156 45.9219
Q28.375 48.1875 33.5938 48.1875
Q44.5781 48.1875 50.9531 41.5156
Q57.3281 34.8594 57.3281 23.3906
Q57.3281 12.1562 50.6875 5.35938
Q44.0469 -1.42188 33.0156 -1.42188
Q20.3594 -1.42188 13.6719 8.26562
Q6.98438 17.9688 6.98438 36.375
Q6.98438 53.6562 15.1875 63.9375
Q23.3906 74.2188 37.2031 74.2188
Q40.9219 74.2188 44.7031 73.4844
Q48.4844 72.75 52.5938 71.2969" id="BitstreamVeraSans-Roman-36"/>
    </defs>
    <g transform="translate(114.64 68.41)scale(0.16 -0.16)">
     <use transform="translate(0.0 0.78125)" xlink:href="#BitstreamVeraSans-Roman-36"/>
     <use transform="translate(63.623046875 0.78125)" xlink:href="#BitstreamVeraSans-Roman-30"/>
     <use transform="translate(127.24609375 0.78125)" xlink:href="#BitstreamVeraSans-Roman-56"/>
    </g>
   </g>
   <g id="text_4">
    <!-- 5$\Omega$ -->
    <defs>
     <path d="
M10.7969 72.9062
L49.5156 72.9062
L49.5156 64.5938
L19.8281 64.5938
L19.8281 46.7344
Q21.9688 47.4688 24.1094 47.8281
Q26.2656 48.1875 28.4219 48.1875
Q40.625 48.1875 47.75 41.5
Q54.8906 34.8125 54.8906 23.3906
Q54.8906 11.625 47.5625 5.09375
Q40.2344 -1.42188 26.9062 -1.42188
Q22.3125 -1.42188 17.5469 -0.640625
Q12.7969 0.140625 7.71875 1.70312
L7.71875 11.625
Q12.1094 9.23438 16.7969 8.0625
Q21.4844 6.89062 26.7031 6.89062
Q35.1562 6.89062 40.0781 11.3281
Q45.0156 15.7656 45.0156 23.3906
Q45.0156 31 40.0781 35.4375
Q35.1562 39.8906 26.7031 39.8906
Q22.75 39.8906 18.8125 39.0156
Q14.8906 38.1406 10.7969 36.2812
z
" id="BitstreamVeraSans-Roman-35"/>
    </defs>
    <g transform="translate(131.54 129.61)scale(0.16 -0.16)">
     <use transform="translate(0.0 0.21875)" xlink:href="#BitstreamVeraSans-Roman-35"/>
     <use transform="translate(63.623046875 0.21875)" xlink:href="#BitstreamVeraSans-Roman-3a9"/>
    </g>
   </g>
   <g id="text_5">
    <!-- $36A$ -->
    <defs>
     <path d="
M34.1875 63.1875
L20.7969 26.9062
L47.6094 26.9062
z

M28.6094 72.9062
L39.7969 72.9062
L67.5781 0
L57.3281 0
L50.6875 18.7031
L17.8281 18.7031
L11.1875 0
L0.78125 0
z
" id="BitstreamVeraSans-Roman-41"/>
     <path d="
M40.5781 39.3125
Q47.6562 37.7969 51.625 33
Q55.6094 28.2188 55.6094 21.1875
Q55.6094 10.4062 48.1875 4.48438
Q40.7656 -1.42188 27.0938 -1.42188
Q22.5156 -1.42188 17.6562 -0.515625
Q12.7969 0.390625 7.625 2.20312
L7.625 11.7188
Q11.7188 9.32812 16.5938 8.10938
Q21.4844 6.89062 26.8125 6.89062
Q36.0781 6.89062 40.9375 10.5469
Q45.7969 14.2031 45.7969 21.1875
Q45.7969 27.6406 41.2812 31.2656
Q36.7656 34.9062 28.7188 34.9062
L20.2188 34.9062
L20.2188 43.0156
L29.1094 43.0156
Q36.375 43.0156 40.2344 45.9219
Q44.0938 48.8281 44.0938 54.2969
Q44.0938 59.9062 40.1094 62.9062
Q36.1406 65.9219 28.7188 65.9219
Q24.6562 65.9219 20.0156 65.0312
Q15.375 64.1562 9.8125 62.3125
L9.8125 71.0938
Q15.4375 72.6562 20.3438 73.4375
Q25.25 74.2188 29.5938 74.2188
Q40.8281 74.2188 47.3594 69.1094
Q53.9062 64.0156 53.9062 55.3281
Q53.9062 49.2656 50.4375 45.0938
Q46.9688 40.9219 40.5781 39.3125" id="BitstreamVeraSans-Roman-33"/>
    </defs>
    <g transform="translate(211.84 129.61)scale(0.16 -0.16)">
     <use transform="translate(0.0 0.78125)" xlink:href="#BitstreamVeraSans-Roman-33"/>
     <use transform="translate(63.623046875 0.78125)" xlink:href="#BitstreamVeraSans-Roman-36"/>
     <use transform="translate(127.24609375 0.78125)" xlink:href="#BitstreamVeraSans-Roman-41"/>
    </g>
   </g>
   <g id="text_6">
    <!-- 10$\Omega$ -->
    <g transform="translate(218.66 68.41)scale(0.16 -0.16)">
     <use transform="translate(0.0 0.78125)" xlink:href="#BitstreamVeraSans-Roman-31"/>
     <use transform="translate(63.623046875 0.78125)" xlink:href="#BitstreamVeraSans-Roman-30"/>
     <use transform="translate(127.24609375 0.78125)" xlink:href="#BitstreamVeraSans-Roman-3a9"/>
    </g>
   </g>
   <g id="text_7">
    <!-- 6$\Omega$ -->
    <g transform="translate(325.94 99.01)scale(0.16 -0.16)">
     <use transform="translate(0.0 0.78125)" xlink:href="#BitstreamVeraSans-Roman-36"/>
     <use transform="translate(63.623046875 0.78125)" xlink:href="#BitstreamVeraSans-Roman-3a9"/>
    </g>
   </g>
   <g id="text_8">
    <!-- 1.6$\Omega$ -->
    <defs>
     <path d="
M10.6875 12.4062
L21 12.4062
L21 0
L10.6875 0
z
" id="BitstreamVeraSans-Roman-2e"/>
    </defs>
    <g transform="translate(373.36 19.3575)scale(0.16 -0.16)">
     <use transform="translate(0.0 0.78125)" xlink:href="#BitstreamVeraSans-Roman-31"/>
     <use transform="translate(63.623046875 0.78125)" xlink:href="#BitstreamVeraSans-Roman-2e"/>
     <use transform="translate(95.41015625 0.78125)" xlink:href="#BitstreamVeraSans-Roman-36"/>
     <use transform="translate(159.033203125 0.78125)" xlink:href="#BitstreamVeraSans-Roman-3a9"/>
    </g>
   </g>
   <g id="text_9">
    <!-- a -->
    <defs>
     <path d="
M34.2812 27.4844
Q23.3906 27.4844 19.1875 25
Q14.9844 22.5156 14.9844 16.5
Q14.9844 11.7188 18.1406 8.90625
Q21.2969 6.10938 26.7031 6.10938
Q34.1875 6.10938 38.7031 11.4062
Q43.2188 16.7031 43.2188 25.4844
L43.2188 27.4844
z

M52.2031 31.2031
L52.2031 0
L43.2188 0
L43.2188 8.29688
Q40.1406 3.32812 35.5469 0.953125
Q30.9531 -1.42188 24.3125 -1.42188
Q15.9219 -1.42188 10.9531 3.29688
Q6 8.01562 6 15.9219
Q6 25.1406 12.1719 29.8281
Q18.3594 34.5156 30.6094 34.5156
L43.2188 34.5156
L43.2188 35.4062
Q43.2188 41.6094 39.1406 45
Q35.0625 48.3906 27.6875 48.3906
Q23 48.3906 18.5469 47.2656
Q14.1094 46.1406 10.0156 43.8906
L10.0156 52.2031
Q14.9375 54.1094 19.5781 55.0469
Q24.2188 56 28.6094 56
Q40.4844 56 46.3438 49.8438
Q52.2031 43.7031 52.2031 31.2031" id="BitstreamVeraSans-Roman-61"/>
    </defs>
    <g transform="translate(420.94375 24.7125)scale(0.16 -0.16)">
     <use xlink:href="#BitstreamVeraSans-Roman-61"/>
    </g>
   </g>
   <g id="text_10">
    <!-- b -->
    <defs>
     <path d="
M48.6875 27.2969
Q48.6875 37.2031 44.6094 42.8438
Q40.5312 48.4844 33.4062 48.4844
Q26.2656 48.4844 22.1875 42.8438
Q18.1094 37.2031 18.1094 27.2969
Q18.1094 17.3906 22.1875 11.75
Q26.2656 6.10938 33.4062 6.10938
Q40.5312 6.10938 44.6094 11.75
Q48.6875 17.3906 48.6875 27.2969
M18.1094 46.3906
Q20.9531 51.2656 25.2656 53.625
Q29.5938 56 35.5938 56
Q45.5625 56 51.7812 48.0938
Q58.0156 40.1875 58.0156 27.2969
Q58.0156 14.4062 51.7812 6.48438
Q45.5625 -1.42188 35.5938 -1.42188
Q29.5938 -1.42188 25.2656 0.953125
Q20.9531 3.32812 18.1094 8.20312
L18.1094 0
L9.07812 0
L9.07812 75.9844
L18.1094 75.9844
z
" id="BitstreamVeraSans-Roman-62"/>
    </defs>
    <g transform="translate(420.725 147.1125)scale(0.16 -0.16)">
     <use xlink:href="#BitstreamVeraSans-Roman-62"/>
    </g>
   </g>
  </g>
 </g>
 <defs>
  <clipPath id="p01f5081edd">
   <rect height="138.465" width="381.51" x="48.8" y="22.685"/>
  </clipPath>
 </defs>
</svg>
