<?xml version="1.0" encoding="utf-8" standalone="no"?>
<!DOCTYPE svg PUBLIC "-//W3C//DTD SVG 1.1//EN"
  "http://www.w3.org/Graphics/SVG/1.1/DTD/svg11.dtd">
<!-- Created with matplotlib (http://matplotlib.org/) -->
<svg height="178pt" version="1.1" viewBox="0 0 459 178" width="459pt" xmlns="http://www.w3.org/2000/svg" xmlns:xlink="http://www.w3.org/1999/xlink">
 <defs>
  <style type="text/css">
*{stroke-linecap:butt;stroke-linejoin:round;}
  </style>
 </defs>
 <g id="figure_1">
  <g id="patch_1">
   <path d="M 0 178.46725 
L 459.7615 178.46725 
L 459.7615 0 
L 0 0 
z
" style="fill:none;"/>
  </g>
  <g id="axes_1">
   <g id="patch_2">
    <path clip-path="url(#p183908805f)" d="M 262.64 132.845 
L 261.02 126.725 
L 262.6238 126.725 
L 262.6238 117.545 
L 262.6562 117.545 
L 262.6562 126.725 
L 264.26 126.725 
z
" style="stroke:#000000;stroke-linejoin:miter;stroke-width:1.5;"/>
   </g>
   <g id="line2d_1">
    <path clip-path="url(#p183908805f)" d="M 68.24 33.395 
L 68.24 48.695 
L 76.34 51.245 
L 60.14 56.345 
L 76.34 61.445 
L 60.14 66.545 
L 76.34 71.645 
L 60.14 76.745 
L 68.24 79.295 
L 68.24 94.595 
" style="fill:none;stroke:#000000;stroke-linecap:round;stroke-width:1.5;"/>
   </g>
   <g id="line2d_2">
    <path clip-path="url(#p183908805f)" d="M 68.24 155.795 
L 68.24 140.495 
L 68.24 140.495 
M 68.24 109.895 
L 68.24 109.895 
L 68.24 94.595 
" style="fill:none;stroke:#000000;stroke-linecap:round;stroke-width:1.5;"/>
   </g>
   <g id="line2d_3">
    <path clip-path="url(#p183908805f)" d="M 65 132.845 
L 71.48 132.845 
" style="fill:none;stroke:#000000;stroke-linecap:round;stroke-width:1.5;"/>
   </g>
   <g id="line2d_4">
    <path clip-path="url(#p183908805f)" d="M 68.24 120.605 
L 68.24 114.485 
" style="fill:none;stroke:#000000;stroke-linecap:round;stroke-width:1.5;"/>
   </g>
   <g id="line2d_5">
    <path clip-path="url(#p183908805f)" d="M 65 117.545 
L 71.48 117.545 
" style="fill:none;stroke:#000000;stroke-linecap:round;stroke-width:1.5;"/>
   </g>
   <g id="line2d_6">
    <path clip-path="url(#p183908805f)" d="M 68.24 155.795 
L 116.84 155.795 
L 165.44 155.795 
" style="fill:none;stroke:#000000;stroke-linecap:round;stroke-width:1.5;"/>
   </g>
   <g id="line2d_7">
    <path clip-path="url(#p183908805f)" d="M 165.44 155.795 
" style="fill:none;stroke:#000000;stroke-linecap:round;stroke-width:1.5;"/>
   </g>
   <g id="line2d_8">
    <path clip-path="url(#p183908805f)" d="M 68.24 33.395 
L 116.84 33.395 
L 165.44 33.395 
" style="fill:none;stroke:#000000;stroke-linecap:round;stroke-width:1.5;"/>
   </g>
   <g id="line2d_9">
    <path clip-path="url(#p183908805f)" d="M 165.44 33.395 
" style="fill:none;stroke:#000000;stroke-linecap:round;stroke-width:1.5;"/>
   </g>
   <g id="line2d_10">
    <path clip-path="url(#p183908805f)" d="M 165.44 94.595 
L 165.44 79.295 
L 165.44 79.295 
M 165.44 48.695 
L 165.44 48.695 
L 165.44 33.395 
" style="fill:none;stroke:#000000;stroke-linecap:round;stroke-width:1.5;"/>
   </g>
   <g id="line2d_11">
    <path clip-path="url(#p183908805f)" d="M 162.2 71.645 
L 168.68 71.645 
" style="fill:none;stroke:#000000;stroke-linecap:round;stroke-width:1.5;"/>
   </g>
   <g id="line2d_12">
    <path clip-path="url(#p183908805f)" d="M 165.44 59.405 
L 165.44 53.285 
" style="fill:none;stroke:#000000;stroke-linecap:round;stroke-width:1.5;"/>
   </g>
   <g id="line2d_13">
    <path clip-path="url(#p183908805f)" d="M 162.2 56.345 
L 168.68 56.345 
" style="fill:none;stroke:#000000;stroke-linecap:round;stroke-width:1.5;"/>
   </g>
   <g id="line2d_14">
    <path clip-path="url(#p183908805f)" d="M 165.44 94.595 
L 165.44 109.895 
L 173.54 112.445 
L 157.34 117.545 
L 173.54 122.645 
L 157.34 127.745 
L 173.54 132.845 
L 157.34 137.945 
L 165.44 140.495 
L 165.44 155.795 
" style="fill:none;stroke:#000000;stroke-linecap:round;stroke-width:1.5;"/>
   </g>
   <g id="line2d_15">
    <path clip-path="url(#p183908805f)" d="M 165.44 155.795 
" style="fill:none;stroke:#000000;stroke-linecap:round;stroke-width:1.5;"/>
   </g>
   <g id="line2d_16">
    <path clip-path="url(#p183908805f)" d="M 165.44 155.795 
L 214.04 155.795 
L 262.64 155.795 
" style="fill:none;stroke:#000000;stroke-linecap:round;stroke-width:1.5;"/>
   </g>
   <g id="line2d_17">
    <path clip-path="url(#p183908805f)" d="M 262.64 155.795 
L 262.64 140.495 
L 262.64 140.495 
M 262.64 109.895 
L 262.64 109.895 
L 262.64 94.595 
" style="fill:none;stroke:#000000;stroke-linecap:round;stroke-width:1.5;"/>
   </g>
   <g id="line2d_18">
    <path clip-path="url(#p183908805f)" d="M 262.64 94.595 
L 262.64 79.295 
L 254.54 76.745 
L 270.74 71.645 
L 254.54 66.545 
L 270.74 61.445 
L 254.54 56.345 
L 270.74 51.245 
L 262.64 48.695 
L 262.64 33.395 
" style="fill:none;stroke:#000000;stroke-linecap:round;stroke-width:1.5;"/>
   </g>
   <g id="line2d_19">
    <path clip-path="url(#p183908805f)" d="M 262.64 33.395 
" style="fill:none;stroke:#000000;stroke-linecap:round;stroke-width:1.5;"/>
   </g>
   <g id="line2d_20">
    <path clip-path="url(#p183908805f)" d="M 262.64 33.395 
L 214.04 33.395 
L 165.44 33.395 
" style="fill:none;stroke:#000000;stroke-linecap:round;stroke-width:1.5;"/>
   </g>
   <g id="line2d_21">
    <path clip-path="url(#p183908805f)" d="M 262.64 33.395 
L 311.24 33.395 
L 359.84 33.395 
" style="fill:none;stroke:#000000;stroke-linecap:round;stroke-width:1.5;"/>
   </g>
   <g id="line2d_22">
    <path clip-path="url(#p183908805f)" d="M 359.84 33.395 
" style="fill:none;stroke:#000000;stroke-linecap:round;stroke-width:1.5;"/>
   </g>
   <g id="line2d_23">
    <path clip-path="url(#p183908805f)" d="M 359.84 33.395 
L 359.84 79.295 
L 367.94 81.845 
L 351.74 86.945 
L 367.94 92.045 
L 351.74 97.145 
L 367.94 102.245 
L 351.74 107.345 
L 359.84 109.895 
L 359.84 155.795 
" style="fill:none;stroke:#000000;stroke-linecap:round;stroke-width:1.5;"/>
   </g>
   <g id="line2d_24">
    <path clip-path="url(#p183908805f)" d="M 359.84 155.795 
" style="fill:none;stroke:#000000;stroke-linecap:round;stroke-width:1.5;"/>
   </g>
   <g id="line2d_25">
    <path clip-path="url(#p183908805f)" d="M 359.84 155.795 
L 311.24 155.795 
L 262.64 155.795 
" style="fill:none;stroke:#000000;stroke-linecap:round;stroke-width:1.5;"/>
   </g>
   <g id="line2d_26">
    <path clip-path="url(#p183908805f)" d="M 359.84 33.395 
L 376.04 33.395 
L 378.74 25.745 
L 384.14 41.045 
L 389.54 25.745 
L 394.94 41.045 
L 400.34 25.745 
L 405.74 41.045 
L 408.44 33.395 
L 424.64 33.395 
" style="fill:none;stroke:#000000;stroke-linecap:round;stroke-width:1.5;"/>
   </g>
   <g id="line2d_27">
    <path clip-path="url(#p183908805f)" d="M 424.64 33.395 
" style="fill:none;stroke:#000000;stroke-linecap:round;stroke-width:1.5;"/>
   </g>
   <g id="line2d_28">
    <path clip-path="url(#p183908805f)" d="M 359.84 155.795 
L 392.24 155.795 
L 424.64 155.795 
" style="fill:none;stroke:#000000;stroke-linecap:round;stroke-width:1.5;"/>
   </g>
   <g id="line2d_29">
    <path clip-path="url(#p183908805f)" d="M 424.64 155.795 
" style="fill:none;stroke:#000000;stroke-linecap:round;stroke-width:1.5;"/>
   </g>
   <g id="patch_3">
    <path clip-path="url(#p183908805f)" d="M 68.24 140.495 
C 72.53629 140.495 76.657194 138.882895 79.69513 136.013734 
C 82.733066 133.144572 84.44 129.252607 84.44 125.195 
C 84.44 121.137393 82.733066 117.245428 79.69513 114.376266 
C 76.657194 111.507105 72.53629 109.895 68.24 109.895 
C 63.94371 109.895 59.822806 111.507105 56.78487 114.376266 
C 53.746934 117.245428 52.04 121.137393 52.04 125.195 
C 52.04 129.252607 53.746934 133.144572 56.78487 136.013734 
C 59.822806 138.882895 63.94371 140.495 68.24 140.495 
z
" style="fill:none;stroke:#000000;stroke-linejoin:miter;stroke-width:1.5;"/>
   </g>
   <g id="patch_4">
    <path clip-path="url(#p183908805f)" d="M 165.44 158.09 
C 166.084444 158.09 166.702579 157.848184 167.158269 157.41781 
C 167.61396 156.987436 167.87 156.403641 167.87 155.795 
C 167.87 155.186359 167.61396 154.602564 167.158269 154.17219 
C 166.702579 153.741816 166.084444 153.5 165.44 153.5 
C 164.795556 153.5 164.177421 153.741816 163.721731 154.17219 
C 163.26604 154.602564 163.01 155.186359 163.01 155.795 
C 163.01 156.403641 163.26604 156.987436 163.721731 157.41781 
C 164.177421 157.848184 164.795556 158.09 165.44 158.09 
z
" style="stroke:#000000;stroke-linejoin:miter;stroke-width:1.5;"/>
   </g>
   <g id="patch_5">
    <path clip-path="url(#p183908805f)" d="M 165.44 35.69 
C 166.084444 35.69 166.702579 35.448184 167.158269 35.01781 
C 167.61396 34.587436 167.87 34.003641 167.87 33.395 
C 167.87 32.786359 167.61396 32.202564 167.158269 31.77219 
C 166.702579 31.341816 166.084444 31.1 165.44 31.1 
C 164.795556 31.1 164.177421 31.341816 163.721731 31.77219 
C 163.26604 32.202564 163.01 32.786359 163.01 33.395 
C 163.01 34.003641 163.26604 34.587436 163.721731 35.01781 
C 164.177421 35.448184 164.795556 35.69 165.44 35.69 
z
" style="stroke:#000000;stroke-linejoin:miter;stroke-width:1.5;"/>
   </g>
   <g id="patch_6">
    <path clip-path="url(#p183908805f)" d="M 165.44 79.295 
C 169.73629 79.295 173.857194 77.682895 176.89513 74.813734 
C 179.933066 71.944572 181.64 68.052607 181.64 63.995 
C 181.64 59.937393 179.933066 56.045428 176.89513 53.176266 
C 173.857194 50.307105 169.73629 48.695 165.44 48.695 
C 161.14371 48.695 157.022806 50.307105 153.98487 53.176266 
C 150.946934 56.045428 149.24 59.937393 149.24 63.995 
C 149.24 68.052607 150.946934 71.944572 153.98487 74.813734 
C 157.022806 77.682895 161.14371 79.295 165.44 79.295 
z
" style="fill:none;stroke:#000000;stroke-linejoin:miter;stroke-width:1.5;"/>
   </g>
   <g id="patch_7">
    <path clip-path="url(#p183908805f)" d="M 165.44 158.09 
C 166.084444 158.09 166.702579 157.848184 167.158269 157.41781 
C 167.61396 156.987436 167.87 156.403641 167.87 155.795 
C 167.87 155.186359 167.61396 154.602564 167.158269 154.17219 
C 166.702579 153.741816 166.084444 153.5 165.44 153.5 
C 164.795556 153.5 164.177421 153.741816 163.721731 154.17219 
C 163.26604 154.602564 163.01 155.186359 163.01 155.795 
C 163.01 156.403641 163.26604 156.987436 163.721731 157.41781 
C 164.177421 157.848184 164.795556 158.09 165.44 158.09 
z
" style="stroke:#000000;stroke-linejoin:miter;stroke-width:1.5;"/>
   </g>
   <g id="patch_8">
    <path clip-path="url(#p183908805f)" d="M 262.64 140.495 
C 266.93629 140.495 271.057194 138.882895 274.09513 136.013734 
C 277.133066 133.144572 278.84 129.252607 278.84 125.195 
C 278.84 121.137393 277.133066 117.245428 274.09513 114.376266 
C 271.057194 111.507105 266.93629 109.895 262.64 109.895 
C 258.34371 109.895 254.222806 111.507105 251.18487 114.376266 
C 248.146934 117.245428 246.44 121.137393 246.44 125.195 
C 246.44 129.252607 248.146934 133.144572 251.18487 136.013734 
C 254.222806 138.882895 258.34371 140.495 262.64 140.495 
z
" style="fill:none;stroke:#000000;stroke-linejoin:miter;stroke-width:1.5;"/>
   </g>
   <g id="patch_9">
    <path clip-path="url(#p183908805f)" d="M 262.64 35.69 
C 263.284444 35.69 263.902579 35.448184 264.358269 35.01781 
C 264.81396 34.587436 265.07 34.003641 265.07 33.395 
C 265.07 32.786359 264.81396 32.202564 264.358269 31.77219 
C 263.902579 31.341816 263.284444 31.1 262.64 31.1 
C 261.995556 31.1 261.377421 31.341816 260.921731 31.77219 
C 260.46604 32.202564 260.21 32.786359 260.21 33.395 
C 260.21 34.003641 260.46604 34.587436 260.921731 35.01781 
C 261.377421 35.448184 261.995556 35.69 262.64 35.69 
z
" style="stroke:#000000;stroke-linejoin:miter;stroke-width:1.5;"/>
   </g>
   <g id="patch_10">
    <path clip-path="url(#p183908805f)" d="M 359.84 35.69 
C 360.484444 35.69 361.102579 35.448184 361.558269 35.01781 
C 362.01396 34.587436 362.27 34.003641 362.27 33.395 
C 362.27 32.786359 362.01396 32.202564 361.558269 31.77219 
C 361.102579 31.341816 360.484444 31.1 359.84 31.1 
C 359.195556 31.1 358.577421 31.341816 358.121731 31.77219 
C 357.66604 32.202564 357.41 32.786359 357.41 33.395 
C 357.41 34.003641 357.66604 34.587436 358.121731 35.01781 
C 358.577421 35.448184 359.195556 35.69 359.84 35.69 
z
" style="stroke:#000000;stroke-linejoin:miter;stroke-width:1.5;"/>
   </g>
   <g id="patch_11">
    <path clip-path="url(#p183908805f)" d="M 359.84 158.09 
C 360.484444 158.09 361.102579 157.848184 361.558269 157.41781 
C 362.01396 156.987436 362.27 156.403641 362.27 155.795 
C 362.27 155.186359 362.01396 154.602564 361.558269 154.17219 
C 361.102579 153.741816 360.484444 153.5 359.84 153.5 
C 359.195556 153.5 358.577421 153.741816 358.121731 154.17219 
C 357.66604 154.602564 357.41 155.186359 357.41 155.795 
C 357.41 156.403641 357.66604 156.987436 358.121731 157.41781 
C 358.577421 157.848184 359.195556 158.09 359.84 158.09 
z
" style="stroke:#000000;stroke-linejoin:miter;stroke-width:1.5;"/>
   </g>
   <g id="patch_12">
    <path clip-path="url(#p183908805f)" d="M 424.64 35.69 
C 425.284444 35.69 425.902579 35.448184 426.358269 35.01781 
C 426.81396 34.587436 427.07 34.003641 427.07 33.395 
C 427.07 32.786359 426.81396 32.202564 426.358269 31.77219 
C 425.902579 31.341816 425.284444 31.1 424.64 31.1 
C 423.995556 31.1 423.377421 31.341816 422.921731 31.77219 
C 422.46604 32.202564 422.21 32.786359 422.21 33.395 
C 422.21 34.003641 422.46604 34.587436 422.921731 35.01781 
C 423.377421 35.448184 423.995556 35.69 424.64 35.69 
z
" style="stroke:#000000;stroke-linejoin:miter;stroke-width:1.5;"/>
   </g>
   <g id="patch_13">
    <path clip-path="url(#p183908805f)" d="M 424.64 158.09 
C 425.284444 158.09 425.902579 157.848184 426.358269 157.41781 
C 426.81396 156.987436 427.07 156.403641 427.07 155.795 
C 427.07 155.186359 426.81396 154.602564 426.358269 154.17219 
C 425.902579 153.741816 425.284444 153.5 424.64 153.5 
C 423.995556 153.5 423.377421 153.741816 422.921731 154.17219 
C 422.46604 154.602564 422.21 155.186359 422.21 155.795 
C 422.21 156.403641 422.46604 156.987436 422.921731 157.41781 
C 423.377421 157.848184 423.995556 158.09 424.64 158.09 
z
" style="stroke:#000000;stroke-linejoin:miter;stroke-width:1.5;"/>
   </g>
   <g id="text_1">
    <!-- 20$\Omega$ -->
    <defs>
     <path d="M 19.1875 8.296875 
L 53.609375 8.296875 
L 53.609375 0 
L 7.328125 0 
L 7.328125 8.296875 
Q 12.9375 14.109375 22.625 23.890625 
Q 32.328125 33.6875 34.8125 36.53125 
Q 39.546875 41.84375 41.421875 45.53125 
Q 43.3125 49.21875 43.3125 52.78125 
Q 43.3125 58.59375 39.234375 62.25 
Q 35.15625 65.921875 28.609375 65.921875 
Q 23.96875 65.921875 18.8125 64.3125 
Q 13.671875 62.703125 7.8125 59.421875 
L 7.8125 69.390625 
Q 13.765625 71.78125 18.9375 73 
Q 24.125 74.21875 28.421875 74.21875 
Q 39.75 74.21875 46.484375 68.546875 
Q 53.21875 62.890625 53.21875 53.421875 
Q 53.21875 48.921875 51.53125 44.890625 
Q 49.859375 40.875 45.40625 35.40625 
Q 44.1875 33.984375 37.640625 27.21875 
Q 31.109375 20.453125 19.1875 8.296875 
z
" id="DejaVuSans-32"/>
     <path d="M 31.78125 66.40625 
Q 24.171875 66.40625 20.328125 58.90625 
Q 16.5 51.421875 16.5 36.375 
Q 16.5 21.390625 20.328125 13.890625 
Q 24.171875 6.390625 31.78125 6.390625 
Q 39.453125 6.390625 43.28125 13.890625 
Q 47.125 21.390625 47.125 36.375 
Q 47.125 51.421875 43.28125 58.90625 
Q 39.453125 66.40625 31.78125 66.40625 
z
M 31.78125 74.21875 
Q 44.046875 74.21875 50.515625 64.515625 
Q 56.984375 54.828125 56.984375 36.375 
Q 56.984375 17.96875 50.515625 8.265625 
Q 44.046875 -1.421875 31.78125 -1.421875 
Q 19.53125 -1.421875 13.0625 8.265625 
Q 6.59375 17.96875 6.59375 36.375 
Q 6.59375 54.828125 13.0625 64.515625 
Q 19.53125 74.21875 31.78125 74.21875 
z
" id="DejaVuSans-30"/>
     <path d="M 72.609375 8.6875 
L 72.609375 0 
L 43.3125 0 
L 43.3125 8.6875 
Q 51.953125 13.421875 56.78125 21.53125 
Q 61.625 29.640625 61.625 39.5 
Q 61.625 51.21875 55.171875 58.296875 
Q 48.734375 65.375 38.1875 65.375 
Q 27.640625 65.375 21.171875 58.265625 
Q 14.703125 51.171875 14.703125 39.5 
Q 14.703125 29.640625 19.53125 21.53125 
Q 24.421875 13.421875 33.109375 8.6875 
L 33.109375 0 
L 3.8125 0 
L 3.8125 8.6875 
L 19.390625 8.6875 
Q 11.671875 15.484375 8.109375 22.75 
Q 4.59375 30.03125 4.59375 39.015625 
Q 4.59375 54.546875 13.96875 64.15625 
Q 23.296875 73.78125 38.1875 73.78125 
Q 52.984375 73.78125 62.40625 64.15625 
Q 71.78125 54.59375 71.78125 39.5 
Q 71.78125 30.03125 68.3125 22.796875 
Q 64.84375 15.578125 56.984375 8.6875 
z
" id="DejaVuSans-3a9"/>
    </defs>
    <g transform="translate(24.26 68.41)scale(0.16 -0.16)">
     <use transform="translate(0 0.78125)" xlink:href="#DejaVuSans-32"/>
     <use transform="translate(63.623047 0.78125)" xlink:href="#DejaVuSans-30"/>
     <use transform="translate(127.246094 0.78125)" xlink:href="#DejaVuSans-3a9"/>
    </g>
   </g>
   <g id="text_2">
    <!-- $120V$ -->
    <defs>
     <path d="M 12.40625 8.296875 
L 28.515625 8.296875 
L 28.515625 63.921875 
L 10.984375 60.40625 
L 10.984375 69.390625 
L 28.421875 72.90625 
L 38.28125 72.90625 
L 38.28125 8.296875 
L 54.390625 8.296875 
L 54.390625 0 
L 12.40625 0 
z
" id="DejaVuSans-31"/>
     <path d="M 28.609375 0 
L 0.78125 72.90625 
L 11.078125 72.90625 
L 34.1875 11.53125 
L 57.328125 72.90625 
L 67.578125 72.90625 
L 39.796875 0 
z
" id="DejaVuSans-56"/>
    </defs>
    <g transform="translate(7.2 129.61)scale(0.16 -0.16)">
     <use transform="translate(0 0.78125)" xlink:href="#DejaVuSans-31"/>
     <use transform="translate(63.623047 0.78125)" xlink:href="#DejaVuSans-32"/>
     <use transform="translate(127.246094 0.78125)" xlink:href="#DejaVuSans-30"/>
     <use transform="translate(190.869141 0.78125)" xlink:href="#DejaVuSans-56"/>
    </g>
   </g>
   <g id="text_3">
    <!-- $60V$ -->
    <defs>
     <path d="M 33.015625 40.375 
Q 26.375 40.375 22.484375 35.828125 
Q 18.609375 31.296875 18.609375 23.390625 
Q 18.609375 15.53125 22.484375 10.953125 
Q 26.375 6.390625 33.015625 6.390625 
Q 39.65625 6.390625 43.53125 10.953125 
Q 47.40625 15.53125 47.40625 23.390625 
Q 47.40625 31.296875 43.53125 35.828125 
Q 39.65625 40.375 33.015625 40.375 
z
M 52.59375 71.296875 
L 52.59375 62.3125 
Q 48.875 64.0625 45.09375 64.984375 
Q 41.3125 65.921875 37.59375 65.921875 
Q 27.828125 65.921875 22.671875 59.328125 
Q 17.53125 52.734375 16.796875 39.40625 
Q 19.671875 43.65625 24.015625 45.921875 
Q 28.375 48.1875 33.59375 48.1875 
Q 44.578125 48.1875 50.953125 41.515625 
Q 57.328125 34.859375 57.328125 23.390625 
Q 57.328125 12.15625 50.6875 5.359375 
Q 44.046875 -1.421875 33.015625 -1.421875 
Q 20.359375 -1.421875 13.671875 8.265625 
Q 6.984375 17.96875 6.984375 36.375 
Q 6.984375 53.65625 15.1875 63.9375 
Q 23.390625 74.21875 37.203125 74.21875 
Q 40.921875 74.21875 44.703125 73.484375 
Q 48.484375 72.75 52.59375 71.296875 
z
" id="DejaVuSans-36"/>
    </defs>
    <g transform="translate(114.64 68.41)scale(0.16 -0.16)">
     <use transform="translate(0 0.78125)" xlink:href="#DejaVuSans-36"/>
     <use transform="translate(63.623047 0.78125)" xlink:href="#DejaVuSans-30"/>
     <use transform="translate(127.246094 0.78125)" xlink:href="#DejaVuSans-56"/>
    </g>
   </g>
   <g id="text_4">
    <!-- 5$\Omega$ -->
    <defs>
     <path d="M 10.796875 72.90625 
L 49.515625 72.90625 
L 49.515625 64.59375 
L 19.828125 64.59375 
L 19.828125 46.734375 
Q 21.96875 47.46875 24.109375 47.828125 
Q 26.265625 48.1875 28.421875 48.1875 
Q 40.625 48.1875 47.75 41.5 
Q 54.890625 34.8125 54.890625 23.390625 
Q 54.890625 11.625 47.5625 5.09375 
Q 40.234375 -1.421875 26.90625 -1.421875 
Q 22.3125 -1.421875 17.546875 -0.640625 
Q 12.796875 0.140625 7.71875 1.703125 
L 7.71875 11.625 
Q 12.109375 9.234375 16.796875 8.0625 
Q 21.484375 6.890625 26.703125 6.890625 
Q 35.15625 6.890625 40.078125 11.328125 
Q 45.015625 15.765625 45.015625 23.390625 
Q 45.015625 31 40.078125 35.4375 
Q 35.15625 39.890625 26.703125 39.890625 
Q 22.75 39.890625 18.8125 39.015625 
Q 14.890625 38.140625 10.796875 36.28125 
z
" id="DejaVuSans-35"/>
    </defs>
    <g transform="translate(131.54 129.61)scale(0.16 -0.16)">
     <use transform="translate(0 0.21875)" xlink:href="#DejaVuSans-35"/>
     <use transform="translate(63.623047 0.21875)" xlink:href="#DejaVuSans-3a9"/>
    </g>
   </g>
   <g id="text_5">
    <!-- $36A$ -->
    <defs>
     <path d="M 40.578125 39.3125 
Q 47.65625 37.796875 51.625 33 
Q 55.609375 28.21875 55.609375 21.1875 
Q 55.609375 10.40625 48.1875 4.484375 
Q 40.765625 -1.421875 27.09375 -1.421875 
Q 22.515625 -1.421875 17.65625 -0.515625 
Q 12.796875 0.390625 7.625 2.203125 
L 7.625 11.71875 
Q 11.71875 9.328125 16.59375 8.109375 
Q 21.484375 6.890625 26.8125 6.890625 
Q 36.078125 6.890625 40.9375 10.546875 
Q 45.796875 14.203125 45.796875 21.1875 
Q 45.796875 27.640625 41.28125 31.265625 
Q 36.765625 34.90625 28.71875 34.90625 
L 20.21875 34.90625 
L 20.21875 43.015625 
L 29.109375 43.015625 
Q 36.375 43.015625 40.234375 45.921875 
Q 44.09375 48.828125 44.09375 54.296875 
Q 44.09375 59.90625 40.109375 62.90625 
Q 36.140625 65.921875 28.71875 65.921875 
Q 24.65625 65.921875 20.015625 65.03125 
Q 15.375 64.15625 9.8125 62.3125 
L 9.8125 71.09375 
Q 15.4375 72.65625 20.34375 73.4375 
Q 25.25 74.21875 29.59375 74.21875 
Q 40.828125 74.21875 47.359375 69.109375 
Q 53.90625 64.015625 53.90625 55.328125 
Q 53.90625 49.265625 50.4375 45.09375 
Q 46.96875 40.921875 40.578125 39.3125 
z
" id="DejaVuSans-33"/>
     <path d="M 34.1875 63.1875 
L 20.796875 26.90625 
L 47.609375 26.90625 
z
M 28.609375 72.90625 
L 39.796875 72.90625 
L 67.578125 0 
L 57.328125 0 
L 50.6875 18.703125 
L 17.828125 18.703125 
L 11.1875 0 
L 0.78125 0 
z
" id="DejaVuSans-41"/>
    </defs>
    <g transform="translate(211.84 129.61)scale(0.16 -0.16)">
     <use transform="translate(0 0.78125)" xlink:href="#DejaVuSans-33"/>
     <use transform="translate(63.623047 0.78125)" xlink:href="#DejaVuSans-36"/>
     <use transform="translate(127.246094 0.78125)" xlink:href="#DejaVuSans-41"/>
    </g>
   </g>
   <g id="text_6">
    <!-- 10$\Omega$ -->
    <g transform="translate(218.66 68.41)scale(0.16 -0.16)">
     <use transform="translate(0 0.78125)" xlink:href="#DejaVuSans-31"/>
     <use transform="translate(63.623047 0.78125)" xlink:href="#DejaVuSans-30"/>
     <use transform="translate(127.246094 0.78125)" xlink:href="#DejaVuSans-3a9"/>
    </g>
   </g>
   <g id="text_7">
    <!-- 6$\Omega$ -->
    <g transform="translate(325.94 99.01)scale(0.16 -0.16)">
     <use transform="translate(0 0.78125)" xlink:href="#DejaVuSans-36"/>
     <use transform="translate(63.623047 0.78125)" xlink:href="#DejaVuSans-3a9"/>
    </g>
   </g>
   <g id="text_8">
    <!-- 1.6$\Omega$ -->
    <defs>
     <path d="M 10.6875 12.40625 
L 21 12.40625 
L 21 0 
L 10.6875 0 
z
" id="DejaVuSans-2e"/>
    </defs>
    <g transform="translate(373.36 19.3575)scale(0.16 -0.16)">
     <use transform="translate(0 0.78125)" xlink:href="#DejaVuSans-31"/>
     <use transform="translate(63.623047 0.78125)" xlink:href="#DejaVuSans-2e"/>
     <use transform="translate(95.410156 0.78125)" xlink:href="#DejaVuSans-36"/>
     <use transform="translate(159.033203 0.78125)" xlink:href="#DejaVuSans-3a9"/>
    </g>
   </g>
   <g id="text_9">
    <!-- a -->
    <defs>
     <path d="M 34.28125 27.484375 
Q 23.390625 27.484375 19.1875 25 
Q 14.984375 22.515625 14.984375 16.5 
Q 14.984375 11.71875 18.140625 8.90625 
Q 21.296875 6.109375 26.703125 6.109375 
Q 34.1875 6.109375 38.703125 11.40625 
Q 43.21875 16.703125 43.21875 25.484375 
L 43.21875 27.484375 
z
M 52.203125 31.203125 
L 52.203125 0 
L 43.21875 0 
L 43.21875 8.296875 
Q 40.140625 3.328125 35.546875 0.953125 
Q 30.953125 -1.421875 24.3125 -1.421875 
Q 15.921875 -1.421875 10.953125 3.296875 
Q 6 8.015625 6 15.921875 
Q 6 25.140625 12.171875 29.828125 
Q 18.359375 34.515625 30.609375 34.515625 
L 43.21875 34.515625 
L 43.21875 35.40625 
Q 43.21875 41.609375 39.140625 45 
Q 35.0625 48.390625 27.6875 48.390625 
Q 23 48.390625 18.546875 47.265625 
Q 14.109375 46.140625 10.015625 43.890625 
L 10.015625 52.203125 
Q 14.9375 54.109375 19.578125 55.046875 
Q 24.21875 56 28.609375 56 
Q 40.484375 56 46.34375 49.84375 
Q 52.203125 43.703125 52.203125 31.203125 
z
" id="DejaVuSans-61"/>
    </defs>
    <g transform="translate(419.7375 24.7125)scale(0.16 -0.16)">
     <use xlink:href="#DejaVuSans-61"/>
    </g>
   </g>
   <g id="text_10">
    <!-- b -->
    <defs>
     <path d="M 48.6875 27.296875 
Q 48.6875 37.203125 44.609375 42.84375 
Q 40.53125 48.484375 33.40625 48.484375 
Q 26.265625 48.484375 22.1875 42.84375 
Q 18.109375 37.203125 18.109375 27.296875 
Q 18.109375 17.390625 22.1875 11.75 
Q 26.265625 6.109375 33.40625 6.109375 
Q 40.53125 6.109375 44.609375 11.75 
Q 48.6875 17.390625 48.6875 27.296875 
z
M 18.109375 46.390625 
Q 20.953125 51.265625 25.265625 53.625 
Q 29.59375 56 35.59375 56 
Q 45.5625 56 51.78125 48.09375 
Q 58.015625 40.1875 58.015625 27.296875 
Q 58.015625 14.40625 51.78125 6.484375 
Q 45.5625 -1.421875 35.59375 -1.421875 
Q 29.59375 -1.421875 25.265625 0.953125 
Q 20.953125 3.328125 18.109375 8.203125 
L 18.109375 0 
L 9.078125 0 
L 9.078125 75.984375 
L 18.109375 75.984375 
z
" id="DejaVuSans-62"/>
    </defs>
    <g transform="translate(419.56125 147.1125)scale(0.16 -0.16)">
     <use xlink:href="#DejaVuSans-62"/>
    </g>
   </g>
  </g>
 </g>
 <defs>
  <clipPath id="p183908805f">
   <rect height="151.6995" width="419.013" x="30.0485" y="16.06775"/>
  </clipPath>
 </defs>
</svg>
