<?xml version="1.0" encoding="utf-8" standalone="no"?>
<!DOCTYPE svg PUBLIC "-//W3C//DTD SVG 1.1//EN"
  "http://www.w3.org/Graphics/SVG/1.1/DTD/svg11.dtd">
<!-- Created with matplotlib (http://matplotlib.org/) -->
<svg height="240pt" version="1.1" viewBox="0 0 280 240" width="280pt" xmlns="http://www.w3.org/2000/svg" xmlns:xlink="http://www.w3.org/1999/xlink">
 <defs>
  <style type="text/css">
*{stroke-linecap:butt;stroke-linejoin:round;}
  </style>
 </defs>
 <g id="figure_1">
  <g id="patch_1">
   <path d="
M0 240.504
L280.728 240.504
L280.728 0
L0 0
L0 240.504" style="fill:none;"/>
  </g>
  <g id="axes_1">
   <g id="line2d_1">
    <path clip-path="url(#p014e071b14)" d="
M176.589 121.92
L176.589 115.8" style="fill:none;stroke:#000000;stroke-linecap:round;stroke-width:1.5;"/>
   </g>
   <g id="line2d_2">
    <path clip-path="url(#p014e071b14)" d="
M167.82 99.735
L167.82 61.485
L237.968 99.735
L167.82 137.985
L167.82 99.735
M237.968 99.735" style="fill:none;stroke:#000000;stroke-linecap:round;stroke-width:1.5;"/>
   </g>
   <g id="line2d_3">
    <path clip-path="url(#p014e071b14)" d="
M173.349 80.61
L179.829 80.61" style="fill:none;stroke:#000000;stroke-linecap:round;stroke-width:1.5;"/>
   </g>
   <g id="line2d_4">
    <path clip-path="url(#p014e071b14)" d="
M173.349 118.86
L179.829 118.86" style="fill:none;stroke:#000000;stroke-linecap:round;stroke-width:1.5;"/>
   </g>
   <g id="line2d_5">
    <path clip-path="url(#p014e071b14)" d="
M237.968 99.735
L250.118 99.735
L262.268 99.735" style="fill:none;stroke:#000000;stroke-linecap:round;stroke-width:1.5;"/>
   </g>
   <g id="line2d_6">
    <path clip-path="url(#p014e071b14)" d="
M167.82 80.61
L155.67 80.61
L143.52 80.61" style="fill:none;stroke:#000000;stroke-linecap:round;stroke-width:1.5;"/>
   </g>
   <g id="line2d_7">
    <path clip-path="url(#p014e071b14)" d="
M143.52 80.61
L143.52 57.66
L143.52 34.71" style="fill:none;stroke:#000000;stroke-linecap:round;stroke-width:1.5;"/>
   </g>
   <g id="line2d_8">
    <path clip-path="url(#p014e071b14)" d="
M143.52 34.71" style="fill:none;stroke:#000000;stroke-linecap:round;stroke-width:1.5;"/>
   </g>
   <g id="line2d_9">
    <path clip-path="url(#p014e071b14)" d="
M143.52 34.71
L111.12 34.71
L108.42 42.36
L103.02 27.06
L97.62 42.36
L92.22 27.06
L86.82 42.36
L81.42 27.06
L78.72 34.71
L46.32 34.71" style="fill:none;stroke:#000000;stroke-linecap:round;stroke-width:1.5;"/>
   </g>
   <g id="line2d_10">
    <path clip-path="url(#p014e071b14)" d="
M46.32 34.71
L46.32 46.95
L38.22 46.95
L54.42 46.95
M40.65 50.622
L51.99 50.622
M44.7 54.294
L47.94 54.294" style="fill:none;stroke:#000000;stroke-linecap:round;stroke-width:1.5;"/>
   </g>
   <g id="line2d_11">
    <path clip-path="url(#p014e071b14)" d="
M143.52 34.71
L182.644 34.71
L185.344 27.06
L190.744 42.36
L196.144 27.06
L201.544 42.36
L206.944 27.06
L212.344 42.36
L215.044 34.71
L254.168 34.71" style="fill:none;stroke:#000000;stroke-linecap:round;stroke-width:1.5;"/>
   </g>
   <g id="line2d_12">
    <path clip-path="url(#p014e071b14)" d="
M254.168 34.71
L254.168 67.2225
L254.168 99.735" style="fill:none;stroke:#000000;stroke-linecap:round;stroke-width:1.5;"/>
   </g>
   <g id="line2d_13">
    <path clip-path="url(#p014e071b14)" d="
M254.168 99.735" style="fill:none;stroke:#000000;stroke-linecap:round;stroke-width:1.5;"/>
   </g>
   <g id="line2d_14">
    <path clip-path="url(#p014e071b14)" d="
M167.82 118.86
L155.67 118.86
L143.52 118.86" style="fill:none;stroke:#000000;stroke-linecap:round;stroke-width:1.5;"/>
   </g>
   <g id="line2d_15">
    <path clip-path="url(#p014e071b14)" d="
M143.52 118.86" style="fill:none;stroke:#000000;stroke-linecap:round;stroke-width:1.5;"/>
   </g>
   <g id="line2d_16">
    <path clip-path="url(#p014e071b14)" d="
M143.52 118.86
L143.52 149.46
L151.62 152.01
L135.42 157.11
L151.62 162.21
L135.42 167.31
L151.62 172.41
L135.42 177.51
L143.52 180.06
L143.52 210.66" style="fill:none;stroke:#000000;stroke-linecap:round;stroke-width:1.5;"/>
   </g>
   <g id="line2d_17">
    <path clip-path="url(#p014e071b14)" d="
M143.52 210.66" style="fill:none;stroke:#000000;stroke-linecap:round;stroke-width:1.5;"/>
   </g>
   <g id="line2d_18">
    <path clip-path="url(#p014e071b14)" d="
M143.52 210.66
L143.52 222.9
L135.42 222.9
L151.62 222.9
M137.85 226.572
L149.19 226.572
M141.9 230.244
L145.14 230.244" style="fill:none;stroke:#000000;stroke-linecap:round;stroke-width:1.5;"/>
   </g>
   <g id="line2d_19">
    <path clip-path="url(#p014e071b14)" d="
M143.52 118.86
L111.12 118.86
L108.42 126.51
L103.02 111.21
L97.62 126.51
L92.22 111.21
L86.82 126.51
L81.42 111.21
L78.72 118.86
L46.32 118.86" style="fill:none;stroke:#000000;stroke-linecap:round;stroke-width:1.5;"/>
   </g>
   <g id="line2d_20">
    <path clip-path="url(#p014e071b14)" d="
M46.32 210.66
L46.32 180.06
L46.32 180.06
M46.32 149.46
L46.32 149.46
L46.32 118.86" style="fill:none;stroke:#000000;stroke-linecap:round;stroke-width:1.5;"/>
   </g>
   <g id="line2d_21">
    <path clip-path="url(#p014e071b14)" d="
M43.08 172.41
L49.56 172.41" style="fill:none;stroke:#000000;stroke-linecap:round;stroke-width:1.5;"/>
   </g>
   <g id="line2d_22">
    <path clip-path="url(#p014e071b14)" d="
M46.32 160.17
L46.32 154.05" style="fill:none;stroke:#000000;stroke-linecap:round;stroke-width:1.5;"/>
   </g>
   <g id="line2d_23">
    <path clip-path="url(#p014e071b14)" d="
M43.08 157.11
L49.56 157.11" style="fill:none;stroke:#000000;stroke-linecap:round;stroke-width:1.5;"/>
   </g>
   <g id="line2d_24">
    <path clip-path="url(#p014e071b14)" d="
M46.32 210.66
L150.244 210.66
L254.168 210.66" style="fill:none;stroke:#000000;stroke-linecap:round;stroke-width:1.5;"/>
   </g>
   <g id="line2d_25">
    <path clip-path="url(#p014e071b14)" d="
M254.168 99.735
L254.168 139.898
M254.168 170.498
L254.168 210.66" style="fill:none;stroke:#ffffff;stroke-linecap:round;stroke-width:1.5;"/>
   </g>
   <g id="patch_2">
    <path clip-path="url(#p014e071b14)" d="
M143.52 37.005
C144.164 37.005 144.783 36.7632 145.238 36.3328
C145.694 35.9024 145.95 35.3186 145.95 34.71
C145.95 34.1014 145.694 33.5176 145.238 33.0872
C144.783 32.6568 144.164 32.415 143.52 32.415
C142.876 32.415 142.257 32.6568 141.802 33.0872
C141.346 33.5176 141.09 34.1014 141.09 34.71
C141.09 35.3186 141.346 35.9024 141.802 36.3328
C142.257 36.7632 142.876 37.005 143.52 37.005
z
" style="stroke:#000000;stroke-linejoin:miter;stroke-width:1.5;"/>
   </g>
   <g id="patch_3">
    <path clip-path="url(#p014e071b14)" d="
M254.168 102.03
C254.813 102.03 255.431 101.788 255.886 101.358
C256.342 100.927 256.598 100.344 256.598 99.735
C256.598 99.1264 256.342 98.5426 255.886 98.1122
C255.431 97.6818 254.813 97.44 254.168 97.44
C253.524 97.44 252.905 97.6818 252.45 98.1122
C251.994 98.5426 251.738 99.1264 251.738 99.735
C251.738 100.344 251.994 100.927 252.45 101.358
C252.905 101.788 253.524 102.03 254.168 102.03
z
" style="stroke:#000000;stroke-linejoin:miter;stroke-width:1.5;"/>
   </g>
   <g id="patch_4">
    <path clip-path="url(#p014e071b14)" d="
M143.52 121.155
C144.164 121.155 144.783 120.913 145.238 120.483
C145.694 120.052 145.95 119.469 145.95 118.86
C145.95 118.251 145.694 117.668 145.238 117.237
C144.783 116.807 144.164 116.565 143.52 116.565
C142.876 116.565 142.257 116.807 141.802 117.237
C141.346 117.668 141.09 118.251 141.09 118.86
C141.09 119.469 141.346 120.052 141.802 120.483
C142.257 120.913 142.876 121.155 143.52 121.155
z
" style="stroke:#000000;stroke-linejoin:miter;stroke-width:1.5;"/>
   </g>
   <g id="patch_5">
    <path clip-path="url(#p014e071b14)" d="
M143.52 212.955
C144.164 212.955 144.783 212.713 145.238 212.283
C145.694 211.852 145.95 211.269 145.95 210.66
C145.95 210.051 145.694 209.468 145.238 209.037
C144.783 208.607 144.164 208.365 143.52 208.365
C142.876 208.365 142.257 208.607 141.802 209.037
C141.346 209.468 141.09 210.051 141.09 210.66
C141.09 211.269 141.346 211.852 141.802 212.283
C142.257 212.713 142.876 212.955 143.52 212.955
z
" style="stroke:#000000;stroke-linejoin:miter;stroke-width:1.5;"/>
   </g>
   <g id="patch_6">
    <path clip-path="url(#p014e071b14)" d="
M46.32 180.06
C50.6163 180.06 54.7372 178.448 57.7751 175.579
C60.8131 172.71 62.52 168.818 62.52 164.76
C62.52 160.702 60.8131 156.81 57.7751 153.941
C54.7372 151.072 50.6163 149.46 46.32 149.46
C42.0237 149.46 37.9028 151.072 34.8649 153.941
C31.8269 156.81 30.12 160.702 30.12 164.76
C30.12 168.818 31.8269 172.71 34.8649 175.579
C37.9028 178.448 42.0237 180.06 46.32 180.06
L46.32 180.06" style="fill:none;stroke:#000000;stroke-linejoin:miter;stroke-width:1.5;"/>
   </g>
   <g id="text_1">
    <!-- $R_1$ -->
    <defs>
     <path d="
M44.3906 34.1875
Q47.5625 33.1094 50.5625 29.5938
Q53.5625 26.0781 56.5938 19.9219
L66.6094 0
L56 0
L46.6875 18.7031
Q43.0625 26.0312 39.6719 28.4219
Q36.2812 30.8125 30.4219 30.8125
L19.6719 30.8125
L19.6719 0
L9.8125 0
L9.8125 72.9062
L32.0781 72.9062
Q44.5781 72.9062 50.7344 67.6719
Q56.8906 62.4531 56.8906 51.9062
Q56.8906 45.0156 53.6875 40.4688
Q50.4844 35.9375 44.3906 34.1875
M19.6719 64.7969
L19.6719 38.9219
L32.0781 38.9219
Q39.2031 38.9219 42.8438 42.2188
Q46.4844 45.5156 46.4844 51.9062
Q46.4844 58.2969 42.8438 61.5469
Q39.2031 64.7969 32.0781 64.7969
z
" id="BitstreamVeraSans-Roman-52"/>
     <path d="
M12.4062 8.29688
L28.5156 8.29688
L28.5156 63.9219
L10.9844 60.4062
L10.9844 69.3906
L28.4219 72.9062
L38.2812 72.9062
L38.2812 8.29688
L54.3906 8.29688
L54.3906 0
L12.4062 0
z
" id="BitstreamVeraSans-Roman-31"/>
    </defs>
    <g transform="translate(84.2 18.88)scale(0.16 -0.16)">
     <use transform="translate(0.0 0.09375)" xlink:href="#BitstreamVeraSans-Roman-52"/>
     <use transform="translate(69.482421875 -31.40625)scale(0.7)" xlink:href="#BitstreamVeraSans-Roman-31"/>
    </g>
   </g>
   <g id="text_2">
    <!-- $R_f$ -->
    <defs>
     <path d="
M37.1094 75.9844
L37.1094 68.5
L28.5156 68.5
Q23.6875 68.5 21.7969 66.5469
Q19.9219 64.5938 19.9219 59.5156
L19.9219 54.6875
L34.7188 54.6875
L34.7188 47.7031
L19.9219 47.7031
L19.9219 0
L10.8906 0
L10.8906 47.7031
L2.29688 47.7031
L2.29688 54.6875
L10.8906 54.6875
L10.8906 58.5
Q10.8906 67.625 15.1406 71.7969
Q19.3906 75.9844 28.6094 75.9844
z
" id="BitstreamVeraSans-Roman-66"/>
    </defs>
    <g transform="translate(190.444028853 18.88)scale(0.16 -0.16)">
     <use transform="translate(0.0 0.09375)" xlink:href="#BitstreamVeraSans-Roman-52"/>
     <use transform="translate(69.482421875 -31.40625)scale(0.7)" xlink:href="#BitstreamVeraSans-Roman-66"/>
    </g>
   </g>
   <g id="text_3">
    <!-- $R_3$ -->
    <defs>
     <path d="
M40.5781 39.3125
Q47.6562 37.7969 51.625 33
Q55.6094 28.2188 55.6094 21.1875
Q55.6094 10.4062 48.1875 4.48438
Q40.7656 -1.42188 27.0938 -1.42188
Q22.5156 -1.42188 17.6562 -0.515625
Q12.7969 0.390625 7.625 2.20312
L7.625 11.7188
Q11.7188 9.32812 16.5938 8.10938
Q21.4844 6.89062 26.8125 6.89062
Q36.0781 6.89062 40.9375 10.5469
Q45.7969 14.2031 45.7969 21.1875
Q45.7969 27.6406 41.2812 31.2656
Q36.7656 34.9062 28.7188 34.9062
L20.2188 34.9062
L20.2188 43.0156
L29.1094 43.0156
Q36.375 43.0156 40.2344 45.9219
Q44.0938 48.8281 44.0938 54.2969
Q44.0938 59.9062 40.1094 62.9062
Q36.1406 65.9219 28.7188 65.9219
Q24.6562 65.9219 20.0156 65.0312
Q15.375 64.1562 9.8125 62.3125
L9.8125 71.0938
Q15.4375 72.6562 20.3438 73.4375
Q25.25 74.2188 29.5938 74.2188
Q40.8281 74.2188 47.3594 69.1094
Q53.9062 64.0156 53.9062 55.3281
Q53.9062 49.2656 50.4375 45.0938
Q46.9688 40.9219 40.5781 39.3125" id="BitstreamVeraSans-Roman-33"/>
    </defs>
    <g transform="translate(110.74 167.96)scale(0.16 -0.16)">
     <use transform="translate(0.0 0.09375)" xlink:href="#BitstreamVeraSans-Roman-52"/>
     <use transform="translate(69.482421875 -31.40625)scale(0.7)" xlink:href="#BitstreamVeraSans-Roman-33"/>
    </g>
   </g>
   <g id="text_4">
    <!-- $R_2$ -->
    <defs>
     <path d="
M19.1875 8.29688
L53.6094 8.29688
L53.6094 0
L7.32812 0
L7.32812 8.29688
Q12.9375 14.1094 22.625 23.8906
Q32.3281 33.6875 34.8125 36.5312
Q39.5469 41.8438 41.4219 45.5312
Q43.3125 49.2188 43.3125 52.7812
Q43.3125 58.5938 39.2344 62.25
Q35.1562 65.9219 28.6094 65.9219
Q23.9688 65.9219 18.8125 64.3125
Q13.6719 62.7031 7.8125 59.4219
L7.8125 69.3906
Q13.7656 71.7812 18.9375 73
Q24.125 74.2188 28.4219 74.2188
Q39.75 74.2188 46.4844 68.5469
Q53.2188 62.8906 53.2188 53.4219
Q53.2188 48.9219 51.5312 44.8906
Q49.8594 40.875 45.4062 35.4062
Q44.1875 33.9844 37.6406 27.2188
Q31.1094 20.4531 19.1875 8.29688" id="BitstreamVeraSans-Roman-32"/>
    </defs>
    <g transform="translate(84.2 103.03)scale(0.16 -0.16)">
     <use transform="translate(0.0 0.09375)" xlink:href="#BitstreamVeraSans-Roman-52"/>
     <use transform="translate(69.482421875 -31.40625)scale(0.7)" xlink:href="#BitstreamVeraSans-Roman-32"/>
    </g>
   </g>
   <g id="text_5">
    <!-- $v_{in}$ -->
    <defs>
     <path d="
M9.42188 54.6875
L18.4062 54.6875
L18.4062 0
L9.42188 0
z

M9.42188 75.9844
L18.4062 75.9844
L18.4062 64.5938
L9.42188 64.5938
z
" id="BitstreamVeraSans-Roman-69"/>
     <path d="
M54.8906 33.0156
L54.8906 0
L45.9062 0
L45.9062 32.7188
Q45.9062 40.4844 42.875 44.3281
Q39.8438 48.1875 33.7969 48.1875
Q26.5156 48.1875 22.3125 43.5469
Q18.1094 38.9219 18.1094 30.9062
L18.1094 0
L9.07812 0
L9.07812 54.6875
L18.1094 54.6875
L18.1094 46.1875
Q21.3438 51.125 25.7031 53.5625
Q30.0781 56 35.7969 56
Q45.2188 56 50.0469 50.1719
Q54.8906 44.3438 54.8906 33.0156" id="BitstreamVeraSans-Roman-6e"/>
     <path d="
M2.98438 54.6875
L12.5 54.6875
L29.5938 8.79688
L46.6875 54.6875
L56.2031 54.6875
L35.6875 0
L23.4844 0
z
" id="BitstreamVeraSans-Roman-76"/>
    </defs>
    <g transform="translate(7.2 167.3825)scale(0.16 -0.16)">
     <use transform="translate(0.0 0.3125)" xlink:href="#BitstreamVeraSans-Roman-76"/>
     <use transform="translate(59.1796875 -31.1875)scale(0.7)" xlink:href="#BitstreamVeraSans-Roman-69"/>
     <use transform="translate(78.6279296875 -31.1875)scale(0.7)" xlink:href="#BitstreamVeraSans-Roman-6e"/>
    </g>
   </g>
   <g id="text_6">
    <!-- + -->
    <defs>
     <path d="
M46 62.7031
L46 35.5
L73.1875 35.5
L73.1875 27.2031
L46 27.2031
L46 0
L37.7969 0
L37.7969 27.2031
L10.5938 27.2031
L10.5938 35.5
L37.7969 35.5
L37.7969 62.7031
z
" id="BitstreamVeraSans-Roman-2b"/>
    </defs>
    <g transform="translate(254.168057707 131.88125)scale(0.16 -0.16)">
     <use xlink:href="#BitstreamVeraSans-Roman-2b"/>
    </g>
   </g>
   <g id="text_7">
    <!-- $v_o$ -->
    <defs>
     <path d="
M30.6094 48.3906
Q23.3906 48.3906 19.1875 42.75
Q14.9844 37.1094 14.9844 27.2969
Q14.9844 17.4844 19.1562 11.8438
Q23.3438 6.20312 30.6094 6.20312
Q37.7969 6.20312 41.9844 11.8594
Q46.1875 17.5312 46.1875 27.2969
Q46.1875 37.0156 41.9844 42.7031
Q37.7969 48.3906 30.6094 48.3906
M30.6094 56
Q42.3281 56 49.0156 48.375
Q55.7188 40.7656 55.7188 27.2969
Q55.7188 13.875 49.0156 6.21875
Q42.3281 -1.42188 30.6094 -1.42188
Q18.8438 -1.42188 12.1719 6.21875
Q5.51562 13.875 5.51562 27.2969
Q5.51562 40.7656 12.1719 48.375
Q18.8438 56 30.6094 56" id="BitstreamVeraSans-Roman-6f"/>
    </defs>
    <g transform="translate(254.168057707 157.66)scale(0.16 -0.16)">
     <use transform="translate(0.0 0.3125)" xlink:href="#BitstreamVeraSans-Roman-76"/>
     <use transform="translate(59.1796875 -31.1875)scale(0.7)" xlink:href="#BitstreamVeraSans-Roman-6f"/>
    </g>
   </g>
   <g id="text_8">
    <!-- $-$ -->
    <defs>
     <path d="
M10.5938 35.5
L73.1875 35.5
L73.1875 27.2031
L10.5938 27.2031
z
" id="BitstreamVeraSans-Roman-2212"/>
    </defs>
    <g transform="translate(254.168057707 187.34375)scale(0.16 -0.16)">
     <use transform="translate(0.0 0.5)" xlink:href="#BitstreamVeraSans-Roman-2212"/>
    </g>
   </g>
  </g>
 </g>
 <defs>
  <clipPath id="p014e071b14">
   <rect height="209.304" width="238.628057707" x="26.88" y="24.0"/>
  </clipPath>
 </defs>
</svg>
