<?xml version="1.0" encoding="utf-8" standalone="no"?>
<!DOCTYPE svg PUBLIC "-//W3C//DTD SVG 1.1//EN"
  "http://www.w3.org/Graphics/SVG/1.1/DTD/svg11.dtd">
<!-- Created with matplotlib (https://matplotlib.org/) -->
<svg height="209.7388pt" version="1.1" viewBox="0 0 560.076115 209.7388" width="560.076115pt" xmlns="http://www.w3.org/2000/svg" xmlns:xlink="http://www.w3.org/1999/xlink">
 <defs>
  <style type="text/css">
*{stroke-linecap:butt;stroke-linejoin:round;white-space:pre;}
  </style>
 </defs>
 <g id="figure_1">
  <g id="patch_1">
   <path d="M 0 209.7388 
L 560.076115 209.7388 
L 560.076115 0 
L 0 0 
z
" style="fill:none;"/>
  </g>
  <g id="axes_1">
   <g id="patch_2">
    <path clip-path="url(#p3ef2ef9245)" d="M 76.62 145.601875 
C 80.91629 145.601875 85.037194 144.132015 88.07513 141.516015 
C 91.113066 138.900014 92.82 135.351458 92.82 131.651875 
C 92.82 127.952292 91.113066 124.403736 88.07513 121.787735 
C 85.037194 119.171735 80.91629 117.701875 76.62 117.701875 
C 72.32371 117.701875 68.202806 119.171735 65.16487 121.787735 
C 62.126934 124.403736 60.42 127.952292 60.42 131.651875 
C 60.42 135.351458 62.126934 138.900014 65.16487 141.516015 
C 68.202806 144.132015 72.32371 145.601875 76.62 145.601875 
z
" style="fill:none;stroke:#000000;stroke-linejoin:miter;stroke-width:2;"/>
   </g>
   <g id="patch_3">
    <path clip-path="url(#p3ef2ef9245)" d="M 173.82 91.894375 
C 174.464444 91.894375 175.082579 91.673896 175.538269 91.281496 
C 175.99396 90.889096 176.25 90.356812 176.25 89.801875 
C 176.25 89.246938 175.99396 88.714654 175.538269 88.322254 
C 175.082579 87.929854 174.464444 87.709375 173.82 87.709375 
C 173.175556 87.709375 172.557421 87.929854 172.101731 88.322254 
C 171.64604 88.714654 171.39 89.246938 171.39 89.801875 
C 171.39 90.356812 171.64604 90.889096 172.101731 91.281496 
C 172.557421 91.673896 173.175556 91.894375 173.82 91.894375 
z
" style="stroke:#000000;stroke-linejoin:miter;stroke-width:2;"/>
   </g>
   <g id="patch_4">
    <path clip-path="url(#p3ef2ef9245)" d="M 271.02 109.331875 
C 271.664444 109.331875 272.282579 109.111396 272.738269 108.718996 
C 273.19396 108.326596 273.45 107.794312 273.45 107.239375 
C 273.45 106.684438 273.19396 106.152154 272.738269 105.759754 
C 272.282579 105.367354 271.664444 105.146875 271.02 105.146875 
C 270.375556 105.146875 269.757421 105.367354 269.301731 105.759754 
C 268.84604 106.152154 268.59 106.684438 268.59 107.239375 
C 268.59 107.794312 268.84604 108.326596 269.301731 108.718996 
C 269.757421 109.111396 270.375556 109.331875 271.02 109.331875 
z
" style="stroke:#000000;stroke-linejoin:miter;stroke-width:2;"/>
   </g>
   <g id="patch_5">
    <path clip-path="url(#p3ef2ef9245)" d="M 405.968058 74.456875 
C 406.612501 74.456875 407.230637 74.236396 407.686327 73.843996 
C 408.142018 73.451596 408.398058 72.919312 408.398058 72.364375 
C 408.398058 71.809438 408.142018 71.277154 407.686327 70.884754 
C 407.230637 70.492354 406.612501 70.271875 405.968058 70.271875 
C 405.323614 70.271875 404.705479 70.492354 404.249788 70.884754 
C 403.794098 71.277154 403.538058 71.809438 403.538058 72.364375 
C 403.538058 72.919312 403.794098 73.451596 404.249788 73.843996 
C 404.705479 74.236396 405.323614 74.456875 405.968058 74.456875 
z
" style="stroke:#000000;stroke-linejoin:miter;stroke-width:2;"/>
   </g>
   <g id="patch_6">
    <path clip-path="url(#p3ef2ef9245)" d="M 503.168058 91.894375 
C 503.812501 91.894375 504.430637 91.673896 504.886327 91.281496 
C 505.342018 90.889096 505.598058 90.356812 505.598058 89.801875 
C 505.598058 89.246938 505.342018 88.714654 504.886327 88.322254 
C 504.430637 87.929854 503.812501 87.709375 503.168058 87.709375 
C 502.523614 87.709375 501.905479 87.929854 501.449788 88.322254 
C 500.994098 88.714654 500.738058 89.246938 500.738058 89.801875 
C 500.738058 90.356812 500.994098 90.889096 501.449788 91.281496 
C 501.905479 91.673896 502.523614 91.894375 503.168058 91.894375 
z
" style="stroke:#000000;stroke-linejoin:miter;stroke-width:2;"/>
   </g>
   <g id="line2d_1">
    <path clip-path="url(#p3ef2ef9245)" d="M 76.62 173.501875 
L 76.62 184.661875 
L 68.52 184.661875 
L 84.72 184.661875 
M 70.95 188.009875 
L 82.29 188.009875 
M 75 191.357875 
L 78.24 191.357875 
" style="fill:none;stroke:#000000;stroke-linecap:round;stroke-width:2;"/>
   </g>
   <g id="line2d_2">
    <path clip-path="url(#p3ef2ef9245)" d="M 79.86 138.626875 
L 73.38 138.626875 
" style="fill:none;stroke:#000000;stroke-linecap:round;stroke-width:2;"/>
   </g>
   <g id="line2d_3">
    <path clip-path="url(#p3ef2ef9245)" d="M 76.62 127.466875 
L 76.62 121.886875 
" style="fill:none;stroke:#000000;stroke-linecap:round;stroke-width:2;"/>
   </g>
   <g id="line2d_4">
    <path clip-path="url(#p3ef2ef9245)" d="M 79.86 124.676875 
L 73.38 124.676875 
" style="fill:none;stroke:#000000;stroke-linecap:round;stroke-width:2;"/>
   </g>
   <g id="line2d_5">
    <path clip-path="url(#p3ef2ef9245)" d="M 76.62 173.501875 
L 76.62 145.601875 
L 76.62 145.601875 
M 76.62 117.701875 
L 76.62 117.701875 
L 76.62 89.801875 
" style="fill:none;stroke:#000000;stroke-linecap:round;stroke-width:2;"/>
   </g>
   <g id="line2d_6">
    <path clip-path="url(#p3ef2ef9245)" d="M 76.62 89.801875 
L 109.02 89.801875 
L 111.72 82.826875 
L 117.12 96.776875 
L 122.52 82.826875 
L 127.92 96.776875 
L 133.32 82.826875 
L 138.72 96.776875 
L 141.42 89.801875 
L 173.82 89.801875 
" style="fill:none;stroke:#000000;stroke-linecap:round;stroke-width:2;"/>
   </g>
   <g id="line2d_7">
    <path clip-path="url(#p3ef2ef9245)" d="M 173.82 89.801875 
" style="fill:none;stroke:#000000;stroke-linecap:round;stroke-width:2;"/>
   </g>
   <g id="line2d_8">
    <path clip-path="url(#p3ef2ef9245)" d="M 173.82 89.801875 
L 181.92 89.801875 
L 190.02 89.801875 
" style="fill:none;stroke:#000000;stroke-linecap:round;stroke-width:2;"/>
   </g>
   <g id="line2d_9">
    <path clip-path="url(#p3ef2ef9245)" d="M 190.02 107.239375 
L 190.02 72.364375 
L 260.168058 107.239375 
L 190.02 142.114375 
L 190.02 107.239375 
M 260.168058 107.239375 
" style="fill:none;stroke:#000000;stroke-linecap:round;stroke-width:2;"/>
   </g>
   <g id="line2d_10">
    <path clip-path="url(#p3ef2ef9245)" d="M 195.548507 89.801875 
L 202.028507 89.801875 
" style="fill:none;stroke:#000000;stroke-linecap:round;stroke-width:2;"/>
   </g>
   <g id="line2d_11">
    <path clip-path="url(#p3ef2ef9245)" d="M 195.548507 124.676875 
L 202.028507 124.676875 
" style="fill:none;stroke:#000000;stroke-linecap:round;stroke-width:2;"/>
   </g>
   <g id="line2d_12">
    <path clip-path="url(#p3ef2ef9245)" d="M 198.788507 127.466875 
L 198.788507 121.886875 
" style="fill:none;stroke:#000000;stroke-linecap:round;stroke-width:2;"/>
   </g>
   <g id="line2d_13">
    <path clip-path="url(#p3ef2ef9245)" d="M 190.02 124.676875 
L 177.87 124.676875 
L 165.72 124.676875 
" style="fill:none;stroke:#000000;stroke-linecap:round;stroke-width:2;"/>
   </g>
   <g id="line2d_14">
    <path clip-path="url(#p3ef2ef9245)" d="M 165.72 124.676875 
L 165.72 135.836875 
L 157.62 135.836875 
L 173.82 135.836875 
M 160.05 139.184875 
L 171.39 139.184875 
M 164.1 142.532875 
L 167.34 142.532875 
" style="fill:none;stroke:#000000;stroke-linecap:round;stroke-width:2;"/>
   </g>
   <g id="line2d_15">
    <path clip-path="url(#p3ef2ef9245)" d="M 173.82 89.801875 
L 173.82 61.901875 
L 173.82 34.001875 
" style="fill:none;stroke:#000000;stroke-linecap:round;stroke-width:2;"/>
   </g>
   <g id="line2d_16">
    <path clip-path="url(#p3ef2ef9245)" d="M 173.82 34.001875 
L 206.22 34.001875 
L 208.92 27.026875 
L 214.32 40.976875 
L 219.72 27.026875 
L 225.12 40.976875 
L 230.52 27.026875 
L 235.92 40.976875 
L 238.62 34.001875 
L 271.02 34.001875 
" style="fill:none;stroke:#000000;stroke-linecap:round;stroke-width:2;"/>
   </g>
   <g id="line2d_17">
    <path clip-path="url(#p3ef2ef9245)" d="M 271.02 34.001875 
L 271.02 70.620625 
L 271.02 107.239375 
" style="fill:none;stroke:#000000;stroke-linecap:round;stroke-width:2;"/>
   </g>
   <g id="line2d_18">
    <path clip-path="url(#p3ef2ef9245)" d="M 271.02 107.239375 
" style="fill:none;stroke:#000000;stroke-linecap:round;stroke-width:2;"/>
   </g>
   <g id="line2d_19">
    <path clip-path="url(#p3ef2ef9245)" d="M 260.168058 107.239375 
L 341.168058 107.239375 
L 422.168058 107.239375 
" style="fill:none;stroke:#000000;stroke-linecap:round;stroke-width:2;"/>
   </g>
   <g id="line2d_20">
    <path clip-path="url(#p3ef2ef9245)" d="M 422.168058 89.801875 
L 422.168058 54.926875 
L 492.316115 89.801875 
L 422.168058 124.676875 
L 422.168058 89.801875 
M 492.316115 89.801875 
" style="fill:none;stroke:#000000;stroke-linecap:round;stroke-width:2;"/>
   </g>
   <g id="line2d_21">
    <path clip-path="url(#p3ef2ef9245)" d="M 427.696565 72.364375 
L 434.176565 72.364375 
" style="fill:none;stroke:#000000;stroke-linecap:round;stroke-width:2;"/>
   </g>
   <g id="line2d_22">
    <path clip-path="url(#p3ef2ef9245)" d="M 427.696565 107.239375 
L 434.176565 107.239375 
" style="fill:none;stroke:#000000;stroke-linecap:round;stroke-width:2;"/>
   </g>
   <g id="line2d_23">
    <path clip-path="url(#p3ef2ef9245)" d="M 430.936565 110.029375 
L 430.936565 104.449375 
" style="fill:none;stroke:#000000;stroke-linecap:round;stroke-width:2;"/>
   </g>
   <g id="line2d_24">
    <path clip-path="url(#p3ef2ef9245)" d="M 422.168058 72.364375 
L 414.068058 72.364375 
L 405.968058 72.364375 
" style="fill:none;stroke:#000000;stroke-linecap:round;stroke-width:2;"/>
   </g>
   <g id="line2d_25">
    <path clip-path="url(#p3ef2ef9245)" d="M 405.968058 72.364375 
" style="fill:none;stroke:#000000;stroke-linecap:round;stroke-width:2;"/>
   </g>
   <g id="line2d_26">
    <path clip-path="url(#p3ef2ef9245)" d="M 405.968058 72.364375 
L 373.568058 72.364375 
L 370.868058 79.339375 
L 365.468058 65.389375 
L 360.068058 79.339375 
L 354.668058 65.389375 
L 349.268058 79.339375 
L 343.868058 65.389375 
L 341.168058 72.364375 
L 308.768058 72.364375 
" style="fill:none;stroke:#000000;stroke-linecap:round;stroke-width:2;"/>
   </g>
   <g id="line2d_27">
    <path clip-path="url(#p3ef2ef9245)" d="M 308.768058 72.364375 
L 308.768058 83.524375 
L 300.668058 83.524375 
L 316.868058 83.524375 
M 303.098058 86.872375 
L 314.438058 86.872375 
M 307.148058 90.220375 
L 310.388058 90.220375 
" style="fill:none;stroke:#000000;stroke-linecap:round;stroke-width:2;"/>
   </g>
   <g id="line2d_28">
    <path clip-path="url(#p3ef2ef9245)" d="M 405.968058 72.364375 
L 405.968058 51.439375 
L 405.968058 30.514375 
" style="fill:none;stroke:#000000;stroke-linecap:round;stroke-width:2;"/>
   </g>
   <g id="line2d_29">
    <path clip-path="url(#p3ef2ef9245)" d="M 405.968058 30.514375 
L 438.368058 30.514375 
L 441.068058 23.539375 
L 446.468058 37.489375 
L 451.868058 23.539375 
L 457.268058 37.489375 
L 462.668058 23.539375 
L 468.068058 37.489375 
L 470.768058 30.514375 
L 503.168058 30.514375 
" style="fill:none;stroke:#000000;stroke-linecap:round;stroke-width:2;"/>
   </g>
   <g id="line2d_30">
    <path clip-path="url(#p3ef2ef9245)" d="M 503.168058 30.514375 
L 503.168058 60.158125 
L 503.168058 89.801875 
" style="fill:none;stroke:#000000;stroke-linecap:round;stroke-width:2;"/>
   </g>
   <g id="line2d_31">
    <path clip-path="url(#p3ef2ef9245)" d="M 503.168058 89.801875 
" style="fill:none;stroke:#000000;stroke-linecap:round;stroke-width:2;"/>
   </g>
   <g id="line2d_32">
    <path clip-path="url(#p3ef2ef9245)" d="M 492.316115 89.801875 
L 508.516115 89.801875 
L 524.716115 89.801875 
" style="fill:none;stroke:#000000;stroke-linecap:round;stroke-width:2;"/>
   </g>
   <g id="text_1">
    <!-- $500mV$ -->
    <defs>
     <path d="M 10.796875 72.90625 
L 49.515625 72.90625 
L 49.515625 64.59375 
L 19.828125 64.59375 
L 19.828125 46.734375 
Q 21.96875 47.46875 24.109375 47.828125 
Q 26.265625 48.1875 28.421875 48.1875 
Q 40.625 48.1875 47.75 41.5 
Q 54.890625 34.8125 54.890625 23.390625 
Q 54.890625 11.625 47.5625 5.09375 
Q 40.234375 -1.421875 26.90625 -1.421875 
Q 22.3125 -1.421875 17.546875 -0.640625 
Q 12.796875 0.140625 7.71875 1.703125 
L 7.71875 11.625 
Q 12.109375 9.234375 16.796875 8.0625 
Q 21.484375 6.890625 26.703125 6.890625 
Q 35.15625 6.890625 40.078125 11.328125 
Q 45.015625 15.765625 45.015625 23.390625 
Q 45.015625 31 40.078125 35.4375 
Q 35.15625 39.890625 26.703125 39.890625 
Q 22.75 39.890625 18.8125 39.015625 
Q 14.890625 38.140625 10.796875 36.28125 
z
" id="DejaVuSans-53"/>
     <path d="M 31.78125 66.40625 
Q 24.171875 66.40625 20.328125 58.90625 
Q 16.5 51.421875 16.5 36.375 
Q 16.5 21.390625 20.328125 13.890625 
Q 24.171875 6.390625 31.78125 6.390625 
Q 39.453125 6.390625 43.28125 13.890625 
Q 47.125 21.390625 47.125 36.375 
Q 47.125 51.421875 43.28125 58.90625 
Q 39.453125 66.40625 31.78125 66.40625 
z
M 31.78125 74.21875 
Q 44.046875 74.21875 50.515625 64.515625 
Q 56.984375 54.828125 56.984375 36.375 
Q 56.984375 17.96875 50.515625 8.265625 
Q 44.046875 -1.421875 31.78125 -1.421875 
Q 19.53125 -1.421875 13.0625 8.265625 
Q 6.59375 17.96875 6.59375 36.375 
Q 6.59375 54.828125 13.0625 64.515625 
Q 19.53125 74.21875 31.78125 74.21875 
z
" id="DejaVuSans-48"/>
     <path d="M 52 44.1875 
Q 55.375 50.25 60.0625 53.125 
Q 64.75 56 71.09375 56 
Q 79.640625 56 84.28125 50.015625 
Q 88.921875 44.046875 88.921875 33.015625 
L 88.921875 0 
L 79.890625 0 
L 79.890625 32.71875 
Q 79.890625 40.578125 77.09375 44.375 
Q 74.3125 48.1875 68.609375 48.1875 
Q 61.625 48.1875 57.5625 43.546875 
Q 53.515625 38.921875 53.515625 30.90625 
L 53.515625 0 
L 44.484375 0 
L 44.484375 32.71875 
Q 44.484375 40.625 41.703125 44.40625 
Q 38.921875 48.1875 33.109375 48.1875 
Q 26.21875 48.1875 22.15625 43.53125 
Q 18.109375 38.875 18.109375 30.90625 
L 18.109375 0 
L 9.078125 0 
L 9.078125 54.6875 
L 18.109375 54.6875 
L 18.109375 46.1875 
Q 21.1875 51.21875 25.484375 53.609375 
Q 29.78125 56 35.6875 56 
Q 41.65625 56 45.828125 52.96875 
Q 50 49.953125 52 44.1875 
z
" id="DejaVuSans-109"/>
     <path d="M 28.609375 0 
L 0.78125 72.90625 
L 11.078125 72.90625 
L 34.1875 11.53125 
L 57.328125 72.90625 
L 67.578125 72.90625 
L 39.796875 0 
z
" id="DejaVuSans-86"/>
    </defs>
    <g transform="translate(7.2 135.515)scale(0.14 -0.14)">
     <use transform="translate(0 0.78125)" xlink:href="#DejaVuSans-53"/>
     <use transform="translate(63.623047 0.78125)" xlink:href="#DejaVuSans-48"/>
     <use transform="translate(127.246094 0.78125)" xlink:href="#DejaVuSans-48"/>
     <use transform="translate(190.869141 0.78125)" xlink:href="#DejaVuSans-109"/>
     <use transform="translate(288.28125 0.78125)" xlink:href="#DejaVuSans-86"/>
    </g>
   </g>
   <g id="text_2">
    <!-- 20k$\Omega$ -->
    <defs>
     <path d="M 19.1875 8.296875 
L 53.609375 8.296875 
L 53.609375 0 
L 7.328125 0 
L 7.328125 8.296875 
Q 12.9375 14.109375 22.625 23.890625 
Q 32.328125 33.6875 34.8125 36.53125 
Q 39.546875 41.84375 41.421875 45.53125 
Q 43.3125 49.21875 43.3125 52.78125 
Q 43.3125 58.59375 39.234375 62.25 
Q 35.15625 65.921875 28.609375 65.921875 
Q 23.96875 65.921875 18.8125 64.3125 
Q 13.671875 62.703125 7.8125 59.421875 
L 7.8125 69.390625 
Q 13.765625 71.78125 18.9375 73 
Q 24.125 74.21875 28.421875 74.21875 
Q 39.75 74.21875 46.484375 68.546875 
Q 53.21875 62.890625 53.21875 53.421875 
Q 53.21875 48.921875 51.53125 44.890625 
Q 49.859375 40.875 45.40625 35.40625 
Q 44.1875 33.984375 37.640625 27.21875 
Q 31.109375 20.453125 19.1875 8.296875 
z
" id="DejaVuSans-50"/>
     <path d="M 9.078125 75.984375 
L 18.109375 75.984375 
L 18.109375 31.109375 
L 44.921875 54.6875 
L 56.390625 54.6875 
L 27.390625 29.109375 
L 57.625 0 
L 45.90625 0 
L 18.109375 26.703125 
L 18.109375 0 
L 9.078125 0 
z
" id="DejaVuSans-107"/>
     <path d="M 72.609375 8.6875 
L 72.609375 0 
L 43.3125 0 
L 43.3125 8.6875 
Q 51.953125 13.421875 56.78125 21.53125 
Q 61.625 29.640625 61.625 39.5 
Q 61.625 51.21875 55.171875 58.296875 
Q 48.734375 65.375 38.1875 65.375 
Q 27.640625 65.375 21.171875 58.265625 
Q 14.703125 51.171875 14.703125 39.5 
Q 14.703125 29.640625 19.53125 21.53125 
Q 24.421875 13.421875 33.109375 8.6875 
L 33.109375 0 
L 3.8125 0 
L 3.8125 8.6875 
L 19.390625 8.6875 
Q 11.671875 15.484375 8.109375 22.75 
Q 4.59375 30.03125 4.59375 39.015625 
Q 4.59375 54.546875 13.96875 64.15625 
Q 23.296875 73.78125 38.1875 73.78125 
Q 52.984375 73.78125 62.40625 64.15625 
Q 71.78125 54.59375 71.78125 39.5 
Q 71.78125 30.03125 68.3125 22.796875 
Q 64.84375 15.578125 56.984375 8.6875 
z
" id="DejaVuSans-937"/>
    </defs>
    <g transform="translate(106.88 77.125312)scale(0.14 -0.14)">
     <use transform="translate(0 0.015625)" xlink:href="#DejaVuSans-50"/>
     <use transform="translate(63.623047 0.015625)" xlink:href="#DejaVuSans-48"/>
     <use transform="translate(127.246094 0.015625)" xlink:href="#DejaVuSans-107"/>
     <use transform="translate(185.15625 0.015625)" xlink:href="#DejaVuSans-937"/>
    </g>
   </g>
   <g id="text_3">
    <!-- 100k$\Omega$ -->
    <defs>
     <path d="M 12.40625 8.296875 
L 28.515625 8.296875 
L 28.515625 63.921875 
L 10.984375 60.40625 
L 10.984375 69.390625 
L 28.421875 72.90625 
L 38.28125 72.90625 
L 38.28125 8.296875 
L 54.390625 8.296875 
L 54.390625 0 
L 12.40625 0 
z
" id="DejaVuSans-49"/>
    </defs>
    <g transform="translate(199.6 21.325312)scale(0.14 -0.14)">
     <use transform="translate(0 0.015625)" xlink:href="#DejaVuSans-49"/>
     <use transform="translate(63.623047 0.015625)" xlink:href="#DejaVuSans-48"/>
     <use transform="translate(127.246094 0.015625)" xlink:href="#DejaVuSans-48"/>
     <use transform="translate(190.869141 0.015625)" xlink:href="#DejaVuSans-107"/>
     <use transform="translate(248.779297 0.015625)" xlink:href="#DejaVuSans-937"/>
    </g>
   </g>
   <g id="text_4">
    <!-- 30k$\Omega$ -->
    <defs>
     <path d="M 40.578125 39.3125 
Q 47.65625 37.796875 51.625 33 
Q 55.609375 28.21875 55.609375 21.1875 
Q 55.609375 10.40625 48.1875 4.484375 
Q 40.765625 -1.421875 27.09375 -1.421875 
Q 22.515625 -1.421875 17.65625 -0.515625 
Q 12.796875 0.390625 7.625 2.203125 
L 7.625 11.71875 
Q 11.71875 9.328125 16.59375 8.109375 
Q 21.484375 6.890625 26.8125 6.890625 
Q 36.078125 6.890625 40.9375 10.546875 
Q 45.796875 14.203125 45.796875 21.1875 
Q 45.796875 27.640625 41.28125 31.265625 
Q 36.765625 34.90625 28.71875 34.90625 
L 20.21875 34.90625 
L 20.21875 43.015625 
L 29.109375 43.015625 
Q 36.375 43.015625 40.234375 45.921875 
Q 44.09375 48.828125 44.09375 54.296875 
Q 44.09375 59.90625 40.109375 62.90625 
Q 36.140625 65.921875 28.71875 65.921875 
Q 24.65625 65.921875 20.015625 65.03125 
Q 15.375 64.15625 9.8125 62.3125 
L 9.8125 71.09375 
Q 15.4375 72.65625 20.34375 73.4375 
Q 25.25 74.21875 29.59375 74.21875 
Q 40.828125 74.21875 47.359375 69.109375 
Q 53.90625 64.015625 53.90625 55.328125 
Q 53.90625 49.265625 50.4375 45.09375 
Q 46.96875 40.921875 40.578125 39.3125 
z
" id="DejaVuSans-51"/>
    </defs>
    <g transform="translate(339.028058 59.687812)scale(0.14 -0.14)">
     <use transform="translate(0 0.015625)" xlink:href="#DejaVuSans-51"/>
     <use transform="translate(63.623047 0.015625)" xlink:href="#DejaVuSans-48"/>
     <use transform="translate(127.246094 0.015625)" xlink:href="#DejaVuSans-107"/>
     <use transform="translate(185.15625 0.015625)" xlink:href="#DejaVuSans-937"/>
    </g>
   </g>
   <g id="text_5">
    <!-- 90k$\Omega$ -->
    <defs>
     <path d="M 10.984375 1.515625 
L 10.984375 10.5 
Q 14.703125 8.734375 18.5 7.8125 
Q 22.3125 6.890625 25.984375 6.890625 
Q 35.75 6.890625 40.890625 13.453125 
Q 46.046875 20.015625 46.78125 33.40625 
Q 43.953125 29.203125 39.59375 26.953125 
Q 35.25 24.703125 29.984375 24.703125 
Q 19.046875 24.703125 12.671875 31.3125 
Q 6.296875 37.9375 6.296875 49.421875 
Q 6.296875 60.640625 12.9375 67.421875 
Q 19.578125 74.21875 30.609375 74.21875 
Q 43.265625 74.21875 49.921875 64.515625 
Q 56.59375 54.828125 56.59375 36.375 
Q 56.59375 19.140625 48.40625 8.859375 
Q 40.234375 -1.421875 26.421875 -1.421875 
Q 22.703125 -1.421875 18.890625 -0.6875 
Q 15.09375 0.046875 10.984375 1.515625 
z
M 30.609375 32.421875 
Q 37.25 32.421875 41.125 36.953125 
Q 45.015625 41.5 45.015625 49.421875 
Q 45.015625 57.28125 41.125 61.84375 
Q 37.25 66.40625 30.609375 66.40625 
Q 23.96875 66.40625 20.09375 61.84375 
Q 16.21875 57.28125 16.21875 49.421875 
Q 16.21875 41.5 20.09375 36.953125 
Q 23.96875 32.421875 30.609375 32.421875 
z
" id="DejaVuSans-57"/>
    </defs>
    <g transform="translate(436.228058 17.837812)scale(0.14 -0.14)">
     <use transform="translate(0 0.015625)" xlink:href="#DejaVuSans-57"/>
     <use transform="translate(63.623047 0.015625)" xlink:href="#DejaVuSans-48"/>
     <use transform="translate(127.246094 0.015625)" xlink:href="#DejaVuSans-107"/>
     <use transform="translate(185.15625 0.015625)" xlink:href="#DejaVuSans-937"/>
    </g>
   </g>
   <g id="text_6">
    <!-- $v_{out}$ -->
    <defs>
     <path d="M 2.984375 54.6875 
L 12.5 54.6875 
L 29.59375 8.796875 
L 46.6875 54.6875 
L 56.203125 54.6875 
L 35.6875 0 
L 23.484375 0 
z
" id="DejaVuSans-118"/>
     <path d="M 30.609375 48.390625 
Q 23.390625 48.390625 19.1875 42.75 
Q 14.984375 37.109375 14.984375 27.296875 
Q 14.984375 17.484375 19.15625 11.84375 
Q 23.34375 6.203125 30.609375 6.203125 
Q 37.796875 6.203125 41.984375 11.859375 
Q 46.1875 17.53125 46.1875 27.296875 
Q 46.1875 37.015625 41.984375 42.703125 
Q 37.796875 48.390625 30.609375 48.390625 
z
M 30.609375 56 
Q 42.328125 56 49.015625 48.375 
Q 55.71875 40.765625 55.71875 27.296875 
Q 55.71875 13.875 49.015625 6.21875 
Q 42.328125 -1.421875 30.609375 -1.421875 
Q 18.84375 -1.421875 12.171875 6.21875 
Q 5.515625 13.875 5.515625 27.296875 
Q 5.515625 40.765625 12.171875 48.375 
Q 18.84375 56 30.609375 56 
z
" id="DejaVuSans-111"/>
     <path d="M 8.5 21.578125 
L 8.5 54.6875 
L 17.484375 54.6875 
L 17.484375 21.921875 
Q 17.484375 14.15625 20.5 10.265625 
Q 23.53125 6.390625 29.59375 6.390625 
Q 36.859375 6.390625 41.078125 11.03125 
Q 45.3125 15.671875 45.3125 23.6875 
L 45.3125 54.6875 
L 54.296875 54.6875 
L 54.296875 0 
L 45.3125 0 
L 45.3125 8.40625 
Q 42.046875 3.421875 37.71875 1 
Q 33.40625 -1.421875 27.6875 -1.421875 
Q 18.265625 -1.421875 13.375 4.4375 
Q 8.5 10.296875 8.5 21.578125 
z
M 31.109375 56 
z
" id="DejaVuSans-117"/>
     <path d="M 18.3125 70.21875 
L 18.3125 54.6875 
L 36.8125 54.6875 
L 36.8125 47.703125 
L 18.3125 47.703125 
L 18.3125 18.015625 
Q 18.3125 11.328125 20.140625 9.421875 
Q 21.96875 7.515625 27.59375 7.515625 
L 36.8125 7.515625 
L 36.8125 0 
L 27.59375 0 
Q 17.1875 0 13.234375 3.875 
Q 9.28125 7.765625 9.28125 18.015625 
L 9.28125 47.703125 
L 2.6875 47.703125 
L 2.6875 54.6875 
L 9.28125 54.6875 
L 9.28125 70.21875 
z
" id="DejaVuSans-116"/>
    </defs>
    <g transform="translate(527.956115 93.665)scale(0.14 -0.14)">
     <use transform="translate(0 0.3125)" xlink:href="#DejaVuSans-118"/>
     <use transform="translate(60.136719 -16.09375)scale(0.7)" xlink:href="#DejaVuSans-111"/>
     <use transform="translate(102.963867 -16.09375)scale(0.7)" xlink:href="#DejaVuSans-117"/>
     <use transform="translate(147.329102 -16.09375)scale(0.7)" xlink:href="#DejaVuSans-116"/>
    </g>
   </g>
  </g>
 </g>
 <defs>
  <clipPath id="p3ef2ef9245">
   <rect height="190.18035" width="517.205727" x="33.965194" y="12.35845"/>
  </clipPath>
 </defs>
</svg>
