<?xml version="1.0" encoding="utf-8" standalone="no"?>
<!DOCTYPE svg PUBLIC "-//W3C//DTD SVG 1.1//EN"
  "http://www.w3.org/Graphics/SVG/1.1/DTD/svg11.dtd">
<!-- Created with matplotlib (http://matplotlib.org/) -->
<svg height="220pt" version="1.1" viewBox="0 0 570 220" width="570pt" xmlns="http://www.w3.org/2000/svg" xmlns:xlink="http://www.w3.org/1999/xlink">
 <defs>
  <style type="text/css">
*{stroke-linecap:butt;stroke-linejoin:round;}
  </style>
 </defs>
 <g id="figure_1">
  <g id="patch_1">
   <path d="
M0 220.064
L570.136 220.064
L570.136 -2.84217e-14
L0 -2.84217e-14
L0 220.064" style="fill:none;"/>
  </g>
  <g id="axes_1">
   <g id="line2d_1">
    <path clip-path="url(#p63e9810d7d)" d="
M83.76 190.22
L83.76 202.46
L75.66 202.46
L91.86 202.46
M78.09 206.132
L89.43 206.132
M82.14 209.804
L85.38 209.804" style="fill:none;stroke:#000000;stroke-linecap:round;stroke-width:1.5;"/>
   </g>
   <g id="line2d_2">
    <path clip-path="url(#p63e9810d7d)" d="
M83.76 190.22
L83.76 159.62
L83.76 159.62
M83.76 129.02
L83.76 129.02
L83.76 98.42" style="fill:none;stroke:#000000;stroke-linecap:round;stroke-width:1.5;"/>
   </g>
   <g id="line2d_3">
    <path clip-path="url(#p63e9810d7d)" d="
M87 151.97
L80.52 151.97" style="fill:none;stroke:#000000;stroke-linecap:round;stroke-width:1.5;"/>
   </g>
   <g id="line2d_4">
    <path clip-path="url(#p63e9810d7d)" d="
M83.76 139.73
L83.76 133.61" style="fill:none;stroke:#000000;stroke-linecap:round;stroke-width:1.5;"/>
   </g>
   <g id="line2d_5">
    <path clip-path="url(#p63e9810d7d)" d="
M87 136.67
L80.52 136.67" style="fill:none;stroke:#000000;stroke-linecap:round;stroke-width:1.5;"/>
   </g>
   <g id="line2d_6">
    <path clip-path="url(#p63e9810d7d)" d="
M83.76 98.42
L116.16 98.42
L118.86 90.77
L124.26 106.07
L129.66 90.77
L135.06 106.07
L140.46 90.77
L145.86 106.07
L148.56 98.42
L180.96 98.42" style="fill:none;stroke:#000000;stroke-linecap:round;stroke-width:1.5;"/>
   </g>
   <g id="line2d_7">
    <path clip-path="url(#p63e9810d7d)" d="
M180.96 98.42" style="fill:none;stroke:#000000;stroke-linecap:round;stroke-width:1.5;"/>
   </g>
   <g id="line2d_8">
    <path clip-path="url(#p63e9810d7d)" d="
M180.96 98.42
L189.06 98.42
L197.16 98.42" style="fill:none;stroke:#000000;stroke-linecap:round;stroke-width:1.5;"/>
   </g>
   <g id="line2d_9">
    <path clip-path="url(#p63e9810d7d)" d="
M205.929 139.73
L205.929 133.61" style="fill:none;stroke:#000000;stroke-linecap:round;stroke-width:1.5;"/>
   </g>
   <g id="line2d_10">
    <path clip-path="url(#p63e9810d7d)" d="
M197.16 117.545
L197.16 79.295
L267.308 117.545
L197.16 155.795
L197.16 117.545
M267.308 117.545" style="fill:none;stroke:#000000;stroke-linecap:round;stroke-width:1.5;"/>
   </g>
   <g id="line2d_11">
    <path clip-path="url(#p63e9810d7d)" d="
M202.689 98.42
L209.169 98.42" style="fill:none;stroke:#000000;stroke-linecap:round;stroke-width:1.5;"/>
   </g>
   <g id="line2d_12">
    <path clip-path="url(#p63e9810d7d)" d="
M202.689 136.67
L209.169 136.67" style="fill:none;stroke:#000000;stroke-linecap:round;stroke-width:1.5;"/>
   </g>
   <g id="line2d_13">
    <path clip-path="url(#p63e9810d7d)" d="
M197.16 136.67
L185.01 136.67
L172.86 136.67" style="fill:none;stroke:#000000;stroke-linecap:round;stroke-width:1.5;"/>
   </g>
   <g id="line2d_14">
    <path clip-path="url(#p63e9810d7d)" d="
M172.86 136.67
L172.86 148.91
L164.76 148.91
L180.96 148.91
M167.19 152.582
L178.53 152.582
M171.24 156.254
L174.48 156.254" style="fill:none;stroke:#000000;stroke-linecap:round;stroke-width:1.5;"/>
   </g>
   <g id="line2d_15">
    <path clip-path="url(#p63e9810d7d)" d="
M180.96 98.42
L180.96 67.82
L180.96 37.22" style="fill:none;stroke:#000000;stroke-linecap:round;stroke-width:1.5;"/>
   </g>
   <g id="line2d_16">
    <path clip-path="url(#p63e9810d7d)" d="
M180.96 37.22
L213.36 37.22
L216.06 29.57
L221.46 44.87
L226.86 29.57
L232.26 44.87
L237.66 29.57
L243.06 44.87
L245.76 37.22
L278.16 37.22" style="fill:none;stroke:#000000;stroke-linecap:round;stroke-width:1.5;"/>
   </g>
   <g id="line2d_17">
    <path clip-path="url(#p63e9810d7d)" d="
M278.16 37.22
L278.16 77.3825
L278.16 117.545" style="fill:none;stroke:#000000;stroke-linecap:round;stroke-width:1.5;"/>
   </g>
   <g id="line2d_18">
    <path clip-path="url(#p63e9810d7d)" d="
M278.16 117.545" style="fill:none;stroke:#000000;stroke-linecap:round;stroke-width:1.5;"/>
   </g>
   <g id="line2d_19">
    <path clip-path="url(#p63e9810d7d)" d="
M267.308 117.545
L348.308 117.545
L429.308 117.545" style="fill:none;stroke:#000000;stroke-linecap:round;stroke-width:1.5;"/>
   </g>
   <g id="line2d_20">
    <path clip-path="url(#p63e9810d7d)" d="
M438.077 120.605
L438.077 114.485" style="fill:none;stroke:#000000;stroke-linecap:round;stroke-width:1.5;"/>
   </g>
   <g id="line2d_21">
    <path clip-path="url(#p63e9810d7d)" d="
M429.308 98.42
L429.308 60.17
L499.456 98.42
L429.308 136.67
L429.308 98.42
M499.456 98.42" style="fill:none;stroke:#000000;stroke-linecap:round;stroke-width:1.5;"/>
   </g>
   <g id="line2d_22">
    <path clip-path="url(#p63e9810d7d)" d="
M434.837 79.295
L441.317 79.295" style="fill:none;stroke:#000000;stroke-linecap:round;stroke-width:1.5;"/>
   </g>
   <g id="line2d_23">
    <path clip-path="url(#p63e9810d7d)" d="
M434.837 117.545
L441.317 117.545" style="fill:none;stroke:#000000;stroke-linecap:round;stroke-width:1.5;"/>
   </g>
   <g id="line2d_24">
    <path clip-path="url(#p63e9810d7d)" d="
M429.308 79.295
L421.208 79.295
L413.108 79.295" style="fill:none;stroke:#000000;stroke-linecap:round;stroke-width:1.5;"/>
   </g>
   <g id="line2d_25">
    <path clip-path="url(#p63e9810d7d)" d="
M413.108 79.295" style="fill:none;stroke:#000000;stroke-linecap:round;stroke-width:1.5;"/>
   </g>
   <g id="line2d_26">
    <path clip-path="url(#p63e9810d7d)" d="
M413.108 79.295
L380.708 79.295
L378.008 86.945
L372.608 71.645
L367.208 86.945
L361.808 71.645
L356.408 86.945
L351.008 71.645
L348.308 79.295
L315.908 79.295" style="fill:none;stroke:#000000;stroke-linecap:round;stroke-width:1.5;"/>
   </g>
   <g id="line2d_27">
    <path clip-path="url(#p63e9810d7d)" d="
M315.908 79.295
L315.908 91.535
L307.808 91.535
L324.008 91.535
M310.238 95.207
L321.578 95.207
M314.288 98.879
L317.528 98.879" style="fill:none;stroke:#000000;stroke-linecap:round;stroke-width:1.5;"/>
   </g>
   <g id="line2d_28">
    <path clip-path="url(#p63e9810d7d)" d="
M413.108 79.295
L413.108 56.345
L413.108 33.395" style="fill:none;stroke:#000000;stroke-linecap:round;stroke-width:1.5;"/>
   </g>
   <g id="line2d_29">
    <path clip-path="url(#p63e9810d7d)" d="
M413.108 33.395
L445.508 33.395
L448.208 25.745
L453.608 41.045
L459.008 25.745
L464.408 41.045
L469.808 25.745
L475.208 41.045
L477.908 33.395
L510.308 33.395" style="fill:none;stroke:#000000;stroke-linecap:round;stroke-width:1.5;"/>
   </g>
   <g id="line2d_30">
    <path clip-path="url(#p63e9810d7d)" d="
M510.308 33.395
L510.308 65.9075
L510.308 98.42" style="fill:none;stroke:#000000;stroke-linecap:round;stroke-width:1.5;"/>
   </g>
   <g id="line2d_31">
    <path clip-path="url(#p63e9810d7d)" d="
M510.308 98.42" style="fill:none;stroke:#000000;stroke-linecap:round;stroke-width:1.5;"/>
   </g>
   <g id="line2d_32">
    <path clip-path="url(#p63e9810d7d)" d="
M499.456 98.42
L515.656 98.42
L531.856 98.42" style="fill:none;stroke:#000000;stroke-linecap:round;stroke-width:1.5;"/>
   </g>
   <g id="patch_2">
    <path clip-path="url(#p63e9810d7d)" d="
M83.76 159.62
C88.0563 159.62 92.1772 158.008 95.2151 155.139
C98.2531 152.27 99.96 148.378 99.96 144.32
C99.96 140.262 98.2531 136.37 95.2151 133.501
C92.1772 130.632 88.0563 129.02 83.76 129.02
C79.4637 129.02 75.3428 130.632 72.3049 133.501
C69.2669 136.37 67.56 140.262 67.56 144.32
C67.56 148.378 69.2669 152.27 72.3049 155.139
C75.3428 158.008 79.4637 159.62 83.76 159.62
L83.76 159.62" style="fill:none;stroke:#000000;stroke-linejoin:miter;stroke-width:1.5;"/>
   </g>
   <g id="patch_3">
    <path clip-path="url(#p63e9810d7d)" d="
M180.96 100.715
C181.604 100.715 182.223 100.473 182.678 100.043
C183.134 99.6124 183.39 99.0286 183.39 98.42
C183.39 97.8114 183.134 97.2276 182.678 96.7972
C182.223 96.3668 181.604 96.125 180.96 96.125
C180.316 96.125 179.697 96.3668 179.242 96.7972
C178.786 97.2276 178.53 97.8114 178.53 98.42
C178.53 99.0286 178.786 99.6124 179.242 100.043
C179.697 100.473 180.316 100.715 180.96 100.715
z
" style="stroke:#000000;stroke-linejoin:miter;stroke-width:1.5;"/>
   </g>
   <g id="patch_4">
    <path clip-path="url(#p63e9810d7d)" d="
M278.16 119.84
C278.804 119.84 279.423 119.598 279.878 119.168
C280.334 118.737 280.59 118.154 280.59 117.545
C280.59 116.936 280.334 116.353 279.878 115.922
C279.423 115.492 278.804 115.25 278.16 115.25
C277.516 115.25 276.897 115.492 276.442 115.922
C275.986 116.353 275.73 116.936 275.73 117.545
C275.73 118.154 275.986 118.737 276.442 119.168
C276.897 119.598 277.516 119.84 278.16 119.84
z
" style="stroke:#000000;stroke-linejoin:miter;stroke-width:1.5;"/>
   </g>
   <g id="patch_5">
    <path clip-path="url(#p63e9810d7d)" d="
M413.108 81.59
C413.753 81.59 414.371 81.3482 414.826 80.9178
C415.282 80.4874 415.538 79.9036 415.538 79.295
C415.538 78.6864 415.282 78.1026 414.826 77.6722
C414.371 77.2418 413.753 77 413.108 77
C412.464 77 411.845 77.2418 411.39 77.6722
C410.934 78.1026 410.678 78.6864 410.678 79.295
C410.678 79.9036 410.934 80.4874 411.39 80.9178
C411.845 81.3482 412.464 81.59 413.108 81.59
z
" style="stroke:#000000;stroke-linejoin:miter;stroke-width:1.5;"/>
   </g>
   <g id="patch_6">
    <path clip-path="url(#p63e9810d7d)" d="
M510.308 100.715
C510.953 100.715 511.571 100.473 512.026 100.043
C512.482 99.6124 512.738 99.0286 512.738 98.42
C512.738 97.8114 512.482 97.2276 512.026 96.7972
C511.571 96.3668 510.953 96.125 510.308 96.125
C509.664 96.125 509.045 96.3668 508.59 96.7972
C508.134 97.2276 507.878 97.8114 507.878 98.42
C507.878 99.0286 508.134 99.6124 508.59 100.043
C509.045 100.473 509.664 100.715 510.308 100.715
z
" style="stroke:#000000;stroke-linejoin:miter;stroke-width:1.5;"/>
   </g>
   <g id="text_1">
    <!-- $500mV$ -->
    <defs>
     <path d="
M28.6094 0
L0.78125 72.9062
L11.0781 72.9062
L34.1875 11.5312
L57.3281 72.9062
L67.5781 72.9062
L39.7969 0
z
" id="BitstreamVeraSans-Roman-56"/>
     <path d="
M31.7812 66.4062
Q24.1719 66.4062 20.3281 58.9062
Q16.5 51.4219 16.5 36.375
Q16.5 21.3906 20.3281 13.8906
Q24.1719 6.39062 31.7812 6.39062
Q39.4531 6.39062 43.2812 13.8906
Q47.125 21.3906 47.125 36.375
Q47.125 51.4219 43.2812 58.9062
Q39.4531 66.4062 31.7812 66.4062
M31.7812 74.2188
Q44.0469 74.2188 50.5156 64.5156
Q56.9844 54.8281 56.9844 36.375
Q56.9844 17.9688 50.5156 8.26562
Q44.0469 -1.42188 31.7812 -1.42188
Q19.5312 -1.42188 13.0625 8.26562
Q6.59375 17.9688 6.59375 36.375
Q6.59375 54.8281 13.0625 64.5156
Q19.5312 74.2188 31.7812 74.2188" id="BitstreamVeraSans-Roman-30"/>
     <path d="
M52 44.1875
Q55.375 50.25 60.0625 53.125
Q64.75 56 71.0938 56
Q79.6406 56 84.2812 50.0156
Q88.9219 44.0469 88.9219 33.0156
L88.9219 0
L79.8906 0
L79.8906 32.7188
Q79.8906 40.5781 77.0938 44.375
Q74.3125 48.1875 68.6094 48.1875
Q61.625 48.1875 57.5625 43.5469
Q53.5156 38.9219 53.5156 30.9062
L53.5156 0
L44.4844 0
L44.4844 32.7188
Q44.4844 40.625 41.7031 44.4062
Q38.9219 48.1875 33.1094 48.1875
Q26.2188 48.1875 22.1562 43.5312
Q18.1094 38.875 18.1094 30.9062
L18.1094 0
L9.07812 0
L9.07812 54.6875
L18.1094 54.6875
L18.1094 46.1875
Q21.1875 51.2188 25.4844 53.6094
Q29.7812 56 35.6875 56
Q41.6562 56 45.8281 52.9688
Q50 49.9531 52 44.1875" id="BitstreamVeraSans-Roman-6d"/>
     <path d="
M10.7969 72.9062
L49.5156 72.9062
L49.5156 64.5938
L19.8281 64.5938
L19.8281 46.7344
Q21.9688 47.4688 24.1094 47.8281
Q26.2656 48.1875 28.4219 48.1875
Q40.625 48.1875 47.75 41.5
Q54.8906 34.8125 54.8906 23.3906
Q54.8906 11.625 47.5625 5.09375
Q40.2344 -1.42188 26.9062 -1.42188
Q22.3125 -1.42188 17.5469 -0.640625
Q12.7969 0.140625 7.71875 1.70312
L7.71875 11.625
Q12.1094 9.23438 16.7969 8.0625
Q21.4844 6.89062 26.7031 6.89062
Q35.1562 6.89062 40.0781 11.3281
Q45.0156 15.7656 45.0156 23.3906
Q45.0156 31 40.0781 35.4375
Q35.1562 39.8906 26.7031 39.8906
Q22.75 39.8906 18.8125 39.0156
Q14.8906 38.1406 10.7969 36.2812
z
" id="BitstreamVeraSans-Roman-35"/>
    </defs>
    <g transform="translate(7.2 148.735)scale(0.16 -0.16)">
     <use transform="translate(0.0 0.78125)" xlink:href="#BitstreamVeraSans-Roman-35"/>
     <use transform="translate(63.623046875 0.78125)" xlink:href="#BitstreamVeraSans-Roman-30"/>
     <use transform="translate(127.24609375 0.78125)" xlink:href="#BitstreamVeraSans-Roman-30"/>
     <use transform="translate(190.869140625 0.78125)" xlink:href="#BitstreamVeraSans-Roman-6d"/>
     <use transform="translate(288.28125 0.78125)" xlink:href="#BitstreamVeraSans-Roman-56"/>
    </g>
   </g>
   <g id="text_2">
    <!-- 20k$\Omega$ -->
    <defs>
     <path d="
M19.1875 8.29688
L53.6094 8.29688
L53.6094 0
L7.32812 0
L7.32812 8.29688
Q12.9375 14.1094 22.625 23.8906
Q32.3281 33.6875 34.8125 36.5312
Q39.5469 41.8438 41.4219 45.5312
Q43.3125 49.2188 43.3125 52.7812
Q43.3125 58.5938 39.2344 62.25
Q35.1562 65.9219 28.6094 65.9219
Q23.9688 65.9219 18.8125 64.3125
Q13.6719 62.7031 7.8125 59.4219
L7.8125 69.3906
Q13.7656 71.7812 18.9375 73
Q24.125 74.2188 28.4219 74.2188
Q39.75 74.2188 46.4844 68.5469
Q53.2188 62.8906 53.2188 53.4219
Q53.2188 48.9219 51.5312 44.8906
Q49.8594 40.875 45.4062 35.4062
Q44.1875 33.9844 37.6406 27.2188
Q31.1094 20.4531 19.1875 8.29688" id="BitstreamVeraSans-Roman-32"/>
     <path d="
M72.6094 8.6875
L72.6094 0
L43.3125 0
L43.3125 8.6875
Q51.9531 13.4219 56.7812 21.5312
Q61.625 29.6406 61.625 39.5
Q61.625 51.2188 55.1719 58.2969
Q48.7344 65.375 38.1875 65.375
Q27.6406 65.375 21.1719 58.2656
Q14.7031 51.1719 14.7031 39.5
Q14.7031 29.6406 19.5625 21.5312
Q24.4219 13.4219 33.1094 8.6875
L33.1094 0
L3.8125 0
L3.8125 8.6875
L19.3906 8.6875
Q11.6719 15.4844 8.125 22.75
Q4.59375 30.0312 4.59375 39.0156
Q4.59375 54.5469 13.9375 64.1562
Q23.2969 73.7812 38.1875 73.7812
Q52.9844 73.7812 62.375 64.1875
Q71.7812 54.5938 71.7812 39.5
Q71.7812 30.0312 68.3125 22.7969
Q64.8438 15.5781 56.9844 8.6875
z
" id="BitstreamVeraSans-Roman-3a9"/>
     <path d="
M9.07812 75.9844
L18.1094 75.9844
L18.1094 31.1094
L44.9219 54.6875
L56.3906 54.6875
L27.3906 29.1094
L57.625 0
L45.9062 0
L18.1094 26.7031
L18.1094 0
L9.07812 0
z
" id="BitstreamVeraSans-Roman-6b"/>
    </defs>
    <g transform="translate(111.4 84.3825)scale(0.16 -0.16)">
     <use transform="translate(0.0 0.015625)" xlink:href="#BitstreamVeraSans-Roman-32"/>
     <use transform="translate(63.623046875 0.015625)" xlink:href="#BitstreamVeraSans-Roman-30"/>
     <use transform="translate(127.24609375 0.015625)" xlink:href="#BitstreamVeraSans-Roman-6b"/>
     <use transform="translate(185.15625 0.015625)" xlink:href="#BitstreamVeraSans-Roman-3a9"/>
    </g>
   </g>
   <g id="text_3">
    <!-- 100k$\Omega$ -->
    <defs>
     <path d="
M12.4062 8.29688
L28.5156 8.29688
L28.5156 63.9219
L10.9844 60.4062
L10.9844 69.3906
L28.4219 72.9062
L38.2812 72.9062
L38.2812 8.29688
L54.3906 8.29688
L54.3906 0
L12.4062 0
z
" id="BitstreamVeraSans-Roman-31"/>
    </defs>
    <g transform="translate(203.48 23.1825)scale(0.16 -0.16)">
     <use transform="translate(0.0 0.015625)" xlink:href="#BitstreamVeraSans-Roman-31"/>
     <use transform="translate(63.623046875 0.015625)" xlink:href="#BitstreamVeraSans-Roman-30"/>
     <use transform="translate(127.24609375 0.015625)" xlink:href="#BitstreamVeraSans-Roman-30"/>
     <use transform="translate(190.869140625 0.015625)" xlink:href="#BitstreamVeraSans-Roman-6b"/>
     <use transform="translate(248.779296875 0.015625)" xlink:href="#BitstreamVeraSans-Roman-3a9"/>
    </g>
   </g>
   <g id="text_4">
    <!-- 30k$\Omega$ -->
    <defs>
     <path d="
M40.5781 39.3125
Q47.6562 37.7969 51.625 33
Q55.6094 28.2188 55.6094 21.1875
Q55.6094 10.4062 48.1875 4.48438
Q40.7656 -1.42188 27.0938 -1.42188
Q22.5156 -1.42188 17.6562 -0.515625
Q12.7969 0.390625 7.625 2.20312
L7.625 11.7188
Q11.7188 9.32812 16.5938 8.10938
Q21.4844 6.89062 26.8125 6.89062
Q36.0781 6.89062 40.9375 10.5469
Q45.7969 14.2031 45.7969 21.1875
Q45.7969 27.6406 41.2812 31.2656
Q36.7656 34.9062 28.7188 34.9062
L20.2188 34.9062
L20.2188 43.0156
L29.1094 43.0156
Q36.375 43.0156 40.2344 45.9219
Q44.0938 48.8281 44.0938 54.2969
Q44.0938 59.9062 40.1094 62.9062
Q36.1406 65.9219 28.7188 65.9219
Q24.6562 65.9219 20.0156 65.0312
Q15.375 64.1562 9.8125 62.3125
L9.8125 71.0938
Q15.4375 72.6562 20.3438 73.4375
Q25.25 74.2188 29.5938 74.2188
Q40.8281 74.2188 47.3594 69.1094
Q53.9062 64.0156 53.9062 55.3281
Q53.9062 49.2656 50.4375 45.0938
Q46.9688 40.9219 40.5781 39.3125" id="BitstreamVeraSans-Roman-33"/>
    </defs>
    <g transform="translate(343.548057707 65.2575)scale(0.16 -0.16)">
     <use transform="translate(0.0 0.015625)" xlink:href="#BitstreamVeraSans-Roman-33"/>
     <use transform="translate(63.623046875 0.015625)" xlink:href="#BitstreamVeraSans-Roman-30"/>
     <use transform="translate(127.24609375 0.015625)" xlink:href="#BitstreamVeraSans-Roman-6b"/>
     <use transform="translate(185.15625 0.015625)" xlink:href="#BitstreamVeraSans-Roman-3a9"/>
    </g>
   </g>
   <g id="text_5">
    <!-- 90k$\Omega$ -->
    <defs>
     <path d="
M10.9844 1.51562
L10.9844 10.5
Q14.7031 8.73438 18.5 7.8125
Q22.3125 6.89062 25.9844 6.89062
Q35.75 6.89062 40.8906 13.4531
Q46.0469 20.0156 46.7812 33.4062
Q43.9531 29.2031 39.5938 26.9531
Q35.25 24.7031 29.9844 24.7031
Q19.0469 24.7031 12.6719 31.3125
Q6.29688 37.9375 6.29688 49.4219
Q6.29688 60.6406 12.9375 67.4219
Q19.5781 74.2188 30.6094 74.2188
Q43.2656 74.2188 49.9219 64.5156
Q56.5938 54.8281 56.5938 36.375
Q56.5938 19.1406 48.4062 8.85938
Q40.2344 -1.42188 26.4219 -1.42188
Q22.7031 -1.42188 18.8906 -0.6875
Q15.0938 0.046875 10.9844 1.51562
M30.6094 32.4219
Q37.25 32.4219 41.125 36.9531
Q45.0156 41.5 45.0156 49.4219
Q45.0156 57.2812 41.125 61.8438
Q37.25 66.4062 30.6094 66.4062
Q23.9688 66.4062 20.0938 61.8438
Q16.2188 57.2812 16.2188 49.4219
Q16.2188 41.5 20.0938 36.9531
Q23.9688 32.4219 30.6094 32.4219" id="BitstreamVeraSans-Roman-39"/>
    </defs>
    <g transform="translate(440.748057707 19.3575)scale(0.16 -0.16)">
     <use transform="translate(0.0 0.015625)" xlink:href="#BitstreamVeraSans-Roman-39"/>
     <use transform="translate(63.623046875 0.015625)" xlink:href="#BitstreamVeraSans-Roman-30"/>
     <use transform="translate(127.24609375 0.015625)" xlink:href="#BitstreamVeraSans-Roman-6b"/>
     <use transform="translate(185.15625 0.015625)" xlink:href="#BitstreamVeraSans-Roman-3a9"/>
    </g>
   </g>
   <g id="text_6">
    <!-- $v_{out}$ -->
    <defs>
     <path d="
M30.6094 48.3906
Q23.3906 48.3906 19.1875 42.75
Q14.9844 37.1094 14.9844 27.2969
Q14.9844 17.4844 19.1562 11.8438
Q23.3438 6.20312 30.6094 6.20312
Q37.7969 6.20312 41.9844 11.8594
Q46.1875 17.5312 46.1875 27.2969
Q46.1875 37.0156 41.9844 42.7031
Q37.7969 48.3906 30.6094 48.3906
M30.6094 56
Q42.3281 56 49.0156 48.375
Q55.7188 40.7656 55.7188 27.2969
Q55.7188 13.875 49.0156 6.21875
Q42.3281 -1.42188 30.6094 -1.42188
Q18.8438 -1.42188 12.1719 6.21875
Q5.51562 13.875 5.51562 27.2969
Q5.51562 40.7656 12.1719 48.375
Q18.8438 56 30.6094 56" id="BitstreamVeraSans-Roman-6f"/>
     <path d="
M18.3125 70.2188
L18.3125 54.6875
L36.8125 54.6875
L36.8125 47.7031
L18.3125 47.7031
L18.3125 18.0156
Q18.3125 11.3281 20.1406 9.42188
Q21.9688 7.51562 27.5938 7.51562
L36.8125 7.51562
L36.8125 0
L27.5938 0
Q17.1875 0 13.2344 3.875
Q9.28125 7.76562 9.28125 18.0156
L9.28125 47.7031
L2.6875 47.7031
L2.6875 54.6875
L9.28125 54.6875
L9.28125 70.2188
z
" id="BitstreamVeraSans-Roman-74"/>
     <path d="
M2.98438 54.6875
L12.5 54.6875
L29.5938 8.79688
L46.6875 54.6875
L56.2031 54.6875
L35.6875 0
L23.4844 0
z
" id="BitstreamVeraSans-Roman-76"/>
     <path d="
M8.5 21.5781
L8.5 54.6875
L17.4844 54.6875
L17.4844 21.9219
Q17.4844 14.1562 20.5 10.2656
Q23.5312 6.39062 29.5938 6.39062
Q36.8594 6.39062 41.0781 11.0312
Q45.3125 15.6719 45.3125 23.6875
L45.3125 54.6875
L54.2969 54.6875
L54.2969 0
L45.3125 0
L45.3125 8.40625
Q42.0469 3.42188 37.7188 1
Q33.4062 -1.42188 27.6875 -1.42188
Q18.2656 -1.42188 13.375 4.4375
Q8.5 10.2969 8.5 21.5781" id="BitstreamVeraSans-Roman-75"/>
    </defs>
    <g transform="translate(535.096115413 100.8825)scale(0.16 -0.16)">
     <use transform="translate(0.0 0.3125)" xlink:href="#BitstreamVeraSans-Roman-76"/>
     <use transform="translate(59.1796875 -31.1875)scale(0.7)" xlink:href="#BitstreamVeraSans-Roman-6f"/>
     <use transform="translate(102.0068359375 -31.1875)scale(0.7)" xlink:href="#BitstreamVeraSans-Roman-75"/>
     <use transform="translate(146.3720703125 -31.1875)scale(0.7)" xlink:href="#BitstreamVeraSans-Roman-74"/>
    </g>
   </g>
  </g>
 </g>
 <defs>
  <clipPath id="p63e9810d7d">
   <rect height="190.179" width="470.776115413" x="64.32" y="22.685"/>
  </clipPath>
 </defs>
</svg>
