<?xml version="1.0" encoding="utf-8" standalone="no"?>
<!DOCTYPE svg PUBLIC "-//W3C//DTD SVG 1.1//EN"
  "http://www.w3.org/Graphics/SVG/1.1/DTD/svg11.dtd">
<!-- Created with matplotlib (http://matplotlib.org/) -->
<svg height="83pt" version="1.1" viewBox="0 0 400 83" width="400pt" xmlns="http://www.w3.org/2000/svg" xmlns:xlink="http://www.w3.org/1999/xlink">
 <defs>
  <style type="text/css">
*{stroke-linecap:butt;stroke-linejoin:round;}
  </style>
 </defs>
 <g id="figure_1">
  <g id="patch_1">
   <path d="M 0 83.82875 
L 400.318 83.82875 
L 400.318 0 
L 0 0 
z
" style="fill:none;"/>
  </g>
  <g id="axes_1">
   <g id="patch_2">
    <path clip-path="url(#pf931d6595c)" d="M 246.869 44.82375 
L 240.389 47.88375 
L 240.389 44.83905 
L 225.269 44.83905 
L 225.269 44.80845 
L 240.389 44.80845 
L 240.389 41.76375 
z
" style="stroke:#000000;stroke-linejoin:miter;stroke-width:1.5;"/>
   </g>
   <g id="patch_3">
    <path clip-path="url(#pf931d6595c)" d="M 322.469 44.82375 
L 328.949 41.76375 
L 328.949 44.80845 
L 344.069 44.80845 
L 344.069 44.83905 
L 328.949 44.83905 
L 328.949 47.88375 
z
" style="stroke:#000000;stroke-linejoin:miter;stroke-width:1.5;"/>
   </g>
   <g id="line2d_1">
    <path clip-path="url(#pf931d6595c)" d="M 60.569 44.82375 
L 77.849 44.82375 
" style="fill:none;stroke:#000000;stroke-linecap:round;stroke-width:1.5;"/>
   </g>
   <g id="line2d_2">
    <path clip-path="url(#pf931d6595c)" d="M 30.869 21.87375 
L 30.869 34.62375 
L 52.469 34.62375 
L 52.469 55.02375 
L 30.869 55.02375 
L 30.869 67.77375 
" style="fill:none;stroke:#000000;stroke-linecap:round;stroke-width:1.5;"/>
   </g>
   <g id="line2d_3">
    <path clip-path="url(#pf931d6595c)" d="M 60.569 34.62375 
L 60.569 55.02375 
" style="fill:none;stroke:#000000;stroke-linecap:round;stroke-width:1.5;"/>
   </g>
   <g id="line2d_4">
    <path clip-path="url(#pf931d6595c)" d="M 165.329 44.82375 
L 175.049 44.82375 
" style="fill:none;stroke:#000000;stroke-linecap:round;stroke-width:1.5;"/>
   </g>
   <g id="line2d_5">
    <path clip-path="url(#pf931d6595c)" d="M 128.069 21.87375 
L 128.069 34.62375 
L 149.669 34.62375 
L 149.669 55.02375 
L 128.069 55.02375 
L 128.069 67.77375 
" style="fill:none;stroke:#000000;stroke-linecap:round;stroke-width:1.5;"/>
   </g>
   <g id="line2d_6">
    <path clip-path="url(#pf931d6595c)" d="M 157.769 34.62375 
L 157.769 55.02375 
" style="fill:none;stroke:#000000;stroke-linecap:round;stroke-width:1.5;"/>
   </g>
   <g id="line2d_7">
    <path clip-path="url(#pf931d6595c)" d="M 254.969 44.82375 
L 272.249 44.82375 
" style="fill:none;stroke:#000000;stroke-linecap:round;stroke-width:1.5;"/>
   </g>
   <g id="line2d_8">
    <path clip-path="url(#pf931d6595c)" d="M 225.269 21.87375 
L 225.269 34.62375 
L 246.869 34.62375 
L 246.869 55.02375 
L 225.269 55.02375 
L 225.269 67.77375 
" style="fill:none;stroke:#000000;stroke-linecap:round;stroke-width:1.5;"/>
   </g>
   <g id="line2d_9">
    <path clip-path="url(#pf931d6595c)" d="M 254.969 34.62375 
L 254.969 55.02375 
" style="fill:none;stroke:#000000;stroke-linecap:round;stroke-width:1.5;"/>
   </g>
   <g id="line2d_10">
    <path clip-path="url(#pf931d6595c)" d="M 352.169 44.82375 
L 369.449 44.82375 
" style="fill:none;stroke:#000000;stroke-linecap:round;stroke-width:1.5;"/>
   </g>
   <g id="line2d_11">
    <path clip-path="url(#pf931d6595c)" d="M 322.469 21.87375 
L 322.469 34.62375 
L 344.069 34.62375 
L 344.069 55.02375 
L 322.469 55.02375 
L 322.469 67.77375 
" style="fill:none;stroke:#000000;stroke-linecap:round;stroke-width:1.5;"/>
   </g>
   <g id="line2d_12">
    <path clip-path="url(#pf931d6595c)" d="M 352.169 34.62375 
L 352.169 55.02375 
" style="fill:none;stroke:#000000;stroke-linecap:round;stroke-width:1.5;"/>
   </g>
   <g id="patch_4">
    <path clip-path="url(#pf931d6595c)" d="M 161.549 48.39375 
C 162.551468 48.39375 163.513012 48.017592 164.221864 47.348121 
C 164.930715 46.67865 165.329 45.770525 165.329 44.82375 
C 165.329 43.876975 164.930715 42.96885 164.221864 42.299379 
C 163.513012 41.629908 162.551468 41.25375 161.549 41.25375 
C 160.546532 41.25375 159.584988 41.629908 158.876136 42.299379 
C 158.167285 42.96885 157.769 43.876975 157.769 44.82375 
C 157.769 45.770525 158.167285 46.67865 158.876136 47.348121 
C 159.584988 48.017592 160.546532 48.39375 161.549 48.39375 
z
" style="fill:none;stroke:#000000;stroke-linejoin:miter;stroke-width:1.5;"/>
   </g>
   <g id="text_1">
    <!-- NFET -->
    <defs>
     <path d="M 9.8125 72.90625 
L 23.09375 72.90625 
L 55.421875 11.921875 
L 55.421875 72.90625 
L 64.984375 72.90625 
L 64.984375 0 
L 51.703125 0 
L 19.390625 60.984375 
L 19.390625 0 
L 9.8125 0 
z
" id="DejaVuSans-4e"/>
     <path d="M 9.8125 72.90625 
L 51.703125 72.90625 
L 51.703125 64.59375 
L 19.671875 64.59375 
L 19.671875 43.109375 
L 48.578125 43.109375 
L 48.578125 34.8125 
L 19.671875 34.8125 
L 19.671875 0 
L 9.8125 0 
z
" id="DejaVuSans-46"/>
     <path d="M 9.8125 72.90625 
L 55.90625 72.90625 
L 55.90625 64.59375 
L 19.671875 64.59375 
L 19.671875 43.015625 
L 54.390625 43.015625 
L 54.390625 34.71875 
L 19.671875 34.71875 
L 19.671875 8.296875 
L 56.78125 8.296875 
L 56.78125 0 
L 9.8125 0 
z
" id="DejaVuSans-45"/>
     <path d="M -0.296875 72.90625 
L 61.375 72.90625 
L 61.375 64.59375 
L 35.5 64.59375 
L 35.5 0 
L 25.59375 0 
L 25.59375 64.59375 
L -0.296875 64.59375 
z
" id="DejaVuSans-54"/>
    </defs>
    <g transform="translate(38.963375 16.318125)scale(0.12 -0.12)">
     <use xlink:href="#DejaVuSans-4e"/>
     <use x="74.804688" xlink:href="#DejaVuSans-46"/>
     <use x="132.324219" xlink:href="#DejaVuSans-45"/>
     <use x="195.507812" xlink:href="#DejaVuSans-54"/>
    </g>
   </g>
   <g id="text_2">
    <!-- PFET -->
    <defs>
     <path d="M 19.671875 64.796875 
L 19.671875 37.40625 
L 32.078125 37.40625 
Q 38.96875 37.40625 42.71875 40.96875 
Q 46.484375 44.53125 46.484375 51.125 
Q 46.484375 57.671875 42.71875 61.234375 
Q 38.96875 64.796875 32.078125 64.796875 
z
M 9.8125 72.90625 
L 32.078125 72.90625 
Q 44.34375 72.90625 50.609375 67.359375 
Q 56.890625 61.8125 56.890625 51.125 
Q 56.890625 40.328125 50.609375 34.8125 
Q 44.34375 29.296875 32.078125 29.296875 
L 19.671875 29.296875 
L 19.671875 0 
L 9.8125 0 
z
" id="DejaVuSans-50"/>
    </defs>
    <g transform="translate(137.034312 16.318125)scale(0.12 -0.12)">
     <use xlink:href="#DejaVuSans-50"/>
     <use x="60.302734" xlink:href="#DejaVuSans-46"/>
     <use x="117.822266" xlink:href="#DejaVuSans-45"/>
     <use x="181.005859" xlink:href="#DejaVuSans-54"/>
    </g>
   </g>
   <g id="text_3">
    <!-- NFET4 -->
    <defs>
     <path d="M 37.796875 64.3125 
L 12.890625 25.390625 
L 37.796875 25.390625 
z
M 35.203125 72.90625 
L 47.609375 72.90625 
L 47.609375 25.390625 
L 58.015625 25.390625 
L 58.015625 17.1875 
L 47.609375 17.1875 
L 47.609375 0 
L 37.796875 0 
L 37.796875 17.1875 
L 4.890625 17.1875 
L 4.890625 26.703125 
z
" id="DejaVuSans-34"/>
    </defs>
    <g transform="translate(229.545875 16.318125)scale(0.12 -0.12)">
     <use xlink:href="#DejaVuSans-4e"/>
     <use x="74.804688" xlink:href="#DejaVuSans-46"/>
     <use x="132.324219" xlink:href="#DejaVuSans-45"/>
     <use x="195.507812" xlink:href="#DejaVuSans-54"/>
     <use x="256.591797" xlink:href="#DejaVuSans-34"/>
    </g>
   </g>
   <g id="text_4">
    <!-- PFET4 -->
    <g transform="translate(327.616812 16.318125)scale(0.12 -0.12)">
     <use xlink:href="#DejaVuSans-50"/>
     <use x="60.302734" xlink:href="#DejaVuSans-46"/>
     <use x="117.822266" xlink:href="#DejaVuSans-45"/>
     <use x="181.005859" xlink:href="#DejaVuSans-54"/>
     <use x="242.089844" xlink:href="#DejaVuSans-34"/>
    </g>
   </g>
  </g>
 </g>
 <defs>
  <clipPath id="pf931d6595c">
   <rect height="56.61" width="378.918" x="10.7" y="16.51875"/>
  </clipPath>
 </defs>
</svg>
