<?xml version="1.0" encoding="utf-8" standalone="no"?>
<!DOCTYPE svg PUBLIC "-//W3C//DTD SVG 1.1//EN"
  "http://www.w3.org/Graphics/SVG/1.1/DTD/svg11.dtd">
<!-- Created with matplotlib (https://matplotlib.org/) -->
<svg height="162.427375pt" version="1.1" viewBox="0 0 393.318 162.427375" width="393.318pt" xmlns="http://www.w3.org/2000/svg" xmlns:xlink="http://www.w3.org/1999/xlink">
 <defs>
  <style type="text/css">
*{stroke-linecap:butt;stroke-linejoin:round;white-space:pre;}
  </style>
 </defs>
 <g id="figure_1">
  <g id="patch_1">
   <path d="M 0 162.427375 
L 393.318 162.427375 
L 393.318 0 
L 0 0 
z
" style="fill:none;"/>
  </g>
  <g id="axes_1">
   <g id="patch_2">
    <path clip-path="url(#pc521121374)" d="M 158.049 47.719375 
C 159.051468 47.719375 160.013012 47.376408 160.721864 46.766008 
C 161.430715 46.155607 161.829 45.327611 161.829 44.464375 
C 161.829 43.601139 161.430715 42.773143 160.721864 42.162742 
C 160.013012 41.552342 159.051468 41.209375 158.049 41.209375 
C 157.046532 41.209375 156.084988 41.552342 155.376136 42.162742 
C 154.667285 42.773143 154.269 43.601139 154.269 44.464375 
C 154.269 45.327611 154.667285 46.155607 155.376136 46.766008 
C 156.084988 47.376408 157.046532 47.719375 158.049 47.719375 
z
" style="fill:none;stroke:#000000;stroke-linejoin:miter;stroke-width:2;"/>
   </g>
   <g id="patch_3">
    <path clip-path="url(#pc521121374)" d="M 229.869 146.299375 
C 236.170226 146.299375 242.214218 144.14358 246.669857 140.30678 
C 251.125497 136.469979 253.629 131.26543 253.629 125.839375 
C 253.629 120.41332 251.125497 115.208771 246.669857 111.37197 
C 242.214218 107.53517 236.170226 105.379375 229.869 105.379375 
C 223.567774 105.379375 217.523782 107.53517 213.068143 111.37197 
C 208.612503 115.208771 206.109 120.41332 206.109 125.839375 
C 206.109 131.26543 208.612503 136.469979 213.068143 140.30678 
C 217.523782 144.14358 223.567774 146.299375 229.869 146.299375 
z
" style="fill:none;stroke:#000000;stroke-linejoin:miter;stroke-width:2;"/>
   </g>
   <g id="patch_4">
    <path clip-path="url(#pc521121374)" d="M 327.069 146.299375 
C 333.370226 146.299375 339.414218 144.14358 343.869857 140.30678 
C 348.325497 136.469979 350.829 131.26543 350.829 125.839375 
C 350.829 120.41332 348.325497 115.208771 343.869857 111.37197 
C 339.414218 107.53517 333.370226 105.379375 327.069 105.379375 
C 320.767774 105.379375 314.723782 107.53517 310.268143 111.37197 
C 305.812503 115.208771 303.309 120.41332 303.309 125.839375 
C 303.309 131.26543 305.812503 136.469979 310.268143 140.30678 
C 314.723782 144.14358 320.767774 146.299375 327.069 146.299375 
z
" style="fill:none;stroke:#000000;stroke-linejoin:miter;stroke-width:2;"/>
   </g>
   <g id="patch_5">
    <path clip-path="url(#pc521121374)" d="M 243.369 44.464375 
L 236.889 47.254375 
L 236.889 44.478325 
L 221.769 44.478325 
L 221.769 44.450425 
L 236.889 44.450425 
L 236.889 41.674375 
z
" style="stroke:#000000;stroke-linejoin:miter;stroke-width:2;"/>
   </g>
   <g id="patch_6">
    <path clip-path="url(#pc521121374)" d="M 318.969 44.464375 
L 325.449 41.674375 
L 325.449 44.450425 
L 340.569 44.450425 
L 340.569 44.478325 
L 325.449 44.478325 
L 325.449 47.254375 
z
" style="stroke:#000000;stroke-linejoin:miter;stroke-width:2;"/>
   </g>
   <g id="patch_7">
    <path clip-path="url(#pc521121374)" d="M 53.289 132.814375 
L 46.809 136.999375 
L 46.809 132.828325 
L 46.809 132.828325 
L 46.809 132.800425 
L 46.809 132.800425 
L 46.809 128.629375 
z
" style="stroke:#000000;stroke-linejoin:miter;stroke-width:2;"/>
   </g>
   <g id="patch_8">
    <path clip-path="url(#pc521121374)" d="M 140.769 132.814375 
L 148.869 128.629375 
L 148.869 132.800425 
L 148.869 132.800425 
L 148.869 132.828325 
L 148.869 132.828325 
L 148.869 136.999375 
z
" style="stroke:#000000;stroke-linejoin:miter;stroke-width:2;"/>
   </g>
   <g id="patch_9">
    <path clip-path="url(#pc521121374)" d="M 247.689 132.814375 
L 241.209 136.999375 
L 241.209 132.828325 
L 241.209 132.828325 
L 241.209 132.800425 
L 241.209 132.800425 
L 241.209 128.629375 
z
" style="stroke:#000000;stroke-linejoin:miter;stroke-width:2;"/>
   </g>
   <g id="patch_10">
    <path clip-path="url(#pc521121374)" d="M 335.169 132.814375 
L 343.269 128.629375 
L 343.269 132.800425 
L 343.269 132.800425 
L 343.269 132.828325 
L 343.269 132.828325 
L 343.269 136.999375 
z
" style="stroke:#000000;stroke-linejoin:miter;stroke-width:2;"/>
   </g>
   <g id="line2d_1">
    <path clip-path="url(#pc521121374)" d="M 27.369 23.539375 
L 27.369 35.164375 
L 48.969 35.164375 
L 48.969 53.764375 
L 27.369 53.764375 
L 27.369 65.389375 
" style="fill:none;stroke:#000000;stroke-linecap:round;stroke-width:2;"/>
   </g>
   <g id="line2d_2">
    <path clip-path="url(#pc521121374)" d="M 57.069 35.164375 
L 57.069 53.764375 
" style="fill:none;stroke:#000000;stroke-linecap:round;stroke-width:2;"/>
   </g>
   <g id="line2d_3">
    <path clip-path="url(#pc521121374)" d="M 57.069 44.464375 
L 74.349 44.464375 
" style="fill:none;stroke:#000000;stroke-linecap:round;stroke-width:2;"/>
   </g>
   <g id="line2d_4">
    <path clip-path="url(#pc521121374)" d="M 124.569 23.539375 
L 124.569 35.164375 
L 146.169 35.164375 
L 146.169 53.764375 
L 124.569 53.764375 
L 124.569 65.389375 
" style="fill:none;stroke:#000000;stroke-linecap:round;stroke-width:2;"/>
   </g>
   <g id="line2d_5">
    <path clip-path="url(#pc521121374)" d="M 154.269 35.164375 
L 154.269 53.764375 
" style="fill:none;stroke:#000000;stroke-linecap:round;stroke-width:2;"/>
   </g>
   <g id="line2d_6">
    <path clip-path="url(#pc521121374)" d="M 161.829 44.464375 
L 171.549 44.464375 
" style="fill:none;stroke:#000000;stroke-linecap:round;stroke-width:2;"/>
   </g>
   <g id="line2d_7">
    <path clip-path="url(#pc521121374)" d="M 221.769 23.539375 
L 221.769 35.164375 
L 243.369 35.164375 
L 243.369 53.764375 
L 221.769 53.764375 
L 221.769 65.389375 
" style="fill:none;stroke:#000000;stroke-linecap:round;stroke-width:2;"/>
   </g>
   <g id="line2d_8">
    <path clip-path="url(#pc521121374)" d="M 251.469 35.164375 
L 251.469 53.764375 
" style="fill:none;stroke:#000000;stroke-linecap:round;stroke-width:2;"/>
   </g>
   <g id="line2d_9">
    <path clip-path="url(#pc521121374)" d="M 251.469 44.464375 
L 268.749 44.464375 
" style="fill:none;stroke:#000000;stroke-linecap:round;stroke-width:2;"/>
   </g>
   <g id="line2d_10">
    <path clip-path="url(#pc521121374)" d="M 318.969 23.539375 
L 318.969 35.164375 
L 340.569 35.164375 
L 340.569 53.764375 
L 318.969 53.764375 
L 318.969 65.389375 
" style="fill:none;stroke:#000000;stroke-linecap:round;stroke-width:2;"/>
   </g>
   <g id="line2d_11">
    <path clip-path="url(#pc521121374)" d="M 348.669 35.164375 
L 348.669 53.764375 
" style="fill:none;stroke:#000000;stroke-linecap:round;stroke-width:2;"/>
   </g>
   <g id="line2d_12">
    <path clip-path="url(#pc521121374)" d="M 348.669 44.464375 
L 365.949 44.464375 
" style="fill:none;stroke:#000000;stroke-linecap:round;stroke-width:2;"/>
   </g>
   <g id="line2d_13">
    <path clip-path="url(#pc521121374)" d="M 27.369 107.239375 
L 27.369 118.864375 
L 43.569 118.864375 
L 43.569 115.144375 
L 43.569 136.534375 
L 43.569 132.814375 
L 27.369 132.814375 
L 27.369 144.439375 
" style="fill:none;stroke:#000000;stroke-linecap:round;stroke-width:2;"/>
   </g>
   <g id="line2d_14">
    <path clip-path="url(#pc521121374)" d="M 43.569 132.814375 
L 57.069 132.814375 
" style="fill:none;stroke:#000000;stroke-linecap:round;stroke-width:2;"/>
   </g>
   <g id="line2d_15">
    <path clip-path="url(#pc521121374)" d="M 124.569 107.239375 
L 124.569 118.864375 
L 140.769 118.864375 
L 140.769 115.144375 
L 140.769 136.534375 
L 140.769 132.814375 
L 124.569 132.814375 
L 124.569 144.439375 
" style="fill:none;stroke:#000000;stroke-linecap:round;stroke-width:2;"/>
   </g>
   <g id="line2d_16">
    <path clip-path="url(#pc521121374)" d="M 140.769 132.814375 
L 154.269 132.814375 
" style="fill:none;stroke:#000000;stroke-linecap:round;stroke-width:2;"/>
   </g>
   <g id="line2d_17">
    <path clip-path="url(#pc521121374)" d="M 221.769 107.239375 
L 221.769 118.864375 
L 237.969 118.864375 
L 237.969 115.144375 
L 237.969 136.534375 
L 237.969 132.814375 
L 221.769 132.814375 
L 221.769 144.439375 
" style="fill:none;stroke:#000000;stroke-linecap:round;stroke-width:2;"/>
   </g>
   <g id="line2d_18">
    <path clip-path="url(#pc521121374)" d="M 237.969 132.814375 
L 251.469 132.814375 
" style="fill:none;stroke:#000000;stroke-linecap:round;stroke-width:2;"/>
   </g>
   <g id="line2d_19">
    <path clip-path="url(#pc521121374)" d="M 318.969 107.239375 
L 318.969 118.864375 
L 335.169 118.864375 
L 335.169 115.144375 
L 335.169 136.534375 
L 335.169 132.814375 
L 318.969 132.814375 
L 318.969 144.439375 
" style="fill:none;stroke:#000000;stroke-linecap:round;stroke-width:2;"/>
   </g>
   <g id="line2d_20">
    <path clip-path="url(#pc521121374)" d="M 335.169 132.814375 
L 348.669 132.814375 
" style="fill:none;stroke:#000000;stroke-linecap:round;stroke-width:2;"/>
   </g>
   <g id="text_1">
    <!-- NFET -->
    <defs>
     <path d="M 9.8125 72.90625 
L 23.09375 72.90625 
L 55.421875 11.921875 
L 55.421875 72.90625 
L 64.984375 72.90625 
L 64.984375 0 
L 51.703125 0 
L 19.390625 60.984375 
L 19.390625 0 
L 9.8125 0 
z
" id="DejaVuSans-78"/>
     <path d="M 9.8125 72.90625 
L 51.703125 72.90625 
L 51.703125 64.59375 
L 19.671875 64.59375 
L 19.671875 43.109375 
L 48.578125 43.109375 
L 48.578125 34.8125 
L 19.671875 34.8125 
L 19.671875 0 
L 9.8125 0 
z
" id="DejaVuSans-70"/>
     <path d="M 9.8125 72.90625 
L 55.90625 72.90625 
L 55.90625 64.59375 
L 19.671875 64.59375 
L 19.671875 43.015625 
L 54.390625 43.015625 
L 54.390625 34.71875 
L 19.671875 34.71875 
L 19.671875 8.296875 
L 56.78125 8.296875 
L 56.78125 0 
L 9.8125 0 
z
" id="DejaVuSans-69"/>
     <path d="M -0.296875 72.90625 
L 61.375 72.90625 
L 61.375 64.59375 
L 35.5 64.59375 
L 35.5 0 
L 25.59375 0 
L 25.59375 64.59375 
L -0.296875 64.59375 
z
" id="DejaVuSans-84"/>
    </defs>
    <g transform="translate(32.897437 17.837812)scale(0.14 -0.14)">
     <use xlink:href="#DejaVuSans-78"/>
     <use x="74.804688" xlink:href="#DejaVuSans-70"/>
     <use x="132.324219" xlink:href="#DejaVuSans-69"/>
     <use x="195.507812" xlink:href="#DejaVuSans-84"/>
    </g>
   </g>
   <g id="text_2">
    <!-- PFET -->
    <defs>
     <path d="M 19.671875 64.796875 
L 19.671875 37.40625 
L 32.078125 37.40625 
Q 38.96875 37.40625 42.71875 40.96875 
Q 46.484375 44.53125 46.484375 51.125 
Q 46.484375 57.671875 42.71875 61.234375 
Q 38.96875 64.796875 32.078125 64.796875 
z
M 9.8125 72.90625 
L 32.078125 72.90625 
Q 44.34375 72.90625 50.609375 67.359375 
Q 56.890625 61.8125 56.890625 51.125 
Q 56.890625 40.328125 50.609375 34.8125 
Q 44.34375 29.296875 32.078125 29.296875 
L 19.671875 29.296875 
L 19.671875 0 
L 9.8125 0 
z
" id="DejaVuSans-80"/>
    </defs>
    <g transform="translate(131.113531 17.837812)scale(0.14 -0.14)">
     <use xlink:href="#DejaVuSans-80"/>
     <use x="60.302734" xlink:href="#DejaVuSans-70"/>
     <use x="117.822266" xlink:href="#DejaVuSans-69"/>
     <use x="181.005859" xlink:href="#DejaVuSans-84"/>
    </g>
   </g>
   <g id="text_3">
    <!-- NFET4 -->
    <defs>
     <path d="M 37.796875 64.3125 
L 12.890625 25.390625 
L 37.796875 25.390625 
z
M 35.203125 72.90625 
L 47.609375 72.90625 
L 47.609375 25.390625 
L 58.015625 25.390625 
L 58.015625 17.1875 
L 47.609375 17.1875 
L 47.609375 0 
L 37.796875 0 
L 37.796875 17.1875 
L 4.890625 17.1875 
L 4.890625 26.703125 
z
" id="DejaVuSans-52"/>
    </defs>
    <g transform="translate(222.843687 17.837812)scale(0.14 -0.14)">
     <use xlink:href="#DejaVuSans-78"/>
     <use x="74.804688" xlink:href="#DejaVuSans-70"/>
     <use x="132.324219" xlink:href="#DejaVuSans-69"/>
     <use x="195.507812" xlink:href="#DejaVuSans-84"/>
     <use x="256.591797" xlink:href="#DejaVuSans-52"/>
    </g>
   </g>
   <g id="text_4">
    <!-- PFET4 -->
    <g transform="translate(321.059781 17.837812)scale(0.14 -0.14)">
     <use xlink:href="#DejaVuSans-80"/>
     <use x="60.302734" xlink:href="#DejaVuSans-70"/>
     <use x="117.822266" xlink:href="#DejaVuSans-69"/>
     <use x="181.005859" xlink:href="#DejaVuSans-84"/>
     <use x="242.089844" xlink:href="#DejaVuSans-52"/>
    </g>
   </g>
   <g id="text_5">
    <!-- JFET_N -->
    <defs>
     <path d="M 9.8125 72.90625 
L 19.671875 72.90625 
L 19.671875 5.078125 
Q 19.671875 -8.109375 14.671875 -14.0625 
Q 9.671875 -20.015625 -1.421875 -20.015625 
L -5.171875 -20.015625 
L -5.171875 -11.71875 
L -2.09375 -11.71875 
Q 4.4375 -11.71875 7.125 -8.046875 
Q 9.8125 -4.390625 9.8125 5.078125 
z
" id="DejaVuSans-74"/>
     <path d="M 50.984375 -16.609375 
L 50.984375 -23.578125 
L -0.984375 -23.578125 
L -0.984375 -16.609375 
z
" id="DejaVuSans-95"/>
    </defs>
    <g transform="translate(18.692437 101.148437)scale(0.14 -0.14)">
     <use xlink:href="#DejaVuSans-74"/>
     <use x="29.492188" xlink:href="#DejaVuSans-70"/>
     <use x="87.011719" xlink:href="#DejaVuSans-69"/>
     <use x="150.195312" xlink:href="#DejaVuSans-84"/>
     <use x="211.279297" xlink:href="#DejaVuSans-95"/>
     <use x="261.279297" xlink:href="#DejaVuSans-78"/>
    </g>
   </g>
   <g id="text_6">
    <!-- JFET_N -->
    <g transform="translate(115.892437 101.148437)scale(0.14 -0.14)">
     <use xlink:href="#DejaVuSans-74"/>
     <use x="29.492188" xlink:href="#DejaVuSans-70"/>
     <use x="87.011719" xlink:href="#DejaVuSans-69"/>
     <use x="150.195312" xlink:href="#DejaVuSans-84"/>
     <use x="211.279297" xlink:href="#DejaVuSans-95"/>
     <use x="261.279297" xlink:href="#DejaVuSans-78"/>
    </g>
   </g>
   <g id="text_7">
    <!-- JFET_N_C -->
    <defs>
     <path d="M 64.40625 67.28125 
L 64.40625 56.890625 
Q 59.421875 61.53125 53.78125 63.8125 
Q 48.140625 66.109375 41.796875 66.109375 
Q 29.296875 66.109375 22.65625 58.46875 
Q 16.015625 50.828125 16.015625 36.375 
Q 16.015625 21.96875 22.65625 14.328125 
Q 29.296875 6.6875 41.796875 6.6875 
Q 48.140625 6.6875 53.78125 8.984375 
Q 59.421875 11.28125 64.40625 15.921875 
L 64.40625 5.609375 
Q 59.234375 2.09375 53.4375 0.328125 
Q 47.65625 -1.421875 41.21875 -1.421875 
Q 24.65625 -1.421875 15.125 8.703125 
Q 5.609375 18.84375 5.609375 36.375 
Q 5.609375 53.953125 15.125 64.078125 
Q 24.65625 74.21875 41.21875 74.21875 
Q 47.75 74.21875 53.53125 72.484375 
Q 59.328125 70.75 64.40625 67.28125 
z
" id="DejaVuSans-67"/>
    </defs>
    <g transform="translate(197.954469 99.288437)scale(0.14 -0.14)">
     <use xlink:href="#DejaVuSans-74"/>
     <use x="29.492188" xlink:href="#DejaVuSans-70"/>
     <use x="87.011719" xlink:href="#DejaVuSans-69"/>
     <use x="150.195312" xlink:href="#DejaVuSans-84"/>
     <use x="211.279297" xlink:href="#DejaVuSans-95"/>
     <use x="261.279297" xlink:href="#DejaVuSans-78"/>
     <use x="336.083984" xlink:href="#DejaVuSans-95"/>
     <use x="386.083984" xlink:href="#DejaVuSans-67"/>
    </g>
   </g>
   <g id="text_8">
    <!-- JFET_N_C -->
    <g transform="translate(295.154469 99.288437)scale(0.14 -0.14)">
     <use xlink:href="#DejaVuSans-74"/>
     <use x="29.492188" xlink:href="#DejaVuSans-70"/>
     <use x="87.011719" xlink:href="#DejaVuSans-69"/>
     <use x="150.195312" xlink:href="#DejaVuSans-84"/>
     <use x="211.279297" xlink:href="#DejaVuSans-95"/>
     <use x="261.279297" xlink:href="#DejaVuSans-78"/>
     <use x="336.083984" xlink:href="#DejaVuSans-95"/>
     <use x="386.083984" xlink:href="#DejaVuSans-67"/>
    </g>
   </g>
  </g>
 </g>
 <defs>
  <clipPath id="pc521121374">
   <rect height="140.616" width="378.918" x="7.2" y="14.611375"/>
  </clipPath>
 </defs>
</svg>
