<?xml version="1.0" encoding="utf-8" standalone="no"?>
<!DOCTYPE svg PUBLIC "-//W3C//DTD SVG 1.1//EN"
  "http://www.w3.org/Graphics/SVG/1.1/DTD/svg11.dtd">
<!-- Created with matplotlib (https://matplotlib.org/) -->
<svg height="209.299375pt" version="1.1" viewBox="0 0 384.84625 209.299375" width="384.84625pt" xmlns="http://www.w3.org/2000/svg" xmlns:xlink="http://www.w3.org/1999/xlink">
 <defs>
  <style type="text/css">
*{stroke-linecap:butt;stroke-linejoin:round;}
  </style>
 </defs>
 <g id="figure_1">
  <g id="patch_1">
   <path d="M 0 209.299375 
L 384.84625 209.299375 
L 384.84625 0 
L 0 0 
z
" style="fill:none;"/>
  </g>
  <g id="axes_1">
   <g id="patch_2">
    <path clip-path="url(#p69046fc788)" d="M 192.423125 32.31 
L 182.703125 36.495 
L 182.703125 32.32395 
L 182.703125 32.32395 
L 182.703125 32.29605 
L 182.703125 32.29605 
L 182.703125 28.125 
z
" style="stroke:#000000;stroke-linejoin:miter;stroke-width:1.5;"/>
   </g>
   <g id="patch_3">
    <path clip-path="url(#p69046fc788)" d="M 103.323125 60.21 
L 98.463125 51.84 
L 103.306925 51.84 
L 103.306925 51.84 
L 103.339325 51.84 
L 103.339325 51.84 
L 108.183125 51.84 
z
" style="stroke:#000000;stroke-linejoin:miter;stroke-width:1.5;"/>
   </g>
   <g id="patch_4">
    <path clip-path="url(#p69046fc788)" d="M 192.423125 102.06 
L 182.703125 106.245 
L 182.703125 102.07395 
L 182.703125 102.07395 
L 182.703125 102.04605 
L 182.703125 102.04605 
L 182.703125 97.875 
z
" style="stroke:#000000;stroke-linejoin:miter;stroke-width:1.5;"/>
   </g>
   <g id="patch_5">
    <path clip-path="url(#p69046fc788)" d="M 103.323125 122.985 
L 98.463125 114.615 
L 103.306925 114.615 
L 103.306925 114.615 
L 103.339325 114.615 
L 103.339325 114.615 
L 108.183125 114.615 
z
" style="stroke:#000000;stroke-linejoin:miter;stroke-width:1.5;"/>
   </g>
   <g id="patch_6">
    <path clip-path="url(#p69046fc788)" d="M 192.423125 171.81 
L 182.703125 175.995 
L 182.703125 171.82395 
L 182.703125 171.82395 
L 182.703125 171.79605 
L 182.703125 171.79605 
L 182.703125 167.625 
z
" style="stroke:#000000;stroke-linejoin:miter;stroke-width:1.5;"/>
   </g>
   <g id="patch_7">
    <path clip-path="url(#p69046fc788)" d="M 208.623125 116.01 
L 213.483125 124.38 
L 208.639325 124.38 
L 208.639325 124.38 
L 208.606925 124.38 
L 208.606925 124.38 
L 203.763125 124.38 
z
" style="stroke:#000000;stroke-linejoin:miter;stroke-width:1.5;"/>
   </g>
   <g id="patch_8">
    <path clip-path="url(#p69046fc788)" d="M 208.623125 46.26 
L 213.483125 54.63 
L 208.639325 54.63 
L 208.639325 54.63 
L 208.606925 54.63 
L 208.606925 54.63 
L 203.763125 54.63 
z
" style="stroke:#000000;stroke-linejoin:miter;stroke-width:1.5;"/>
   </g>
   <g id="patch_9">
    <path clip-path="url(#p69046fc788)" d="M 346.323125 32.31 
L 336.603125 36.495 
L 336.603125 32.32395 
L 336.603125 32.32395 
L 336.603125 32.29605 
L 336.603125 32.29605 
L 336.603125 28.125 
z
" style="stroke:#000000;stroke-linejoin:miter;stroke-width:1.5;"/>
   </g>
   <g id="patch_10">
    <path clip-path="url(#p69046fc788)" d="M 313.923125 60.21 
L 309.063125 51.84 
L 313.906925 51.84 
L 313.906925 51.84 
L 313.939325 51.84 
L 313.939325 51.84 
L 318.783125 51.84 
z
" style="stroke:#000000;stroke-linejoin:miter;stroke-width:1.5;"/>
   </g>
   <g id="patch_11">
    <path clip-path="url(#p69046fc788)" d="M 224.823125 102.06 
L 234.543125 97.875 
L 234.543125 102.04605 
L 234.543125 102.04605 
L 234.543125 102.07395 
L 234.543125 102.07395 
L 234.543125 106.245 
z
" style="stroke:#000000;stroke-linejoin:miter;stroke-width:1.5;"/>
   </g>
   <g id="patch_12">
    <path clip-path="url(#p69046fc788)" d="M 313.923125 122.985 
L 309.063125 114.615 
L 313.906925 114.615 
L 313.906925 114.615 
L 313.939325 114.615 
L 313.939325 114.615 
L 318.783125 114.615 
z
" style="stroke:#000000;stroke-linejoin:miter;stroke-width:1.5;"/>
   </g>
   <g id="patch_13">
    <path clip-path="url(#p69046fc788)" d="M 224.823125 171.81 
L 234.543125 167.625 
L 234.543125 171.79605 
L 234.543125 171.79605 
L 234.543125 171.82395 
L 234.543125 171.82395 
L 234.543125 175.995 
z
" style="stroke:#000000;stroke-linejoin:miter;stroke-width:1.5;"/>
   </g>
   <g id="line2d_1">
    <path clip-path="url(#p69046fc788)" d="M 38.523125 32.31 
L 70.923125 32.31 
L 103.323125 32.31 
" style="fill:none;stroke:#000000;stroke-linecap:round;stroke-width:1.5;"/>
   </g>
   <g id="line2d_2">
    <path clip-path="url(#p69046fc788)" d="M 103.323125 32.31 
" style="fill:none;stroke:#000000;stroke-linecap:round;stroke-width:1.5;"/>
   </g>
   <g id="line2d_3">
    <path clip-path="url(#p69046fc788)" d="M 103.323125 32.31 
L 119.523125 32.31 
L 135.723125 32.31 
" style="fill:none;stroke:#000000;stroke-linecap:round;stroke-width:1.5;"/>
   </g>
   <g id="line2d_4">
    <path clip-path="url(#p69046fc788)" d="M 135.723125 32.31 
L 135.723125 46.26 
L 160.023125 32.31 
L 135.723125 18.36 
L 135.723125 32.31 
" style="fill:none;stroke:#000000;stroke-linecap:round;stroke-width:1.5;"/>
   </g>
   <g id="line2d_5">
    <path clip-path="url(#p69046fc788)" d="M 160.023125 32.31 
L 176.223125 32.31 
L 192.423125 32.31 
" style="fill:none;stroke:#000000;stroke-linecap:round;stroke-width:1.5;"/>
   </g>
   <g id="line2d_6">
    <path clip-path="url(#p69046fc788)" d="M 202.143125 32.31 
L 215.103125 32.31 
" style="fill:none;stroke:#000000;stroke-linecap:round;stroke-width:1.5;"/>
   </g>
   <g id="line2d_7">
    <path clip-path="url(#p69046fc788)" d="M 208.623125 26.73 
L 208.623125 37.89 
" style="fill:none;stroke:#000000;stroke-linecap:round;stroke-width:1.5;"/>
   </g>
   <g id="line2d_8">
    <path clip-path="url(#p69046fc788)" d="M 103.323125 32.31 
L 103.323125 46.26 
L 103.323125 60.21 
" style="fill:none;stroke:#000000;stroke-linecap:round;stroke-width:1.5;"/>
   </g>
   <g id="line2d_9">
    <path clip-path="url(#p69046fc788)" d="M 103.323125 60.21 
L 119.523125 60.21 
L 119.523125 88.11 
L 87.123125 88.11 
L 87.123125 60.21 
L 103.323125 60.21 
" style="fill:none;stroke:#000000;stroke-linecap:round;stroke-width:1.5;"/>
   </g>
   <g id="line2d_10">
    <path clip-path="url(#p69046fc788)" d="M 103.323125 88.11 
L 103.323125 95.085 
L 103.323125 102.06 
" style="fill:none;stroke:#000000;stroke-linecap:round;stroke-width:1.5;"/>
   </g>
   <g id="line2d_11">
    <path clip-path="url(#p69046fc788)" d="M 103.323125 102.06 
" style="fill:none;stroke:#000000;stroke-linecap:round;stroke-width:1.5;"/>
   </g>
   <g id="line2d_12">
    <path clip-path="url(#p69046fc788)" d="M 103.323125 102.06 
L 119.523125 102.06 
L 135.723125 102.06 
" style="fill:none;stroke:#000000;stroke-linecap:round;stroke-width:1.5;"/>
   </g>
   <g id="line2d_13">
    <path clip-path="url(#p69046fc788)" d="M 135.723125 102.06 
L 135.723125 116.01 
L 160.023125 102.06 
L 135.723125 88.11 
L 135.723125 102.06 
" style="fill:none;stroke:#000000;stroke-linecap:round;stroke-width:1.5;"/>
   </g>
   <g id="line2d_14">
    <path clip-path="url(#p69046fc788)" d="M 160.023125 102.06 
L 176.223125 102.06 
L 192.423125 102.06 
" style="fill:none;stroke:#000000;stroke-linecap:round;stroke-width:1.5;"/>
   </g>
   <g id="line2d_15">
    <path clip-path="url(#p69046fc788)" d="M 202.143125 102.06 
L 215.103125 102.06 
" style="fill:none;stroke:#000000;stroke-linecap:round;stroke-width:1.5;"/>
   </g>
   <g id="line2d_16">
    <path clip-path="url(#p69046fc788)" d="M 208.623125 96.48 
L 208.623125 107.64 
" style="fill:none;stroke:#000000;stroke-linecap:round;stroke-width:1.5;"/>
   </g>
   <g id="line2d_17">
    <path clip-path="url(#p69046fc788)" d="M 103.323125 102.06 
L 103.323125 112.5225 
L 103.323125 122.985 
" style="fill:none;stroke:#000000;stroke-linecap:round;stroke-width:1.5;"/>
   </g>
   <g id="line2d_18">
    <path clip-path="url(#p69046fc788)" d="M 103.323125 122.985 
L 119.523125 122.985 
L 119.523125 150.885 
L 87.123125 150.885 
L 87.123125 122.985 
L 103.323125 122.985 
" style="fill:none;stroke:#000000;stroke-linecap:round;stroke-width:1.5;"/>
   </g>
   <g id="line2d_19">
    <path clip-path="url(#p69046fc788)" d="M 103.323125 150.885 
L 103.323125 161.3475 
L 103.323125 171.81 
" style="fill:none;stroke:#000000;stroke-linecap:round;stroke-width:1.5;"/>
   </g>
   <g id="line2d_20">
    <path clip-path="url(#p69046fc788)" d="M 103.323125 171.81 
L 119.523125 171.81 
L 135.723125 171.81 
" style="fill:none;stroke:#000000;stroke-linecap:round;stroke-width:1.5;"/>
   </g>
   <g id="line2d_21">
    <path clip-path="url(#p69046fc788)" d="M 135.723125 171.81 
L 135.723125 185.76 
L 160.023125 171.81 
L 135.723125 157.86 
L 135.723125 171.81 
" style="fill:none;stroke:#000000;stroke-linecap:round;stroke-width:1.5;"/>
   </g>
   <g id="line2d_22">
    <path clip-path="url(#p69046fc788)" d="M 160.023125 171.81 
L 176.223125 171.81 
L 192.423125 171.81 
" style="fill:none;stroke:#000000;stroke-linecap:round;stroke-width:1.5;"/>
   </g>
   <g id="line2d_23">
    <path clip-path="url(#p69046fc788)" d="M 202.143125 171.81 
L 215.103125 171.81 
" style="fill:none;stroke:#000000;stroke-linecap:round;stroke-width:1.5;"/>
   </g>
   <g id="line2d_24">
    <path clip-path="url(#p69046fc788)" d="M 208.623125 166.23 
L 208.623125 177.39 
" style="fill:none;stroke:#000000;stroke-linecap:round;stroke-width:1.5;"/>
   </g>
   <g id="line2d_25">
    <path clip-path="url(#p69046fc788)" d="M 208.623125 157.86 
L 208.623125 136.935 
L 208.623125 116.01 
" style="fill:none;stroke:#000000;stroke-linecap:round;stroke-width:1.5;"/>
   </g>
   <g id="line2d_26">
    <path clip-path="url(#p69046fc788)" d="M 208.623125 88.11 
L 208.623125 67.185 
L 208.623125 46.26 
" style="fill:none;stroke:#000000;stroke-linecap:round;stroke-width:1.5;"/>
   </g>
   <g id="line2d_27">
    <path clip-path="url(#p69046fc788)" d="M 224.823125 32.31 
L 269.373125 32.31 
L 313.923125 32.31 
" style="fill:none;stroke:#000000;stroke-linecap:round;stroke-width:1.5;"/>
   </g>
   <g id="line2d_28">
    <path clip-path="url(#p69046fc788)" d="M 313.923125 32.31 
" style="fill:none;stroke:#000000;stroke-linecap:round;stroke-width:1.5;"/>
   </g>
   <g id="line2d_29">
    <path clip-path="url(#p69046fc788)" d="M 313.923125 32.31 
L 330.123125 32.31 
L 346.323125 32.31 
" style="fill:none;stroke:#000000;stroke-linecap:round;stroke-width:1.5;"/>
   </g>
   <g id="line2d_30">
    <path clip-path="url(#p69046fc788)" d="M 313.923125 32.31 
L 313.923125 46.26 
L 313.923125 60.21 
" style="fill:none;stroke:#000000;stroke-linecap:round;stroke-width:1.5;"/>
   </g>
   <g id="line2d_31">
    <path clip-path="url(#p69046fc788)" d="M 313.923125 60.21 
L 330.123125 60.21 
L 330.123125 88.11 
L 297.723125 88.11 
L 297.723125 60.21 
L 313.923125 60.21 
" style="fill:none;stroke:#000000;stroke-linecap:round;stroke-width:1.5;"/>
   </g>
   <g id="line2d_32">
    <path clip-path="url(#p69046fc788)" d="M 313.923125 88.11 
L 313.923125 95.085 
L 313.923125 102.06 
" style="fill:none;stroke:#000000;stroke-linecap:round;stroke-width:1.5;"/>
   </g>
   <g id="line2d_33">
    <path clip-path="url(#p69046fc788)" d="M 313.923125 102.06 
" style="fill:none;stroke:#000000;stroke-linecap:round;stroke-width:1.5;"/>
   </g>
   <g id="line2d_34">
    <path clip-path="url(#p69046fc788)" d="M 313.923125 102.06 
L 297.723125 102.06 
L 281.523125 102.06 
" style="fill:none;stroke:#000000;stroke-linecap:round;stroke-width:1.5;"/>
   </g>
   <g id="line2d_35">
    <path clip-path="url(#p69046fc788)" d="M 281.523125 102.06 
L 281.523125 88.11 
L 257.223125 102.06 
L 281.523125 116.01 
L 281.523125 102.06 
" style="fill:none;stroke:#000000;stroke-linecap:round;stroke-width:1.5;"/>
   </g>
   <g id="line2d_36">
    <path clip-path="url(#p69046fc788)" d="M 257.223125 102.06 
L 241.023125 102.06 
L 224.823125 102.06 
" style="fill:none;stroke:#000000;stroke-linecap:round;stroke-width:1.5;"/>
   </g>
   <g id="line2d_37">
    <path clip-path="url(#p69046fc788)" d="M 313.923125 102.06 
L 313.923125 112.5225 
L 313.923125 122.985 
" style="fill:none;stroke:#000000;stroke-linecap:round;stroke-width:1.5;"/>
   </g>
   <g id="line2d_38">
    <path clip-path="url(#p69046fc788)" d="M 313.923125 122.985 
L 330.123125 122.985 
L 330.123125 150.885 
L 297.723125 150.885 
L 297.723125 122.985 
L 313.923125 122.985 
" style="fill:none;stroke:#000000;stroke-linecap:round;stroke-width:1.5;"/>
   </g>
   <g id="line2d_39">
    <path clip-path="url(#p69046fc788)" d="M 313.923125 150.885 
L 313.923125 161.3475 
L 313.923125 171.81 
" style="fill:none;stroke:#000000;stroke-linecap:round;stroke-width:1.5;"/>
   </g>
   <g id="line2d_40">
    <path clip-path="url(#p69046fc788)" d="M 313.923125 171.81 
L 297.723125 171.81 
L 281.523125 171.81 
" style="fill:none;stroke:#000000;stroke-linecap:round;stroke-width:1.5;"/>
   </g>
   <g id="line2d_41">
    <path clip-path="url(#p69046fc788)" d="M 281.523125 171.81 
L 281.523125 157.86 
L 257.223125 171.81 
L 281.523125 185.76 
L 281.523125 171.81 
" style="fill:none;stroke:#000000;stroke-linecap:round;stroke-width:1.5;"/>
   </g>
   <g id="line2d_42">
    <path clip-path="url(#p69046fc788)" d="M 257.223125 171.81 
L 241.023125 171.81 
L 224.823125 171.81 
" style="fill:none;stroke:#000000;stroke-linecap:round;stroke-width:1.5;"/>
   </g>
   <g id="patch_14">
    <path clip-path="url(#p69046fc788)" d="M 103.323125 34.4025 
C 103.967569 34.4025 104.585704 34.182021 105.041394 33.789621 
C 105.497085 33.397221 105.753125 32.864937 105.753125 32.31 
C 105.753125 31.755063 105.497085 31.222779 105.041394 30.830379 
C 104.585704 30.437979 103.967569 30.2175 103.323125 30.2175 
C 102.678681 30.2175 102.060546 30.437979 101.604856 30.830379 
C 101.149165 31.222779 100.893125 31.755063 100.893125 32.31 
C 100.893125 32.864937 101.149165 33.397221 101.604856 33.789621 
C 102.060546 34.182021 102.678681 34.4025 103.323125 34.4025 
z
" style="stroke:#000000;stroke-linejoin:miter;stroke-width:1.5;"/>
   </g>
   <g id="patch_15">
    <path clip-path="url(#p69046fc788)" d="M 208.623125 46.26 
C 212.919415 46.26 217.040319 44.79014 220.078255 42.17414 
C 223.116191 39.558139 224.823125 36.009583 224.823125 32.31 
C 224.823125 28.610417 223.116191 25.061861 220.078255 22.44586 
C 217.040319 19.82986 212.919415 18.36 208.623125 18.36 
C 204.326835 18.36 200.205931 19.82986 197.167995 22.44586 
C 194.130059 25.061861 192.423125 28.610417 192.423125 32.31 
C 192.423125 36.009583 194.130059 39.558139 197.167995 42.17414 
C 200.205931 44.79014 204.326835 46.26 208.623125 46.26 
z
" style="fill:none;stroke:#000000;stroke-linejoin:miter;stroke-width:1.5;"/>
   </g>
   <g id="patch_16">
    <path clip-path="url(#p69046fc788)" d="M 103.323125 104.1525 
C 103.967569 104.1525 104.585704 103.932021 105.041394 103.539621 
C 105.497085 103.147221 105.753125 102.614937 105.753125 102.06 
C 105.753125 101.505063 105.497085 100.972779 105.041394 100.580379 
C 104.585704 100.187979 103.967569 99.9675 103.323125 99.9675 
C 102.678681 99.9675 102.060546 100.187979 101.604856 100.580379 
C 101.149165 100.972779 100.893125 101.505063 100.893125 102.06 
C 100.893125 102.614937 101.149165 103.147221 101.604856 103.539621 
C 102.060546 103.932021 102.678681 104.1525 103.323125 104.1525 
z
" style="stroke:#000000;stroke-linejoin:miter;stroke-width:1.5;"/>
   </g>
   <g id="patch_17">
    <path clip-path="url(#p69046fc788)" d="M 208.623125 116.01 
C 212.919415 116.01 217.040319 114.54014 220.078255 111.92414 
C 223.116191 109.308139 224.823125 105.759583 224.823125 102.06 
C 224.823125 98.360417 223.116191 94.811861 220.078255 92.19586 
C 217.040319 89.57986 212.919415 88.11 208.623125 88.11 
C 204.326835 88.11 200.205931 89.57986 197.167995 92.19586 
C 194.130059 94.811861 192.423125 98.360417 192.423125 102.06 
C 192.423125 105.759583 194.130059 109.308139 197.167995 111.92414 
C 200.205931 114.54014 204.326835 116.01 208.623125 116.01 
z
" style="fill:none;stroke:#000000;stroke-linejoin:miter;stroke-width:1.5;"/>
   </g>
   <g id="patch_18">
    <path clip-path="url(#p69046fc788)" d="M 208.623125 185.76 
C 212.919415 185.76 217.040319 184.29014 220.078255 181.67414 
C 223.116191 179.058139 224.823125 175.509583 224.823125 171.81 
C 224.823125 168.110417 223.116191 164.561861 220.078255 161.94586 
C 217.040319 159.32986 212.919415 157.86 208.623125 157.86 
C 204.326835 157.86 200.205931 159.32986 197.167995 161.94586 
C 194.130059 164.561861 192.423125 168.110417 192.423125 171.81 
C 192.423125 175.509583 194.130059 179.058139 197.167995 181.67414 
C 200.205931 184.29014 204.326835 185.76 208.623125 185.76 
z
" style="fill:none;stroke:#000000;stroke-linejoin:miter;stroke-width:1.5;"/>
   </g>
   <g id="patch_19">
    <path clip-path="url(#p69046fc788)" d="M 313.923125 34.4025 
C 314.567569 34.4025 315.185704 34.182021 315.641394 33.789621 
C 316.097085 33.397221 316.353125 32.864937 316.353125 32.31 
C 316.353125 31.755063 316.097085 31.222779 315.641394 30.830379 
C 315.185704 30.437979 314.567569 30.2175 313.923125 30.2175 
C 313.278681 30.2175 312.660546 30.437979 312.204856 30.830379 
C 311.749165 31.222779 311.493125 31.755063 311.493125 32.31 
C 311.493125 32.864937 311.749165 33.397221 312.204856 33.789621 
C 312.660546 34.182021 313.278681 34.4025 313.923125 34.4025 
z
" style="stroke:#000000;stroke-linejoin:miter;stroke-width:1.5;"/>
   </g>
   <g id="patch_20">
    <path clip-path="url(#p69046fc788)" d="M 313.923125 104.1525 
C 314.567569 104.1525 315.185704 103.932021 315.641394 103.539621 
C 316.097085 103.147221 316.353125 102.614937 316.353125 102.06 
C 316.353125 101.505063 316.097085 100.972779 315.641394 100.580379 
C 315.185704 100.187979 314.567569 99.9675 313.923125 99.9675 
C 313.278681 99.9675 312.660546 100.187979 312.204856 100.580379 
C 311.749165 100.972779 311.493125 101.505063 311.493125 102.06 
C 311.493125 102.614937 311.749165 103.147221 312.204856 103.539621 
C 312.660546 103.932021 313.278681 104.1525 313.923125 104.1525 
z
" style="stroke:#000000;stroke-linejoin:miter;stroke-width:1.5;"/>
   </g>
   <g id="text_1">
    <!-- x[n] -->
    <defs>
     <path d="M 54.890625 54.6875 
L 35.109375 28.078125 
L 55.90625 0 
L 45.3125 0 
L 29.390625 21.484375 
L 13.484375 0 
L 2.875 0 
L 24.125 28.609375 
L 4.6875 54.6875 
L 15.28125 54.6875 
L 29.78125 35.203125 
L 44.28125 54.6875 
z
" id="DejaVuSans-120"/>
     <path d="M 8.59375 75.984375 
L 29.296875 75.984375 
L 29.296875 69 
L 17.578125 69 
L 17.578125 -6.203125 
L 29.296875 -6.203125 
L 29.296875 -13.1875 
L 8.59375 -13.1875 
z
" id="DejaVuSans-91"/>
     <path d="M 54.890625 33.015625 
L 54.890625 0 
L 45.90625 0 
L 45.90625 32.71875 
Q 45.90625 40.484375 42.875 44.328125 
Q 39.84375 48.1875 33.796875 48.1875 
Q 26.515625 48.1875 22.3125 43.546875 
Q 18.109375 38.921875 18.109375 30.90625 
L 18.109375 0 
L 9.078125 0 
L 9.078125 54.6875 
L 18.109375 54.6875 
L 18.109375 46.1875 
Q 21.34375 51.125 25.703125 53.5625 
Q 30.078125 56 35.796875 56 
Q 45.21875 56 50.046875 50.171875 
Q 54.890625 44.34375 54.890625 33.015625 
z
" id="DejaVuSans-110"/>
     <path d="M 30.421875 75.984375 
L 30.421875 -13.1875 
L 9.71875 -13.1875 
L 9.71875 -6.203125 
L 21.390625 -6.203125 
L 21.390625 69 
L 9.71875 69 
L 9.71875 75.984375 
z
" id="DejaVuSans-93"/>
    </defs>
    <g transform="translate(7.2 36.173125)scale(0.14 -0.14)">
     <use xlink:href="#DejaVuSans-120"/>
     <use x="59.179688" xlink:href="#DejaVuSans-91"/>
     <use x="98.193359" xlink:href="#DejaVuSans-110"/>
     <use x="161.572266" xlink:href="#DejaVuSans-93"/>
    </g>
   </g>
   <g id="text_2">
    <!-- $b_0$ -->
    <defs>
     <path d="M 48.6875 27.296875 
Q 48.6875 37.203125 44.609375 42.84375 
Q 40.53125 48.484375 33.40625 48.484375 
Q 26.265625 48.484375 22.1875 42.84375 
Q 18.109375 37.203125 18.109375 27.296875 
Q 18.109375 17.390625 22.1875 11.75 
Q 26.265625 6.109375 33.40625 6.109375 
Q 40.53125 6.109375 44.609375 11.75 
Q 48.6875 17.390625 48.6875 27.296875 
z
M 18.109375 46.390625 
Q 20.953125 51.265625 25.265625 53.625 
Q 29.59375 56 35.59375 56 
Q 45.5625 56 51.78125 48.09375 
Q 58.015625 40.1875 58.015625 27.296875 
Q 58.015625 14.40625 51.78125 6.484375 
Q 45.5625 -1.421875 35.59375 -1.421875 
Q 29.59375 -1.421875 25.265625 0.953125 
Q 20.953125 3.328125 18.109375 8.203125 
L 18.109375 0 
L 9.078125 0 
L 9.078125 75.984375 
L 18.109375 75.984375 
z
" id="DejaVuSans-98"/>
     <path d="M 31.78125 66.40625 
Q 24.171875 66.40625 20.328125 58.90625 
Q 16.5 51.421875 16.5 36.375 
Q 16.5 21.390625 20.328125 13.890625 
Q 24.171875 6.390625 31.78125 6.390625 
Q 39.453125 6.390625 43.28125 13.890625 
Q 47.125 21.390625 47.125 36.375 
Q 47.125 51.421875 43.28125 58.90625 
Q 39.453125 66.40625 31.78125 66.40625 
z
M 31.78125 74.21875 
Q 44.046875 74.21875 50.515625 64.515625 
Q 56.984375 54.828125 56.984375 36.375 
Q 56.984375 17.96875 50.515625 8.265625 
Q 44.046875 -1.421875 31.78125 -1.421875 
Q 19.53125 -1.421875 13.0625 8.265625 
Q 6.59375 17.96875 6.59375 36.375 
Q 6.59375 54.828125 13.0625 64.515625 
Q 19.53125 74.21875 31.78125 74.21875 
z
" id="DejaVuSans-48"/>
    </defs>
    <g transform="translate(140.033125 59.687812)scale(0.14 -0.14)">
     <use transform="translate(0 0.015625)" xlink:href="#DejaVuSans-98"/>
     <use transform="translate(64.433594 -16.390625)scale(0.7)" xlink:href="#DejaVuSans-48"/>
    </g>
   </g>
   <g id="text_3">
    <!-- $z^{-1}$ -->
    <defs>
     <path d="M 5.515625 54.6875 
L 48.1875 54.6875 
L 48.1875 46.484375 
L 14.40625 7.171875 
L 48.1875 7.171875 
L 48.1875 0 
L 4.296875 0 
L 4.296875 8.203125 
L 38.09375 47.515625 
L 5.515625 47.515625 
z
" id="DejaVuSans-122"/>
     <path d="M 10.59375 35.5 
L 73.1875 35.5 
L 73.1875 27.203125 
L 10.59375 27.203125 
z
" id="DejaVuSans-8722"/>
     <path d="M 12.40625 8.296875 
L 28.515625 8.296875 
L 28.515625 63.921875 
L 10.984375 60.40625 
L 10.984375 69.390625 
L 28.421875 72.90625 
L 38.28125 72.90625 
L 38.28125 8.296875 
L 54.390625 8.296875 
L 54.390625 0 
L 12.40625 0 
z
" id="DejaVuSans-49"/>
    </defs>
    <g transform="translate(92.123125 78.023125)scale(0.14 -0.14)">
     <use transform="translate(0 0.684375)" xlink:href="#DejaVuSans-122"/>
     <use transform="translate(53.447266 38.965625)scale(0.7)" xlink:href="#DejaVuSans-8722"/>
     <use transform="translate(112.099609 38.965625)scale(0.7)" xlink:href="#DejaVuSans-49"/>
    </g>
   </g>
   <g id="text_4">
    <!-- $b_1$ -->
    <g transform="translate(140.033125 129.437812)scale(0.14 -0.14)">
     <use transform="translate(0 0.015625)" xlink:href="#DejaVuSans-98"/>
     <use transform="translate(64.433594 -16.390625)scale(0.7)" xlink:href="#DejaVuSans-49"/>
    </g>
   </g>
   <g id="text_5">
    <!-- $z^{-1}$ -->
    <g transform="translate(92.123125 140.798125)scale(0.14 -0.14)">
     <use transform="translate(0 0.684375)" xlink:href="#DejaVuSans-122"/>
     <use transform="translate(53.447266 38.965625)scale(0.7)" xlink:href="#DejaVuSans-8722"/>
     <use transform="translate(112.099609 38.965625)scale(0.7)" xlink:href="#DejaVuSans-49"/>
    </g>
   </g>
   <g id="text_6">
    <!-- $b_2$ -->
    <defs>
     <path d="M 19.1875 8.296875 
L 53.609375 8.296875 
L 53.609375 0 
L 7.328125 0 
L 7.328125 8.296875 
Q 12.9375 14.109375 22.625 23.890625 
Q 32.328125 33.6875 34.8125 36.53125 
Q 39.546875 41.84375 41.421875 45.53125 
Q 43.3125 49.21875 43.3125 52.78125 
Q 43.3125 58.59375 39.234375 62.25 
Q 35.15625 65.921875 28.609375 65.921875 
Q 23.96875 65.921875 18.8125 64.3125 
Q 13.671875 62.703125 7.8125 59.421875 
L 7.8125 69.390625 
Q 13.765625 71.78125 18.9375 73 
Q 24.125 74.21875 28.421875 74.21875 
Q 39.75 74.21875 46.484375 68.546875 
Q 53.21875 62.890625 53.21875 53.421875 
Q 53.21875 48.921875 51.53125 44.890625 
Q 49.859375 40.875 45.40625 35.40625 
Q 44.1875 33.984375 37.640625 27.21875 
Q 31.109375 20.453125 19.1875 8.296875 
z
" id="DejaVuSans-50"/>
    </defs>
    <g transform="translate(140.033125 199.187812)scale(0.14 -0.14)">
     <use transform="translate(0 0.015625)" xlink:href="#DejaVuSans-98"/>
     <use transform="translate(64.433594 -16.390625)scale(0.7)" xlink:href="#DejaVuSans-50"/>
    </g>
   </g>
   <g id="text_7">
    <!-- y[n] -->
    <defs>
     <path d="M 32.171875 -5.078125 
Q 28.375 -14.84375 24.75 -17.8125 
Q 21.140625 -20.796875 15.09375 -20.796875 
L 7.90625 -20.796875 
L 7.90625 -13.28125 
L 13.1875 -13.28125 
Q 16.890625 -13.28125 18.9375 -11.515625 
Q 21 -9.765625 23.484375 -3.21875 
L 25.09375 0.875 
L 2.984375 54.6875 
L 12.5 54.6875 
L 29.59375 11.921875 
L 46.6875 54.6875 
L 56.203125 54.6875 
z
" id="DejaVuSans-121"/>
    </defs>
    <g transform="translate(349.563125 36.173125)scale(0.14 -0.14)">
     <use xlink:href="#DejaVuSans-121"/>
     <use x="59.179688" xlink:href="#DejaVuSans-91"/>
     <use x="98.193359" xlink:href="#DejaVuSans-110"/>
     <use x="161.572266" xlink:href="#DejaVuSans-93"/>
    </g>
   </g>
   <g id="text_8">
    <!-- $z^{-1}$ -->
    <g transform="translate(302.723125 78.023125)scale(0.14 -0.14)">
     <use transform="translate(0 0.684375)" xlink:href="#DejaVuSans-122"/>
     <use transform="translate(53.447266 38.965625)scale(0.7)" xlink:href="#DejaVuSans-8722"/>
     <use transform="translate(112.099609 38.965625)scale(0.7)" xlink:href="#DejaVuSans-49"/>
    </g>
   </g>
   <g id="text_9">
    <!-- $-a_1$ -->
    <defs>
     <path d="M 34.28125 27.484375 
Q 23.390625 27.484375 19.1875 25 
Q 14.984375 22.515625 14.984375 16.5 
Q 14.984375 11.71875 18.140625 8.90625 
Q 21.296875 6.109375 26.703125 6.109375 
Q 34.1875 6.109375 38.703125 11.40625 
Q 43.21875 16.703125 43.21875 25.484375 
L 43.21875 27.484375 
z
M 52.203125 31.203125 
L 52.203125 0 
L 43.21875 0 
L 43.21875 8.296875 
Q 40.140625 3.328125 35.546875 0.953125 
Q 30.953125 -1.421875 24.3125 -1.421875 
Q 15.921875 -1.421875 10.953125 3.296875 
Q 6 8.015625 6 15.921875 
Q 6 25.140625 12.171875 29.828125 
Q 18.359375 34.515625 30.609375 34.515625 
L 43.21875 34.515625 
L 43.21875 35.40625 
Q 43.21875 41.609375 39.140625 45 
Q 35.0625 48.390625 27.6875 48.390625 
Q 23 48.390625 18.546875 47.265625 
Q 14.109375 46.140625 10.015625 43.890625 
L 10.015625 52.203125 
Q 14.9375 54.109375 19.578125 55.046875 
Q 24.21875 56 28.609375 56 
Q 40.484375 56 46.34375 49.84375 
Q 52.203125 43.703125 52.203125 31.203125 
z
" id="DejaVuSans-97"/>
    </defs>
    <g transform="translate(255.793125 129.437812)scale(0.14 -0.14)">
     <use xlink:href="#DejaVuSans-8722"/>
     <use transform="translate(83.789062 0)" xlink:href="#DejaVuSans-97"/>
     <use transform="translate(146.025391 -16.40625)scale(0.7)" xlink:href="#DejaVuSans-49"/>
    </g>
   </g>
   <g id="text_10">
    <!-- $z^{-1}$ -->
    <g transform="translate(302.723125 140.798125)scale(0.14 -0.14)">
     <use transform="translate(0 0.684375)" xlink:href="#DejaVuSans-122"/>
     <use transform="translate(53.447266 38.965625)scale(0.7)" xlink:href="#DejaVuSans-8722"/>
     <use transform="translate(112.099609 38.965625)scale(0.7)" xlink:href="#DejaVuSans-49"/>
    </g>
   </g>
   <g id="text_11">
    <!-- $-a_2$ -->
    <g transform="translate(255.793125 199.187812)scale(0.14 -0.14)">
     <use xlink:href="#DejaVuSans-8722"/>
     <use transform="translate(83.789062 0)" xlink:href="#DejaVuSans-97"/>
     <use transform="translate(146.025391 -16.40625)scale(0.7)" xlink:href="#DejaVuSans-50"/>
    </g>
   </g>
  </g>
 </g>
 <defs>
  <clipPath id="p69046fc788">
   <rect height="189.72" width="345.06" x="19.893125" y="7.2"/>
  </clipPath>
 </defs>
</svg>
