<?xml version="1.0" encoding="utf-8" standalone="no"?>
<!DOCTYPE svg PUBLIC "-//W3C//DTD SVG 1.1//EN"
  "http://www.w3.org/Graphics/SVG/1.1/DTD/svg11.dtd">
<!-- Created with matplotlib (https://matplotlib.org/) -->
<svg height="69.23745pt" version="1.1" viewBox="0 0 70.776 69.23745" width="70.776pt" xmlns="http://www.w3.org/2000/svg" xmlns:xlink="http://www.w3.org/1999/xlink">
 <defs>
  <style type="text/css">
*{stroke-linecap:butt;stroke-linejoin:round;}
  </style>
 </defs>
 <g id="figure_1">
  <g id="patch_1">
   <path d="M 0 69.23745 
L 70.776 69.23745 
L 70.776 0 
L 0 0 
z
" style="fill:none;"/>
  </g>
  <g id="axes_1">
   <g id="patch_2">
    <path clip-path="url(#pb09e7f597f)" d="M 35.388 57.008475 
C 37.106516 57.008475 38.754878 56.420531 39.970052 55.374131 
C 41.185226 54.327731 41.868 52.908308 41.868 51.428475 
C 41.868 49.948642 41.185226 48.529219 39.970052 47.482819 
C 38.754878 46.436419 37.106516 45.848475 35.388 45.848475 
C 33.669484 45.848475 32.021122 46.436419 30.805948 47.482819 
C 29.590774 48.529219 28.908 49.948642 28.908 51.428475 
C 28.908 52.908308 29.590774 54.327731 30.805948 55.374131 
C 32.021122 56.420531 33.669484 57.008475 35.388 57.008475 
z
" style="fill:none;stroke:#000000;stroke-linejoin:miter;stroke-width:1.5;"/>
   </g>
   <g id="patch_3">
    <path clip-path="url(#pb09e7f597f)" d="M 51.588 23.388975 
C 53.306516 23.388975 54.954878 22.801031 56.170052 21.754631 
C 57.385226 20.708231 58.068 19.288808 58.068 17.808975 
C 58.068 16.329142 57.385226 14.909719 56.170052 13.863319 
C 54.954878 12.816919 53.306516 12.228975 51.588 12.228975 
C 49.869484 12.228975 48.221122 12.816919 47.005948 13.863319 
C 45.790774 14.909719 45.108 16.329142 45.108 17.808975 
C 45.108 19.288808 45.790774 20.708231 47.005948 21.754631 
C 48.221122 22.801031 49.869484 23.388975 51.588 23.388975 
z
" style="fill:none;stroke:#000000;stroke-linejoin:miter;stroke-width:1.5;"/>
   </g>
   <g id="patch_4">
    <path clip-path="url(#pb09e7f597f)" d="M 19.188 23.388975 
C 20.906516 23.388975 22.554878 22.801031 23.770052 21.754631 
C 24.985226 20.708231 25.668 19.288808 25.668 17.808975 
C 25.668 16.329142 24.985226 14.909719 23.770052 13.863319 
C 22.554878 12.816919 20.906516 12.228975 19.188 12.228975 
C 17.469484 12.228975 15.821122 12.816919 14.605948 13.863319 
C 13.390774 14.909719 12.708 16.329142 12.708 17.808975 
C 12.708 19.288808 13.390774 20.708231 14.605948 21.754631 
C 15.821122 22.801031 17.469484 23.388975 19.188 23.388975 
z
" style="fill:none;stroke:#000000;stroke-linejoin:miter;stroke-width:1.5;"/>
   </g>
   <g id="patch_5">
    <path clip-path="url(#pb09e7f597f)" d="M 35.388 33.851475 
C 36.032444 33.851475 36.650579 33.630996 37.106269 33.238596 
C 37.56196 32.846196 37.818 32.313912 37.818 31.758975 
C 37.818 31.204038 37.56196 30.671754 37.106269 30.279354 
C 36.650579 29.886954 36.032444 29.666475 35.388 29.666475 
C 34.743556 29.666475 34.125421 29.886954 33.669731 30.279354 
C 33.21404 30.671754 32.958 31.204038 32.958 31.758975 
C 32.958 32.313912 33.21404 32.846196 33.669731 33.238596 
C 34.125421 33.630996 34.743556 33.851475 35.388 33.851475 
z
" style="stroke:#000000;stroke-linejoin:miter;stroke-width:1.5;"/>
   </g>
   <g id="line2d_1">
    <path clip-path="url(#pb09e7f597f)" d="M 35.388 31.758975 
" style="fill:none;stroke:#000000;stroke-linecap:round;stroke-width:1.5;"/>
   </g>
   <g id="line2d_2">
    <path clip-path="url(#pb09e7f597f)" d="M 35.388 31.758975 
L 35.388 51.428475 
" style="fill:none;stroke:#000000;stroke-linecap:round;stroke-width:1.5;"/>
   </g>
   <g id="line2d_3">
    <path clip-path="url(#pb09e7f597f)" d="M 35.388 31.758975 
L 51.588 17.808975 
" style="fill:none;stroke:#000000;stroke-linecap:round;stroke-width:1.5;"/>
   </g>
   <g id="line2d_4">
    <path clip-path="url(#pb09e7f597f)" d="M 35.388 31.758975 
L 19.188 17.808975 
" style="fill:none;stroke:#000000;stroke-linecap:round;stroke-width:1.5;"/>
   </g>
  </g>
 </g>
 <defs>
  <clipPath id="pb09e7f597f">
   <rect height="54.83745" width="56.376" x="7.2" y="7.2"/>
  </clipPath>
 </defs>
</svg>
