<?xml version="1.0" encoding="utf-8" standalone="no"?>
<!DOCTYPE svg PUBLIC "-//W3C//DTD SVG 1.1//EN"
  "http://www.w3.org/Graphics/SVG/1.1/DTD/svg11.dtd">
<!-- Created with matplotlib (http://matplotlib.org/) -->
<svg height="170pt" version="1.1" viewBox="0 0 309 170" width="309pt" xmlns="http://www.w3.org/2000/svg" xmlns:xlink="http://www.w3.org/1999/xlink">
 <defs>
  <style type="text/css">
*{stroke-linecap:butt;stroke-linejoin:round;}
  </style>
 </defs>
 <g id="figure_1">
  <g id="patch_1">
   <path d="M 0 170.2384 
L 309.72 170.2384 
L 309.72 0 
L 0 0 
z
" style="fill:none;"/>
  </g>
  <g id="axes_1">
   <g id="patch_2">
    <path clip-path="url(#pe1e2b2396d)" d="M 179.94 104.0912 
C 184.234859 104.0912 188.358206 102.47814 191.39513 99.609934 
C 194.432054 96.741728 196.14 92.847456 196.14 88.7912 
C 196.14 84.734944 194.432054 80.840672 191.39513 77.972466 
C 188.358206 75.10426 184.234859 73.4912 179.94 73.4912 
" style="fill:none;stroke:#000000;stroke-linejoin:miter;stroke-width:1.5;"/>
   </g>
   <g id="patch_3">
    <path clip-path="url(#pe1e2b2396d)" d="M 179.94 149.9912 
C 184.234859 149.9912 188.358206 148.37814 191.39513 145.509934 
C 194.432054 142.641728 196.14 138.747456 196.14 134.6912 
C 196.14 130.634944 194.432054 126.740672 191.39513 123.872466 
C 188.358206 121.00426 184.234859 119.3912 179.94 119.3912 
" style="fill:none;stroke:#000000;stroke-linejoin:miter;stroke-width:1.5;"/>
   </g>
   <g id="line2d_1">
    <path clip-path="url(#pe1e2b2396d)" d="M 64.92 35.2412 
M 120 35.2412 
L 131.34 35.2412 
" style="fill:none;stroke:#000000;stroke-linecap:round;stroke-width:1.5;"/>
   </g>
   <g id="line2d_2">
    <path clip-path="url(#pe1e2b2396d)" d="M 81.12 50.2352 
L 97.32 50.2352 
L 97.782857 50.228955 
L 98.245714 50.21022 
L 98.708571 50.178996 
L 99.171429 50.135282 
L 99.634286 50.079078 
L 100.097143 50.010384 
L 100.56 49.9292 
L 101.022857 49.835527 
L 101.485714 49.729363 
L 101.948571 49.61071 
L 102.411429 49.479567 
L 102.874286 49.335935 
L 103.337143 49.179812 
L 103.8 49.0112 
L 104.262857 48.830098 
L 104.725714 48.636506 
L 105.188571 48.430424 
L 105.651429 48.211853 
L 106.114286 47.980792 
L 106.577143 47.737241 
L 107.04 47.4812 
L 107.502857 47.212669 
L 107.965714 46.931649 
L 108.428571 46.638139 
L 108.891429 46.332139 
L 109.354286 46.013649 
L 109.817143 45.682669 
L 110.28 45.3392 
L 110.742857 44.983241 
L 111.205714 44.614792 
L 111.668571 44.233853 
L 112.131429 43.840424 
L 112.594286 43.434506 
L 113.057143 43.016098 
L 113.52 42.5852 
L 113.982857 42.141812 
L 114.445714 41.685935 
L 114.908571 41.217567 
L 115.371429 40.73671 
L 115.834286 40.243363 
L 116.297143 39.737527 
L 116.76 39.2192 
L 117.222857 38.688384 
L 117.685714 38.145078 
L 118.148571 37.589282 
L 118.611429 37.020996 
L 119.074286 36.44022 
L 119.537143 35.846955 
L 120 35.2412 
" style="fill:none;stroke:#000000;stroke-linecap:round;stroke-width:1.5;"/>
   </g>
   <g id="line2d_3">
    <path clip-path="url(#pe1e2b2396d)" d="M 81.12 20.2472 
L 97.32 20.2472 
L 97.782857 20.253445 
L 98.245714 20.27218 
L 98.708571 20.303404 
L 99.171429 20.347118 
L 99.634286 20.403322 
L 100.097143 20.472016 
L 100.56 20.5532 
L 101.022857 20.646873 
L 101.485714 20.753037 
L 101.948571 20.87169 
L 102.411429 21.002833 
L 102.874286 21.146465 
L 103.337143 21.302588 
L 103.8 21.4712 
L 104.262857 21.652302 
L 104.725714 21.845894 
L 105.188571 22.051976 
L 105.651429 22.270547 
L 106.114286 22.501608 
L 106.577143 22.745159 
L 107.04 23.0012 
L 107.502857 23.269731 
L 107.965714 23.550751 
L 108.428571 23.844261 
L 108.891429 24.150261 
L 109.354286 24.468751 
L 109.817143 24.799731 
L 110.28 25.1432 
L 110.742857 25.499159 
L 111.205714 25.867608 
L 111.668571 26.248547 
L 112.131429 26.641976 
L 112.594286 27.047894 
L 113.057143 27.466302 
L 113.52 27.8972 
L 113.982857 28.340588 
L 114.445714 28.796465 
L 114.908571 29.264833 
L 115.371429 29.74569 
L 115.834286 30.239037 
L 116.297143 30.744873 
L 116.76 31.2632 
L 117.222857 31.794016 
L 117.685714 32.337322 
L 118.148571 32.893118 
L 118.611429 33.461404 
L 119.074286 34.04218 
L 119.537143 34.635445 
L 120 35.2412 
" style="fill:none;stroke:#000000;stroke-linecap:round;stroke-width:1.5;"/>
   </g>
   <g id="line2d_4">
    <path clip-path="url(#pe1e2b2396d)" d="M 76.26 50.2352 
L 76.88208 49.6232 
L 77.47824 49.0112 
L 78.04848 48.3992 
L 78.5928 47.7872 
L 79.1112 47.1752 
L 79.60368 46.5632 
L 80.07024 45.9512 
L 80.51088 45.3392 
L 80.9256 44.7272 
L 81.3144 44.1152 
L 81.67728 43.5032 
L 82.01424 42.8912 
L 82.32528 42.2792 
L 82.6104 41.6672 
L 82.8696 41.0552 
L 83.10288 40.4432 
L 83.31024 39.8312 
L 83.49168 39.2192 
L 83.6472 38.6072 
L 83.7768 37.9952 
L 83.88048 37.3832 
L 83.95824 36.7712 
L 84.01008 36.1592 
L 84.036 35.5472 
L 84.036 34.9352 
L 84.01008 34.3232 
L 83.95824 33.7112 
L 83.88048 33.0992 
L 83.7768 32.4872 
L 83.6472 31.8752 
L 83.49168 31.2632 
L 83.31024 30.6512 
L 83.10288 30.0392 
L 82.8696 29.4272 
L 82.6104 28.8152 
L 82.32528 28.2032 
L 82.01424 27.5912 
L 81.67728 26.9792 
L 81.3144 26.3672 
L 80.9256 25.7552 
L 80.51088 25.1432 
L 80.07024 24.5312 
L 79.60368 23.9192 
L 79.1112 23.3072 
L 78.5928 22.6952 
L 78.04848 22.0832 
L 77.47824 21.4712 
L 76.88208 20.8592 
L 76.26 20.2472 
" style="fill:none;stroke:#000000;stroke-linecap:round;stroke-width:1.5;"/>
   </g>
   <g id="line2d_5">
    <path clip-path="url(#pe1e2b2396d)" d="M 81.12 50.2352 
L 81.74208 49.6232 
L 82.33824 49.0112 
L 82.90848 48.3992 
L 83.4528 47.7872 
L 83.9712 47.1752 
L 84.46368 46.5632 
L 84.93024 45.9512 
L 85.37088 45.3392 
L 85.7856 44.7272 
L 86.1744 44.1152 
L 86.53728 43.5032 
L 86.87424 42.8912 
L 87.18528 42.2792 
L 87.4704 41.6672 
L 87.7296 41.0552 
L 87.96288 40.4432 
L 88.17024 39.8312 
L 88.35168 39.2192 
L 88.5072 38.6072 
L 88.6368 37.9952 
L 88.74048 37.3832 
L 88.81824 36.7712 
L 88.87008 36.1592 
L 88.896 35.5472 
L 88.896 34.9352 
L 88.87008 34.3232 
L 88.81824 33.7112 
L 88.74048 33.0992 
L 88.6368 32.4872 
L 88.5072 31.8752 
L 88.35168 31.2632 
L 88.17024 30.6512 
L 87.96288 30.0392 
L 87.7296 29.4272 
L 87.4704 28.8152 
L 87.18528 28.2032 
L 86.87424 27.5912 
L 86.53728 26.9792 
L 86.1744 26.3672 
L 85.7856 25.7552 
L 85.37088 25.1432 
L 84.93024 24.5312 
L 84.46368 23.9192 
L 83.9712 23.3072 
L 83.4528 22.6952 
L 82.90848 22.0832 
L 82.33824 21.4712 
L 81.74208 20.8592 
L 81.12 20.2472 
" style="fill:none;stroke:#000000;stroke-linecap:round;stroke-width:1.5;"/>
   </g>
   <g id="line2d_6">
    <path clip-path="url(#pe1e2b2396d)" d="M 64.92 42.8912 
L 82.01424 42.8912 
" style="fill:none;stroke:#000000;stroke-linecap:round;stroke-width:1.5;"/>
   </g>
   <g id="line2d_7">
    <path clip-path="url(#pe1e2b2396d)" d="M 64.92 27.5912 
L 82.01424 27.5912 
" style="fill:none;stroke:#000000;stroke-linecap:round;stroke-width:1.5;"/>
   </g>
   <g id="line2d_8">
    <path clip-path="url(#pe1e2b2396d)" d="M 131.34 35.2412 
" style="fill:none;stroke:#000000;stroke-linecap:round;stroke-width:1.5;"/>
   </g>
   <g id="line2d_9">
    <path clip-path="url(#pe1e2b2396d)" d="M 64.92 27.5912 
" style="fill:none;stroke:#000000;stroke-linecap:round;stroke-width:1.5;"/>
   </g>
   <g id="line2d_10">
    <path clip-path="url(#pe1e2b2396d)" d="M 64.92 27.5912 
L 48.72 27.5912 
L 32.52 27.5912 
" style="fill:none;stroke:#000000;stroke-linecap:round;stroke-width:1.5;"/>
   </g>
   <g id="line2d_11">
    <path clip-path="url(#pe1e2b2396d)" d="M 64.92 42.8912 
L 56.82 42.8912 
L 48.72 42.8912 
" style="fill:none;stroke:#000000;stroke-linecap:round;stroke-width:1.5;"/>
   </g>
   <g id="line2d_12">
    <path clip-path="url(#pe1e2b2396d)" d="M 48.72 42.8912 
" style="fill:none;stroke:#000000;stroke-linecap:round;stroke-width:1.5;"/>
   </g>
   <g id="line2d_13">
    <path clip-path="url(#pe1e2b2396d)" d="M 48.72 42.8912 
L 40.62 42.8912 
L 32.52 42.8912 
" style="fill:none;stroke:#000000;stroke-linecap:round;stroke-width:1.5;"/>
   </g>
   <g id="line2d_14">
    <path clip-path="url(#pe1e2b2396d)" d="M 131.34 35.2412 
L 139.44 35.2412 
L 147.54 35.2412 
" style="fill:none;stroke:#000000;stroke-linecap:round;stroke-width:1.5;"/>
   </g>
   <g id="line2d_15">
    <path clip-path="url(#pe1e2b2396d)" d="M 147.54 42.8912 
M 202.62 42.8912 
L 213.96 42.8912 
" style="fill:none;stroke:#000000;stroke-linecap:round;stroke-width:1.5;"/>
   </g>
   <g id="line2d_16">
    <path clip-path="url(#pe1e2b2396d)" d="M 163.74 57.8852 
L 179.94 57.8852 
L 180.402857 57.878955 
L 180.865714 57.86022 
L 181.328571 57.828996 
L 181.791429 57.785282 
L 182.254286 57.729078 
L 182.717143 57.660384 
L 183.18 57.5792 
L 183.642857 57.485527 
L 184.105714 57.379363 
L 184.568571 57.26071 
L 185.031429 57.129567 
L 185.494286 56.985935 
L 185.957143 56.829812 
L 186.42 56.6612 
L 186.882857 56.480098 
L 187.345714 56.286506 
L 187.808571 56.080424 
L 188.271429 55.861853 
L 188.734286 55.630792 
L 189.197143 55.387241 
L 189.66 55.1312 
L 190.122857 54.862669 
L 190.585714 54.581649 
L 191.048571 54.288139 
L 191.511429 53.982139 
L 191.974286 53.663649 
L 192.437143 53.332669 
L 192.9 52.9892 
L 193.362857 52.633241 
L 193.825714 52.264792 
L 194.288571 51.883853 
L 194.751429 51.490424 
L 195.214286 51.084506 
L 195.677143 50.666098 
L 196.14 50.2352 
L 196.602857 49.791812 
L 197.065714 49.335935 
L 197.528571 48.867567 
L 197.991429 48.38671 
L 198.454286 47.893363 
L 198.917143 47.387527 
L 199.38 46.8692 
L 199.842857 46.338384 
L 200.305714 45.795078 
L 200.768571 45.239282 
L 201.231429 44.670996 
L 201.694286 44.09022 
L 202.157143 43.496955 
L 202.62 42.8912 
" style="fill:none;stroke:#000000;stroke-linecap:round;stroke-width:1.5;"/>
   </g>
   <g id="line2d_17">
    <path clip-path="url(#pe1e2b2396d)" d="M 163.74 27.8972 
L 179.94 27.8972 
L 180.402857 27.903445 
L 180.865714 27.92218 
L 181.328571 27.953404 
L 181.791429 27.997118 
L 182.254286 28.053322 
L 182.717143 28.122016 
L 183.18 28.2032 
L 183.642857 28.296873 
L 184.105714 28.403037 
L 184.568571 28.52169 
L 185.031429 28.652833 
L 185.494286 28.796465 
L 185.957143 28.952588 
L 186.42 29.1212 
L 186.882857 29.302302 
L 187.345714 29.495894 
L 187.808571 29.701976 
L 188.271429 29.920547 
L 188.734286 30.151608 
L 189.197143 30.395159 
L 189.66 30.6512 
L 190.122857 30.919731 
L 190.585714 31.200751 
L 191.048571 31.494261 
L 191.511429 31.800261 
L 191.974286 32.118751 
L 192.437143 32.449731 
L 192.9 32.7932 
L 193.362857 33.149159 
L 193.825714 33.517608 
L 194.288571 33.898547 
L 194.751429 34.291976 
L 195.214286 34.697894 
L 195.677143 35.116302 
L 196.14 35.5472 
L 196.602857 35.990588 
L 197.065714 36.446465 
L 197.528571 36.914833 
L 197.991429 37.39569 
L 198.454286 37.889037 
L 198.917143 38.394873 
L 199.38 38.9132 
L 199.842857 39.444016 
L 200.305714 39.987322 
L 200.768571 40.543118 
L 201.231429 41.111404 
L 201.694286 41.69218 
L 202.157143 42.285445 
L 202.62 42.8912 
" style="fill:none;stroke:#000000;stroke-linecap:round;stroke-width:1.5;"/>
   </g>
   <g id="line2d_18">
    <path clip-path="url(#pe1e2b2396d)" d="M 158.88 57.8852 
L 159.50208 57.2732 
L 160.09824 56.6612 
L 160.66848 56.0492 
L 161.2128 55.4372 
L 161.7312 54.8252 
L 162.22368 54.2132 
L 162.69024 53.6012 
L 163.13088 52.9892 
L 163.5456 52.3772 
L 163.9344 51.7652 
L 164.29728 51.1532 
L 164.63424 50.5412 
L 164.94528 49.9292 
L 165.2304 49.3172 
L 165.4896 48.7052 
L 165.72288 48.0932 
L 165.93024 47.4812 
L 166.11168 46.8692 
L 166.2672 46.2572 
L 166.3968 45.6452 
L 166.50048 45.0332 
L 166.57824 44.4212 
L 166.63008 43.8092 
L 166.656 43.1972 
L 166.656 42.5852 
L 166.63008 41.9732 
L 166.57824 41.3612 
L 166.50048 40.7492 
L 166.3968 40.1372 
L 166.2672 39.5252 
L 166.11168 38.9132 
L 165.93024 38.3012 
L 165.72288 37.6892 
L 165.4896 37.0772 
L 165.2304 36.4652 
L 164.94528 35.8532 
L 164.63424 35.2412 
L 164.29728 34.6292 
L 163.9344 34.0172 
L 163.5456 33.4052 
L 163.13088 32.7932 
L 162.69024 32.1812 
L 162.22368 31.5692 
L 161.7312 30.9572 
L 161.2128 30.3452 
L 160.66848 29.7332 
L 160.09824 29.1212 
L 159.50208 28.5092 
L 158.88 27.8972 
" style="fill:none;stroke:#000000;stroke-linecap:round;stroke-width:1.5;"/>
   </g>
   <g id="line2d_19">
    <path clip-path="url(#pe1e2b2396d)" d="M 163.74 57.8852 
L 164.36208 57.2732 
L 164.95824 56.6612 
L 165.52848 56.0492 
L 166.0728 55.4372 
L 166.5912 54.8252 
L 167.08368 54.2132 
L 167.55024 53.6012 
L 167.99088 52.9892 
L 168.4056 52.3772 
L 168.7944 51.7652 
L 169.15728 51.1532 
L 169.49424 50.5412 
L 169.80528 49.9292 
L 170.0904 49.3172 
L 170.3496 48.7052 
L 170.58288 48.0932 
L 170.79024 47.4812 
L 170.97168 46.8692 
L 171.1272 46.2572 
L 171.2568 45.6452 
L 171.36048 45.0332 
L 171.43824 44.4212 
L 171.49008 43.8092 
L 171.516 43.1972 
L 171.516 42.5852 
L 171.49008 41.9732 
L 171.43824 41.3612 
L 171.36048 40.7492 
L 171.2568 40.1372 
L 171.1272 39.5252 
L 170.97168 38.9132 
L 170.79024 38.3012 
L 170.58288 37.6892 
L 170.3496 37.0772 
L 170.0904 36.4652 
L 169.80528 35.8532 
L 169.49424 35.2412 
L 169.15728 34.6292 
L 168.7944 34.0172 
L 168.4056 33.4052 
L 167.99088 32.7932 
L 167.55024 32.1812 
L 167.08368 31.5692 
L 166.5912 30.9572 
L 166.0728 30.3452 
L 165.52848 29.7332 
L 164.95824 29.1212 
L 164.36208 28.5092 
L 163.74 27.8972 
" style="fill:none;stroke:#000000;stroke-linecap:round;stroke-width:1.5;"/>
   </g>
   <g id="line2d_20">
    <path clip-path="url(#pe1e2b2396d)" d="M 147.54 50.5412 
L 164.63424 50.5412 
" style="fill:none;stroke:#000000;stroke-linecap:round;stroke-width:1.5;"/>
   </g>
   <g id="line2d_21">
    <path clip-path="url(#pe1e2b2396d)" d="M 147.54 35.2412 
L 164.63424 35.2412 
" style="fill:none;stroke:#000000;stroke-linecap:round;stroke-width:1.5;"/>
   </g>
   <g id="line2d_22">
    <path clip-path="url(#pe1e2b2396d)" d="M 147.54 50.5412 
L 147.54 65.8412 
L 147.54 81.1412 
" style="fill:none;stroke:#000000;stroke-linecap:round;stroke-width:1.5;"/>
   </g>
   <g id="line2d_23">
    <path clip-path="url(#pe1e2b2396d)" d="M 147.54 65.8412 
" style="fill:none;stroke:#000000;stroke-linecap:round;stroke-width:1.5;"/>
   </g>
   <g id="line2d_24">
    <path clip-path="url(#pe1e2b2396d)" d="M 147.54 65.8412 
L 90.03 65.8412 
L 32.52 65.8412 
" style="fill:none;stroke:#000000;stroke-linecap:round;stroke-width:1.5;"/>
   </g>
   <g id="line2d_25">
    <path clip-path="url(#pe1e2b2396d)" d="M 147.54 88.7912 
M 196.14 88.7912 
L 207.48 88.7912 
" style="fill:none;stroke:#000000;stroke-linecap:round;stroke-width:1.5;"/>
   </g>
   <g id="line2d_26">
    <path clip-path="url(#pe1e2b2396d)" d="M 158.88 88.7912 
L 158.88 104.0912 
L 179.94 104.0912 
" style="fill:none;stroke:#000000;stroke-linecap:round;stroke-width:1.5;"/>
   </g>
   <g id="line2d_27">
    <path clip-path="url(#pe1e2b2396d)" d="M 158.88 88.7912 
L 158.88 73.4912 
L 179.94 73.4912 
" style="fill:none;stroke:#000000;stroke-linecap:round;stroke-width:1.5;"/>
   </g>
   <g id="line2d_28">
    <path clip-path="url(#pe1e2b2396d)" d="M 147.54 96.4412 
L 158.88 96.4412 
" style="fill:none;stroke:#000000;stroke-linecap:round;stroke-width:1.5;"/>
   </g>
   <g id="line2d_29">
    <path clip-path="url(#pe1e2b2396d)" d="M 147.54 81.1412 
L 158.88 81.1412 
" style="fill:none;stroke:#000000;stroke-linecap:round;stroke-width:1.5;"/>
   </g>
   <g id="line2d_30">
    <path clip-path="url(#pe1e2b2396d)" d="M 147.54 96.4412 
L 139.44 96.4412 
L 131.34 96.4412 
" style="fill:none;stroke:#000000;stroke-linecap:round;stroke-width:1.5;"/>
   </g>
   <g id="line2d_31">
    <path clip-path="url(#pe1e2b2396d)" d="M 131.34 96.4412 
L 131.34 65.8412 
L 131.34 35.2412 
" style="fill:none;stroke:#000000;stroke-linecap:round;stroke-width:1.5;"/>
   </g>
   <g id="line2d_32">
    <path clip-path="url(#pe1e2b2396d)" d="M 147.54 134.6912 
M 196.14 134.6912 
L 207.48 134.6912 
" style="fill:none;stroke:#000000;stroke-linecap:round;stroke-width:1.5;"/>
   </g>
   <g id="line2d_33">
    <path clip-path="url(#pe1e2b2396d)" d="M 158.88 134.6912 
L 158.88 149.9912 
L 179.94 149.9912 
" style="fill:none;stroke:#000000;stroke-linecap:round;stroke-width:1.5;"/>
   </g>
   <g id="line2d_34">
    <path clip-path="url(#pe1e2b2396d)" d="M 158.88 134.6912 
L 158.88 119.3912 
L 179.94 119.3912 
" style="fill:none;stroke:#000000;stroke-linecap:round;stroke-width:1.5;"/>
   </g>
   <g id="line2d_35">
    <path clip-path="url(#pe1e2b2396d)" d="M 147.54 142.3412 
L 158.88 142.3412 
" style="fill:none;stroke:#000000;stroke-linecap:round;stroke-width:1.5;"/>
   </g>
   <g id="line2d_36">
    <path clip-path="url(#pe1e2b2396d)" d="M 147.54 127.0412 
L 158.88 127.0412 
" style="fill:none;stroke:#000000;stroke-linecap:round;stroke-width:1.5;"/>
   </g>
   <g id="line2d_37">
    <path clip-path="url(#pe1e2b2396d)" d="M 147.54 127.0412 
L 106.23 127.0412 
L 64.92 127.0412 
" style="fill:none;stroke:#000000;stroke-linecap:round;stroke-width:1.5;"/>
   </g>
   <g id="line2d_38">
    <path clip-path="url(#pe1e2b2396d)" d="M 64.92 127.0412 
L 64.92 77.3162 
L 64.92 27.5912 
" style="fill:none;stroke:#000000;stroke-linecap:round;stroke-width:1.5;"/>
   </g>
   <g id="line2d_39">
    <path clip-path="url(#pe1e2b2396d)" d="M 147.54 142.3412 
L 98.13 142.3412 
L 48.72 142.3412 
" style="fill:none;stroke:#000000;stroke-linecap:round;stroke-width:1.5;"/>
   </g>
   <g id="line2d_40">
    <path clip-path="url(#pe1e2b2396d)" d="M 48.72 142.3412 
L 48.72 92.6162 
L 48.72 42.8912 
" style="fill:none;stroke:#000000;stroke-linecap:round;stroke-width:1.5;"/>
   </g>
   <g id="line2d_41">
    <path clip-path="url(#pe1e2b2396d)" d="M 207.48 111.7412 
M 257.7 111.7412 
L 269.04 111.7412 
" style="fill:none;stroke:#000000;stroke-linecap:round;stroke-width:1.5;"/>
   </g>
   <g id="line2d_42">
    <path clip-path="url(#pe1e2b2396d)" d="M 218.82 126.7352 
L 235.02 126.7352 
L 235.482857 126.728955 
L 235.945714 126.71022 
L 236.408571 126.678996 
L 236.871429 126.635282 
L 237.334286 126.579078 
L 237.797143 126.510384 
L 238.26 126.4292 
L 238.722857 126.335527 
L 239.185714 126.229363 
L 239.648571 126.11071 
L 240.111429 125.979567 
L 240.574286 125.835935 
L 241.037143 125.679812 
L 241.5 125.5112 
L 241.962857 125.330098 
L 242.425714 125.136506 
L 242.888571 124.930424 
L 243.351429 124.711853 
L 243.814286 124.480792 
L 244.277143 124.237241 
L 244.74 123.9812 
L 245.202857 123.712669 
L 245.665714 123.431649 
L 246.128571 123.138139 
L 246.591429 122.832139 
L 247.054286 122.513649 
L 247.517143 122.182669 
L 247.98 121.8392 
L 248.442857 121.483241 
L 248.905714 121.114792 
L 249.368571 120.733853 
L 249.831429 120.340424 
L 250.294286 119.934506 
L 250.757143 119.516098 
L 251.22 119.0852 
L 251.682857 118.641812 
L 252.145714 118.185935 
L 252.608571 117.717567 
L 253.071429 117.23671 
L 253.534286 116.743363 
L 253.997143 116.237527 
L 254.46 115.7192 
L 254.922857 115.188384 
L 255.385714 114.645078 
L 255.848571 114.089282 
L 256.311429 113.520996 
L 256.774286 112.94022 
L 257.237143 112.346955 
L 257.7 111.7412 
" style="fill:none;stroke:#000000;stroke-linecap:round;stroke-width:1.5;"/>
   </g>
   <g id="line2d_43">
    <path clip-path="url(#pe1e2b2396d)" d="M 218.82 96.7472 
L 235.02 96.7472 
L 235.482857 96.753445 
L 235.945714 96.77218 
L 236.408571 96.803404 
L 236.871429 96.847118 
L 237.334286 96.903322 
L 237.797143 96.972016 
L 238.26 97.0532 
L 238.722857 97.146873 
L 239.185714 97.253037 
L 239.648571 97.37169 
L 240.111429 97.502833 
L 240.574286 97.646465 
L 241.037143 97.802588 
L 241.5 97.9712 
L 241.962857 98.152302 
L 242.425714 98.345894 
L 242.888571 98.551976 
L 243.351429 98.770547 
L 243.814286 99.001608 
L 244.277143 99.245159 
L 244.74 99.5012 
L 245.202857 99.769731 
L 245.665714 100.050751 
L 246.128571 100.344261 
L 246.591429 100.650261 
L 247.054286 100.968751 
L 247.517143 101.299731 
L 247.98 101.6432 
L 248.442857 101.999159 
L 248.905714 102.367608 
L 249.368571 102.748547 
L 249.831429 103.141976 
L 250.294286 103.547894 
L 250.757143 103.966302 
L 251.22 104.3972 
L 251.682857 104.840588 
L 252.145714 105.296465 
L 252.608571 105.764833 
L 253.071429 106.24569 
L 253.534286 106.739037 
L 253.997143 107.244873 
L 254.46 107.7632 
L 254.922857 108.294016 
L 255.385714 108.837322 
L 255.848571 109.393118 
L 256.311429 109.961404 
L 256.774286 110.54218 
L 257.237143 111.135445 
L 257.7 111.7412 
" style="fill:none;stroke:#000000;stroke-linecap:round;stroke-width:1.5;"/>
   </g>
   <g id="line2d_44">
    <path clip-path="url(#pe1e2b2396d)" d="M 218.82 126.7352 
L 219.44208 126.1232 
L 220.03824 125.5112 
L 220.60848 124.8992 
L 221.1528 124.2872 
L 221.6712 123.6752 
L 222.16368 123.0632 
L 222.63024 122.4512 
L 223.07088 121.8392 
L 223.4856 121.2272 
L 223.8744 120.6152 
L 224.23728 120.0032 
L 224.57424 119.3912 
L 224.88528 118.7792 
L 225.1704 118.1672 
L 225.4296 117.5552 
L 225.66288 116.9432 
L 225.87024 116.3312 
L 226.05168 115.7192 
L 226.2072 115.1072 
L 226.3368 114.4952 
L 226.44048 113.8832 
L 226.51824 113.2712 
L 226.57008 112.6592 
L 226.596 112.0472 
L 226.596 111.4352 
L 226.57008 110.8232 
L 226.51824 110.2112 
L 226.44048 109.5992 
L 226.3368 108.9872 
L 226.2072 108.3752 
L 226.05168 107.7632 
L 225.87024 107.1512 
L 225.66288 106.5392 
L 225.4296 105.9272 
L 225.1704 105.3152 
L 224.88528 104.7032 
L 224.57424 104.0912 
L 224.23728 103.4792 
L 223.8744 102.8672 
L 223.4856 102.2552 
L 223.07088 101.6432 
L 222.63024 101.0312 
L 222.16368 100.4192 
L 221.6712 99.8072 
L 221.1528 99.1952 
L 220.60848 98.5832 
L 220.03824 97.9712 
L 219.44208 97.3592 
L 218.82 96.7472 
" style="fill:none;stroke:#000000;stroke-linecap:round;stroke-width:1.5;"/>
   </g>
   <g id="line2d_45">
    <path clip-path="url(#pe1e2b2396d)" d="M 207.48 119.3912 
L 224.57424 119.3912 
" style="fill:none;stroke:#000000;stroke-linecap:round;stroke-width:1.5;"/>
   </g>
   <g id="line2d_46">
    <path clip-path="url(#pe1e2b2396d)" d="M 207.48 104.0912 
L 224.57424 104.0912 
" style="fill:none;stroke:#000000;stroke-linecap:round;stroke-width:1.5;"/>
   </g>
   <g id="line2d_47">
    <path clip-path="url(#pe1e2b2396d)" d="M 207.48 88.7912 
L 207.48 96.4412 
L 207.48 104.0912 
" style="fill:none;stroke:#000000;stroke-linecap:round;stroke-width:1.5;"/>
   </g>
   <g id="line2d_48">
    <path clip-path="url(#pe1e2b2396d)" d="M 207.48 134.6912 
L 207.48 127.0412 
L 207.48 119.3912 
" style="fill:none;stroke:#000000;stroke-linecap:round;stroke-width:1.5;"/>
   </g>
   <g id="line2d_49">
    <path clip-path="url(#pe1e2b2396d)" d="M 213.96 42.8912 
L 241.5 42.8912 
L 269.04 42.8912 
" style="fill:none;stroke:#000000;stroke-linecap:round;stroke-width:1.5;"/>
   </g>
   <g id="patch_4">
    <path clip-path="url(#pe1e2b2396d)" d="M 131.34 37.5362 
C 131.984444 37.5362 132.602579 37.294384 133.058269 36.86401 
C 133.51396 36.433636 133.77 35.849841 133.77 35.2412 
C 133.77 34.632559 133.51396 34.048764 133.058269 33.61839 
C 132.602579 33.188016 131.984444 32.9462 131.34 32.9462 
C 130.695556 32.9462 130.077421 33.188016 129.621731 33.61839 
C 129.16604 34.048764 128.91 34.632559 128.91 35.2412 
C 128.91 35.849841 129.16604 36.433636 129.621731 36.86401 
C 130.077421 37.294384 130.695556 37.5362 131.34 37.5362 
z
" style="stroke:#000000;stroke-linejoin:miter;stroke-width:1.5;"/>
   </g>
   <g id="patch_5">
    <path clip-path="url(#pe1e2b2396d)" d="M 64.92 29.8862 
C 65.564444 29.8862 66.182579 29.644384 66.638269 29.21401 
C 67.09396 28.783636 67.35 28.199841 67.35 27.5912 
C 67.35 26.982559 67.09396 26.398764 66.638269 25.96839 
C 66.182579 25.538016 65.564444 25.2962 64.92 25.2962 
C 64.275556 25.2962 63.657421 25.538016 63.201731 25.96839 
C 62.74604 26.398764 62.49 26.982559 62.49 27.5912 
C 62.49 28.199841 62.74604 28.783636 63.201731 29.21401 
C 63.657421 29.644384 64.275556 29.8862 64.92 29.8862 
z
" style="stroke:#000000;stroke-linejoin:miter;stroke-width:1.5;"/>
   </g>
   <g id="patch_6">
    <path clip-path="url(#pe1e2b2396d)" d="M 48.72 45.1862 
C 49.364444 45.1862 49.982579 44.944384 50.438269 44.51401 
C 50.89396 44.083636 51.15 43.499841 51.15 42.8912 
C 51.15 42.282559 50.89396 41.698764 50.438269 41.26839 
C 49.982579 40.838016 49.364444 40.5962 48.72 40.5962 
C 48.075556 40.5962 47.457421 40.838016 47.001731 41.26839 
C 46.54604 41.698764 46.29 42.282559 46.29 42.8912 
C 46.29 43.499841 46.54604 44.083636 47.001731 44.51401 
C 47.457421 44.944384 48.075556 45.1862 48.72 45.1862 
z
" style="stroke:#000000;stroke-linejoin:miter;stroke-width:1.5;"/>
   </g>
   <g id="patch_7">
    <path clip-path="url(#pe1e2b2396d)" d="M 147.54 68.1362 
C 148.184444 68.1362 148.802579 67.894384 149.258269 67.46401 
C 149.71396 67.033636 149.97 66.449841 149.97 65.8412 
C 149.97 65.232559 149.71396 64.648764 149.258269 64.21839 
C 148.802579 63.788016 148.184444 63.5462 147.54 63.5462 
C 146.895556 63.5462 146.277421 63.788016 145.821731 64.21839 
C 145.36604 64.648764 145.11 65.232559 145.11 65.8412 
C 145.11 66.449841 145.36604 67.033636 145.821731 67.46401 
C 146.277421 67.894384 146.895556 68.1362 147.54 68.1362 
z
" style="stroke:#000000;stroke-linejoin:miter;stroke-width:1.5;"/>
   </g>
   <g id="text_1">
    <!-- $A$ -->
    <defs>
     <path d="M 34.1875 63.1875 
L 20.796875 26.90625 
L 47.609375 26.90625 
z
M 28.609375 72.90625 
L 39.796875 72.90625 
L 67.578125 0 
L 57.328125 0 
L 50.6875 18.703125 
L 17.828125 18.703125 
L 11.1875 0 
L 0.78125 0 
z
" id="DejaVuSans-41"/>
    </defs>
    <g transform="translate(18.24 32.0062)scale(0.16 -0.16)">
     <use transform="translate(0 0.09375)" xlink:href="#DejaVuSans-41"/>
    </g>
   </g>
   <g id="text_2">
    <!-- $B$ -->
    <defs>
     <path d="M 19.671875 34.8125 
L 19.671875 8.109375 
L 35.5 8.109375 
Q 43.453125 8.109375 47.28125 11.40625 
Q 51.125 14.703125 51.125 21.484375 
Q 51.125 28.328125 47.28125 31.5625 
Q 43.453125 34.8125 35.5 34.8125 
z
M 19.671875 64.796875 
L 19.671875 42.828125 
L 34.28125 42.828125 
Q 41.5 42.828125 45.03125 45.53125 
Q 48.578125 48.25 48.578125 53.8125 
Q 48.578125 59.328125 45.03125 62.0625 
Q 41.5 64.796875 34.28125 64.796875 
z
M 9.8125 72.90625 
L 35.015625 72.90625 
Q 46.296875 72.90625 52.390625 68.21875 
Q 58.5 63.53125 58.5 54.890625 
Q 58.5 48.1875 55.375 44.234375 
Q 52.25 40.28125 46.1875 39.3125 
Q 53.46875 37.75 57.5 32.78125 
Q 61.53125 27.828125 61.53125 20.40625 
Q 61.53125 10.640625 54.890625 5.3125 
Q 48.25 0 35.984375 0 
L 9.8125 0 
z
" id="DejaVuSans-42"/>
    </defs>
    <g transform="translate(18.24 47.3062)scale(0.16 -0.16)">
     <use transform="translate(0 0.09375)" xlink:href="#DejaVuSans-42"/>
    </g>
   </g>
   <g id="text_3">
    <!-- $C_{in}$ -->
    <defs>
     <path d="M 64.40625 67.28125 
L 64.40625 56.890625 
Q 59.421875 61.53125 53.78125 63.8125 
Q 48.140625 66.109375 41.796875 66.109375 
Q 29.296875 66.109375 22.65625 58.46875 
Q 16.015625 50.828125 16.015625 36.375 
Q 16.015625 21.96875 22.65625 14.328125 
Q 29.296875 6.6875 41.796875 6.6875 
Q 48.140625 6.6875 53.78125 8.984375 
Q 59.421875 11.28125 64.40625 15.921875 
L 64.40625 5.609375 
Q 59.234375 2.09375 53.4375 0.328125 
Q 47.65625 -1.421875 41.21875 -1.421875 
Q 24.65625 -1.421875 15.125 8.703125 
Q 5.609375 18.84375 5.609375 36.375 
Q 5.609375 53.953125 15.125 64.078125 
Q 24.65625 74.21875 41.21875 74.21875 
Q 47.75 74.21875 53.53125 72.484375 
Q 59.328125 70.75 64.40625 67.28125 
z
" id="DejaVuSans-43"/>
     <path d="M 9.421875 54.6875 
L 18.40625 54.6875 
L 18.40625 0 
L 9.421875 0 
z
M 9.421875 75.984375 
L 18.40625 75.984375 
L 18.40625 64.59375 
L 9.421875 64.59375 
z
" id="DejaVuSans-69"/>
     <path d="M 54.890625 33.015625 
L 54.890625 0 
L 45.90625 0 
L 45.90625 32.71875 
Q 45.90625 40.484375 42.875 44.328125 
Q 39.84375 48.1875 33.796875 48.1875 
Q 26.515625 48.1875 22.3125 43.546875 
Q 18.109375 38.921875 18.109375 30.90625 
L 18.109375 0 
L 9.078125 0 
L 9.078125 54.6875 
L 18.109375 54.6875 
L 18.109375 46.1875 
Q 21.34375 51.125 25.703125 53.5625 
Q 30.078125 56 35.796875 56 
Q 45.21875 56 50.046875 50.171875 
Q 54.890625 44.34375 54.890625 33.015625 
z
" id="DejaVuSans-6e"/>
    </defs>
    <g transform="translate(7.2 70.2562)scale(0.16 -0.16)">
     <use transform="translate(0 0.78125)" xlink:href="#DejaVuSans-43"/>
     <use transform="translate(70.78125 -15.625)scale(0.7)" xlink:href="#DejaVuSans-69"/>
     <use transform="translate(90.229492 -15.625)scale(0.7)" xlink:href="#DejaVuSans-6e"/>
    </g>
   </g>
   <g id="text_4">
    <!-- $C_{out}$ -->
    <defs>
     <path d="M 30.609375 48.390625 
Q 23.390625 48.390625 19.1875 42.75 
Q 14.984375 37.109375 14.984375 27.296875 
Q 14.984375 17.484375 19.15625 11.84375 
Q 23.34375 6.203125 30.609375 6.203125 
Q 37.796875 6.203125 41.984375 11.859375 
Q 46.1875 17.53125 46.1875 27.296875 
Q 46.1875 37.015625 41.984375 42.703125 
Q 37.796875 48.390625 30.609375 48.390625 
z
M 30.609375 56 
Q 42.328125 56 49.015625 48.375 
Q 55.71875 40.765625 55.71875 27.296875 
Q 55.71875 13.875 49.015625 6.21875 
Q 42.328125 -1.421875 30.609375 -1.421875 
Q 18.84375 -1.421875 12.171875 6.21875 
Q 5.515625 13.875 5.515625 27.296875 
Q 5.515625 40.765625 12.171875 48.375 
Q 18.84375 56 30.609375 56 
z
" id="DejaVuSans-6f"/>
     <path d="M 8.5 21.578125 
L 8.5 54.6875 
L 17.484375 54.6875 
L 17.484375 21.921875 
Q 17.484375 14.15625 20.5 10.265625 
Q 23.53125 6.390625 29.59375 6.390625 
Q 36.859375 6.390625 41.078125 11.03125 
Q 45.3125 15.671875 45.3125 23.6875 
L 45.3125 54.6875 
L 54.296875 54.6875 
L 54.296875 0 
L 45.3125 0 
L 45.3125 8.40625 
Q 42.046875 3.421875 37.71875 1 
Q 33.40625 -1.421875 27.6875 -1.421875 
Q 18.265625 -1.421875 13.375 4.4375 
Q 8.5 10.296875 8.5 21.578125 
z
M 31.109375 56 
z
" id="DejaVuSans-75"/>
     <path d="M 18.3125 70.21875 
L 18.3125 54.6875 
L 36.8125 54.6875 
L 36.8125 47.703125 
L 18.3125 47.703125 
L 18.3125 18.015625 
Q 18.3125 11.328125 20.140625 9.421875 
Q 21.96875 7.515625 27.59375 7.515625 
L 36.8125 7.515625 
L 36.8125 0 
L 27.59375 0 
Q 17.1875 0 13.234375 3.875 
Q 9.28125 7.765625 9.28125 18.015625 
L 9.28125 47.703125 
L 2.6875 47.703125 
L 2.6875 54.6875 
L 9.28125 54.6875 
L 9.28125 70.21875 
z
" id="DejaVuSans-74"/>
    </defs>
    <g transform="translate(272.28 116.1562)scale(0.16 -0.16)">
     <use transform="translate(0 0.78125)" xlink:href="#DejaVuSans-43"/>
     <use transform="translate(70.78125 -15.625)scale(0.7)" xlink:href="#DejaVuSans-6f"/>
     <use transform="translate(113.608398 -15.625)scale(0.7)" xlink:href="#DejaVuSans-75"/>
     <use transform="translate(157.973633 -15.625)scale(0.7)" xlink:href="#DejaVuSans-74"/>
    </g>
   </g>
   <g id="text_5">
    <!-- $S$ -->
    <defs>
     <path d="M 53.515625 70.515625 
L 53.515625 60.890625 
Q 47.90625 63.578125 42.921875 64.890625 
Q 37.9375 66.21875 33.296875 66.21875 
Q 25.25 66.21875 20.875 63.09375 
Q 16.5 59.96875 16.5 54.203125 
Q 16.5 49.359375 19.40625 46.890625 
Q 22.3125 44.4375 30.421875 42.921875 
L 36.375 41.703125 
Q 47.40625 39.59375 52.65625 34.296875 
Q 57.90625 29 57.90625 20.125 
Q 57.90625 9.515625 50.796875 4.046875 
Q 43.703125 -1.421875 29.984375 -1.421875 
Q 24.8125 -1.421875 18.96875 -0.25 
Q 13.140625 0.921875 6.890625 3.21875 
L 6.890625 13.375 
Q 12.890625 10.015625 18.65625 8.296875 
Q 24.421875 6.59375 29.984375 6.59375 
Q 38.421875 6.59375 43.015625 9.90625 
Q 47.609375 13.234375 47.609375 19.390625 
Q 47.609375 24.75 44.3125 27.78125 
Q 41.015625 30.8125 33.5 32.328125 
L 27.484375 33.5 
Q 16.453125 35.6875 11.515625 40.375 
Q 6.59375 45.0625 6.59375 53.421875 
Q 6.59375 63.09375 13.40625 68.65625 
Q 20.21875 74.21875 32.171875 74.21875 
Q 37.3125 74.21875 42.625 73.28125 
Q 47.953125 72.359375 53.515625 70.515625 
z
" id="DejaVuSans-53"/>
    </defs>
    <g transform="translate(272.28 47.3062)scale(0.16 -0.16)">
     <use transform="translate(0 0.78125)" xlink:href="#DejaVuSans-53"/>
    </g>
   </g>
  </g>
 </g>
 <defs>
  <clipPath id="pe1e2b2396d">
   <rect height="148.8384" width="266.652" x="17.454" y="10.7"/>
  </clipPath>
 </defs>
</svg>
