<?xml version="1.0" encoding="utf-8" standalone="no"?>
<!DOCTYPE svg PUBLIC "-//W3C//DTD SVG 1.1//EN"
  "http://www.w3.org/Graphics/SVG/1.1/DTD/svg11.dtd">
<!-- Created with matplotlib (https://matplotlib.org/) -->
<svg height="150.1056pt" version="1.1" viewBox="0 0 303.18 150.1056" width="303.18pt" xmlns="http://www.w3.org/2000/svg" xmlns:xlink="http://www.w3.org/1999/xlink">
 <defs>
  <style type="text/css">
*{stroke-linecap:butt;stroke-linejoin:round;white-space:pre;}
  </style>
 </defs>
 <g id="figure_1">
  <g id="patch_1">
   <path d="M 0 150.1056 
L 303.18 150.1056 
L 303.18 0 
L 0 0 
z
" style="fill:none;"/>
  </g>
  <g id="axes_1">
   <g id="patch_2">
    <path clip-path="url(#p96cfae69e3)" d="M 128.58 31.6683 
C 129.224444 31.6683 129.842579 31.447821 130.298269 31.055421 
C 130.75396 30.663021 131.01 30.130737 131.01 29.5758 
C 131.01 29.020863 130.75396 28.488579 130.298269 28.096179 
C 129.842579 27.703779 129.224444 27.4833 128.58 27.4833 
C 127.935556 27.4833 127.317421 27.703779 126.861731 28.096179 
C 126.40604 28.488579 126.15 29.020863 126.15 29.5758 
C 126.15 30.130737 126.40604 30.663021 126.861731 31.055421 
C 127.317421 31.447821 127.935556 31.6683 128.58 31.6683 
z
" style="stroke:#000000;stroke-linejoin:miter;stroke-width:2;"/>
   </g>
   <g id="patch_3">
    <path clip-path="url(#p96cfae69e3)" d="M 62.16 24.6933 
C 62.804444 24.6933 63.422579 24.472821 63.878269 24.080421 
C 64.33396 23.688021 64.59 23.155737 64.59 22.6008 
C 64.59 22.045863 64.33396 21.513579 63.878269 21.121179 
C 63.422579 20.728779 62.804444 20.5083 62.16 20.5083 
C 61.515556 20.5083 60.897421 20.728779 60.441731 21.121179 
C 59.98604 21.513579 59.73 22.045863 59.73 22.6008 
C 59.73 23.155737 59.98604 23.688021 60.441731 24.080421 
C 60.897421 24.472821 61.515556 24.6933 62.16 24.6933 
z
" style="stroke:#000000;stroke-linejoin:miter;stroke-width:2;"/>
   </g>
   <g id="patch_4">
    <path clip-path="url(#p96cfae69e3)" d="M 45.96 38.6433 
C 46.604444 38.6433 47.222579 38.422821 47.678269 38.030421 
C 48.13396 37.638021 48.39 37.105737 48.39 36.5508 
C 48.39 35.995863 48.13396 35.463579 47.678269 35.071179 
C 47.222579 34.678779 46.604444 34.4583 45.96 34.4583 
C 45.315556 34.4583 44.697421 34.678779 44.241731 35.071179 
C 43.78604 35.463579 43.53 35.995863 43.53 36.5508 
C 43.53 37.105737 43.78604 37.638021 44.241731 38.030421 
C 44.697421 38.422821 45.315556 38.6433 45.96 38.6433 
z
" style="stroke:#000000;stroke-linejoin:miter;stroke-width:2;"/>
   </g>
   <g id="patch_5">
    <path clip-path="url(#p96cfae69e3)" d="M 144.78 59.5683 
C 145.424444 59.5683 146.042579 59.347821 146.498269 58.955421 
C 146.95396 58.563021 147.21 58.030737 147.21 57.4758 
C 147.21 56.920863 146.95396 56.388579 146.498269 55.996179 
C 146.042579 55.603779 145.424444 55.3833 144.78 55.3833 
C 144.135556 55.3833 143.517421 55.603779 143.061731 55.996179 
C 142.60604 56.388579 142.35 56.920863 142.35 57.4758 
C 142.35 58.030737 142.60604 58.563021 143.061731 58.955421 
C 143.517421 59.347821 144.135556 59.5683 144.78 59.5683 
z
" style="stroke:#000000;stroke-linejoin:miter;stroke-width:2;"/>
   </g>
   <g id="line2d_1">
    <path clip-path="url(#p96cfae69e3)" d="M 78.36 43.2468 
L 96.411429 43.155698 
L 98.262857 42.882392 
L 100.114286 42.426882 
L 102.428571 41.601269 
L 104.742857 40.490963 
L 107.057143 39.095963 
L 109.371429 37.416269 
L 111.685714 35.451882 
L 114 33.2028 
L 116.314286 30.669024 
L 117.24 29.5758 
L 117.24 29.5758 
L 114.462857 26.43278 
L 112.148571 24.126759 
L 109.834286 22.105433 
L 107.52 20.3688 
L 105.205714 18.916861 
L 102.891429 17.749616 
L 100.577143 16.867065 
L 98.262857 16.269208 
L 96.411429 15.995902 
L 94.56 15.9048 
L 78.36 15.9048 
L 78.36 15.9048 
L 80.6928 18.1368 
L 82.17024 19.8108 
L 83.4144 21.4848 
L 84.42528 23.1588 
L 85.20288 24.8328 
L 85.7472 26.5068 
L 86.05824 28.1808 
L 86.136 29.8548 
L 85.98048 31.5288 
L 85.59168 33.2028 
L 84.9696 34.8768 
L 84.11424 36.5508 
L 83.0256 38.2248 
L 81.70368 39.8988 
L 80.14848 41.5728 
L 78.36 43.2468 
L 78.36 43.2468 
" style="fill:none;stroke:#000000;stroke-linecap:round;stroke-width:2;"/>
   </g>
   <g id="line2d_2">
    <path clip-path="url(#p96cfae69e3)" d="M 73.5 43.2468 
L 74.12208 42.6888 
L 74.71824 42.1308 
L 75.28848 41.5728 
L 75.8328 41.0148 
L 76.3512 40.4568 
L 76.84368 39.8988 
L 77.31024 39.3408 
L 77.75088 38.7828 
L 78.1656 38.2248 
L 78.5544 37.6668 
L 78.91728 37.1088 
L 79.25424 36.5508 
L 79.56528 35.9928 
L 79.8504 35.4348 
L 80.1096 34.8768 
L 80.34288 34.3188 
L 80.55024 33.7608 
L 80.73168 33.2028 
L 80.8872 32.6448 
L 81.0168 32.0868 
L 81.12048 31.5288 
L 81.19824 30.9708 
L 81.25008 30.4128 
L 81.276 29.8548 
L 81.276 29.2968 
L 81.25008 28.7388 
L 81.19824 28.1808 
L 81.12048 27.6228 
L 81.0168 27.0648 
L 80.8872 26.5068 
L 80.73168 25.9488 
L 80.55024 25.3908 
L 80.34288 24.8328 
L 80.1096 24.2748 
L 79.8504 23.7168 
L 79.56528 23.1588 
L 79.25424 22.6008 
L 78.91728 22.0428 
L 78.5544 21.4848 
L 78.1656 20.9268 
L 77.75088 20.3688 
L 77.31024 19.8108 
L 76.84368 19.2528 
L 76.3512 18.6948 
L 75.8328 18.1368 
L 75.28848 17.5788 
L 74.71824 17.0208 
L 74.12208 16.4628 
L 73.5 15.9048 
" style="fill:none;stroke:#000000;stroke-linecap:round;stroke-width:2;"/>
   </g>
   <g id="line2d_3">
    <path clip-path="url(#p96cfae69e3)" d="M 62.16 36.5508 
L 79.25424 36.5508 
" style="fill:none;stroke:#000000;stroke-linecap:round;stroke-width:2;"/>
   </g>
   <g id="line2d_4">
    <path clip-path="url(#p96cfae69e3)" d="M 62.16 22.6008 
L 79.25424 22.6008 
" style="fill:none;stroke:#000000;stroke-linecap:round;stroke-width:2;"/>
   </g>
   <g id="line2d_5">
    <path clip-path="url(#p96cfae69e3)" d="M 62.16 29.5758 
M 117.24 29.5758 
L 128.58 29.5758 
" style="fill:none;stroke:#000000;stroke-linecap:round;stroke-width:2;"/>
   </g>
   <g id="line2d_6">
    <path clip-path="url(#p96cfae69e3)" d="M 128.58 29.5758 
" style="fill:none;stroke:#000000;stroke-linecap:round;stroke-width:2;"/>
   </g>
   <g id="line2d_7">
    <path clip-path="url(#p96cfae69e3)" d="M 62.16 22.6008 
" style="fill:none;stroke:#000000;stroke-linecap:round;stroke-width:2;"/>
   </g>
   <g id="line2d_8">
    <path clip-path="url(#p96cfae69e3)" d="M 62.16 22.6008 
L 45.96 22.6008 
L 29.76 22.6008 
" style="fill:none;stroke:#000000;stroke-linecap:round;stroke-width:2;"/>
   </g>
   <g id="line2d_9">
    <path clip-path="url(#p96cfae69e3)" d="M 62.16 36.5508 
L 54.06 36.5508 
L 45.96 36.5508 
" style="fill:none;stroke:#000000;stroke-linecap:round;stroke-width:2;"/>
   </g>
   <g id="line2d_10">
    <path clip-path="url(#p96cfae69e3)" d="M 45.96 36.5508 
" style="fill:none;stroke:#000000;stroke-linecap:round;stroke-width:2;"/>
   </g>
   <g id="line2d_11">
    <path clip-path="url(#p96cfae69e3)" d="M 45.96 36.5508 
L 37.86 36.5508 
L 29.76 36.5508 
" style="fill:none;stroke:#000000;stroke-linecap:round;stroke-width:2;"/>
   </g>
   <g id="line2d_12">
    <path clip-path="url(#p96cfae69e3)" d="M 128.58 29.5758 
L 136.68 29.5758 
L 144.78 29.5758 
" style="fill:none;stroke:#000000;stroke-linecap:round;stroke-width:2;"/>
   </g>
   <g id="line2d_13">
    <path clip-path="url(#p96cfae69e3)" d="M 160.98 50.2218 
L 179.031429 50.130698 
L 180.882857 49.857392 
L 182.734286 49.401882 
L 185.048571 48.576269 
L 187.362857 47.465963 
L 189.677143 46.070963 
L 191.991429 44.391269 
L 194.305714 42.426882 
L 196.62 40.1778 
L 198.934286 37.644024 
L 199.86 36.5508 
L 199.86 36.5508 
L 197.082857 33.40778 
L 194.768571 31.101759 
L 192.454286 29.080433 
L 190.14 27.3438 
L 187.825714 25.891861 
L 185.511429 24.724616 
L 183.197143 23.842065 
L 180.882857 23.244208 
L 179.031429 22.970902 
L 177.18 22.8798 
L 160.98 22.8798 
L 160.98 22.8798 
L 163.3128 25.1118 
L 164.79024 26.7858 
L 166.0344 28.4598 
L 167.04528 30.1338 
L 167.82288 31.8078 
L 168.3672 33.4818 
L 168.67824 35.1558 
L 168.756 36.8298 
L 168.60048 38.5038 
L 168.21168 40.1778 
L 167.5896 41.8518 
L 166.73424 43.5258 
L 165.6456 45.1998 
L 164.32368 46.8738 
L 162.76848 48.5478 
L 160.98 50.2218 
L 160.98 50.2218 
" style="fill:none;stroke:#000000;stroke-linecap:round;stroke-width:2;"/>
   </g>
   <g id="line2d_14">
    <path clip-path="url(#p96cfae69e3)" d="M 156.12 50.2218 
L 156.74208 49.6638 
L 157.33824 49.1058 
L 157.90848 48.5478 
L 158.4528 47.9898 
L 158.9712 47.4318 
L 159.46368 46.8738 
L 159.93024 46.3158 
L 160.37088 45.7578 
L 160.7856 45.1998 
L 161.1744 44.6418 
L 161.53728 44.0838 
L 161.87424 43.5258 
L 162.18528 42.9678 
L 162.4704 42.4098 
L 162.7296 41.8518 
L 162.96288 41.2938 
L 163.17024 40.7358 
L 163.35168 40.1778 
L 163.5072 39.6198 
L 163.6368 39.0618 
L 163.74048 38.5038 
L 163.81824 37.9458 
L 163.87008 37.3878 
L 163.896 36.8298 
L 163.896 36.2718 
L 163.87008 35.7138 
L 163.81824 35.1558 
L 163.74048 34.5978 
L 163.6368 34.0398 
L 163.5072 33.4818 
L 163.35168 32.9238 
L 163.17024 32.3658 
L 162.96288 31.8078 
L 162.7296 31.2498 
L 162.4704 30.6918 
L 162.18528 30.1338 
L 161.87424 29.5758 
L 161.53728 29.0178 
L 161.1744 28.4598 
L 160.7856 27.9018 
L 160.37088 27.3438 
L 159.93024 26.7858 
L 159.46368 26.2278 
L 158.9712 25.6698 
L 158.4528 25.1118 
L 157.90848 24.5538 
L 157.33824 23.9958 
L 156.74208 23.4378 
L 156.12 22.8798 
" style="fill:none;stroke:#000000;stroke-linecap:round;stroke-width:2;"/>
   </g>
   <g id="line2d_15">
    <path clip-path="url(#p96cfae69e3)" d="M 144.78 43.5258 
L 161.87424 43.5258 
" style="fill:none;stroke:#000000;stroke-linecap:round;stroke-width:2;"/>
   </g>
   <g id="line2d_16">
    <path clip-path="url(#p96cfae69e3)" d="M 144.78 29.5758 
L 161.87424 29.5758 
" style="fill:none;stroke:#000000;stroke-linecap:round;stroke-width:2;"/>
   </g>
   <g id="line2d_17">
    <path clip-path="url(#p96cfae69e3)" d="M 144.78 36.5508 
M 199.86 36.5508 
L 211.2 36.5508 
" style="fill:none;stroke:#000000;stroke-linecap:round;stroke-width:2;"/>
   </g>
   <g id="line2d_18">
    <path clip-path="url(#p96cfae69e3)" d="M 144.78 43.5258 
L 144.78 57.4758 
L 144.78 71.4258 
" style="fill:none;stroke:#000000;stroke-linecap:round;stroke-width:2;"/>
   </g>
   <g id="line2d_19">
    <path clip-path="url(#p96cfae69e3)" d="M 144.78 57.4758 
" style="fill:none;stroke:#000000;stroke-linecap:round;stroke-width:2;"/>
   </g>
   <g id="line2d_20">
    <path clip-path="url(#p96cfae69e3)" d="M 144.78 57.4758 
L 87.27 57.4758 
L 29.76 57.4758 
" style="fill:none;stroke:#000000;stroke-linecap:round;stroke-width:2;"/>
   </g>
   <g id="line2d_21">
    <path clip-path="url(#p96cfae69e3)" d="M 177.18 92.3508 
L 178.217938 92.322138 
L 179.25161 92.236271 
L 180.27677 92.09355 
L 181.289204 91.894563 
L 182.284753 91.640128 
L 183.259325 91.331289 
L 184.208917 90.969316 
L 185.129624 90.555696 
L 186.017665 90.092129 
L 186.869391 89.58052 
L 187.6813 89.022971 
L 188.450057 88.421773 
L 189.172504 87.779397 
L 189.84567 87.098483 
L 190.466791 86.381827 
L 191.033313 85.632376 
L 191.542909 84.853209 
L 191.993484 84.047528 
L 192.383188 83.218643 
L 192.710419 82.36996 
L 192.973832 81.504967 
L 193.172345 80.627219 
L 193.305142 79.740321 
L 193.371677 78.84792 
L 193.371677 77.95368 
L 193.305142 77.061279 
L 193.172345 76.174381 
L 192.973832 75.296633 
L 192.710419 74.43164 
L 192.383188 73.582957 
L 191.993484 72.754072 
L 191.542909 71.948391 
L 191.033313 71.169224 
L 190.466791 70.419773 
L 189.84567 69.703117 
L 189.172504 69.022203 
L 188.450057 68.379827 
L 187.6813 67.778629 
L 186.869391 67.22108 
L 186.017665 66.709471 
L 185.129624 66.245904 
L 184.208917 65.832284 
L 183.259325 65.470311 
L 182.284753 65.161472 
L 181.289204 64.907037 
L 180.27677 64.70805 
L 179.25161 64.565329 
L 178.217938 64.479462 
L 177.18 64.4508 
L 156.12 64.4508 
L 156.12 78.4008 
L 156.12 92.3508 
L 177.18 92.3508 
" style="fill:none;stroke:#000000;stroke-linecap:round;stroke-width:2;"/>
   </g>
   <g id="line2d_22">
    <path clip-path="url(#p96cfae69e3)" d="M 144.78 85.3758 
L 156.12 85.3758 
" style="fill:none;stroke:#000000;stroke-linecap:round;stroke-width:2;"/>
   </g>
   <g id="line2d_23">
    <path clip-path="url(#p96cfae69e3)" d="M 144.78 71.4258 
L 156.12 71.4258 
" style="fill:none;stroke:#000000;stroke-linecap:round;stroke-width:2;"/>
   </g>
   <g id="line2d_24">
    <path clip-path="url(#p96cfae69e3)" d="M 144.78 78.4008 
M 193.38 78.4008 
L 204.72 78.4008 
" style="fill:none;stroke:#000000;stroke-linecap:round;stroke-width:2;"/>
   </g>
   <g id="line2d_25">
    <path clip-path="url(#p96cfae69e3)" d="M 144.78 85.3758 
L 136.68 85.3758 
L 128.58 85.3758 
" style="fill:none;stroke:#000000;stroke-linecap:round;stroke-width:2;"/>
   </g>
   <g id="line2d_26">
    <path clip-path="url(#p96cfae69e3)" d="M 128.58 85.3758 
L 128.58 57.4758 
L 128.58 29.5758 
" style="fill:none;stroke:#000000;stroke-linecap:round;stroke-width:2;"/>
   </g>
   <g id="line2d_27">
    <path clip-path="url(#p96cfae69e3)" d="M 177.18 134.2008 
L 178.217938 134.172138 
L 179.25161 134.086271 
L 180.27677 133.94355 
L 181.289204 133.744563 
L 182.284753 133.490128 
L 183.259325 133.181289 
L 184.208917 132.819316 
L 185.129624 132.405696 
L 186.017665 131.942129 
L 186.869391 131.43052 
L 187.6813 130.872971 
L 188.450057 130.271773 
L 189.172504 129.629397 
L 189.84567 128.948483 
L 190.466791 128.231827 
L 191.033313 127.482376 
L 191.542909 126.703209 
L 191.993484 125.897528 
L 192.383188 125.068643 
L 192.710419 124.21996 
L 192.973832 123.354967 
L 193.172345 122.477219 
L 193.305142 121.590321 
L 193.371677 120.69792 
L 193.371677 119.80368 
L 193.305142 118.911279 
L 193.172345 118.024381 
L 192.973832 117.146633 
L 192.710419 116.28164 
L 192.383188 115.432957 
L 191.993484 114.604072 
L 191.542909 113.798391 
L 191.033313 113.019224 
L 190.466791 112.269773 
L 189.84567 111.553117 
L 189.172504 110.872203 
L 188.450057 110.229827 
L 187.6813 109.628629 
L 186.869391 109.07108 
L 186.017665 108.559471 
L 185.129624 108.095904 
L 184.208917 107.682284 
L 183.259325 107.320311 
L 182.284753 107.011472 
L 181.289204 106.757037 
L 180.27677 106.55805 
L 179.25161 106.415329 
L 178.217938 106.329462 
L 177.18 106.3008 
L 156.12 106.3008 
L 156.12 120.2508 
L 156.12 134.2008 
L 177.18 134.2008 
" style="fill:none;stroke:#000000;stroke-linecap:round;stroke-width:2;"/>
   </g>
   <g id="line2d_28">
    <path clip-path="url(#p96cfae69e3)" d="M 144.78 127.2258 
L 156.12 127.2258 
" style="fill:none;stroke:#000000;stroke-linecap:round;stroke-width:2;"/>
   </g>
   <g id="line2d_29">
    <path clip-path="url(#p96cfae69e3)" d="M 144.78 113.2758 
L 156.12 113.2758 
" style="fill:none;stroke:#000000;stroke-linecap:round;stroke-width:2;"/>
   </g>
   <g id="line2d_30">
    <path clip-path="url(#p96cfae69e3)" d="M 144.78 120.2508 
M 193.38 120.2508 
L 204.72 120.2508 
" style="fill:none;stroke:#000000;stroke-linecap:round;stroke-width:2;"/>
   </g>
   <g id="line2d_31">
    <path clip-path="url(#p96cfae69e3)" d="M 144.78 113.2758 
L 103.47 113.2758 
L 62.16 113.2758 
" style="fill:none;stroke:#000000;stroke-linecap:round;stroke-width:2;"/>
   </g>
   <g id="line2d_32">
    <path clip-path="url(#p96cfae69e3)" d="M 62.16 113.2758 
L 62.16 67.9383 
L 62.16 22.6008 
" style="fill:none;stroke:#000000;stroke-linecap:round;stroke-width:2;"/>
   </g>
   <g id="line2d_33">
    <path clip-path="url(#p96cfae69e3)" d="M 144.78 127.2258 
L 95.37 127.2258 
L 45.96 127.2258 
" style="fill:none;stroke:#000000;stroke-linecap:round;stroke-width:2;"/>
   </g>
   <g id="line2d_34">
    <path clip-path="url(#p96cfae69e3)" d="M 45.96 127.2258 
L 45.96 81.8883 
L 45.96 36.5508 
" style="fill:none;stroke:#000000;stroke-linecap:round;stroke-width:2;"/>
   </g>
   <g id="line2d_35">
    <path clip-path="url(#p96cfae69e3)" d="M 216.06 112.9968 
L 234.111429 112.905698 
L 235.962857 112.632392 
L 237.814286 112.176882 
L 240.128571 111.351269 
L 242.442857 110.240963 
L 244.757143 108.845963 
L 247.071429 107.166269 
L 249.385714 105.201882 
L 251.7 102.9528 
L 254.014286 100.419024 
L 254.94 99.3258 
L 254.94 99.3258 
L 252.162857 96.18278 
L 249.848571 93.876759 
L 247.534286 91.855433 
L 245.22 90.1188 
L 242.905714 88.666861 
L 240.591429 87.499616 
L 238.277143 86.617065 
L 235.962857 86.019208 
L 234.111429 85.745902 
L 232.26 85.6548 
L 216.06 85.6548 
L 216.06 85.6548 
L 218.3928 87.8868 
L 219.87024 89.5608 
L 221.1144 91.2348 
L 222.12528 92.9088 
L 222.90288 94.5828 
L 223.4472 96.2568 
L 223.75824 97.9308 
L 223.836 99.6048 
L 223.68048 101.2788 
L 223.29168 102.9528 
L 222.6696 104.6268 
L 221.81424 106.3008 
L 220.7256 107.9748 
L 219.40368 109.6488 
L 217.84848 111.3228 
L 216.06 112.9968 
L 216.06 112.9968 
" style="fill:none;stroke:#000000;stroke-linecap:round;stroke-width:2;"/>
   </g>
   <g id="line2d_36">
    <path clip-path="url(#p96cfae69e3)" d="M 204.72 106.3008 
L 221.81424 106.3008 
" style="fill:none;stroke:#000000;stroke-linecap:round;stroke-width:2;"/>
   </g>
   <g id="line2d_37">
    <path clip-path="url(#p96cfae69e3)" d="M 204.72 92.3508 
L 221.81424 92.3508 
" style="fill:none;stroke:#000000;stroke-linecap:round;stroke-width:2;"/>
   </g>
   <g id="line2d_38">
    <path clip-path="url(#p96cfae69e3)" d="M 204.72 99.3258 
M 254.94 99.3258 
L 266.28 99.3258 
" style="fill:none;stroke:#000000;stroke-linecap:round;stroke-width:2;"/>
   </g>
   <g id="line2d_39">
    <path clip-path="url(#p96cfae69e3)" d="M 204.72 78.4008 
L 204.72 85.3758 
L 204.72 92.3508 
" style="fill:none;stroke:#000000;stroke-linecap:round;stroke-width:2;"/>
   </g>
   <g id="line2d_40">
    <path clip-path="url(#p96cfae69e3)" d="M 204.72 120.2508 
L 204.72 113.2758 
L 204.72 106.3008 
" style="fill:none;stroke:#000000;stroke-linecap:round;stroke-width:2;"/>
   </g>
   <g id="line2d_41">
    <path clip-path="url(#p96cfae69e3)" d="M 211.2 36.5508 
L 238.74 36.5508 
L 266.28 36.5508 
" style="fill:none;stroke:#000000;stroke-linecap:round;stroke-width:2;"/>
   </g>
   <g id="text_1">
    <!-- $A$ -->
    <defs>
     <path d="M 34.1875 63.1875 
L 20.796875 26.90625 
L 47.609375 26.90625 
z
M 28.609375 72.90625 
L 39.796875 72.90625 
L 67.578125 0 
L 57.328125 0 
L 50.6875 18.703125 
L 17.828125 18.703125 
L 11.1875 0 
L 0.78125 0 
z
" id="DejaVuSans-65"/>
    </defs>
    <g transform="translate(16.86 26.463925)scale(0.14 -0.14)">
     <use transform="translate(0 0.09375)" xlink:href="#DejaVuSans-65"/>
    </g>
   </g>
   <g id="text_2">
    <!-- $B$ -->
    <defs>
     <path d="M 19.671875 34.8125 
L 19.671875 8.109375 
L 35.5 8.109375 
Q 43.453125 8.109375 47.28125 11.40625 
Q 51.125 14.703125 51.125 21.484375 
Q 51.125 28.328125 47.28125 31.5625 
Q 43.453125 34.8125 35.5 34.8125 
z
M 19.671875 64.796875 
L 19.671875 42.828125 
L 34.28125 42.828125 
Q 41.5 42.828125 45.03125 45.53125 
Q 48.578125 48.25 48.578125 53.8125 
Q 48.578125 59.328125 45.03125 62.0625 
Q 41.5 64.796875 34.28125 64.796875 
z
M 9.8125 72.90625 
L 35.015625 72.90625 
Q 46.296875 72.90625 52.390625 68.21875 
Q 58.5 63.53125 58.5 54.890625 
Q 58.5 48.1875 55.375 44.234375 
Q 52.25 40.28125 46.1875 39.3125 
Q 53.46875 37.75 57.5 32.78125 
Q 61.53125 27.828125 61.53125 20.40625 
Q 61.53125 10.640625 54.890625 5.3125 
Q 48.25 0 35.984375 0 
L 9.8125 0 
z
" id="DejaVuSans-66"/>
    </defs>
    <g transform="translate(16.86 40.413925)scale(0.14 -0.14)">
     <use transform="translate(0 0.09375)" xlink:href="#DejaVuSans-66"/>
    </g>
   </g>
   <g id="text_3">
    <!-- $C_{in}$ -->
    <defs>
     <path d="M 64.40625 67.28125 
L 64.40625 56.890625 
Q 59.421875 61.53125 53.78125 63.8125 
Q 48.140625 66.109375 41.796875 66.109375 
Q 29.296875 66.109375 22.65625 58.46875 
Q 16.015625 50.828125 16.015625 36.375 
Q 16.015625 21.96875 22.65625 14.328125 
Q 29.296875 6.6875 41.796875 6.6875 
Q 48.140625 6.6875 53.78125 8.984375 
Q 59.421875 11.28125 64.40625 15.921875 
L 64.40625 5.609375 
Q 59.234375 2.09375 53.4375 0.328125 
Q 47.65625 -1.421875 41.21875 -1.421875 
Q 24.65625 -1.421875 15.125 8.703125 
Q 5.609375 18.84375 5.609375 36.375 
Q 5.609375 53.953125 15.125 64.078125 
Q 24.65625 74.21875 41.21875 74.21875 
Q 47.75 74.21875 53.53125 72.484375 
Q 59.328125 70.75 64.40625 67.28125 
z
" id="DejaVuSans-67"/>
     <path d="M 9.421875 54.6875 
L 18.40625 54.6875 
L 18.40625 0 
L 9.421875 0 
z
M 9.421875 75.984375 
L 18.40625 75.984375 
L 18.40625 64.59375 
L 9.421875 64.59375 
z
" id="DejaVuSans-105"/>
     <path d="M 54.890625 33.015625 
L 54.890625 0 
L 45.90625 0 
L 45.90625 32.71875 
Q 45.90625 40.484375 42.875 44.328125 
Q 39.84375 48.1875 33.796875 48.1875 
Q 26.515625 48.1875 22.3125 43.546875 
Q 18.109375 38.921875 18.109375 30.90625 
L 18.109375 0 
L 9.078125 0 
L 9.078125 54.6875 
L 18.109375 54.6875 
L 18.109375 46.1875 
Q 21.34375 51.125 25.703125 53.5625 
Q 30.078125 56 35.796875 56 
Q 45.21875 56 50.046875 50.171875 
Q 54.890625 44.34375 54.890625 33.015625 
z
" id="DejaVuSans-110"/>
    </defs>
    <g transform="translate(7.2 61.338925)scale(0.14 -0.14)">
     <use transform="translate(0 0.78125)" xlink:href="#DejaVuSans-67"/>
     <use transform="translate(70.78125 -15.625)scale(0.7)" xlink:href="#DejaVuSans-105"/>
     <use transform="translate(90.229492 -15.625)scale(0.7)" xlink:href="#DejaVuSans-110"/>
    </g>
   </g>
   <g id="text_4">
    <!-- $C_{out}$ -->
    <defs>
     <path d="M 30.609375 48.390625 
Q 23.390625 48.390625 19.1875 42.75 
Q 14.984375 37.109375 14.984375 27.296875 
Q 14.984375 17.484375 19.15625 11.84375 
Q 23.34375 6.203125 30.609375 6.203125 
Q 37.796875 6.203125 41.984375 11.859375 
Q 46.1875 17.53125 46.1875 27.296875 
Q 46.1875 37.015625 41.984375 42.703125 
Q 37.796875 48.390625 30.609375 48.390625 
z
M 30.609375 56 
Q 42.328125 56 49.015625 48.375 
Q 55.71875 40.765625 55.71875 27.296875 
Q 55.71875 13.875 49.015625 6.21875 
Q 42.328125 -1.421875 30.609375 -1.421875 
Q 18.84375 -1.421875 12.171875 6.21875 
Q 5.515625 13.875 5.515625 27.296875 
Q 5.515625 40.765625 12.171875 48.375 
Q 18.84375 56 30.609375 56 
z
" id="DejaVuSans-111"/>
     <path d="M 8.5 21.578125 
L 8.5 54.6875 
L 17.484375 54.6875 
L 17.484375 21.921875 
Q 17.484375 14.15625 20.5 10.265625 
Q 23.53125 6.390625 29.59375 6.390625 
Q 36.859375 6.390625 41.078125 11.03125 
Q 45.3125 15.671875 45.3125 23.6875 
L 45.3125 54.6875 
L 54.296875 54.6875 
L 54.296875 0 
L 45.3125 0 
L 45.3125 8.40625 
Q 42.046875 3.421875 37.71875 1 
Q 33.40625 -1.421875 27.6875 -1.421875 
Q 18.265625 -1.421875 13.375 4.4375 
Q 8.5 10.296875 8.5 21.578125 
z
M 31.109375 56 
z
" id="DejaVuSans-117"/>
     <path d="M 18.3125 70.21875 
L 18.3125 54.6875 
L 36.8125 54.6875 
L 36.8125 47.703125 
L 18.3125 47.703125 
L 18.3125 18.015625 
Q 18.3125 11.328125 20.140625 9.421875 
Q 21.96875 7.515625 27.59375 7.515625 
L 36.8125 7.515625 
L 36.8125 0 
L 27.59375 0 
Q 17.1875 0 13.234375 3.875 
Q 9.28125 7.765625 9.28125 18.015625 
L 9.28125 47.703125 
L 2.6875 47.703125 
L 2.6875 54.6875 
L 9.28125 54.6875 
L 9.28125 70.21875 
z
" id="DejaVuSans-116"/>
    </defs>
    <g transform="translate(269.52 103.188925)scale(0.14 -0.14)">
     <use transform="translate(0 0.78125)" xlink:href="#DejaVuSans-67"/>
     <use transform="translate(70.78125 -15.625)scale(0.7)" xlink:href="#DejaVuSans-111"/>
     <use transform="translate(113.608398 -15.625)scale(0.7)" xlink:href="#DejaVuSans-117"/>
     <use transform="translate(157.973633 -15.625)scale(0.7)" xlink:href="#DejaVuSans-116"/>
    </g>
   </g>
   <g id="text_5">
    <!-- $S$ -->
    <defs>
     <path d="M 53.515625 70.515625 
L 53.515625 60.890625 
Q 47.90625 63.578125 42.921875 64.890625 
Q 37.9375 66.21875 33.296875 66.21875 
Q 25.25 66.21875 20.875 63.09375 
Q 16.5 59.96875 16.5 54.203125 
Q 16.5 49.359375 19.40625 46.890625 
Q 22.3125 44.4375 30.421875 42.921875 
L 36.375 41.703125 
Q 47.40625 39.59375 52.65625 34.296875 
Q 57.90625 29 57.90625 20.125 
Q 57.90625 9.515625 50.796875 4.046875 
Q 43.703125 -1.421875 29.984375 -1.421875 
Q 24.8125 -1.421875 18.96875 -0.25 
Q 13.140625 0.921875 6.890625 3.21875 
L 6.890625 13.375 
Q 12.890625 10.015625 18.65625 8.296875 
Q 24.421875 6.59375 29.984375 6.59375 
Q 38.421875 6.59375 43.015625 9.90625 
Q 47.609375 13.234375 47.609375 19.390625 
Q 47.609375 24.75 44.3125 27.78125 
Q 41.015625 30.8125 33.5 32.328125 
L 27.484375 33.5 
Q 16.453125 35.6875 11.515625 40.375 
Q 6.59375 45.0625 6.59375 53.421875 
Q 6.59375 63.09375 13.40625 68.65625 
Q 20.21875 74.21875 32.171875 74.21875 
Q 37.3125 74.21875 42.625 73.28125 
Q 47.953125 72.359375 53.515625 70.515625 
z
" id="DejaVuSans-83"/>
    </defs>
    <g transform="translate(269.52 40.413925)scale(0.14 -0.14)">
     <use transform="translate(0 0.78125)" xlink:href="#DejaVuSans-83"/>
    </g>
   </g>
  </g>
 </g>
 <defs>
  <clipPath id="p96cfae69e3">
   <rect height="135.7056" width="266.652" x="14.694" y="7.2"/>
  </clipPath>
 </defs>
</svg>
