<?xml version="1.0" encoding="utf-8" standalone="no"?>
<!DOCTYPE svg PUBLIC "-//W3C//DTD SVG 1.1//EN"
  "http://www.w3.org/Graphics/SVG/1.1/DTD/svg11.dtd">
<!-- Created with matplotlib (https://matplotlib.org/) -->
<svg height="150.1056pt" version="1.1" viewBox="0 0 309.72 150.1056" width="309.72pt" xmlns="http://www.w3.org/2000/svg" xmlns:xlink="http://www.w3.org/1999/xlink">
 <defs>
  <style type="text/css">
*{stroke-linecap:butt;stroke-linejoin:round;}
  </style>
 </defs>
 <g id="figure_1">
  <g id="patch_1">
   <path d="M 0 150.1056 
L 309.72 150.1056 
L 309.72 0 
L 0 0 
z
" style="fill:none;"/>
  </g>
  <g id="axes_1">
   <g id="patch_2">
    <path clip-path="url(#p8e1759d209)" d="M 131.34 31.6683 
C 131.984444 31.6683 132.602579 31.447821 133.058269 31.055421 
C 133.51396 30.663021 133.77 30.130737 133.77 29.5758 
C 133.77 29.020863 133.51396 28.488579 133.058269 28.096179 
C 132.602579 27.703779 131.984444 27.4833 131.34 27.4833 
C 130.695556 27.4833 130.077421 27.703779 129.621731 28.096179 
C 129.16604 28.488579 128.91 29.020863 128.91 29.5758 
C 128.91 30.130737 129.16604 30.663021 129.621731 31.055421 
C 130.077421 31.447821 130.695556 31.6683 131.34 31.6683 
z
" style="stroke:#000000;stroke-linejoin:miter;stroke-width:1.5;"/>
   </g>
   <g id="patch_3">
    <path clip-path="url(#p8e1759d209)" d="M 64.92 24.6933 
C 65.564444 24.6933 66.182579 24.472821 66.638269 24.080421 
C 67.09396 23.688021 67.35 23.155737 67.35 22.6008 
C 67.35 22.045863 67.09396 21.513579 66.638269 21.121179 
C 66.182579 20.728779 65.564444 20.5083 64.92 20.5083 
C 64.275556 20.5083 63.657421 20.728779 63.201731 21.121179 
C 62.74604 21.513579 62.49 22.045863 62.49 22.6008 
C 62.49 23.155737 62.74604 23.688021 63.201731 24.080421 
C 63.657421 24.472821 64.275556 24.6933 64.92 24.6933 
z
" style="stroke:#000000;stroke-linejoin:miter;stroke-width:1.5;"/>
   </g>
   <g id="patch_4">
    <path clip-path="url(#p8e1759d209)" d="M 48.72 38.6433 
C 49.364444 38.6433 49.982579 38.422821 50.438269 38.030421 
C 50.89396 37.638021 51.15 37.105737 51.15 36.5508 
C 51.15 35.995863 50.89396 35.463579 50.438269 35.071179 
C 49.982579 34.678779 49.364444 34.4583 48.72 34.4583 
C 48.075556 34.4583 47.457421 34.678779 47.001731 35.071179 
C 46.54604 35.463579 46.29 35.995863 46.29 36.5508 
C 46.29 37.105737 46.54604 37.638021 47.001731 38.030421 
C 47.457421 38.422821 48.075556 38.6433 48.72 38.6433 
z
" style="stroke:#000000;stroke-linejoin:miter;stroke-width:1.5;"/>
   </g>
   <g id="patch_5">
    <path clip-path="url(#p8e1759d209)" d="M 147.54 59.5683 
C 148.184444 59.5683 148.802579 59.347821 149.258269 58.955421 
C 149.71396 58.563021 149.97 58.030737 149.97 57.4758 
C 149.97 56.920863 149.71396 56.388579 149.258269 55.996179 
C 148.802579 55.603779 148.184444 55.3833 147.54 55.3833 
C 146.895556 55.3833 146.277421 55.603779 145.821731 55.996179 
C 145.36604 56.388579 145.11 56.920863 145.11 57.4758 
C 145.11 58.030737 145.36604 58.563021 145.821731 58.955421 
C 146.277421 59.347821 146.895556 59.5683 147.54 59.5683 
z
" style="stroke:#000000;stroke-linejoin:miter;stroke-width:1.5;"/>
   </g>
   <g id="line2d_1">
    <path clip-path="url(#p8e1759d209)" d="M 64.92 29.5758 
M 120 29.5758 
L 131.34 29.5758 
" style="fill:none;stroke:#000000;stroke-linecap:round;stroke-width:1.5;"/>
   </g>
   <g id="line2d_2">
    <path clip-path="url(#p8e1759d209)" d="M 81.12 43.2468 
L 99.171429 43.155698 
L 101.022857 42.882392 
L 102.874286 42.426882 
L 105.188571 41.601269 
L 107.502857 40.490963 
L 109.817143 39.095963 
L 112.131429 37.416269 
L 114.445714 35.451882 
L 116.76 33.2028 
L 119.074286 30.669024 
L 120 29.5758 
L 120 29.5758 
L 117.222857 26.43278 
L 114.908571 24.126759 
L 112.594286 22.105433 
L 110.28 20.3688 
L 107.965714 18.916861 
L 105.651429 17.749616 
L 103.337143 16.867065 
L 101.022857 16.269208 
L 99.171429 15.995902 
L 97.32 15.9048 
L 81.12 15.9048 
L 81.12 15.9048 
L 83.4528 18.1368 
L 84.93024 19.8108 
L 86.1744 21.4848 
L 87.18528 23.1588 
L 87.96288 24.8328 
L 88.5072 26.5068 
L 88.81824 28.1808 
L 88.896 29.8548 
L 88.74048 31.5288 
L 88.35168 33.2028 
L 87.7296 34.8768 
L 86.87424 36.5508 
L 85.7856 38.2248 
L 84.46368 39.8988 
L 82.90848 41.5728 
L 81.12 43.2468 
L 81.12 43.2468 
" style="fill:none;stroke:#000000;stroke-linecap:round;stroke-width:1.5;"/>
   </g>
   <g id="line2d_3">
    <path clip-path="url(#p8e1759d209)" d="M 76.26 43.2468 
L 76.88208 42.6888 
L 77.47824 42.1308 
L 78.04848 41.5728 
L 78.5928 41.0148 
L 79.1112 40.4568 
L 79.60368 39.8988 
L 80.07024 39.3408 
L 80.51088 38.7828 
L 80.9256 38.2248 
L 81.3144 37.6668 
L 81.67728 37.1088 
L 82.01424 36.5508 
L 82.32528 35.9928 
L 82.6104 35.4348 
L 82.8696 34.8768 
L 83.10288 34.3188 
L 83.31024 33.7608 
L 83.49168 33.2028 
L 83.6472 32.6448 
L 83.7768 32.0868 
L 83.88048 31.5288 
L 83.95824 30.9708 
L 84.01008 30.4128 
L 84.036 29.8548 
L 84.036 29.2968 
L 84.01008 28.7388 
L 83.95824 28.1808 
L 83.88048 27.6228 
L 83.7768 27.0648 
L 83.6472 26.5068 
L 83.49168 25.9488 
L 83.31024 25.3908 
L 83.10288 24.8328 
L 82.8696 24.2748 
L 82.6104 23.7168 
L 82.32528 23.1588 
L 82.01424 22.6008 
L 81.67728 22.0428 
L 81.3144 21.4848 
L 80.9256 20.9268 
L 80.51088 20.3688 
L 80.07024 19.8108 
L 79.60368 19.2528 
L 79.1112 18.6948 
L 78.5928 18.1368 
L 78.04848 17.5788 
L 77.47824 17.0208 
L 76.88208 16.4628 
L 76.26 15.9048 
" style="fill:none;stroke:#000000;stroke-linecap:round;stroke-width:1.5;"/>
   </g>
   <g id="line2d_4">
    <path clip-path="url(#p8e1759d209)" d="M 64.92 36.5508 
L 82.01424 36.5508 
" style="fill:none;stroke:#000000;stroke-linecap:round;stroke-width:1.5;"/>
   </g>
   <g id="line2d_5">
    <path clip-path="url(#p8e1759d209)" d="M 64.92 22.6008 
L 82.01424 22.6008 
" style="fill:none;stroke:#000000;stroke-linecap:round;stroke-width:1.5;"/>
   </g>
   <g id="line2d_6">
    <path clip-path="url(#p8e1759d209)" d="M 131.34 29.5758 
" style="fill:none;stroke:#000000;stroke-linecap:round;stroke-width:1.5;"/>
   </g>
   <g id="line2d_7">
    <path clip-path="url(#p8e1759d209)" d="M 64.92 22.6008 
" style="fill:none;stroke:#000000;stroke-linecap:round;stroke-width:1.5;"/>
   </g>
   <g id="line2d_8">
    <path clip-path="url(#p8e1759d209)" d="M 64.92 22.6008 
L 48.72 22.6008 
L 32.52 22.6008 
" style="fill:none;stroke:#000000;stroke-linecap:round;stroke-width:1.5;"/>
   </g>
   <g id="line2d_9">
    <path clip-path="url(#p8e1759d209)" d="M 64.92 36.5508 
L 56.82 36.5508 
L 48.72 36.5508 
" style="fill:none;stroke:#000000;stroke-linecap:round;stroke-width:1.5;"/>
   </g>
   <g id="line2d_10">
    <path clip-path="url(#p8e1759d209)" d="M 48.72 36.5508 
" style="fill:none;stroke:#000000;stroke-linecap:round;stroke-width:1.5;"/>
   </g>
   <g id="line2d_11">
    <path clip-path="url(#p8e1759d209)" d="M 48.72 36.5508 
L 40.62 36.5508 
L 32.52 36.5508 
" style="fill:none;stroke:#000000;stroke-linecap:round;stroke-width:1.5;"/>
   </g>
   <g id="line2d_12">
    <path clip-path="url(#p8e1759d209)" d="M 131.34 29.5758 
L 139.44 29.5758 
L 147.54 29.5758 
" style="fill:none;stroke:#000000;stroke-linecap:round;stroke-width:1.5;"/>
   </g>
   <g id="line2d_13">
    <path clip-path="url(#p8e1759d209)" d="M 147.54 36.5508 
M 202.62 36.5508 
L 213.96 36.5508 
" style="fill:none;stroke:#000000;stroke-linecap:round;stroke-width:1.5;"/>
   </g>
   <g id="line2d_14">
    <path clip-path="url(#p8e1759d209)" d="M 163.74 50.2218 
L 181.791429 50.130698 
L 183.642857 49.857392 
L 185.494286 49.401882 
L 187.808571 48.576269 
L 190.122857 47.465963 
L 192.437143 46.070963 
L 194.751429 44.391269 
L 197.065714 42.426882 
L 199.38 40.1778 
L 201.694286 37.644024 
L 202.62 36.5508 
L 202.62 36.5508 
L 199.842857 33.40778 
L 197.528571 31.101759 
L 195.214286 29.080433 
L 192.9 27.3438 
L 190.585714 25.891861 
L 188.271429 24.724616 
L 185.957143 23.842065 
L 183.642857 23.244208 
L 181.791429 22.970902 
L 179.94 22.8798 
L 163.74 22.8798 
L 163.74 22.8798 
L 166.0728 25.1118 
L 167.55024 26.7858 
L 168.7944 28.4598 
L 169.80528 30.1338 
L 170.58288 31.8078 
L 171.1272 33.4818 
L 171.43824 35.1558 
L 171.516 36.8298 
L 171.36048 38.5038 
L 170.97168 40.1778 
L 170.3496 41.8518 
L 169.49424 43.5258 
L 168.4056 45.1998 
L 167.08368 46.8738 
L 165.52848 48.5478 
L 163.74 50.2218 
L 163.74 50.2218 
" style="fill:none;stroke:#000000;stroke-linecap:round;stroke-width:1.5;"/>
   </g>
   <g id="line2d_15">
    <path clip-path="url(#p8e1759d209)" d="M 158.88 50.2218 
L 159.50208 49.6638 
L 160.09824 49.1058 
L 160.66848 48.5478 
L 161.2128 47.9898 
L 161.7312 47.4318 
L 162.22368 46.8738 
L 162.69024 46.3158 
L 163.13088 45.7578 
L 163.5456 45.1998 
L 163.9344 44.6418 
L 164.29728 44.0838 
L 164.63424 43.5258 
L 164.94528 42.9678 
L 165.2304 42.4098 
L 165.4896 41.8518 
L 165.72288 41.2938 
L 165.93024 40.7358 
L 166.11168 40.1778 
L 166.2672 39.6198 
L 166.3968 39.0618 
L 166.50048 38.5038 
L 166.57824 37.9458 
L 166.63008 37.3878 
L 166.656 36.8298 
L 166.656 36.2718 
L 166.63008 35.7138 
L 166.57824 35.1558 
L 166.50048 34.5978 
L 166.3968 34.0398 
L 166.2672 33.4818 
L 166.11168 32.9238 
L 165.93024 32.3658 
L 165.72288 31.8078 
L 165.4896 31.2498 
L 165.2304 30.6918 
L 164.94528 30.1338 
L 164.63424 29.5758 
L 164.29728 29.0178 
L 163.9344 28.4598 
L 163.5456 27.9018 
L 163.13088 27.3438 
L 162.69024 26.7858 
L 162.22368 26.2278 
L 161.7312 25.6698 
L 161.2128 25.1118 
L 160.66848 24.5538 
L 160.09824 23.9958 
L 159.50208 23.4378 
L 158.88 22.8798 
" style="fill:none;stroke:#000000;stroke-linecap:round;stroke-width:1.5;"/>
   </g>
   <g id="line2d_16">
    <path clip-path="url(#p8e1759d209)" d="M 147.54 43.5258 
L 164.63424 43.5258 
" style="fill:none;stroke:#000000;stroke-linecap:round;stroke-width:1.5;"/>
   </g>
   <g id="line2d_17">
    <path clip-path="url(#p8e1759d209)" d="M 147.54 29.5758 
L 164.63424 29.5758 
" style="fill:none;stroke:#000000;stroke-linecap:round;stroke-width:1.5;"/>
   </g>
   <g id="line2d_18">
    <path clip-path="url(#p8e1759d209)" d="M 147.54 43.5258 
L 147.54 57.4758 
L 147.54 71.4258 
" style="fill:none;stroke:#000000;stroke-linecap:round;stroke-width:1.5;"/>
   </g>
   <g id="line2d_19">
    <path clip-path="url(#p8e1759d209)" d="M 147.54 57.4758 
" style="fill:none;stroke:#000000;stroke-linecap:round;stroke-width:1.5;"/>
   </g>
   <g id="line2d_20">
    <path clip-path="url(#p8e1759d209)" d="M 147.54 57.4758 
L 90.03 57.4758 
L 32.52 57.4758 
" style="fill:none;stroke:#000000;stroke-linecap:round;stroke-width:1.5;"/>
   </g>
   <g id="line2d_21">
    <path clip-path="url(#p8e1759d209)" d="M 147.54 78.4008 
M 196.14 78.4008 
L 207.48 78.4008 
" style="fill:none;stroke:#000000;stroke-linecap:round;stroke-width:1.5;"/>
   </g>
   <g id="line2d_22">
    <path clip-path="url(#p8e1759d209)" d="M 179.94 92.3508 
L 180.977938 92.322138 
L 182.01161 92.236271 
L 183.03677 92.09355 
L 184.049204 91.894563 
L 185.044753 91.640128 
L 186.019325 91.331289 
L 186.968917 90.969316 
L 187.889624 90.555696 
L 188.777665 90.092129 
L 189.629391 89.58052 
L 190.4413 89.022971 
L 191.210057 88.421773 
L 191.932504 87.779397 
L 192.60567 87.098483 
L 193.226791 86.381827 
L 193.793313 85.632376 
L 194.302909 84.853209 
L 194.753484 84.047528 
L 195.143188 83.218643 
L 195.470419 82.36996 
L 195.733832 81.504967 
L 195.932345 80.627219 
L 196.065142 79.740321 
L 196.131677 78.84792 
L 196.131677 77.95368 
L 196.065142 77.061279 
L 195.932345 76.174381 
L 195.733832 75.296633 
L 195.470419 74.43164 
L 195.143188 73.582957 
L 194.753484 72.754072 
L 194.302909 71.948391 
L 193.793313 71.169224 
L 193.226791 70.419773 
L 192.60567 69.703117 
L 191.932504 69.022203 
L 191.210057 68.379827 
L 190.4413 67.778629 
L 189.629391 67.22108 
L 188.777665 66.709471 
L 187.889624 66.245904 
L 186.968917 65.832284 
L 186.019325 65.470311 
L 185.044753 65.161472 
L 184.049204 64.907037 
L 183.03677 64.70805 
L 182.01161 64.565329 
L 180.977938 64.479462 
L 179.94 64.4508 
L 158.88 64.4508 
L 158.88 78.4008 
L 158.88 92.3508 
L 179.94 92.3508 
" style="fill:none;stroke:#000000;stroke-linecap:round;stroke-width:1.5;"/>
   </g>
   <g id="line2d_23">
    <path clip-path="url(#p8e1759d209)" d="M 147.54 85.3758 
L 158.88 85.3758 
" style="fill:none;stroke:#000000;stroke-linecap:round;stroke-width:1.5;"/>
   </g>
   <g id="line2d_24">
    <path clip-path="url(#p8e1759d209)" d="M 147.54 71.4258 
L 158.88 71.4258 
" style="fill:none;stroke:#000000;stroke-linecap:round;stroke-width:1.5;"/>
   </g>
   <g id="line2d_25">
    <path clip-path="url(#p8e1759d209)" d="M 147.54 85.3758 
L 139.44 85.3758 
L 131.34 85.3758 
" style="fill:none;stroke:#000000;stroke-linecap:round;stroke-width:1.5;"/>
   </g>
   <g id="line2d_26">
    <path clip-path="url(#p8e1759d209)" d="M 131.34 85.3758 
L 131.34 57.4758 
L 131.34 29.5758 
" style="fill:none;stroke:#000000;stroke-linecap:round;stroke-width:1.5;"/>
   </g>
   <g id="line2d_27">
    <path clip-path="url(#p8e1759d209)" d="M 147.54 120.2508 
M 196.14 120.2508 
L 207.48 120.2508 
" style="fill:none;stroke:#000000;stroke-linecap:round;stroke-width:1.5;"/>
   </g>
   <g id="line2d_28">
    <path clip-path="url(#p8e1759d209)" d="M 179.94 134.2008 
L 180.977938 134.172138 
L 182.01161 134.086271 
L 183.03677 133.94355 
L 184.049204 133.744563 
L 185.044753 133.490128 
L 186.019325 133.181289 
L 186.968917 132.819316 
L 187.889624 132.405696 
L 188.777665 131.942129 
L 189.629391 131.43052 
L 190.4413 130.872971 
L 191.210057 130.271773 
L 191.932504 129.629397 
L 192.60567 128.948483 
L 193.226791 128.231827 
L 193.793313 127.482376 
L 194.302909 126.703209 
L 194.753484 125.897528 
L 195.143188 125.068643 
L 195.470419 124.21996 
L 195.733832 123.354967 
L 195.932345 122.477219 
L 196.065142 121.590321 
L 196.131677 120.69792 
L 196.131677 119.80368 
L 196.065142 118.911279 
L 195.932345 118.024381 
L 195.733832 117.146633 
L 195.470419 116.28164 
L 195.143188 115.432957 
L 194.753484 114.604072 
L 194.302909 113.798391 
L 193.793313 113.019224 
L 193.226791 112.269773 
L 192.60567 111.553117 
L 191.932504 110.872203 
L 191.210057 110.229827 
L 190.4413 109.628629 
L 189.629391 109.07108 
L 188.777665 108.559471 
L 187.889624 108.095904 
L 186.968917 107.682284 
L 186.019325 107.320311 
L 185.044753 107.011472 
L 184.049204 106.757037 
L 183.03677 106.55805 
L 182.01161 106.415329 
L 180.977938 106.329462 
L 179.94 106.3008 
L 158.88 106.3008 
L 158.88 120.2508 
L 158.88 134.2008 
L 179.94 134.2008 
" style="fill:none;stroke:#000000;stroke-linecap:round;stroke-width:1.5;"/>
   </g>
   <g id="line2d_29">
    <path clip-path="url(#p8e1759d209)" d="M 147.54 127.2258 
L 158.88 127.2258 
" style="fill:none;stroke:#000000;stroke-linecap:round;stroke-width:1.5;"/>
   </g>
   <g id="line2d_30">
    <path clip-path="url(#p8e1759d209)" d="M 147.54 113.2758 
L 158.88 113.2758 
" style="fill:none;stroke:#000000;stroke-linecap:round;stroke-width:1.5;"/>
   </g>
   <g id="line2d_31">
    <path clip-path="url(#p8e1759d209)" d="M 147.54 113.2758 
L 106.23 113.2758 
L 64.92 113.2758 
" style="fill:none;stroke:#000000;stroke-linecap:round;stroke-width:1.5;"/>
   </g>
   <g id="line2d_32">
    <path clip-path="url(#p8e1759d209)" d="M 64.92 113.2758 
L 64.92 67.9383 
L 64.92 22.6008 
" style="fill:none;stroke:#000000;stroke-linecap:round;stroke-width:1.5;"/>
   </g>
   <g id="line2d_33">
    <path clip-path="url(#p8e1759d209)" d="M 147.54 127.2258 
L 98.13 127.2258 
L 48.72 127.2258 
" style="fill:none;stroke:#000000;stroke-linecap:round;stroke-width:1.5;"/>
   </g>
   <g id="line2d_34">
    <path clip-path="url(#p8e1759d209)" d="M 48.72 127.2258 
L 48.72 81.8883 
L 48.72 36.5508 
" style="fill:none;stroke:#000000;stroke-linecap:round;stroke-width:1.5;"/>
   </g>
   <g id="line2d_35">
    <path clip-path="url(#p8e1759d209)" d="M 207.48 99.3258 
M 257.7 99.3258 
L 269.04 99.3258 
" style="fill:none;stroke:#000000;stroke-linecap:round;stroke-width:1.5;"/>
   </g>
   <g id="line2d_36">
    <path clip-path="url(#p8e1759d209)" d="M 218.82 112.9968 
L 236.871429 112.905698 
L 238.722857 112.632392 
L 240.574286 112.176882 
L 242.888571 111.351269 
L 245.202857 110.240963 
L 247.517143 108.845963 
L 249.831429 107.166269 
L 252.145714 105.201882 
L 254.46 102.9528 
L 256.774286 100.419024 
L 257.7 99.3258 
L 257.7 99.3258 
L 254.922857 96.18278 
L 252.608571 93.876759 
L 250.294286 91.855433 
L 247.98 90.1188 
L 245.665714 88.666861 
L 243.351429 87.499616 
L 241.037143 86.617065 
L 238.722857 86.019208 
L 236.871429 85.745902 
L 235.02 85.6548 
L 218.82 85.6548 
L 218.82 85.6548 
L 221.1528 87.8868 
L 222.63024 89.5608 
L 223.8744 91.2348 
L 224.88528 92.9088 
L 225.66288 94.5828 
L 226.2072 96.2568 
L 226.51824 97.9308 
L 226.596 99.6048 
L 226.44048 101.2788 
L 226.05168 102.9528 
L 225.4296 104.6268 
L 224.57424 106.3008 
L 223.4856 107.9748 
L 222.16368 109.6488 
L 220.60848 111.3228 
L 218.82 112.9968 
L 218.82 112.9968 
" style="fill:none;stroke:#000000;stroke-linecap:round;stroke-width:1.5;"/>
   </g>
   <g id="line2d_37">
    <path clip-path="url(#p8e1759d209)" d="M 207.48 106.3008 
L 224.57424 106.3008 
" style="fill:none;stroke:#000000;stroke-linecap:round;stroke-width:1.5;"/>
   </g>
   <g id="line2d_38">
    <path clip-path="url(#p8e1759d209)" d="M 207.48 92.3508 
L 224.57424 92.3508 
" style="fill:none;stroke:#000000;stroke-linecap:round;stroke-width:1.5;"/>
   </g>
   <g id="line2d_39">
    <path clip-path="url(#p8e1759d209)" d="M 207.48 78.4008 
L 207.48 85.3758 
L 207.48 92.3508 
" style="fill:none;stroke:#000000;stroke-linecap:round;stroke-width:1.5;"/>
   </g>
   <g id="line2d_40">
    <path clip-path="url(#p8e1759d209)" d="M 207.48 120.2508 
L 207.48 113.2758 
L 207.48 106.3008 
" style="fill:none;stroke:#000000;stroke-linecap:round;stroke-width:1.5;"/>
   </g>
   <g id="line2d_41">
    <path clip-path="url(#p8e1759d209)" d="M 213.96 36.5508 
L 241.5 36.5508 
L 269.04 36.5508 
" style="fill:none;stroke:#000000;stroke-linecap:round;stroke-width:1.5;"/>
   </g>
   <g id="text_1">
    <!-- $A$ -->
    <defs>
     <path d="M 34.1875 63.1875 
L 20.796875 26.90625 
L 47.609375 26.90625 
z
M 28.609375 72.90625 
L 39.796875 72.90625 
L 67.578125 0 
L 57.328125 0 
L 50.6875 18.703125 
L 17.828125 18.703125 
L 11.1875 0 
L 0.78125 0 
z
" id="DejaVuSans-65"/>
    </defs>
    <g transform="translate(18.24 27.0158)scale(0.16 -0.16)">
     <use transform="translate(0 0.09375)" xlink:href="#DejaVuSans-65"/>
    </g>
   </g>
   <g id="text_2">
    <!-- $B$ -->
    <defs>
     <path d="M 19.671875 34.8125 
L 19.671875 8.109375 
L 35.5 8.109375 
Q 43.453125 8.109375 47.28125 11.40625 
Q 51.125 14.703125 51.125 21.484375 
Q 51.125 28.328125 47.28125 31.5625 
Q 43.453125 34.8125 35.5 34.8125 
z
M 19.671875 64.796875 
L 19.671875 42.828125 
L 34.28125 42.828125 
Q 41.5 42.828125 45.03125 45.53125 
Q 48.578125 48.25 48.578125 53.8125 
Q 48.578125 59.328125 45.03125 62.0625 
Q 41.5 64.796875 34.28125 64.796875 
z
M 9.8125 72.90625 
L 35.015625 72.90625 
Q 46.296875 72.90625 52.390625 68.21875 
Q 58.5 63.53125 58.5 54.890625 
Q 58.5 48.1875 55.375 44.234375 
Q 52.25 40.28125 46.1875 39.3125 
Q 53.46875 37.75 57.5 32.78125 
Q 61.53125 27.828125 61.53125 20.40625 
Q 61.53125 10.640625 54.890625 5.3125 
Q 48.25 0 35.984375 0 
L 9.8125 0 
z
" id="DejaVuSans-66"/>
    </defs>
    <g transform="translate(18.24 40.9658)scale(0.16 -0.16)">
     <use transform="translate(0 0.09375)" xlink:href="#DejaVuSans-66"/>
    </g>
   </g>
   <g id="text_3">
    <!-- $C_{in}$ -->
    <defs>
     <path d="M 64.40625 67.28125 
L 64.40625 56.890625 
Q 59.421875 61.53125 53.78125 63.8125 
Q 48.140625 66.109375 41.796875 66.109375 
Q 29.296875 66.109375 22.65625 58.46875 
Q 16.015625 50.828125 16.015625 36.375 
Q 16.015625 21.96875 22.65625 14.328125 
Q 29.296875 6.6875 41.796875 6.6875 
Q 48.140625 6.6875 53.78125 8.984375 
Q 59.421875 11.28125 64.40625 15.921875 
L 64.40625 5.609375 
Q 59.234375 2.09375 53.4375 0.328125 
Q 47.65625 -1.421875 41.21875 -1.421875 
Q 24.65625 -1.421875 15.125 8.703125 
Q 5.609375 18.84375 5.609375 36.375 
Q 5.609375 53.953125 15.125 64.078125 
Q 24.65625 74.21875 41.21875 74.21875 
Q 47.75 74.21875 53.53125 72.484375 
Q 59.328125 70.75 64.40625 67.28125 
z
" id="DejaVuSans-67"/>
     <path d="M 9.421875 54.6875 
L 18.40625 54.6875 
L 18.40625 0 
L 9.421875 0 
z
M 9.421875 75.984375 
L 18.40625 75.984375 
L 18.40625 64.59375 
L 9.421875 64.59375 
z
" id="DejaVuSans-105"/>
     <path d="M 54.890625 33.015625 
L 54.890625 0 
L 45.90625 0 
L 45.90625 32.71875 
Q 45.90625 40.484375 42.875 44.328125 
Q 39.84375 48.1875 33.796875 48.1875 
Q 26.515625 48.1875 22.3125 43.546875 
Q 18.109375 38.921875 18.109375 30.90625 
L 18.109375 0 
L 9.078125 0 
L 9.078125 54.6875 
L 18.109375 54.6875 
L 18.109375 46.1875 
Q 21.34375 51.125 25.703125 53.5625 
Q 30.078125 56 35.796875 56 
Q 45.21875 56 50.046875 50.171875 
Q 54.890625 44.34375 54.890625 33.015625 
z
" id="DejaVuSans-110"/>
    </defs>
    <g transform="translate(7.2 61.8908)scale(0.16 -0.16)">
     <use transform="translate(0 0.78125)" xlink:href="#DejaVuSans-67"/>
     <use transform="translate(70.78125 -15.625)scale(0.7)" xlink:href="#DejaVuSans-105"/>
     <use transform="translate(90.229492 -15.625)scale(0.7)" xlink:href="#DejaVuSans-110"/>
    </g>
   </g>
   <g id="text_4">
    <!-- $C_{out}$ -->
    <defs>
     <path d="M 30.609375 48.390625 
Q 23.390625 48.390625 19.1875 42.75 
Q 14.984375 37.109375 14.984375 27.296875 
Q 14.984375 17.484375 19.15625 11.84375 
Q 23.34375 6.203125 30.609375 6.203125 
Q 37.796875 6.203125 41.984375 11.859375 
Q 46.1875 17.53125 46.1875 27.296875 
Q 46.1875 37.015625 41.984375 42.703125 
Q 37.796875 48.390625 30.609375 48.390625 
z
M 30.609375 56 
Q 42.328125 56 49.015625 48.375 
Q 55.71875 40.765625 55.71875 27.296875 
Q 55.71875 13.875 49.015625 6.21875 
Q 42.328125 -1.421875 30.609375 -1.421875 
Q 18.84375 -1.421875 12.171875 6.21875 
Q 5.515625 13.875 5.515625 27.296875 
Q 5.515625 40.765625 12.171875 48.375 
Q 18.84375 56 30.609375 56 
z
" id="DejaVuSans-111"/>
     <path d="M 8.5 21.578125 
L 8.5 54.6875 
L 17.484375 54.6875 
L 17.484375 21.921875 
Q 17.484375 14.15625 20.5 10.265625 
Q 23.53125 6.390625 29.59375 6.390625 
Q 36.859375 6.390625 41.078125 11.03125 
Q 45.3125 15.671875 45.3125 23.6875 
L 45.3125 54.6875 
L 54.296875 54.6875 
L 54.296875 0 
L 45.3125 0 
L 45.3125 8.40625 
Q 42.046875 3.421875 37.71875 1 
Q 33.40625 -1.421875 27.6875 -1.421875 
Q 18.265625 -1.421875 13.375 4.4375 
Q 8.5 10.296875 8.5 21.578125 
z
M 31.109375 56 
z
" id="DejaVuSans-117"/>
     <path d="M 18.3125 70.21875 
L 18.3125 54.6875 
L 36.8125 54.6875 
L 36.8125 47.703125 
L 18.3125 47.703125 
L 18.3125 18.015625 
Q 18.3125 11.328125 20.140625 9.421875 
Q 21.96875 7.515625 27.59375 7.515625 
L 36.8125 7.515625 
L 36.8125 0 
L 27.59375 0 
Q 17.1875 0 13.234375 3.875 
Q 9.28125 7.765625 9.28125 18.015625 
L 9.28125 47.703125 
L 2.6875 47.703125 
L 2.6875 54.6875 
L 9.28125 54.6875 
L 9.28125 70.21875 
z
" id="DejaVuSans-116"/>
    </defs>
    <g transform="translate(272.28 103.7408)scale(0.16 -0.16)">
     <use transform="translate(0 0.78125)" xlink:href="#DejaVuSans-67"/>
     <use transform="translate(70.78125 -15.625)scale(0.7)" xlink:href="#DejaVuSans-111"/>
     <use transform="translate(113.608398 -15.625)scale(0.7)" xlink:href="#DejaVuSans-117"/>
     <use transform="translate(157.973633 -15.625)scale(0.7)" xlink:href="#DejaVuSans-116"/>
    </g>
   </g>
   <g id="text_5">
    <!-- $S$ -->
    <defs>
     <path d="M 53.515625 70.515625 
L 53.515625 60.890625 
Q 47.90625 63.578125 42.921875 64.890625 
Q 37.9375 66.21875 33.296875 66.21875 
Q 25.25 66.21875 20.875 63.09375 
Q 16.5 59.96875 16.5 54.203125 
Q 16.5 49.359375 19.40625 46.890625 
Q 22.3125 44.4375 30.421875 42.921875 
L 36.375 41.703125 
Q 47.40625 39.59375 52.65625 34.296875 
Q 57.90625 29 57.90625 20.125 
Q 57.90625 9.515625 50.796875 4.046875 
Q 43.703125 -1.421875 29.984375 -1.421875 
Q 24.8125 -1.421875 18.96875 -0.25 
Q 13.140625 0.921875 6.890625 3.21875 
L 6.890625 13.375 
Q 12.890625 10.015625 18.65625 8.296875 
Q 24.421875 6.59375 29.984375 6.59375 
Q 38.421875 6.59375 43.015625 9.90625 
Q 47.609375 13.234375 47.609375 19.390625 
Q 47.609375 24.75 44.3125 27.78125 
Q 41.015625 30.8125 33.5 32.328125 
L 27.484375 33.5 
Q 16.453125 35.6875 11.515625 40.375 
Q 6.59375 45.0625 6.59375 53.421875 
Q 6.59375 63.09375 13.40625 68.65625 
Q 20.21875 74.21875 32.171875 74.21875 
Q 37.3125 74.21875 42.625 73.28125 
Q 47.953125 72.359375 53.515625 70.515625 
z
" id="DejaVuSans-83"/>
    </defs>
    <g transform="translate(272.28 40.9658)scale(0.16 -0.16)">
     <use transform="translate(0 0.78125)" xlink:href="#DejaVuSans-83"/>
    </g>
   </g>
  </g>
 </g>
 <defs>
  <clipPath id="p8e1759d209">
   <rect height="135.7056" width="266.652" x="17.454" y="7.2"/>
  </clipPath>
 </defs>
</svg>
