<?xml version="1.0" encoding="utf-8" standalone="no"?>
<!DOCTYPE svg PUBLIC "-//W3C//DTD SVG 1.1//EN"
  "http://www.w3.org/Graphics/SVG/1.1/DTD/svg11.dtd">
<!-- Created with matplotlib (http://matplotlib.org/) -->
<svg height="138pt" version="1.1" viewBox="0 0 308 138" width="308pt" xmlns="http://www.w3.org/2000/svg" xmlns:xlink="http://www.w3.org/1999/xlink">
 <defs>
  <style type="text/css">
*{stroke-linecap:butt;stroke-linejoin:round;}
  </style>
 </defs>
 <g id="figure_1">
  <g id="patch_1">
   <path d="
M0 138.276
L308.44 138.276
L308.44 0
L0 0
L0 138.276" style="fill:none;"/>
  </g>
  <g id="axes_1">
   <g id="patch_2">
    <path clip-path="url(#p5d0a3384fd)" d="
M179.3 86.436
C183.595 86.436 187.718 84.9653 190.755 82.3501
C193.792 79.735 195.5 76.1844 195.5 72.486
C195.5 68.7876 193.792 65.237 190.755 62.6219
C187.718 60.0067 183.595 58.536 179.3 58.536" style="fill:none;stroke:#000000;stroke-linejoin:miter;stroke-width:1.5;"/>
   </g>
   <g id="patch_3">
    <path clip-path="url(#p5d0a3384fd)" d="
M179.3 128.286
C183.595 128.286 187.718 126.815 190.755 124.2
C193.792 121.585 195.5 118.034 195.5 114.336
C195.5 110.638 193.792 107.087 190.755 104.472
C187.718 101.857 183.595 100.386 179.3 100.386" style="fill:none;stroke:#000000;stroke-linejoin:miter;stroke-width:1.5;"/>
   </g>
   <g id="line2d_1">
    <path clip-path="url(#p5d0a3384fd)" d="
M64.28 23.661
M119.36 23.661
L130.7 23.661" style="fill:none;stroke:#000000;stroke-linecap:round;stroke-width:1.5;"/>
   </g>
   <g id="line2d_2">
    <path clip-path="url(#p5d0a3384fd)" d="
M80.48 37.332
L96.68 37.332
L97.1429 37.3263
L97.6057 37.3092
L98.0686 37.2808
L98.5314 37.2409
L98.9943 37.1897
L99.4571 37.127
L99.92 37.053
L100.383 36.9676
L100.846 36.8708
L101.309 36.7626
L101.771 36.643
L102.234 36.5121
L102.697 36.3697
L103.16 36.216
L103.623 36.0509
L104.086 35.8744
L104.549 35.6865
L105.011 35.4872
L105.474 35.2765
L105.937 35.0544
L106.4 34.821
L106.863 34.5762
L107.326 34.3199
L107.789 34.0523
L108.251 33.7733
L108.714 33.4829
L109.177 33.1812
L109.64 32.868
L110.103 32.5434
L110.566 32.2075
L111.029 31.8602
L111.491 31.5015
L111.954 31.1314
L112.417 30.7499
L112.88 30.357
L113.343 29.9527
L113.806 29.5371
L114.269 29.11
L114.731 28.6716
L115.194 28.2218
L115.657 27.7606
L116.12 27.288
L116.583 26.804
L117.046 26.3087
L117.509 25.8019
L117.971 25.2838
L118.434 24.7542
L118.897 24.2133
L119.36 23.661" style="fill:none;stroke:#000000;stroke-linecap:round;stroke-width:1.5;"/>
   </g>
   <g id="line2d_3">
    <path clip-path="url(#p5d0a3384fd)" d="
M80.48 9.99
L96.68 9.99
L97.1429 9.99569
L97.6057 10.0128
L98.0686 10.0412
L98.5314 10.0811
L98.9943 10.1323
L99.4571 10.195
L99.92 10.269
L100.383 10.3544
L100.846 10.4512
L101.309 10.5594
L101.771 10.679
L102.234 10.8099
L102.697 10.9523
L103.16 11.106
L103.623 11.2711
L104.086 11.4476
L104.549 11.6355
L105.011 11.8348
L105.474 12.0455
L105.937 12.2676
L106.4 12.501
L106.863 12.7458
L107.326 13.0021
L107.789 13.2697
L108.251 13.5487
L108.714 13.8391
L109.177 14.1408
L109.64 14.454
L110.103 14.7786
L110.566 15.1145
L111.029 15.4618
L111.491 15.8205
L111.954 16.1906
L112.417 16.5721
L112.88 16.965
L113.343 17.3693
L113.806 17.7849
L114.269 18.212
L114.731 18.6504
L115.194 19.1002
L115.657 19.5614
L116.12 20.034
L116.583 20.518
L117.046 21.0133
L117.509 21.5201
L117.971 22.0382
L118.434 22.5678
L118.897 23.1087
L119.36 23.661" style="fill:none;stroke:#000000;stroke-linecap:round;stroke-width:1.5;"/>
   </g>
   <g id="line2d_4">
    <path clip-path="url(#p5d0a3384fd)" d="
M75.62 37.332
L76.2421 36.774
L76.8382 36.216
L77.4085 35.658
L77.9528 35.1
L78.4712 34.542
L78.9637 33.984
L79.4302 33.426
L79.8709 32.868
L80.2856 32.31
L80.6744 31.752
L81.0373 31.194
L81.3742 30.636
L81.6853 30.078
L81.9704 29.52
L82.2296 28.962
L82.4629 28.404
L82.6702 27.846
L82.8517 27.288
L83.0072 26.73
L83.1368 26.172
L83.2405 25.614
L83.3182 25.056
L83.3701 24.498
L83.396 23.94
L83.396 23.382
L83.3701 22.824
L83.3182 22.266
L83.2405 21.708
L83.1368 21.15
L83.0072 20.592
L82.8517 20.034
L82.6702 19.476
L82.4629 18.918
L82.2296 18.36
L81.9704 17.802
L81.6853 17.244
L81.3742 16.686
L81.0373 16.128
L80.6744 15.57
L80.2856 15.012
L79.8709 14.454
L79.4302 13.896
L78.9637 13.338
L78.4712 12.78
L77.9528 12.222
L77.4085 11.664
L76.8382 11.106
L76.2421 10.548
L75.62 9.99" style="fill:none;stroke:#000000;stroke-linecap:round;stroke-width:1.5;"/>
   </g>
   <g id="line2d_5">
    <path clip-path="url(#p5d0a3384fd)" d="
M80.48 37.332
L81.1021 36.774
L81.6982 36.216
L82.2685 35.658
L82.8128 35.1
L83.3312 34.542
L83.8237 33.984
L84.2902 33.426
L84.7309 32.868
L85.1456 32.31
L85.5344 31.752
L85.8973 31.194
L86.2342 30.636
L86.5453 30.078
L86.8304 29.52
L87.0896 28.962
L87.3229 28.404
L87.5302 27.846
L87.7117 27.288
L87.8672 26.73
L87.9968 26.172
L88.1005 25.614
L88.1782 25.056
L88.2301 24.498
L88.256 23.94
L88.256 23.382
L88.2301 22.824
L88.1782 22.266
L88.1005 21.708
L87.9968 21.15
L87.8672 20.592
L87.7117 20.034
L87.5302 19.476
L87.3229 18.918
L87.0896 18.36
L86.8304 17.802
L86.5453 17.244
L86.2342 16.686
L85.8973 16.128
L85.5344 15.57
L85.1456 15.012
L84.7309 14.454
L84.2902 13.896
L83.8237 13.338
L83.3312 12.78
L82.8128 12.222
L82.2685 11.664
L81.6982 11.106
L81.1021 10.548
L80.48 9.99" style="fill:none;stroke:#000000;stroke-linecap:round;stroke-width:1.5;"/>
   </g>
   <g id="line2d_6">
    <path clip-path="url(#p5d0a3384fd)" d="
M64.28 30.636
L81.3742 30.636" style="fill:none;stroke:#000000;stroke-linecap:round;stroke-width:1.5;"/>
   </g>
   <g id="line2d_7">
    <path clip-path="url(#p5d0a3384fd)" d="
M64.28 16.686
L81.3742 16.686" style="fill:none;stroke:#000000;stroke-linecap:round;stroke-width:1.5;"/>
   </g>
   <g id="line2d_8">
    <path clip-path="url(#p5d0a3384fd)" d="
M130.7 23.661" style="fill:none;stroke:#000000;stroke-linecap:round;stroke-width:1.5;"/>
   </g>
   <g id="line2d_9">
    <path clip-path="url(#p5d0a3384fd)" d="
M64.28 16.686" style="fill:none;stroke:#000000;stroke-linecap:round;stroke-width:1.5;"/>
   </g>
   <g id="line2d_10">
    <path clip-path="url(#p5d0a3384fd)" d="
M64.28 16.686
L48.08 16.686
L31.88 16.686" style="fill:none;stroke:#000000;stroke-linecap:round;stroke-width:1.5;"/>
   </g>
   <g id="line2d_11">
    <path clip-path="url(#p5d0a3384fd)" d="
M64.28 30.636
L56.18 30.636
L48.08 30.636" style="fill:none;stroke:#000000;stroke-linecap:round;stroke-width:1.5;"/>
   </g>
   <g id="line2d_12">
    <path clip-path="url(#p5d0a3384fd)" d="
M48.08 30.636" style="fill:none;stroke:#000000;stroke-linecap:round;stroke-width:1.5;"/>
   </g>
   <g id="line2d_13">
    <path clip-path="url(#p5d0a3384fd)" d="
M48.08 30.636
L39.98 30.636
L31.88 30.636" style="fill:none;stroke:#000000;stroke-linecap:round;stroke-width:1.5;"/>
   </g>
   <g id="line2d_14">
    <path clip-path="url(#p5d0a3384fd)" d="
M130.7 23.661
L138.8 23.661
L146.9 23.661" style="fill:none;stroke:#000000;stroke-linecap:round;stroke-width:1.5;"/>
   </g>
   <g id="line2d_15">
    <path clip-path="url(#p5d0a3384fd)" d="
M146.9 30.636
M201.98 30.636
L213.32 30.636" style="fill:none;stroke:#000000;stroke-linecap:round;stroke-width:1.5;"/>
   </g>
   <g id="line2d_16">
    <path clip-path="url(#p5d0a3384fd)" d="
M163.1 44.307
L179.3 44.307
L179.763 44.3013
L180.226 44.2842
L180.689 44.2558
L181.151 44.2159
L181.614 44.1647
L182.077 44.102
L182.54 44.028
L183.003 43.9426
L183.466 43.8458
L183.929 43.7376
L184.391 43.618
L184.854 43.4871
L185.317 43.3447
L185.78 43.191
L186.243 43.0259
L186.706 42.8494
L187.169 42.6615
L187.631 42.4622
L188.094 42.2515
L188.557 42.0294
L189.02 41.796
L189.483 41.5512
L189.946 41.2949
L190.409 41.0273
L190.871 40.7483
L191.334 40.4579
L191.797 40.1562
L192.26 39.843
L192.723 39.5184
L193.186 39.1825
L193.649 38.8352
L194.111 38.4765
L194.574 38.1064
L195.037 37.7249
L195.5 37.332
L195.963 36.9277
L196.426 36.5121
L196.889 36.085
L197.351 35.6466
L197.814 35.1968
L198.277 34.7356
L198.74 34.263
L199.203 33.779
L199.666 33.2837
L200.129 32.7769
L200.591 32.2588
L201.054 31.7292
L201.517 31.1883
L201.98 30.636" style="fill:none;stroke:#000000;stroke-linecap:round;stroke-width:1.5;"/>
   </g>
   <g id="line2d_17">
    <path clip-path="url(#p5d0a3384fd)" d="
M163.1 16.965
L179.3 16.965
L179.763 16.9707
L180.226 16.9878
L180.689 17.0162
L181.151 17.0561
L181.614 17.1073
L182.077 17.17
L182.54 17.244
L183.003 17.3294
L183.466 17.4262
L183.929 17.5344
L184.391 17.654
L184.854 17.7849
L185.317 17.9273
L185.78 18.081
L186.243 18.2461
L186.706 18.4226
L187.169 18.6105
L187.631 18.8098
L188.094 19.0205
L188.557 19.2426
L189.02 19.476
L189.483 19.7208
L189.946 19.9771
L190.409 20.2447
L190.871 20.5237
L191.334 20.8141
L191.797 21.1158
L192.26 21.429
L192.723 21.7536
L193.186 22.0895
L193.649 22.4368
L194.111 22.7955
L194.574 23.1656
L195.037 23.5471
L195.5 23.94
L195.963 24.3443
L196.426 24.7599
L196.889 25.187
L197.351 25.6254
L197.814 26.0752
L198.277 26.5364
L198.74 27.009
L199.203 27.493
L199.666 27.9883
L200.129 28.4951
L200.591 29.0132
L201.054 29.5428
L201.517 30.0837
L201.98 30.636" style="fill:none;stroke:#000000;stroke-linecap:round;stroke-width:1.5;"/>
   </g>
   <g id="line2d_18">
    <path clip-path="url(#p5d0a3384fd)" d="
M158.24 44.307
L158.862 43.749
L159.458 43.191
L160.028 42.633
L160.573 42.075
L161.091 41.517
L161.584 40.959
L162.05 40.401
L162.491 39.843
L162.906 39.285
L163.294 38.727
L163.657 38.169
L163.994 37.611
L164.305 37.053
L164.59 36.495
L164.85 35.937
L165.083 35.379
L165.29 34.821
L165.472 34.263
L165.627 33.705
L165.757 33.147
L165.86 32.589
L165.938 32.031
L165.99 31.473
L166.016 30.915
L166.016 30.357
L165.99 29.799
L165.938 29.241
L165.86 28.683
L165.757 28.125
L165.627 27.567
L165.472 27.009
L165.29 26.451
L165.083 25.893
L164.85 25.335
L164.59 24.777
L164.305 24.219
L163.994 23.661
L163.657 23.103
L163.294 22.545
L162.906 21.987
L162.491 21.429
L162.05 20.871
L161.584 20.313
L161.091 19.755
L160.573 19.197
L160.028 18.639
L159.458 18.081
L158.862 17.523
L158.24 16.965" style="fill:none;stroke:#000000;stroke-linecap:round;stroke-width:1.5;"/>
   </g>
   <g id="line2d_19">
    <path clip-path="url(#p5d0a3384fd)" d="
M163.1 44.307
L163.722 43.749
L164.318 43.191
L164.888 42.633
L165.433 42.075
L165.951 41.517
L166.444 40.959
L166.91 40.401
L167.351 39.843
L167.766 39.285
L168.154 38.727
L168.517 38.169
L168.854 37.611
L169.165 37.053
L169.45 36.495
L169.71 35.937
L169.943 35.379
L170.15 34.821
L170.332 34.263
L170.487 33.705
L170.617 33.147
L170.72 32.589
L170.798 32.031
L170.85 31.473
L170.876 30.915
L170.876 30.357
L170.85 29.799
L170.798 29.241
L170.72 28.683
L170.617 28.125
L170.487 27.567
L170.332 27.009
L170.15 26.451
L169.943 25.893
L169.71 25.335
L169.45 24.777
L169.165 24.219
L168.854 23.661
L168.517 23.103
L168.154 22.545
L167.766 21.987
L167.351 21.429
L166.91 20.871
L166.444 20.313
L165.951 19.755
L165.433 19.197
L164.888 18.639
L164.318 18.081
L163.722 17.523
L163.1 16.965" style="fill:none;stroke:#000000;stroke-linecap:round;stroke-width:1.5;"/>
   </g>
   <g id="line2d_20">
    <path clip-path="url(#p5d0a3384fd)" d="
M146.9 37.611
L163.994 37.611" style="fill:none;stroke:#000000;stroke-linecap:round;stroke-width:1.5;"/>
   </g>
   <g id="line2d_21">
    <path clip-path="url(#p5d0a3384fd)" d="
M146.9 23.661
L163.994 23.661" style="fill:none;stroke:#000000;stroke-linecap:round;stroke-width:1.5;"/>
   </g>
   <g id="line2d_22">
    <path clip-path="url(#p5d0a3384fd)" d="
M146.9 37.611
L146.9 51.561
L146.9 65.511" style="fill:none;stroke:#000000;stroke-linecap:round;stroke-width:1.5;"/>
   </g>
   <g id="line2d_23">
    <path clip-path="url(#p5d0a3384fd)" d="
M146.9 51.561" style="fill:none;stroke:#000000;stroke-linecap:round;stroke-width:1.5;"/>
   </g>
   <g id="line2d_24">
    <path clip-path="url(#p5d0a3384fd)" d="
M146.9 51.561
L89.39 51.561
L31.88 51.561" style="fill:none;stroke:#000000;stroke-linecap:round;stroke-width:1.5;"/>
   </g>
   <g id="line2d_25">
    <path clip-path="url(#p5d0a3384fd)" d="
M146.9 72.486
M195.5 72.486
L206.84 72.486" style="fill:none;stroke:#000000;stroke-linecap:round;stroke-width:1.5;"/>
   </g>
   <g id="line2d_26">
    <path clip-path="url(#p5d0a3384fd)" d="
M158.24 72.486
L158.24 86.436
L179.3 86.436" style="fill:none;stroke:#000000;stroke-linecap:round;stroke-width:1.5;"/>
   </g>
   <g id="line2d_27">
    <path clip-path="url(#p5d0a3384fd)" d="
M158.24 72.486
L158.24 58.536
L179.3 58.536" style="fill:none;stroke:#000000;stroke-linecap:round;stroke-width:1.5;"/>
   </g>
   <g id="line2d_28">
    <path clip-path="url(#p5d0a3384fd)" d="
M146.9 79.461
L158.24 79.461" style="fill:none;stroke:#000000;stroke-linecap:round;stroke-width:1.5;"/>
   </g>
   <g id="line2d_29">
    <path clip-path="url(#p5d0a3384fd)" d="
M146.9 65.511
L158.24 65.511" style="fill:none;stroke:#000000;stroke-linecap:round;stroke-width:1.5;"/>
   </g>
   <g id="line2d_30">
    <path clip-path="url(#p5d0a3384fd)" d="
M146.9 79.461
L138.8 79.461
L130.7 79.461" style="fill:none;stroke:#000000;stroke-linecap:round;stroke-width:1.5;"/>
   </g>
   <g id="line2d_31">
    <path clip-path="url(#p5d0a3384fd)" d="
M130.7 79.461
L130.7 51.561
L130.7 23.661" style="fill:none;stroke:#000000;stroke-linecap:round;stroke-width:1.5;"/>
   </g>
   <g id="line2d_32">
    <path clip-path="url(#p5d0a3384fd)" d="
M146.9 114.336
M195.5 114.336
L206.84 114.336" style="fill:none;stroke:#000000;stroke-linecap:round;stroke-width:1.5;"/>
   </g>
   <g id="line2d_33">
    <path clip-path="url(#p5d0a3384fd)" d="
M158.24 114.336
L158.24 128.286
L179.3 128.286" style="fill:none;stroke:#000000;stroke-linecap:round;stroke-width:1.5;"/>
   </g>
   <g id="line2d_34">
    <path clip-path="url(#p5d0a3384fd)" d="
M158.24 114.336
L158.24 100.386
L179.3 100.386" style="fill:none;stroke:#000000;stroke-linecap:round;stroke-width:1.5;"/>
   </g>
   <g id="line2d_35">
    <path clip-path="url(#p5d0a3384fd)" d="
M146.9 121.311
L158.24 121.311" style="fill:none;stroke:#000000;stroke-linecap:round;stroke-width:1.5;"/>
   </g>
   <g id="line2d_36">
    <path clip-path="url(#p5d0a3384fd)" d="
M146.9 107.361
L158.24 107.361" style="fill:none;stroke:#000000;stroke-linecap:round;stroke-width:1.5;"/>
   </g>
   <g id="line2d_37">
    <path clip-path="url(#p5d0a3384fd)" d="
M146.9 107.361
L105.59 107.361
L64.28 107.361" style="fill:none;stroke:#000000;stroke-linecap:round;stroke-width:1.5;"/>
   </g>
   <g id="line2d_38">
    <path clip-path="url(#p5d0a3384fd)" d="
M64.28 107.361
L64.28 62.0235
L64.28 16.686" style="fill:none;stroke:#000000;stroke-linecap:round;stroke-width:1.5;"/>
   </g>
   <g id="line2d_39">
    <path clip-path="url(#p5d0a3384fd)" d="
M146.9 121.311
L97.49 121.311
L48.08 121.311" style="fill:none;stroke:#000000;stroke-linecap:round;stroke-width:1.5;"/>
   </g>
   <g id="line2d_40">
    <path clip-path="url(#p5d0a3384fd)" d="
M48.08 121.311
L48.08 75.9735
L48.08 30.636" style="fill:none;stroke:#000000;stroke-linecap:round;stroke-width:1.5;"/>
   </g>
   <g id="line2d_41">
    <path clip-path="url(#p5d0a3384fd)" d="
M206.84 93.411
M257.06 93.411
L268.4 93.411" style="fill:none;stroke:#000000;stroke-linecap:round;stroke-width:1.5;"/>
   </g>
   <g id="line2d_42">
    <path clip-path="url(#p5d0a3384fd)" d="
M218.18 107.082
L234.38 107.082
L234.843 107.076
L235.306 107.059
L235.769 107.031
L236.231 106.991
L236.694 106.94
L237.157 106.877
L237.62 106.803
L238.083 106.718
L238.546 106.621
L239.009 106.513
L239.471 106.393
L239.934 106.262
L240.397 106.12
L240.86 105.966
L241.323 105.801
L241.786 105.624
L242.249 105.436
L242.711 105.237
L243.174 105.027
L243.637 104.804
L244.1 104.571
L244.563 104.326
L245.026 104.07
L245.489 103.802
L245.951 103.523
L246.414 103.233
L246.877 102.931
L247.34 102.618
L247.803 102.293
L248.266 101.958
L248.729 101.61
L249.191 101.251
L249.654 100.881
L250.117 100.5
L250.58 100.107
L251.043 99.7027
L251.506 99.2871
L251.969 98.86
L252.431 98.4216
L252.894 97.9718
L253.357 97.5106
L253.82 97.038
L254.283 96.554
L254.746 96.0587
L255.209 95.5519
L255.671 95.0338
L256.134 94.5042
L256.597 93.9633
L257.06 93.411" style="fill:none;stroke:#000000;stroke-linecap:round;stroke-width:1.5;"/>
   </g>
   <g id="line2d_43">
    <path clip-path="url(#p5d0a3384fd)" d="
M218.18 79.74
L234.38 79.74
L234.843 79.7457
L235.306 79.7628
L235.769 79.7912
L236.231 79.8311
L236.694 79.8823
L237.157 79.945
L237.62 80.019
L238.083 80.1044
L238.546 80.2012
L239.009 80.3094
L239.471 80.429
L239.934 80.5599
L240.397 80.7023
L240.86 80.856
L241.323 81.0211
L241.786 81.1976
L242.249 81.3855
L242.711 81.5848
L243.174 81.7955
L243.637 82.0176
L244.1 82.251
L244.563 82.4958
L245.026 82.7521
L245.489 83.0197
L245.951 83.2987
L246.414 83.5891
L246.877 83.8908
L247.34 84.204
L247.803 84.5286
L248.266 84.8645
L248.729 85.2118
L249.191 85.5705
L249.654 85.9406
L250.117 86.3221
L250.58 86.715
L251.043 87.1193
L251.506 87.5349
L251.969 87.962
L252.431 88.4004
L252.894 88.8502
L253.357 89.3114
L253.82 89.784
L254.283 90.268
L254.746 90.7633
L255.209 91.2701
L255.671 91.7882
L256.134 92.3178
L256.597 92.8587
L257.06 93.411" style="fill:none;stroke:#000000;stroke-linecap:round;stroke-width:1.5;"/>
   </g>
   <g id="line2d_44">
    <path clip-path="url(#p5d0a3384fd)" d="
M218.18 107.082
L218.802 106.524
L219.398 105.966
L219.968 105.408
L220.513 104.85
L221.031 104.292
L221.524 103.734
L221.99 103.176
L222.431 102.618
L222.846 102.06
L223.234 101.502
L223.597 100.944
L223.934 100.386
L224.245 99.828
L224.53 99.27
L224.79 98.712
L225.023 98.154
L225.23 97.596
L225.412 97.038
L225.567 96.48
L225.697 95.922
L225.8 95.364
L225.878 94.806
L225.93 94.248
L225.956 93.69
L225.956 93.132
L225.93 92.574
L225.878 92.016
L225.8 91.458
L225.697 90.9
L225.567 90.342
L225.412 89.784
L225.23 89.226
L225.023 88.668
L224.79 88.11
L224.53 87.552
L224.245 86.994
L223.934 86.436
L223.597 85.878
L223.234 85.32
L222.846 84.762
L222.431 84.204
L221.99 83.646
L221.524 83.088
L221.031 82.53
L220.513 81.972
L219.968 81.414
L219.398 80.856
L218.802 80.298
L218.18 79.74" style="fill:none;stroke:#000000;stroke-linecap:round;stroke-width:1.5;"/>
   </g>
   <g id="line2d_45">
    <path clip-path="url(#p5d0a3384fd)" d="
M206.84 100.386
L223.934 100.386" style="fill:none;stroke:#000000;stroke-linecap:round;stroke-width:1.5;"/>
   </g>
   <g id="line2d_46">
    <path clip-path="url(#p5d0a3384fd)" d="
M206.84 86.436
L223.934 86.436" style="fill:none;stroke:#000000;stroke-linecap:round;stroke-width:1.5;"/>
   </g>
   <g id="line2d_47">
    <path clip-path="url(#p5d0a3384fd)" d="
M206.84 72.486
L206.84 79.461
L206.84 86.436" style="fill:none;stroke:#000000;stroke-linecap:round;stroke-width:1.5;"/>
   </g>
   <g id="line2d_48">
    <path clip-path="url(#p5d0a3384fd)" d="
M206.84 114.336
L206.84 107.361
L206.84 100.386" style="fill:none;stroke:#000000;stroke-linecap:round;stroke-width:1.5;"/>
   </g>
   <g id="line2d_49">
    <path clip-path="url(#p5d0a3384fd)" d="
M213.32 30.636
L240.86 30.636
L268.4 30.636" style="fill:none;stroke:#000000;stroke-linecap:round;stroke-width:1.5;"/>
   </g>
   <g id="patch_4">
    <path clip-path="url(#p5d0a3384fd)" d="
M130.7 25.7535
C131.344 25.7535 131.963 25.533 132.418 25.1406
C132.874 24.7482 133.13 24.2159 133.13 23.661
C133.13 23.1061 132.874 22.5738 132.418 22.1814
C131.963 21.789 131.344 21.5685 130.7 21.5685
C130.056 21.5685 129.437 21.789 128.982 22.1814
C128.526 22.5738 128.27 23.1061 128.27 23.661
C128.27 24.2159 128.526 24.7482 128.982 25.1406
C129.437 25.533 130.056 25.7535 130.7 25.7535
z
" style="stroke:#000000;stroke-linejoin:miter;stroke-width:1.5;"/>
   </g>
   <g id="patch_5">
    <path clip-path="url(#p5d0a3384fd)" d="
M64.28 18.7785
C64.9244 18.7785 65.5426 18.558 65.9983 18.1656
C66.454 17.7732 66.71 17.2409 66.71 16.686
C66.71 16.1311 66.454 15.5988 65.9983 15.2064
C65.5426 14.814 64.9244 14.5935 64.28 14.5935
C63.6356 14.5935 63.0174 14.814 62.5617 15.2064
C62.106 15.5988 61.85 16.1311 61.85 16.686
C61.85 17.2409 62.106 17.7732 62.5617 18.1656
C63.0174 18.558 63.6356 18.7785 64.28 18.7785
z
" style="stroke:#000000;stroke-linejoin:miter;stroke-width:1.5;"/>
   </g>
   <g id="patch_6">
    <path clip-path="url(#p5d0a3384fd)" d="
M48.08 32.7285
C48.7244 32.7285 49.3426 32.508 49.7983 32.1156
C50.254 31.7232 50.51 31.1909 50.51 30.636
C50.51 30.0811 50.254 29.5488 49.7983 29.1564
C49.3426 28.764 48.7244 28.5435 48.08 28.5435
C47.4356 28.5435 46.8174 28.764 46.3617 29.1564
C45.906 29.5488 45.65 30.0811 45.65 30.636
C45.65 31.1909 45.906 31.7232 46.3617 32.1156
C46.8174 32.508 47.4356 32.7285 48.08 32.7285
z
" style="stroke:#000000;stroke-linejoin:miter;stroke-width:1.5;"/>
   </g>
   <g id="patch_7">
    <path clip-path="url(#p5d0a3384fd)" d="
M146.9 53.6535
C147.544 53.6535 148.163 53.433 148.618 53.0406
C149.074 52.6482 149.33 52.1159 149.33 51.561
C149.33 51.0061 149.074 50.4738 148.618 50.0814
C148.163 49.689 147.544 49.4685 146.9 49.4685
C146.256 49.4685 145.637 49.689 145.182 50.0814
C144.726 50.4738 144.47 51.0061 144.47 51.561
C144.47 52.1159 144.726 52.6482 145.182 53.0406
C145.637 53.433 146.256 53.6535 146.9 53.6535
z
" style="stroke:#000000;stroke-linejoin:miter;stroke-width:1.5;"/>
   </g>
   <g id="text_1">
    <!-- $A$ -->
    <defs>
     <path d="
M34.1875 63.1875
L20.7969 26.9062
L47.6094 26.9062
z

M28.6094 72.9062
L39.7969 72.9062
L67.5781 0
L57.3281 0
L50.6875 18.7031
L17.8281 18.7031
L11.1875 0
L0.78125 0
z
" id="BitstreamVeraSans-Roman-41"/>
    </defs>
    <g transform="translate(17.6 21.101)scale(0.16 -0.16)">
     <use transform="translate(0.0 0.09375)" xlink:href="#BitstreamVeraSans-Roman-41"/>
    </g>
   </g>
   <g id="text_2">
    <!-- $B$ -->
    <defs>
     <path d="
M19.6719 34.8125
L19.6719 8.10938
L35.5 8.10938
Q43.4531 8.10938 47.2812 11.4062
Q51.125 14.7031 51.125 21.4844
Q51.125 28.3281 47.2812 31.5625
Q43.4531 34.8125 35.5 34.8125
z

M19.6719 64.7969
L19.6719 42.8281
L34.2812 42.8281
Q41.5 42.8281 45.0312 45.5312
Q48.5781 48.25 48.5781 53.8125
Q48.5781 59.3281 45.0312 62.0625
Q41.5 64.7969 34.2812 64.7969
z

M9.8125 72.9062
L35.0156 72.9062
Q46.2969 72.9062 52.3906 68.2188
Q58.5 63.5312 58.5 54.8906
Q58.5 48.1875 55.375 44.2344
Q52.25 40.2812 46.1875 39.3125
Q53.4688 37.75 57.5 32.7812
Q61.5312 27.8281 61.5312 20.4062
Q61.5312 10.6406 54.8906 5.3125
Q48.25 0 35.9844 0
L9.8125 0
z
" id="BitstreamVeraSans-Roman-42"/>
    </defs>
    <g transform="translate(17.6 35.051)scale(0.16 -0.16)">
     <use transform="translate(0.0 0.09375)" xlink:href="#BitstreamVeraSans-Roman-42"/>
    </g>
   </g>
   <g id="text_3">
    <!-- $C_{in}$ -->
    <defs>
     <path d="
M54.8906 33.0156
L54.8906 0
L45.9062 0
L45.9062 32.7188
Q45.9062 40.4844 42.875 44.3281
Q39.8438 48.1875 33.7969 48.1875
Q26.5156 48.1875 22.3125 43.5469
Q18.1094 38.9219 18.1094 30.9062
L18.1094 0
L9.07812 0
L9.07812 54.6875
L18.1094 54.6875
L18.1094 46.1875
Q21.3438 51.125 25.7031 53.5625
Q30.0781 56 35.7969 56
Q45.2188 56 50.0469 50.1719
Q54.8906 44.3438 54.8906 33.0156" id="BitstreamVeraSans-Roman-6e"/>
     <path d="
M64.4062 67.2812
L64.4062 56.8906
Q59.4219 61.5312 53.7812 63.8125
Q48.1406 66.1094 41.7969 66.1094
Q29.2969 66.1094 22.6562 58.4688
Q16.0156 50.8281 16.0156 36.375
Q16.0156 21.9688 22.6562 14.3281
Q29.2969 6.6875 41.7969 6.6875
Q48.1406 6.6875 53.7812 8.98438
Q59.4219 11.2812 64.4062 15.9219
L64.4062 5.60938
Q59.2344 2.09375 53.4375 0.328125
Q47.6562 -1.42188 41.2188 -1.42188
Q24.6562 -1.42188 15.125 8.70312
Q5.60938 18.8438 5.60938 36.375
Q5.60938 53.9531 15.125 64.0781
Q24.6562 74.2188 41.2188 74.2188
Q47.75 74.2188 53.5312 72.4844
Q59.3281 70.75 64.4062 67.2812" id="BitstreamVeraSans-Roman-43"/>
     <path d="
M9.42188 54.6875
L18.4062 54.6875
L18.4062 0
L9.42188 0
z

M9.42188 75.9844
L18.4062 75.9844
L18.4062 64.5938
L9.42188 64.5938
z
" id="BitstreamVeraSans-Roman-69"/>
    </defs>
    <g transform="translate(7.2 55.001)scale(0.16 -0.16)">
     <use transform="translate(0.0 0.78125)" xlink:href="#BitstreamVeraSans-Roman-43"/>
     <use transform="translate(69.82421875 -30.71875)scale(0.7)" xlink:href="#BitstreamVeraSans-Roman-69"/>
     <use transform="translate(89.2724609375 -30.71875)scale(0.7)" xlink:href="#BitstreamVeraSans-Roman-6e"/>
    </g>
   </g>
   <g id="text_4">
    <!-- $C_{out}$ -->
    <defs>
     <path d="
M30.6094 48.3906
Q23.3906 48.3906 19.1875 42.75
Q14.9844 37.1094 14.9844 27.2969
Q14.9844 17.4844 19.1562 11.8438
Q23.3438 6.20312 30.6094 6.20312
Q37.7969 6.20312 41.9844 11.8594
Q46.1875 17.5312 46.1875 27.2969
Q46.1875 37.0156 41.9844 42.7031
Q37.7969 48.3906 30.6094 48.3906
M30.6094 56
Q42.3281 56 49.0156 48.375
Q55.7188 40.7656 55.7188 27.2969
Q55.7188 13.875 49.0156 6.21875
Q42.3281 -1.42188 30.6094 -1.42188
Q18.8438 -1.42188 12.1719 6.21875
Q5.51562 13.875 5.51562 27.2969
Q5.51562 40.7656 12.1719 48.375
Q18.8438 56 30.6094 56" id="BitstreamVeraSans-Roman-6f"/>
     <path d="
M18.3125 70.2188
L18.3125 54.6875
L36.8125 54.6875
L36.8125 47.7031
L18.3125 47.7031
L18.3125 18.0156
Q18.3125 11.3281 20.1406 9.42188
Q21.9688 7.51562 27.5938 7.51562
L36.8125 7.51562
L36.8125 0
L27.5938 0
Q17.1875 0 13.2344 3.875
Q9.28125 7.76562 9.28125 18.0156
L9.28125 47.7031
L2.6875 47.7031
L2.6875 54.6875
L9.28125 54.6875
L9.28125 70.2188
z
" id="BitstreamVeraSans-Roman-74"/>
     <path d="
M8.5 21.5781
L8.5 54.6875
L17.4844 54.6875
L17.4844 21.9219
Q17.4844 14.1562 20.5 10.2656
Q23.5312 6.39062 29.5938 6.39062
Q36.8594 6.39062 41.0781 11.0312
Q45.3125 15.6719 45.3125 23.6875
L45.3125 54.6875
L54.2969 54.6875
L54.2969 0
L45.3125 0
L45.3125 8.40625
Q42.0469 3.42188 37.7188 1
Q33.4062 -1.42188 27.6875 -1.42188
Q18.2656 -1.42188 13.375 4.4375
Q8.5 10.2969 8.5 21.5781" id="BitstreamVeraSans-Roman-75"/>
    </defs>
    <g transform="translate(271.64 96.771)scale(0.16 -0.16)">
     <use transform="translate(0.0 0.78125)" xlink:href="#BitstreamVeraSans-Roman-43"/>
     <use transform="translate(69.82421875 -30.71875)scale(0.7)" xlink:href="#BitstreamVeraSans-Roman-6f"/>
     <use transform="translate(112.6513671875 -30.71875)scale(0.7)" xlink:href="#BitstreamVeraSans-Roman-75"/>
     <use transform="translate(157.0166015625 -30.71875)scale(0.7)" xlink:href="#BitstreamVeraSans-Roman-74"/>
    </g>
   </g>
   <g id="text_5">
    <!-- $S$ -->
    <defs>
     <path d="
M53.5156 70.5156
L53.5156 60.8906
Q47.9062 63.5781 42.9219 64.8906
Q37.9375 66.2188 33.2969 66.2188
Q25.25 66.2188 20.875 63.0938
Q16.5 59.9688 16.5 54.2031
Q16.5 49.3594 19.4062 46.8906
Q22.3125 44.4375 30.4219 42.9219
L36.375 41.7031
Q47.4062 39.5938 52.6562 34.2969
Q57.9062 29 57.9062 20.125
Q57.9062 9.51562 50.7969 4.04688
Q43.7031 -1.42188 29.9844 -1.42188
Q24.8125 -1.42188 18.9688 -0.25
Q13.1406 0.921875 6.89062 3.21875
L6.89062 13.375
Q12.8906 10.0156 18.6562 8.29688
Q24.4219 6.59375 29.9844 6.59375
Q38.4219 6.59375 43.0156 9.90625
Q47.6094 13.2344 47.6094 19.3906
Q47.6094 24.75 44.3125 27.7812
Q41.0156 30.8125 33.5 32.3281
L27.4844 33.5
Q16.4531 35.6875 11.5156 40.375
Q6.59375 45.0625 6.59375 53.4219
Q6.59375 63.0938 13.4062 68.6562
Q20.2188 74.2188 32.1719 74.2188
Q37.3125 74.2188 42.625 73.2812
Q47.9531 72.3594 53.5156 70.5156" id="BitstreamVeraSans-Roman-53"/>
    </defs>
    <g transform="translate(271.64 35.051)scale(0.16 -0.16)">
     <use transform="translate(0.0 0.78125)" xlink:href="#BitstreamVeraSans-Roman-53"/>
    </g>
   </g>
  </g>
 </g>
 <defs>
  <clipPath id="p5d0a3384fd">
   <rect height="123.876" width="243.0" x="28.64" y="7.2"/>
  </clipPath>
 </defs>
</svg>
