<?xml version="1.0" encoding="utf-8" standalone="no"?>
<!DOCTYPE svg PUBLIC "-//W3C//DTD SVG 1.1//EN"
  "http://www.w3.org/Graphics/SVG/1.1/DTD/svg11.dtd">
<!-- Created with matplotlib (http://matplotlib.org/) -->
<svg height="150pt" version="1.1" viewBox="0 0 310 150" width="310pt" xmlns="http://www.w3.org/2000/svg" xmlns:xlink="http://www.w3.org/1999/xlink">
 <defs>
  <style type="text/css">
*{stroke-linecap:butt;stroke-linejoin:round;stroke-miterlimit:100000;}
  </style>
 </defs>
 <g id="figure_1">
  <g id="patch_1">
   <path d="M 0 150.264 
L 310.68 150.264 
L 310.68 0 
L 0 0 
z
" style="fill:none;"/>
  </g>
  <g id="axes_1">
   <g id="patch_2">
    <path clip-path="url(#p14958022ee)" d="M 180.42 94.104 
C 184.714859 94.104 188.838206 92.49094 191.87513 89.622734 
C 194.912054 86.754528 196.62 82.860256 196.62 78.804 
C 196.62 74.747744 194.912054 70.853472 191.87513 67.985266 
C 188.838206 65.11706 184.714859 63.504 180.42 63.504 
" style="fill:none;stroke:#000000;stroke-linejoin:miter;stroke-width:1.5;"/>
   </g>
   <g id="patch_3">
    <path clip-path="url(#p14958022ee)" d="M 180.42 140.004 
C 184.714859 140.004 188.838206 138.39094 191.87513 135.522734 
C 194.912054 132.654528 196.62 128.760256 196.62 124.704 
C 196.62 120.647744 194.912054 116.753472 191.87513 113.885266 
C 188.838206 111.01706 184.714859 109.404 180.42 109.404 
" style="fill:none;stroke:#000000;stroke-linejoin:miter;stroke-width:1.5;"/>
   </g>
   <g id="line2d_1">
    <path clip-path="url(#p14958022ee)" d="M 120.48 25.254 
L 131.82 25.254 
" style="fill:none;stroke:#000000;stroke-linecap:round;stroke-width:1.5;"/>
   </g>
   <g id="line2d_2">
    <path clip-path="url(#p14958022ee)" d="M 81.6 40.248 
L 97.8 40.248 
L 98.262857 40.241755 
L 98.725714 40.22302 
L 99.188571 40.191796 
L 99.651429 40.148082 
L 100.114286 40.091878 
L 100.577143 40.023184 
L 101.04 39.942 
L 101.502857 39.848327 
L 101.965714 39.742163 
L 102.428571 39.62351 
L 102.891429 39.492367 
L 103.354286 39.348735 
L 103.817143 39.192612 
L 104.28 39.024 
L 104.742857 38.842898 
L 105.205714 38.649306 
L 105.668571 38.443224 
L 106.131429 38.224653 
L 106.594286 37.993592 
L 107.057143 37.750041 
L 107.52 37.494 
L 107.982857 37.225469 
L 108.445714 36.944449 
L 108.908571 36.650939 
L 109.371429 36.344939 
L 109.834286 36.026449 
L 110.297143 35.695469 
L 110.76 35.352 
L 111.222857 34.996041 
L 111.685714 34.627592 
L 112.148571 34.246653 
L 112.611429 33.853224 
L 113.074286 33.447306 
L 113.537143 33.028898 
L 114 32.598 
L 114.462857 32.154612 
L 114.925714 31.698735 
L 115.388571 31.230367 
L 115.851429 30.74951 
L 116.314286 30.256163 
L 116.777143 29.750327 
L 117.24 29.232 
L 117.702857 28.701184 
L 118.165714 28.157878 
L 118.628571 27.602082 
L 119.091429 27.033796 
L 119.554286 26.45302 
L 120.017143 25.859755 
L 120.48 25.254 
" style="fill:none;stroke:#000000;stroke-linecap:round;stroke-width:1.5;"/>
   </g>
   <g id="line2d_3">
    <path clip-path="url(#p14958022ee)" d="M 81.6 10.26 
L 97.8 10.26 
L 98.262857 10.266245 
L 98.725714 10.28498 
L 99.188571 10.316204 
L 99.651429 10.359918 
L 100.114286 10.416122 
L 100.577143 10.484816 
L 101.04 10.566 
L 101.502857 10.659673 
L 101.965714 10.765837 
L 102.428571 10.88449 
L 102.891429 11.015633 
L 103.354286 11.159265 
L 103.817143 11.315388 
L 104.28 11.484 
L 104.742857 11.665102 
L 105.205714 11.858694 
L 105.668571 12.064776 
L 106.131429 12.283347 
L 106.594286 12.514408 
L 107.057143 12.757959 
L 107.52 13.014 
L 107.982857 13.282531 
L 108.445714 13.563551 
L 108.908571 13.857061 
L 109.371429 14.163061 
L 109.834286 14.481551 
L 110.297143 14.812531 
L 110.76 15.156 
L 111.222857 15.511959 
L 111.685714 15.880408 
L 112.148571 16.261347 
L 112.611429 16.654776 
L 113.074286 17.060694 
L 113.537143 17.479102 
L 114 17.91 
L 114.462857 18.353388 
L 114.925714 18.809265 
L 115.388571 19.277633 
L 115.851429 19.75849 
L 116.314286 20.251837 
L 116.777143 20.757673 
L 117.24 21.276 
L 117.702857 21.806816 
L 118.165714 22.350122 
L 118.628571 22.905918 
L 119.091429 23.474204 
L 119.554286 24.05498 
L 120.017143 24.648245 
L 120.48 25.254 
" style="fill:none;stroke:#000000;stroke-linecap:round;stroke-width:1.5;"/>
   </g>
   <g id="line2d_4">
    <path clip-path="url(#p14958022ee)" d="M 76.74 40.248 
L 77.36208 39.636 
L 77.95824 39.024 
L 78.52848 38.412 
L 79.0728 37.8 
L 79.5912 37.188 
L 80.08368 36.576 
L 80.55024 35.964 
L 80.99088 35.352 
L 81.4056 34.74 
L 81.7944 34.128 
L 82.15728 33.516 
L 82.49424 32.904 
L 82.80528 32.292 
L 83.0904 31.68 
L 83.3496 31.068 
L 83.58288 30.456 
L 83.79024 29.844 
L 83.97168 29.232 
L 84.1272 28.62 
L 84.2568 28.008 
L 84.36048 27.396 
L 84.43824 26.784 
L 84.49008 26.172 
L 84.516 25.56 
L 84.516 24.948 
L 84.49008 24.336 
L 84.43824 23.724 
L 84.36048 23.112 
L 84.2568 22.5 
L 84.1272 21.888 
L 83.97168 21.276 
L 83.79024 20.664 
L 83.58288 20.052 
L 83.3496 19.44 
L 83.0904 18.828 
L 82.80528 18.216 
L 82.49424 17.604 
L 82.15728 16.992 
L 81.7944 16.38 
L 81.4056 15.768 
L 80.99088 15.156 
L 80.55024 14.544 
L 80.08368 13.932 
L 79.5912 13.32 
L 79.0728 12.708 
L 78.52848 12.096 
L 77.95824 11.484 
L 77.36208 10.872 
L 76.74 10.26 
" style="fill:none;stroke:#000000;stroke-linecap:round;stroke-width:1.5;"/>
   </g>
   <g id="line2d_5">
    <path clip-path="url(#p14958022ee)" d="M 81.6 40.248 
L 82.22208 39.636 
L 82.81824 39.024 
L 83.38848 38.412 
L 83.9328 37.8 
L 84.4512 37.188 
L 84.94368 36.576 
L 85.41024 35.964 
L 85.85088 35.352 
L 86.2656 34.74 
L 86.6544 34.128 
L 87.01728 33.516 
L 87.35424 32.904 
L 87.66528 32.292 
L 87.9504 31.68 
L 88.2096 31.068 
L 88.44288 30.456 
L 88.65024 29.844 
L 88.83168 29.232 
L 88.9872 28.62 
L 89.1168 28.008 
L 89.22048 27.396 
L 89.29824 26.784 
L 89.35008 26.172 
L 89.376 25.56 
L 89.376 24.948 
L 89.35008 24.336 
L 89.29824 23.724 
L 89.22048 23.112 
L 89.1168 22.5 
L 88.9872 21.888 
L 88.83168 21.276 
L 88.65024 20.664 
L 88.44288 20.052 
L 88.2096 19.44 
L 87.9504 18.828 
L 87.66528 18.216 
L 87.35424 17.604 
L 87.01728 16.992 
L 86.6544 16.38 
L 86.2656 15.768 
L 85.85088 15.156 
L 85.41024 14.544 
L 84.94368 13.932 
L 84.4512 13.32 
L 83.9328 12.708 
L 83.38848 12.096 
L 82.81824 11.484 
L 82.22208 10.872 
L 81.6 10.26 
" style="fill:none;stroke:#000000;stroke-linecap:round;stroke-width:1.5;"/>
   </g>
   <g id="line2d_6">
    <path clip-path="url(#p14958022ee)" d="M 65.4 32.904 
L 82.49424 32.904 
" style="fill:none;stroke:#000000;stroke-linecap:round;stroke-width:1.5;"/>
   </g>
   <g id="line2d_7">
    <path clip-path="url(#p14958022ee)" d="M 65.4 17.604 
L 82.49424 17.604 
" style="fill:none;stroke:#000000;stroke-linecap:round;stroke-width:1.5;"/>
   </g>
   <g id="line2d_8">
    <path clip-path="url(#p14958022ee)" d="M 131.82 25.254 
" style="fill:none;stroke:#000000;stroke-linecap:round;stroke-width:1.5;"/>
   </g>
   <g id="line2d_9">
    <path clip-path="url(#p14958022ee)" d="M 65.4 17.604 
" style="fill:none;stroke:#000000;stroke-linecap:round;stroke-width:1.5;"/>
   </g>
   <g id="line2d_10">
    <path clip-path="url(#p14958022ee)" d="M 65.4 17.604 
L 49.2 17.604 
L 33 17.604 
" style="fill:none;stroke:#000000;stroke-linecap:round;stroke-width:1.5;"/>
   </g>
   <g id="line2d_11">
    <path clip-path="url(#p14958022ee)" d="M 65.4 32.904 
L 57.3 32.904 
L 49.2 32.904 
" style="fill:none;stroke:#000000;stroke-linecap:round;stroke-width:1.5;"/>
   </g>
   <g id="line2d_12">
    <path clip-path="url(#p14958022ee)" d="M 49.2 32.904 
" style="fill:none;stroke:#000000;stroke-linecap:round;stroke-width:1.5;"/>
   </g>
   <g id="line2d_13">
    <path clip-path="url(#p14958022ee)" d="M 49.2 32.904 
L 41.1 32.904 
L 33 32.904 
" style="fill:none;stroke:#000000;stroke-linecap:round;stroke-width:1.5;"/>
   </g>
   <g id="line2d_14">
    <path clip-path="url(#p14958022ee)" d="M 131.82 25.254 
L 139.92 25.254 
L 148.02 25.254 
" style="fill:none;stroke:#000000;stroke-linecap:round;stroke-width:1.5;"/>
   </g>
   <g id="line2d_15">
    <path clip-path="url(#p14958022ee)" d="M 203.1 32.904 
L 214.44 32.904 
" style="fill:none;stroke:#000000;stroke-linecap:round;stroke-width:1.5;"/>
   </g>
   <g id="line2d_16">
    <path clip-path="url(#p14958022ee)" d="M 164.22 47.898 
L 180.42 47.898 
L 180.882857 47.891755 
L 181.345714 47.87302 
L 181.808571 47.841796 
L 182.271429 47.798082 
L 182.734286 47.741878 
L 183.197143 47.673184 
L 183.66 47.592 
L 184.122857 47.498327 
L 184.585714 47.392163 
L 185.048571 47.27351 
L 185.511429 47.142367 
L 185.974286 46.998735 
L 186.437143 46.842612 
L 186.9 46.674 
L 187.362857 46.492898 
L 187.825714 46.299306 
L 188.288571 46.093224 
L 188.751429 45.874653 
L 189.214286 45.643592 
L 189.677143 45.400041 
L 190.14 45.144 
L 190.602857 44.875469 
L 191.065714 44.594449 
L 191.528571 44.300939 
L 191.991429 43.994939 
L 192.454286 43.676449 
L 192.917143 43.345469 
L 193.38 43.002 
L 193.842857 42.646041 
L 194.305714 42.277592 
L 194.768571 41.896653 
L 195.231429 41.503224 
L 195.694286 41.097306 
L 196.157143 40.678898 
L 196.62 40.248 
L 197.082857 39.804612 
L 197.545714 39.348735 
L 198.008571 38.880367 
L 198.471429 38.39951 
L 198.934286 37.906163 
L 199.397143 37.400327 
L 199.86 36.882 
L 200.322857 36.351184 
L 200.785714 35.807878 
L 201.248571 35.252082 
L 201.711429 34.683796 
L 202.174286 34.10302 
L 202.637143 33.509755 
L 203.1 32.904 
" style="fill:none;stroke:#000000;stroke-linecap:round;stroke-width:1.5;"/>
   </g>
   <g id="line2d_17">
    <path clip-path="url(#p14958022ee)" d="M 164.22 17.91 
L 180.42 17.91 
L 180.882857 17.916245 
L 181.345714 17.93498 
L 181.808571 17.966204 
L 182.271429 18.009918 
L 182.734286 18.066122 
L 183.197143 18.134816 
L 183.66 18.216 
L 184.122857 18.309673 
L 184.585714 18.415837 
L 185.048571 18.53449 
L 185.511429 18.665633 
L 185.974286 18.809265 
L 186.437143 18.965388 
L 186.9 19.134 
L 187.362857 19.315102 
L 187.825714 19.508694 
L 188.288571 19.714776 
L 188.751429 19.933347 
L 189.214286 20.164408 
L 189.677143 20.407959 
L 190.14 20.664 
L 190.602857 20.932531 
L 191.065714 21.213551 
L 191.528571 21.507061 
L 191.991429 21.813061 
L 192.454286 22.131551 
L 192.917143 22.462531 
L 193.38 22.806 
L 193.842857 23.161959 
L 194.305714 23.530408 
L 194.768571 23.911347 
L 195.231429 24.304776 
L 195.694286 24.710694 
L 196.157143 25.129102 
L 196.62 25.56 
L 197.082857 26.003388 
L 197.545714 26.459265 
L 198.008571 26.927633 
L 198.471429 27.40849 
L 198.934286 27.901837 
L 199.397143 28.407673 
L 199.86 28.926 
L 200.322857 29.456816 
L 200.785714 30.000122 
L 201.248571 30.555918 
L 201.711429 31.124204 
L 202.174286 31.70498 
L 202.637143 32.298245 
L 203.1 32.904 
" style="fill:none;stroke:#000000;stroke-linecap:round;stroke-width:1.5;"/>
   </g>
   <g id="line2d_18">
    <path clip-path="url(#p14958022ee)" d="M 159.36 47.898 
L 159.98208 47.286 
L 160.57824 46.674 
L 161.14848 46.062 
L 161.6928 45.45 
L 162.2112 44.838 
L 162.70368 44.226 
L 163.17024 43.614 
L 163.61088 43.002 
L 164.0256 42.39 
L 164.4144 41.778 
L 164.77728 41.166 
L 165.11424 40.554 
L 165.42528 39.942 
L 165.7104 39.33 
L 165.9696 38.718 
L 166.20288 38.106 
L 166.41024 37.494 
L 166.59168 36.882 
L 166.7472 36.27 
L 166.8768 35.658 
L 166.98048 35.046 
L 167.05824 34.434 
L 167.11008 33.822 
L 167.136 33.21 
L 167.136 32.598 
L 167.11008 31.986 
L 167.05824 31.374 
L 166.98048 30.762 
L 166.8768 30.15 
L 166.7472 29.538 
L 166.59168 28.926 
L 166.41024 28.314 
L 166.20288 27.702 
L 165.9696 27.09 
L 165.7104 26.478 
L 165.42528 25.866 
L 165.11424 25.254 
L 164.77728 24.642 
L 164.4144 24.03 
L 164.0256 23.418 
L 163.61088 22.806 
L 163.17024 22.194 
L 162.70368 21.582 
L 162.2112 20.97 
L 161.6928 20.358 
L 161.14848 19.746 
L 160.57824 19.134 
L 159.98208 18.522 
L 159.36 17.91 
" style="fill:none;stroke:#000000;stroke-linecap:round;stroke-width:1.5;"/>
   </g>
   <g id="line2d_19">
    <path clip-path="url(#p14958022ee)" d="M 164.22 47.898 
L 164.84208 47.286 
L 165.43824 46.674 
L 166.00848 46.062 
L 166.5528 45.45 
L 167.0712 44.838 
L 167.56368 44.226 
L 168.03024 43.614 
L 168.47088 43.002 
L 168.8856 42.39 
L 169.2744 41.778 
L 169.63728 41.166 
L 169.97424 40.554 
L 170.28528 39.942 
L 170.5704 39.33 
L 170.8296 38.718 
L 171.06288 38.106 
L 171.27024 37.494 
L 171.45168 36.882 
L 171.6072 36.27 
L 171.7368 35.658 
L 171.84048 35.046 
L 171.91824 34.434 
L 171.97008 33.822 
L 171.996 33.21 
L 171.996 32.598 
L 171.97008 31.986 
L 171.91824 31.374 
L 171.84048 30.762 
L 171.7368 30.15 
L 171.6072 29.538 
L 171.45168 28.926 
L 171.27024 28.314 
L 171.06288 27.702 
L 170.8296 27.09 
L 170.5704 26.478 
L 170.28528 25.866 
L 169.97424 25.254 
L 169.63728 24.642 
L 169.2744 24.03 
L 168.8856 23.418 
L 168.47088 22.806 
L 168.03024 22.194 
L 167.56368 21.582 
L 167.0712 20.97 
L 166.5528 20.358 
L 166.00848 19.746 
L 165.43824 19.134 
L 164.84208 18.522 
L 164.22 17.91 
" style="fill:none;stroke:#000000;stroke-linecap:round;stroke-width:1.5;"/>
   </g>
   <g id="line2d_20">
    <path clip-path="url(#p14958022ee)" d="M 148.02 40.554 
L 165.11424 40.554 
" style="fill:none;stroke:#000000;stroke-linecap:round;stroke-width:1.5;"/>
   </g>
   <g id="line2d_21">
    <path clip-path="url(#p14958022ee)" d="M 148.02 25.254 
L 165.11424 25.254 
" style="fill:none;stroke:#000000;stroke-linecap:round;stroke-width:1.5;"/>
   </g>
   <g id="line2d_22">
    <path clip-path="url(#p14958022ee)" d="M 148.02 40.554 
L 148.02 55.854 
L 148.02 71.154 
" style="fill:none;stroke:#000000;stroke-linecap:round;stroke-width:1.5;"/>
   </g>
   <g id="line2d_23">
    <path clip-path="url(#p14958022ee)" d="M 148.02 55.854 
" style="fill:none;stroke:#000000;stroke-linecap:round;stroke-width:1.5;"/>
   </g>
   <g id="line2d_24">
    <path clip-path="url(#p14958022ee)" d="M 148.02 55.854 
L 90.51 55.854 
L 33 55.854 
" style="fill:none;stroke:#000000;stroke-linecap:round;stroke-width:1.5;"/>
   </g>
   <g id="line2d_25">
    <path clip-path="url(#p14958022ee)" d="M 196.62 78.804 
L 207.96 78.804 
" style="fill:none;stroke:#000000;stroke-linecap:round;stroke-width:1.5;"/>
   </g>
   <g id="line2d_26">
    <path clip-path="url(#p14958022ee)" d="M 159.36 78.804 
L 159.36 94.104 
L 180.42 94.104 
" style="fill:none;stroke:#000000;stroke-linecap:round;stroke-width:1.5;"/>
   </g>
   <g id="line2d_27">
    <path clip-path="url(#p14958022ee)" d="M 159.36 78.804 
L 159.36 63.504 
L 180.42 63.504 
" style="fill:none;stroke:#000000;stroke-linecap:round;stroke-width:1.5;"/>
   </g>
   <g id="line2d_28">
    <path clip-path="url(#p14958022ee)" d="M 148.02 86.454 
L 159.36 86.454 
" style="fill:none;stroke:#000000;stroke-linecap:round;stroke-width:1.5;"/>
   </g>
   <g id="line2d_29">
    <path clip-path="url(#p14958022ee)" d="M 148.02 71.154 
L 159.36 71.154 
" style="fill:none;stroke:#000000;stroke-linecap:round;stroke-width:1.5;"/>
   </g>
   <g id="line2d_30">
    <path clip-path="url(#p14958022ee)" d="M 148.02 86.454 
L 139.92 86.454 
L 131.82 86.454 
" style="fill:none;stroke:#000000;stroke-linecap:round;stroke-width:1.5;"/>
   </g>
   <g id="line2d_31">
    <path clip-path="url(#p14958022ee)" d="M 131.82 86.454 
L 131.82 55.854 
L 131.82 25.254 
" style="fill:none;stroke:#000000;stroke-linecap:round;stroke-width:1.5;"/>
   </g>
   <g id="line2d_32">
    <path clip-path="url(#p14958022ee)" d="M 196.62 124.704 
L 207.96 124.704 
" style="fill:none;stroke:#000000;stroke-linecap:round;stroke-width:1.5;"/>
   </g>
   <g id="line2d_33">
    <path clip-path="url(#p14958022ee)" d="M 159.36 124.704 
L 159.36 140.004 
L 180.42 140.004 
" style="fill:none;stroke:#000000;stroke-linecap:round;stroke-width:1.5;"/>
   </g>
   <g id="line2d_34">
    <path clip-path="url(#p14958022ee)" d="M 159.36 124.704 
L 159.36 109.404 
L 180.42 109.404 
" style="fill:none;stroke:#000000;stroke-linecap:round;stroke-width:1.5;"/>
   </g>
   <g id="line2d_35">
    <path clip-path="url(#p14958022ee)" d="M 148.02 132.354 
L 159.36 132.354 
" style="fill:none;stroke:#000000;stroke-linecap:round;stroke-width:1.5;"/>
   </g>
   <g id="line2d_36">
    <path clip-path="url(#p14958022ee)" d="M 148.02 117.054 
L 159.36 117.054 
" style="fill:none;stroke:#000000;stroke-linecap:round;stroke-width:1.5;"/>
   </g>
   <g id="line2d_37">
    <path clip-path="url(#p14958022ee)" d="M 148.02 117.054 
L 106.71 117.054 
L 65.4 117.054 
" style="fill:none;stroke:#000000;stroke-linecap:round;stroke-width:1.5;"/>
   </g>
   <g id="line2d_38">
    <path clip-path="url(#p14958022ee)" d="M 65.4 117.054 
L 65.4 67.329 
L 65.4 17.604 
" style="fill:none;stroke:#000000;stroke-linecap:round;stroke-width:1.5;"/>
   </g>
   <g id="line2d_39">
    <path clip-path="url(#p14958022ee)" d="M 148.02 132.354 
L 98.61 132.354 
L 49.2 132.354 
" style="fill:none;stroke:#000000;stroke-linecap:round;stroke-width:1.5;"/>
   </g>
   <g id="line2d_40">
    <path clip-path="url(#p14958022ee)" d="M 49.2 132.354 
L 49.2 82.629 
L 49.2 32.904 
" style="fill:none;stroke:#000000;stroke-linecap:round;stroke-width:1.5;"/>
   </g>
   <g id="line2d_41">
    <path clip-path="url(#p14958022ee)" d="M 258.18 101.754 
L 269.52 101.754 
" style="fill:none;stroke:#000000;stroke-linecap:round;stroke-width:1.5;"/>
   </g>
   <g id="line2d_42">
    <path clip-path="url(#p14958022ee)" d="M 219.3 116.748 
L 235.5 116.748 
L 235.962857 116.741755 
L 236.425714 116.72302 
L 236.888571 116.691796 
L 237.351429 116.648082 
L 237.814286 116.591878 
L 238.277143 116.523184 
L 238.74 116.442 
L 239.202857 116.348327 
L 239.665714 116.242163 
L 240.128571 116.12351 
L 240.591429 115.992367 
L 241.054286 115.848735 
L 241.517143 115.692612 
L 241.98 115.524 
L 242.442857 115.342898 
L 242.905714 115.149306 
L 243.368571 114.943224 
L 243.831429 114.724653 
L 244.294286 114.493592 
L 244.757143 114.250041 
L 245.22 113.994 
L 245.682857 113.725469 
L 246.145714 113.444449 
L 246.608571 113.150939 
L 247.071429 112.844939 
L 247.534286 112.526449 
L 247.997143 112.195469 
L 248.46 111.852 
L 248.922857 111.496041 
L 249.385714 111.127592 
L 249.848571 110.746653 
L 250.311429 110.353224 
L 250.774286 109.947306 
L 251.237143 109.528898 
L 251.7 109.098 
L 252.162857 108.654612 
L 252.625714 108.198735 
L 253.088571 107.730367 
L 253.551429 107.24951 
L 254.014286 106.756163 
L 254.477143 106.250327 
L 254.94 105.732 
L 255.402857 105.201184 
L 255.865714 104.657878 
L 256.328571 104.102082 
L 256.791429 103.533796 
L 257.254286 102.95302 
L 257.717143 102.359755 
L 258.18 101.754 
" style="fill:none;stroke:#000000;stroke-linecap:round;stroke-width:1.5;"/>
   </g>
   <g id="line2d_43">
    <path clip-path="url(#p14958022ee)" d="M 219.3 86.76 
L 235.5 86.76 
L 235.962857 86.766245 
L 236.425714 86.78498 
L 236.888571 86.816204 
L 237.351429 86.859918 
L 237.814286 86.916122 
L 238.277143 86.984816 
L 238.74 87.066 
L 239.202857 87.159673 
L 239.665714 87.265837 
L 240.128571 87.38449 
L 240.591429 87.515633 
L 241.054286 87.659265 
L 241.517143 87.815388 
L 241.98 87.984 
L 242.442857 88.165102 
L 242.905714 88.358694 
L 243.368571 88.564776 
L 243.831429 88.783347 
L 244.294286 89.014408 
L 244.757143 89.257959 
L 245.22 89.514 
L 245.682857 89.782531 
L 246.145714 90.063551 
L 246.608571 90.357061 
L 247.071429 90.663061 
L 247.534286 90.981551 
L 247.997143 91.312531 
L 248.46 91.656 
L 248.922857 92.011959 
L 249.385714 92.380408 
L 249.848571 92.761347 
L 250.311429 93.154776 
L 250.774286 93.560694 
L 251.237143 93.979102 
L 251.7 94.41 
L 252.162857 94.853388 
L 252.625714 95.309265 
L 253.088571 95.777633 
L 253.551429 96.25849 
L 254.014286 96.751837 
L 254.477143 97.257673 
L 254.94 97.776 
L 255.402857 98.306816 
L 255.865714 98.850122 
L 256.328571 99.405918 
L 256.791429 99.974204 
L 257.254286 100.55498 
L 257.717143 101.148245 
L 258.18 101.754 
" style="fill:none;stroke:#000000;stroke-linecap:round;stroke-width:1.5;"/>
   </g>
   <g id="line2d_44">
    <path clip-path="url(#p14958022ee)" d="M 219.3 116.748 
L 219.92208 116.136 
L 220.51824 115.524 
L 221.08848 114.912 
L 221.6328 114.3 
L 222.1512 113.688 
L 222.64368 113.076 
L 223.11024 112.464 
L 223.55088 111.852 
L 223.9656 111.24 
L 224.3544 110.628 
L 224.71728 110.016 
L 225.05424 109.404 
L 225.36528 108.792 
L 225.6504 108.18 
L 225.9096 107.568 
L 226.14288 106.956 
L 226.35024 106.344 
L 226.53168 105.732 
L 226.6872 105.12 
L 226.8168 104.508 
L 226.92048 103.896 
L 226.99824 103.284 
L 227.05008 102.672 
L 227.076 102.06 
L 227.076 101.448 
L 227.05008 100.836 
L 226.99824 100.224 
L 226.92048 99.612 
L 226.8168 99 
L 226.6872 98.388 
L 226.53168 97.776 
L 226.35024 97.164 
L 226.14288 96.552 
L 225.9096 95.94 
L 225.6504 95.328 
L 225.36528 94.716 
L 225.05424 94.104 
L 224.71728 93.492 
L 224.3544 92.88 
L 223.9656 92.268 
L 223.55088 91.656 
L 223.11024 91.044 
L 222.64368 90.432 
L 222.1512 89.82 
L 221.6328 89.208 
L 221.08848 88.596 
L 220.51824 87.984 
L 219.92208 87.372 
L 219.3 86.76 
" style="fill:none;stroke:#000000;stroke-linecap:round;stroke-width:1.5;"/>
   </g>
   <g id="line2d_45">
    <path clip-path="url(#p14958022ee)" d="M 207.96 109.404 
L 225.05424 109.404 
" style="fill:none;stroke:#000000;stroke-linecap:round;stroke-width:1.5;"/>
   </g>
   <g id="line2d_46">
    <path clip-path="url(#p14958022ee)" d="M 207.96 94.104 
L 225.05424 94.104 
" style="fill:none;stroke:#000000;stroke-linecap:round;stroke-width:1.5;"/>
   </g>
   <g id="line2d_47">
    <path clip-path="url(#p14958022ee)" d="M 207.96 78.804 
L 207.96 86.454 
L 207.96 94.104 
" style="fill:none;stroke:#000000;stroke-linecap:round;stroke-width:1.5;"/>
   </g>
   <g id="line2d_48">
    <path clip-path="url(#p14958022ee)" d="M 207.96 124.704 
L 207.96 117.054 
L 207.96 109.404 
" style="fill:none;stroke:#000000;stroke-linecap:round;stroke-width:1.5;"/>
   </g>
   <g id="line2d_49">
    <path clip-path="url(#p14958022ee)" d="M 214.44 32.904 
L 241.98 32.904 
L 269.52 32.904 
" style="fill:none;stroke:#000000;stroke-linecap:round;stroke-width:1.5;"/>
   </g>
   <g id="patch_4">
    <path clip-path="url(#p14958022ee)" d="M 131.82 27.549 
C 132.464444 27.549 133.082579 27.307184 133.538269 26.87681 
C 133.99396 26.446436 134.25 25.862641 134.25 25.254 
C 134.25 24.645359 133.99396 24.061564 133.538269 23.63119 
C 133.082579 23.200816 132.464444 22.959 131.82 22.959 
C 131.175556 22.959 130.557421 23.200816 130.101731 23.63119 
C 129.64604 24.061564 129.39 24.645359 129.39 25.254 
C 129.39 25.862641 129.64604 26.446436 130.101731 26.87681 
C 130.557421 27.307184 131.175556 27.549 131.82 27.549 
z
" style="stroke:#000000;stroke-linejoin:miter;stroke-width:1.5;"/>
   </g>
   <g id="patch_5">
    <path clip-path="url(#p14958022ee)" d="M 65.4 19.899 
C 66.044444 19.899 66.662579 19.657184 67.118269 19.22681 
C 67.57396 18.796436 67.83 18.212641 67.83 17.604 
C 67.83 16.995359 67.57396 16.411564 67.118269 15.98119 
C 66.662579 15.550816 66.044444 15.309 65.4 15.309 
C 64.755556 15.309 64.137421 15.550816 63.681731 15.98119 
C 63.22604 16.411564 62.97 16.995359 62.97 17.604 
C 62.97 18.212641 63.22604 18.796436 63.681731 19.22681 
C 64.137421 19.657184 64.755556 19.899 65.4 19.899 
z
" style="stroke:#000000;stroke-linejoin:miter;stroke-width:1.5;"/>
   </g>
   <g id="patch_6">
    <path clip-path="url(#p14958022ee)" d="M 49.2 35.199 
C 49.844444 35.199 50.462579 34.957184 50.918269 34.52681 
C 51.37396 34.096436 51.63 33.512641 51.63 32.904 
C 51.63 32.295359 51.37396 31.711564 50.918269 31.28119 
C 50.462579 30.850816 49.844444 30.609 49.2 30.609 
C 48.555556 30.609 47.937421 30.850816 47.481731 31.28119 
C 47.02604 31.711564 46.77 32.295359 46.77 32.904 
C 46.77 33.512641 47.02604 34.096436 47.481731 34.52681 
C 47.937421 34.957184 48.555556 35.199 49.2 35.199 
z
" style="stroke:#000000;stroke-linejoin:miter;stroke-width:1.5;"/>
   </g>
   <g id="patch_7">
    <path clip-path="url(#p14958022ee)" d="M 148.02 58.149 
C 148.664444 58.149 149.282579 57.907184 149.738269 57.47681 
C 150.19396 57.046436 150.45 56.462641 150.45 55.854 
C 150.45 55.245359 150.19396 54.661564 149.738269 54.23119 
C 149.282579 53.800816 148.664444 53.559 148.02 53.559 
C 147.375556 53.559 146.757421 53.800816 146.301731 54.23119 
C 145.84604 54.661564 145.59 55.245359 145.59 55.854 
C 145.59 56.462641 145.84604 57.046436 146.301731 57.47681 
C 146.757421 57.907184 147.375556 58.149 148.02 58.149 
z
" style="stroke:#000000;stroke-linejoin:miter;stroke-width:1.5;"/>
   </g>
   <g id="text_1">
    <!-- $A$ -->
    <defs>
     <path d="M 34.1875 63.1875 
L 20.796875 26.90625 
L 47.609375 26.90625 
z
M 28.609375 72.90625 
L 39.796875 72.90625 
L 67.578125 0 
L 57.328125 0 
L 50.6875 18.703125 
L 17.828125 18.703125 
L 11.1875 0 
L 0.78125 0 
z
" id="BitstreamVeraSans-Roman-41"/>
    </defs>
    <g transform="translate(18.72 22.019)scale(0.16 -0.16)">
     <use transform="translate(0.0 0.09375)" xlink:href="#BitstreamVeraSans-Roman-41"/>
    </g>
   </g>
   <g id="text_2">
    <!-- $B$ -->
    <defs>
     <path d="M 19.671875 34.8125 
L 19.671875 8.109375 
L 35.5 8.109375 
Q 43.453125 8.109375 47.28125 11.40625 
Q 51.125 14.703125 51.125 21.484375 
Q 51.125 28.328125 47.28125 31.5625 
Q 43.453125 34.8125 35.5 34.8125 
z
M 19.671875 64.796875 
L 19.671875 42.828125 
L 34.28125 42.828125 
Q 41.5 42.828125 45.03125 45.53125 
Q 48.578125 48.25 48.578125 53.8125 
Q 48.578125 59.328125 45.03125 62.0625 
Q 41.5 64.796875 34.28125 64.796875 
z
M 9.8125 72.90625 
L 35.015625 72.90625 
Q 46.296875 72.90625 52.390625 68.21875 
Q 58.5 63.53125 58.5 54.890625 
Q 58.5 48.1875 55.375 44.234375 
Q 52.25 40.28125 46.1875 39.3125 
Q 53.46875 37.75 57.5 32.78125 
Q 61.53125 27.828125 61.53125 20.40625 
Q 61.53125 10.640625 54.890625 5.3125 
Q 48.25 0 35.984375 0 
L 9.8125 0 
z
" id="BitstreamVeraSans-Roman-42"/>
    </defs>
    <g transform="translate(18.72 37.319)scale(0.16 -0.16)">
     <use transform="translate(0.0 0.09375)" xlink:href="#BitstreamVeraSans-Roman-42"/>
    </g>
   </g>
   <g id="text_3">
    <!-- $C_{in}$ -->
    <defs>
     <path d="M 54.890625 33.015625 
L 54.890625 0 
L 45.90625 0 
L 45.90625 32.71875 
Q 45.90625 40.484375 42.875 44.328125 
Q 39.84375 48.1875 33.796875 48.1875 
Q 26.515625 48.1875 22.3125 43.546875 
Q 18.109375 38.921875 18.109375 30.90625 
L 18.109375 0 
L 9.078125 0 
L 9.078125 54.6875 
L 18.109375 54.6875 
L 18.109375 46.1875 
Q 21.34375 51.125 25.703125 53.5625 
Q 30.078125 56 35.796875 56 
Q 45.21875 56 50.046875 50.171875 
Q 54.890625 44.34375 54.890625 33.015625 
" id="BitstreamVeraSans-Roman-6e"/>
     <path d="M 9.421875 54.6875 
L 18.40625 54.6875 
L 18.40625 0 
L 9.421875 0 
z
M 9.421875 75.984375 
L 18.40625 75.984375 
L 18.40625 64.59375 
L 9.421875 64.59375 
z
" id="BitstreamVeraSans-Roman-69"/>
     <path d="M 64.40625 67.28125 
L 64.40625 56.890625 
Q 59.421875 61.53125 53.78125 63.8125 
Q 48.140625 66.109375 41.796875 66.109375 
Q 29.296875 66.109375 22.65625 58.46875 
Q 16.015625 50.828125 16.015625 36.375 
Q 16.015625 21.96875 22.65625 14.328125 
Q 29.296875 6.6875 41.796875 6.6875 
Q 48.140625 6.6875 53.78125 8.984375 
Q 59.421875 11.28125 64.40625 15.921875 
L 64.40625 5.609375 
Q 59.234375 2.09375 53.4375 0.328125 
Q 47.65625 -1.421875 41.21875 -1.421875 
Q 24.65625 -1.421875 15.125 8.703125 
Q 5.609375 18.84375 5.609375 36.375 
Q 5.609375 53.953125 15.125 64.078125 
Q 24.65625 74.21875 41.21875 74.21875 
Q 47.75 74.21875 53.53125 72.484375 
Q 59.328125 70.75 64.40625 67.28125 
" id="BitstreamVeraSans-Roman-43"/>
    </defs>
    <g transform="translate(7.2 59.294)scale(0.16 -0.16)">
     <use transform="translate(0.0 0.78125)" xlink:href="#BitstreamVeraSans-Roman-43"/>
     <use transform="translate(71.66171875 -30.71875)scale(0.7)" xlink:href="#BitstreamVeraSans-Roman-69"/>
     <use transform="translate(91.1099609375 -30.71875)scale(0.7)" xlink:href="#BitstreamVeraSans-Roman-6e"/>
    </g>
   </g>
   <g id="text_4">
    <!-- $C_{out}$ -->
    <defs>
     <path d="M 8.5 21.578125 
L 8.5 54.6875 
L 17.484375 54.6875 
L 17.484375 21.921875 
Q 17.484375 14.15625 20.5 10.265625 
Q 23.53125 6.390625 29.59375 6.390625 
Q 36.859375 6.390625 41.078125 11.03125 
Q 45.3125 15.671875 45.3125 23.6875 
L 45.3125 54.6875 
L 54.296875 54.6875 
L 54.296875 0 
L 45.3125 0 
L 45.3125 8.40625 
Q 42.046875 3.421875 37.71875 1 
Q 33.40625 -1.421875 27.6875 -1.421875 
Q 18.265625 -1.421875 13.375 4.4375 
Q 8.5 10.296875 8.5 21.578125 
" id="BitstreamVeraSans-Roman-75"/>
     <path d="M 18.3125 70.21875 
L 18.3125 54.6875 
L 36.8125 54.6875 
L 36.8125 47.703125 
L 18.3125 47.703125 
L 18.3125 18.015625 
Q 18.3125 11.328125 20.140625 9.421875 
Q 21.96875 7.515625 27.59375 7.515625 
L 36.8125 7.515625 
L 36.8125 0 
L 27.59375 0 
Q 17.1875 0 13.234375 3.875 
Q 9.28125 7.765625 9.28125 18.015625 
L 9.28125 47.703125 
L 2.6875 47.703125 
L 2.6875 54.6875 
L 9.28125 54.6875 
L 9.28125 70.21875 
z
" id="BitstreamVeraSans-Roman-74"/>
     <path d="M 30.609375 48.390625 
Q 23.390625 48.390625 19.1875 42.75 
Q 14.984375 37.109375 14.984375 27.296875 
Q 14.984375 17.484375 19.15625 11.84375 
Q 23.34375 6.203125 30.609375 6.203125 
Q 37.796875 6.203125 41.984375 11.859375 
Q 46.1875 17.53125 46.1875 27.296875 
Q 46.1875 37.015625 41.984375 42.703125 
Q 37.796875 48.390625 30.609375 48.390625 
M 30.609375 56 
Q 42.328125 56 49.015625 48.375 
Q 55.71875 40.765625 55.71875 27.296875 
Q 55.71875 13.875 49.015625 6.21875 
Q 42.328125 -1.421875 30.609375 -1.421875 
Q 18.84375 -1.421875 12.171875 6.21875 
Q 5.515625 13.875 5.515625 27.296875 
Q 5.515625 40.765625 12.171875 48.375 
Q 18.84375 56 30.609375 56 
" id="BitstreamVeraSans-Roman-6f"/>
    </defs>
    <g transform="translate(272.76 105.114)scale(0.16 -0.16)">
     <use transform="translate(0.0 0.78125)" xlink:href="#BitstreamVeraSans-Roman-43"/>
     <use transform="translate(71.66171875 -30.71875)scale(0.7)" xlink:href="#BitstreamVeraSans-Roman-6f"/>
     <use transform="translate(114.4888671875 -30.71875)scale(0.7)" xlink:href="#BitstreamVeraSans-Roman-75"/>
     <use transform="translate(158.85410156249998 -30.71875)scale(0.7)" xlink:href="#BitstreamVeraSans-Roman-74"/>
    </g>
   </g>
   <g id="text_5">
    <!-- $S$ -->
    <defs>
     <path d="M 53.515625 70.515625 
L 53.515625 60.890625 
Q 47.90625 63.578125 42.921875 64.890625 
Q 37.9375 66.21875 33.296875 66.21875 
Q 25.25 66.21875 20.875 63.09375 
Q 16.5 59.96875 16.5 54.203125 
Q 16.5 49.359375 19.40625 46.890625 
Q 22.3125 44.4375 30.421875 42.921875 
L 36.375 41.703125 
Q 47.40625 39.59375 52.65625 34.296875 
Q 57.90625 29 57.90625 20.125 
Q 57.90625 9.515625 50.796875 4.046875 
Q 43.703125 -1.421875 29.984375 -1.421875 
Q 24.8125 -1.421875 18.96875 -0.25 
Q 13.140625 0.921875 6.890625 3.21875 
L 6.890625 13.375 
Q 12.890625 10.015625 18.65625 8.296875 
Q 24.421875 6.59375 29.984375 6.59375 
Q 38.421875 6.59375 43.015625 9.90625 
Q 47.609375 13.234375 47.609375 19.390625 
Q 47.609375 24.75 44.3125 27.78125 
Q 41.015625 30.8125 33.5 32.328125 
L 27.484375 33.5 
Q 16.453125 35.6875 11.515625 40.375 
Q 6.59375 45.0625 6.59375 53.421875 
Q 6.59375 63.09375 13.40625 68.65625 
Q 20.21875 74.21875 32.171875 74.21875 
Q 37.3125 74.21875 42.625 73.28125 
Q 47.953125 72.359375 53.515625 70.515625 
" id="BitstreamVeraSans-Roman-53"/>
    </defs>
    <g transform="translate(272.76 37.319)scale(0.16 -0.16)">
     <use transform="translate(0.0 0.78125)" xlink:href="#BitstreamVeraSans-Roman-53"/>
    </g>
   </g>
  </g>
 </g>
 <defs>
  <clipPath id="p14958022ee">
   <rect height="135.864" width="243.0" x="29.76" y="7.2"/>
  </clipPath>
 </defs>
</svg>
