<?xml version="1.0" encoding="utf-8" standalone="no"?>
<!DOCTYPE svg PUBLIC "-//W3C//DTD SVG 1.1//EN"
  "http://www.w3.org/Graphics/SVG/1.1/DTD/svg11.dtd">
<!-- Created with matplotlib (http://matplotlib.org/) -->
<svg height="157.1056pt" version="1.1" viewBox="0 0 309.72 157.1056" width="309.72pt" xmlns="http://www.w3.org/2000/svg" xmlns:xlink="http://www.w3.org/1999/xlink">
 <defs>
  <style type="text/css">
*{stroke-linecap:butt;stroke-linejoin:round;}
  </style>
 </defs>
 <g id="figure_1">
  <g id="patch_1">
   <path d="M 0 157.1056 
L 309.72 157.1056 
L 309.72 0 
L 0 0 
z
" style="fill:none;"/>
  </g>
  <g id="axes_1">
   <g id="patch_2">
    <path clip-path="url(#p6d28655704)" d="M 179.94 95.8508 
C 184.234859 95.8508 188.358206 94.380069 191.39513 91.76494 
C 194.432054 89.14981 196.14 85.599151 196.14 81.9008 
C 196.14 78.202449 194.432054 74.65179 191.39513 72.03666 
C 188.358206 69.421531 184.234859 67.9508 179.94 67.9508 
" style="fill:none;stroke:#000000;stroke-linejoin:miter;stroke-width:1.5;"/>
   </g>
   <g id="patch_3">
    <path clip-path="url(#p6d28655704)" d="M 179.94 137.7008 
C 184.234859 137.7008 188.358206 136.230069 191.39513 133.61494 
C 194.432054 130.99981 196.14 127.449151 196.14 123.7508 
C 196.14 120.052449 194.432054 116.50179 191.39513 113.88666 
C 188.358206 111.271531 184.234859 109.8008 179.94 109.8008 
" style="fill:none;stroke:#000000;stroke-linejoin:miter;stroke-width:1.5;"/>
   </g>
   <g id="line2d_1">
    <path clip-path="url(#p6d28655704)" d="M 64.92 33.0758 
M 120 33.0758 
L 131.34 33.0758 
" style="fill:none;stroke:#000000;stroke-linecap:round;stroke-width:1.5;"/>
   </g>
   <g id="line2d_2">
    <path clip-path="url(#p6d28655704)" d="M 81.12 46.7468 
L 97.32 46.7468 
L 97.782857 46.741106 
L 98.245714 46.724024 
L 98.708571 46.695555 
L 99.171429 46.655698 
L 99.634286 46.604453 
L 100.097143 46.54182 
L 100.56 46.4678 
L 101.022857 46.382392 
L 101.485714 46.285596 
L 101.948571 46.177412 
L 102.411429 46.057841 
L 102.874286 45.926882 
L 103.337143 45.784535 
L 103.8 45.6308 
L 104.262857 45.465678 
L 104.725714 45.289167 
L 105.188571 45.101269 
L 105.651429 44.901984 
L 106.114286 44.69131 
L 106.577143 44.469249 
L 107.04 44.2358 
L 107.502857 43.990963 
L 107.965714 43.734739 
L 108.428571 43.467127 
L 108.891429 43.188127 
L 109.354286 42.897739 
L 109.817143 42.595963 
L 110.28 42.2828 
L 110.742857 41.958249 
L 111.205714 41.62231 
L 111.668571 41.274984 
L 112.131429 40.916269 
L 112.594286 40.546167 
L 113.057143 40.164678 
L 113.52 39.7718 
L 113.982857 39.367535 
L 114.445714 38.951882 
L 114.908571 38.524841 
L 115.371429 38.086412 
L 115.834286 37.636596 
L 116.297143 37.175392 
L 116.76 36.7028 
L 117.222857 36.21882 
L 117.685714 35.723453 
L 118.148571 35.216698 
L 118.611429 34.698555 
L 119.074286 34.169024 
L 119.537143 33.628106 
L 120 33.0758 
" style="fill:none;stroke:#000000;stroke-linecap:round;stroke-width:1.5;"/>
   </g>
   <g id="line2d_3">
    <path clip-path="url(#p6d28655704)" d="M 81.12 19.4048 
L 97.32 19.4048 
L 97.782857 19.410494 
L 98.245714 19.427576 
L 98.708571 19.456045 
L 99.171429 19.495902 
L 99.634286 19.547147 
L 100.097143 19.60978 
L 100.56 19.6838 
L 101.022857 19.769208 
L 101.485714 19.866004 
L 101.948571 19.974188 
L 102.411429 20.093759 
L 102.874286 20.224718 
L 103.337143 20.367065 
L 103.8 20.5208 
L 104.262857 20.685922 
L 104.725714 20.862433 
L 105.188571 21.050331 
L 105.651429 21.249616 
L 106.114286 21.46029 
L 106.577143 21.682351 
L 107.04 21.9158 
L 107.502857 22.160637 
L 107.965714 22.416861 
L 108.428571 22.684473 
L 108.891429 22.963473 
L 109.354286 23.253861 
L 109.817143 23.555637 
L 110.28 23.8688 
L 110.742857 24.193351 
L 111.205714 24.52929 
L 111.668571 24.876616 
L 112.131429 25.235331 
L 112.594286 25.605433 
L 113.057143 25.986922 
L 113.52 26.3798 
L 113.982857 26.784065 
L 114.445714 27.199718 
L 114.908571 27.626759 
L 115.371429 28.065188 
L 115.834286 28.515004 
L 116.297143 28.976208 
L 116.76 29.4488 
L 117.222857 29.93278 
L 117.685714 30.428147 
L 118.148571 30.934902 
L 118.611429 31.453045 
L 119.074286 31.982576 
L 119.537143 32.523494 
L 120 33.0758 
" style="fill:none;stroke:#000000;stroke-linecap:round;stroke-width:1.5;"/>
   </g>
   <g id="line2d_4">
    <path clip-path="url(#p6d28655704)" d="M 76.26 46.7468 
L 76.88208 46.1888 
L 77.47824 45.6308 
L 78.04848 45.0728 
L 78.5928 44.5148 
L 79.1112 43.9568 
L 79.60368 43.3988 
L 80.07024 42.8408 
L 80.51088 42.2828 
L 80.9256 41.7248 
L 81.3144 41.1668 
L 81.67728 40.6088 
L 82.01424 40.0508 
L 82.32528 39.4928 
L 82.6104 38.9348 
L 82.8696 38.3768 
L 83.10288 37.8188 
L 83.31024 37.2608 
L 83.49168 36.7028 
L 83.6472 36.1448 
L 83.7768 35.5868 
L 83.88048 35.0288 
L 83.95824 34.4708 
L 84.01008 33.9128 
L 84.036 33.3548 
L 84.036 32.7968 
L 84.01008 32.2388 
L 83.95824 31.6808 
L 83.88048 31.1228 
L 83.7768 30.5648 
L 83.6472 30.0068 
L 83.49168 29.4488 
L 83.31024 28.8908 
L 83.10288 28.3328 
L 82.8696 27.7748 
L 82.6104 27.2168 
L 82.32528 26.6588 
L 82.01424 26.1008 
L 81.67728 25.5428 
L 81.3144 24.9848 
L 80.9256 24.4268 
L 80.51088 23.8688 
L 80.07024 23.3108 
L 79.60368 22.7528 
L 79.1112 22.1948 
L 78.5928 21.6368 
L 78.04848 21.0788 
L 77.47824 20.5208 
L 76.88208 19.9628 
L 76.26 19.4048 
" style="fill:none;stroke:#000000;stroke-linecap:round;stroke-width:1.5;"/>
   </g>
   <g id="line2d_5">
    <path clip-path="url(#p6d28655704)" d="M 81.12 46.7468 
L 81.74208 46.1888 
L 82.33824 45.6308 
L 82.90848 45.0728 
L 83.4528 44.5148 
L 83.9712 43.9568 
L 84.46368 43.3988 
L 84.93024 42.8408 
L 85.37088 42.2828 
L 85.7856 41.7248 
L 86.1744 41.1668 
L 86.53728 40.6088 
L 86.87424 40.0508 
L 87.18528 39.4928 
L 87.4704 38.9348 
L 87.7296 38.3768 
L 87.96288 37.8188 
L 88.17024 37.2608 
L 88.35168 36.7028 
L 88.5072 36.1448 
L 88.6368 35.5868 
L 88.74048 35.0288 
L 88.81824 34.4708 
L 88.87008 33.9128 
L 88.896 33.3548 
L 88.896 32.7968 
L 88.87008 32.2388 
L 88.81824 31.6808 
L 88.74048 31.1228 
L 88.6368 30.5648 
L 88.5072 30.0068 
L 88.35168 29.4488 
L 88.17024 28.8908 
L 87.96288 28.3328 
L 87.7296 27.7748 
L 87.4704 27.2168 
L 87.18528 26.6588 
L 86.87424 26.1008 
L 86.53728 25.5428 
L 86.1744 24.9848 
L 85.7856 24.4268 
L 85.37088 23.8688 
L 84.93024 23.3108 
L 84.46368 22.7528 
L 83.9712 22.1948 
L 83.4528 21.6368 
L 82.90848 21.0788 
L 82.33824 20.5208 
L 81.74208 19.9628 
L 81.12 19.4048 
" style="fill:none;stroke:#000000;stroke-linecap:round;stroke-width:1.5;"/>
   </g>
   <g id="line2d_6">
    <path clip-path="url(#p6d28655704)" d="M 64.92 40.0508 
L 82.01424 40.0508 
" style="fill:none;stroke:#000000;stroke-linecap:round;stroke-width:1.5;"/>
   </g>
   <g id="line2d_7">
    <path clip-path="url(#p6d28655704)" d="M 64.92 26.1008 
L 82.01424 26.1008 
" style="fill:none;stroke:#000000;stroke-linecap:round;stroke-width:1.5;"/>
   </g>
   <g id="line2d_8">
    <path clip-path="url(#p6d28655704)" d="M 131.34 33.0758 
" style="fill:none;stroke:#000000;stroke-linecap:round;stroke-width:1.5;"/>
   </g>
   <g id="line2d_9">
    <path clip-path="url(#p6d28655704)" d="M 64.92 26.1008 
" style="fill:none;stroke:#000000;stroke-linecap:round;stroke-width:1.5;"/>
   </g>
   <g id="line2d_10">
    <path clip-path="url(#p6d28655704)" d="M 64.92 26.1008 
L 48.72 26.1008 
L 32.52 26.1008 
" style="fill:none;stroke:#000000;stroke-linecap:round;stroke-width:1.5;"/>
   </g>
   <g id="line2d_11">
    <path clip-path="url(#p6d28655704)" d="M 64.92 40.0508 
L 56.82 40.0508 
L 48.72 40.0508 
" style="fill:none;stroke:#000000;stroke-linecap:round;stroke-width:1.5;"/>
   </g>
   <g id="line2d_12">
    <path clip-path="url(#p6d28655704)" d="M 48.72 40.0508 
" style="fill:none;stroke:#000000;stroke-linecap:round;stroke-width:1.5;"/>
   </g>
   <g id="line2d_13">
    <path clip-path="url(#p6d28655704)" d="M 48.72 40.0508 
L 40.62 40.0508 
L 32.52 40.0508 
" style="fill:none;stroke:#000000;stroke-linecap:round;stroke-width:1.5;"/>
   </g>
   <g id="line2d_14">
    <path clip-path="url(#p6d28655704)" d="M 131.34 33.0758 
L 139.44 33.0758 
L 147.54 33.0758 
" style="fill:none;stroke:#000000;stroke-linecap:round;stroke-width:1.5;"/>
   </g>
   <g id="line2d_15">
    <path clip-path="url(#p6d28655704)" d="M 147.54 40.0508 
M 202.62 40.0508 
L 213.96 40.0508 
" style="fill:none;stroke:#000000;stroke-linecap:round;stroke-width:1.5;"/>
   </g>
   <g id="line2d_16">
    <path clip-path="url(#p6d28655704)" d="M 163.74 53.7218 
L 179.94 53.7218 
L 180.402857 53.716106 
L 180.865714 53.699024 
L 181.328571 53.670555 
L 181.791429 53.630698 
L 182.254286 53.579453 
L 182.717143 53.51682 
L 183.18 53.4428 
L 183.642857 53.357392 
L 184.105714 53.260596 
L 184.568571 53.152412 
L 185.031429 53.032841 
L 185.494286 52.901882 
L 185.957143 52.759535 
L 186.42 52.6058 
L 186.882857 52.440678 
L 187.345714 52.264167 
L 187.808571 52.076269 
L 188.271429 51.876984 
L 188.734286 51.66631 
L 189.197143 51.444249 
L 189.66 51.2108 
L 190.122857 50.965963 
L 190.585714 50.709739 
L 191.048571 50.442127 
L 191.511429 50.163127 
L 191.974286 49.872739 
L 192.437143 49.570963 
L 192.9 49.2578 
L 193.362857 48.933249 
L 193.825714 48.59731 
L 194.288571 48.249984 
L 194.751429 47.891269 
L 195.214286 47.521167 
L 195.677143 47.139678 
L 196.14 46.7468 
L 196.602857 46.342535 
L 197.065714 45.926882 
L 197.528571 45.499841 
L 197.991429 45.061412 
L 198.454286 44.611596 
L 198.917143 44.150392 
L 199.38 43.6778 
L 199.842857 43.19382 
L 200.305714 42.698453 
L 200.768571 42.191698 
L 201.231429 41.673555 
L 201.694286 41.144024 
L 202.157143 40.603106 
L 202.62 40.0508 
" style="fill:none;stroke:#000000;stroke-linecap:round;stroke-width:1.5;"/>
   </g>
   <g id="line2d_17">
    <path clip-path="url(#p6d28655704)" d="M 163.74 26.3798 
L 179.94 26.3798 
L 180.402857 26.385494 
L 180.865714 26.402576 
L 181.328571 26.431045 
L 181.791429 26.470902 
L 182.254286 26.522147 
L 182.717143 26.58478 
L 183.18 26.6588 
L 183.642857 26.744208 
L 184.105714 26.841004 
L 184.568571 26.949188 
L 185.031429 27.068759 
L 185.494286 27.199718 
L 185.957143 27.342065 
L 186.42 27.4958 
L 186.882857 27.660922 
L 187.345714 27.837433 
L 187.808571 28.025331 
L 188.271429 28.224616 
L 188.734286 28.43529 
L 189.197143 28.657351 
L 189.66 28.8908 
L 190.122857 29.135637 
L 190.585714 29.391861 
L 191.048571 29.659473 
L 191.511429 29.938473 
L 191.974286 30.228861 
L 192.437143 30.530637 
L 192.9 30.8438 
L 193.362857 31.168351 
L 193.825714 31.50429 
L 194.288571 31.851616 
L 194.751429 32.210331 
L 195.214286 32.580433 
L 195.677143 32.961922 
L 196.14 33.3548 
L 196.602857 33.759065 
L 197.065714 34.174718 
L 197.528571 34.601759 
L 197.991429 35.040188 
L 198.454286 35.490004 
L 198.917143 35.951208 
L 199.38 36.4238 
L 199.842857 36.90778 
L 200.305714 37.403147 
L 200.768571 37.909902 
L 201.231429 38.428045 
L 201.694286 38.957576 
L 202.157143 39.498494 
L 202.62 40.0508 
" style="fill:none;stroke:#000000;stroke-linecap:round;stroke-width:1.5;"/>
   </g>
   <g id="line2d_18">
    <path clip-path="url(#p6d28655704)" d="M 158.88 53.7218 
L 159.50208 53.1638 
L 160.09824 52.6058 
L 160.66848 52.0478 
L 161.2128 51.4898 
L 161.7312 50.9318 
L 162.22368 50.3738 
L 162.69024 49.8158 
L 163.13088 49.2578 
L 163.5456 48.6998 
L 163.9344 48.1418 
L 164.29728 47.5838 
L 164.63424 47.0258 
L 164.94528 46.4678 
L 165.2304 45.9098 
L 165.4896 45.3518 
L 165.72288 44.7938 
L 165.93024 44.2358 
L 166.11168 43.6778 
L 166.2672 43.1198 
L 166.3968 42.5618 
L 166.50048 42.0038 
L 166.57824 41.4458 
L 166.63008 40.8878 
L 166.656 40.3298 
L 166.656 39.7718 
L 166.63008 39.2138 
L 166.57824 38.6558 
L 166.50048 38.0978 
L 166.3968 37.5398 
L 166.2672 36.9818 
L 166.11168 36.4238 
L 165.93024 35.8658 
L 165.72288 35.3078 
L 165.4896 34.7498 
L 165.2304 34.1918 
L 164.94528 33.6338 
L 164.63424 33.0758 
L 164.29728 32.5178 
L 163.9344 31.9598 
L 163.5456 31.4018 
L 163.13088 30.8438 
L 162.69024 30.2858 
L 162.22368 29.7278 
L 161.7312 29.1698 
L 161.2128 28.6118 
L 160.66848 28.0538 
L 160.09824 27.4958 
L 159.50208 26.9378 
L 158.88 26.3798 
" style="fill:none;stroke:#000000;stroke-linecap:round;stroke-width:1.5;"/>
   </g>
   <g id="line2d_19">
    <path clip-path="url(#p6d28655704)" d="M 163.74 53.7218 
L 164.36208 53.1638 
L 164.95824 52.6058 
L 165.52848 52.0478 
L 166.0728 51.4898 
L 166.5912 50.9318 
L 167.08368 50.3738 
L 167.55024 49.8158 
L 167.99088 49.2578 
L 168.4056 48.6998 
L 168.7944 48.1418 
L 169.15728 47.5838 
L 169.49424 47.0258 
L 169.80528 46.4678 
L 170.0904 45.9098 
L 170.3496 45.3518 
L 170.58288 44.7938 
L 170.79024 44.2358 
L 170.97168 43.6778 
L 171.1272 43.1198 
L 171.2568 42.5618 
L 171.36048 42.0038 
L 171.43824 41.4458 
L 171.49008 40.8878 
L 171.516 40.3298 
L 171.516 39.7718 
L 171.49008 39.2138 
L 171.43824 38.6558 
L 171.36048 38.0978 
L 171.2568 37.5398 
L 171.1272 36.9818 
L 170.97168 36.4238 
L 170.79024 35.8658 
L 170.58288 35.3078 
L 170.3496 34.7498 
L 170.0904 34.1918 
L 169.80528 33.6338 
L 169.49424 33.0758 
L 169.15728 32.5178 
L 168.7944 31.9598 
L 168.4056 31.4018 
L 167.99088 30.8438 
L 167.55024 30.2858 
L 167.08368 29.7278 
L 166.5912 29.1698 
L 166.0728 28.6118 
L 165.52848 28.0538 
L 164.95824 27.4958 
L 164.36208 26.9378 
L 163.74 26.3798 
" style="fill:none;stroke:#000000;stroke-linecap:round;stroke-width:1.5;"/>
   </g>
   <g id="line2d_20">
    <path clip-path="url(#p6d28655704)" d="M 147.54 47.0258 
L 164.63424 47.0258 
" style="fill:none;stroke:#000000;stroke-linecap:round;stroke-width:1.5;"/>
   </g>
   <g id="line2d_21">
    <path clip-path="url(#p6d28655704)" d="M 147.54 33.0758 
L 164.63424 33.0758 
" style="fill:none;stroke:#000000;stroke-linecap:round;stroke-width:1.5;"/>
   </g>
   <g id="line2d_22">
    <path clip-path="url(#p6d28655704)" d="M 147.54 47.0258 
L 147.54 60.9758 
L 147.54 74.9258 
" style="fill:none;stroke:#000000;stroke-linecap:round;stroke-width:1.5;"/>
   </g>
   <g id="line2d_23">
    <path clip-path="url(#p6d28655704)" d="M 147.54 60.9758 
" style="fill:none;stroke:#000000;stroke-linecap:round;stroke-width:1.5;"/>
   </g>
   <g id="line2d_24">
    <path clip-path="url(#p6d28655704)" d="M 147.54 60.9758 
L 90.03 60.9758 
L 32.52 60.9758 
" style="fill:none;stroke:#000000;stroke-linecap:round;stroke-width:1.5;"/>
   </g>
   <g id="line2d_25">
    <path clip-path="url(#p6d28655704)" d="M 147.54 81.9008 
M 196.14 81.9008 
L 207.48 81.9008 
" style="fill:none;stroke:#000000;stroke-linecap:round;stroke-width:1.5;"/>
   </g>
   <g id="line2d_26">
    <path clip-path="url(#p6d28655704)" d="M 158.88 81.9008 
L 158.88 95.8508 
L 179.94 95.8508 
" style="fill:none;stroke:#000000;stroke-linecap:round;stroke-width:1.5;"/>
   </g>
   <g id="line2d_27">
    <path clip-path="url(#p6d28655704)" d="M 158.88 81.9008 
L 158.88 67.9508 
L 179.94 67.9508 
" style="fill:none;stroke:#000000;stroke-linecap:round;stroke-width:1.5;"/>
   </g>
   <g id="line2d_28">
    <path clip-path="url(#p6d28655704)" d="M 147.54 88.8758 
L 158.88 88.8758 
" style="fill:none;stroke:#000000;stroke-linecap:round;stroke-width:1.5;"/>
   </g>
   <g id="line2d_29">
    <path clip-path="url(#p6d28655704)" d="M 147.54 74.9258 
L 158.88 74.9258 
" style="fill:none;stroke:#000000;stroke-linecap:round;stroke-width:1.5;"/>
   </g>
   <g id="line2d_30">
    <path clip-path="url(#p6d28655704)" d="M 147.54 88.8758 
L 139.44 88.8758 
L 131.34 88.8758 
" style="fill:none;stroke:#000000;stroke-linecap:round;stroke-width:1.5;"/>
   </g>
   <g id="line2d_31">
    <path clip-path="url(#p6d28655704)" d="M 131.34 88.8758 
L 131.34 60.9758 
L 131.34 33.0758 
" style="fill:none;stroke:#000000;stroke-linecap:round;stroke-width:1.5;"/>
   </g>
   <g id="line2d_32">
    <path clip-path="url(#p6d28655704)" d="M 147.54 123.7508 
M 196.14 123.7508 
L 207.48 123.7508 
" style="fill:none;stroke:#000000;stroke-linecap:round;stroke-width:1.5;"/>
   </g>
   <g id="line2d_33">
    <path clip-path="url(#p6d28655704)" d="M 158.88 123.7508 
L 158.88 137.7008 
L 179.94 137.7008 
" style="fill:none;stroke:#000000;stroke-linecap:round;stroke-width:1.5;"/>
   </g>
   <g id="line2d_34">
    <path clip-path="url(#p6d28655704)" d="M 158.88 123.7508 
L 158.88 109.8008 
L 179.94 109.8008 
" style="fill:none;stroke:#000000;stroke-linecap:round;stroke-width:1.5;"/>
   </g>
   <g id="line2d_35">
    <path clip-path="url(#p6d28655704)" d="M 147.54 130.7258 
L 158.88 130.7258 
" style="fill:none;stroke:#000000;stroke-linecap:round;stroke-width:1.5;"/>
   </g>
   <g id="line2d_36">
    <path clip-path="url(#p6d28655704)" d="M 147.54 116.7758 
L 158.88 116.7758 
" style="fill:none;stroke:#000000;stroke-linecap:round;stroke-width:1.5;"/>
   </g>
   <g id="line2d_37">
    <path clip-path="url(#p6d28655704)" d="M 147.54 116.7758 
L 106.23 116.7758 
L 64.92 116.7758 
" style="fill:none;stroke:#000000;stroke-linecap:round;stroke-width:1.5;"/>
   </g>
   <g id="line2d_38">
    <path clip-path="url(#p6d28655704)" d="M 64.92 116.7758 
L 64.92 71.4383 
L 64.92 26.1008 
" style="fill:none;stroke:#000000;stroke-linecap:round;stroke-width:1.5;"/>
   </g>
   <g id="line2d_39">
    <path clip-path="url(#p6d28655704)" d="M 147.54 130.7258 
L 98.13 130.7258 
L 48.72 130.7258 
" style="fill:none;stroke:#000000;stroke-linecap:round;stroke-width:1.5;"/>
   </g>
   <g id="line2d_40">
    <path clip-path="url(#p6d28655704)" d="M 48.72 130.7258 
L 48.72 85.3883 
L 48.72 40.0508 
" style="fill:none;stroke:#000000;stroke-linecap:round;stroke-width:1.5;"/>
   </g>
   <g id="line2d_41">
    <path clip-path="url(#p6d28655704)" d="M 207.48 102.8258 
M 257.7 102.8258 
L 269.04 102.8258 
" style="fill:none;stroke:#000000;stroke-linecap:round;stroke-width:1.5;"/>
   </g>
   <g id="line2d_42">
    <path clip-path="url(#p6d28655704)" d="M 218.82 116.4968 
L 235.02 116.4968 
L 235.482857 116.491106 
L 235.945714 116.474024 
L 236.408571 116.445555 
L 236.871429 116.405698 
L 237.334286 116.354453 
L 237.797143 116.29182 
L 238.26 116.2178 
L 238.722857 116.132392 
L 239.185714 116.035596 
L 239.648571 115.927412 
L 240.111429 115.807841 
L 240.574286 115.676882 
L 241.037143 115.534535 
L 241.5 115.3808 
L 241.962857 115.215678 
L 242.425714 115.039167 
L 242.888571 114.851269 
L 243.351429 114.651984 
L 243.814286 114.44131 
L 244.277143 114.219249 
L 244.74 113.9858 
L 245.202857 113.740963 
L 245.665714 113.484739 
L 246.128571 113.217127 
L 246.591429 112.938127 
L 247.054286 112.647739 
L 247.517143 112.345963 
L 247.98 112.0328 
L 248.442857 111.708249 
L 248.905714 111.37231 
L 249.368571 111.024984 
L 249.831429 110.666269 
L 250.294286 110.296167 
L 250.757143 109.914678 
L 251.22 109.5218 
L 251.682857 109.117535 
L 252.145714 108.701882 
L 252.608571 108.274841 
L 253.071429 107.836412 
L 253.534286 107.386596 
L 253.997143 106.925392 
L 254.46 106.4528 
L 254.922857 105.96882 
L 255.385714 105.473453 
L 255.848571 104.966698 
L 256.311429 104.448555 
L 256.774286 103.919024 
L 257.237143 103.378106 
L 257.7 102.8258 
" style="fill:none;stroke:#000000;stroke-linecap:round;stroke-width:1.5;"/>
   </g>
   <g id="line2d_43">
    <path clip-path="url(#p6d28655704)" d="M 218.82 89.1548 
L 235.02 89.1548 
L 235.482857 89.160494 
L 235.945714 89.177576 
L 236.408571 89.206045 
L 236.871429 89.245902 
L 237.334286 89.297147 
L 237.797143 89.35978 
L 238.26 89.4338 
L 238.722857 89.519208 
L 239.185714 89.616004 
L 239.648571 89.724188 
L 240.111429 89.843759 
L 240.574286 89.974718 
L 241.037143 90.117065 
L 241.5 90.2708 
L 241.962857 90.435922 
L 242.425714 90.612433 
L 242.888571 90.800331 
L 243.351429 90.999616 
L 243.814286 91.21029 
L 244.277143 91.432351 
L 244.74 91.6658 
L 245.202857 91.910637 
L 245.665714 92.166861 
L 246.128571 92.434473 
L 246.591429 92.713473 
L 247.054286 93.003861 
L 247.517143 93.305637 
L 247.98 93.6188 
L 248.442857 93.943351 
L 248.905714 94.27929 
L 249.368571 94.626616 
L 249.831429 94.985331 
L 250.294286 95.355433 
L 250.757143 95.736922 
L 251.22 96.1298 
L 251.682857 96.534065 
L 252.145714 96.949718 
L 252.608571 97.376759 
L 253.071429 97.815188 
L 253.534286 98.265004 
L 253.997143 98.726208 
L 254.46 99.1988 
L 254.922857 99.68278 
L 255.385714 100.178147 
L 255.848571 100.684902 
L 256.311429 101.203045 
L 256.774286 101.732576 
L 257.237143 102.273494 
L 257.7 102.8258 
" style="fill:none;stroke:#000000;stroke-linecap:round;stroke-width:1.5;"/>
   </g>
   <g id="line2d_44">
    <path clip-path="url(#p6d28655704)" d="M 218.82 116.4968 
L 219.44208 115.9388 
L 220.03824 115.3808 
L 220.60848 114.8228 
L 221.1528 114.2648 
L 221.6712 113.7068 
L 222.16368 113.1488 
L 222.63024 112.5908 
L 223.07088 112.0328 
L 223.4856 111.4748 
L 223.8744 110.9168 
L 224.23728 110.3588 
L 224.57424 109.8008 
L 224.88528 109.2428 
L 225.1704 108.6848 
L 225.4296 108.1268 
L 225.66288 107.5688 
L 225.87024 107.0108 
L 226.05168 106.4528 
L 226.2072 105.8948 
L 226.3368 105.3368 
L 226.44048 104.7788 
L 226.51824 104.2208 
L 226.57008 103.6628 
L 226.596 103.1048 
L 226.596 102.5468 
L 226.57008 101.9888 
L 226.51824 101.4308 
L 226.44048 100.8728 
L 226.3368 100.3148 
L 226.2072 99.7568 
L 226.05168 99.1988 
L 225.87024 98.6408 
L 225.66288 98.0828 
L 225.4296 97.5248 
L 225.1704 96.9668 
L 224.88528 96.4088 
L 224.57424 95.8508 
L 224.23728 95.2928 
L 223.8744 94.7348 
L 223.4856 94.1768 
L 223.07088 93.6188 
L 222.63024 93.0608 
L 222.16368 92.5028 
L 221.6712 91.9448 
L 221.1528 91.3868 
L 220.60848 90.8288 
L 220.03824 90.2708 
L 219.44208 89.7128 
L 218.82 89.1548 
" style="fill:none;stroke:#000000;stroke-linecap:round;stroke-width:1.5;"/>
   </g>
   <g id="line2d_45">
    <path clip-path="url(#p6d28655704)" d="M 207.48 109.8008 
L 224.57424 109.8008 
" style="fill:none;stroke:#000000;stroke-linecap:round;stroke-width:1.5;"/>
   </g>
   <g id="line2d_46">
    <path clip-path="url(#p6d28655704)" d="M 207.48 95.8508 
L 224.57424 95.8508 
" style="fill:none;stroke:#000000;stroke-linecap:round;stroke-width:1.5;"/>
   </g>
   <g id="line2d_47">
    <path clip-path="url(#p6d28655704)" d="M 207.48 81.9008 
L 207.48 88.8758 
L 207.48 95.8508 
" style="fill:none;stroke:#000000;stroke-linecap:round;stroke-width:1.5;"/>
   </g>
   <g id="line2d_48">
    <path clip-path="url(#p6d28655704)" d="M 207.48 123.7508 
L 207.48 116.7758 
L 207.48 109.8008 
" style="fill:none;stroke:#000000;stroke-linecap:round;stroke-width:1.5;"/>
   </g>
   <g id="line2d_49">
    <path clip-path="url(#p6d28655704)" d="M 213.96 40.0508 
L 241.5 40.0508 
L 269.04 40.0508 
" style="fill:none;stroke:#000000;stroke-linecap:round;stroke-width:1.5;"/>
   </g>
   <g id="patch_4">
    <path clip-path="url(#p6d28655704)" d="M 131.34 35.1683 
C 131.984444 35.1683 132.602579 34.947821 133.058269 34.555421 
C 133.51396 34.163021 133.77 33.630737 133.77 33.0758 
C 133.77 32.520863 133.51396 31.988579 133.058269 31.596179 
C 132.602579 31.203779 131.984444 30.9833 131.34 30.9833 
C 130.695556 30.9833 130.077421 31.203779 129.621731 31.596179 
C 129.16604 31.988579 128.91 32.520863 128.91 33.0758 
C 128.91 33.630737 129.16604 34.163021 129.621731 34.555421 
C 130.077421 34.947821 130.695556 35.1683 131.34 35.1683 
z
" style="stroke:#000000;stroke-linejoin:miter;stroke-width:1.5;"/>
   </g>
   <g id="patch_5">
    <path clip-path="url(#p6d28655704)" d="M 64.92 28.1933 
C 65.564444 28.1933 66.182579 27.972821 66.638269 27.580421 
C 67.09396 27.188021 67.35 26.655737 67.35 26.1008 
C 67.35 25.545863 67.09396 25.013579 66.638269 24.621179 
C 66.182579 24.228779 65.564444 24.0083 64.92 24.0083 
C 64.275556 24.0083 63.657421 24.228779 63.201731 24.621179 
C 62.74604 25.013579 62.49 25.545863 62.49 26.1008 
C 62.49 26.655737 62.74604 27.188021 63.201731 27.580421 
C 63.657421 27.972821 64.275556 28.1933 64.92 28.1933 
z
" style="stroke:#000000;stroke-linejoin:miter;stroke-width:1.5;"/>
   </g>
   <g id="patch_6">
    <path clip-path="url(#p6d28655704)" d="M 48.72 42.1433 
C 49.364444 42.1433 49.982579 41.922821 50.438269 41.530421 
C 50.89396 41.138021 51.15 40.605737 51.15 40.0508 
C 51.15 39.495863 50.89396 38.963579 50.438269 38.571179 
C 49.982579 38.178779 49.364444 37.9583 48.72 37.9583 
C 48.075556 37.9583 47.457421 38.178779 47.001731 38.571179 
C 46.54604 38.963579 46.29 39.495863 46.29 40.0508 
C 46.29 40.605737 46.54604 41.138021 47.001731 41.530421 
C 47.457421 41.922821 48.075556 42.1433 48.72 42.1433 
z
" style="stroke:#000000;stroke-linejoin:miter;stroke-width:1.5;"/>
   </g>
   <g id="patch_7">
    <path clip-path="url(#p6d28655704)" d="M 147.54 63.0683 
C 148.184444 63.0683 148.802579 62.847821 149.258269 62.455421 
C 149.71396 62.063021 149.97 61.530737 149.97 60.9758 
C 149.97 60.420863 149.71396 59.888579 149.258269 59.496179 
C 148.802579 59.103779 148.184444 58.8833 147.54 58.8833 
C 146.895556 58.8833 146.277421 59.103779 145.821731 59.496179 
C 145.36604 59.888579 145.11 60.420863 145.11 60.9758 
C 145.11 61.530737 145.36604 62.063021 145.821731 62.455421 
C 146.277421 62.847821 146.895556 63.0683 147.54 63.0683 
z
" style="stroke:#000000;stroke-linejoin:miter;stroke-width:1.5;"/>
   </g>
   <g id="text_1">
    <!-- $A$ -->
    <defs>
     <path d="M 34.1875 63.1875 
L 20.796875 26.90625 
L 47.609375 26.90625 
z
M 28.609375 72.90625 
L 39.796875 72.90625 
L 67.578125 0 
L 57.328125 0 
L 50.6875 18.703125 
L 17.828125 18.703125 
L 11.1875 0 
L 0.78125 0 
z
" id="DejaVuSans-41"/>
    </defs>
    <g transform="translate(18.24 30.5158)scale(0.16 -0.16)">
     <use transform="translate(0 0.09375)" xlink:href="#DejaVuSans-41"/>
    </g>
   </g>
   <g id="text_2">
    <!-- $B$ -->
    <defs>
     <path d="M 19.671875 34.8125 
L 19.671875 8.109375 
L 35.5 8.109375 
Q 43.453125 8.109375 47.28125 11.40625 
Q 51.125 14.703125 51.125 21.484375 
Q 51.125 28.328125 47.28125 31.5625 
Q 43.453125 34.8125 35.5 34.8125 
z
M 19.671875 64.796875 
L 19.671875 42.828125 
L 34.28125 42.828125 
Q 41.5 42.828125 45.03125 45.53125 
Q 48.578125 48.25 48.578125 53.8125 
Q 48.578125 59.328125 45.03125 62.0625 
Q 41.5 64.796875 34.28125 64.796875 
z
M 9.8125 72.90625 
L 35.015625 72.90625 
Q 46.296875 72.90625 52.390625 68.21875 
Q 58.5 63.53125 58.5 54.890625 
Q 58.5 48.1875 55.375 44.234375 
Q 52.25 40.28125 46.1875 39.3125 
Q 53.46875 37.75 57.5 32.78125 
Q 61.53125 27.828125 61.53125 20.40625 
Q 61.53125 10.640625 54.890625 5.3125 
Q 48.25 0 35.984375 0 
L 9.8125 0 
z
" id="DejaVuSans-42"/>
    </defs>
    <g transform="translate(18.24 44.4658)scale(0.16 -0.16)">
     <use transform="translate(0 0.09375)" xlink:href="#DejaVuSans-42"/>
    </g>
   </g>
   <g id="text_3">
    <!-- $C_{in}$ -->
    <defs>
     <path d="M 64.40625 67.28125 
L 64.40625 56.890625 
Q 59.421875 61.53125 53.78125 63.8125 
Q 48.140625 66.109375 41.796875 66.109375 
Q 29.296875 66.109375 22.65625 58.46875 
Q 16.015625 50.828125 16.015625 36.375 
Q 16.015625 21.96875 22.65625 14.328125 
Q 29.296875 6.6875 41.796875 6.6875 
Q 48.140625 6.6875 53.78125 8.984375 
Q 59.421875 11.28125 64.40625 15.921875 
L 64.40625 5.609375 
Q 59.234375 2.09375 53.4375 0.328125 
Q 47.65625 -1.421875 41.21875 -1.421875 
Q 24.65625 -1.421875 15.125 8.703125 
Q 5.609375 18.84375 5.609375 36.375 
Q 5.609375 53.953125 15.125 64.078125 
Q 24.65625 74.21875 41.21875 74.21875 
Q 47.75 74.21875 53.53125 72.484375 
Q 59.328125 70.75 64.40625 67.28125 
z
" id="DejaVuSans-43"/>
     <path d="M 9.421875 54.6875 
L 18.40625 54.6875 
L 18.40625 0 
L 9.421875 0 
z
M 9.421875 75.984375 
L 18.40625 75.984375 
L 18.40625 64.59375 
L 9.421875 64.59375 
z
" id="DejaVuSans-69"/>
     <path d="M 54.890625 33.015625 
L 54.890625 0 
L 45.90625 0 
L 45.90625 32.71875 
Q 45.90625 40.484375 42.875 44.328125 
Q 39.84375 48.1875 33.796875 48.1875 
Q 26.515625 48.1875 22.3125 43.546875 
Q 18.109375 38.921875 18.109375 30.90625 
L 18.109375 0 
L 9.078125 0 
L 9.078125 54.6875 
L 18.109375 54.6875 
L 18.109375 46.1875 
Q 21.34375 51.125 25.703125 53.5625 
Q 30.078125 56 35.796875 56 
Q 45.21875 56 50.046875 50.171875 
Q 54.890625 44.34375 54.890625 33.015625 
z
" id="DejaVuSans-6e"/>
    </defs>
    <g transform="translate(7.2 65.3908)scale(0.16 -0.16)">
     <use transform="translate(0 0.78125)" xlink:href="#DejaVuSans-43"/>
     <use transform="translate(70.78125 -15.625)scale(0.7)" xlink:href="#DejaVuSans-69"/>
     <use transform="translate(90.229492 -15.625)scale(0.7)" xlink:href="#DejaVuSans-6e"/>
    </g>
   </g>
   <g id="text_4">
    <!-- $C_{out}$ -->
    <defs>
     <path d="M 30.609375 48.390625 
Q 23.390625 48.390625 19.1875 42.75 
Q 14.984375 37.109375 14.984375 27.296875 
Q 14.984375 17.484375 19.15625 11.84375 
Q 23.34375 6.203125 30.609375 6.203125 
Q 37.796875 6.203125 41.984375 11.859375 
Q 46.1875 17.53125 46.1875 27.296875 
Q 46.1875 37.015625 41.984375 42.703125 
Q 37.796875 48.390625 30.609375 48.390625 
z
M 30.609375 56 
Q 42.328125 56 49.015625 48.375 
Q 55.71875 40.765625 55.71875 27.296875 
Q 55.71875 13.875 49.015625 6.21875 
Q 42.328125 -1.421875 30.609375 -1.421875 
Q 18.84375 -1.421875 12.171875 6.21875 
Q 5.515625 13.875 5.515625 27.296875 
Q 5.515625 40.765625 12.171875 48.375 
Q 18.84375 56 30.609375 56 
z
" id="DejaVuSans-6f"/>
     <path d="M 8.5 21.578125 
L 8.5 54.6875 
L 17.484375 54.6875 
L 17.484375 21.921875 
Q 17.484375 14.15625 20.5 10.265625 
Q 23.53125 6.390625 29.59375 6.390625 
Q 36.859375 6.390625 41.078125 11.03125 
Q 45.3125 15.671875 45.3125 23.6875 
L 45.3125 54.6875 
L 54.296875 54.6875 
L 54.296875 0 
L 45.3125 0 
L 45.3125 8.40625 
Q 42.046875 3.421875 37.71875 1 
Q 33.40625 -1.421875 27.6875 -1.421875 
Q 18.265625 -1.421875 13.375 4.4375 
Q 8.5 10.296875 8.5 21.578125 
z
M 31.109375 56 
z
" id="DejaVuSans-75"/>
     <path d="M 18.3125 70.21875 
L 18.3125 54.6875 
L 36.8125 54.6875 
L 36.8125 47.703125 
L 18.3125 47.703125 
L 18.3125 18.015625 
Q 18.3125 11.328125 20.140625 9.421875 
Q 21.96875 7.515625 27.59375 7.515625 
L 36.8125 7.515625 
L 36.8125 0 
L 27.59375 0 
Q 17.1875 0 13.234375 3.875 
Q 9.28125 7.765625 9.28125 18.015625 
L 9.28125 47.703125 
L 2.6875 47.703125 
L 2.6875 54.6875 
L 9.28125 54.6875 
L 9.28125 70.21875 
z
" id="DejaVuSans-74"/>
    </defs>
    <g transform="translate(272.28 107.2408)scale(0.16 -0.16)">
     <use transform="translate(0 0.78125)" xlink:href="#DejaVuSans-43"/>
     <use transform="translate(70.78125 -15.625)scale(0.7)" xlink:href="#DejaVuSans-6f"/>
     <use transform="translate(113.608398 -15.625)scale(0.7)" xlink:href="#DejaVuSans-75"/>
     <use transform="translate(157.973633 -15.625)scale(0.7)" xlink:href="#DejaVuSans-74"/>
    </g>
   </g>
   <g id="text_5">
    <!-- $S$ -->
    <defs>
     <path d="M 53.515625 70.515625 
L 53.515625 60.890625 
Q 47.90625 63.578125 42.921875 64.890625 
Q 37.9375 66.21875 33.296875 66.21875 
Q 25.25 66.21875 20.875 63.09375 
Q 16.5 59.96875 16.5 54.203125 
Q 16.5 49.359375 19.40625 46.890625 
Q 22.3125 44.4375 30.421875 42.921875 
L 36.375 41.703125 
Q 47.40625 39.59375 52.65625 34.296875 
Q 57.90625 29 57.90625 20.125 
Q 57.90625 9.515625 50.796875 4.046875 
Q 43.703125 -1.421875 29.984375 -1.421875 
Q 24.8125 -1.421875 18.96875 -0.25 
Q 13.140625 0.921875 6.890625 3.21875 
L 6.890625 13.375 
Q 12.890625 10.015625 18.65625 8.296875 
Q 24.421875 6.59375 29.984375 6.59375 
Q 38.421875 6.59375 43.015625 9.90625 
Q 47.609375 13.234375 47.609375 19.390625 
Q 47.609375 24.75 44.3125 27.78125 
Q 41.015625 30.8125 33.5 32.328125 
L 27.484375 33.5 
Q 16.453125 35.6875 11.515625 40.375 
Q 6.59375 45.0625 6.59375 53.421875 
Q 6.59375 63.09375 13.40625 68.65625 
Q 20.21875 74.21875 32.171875 74.21875 
Q 37.3125 74.21875 42.625 73.28125 
Q 47.953125 72.359375 53.515625 70.515625 
z
" id="DejaVuSans-53"/>
    </defs>
    <g transform="translate(272.28 44.4658)scale(0.16 -0.16)">
     <use transform="translate(0 0.78125)" xlink:href="#DejaVuSans-53"/>
    </g>
   </g>
  </g>
 </g>
 <defs>
  <clipPath id="p6d28655704">
   <rect height="135.7056" width="266.652" x="17.454" y="10.7"/>
  </clipPath>
 </defs>
</svg>
