<?xml version="1.0" encoding="utf-8" standalone="no"?>
<!DOCTYPE svg PUBLIC "-//W3C//DTD SVG 1.1//EN"
  "http://www.w3.org/Graphics/SVG/1.1/DTD/svg11.dtd">
<!-- Created with matplotlib (http://matplotlib.org/) -->
<svg height="150pt" version="1.1" viewBox="0 0 308 150" width="308pt" xmlns="http://www.w3.org/2000/svg" xmlns:xlink="http://www.w3.org/1999/xlink">
 <defs>
  <style type="text/css">
*{stroke-linecap:butt;stroke-linejoin:round;}
  </style>
 </defs>
 <g id="figure_1">
  <g id="patch_1">
   <path d="
M0 150.264
L308.44 150.264
L308.44 0
L0 0
L0 150.264" style="fill:none;"/>
  </g>
  <g id="axes_1">
   <g id="patch_2">
    <path clip-path="url(#p0b8ff3eb16)" d="
M179.3 94.104
C183.595 94.104 187.718 92.4909 190.755 89.6227
C193.792 86.7545 195.5 82.8603 195.5 78.804
C195.5 74.7477 193.792 70.8535 190.755 67.9853
C187.718 65.1171 183.595 63.504 179.3 63.504" style="fill:none;stroke:#000000;stroke-linejoin:miter;stroke-width:1.5;"/>
   </g>
   <g id="patch_3">
    <path clip-path="url(#p0b8ff3eb16)" d="
M179.3 140.004
C183.595 140.004 187.718 138.391 190.755 135.523
C193.792 132.655 195.5 128.76 195.5 124.704
C195.5 120.648 193.792 116.753 190.755 113.885
C187.718 111.017 183.595 109.404 179.3 109.404" style="fill:none;stroke:#000000;stroke-linejoin:miter;stroke-width:1.5;"/>
   </g>
   <g id="line2d_1">
    <path clip-path="url(#p0b8ff3eb16)" d="
M64.28 25.254
M119.36 25.254
L130.7 25.254" style="fill:none;stroke:#000000;stroke-linecap:round;stroke-width:1.5;"/>
   </g>
   <g id="line2d_2">
    <path clip-path="url(#p0b8ff3eb16)" d="
M80.48 40.248
L96.68 40.248
L97.1429 40.2418
L97.6057 40.223
L98.0686 40.1918
L98.5314 40.1481
L98.9943 40.0919
L99.4571 40.0232
L99.92 39.942
L100.383 39.8483
L100.846 39.7422
L101.309 39.6235
L101.771 39.4924
L102.234 39.3487
L102.697 39.1926
L103.16 39.024
L103.623 38.8429
L104.086 38.6493
L104.549 38.4432
L105.011 38.2247
L105.474 37.9936
L105.937 37.75
L106.4 37.494
L106.863 37.2255
L107.326 36.9444
L107.789 36.6509
L108.251 36.3449
L108.714 36.0264
L109.177 35.6955
L109.64 35.352
L110.103 34.996
L110.566 34.6276
L111.029 34.2467
L111.491 33.8532
L111.954 33.4473
L112.417 33.0289
L112.88 32.598
L113.343 32.1546
L113.806 31.6987
L114.269 31.2304
L114.731 30.7495
L115.194 30.2562
L115.657 29.7503
L116.12 29.232
L116.583 28.7012
L117.046 28.1579
L117.509 27.6021
L117.971 27.0338
L118.434 26.453
L118.897 25.8598
L119.36 25.254" style="fill:none;stroke:#000000;stroke-linecap:round;stroke-width:1.5;"/>
   </g>
   <g id="line2d_3">
    <path clip-path="url(#p0b8ff3eb16)" d="
M80.48 10.26
L96.68 10.26
L97.1429 10.2662
L97.6057 10.285
L98.0686 10.3162
L98.5314 10.3599
L98.9943 10.4161
L99.4571 10.4848
L99.92 10.566
L100.383 10.6597
L100.846 10.7658
L101.309 10.8845
L101.771 11.0156
L102.234 11.1593
L102.697 11.3154
L103.16 11.484
L103.623 11.6651
L104.086 11.8587
L104.549 12.0648
L105.011 12.2833
L105.474 12.5144
L105.937 12.758
L106.4 13.014
L106.863 13.2825
L107.326 13.5636
L107.789 13.8571
L108.251 14.1631
L108.714 14.4816
L109.177 14.8125
L109.64 15.156
L110.103 15.512
L110.566 15.8804
L111.029 16.2613
L111.491 16.6548
L111.954 17.0607
L112.417 17.4791
L112.88 17.91
L113.343 18.3534
L113.806 18.8093
L114.269 19.2776
L114.731 19.7585
L115.194 20.2518
L115.657 20.7577
L116.12 21.276
L116.583 21.8068
L117.046 22.3501
L117.509 22.9059
L117.971 23.4742
L118.434 24.055
L118.897 24.6482
L119.36 25.254" style="fill:none;stroke:#000000;stroke-linecap:round;stroke-width:1.5;"/>
   </g>
   <g id="line2d_4">
    <path clip-path="url(#p0b8ff3eb16)" d="
M75.62 40.248
L76.2421 39.636
L76.8382 39.024
L77.4085 38.412
L77.9528 37.8
L78.4712 37.188
L78.9637 36.576
L79.4302 35.964
L79.8709 35.352
L80.2856 34.74
L80.6744 34.128
L81.0373 33.516
L81.3742 32.904
L81.6853 32.292
L81.9704 31.68
L82.2296 31.068
L82.4629 30.456
L82.6702 29.844
L82.8517 29.232
L83.0072 28.62
L83.1368 28.008
L83.2405 27.396
L83.3182 26.784
L83.3701 26.172
L83.396 25.56
L83.396 24.948
L83.3701 24.336
L83.3182 23.724
L83.2405 23.112
L83.1368 22.5
L83.0072 21.888
L82.8517 21.276
L82.6702 20.664
L82.4629 20.052
L82.2296 19.44
L81.9704 18.828
L81.6853 18.216
L81.3742 17.604
L81.0373 16.992
L80.6744 16.38
L80.2856 15.768
L79.8709 15.156
L79.4302 14.544
L78.9637 13.932
L78.4712 13.32
L77.9528 12.708
L77.4085 12.096
L76.8382 11.484
L76.2421 10.872
L75.62 10.26" style="fill:none;stroke:#000000;stroke-linecap:round;stroke-width:1.5;"/>
   </g>
   <g id="line2d_5">
    <path clip-path="url(#p0b8ff3eb16)" d="
M80.48 40.248
L81.1021 39.636
L81.6982 39.024
L82.2685 38.412
L82.8128 37.8
L83.3312 37.188
L83.8237 36.576
L84.2902 35.964
L84.7309 35.352
L85.1456 34.74
L85.5344 34.128
L85.8973 33.516
L86.2342 32.904
L86.5453 32.292
L86.8304 31.68
L87.0896 31.068
L87.3229 30.456
L87.5302 29.844
L87.7117 29.232
L87.8672 28.62
L87.9968 28.008
L88.1005 27.396
L88.1782 26.784
L88.2301 26.172
L88.256 25.56
L88.256 24.948
L88.2301 24.336
L88.1782 23.724
L88.1005 23.112
L87.9968 22.5
L87.8672 21.888
L87.7117 21.276
L87.5302 20.664
L87.3229 20.052
L87.0896 19.44
L86.8304 18.828
L86.5453 18.216
L86.2342 17.604
L85.8973 16.992
L85.5344 16.38
L85.1456 15.768
L84.7309 15.156
L84.2902 14.544
L83.8237 13.932
L83.3312 13.32
L82.8128 12.708
L82.2685 12.096
L81.6982 11.484
L81.1021 10.872
L80.48 10.26" style="fill:none;stroke:#000000;stroke-linecap:round;stroke-width:1.5;"/>
   </g>
   <g id="line2d_6">
    <path clip-path="url(#p0b8ff3eb16)" d="
M64.28 32.904
L81.3742 32.904" style="fill:none;stroke:#000000;stroke-linecap:round;stroke-width:1.5;"/>
   </g>
   <g id="line2d_7">
    <path clip-path="url(#p0b8ff3eb16)" d="
M64.28 17.604
L81.3742 17.604" style="fill:none;stroke:#000000;stroke-linecap:round;stroke-width:1.5;"/>
   </g>
   <g id="line2d_8">
    <path clip-path="url(#p0b8ff3eb16)" d="
M130.7 25.254" style="fill:none;stroke:#000000;stroke-linecap:round;stroke-width:1.5;"/>
   </g>
   <g id="line2d_9">
    <path clip-path="url(#p0b8ff3eb16)" d="
M64.28 17.604" style="fill:none;stroke:#000000;stroke-linecap:round;stroke-width:1.5;"/>
   </g>
   <g id="line2d_10">
    <path clip-path="url(#p0b8ff3eb16)" d="
M64.28 17.604
L48.08 17.604
L31.88 17.604" style="fill:none;stroke:#000000;stroke-linecap:round;stroke-width:1.5;"/>
   </g>
   <g id="line2d_11">
    <path clip-path="url(#p0b8ff3eb16)" d="
M64.28 32.904
L56.18 32.904
L48.08 32.904" style="fill:none;stroke:#000000;stroke-linecap:round;stroke-width:1.5;"/>
   </g>
   <g id="line2d_12">
    <path clip-path="url(#p0b8ff3eb16)" d="
M48.08 32.904" style="fill:none;stroke:#000000;stroke-linecap:round;stroke-width:1.5;"/>
   </g>
   <g id="line2d_13">
    <path clip-path="url(#p0b8ff3eb16)" d="
M48.08 32.904
L39.98 32.904
L31.88 32.904" style="fill:none;stroke:#000000;stroke-linecap:round;stroke-width:1.5;"/>
   </g>
   <g id="line2d_14">
    <path clip-path="url(#p0b8ff3eb16)" d="
M130.7 25.254
L138.8 25.254
L146.9 25.254" style="fill:none;stroke:#000000;stroke-linecap:round;stroke-width:1.5;"/>
   </g>
   <g id="line2d_15">
    <path clip-path="url(#p0b8ff3eb16)" d="
M146.9 32.904
M201.98 32.904
L213.32 32.904" style="fill:none;stroke:#000000;stroke-linecap:round;stroke-width:1.5;"/>
   </g>
   <g id="line2d_16">
    <path clip-path="url(#p0b8ff3eb16)" d="
M163.1 47.898
L179.3 47.898
L179.763 47.8918
L180.226 47.873
L180.689 47.8418
L181.151 47.7981
L181.614 47.7419
L182.077 47.6732
L182.54 47.592
L183.003 47.4983
L183.466 47.3922
L183.929 47.2735
L184.391 47.1424
L184.854 46.9987
L185.317 46.8426
L185.78 46.674
L186.243 46.4929
L186.706 46.2993
L187.169 46.0932
L187.631 45.8747
L188.094 45.6436
L188.557 45.4
L189.02 45.144
L189.483 44.8755
L189.946 44.5944
L190.409 44.3009
L190.871 43.9949
L191.334 43.6764
L191.797 43.3455
L192.26 43.002
L192.723 42.646
L193.186 42.2776
L193.649 41.8967
L194.111 41.5032
L194.574 41.0973
L195.037 40.6789
L195.5 40.248
L195.963 39.8046
L196.426 39.3487
L196.889 38.8804
L197.351 38.3995
L197.814 37.9062
L198.277 37.4003
L198.74 36.882
L199.203 36.3512
L199.666 35.8079
L200.129 35.2521
L200.591 34.6838
L201.054 34.103
L201.517 33.5098
L201.98 32.904" style="fill:none;stroke:#000000;stroke-linecap:round;stroke-width:1.5;"/>
   </g>
   <g id="line2d_17">
    <path clip-path="url(#p0b8ff3eb16)" d="
M163.1 17.91
L179.3 17.91
L179.763 17.9162
L180.226 17.935
L180.689 17.9662
L181.151 18.0099
L181.614 18.0661
L182.077 18.1348
L182.54 18.216
L183.003 18.3097
L183.466 18.4158
L183.929 18.5345
L184.391 18.6656
L184.854 18.8093
L185.317 18.9654
L185.78 19.134
L186.243 19.3151
L186.706 19.5087
L187.169 19.7148
L187.631 19.9333
L188.094 20.1644
L188.557 20.408
L189.02 20.664
L189.483 20.9325
L189.946 21.2136
L190.409 21.5071
L190.871 21.8131
L191.334 22.1316
L191.797 22.4625
L192.26 22.806
L192.723 23.162
L193.186 23.5304
L193.649 23.9113
L194.111 24.3048
L194.574 24.7107
L195.037 25.1291
L195.5 25.56
L195.963 26.0034
L196.426 26.4593
L196.889 26.9276
L197.351 27.4085
L197.814 27.9018
L198.277 28.4077
L198.74 28.926
L199.203 29.4568
L199.666 30.0001
L200.129 30.5559
L200.591 31.1242
L201.054 31.705
L201.517 32.2982
L201.98 32.904" style="fill:none;stroke:#000000;stroke-linecap:round;stroke-width:1.5;"/>
   </g>
   <g id="line2d_18">
    <path clip-path="url(#p0b8ff3eb16)" d="
M158.24 47.898
L158.862 47.286
L159.458 46.674
L160.028 46.062
L160.573 45.45
L161.091 44.838
L161.584 44.226
L162.05 43.614
L162.491 43.002
L162.906 42.39
L163.294 41.778
L163.657 41.166
L163.994 40.554
L164.305 39.942
L164.59 39.33
L164.85 38.718
L165.083 38.106
L165.29 37.494
L165.472 36.882
L165.627 36.27
L165.757 35.658
L165.86 35.046
L165.938 34.434
L165.99 33.822
L166.016 33.21
L166.016 32.598
L165.99 31.986
L165.938 31.374
L165.86 30.762
L165.757 30.15
L165.627 29.538
L165.472 28.926
L165.29 28.314
L165.083 27.702
L164.85 27.09
L164.59 26.478
L164.305 25.866
L163.994 25.254
L163.657 24.642
L163.294 24.03
L162.906 23.418
L162.491 22.806
L162.05 22.194
L161.584 21.582
L161.091 20.97
L160.573 20.358
L160.028 19.746
L159.458 19.134
L158.862 18.522
L158.24 17.91" style="fill:none;stroke:#000000;stroke-linecap:round;stroke-width:1.5;"/>
   </g>
   <g id="line2d_19">
    <path clip-path="url(#p0b8ff3eb16)" d="
M163.1 47.898
L163.722 47.286
L164.318 46.674
L164.888 46.062
L165.433 45.45
L165.951 44.838
L166.444 44.226
L166.91 43.614
L167.351 43.002
L167.766 42.39
L168.154 41.778
L168.517 41.166
L168.854 40.554
L169.165 39.942
L169.45 39.33
L169.71 38.718
L169.943 38.106
L170.15 37.494
L170.332 36.882
L170.487 36.27
L170.617 35.658
L170.72 35.046
L170.798 34.434
L170.85 33.822
L170.876 33.21
L170.876 32.598
L170.85 31.986
L170.798 31.374
L170.72 30.762
L170.617 30.15
L170.487 29.538
L170.332 28.926
L170.15 28.314
L169.943 27.702
L169.71 27.09
L169.45 26.478
L169.165 25.866
L168.854 25.254
L168.517 24.642
L168.154 24.03
L167.766 23.418
L167.351 22.806
L166.91 22.194
L166.444 21.582
L165.951 20.97
L165.433 20.358
L164.888 19.746
L164.318 19.134
L163.722 18.522
L163.1 17.91" style="fill:none;stroke:#000000;stroke-linecap:round;stroke-width:1.5;"/>
   </g>
   <g id="line2d_20">
    <path clip-path="url(#p0b8ff3eb16)" d="
M146.9 40.554
L163.994 40.554" style="fill:none;stroke:#000000;stroke-linecap:round;stroke-width:1.5;"/>
   </g>
   <g id="line2d_21">
    <path clip-path="url(#p0b8ff3eb16)" d="
M146.9 25.254
L163.994 25.254" style="fill:none;stroke:#000000;stroke-linecap:round;stroke-width:1.5;"/>
   </g>
   <g id="line2d_22">
    <path clip-path="url(#p0b8ff3eb16)" d="
M146.9 40.554
L146.9 55.854
L146.9 71.154" style="fill:none;stroke:#000000;stroke-linecap:round;stroke-width:1.5;"/>
   </g>
   <g id="line2d_23">
    <path clip-path="url(#p0b8ff3eb16)" d="
M146.9 55.854" style="fill:none;stroke:#000000;stroke-linecap:round;stroke-width:1.5;"/>
   </g>
   <g id="line2d_24">
    <path clip-path="url(#p0b8ff3eb16)" d="
M146.9 55.854
L89.39 55.854
L31.88 55.854" style="fill:none;stroke:#000000;stroke-linecap:round;stroke-width:1.5;"/>
   </g>
   <g id="line2d_25">
    <path clip-path="url(#p0b8ff3eb16)" d="
M146.9 78.804
M195.5 78.804
L206.84 78.804" style="fill:none;stroke:#000000;stroke-linecap:round;stroke-width:1.5;"/>
   </g>
   <g id="line2d_26">
    <path clip-path="url(#p0b8ff3eb16)" d="
M158.24 78.804
L158.24 94.104
L179.3 94.104" style="fill:none;stroke:#000000;stroke-linecap:round;stroke-width:1.5;"/>
   </g>
   <g id="line2d_27">
    <path clip-path="url(#p0b8ff3eb16)" d="
M158.24 78.804
L158.24 63.504
L179.3 63.504" style="fill:none;stroke:#000000;stroke-linecap:round;stroke-width:1.5;"/>
   </g>
   <g id="line2d_28">
    <path clip-path="url(#p0b8ff3eb16)" d="
M146.9 86.454
L158.24 86.454" style="fill:none;stroke:#000000;stroke-linecap:round;stroke-width:1.5;"/>
   </g>
   <g id="line2d_29">
    <path clip-path="url(#p0b8ff3eb16)" d="
M146.9 71.154
L158.24 71.154" style="fill:none;stroke:#000000;stroke-linecap:round;stroke-width:1.5;"/>
   </g>
   <g id="line2d_30">
    <path clip-path="url(#p0b8ff3eb16)" d="
M146.9 86.454
L138.8 86.454
L130.7 86.454" style="fill:none;stroke:#000000;stroke-linecap:round;stroke-width:1.5;"/>
   </g>
   <g id="line2d_31">
    <path clip-path="url(#p0b8ff3eb16)" d="
M130.7 86.454
L130.7 55.854
L130.7 25.254" style="fill:none;stroke:#000000;stroke-linecap:round;stroke-width:1.5;"/>
   </g>
   <g id="line2d_32">
    <path clip-path="url(#p0b8ff3eb16)" d="
M146.9 124.704
M195.5 124.704
L206.84 124.704" style="fill:none;stroke:#000000;stroke-linecap:round;stroke-width:1.5;"/>
   </g>
   <g id="line2d_33">
    <path clip-path="url(#p0b8ff3eb16)" d="
M158.24 124.704
L158.24 140.004
L179.3 140.004" style="fill:none;stroke:#000000;stroke-linecap:round;stroke-width:1.5;"/>
   </g>
   <g id="line2d_34">
    <path clip-path="url(#p0b8ff3eb16)" d="
M158.24 124.704
L158.24 109.404
L179.3 109.404" style="fill:none;stroke:#000000;stroke-linecap:round;stroke-width:1.5;"/>
   </g>
   <g id="line2d_35">
    <path clip-path="url(#p0b8ff3eb16)" d="
M146.9 132.354
L158.24 132.354" style="fill:none;stroke:#000000;stroke-linecap:round;stroke-width:1.5;"/>
   </g>
   <g id="line2d_36">
    <path clip-path="url(#p0b8ff3eb16)" d="
M146.9 117.054
L158.24 117.054" style="fill:none;stroke:#000000;stroke-linecap:round;stroke-width:1.5;"/>
   </g>
   <g id="line2d_37">
    <path clip-path="url(#p0b8ff3eb16)" d="
M146.9 117.054
L105.59 117.054
L64.28 117.054" style="fill:none;stroke:#000000;stroke-linecap:round;stroke-width:1.5;"/>
   </g>
   <g id="line2d_38">
    <path clip-path="url(#p0b8ff3eb16)" d="
M64.28 117.054
L64.28 67.329
L64.28 17.604" style="fill:none;stroke:#000000;stroke-linecap:round;stroke-width:1.5;"/>
   </g>
   <g id="line2d_39">
    <path clip-path="url(#p0b8ff3eb16)" d="
M146.9 132.354
L97.49 132.354
L48.08 132.354" style="fill:none;stroke:#000000;stroke-linecap:round;stroke-width:1.5;"/>
   </g>
   <g id="line2d_40">
    <path clip-path="url(#p0b8ff3eb16)" d="
M48.08 132.354
L48.08 82.629
L48.08 32.904" style="fill:none;stroke:#000000;stroke-linecap:round;stroke-width:1.5;"/>
   </g>
   <g id="line2d_41">
    <path clip-path="url(#p0b8ff3eb16)" d="
M206.84 101.754
M257.06 101.754
L268.4 101.754" style="fill:none;stroke:#000000;stroke-linecap:round;stroke-width:1.5;"/>
   </g>
   <g id="line2d_42">
    <path clip-path="url(#p0b8ff3eb16)" d="
M218.18 116.748
L234.38 116.748
L234.843 116.742
L235.306 116.723
L235.769 116.692
L236.231 116.648
L236.694 116.592
L237.157 116.523
L237.62 116.442
L238.083 116.348
L238.546 116.242
L239.009 116.124
L239.471 115.992
L239.934 115.849
L240.397 115.693
L240.86 115.524
L241.323 115.343
L241.786 115.149
L242.249 114.943
L242.711 114.725
L243.174 114.494
L243.637 114.25
L244.1 113.994
L244.563 113.725
L245.026 113.444
L245.489 113.151
L245.951 112.845
L246.414 112.526
L246.877 112.195
L247.34 111.852
L247.803 111.496
L248.266 111.128
L248.729 110.747
L249.191 110.353
L249.654 109.947
L250.117 109.529
L250.58 109.098
L251.043 108.655
L251.506 108.199
L251.969 107.73
L252.431 107.25
L252.894 106.756
L253.357 106.25
L253.82 105.732
L254.283 105.201
L254.746 104.658
L255.209 104.102
L255.671 103.534
L256.134 102.953
L256.597 102.36
L257.06 101.754" style="fill:none;stroke:#000000;stroke-linecap:round;stroke-width:1.5;"/>
   </g>
   <g id="line2d_43">
    <path clip-path="url(#p0b8ff3eb16)" d="
M218.18 86.76
L234.38 86.76
L234.843 86.7662
L235.306 86.785
L235.769 86.8162
L236.231 86.8599
L236.694 86.9161
L237.157 86.9848
L237.62 87.066
L238.083 87.1597
L238.546 87.2658
L239.009 87.3845
L239.471 87.5156
L239.934 87.6593
L240.397 87.8154
L240.86 87.984
L241.323 88.1651
L241.786 88.3587
L242.249 88.5648
L242.711 88.7833
L243.174 89.0144
L243.637 89.258
L244.1 89.514
L244.563 89.7825
L245.026 90.0636
L245.489 90.3571
L245.951 90.6631
L246.414 90.9816
L246.877 91.3125
L247.34 91.656
L247.803 92.012
L248.266 92.3804
L248.729 92.7613
L249.191 93.1548
L249.654 93.5607
L250.117 93.9791
L250.58 94.41
L251.043 94.8534
L251.506 95.3093
L251.969 95.7776
L252.431 96.2585
L252.894 96.7518
L253.357 97.2577
L253.82 97.776
L254.283 98.3068
L254.746 98.8501
L255.209 99.4059
L255.671 99.9742
L256.134 100.555
L256.597 101.148
L257.06 101.754" style="fill:none;stroke:#000000;stroke-linecap:round;stroke-width:1.5;"/>
   </g>
   <g id="line2d_44">
    <path clip-path="url(#p0b8ff3eb16)" d="
M218.18 116.748
L218.802 116.136
L219.398 115.524
L219.968 114.912
L220.513 114.3
L221.031 113.688
L221.524 113.076
L221.99 112.464
L222.431 111.852
L222.846 111.24
L223.234 110.628
L223.597 110.016
L223.934 109.404
L224.245 108.792
L224.53 108.18
L224.79 107.568
L225.023 106.956
L225.23 106.344
L225.412 105.732
L225.567 105.12
L225.697 104.508
L225.8 103.896
L225.878 103.284
L225.93 102.672
L225.956 102.06
L225.956 101.448
L225.93 100.836
L225.878 100.224
L225.8 99.612
L225.697 99
L225.567 98.388
L225.412 97.776
L225.23 97.164
L225.023 96.552
L224.79 95.94
L224.53 95.328
L224.245 94.716
L223.934 94.104
L223.597 93.492
L223.234 92.88
L222.846 92.268
L222.431 91.656
L221.99 91.044
L221.524 90.432
L221.031 89.82
L220.513 89.208
L219.968 88.596
L219.398 87.984
L218.802 87.372
L218.18 86.76" style="fill:none;stroke:#000000;stroke-linecap:round;stroke-width:1.5;"/>
   </g>
   <g id="line2d_45">
    <path clip-path="url(#p0b8ff3eb16)" d="
M206.84 109.404
L223.934 109.404" style="fill:none;stroke:#000000;stroke-linecap:round;stroke-width:1.5;"/>
   </g>
   <g id="line2d_46">
    <path clip-path="url(#p0b8ff3eb16)" d="
M206.84 94.104
L223.934 94.104" style="fill:none;stroke:#000000;stroke-linecap:round;stroke-width:1.5;"/>
   </g>
   <g id="line2d_47">
    <path clip-path="url(#p0b8ff3eb16)" d="
M206.84 78.804
L206.84 86.454
L206.84 94.104" style="fill:none;stroke:#000000;stroke-linecap:round;stroke-width:1.5;"/>
   </g>
   <g id="line2d_48">
    <path clip-path="url(#p0b8ff3eb16)" d="
M206.84 124.704
L206.84 117.054
L206.84 109.404" style="fill:none;stroke:#000000;stroke-linecap:round;stroke-width:1.5;"/>
   </g>
   <g id="line2d_49">
    <path clip-path="url(#p0b8ff3eb16)" d="
M213.32 32.904
L240.86 32.904
L268.4 32.904" style="fill:none;stroke:#000000;stroke-linecap:round;stroke-width:1.5;"/>
   </g>
   <g id="patch_4">
    <path clip-path="url(#p0b8ff3eb16)" d="
M130.7 27.549
C131.344 27.549 131.963 27.3072 132.418 26.8768
C132.874 26.4464 133.13 25.8626 133.13 25.254
C133.13 24.6454 132.874 24.0616 132.418 23.6312
C131.963 23.2008 131.344 22.959 130.7 22.959
C130.056 22.959 129.437 23.2008 128.982 23.6312
C128.526 24.0616 128.27 24.6454 128.27 25.254
C128.27 25.8626 128.526 26.4464 128.982 26.8768
C129.437 27.3072 130.056 27.549 130.7 27.549
z
" style="stroke:#000000;stroke-linejoin:miter;stroke-width:1.5;"/>
   </g>
   <g id="patch_5">
    <path clip-path="url(#p0b8ff3eb16)" d="
M64.28 19.899
C64.9244 19.899 65.5426 19.6572 65.9983 19.2268
C66.454 18.7964 66.71 18.2126 66.71 17.604
C66.71 16.9954 66.454 16.4116 65.9983 15.9812
C65.5426 15.5508 64.9244 15.309 64.28 15.309
C63.6356 15.309 63.0174 15.5508 62.5617 15.9812
C62.106 16.4116 61.85 16.9954 61.85 17.604
C61.85 18.2126 62.106 18.7964 62.5617 19.2268
C63.0174 19.6572 63.6356 19.899 64.28 19.899
z
" style="stroke:#000000;stroke-linejoin:miter;stroke-width:1.5;"/>
   </g>
   <g id="patch_6">
    <path clip-path="url(#p0b8ff3eb16)" d="
M48.08 35.199
C48.7244 35.199 49.3426 34.9572 49.7983 34.5268
C50.254 34.0964 50.51 33.5126 50.51 32.904
C50.51 32.2954 50.254 31.7116 49.7983 31.2812
C49.3426 30.8508 48.7244 30.609 48.08 30.609
C47.4356 30.609 46.8174 30.8508 46.3617 31.2812
C45.906 31.7116 45.65 32.2954 45.65 32.904
C45.65 33.5126 45.906 34.0964 46.3617 34.5268
C46.8174 34.9572 47.4356 35.199 48.08 35.199
z
" style="stroke:#000000;stroke-linejoin:miter;stroke-width:1.5;"/>
   </g>
   <g id="patch_7">
    <path clip-path="url(#p0b8ff3eb16)" d="
M146.9 58.149
C147.544 58.149 148.163 57.9072 148.618 57.4768
C149.074 57.0464 149.33 56.4626 149.33 55.854
C149.33 55.2454 149.074 54.6616 148.618 54.2312
C148.163 53.8008 147.544 53.559 146.9 53.559
C146.256 53.559 145.637 53.8008 145.182 54.2312
C144.726 54.6616 144.47 55.2454 144.47 55.854
C144.47 56.4626 144.726 57.0464 145.182 57.4768
C145.637 57.9072 146.256 58.149 146.9 58.149
z
" style="stroke:#000000;stroke-linejoin:miter;stroke-width:1.5;"/>
   </g>
   <g id="text_1">
    <!-- $A$ -->
    <defs>
     <path d="
M34.1875 63.1875
L20.7969 26.9062
L47.6094 26.9062
z

M28.6094 72.9062
L39.7969 72.9062
L67.5781 0
L57.3281 0
L50.6875 18.7031
L17.8281 18.7031
L11.1875 0
L0.78125 0
z
" id="BitstreamVeraSans-Roman-41"/>
    </defs>
    <g transform="translate(17.6 22.019)scale(0.16 -0.16)">
     <use transform="translate(0.0 0.09375)" xlink:href="#BitstreamVeraSans-Roman-41"/>
    </g>
   </g>
   <g id="text_2">
    <!-- $B$ -->
    <defs>
     <path d="
M19.6719 34.8125
L19.6719 8.10938
L35.5 8.10938
Q43.4531 8.10938 47.2812 11.4062
Q51.125 14.7031 51.125 21.4844
Q51.125 28.3281 47.2812 31.5625
Q43.4531 34.8125 35.5 34.8125
z

M19.6719 64.7969
L19.6719 42.8281
L34.2812 42.8281
Q41.5 42.8281 45.0312 45.5312
Q48.5781 48.25 48.5781 53.8125
Q48.5781 59.3281 45.0312 62.0625
Q41.5 64.7969 34.2812 64.7969
z

M9.8125 72.9062
L35.0156 72.9062
Q46.2969 72.9062 52.3906 68.2188
Q58.5 63.5312 58.5 54.8906
Q58.5 48.1875 55.375 44.2344
Q52.25 40.2812 46.1875 39.3125
Q53.4688 37.75 57.5 32.7812
Q61.5312 27.8281 61.5312 20.4062
Q61.5312 10.6406 54.8906 5.3125
Q48.25 0 35.9844 0
L9.8125 0
z
" id="BitstreamVeraSans-Roman-42"/>
    </defs>
    <g transform="translate(17.6 37.319)scale(0.16 -0.16)">
     <use transform="translate(0.0 0.09375)" xlink:href="#BitstreamVeraSans-Roman-42"/>
    </g>
   </g>
   <g id="text_3">
    <!-- $C_{in}$ -->
    <defs>
     <path d="
M9.42188 54.6875
L18.4062 54.6875
L18.4062 0
L9.42188 0
z

M9.42188 75.9844
L18.4062 75.9844
L18.4062 64.5938
L9.42188 64.5938
z
" id="BitstreamVeraSans-Roman-69"/>
     <path d="
M64.4062 67.2812
L64.4062 56.8906
Q59.4219 61.5312 53.7812 63.8125
Q48.1406 66.1094 41.7969 66.1094
Q29.2969 66.1094 22.6562 58.4688
Q16.0156 50.8281 16.0156 36.375
Q16.0156 21.9688 22.6562 14.3281
Q29.2969 6.6875 41.7969 6.6875
Q48.1406 6.6875 53.7812 8.98438
Q59.4219 11.2812 64.4062 15.9219
L64.4062 5.60938
Q59.2344 2.09375 53.4375 0.328125
Q47.6562 -1.42188 41.2188 -1.42188
Q24.6562 -1.42188 15.125 8.70312
Q5.60938 18.8438 5.60938 36.375
Q5.60938 53.9531 15.125 64.0781
Q24.6562 74.2188 41.2188 74.2188
Q47.75 74.2188 53.5312 72.4844
Q59.3281 70.75 64.4062 67.2812" id="BitstreamVeraSans-Roman-43"/>
     <path d="
M54.8906 33.0156
L54.8906 0
L45.9062 0
L45.9062 32.7188
Q45.9062 40.4844 42.875 44.3281
Q39.8438 48.1875 33.7969 48.1875
Q26.5156 48.1875 22.3125 43.5469
Q18.1094 38.9219 18.1094 30.9062
L18.1094 0
L9.07812 0
L9.07812 54.6875
L18.1094 54.6875
L18.1094 46.1875
Q21.3438 51.125 25.7031 53.5625
Q30.0781 56 35.7969 56
Q45.2188 56 50.0469 50.1719
Q54.8906 44.3438 54.8906 33.0156" id="BitstreamVeraSans-Roman-6e"/>
    </defs>
    <g transform="translate(7.2 59.294)scale(0.16 -0.16)">
     <use transform="translate(0.0 0.78125)" xlink:href="#BitstreamVeraSans-Roman-43"/>
     <use transform="translate(69.82421875 -30.71875)scale(0.7)" xlink:href="#BitstreamVeraSans-Roman-69"/>
     <use transform="translate(89.2724609375 -30.71875)scale(0.7)" xlink:href="#BitstreamVeraSans-Roman-6e"/>
    </g>
   </g>
   <g id="text_4">
    <!-- $C_{out}$ -->
    <defs>
     <path d="
M30.6094 48.3906
Q23.3906 48.3906 19.1875 42.75
Q14.9844 37.1094 14.9844 27.2969
Q14.9844 17.4844 19.1562 11.8438
Q23.3438 6.20312 30.6094 6.20312
Q37.7969 6.20312 41.9844 11.8594
Q46.1875 17.5312 46.1875 27.2969
Q46.1875 37.0156 41.9844 42.7031
Q37.7969 48.3906 30.6094 48.3906
M30.6094 56
Q42.3281 56 49.0156 48.375
Q55.7188 40.7656 55.7188 27.2969
Q55.7188 13.875 49.0156 6.21875
Q42.3281 -1.42188 30.6094 -1.42188
Q18.8438 -1.42188 12.1719 6.21875
Q5.51562 13.875 5.51562 27.2969
Q5.51562 40.7656 12.1719 48.375
Q18.8438 56 30.6094 56" id="BitstreamVeraSans-Roman-6f"/>
     <path d="
M8.5 21.5781
L8.5 54.6875
L17.4844 54.6875
L17.4844 21.9219
Q17.4844 14.1562 20.5 10.2656
Q23.5312 6.39062 29.5938 6.39062
Q36.8594 6.39062 41.0781 11.0312
Q45.3125 15.6719 45.3125 23.6875
L45.3125 54.6875
L54.2969 54.6875
L54.2969 0
L45.3125 0
L45.3125 8.40625
Q42.0469 3.42188 37.7188 1
Q33.4062 -1.42188 27.6875 -1.42188
Q18.2656 -1.42188 13.375 4.4375
Q8.5 10.2969 8.5 21.5781" id="BitstreamVeraSans-Roman-75"/>
     <path d="
M18.3125 70.2188
L18.3125 54.6875
L36.8125 54.6875
L36.8125 47.7031
L18.3125 47.7031
L18.3125 18.0156
Q18.3125 11.3281 20.1406 9.42188
Q21.9688 7.51562 27.5938 7.51562
L36.8125 7.51562
L36.8125 0
L27.5938 0
Q17.1875 0 13.2344 3.875
Q9.28125 7.76562 9.28125 18.0156
L9.28125 47.7031
L2.6875 47.7031
L2.6875 54.6875
L9.28125 54.6875
L9.28125 70.2188
z
" id="BitstreamVeraSans-Roman-74"/>
    </defs>
    <g transform="translate(271.64 105.114)scale(0.16 -0.16)">
     <use transform="translate(0.0 0.78125)" xlink:href="#BitstreamVeraSans-Roman-43"/>
     <use transform="translate(69.82421875 -30.71875)scale(0.7)" xlink:href="#BitstreamVeraSans-Roman-6f"/>
     <use transform="translate(112.6513671875 -30.71875)scale(0.7)" xlink:href="#BitstreamVeraSans-Roman-75"/>
     <use transform="translate(157.0166015625 -30.71875)scale(0.7)" xlink:href="#BitstreamVeraSans-Roman-74"/>
    </g>
   </g>
   <g id="text_5">
    <!-- $S$ -->
    <defs>
     <path d="
M53.5156 70.5156
L53.5156 60.8906
Q47.9062 63.5781 42.9219 64.8906
Q37.9375 66.2188 33.2969 66.2188
Q25.25 66.2188 20.875 63.0938
Q16.5 59.9688 16.5 54.2031
Q16.5 49.3594 19.4062 46.8906
Q22.3125 44.4375 30.4219 42.9219
L36.375 41.7031
Q47.4062 39.5938 52.6562 34.2969
Q57.9062 29 57.9062 20.125
Q57.9062 9.51562 50.7969 4.04688
Q43.7031 -1.42188 29.9844 -1.42188
Q24.8125 -1.42188 18.9688 -0.25
Q13.1406 0.921875 6.89062 3.21875
L6.89062 13.375
Q12.8906 10.0156 18.6562 8.29688
Q24.4219 6.59375 29.9844 6.59375
Q38.4219 6.59375 43.0156 9.90625
Q47.6094 13.2344 47.6094 19.3906
Q47.6094 24.75 44.3125 27.7812
Q41.0156 30.8125 33.5 32.3281
L27.4844 33.5
Q16.4531 35.6875 11.5156 40.375
Q6.59375 45.0625 6.59375 53.4219
Q6.59375 63.0938 13.4062 68.6562
Q20.2188 74.2188 32.1719 74.2188
Q37.3125 74.2188 42.625 73.2812
Q47.9531 72.3594 53.5156 70.5156" id="BitstreamVeraSans-Roman-53"/>
    </defs>
    <g transform="translate(271.64 37.319)scale(0.16 -0.16)">
     <use transform="translate(0.0 0.78125)" xlink:href="#BitstreamVeraSans-Roman-53"/>
    </g>
   </g>
  </g>
 </g>
 <defs>
  <clipPath id="p0b8ff3eb16">
   <rect height="135.864" width="243.0" x="28.64" y="7.2"/>
  </clipPath>
 </defs>
</svg>
