<?xml version="1.0" encoding="utf-8" standalone="no"?>
<!DOCTYPE svg PUBLIC "-//W3C//DTD SVG 1.1//EN"
  "http://www.w3.org/Graphics/SVG/1.1/DTD/svg11.dtd">
<!-- Created with matplotlib (http://matplotlib.org/) -->
<svg height="145pt" version="1.1" viewBox="0 0 735 145" width="735pt" xmlns="http://www.w3.org/2000/svg" xmlns:xlink="http://www.w3.org/1999/xlink">
 <defs>
  <style type="text/css">
*{stroke-linecap:butt;stroke-linejoin:round;stroke-miterlimit:100000;}
  </style>
 </defs>
 <g id="figure_1">
  <g id="patch_1">
   <path d="M 0 145.35375 
L 735.3 145.35375 
L 735.3 0 
L 0 0 
z
" style="fill:none;"/>
  </g>
  <g id="axes_1">
   <g id="patch_2">
    <path clip-path="url(#p42b9378db9)" d="M 42.84 58.59375 
C 47.134859 58.59375 51.258206 56.98069 54.29513 54.112484 
C 57.332054 51.244278 59.04 47.350006 59.04 43.29375 
C 59.04 39.237494 57.332054 35.343222 54.29513 32.475016 
C 51.258206 29.60681 47.134859 27.99375 42.84 27.99375 
" style="fill:none;stroke:#000000;stroke-linejoin:miter;stroke-width:1.5;"/>
   </g>
   <g id="patch_3">
    <path clip-path="url(#p42b9378db9)" d="M 172.44 58.59375 
C 176.734859 58.59375 180.858206 56.98069 183.89513 54.112484 
C 186.932054 51.244278 188.64 47.350006 188.64 43.29375 
C 188.64 39.237494 186.932054 35.343222 183.89513 32.475016 
C 180.858206 29.60681 176.734859 27.99375 172.44 27.99375 
" style="fill:none;stroke:#000000;stroke-linejoin:miter;stroke-width:1.5;"/>
   </g>
   <g id="patch_4">
    <path clip-path="url(#p42b9378db9)" d="M 42.84 135.09375 
C 47.134859 135.09375 51.258206 133.48069 54.29513 130.612484 
C 57.332054 127.744278 59.04 123.850006 59.04 119.79375 
C 59.04 115.737494 57.332054 111.843222 54.29513 108.975016 
C 51.258206 106.10681 47.134859 104.49375 42.84 104.49375 
" style="fill:none;stroke:#000000;stroke-linejoin:miter;stroke-width:1.5;"/>
   </g>
   <g id="patch_5">
    <path clip-path="url(#p42b9378db9)" d="M 172.44 135.09375 
C 176.734859 135.09375 180.858206 133.48069 183.89513 130.612484 
C 186.932054 127.744278 188.64 123.850006 188.64 119.79375 
C 188.64 115.737494 186.932054 111.843222 183.89513 108.975016 
C 180.858206 106.10681 176.734859 104.49375 172.44 104.49375 
" style="fill:none;stroke:#000000;stroke-linejoin:miter;stroke-width:1.5;"/>
   </g>
   <g id="line2d_1">
    <path clip-path="url(#p42b9378db9)" d="M 59.04 43.29375 
L 70.38 43.29375 
" style="fill:none;stroke:#000000;stroke-linecap:round;stroke-width:1.5;"/>
   </g>
   <g id="line2d_2">
    <path clip-path="url(#p42b9378db9)" d="M 21.78 43.29375 
L 21.78 58.59375 
L 42.84 58.59375 
" style="fill:none;stroke:#000000;stroke-linecap:round;stroke-width:1.5;"/>
   </g>
   <g id="line2d_3">
    <path clip-path="url(#p42b9378db9)" d="M 21.78 43.29375 
L 21.78 27.99375 
L 42.84 27.99375 
" style="fill:none;stroke:#000000;stroke-linecap:round;stroke-width:1.5;"/>
   </g>
   <g id="line2d_4">
    <path clip-path="url(#p42b9378db9)" d="M 10.44 50.94375 
L 21.78 50.94375 
" style="fill:none;stroke:#000000;stroke-linecap:round;stroke-width:1.5;"/>
   </g>
   <g id="line2d_5">
    <path clip-path="url(#p42b9378db9)" d="M 10.44 35.64375 
L 21.78 35.64375 
" style="fill:none;stroke:#000000;stroke-linecap:round;stroke-width:1.5;"/>
   </g>
   <g id="line2d_6">
    <path clip-path="url(#p42b9378db9)" d="M 196.416 43.29375 
L 199.98 43.29375 
" style="fill:none;stroke:#000000;stroke-linecap:round;stroke-width:1.5;"/>
   </g>
   <g id="line2d_7">
    <path clip-path="url(#p42b9378db9)" d="M 151.38 43.29375 
L 151.38 58.59375 
L 172.44 58.59375 
" style="fill:none;stroke:#000000;stroke-linecap:round;stroke-width:1.5;"/>
   </g>
   <g id="line2d_8">
    <path clip-path="url(#p42b9378db9)" d="M 151.38 43.29375 
L 151.38 27.99375 
L 172.44 27.99375 
" style="fill:none;stroke:#000000;stroke-linecap:round;stroke-width:1.5;"/>
   </g>
   <g id="line2d_9">
    <path clip-path="url(#p42b9378db9)" d="M 140.04 50.94375 
L 151.38 50.94375 
" style="fill:none;stroke:#000000;stroke-linecap:round;stroke-width:1.5;"/>
   </g>
   <g id="line2d_10">
    <path clip-path="url(#p42b9378db9)" d="M 140.04 35.64375 
L 151.38 35.64375 
" style="fill:none;stroke:#000000;stroke-linecap:round;stroke-width:1.5;"/>
   </g>
   <g id="line2d_11">
    <path clip-path="url(#p42b9378db9)" d="M 319.86 43.29375 
L 331.2 43.29375 
" style="fill:none;stroke:#000000;stroke-linecap:round;stroke-width:1.5;"/>
   </g>
   <g id="line2d_12">
    <path clip-path="url(#p42b9378db9)" d="M 280.98 58.28775 
L 297.18 58.28775 
L 297.642857 58.281505 
L 298.105714 58.26277 
L 298.568571 58.231546 
L 299.031429 58.187832 
L 299.494286 58.131628 
L 299.957143 58.062934 
L 300.42 57.98175 
L 300.882857 57.888077 
L 301.345714 57.781913 
L 301.808571 57.66326 
L 302.271429 57.532117 
L 302.734286 57.388485 
L 303.197143 57.232362 
L 303.66 57.06375 
L 304.122857 56.882648 
L 304.585714 56.689056 
L 305.048571 56.482974 
L 305.511429 56.264403 
L 305.974286 56.033342 
L 306.437143 55.789791 
L 306.9 55.53375 
L 307.362857 55.265219 
L 307.825714 54.984199 
L 308.288571 54.690689 
L 308.751429 54.384689 
L 309.214286 54.066199 
L 309.677143 53.735219 
L 310.14 53.39175 
L 310.602857 53.035791 
L 311.065714 52.667342 
L 311.528571 52.286403 
L 311.991429 51.892974 
L 312.454286 51.487056 
L 312.917143 51.068648 
L 313.38 50.63775 
L 313.842857 50.194362 
L 314.305714 49.738485 
L 314.768571 49.270117 
L 315.231429 48.78926 
L 315.694286 48.295913 
L 316.157143 47.790077 
L 316.62 47.27175 
L 317.082857 46.740934 
L 317.545714 46.197628 
L 318.008571 45.641832 
L 318.471429 45.073546 
L 318.934286 44.49277 
L 319.397143 43.899505 
L 319.86 43.29375 
" style="fill:none;stroke:#000000;stroke-linecap:round;stroke-width:1.5;"/>
   </g>
   <g id="line2d_13">
    <path clip-path="url(#p42b9378db9)" d="M 280.98 28.29975 
L 297.18 28.29975 
L 297.642857 28.305995 
L 298.105714 28.32473 
L 298.568571 28.355954 
L 299.031429 28.399668 
L 299.494286 28.455872 
L 299.957143 28.524566 
L 300.42 28.60575 
L 300.882857 28.699423 
L 301.345714 28.805587 
L 301.808571 28.92424 
L 302.271429 29.055383 
L 302.734286 29.199015 
L 303.197143 29.355138 
L 303.66 29.52375 
L 304.122857 29.704852 
L 304.585714 29.898444 
L 305.048571 30.104526 
L 305.511429 30.323097 
L 305.974286 30.554158 
L 306.437143 30.797709 
L 306.9 31.05375 
L 307.362857 31.322281 
L 307.825714 31.603301 
L 308.288571 31.896811 
L 308.751429 32.202811 
L 309.214286 32.521301 
L 309.677143 32.852281 
L 310.14 33.19575 
L 310.602857 33.551709 
L 311.065714 33.920158 
L 311.528571 34.301097 
L 311.991429 34.694526 
L 312.454286 35.100444 
L 312.917143 35.518852 
L 313.38 35.94975 
L 313.842857 36.393138 
L 314.305714 36.849015 
L 314.768571 37.317383 
L 315.231429 37.79824 
L 315.694286 38.291587 
L 316.157143 38.797423 
L 316.62 39.31575 
L 317.082857 39.846566 
L 317.545714 40.389872 
L 318.008571 40.945668 
L 318.471429 41.513954 
L 318.934286 42.09473 
L 319.397143 42.687995 
L 319.86 43.29375 
" style="fill:none;stroke:#000000;stroke-linecap:round;stroke-width:1.5;"/>
   </g>
   <g id="line2d_14">
    <path clip-path="url(#p42b9378db9)" d="M 280.98 58.28775 
L 281.60208 57.67575 
L 282.19824 57.06375 
L 282.76848 56.45175 
L 283.3128 55.83975 
L 283.8312 55.22775 
L 284.32368 54.61575 
L 284.79024 54.00375 
L 285.23088 53.39175 
L 285.6456 52.77975 
L 286.0344 52.16775 
L 286.39728 51.55575 
L 286.73424 50.94375 
L 287.04528 50.33175 
L 287.3304 49.71975 
L 287.5896 49.10775 
L 287.82288 48.49575 
L 288.03024 47.88375 
L 288.21168 47.27175 
L 288.3672 46.65975 
L 288.4968 46.04775 
L 288.60048 45.43575 
L 288.67824 44.82375 
L 288.73008 44.21175 
L 288.756 43.59975 
L 288.756 42.98775 
L 288.73008 42.37575 
L 288.67824 41.76375 
L 288.60048 41.15175 
L 288.4968 40.53975 
L 288.3672 39.92775 
L 288.21168 39.31575 
L 288.03024 38.70375 
L 287.82288 38.09175 
L 287.5896 37.47975 
L 287.3304 36.86775 
L 287.04528 36.25575 
L 286.73424 35.64375 
L 286.39728 35.03175 
L 286.0344 34.41975 
L 285.6456 33.80775 
L 285.23088 33.19575 
L 284.79024 32.58375 
L 284.32368 31.97175 
L 283.8312 31.35975 
L 283.3128 30.74775 
L 282.76848 30.13575 
L 282.19824 29.52375 
L 281.60208 28.91175 
L 280.98 28.29975 
" style="fill:none;stroke:#000000;stroke-linecap:round;stroke-width:1.5;"/>
   </g>
   <g id="line2d_15">
    <path clip-path="url(#p42b9378db9)" d="M 269.64 50.94375 
L 286.73424 50.94375 
" style="fill:none;stroke:#000000;stroke-linecap:round;stroke-width:1.5;"/>
   </g>
   <g id="line2d_16">
    <path clip-path="url(#p42b9378db9)" d="M 269.64 35.64375 
L 286.73424 35.64375 
" style="fill:none;stroke:#000000;stroke-linecap:round;stroke-width:1.5;"/>
   </g>
   <g id="line2d_17">
    <path clip-path="url(#p42b9378db9)" d="M 457.236 43.29375 
L 460.8 43.29375 
" style="fill:none;stroke:#000000;stroke-linecap:round;stroke-width:1.5;"/>
   </g>
   <g id="line2d_18">
    <path clip-path="url(#p42b9378db9)" d="M 410.58 58.28775 
L 426.78 58.28775 
L 427.242857 58.281505 
L 427.705714 58.26277 
L 428.168571 58.231546 
L 428.631429 58.187832 
L 429.094286 58.131628 
L 429.557143 58.062934 
L 430.02 57.98175 
L 430.482857 57.888077 
L 430.945714 57.781913 
L 431.408571 57.66326 
L 431.871429 57.532117 
L 432.334286 57.388485 
L 432.797143 57.232362 
L 433.26 57.06375 
L 433.722857 56.882648 
L 434.185714 56.689056 
L 434.648571 56.482974 
L 435.111429 56.264403 
L 435.574286 56.033342 
L 436.037143 55.789791 
L 436.5 55.53375 
L 436.962857 55.265219 
L 437.425714 54.984199 
L 437.888571 54.690689 
L 438.351429 54.384689 
L 438.814286 54.066199 
L 439.277143 53.735219 
L 439.74 53.39175 
L 440.202857 53.035791 
L 440.665714 52.667342 
L 441.128571 52.286403 
L 441.591429 51.892974 
L 442.054286 51.487056 
L 442.517143 51.068648 
L 442.98 50.63775 
L 443.442857 50.194362 
L 443.905714 49.738485 
L 444.368571 49.270117 
L 444.831429 48.78926 
L 445.294286 48.295913 
L 445.757143 47.790077 
L 446.22 47.27175 
L 446.682857 46.740934 
L 447.145714 46.197628 
L 447.608571 45.641832 
L 448.071429 45.073546 
L 448.534286 44.49277 
L 448.997143 43.899505 
L 449.46 43.29375 
" style="fill:none;stroke:#000000;stroke-linecap:round;stroke-width:1.5;"/>
   </g>
   <g id="line2d_19">
    <path clip-path="url(#p42b9378db9)" d="M 410.58 28.29975 
L 426.78 28.29975 
L 427.242857 28.305995 
L 427.705714 28.32473 
L 428.168571 28.355954 
L 428.631429 28.399668 
L 429.094286 28.455872 
L 429.557143 28.524566 
L 430.02 28.60575 
L 430.482857 28.699423 
L 430.945714 28.805587 
L 431.408571 28.92424 
L 431.871429 29.055383 
L 432.334286 29.199015 
L 432.797143 29.355138 
L 433.26 29.52375 
L 433.722857 29.704852 
L 434.185714 29.898444 
L 434.648571 30.104526 
L 435.111429 30.323097 
L 435.574286 30.554158 
L 436.037143 30.797709 
L 436.5 31.05375 
L 436.962857 31.322281 
L 437.425714 31.603301 
L 437.888571 31.896811 
L 438.351429 32.202811 
L 438.814286 32.521301 
L 439.277143 32.852281 
L 439.74 33.19575 
L 440.202857 33.551709 
L 440.665714 33.920158 
L 441.128571 34.301097 
L 441.591429 34.694526 
L 442.054286 35.100444 
L 442.517143 35.518852 
L 442.98 35.94975 
L 443.442857 36.393138 
L 443.905714 36.849015 
L 444.368571 37.317383 
L 444.831429 37.79824 
L 445.294286 38.291587 
L 445.757143 38.797423 
L 446.22 39.31575 
L 446.682857 39.846566 
L 447.145714 40.389872 
L 447.608571 40.945668 
L 448.071429 41.513954 
L 448.534286 42.09473 
L 448.997143 42.687995 
L 449.46 43.29375 
" style="fill:none;stroke:#000000;stroke-linecap:round;stroke-width:1.5;"/>
   </g>
   <g id="line2d_20">
    <path clip-path="url(#p42b9378db9)" d="M 410.58 58.28775 
L 411.20208 57.67575 
L 411.79824 57.06375 
L 412.36848 56.45175 
L 412.9128 55.83975 
L 413.4312 55.22775 
L 413.92368 54.61575 
L 414.39024 54.00375 
L 414.83088 53.39175 
L 415.2456 52.77975 
L 415.6344 52.16775 
L 415.99728 51.55575 
L 416.33424 50.94375 
L 416.64528 50.33175 
L 416.9304 49.71975 
L 417.1896 49.10775 
L 417.42288 48.49575 
L 417.63024 47.88375 
L 417.81168 47.27175 
L 417.9672 46.65975 
L 418.0968 46.04775 
L 418.20048 45.43575 
L 418.27824 44.82375 
L 418.33008 44.21175 
L 418.356 43.59975 
L 418.356 42.98775 
L 418.33008 42.37575 
L 418.27824 41.76375 
L 418.20048 41.15175 
L 418.0968 40.53975 
L 417.9672 39.92775 
L 417.81168 39.31575 
L 417.63024 38.70375 
L 417.42288 38.09175 
L 417.1896 37.47975 
L 416.9304 36.86775 
L 416.64528 36.25575 
L 416.33424 35.64375 
L 415.99728 35.03175 
L 415.6344 34.41975 
L 415.2456 33.80775 
L 414.83088 33.19575 
L 414.39024 32.58375 
L 413.92368 31.97175 
L 413.4312 31.35975 
L 412.9128 30.74775 
L 412.36848 30.13575 
L 411.79824 29.52375 
L 411.20208 28.91175 
L 410.58 28.29975 
" style="fill:none;stroke:#000000;stroke-linecap:round;stroke-width:1.5;"/>
   </g>
   <g id="line2d_21">
    <path clip-path="url(#p42b9378db9)" d="M 399.24 50.94375 
L 416.33424 50.94375 
" style="fill:none;stroke:#000000;stroke-linecap:round;stroke-width:1.5;"/>
   </g>
   <g id="line2d_22">
    <path clip-path="url(#p42b9378db9)" d="M 399.24 35.64375 
L 416.33424 35.64375 
" style="fill:none;stroke:#000000;stroke-linecap:round;stroke-width:1.5;"/>
   </g>
   <g id="line2d_23">
    <path clip-path="url(#p42b9378db9)" d="M 583.92 43.29375 
L 595.26 43.29375 
" style="fill:none;stroke:#000000;stroke-linecap:round;stroke-width:1.5;"/>
   </g>
   <g id="line2d_24">
    <path clip-path="url(#p42b9378db9)" d="M 545.04 58.28775 
L 561.24 58.28775 
L 561.702857 58.281505 
L 562.165714 58.26277 
L 562.628571 58.231546 
L 563.091429 58.187832 
L 563.554286 58.131628 
L 564.017143 58.062934 
L 564.48 57.98175 
L 564.942857 57.888077 
L 565.405714 57.781913 
L 565.868571 57.66326 
L 566.331429 57.532117 
L 566.794286 57.388485 
L 567.257143 57.232362 
L 567.72 57.06375 
L 568.182857 56.882648 
L 568.645714 56.689056 
L 569.108571 56.482974 
L 569.571429 56.264403 
L 570.034286 56.033342 
L 570.497143 55.789791 
L 570.96 55.53375 
L 571.422857 55.265219 
L 571.885714 54.984199 
L 572.348571 54.690689 
L 572.811429 54.384689 
L 573.274286 54.066199 
L 573.737143 53.735219 
L 574.2 53.39175 
L 574.662857 53.035791 
L 575.125714 52.667342 
L 575.588571 52.286403 
L 576.051429 51.892974 
L 576.514286 51.487056 
L 576.977143 51.068648 
L 577.44 50.63775 
L 577.902857 50.194362 
L 578.365714 49.738485 
L 578.828571 49.270117 
L 579.291429 48.78926 
L 579.754286 48.295913 
L 580.217143 47.790077 
L 580.68 47.27175 
L 581.142857 46.740934 
L 581.605714 46.197628 
L 582.068571 45.641832 
L 582.531429 45.073546 
L 582.994286 44.49277 
L 583.457143 43.899505 
L 583.92 43.29375 
" style="fill:none;stroke:#000000;stroke-linecap:round;stroke-width:1.5;"/>
   </g>
   <g id="line2d_25">
    <path clip-path="url(#p42b9378db9)" d="M 545.04 28.29975 
L 561.24 28.29975 
L 561.702857 28.305995 
L 562.165714 28.32473 
L 562.628571 28.355954 
L 563.091429 28.399668 
L 563.554286 28.455872 
L 564.017143 28.524566 
L 564.48 28.60575 
L 564.942857 28.699423 
L 565.405714 28.805587 
L 565.868571 28.92424 
L 566.331429 29.055383 
L 566.794286 29.199015 
L 567.257143 29.355138 
L 567.72 29.52375 
L 568.182857 29.704852 
L 568.645714 29.898444 
L 569.108571 30.104526 
L 569.571429 30.323097 
L 570.034286 30.554158 
L 570.497143 30.797709 
L 570.96 31.05375 
L 571.422857 31.322281 
L 571.885714 31.603301 
L 572.348571 31.896811 
L 572.811429 32.202811 
L 573.274286 32.521301 
L 573.737143 32.852281 
L 574.2 33.19575 
L 574.662857 33.551709 
L 575.125714 33.920158 
L 575.588571 34.301097 
L 576.051429 34.694526 
L 576.514286 35.100444 
L 576.977143 35.518852 
L 577.44 35.94975 
L 577.902857 36.393138 
L 578.365714 36.849015 
L 578.828571 37.317383 
L 579.291429 37.79824 
L 579.754286 38.291587 
L 580.217143 38.797423 
L 580.68 39.31575 
L 581.142857 39.846566 
L 581.605714 40.389872 
L 582.068571 40.945668 
L 582.531429 41.513954 
L 582.994286 42.09473 
L 583.457143 42.687995 
L 583.92 43.29375 
" style="fill:none;stroke:#000000;stroke-linecap:round;stroke-width:1.5;"/>
   </g>
   <g id="line2d_26">
    <path clip-path="url(#p42b9378db9)" d="M 540.18 58.28775 
L 540.80208 57.67575 
L 541.39824 57.06375 
L 541.96848 56.45175 
L 542.5128 55.83975 
L 543.0312 55.22775 
L 543.52368 54.61575 
L 543.99024 54.00375 
L 544.43088 53.39175 
L 544.8456 52.77975 
L 545.2344 52.16775 
L 545.59728 51.55575 
L 545.93424 50.94375 
L 546.24528 50.33175 
L 546.5304 49.71975 
L 546.7896 49.10775 
L 547.02288 48.49575 
L 547.23024 47.88375 
L 547.41168 47.27175 
L 547.5672 46.65975 
L 547.6968 46.04775 
L 547.80048 45.43575 
L 547.87824 44.82375 
L 547.93008 44.21175 
L 547.956 43.59975 
L 547.956 42.98775 
L 547.93008 42.37575 
L 547.87824 41.76375 
L 547.80048 41.15175 
L 547.6968 40.53975 
L 547.5672 39.92775 
L 547.41168 39.31575 
L 547.23024 38.70375 
L 547.02288 38.09175 
L 546.7896 37.47975 
L 546.5304 36.86775 
L 546.24528 36.25575 
L 545.93424 35.64375 
L 545.59728 35.03175 
L 545.2344 34.41975 
L 544.8456 33.80775 
L 544.43088 33.19575 
L 543.99024 32.58375 
L 543.52368 31.97175 
L 543.0312 31.35975 
L 542.5128 30.74775 
L 541.96848 30.13575 
L 541.39824 29.52375 
L 540.80208 28.91175 
L 540.18 28.29975 
" style="fill:none;stroke:#000000;stroke-linecap:round;stroke-width:1.5;"/>
   </g>
   <g id="line2d_27">
    <path clip-path="url(#p42b9378db9)" d="M 545.04 58.28775 
L 545.66208 57.67575 
L 546.25824 57.06375 
L 546.82848 56.45175 
L 547.3728 55.83975 
L 547.8912 55.22775 
L 548.38368 54.61575 
L 548.85024 54.00375 
L 549.29088 53.39175 
L 549.7056 52.77975 
L 550.0944 52.16775 
L 550.45728 51.55575 
L 550.79424 50.94375 
L 551.10528 50.33175 
L 551.3904 49.71975 
L 551.6496 49.10775 
L 551.88288 48.49575 
L 552.09024 47.88375 
L 552.27168 47.27175 
L 552.4272 46.65975 
L 552.5568 46.04775 
L 552.66048 45.43575 
L 552.73824 44.82375 
L 552.79008 44.21175 
L 552.816 43.59975 
L 552.816 42.98775 
L 552.79008 42.37575 
L 552.73824 41.76375 
L 552.66048 41.15175 
L 552.5568 40.53975 
L 552.4272 39.92775 
L 552.27168 39.31575 
L 552.09024 38.70375 
L 551.88288 38.09175 
L 551.6496 37.47975 
L 551.3904 36.86775 
L 551.10528 36.25575 
L 550.79424 35.64375 
L 550.45728 35.03175 
L 550.0944 34.41975 
L 549.7056 33.80775 
L 549.29088 33.19575 
L 548.85024 32.58375 
L 548.38368 31.97175 
L 547.8912 31.35975 
L 547.3728 30.74775 
L 546.82848 30.13575 
L 546.25824 29.52375 
L 545.66208 28.91175 
L 545.04 28.29975 
" style="fill:none;stroke:#000000;stroke-linecap:round;stroke-width:1.5;"/>
   </g>
   <g id="line2d_28">
    <path clip-path="url(#p42b9378db9)" d="M 528.84 50.94375 
L 545.93424 50.94375 
" style="fill:none;stroke:#000000;stroke-linecap:round;stroke-width:1.5;"/>
   </g>
   <g id="line2d_29">
    <path clip-path="url(#p42b9378db9)" d="M 528.84 35.64375 
L 545.93424 35.64375 
" style="fill:none;stroke:#000000;stroke-linecap:round;stroke-width:1.5;"/>
   </g>
   <g id="line2d_30">
    <path clip-path="url(#p42b9378db9)" d="M 721.296 43.29375 
L 724.86 43.29375 
" style="fill:none;stroke:#000000;stroke-linecap:round;stroke-width:1.5;"/>
   </g>
   <g id="line2d_31">
    <path clip-path="url(#p42b9378db9)" d="M 674.64 58.28775 
L 690.84 58.28775 
L 691.302857 58.281505 
L 691.765714 58.26277 
L 692.228571 58.231546 
L 692.691429 58.187832 
L 693.154286 58.131628 
L 693.617143 58.062934 
L 694.08 57.98175 
L 694.542857 57.888077 
L 695.005714 57.781913 
L 695.468571 57.66326 
L 695.931429 57.532117 
L 696.394286 57.388485 
L 696.857143 57.232362 
L 697.32 57.06375 
L 697.782857 56.882648 
L 698.245714 56.689056 
L 698.708571 56.482974 
L 699.171429 56.264403 
L 699.634286 56.033342 
L 700.097143 55.789791 
L 700.56 55.53375 
L 701.022857 55.265219 
L 701.485714 54.984199 
L 701.948571 54.690689 
L 702.411429 54.384689 
L 702.874286 54.066199 
L 703.337143 53.735219 
L 703.8 53.39175 
L 704.262857 53.035791 
L 704.725714 52.667342 
L 705.188571 52.286403 
L 705.651429 51.892974 
L 706.114286 51.487056 
L 706.577143 51.068648 
L 707.04 50.63775 
L 707.502857 50.194362 
L 707.965714 49.738485 
L 708.428571 49.270117 
L 708.891429 48.78926 
L 709.354286 48.295913 
L 709.817143 47.790077 
L 710.28 47.27175 
L 710.742857 46.740934 
L 711.205714 46.197628 
L 711.668571 45.641832 
L 712.131429 45.073546 
L 712.594286 44.49277 
L 713.057143 43.899505 
L 713.52 43.29375 
" style="fill:none;stroke:#000000;stroke-linecap:round;stroke-width:1.5;"/>
   </g>
   <g id="line2d_32">
    <path clip-path="url(#p42b9378db9)" d="M 674.64 28.29975 
L 690.84 28.29975 
L 691.302857 28.305995 
L 691.765714 28.32473 
L 692.228571 28.355954 
L 692.691429 28.399668 
L 693.154286 28.455872 
L 693.617143 28.524566 
L 694.08 28.60575 
L 694.542857 28.699423 
L 695.005714 28.805587 
L 695.468571 28.92424 
L 695.931429 29.055383 
L 696.394286 29.199015 
L 696.857143 29.355138 
L 697.32 29.52375 
L 697.782857 29.704852 
L 698.245714 29.898444 
L 698.708571 30.104526 
L 699.171429 30.323097 
L 699.634286 30.554158 
L 700.097143 30.797709 
L 700.56 31.05375 
L 701.022857 31.322281 
L 701.485714 31.603301 
L 701.948571 31.896811 
L 702.411429 32.202811 
L 702.874286 32.521301 
L 703.337143 32.852281 
L 703.8 33.19575 
L 704.262857 33.551709 
L 704.725714 33.920158 
L 705.188571 34.301097 
L 705.651429 34.694526 
L 706.114286 35.100444 
L 706.577143 35.518852 
L 707.04 35.94975 
L 707.502857 36.393138 
L 707.965714 36.849015 
L 708.428571 37.317383 
L 708.891429 37.79824 
L 709.354286 38.291587 
L 709.817143 38.797423 
L 710.28 39.31575 
L 710.742857 39.846566 
L 711.205714 40.389872 
L 711.668571 40.945668 
L 712.131429 41.513954 
L 712.594286 42.09473 
L 713.057143 42.687995 
L 713.52 43.29375 
" style="fill:none;stroke:#000000;stroke-linecap:round;stroke-width:1.5;"/>
   </g>
   <g id="line2d_33">
    <path clip-path="url(#p42b9378db9)" d="M 669.78 58.28775 
L 670.40208 57.67575 
L 670.99824 57.06375 
L 671.56848 56.45175 
L 672.1128 55.83975 
L 672.6312 55.22775 
L 673.12368 54.61575 
L 673.59024 54.00375 
L 674.03088 53.39175 
L 674.4456 52.77975 
L 674.8344 52.16775 
L 675.19728 51.55575 
L 675.53424 50.94375 
L 675.84528 50.33175 
L 676.1304 49.71975 
L 676.3896 49.10775 
L 676.62288 48.49575 
L 676.83024 47.88375 
L 677.01168 47.27175 
L 677.1672 46.65975 
L 677.2968 46.04775 
L 677.40048 45.43575 
L 677.47824 44.82375 
L 677.53008 44.21175 
L 677.556 43.59975 
L 677.556 42.98775 
L 677.53008 42.37575 
L 677.47824 41.76375 
L 677.40048 41.15175 
L 677.2968 40.53975 
L 677.1672 39.92775 
L 677.01168 39.31575 
L 676.83024 38.70375 
L 676.62288 38.09175 
L 676.3896 37.47975 
L 676.1304 36.86775 
L 675.84528 36.25575 
L 675.53424 35.64375 
L 675.19728 35.03175 
L 674.8344 34.41975 
L 674.4456 33.80775 
L 674.03088 33.19575 
L 673.59024 32.58375 
L 673.12368 31.97175 
L 672.6312 31.35975 
L 672.1128 30.74775 
L 671.56848 30.13575 
L 670.99824 29.52375 
L 670.40208 28.91175 
L 669.78 28.29975 
" style="fill:none;stroke:#000000;stroke-linecap:round;stroke-width:1.5;"/>
   </g>
   <g id="line2d_34">
    <path clip-path="url(#p42b9378db9)" d="M 674.64 58.28775 
L 675.26208 57.67575 
L 675.85824 57.06375 
L 676.42848 56.45175 
L 676.9728 55.83975 
L 677.4912 55.22775 
L 677.98368 54.61575 
L 678.45024 54.00375 
L 678.89088 53.39175 
L 679.3056 52.77975 
L 679.6944 52.16775 
L 680.05728 51.55575 
L 680.39424 50.94375 
L 680.70528 50.33175 
L 680.9904 49.71975 
L 681.2496 49.10775 
L 681.48288 48.49575 
L 681.69024 47.88375 
L 681.87168 47.27175 
L 682.0272 46.65975 
L 682.1568 46.04775 
L 682.26048 45.43575 
L 682.33824 44.82375 
L 682.39008 44.21175 
L 682.416 43.59975 
L 682.416 42.98775 
L 682.39008 42.37575 
L 682.33824 41.76375 
L 682.26048 41.15175 
L 682.1568 40.53975 
L 682.0272 39.92775 
L 681.87168 39.31575 
L 681.69024 38.70375 
L 681.48288 38.09175 
L 681.2496 37.47975 
L 680.9904 36.86775 
L 680.70528 36.25575 
L 680.39424 35.64375 
L 680.05728 35.03175 
L 679.6944 34.41975 
L 679.3056 33.80775 
L 678.89088 33.19575 
L 678.45024 32.58375 
L 677.98368 31.97175 
L 677.4912 31.35975 
L 676.9728 30.74775 
L 676.42848 30.13575 
L 675.85824 29.52375 
L 675.26208 28.91175 
L 674.64 28.29975 
" style="fill:none;stroke:#000000;stroke-linecap:round;stroke-width:1.5;"/>
   </g>
   <g id="line2d_35">
    <path clip-path="url(#p42b9378db9)" d="M 658.44 50.94375 
L 675.53424 50.94375 
" style="fill:none;stroke:#000000;stroke-linecap:round;stroke-width:1.5;"/>
   </g>
   <g id="line2d_36">
    <path clip-path="url(#p42b9378db9)" d="M 658.44 35.64375 
L 675.53424 35.64375 
" style="fill:none;stroke:#000000;stroke-linecap:round;stroke-width:1.5;"/>
   </g>
   <g id="line2d_37">
    <path clip-path="url(#p42b9378db9)" d="M 59.04 119.79375 
L 70.38 119.79375 
" style="fill:none;stroke:#000000;stroke-linecap:round;stroke-width:1.5;"/>
   </g>
   <g id="line2d_38">
    <path clip-path="url(#p42b9378db9)" d="M 21.78 119.79375 
L 21.78 135.09375 
L 42.84 135.09375 
" style="fill:none;stroke:#000000;stroke-linecap:round;stroke-width:1.5;"/>
   </g>
   <g id="line2d_39">
    <path clip-path="url(#p42b9378db9)" d="M 21.78 119.79375 
L 21.78 104.49375 
L 42.84 104.49375 
" style="fill:none;stroke:#000000;stroke-linecap:round;stroke-width:1.5;"/>
   </g>
   <g id="line2d_40">
    <path clip-path="url(#p42b9378db9)" d="M 10.44 129.89175 
L 21.78 129.89175 
" style="fill:none;stroke:#000000;stroke-linecap:round;stroke-width:1.5;"/>
   </g>
   <g id="line2d_41">
    <path clip-path="url(#p42b9378db9)" d="M 10.44 119.79375 
L 21.78 119.79375 
" style="fill:none;stroke:#000000;stroke-linecap:round;stroke-width:1.5;"/>
   </g>
   <g id="line2d_42">
    <path clip-path="url(#p42b9378db9)" d="M 10.44 109.69575 
L 21.78 109.69575 
" style="fill:none;stroke:#000000;stroke-linecap:round;stroke-width:1.5;"/>
   </g>
   <g id="line2d_43">
    <path clip-path="url(#p42b9378db9)" d="M 196.416 119.79375 
L 199.98 119.79375 
" style="fill:none;stroke:#000000;stroke-linecap:round;stroke-width:1.5;"/>
   </g>
   <g id="line2d_44">
    <path clip-path="url(#p42b9378db9)" d="M 151.38 119.79375 
L 151.38 135.09375 
L 172.44 135.09375 
" style="fill:none;stroke:#000000;stroke-linecap:round;stroke-width:1.5;"/>
   </g>
   <g id="line2d_45">
    <path clip-path="url(#p42b9378db9)" d="M 151.38 119.79375 
L 151.38 104.49375 
L 172.44 104.49375 
" style="fill:none;stroke:#000000;stroke-linecap:round;stroke-width:1.5;"/>
   </g>
   <g id="line2d_46">
    <path clip-path="url(#p42b9378db9)" d="M 140.04 129.89175 
L 151.38 129.89175 
" style="fill:none;stroke:#000000;stroke-linecap:round;stroke-width:1.5;"/>
   </g>
   <g id="line2d_47">
    <path clip-path="url(#p42b9378db9)" d="M 140.04 119.79375 
L 151.38 119.79375 
" style="fill:none;stroke:#000000;stroke-linecap:round;stroke-width:1.5;"/>
   </g>
   <g id="line2d_48">
    <path clip-path="url(#p42b9378db9)" d="M 140.04 109.69575 
L 151.38 109.69575 
" style="fill:none;stroke:#000000;stroke-linecap:round;stroke-width:1.5;"/>
   </g>
   <g id="line2d_49">
    <path clip-path="url(#p42b9378db9)" d="M 319.86 119.79375 
L 331.2 119.79375 
" style="fill:none;stroke:#000000;stroke-linecap:round;stroke-width:1.5;"/>
   </g>
   <g id="line2d_50">
    <path clip-path="url(#p42b9378db9)" d="M 280.98 134.78775 
L 297.18 134.78775 
L 297.642857 134.781505 
L 298.105714 134.76277 
L 298.568571 134.731546 
L 299.031429 134.687832 
L 299.494286 134.631628 
L 299.957143 134.562934 
L 300.42 134.48175 
L 300.882857 134.388077 
L 301.345714 134.281913 
L 301.808571 134.16326 
L 302.271429 134.032117 
L 302.734286 133.888485 
L 303.197143 133.732362 
L 303.66 133.56375 
L 304.122857 133.382648 
L 304.585714 133.189056 
L 305.048571 132.982974 
L 305.511429 132.764403 
L 305.974286 132.533342 
L 306.437143 132.289791 
L 306.9 132.03375 
L 307.362857 131.765219 
L 307.825714 131.484199 
L 308.288571 131.190689 
L 308.751429 130.884689 
L 309.214286 130.566199 
L 309.677143 130.235219 
L 310.14 129.89175 
L 310.602857 129.535791 
L 311.065714 129.167342 
L 311.528571 128.786403 
L 311.991429 128.392974 
L 312.454286 127.987056 
L 312.917143 127.568648 
L 313.38 127.13775 
L 313.842857 126.694362 
L 314.305714 126.238485 
L 314.768571 125.770117 
L 315.231429 125.28926 
L 315.694286 124.795913 
L 316.157143 124.290077 
L 316.62 123.77175 
L 317.082857 123.240934 
L 317.545714 122.697628 
L 318.008571 122.141832 
L 318.471429 121.573546 
L 318.934286 120.99277 
L 319.397143 120.399505 
L 319.86 119.79375 
" style="fill:none;stroke:#000000;stroke-linecap:round;stroke-width:1.5;"/>
   </g>
   <g id="line2d_51">
    <path clip-path="url(#p42b9378db9)" d="M 280.98 104.79975 
L 297.18 104.79975 
L 297.642857 104.805995 
L 298.105714 104.82473 
L 298.568571 104.855954 
L 299.031429 104.899668 
L 299.494286 104.955872 
L 299.957143 105.024566 
L 300.42 105.10575 
L 300.882857 105.199423 
L 301.345714 105.305587 
L 301.808571 105.42424 
L 302.271429 105.555383 
L 302.734286 105.699015 
L 303.197143 105.855138 
L 303.66 106.02375 
L 304.122857 106.204852 
L 304.585714 106.398444 
L 305.048571 106.604526 
L 305.511429 106.823097 
L 305.974286 107.054158 
L 306.437143 107.297709 
L 306.9 107.55375 
L 307.362857 107.822281 
L 307.825714 108.103301 
L 308.288571 108.396811 
L 308.751429 108.702811 
L 309.214286 109.021301 
L 309.677143 109.352281 
L 310.14 109.69575 
L 310.602857 110.051709 
L 311.065714 110.420158 
L 311.528571 110.801097 
L 311.991429 111.194526 
L 312.454286 111.600444 
L 312.917143 112.018852 
L 313.38 112.44975 
L 313.842857 112.893138 
L 314.305714 113.349015 
L 314.768571 113.817383 
L 315.231429 114.29824 
L 315.694286 114.791587 
L 316.157143 115.297423 
L 316.62 115.81575 
L 317.082857 116.346566 
L 317.545714 116.889872 
L 318.008571 117.445668 
L 318.471429 118.013954 
L 318.934286 118.59473 
L 319.397143 119.187995 
L 319.86 119.79375 
" style="fill:none;stroke:#000000;stroke-linecap:round;stroke-width:1.5;"/>
   </g>
   <g id="line2d_52">
    <path clip-path="url(#p42b9378db9)" d="M 280.98 134.78775 
L 281.60208 134.17575 
L 282.19824 133.56375 
L 282.76848 132.95175 
L 283.3128 132.33975 
L 283.8312 131.72775 
L 284.32368 131.11575 
L 284.79024 130.50375 
L 285.23088 129.89175 
L 285.6456 129.27975 
L 286.0344 128.66775 
L 286.39728 128.05575 
L 286.73424 127.44375 
L 287.04528 126.83175 
L 287.3304 126.21975 
L 287.5896 125.60775 
L 287.82288 124.99575 
L 288.03024 124.38375 
L 288.21168 123.77175 
L 288.3672 123.15975 
L 288.4968 122.54775 
L 288.60048 121.93575 
L 288.67824 121.32375 
L 288.73008 120.71175 
L 288.756 120.09975 
L 288.756 119.48775 
L 288.73008 118.87575 
L 288.67824 118.26375 
L 288.60048 117.65175 
L 288.4968 117.03975 
L 288.3672 116.42775 
L 288.21168 115.81575 
L 288.03024 115.20375 
L 287.82288 114.59175 
L 287.5896 113.97975 
L 287.3304 113.36775 
L 287.04528 112.75575 
L 286.73424 112.14375 
L 286.39728 111.53175 
L 286.0344 110.91975 
L 285.6456 110.30775 
L 285.23088 109.69575 
L 284.79024 109.08375 
L 284.32368 108.47175 
L 283.8312 107.85975 
L 283.3128 107.24775 
L 282.76848 106.63575 
L 282.19824 106.02375 
L 281.60208 105.41175 
L 280.98 104.79975 
" style="fill:none;stroke:#000000;stroke-linecap:round;stroke-width:1.5;"/>
   </g>
   <g id="line2d_53">
    <path clip-path="url(#p42b9378db9)" d="M 269.64 129.89175 
L 285.23088 129.89175 
" style="fill:none;stroke:#000000;stroke-linecap:round;stroke-width:1.5;"/>
   </g>
   <g id="line2d_54">
    <path clip-path="url(#p42b9378db9)" d="M 269.64 119.79375 
L 288.75924 119.79375 
" style="fill:none;stroke:#000000;stroke-linecap:round;stroke-width:1.5;"/>
   </g>
   <g id="line2d_55">
    <path clip-path="url(#p42b9378db9)" d="M 269.64 109.69575 
L 285.23088 109.69575 
" style="fill:none;stroke:#000000;stroke-linecap:round;stroke-width:1.5;"/>
   </g>
   <g id="line2d_56">
    <path clip-path="url(#p42b9378db9)" d="M 457.236 119.79375 
L 460.8 119.79375 
" style="fill:none;stroke:#000000;stroke-linecap:round;stroke-width:1.5;"/>
   </g>
   <g id="line2d_57">
    <path clip-path="url(#p42b9378db9)" d="M 410.58 134.78775 
L 426.78 134.78775 
L 427.242857 134.781505 
L 427.705714 134.76277 
L 428.168571 134.731546 
L 428.631429 134.687832 
L 429.094286 134.631628 
L 429.557143 134.562934 
L 430.02 134.48175 
L 430.482857 134.388077 
L 430.945714 134.281913 
L 431.408571 134.16326 
L 431.871429 134.032117 
L 432.334286 133.888485 
L 432.797143 133.732362 
L 433.26 133.56375 
L 433.722857 133.382648 
L 434.185714 133.189056 
L 434.648571 132.982974 
L 435.111429 132.764403 
L 435.574286 132.533342 
L 436.037143 132.289791 
L 436.5 132.03375 
L 436.962857 131.765219 
L 437.425714 131.484199 
L 437.888571 131.190689 
L 438.351429 130.884689 
L 438.814286 130.566199 
L 439.277143 130.235219 
L 439.74 129.89175 
L 440.202857 129.535791 
L 440.665714 129.167342 
L 441.128571 128.786403 
L 441.591429 128.392974 
L 442.054286 127.987056 
L 442.517143 127.568648 
L 442.98 127.13775 
L 443.442857 126.694362 
L 443.905714 126.238485 
L 444.368571 125.770117 
L 444.831429 125.28926 
L 445.294286 124.795913 
L 445.757143 124.290077 
L 446.22 123.77175 
L 446.682857 123.240934 
L 447.145714 122.697628 
L 447.608571 122.141832 
L 448.071429 121.573546 
L 448.534286 120.99277 
L 448.997143 120.399505 
L 449.46 119.79375 
" style="fill:none;stroke:#000000;stroke-linecap:round;stroke-width:1.5;"/>
   </g>
   <g id="line2d_58">
    <path clip-path="url(#p42b9378db9)" d="M 410.58 104.79975 
L 426.78 104.79975 
L 427.242857 104.805995 
L 427.705714 104.82473 
L 428.168571 104.855954 
L 428.631429 104.899668 
L 429.094286 104.955872 
L 429.557143 105.024566 
L 430.02 105.10575 
L 430.482857 105.199423 
L 430.945714 105.305587 
L 431.408571 105.42424 
L 431.871429 105.555383 
L 432.334286 105.699015 
L 432.797143 105.855138 
L 433.26 106.02375 
L 433.722857 106.204852 
L 434.185714 106.398444 
L 434.648571 106.604526 
L 435.111429 106.823097 
L 435.574286 107.054158 
L 436.037143 107.297709 
L 436.5 107.55375 
L 436.962857 107.822281 
L 437.425714 108.103301 
L 437.888571 108.396811 
L 438.351429 108.702811 
L 438.814286 109.021301 
L 439.277143 109.352281 
L 439.74 109.69575 
L 440.202857 110.051709 
L 440.665714 110.420158 
L 441.128571 110.801097 
L 441.591429 111.194526 
L 442.054286 111.600444 
L 442.517143 112.018852 
L 442.98 112.44975 
L 443.442857 112.893138 
L 443.905714 113.349015 
L 444.368571 113.817383 
L 444.831429 114.29824 
L 445.294286 114.791587 
L 445.757143 115.297423 
L 446.22 115.81575 
L 446.682857 116.346566 
L 447.145714 116.889872 
L 447.608571 117.445668 
L 448.071429 118.013954 
L 448.534286 118.59473 
L 448.997143 119.187995 
L 449.46 119.79375 
" style="fill:none;stroke:#000000;stroke-linecap:round;stroke-width:1.5;"/>
   </g>
   <g id="line2d_59">
    <path clip-path="url(#p42b9378db9)" d="M 410.58 134.78775 
L 411.20208 134.17575 
L 411.79824 133.56375 
L 412.36848 132.95175 
L 412.9128 132.33975 
L 413.4312 131.72775 
L 413.92368 131.11575 
L 414.39024 130.50375 
L 414.83088 129.89175 
L 415.2456 129.27975 
L 415.6344 128.66775 
L 415.99728 128.05575 
L 416.33424 127.44375 
L 416.64528 126.83175 
L 416.9304 126.21975 
L 417.1896 125.60775 
L 417.42288 124.99575 
L 417.63024 124.38375 
L 417.81168 123.77175 
L 417.9672 123.15975 
L 418.0968 122.54775 
L 418.20048 121.93575 
L 418.27824 121.32375 
L 418.33008 120.71175 
L 418.356 120.09975 
L 418.356 119.48775 
L 418.33008 118.87575 
L 418.27824 118.26375 
L 418.20048 117.65175 
L 418.0968 117.03975 
L 417.9672 116.42775 
L 417.81168 115.81575 
L 417.63024 115.20375 
L 417.42288 114.59175 
L 417.1896 113.97975 
L 416.9304 113.36775 
L 416.64528 112.75575 
L 416.33424 112.14375 
L 415.99728 111.53175 
L 415.6344 110.91975 
L 415.2456 110.30775 
L 414.83088 109.69575 
L 414.39024 109.08375 
L 413.92368 108.47175 
L 413.4312 107.85975 
L 412.9128 107.24775 
L 412.36848 106.63575 
L 411.79824 106.02375 
L 411.20208 105.41175 
L 410.58 104.79975 
" style="fill:none;stroke:#000000;stroke-linecap:round;stroke-width:1.5;"/>
   </g>
   <g id="line2d_60">
    <path clip-path="url(#p42b9378db9)" d="M 399.24 129.89175 
L 414.83088 129.89175 
" style="fill:none;stroke:#000000;stroke-linecap:round;stroke-width:1.5;"/>
   </g>
   <g id="line2d_61">
    <path clip-path="url(#p42b9378db9)" d="M 399.24 119.79375 
L 418.35924 119.79375 
" style="fill:none;stroke:#000000;stroke-linecap:round;stroke-width:1.5;"/>
   </g>
   <g id="line2d_62">
    <path clip-path="url(#p42b9378db9)" d="M 399.24 109.69575 
L 414.83088 109.69575 
" style="fill:none;stroke:#000000;stroke-linecap:round;stroke-width:1.5;"/>
   </g>
   <g id="line2d_63">
    <path clip-path="url(#p42b9378db9)" d="M 583.92 119.79375 
L 595.26 119.79375 
" style="fill:none;stroke:#000000;stroke-linecap:round;stroke-width:1.5;"/>
   </g>
   <g id="line2d_64">
    <path clip-path="url(#p42b9378db9)" d="M 545.04 134.78775 
L 561.24 134.78775 
L 561.702857 134.781505 
L 562.165714 134.76277 
L 562.628571 134.731546 
L 563.091429 134.687832 
L 563.554286 134.631628 
L 564.017143 134.562934 
L 564.48 134.48175 
L 564.942857 134.388077 
L 565.405714 134.281913 
L 565.868571 134.16326 
L 566.331429 134.032117 
L 566.794286 133.888485 
L 567.257143 133.732362 
L 567.72 133.56375 
L 568.182857 133.382648 
L 568.645714 133.189056 
L 569.108571 132.982974 
L 569.571429 132.764403 
L 570.034286 132.533342 
L 570.497143 132.289791 
L 570.96 132.03375 
L 571.422857 131.765219 
L 571.885714 131.484199 
L 572.348571 131.190689 
L 572.811429 130.884689 
L 573.274286 130.566199 
L 573.737143 130.235219 
L 574.2 129.89175 
L 574.662857 129.535791 
L 575.125714 129.167342 
L 575.588571 128.786403 
L 576.051429 128.392974 
L 576.514286 127.987056 
L 576.977143 127.568648 
L 577.44 127.13775 
L 577.902857 126.694362 
L 578.365714 126.238485 
L 578.828571 125.770117 
L 579.291429 125.28926 
L 579.754286 124.795913 
L 580.217143 124.290077 
L 580.68 123.77175 
L 581.142857 123.240934 
L 581.605714 122.697628 
L 582.068571 122.141832 
L 582.531429 121.573546 
L 582.994286 120.99277 
L 583.457143 120.399505 
L 583.92 119.79375 
" style="fill:none;stroke:#000000;stroke-linecap:round;stroke-width:1.5;"/>
   </g>
   <g id="line2d_65">
    <path clip-path="url(#p42b9378db9)" d="M 545.04 104.79975 
L 561.24 104.79975 
L 561.702857 104.805995 
L 562.165714 104.82473 
L 562.628571 104.855954 
L 563.091429 104.899668 
L 563.554286 104.955872 
L 564.017143 105.024566 
L 564.48 105.10575 
L 564.942857 105.199423 
L 565.405714 105.305587 
L 565.868571 105.42424 
L 566.331429 105.555383 
L 566.794286 105.699015 
L 567.257143 105.855138 
L 567.72 106.02375 
L 568.182857 106.204852 
L 568.645714 106.398444 
L 569.108571 106.604526 
L 569.571429 106.823097 
L 570.034286 107.054158 
L 570.497143 107.297709 
L 570.96 107.55375 
L 571.422857 107.822281 
L 571.885714 108.103301 
L 572.348571 108.396811 
L 572.811429 108.702811 
L 573.274286 109.021301 
L 573.737143 109.352281 
L 574.2 109.69575 
L 574.662857 110.051709 
L 575.125714 110.420158 
L 575.588571 110.801097 
L 576.051429 111.194526 
L 576.514286 111.600444 
L 576.977143 112.018852 
L 577.44 112.44975 
L 577.902857 112.893138 
L 578.365714 113.349015 
L 578.828571 113.817383 
L 579.291429 114.29824 
L 579.754286 114.791587 
L 580.217143 115.297423 
L 580.68 115.81575 
L 581.142857 116.346566 
L 581.605714 116.889872 
L 582.068571 117.445668 
L 582.531429 118.013954 
L 582.994286 118.59473 
L 583.457143 119.187995 
L 583.92 119.79375 
" style="fill:none;stroke:#000000;stroke-linecap:round;stroke-width:1.5;"/>
   </g>
   <g id="line2d_66">
    <path clip-path="url(#p42b9378db9)" d="M 540.18 134.78775 
L 540.80208 134.17575 
L 541.39824 133.56375 
L 541.96848 132.95175 
L 542.5128 132.33975 
L 543.0312 131.72775 
L 543.52368 131.11575 
L 543.99024 130.50375 
L 544.43088 129.89175 
L 544.8456 129.27975 
L 545.2344 128.66775 
L 545.59728 128.05575 
L 545.93424 127.44375 
L 546.24528 126.83175 
L 546.5304 126.21975 
L 546.7896 125.60775 
L 547.02288 124.99575 
L 547.23024 124.38375 
L 547.41168 123.77175 
L 547.5672 123.15975 
L 547.6968 122.54775 
L 547.80048 121.93575 
L 547.87824 121.32375 
L 547.93008 120.71175 
L 547.956 120.09975 
L 547.956 119.48775 
L 547.93008 118.87575 
L 547.87824 118.26375 
L 547.80048 117.65175 
L 547.6968 117.03975 
L 547.5672 116.42775 
L 547.41168 115.81575 
L 547.23024 115.20375 
L 547.02288 114.59175 
L 546.7896 113.97975 
L 546.5304 113.36775 
L 546.24528 112.75575 
L 545.93424 112.14375 
L 545.59728 111.53175 
L 545.2344 110.91975 
L 544.8456 110.30775 
L 544.43088 109.69575 
L 543.99024 109.08375 
L 543.52368 108.47175 
L 543.0312 107.85975 
L 542.5128 107.24775 
L 541.96848 106.63575 
L 541.39824 106.02375 
L 540.80208 105.41175 
L 540.18 104.79975 
" style="fill:none;stroke:#000000;stroke-linecap:round;stroke-width:1.5;"/>
   </g>
   <g id="line2d_67">
    <path clip-path="url(#p42b9378db9)" d="M 545.04 134.78775 
L 545.66208 134.17575 
L 546.25824 133.56375 
L 546.82848 132.95175 
L 547.3728 132.33975 
L 547.8912 131.72775 
L 548.38368 131.11575 
L 548.85024 130.50375 
L 549.29088 129.89175 
L 549.7056 129.27975 
L 550.0944 128.66775 
L 550.45728 128.05575 
L 550.79424 127.44375 
L 551.10528 126.83175 
L 551.3904 126.21975 
L 551.6496 125.60775 
L 551.88288 124.99575 
L 552.09024 124.38375 
L 552.27168 123.77175 
L 552.4272 123.15975 
L 552.5568 122.54775 
L 552.66048 121.93575 
L 552.73824 121.32375 
L 552.79008 120.71175 
L 552.816 120.09975 
L 552.816 119.48775 
L 552.79008 118.87575 
L 552.73824 118.26375 
L 552.66048 117.65175 
L 552.5568 117.03975 
L 552.4272 116.42775 
L 552.27168 115.81575 
L 552.09024 115.20375 
L 551.88288 114.59175 
L 551.6496 113.97975 
L 551.3904 113.36775 
L 551.10528 112.75575 
L 550.79424 112.14375 
L 550.45728 111.53175 
L 550.0944 110.91975 
L 549.7056 110.30775 
L 549.29088 109.69575 
L 548.85024 109.08375 
L 548.38368 108.47175 
L 547.8912 107.85975 
L 547.3728 107.24775 
L 546.82848 106.63575 
L 546.25824 106.02375 
L 545.66208 105.41175 
L 545.04 104.79975 
" style="fill:none;stroke:#000000;stroke-linecap:round;stroke-width:1.5;"/>
   </g>
   <g id="line2d_68">
    <path clip-path="url(#p42b9378db9)" d="M 528.84 129.89175 
L 544.43088 129.89175 
" style="fill:none;stroke:#000000;stroke-linecap:round;stroke-width:1.5;"/>
   </g>
   <g id="line2d_69">
    <path clip-path="url(#p42b9378db9)" d="M 528.84 119.79375 
L 547.95924 119.79375 
" style="fill:none;stroke:#000000;stroke-linecap:round;stroke-width:1.5;"/>
   </g>
   <g id="line2d_70">
    <path clip-path="url(#p42b9378db9)" d="M 528.84 109.69575 
L 544.43088 109.69575 
" style="fill:none;stroke:#000000;stroke-linecap:round;stroke-width:1.5;"/>
   </g>
   <g id="line2d_71">
    <path clip-path="url(#p42b9378db9)" d="M 721.296 119.79375 
L 724.86 119.79375 
" style="fill:none;stroke:#000000;stroke-linecap:round;stroke-width:1.5;"/>
   </g>
   <g id="line2d_72">
    <path clip-path="url(#p42b9378db9)" d="M 674.64 134.78775 
L 690.84 134.78775 
L 691.302857 134.781505 
L 691.765714 134.76277 
L 692.228571 134.731546 
L 692.691429 134.687832 
L 693.154286 134.631628 
L 693.617143 134.562934 
L 694.08 134.48175 
L 694.542857 134.388077 
L 695.005714 134.281913 
L 695.468571 134.16326 
L 695.931429 134.032117 
L 696.394286 133.888485 
L 696.857143 133.732362 
L 697.32 133.56375 
L 697.782857 133.382648 
L 698.245714 133.189056 
L 698.708571 132.982974 
L 699.171429 132.764403 
L 699.634286 132.533342 
L 700.097143 132.289791 
L 700.56 132.03375 
L 701.022857 131.765219 
L 701.485714 131.484199 
L 701.948571 131.190689 
L 702.411429 130.884689 
L 702.874286 130.566199 
L 703.337143 130.235219 
L 703.8 129.89175 
L 704.262857 129.535791 
L 704.725714 129.167342 
L 705.188571 128.786403 
L 705.651429 128.392974 
L 706.114286 127.987056 
L 706.577143 127.568648 
L 707.04 127.13775 
L 707.502857 126.694362 
L 707.965714 126.238485 
L 708.428571 125.770117 
L 708.891429 125.28926 
L 709.354286 124.795913 
L 709.817143 124.290077 
L 710.28 123.77175 
L 710.742857 123.240934 
L 711.205714 122.697628 
L 711.668571 122.141832 
L 712.131429 121.573546 
L 712.594286 120.99277 
L 713.057143 120.399505 
L 713.52 119.79375 
" style="fill:none;stroke:#000000;stroke-linecap:round;stroke-width:1.5;"/>
   </g>
   <g id="line2d_73">
    <path clip-path="url(#p42b9378db9)" d="M 674.64 104.79975 
L 690.84 104.79975 
L 691.302857 104.805995 
L 691.765714 104.82473 
L 692.228571 104.855954 
L 692.691429 104.899668 
L 693.154286 104.955872 
L 693.617143 105.024566 
L 694.08 105.10575 
L 694.542857 105.199423 
L 695.005714 105.305587 
L 695.468571 105.42424 
L 695.931429 105.555383 
L 696.394286 105.699015 
L 696.857143 105.855138 
L 697.32 106.02375 
L 697.782857 106.204852 
L 698.245714 106.398444 
L 698.708571 106.604526 
L 699.171429 106.823097 
L 699.634286 107.054158 
L 700.097143 107.297709 
L 700.56 107.55375 
L 701.022857 107.822281 
L 701.485714 108.103301 
L 701.948571 108.396811 
L 702.411429 108.702811 
L 702.874286 109.021301 
L 703.337143 109.352281 
L 703.8 109.69575 
L 704.262857 110.051709 
L 704.725714 110.420158 
L 705.188571 110.801097 
L 705.651429 111.194526 
L 706.114286 111.600444 
L 706.577143 112.018852 
L 707.04 112.44975 
L 707.502857 112.893138 
L 707.965714 113.349015 
L 708.428571 113.817383 
L 708.891429 114.29824 
L 709.354286 114.791587 
L 709.817143 115.297423 
L 710.28 115.81575 
L 710.742857 116.346566 
L 711.205714 116.889872 
L 711.668571 117.445668 
L 712.131429 118.013954 
L 712.594286 118.59473 
L 713.057143 119.187995 
L 713.52 119.79375 
" style="fill:none;stroke:#000000;stroke-linecap:round;stroke-width:1.5;"/>
   </g>
   <g id="line2d_74">
    <path clip-path="url(#p42b9378db9)" d="M 669.78 134.78775 
L 670.40208 134.17575 
L 670.99824 133.56375 
L 671.56848 132.95175 
L 672.1128 132.33975 
L 672.6312 131.72775 
L 673.12368 131.11575 
L 673.59024 130.50375 
L 674.03088 129.89175 
L 674.4456 129.27975 
L 674.8344 128.66775 
L 675.19728 128.05575 
L 675.53424 127.44375 
L 675.84528 126.83175 
L 676.1304 126.21975 
L 676.3896 125.60775 
L 676.62288 124.99575 
L 676.83024 124.38375 
L 677.01168 123.77175 
L 677.1672 123.15975 
L 677.2968 122.54775 
L 677.40048 121.93575 
L 677.47824 121.32375 
L 677.53008 120.71175 
L 677.556 120.09975 
L 677.556 119.48775 
L 677.53008 118.87575 
L 677.47824 118.26375 
L 677.40048 117.65175 
L 677.2968 117.03975 
L 677.1672 116.42775 
L 677.01168 115.81575 
L 676.83024 115.20375 
L 676.62288 114.59175 
L 676.3896 113.97975 
L 676.1304 113.36775 
L 675.84528 112.75575 
L 675.53424 112.14375 
L 675.19728 111.53175 
L 674.8344 110.91975 
L 674.4456 110.30775 
L 674.03088 109.69575 
L 673.59024 109.08375 
L 673.12368 108.47175 
L 672.6312 107.85975 
L 672.1128 107.24775 
L 671.56848 106.63575 
L 670.99824 106.02375 
L 670.40208 105.41175 
L 669.78 104.79975 
" style="fill:none;stroke:#000000;stroke-linecap:round;stroke-width:1.5;"/>
   </g>
   <g id="line2d_75">
    <path clip-path="url(#p42b9378db9)" d="M 674.64 134.78775 
L 675.26208 134.17575 
L 675.85824 133.56375 
L 676.42848 132.95175 
L 676.9728 132.33975 
L 677.4912 131.72775 
L 677.98368 131.11575 
L 678.45024 130.50375 
L 678.89088 129.89175 
L 679.3056 129.27975 
L 679.6944 128.66775 
L 680.05728 128.05575 
L 680.39424 127.44375 
L 680.70528 126.83175 
L 680.9904 126.21975 
L 681.2496 125.60775 
L 681.48288 124.99575 
L 681.69024 124.38375 
L 681.87168 123.77175 
L 682.0272 123.15975 
L 682.1568 122.54775 
L 682.26048 121.93575 
L 682.33824 121.32375 
L 682.39008 120.71175 
L 682.416 120.09975 
L 682.416 119.48775 
L 682.39008 118.87575 
L 682.33824 118.26375 
L 682.26048 117.65175 
L 682.1568 117.03975 
L 682.0272 116.42775 
L 681.87168 115.81575 
L 681.69024 115.20375 
L 681.48288 114.59175 
L 681.2496 113.97975 
L 680.9904 113.36775 
L 680.70528 112.75575 
L 680.39424 112.14375 
L 680.05728 111.53175 
L 679.6944 110.91975 
L 679.3056 110.30775 
L 678.89088 109.69575 
L 678.45024 109.08375 
L 677.98368 108.47175 
L 677.4912 107.85975 
L 676.9728 107.24775 
L 676.42848 106.63575 
L 675.85824 106.02375 
L 675.26208 105.41175 
L 674.64 104.79975 
" style="fill:none;stroke:#000000;stroke-linecap:round;stroke-width:1.5;"/>
   </g>
   <g id="line2d_76">
    <path clip-path="url(#p42b9378db9)" d="M 658.44 129.89175 
L 674.03088 129.89175 
" style="fill:none;stroke:#000000;stroke-linecap:round;stroke-width:1.5;"/>
   </g>
   <g id="line2d_77">
    <path clip-path="url(#p42b9378db9)" d="M 658.44 119.79375 
L 677.55924 119.79375 
" style="fill:none;stroke:#000000;stroke-linecap:round;stroke-width:1.5;"/>
   </g>
   <g id="line2d_78">
    <path clip-path="url(#p42b9378db9)" d="M 658.44 109.69575 
L 674.03088 109.69575 
" style="fill:none;stroke:#000000;stroke-linecap:round;stroke-width:1.5;"/>
   </g>
   <g id="patch_6">
    <path clip-path="url(#p42b9378db9)" d="M 192.528 46.96575 
C 193.55911 46.96575 194.548127 46.578845 195.277231 45.890246 
C 196.006336 45.201647 196.416 44.267576 196.416 43.29375 
C 196.416 42.319924 196.006336 41.385853 195.277231 40.697254 
C 194.548127 40.008655 193.55911 39.62175 192.528 39.62175 
C 191.49689 39.62175 190.507873 40.008655 189.778769 40.697254 
C 189.049664 41.385853 188.64 42.319924 188.64 43.29375 
C 188.64 44.267576 189.049664 45.201647 189.778769 45.890246 
C 190.507873 46.578845 191.49689 46.96575 192.528 46.96575 
z
" style="fill:none;stroke:#000000;stroke-linejoin:miter;stroke-width:1.5;"/>
   </g>
   <g id="patch_7">
    <path clip-path="url(#p42b9378db9)" d="M 453.348 46.96575 
C 454.37911 46.96575 455.368127 46.578845 456.097231 45.890246 
C 456.826336 45.201647 457.236 44.267576 457.236 43.29375 
C 457.236 42.319924 456.826336 41.385853 456.097231 40.697254 
C 455.368127 40.008655 454.37911 39.62175 453.348 39.62175 
C 452.31689 39.62175 451.327873 40.008655 450.598769 40.697254 
C 449.869664 41.385853 449.46 42.319924 449.46 43.29375 
C 449.46 44.267576 449.869664 45.201647 450.598769 45.890246 
C 451.327873 46.578845 452.31689 46.96575 453.348 46.96575 
z
" style="fill:none;stroke:#000000;stroke-linejoin:miter;stroke-width:1.5;"/>
   </g>
   <g id="patch_8">
    <path clip-path="url(#p42b9378db9)" d="M 717.408 46.96575 
C 718.43911 46.96575 719.428127 46.578845 720.157231 45.890246 
C 720.886336 45.201647 721.296 44.267576 721.296 43.29375 
C 721.296 42.319924 720.886336 41.385853 720.157231 40.697254 
C 719.428127 40.008655 718.43911 39.62175 717.408 39.62175 
C 716.37689 39.62175 715.387873 40.008655 714.658769 40.697254 
C 713.929664 41.385853 713.52 42.319924 713.52 43.29375 
C 713.52 44.267576 713.929664 45.201647 714.658769 45.890246 
C 715.387873 46.578845 716.37689 46.96575 717.408 46.96575 
z
" style="fill:none;stroke:#000000;stroke-linejoin:miter;stroke-width:1.5;"/>
   </g>
   <g id="patch_9">
    <path clip-path="url(#p42b9378db9)" d="M 192.528 123.46575 
C 193.55911 123.46575 194.548127 123.078845 195.277231 122.390246 
C 196.006336 121.701647 196.416 120.767576 196.416 119.79375 
C 196.416 118.819924 196.006336 117.885853 195.277231 117.197254 
C 194.548127 116.508655 193.55911 116.12175 192.528 116.12175 
C 191.49689 116.12175 190.507873 116.508655 189.778769 117.197254 
C 189.049664 117.885853 188.64 118.819924 188.64 119.79375 
C 188.64 120.767576 189.049664 121.701647 189.778769 122.390246 
C 190.507873 123.078845 191.49689 123.46575 192.528 123.46575 
z
" style="fill:none;stroke:#000000;stroke-linejoin:miter;stroke-width:1.5;"/>
   </g>
   <g id="patch_10">
    <path clip-path="url(#p42b9378db9)" d="M 453.348 123.46575 
C 454.37911 123.46575 455.368127 123.078845 456.097231 122.390246 
C 456.826336 121.701647 457.236 120.767576 457.236 119.79375 
C 457.236 118.819924 456.826336 117.885853 456.097231 117.197254 
C 455.368127 116.508655 454.37911 116.12175 453.348 116.12175 
C 452.31689 116.12175 451.327873 116.508655 450.598769 117.197254 
C 449.869664 117.885853 449.46 118.819924 449.46 119.79375 
C 449.46 120.767576 449.869664 121.701647 450.598769 122.390246 
C 451.327873 123.078845 452.31689 123.46575 453.348 123.46575 
z
" style="fill:none;stroke:#000000;stroke-linejoin:miter;stroke-width:1.5;"/>
   </g>
   <g id="patch_11">
    <path clip-path="url(#p42b9378db9)" d="M 717.408 123.46575 
C 718.43911 123.46575 719.428127 123.078845 720.157231 122.390246 
C 720.886336 121.701647 721.296 120.767576 721.296 119.79375 
C 721.296 118.819924 720.886336 117.885853 720.157231 117.197254 
C 719.428127 116.508655 718.43911 116.12175 717.408 116.12175 
C 716.37689 116.12175 715.387873 116.508655 714.658769 117.197254 
C 713.929664 117.885853 713.52 118.819924 713.52 119.79375 
C 713.52 120.767576 713.929664 121.701647 714.658769 122.390246 
C 715.387873 123.078845 716.37689 123.46575 717.408 123.46575 
z
" style="fill:none;stroke:#000000;stroke-linejoin:miter;stroke-width:1.5;"/>
   </g>
   <g id="text_1">
    <!-- AND2 -->
    <defs>
     <path d="M 9.8125 72.90625 
L 23.09375 72.90625 
L 55.421875 11.921875 
L 55.421875 72.90625 
L 64.984375 72.90625 
L 64.984375 0 
L 51.703125 0 
L 19.390625 60.984375 
L 19.390625 0 
L 9.8125 0 
z
" id="BitstreamVeraSans-Roman-4e"/>
     <path d="M 19.671875 64.796875 
L 19.671875 8.109375 
L 31.59375 8.109375 
Q 46.6875 8.109375 53.6875 14.9375 
Q 60.6875 21.78125 60.6875 36.53125 
Q 60.6875 51.171875 53.6875 57.984375 
Q 46.6875 64.796875 31.59375 64.796875 
z
M 9.8125 72.90625 
L 30.078125 72.90625 
Q 51.265625 72.90625 61.171875 64.09375 
Q 71.09375 55.28125 71.09375 36.53125 
Q 71.09375 17.671875 61.125 8.828125 
Q 51.171875 0 30.078125 0 
L 9.8125 0 
z
" id="BitstreamVeraSans-Roman-44"/>
     <path d="M 34.1875 63.1875 
L 20.796875 26.90625 
L 47.609375 26.90625 
z
M 28.609375 72.90625 
L 39.796875 72.90625 
L 67.578125 0 
L 57.328125 0 
L 50.6875 18.703125 
L 17.828125 18.703125 
L 11.1875 0 
L 0.78125 0 
z
" id="BitstreamVeraSans-Roman-41"/>
     <path d="M 19.1875 8.296875 
L 53.609375 8.296875 
L 53.609375 0 
L 7.328125 0 
L 7.328125 8.296875 
Q 12.9375 14.109375 22.625 23.890625 
Q 32.328125 33.6875 34.8125 36.53125 
Q 39.546875 41.84375 41.421875 45.53125 
Q 43.3125 49.21875 43.3125 52.78125 
Q 43.3125 58.59375 39.234375 62.25 
Q 35.15625 65.921875 28.609375 65.921875 
Q 23.96875 65.921875 18.8125 64.3125 
Q 13.671875 62.703125 7.8125 59.421875 
L 7.8125 69.390625 
Q 13.765625 71.78125 18.9375 73 
Q 24.125 74.21875 28.421875 74.21875 
Q 39.75 74.21875 46.484375 68.546875 
Q 53.21875 62.890625 53.21875 53.421875 
Q 53.21875 48.921875 51.53125 44.890625 
Q 49.859375 40.875 45.40625 35.40625 
Q 44.1875 33.984375 37.640625 27.21875 
Q 31.109375 20.453125 19.1875 8.296875 
" id="BitstreamVeraSans-Roman-32"/>
    </defs>
    <g transform="translate(25.809375 16.318125)scale(0.12 -0.12)">
     <use xlink:href="#BitstreamVeraSans-Roman-41"/>
     <use x="68.408203125" xlink:href="#BitstreamVeraSans-Roman-4e"/>
     <use x="143.212890625" xlink:href="#BitstreamVeraSans-Roman-44"/>
     <use x="220.21484375" xlink:href="#BitstreamVeraSans-Roman-32"/>
    </g>
   </g>
   <g id="text_2">
    <!-- NAND2 -->
    <g transform="translate(150.920625 16.318125)scale(0.12 -0.12)">
     <use xlink:href="#BitstreamVeraSans-Roman-4e"/>
     <use x="74.8046875" xlink:href="#BitstreamVeraSans-Roman-41"/>
     <use x="143.212890625" xlink:href="#BitstreamVeraSans-Roman-4e"/>
     <use x="218.017578125" xlink:href="#BitstreamVeraSans-Roman-44"/>
     <use x="295.01953125" xlink:href="#BitstreamVeraSans-Roman-32"/>
    </g>
   </g>
   <g id="text_3">
    <!-- OR2 -->
    <defs>
     <path d="M 39.40625 66.21875 
Q 28.65625 66.21875 22.328125 58.203125 
Q 16.015625 50.203125 16.015625 36.375 
Q 16.015625 22.609375 22.328125 14.59375 
Q 28.65625 6.59375 39.40625 6.59375 
Q 50.140625 6.59375 56.421875 14.59375 
Q 62.703125 22.609375 62.703125 36.375 
Q 62.703125 50.203125 56.421875 58.203125 
Q 50.140625 66.21875 39.40625 66.21875 
M 39.40625 74.21875 
Q 54.734375 74.21875 63.90625 63.9375 
Q 73.09375 53.65625 73.09375 36.375 
Q 73.09375 19.140625 63.90625 8.859375 
Q 54.734375 -1.421875 39.40625 -1.421875 
Q 24.03125 -1.421875 14.8125 8.828125 
Q 5.609375 19.09375 5.609375 36.375 
Q 5.609375 53.65625 14.8125 63.9375 
Q 24.03125 74.21875 39.40625 74.21875 
" id="BitstreamVeraSans-Roman-4f"/>
     <path d="M 44.390625 34.1875 
Q 47.5625 33.109375 50.5625 29.59375 
Q 53.5625 26.078125 56.59375 19.921875 
L 66.609375 0 
L 56 0 
L 46.6875 18.703125 
Q 43.0625 26.03125 39.671875 28.421875 
Q 36.28125 30.8125 30.421875 30.8125 
L 19.671875 30.8125 
L 19.671875 0 
L 9.8125 0 
L 9.8125 72.90625 
L 32.078125 72.90625 
Q 44.578125 72.90625 50.734375 67.671875 
Q 56.890625 62.453125 56.890625 51.90625 
Q 56.890625 45.015625 53.6875 40.46875 
Q 50.484375 35.9375 44.390625 34.1875 
M 19.671875 64.796875 
L 19.671875 38.921875 
L 32.078125 38.921875 
Q 39.203125 38.921875 42.84375 42.21875 
Q 46.484375 45.515625 46.484375 51.90625 
Q 46.484375 58.296875 42.84375 61.546875 
Q 39.203125 64.796875 32.078125 64.796875 
z
" id="BitstreamVeraSans-Roman-52"/>
    </defs>
    <g transform="translate(287.7103125 16.318125)scale(0.12 -0.12)">
     <use xlink:href="#BitstreamVeraSans-Roman-4f"/>
     <use x="78.7109375" xlink:href="#BitstreamVeraSans-Roman-52"/>
     <use x="148.193359375" xlink:href="#BitstreamVeraSans-Roman-32"/>
    </g>
   </g>
   <g id="text_4">
    <!-- NOR2 -->
    <g transform="translate(412.8215625 16.318125)scale(0.12 -0.12)">
     <use xlink:href="#BitstreamVeraSans-Roman-4e"/>
     <use x="74.8046875" xlink:href="#BitstreamVeraSans-Roman-4f"/>
     <use x="153.515625" xlink:href="#BitstreamVeraSans-Roman-52"/>
     <use x="222.998046875" xlink:href="#BitstreamVeraSans-Roman-32"/>
    </g>
   </g>
   <g id="text_5">
    <!-- XOR2 -->
    <defs>
     <path d="M 6.296875 72.90625 
L 16.890625 72.90625 
L 35.015625 45.796875 
L 53.21875 72.90625 
L 63.8125 72.90625 
L 40.375 37.890625 
L 65.375 0 
L 54.78125 0 
L 34.28125 31 
L 13.625 0 
L 2.984375 0 
L 29 38.921875 
z
" id="BitstreamVeraSans-Roman-58"/>
    </defs>
    <g transform="translate(545.2359375 16.318125)scale(0.12 -0.12)">
     <use xlink:href="#BitstreamVeraSans-Roman-58"/>
     <use x="68.412109375" xlink:href="#BitstreamVeraSans-Roman-4f"/>
     <use x="147.123046875" xlink:href="#BitstreamVeraSans-Roman-52"/>
     <use x="216.60546875" xlink:href="#BitstreamVeraSans-Roman-32"/>
    </g>
   </g>
   <g id="text_6">
    <!-- XNOR2 -->
    <g transform="translate(670.3415625 16.318125)scale(0.12 -0.12)">
     <use xlink:href="#BitstreamVeraSans-Roman-58"/>
     <use x="68.505859375" xlink:href="#BitstreamVeraSans-Roman-4e"/>
     <use x="143.310546875" xlink:href="#BitstreamVeraSans-Roman-4f"/>
     <use x="222.021484375" xlink:href="#BitstreamVeraSans-Roman-52"/>
     <use x="291.50390625" xlink:href="#BitstreamVeraSans-Roman-32"/>
    </g>
   </g>
   <g id="text_7">
    <!-- AND3 -->
    <defs>
     <path d="M 40.578125 39.3125 
Q 47.65625 37.796875 51.625 33 
Q 55.609375 28.21875 55.609375 21.1875 
Q 55.609375 10.40625 48.1875 4.484375 
Q 40.765625 -1.421875 27.09375 -1.421875 
Q 22.515625 -1.421875 17.65625 -0.515625 
Q 12.796875 0.390625 7.625 2.203125 
L 7.625 11.71875 
Q 11.71875 9.328125 16.59375 8.109375 
Q 21.484375 6.890625 26.8125 6.890625 
Q 36.078125 6.890625 40.9375 10.546875 
Q 45.796875 14.203125 45.796875 21.1875 
Q 45.796875 27.640625 41.28125 31.265625 
Q 36.765625 34.90625 28.71875 34.90625 
L 20.21875 34.90625 
L 20.21875 43.015625 
L 29.109375 43.015625 
Q 36.375 43.015625 40.234375 45.921875 
Q 44.09375 48.828125 44.09375 54.296875 
Q 44.09375 59.90625 40.109375 62.90625 
Q 36.140625 65.921875 28.71875 65.921875 
Q 24.65625 65.921875 20.015625 65.03125 
Q 15.375 64.15625 9.8125 62.3125 
L 9.8125 71.09375 
Q 15.4375 72.65625 20.34375 73.4375 
Q 25.25 74.21875 29.59375 74.21875 
Q 40.828125 74.21875 47.359375 69.109375 
Q 53.90625 64.015625 53.90625 55.328125 
Q 53.90625 49.265625 50.4375 45.09375 
Q 46.96875 40.921875 40.578125 39.3125 
" id="BitstreamVeraSans-Roman-33"/>
    </defs>
    <g transform="translate(25.809375 92.818125)scale(0.12 -0.12)">
     <use xlink:href="#BitstreamVeraSans-Roman-41"/>
     <use x="68.408203125" xlink:href="#BitstreamVeraSans-Roman-4e"/>
     <use x="143.212890625" xlink:href="#BitstreamVeraSans-Roman-44"/>
     <use x="220.21484375" xlink:href="#BitstreamVeraSans-Roman-33"/>
    </g>
   </g>
   <g id="text_8">
    <!-- NAND3 -->
    <g transform="translate(150.920625 92.818125)scale(0.12 -0.12)">
     <use xlink:href="#BitstreamVeraSans-Roman-4e"/>
     <use x="74.8046875" xlink:href="#BitstreamVeraSans-Roman-41"/>
     <use x="143.212890625" xlink:href="#BitstreamVeraSans-Roman-4e"/>
     <use x="218.017578125" xlink:href="#BitstreamVeraSans-Roman-44"/>
     <use x="295.01953125" xlink:href="#BitstreamVeraSans-Roman-33"/>
    </g>
   </g>
   <g id="text_9">
    <!-- OR3 -->
    <g transform="translate(287.7103125 92.818125)scale(0.12 -0.12)">
     <use xlink:href="#BitstreamVeraSans-Roman-4f"/>
     <use x="78.7109375" xlink:href="#BitstreamVeraSans-Roman-52"/>
     <use x="148.193359375" xlink:href="#BitstreamVeraSans-Roman-33"/>
    </g>
   </g>
   <g id="text_10">
    <!-- NOR3 -->
    <g transform="translate(412.8215625 92.818125)scale(0.12 -0.12)">
     <use xlink:href="#BitstreamVeraSans-Roman-4e"/>
     <use x="74.8046875" xlink:href="#BitstreamVeraSans-Roman-4f"/>
     <use x="153.515625" xlink:href="#BitstreamVeraSans-Roman-52"/>
     <use x="222.998046875" xlink:href="#BitstreamVeraSans-Roman-33"/>
    </g>
   </g>
   <g id="text_11">
    <!-- XOR3 -->
    <g transform="translate(545.2359375 92.818125)scale(0.12 -0.12)">
     <use xlink:href="#BitstreamVeraSans-Roman-58"/>
     <use x="68.412109375" xlink:href="#BitstreamVeraSans-Roman-4f"/>
     <use x="147.123046875" xlink:href="#BitstreamVeraSans-Roman-52"/>
     <use x="216.60546875" xlink:href="#BitstreamVeraSans-Roman-33"/>
    </g>
   </g>
   <g id="text_12">
    <!-- XNOR3 -->
    <g transform="translate(670.3415625 92.818125)scale(0.12 -0.12)">
     <use xlink:href="#BitstreamVeraSans-Roman-58"/>
     <use x="68.505859375" xlink:href="#BitstreamVeraSans-Roman-4e"/>
     <use x="143.310546875" xlink:href="#BitstreamVeraSans-Roman-4f"/>
     <use x="222.021484375" xlink:href="#BitstreamVeraSans-Roman-52"/>
     <use x="291.50390625" xlink:href="#BitstreamVeraSans-Roman-33"/>
    </g>
   </g>
  </g>
 </g>
 <defs>
  <clipPath id="p42b9378db9">
   <rect height="113.22" width="720.9" x="7.2" y="24.93375"/>
  </clipPath>
 </defs>
</svg>
