<?xml version="1.0" encoding="utf-8" standalone="no"?>
<!DOCTYPE svg PUBLIC "-//W3C//DTD SVG 1.1//EN"
  "http://www.w3.org/Graphics/SVG/1.1/DTD/svg11.dtd">
<!-- Created with matplotlib (https://matplotlib.org/) -->
<svg height="134.867188pt" version="1.1" viewBox="0 0 806.742 134.867188" width="806.742pt" xmlns="http://www.w3.org/2000/svg" xmlns:xlink="http://www.w3.org/1999/xlink">
 <defs>
  <style type="text/css">
*{stroke-linecap:butt;stroke-linejoin:round;white-space:pre;}
  </style>
 </defs>
 <g id="figure_1">
  <g id="patch_1">
   <path d="M 0 134.867188 
L 806.742 134.867188 
L 806.742 0 
L 0 0 
z
" style="fill:none;"/>
  </g>
  <g id="axes_1">
   <g id="patch_2">
    <path clip-path="url(#p660144b050)" d="M 228.249 39.642687 
C 229.28011 39.642687 230.269127 39.289921 230.998231 38.662081 
C 231.727336 38.034241 232.137 37.182587 232.137 36.294687 
C 232.137 35.406788 231.727336 34.555134 230.998231 33.927294 
C 230.269127 33.299454 229.28011 32.946687 228.249 32.946687 
C 227.21789 32.946687 226.228873 33.299454 225.499769 33.927294 
C 224.770664 34.555134 224.361 35.406788 224.361 36.294687 
C 224.361 37.182587 224.770664 38.034241 225.499769 38.662081 
C 226.228873 39.289921 227.21789 39.642687 228.249 39.642687 
z
" style="fill:none;stroke:#000000;stroke-linejoin:miter;stroke-width:2;"/>
   </g>
   <g id="patch_3">
    <path clip-path="url(#p660144b050)" d="M 489.069 39.642687 
C 490.10011 39.642687 491.089127 39.289921 491.818231 38.662081 
C 492.547336 38.034241 492.957 37.182587 492.957 36.294687 
C 492.957 35.406788 492.547336 34.555134 491.818231 33.927294 
C 491.089127 33.299454 490.10011 32.946687 489.069 32.946687 
C 488.03789 32.946687 487.048873 33.299454 486.319769 33.927294 
C 485.590664 34.555134 485.181 35.406788 485.181 36.294687 
C 485.181 37.182587 485.590664 38.034241 486.319769 38.662081 
C 487.048873 39.289921 488.03789 39.642687 489.069 39.642687 
z
" style="fill:none;stroke:#000000;stroke-linejoin:miter;stroke-width:2;"/>
   </g>
   <g id="patch_4">
    <path clip-path="url(#p660144b050)" d="M 753.129 39.642687 
C 754.16011 39.642687 755.149127 39.289921 755.878231 38.662081 
C 756.607336 38.034241 757.017 37.182587 757.017 36.294687 
C 757.017 35.406788 756.607336 34.555134 755.878231 33.927294 
C 755.149127 33.299454 754.16011 32.946687 753.129 32.946687 
C 752.09789 32.946687 751.108873 33.299454 750.379769 33.927294 
C 749.650664 34.555134 749.241 35.406788 749.241 36.294687 
C 749.241 37.182587 749.650664 38.034241 750.379769 38.662081 
C 751.108873 39.289921 752.09789 39.642687 753.129 39.642687 
z
" style="fill:none;stroke:#000000;stroke-linejoin:miter;stroke-width:2;"/>
   </g>
   <g id="patch_5">
    <path clip-path="url(#p660144b050)" d="M 228.249 109.392687 
C 229.28011 109.392687 230.269127 109.039921 230.998231 108.412081 
C 231.727336 107.784241 232.137 106.932587 232.137 106.044687 
C 232.137 105.156788 231.727336 104.305134 230.998231 103.677294 
C 230.269127 103.049454 229.28011 102.696687 228.249 102.696687 
C 227.21789 102.696687 226.228873 103.049454 225.499769 103.677294 
C 224.770664 104.305134 224.361 105.156788 224.361 106.044687 
C 224.361 106.932587 224.770664 107.784241 225.499769 108.412081 
C 226.228873 109.039921 227.21789 109.392687 228.249 109.392687 
z
" style="fill:none;stroke:#000000;stroke-linejoin:miter;stroke-width:2;"/>
   </g>
   <g id="patch_6">
    <path clip-path="url(#p660144b050)" d="M 489.069 109.392687 
C 490.10011 109.392687 491.089127 109.039921 491.818231 108.412081 
C 492.547336 107.784241 492.957 106.932587 492.957 106.044687 
C 492.957 105.156788 492.547336 104.305134 491.818231 103.677294 
C 491.089127 103.049454 490.10011 102.696687 489.069 102.696687 
C 488.03789 102.696687 487.048873 103.049454 486.319769 103.677294 
C 485.590664 104.305134 485.181 105.156788 485.181 106.044687 
C 485.181 106.932587 485.590664 107.784241 486.319769 108.412081 
C 487.048873 109.039921 488.03789 109.392687 489.069 109.392687 
z
" style="fill:none;stroke:#000000;stroke-linejoin:miter;stroke-width:2;"/>
   </g>
   <g id="patch_7">
    <path clip-path="url(#p660144b050)" d="M 753.129 109.392687 
C 754.16011 109.392687 755.149127 109.039921 755.878231 108.412081 
C 756.607336 107.784241 757.017 106.932587 757.017 106.044687 
C 757.017 105.156788 756.607336 104.305134 755.878231 103.677294 
C 755.149127 103.049454 754.16011 102.696687 753.129 102.696687 
C 752.09789 102.696687 751.108873 103.049454 750.379769 103.677294 
C 749.650664 104.305134 749.241 105.156788 749.241 106.044687 
C 749.241 106.932587 749.650664 107.784241 750.379769 108.412081 
C 751.108873 109.039921 752.09789 109.392687 753.129 109.392687 
z
" style="fill:none;stroke:#000000;stroke-linejoin:miter;stroke-width:2;"/>
   </g>
   <g id="line2d_1">
    <path clip-path="url(#p660144b050)" d="M 78.561 50.244687 
L 79.598938 50.216026 
L 80.63261 50.130158 
L 81.65777 49.987438 
L 82.670204 49.788451 
L 83.665753 49.534015 
L 84.640325 49.225176 
L 85.589917 48.863203 
L 86.510624 48.449583 
L 87.398665 47.986017 
L 88.250391 47.474408 
L 89.0623 46.916859 
L 89.831057 46.315661 
L 90.553504 45.673285 
L 91.22667 44.99237 
L 91.847791 44.275715 
L 92.414313 43.526264 
L 92.923909 42.747097 
L 93.374484 41.941415 
L 93.764188 41.11253 
L 94.091419 40.263847 
L 94.354832 39.398855 
L 94.553345 38.521106 
L 94.686142 37.634209 
L 94.752677 36.741807 
L 94.752677 35.847568 
L 94.686142 34.955166 
L 94.553345 34.068269 
L 94.354832 33.19052 
L 94.091419 32.325528 
L 93.764188 31.476845 
L 93.374484 30.64796 
L 92.923909 29.842278 
L 92.414313 29.063111 
L 91.847791 28.31366 
L 91.22667 27.597005 
L 90.553504 26.91609 
L 89.831057 26.273714 
L 89.0623 25.672516 
L 88.250391 25.114967 
L 87.398665 24.603358 
L 86.510624 24.139792 
L 85.589917 23.726172 
L 84.640325 23.364199 
L 83.665753 23.05536 
L 82.670204 22.800924 
L 81.65777 22.601937 
L 80.63261 22.459217 
L 79.598938 22.373349 
L 78.561 22.344687 
L 57.501 22.344687 
L 57.501 36.294687 
L 57.501 50.244687 
L 78.561 50.244687 
" style="fill:none;stroke:#000000;stroke-linecap:round;stroke-width:2;"/>
   </g>
   <g id="line2d_2">
    <path clip-path="url(#p660144b050)" d="M 46.161 43.269687 
L 57.501 43.269687 
" style="fill:none;stroke:#000000;stroke-linecap:round;stroke-width:2;"/>
   </g>
   <g id="line2d_3">
    <path clip-path="url(#p660144b050)" d="M 46.161 29.319687 
L 57.501 29.319687 
" style="fill:none;stroke:#000000;stroke-linecap:round;stroke-width:2;"/>
   </g>
   <g id="line2d_4">
    <path clip-path="url(#p660144b050)" d="M 46.161 36.294687 
M 94.761 36.294687 
L 106.101 36.294687 
" style="fill:none;stroke:#000000;stroke-linecap:round;stroke-width:2;"/>
   </g>
   <g id="line2d_5">
    <path clip-path="url(#p660144b050)" d="M 208.161 50.244687 
L 209.198938 50.216026 
L 210.23261 50.130158 
L 211.25777 49.987438 
L 212.270204 49.788451 
L 213.265753 49.534015 
L 214.240325 49.225176 
L 215.189917 48.863203 
L 216.110624 48.449583 
L 216.998665 47.986017 
L 217.850391 47.474408 
L 218.6623 46.916859 
L 219.431057 46.315661 
L 220.153504 45.673285 
L 220.82667 44.99237 
L 221.447791 44.275715 
L 222.014313 43.526264 
L 222.523909 42.747097 
L 222.974484 41.941415 
L 223.364188 41.11253 
L 223.691419 40.263847 
L 223.954832 39.398855 
L 224.153345 38.521106 
L 224.286142 37.634209 
L 224.352677 36.741807 
L 224.352677 35.847568 
L 224.286142 34.955166 
L 224.153345 34.068269 
L 223.954832 33.19052 
L 223.691419 32.325528 
L 223.364188 31.476845 
L 222.974484 30.64796 
L 222.523909 29.842278 
L 222.014313 29.063111 
L 221.447791 28.31366 
L 220.82667 27.597005 
L 220.153504 26.91609 
L 219.431057 26.273714 
L 218.6623 25.672516 
L 217.850391 25.114967 
L 216.998665 24.603358 
L 216.110624 24.139792 
L 215.189917 23.726172 
L 214.240325 23.364199 
L 213.265753 23.05536 
L 212.270204 22.800924 
L 211.25777 22.601937 
L 210.23261 22.459217 
L 209.198938 22.373349 
L 208.161 22.344687 
L 187.101 22.344687 
L 187.101 36.294687 
L 187.101 50.244687 
L 208.161 50.244687 
" style="fill:none;stroke:#000000;stroke-linecap:round;stroke-width:2;"/>
   </g>
   <g id="line2d_6">
    <path clip-path="url(#p660144b050)" d="M 175.761 43.269687 
L 187.101 43.269687 
" style="fill:none;stroke:#000000;stroke-linecap:round;stroke-width:2;"/>
   </g>
   <g id="line2d_7">
    <path clip-path="url(#p660144b050)" d="M 175.761 29.319687 
L 187.101 29.319687 
" style="fill:none;stroke:#000000;stroke-linecap:round;stroke-width:2;"/>
   </g>
   <g id="line2d_8">
    <path clip-path="url(#p660144b050)" d="M 175.761 36.294687 
M 232.137 36.294687 
L 235.701 36.294687 
" style="fill:none;stroke:#000000;stroke-linecap:round;stroke-width:2;"/>
   </g>
   <g id="line2d_9">
    <path clip-path="url(#p660144b050)" d="M 316.701 49.965688 
L 334.752429 49.874585 
L 336.603857 49.601279 
L 338.455286 49.145769 
L 340.769571 48.320157 
L 343.083857 47.209851 
L 345.398143 45.814851 
L 347.712429 44.135157 
L 350.026714 42.170769 
L 352.341 39.921687 
L 354.655286 37.387912 
L 355.581 36.294687 
L 355.581 36.294687 
L 352.803857 33.151667 
L 350.489571 30.845647 
L 348.175286 28.82432 
L 345.861 27.087687 
L 343.546714 25.635749 
L 341.232429 24.468504 
L 338.918143 23.585953 
L 336.603857 22.988096 
L 334.752429 22.71479 
L 332.901 22.623687 
L 316.701 22.623687 
L 316.701 22.623687 
L 319.0338 24.855687 
L 320.51124 26.529687 
L 321.7554 28.203687 
L 322.76628 29.877687 
L 323.54388 31.551687 
L 324.0882 33.225687 
L 324.39924 34.899687 
L 324.477 36.573687 
L 324.32148 38.247687 
L 323.93268 39.921687 
L 323.3106 41.595687 
L 322.45524 43.269687 
L 321.3666 44.943687 
L 320.04468 46.617688 
L 318.48948 48.291687 
L 316.701 49.965688 
L 316.701 49.965688 
" style="fill:none;stroke:#000000;stroke-linecap:round;stroke-width:2;"/>
   </g>
   <g id="line2d_10">
    <path clip-path="url(#p660144b050)" d="M 305.361 43.269687 
L 322.45524 43.269687 
" style="fill:none;stroke:#000000;stroke-linecap:round;stroke-width:2;"/>
   </g>
   <g id="line2d_11">
    <path clip-path="url(#p660144b050)" d="M 305.361 29.319687 
L 322.45524 29.319687 
" style="fill:none;stroke:#000000;stroke-linecap:round;stroke-width:2;"/>
   </g>
   <g id="line2d_12">
    <path clip-path="url(#p660144b050)" d="M 305.361 36.294687 
M 355.581 36.294687 
L 366.921 36.294687 
" style="fill:none;stroke:#000000;stroke-linecap:round;stroke-width:2;"/>
   </g>
   <g id="line2d_13">
    <path clip-path="url(#p660144b050)" d="M 446.301 49.965688 
L 464.352429 49.874585 
L 466.203857 49.601279 
L 468.055286 49.145769 
L 470.369571 48.320157 
L 472.683857 47.209851 
L 474.998143 45.814851 
L 477.312429 44.135157 
L 479.626714 42.170769 
L 481.941 39.921687 
L 484.255286 37.387912 
L 485.181 36.294687 
L 485.181 36.294687 
L 482.403857 33.151667 
L 480.089571 30.845647 
L 477.775286 28.82432 
L 475.461 27.087687 
L 473.146714 25.635749 
L 470.832429 24.468504 
L 468.518143 23.585953 
L 466.203857 22.988096 
L 464.352429 22.71479 
L 462.501 22.623687 
L 446.301 22.623687 
L 446.301 22.623687 
L 448.6338 24.855687 
L 450.11124 26.529687 
L 451.3554 28.203687 
L 452.36628 29.877687 
L 453.14388 31.551687 
L 453.6882 33.225687 
L 453.99924 34.899687 
L 454.077 36.573687 
L 453.92148 38.247687 
L 453.53268 39.921687 
L 452.9106 41.595687 
L 452.05524 43.269687 
L 450.9666 44.943687 
L 449.64468 46.617688 
L 448.08948 48.291687 
L 446.301 49.965688 
L 446.301 49.965688 
" style="fill:none;stroke:#000000;stroke-linecap:round;stroke-width:2;"/>
   </g>
   <g id="line2d_14">
    <path clip-path="url(#p660144b050)" d="M 434.961 43.269687 
L 452.05524 43.269687 
" style="fill:none;stroke:#000000;stroke-linecap:round;stroke-width:2;"/>
   </g>
   <g id="line2d_15">
    <path clip-path="url(#p660144b050)" d="M 434.961 29.319687 
L 452.05524 29.319687 
" style="fill:none;stroke:#000000;stroke-linecap:round;stroke-width:2;"/>
   </g>
   <g id="line2d_16">
    <path clip-path="url(#p660144b050)" d="M 434.961 36.294687 
M 492.957 36.294687 
L 496.521 36.294687 
" style="fill:none;stroke:#000000;stroke-linecap:round;stroke-width:2;"/>
   </g>
   <g id="line2d_17">
    <path clip-path="url(#p660144b050)" d="M 580.761 49.965688 
L 598.812429 49.874585 
L 600.663857 49.601279 
L 602.515286 49.145769 
L 604.829571 48.320157 
L 607.143857 47.209851 
L 609.458143 45.814851 
L 611.772429 44.135157 
L 614.086714 42.170769 
L 616.401 39.921687 
L 618.715286 37.387912 
L 619.641 36.294687 
L 619.641 36.294687 
L 616.863857 33.151667 
L 614.549571 30.845647 
L 612.235286 28.82432 
L 609.921 27.087687 
L 607.606714 25.635749 
L 605.292429 24.468504 
L 602.978143 23.585953 
L 600.663857 22.988096 
L 598.812429 22.71479 
L 596.961 22.623687 
L 580.761 22.623687 
L 580.761 22.623687 
L 583.0938 24.855687 
L 584.57124 26.529687 
L 585.8154 28.203687 
L 586.82628 29.877687 
L 587.60388 31.551687 
L 588.1482 33.225687 
L 588.45924 34.899687 
L 588.537 36.573687 
L 588.38148 38.247687 
L 587.99268 39.921687 
L 587.3706 41.595687 
L 586.51524 43.269687 
L 585.4266 44.943687 
L 584.10468 46.617688 
L 582.54948 48.291687 
L 580.761 49.965688 
L 580.761 49.965688 
" style="fill:none;stroke:#000000;stroke-linecap:round;stroke-width:2;"/>
   </g>
   <g id="line2d_18">
    <path clip-path="url(#p660144b050)" d="M 575.901 49.965688 
L 576.52308 49.407687 
L 577.11924 48.849688 
L 577.68948 48.291687 
L 578.2338 47.733688 
L 578.7522 47.175687 
L 579.24468 46.617688 
L 579.71124 46.059687 
L 580.15188 45.501687 
L 580.5666 44.943687 
L 580.9554 44.385687 
L 581.31828 43.827687 
L 581.65524 43.269687 
L 581.96628 42.711687 
L 582.2514 42.153687 
L 582.5106 41.595687 
L 582.74388 41.037687 
L 582.95124 40.479687 
L 583.13268 39.921687 
L 583.2882 39.363687 
L 583.4178 38.805687 
L 583.52148 38.247687 
L 583.59924 37.689687 
L 583.65108 37.131687 
L 583.677 36.573687 
L 583.677 36.015687 
L 583.65108 35.457687 
L 583.59924 34.899687 
L 583.52148 34.341687 
L 583.4178 33.783687 
L 583.2882 33.225687 
L 583.13268 32.667687 
L 582.95124 32.109687 
L 582.74388 31.551687 
L 582.5106 30.993687 
L 582.2514 30.435687 
L 581.96628 29.877687 
L 581.65524 29.319687 
L 581.31828 28.761687 
L 580.9554 28.203687 
L 580.5666 27.645687 
L 580.15188 27.087687 
L 579.71124 26.529687 
L 579.24468 25.971687 
L 578.7522 25.413687 
L 578.2338 24.855687 
L 577.68948 24.297687 
L 577.11924 23.739687 
L 576.52308 23.181687 
L 575.901 22.623687 
" style="fill:none;stroke:#000000;stroke-linecap:round;stroke-width:2;"/>
   </g>
   <g id="line2d_19">
    <path clip-path="url(#p660144b050)" d="M 564.561 43.269687 
L 581.65524 43.269687 
" style="fill:none;stroke:#000000;stroke-linecap:round;stroke-width:2;"/>
   </g>
   <g id="line2d_20">
    <path clip-path="url(#p660144b050)" d="M 564.561 29.319687 
L 581.65524 29.319687 
" style="fill:none;stroke:#000000;stroke-linecap:round;stroke-width:2;"/>
   </g>
   <g id="line2d_21">
    <path clip-path="url(#p660144b050)" d="M 564.561 36.294687 
M 619.641 36.294687 
L 630.981 36.294687 
" style="fill:none;stroke:#000000;stroke-linecap:round;stroke-width:2;"/>
   </g>
   <g id="line2d_22">
    <path clip-path="url(#p660144b050)" d="M 710.361 49.965688 
L 728.412429 49.874585 
L 730.263857 49.601279 
L 732.115286 49.145769 
L 734.429571 48.320157 
L 736.743857 47.209851 
L 739.058143 45.814851 
L 741.372429 44.135157 
L 743.686714 42.170769 
L 746.001 39.921687 
L 748.315286 37.387912 
L 749.241 36.294687 
L 749.241 36.294687 
L 746.463857 33.151667 
L 744.149571 30.845647 
L 741.835286 28.82432 
L 739.521 27.087687 
L 737.206714 25.635749 
L 734.892429 24.468504 
L 732.578143 23.585953 
L 730.263857 22.988096 
L 728.412429 22.71479 
L 726.561 22.623687 
L 710.361 22.623687 
L 710.361 22.623687 
L 712.6938 24.855687 
L 714.17124 26.529687 
L 715.4154 28.203687 
L 716.42628 29.877687 
L 717.20388 31.551687 
L 717.7482 33.225687 
L 718.05924 34.899687 
L 718.137 36.573687 
L 717.98148 38.247687 
L 717.59268 39.921687 
L 716.9706 41.595687 
L 716.11524 43.269687 
L 715.0266 44.943687 
L 713.70468 46.617688 
L 712.14948 48.291687 
L 710.361 49.965688 
L 710.361 49.965688 
" style="fill:none;stroke:#000000;stroke-linecap:round;stroke-width:2;"/>
   </g>
   <g id="line2d_23">
    <path clip-path="url(#p660144b050)" d="M 705.501 49.965688 
L 706.12308 49.407687 
L 706.71924 48.849688 
L 707.28948 48.291687 
L 707.8338 47.733688 
L 708.3522 47.175687 
L 708.84468 46.617688 
L 709.31124 46.059687 
L 709.75188 45.501687 
L 710.1666 44.943687 
L 710.5554 44.385687 
L 710.91828 43.827687 
L 711.25524 43.269687 
L 711.56628 42.711687 
L 711.8514 42.153687 
L 712.1106 41.595687 
L 712.34388 41.037687 
L 712.55124 40.479687 
L 712.73268 39.921687 
L 712.8882 39.363687 
L 713.0178 38.805687 
L 713.12148 38.247687 
L 713.19924 37.689687 
L 713.25108 37.131687 
L 713.277 36.573687 
L 713.277 36.015687 
L 713.25108 35.457687 
L 713.19924 34.899687 
L 713.12148 34.341687 
L 713.0178 33.783687 
L 712.8882 33.225687 
L 712.73268 32.667687 
L 712.55124 32.109687 
L 712.34388 31.551687 
L 712.1106 30.993687 
L 711.8514 30.435687 
L 711.56628 29.877687 
L 711.25524 29.319687 
L 710.91828 28.761687 
L 710.5554 28.203687 
L 710.1666 27.645687 
L 709.75188 27.087687 
L 709.31124 26.529687 
L 708.84468 25.971687 
L 708.3522 25.413687 
L 707.8338 24.855687 
L 707.28948 24.297687 
L 706.71924 23.739687 
L 706.12308 23.181687 
L 705.501 22.623687 
" style="fill:none;stroke:#000000;stroke-linecap:round;stroke-width:2;"/>
   </g>
   <g id="line2d_24">
    <path clip-path="url(#p660144b050)" d="M 694.161 43.269687 
L 711.25524 43.269687 
" style="fill:none;stroke:#000000;stroke-linecap:round;stroke-width:2;"/>
   </g>
   <g id="line2d_25">
    <path clip-path="url(#p660144b050)" d="M 694.161 29.319687 
L 711.25524 29.319687 
" style="fill:none;stroke:#000000;stroke-linecap:round;stroke-width:2;"/>
   </g>
   <g id="line2d_26">
    <path clip-path="url(#p660144b050)" d="M 694.161 36.294687 
M 757.017 36.294687 
L 760.581 36.294687 
" style="fill:none;stroke:#000000;stroke-linecap:round;stroke-width:2;"/>
   </g>
   <g id="line2d_27">
    <path clip-path="url(#p660144b050)" d="M 78.561 119.994687 
L 79.598938 119.966026 
L 80.63261 119.880158 
L 81.65777 119.737438 
L 82.670204 119.538451 
L 83.665753 119.284015 
L 84.640325 118.975176 
L 85.589917 118.613203 
L 86.510624 118.199583 
L 87.398665 117.736017 
L 88.250391 117.224408 
L 89.0623 116.666859 
L 89.831057 116.065661 
L 90.553504 115.423285 
L 91.22667 114.74237 
L 91.847791 114.025715 
L 92.414313 113.276264 
L 92.923909 112.497097 
L 93.374484 111.691415 
L 93.764188 110.86253 
L 94.091419 110.013847 
L 94.354832 109.148855 
L 94.553345 108.271106 
L 94.686142 107.384209 
L 94.752677 106.491807 
L 94.752677 105.597568 
L 94.686142 104.705166 
L 94.553345 103.818269 
L 94.354832 102.94052 
L 94.091419 102.075528 
L 93.764188 101.226845 
L 93.374484 100.39796 
L 92.923909 99.592278 
L 92.414313 98.813111 
L 91.847791 98.06366 
L 91.22667 97.347005 
L 90.553504 96.66609 
L 89.831057 96.023714 
L 89.0623 95.422516 
L 88.250391 94.864967 
L 87.398665 94.353358 
L 86.510624 93.889792 
L 85.589917 93.476172 
L 84.640325 93.114199 
L 83.665753 92.80536 
L 82.670204 92.550924 
L 81.65777 92.351937 
L 80.63261 92.209217 
L 79.598938 92.123349 
L 78.561 92.094687 
L 57.501 92.094687 
L 57.501 106.044687 
L 57.501 119.994687 
L 78.561 119.994687 
" style="fill:none;stroke:#000000;stroke-linecap:round;stroke-width:2;"/>
   </g>
   <g id="line2d_28">
    <path clip-path="url(#p660144b050)" d="M 46.161 115.251688 
L 57.501 115.251688 
" style="fill:none;stroke:#000000;stroke-linecap:round;stroke-width:2;"/>
   </g>
   <g id="line2d_29">
    <path clip-path="url(#p660144b050)" d="M 46.161 106.044687 
L 57.501 106.044687 
" style="fill:none;stroke:#000000;stroke-linecap:round;stroke-width:2;"/>
   </g>
   <g id="line2d_30">
    <path clip-path="url(#p660144b050)" d="M 46.161 96.837687 
L 57.501 96.837687 
" style="fill:none;stroke:#000000;stroke-linecap:round;stroke-width:2;"/>
   </g>
   <g id="line2d_31">
    <path clip-path="url(#p660144b050)" d="M 46.161 106.044687 
M 94.761 106.044687 
L 106.101 106.044687 
" style="fill:none;stroke:#000000;stroke-linecap:round;stroke-width:2;"/>
   </g>
   <g id="line2d_32">
    <path clip-path="url(#p660144b050)" d="M 208.161 119.994687 
L 209.198938 119.966026 
L 210.23261 119.880158 
L 211.25777 119.737438 
L 212.270204 119.538451 
L 213.265753 119.284015 
L 214.240325 118.975176 
L 215.189917 118.613203 
L 216.110624 118.199583 
L 216.998665 117.736017 
L 217.850391 117.224408 
L 218.6623 116.666859 
L 219.431057 116.065661 
L 220.153504 115.423285 
L 220.82667 114.74237 
L 221.447791 114.025715 
L 222.014313 113.276264 
L 222.523909 112.497097 
L 222.974484 111.691415 
L 223.364188 110.86253 
L 223.691419 110.013847 
L 223.954832 109.148855 
L 224.153345 108.271106 
L 224.286142 107.384209 
L 224.352677 106.491807 
L 224.352677 105.597568 
L 224.286142 104.705166 
L 224.153345 103.818269 
L 223.954832 102.94052 
L 223.691419 102.075528 
L 223.364188 101.226845 
L 222.974484 100.39796 
L 222.523909 99.592278 
L 222.014313 98.813111 
L 221.447791 98.06366 
L 220.82667 97.347005 
L 220.153504 96.66609 
L 219.431057 96.023714 
L 218.6623 95.422516 
L 217.850391 94.864967 
L 216.998665 94.353358 
L 216.110624 93.889792 
L 215.189917 93.476172 
L 214.240325 93.114199 
L 213.265753 92.80536 
L 212.270204 92.550924 
L 211.25777 92.351937 
L 210.23261 92.209217 
L 209.198938 92.123349 
L 208.161 92.094687 
L 187.101 92.094687 
L 187.101 106.044687 
L 187.101 119.994687 
L 208.161 119.994687 
" style="fill:none;stroke:#000000;stroke-linecap:round;stroke-width:2;"/>
   </g>
   <g id="line2d_33">
    <path clip-path="url(#p660144b050)" d="M 175.761 115.251688 
L 187.101 115.251688 
" style="fill:none;stroke:#000000;stroke-linecap:round;stroke-width:2;"/>
   </g>
   <g id="line2d_34">
    <path clip-path="url(#p660144b050)" d="M 175.761 106.044687 
L 187.101 106.044687 
" style="fill:none;stroke:#000000;stroke-linecap:round;stroke-width:2;"/>
   </g>
   <g id="line2d_35">
    <path clip-path="url(#p660144b050)" d="M 175.761 96.837687 
L 187.101 96.837687 
" style="fill:none;stroke:#000000;stroke-linecap:round;stroke-width:2;"/>
   </g>
   <g id="line2d_36">
    <path clip-path="url(#p660144b050)" d="M 175.761 106.044687 
M 232.137 106.044687 
L 235.701 106.044687 
" style="fill:none;stroke:#000000;stroke-linecap:round;stroke-width:2;"/>
   </g>
   <g id="line2d_37">
    <path clip-path="url(#p660144b050)" d="M 316.701 119.715688 
L 334.752429 119.624585 
L 336.603857 119.351279 
L 338.455286 118.895769 
L 340.769571 118.070157 
L 343.083857 116.959851 
L 345.398143 115.564851 
L 347.712429 113.885157 
L 350.026714 111.920769 
L 352.341 109.671688 
L 354.655286 107.137912 
L 355.581 106.044687 
L 355.581 106.044687 
L 352.803857 102.901667 
L 350.489571 100.595647 
L 348.175286 98.57432 
L 345.861 96.837687 
L 343.546714 95.385749 
L 341.232429 94.218504 
L 338.918143 93.335953 
L 336.603857 92.738096 
L 334.752429 92.46479 
L 332.901 92.373687 
L 316.701 92.373687 
L 316.701 92.373687 
L 319.0338 94.605687 
L 320.51124 96.279687 
L 321.7554 97.953688 
L 322.76628 99.627688 
L 323.54388 101.301687 
L 324.0882 102.975688 
L 324.39924 104.649687 
L 324.477 106.323687 
L 324.32148 107.997687 
L 323.93268 109.671688 
L 323.3106 111.345687 
L 322.45524 113.019688 
L 321.3666 114.693687 
L 320.04468 116.367688 
L 318.48948 118.041688 
L 316.701 119.715688 
L 316.701 119.715688 
" style="fill:none;stroke:#000000;stroke-linecap:round;stroke-width:2;"/>
   </g>
   <g id="line2d_38">
    <path clip-path="url(#p660144b050)" d="M 305.361 115.251688 
L 320.95188 115.251688 
" style="fill:none;stroke:#000000;stroke-linecap:round;stroke-width:2;"/>
   </g>
   <g id="line2d_39">
    <path clip-path="url(#p660144b050)" d="M 305.361 106.044687 
L 324.48024 106.044687 
" style="fill:none;stroke:#000000;stroke-linecap:round;stroke-width:2;"/>
   </g>
   <g id="line2d_40">
    <path clip-path="url(#p660144b050)" d="M 305.361 96.837687 
L 320.95188 96.837687 
" style="fill:none;stroke:#000000;stroke-linecap:round;stroke-width:2;"/>
   </g>
   <g id="line2d_41">
    <path clip-path="url(#p660144b050)" d="M 305.361 106.044687 
M 355.581 106.044687 
L 366.921 106.044687 
" style="fill:none;stroke:#000000;stroke-linecap:round;stroke-width:2;"/>
   </g>
   <g id="line2d_42">
    <path clip-path="url(#p660144b050)" d="M 446.301 119.715688 
L 464.352429 119.624585 
L 466.203857 119.351279 
L 468.055286 118.895769 
L 470.369571 118.070157 
L 472.683857 116.959851 
L 474.998143 115.564851 
L 477.312429 113.885157 
L 479.626714 111.920769 
L 481.941 109.671688 
L 484.255286 107.137912 
L 485.181 106.044687 
L 485.181 106.044687 
L 482.403857 102.901667 
L 480.089571 100.595647 
L 477.775286 98.57432 
L 475.461 96.837687 
L 473.146714 95.385749 
L 470.832429 94.218504 
L 468.518143 93.335953 
L 466.203857 92.738096 
L 464.352429 92.46479 
L 462.501 92.373687 
L 446.301 92.373687 
L 446.301 92.373687 
L 448.6338 94.605687 
L 450.11124 96.279687 
L 451.3554 97.953688 
L 452.36628 99.627688 
L 453.14388 101.301687 
L 453.6882 102.975688 
L 453.99924 104.649687 
L 454.077 106.323687 
L 453.92148 107.997687 
L 453.53268 109.671688 
L 452.9106 111.345687 
L 452.05524 113.019688 
L 450.9666 114.693687 
L 449.64468 116.367688 
L 448.08948 118.041688 
L 446.301 119.715688 
L 446.301 119.715688 
" style="fill:none;stroke:#000000;stroke-linecap:round;stroke-width:2;"/>
   </g>
   <g id="line2d_43">
    <path clip-path="url(#p660144b050)" d="M 434.961 115.251688 
L 450.55188 115.251688 
" style="fill:none;stroke:#000000;stroke-linecap:round;stroke-width:2;"/>
   </g>
   <g id="line2d_44">
    <path clip-path="url(#p660144b050)" d="M 434.961 106.044687 
L 454.08024 106.044687 
" style="fill:none;stroke:#000000;stroke-linecap:round;stroke-width:2;"/>
   </g>
   <g id="line2d_45">
    <path clip-path="url(#p660144b050)" d="M 434.961 96.837687 
L 450.55188 96.837687 
" style="fill:none;stroke:#000000;stroke-linecap:round;stroke-width:2;"/>
   </g>
   <g id="line2d_46">
    <path clip-path="url(#p660144b050)" d="M 434.961 106.044687 
M 492.957 106.044687 
L 496.521 106.044687 
" style="fill:none;stroke:#000000;stroke-linecap:round;stroke-width:2;"/>
   </g>
   <g id="line2d_47">
    <path clip-path="url(#p660144b050)" d="M 580.761 119.715688 
L 598.812429 119.624585 
L 600.663857 119.351279 
L 602.515286 118.895769 
L 604.829571 118.070157 
L 607.143857 116.959851 
L 609.458143 115.564851 
L 611.772429 113.885157 
L 614.086714 111.920769 
L 616.401 109.671688 
L 618.715286 107.137912 
L 619.641 106.044687 
L 619.641 106.044687 
L 616.863857 102.901667 
L 614.549571 100.595647 
L 612.235286 98.57432 
L 609.921 96.837687 
L 607.606714 95.385749 
L 605.292429 94.218504 
L 602.978143 93.335953 
L 600.663857 92.738096 
L 598.812429 92.46479 
L 596.961 92.373687 
L 580.761 92.373687 
L 580.761 92.373687 
L 583.0938 94.605687 
L 584.57124 96.279687 
L 585.8154 97.953688 
L 586.82628 99.627688 
L 587.60388 101.301687 
L 588.1482 102.975688 
L 588.45924 104.649687 
L 588.537 106.323687 
L 588.38148 107.997687 
L 587.99268 109.671688 
L 587.3706 111.345687 
L 586.51524 113.019688 
L 585.4266 114.693687 
L 584.10468 116.367688 
L 582.54948 118.041688 
L 580.761 119.715688 
L 580.761 119.715688 
" style="fill:none;stroke:#000000;stroke-linecap:round;stroke-width:2;"/>
   </g>
   <g id="line2d_48">
    <path clip-path="url(#p660144b050)" d="M 575.901 119.715688 
L 576.52308 119.157688 
L 577.11924 118.599688 
L 577.68948 118.041688 
L 578.2338 117.483688 
L 578.7522 116.925688 
L 579.24468 116.367688 
L 579.71124 115.809688 
L 580.15188 115.251688 
L 580.5666 114.693687 
L 580.9554 114.135688 
L 581.31828 113.577687 
L 581.65524 113.019688 
L 581.96628 112.461687 
L 582.2514 111.903688 
L 582.5106 111.345687 
L 582.74388 110.787688 
L 582.95124 110.229687 
L 583.13268 109.671688 
L 583.2882 109.113687 
L 583.4178 108.555687 
L 583.52148 107.997687 
L 583.59924 107.439687 
L 583.65108 106.881688 
L 583.677 106.323687 
L 583.677 105.765688 
L 583.65108 105.207687 
L 583.59924 104.649687 
L 583.52148 104.091688 
L 583.4178 103.533687 
L 583.2882 102.975688 
L 583.13268 102.417687 
L 582.95124 101.859688 
L 582.74388 101.301687 
L 582.5106 100.743688 
L 582.2514 100.185688 
L 581.96628 99.627688 
L 581.65524 99.069688 
L 581.31828 98.511687 
L 580.9554 97.953688 
L 580.5666 97.395688 
L 580.15188 96.837687 
L 579.71124 96.279687 
L 579.24468 95.721688 
L 578.7522 95.163687 
L 578.2338 94.605687 
L 577.68948 94.047687 
L 577.11924 93.489688 
L 576.52308 92.931687 
L 575.901 92.373687 
" style="fill:none;stroke:#000000;stroke-linecap:round;stroke-width:2;"/>
   </g>
   <g id="line2d_49">
    <path clip-path="url(#p660144b050)" d="M 564.561 115.251688 
L 580.15188 115.251688 
" style="fill:none;stroke:#000000;stroke-linecap:round;stroke-width:2;"/>
   </g>
   <g id="line2d_50">
    <path clip-path="url(#p660144b050)" d="M 564.561 106.044687 
L 583.68024 106.044687 
" style="fill:none;stroke:#000000;stroke-linecap:round;stroke-width:2;"/>
   </g>
   <g id="line2d_51">
    <path clip-path="url(#p660144b050)" d="M 564.561 96.837687 
L 580.15188 96.837687 
" style="fill:none;stroke:#000000;stroke-linecap:round;stroke-width:2;"/>
   </g>
   <g id="line2d_52">
    <path clip-path="url(#p660144b050)" d="M 564.561 106.044687 
M 619.641 106.044687 
L 630.981 106.044687 
" style="fill:none;stroke:#000000;stroke-linecap:round;stroke-width:2;"/>
   </g>
   <g id="line2d_53">
    <path clip-path="url(#p660144b050)" d="M 710.361 119.715688 
L 728.412429 119.624585 
L 730.263857 119.351279 
L 732.115286 118.895769 
L 734.429571 118.070157 
L 736.743857 116.959851 
L 739.058143 115.564851 
L 741.372429 113.885157 
L 743.686714 111.920769 
L 746.001 109.671688 
L 748.315286 107.137912 
L 749.241 106.044687 
L 749.241 106.044687 
L 746.463857 102.901667 
L 744.149571 100.595647 
L 741.835286 98.57432 
L 739.521 96.837687 
L 737.206714 95.385749 
L 734.892429 94.218504 
L 732.578143 93.335953 
L 730.263857 92.738096 
L 728.412429 92.46479 
L 726.561 92.373687 
L 710.361 92.373687 
L 710.361 92.373687 
L 712.6938 94.605687 
L 714.17124 96.279687 
L 715.4154 97.953688 
L 716.42628 99.627688 
L 717.20388 101.301687 
L 717.7482 102.975688 
L 718.05924 104.649687 
L 718.137 106.323687 
L 717.98148 107.997687 
L 717.59268 109.671688 
L 716.9706 111.345687 
L 716.11524 113.019688 
L 715.0266 114.693687 
L 713.70468 116.367688 
L 712.14948 118.041688 
L 710.361 119.715688 
L 710.361 119.715688 
" style="fill:none;stroke:#000000;stroke-linecap:round;stroke-width:2;"/>
   </g>
   <g id="line2d_54">
    <path clip-path="url(#p660144b050)" d="M 705.501 119.715688 
L 706.12308 119.157688 
L 706.71924 118.599688 
L 707.28948 118.041688 
L 707.8338 117.483688 
L 708.3522 116.925688 
L 708.84468 116.367688 
L 709.31124 115.809688 
L 709.75188 115.251688 
L 710.1666 114.693687 
L 710.5554 114.135688 
L 710.91828 113.577687 
L 711.25524 113.019688 
L 711.56628 112.461687 
L 711.8514 111.903688 
L 712.1106 111.345687 
L 712.34388 110.787688 
L 712.55124 110.229687 
L 712.73268 109.671688 
L 712.8882 109.113687 
L 713.0178 108.555687 
L 713.12148 107.997687 
L 713.19924 107.439687 
L 713.25108 106.881688 
L 713.277 106.323687 
L 713.277 105.765688 
L 713.25108 105.207687 
L 713.19924 104.649687 
L 713.12148 104.091688 
L 713.0178 103.533687 
L 712.8882 102.975688 
L 712.73268 102.417687 
L 712.55124 101.859688 
L 712.34388 101.301687 
L 712.1106 100.743688 
L 711.8514 100.185688 
L 711.56628 99.627688 
L 711.25524 99.069688 
L 710.91828 98.511687 
L 710.5554 97.953688 
L 710.1666 97.395688 
L 709.75188 96.837687 
L 709.31124 96.279687 
L 708.84468 95.721688 
L 708.3522 95.163687 
L 707.8338 94.605687 
L 707.28948 94.047687 
L 706.71924 93.489688 
L 706.12308 92.931687 
L 705.501 92.373687 
" style="fill:none;stroke:#000000;stroke-linecap:round;stroke-width:2;"/>
   </g>
   <g id="line2d_55">
    <path clip-path="url(#p660144b050)" d="M 694.161 115.251688 
L 709.75188 115.251688 
" style="fill:none;stroke:#000000;stroke-linecap:round;stroke-width:2;"/>
   </g>
   <g id="line2d_56">
    <path clip-path="url(#p660144b050)" d="M 694.161 106.044687 
L 713.28024 106.044687 
" style="fill:none;stroke:#000000;stroke-linecap:round;stroke-width:2;"/>
   </g>
   <g id="line2d_57">
    <path clip-path="url(#p660144b050)" d="M 694.161 96.837687 
L 709.75188 96.837687 
" style="fill:none;stroke:#000000;stroke-linecap:round;stroke-width:2;"/>
   </g>
   <g id="line2d_58">
    <path clip-path="url(#p660144b050)" d="M 694.161 106.044687 
M 757.017 106.044687 
L 760.581 106.044687 
" style="fill:none;stroke:#000000;stroke-linecap:round;stroke-width:2;"/>
   </g>
   <g id="text_1">
    <!-- AND2 -->
    <defs>
     <path d="M 34.1875 63.1875 
L 20.796875 26.90625 
L 47.609375 26.90625 
z
M 28.609375 72.90625 
L 39.796875 72.90625 
L 67.578125 0 
L 57.328125 0 
L 50.6875 18.703125 
L 17.828125 18.703125 
L 11.1875 0 
L 0.78125 0 
z
" id="DejaVuSans-65"/>
     <path d="M 9.8125 72.90625 
L 23.09375 72.90625 
L 55.421875 11.921875 
L 55.421875 72.90625 
L 64.984375 72.90625 
L 64.984375 0 
L 51.703125 0 
L 19.390625 60.984375 
L 19.390625 0 
L 9.8125 0 
z
" id="DejaVuSans-78"/>
     <path d="M 19.671875 64.796875 
L 19.671875 8.109375 
L 31.59375 8.109375 
Q 46.6875 8.109375 53.6875 14.9375 
Q 60.6875 21.78125 60.6875 36.53125 
Q 60.6875 51.171875 53.6875 57.984375 
Q 46.6875 64.796875 31.59375 64.796875 
z
M 9.8125 72.90625 
L 30.078125 72.90625 
Q 51.265625 72.90625 61.171875 64.09375 
Q 71.09375 55.28125 71.09375 36.53125 
Q 71.09375 17.671875 61.125 8.828125 
Q 51.171875 0 30.078125 0 
L 9.8125 0 
z
" id="DejaVuSans-68"/>
     <path d="M 19.1875 8.296875 
L 53.609375 8.296875 
L 53.609375 0 
L 7.328125 0 
L 7.328125 8.296875 
Q 12.9375 14.109375 22.625 23.890625 
Q 32.328125 33.6875 34.8125 36.53125 
Q 39.546875 41.84375 41.421875 45.53125 
Q 43.3125 49.21875 43.3125 52.78125 
Q 43.3125 58.59375 39.234375 62.25 
Q 35.15625 65.921875 28.609375 65.921875 
Q 23.96875 65.921875 18.8125 64.3125 
Q 13.671875 62.703125 7.8125 59.421875 
L 7.8125 69.390625 
Q 13.765625 71.78125 18.9375 73 
Q 24.125 74.21875 28.421875 74.21875 
Q 39.75 74.21875 46.484375 68.546875 
Q 53.21875 62.890625 53.21875 53.421875 
Q 53.21875 48.921875 51.53125 44.890625 
Q 49.859375 40.875 45.40625 35.40625 
Q 44.1875 33.984375 37.640625 27.21875 
Q 31.109375 20.453125 19.1875 8.296875 
z
" id="DejaVuSans-50"/>
    </defs>
    <g transform="translate(56.261938 17.837812)scale(0.14 -0.14)">
     <use xlink:href="#DejaVuSans-65"/>
     <use x="68.408203" xlink:href="#DejaVuSans-78"/>
     <use x="143.212891" xlink:href="#DejaVuSans-68"/>
     <use x="220.214844" xlink:href="#DejaVuSans-50"/>
    </g>
   </g>
   <g id="text_2">
    <!-- NAND2 -->
    <g transform="translate(180.625062 17.837812)scale(0.14 -0.14)">
     <use xlink:href="#DejaVuSans-78"/>
     <use x="74.804688" xlink:href="#DejaVuSans-65"/>
     <use x="143.212891" xlink:href="#DejaVuSans-78"/>
     <use x="218.017578" xlink:href="#DejaVuSans-68"/>
     <use x="295.019531" xlink:href="#DejaVuSans-50"/>
    </g>
   </g>
   <g id="text_3">
    <!-- OR2 -->
    <defs>
     <path d="M 39.40625 66.21875 
Q 28.65625 66.21875 22.328125 58.203125 
Q 16.015625 50.203125 16.015625 36.375 
Q 16.015625 22.609375 22.328125 14.59375 
Q 28.65625 6.59375 39.40625 6.59375 
Q 50.140625 6.59375 56.421875 14.59375 
Q 62.703125 22.609375 62.703125 36.375 
Q 62.703125 50.203125 56.421875 58.203125 
Q 50.140625 66.21875 39.40625 66.21875 
z
M 39.40625 74.21875 
Q 54.734375 74.21875 63.90625 63.9375 
Q 73.09375 53.65625 73.09375 36.375 
Q 73.09375 19.140625 63.90625 8.859375 
Q 54.734375 -1.421875 39.40625 -1.421875 
Q 24.03125 -1.421875 14.8125 8.828125 
Q 5.609375 19.09375 5.609375 36.375 
Q 5.609375 53.65625 14.8125 63.9375 
Q 24.03125 74.21875 39.40625 74.21875 
z
" id="DejaVuSans-79"/>
     <path d="M 44.390625 34.1875 
Q 47.5625 33.109375 50.5625 29.59375 
Q 53.5625 26.078125 56.59375 19.921875 
L 66.609375 0 
L 56 0 
L 46.6875 18.703125 
Q 43.0625 26.03125 39.671875 28.421875 
Q 36.28125 30.8125 30.421875 30.8125 
L 19.671875 30.8125 
L 19.671875 0 
L 9.8125 0 
L 9.8125 72.90625 
L 32.078125 72.90625 
Q 44.578125 72.90625 50.734375 67.671875 
Q 56.890625 62.453125 56.890625 51.90625 
Q 56.890625 45.015625 53.6875 40.46875 
Q 50.484375 35.9375 44.390625 34.1875 
z
M 19.671875 64.796875 
L 19.671875 38.921875 
L 32.078125 38.921875 
Q 39.203125 38.921875 42.84375 42.21875 
Q 46.484375 45.515625 46.484375 51.90625 
Q 46.484375 58.296875 42.84375 61.546875 
Q 39.203125 64.796875 32.078125 64.796875 
z
" id="DejaVuSans-82"/>
    </defs>
    <g transform="translate(321.313031 17.837812)scale(0.14 -0.14)">
     <use xlink:href="#DejaVuSans-79"/>
     <use x="78.710938" xlink:href="#DejaVuSans-82"/>
     <use x="148.193359" xlink:href="#DejaVuSans-50"/>
    </g>
   </g>
   <g id="text_4">
    <!-- NOR2 -->
    <g transform="translate(445.676156 17.837812)scale(0.14 -0.14)">
     <use xlink:href="#DejaVuSans-78"/>
     <use x="74.804688" xlink:href="#DejaVuSans-79"/>
     <use x="153.515625" xlink:href="#DejaVuSans-82"/>
     <use x="222.998047" xlink:href="#DejaVuSans-50"/>
    </g>
   </g>
   <g id="text_5">
    <!-- XOR2 -->
    <defs>
     <path d="M 6.296875 72.90625 
L 16.890625 72.90625 
L 35.015625 45.796875 
L 53.21875 72.90625 
L 63.8125 72.90625 
L 40.375 37.890625 
L 65.375 0 
L 54.78125 0 
L 34.28125 31 
L 13.625 0 
L 2.984375 0 
L 29 38.921875 
z
" id="DejaVuSans-88"/>
    </defs>
    <g transform="translate(578.154594 17.837812)scale(0.14 -0.14)">
     <use xlink:href="#DejaVuSans-88"/>
     <use x="68.412109" xlink:href="#DejaVuSans-79"/>
     <use x="147.123047" xlink:href="#DejaVuSans-82"/>
     <use x="216.605469" xlink:href="#DejaVuSans-50"/>
    </g>
   </g>
   <g id="text_6">
    <!-- XNOR2 -->
    <g transform="translate(702.511156 17.837812)scale(0.14 -0.14)">
     <use xlink:href="#DejaVuSans-88"/>
     <use x="68.505859" xlink:href="#DejaVuSans-78"/>
     <use x="143.310547" xlink:href="#DejaVuSans-79"/>
     <use x="222.021484" xlink:href="#DejaVuSans-82"/>
     <use x="291.503906" xlink:href="#DejaVuSans-50"/>
    </g>
   </g>
   <g id="text_7">
    <!-- AND3 -->
    <defs>
     <path d="M 40.578125 39.3125 
Q 47.65625 37.796875 51.625 33 
Q 55.609375 28.21875 55.609375 21.1875 
Q 55.609375 10.40625 48.1875 4.484375 
Q 40.765625 -1.421875 27.09375 -1.421875 
Q 22.515625 -1.421875 17.65625 -0.515625 
Q 12.796875 0.390625 7.625 2.203125 
L 7.625 11.71875 
Q 11.71875 9.328125 16.59375 8.109375 
Q 21.484375 6.890625 26.8125 6.890625 
Q 36.078125 6.890625 40.9375 10.546875 
Q 45.796875 14.203125 45.796875 21.1875 
Q 45.796875 27.640625 41.28125 31.265625 
Q 36.765625 34.90625 28.71875 34.90625 
L 20.21875 34.90625 
L 20.21875 43.015625 
L 29.109375 43.015625 
Q 36.375 43.015625 40.234375 45.921875 
Q 44.09375 48.828125 44.09375 54.296875 
Q 44.09375 59.90625 40.109375 62.90625 
Q 36.140625 65.921875 28.71875 65.921875 
Q 24.65625 65.921875 20.015625 65.03125 
Q 15.375 64.15625 9.8125 62.3125 
L 9.8125 71.09375 
Q 15.4375 72.65625 20.34375 73.4375 
Q 25.25 74.21875 29.59375 74.21875 
Q 40.828125 74.21875 47.359375 69.109375 
Q 53.90625 64.015625 53.90625 55.328125 
Q 53.90625 49.265625 50.4375 45.09375 
Q 46.96875 40.921875 40.578125 39.3125 
z
" id="DejaVuSans-51"/>
    </defs>
    <g transform="translate(56.261938 87.587812)scale(0.14 -0.14)">
     <use xlink:href="#DejaVuSans-65"/>
     <use x="68.408203" xlink:href="#DejaVuSans-78"/>
     <use x="143.212891" xlink:href="#DejaVuSans-68"/>
     <use x="220.214844" xlink:href="#DejaVuSans-51"/>
    </g>
   </g>
   <g id="text_8">
    <!-- NAND3 -->
    <g transform="translate(180.625062 87.587812)scale(0.14 -0.14)">
     <use xlink:href="#DejaVuSans-78"/>
     <use x="74.804688" xlink:href="#DejaVuSans-65"/>
     <use x="143.212891" xlink:href="#DejaVuSans-78"/>
     <use x="218.017578" xlink:href="#DejaVuSans-68"/>
     <use x="295.019531" xlink:href="#DejaVuSans-51"/>
    </g>
   </g>
   <g id="text_9">
    <!-- OR3 -->
    <g transform="translate(321.313031 87.587812)scale(0.14 -0.14)">
     <use xlink:href="#DejaVuSans-79"/>
     <use x="78.710938" xlink:href="#DejaVuSans-82"/>
     <use x="148.193359" xlink:href="#DejaVuSans-51"/>
    </g>
   </g>
   <g id="text_10">
    <!-- NOR3 -->
    <g transform="translate(445.676156 87.587812)scale(0.14 -0.14)">
     <use xlink:href="#DejaVuSans-78"/>
     <use x="74.804688" xlink:href="#DejaVuSans-79"/>
     <use x="153.515625" xlink:href="#DejaVuSans-82"/>
     <use x="222.998047" xlink:href="#DejaVuSans-51"/>
    </g>
   </g>
   <g id="text_11">
    <!-- XOR3 -->
    <g transform="translate(578.154594 87.587812)scale(0.14 -0.14)">
     <use xlink:href="#DejaVuSans-88"/>
     <use x="68.412109" xlink:href="#DejaVuSans-79"/>
     <use x="147.123047" xlink:href="#DejaVuSans-82"/>
     <use x="216.605469" xlink:href="#DejaVuSans-51"/>
    </g>
   </g>
   <g id="text_12">
    <!-- XNOR3 -->
    <g transform="translate(702.511156 87.587812)scale(0.14 -0.14)">
     <use xlink:href="#DejaVuSans-88"/>
     <use x="68.505859" xlink:href="#DejaVuSans-78"/>
     <use x="143.310547" xlink:href="#DejaVuSans-79"/>
     <use x="222.021484" xlink:href="#DejaVuSans-82"/>
     <use x="291.503906" xlink:href="#DejaVuSans-51"/>
    </g>
   </g>
  </g>
 </g>
 <defs>
  <clipPath id="p660144b050">
   <rect height="112.995" width="792.342" x="7.2" y="14.672187"/>
  </clipPath>
 </defs>
</svg>
