<?xml version="1.0" encoding="utf-8" standalone="no"?>
<!DOCTYPE svg PUBLIC "-//W3C//DTD SVG 1.1//EN"
  "http://www.w3.org/Graphics/SVG/1.1/DTD/svg11.dtd">
<!-- Created with matplotlib (http://matplotlib.org/) -->
<svg height="143.20625pt" version="1.1" viewBox="0 0 813.742 143.20625" width="813.742pt" xmlns="http://www.w3.org/2000/svg" xmlns:xlink="http://www.w3.org/1999/xlink">
 <defs>
  <style type="text/css">
*{stroke-linecap:butt;stroke-linejoin:round;}
  </style>
 </defs>
 <g id="figure_1">
  <g id="patch_1">
   <path d="M 0 143.20625 
L 813.742 143.20625 
L 813.742 0 
L 0 0 
z
" style="fill:none;"/>
  </g>
  <g id="axes_1">
   <g id="patch_2">
    <path clip-path="url(#p5847e5de17)" d="M 82.061 55.08375 
C 86.355859 55.08375 90.479206 53.613019 93.51613 50.99789 
C 96.553054 48.38276 98.261 44.832101 98.261 41.13375 
C 98.261 37.435399 96.553054 33.88474 93.51613 31.26961 
C 90.479206 28.654481 86.355859 27.18375 82.061 27.18375 
" style="fill:none;stroke:#000000;stroke-linejoin:miter;stroke-width:1.5;"/>
   </g>
   <g id="patch_3">
    <path clip-path="url(#p5847e5de17)" d="M 211.661 55.08375 
C 215.955859 55.08375 220.079206 53.613019 223.11613 50.99789 
C 226.153054 48.38276 227.861 44.832101 227.861 41.13375 
C 227.861 37.435399 226.153054 33.88474 223.11613 31.26961 
C 220.079206 28.654481 215.955859 27.18375 211.661 27.18375 
" style="fill:none;stroke:#000000;stroke-linejoin:miter;stroke-width:1.5;"/>
   </g>
   <g id="patch_4">
    <path clip-path="url(#p5847e5de17)" d="M 82.061 124.83375 
C 86.355859 124.83375 90.479206 123.363019 93.51613 120.74789 
C 96.553054 118.13276 98.261 114.582101 98.261 110.88375 
C 98.261 107.185399 96.553054 103.63474 93.51613 101.01961 
C 90.479206 98.404481 86.355859 96.93375 82.061 96.93375 
" style="fill:none;stroke:#000000;stroke-linejoin:miter;stroke-width:1.5;"/>
   </g>
   <g id="patch_5">
    <path clip-path="url(#p5847e5de17)" d="M 211.661 124.83375 
C 215.955859 124.83375 220.079206 123.363019 223.11613 120.74789 
C 226.153054 118.13276 227.861 114.582101 227.861 110.88375 
C 227.861 107.185399 226.153054 103.63474 223.11613 101.01961 
C 220.079206 98.404481 215.955859 96.93375 211.661 96.93375 
" style="fill:none;stroke:#000000;stroke-linejoin:miter;stroke-width:1.5;"/>
   </g>
   <g id="line2d_1">
    <path clip-path="url(#p5847e5de17)" d="M 49.661 41.13375 
M 98.261 41.13375 
L 109.601 41.13375 
" style="fill:none;stroke:#000000;stroke-linecap:round;stroke-width:1.5;"/>
   </g>
   <g id="line2d_2">
    <path clip-path="url(#p5847e5de17)" d="M 61.001 41.13375 
L 61.001 55.08375 
L 82.061 55.08375 
" style="fill:none;stroke:#000000;stroke-linecap:round;stroke-width:1.5;"/>
   </g>
   <g id="line2d_3">
    <path clip-path="url(#p5847e5de17)" d="M 61.001 41.13375 
L 61.001 27.18375 
L 82.061 27.18375 
" style="fill:none;stroke:#000000;stroke-linecap:round;stroke-width:1.5;"/>
   </g>
   <g id="line2d_4">
    <path clip-path="url(#p5847e5de17)" d="M 49.661 48.10875 
L 61.001 48.10875 
" style="fill:none;stroke:#000000;stroke-linecap:round;stroke-width:1.5;"/>
   </g>
   <g id="line2d_5">
    <path clip-path="url(#p5847e5de17)" d="M 49.661 34.15875 
L 61.001 34.15875 
" style="fill:none;stroke:#000000;stroke-linecap:round;stroke-width:1.5;"/>
   </g>
   <g id="line2d_6">
    <path clip-path="url(#p5847e5de17)" d="M 179.261 41.13375 
M 235.637 41.13375 
L 239.201 41.13375 
" style="fill:none;stroke:#000000;stroke-linecap:round;stroke-width:1.5;"/>
   </g>
   <g id="line2d_7">
    <path clip-path="url(#p5847e5de17)" d="M 190.601 41.13375 
L 190.601 55.08375 
L 211.661 55.08375 
" style="fill:none;stroke:#000000;stroke-linecap:round;stroke-width:1.5;"/>
   </g>
   <g id="line2d_8">
    <path clip-path="url(#p5847e5de17)" d="M 190.601 41.13375 
L 190.601 27.18375 
L 211.661 27.18375 
" style="fill:none;stroke:#000000;stroke-linecap:round;stroke-width:1.5;"/>
   </g>
   <g id="line2d_9">
    <path clip-path="url(#p5847e5de17)" d="M 179.261 48.10875 
L 190.601 48.10875 
" style="fill:none;stroke:#000000;stroke-linecap:round;stroke-width:1.5;"/>
   </g>
   <g id="line2d_10">
    <path clip-path="url(#p5847e5de17)" d="M 179.261 34.15875 
L 190.601 34.15875 
" style="fill:none;stroke:#000000;stroke-linecap:round;stroke-width:1.5;"/>
   </g>
   <g id="line2d_11">
    <path clip-path="url(#p5847e5de17)" d="M 308.861 41.13375 
M 359.081 41.13375 
L 370.421 41.13375 
" style="fill:none;stroke:#000000;stroke-linecap:round;stroke-width:1.5;"/>
   </g>
   <g id="line2d_12">
    <path clip-path="url(#p5847e5de17)" d="M 320.201 54.80475 
L 336.401 54.80475 
L 336.863857 54.799056 
L 337.326714 54.781974 
L 337.789571 54.753505 
L 338.252429 54.713648 
L 338.715286 54.662403 
L 339.178143 54.59977 
L 339.641 54.52575 
L 340.103857 54.440342 
L 340.566714 54.343546 
L 341.029571 54.235362 
L 341.492429 54.115791 
L 341.955286 53.984832 
L 342.418143 53.842485 
L 342.881 53.68875 
L 343.343857 53.523628 
L 343.806714 53.347117 
L 344.269571 53.159219 
L 344.732429 52.959934 
L 345.195286 52.74926 
L 345.658143 52.527199 
L 346.121 52.29375 
L 346.583857 52.048913 
L 347.046714 51.792689 
L 347.509571 51.525077 
L 347.972429 51.246077 
L 348.435286 50.955689 
L 348.898143 50.653913 
L 349.361 50.34075 
L 349.823857 50.016199 
L 350.286714 49.68026 
L 350.749571 49.332934 
L 351.212429 48.974219 
L 351.675286 48.604117 
L 352.138143 48.222628 
L 352.601 47.82975 
L 353.063857 47.425485 
L 353.526714 47.009832 
L 353.989571 46.582791 
L 354.452429 46.144362 
L 354.915286 45.694546 
L 355.378143 45.233342 
L 355.841 44.76075 
L 356.303857 44.27677 
L 356.766714 43.781403 
L 357.229571 43.274648 
L 357.692429 42.756505 
L 358.155286 42.226974 
L 358.618143 41.686056 
L 359.081 41.13375 
" style="fill:none;stroke:#000000;stroke-linecap:round;stroke-width:1.5;"/>
   </g>
   <g id="line2d_13">
    <path clip-path="url(#p5847e5de17)" d="M 320.201 27.46275 
L 336.401 27.46275 
L 336.863857 27.468444 
L 337.326714 27.485526 
L 337.789571 27.513995 
L 338.252429 27.553852 
L 338.715286 27.605097 
L 339.178143 27.66773 
L 339.641 27.74175 
L 340.103857 27.827158 
L 340.566714 27.923954 
L 341.029571 28.032138 
L 341.492429 28.151709 
L 341.955286 28.282668 
L 342.418143 28.425015 
L 342.881 28.57875 
L 343.343857 28.743872 
L 343.806714 28.920383 
L 344.269571 29.108281 
L 344.732429 29.307566 
L 345.195286 29.51824 
L 345.658143 29.740301 
L 346.121 29.97375 
L 346.583857 30.218587 
L 347.046714 30.474811 
L 347.509571 30.742423 
L 347.972429 31.021423 
L 348.435286 31.311811 
L 348.898143 31.613587 
L 349.361 31.92675 
L 349.823857 32.251301 
L 350.286714 32.58724 
L 350.749571 32.934566 
L 351.212429 33.293281 
L 351.675286 33.663383 
L 352.138143 34.044872 
L 352.601 34.43775 
L 353.063857 34.842015 
L 353.526714 35.257668 
L 353.989571 35.684709 
L 354.452429 36.123138 
L 354.915286 36.572954 
L 355.378143 37.034158 
L 355.841 37.50675 
L 356.303857 37.99073 
L 356.766714 38.486097 
L 357.229571 38.992852 
L 357.692429 39.510995 
L 358.155286 40.040526 
L 358.618143 40.581444 
L 359.081 41.13375 
" style="fill:none;stroke:#000000;stroke-linecap:round;stroke-width:1.5;"/>
   </g>
   <g id="line2d_14">
    <path clip-path="url(#p5847e5de17)" d="M 320.201 54.80475 
L 320.82308 54.24675 
L 321.41924 53.68875 
L 321.98948 53.13075 
L 322.5338 52.57275 
L 323.0522 52.01475 
L 323.54468 51.45675 
L 324.01124 50.89875 
L 324.45188 50.34075 
L 324.8666 49.78275 
L 325.2554 49.22475 
L 325.61828 48.66675 
L 325.95524 48.10875 
L 326.26628 47.55075 
L 326.5514 46.99275 
L 326.8106 46.43475 
L 327.04388 45.87675 
L 327.25124 45.31875 
L 327.43268 44.76075 
L 327.5882 44.20275 
L 327.7178 43.64475 
L 327.82148 43.08675 
L 327.89924 42.52875 
L 327.95108 41.97075 
L 327.977 41.41275 
L 327.977 40.85475 
L 327.95108 40.29675 
L 327.89924 39.73875 
L 327.82148 39.18075 
L 327.7178 38.62275 
L 327.5882 38.06475 
L 327.43268 37.50675 
L 327.25124 36.94875 
L 327.04388 36.39075 
L 326.8106 35.83275 
L 326.5514 35.27475 
L 326.26628 34.71675 
L 325.95524 34.15875 
L 325.61828 33.60075 
L 325.2554 33.04275 
L 324.8666 32.48475 
L 324.45188 31.92675 
L 324.01124 31.36875 
L 323.54468 30.81075 
L 323.0522 30.25275 
L 322.5338 29.69475 
L 321.98948 29.13675 
L 321.41924 28.57875 
L 320.82308 28.02075 
L 320.201 27.46275 
" style="fill:none;stroke:#000000;stroke-linecap:round;stroke-width:1.5;"/>
   </g>
   <g id="line2d_15">
    <path clip-path="url(#p5847e5de17)" d="M 308.861 48.10875 
L 325.95524 48.10875 
" style="fill:none;stroke:#000000;stroke-linecap:round;stroke-width:1.5;"/>
   </g>
   <g id="line2d_16">
    <path clip-path="url(#p5847e5de17)" d="M 308.861 34.15875 
L 325.95524 34.15875 
" style="fill:none;stroke:#000000;stroke-linecap:round;stroke-width:1.5;"/>
   </g>
   <g id="line2d_17">
    <path clip-path="url(#p5847e5de17)" d="M 438.461 41.13375 
M 496.457 41.13375 
L 500.021 41.13375 
" style="fill:none;stroke:#000000;stroke-linecap:round;stroke-width:1.5;"/>
   </g>
   <g id="line2d_18">
    <path clip-path="url(#p5847e5de17)" d="M 449.801 54.80475 
L 466.001 54.80475 
L 466.463857 54.799056 
L 466.926714 54.781974 
L 467.389571 54.753505 
L 467.852429 54.713648 
L 468.315286 54.662403 
L 468.778143 54.59977 
L 469.241 54.52575 
L 469.703857 54.440342 
L 470.166714 54.343546 
L 470.629571 54.235362 
L 471.092429 54.115791 
L 471.555286 53.984832 
L 472.018143 53.842485 
L 472.481 53.68875 
L 472.943857 53.523628 
L 473.406714 53.347117 
L 473.869571 53.159219 
L 474.332429 52.959934 
L 474.795286 52.74926 
L 475.258143 52.527199 
L 475.721 52.29375 
L 476.183857 52.048913 
L 476.646714 51.792689 
L 477.109571 51.525077 
L 477.572429 51.246077 
L 478.035286 50.955689 
L 478.498143 50.653913 
L 478.961 50.34075 
L 479.423857 50.016199 
L 479.886714 49.68026 
L 480.349571 49.332934 
L 480.812429 48.974219 
L 481.275286 48.604117 
L 481.738143 48.222628 
L 482.201 47.82975 
L 482.663857 47.425485 
L 483.126714 47.009832 
L 483.589571 46.582791 
L 484.052429 46.144362 
L 484.515286 45.694546 
L 484.978143 45.233342 
L 485.441 44.76075 
L 485.903857 44.27677 
L 486.366714 43.781403 
L 486.829571 43.274648 
L 487.292429 42.756505 
L 487.755286 42.226974 
L 488.218143 41.686056 
L 488.681 41.13375 
" style="fill:none;stroke:#000000;stroke-linecap:round;stroke-width:1.5;"/>
   </g>
   <g id="line2d_19">
    <path clip-path="url(#p5847e5de17)" d="M 449.801 27.46275 
L 466.001 27.46275 
L 466.463857 27.468444 
L 466.926714 27.485526 
L 467.389571 27.513995 
L 467.852429 27.553852 
L 468.315286 27.605097 
L 468.778143 27.66773 
L 469.241 27.74175 
L 469.703857 27.827158 
L 470.166714 27.923954 
L 470.629571 28.032138 
L 471.092429 28.151709 
L 471.555286 28.282668 
L 472.018143 28.425015 
L 472.481 28.57875 
L 472.943857 28.743872 
L 473.406714 28.920383 
L 473.869571 29.108281 
L 474.332429 29.307566 
L 474.795286 29.51824 
L 475.258143 29.740301 
L 475.721 29.97375 
L 476.183857 30.218587 
L 476.646714 30.474811 
L 477.109571 30.742423 
L 477.572429 31.021423 
L 478.035286 31.311811 
L 478.498143 31.613587 
L 478.961 31.92675 
L 479.423857 32.251301 
L 479.886714 32.58724 
L 480.349571 32.934566 
L 480.812429 33.293281 
L 481.275286 33.663383 
L 481.738143 34.044872 
L 482.201 34.43775 
L 482.663857 34.842015 
L 483.126714 35.257668 
L 483.589571 35.684709 
L 484.052429 36.123138 
L 484.515286 36.572954 
L 484.978143 37.034158 
L 485.441 37.50675 
L 485.903857 37.99073 
L 486.366714 38.486097 
L 486.829571 38.992852 
L 487.292429 39.510995 
L 487.755286 40.040526 
L 488.218143 40.581444 
L 488.681 41.13375 
" style="fill:none;stroke:#000000;stroke-linecap:round;stroke-width:1.5;"/>
   </g>
   <g id="line2d_20">
    <path clip-path="url(#p5847e5de17)" d="M 449.801 54.80475 
L 450.42308 54.24675 
L 451.01924 53.68875 
L 451.58948 53.13075 
L 452.1338 52.57275 
L 452.6522 52.01475 
L 453.14468 51.45675 
L 453.61124 50.89875 
L 454.05188 50.34075 
L 454.4666 49.78275 
L 454.8554 49.22475 
L 455.21828 48.66675 
L 455.55524 48.10875 
L 455.86628 47.55075 
L 456.1514 46.99275 
L 456.4106 46.43475 
L 456.64388 45.87675 
L 456.85124 45.31875 
L 457.03268 44.76075 
L 457.1882 44.20275 
L 457.3178 43.64475 
L 457.42148 43.08675 
L 457.49924 42.52875 
L 457.55108 41.97075 
L 457.577 41.41275 
L 457.577 40.85475 
L 457.55108 40.29675 
L 457.49924 39.73875 
L 457.42148 39.18075 
L 457.3178 38.62275 
L 457.1882 38.06475 
L 457.03268 37.50675 
L 456.85124 36.94875 
L 456.64388 36.39075 
L 456.4106 35.83275 
L 456.1514 35.27475 
L 455.86628 34.71675 
L 455.55524 34.15875 
L 455.21828 33.60075 
L 454.8554 33.04275 
L 454.4666 32.48475 
L 454.05188 31.92675 
L 453.61124 31.36875 
L 453.14468 30.81075 
L 452.6522 30.25275 
L 452.1338 29.69475 
L 451.58948 29.13675 
L 451.01924 28.57875 
L 450.42308 28.02075 
L 449.801 27.46275 
" style="fill:none;stroke:#000000;stroke-linecap:round;stroke-width:1.5;"/>
   </g>
   <g id="line2d_21">
    <path clip-path="url(#p5847e5de17)" d="M 438.461 48.10875 
L 455.55524 48.10875 
" style="fill:none;stroke:#000000;stroke-linecap:round;stroke-width:1.5;"/>
   </g>
   <g id="line2d_22">
    <path clip-path="url(#p5847e5de17)" d="M 438.461 34.15875 
L 455.55524 34.15875 
" style="fill:none;stroke:#000000;stroke-linecap:round;stroke-width:1.5;"/>
   </g>
   <g id="line2d_23">
    <path clip-path="url(#p5847e5de17)" d="M 568.061 41.13375 
M 623.141 41.13375 
L 634.481 41.13375 
" style="fill:none;stroke:#000000;stroke-linecap:round;stroke-width:1.5;"/>
   </g>
   <g id="line2d_24">
    <path clip-path="url(#p5847e5de17)" d="M 584.261 54.80475 
L 600.461 54.80475 
L 600.923857 54.799056 
L 601.386714 54.781974 
L 601.849571 54.753505 
L 602.312429 54.713648 
L 602.775286 54.662403 
L 603.238143 54.59977 
L 603.701 54.52575 
L 604.163857 54.440342 
L 604.626714 54.343546 
L 605.089571 54.235362 
L 605.552429 54.115791 
L 606.015286 53.984832 
L 606.478143 53.842485 
L 606.941 53.68875 
L 607.403857 53.523628 
L 607.866714 53.347117 
L 608.329571 53.159219 
L 608.792429 52.959934 
L 609.255286 52.74926 
L 609.718143 52.527199 
L 610.181 52.29375 
L 610.643857 52.048913 
L 611.106714 51.792689 
L 611.569571 51.525077 
L 612.032429 51.246077 
L 612.495286 50.955689 
L 612.958143 50.653913 
L 613.421 50.34075 
L 613.883857 50.016199 
L 614.346714 49.68026 
L 614.809571 49.332934 
L 615.272429 48.974219 
L 615.735286 48.604117 
L 616.198143 48.222628 
L 616.661 47.82975 
L 617.123857 47.425485 
L 617.586714 47.009832 
L 618.049571 46.582791 
L 618.512429 46.144362 
L 618.975286 45.694546 
L 619.438143 45.233342 
L 619.901 44.76075 
L 620.363857 44.27677 
L 620.826714 43.781403 
L 621.289571 43.274648 
L 621.752429 42.756505 
L 622.215286 42.226974 
L 622.678143 41.686056 
L 623.141 41.13375 
" style="fill:none;stroke:#000000;stroke-linecap:round;stroke-width:1.5;"/>
   </g>
   <g id="line2d_25">
    <path clip-path="url(#p5847e5de17)" d="M 584.261 27.46275 
L 600.461 27.46275 
L 600.923857 27.468444 
L 601.386714 27.485526 
L 601.849571 27.513995 
L 602.312429 27.553852 
L 602.775286 27.605097 
L 603.238143 27.66773 
L 603.701 27.74175 
L 604.163857 27.827158 
L 604.626714 27.923954 
L 605.089571 28.032138 
L 605.552429 28.151709 
L 606.015286 28.282668 
L 606.478143 28.425015 
L 606.941 28.57875 
L 607.403857 28.743872 
L 607.866714 28.920383 
L 608.329571 29.108281 
L 608.792429 29.307566 
L 609.255286 29.51824 
L 609.718143 29.740301 
L 610.181 29.97375 
L 610.643857 30.218587 
L 611.106714 30.474811 
L 611.569571 30.742423 
L 612.032429 31.021423 
L 612.495286 31.311811 
L 612.958143 31.613587 
L 613.421 31.92675 
L 613.883857 32.251301 
L 614.346714 32.58724 
L 614.809571 32.934566 
L 615.272429 33.293281 
L 615.735286 33.663383 
L 616.198143 34.044872 
L 616.661 34.43775 
L 617.123857 34.842015 
L 617.586714 35.257668 
L 618.049571 35.684709 
L 618.512429 36.123138 
L 618.975286 36.572954 
L 619.438143 37.034158 
L 619.901 37.50675 
L 620.363857 37.99073 
L 620.826714 38.486097 
L 621.289571 38.992852 
L 621.752429 39.510995 
L 622.215286 40.040526 
L 622.678143 40.581444 
L 623.141 41.13375 
" style="fill:none;stroke:#000000;stroke-linecap:round;stroke-width:1.5;"/>
   </g>
   <g id="line2d_26">
    <path clip-path="url(#p5847e5de17)" d="M 579.401 54.80475 
L 580.02308 54.24675 
L 580.61924 53.68875 
L 581.18948 53.13075 
L 581.7338 52.57275 
L 582.2522 52.01475 
L 582.74468 51.45675 
L 583.21124 50.89875 
L 583.65188 50.34075 
L 584.0666 49.78275 
L 584.4554 49.22475 
L 584.81828 48.66675 
L 585.15524 48.10875 
L 585.46628 47.55075 
L 585.7514 46.99275 
L 586.0106 46.43475 
L 586.24388 45.87675 
L 586.45124 45.31875 
L 586.63268 44.76075 
L 586.7882 44.20275 
L 586.9178 43.64475 
L 587.02148 43.08675 
L 587.09924 42.52875 
L 587.15108 41.97075 
L 587.177 41.41275 
L 587.177 40.85475 
L 587.15108 40.29675 
L 587.09924 39.73875 
L 587.02148 39.18075 
L 586.9178 38.62275 
L 586.7882 38.06475 
L 586.63268 37.50675 
L 586.45124 36.94875 
L 586.24388 36.39075 
L 586.0106 35.83275 
L 585.7514 35.27475 
L 585.46628 34.71675 
L 585.15524 34.15875 
L 584.81828 33.60075 
L 584.4554 33.04275 
L 584.0666 32.48475 
L 583.65188 31.92675 
L 583.21124 31.36875 
L 582.74468 30.81075 
L 582.2522 30.25275 
L 581.7338 29.69475 
L 581.18948 29.13675 
L 580.61924 28.57875 
L 580.02308 28.02075 
L 579.401 27.46275 
" style="fill:none;stroke:#000000;stroke-linecap:round;stroke-width:1.5;"/>
   </g>
   <g id="line2d_27">
    <path clip-path="url(#p5847e5de17)" d="M 584.261 54.80475 
L 584.88308 54.24675 
L 585.47924 53.68875 
L 586.04948 53.13075 
L 586.5938 52.57275 
L 587.1122 52.01475 
L 587.60468 51.45675 
L 588.07124 50.89875 
L 588.51188 50.34075 
L 588.9266 49.78275 
L 589.3154 49.22475 
L 589.67828 48.66675 
L 590.01524 48.10875 
L 590.32628 47.55075 
L 590.6114 46.99275 
L 590.8706 46.43475 
L 591.10388 45.87675 
L 591.31124 45.31875 
L 591.49268 44.76075 
L 591.6482 44.20275 
L 591.7778 43.64475 
L 591.88148 43.08675 
L 591.95924 42.52875 
L 592.01108 41.97075 
L 592.037 41.41275 
L 592.037 40.85475 
L 592.01108 40.29675 
L 591.95924 39.73875 
L 591.88148 39.18075 
L 591.7778 38.62275 
L 591.6482 38.06475 
L 591.49268 37.50675 
L 591.31124 36.94875 
L 591.10388 36.39075 
L 590.8706 35.83275 
L 590.6114 35.27475 
L 590.32628 34.71675 
L 590.01524 34.15875 
L 589.67828 33.60075 
L 589.3154 33.04275 
L 588.9266 32.48475 
L 588.51188 31.92675 
L 588.07124 31.36875 
L 587.60468 30.81075 
L 587.1122 30.25275 
L 586.5938 29.69475 
L 586.04948 29.13675 
L 585.47924 28.57875 
L 584.88308 28.02075 
L 584.261 27.46275 
" style="fill:none;stroke:#000000;stroke-linecap:round;stroke-width:1.5;"/>
   </g>
   <g id="line2d_28">
    <path clip-path="url(#p5847e5de17)" d="M 568.061 48.10875 
L 585.15524 48.10875 
" style="fill:none;stroke:#000000;stroke-linecap:round;stroke-width:1.5;"/>
   </g>
   <g id="line2d_29">
    <path clip-path="url(#p5847e5de17)" d="M 568.061 34.15875 
L 585.15524 34.15875 
" style="fill:none;stroke:#000000;stroke-linecap:round;stroke-width:1.5;"/>
   </g>
   <g id="line2d_30">
    <path clip-path="url(#p5847e5de17)" d="M 697.661 41.13375 
M 760.517 41.13375 
L 764.081 41.13375 
" style="fill:none;stroke:#000000;stroke-linecap:round;stroke-width:1.5;"/>
   </g>
   <g id="line2d_31">
    <path clip-path="url(#p5847e5de17)" d="M 713.861 54.80475 
L 730.061 54.80475 
L 730.523857 54.799056 
L 730.986714 54.781974 
L 731.449571 54.753505 
L 731.912429 54.713648 
L 732.375286 54.662403 
L 732.838143 54.59977 
L 733.301 54.52575 
L 733.763857 54.440342 
L 734.226714 54.343546 
L 734.689571 54.235362 
L 735.152429 54.115791 
L 735.615286 53.984832 
L 736.078143 53.842485 
L 736.541 53.68875 
L 737.003857 53.523628 
L 737.466714 53.347117 
L 737.929571 53.159219 
L 738.392429 52.959934 
L 738.855286 52.74926 
L 739.318143 52.527199 
L 739.781 52.29375 
L 740.243857 52.048913 
L 740.706714 51.792689 
L 741.169571 51.525077 
L 741.632429 51.246077 
L 742.095286 50.955689 
L 742.558143 50.653913 
L 743.021 50.34075 
L 743.483857 50.016199 
L 743.946714 49.68026 
L 744.409571 49.332934 
L 744.872429 48.974219 
L 745.335286 48.604117 
L 745.798143 48.222628 
L 746.261 47.82975 
L 746.723857 47.425485 
L 747.186714 47.009832 
L 747.649571 46.582791 
L 748.112429 46.144362 
L 748.575286 45.694546 
L 749.038143 45.233342 
L 749.501 44.76075 
L 749.963857 44.27677 
L 750.426714 43.781403 
L 750.889571 43.274648 
L 751.352429 42.756505 
L 751.815286 42.226974 
L 752.278143 41.686056 
L 752.741 41.13375 
" style="fill:none;stroke:#000000;stroke-linecap:round;stroke-width:1.5;"/>
   </g>
   <g id="line2d_32">
    <path clip-path="url(#p5847e5de17)" d="M 713.861 27.46275 
L 730.061 27.46275 
L 730.523857 27.468444 
L 730.986714 27.485526 
L 731.449571 27.513995 
L 731.912429 27.553852 
L 732.375286 27.605097 
L 732.838143 27.66773 
L 733.301 27.74175 
L 733.763857 27.827158 
L 734.226714 27.923954 
L 734.689571 28.032138 
L 735.152429 28.151709 
L 735.615286 28.282668 
L 736.078143 28.425015 
L 736.541 28.57875 
L 737.003857 28.743872 
L 737.466714 28.920383 
L 737.929571 29.108281 
L 738.392429 29.307566 
L 738.855286 29.51824 
L 739.318143 29.740301 
L 739.781 29.97375 
L 740.243857 30.218587 
L 740.706714 30.474811 
L 741.169571 30.742423 
L 741.632429 31.021423 
L 742.095286 31.311811 
L 742.558143 31.613587 
L 743.021 31.92675 
L 743.483857 32.251301 
L 743.946714 32.58724 
L 744.409571 32.934566 
L 744.872429 33.293281 
L 745.335286 33.663383 
L 745.798143 34.044872 
L 746.261 34.43775 
L 746.723857 34.842015 
L 747.186714 35.257668 
L 747.649571 35.684709 
L 748.112429 36.123138 
L 748.575286 36.572954 
L 749.038143 37.034158 
L 749.501 37.50675 
L 749.963857 37.99073 
L 750.426714 38.486097 
L 750.889571 38.992852 
L 751.352429 39.510995 
L 751.815286 40.040526 
L 752.278143 40.581444 
L 752.741 41.13375 
" style="fill:none;stroke:#000000;stroke-linecap:round;stroke-width:1.5;"/>
   </g>
   <g id="line2d_33">
    <path clip-path="url(#p5847e5de17)" d="M 709.001 54.80475 
L 709.62308 54.24675 
L 710.21924 53.68875 
L 710.78948 53.13075 
L 711.3338 52.57275 
L 711.8522 52.01475 
L 712.34468 51.45675 
L 712.81124 50.89875 
L 713.25188 50.34075 
L 713.6666 49.78275 
L 714.0554 49.22475 
L 714.41828 48.66675 
L 714.75524 48.10875 
L 715.06628 47.55075 
L 715.3514 46.99275 
L 715.6106 46.43475 
L 715.84388 45.87675 
L 716.05124 45.31875 
L 716.23268 44.76075 
L 716.3882 44.20275 
L 716.5178 43.64475 
L 716.62148 43.08675 
L 716.69924 42.52875 
L 716.75108 41.97075 
L 716.777 41.41275 
L 716.777 40.85475 
L 716.75108 40.29675 
L 716.69924 39.73875 
L 716.62148 39.18075 
L 716.5178 38.62275 
L 716.3882 38.06475 
L 716.23268 37.50675 
L 716.05124 36.94875 
L 715.84388 36.39075 
L 715.6106 35.83275 
L 715.3514 35.27475 
L 715.06628 34.71675 
L 714.75524 34.15875 
L 714.41828 33.60075 
L 714.0554 33.04275 
L 713.6666 32.48475 
L 713.25188 31.92675 
L 712.81124 31.36875 
L 712.34468 30.81075 
L 711.8522 30.25275 
L 711.3338 29.69475 
L 710.78948 29.13675 
L 710.21924 28.57875 
L 709.62308 28.02075 
L 709.001 27.46275 
" style="fill:none;stroke:#000000;stroke-linecap:round;stroke-width:1.5;"/>
   </g>
   <g id="line2d_34">
    <path clip-path="url(#p5847e5de17)" d="M 713.861 54.80475 
L 714.48308 54.24675 
L 715.07924 53.68875 
L 715.64948 53.13075 
L 716.1938 52.57275 
L 716.7122 52.01475 
L 717.20468 51.45675 
L 717.67124 50.89875 
L 718.11188 50.34075 
L 718.5266 49.78275 
L 718.9154 49.22475 
L 719.27828 48.66675 
L 719.61524 48.10875 
L 719.92628 47.55075 
L 720.2114 46.99275 
L 720.4706 46.43475 
L 720.70388 45.87675 
L 720.91124 45.31875 
L 721.09268 44.76075 
L 721.2482 44.20275 
L 721.3778 43.64475 
L 721.48148 43.08675 
L 721.55924 42.52875 
L 721.61108 41.97075 
L 721.637 41.41275 
L 721.637 40.85475 
L 721.61108 40.29675 
L 721.55924 39.73875 
L 721.48148 39.18075 
L 721.3778 38.62275 
L 721.2482 38.06475 
L 721.09268 37.50675 
L 720.91124 36.94875 
L 720.70388 36.39075 
L 720.4706 35.83275 
L 720.2114 35.27475 
L 719.92628 34.71675 
L 719.61524 34.15875 
L 719.27828 33.60075 
L 718.9154 33.04275 
L 718.5266 32.48475 
L 718.11188 31.92675 
L 717.67124 31.36875 
L 717.20468 30.81075 
L 716.7122 30.25275 
L 716.1938 29.69475 
L 715.64948 29.13675 
L 715.07924 28.57875 
L 714.48308 28.02075 
L 713.861 27.46275 
" style="fill:none;stroke:#000000;stroke-linecap:round;stroke-width:1.5;"/>
   </g>
   <g id="line2d_35">
    <path clip-path="url(#p5847e5de17)" d="M 697.661 48.10875 
L 714.75524 48.10875 
" style="fill:none;stroke:#000000;stroke-linecap:round;stroke-width:1.5;"/>
   </g>
   <g id="line2d_36">
    <path clip-path="url(#p5847e5de17)" d="M 697.661 34.15875 
L 714.75524 34.15875 
" style="fill:none;stroke:#000000;stroke-linecap:round;stroke-width:1.5;"/>
   </g>
   <g id="line2d_37">
    <path clip-path="url(#p5847e5de17)" d="M 49.661 110.88375 
M 98.261 110.88375 
L 109.601 110.88375 
" style="fill:none;stroke:#000000;stroke-linecap:round;stroke-width:1.5;"/>
   </g>
   <g id="line2d_38">
    <path clip-path="url(#p5847e5de17)" d="M 61.001 110.88375 
L 61.001 124.83375 
L 82.061 124.83375 
" style="fill:none;stroke:#000000;stroke-linecap:round;stroke-width:1.5;"/>
   </g>
   <g id="line2d_39">
    <path clip-path="url(#p5847e5de17)" d="M 61.001 110.88375 
L 61.001 96.93375 
L 82.061 96.93375 
" style="fill:none;stroke:#000000;stroke-linecap:round;stroke-width:1.5;"/>
   </g>
   <g id="line2d_40">
    <path clip-path="url(#p5847e5de17)" d="M 49.661 120.09075 
L 61.001 120.09075 
" style="fill:none;stroke:#000000;stroke-linecap:round;stroke-width:1.5;"/>
   </g>
   <g id="line2d_41">
    <path clip-path="url(#p5847e5de17)" d="M 49.661 110.88375 
L 61.001 110.88375 
" style="fill:none;stroke:#000000;stroke-linecap:round;stroke-width:1.5;"/>
   </g>
   <g id="line2d_42">
    <path clip-path="url(#p5847e5de17)" d="M 49.661 101.67675 
L 61.001 101.67675 
" style="fill:none;stroke:#000000;stroke-linecap:round;stroke-width:1.5;"/>
   </g>
   <g id="line2d_43">
    <path clip-path="url(#p5847e5de17)" d="M 179.261 110.88375 
M 235.637 110.88375 
L 239.201 110.88375 
" style="fill:none;stroke:#000000;stroke-linecap:round;stroke-width:1.5;"/>
   </g>
   <g id="line2d_44">
    <path clip-path="url(#p5847e5de17)" d="M 190.601 110.88375 
L 190.601 124.83375 
L 211.661 124.83375 
" style="fill:none;stroke:#000000;stroke-linecap:round;stroke-width:1.5;"/>
   </g>
   <g id="line2d_45">
    <path clip-path="url(#p5847e5de17)" d="M 190.601 110.88375 
L 190.601 96.93375 
L 211.661 96.93375 
" style="fill:none;stroke:#000000;stroke-linecap:round;stroke-width:1.5;"/>
   </g>
   <g id="line2d_46">
    <path clip-path="url(#p5847e5de17)" d="M 179.261 120.09075 
L 190.601 120.09075 
" style="fill:none;stroke:#000000;stroke-linecap:round;stroke-width:1.5;"/>
   </g>
   <g id="line2d_47">
    <path clip-path="url(#p5847e5de17)" d="M 179.261 110.88375 
L 190.601 110.88375 
" style="fill:none;stroke:#000000;stroke-linecap:round;stroke-width:1.5;"/>
   </g>
   <g id="line2d_48">
    <path clip-path="url(#p5847e5de17)" d="M 179.261 101.67675 
L 190.601 101.67675 
" style="fill:none;stroke:#000000;stroke-linecap:round;stroke-width:1.5;"/>
   </g>
   <g id="line2d_49">
    <path clip-path="url(#p5847e5de17)" d="M 308.861 110.88375 
M 359.081 110.88375 
L 370.421 110.88375 
" style="fill:none;stroke:#000000;stroke-linecap:round;stroke-width:1.5;"/>
   </g>
   <g id="line2d_50">
    <path clip-path="url(#p5847e5de17)" d="M 320.201 124.55475 
L 336.401 124.55475 
L 336.863857 124.549056 
L 337.326714 124.531974 
L 337.789571 124.503505 
L 338.252429 124.463648 
L 338.715286 124.412403 
L 339.178143 124.34977 
L 339.641 124.27575 
L 340.103857 124.190342 
L 340.566714 124.093546 
L 341.029571 123.985362 
L 341.492429 123.865791 
L 341.955286 123.734832 
L 342.418143 123.592485 
L 342.881 123.43875 
L 343.343857 123.273628 
L 343.806714 123.097117 
L 344.269571 122.909219 
L 344.732429 122.709934 
L 345.195286 122.49926 
L 345.658143 122.277199 
L 346.121 122.04375 
L 346.583857 121.798913 
L 347.046714 121.542689 
L 347.509571 121.275077 
L 347.972429 120.996077 
L 348.435286 120.705689 
L 348.898143 120.403913 
L 349.361 120.09075 
L 349.823857 119.766199 
L 350.286714 119.43026 
L 350.749571 119.082934 
L 351.212429 118.724219 
L 351.675286 118.354117 
L 352.138143 117.972628 
L 352.601 117.57975 
L 353.063857 117.175485 
L 353.526714 116.759832 
L 353.989571 116.332791 
L 354.452429 115.894362 
L 354.915286 115.444546 
L 355.378143 114.983342 
L 355.841 114.51075 
L 356.303857 114.02677 
L 356.766714 113.531403 
L 357.229571 113.024648 
L 357.692429 112.506505 
L 358.155286 111.976974 
L 358.618143 111.436056 
L 359.081 110.88375 
" style="fill:none;stroke:#000000;stroke-linecap:round;stroke-width:1.5;"/>
   </g>
   <g id="line2d_51">
    <path clip-path="url(#p5847e5de17)" d="M 320.201 97.21275 
L 336.401 97.21275 
L 336.863857 97.218444 
L 337.326714 97.235526 
L 337.789571 97.263995 
L 338.252429 97.303852 
L 338.715286 97.355097 
L 339.178143 97.41773 
L 339.641 97.49175 
L 340.103857 97.577158 
L 340.566714 97.673954 
L 341.029571 97.782138 
L 341.492429 97.901709 
L 341.955286 98.032668 
L 342.418143 98.175015 
L 342.881 98.32875 
L 343.343857 98.493872 
L 343.806714 98.670383 
L 344.269571 98.858281 
L 344.732429 99.057566 
L 345.195286 99.26824 
L 345.658143 99.490301 
L 346.121 99.72375 
L 346.583857 99.968587 
L 347.046714 100.224811 
L 347.509571 100.492423 
L 347.972429 100.771423 
L 348.435286 101.061811 
L 348.898143 101.363587 
L 349.361 101.67675 
L 349.823857 102.001301 
L 350.286714 102.33724 
L 350.749571 102.684566 
L 351.212429 103.043281 
L 351.675286 103.413383 
L 352.138143 103.794872 
L 352.601 104.18775 
L 353.063857 104.592015 
L 353.526714 105.007668 
L 353.989571 105.434709 
L 354.452429 105.873138 
L 354.915286 106.322954 
L 355.378143 106.784158 
L 355.841 107.25675 
L 356.303857 107.74073 
L 356.766714 108.236097 
L 357.229571 108.742852 
L 357.692429 109.260995 
L 358.155286 109.790526 
L 358.618143 110.331444 
L 359.081 110.88375 
" style="fill:none;stroke:#000000;stroke-linecap:round;stroke-width:1.5;"/>
   </g>
   <g id="line2d_52">
    <path clip-path="url(#p5847e5de17)" d="M 320.201 124.55475 
L 320.82308 123.99675 
L 321.41924 123.43875 
L 321.98948 122.88075 
L 322.5338 122.32275 
L 323.0522 121.76475 
L 323.54468 121.20675 
L 324.01124 120.64875 
L 324.45188 120.09075 
L 324.8666 119.53275 
L 325.2554 118.97475 
L 325.61828 118.41675 
L 325.95524 117.85875 
L 326.26628 117.30075 
L 326.5514 116.74275 
L 326.8106 116.18475 
L 327.04388 115.62675 
L 327.25124 115.06875 
L 327.43268 114.51075 
L 327.5882 113.95275 
L 327.7178 113.39475 
L 327.82148 112.83675 
L 327.89924 112.27875 
L 327.95108 111.72075 
L 327.977 111.16275 
L 327.977 110.60475 
L 327.95108 110.04675 
L 327.89924 109.48875 
L 327.82148 108.93075 
L 327.7178 108.37275 
L 327.5882 107.81475 
L 327.43268 107.25675 
L 327.25124 106.69875 
L 327.04388 106.14075 
L 326.8106 105.58275 
L 326.5514 105.02475 
L 326.26628 104.46675 
L 325.95524 103.90875 
L 325.61828 103.35075 
L 325.2554 102.79275 
L 324.8666 102.23475 
L 324.45188 101.67675 
L 324.01124 101.11875 
L 323.54468 100.56075 
L 323.0522 100.00275 
L 322.5338 99.44475 
L 321.98948 98.88675 
L 321.41924 98.32875 
L 320.82308 97.77075 
L 320.201 97.21275 
" style="fill:none;stroke:#000000;stroke-linecap:round;stroke-width:1.5;"/>
   </g>
   <g id="line2d_53">
    <path clip-path="url(#p5847e5de17)" d="M 308.861 120.09075 
L 324.45188 120.09075 
" style="fill:none;stroke:#000000;stroke-linecap:round;stroke-width:1.5;"/>
   </g>
   <g id="line2d_54">
    <path clip-path="url(#p5847e5de17)" d="M 308.861 110.88375 
L 327.98024 110.88375 
" style="fill:none;stroke:#000000;stroke-linecap:round;stroke-width:1.5;"/>
   </g>
   <g id="line2d_55">
    <path clip-path="url(#p5847e5de17)" d="M 308.861 101.67675 
L 324.45188 101.67675 
" style="fill:none;stroke:#000000;stroke-linecap:round;stroke-width:1.5;"/>
   </g>
   <g id="line2d_56">
    <path clip-path="url(#p5847e5de17)" d="M 438.461 110.88375 
M 496.457 110.88375 
L 500.021 110.88375 
" style="fill:none;stroke:#000000;stroke-linecap:round;stroke-width:1.5;"/>
   </g>
   <g id="line2d_57">
    <path clip-path="url(#p5847e5de17)" d="M 449.801 124.55475 
L 466.001 124.55475 
L 466.463857 124.549056 
L 466.926714 124.531974 
L 467.389571 124.503505 
L 467.852429 124.463648 
L 468.315286 124.412403 
L 468.778143 124.34977 
L 469.241 124.27575 
L 469.703857 124.190342 
L 470.166714 124.093546 
L 470.629571 123.985362 
L 471.092429 123.865791 
L 471.555286 123.734832 
L 472.018143 123.592485 
L 472.481 123.43875 
L 472.943857 123.273628 
L 473.406714 123.097117 
L 473.869571 122.909219 
L 474.332429 122.709934 
L 474.795286 122.49926 
L 475.258143 122.277199 
L 475.721 122.04375 
L 476.183857 121.798913 
L 476.646714 121.542689 
L 477.109571 121.275077 
L 477.572429 120.996077 
L 478.035286 120.705689 
L 478.498143 120.403913 
L 478.961 120.09075 
L 479.423857 119.766199 
L 479.886714 119.43026 
L 480.349571 119.082934 
L 480.812429 118.724219 
L 481.275286 118.354117 
L 481.738143 117.972628 
L 482.201 117.57975 
L 482.663857 117.175485 
L 483.126714 116.759832 
L 483.589571 116.332791 
L 484.052429 115.894362 
L 484.515286 115.444546 
L 484.978143 114.983342 
L 485.441 114.51075 
L 485.903857 114.02677 
L 486.366714 113.531403 
L 486.829571 113.024648 
L 487.292429 112.506505 
L 487.755286 111.976974 
L 488.218143 111.436056 
L 488.681 110.88375 
" style="fill:none;stroke:#000000;stroke-linecap:round;stroke-width:1.5;"/>
   </g>
   <g id="line2d_58">
    <path clip-path="url(#p5847e5de17)" d="M 449.801 97.21275 
L 466.001 97.21275 
L 466.463857 97.218444 
L 466.926714 97.235526 
L 467.389571 97.263995 
L 467.852429 97.303852 
L 468.315286 97.355097 
L 468.778143 97.41773 
L 469.241 97.49175 
L 469.703857 97.577158 
L 470.166714 97.673954 
L 470.629571 97.782138 
L 471.092429 97.901709 
L 471.555286 98.032668 
L 472.018143 98.175015 
L 472.481 98.32875 
L 472.943857 98.493872 
L 473.406714 98.670383 
L 473.869571 98.858281 
L 474.332429 99.057566 
L 474.795286 99.26824 
L 475.258143 99.490301 
L 475.721 99.72375 
L 476.183857 99.968587 
L 476.646714 100.224811 
L 477.109571 100.492423 
L 477.572429 100.771423 
L 478.035286 101.061811 
L 478.498143 101.363587 
L 478.961 101.67675 
L 479.423857 102.001301 
L 479.886714 102.33724 
L 480.349571 102.684566 
L 480.812429 103.043281 
L 481.275286 103.413383 
L 481.738143 103.794872 
L 482.201 104.18775 
L 482.663857 104.592015 
L 483.126714 105.007668 
L 483.589571 105.434709 
L 484.052429 105.873138 
L 484.515286 106.322954 
L 484.978143 106.784158 
L 485.441 107.25675 
L 485.903857 107.74073 
L 486.366714 108.236097 
L 486.829571 108.742852 
L 487.292429 109.260995 
L 487.755286 109.790526 
L 488.218143 110.331444 
L 488.681 110.88375 
" style="fill:none;stroke:#000000;stroke-linecap:round;stroke-width:1.5;"/>
   </g>
   <g id="line2d_59">
    <path clip-path="url(#p5847e5de17)" d="M 449.801 124.55475 
L 450.42308 123.99675 
L 451.01924 123.43875 
L 451.58948 122.88075 
L 452.1338 122.32275 
L 452.6522 121.76475 
L 453.14468 121.20675 
L 453.61124 120.64875 
L 454.05188 120.09075 
L 454.4666 119.53275 
L 454.8554 118.97475 
L 455.21828 118.41675 
L 455.55524 117.85875 
L 455.86628 117.30075 
L 456.1514 116.74275 
L 456.4106 116.18475 
L 456.64388 115.62675 
L 456.85124 115.06875 
L 457.03268 114.51075 
L 457.1882 113.95275 
L 457.3178 113.39475 
L 457.42148 112.83675 
L 457.49924 112.27875 
L 457.55108 111.72075 
L 457.577 111.16275 
L 457.577 110.60475 
L 457.55108 110.04675 
L 457.49924 109.48875 
L 457.42148 108.93075 
L 457.3178 108.37275 
L 457.1882 107.81475 
L 457.03268 107.25675 
L 456.85124 106.69875 
L 456.64388 106.14075 
L 456.4106 105.58275 
L 456.1514 105.02475 
L 455.86628 104.46675 
L 455.55524 103.90875 
L 455.21828 103.35075 
L 454.8554 102.79275 
L 454.4666 102.23475 
L 454.05188 101.67675 
L 453.61124 101.11875 
L 453.14468 100.56075 
L 452.6522 100.00275 
L 452.1338 99.44475 
L 451.58948 98.88675 
L 451.01924 98.32875 
L 450.42308 97.77075 
L 449.801 97.21275 
" style="fill:none;stroke:#000000;stroke-linecap:round;stroke-width:1.5;"/>
   </g>
   <g id="line2d_60">
    <path clip-path="url(#p5847e5de17)" d="M 438.461 120.09075 
L 454.05188 120.09075 
" style="fill:none;stroke:#000000;stroke-linecap:round;stroke-width:1.5;"/>
   </g>
   <g id="line2d_61">
    <path clip-path="url(#p5847e5de17)" d="M 438.461 110.88375 
L 457.58024 110.88375 
" style="fill:none;stroke:#000000;stroke-linecap:round;stroke-width:1.5;"/>
   </g>
   <g id="line2d_62">
    <path clip-path="url(#p5847e5de17)" d="M 438.461 101.67675 
L 454.05188 101.67675 
" style="fill:none;stroke:#000000;stroke-linecap:round;stroke-width:1.5;"/>
   </g>
   <g id="line2d_63">
    <path clip-path="url(#p5847e5de17)" d="M 568.061 110.88375 
M 623.141 110.88375 
L 634.481 110.88375 
" style="fill:none;stroke:#000000;stroke-linecap:round;stroke-width:1.5;"/>
   </g>
   <g id="line2d_64">
    <path clip-path="url(#p5847e5de17)" d="M 584.261 124.55475 
L 600.461 124.55475 
L 600.923857 124.549056 
L 601.386714 124.531974 
L 601.849571 124.503505 
L 602.312429 124.463648 
L 602.775286 124.412403 
L 603.238143 124.34977 
L 603.701 124.27575 
L 604.163857 124.190342 
L 604.626714 124.093546 
L 605.089571 123.985362 
L 605.552429 123.865791 
L 606.015286 123.734832 
L 606.478143 123.592485 
L 606.941 123.43875 
L 607.403857 123.273628 
L 607.866714 123.097117 
L 608.329571 122.909219 
L 608.792429 122.709934 
L 609.255286 122.49926 
L 609.718143 122.277199 
L 610.181 122.04375 
L 610.643857 121.798913 
L 611.106714 121.542689 
L 611.569571 121.275077 
L 612.032429 120.996077 
L 612.495286 120.705689 
L 612.958143 120.403913 
L 613.421 120.09075 
L 613.883857 119.766199 
L 614.346714 119.43026 
L 614.809571 119.082934 
L 615.272429 118.724219 
L 615.735286 118.354117 
L 616.198143 117.972628 
L 616.661 117.57975 
L 617.123857 117.175485 
L 617.586714 116.759832 
L 618.049571 116.332791 
L 618.512429 115.894362 
L 618.975286 115.444546 
L 619.438143 114.983342 
L 619.901 114.51075 
L 620.363857 114.02677 
L 620.826714 113.531403 
L 621.289571 113.024648 
L 621.752429 112.506505 
L 622.215286 111.976974 
L 622.678143 111.436056 
L 623.141 110.88375 
" style="fill:none;stroke:#000000;stroke-linecap:round;stroke-width:1.5;"/>
   </g>
   <g id="line2d_65">
    <path clip-path="url(#p5847e5de17)" d="M 584.261 97.21275 
L 600.461 97.21275 
L 600.923857 97.218444 
L 601.386714 97.235526 
L 601.849571 97.263995 
L 602.312429 97.303852 
L 602.775286 97.355097 
L 603.238143 97.41773 
L 603.701 97.49175 
L 604.163857 97.577158 
L 604.626714 97.673954 
L 605.089571 97.782138 
L 605.552429 97.901709 
L 606.015286 98.032668 
L 606.478143 98.175015 
L 606.941 98.32875 
L 607.403857 98.493872 
L 607.866714 98.670383 
L 608.329571 98.858281 
L 608.792429 99.057566 
L 609.255286 99.26824 
L 609.718143 99.490301 
L 610.181 99.72375 
L 610.643857 99.968587 
L 611.106714 100.224811 
L 611.569571 100.492423 
L 612.032429 100.771423 
L 612.495286 101.061811 
L 612.958143 101.363587 
L 613.421 101.67675 
L 613.883857 102.001301 
L 614.346714 102.33724 
L 614.809571 102.684566 
L 615.272429 103.043281 
L 615.735286 103.413383 
L 616.198143 103.794872 
L 616.661 104.18775 
L 617.123857 104.592015 
L 617.586714 105.007668 
L 618.049571 105.434709 
L 618.512429 105.873138 
L 618.975286 106.322954 
L 619.438143 106.784158 
L 619.901 107.25675 
L 620.363857 107.74073 
L 620.826714 108.236097 
L 621.289571 108.742852 
L 621.752429 109.260995 
L 622.215286 109.790526 
L 622.678143 110.331444 
L 623.141 110.88375 
" style="fill:none;stroke:#000000;stroke-linecap:round;stroke-width:1.5;"/>
   </g>
   <g id="line2d_66">
    <path clip-path="url(#p5847e5de17)" d="M 579.401 124.55475 
L 580.02308 123.99675 
L 580.61924 123.43875 
L 581.18948 122.88075 
L 581.7338 122.32275 
L 582.2522 121.76475 
L 582.74468 121.20675 
L 583.21124 120.64875 
L 583.65188 120.09075 
L 584.0666 119.53275 
L 584.4554 118.97475 
L 584.81828 118.41675 
L 585.15524 117.85875 
L 585.46628 117.30075 
L 585.7514 116.74275 
L 586.0106 116.18475 
L 586.24388 115.62675 
L 586.45124 115.06875 
L 586.63268 114.51075 
L 586.7882 113.95275 
L 586.9178 113.39475 
L 587.02148 112.83675 
L 587.09924 112.27875 
L 587.15108 111.72075 
L 587.177 111.16275 
L 587.177 110.60475 
L 587.15108 110.04675 
L 587.09924 109.48875 
L 587.02148 108.93075 
L 586.9178 108.37275 
L 586.7882 107.81475 
L 586.63268 107.25675 
L 586.45124 106.69875 
L 586.24388 106.14075 
L 586.0106 105.58275 
L 585.7514 105.02475 
L 585.46628 104.46675 
L 585.15524 103.90875 
L 584.81828 103.35075 
L 584.4554 102.79275 
L 584.0666 102.23475 
L 583.65188 101.67675 
L 583.21124 101.11875 
L 582.74468 100.56075 
L 582.2522 100.00275 
L 581.7338 99.44475 
L 581.18948 98.88675 
L 580.61924 98.32875 
L 580.02308 97.77075 
L 579.401 97.21275 
" style="fill:none;stroke:#000000;stroke-linecap:round;stroke-width:1.5;"/>
   </g>
   <g id="line2d_67">
    <path clip-path="url(#p5847e5de17)" d="M 584.261 124.55475 
L 584.88308 123.99675 
L 585.47924 123.43875 
L 586.04948 122.88075 
L 586.5938 122.32275 
L 587.1122 121.76475 
L 587.60468 121.20675 
L 588.07124 120.64875 
L 588.51188 120.09075 
L 588.9266 119.53275 
L 589.3154 118.97475 
L 589.67828 118.41675 
L 590.01524 117.85875 
L 590.32628 117.30075 
L 590.6114 116.74275 
L 590.8706 116.18475 
L 591.10388 115.62675 
L 591.31124 115.06875 
L 591.49268 114.51075 
L 591.6482 113.95275 
L 591.7778 113.39475 
L 591.88148 112.83675 
L 591.95924 112.27875 
L 592.01108 111.72075 
L 592.037 111.16275 
L 592.037 110.60475 
L 592.01108 110.04675 
L 591.95924 109.48875 
L 591.88148 108.93075 
L 591.7778 108.37275 
L 591.6482 107.81475 
L 591.49268 107.25675 
L 591.31124 106.69875 
L 591.10388 106.14075 
L 590.8706 105.58275 
L 590.6114 105.02475 
L 590.32628 104.46675 
L 590.01524 103.90875 
L 589.67828 103.35075 
L 589.3154 102.79275 
L 588.9266 102.23475 
L 588.51188 101.67675 
L 588.07124 101.11875 
L 587.60468 100.56075 
L 587.1122 100.00275 
L 586.5938 99.44475 
L 586.04948 98.88675 
L 585.47924 98.32875 
L 584.88308 97.77075 
L 584.261 97.21275 
" style="fill:none;stroke:#000000;stroke-linecap:round;stroke-width:1.5;"/>
   </g>
   <g id="line2d_68">
    <path clip-path="url(#p5847e5de17)" d="M 568.061 120.09075 
L 583.65188 120.09075 
" style="fill:none;stroke:#000000;stroke-linecap:round;stroke-width:1.5;"/>
   </g>
   <g id="line2d_69">
    <path clip-path="url(#p5847e5de17)" d="M 568.061 110.88375 
L 587.18024 110.88375 
" style="fill:none;stroke:#000000;stroke-linecap:round;stroke-width:1.5;"/>
   </g>
   <g id="line2d_70">
    <path clip-path="url(#p5847e5de17)" d="M 568.061 101.67675 
L 583.65188 101.67675 
" style="fill:none;stroke:#000000;stroke-linecap:round;stroke-width:1.5;"/>
   </g>
   <g id="line2d_71">
    <path clip-path="url(#p5847e5de17)" d="M 697.661 110.88375 
M 760.517 110.88375 
L 764.081 110.88375 
" style="fill:none;stroke:#000000;stroke-linecap:round;stroke-width:1.5;"/>
   </g>
   <g id="line2d_72">
    <path clip-path="url(#p5847e5de17)" d="M 713.861 124.55475 
L 730.061 124.55475 
L 730.523857 124.549056 
L 730.986714 124.531974 
L 731.449571 124.503505 
L 731.912429 124.463648 
L 732.375286 124.412403 
L 732.838143 124.34977 
L 733.301 124.27575 
L 733.763857 124.190342 
L 734.226714 124.093546 
L 734.689571 123.985362 
L 735.152429 123.865791 
L 735.615286 123.734832 
L 736.078143 123.592485 
L 736.541 123.43875 
L 737.003857 123.273628 
L 737.466714 123.097117 
L 737.929571 122.909219 
L 738.392429 122.709934 
L 738.855286 122.49926 
L 739.318143 122.277199 
L 739.781 122.04375 
L 740.243857 121.798913 
L 740.706714 121.542689 
L 741.169571 121.275077 
L 741.632429 120.996077 
L 742.095286 120.705689 
L 742.558143 120.403913 
L 743.021 120.09075 
L 743.483857 119.766199 
L 743.946714 119.43026 
L 744.409571 119.082934 
L 744.872429 118.724219 
L 745.335286 118.354117 
L 745.798143 117.972628 
L 746.261 117.57975 
L 746.723857 117.175485 
L 747.186714 116.759832 
L 747.649571 116.332791 
L 748.112429 115.894362 
L 748.575286 115.444546 
L 749.038143 114.983342 
L 749.501 114.51075 
L 749.963857 114.02677 
L 750.426714 113.531403 
L 750.889571 113.024648 
L 751.352429 112.506505 
L 751.815286 111.976974 
L 752.278143 111.436056 
L 752.741 110.88375 
" style="fill:none;stroke:#000000;stroke-linecap:round;stroke-width:1.5;"/>
   </g>
   <g id="line2d_73">
    <path clip-path="url(#p5847e5de17)" d="M 713.861 97.21275 
L 730.061 97.21275 
L 730.523857 97.218444 
L 730.986714 97.235526 
L 731.449571 97.263995 
L 731.912429 97.303852 
L 732.375286 97.355097 
L 732.838143 97.41773 
L 733.301 97.49175 
L 733.763857 97.577158 
L 734.226714 97.673954 
L 734.689571 97.782138 
L 735.152429 97.901709 
L 735.615286 98.032668 
L 736.078143 98.175015 
L 736.541 98.32875 
L 737.003857 98.493872 
L 737.466714 98.670383 
L 737.929571 98.858281 
L 738.392429 99.057566 
L 738.855286 99.26824 
L 739.318143 99.490301 
L 739.781 99.72375 
L 740.243857 99.968587 
L 740.706714 100.224811 
L 741.169571 100.492423 
L 741.632429 100.771423 
L 742.095286 101.061811 
L 742.558143 101.363587 
L 743.021 101.67675 
L 743.483857 102.001301 
L 743.946714 102.33724 
L 744.409571 102.684566 
L 744.872429 103.043281 
L 745.335286 103.413383 
L 745.798143 103.794872 
L 746.261 104.18775 
L 746.723857 104.592015 
L 747.186714 105.007668 
L 747.649571 105.434709 
L 748.112429 105.873138 
L 748.575286 106.322954 
L 749.038143 106.784158 
L 749.501 107.25675 
L 749.963857 107.74073 
L 750.426714 108.236097 
L 750.889571 108.742852 
L 751.352429 109.260995 
L 751.815286 109.790526 
L 752.278143 110.331444 
L 752.741 110.88375 
" style="fill:none;stroke:#000000;stroke-linecap:round;stroke-width:1.5;"/>
   </g>
   <g id="line2d_74">
    <path clip-path="url(#p5847e5de17)" d="M 709.001 124.55475 
L 709.62308 123.99675 
L 710.21924 123.43875 
L 710.78948 122.88075 
L 711.3338 122.32275 
L 711.8522 121.76475 
L 712.34468 121.20675 
L 712.81124 120.64875 
L 713.25188 120.09075 
L 713.6666 119.53275 
L 714.0554 118.97475 
L 714.41828 118.41675 
L 714.75524 117.85875 
L 715.06628 117.30075 
L 715.3514 116.74275 
L 715.6106 116.18475 
L 715.84388 115.62675 
L 716.05124 115.06875 
L 716.23268 114.51075 
L 716.3882 113.95275 
L 716.5178 113.39475 
L 716.62148 112.83675 
L 716.69924 112.27875 
L 716.75108 111.72075 
L 716.777 111.16275 
L 716.777 110.60475 
L 716.75108 110.04675 
L 716.69924 109.48875 
L 716.62148 108.93075 
L 716.5178 108.37275 
L 716.3882 107.81475 
L 716.23268 107.25675 
L 716.05124 106.69875 
L 715.84388 106.14075 
L 715.6106 105.58275 
L 715.3514 105.02475 
L 715.06628 104.46675 
L 714.75524 103.90875 
L 714.41828 103.35075 
L 714.0554 102.79275 
L 713.6666 102.23475 
L 713.25188 101.67675 
L 712.81124 101.11875 
L 712.34468 100.56075 
L 711.8522 100.00275 
L 711.3338 99.44475 
L 710.78948 98.88675 
L 710.21924 98.32875 
L 709.62308 97.77075 
L 709.001 97.21275 
" style="fill:none;stroke:#000000;stroke-linecap:round;stroke-width:1.5;"/>
   </g>
   <g id="line2d_75">
    <path clip-path="url(#p5847e5de17)" d="M 713.861 124.55475 
L 714.48308 123.99675 
L 715.07924 123.43875 
L 715.64948 122.88075 
L 716.1938 122.32275 
L 716.7122 121.76475 
L 717.20468 121.20675 
L 717.67124 120.64875 
L 718.11188 120.09075 
L 718.5266 119.53275 
L 718.9154 118.97475 
L 719.27828 118.41675 
L 719.61524 117.85875 
L 719.92628 117.30075 
L 720.2114 116.74275 
L 720.4706 116.18475 
L 720.70388 115.62675 
L 720.91124 115.06875 
L 721.09268 114.51075 
L 721.2482 113.95275 
L 721.3778 113.39475 
L 721.48148 112.83675 
L 721.55924 112.27875 
L 721.61108 111.72075 
L 721.637 111.16275 
L 721.637 110.60475 
L 721.61108 110.04675 
L 721.55924 109.48875 
L 721.48148 108.93075 
L 721.3778 108.37275 
L 721.2482 107.81475 
L 721.09268 107.25675 
L 720.91124 106.69875 
L 720.70388 106.14075 
L 720.4706 105.58275 
L 720.2114 105.02475 
L 719.92628 104.46675 
L 719.61524 103.90875 
L 719.27828 103.35075 
L 718.9154 102.79275 
L 718.5266 102.23475 
L 718.11188 101.67675 
L 717.67124 101.11875 
L 717.20468 100.56075 
L 716.7122 100.00275 
L 716.1938 99.44475 
L 715.64948 98.88675 
L 715.07924 98.32875 
L 714.48308 97.77075 
L 713.861 97.21275 
" style="fill:none;stroke:#000000;stroke-linecap:round;stroke-width:1.5;"/>
   </g>
   <g id="line2d_76">
    <path clip-path="url(#p5847e5de17)" d="M 697.661 120.09075 
L 713.25188 120.09075 
" style="fill:none;stroke:#000000;stroke-linecap:round;stroke-width:1.5;"/>
   </g>
   <g id="line2d_77">
    <path clip-path="url(#p5847e5de17)" d="M 697.661 110.88375 
L 716.78024 110.88375 
" style="fill:none;stroke:#000000;stroke-linecap:round;stroke-width:1.5;"/>
   </g>
   <g id="line2d_78">
    <path clip-path="url(#p5847e5de17)" d="M 697.661 101.67675 
L 713.25188 101.67675 
" style="fill:none;stroke:#000000;stroke-linecap:round;stroke-width:1.5;"/>
   </g>
   <g id="patch_6">
    <path clip-path="url(#p5847e5de17)" d="M 231.749 44.48175 
C 232.78011 44.48175 233.769127 44.128984 234.498231 43.501144 
C 235.227336 42.873303 235.637 42.02165 235.637 41.13375 
C 235.637 40.24585 235.227336 39.394197 234.498231 38.766356 
C 233.769127 38.138516 232.78011 37.78575 231.749 37.78575 
C 230.71789 37.78575 229.728873 38.138516 228.999769 38.766356 
C 228.270664 39.394197 227.861 40.24585 227.861 41.13375 
C 227.861 42.02165 228.270664 42.873303 228.999769 43.501144 
C 229.728873 44.128984 230.71789 44.48175 231.749 44.48175 
z
" style="fill:none;stroke:#000000;stroke-linejoin:miter;stroke-width:1.5;"/>
   </g>
   <g id="patch_7">
    <path clip-path="url(#p5847e5de17)" d="M 492.569 44.48175 
C 493.60011 44.48175 494.589127 44.128984 495.318231 43.501144 
C 496.047336 42.873303 496.457 42.02165 496.457 41.13375 
C 496.457 40.24585 496.047336 39.394197 495.318231 38.766356 
C 494.589127 38.138516 493.60011 37.78575 492.569 37.78575 
C 491.53789 37.78575 490.548873 38.138516 489.819769 38.766356 
C 489.090664 39.394197 488.681 40.24585 488.681 41.13375 
C 488.681 42.02165 489.090664 42.873303 489.819769 43.501144 
C 490.548873 44.128984 491.53789 44.48175 492.569 44.48175 
z
" style="fill:none;stroke:#000000;stroke-linejoin:miter;stroke-width:1.5;"/>
   </g>
   <g id="patch_8">
    <path clip-path="url(#p5847e5de17)" d="M 756.629 44.48175 
C 757.66011 44.48175 758.649127 44.128984 759.378231 43.501144 
C 760.107336 42.873303 760.517 42.02165 760.517 41.13375 
C 760.517 40.24585 760.107336 39.394197 759.378231 38.766356 
C 758.649127 38.138516 757.66011 37.78575 756.629 37.78575 
C 755.59789 37.78575 754.608873 38.138516 753.879769 38.766356 
C 753.150664 39.394197 752.741 40.24585 752.741 41.13375 
C 752.741 42.02165 753.150664 42.873303 753.879769 43.501144 
C 754.608873 44.128984 755.59789 44.48175 756.629 44.48175 
z
" style="fill:none;stroke:#000000;stroke-linejoin:miter;stroke-width:1.5;"/>
   </g>
   <g id="patch_9">
    <path clip-path="url(#p5847e5de17)" d="M 231.749 114.23175 
C 232.78011 114.23175 233.769127 113.878984 234.498231 113.251144 
C 235.227336 112.623303 235.637 111.77165 235.637 110.88375 
C 235.637 109.99585 235.227336 109.144197 234.498231 108.516356 
C 233.769127 107.888516 232.78011 107.53575 231.749 107.53575 
C 230.71789 107.53575 229.728873 107.888516 228.999769 108.516356 
C 228.270664 109.144197 227.861 109.99585 227.861 110.88375 
C 227.861 111.77165 228.270664 112.623303 228.999769 113.251144 
C 229.728873 113.878984 230.71789 114.23175 231.749 114.23175 
z
" style="fill:none;stroke:#000000;stroke-linejoin:miter;stroke-width:1.5;"/>
   </g>
   <g id="patch_10">
    <path clip-path="url(#p5847e5de17)" d="M 492.569 114.23175 
C 493.60011 114.23175 494.589127 113.878984 495.318231 113.251144 
C 496.047336 112.623303 496.457 111.77165 496.457 110.88375 
C 496.457 109.99585 496.047336 109.144197 495.318231 108.516356 
C 494.589127 107.888516 493.60011 107.53575 492.569 107.53575 
C 491.53789 107.53575 490.548873 107.888516 489.819769 108.516356 
C 489.090664 109.144197 488.681 109.99585 488.681 110.88375 
C 488.681 111.77165 489.090664 112.623303 489.819769 113.251144 
C 490.548873 113.878984 491.53789 114.23175 492.569 114.23175 
z
" style="fill:none;stroke:#000000;stroke-linejoin:miter;stroke-width:1.5;"/>
   </g>
   <g id="patch_11">
    <path clip-path="url(#p5847e5de17)" d="M 756.629 114.23175 
C 757.66011 114.23175 758.649127 113.878984 759.378231 113.251144 
C 760.107336 112.623303 760.517 111.77165 760.517 110.88375 
C 760.517 109.99585 760.107336 109.144197 759.378231 108.516356 
C 758.649127 107.888516 757.66011 107.53575 756.629 107.53575 
C 755.59789 107.53575 754.608873 107.888516 753.879769 108.516356 
C 753.150664 109.144197 752.741 109.99585 752.741 110.88375 
C 752.741 111.77165 753.150664 112.623303 753.879769 113.251144 
C 754.608873 113.878984 755.59789 114.23175 756.629 114.23175 
z
" style="fill:none;stroke:#000000;stroke-linejoin:miter;stroke-width:1.5;"/>
   </g>
   <g id="text_1">
    <!-- AND2 -->
    <defs>
     <path d="M 34.1875 63.1875 
L 20.796875 26.90625 
L 47.609375 26.90625 
z
M 28.609375 72.90625 
L 39.796875 72.90625 
L 67.578125 0 
L 57.328125 0 
L 50.6875 18.703125 
L 17.828125 18.703125 
L 11.1875 0 
L 0.78125 0 
z
" id="DejaVuSans-41"/>
     <path d="M 9.8125 72.90625 
L 23.09375 72.90625 
L 55.421875 11.921875 
L 55.421875 72.90625 
L 64.984375 72.90625 
L 64.984375 0 
L 51.703125 0 
L 19.390625 60.984375 
L 19.390625 0 
L 9.8125 0 
z
" id="DejaVuSans-4e"/>
     <path d="M 19.671875 64.796875 
L 19.671875 8.109375 
L 31.59375 8.109375 
Q 46.6875 8.109375 53.6875 14.9375 
Q 60.6875 21.78125 60.6875 36.53125 
Q 60.6875 51.171875 53.6875 57.984375 
Q 46.6875 64.796875 31.59375 64.796875 
z
M 9.8125 72.90625 
L 30.078125 72.90625 
Q 51.265625 72.90625 61.171875 64.09375 
Q 71.09375 55.28125 71.09375 36.53125 
Q 71.09375 17.671875 61.125 8.828125 
Q 51.171875 0 30.078125 0 
L 9.8125 0 
z
" id="DejaVuSans-44"/>
     <path d="M 19.1875 8.296875 
L 53.609375 8.296875 
L 53.609375 0 
L 7.328125 0 
L 7.328125 8.296875 
Q 12.9375 14.109375 22.625 23.890625 
Q 32.328125 33.6875 34.8125 36.53125 
Q 39.546875 41.84375 41.421875 45.53125 
Q 43.3125 49.21875 43.3125 52.78125 
Q 43.3125 58.59375 39.234375 62.25 
Q 35.15625 65.921875 28.609375 65.921875 
Q 23.96875 65.921875 18.8125 64.3125 
Q 13.671875 62.703125 7.8125 59.421875 
L 7.8125 69.390625 
Q 13.765625 71.78125 18.9375 73 
Q 24.125 74.21875 28.421875 74.21875 
Q 39.75 74.21875 46.484375 68.546875 
Q 53.21875 62.890625 53.21875 53.421875 
Q 53.21875 48.921875 51.53125 44.890625 
Q 49.859375 40.875 45.40625 35.40625 
Q 44.1875 33.984375 37.640625 27.21875 
Q 31.109375 20.453125 19.1875 8.296875 
z
" id="DejaVuSans-32"/>
    </defs>
    <g transform="translate(65.030375 16.318125)scale(0.12 -0.12)">
     <use xlink:href="#DejaVuSans-41"/>
     <use x="68.408203" xlink:href="#DejaVuSans-4e"/>
     <use x="143.212891" xlink:href="#DejaVuSans-44"/>
     <use x="220.214844" xlink:href="#DejaVuSans-32"/>
    </g>
   </g>
   <g id="text_2">
    <!-- NAND2 -->
    <g transform="translate(190.141625 16.318125)scale(0.12 -0.12)">
     <use xlink:href="#DejaVuSans-4e"/>
     <use x="74.804688" xlink:href="#DejaVuSans-41"/>
     <use x="143.212891" xlink:href="#DejaVuSans-4e"/>
     <use x="218.017578" xlink:href="#DejaVuSans-44"/>
     <use x="295.019531" xlink:href="#DejaVuSans-32"/>
    </g>
   </g>
   <g id="text_3">
    <!-- OR2 -->
    <defs>
     <path d="M 39.40625 66.21875 
Q 28.65625 66.21875 22.328125 58.203125 
Q 16.015625 50.203125 16.015625 36.375 
Q 16.015625 22.609375 22.328125 14.59375 
Q 28.65625 6.59375 39.40625 6.59375 
Q 50.140625 6.59375 56.421875 14.59375 
Q 62.703125 22.609375 62.703125 36.375 
Q 62.703125 50.203125 56.421875 58.203125 
Q 50.140625 66.21875 39.40625 66.21875 
z
M 39.40625 74.21875 
Q 54.734375 74.21875 63.90625 63.9375 
Q 73.09375 53.65625 73.09375 36.375 
Q 73.09375 19.140625 63.90625 8.859375 
Q 54.734375 -1.421875 39.40625 -1.421875 
Q 24.03125 -1.421875 14.8125 8.828125 
Q 5.609375 19.09375 5.609375 36.375 
Q 5.609375 53.65625 14.8125 63.9375 
Q 24.03125 74.21875 39.40625 74.21875 
z
" id="DejaVuSans-4f"/>
     <path d="M 44.390625 34.1875 
Q 47.5625 33.109375 50.5625 29.59375 
Q 53.5625 26.078125 56.59375 19.921875 
L 66.609375 0 
L 56 0 
L 46.6875 18.703125 
Q 43.0625 26.03125 39.671875 28.421875 
Q 36.28125 30.8125 30.421875 30.8125 
L 19.671875 30.8125 
L 19.671875 0 
L 9.8125 0 
L 9.8125 72.90625 
L 32.078125 72.90625 
Q 44.578125 72.90625 50.734375 67.671875 
Q 56.890625 62.453125 56.890625 51.90625 
Q 56.890625 45.015625 53.6875 40.46875 
Q 50.484375 35.9375 44.390625 34.1875 
z
M 19.671875 64.796875 
L 19.671875 38.921875 
L 32.078125 38.921875 
Q 39.203125 38.921875 42.84375 42.21875 
Q 46.484375 45.515625 46.484375 51.90625 
Q 46.484375 58.296875 42.84375 61.546875 
Q 39.203125 64.796875 32.078125 64.796875 
z
" id="DejaVuSans-52"/>
    </defs>
    <g transform="translate(326.931312 16.318125)scale(0.12 -0.12)">
     <use xlink:href="#DejaVuSans-4f"/>
     <use x="78.710938" xlink:href="#DejaVuSans-52"/>
     <use x="148.193359" xlink:href="#DejaVuSans-32"/>
    </g>
   </g>
   <g id="text_4">
    <!-- NOR2 -->
    <g transform="translate(452.042562 16.318125)scale(0.12 -0.12)">
     <use xlink:href="#DejaVuSans-4e"/>
     <use x="74.804688" xlink:href="#DejaVuSans-4f"/>
     <use x="153.515625" xlink:href="#DejaVuSans-52"/>
     <use x="222.998047" xlink:href="#DejaVuSans-32"/>
    </g>
   </g>
   <g id="text_5">
    <!-- XOR2 -->
    <defs>
     <path d="M 6.296875 72.90625 
L 16.890625 72.90625 
L 35.015625 45.796875 
L 53.21875 72.90625 
L 63.8125 72.90625 
L 40.375 37.890625 
L 65.375 0 
L 54.78125 0 
L 34.28125 31 
L 13.625 0 
L 2.984375 0 
L 29 38.921875 
z
" id="DejaVuSans-58"/>
    </defs>
    <g transform="translate(584.456937 16.318125)scale(0.12 -0.12)">
     <use xlink:href="#DejaVuSans-58"/>
     <use x="68.412109" xlink:href="#DejaVuSans-4f"/>
     <use x="147.123047" xlink:href="#DejaVuSans-52"/>
     <use x="216.605469" xlink:href="#DejaVuSans-32"/>
    </g>
   </g>
   <g id="text_6">
    <!-- XNOR2 -->
    <g transform="translate(709.562562 16.318125)scale(0.12 -0.12)">
     <use xlink:href="#DejaVuSans-58"/>
     <use x="68.505859" xlink:href="#DejaVuSans-4e"/>
     <use x="143.310547" xlink:href="#DejaVuSans-4f"/>
     <use x="222.021484" xlink:href="#DejaVuSans-52"/>
     <use x="291.503906" xlink:href="#DejaVuSans-32"/>
    </g>
   </g>
   <g id="text_7">
    <!-- AND3 -->
    <defs>
     <path d="M 40.578125 39.3125 
Q 47.65625 37.796875 51.625 33 
Q 55.609375 28.21875 55.609375 21.1875 
Q 55.609375 10.40625 48.1875 4.484375 
Q 40.765625 -1.421875 27.09375 -1.421875 
Q 22.515625 -1.421875 17.65625 -0.515625 
Q 12.796875 0.390625 7.625 2.203125 
L 7.625 11.71875 
Q 11.71875 9.328125 16.59375 8.109375 
Q 21.484375 6.890625 26.8125 6.890625 
Q 36.078125 6.890625 40.9375 10.546875 
Q 45.796875 14.203125 45.796875 21.1875 
Q 45.796875 27.640625 41.28125 31.265625 
Q 36.765625 34.90625 28.71875 34.90625 
L 20.21875 34.90625 
L 20.21875 43.015625 
L 29.109375 43.015625 
Q 36.375 43.015625 40.234375 45.921875 
Q 44.09375 48.828125 44.09375 54.296875 
Q 44.09375 59.90625 40.109375 62.90625 
Q 36.140625 65.921875 28.71875 65.921875 
Q 24.65625 65.921875 20.015625 65.03125 
Q 15.375 64.15625 9.8125 62.3125 
L 9.8125 71.09375 
Q 15.4375 72.65625 20.34375 73.4375 
Q 25.25 74.21875 29.59375 74.21875 
Q 40.828125 74.21875 47.359375 69.109375 
Q 53.90625 64.015625 53.90625 55.328125 
Q 53.90625 49.265625 50.4375 45.09375 
Q 46.96875 40.921875 40.578125 39.3125 
z
" id="DejaVuSans-33"/>
    </defs>
    <g transform="translate(65.030375 86.068125)scale(0.12 -0.12)">
     <use xlink:href="#DejaVuSans-41"/>
     <use x="68.408203" xlink:href="#DejaVuSans-4e"/>
     <use x="143.212891" xlink:href="#DejaVuSans-44"/>
     <use x="220.214844" xlink:href="#DejaVuSans-33"/>
    </g>
   </g>
   <g id="text_8">
    <!-- NAND3 -->
    <g transform="translate(190.141625 86.068125)scale(0.12 -0.12)">
     <use xlink:href="#DejaVuSans-4e"/>
     <use x="74.804688" xlink:href="#DejaVuSans-41"/>
     <use x="143.212891" xlink:href="#DejaVuSans-4e"/>
     <use x="218.017578" xlink:href="#DejaVuSans-44"/>
     <use x="295.019531" xlink:href="#DejaVuSans-33"/>
    </g>
   </g>
   <g id="text_9">
    <!-- OR3 -->
    <g transform="translate(326.931312 86.068125)scale(0.12 -0.12)">
     <use xlink:href="#DejaVuSans-4f"/>
     <use x="78.710938" xlink:href="#DejaVuSans-52"/>
     <use x="148.193359" xlink:href="#DejaVuSans-33"/>
    </g>
   </g>
   <g id="text_10">
    <!-- NOR3 -->
    <g transform="translate(452.042562 86.068125)scale(0.12 -0.12)">
     <use xlink:href="#DejaVuSans-4e"/>
     <use x="74.804688" xlink:href="#DejaVuSans-4f"/>
     <use x="153.515625" xlink:href="#DejaVuSans-52"/>
     <use x="222.998047" xlink:href="#DejaVuSans-33"/>
    </g>
   </g>
   <g id="text_11">
    <!-- XOR3 -->
    <g transform="translate(584.456937 86.068125)scale(0.12 -0.12)">
     <use xlink:href="#DejaVuSans-58"/>
     <use x="68.412109" xlink:href="#DejaVuSans-4f"/>
     <use x="147.123047" xlink:href="#DejaVuSans-52"/>
     <use x="216.605469" xlink:href="#DejaVuSans-33"/>
    </g>
   </g>
   <g id="text_12">
    <!-- XNOR3 -->
    <g transform="translate(709.562562 86.068125)scale(0.12 -0.12)">
     <use xlink:href="#DejaVuSans-58"/>
     <use x="68.505859" xlink:href="#DejaVuSans-4e"/>
     <use x="143.310547" xlink:href="#DejaVuSans-4f"/>
     <use x="222.021484" xlink:href="#DejaVuSans-52"/>
     <use x="291.503906" xlink:href="#DejaVuSans-33"/>
    </g>
   </g>
  </g>
 </g>
 <defs>
  <clipPath id="p5847e5de17">
   <rect height="112.995" width="792.342" x="10.7" y="19.51125"/>
  </clipPath>
 </defs>
</svg>
