<?xml version="1.0" encoding="utf-8" standalone="no"?>
<!DOCTYPE svg PUBLIC "-//W3C//DTD SVG 1.1//EN"
  "http://www.w3.org/Graphics/SVG/1.1/DTD/svg11.dtd">
<!-- Created with matplotlib (https://matplotlib.org/) -->
<svg height="133.899375pt" version="1.1" viewBox="0 0 806.742 133.899375" width="806.742pt" xmlns="http://www.w3.org/2000/svg" xmlns:xlink="http://www.w3.org/1999/xlink">
 <defs>
  <style type="text/css">
*{stroke-linecap:butt;stroke-linejoin:round;}
  </style>
 </defs>
 <g id="figure_1">
  <g id="patch_1">
   <path d="M 0 133.899375 
L 806.742 133.899375 
L 806.742 0 
L 0 0 
z
" style="fill:none;"/>
  </g>
  <g id="axes_1">
   <g id="patch_2">
    <path clip-path="url(#p61552f0a1d)" d="M 228.249 38.674875 
C 229.28011 38.674875 230.269127 38.322109 230.998231 37.694269 
C 231.727336 37.066428 232.137 36.214775 232.137 35.326875 
C 232.137 34.438975 231.727336 33.587322 230.998231 32.959481 
C 230.269127 32.331641 229.28011 31.978875 228.249 31.978875 
C 227.21789 31.978875 226.228873 32.331641 225.499769 32.959481 
C 224.770664 33.587322 224.361 34.438975 224.361 35.326875 
C 224.361 36.214775 224.770664 37.066428 225.499769 37.694269 
C 226.228873 38.322109 227.21789 38.674875 228.249 38.674875 
z
" style="fill:none;stroke:#000000;stroke-linejoin:miter;stroke-width:1.5;"/>
   </g>
   <g id="patch_3">
    <path clip-path="url(#p61552f0a1d)" d="M 489.069 38.674875 
C 490.10011 38.674875 491.089127 38.322109 491.818231 37.694269 
C 492.547336 37.066428 492.957 36.214775 492.957 35.326875 
C 492.957 34.438975 492.547336 33.587322 491.818231 32.959481 
C 491.089127 32.331641 490.10011 31.978875 489.069 31.978875 
C 488.03789 31.978875 487.048873 32.331641 486.319769 32.959481 
C 485.590664 33.587322 485.181 34.438975 485.181 35.326875 
C 485.181 36.214775 485.590664 37.066428 486.319769 37.694269 
C 487.048873 38.322109 488.03789 38.674875 489.069 38.674875 
z
" style="fill:none;stroke:#000000;stroke-linejoin:miter;stroke-width:1.5;"/>
   </g>
   <g id="patch_4">
    <path clip-path="url(#p61552f0a1d)" d="M 753.129 38.674875 
C 754.16011 38.674875 755.149127 38.322109 755.878231 37.694269 
C 756.607336 37.066428 757.017 36.214775 757.017 35.326875 
C 757.017 34.438975 756.607336 33.587322 755.878231 32.959481 
C 755.149127 32.331641 754.16011 31.978875 753.129 31.978875 
C 752.09789 31.978875 751.108873 32.331641 750.379769 32.959481 
C 749.650664 33.587322 749.241 34.438975 749.241 35.326875 
C 749.241 36.214775 749.650664 37.066428 750.379769 37.694269 
C 751.108873 38.322109 752.09789 38.674875 753.129 38.674875 
z
" style="fill:none;stroke:#000000;stroke-linejoin:miter;stroke-width:1.5;"/>
   </g>
   <g id="patch_5">
    <path clip-path="url(#p61552f0a1d)" d="M 228.249 108.424875 
C 229.28011 108.424875 230.269127 108.072109 230.998231 107.444269 
C 231.727336 106.816428 232.137 105.964775 232.137 105.076875 
C 232.137 104.188975 231.727336 103.337322 230.998231 102.709481 
C 230.269127 102.081641 229.28011 101.728875 228.249 101.728875 
C 227.21789 101.728875 226.228873 102.081641 225.499769 102.709481 
C 224.770664 103.337322 224.361 104.188975 224.361 105.076875 
C 224.361 105.964775 224.770664 106.816428 225.499769 107.444269 
C 226.228873 108.072109 227.21789 108.424875 228.249 108.424875 
z
" style="fill:none;stroke:#000000;stroke-linejoin:miter;stroke-width:1.5;"/>
   </g>
   <g id="patch_6">
    <path clip-path="url(#p61552f0a1d)" d="M 489.069 108.424875 
C 490.10011 108.424875 491.089127 108.072109 491.818231 107.444269 
C 492.547336 106.816428 492.957 105.964775 492.957 105.076875 
C 492.957 104.188975 492.547336 103.337322 491.818231 102.709481 
C 491.089127 102.081641 490.10011 101.728875 489.069 101.728875 
C 488.03789 101.728875 487.048873 102.081641 486.319769 102.709481 
C 485.590664 103.337322 485.181 104.188975 485.181 105.076875 
C 485.181 105.964775 485.590664 106.816428 486.319769 107.444269 
C 487.048873 108.072109 488.03789 108.424875 489.069 108.424875 
z
" style="fill:none;stroke:#000000;stroke-linejoin:miter;stroke-width:1.5;"/>
   </g>
   <g id="patch_7">
    <path clip-path="url(#p61552f0a1d)" d="M 753.129 108.424875 
C 754.16011 108.424875 755.149127 108.072109 755.878231 107.444269 
C 756.607336 106.816428 757.017 105.964775 757.017 105.076875 
C 757.017 104.188975 756.607336 103.337322 755.878231 102.709481 
C 755.149127 102.081641 754.16011 101.728875 753.129 101.728875 
C 752.09789 101.728875 751.108873 102.081641 750.379769 102.709481 
C 749.650664 103.337322 749.241 104.188975 749.241 105.076875 
C 749.241 105.964775 749.650664 106.816428 750.379769 107.444269 
C 751.108873 108.072109 752.09789 108.424875 753.129 108.424875 
z
" style="fill:none;stroke:#000000;stroke-linejoin:miter;stroke-width:1.5;"/>
   </g>
   <g id="line2d_1">
    <path clip-path="url(#p61552f0a1d)" d="M 46.161 35.326875 
M 94.761 35.326875 
L 106.101 35.326875 
" style="fill:none;stroke:#000000;stroke-linecap:round;stroke-width:1.5;"/>
   </g>
   <g id="line2d_2">
    <path clip-path="url(#p61552f0a1d)" d="M 78.561 49.276875 
L 79.598938 49.248213 
L 80.63261 49.162346 
L 81.65777 49.019625 
L 82.670204 48.820638 
L 83.665753 48.566203 
L 84.640325 48.257364 
L 85.589917 47.895391 
L 86.510624 47.481771 
L 87.398665 47.018204 
L 88.250391 46.506595 
L 89.0623 45.949046 
L 89.831057 45.347848 
L 90.553504 44.705472 
L 91.22667 44.024558 
L 91.847791 43.307902 
L 92.414313 42.558451 
L 92.923909 41.779284 
L 93.374484 40.973603 
L 93.764188 40.144718 
L 94.091419 39.296035 
L 94.354832 38.431042 
L 94.553345 37.553294 
L 94.686142 36.666396 
L 94.752677 35.773995 
L 94.752677 34.879755 
L 94.686142 33.987354 
L 94.553345 33.100456 
L 94.354832 32.222708 
L 94.091419 31.357715 
L 93.764188 30.509032 
L 93.374484 29.680147 
L 92.923909 28.874466 
L 92.414313 28.095299 
L 91.847791 27.345848 
L 91.22667 26.629192 
L 90.553504 25.948278 
L 89.831057 25.305902 
L 89.0623 24.704704 
L 88.250391 24.147155 
L 87.398665 23.635546 
L 86.510624 23.171979 
L 85.589917 22.758359 
L 84.640325 22.396386 
L 83.665753 22.087547 
L 82.670204 21.833112 
L 81.65777 21.634125 
L 80.63261 21.491404 
L 79.598938 21.405537 
L 78.561 21.376875 
L 57.501 21.376875 
L 57.501 35.326875 
L 57.501 49.276875 
L 78.561 49.276875 
" style="fill:none;stroke:#000000;stroke-linecap:round;stroke-width:1.5;"/>
   </g>
   <g id="line2d_3">
    <path clip-path="url(#p61552f0a1d)" d="M 46.161 42.301875 
L 57.501 42.301875 
" style="fill:none;stroke:#000000;stroke-linecap:round;stroke-width:1.5;"/>
   </g>
   <g id="line2d_4">
    <path clip-path="url(#p61552f0a1d)" d="M 46.161 28.351875 
L 57.501 28.351875 
" style="fill:none;stroke:#000000;stroke-linecap:round;stroke-width:1.5;"/>
   </g>
   <g id="line2d_5">
    <path clip-path="url(#p61552f0a1d)" d="M 175.761 35.326875 
M 232.137 35.326875 
L 235.701 35.326875 
" style="fill:none;stroke:#000000;stroke-linecap:round;stroke-width:1.5;"/>
   </g>
   <g id="line2d_6">
    <path clip-path="url(#p61552f0a1d)" d="M 208.161 49.276875 
L 209.198938 49.248213 
L 210.23261 49.162346 
L 211.25777 49.019625 
L 212.270204 48.820638 
L 213.265753 48.566203 
L 214.240325 48.257364 
L 215.189917 47.895391 
L 216.110624 47.481771 
L 216.998665 47.018204 
L 217.850391 46.506595 
L 218.6623 45.949046 
L 219.431057 45.347848 
L 220.153504 44.705472 
L 220.82667 44.024558 
L 221.447791 43.307902 
L 222.014313 42.558451 
L 222.523909 41.779284 
L 222.974484 40.973603 
L 223.364188 40.144718 
L 223.691419 39.296035 
L 223.954832 38.431042 
L 224.153345 37.553294 
L 224.286142 36.666396 
L 224.352677 35.773995 
L 224.352677 34.879755 
L 224.286142 33.987354 
L 224.153345 33.100456 
L 223.954832 32.222708 
L 223.691419 31.357715 
L 223.364188 30.509032 
L 222.974484 29.680147 
L 222.523909 28.874466 
L 222.014313 28.095299 
L 221.447791 27.345848 
L 220.82667 26.629192 
L 220.153504 25.948278 
L 219.431057 25.305902 
L 218.6623 24.704704 
L 217.850391 24.147155 
L 216.998665 23.635546 
L 216.110624 23.171979 
L 215.189917 22.758359 
L 214.240325 22.396386 
L 213.265753 22.087547 
L 212.270204 21.833112 
L 211.25777 21.634125 
L 210.23261 21.491404 
L 209.198938 21.405537 
L 208.161 21.376875 
L 187.101 21.376875 
L 187.101 35.326875 
L 187.101 49.276875 
L 208.161 49.276875 
" style="fill:none;stroke:#000000;stroke-linecap:round;stroke-width:1.5;"/>
   </g>
   <g id="line2d_7">
    <path clip-path="url(#p61552f0a1d)" d="M 175.761 42.301875 
L 187.101 42.301875 
" style="fill:none;stroke:#000000;stroke-linecap:round;stroke-width:1.5;"/>
   </g>
   <g id="line2d_8">
    <path clip-path="url(#p61552f0a1d)" d="M 175.761 28.351875 
L 187.101 28.351875 
" style="fill:none;stroke:#000000;stroke-linecap:round;stroke-width:1.5;"/>
   </g>
   <g id="line2d_9">
    <path clip-path="url(#p61552f0a1d)" d="M 305.361 35.326875 
M 355.581 35.326875 
L 366.921 35.326875 
" style="fill:none;stroke:#000000;stroke-linecap:round;stroke-width:1.5;"/>
   </g>
   <g id="line2d_10">
    <path clip-path="url(#p61552f0a1d)" d="M 316.701 48.997875 
L 334.752429 48.906773 
L 336.603857 48.633467 
L 338.455286 48.177957 
L 340.769571 47.352344 
L 343.083857 46.242038 
L 345.398143 44.847038 
L 347.712429 43.167344 
L 350.026714 41.202957 
L 352.341 38.953875 
L 354.655286 36.420099 
L 355.581 35.326875 
L 355.581 35.326875 
L 352.803857 32.183855 
L 350.489571 29.877834 
L 348.175286 27.856508 
L 345.861 26.119875 
L 343.546714 24.667936 
L 341.232429 23.500691 
L 338.918143 22.61814 
L 336.603857 22.020283 
L 334.752429 21.746977 
L 332.901 21.655875 
L 316.701 21.655875 
L 316.701 21.655875 
L 319.0338 23.887875 
L 320.51124 25.561875 
L 321.7554 27.235875 
L 322.76628 28.909875 
L 323.54388 30.583875 
L 324.0882 32.257875 
L 324.39924 33.931875 
L 324.477 35.605875 
L 324.32148 37.279875 
L 323.93268 38.953875 
L 323.3106 40.627875 
L 322.45524 42.301875 
L 321.3666 43.975875 
L 320.04468 45.649875 
L 318.48948 47.323875 
L 316.701 48.997875 
L 316.701 48.997875 
" style="fill:none;stroke:#000000;stroke-linecap:round;stroke-width:1.5;"/>
   </g>
   <g id="line2d_11">
    <path clip-path="url(#p61552f0a1d)" d="M 305.361 42.301875 
L 322.45524 42.301875 
" style="fill:none;stroke:#000000;stroke-linecap:round;stroke-width:1.5;"/>
   </g>
   <g id="line2d_12">
    <path clip-path="url(#p61552f0a1d)" d="M 305.361 28.351875 
L 322.45524 28.351875 
" style="fill:none;stroke:#000000;stroke-linecap:round;stroke-width:1.5;"/>
   </g>
   <g id="line2d_13">
    <path clip-path="url(#p61552f0a1d)" d="M 434.961 35.326875 
M 492.957 35.326875 
L 496.521 35.326875 
" style="fill:none;stroke:#000000;stroke-linecap:round;stroke-width:1.5;"/>
   </g>
   <g id="line2d_14">
    <path clip-path="url(#p61552f0a1d)" d="M 446.301 48.997875 
L 464.352429 48.906773 
L 466.203857 48.633467 
L 468.055286 48.177957 
L 470.369571 47.352344 
L 472.683857 46.242038 
L 474.998143 44.847038 
L 477.312429 43.167344 
L 479.626714 41.202957 
L 481.941 38.953875 
L 484.255286 36.420099 
L 485.181 35.326875 
L 485.181 35.326875 
L 482.403857 32.183855 
L 480.089571 29.877834 
L 477.775286 27.856508 
L 475.461 26.119875 
L 473.146714 24.667936 
L 470.832429 23.500691 
L 468.518143 22.61814 
L 466.203857 22.020283 
L 464.352429 21.746977 
L 462.501 21.655875 
L 446.301 21.655875 
L 446.301 21.655875 
L 448.6338 23.887875 
L 450.11124 25.561875 
L 451.3554 27.235875 
L 452.36628 28.909875 
L 453.14388 30.583875 
L 453.6882 32.257875 
L 453.99924 33.931875 
L 454.077 35.605875 
L 453.92148 37.279875 
L 453.53268 38.953875 
L 452.9106 40.627875 
L 452.05524 42.301875 
L 450.9666 43.975875 
L 449.64468 45.649875 
L 448.08948 47.323875 
L 446.301 48.997875 
L 446.301 48.997875 
" style="fill:none;stroke:#000000;stroke-linecap:round;stroke-width:1.5;"/>
   </g>
   <g id="line2d_15">
    <path clip-path="url(#p61552f0a1d)" d="M 434.961 42.301875 
L 452.05524 42.301875 
" style="fill:none;stroke:#000000;stroke-linecap:round;stroke-width:1.5;"/>
   </g>
   <g id="line2d_16">
    <path clip-path="url(#p61552f0a1d)" d="M 434.961 28.351875 
L 452.05524 28.351875 
" style="fill:none;stroke:#000000;stroke-linecap:round;stroke-width:1.5;"/>
   </g>
   <g id="line2d_17">
    <path clip-path="url(#p61552f0a1d)" d="M 564.561 35.326875 
M 619.641 35.326875 
L 630.981 35.326875 
" style="fill:none;stroke:#000000;stroke-linecap:round;stroke-width:1.5;"/>
   </g>
   <g id="line2d_18">
    <path clip-path="url(#p61552f0a1d)" d="M 580.761 48.997875 
L 598.812429 48.906773 
L 600.663857 48.633467 
L 602.515286 48.177957 
L 604.829571 47.352344 
L 607.143857 46.242038 
L 609.458143 44.847038 
L 611.772429 43.167344 
L 614.086714 41.202957 
L 616.401 38.953875 
L 618.715286 36.420099 
L 619.641 35.326875 
L 619.641 35.326875 
L 616.863857 32.183855 
L 614.549571 29.877834 
L 612.235286 27.856508 
L 609.921 26.119875 
L 607.606714 24.667936 
L 605.292429 23.500691 
L 602.978143 22.61814 
L 600.663857 22.020283 
L 598.812429 21.746977 
L 596.961 21.655875 
L 580.761 21.655875 
L 580.761 21.655875 
L 583.0938 23.887875 
L 584.57124 25.561875 
L 585.8154 27.235875 
L 586.82628 28.909875 
L 587.60388 30.583875 
L 588.1482 32.257875 
L 588.45924 33.931875 
L 588.537 35.605875 
L 588.38148 37.279875 
L 587.99268 38.953875 
L 587.3706 40.627875 
L 586.51524 42.301875 
L 585.4266 43.975875 
L 584.10468 45.649875 
L 582.54948 47.323875 
L 580.761 48.997875 
L 580.761 48.997875 
" style="fill:none;stroke:#000000;stroke-linecap:round;stroke-width:1.5;"/>
   </g>
   <g id="line2d_19">
    <path clip-path="url(#p61552f0a1d)" d="M 575.901 48.997875 
L 576.52308 48.439875 
L 577.11924 47.881875 
L 577.68948 47.323875 
L 578.2338 46.765875 
L 578.7522 46.207875 
L 579.24468 45.649875 
L 579.71124 45.091875 
L 580.15188 44.533875 
L 580.5666 43.975875 
L 580.9554 43.417875 
L 581.31828 42.859875 
L 581.65524 42.301875 
L 581.96628 41.743875 
L 582.2514 41.185875 
L 582.5106 40.627875 
L 582.74388 40.069875 
L 582.95124 39.511875 
L 583.13268 38.953875 
L 583.2882 38.395875 
L 583.4178 37.837875 
L 583.52148 37.279875 
L 583.59924 36.721875 
L 583.65108 36.163875 
L 583.677 35.605875 
L 583.677 35.047875 
L 583.65108 34.489875 
L 583.59924 33.931875 
L 583.52148 33.373875 
L 583.4178 32.815875 
L 583.2882 32.257875 
L 583.13268 31.699875 
L 582.95124 31.141875 
L 582.74388 30.583875 
L 582.5106 30.025875 
L 582.2514 29.467875 
L 581.96628 28.909875 
L 581.65524 28.351875 
L 581.31828 27.793875 
L 580.9554 27.235875 
L 580.5666 26.677875 
L 580.15188 26.119875 
L 579.71124 25.561875 
L 579.24468 25.003875 
L 578.7522 24.445875 
L 578.2338 23.887875 
L 577.68948 23.329875 
L 577.11924 22.771875 
L 576.52308 22.213875 
L 575.901 21.655875 
" style="fill:none;stroke:#000000;stroke-linecap:round;stroke-width:1.5;"/>
   </g>
   <g id="line2d_20">
    <path clip-path="url(#p61552f0a1d)" d="M 564.561 42.301875 
L 581.65524 42.301875 
" style="fill:none;stroke:#000000;stroke-linecap:round;stroke-width:1.5;"/>
   </g>
   <g id="line2d_21">
    <path clip-path="url(#p61552f0a1d)" d="M 564.561 28.351875 
L 581.65524 28.351875 
" style="fill:none;stroke:#000000;stroke-linecap:round;stroke-width:1.5;"/>
   </g>
   <g id="line2d_22">
    <path clip-path="url(#p61552f0a1d)" d="M 694.161 35.326875 
M 757.017 35.326875 
L 760.581 35.326875 
" style="fill:none;stroke:#000000;stroke-linecap:round;stroke-width:1.5;"/>
   </g>
   <g id="line2d_23">
    <path clip-path="url(#p61552f0a1d)" d="M 710.361 48.997875 
L 728.412429 48.906773 
L 730.263857 48.633467 
L 732.115286 48.177957 
L 734.429571 47.352344 
L 736.743857 46.242038 
L 739.058143 44.847038 
L 741.372429 43.167344 
L 743.686714 41.202957 
L 746.001 38.953875 
L 748.315286 36.420099 
L 749.241 35.326875 
L 749.241 35.326875 
L 746.463857 32.183855 
L 744.149571 29.877834 
L 741.835286 27.856508 
L 739.521 26.119875 
L 737.206714 24.667936 
L 734.892429 23.500691 
L 732.578143 22.61814 
L 730.263857 22.020283 
L 728.412429 21.746977 
L 726.561 21.655875 
L 710.361 21.655875 
L 710.361 21.655875 
L 712.6938 23.887875 
L 714.17124 25.561875 
L 715.4154 27.235875 
L 716.42628 28.909875 
L 717.20388 30.583875 
L 717.7482 32.257875 
L 718.05924 33.931875 
L 718.137 35.605875 
L 717.98148 37.279875 
L 717.59268 38.953875 
L 716.9706 40.627875 
L 716.11524 42.301875 
L 715.0266 43.975875 
L 713.70468 45.649875 
L 712.14948 47.323875 
L 710.361 48.997875 
L 710.361 48.997875 
" style="fill:none;stroke:#000000;stroke-linecap:round;stroke-width:1.5;"/>
   </g>
   <g id="line2d_24">
    <path clip-path="url(#p61552f0a1d)" d="M 705.501 48.997875 
L 706.12308 48.439875 
L 706.71924 47.881875 
L 707.28948 47.323875 
L 707.8338 46.765875 
L 708.3522 46.207875 
L 708.84468 45.649875 
L 709.31124 45.091875 
L 709.75188 44.533875 
L 710.1666 43.975875 
L 710.5554 43.417875 
L 710.91828 42.859875 
L 711.25524 42.301875 
L 711.56628 41.743875 
L 711.8514 41.185875 
L 712.1106 40.627875 
L 712.34388 40.069875 
L 712.55124 39.511875 
L 712.73268 38.953875 
L 712.8882 38.395875 
L 713.0178 37.837875 
L 713.12148 37.279875 
L 713.19924 36.721875 
L 713.25108 36.163875 
L 713.277 35.605875 
L 713.277 35.047875 
L 713.25108 34.489875 
L 713.19924 33.931875 
L 713.12148 33.373875 
L 713.0178 32.815875 
L 712.8882 32.257875 
L 712.73268 31.699875 
L 712.55124 31.141875 
L 712.34388 30.583875 
L 712.1106 30.025875 
L 711.8514 29.467875 
L 711.56628 28.909875 
L 711.25524 28.351875 
L 710.91828 27.793875 
L 710.5554 27.235875 
L 710.1666 26.677875 
L 709.75188 26.119875 
L 709.31124 25.561875 
L 708.84468 25.003875 
L 708.3522 24.445875 
L 707.8338 23.887875 
L 707.28948 23.329875 
L 706.71924 22.771875 
L 706.12308 22.213875 
L 705.501 21.655875 
" style="fill:none;stroke:#000000;stroke-linecap:round;stroke-width:1.5;"/>
   </g>
   <g id="line2d_25">
    <path clip-path="url(#p61552f0a1d)" d="M 694.161 42.301875 
L 711.25524 42.301875 
" style="fill:none;stroke:#000000;stroke-linecap:round;stroke-width:1.5;"/>
   </g>
   <g id="line2d_26">
    <path clip-path="url(#p61552f0a1d)" d="M 694.161 28.351875 
L 711.25524 28.351875 
" style="fill:none;stroke:#000000;stroke-linecap:round;stroke-width:1.5;"/>
   </g>
   <g id="line2d_27">
    <path clip-path="url(#p61552f0a1d)" d="M 46.161 105.076875 
M 94.761 105.076875 
L 106.101 105.076875 
" style="fill:none;stroke:#000000;stroke-linecap:round;stroke-width:1.5;"/>
   </g>
   <g id="line2d_28">
    <path clip-path="url(#p61552f0a1d)" d="M 78.561 119.026875 
L 79.598938 118.998213 
L 80.63261 118.912346 
L 81.65777 118.769625 
L 82.670204 118.570638 
L 83.665753 118.316203 
L 84.640325 118.007364 
L 85.589917 117.645391 
L 86.510624 117.231771 
L 87.398665 116.768204 
L 88.250391 116.256595 
L 89.0623 115.699046 
L 89.831057 115.097848 
L 90.553504 114.455472 
L 91.22667 113.774558 
L 91.847791 113.057902 
L 92.414313 112.308451 
L 92.923909 111.529284 
L 93.374484 110.723603 
L 93.764188 109.894718 
L 94.091419 109.046035 
L 94.354832 108.181042 
L 94.553345 107.303294 
L 94.686142 106.416396 
L 94.752677 105.523995 
L 94.752677 104.629755 
L 94.686142 103.737354 
L 94.553345 102.850456 
L 94.354832 101.972708 
L 94.091419 101.107715 
L 93.764188 100.259032 
L 93.374484 99.430147 
L 92.923909 98.624466 
L 92.414313 97.845299 
L 91.847791 97.095848 
L 91.22667 96.379192 
L 90.553504 95.698278 
L 89.831057 95.055902 
L 89.0623 94.454704 
L 88.250391 93.897155 
L 87.398665 93.385546 
L 86.510624 92.921979 
L 85.589917 92.508359 
L 84.640325 92.146386 
L 83.665753 91.837547 
L 82.670204 91.583112 
L 81.65777 91.384125 
L 80.63261 91.241404 
L 79.598938 91.155537 
L 78.561 91.126875 
L 57.501 91.126875 
L 57.501 105.076875 
L 57.501 119.026875 
L 78.561 119.026875 
" style="fill:none;stroke:#000000;stroke-linecap:round;stroke-width:1.5;"/>
   </g>
   <g id="line2d_29">
    <path clip-path="url(#p61552f0a1d)" d="M 46.161 114.283875 
L 57.501 114.283875 
" style="fill:none;stroke:#000000;stroke-linecap:round;stroke-width:1.5;"/>
   </g>
   <g id="line2d_30">
    <path clip-path="url(#p61552f0a1d)" d="M 46.161 105.076875 
L 57.501 105.076875 
" style="fill:none;stroke:#000000;stroke-linecap:round;stroke-width:1.5;"/>
   </g>
   <g id="line2d_31">
    <path clip-path="url(#p61552f0a1d)" d="M 46.161 95.869875 
L 57.501 95.869875 
" style="fill:none;stroke:#000000;stroke-linecap:round;stroke-width:1.5;"/>
   </g>
   <g id="line2d_32">
    <path clip-path="url(#p61552f0a1d)" d="M 175.761 105.076875 
M 232.137 105.076875 
L 235.701 105.076875 
" style="fill:none;stroke:#000000;stroke-linecap:round;stroke-width:1.5;"/>
   </g>
   <g id="line2d_33">
    <path clip-path="url(#p61552f0a1d)" d="M 208.161 119.026875 
L 209.198938 118.998213 
L 210.23261 118.912346 
L 211.25777 118.769625 
L 212.270204 118.570638 
L 213.265753 118.316203 
L 214.240325 118.007364 
L 215.189917 117.645391 
L 216.110624 117.231771 
L 216.998665 116.768204 
L 217.850391 116.256595 
L 218.6623 115.699046 
L 219.431057 115.097848 
L 220.153504 114.455472 
L 220.82667 113.774558 
L 221.447791 113.057902 
L 222.014313 112.308451 
L 222.523909 111.529284 
L 222.974484 110.723603 
L 223.364188 109.894718 
L 223.691419 109.046035 
L 223.954832 108.181042 
L 224.153345 107.303294 
L 224.286142 106.416396 
L 224.352677 105.523995 
L 224.352677 104.629755 
L 224.286142 103.737354 
L 224.153345 102.850456 
L 223.954832 101.972708 
L 223.691419 101.107715 
L 223.364188 100.259032 
L 222.974484 99.430147 
L 222.523909 98.624466 
L 222.014313 97.845299 
L 221.447791 97.095848 
L 220.82667 96.379192 
L 220.153504 95.698278 
L 219.431057 95.055902 
L 218.6623 94.454704 
L 217.850391 93.897155 
L 216.998665 93.385546 
L 216.110624 92.921979 
L 215.189917 92.508359 
L 214.240325 92.146386 
L 213.265753 91.837547 
L 212.270204 91.583112 
L 211.25777 91.384125 
L 210.23261 91.241404 
L 209.198938 91.155537 
L 208.161 91.126875 
L 187.101 91.126875 
L 187.101 105.076875 
L 187.101 119.026875 
L 208.161 119.026875 
" style="fill:none;stroke:#000000;stroke-linecap:round;stroke-width:1.5;"/>
   </g>
   <g id="line2d_34">
    <path clip-path="url(#p61552f0a1d)" d="M 175.761 114.283875 
L 187.101 114.283875 
" style="fill:none;stroke:#000000;stroke-linecap:round;stroke-width:1.5;"/>
   </g>
   <g id="line2d_35">
    <path clip-path="url(#p61552f0a1d)" d="M 175.761 105.076875 
L 187.101 105.076875 
" style="fill:none;stroke:#000000;stroke-linecap:round;stroke-width:1.5;"/>
   </g>
   <g id="line2d_36">
    <path clip-path="url(#p61552f0a1d)" d="M 175.761 95.869875 
L 187.101 95.869875 
" style="fill:none;stroke:#000000;stroke-linecap:round;stroke-width:1.5;"/>
   </g>
   <g id="line2d_37">
    <path clip-path="url(#p61552f0a1d)" d="M 305.361 105.076875 
M 355.581 105.076875 
L 366.921 105.076875 
" style="fill:none;stroke:#000000;stroke-linecap:round;stroke-width:1.5;"/>
   </g>
   <g id="line2d_38">
    <path clip-path="url(#p61552f0a1d)" d="M 316.701 118.747875 
L 334.752429 118.656773 
L 336.603857 118.383467 
L 338.455286 117.927957 
L 340.769571 117.102344 
L 343.083857 115.992038 
L 345.398143 114.597038 
L 347.712429 112.917344 
L 350.026714 110.952957 
L 352.341 108.703875 
L 354.655286 106.170099 
L 355.581 105.076875 
L 355.581 105.076875 
L 352.803857 101.933855 
L 350.489571 99.627834 
L 348.175286 97.606508 
L 345.861 95.869875 
L 343.546714 94.417936 
L 341.232429 93.250691 
L 338.918143 92.36814 
L 336.603857 91.770283 
L 334.752429 91.496977 
L 332.901 91.405875 
L 316.701 91.405875 
L 316.701 91.405875 
L 319.0338 93.637875 
L 320.51124 95.311875 
L 321.7554 96.985875 
L 322.76628 98.659875 
L 323.54388 100.333875 
L 324.0882 102.007875 
L 324.39924 103.681875 
L 324.477 105.355875 
L 324.32148 107.029875 
L 323.93268 108.703875 
L 323.3106 110.377875 
L 322.45524 112.051875 
L 321.3666 113.725875 
L 320.04468 115.399875 
L 318.48948 117.073875 
L 316.701 118.747875 
L 316.701 118.747875 
" style="fill:none;stroke:#000000;stroke-linecap:round;stroke-width:1.5;"/>
   </g>
   <g id="line2d_39">
    <path clip-path="url(#p61552f0a1d)" d="M 305.361 114.283875 
L 320.95188 114.283875 
" style="fill:none;stroke:#000000;stroke-linecap:round;stroke-width:1.5;"/>
   </g>
   <g id="line2d_40">
    <path clip-path="url(#p61552f0a1d)" d="M 305.361 105.076875 
L 324.48024 105.076875 
" style="fill:none;stroke:#000000;stroke-linecap:round;stroke-width:1.5;"/>
   </g>
   <g id="line2d_41">
    <path clip-path="url(#p61552f0a1d)" d="M 305.361 95.869875 
L 320.95188 95.869875 
" style="fill:none;stroke:#000000;stroke-linecap:round;stroke-width:1.5;"/>
   </g>
   <g id="line2d_42">
    <path clip-path="url(#p61552f0a1d)" d="M 434.961 105.076875 
M 492.957 105.076875 
L 496.521 105.076875 
" style="fill:none;stroke:#000000;stroke-linecap:round;stroke-width:1.5;"/>
   </g>
   <g id="line2d_43">
    <path clip-path="url(#p61552f0a1d)" d="M 446.301 118.747875 
L 464.352429 118.656773 
L 466.203857 118.383467 
L 468.055286 117.927957 
L 470.369571 117.102344 
L 472.683857 115.992038 
L 474.998143 114.597038 
L 477.312429 112.917344 
L 479.626714 110.952957 
L 481.941 108.703875 
L 484.255286 106.170099 
L 485.181 105.076875 
L 485.181 105.076875 
L 482.403857 101.933855 
L 480.089571 99.627834 
L 477.775286 97.606508 
L 475.461 95.869875 
L 473.146714 94.417936 
L 470.832429 93.250691 
L 468.518143 92.36814 
L 466.203857 91.770283 
L 464.352429 91.496977 
L 462.501 91.405875 
L 446.301 91.405875 
L 446.301 91.405875 
L 448.6338 93.637875 
L 450.11124 95.311875 
L 451.3554 96.985875 
L 452.36628 98.659875 
L 453.14388 100.333875 
L 453.6882 102.007875 
L 453.99924 103.681875 
L 454.077 105.355875 
L 453.92148 107.029875 
L 453.53268 108.703875 
L 452.9106 110.377875 
L 452.05524 112.051875 
L 450.9666 113.725875 
L 449.64468 115.399875 
L 448.08948 117.073875 
L 446.301 118.747875 
L 446.301 118.747875 
" style="fill:none;stroke:#000000;stroke-linecap:round;stroke-width:1.5;"/>
   </g>
   <g id="line2d_44">
    <path clip-path="url(#p61552f0a1d)" d="M 434.961 114.283875 
L 450.55188 114.283875 
" style="fill:none;stroke:#000000;stroke-linecap:round;stroke-width:1.5;"/>
   </g>
   <g id="line2d_45">
    <path clip-path="url(#p61552f0a1d)" d="M 434.961 105.076875 
L 454.08024 105.076875 
" style="fill:none;stroke:#000000;stroke-linecap:round;stroke-width:1.5;"/>
   </g>
   <g id="line2d_46">
    <path clip-path="url(#p61552f0a1d)" d="M 434.961 95.869875 
L 450.55188 95.869875 
" style="fill:none;stroke:#000000;stroke-linecap:round;stroke-width:1.5;"/>
   </g>
   <g id="line2d_47">
    <path clip-path="url(#p61552f0a1d)" d="M 564.561 105.076875 
M 619.641 105.076875 
L 630.981 105.076875 
" style="fill:none;stroke:#000000;stroke-linecap:round;stroke-width:1.5;"/>
   </g>
   <g id="line2d_48">
    <path clip-path="url(#p61552f0a1d)" d="M 580.761 118.747875 
L 598.812429 118.656773 
L 600.663857 118.383467 
L 602.515286 117.927957 
L 604.829571 117.102344 
L 607.143857 115.992038 
L 609.458143 114.597038 
L 611.772429 112.917344 
L 614.086714 110.952957 
L 616.401 108.703875 
L 618.715286 106.170099 
L 619.641 105.076875 
L 619.641 105.076875 
L 616.863857 101.933855 
L 614.549571 99.627834 
L 612.235286 97.606508 
L 609.921 95.869875 
L 607.606714 94.417936 
L 605.292429 93.250691 
L 602.978143 92.36814 
L 600.663857 91.770283 
L 598.812429 91.496977 
L 596.961 91.405875 
L 580.761 91.405875 
L 580.761 91.405875 
L 583.0938 93.637875 
L 584.57124 95.311875 
L 585.8154 96.985875 
L 586.82628 98.659875 
L 587.60388 100.333875 
L 588.1482 102.007875 
L 588.45924 103.681875 
L 588.537 105.355875 
L 588.38148 107.029875 
L 587.99268 108.703875 
L 587.3706 110.377875 
L 586.51524 112.051875 
L 585.4266 113.725875 
L 584.10468 115.399875 
L 582.54948 117.073875 
L 580.761 118.747875 
L 580.761 118.747875 
" style="fill:none;stroke:#000000;stroke-linecap:round;stroke-width:1.5;"/>
   </g>
   <g id="line2d_49">
    <path clip-path="url(#p61552f0a1d)" d="M 575.901 118.747875 
L 576.52308 118.189875 
L 577.11924 117.631875 
L 577.68948 117.073875 
L 578.2338 116.515875 
L 578.7522 115.957875 
L 579.24468 115.399875 
L 579.71124 114.841875 
L 580.15188 114.283875 
L 580.5666 113.725875 
L 580.9554 113.167875 
L 581.31828 112.609875 
L 581.65524 112.051875 
L 581.96628 111.493875 
L 582.2514 110.935875 
L 582.5106 110.377875 
L 582.74388 109.819875 
L 582.95124 109.261875 
L 583.13268 108.703875 
L 583.2882 108.145875 
L 583.4178 107.587875 
L 583.52148 107.029875 
L 583.59924 106.471875 
L 583.65108 105.913875 
L 583.677 105.355875 
L 583.677 104.797875 
L 583.65108 104.239875 
L 583.59924 103.681875 
L 583.52148 103.123875 
L 583.4178 102.565875 
L 583.2882 102.007875 
L 583.13268 101.449875 
L 582.95124 100.891875 
L 582.74388 100.333875 
L 582.5106 99.775875 
L 582.2514 99.217875 
L 581.96628 98.659875 
L 581.65524 98.101875 
L 581.31828 97.543875 
L 580.9554 96.985875 
L 580.5666 96.427875 
L 580.15188 95.869875 
L 579.71124 95.311875 
L 579.24468 94.753875 
L 578.7522 94.195875 
L 578.2338 93.637875 
L 577.68948 93.079875 
L 577.11924 92.521875 
L 576.52308 91.963875 
L 575.901 91.405875 
" style="fill:none;stroke:#000000;stroke-linecap:round;stroke-width:1.5;"/>
   </g>
   <g id="line2d_50">
    <path clip-path="url(#p61552f0a1d)" d="M 564.561 114.283875 
L 580.15188 114.283875 
" style="fill:none;stroke:#000000;stroke-linecap:round;stroke-width:1.5;"/>
   </g>
   <g id="line2d_51">
    <path clip-path="url(#p61552f0a1d)" d="M 564.561 105.076875 
L 583.68024 105.076875 
" style="fill:none;stroke:#000000;stroke-linecap:round;stroke-width:1.5;"/>
   </g>
   <g id="line2d_52">
    <path clip-path="url(#p61552f0a1d)" d="M 564.561 95.869875 
L 580.15188 95.869875 
" style="fill:none;stroke:#000000;stroke-linecap:round;stroke-width:1.5;"/>
   </g>
   <g id="line2d_53">
    <path clip-path="url(#p61552f0a1d)" d="M 694.161 105.076875 
M 757.017 105.076875 
L 760.581 105.076875 
" style="fill:none;stroke:#000000;stroke-linecap:round;stroke-width:1.5;"/>
   </g>
   <g id="line2d_54">
    <path clip-path="url(#p61552f0a1d)" d="M 710.361 118.747875 
L 728.412429 118.656773 
L 730.263857 118.383467 
L 732.115286 117.927957 
L 734.429571 117.102344 
L 736.743857 115.992038 
L 739.058143 114.597038 
L 741.372429 112.917344 
L 743.686714 110.952957 
L 746.001 108.703875 
L 748.315286 106.170099 
L 749.241 105.076875 
L 749.241 105.076875 
L 746.463857 101.933855 
L 744.149571 99.627834 
L 741.835286 97.606508 
L 739.521 95.869875 
L 737.206714 94.417936 
L 734.892429 93.250691 
L 732.578143 92.36814 
L 730.263857 91.770283 
L 728.412429 91.496977 
L 726.561 91.405875 
L 710.361 91.405875 
L 710.361 91.405875 
L 712.6938 93.637875 
L 714.17124 95.311875 
L 715.4154 96.985875 
L 716.42628 98.659875 
L 717.20388 100.333875 
L 717.7482 102.007875 
L 718.05924 103.681875 
L 718.137 105.355875 
L 717.98148 107.029875 
L 717.59268 108.703875 
L 716.9706 110.377875 
L 716.11524 112.051875 
L 715.0266 113.725875 
L 713.70468 115.399875 
L 712.14948 117.073875 
L 710.361 118.747875 
L 710.361 118.747875 
" style="fill:none;stroke:#000000;stroke-linecap:round;stroke-width:1.5;"/>
   </g>
   <g id="line2d_55">
    <path clip-path="url(#p61552f0a1d)" d="M 705.501 118.747875 
L 706.12308 118.189875 
L 706.71924 117.631875 
L 707.28948 117.073875 
L 707.8338 116.515875 
L 708.3522 115.957875 
L 708.84468 115.399875 
L 709.31124 114.841875 
L 709.75188 114.283875 
L 710.1666 113.725875 
L 710.5554 113.167875 
L 710.91828 112.609875 
L 711.25524 112.051875 
L 711.56628 111.493875 
L 711.8514 110.935875 
L 712.1106 110.377875 
L 712.34388 109.819875 
L 712.55124 109.261875 
L 712.73268 108.703875 
L 712.8882 108.145875 
L 713.0178 107.587875 
L 713.12148 107.029875 
L 713.19924 106.471875 
L 713.25108 105.913875 
L 713.277 105.355875 
L 713.277 104.797875 
L 713.25108 104.239875 
L 713.19924 103.681875 
L 713.12148 103.123875 
L 713.0178 102.565875 
L 712.8882 102.007875 
L 712.73268 101.449875 
L 712.55124 100.891875 
L 712.34388 100.333875 
L 712.1106 99.775875 
L 711.8514 99.217875 
L 711.56628 98.659875 
L 711.25524 98.101875 
L 710.91828 97.543875 
L 710.5554 96.985875 
L 710.1666 96.427875 
L 709.75188 95.869875 
L 709.31124 95.311875 
L 708.84468 94.753875 
L 708.3522 94.195875 
L 707.8338 93.637875 
L 707.28948 93.079875 
L 706.71924 92.521875 
L 706.12308 91.963875 
L 705.501 91.405875 
" style="fill:none;stroke:#000000;stroke-linecap:round;stroke-width:1.5;"/>
   </g>
   <g id="line2d_56">
    <path clip-path="url(#p61552f0a1d)" d="M 694.161 114.283875 
L 709.75188 114.283875 
" style="fill:none;stroke:#000000;stroke-linecap:round;stroke-width:1.5;"/>
   </g>
   <g id="line2d_57">
    <path clip-path="url(#p61552f0a1d)" d="M 694.161 105.076875 
L 713.28024 105.076875 
" style="fill:none;stroke:#000000;stroke-linecap:round;stroke-width:1.5;"/>
   </g>
   <g id="line2d_58">
    <path clip-path="url(#p61552f0a1d)" d="M 694.161 95.869875 
L 709.75188 95.869875 
" style="fill:none;stroke:#000000;stroke-linecap:round;stroke-width:1.5;"/>
   </g>
   <g id="text_1">
    <!-- AND2 -->
    <defs>
     <path d="M 34.1875 63.1875 
L 20.796875 26.90625 
L 47.609375 26.90625 
z
M 28.609375 72.90625 
L 39.796875 72.90625 
L 67.578125 0 
L 57.328125 0 
L 50.6875 18.703125 
L 17.828125 18.703125 
L 11.1875 0 
L 0.78125 0 
z
" id="DejaVuSans-65"/>
     <path d="M 9.8125 72.90625 
L 23.09375 72.90625 
L 55.421875 11.921875 
L 55.421875 72.90625 
L 64.984375 72.90625 
L 64.984375 0 
L 51.703125 0 
L 19.390625 60.984375 
L 19.390625 0 
L 9.8125 0 
z
" id="DejaVuSans-78"/>
     <path d="M 19.671875 64.796875 
L 19.671875 8.109375 
L 31.59375 8.109375 
Q 46.6875 8.109375 53.6875 14.9375 
Q 60.6875 21.78125 60.6875 36.53125 
Q 60.6875 51.171875 53.6875 57.984375 
Q 46.6875 64.796875 31.59375 64.796875 
z
M 9.8125 72.90625 
L 30.078125 72.90625 
Q 51.265625 72.90625 61.171875 64.09375 
Q 71.09375 55.28125 71.09375 36.53125 
Q 71.09375 17.671875 61.125 8.828125 
Q 51.171875 0 30.078125 0 
L 9.8125 0 
z
" id="DejaVuSans-68"/>
     <path d="M 19.1875 8.296875 
L 53.609375 8.296875 
L 53.609375 0 
L 7.328125 0 
L 7.328125 8.296875 
Q 12.9375 14.109375 22.625 23.890625 
Q 32.328125 33.6875 34.8125 36.53125 
Q 39.546875 41.84375 41.421875 45.53125 
Q 43.3125 49.21875 43.3125 52.78125 
Q 43.3125 58.59375 39.234375 62.25 
Q 35.15625 65.921875 28.609375 65.921875 
Q 23.96875 65.921875 18.8125 64.3125 
Q 13.671875 62.703125 7.8125 59.421875 
L 7.8125 69.390625 
Q 13.765625 71.78125 18.9375 73 
Q 24.125 74.21875 28.421875 74.21875 
Q 39.75 74.21875 46.484375 68.546875 
Q 53.21875 62.890625 53.21875 53.421875 
Q 53.21875 48.921875 51.53125 44.890625 
Q 49.859375 40.875 45.40625 35.40625 
Q 44.1875 33.984375 37.640625 27.21875 
Q 31.109375 20.453125 19.1875 8.296875 
z
" id="DejaVuSans-50"/>
    </defs>
    <g transform="translate(59.100375 16.318125)scale(0.12 -0.12)">
     <use xlink:href="#DejaVuSans-65"/>
     <use x="68.408203" xlink:href="#DejaVuSans-78"/>
     <use x="143.212891" xlink:href="#DejaVuSans-68"/>
     <use x="220.214844" xlink:href="#DejaVuSans-50"/>
    </g>
   </g>
   <g id="text_2">
    <!-- NAND2 -->
    <g transform="translate(184.211625 16.318125)scale(0.12 -0.12)">
     <use xlink:href="#DejaVuSans-78"/>
     <use x="74.804688" xlink:href="#DejaVuSans-65"/>
     <use x="143.212891" xlink:href="#DejaVuSans-78"/>
     <use x="218.017578" xlink:href="#DejaVuSans-68"/>
     <use x="295.019531" xlink:href="#DejaVuSans-50"/>
    </g>
   </g>
   <g id="text_3">
    <!-- OR2 -->
    <defs>
     <path d="M 39.40625 66.21875 
Q 28.65625 66.21875 22.328125 58.203125 
Q 16.015625 50.203125 16.015625 36.375 
Q 16.015625 22.609375 22.328125 14.59375 
Q 28.65625 6.59375 39.40625 6.59375 
Q 50.140625 6.59375 56.421875 14.59375 
Q 62.703125 22.609375 62.703125 36.375 
Q 62.703125 50.203125 56.421875 58.203125 
Q 50.140625 66.21875 39.40625 66.21875 
z
M 39.40625 74.21875 
Q 54.734375 74.21875 63.90625 63.9375 
Q 73.09375 53.65625 73.09375 36.375 
Q 73.09375 19.140625 63.90625 8.859375 
Q 54.734375 -1.421875 39.40625 -1.421875 
Q 24.03125 -1.421875 14.8125 8.828125 
Q 5.609375 19.09375 5.609375 36.375 
Q 5.609375 53.65625 14.8125 63.9375 
Q 24.03125 74.21875 39.40625 74.21875 
z
" id="DejaVuSans-79"/>
     <path d="M 44.390625 34.1875 
Q 47.5625 33.109375 50.5625 29.59375 
Q 53.5625 26.078125 56.59375 19.921875 
L 66.609375 0 
L 56 0 
L 46.6875 18.703125 
Q 43.0625 26.03125 39.671875 28.421875 
Q 36.28125 30.8125 30.421875 30.8125 
L 19.671875 30.8125 
L 19.671875 0 
L 9.8125 0 
L 9.8125 72.90625 
L 32.078125 72.90625 
Q 44.578125 72.90625 50.734375 67.671875 
Q 56.890625 62.453125 56.890625 51.90625 
Q 56.890625 45.015625 53.6875 40.46875 
Q 50.484375 35.9375 44.390625 34.1875 
z
M 19.671875 64.796875 
L 19.671875 38.921875 
L 32.078125 38.921875 
Q 39.203125 38.921875 42.84375 42.21875 
Q 46.484375 45.515625 46.484375 51.90625 
Q 46.484375 58.296875 42.84375 61.546875 
Q 39.203125 64.796875 32.078125 64.796875 
z
" id="DejaVuSans-82"/>
    </defs>
    <g transform="translate(323.431312 16.318125)scale(0.12 -0.12)">
     <use xlink:href="#DejaVuSans-79"/>
     <use x="78.710938" xlink:href="#DejaVuSans-82"/>
     <use x="148.193359" xlink:href="#DejaVuSans-50"/>
    </g>
   </g>
   <g id="text_4">
    <!-- NOR2 -->
    <g transform="translate(448.542562 16.318125)scale(0.12 -0.12)">
     <use xlink:href="#DejaVuSans-78"/>
     <use x="74.804688" xlink:href="#DejaVuSans-79"/>
     <use x="153.515625" xlink:href="#DejaVuSans-82"/>
     <use x="222.998047" xlink:href="#DejaVuSans-50"/>
    </g>
   </g>
   <g id="text_5">
    <!-- XOR2 -->
    <defs>
     <path d="M 6.296875 72.90625 
L 16.890625 72.90625 
L 35.015625 45.796875 
L 53.21875 72.90625 
L 63.8125 72.90625 
L 40.375 37.890625 
L 65.375 0 
L 54.78125 0 
L 34.28125 31 
L 13.625 0 
L 2.984375 0 
L 29 38.921875 
z
" id="DejaVuSans-88"/>
    </defs>
    <g transform="translate(580.956937 16.318125)scale(0.12 -0.12)">
     <use xlink:href="#DejaVuSans-88"/>
     <use x="68.412109" xlink:href="#DejaVuSans-79"/>
     <use x="147.123047" xlink:href="#DejaVuSans-82"/>
     <use x="216.605469" xlink:href="#DejaVuSans-50"/>
    </g>
   </g>
   <g id="text_6">
    <!-- XNOR2 -->
    <g transform="translate(706.062562 16.318125)scale(0.12 -0.12)">
     <use xlink:href="#DejaVuSans-88"/>
     <use x="68.505859" xlink:href="#DejaVuSans-78"/>
     <use x="143.310547" xlink:href="#DejaVuSans-79"/>
     <use x="222.021484" xlink:href="#DejaVuSans-82"/>
     <use x="291.503906" xlink:href="#DejaVuSans-50"/>
    </g>
   </g>
   <g id="text_7">
    <!-- AND3 -->
    <defs>
     <path d="M 40.578125 39.3125 
Q 47.65625 37.796875 51.625 33 
Q 55.609375 28.21875 55.609375 21.1875 
Q 55.609375 10.40625 48.1875 4.484375 
Q 40.765625 -1.421875 27.09375 -1.421875 
Q 22.515625 -1.421875 17.65625 -0.515625 
Q 12.796875 0.390625 7.625 2.203125 
L 7.625 11.71875 
Q 11.71875 9.328125 16.59375 8.109375 
Q 21.484375 6.890625 26.8125 6.890625 
Q 36.078125 6.890625 40.9375 10.546875 
Q 45.796875 14.203125 45.796875 21.1875 
Q 45.796875 27.640625 41.28125 31.265625 
Q 36.765625 34.90625 28.71875 34.90625 
L 20.21875 34.90625 
L 20.21875 43.015625 
L 29.109375 43.015625 
Q 36.375 43.015625 40.234375 45.921875 
Q 44.09375 48.828125 44.09375 54.296875 
Q 44.09375 59.90625 40.109375 62.90625 
Q 36.140625 65.921875 28.71875 65.921875 
Q 24.65625 65.921875 20.015625 65.03125 
Q 15.375 64.15625 9.8125 62.3125 
L 9.8125 71.09375 
Q 15.4375 72.65625 20.34375 73.4375 
Q 25.25 74.21875 29.59375 74.21875 
Q 40.828125 74.21875 47.359375 69.109375 
Q 53.90625 64.015625 53.90625 55.328125 
Q 53.90625 49.265625 50.4375 45.09375 
Q 46.96875 40.921875 40.578125 39.3125 
z
" id="DejaVuSans-51"/>
    </defs>
    <g transform="translate(59.100375 86.068125)scale(0.12 -0.12)">
     <use xlink:href="#DejaVuSans-65"/>
     <use x="68.408203" xlink:href="#DejaVuSans-78"/>
     <use x="143.212891" xlink:href="#DejaVuSans-68"/>
     <use x="220.214844" xlink:href="#DejaVuSans-51"/>
    </g>
   </g>
   <g id="text_8">
    <!-- NAND3 -->
    <g transform="translate(184.211625 86.068125)scale(0.12 -0.12)">
     <use xlink:href="#DejaVuSans-78"/>
     <use x="74.804688" xlink:href="#DejaVuSans-65"/>
     <use x="143.212891" xlink:href="#DejaVuSans-78"/>
     <use x="218.017578" xlink:href="#DejaVuSans-68"/>
     <use x="295.019531" xlink:href="#DejaVuSans-51"/>
    </g>
   </g>
   <g id="text_9">
    <!-- OR3 -->
    <g transform="translate(323.431312 86.068125)scale(0.12 -0.12)">
     <use xlink:href="#DejaVuSans-79"/>
     <use x="78.710938" xlink:href="#DejaVuSans-82"/>
     <use x="148.193359" xlink:href="#DejaVuSans-51"/>
    </g>
   </g>
   <g id="text_10">
    <!-- NOR3 -->
    <g transform="translate(448.542562 86.068125)scale(0.12 -0.12)">
     <use xlink:href="#DejaVuSans-78"/>
     <use x="74.804688" xlink:href="#DejaVuSans-79"/>
     <use x="153.515625" xlink:href="#DejaVuSans-82"/>
     <use x="222.998047" xlink:href="#DejaVuSans-51"/>
    </g>
   </g>
   <g id="text_11">
    <!-- XOR3 -->
    <g transform="translate(580.956937 86.068125)scale(0.12 -0.12)">
     <use xlink:href="#DejaVuSans-88"/>
     <use x="68.412109" xlink:href="#DejaVuSans-79"/>
     <use x="147.123047" xlink:href="#DejaVuSans-82"/>
     <use x="216.605469" xlink:href="#DejaVuSans-51"/>
    </g>
   </g>
   <g id="text_12">
    <!-- XNOR3 -->
    <g transform="translate(706.062562 86.068125)scale(0.12 -0.12)">
     <use xlink:href="#DejaVuSans-88"/>
     <use x="68.505859" xlink:href="#DejaVuSans-78"/>
     <use x="143.310547" xlink:href="#DejaVuSans-79"/>
     <use x="222.021484" xlink:href="#DejaVuSans-82"/>
     <use x="291.503906" xlink:href="#DejaVuSans-51"/>
    </g>
   </g>
  </g>
 </g>
 <defs>
  <clipPath id="p61552f0a1d">
   <rect height="112.995" width="792.342" x="7.2" y="13.704375"/>
  </clipPath>
 </defs>
</svg>
