<?xml version="1.0" encoding="utf-8" standalone="no"?>
<!DOCTYPE svg PUBLIC "-//W3C//DTD SVG 1.1//EN"
  "http://www.w3.org/Graphics/SVG/1.1/DTD/svg11.dtd">
<!-- Created with matplotlib (http://matplotlib.org/) -->
<svg height="145pt" version="1.1" viewBox="0 0 735 145" width="735pt" xmlns="http://www.w3.org/2000/svg" xmlns:xlink="http://www.w3.org/1999/xlink">
 <defs>
  <style type="text/css">
*{stroke-linecap:butt;stroke-linejoin:round;}
  </style>
 </defs>
 <g id="figure_1">
  <g id="patch_1">
   <path d="
M0 145.354
L735.3 145.354
L735.3 0
L0 0
L0 145.354" style="fill:none;"/>
  </g>
  <g id="axes_1">
   <g id="patch_2">
    <path clip-path="url(#p07afc9175d)" d="
M42.84 58.5937
C47.1349 58.5937 51.2582 56.9807 54.2951 54.1125
C57.3321 51.2443 59.04 47.35 59.04 43.2937
C59.04 39.2375 57.3321 35.3432 54.2951 32.475
C51.2582 29.6068 47.1349 27.9937 42.84 27.9937" style="fill:none;stroke:#000000;stroke-linejoin:miter;stroke-width:1.5;"/>
   </g>
   <g id="patch_3">
    <path clip-path="url(#p07afc9175d)" d="
M172.44 58.5937
C176.735 58.5937 180.858 56.9807 183.895 54.1125
C186.932 51.2443 188.64 47.35 188.64 43.2937
C188.64 39.2375 186.932 35.3432 183.895 32.475
C180.858 29.6068 176.735 27.9937 172.44 27.9937" style="fill:none;stroke:#000000;stroke-linejoin:miter;stroke-width:1.5;"/>
   </g>
   <g id="patch_4">
    <path clip-path="url(#p07afc9175d)" d="
M42.84 135.094
C47.1349 135.094 51.2582 133.481 54.2951 130.612
C57.3321 127.744 59.04 123.85 59.04 119.794
C59.04 115.737 57.3321 111.843 54.2951 108.975
C51.2582 106.107 47.1349 104.494 42.84 104.494" style="fill:none;stroke:#000000;stroke-linejoin:miter;stroke-width:1.5;"/>
   </g>
   <g id="patch_5">
    <path clip-path="url(#p07afc9175d)" d="
M172.44 135.094
C176.735 135.094 180.858 133.481 183.895 130.612
C186.932 127.744 188.64 123.85 188.64 119.794
C188.64 115.737 186.932 111.843 183.895 108.975
C180.858 106.107 176.735 104.494 172.44 104.494" style="fill:none;stroke:#000000;stroke-linejoin:miter;stroke-width:1.5;"/>
   </g>
   <g id="line2d_1">
    <path clip-path="url(#p07afc9175d)" d="
M10.44 43.2937
M59.04 43.2937
L70.38 43.2937" style="fill:none;stroke:#000000;stroke-linecap:round;stroke-width:1.5;"/>
   </g>
   <g id="line2d_2">
    <path clip-path="url(#p07afc9175d)" d="
M21.78 43.2937
L21.78 58.5937
L42.84 58.5937" style="fill:none;stroke:#000000;stroke-linecap:round;stroke-width:1.5;"/>
   </g>
   <g id="line2d_3">
    <path clip-path="url(#p07afc9175d)" d="
M21.78 43.2937
L21.78 27.9937
L42.84 27.9937" style="fill:none;stroke:#000000;stroke-linecap:round;stroke-width:1.5;"/>
   </g>
   <g id="line2d_4">
    <path clip-path="url(#p07afc9175d)" d="
M10.44 50.9437
L21.78 50.9437" style="fill:none;stroke:#000000;stroke-linecap:round;stroke-width:1.5;"/>
   </g>
   <g id="line2d_5">
    <path clip-path="url(#p07afc9175d)" d="
M10.44 35.6437
L21.78 35.6437" style="fill:none;stroke:#000000;stroke-linecap:round;stroke-width:1.5;"/>
   </g>
   <g id="line2d_6">
    <path clip-path="url(#p07afc9175d)" d="
M140.04 43.2937
M196.416 43.2937
L199.98 43.2937" style="fill:none;stroke:#000000;stroke-linecap:round;stroke-width:1.5;"/>
   </g>
   <g id="line2d_7">
    <path clip-path="url(#p07afc9175d)" d="
M151.38 43.2937
L151.38 58.5937
L172.44 58.5937" style="fill:none;stroke:#000000;stroke-linecap:round;stroke-width:1.5;"/>
   </g>
   <g id="line2d_8">
    <path clip-path="url(#p07afc9175d)" d="
M151.38 43.2937
L151.38 27.9937
L172.44 27.9937" style="fill:none;stroke:#000000;stroke-linecap:round;stroke-width:1.5;"/>
   </g>
   <g id="line2d_9">
    <path clip-path="url(#p07afc9175d)" d="
M140.04 50.9437
L151.38 50.9437" style="fill:none;stroke:#000000;stroke-linecap:round;stroke-width:1.5;"/>
   </g>
   <g id="line2d_10">
    <path clip-path="url(#p07afc9175d)" d="
M140.04 35.6437
L151.38 35.6437" style="fill:none;stroke:#000000;stroke-linecap:round;stroke-width:1.5;"/>
   </g>
   <g id="line2d_11">
    <path clip-path="url(#p07afc9175d)" d="
M269.64 43.2937
M319.86 43.2937
L331.2 43.2937" style="fill:none;stroke:#000000;stroke-linecap:round;stroke-width:1.5;"/>
   </g>
   <g id="line2d_12">
    <path clip-path="url(#p07afc9175d)" d="
M280.98 58.2877
L297.18 58.2877
L297.643 58.2815
L298.106 58.2628
L298.569 58.2315
L299.031 58.1878
L299.494 58.1316
L299.957 58.0629
L300.42 57.9817
L300.883 57.8881
L301.346 57.7819
L301.809 57.6633
L302.271 57.5321
L302.734 57.3885
L303.197 57.2324
L303.66 57.0637
L304.123 56.8826
L304.586 56.6891
L305.049 56.483
L305.511 56.2644
L305.974 56.0333
L306.437 55.7898
L306.9 55.5337
L307.363 55.2652
L307.826 54.9842
L308.289 54.6907
L308.751 54.3847
L309.214 54.0662
L309.677 53.7352
L310.14 53.3917
L310.603 53.0358
L311.066 52.6673
L311.529 52.2864
L311.991 51.893
L312.454 51.4871
L312.917 51.0686
L313.38 50.6377
L313.843 50.1944
L314.306 49.7385
L314.769 49.2701
L315.231 48.7893
L315.694 48.2959
L316.157 47.7901
L316.62 47.2717
L317.083 46.7409
L317.546 46.1976
L318.009 45.6418
L318.471 45.0735
L318.934 44.4928
L319.397 43.8995
L319.86 43.2937" style="fill:none;stroke:#000000;stroke-linecap:round;stroke-width:1.5;"/>
   </g>
   <g id="line2d_13">
    <path clip-path="url(#p07afc9175d)" d="
M280.98 28.2997
L297.18 28.2997
L297.643 28.306
L298.106 28.3247
L298.569 28.356
L299.031 28.3997
L299.494 28.4559
L299.957 28.5246
L300.42 28.6057
L300.883 28.6994
L301.346 28.8056
L301.809 28.9242
L302.271 29.0554
L302.734 29.199
L303.197 29.3551
L303.66 29.5237
L304.123 29.7049
L304.586 29.8984
L305.049 30.1045
L305.511 30.3231
L305.974 30.5542
L306.437 30.7977
L306.9 31.0537
L307.363 31.3223
L307.826 31.6033
L308.289 31.8968
L308.751 32.2028
L309.214 32.5213
L309.677 32.8523
L310.14 33.1957
L310.603 33.5517
L311.066 33.9202
L311.529 34.3011
L311.991 34.6945
L312.454 35.1004
L312.917 35.5189
L313.38 35.9497
L313.843 36.3931
L314.306 36.849
L314.769 37.3174
L315.231 37.7982
L315.694 38.2916
L316.157 38.7974
L316.62 39.3157
L317.083 39.8466
L317.546 40.3899
L318.009 40.9457
L318.471 41.514
L318.934 42.0947
L319.397 42.688
L319.86 43.2937" style="fill:none;stroke:#000000;stroke-linecap:round;stroke-width:1.5;"/>
   </g>
   <g id="line2d_14">
    <path clip-path="url(#p07afc9175d)" d="
M280.98 58.2877
L281.602 57.6757
L282.198 57.0637
L282.768 56.4517
L283.313 55.8397
L283.831 55.2277
L284.324 54.6157
L284.79 54.0037
L285.231 53.3917
L285.646 52.7797
L286.034 52.1677
L286.397 51.5557
L286.734 50.9437
L287.045 50.3317
L287.33 49.7197
L287.59 49.1077
L287.823 48.4957
L288.03 47.8837
L288.212 47.2717
L288.367 46.6597
L288.497 46.0477
L288.6 45.4357
L288.678 44.8237
L288.73 44.2117
L288.756 43.5997
L288.756 42.9877
L288.73 42.3757
L288.678 41.7637
L288.6 41.1517
L288.497 40.5397
L288.367 39.9277
L288.212 39.3157
L288.03 38.7037
L287.823 38.0917
L287.59 37.4797
L287.33 36.8677
L287.045 36.2557
L286.734 35.6437
L286.397 35.0317
L286.034 34.4197
L285.646 33.8077
L285.231 33.1957
L284.79 32.5837
L284.324 31.9717
L283.831 31.3597
L283.313 30.7477
L282.768 30.1357
L282.198 29.5237
L281.602 28.9117
L280.98 28.2997" style="fill:none;stroke:#000000;stroke-linecap:round;stroke-width:1.5;"/>
   </g>
   <g id="line2d_15">
    <path clip-path="url(#p07afc9175d)" d="
M269.64 50.9437
L286.734 50.9437" style="fill:none;stroke:#000000;stroke-linecap:round;stroke-width:1.5;"/>
   </g>
   <g id="line2d_16">
    <path clip-path="url(#p07afc9175d)" d="
M269.64 35.6437
L286.734 35.6437" style="fill:none;stroke:#000000;stroke-linecap:round;stroke-width:1.5;"/>
   </g>
   <g id="line2d_17">
    <path clip-path="url(#p07afc9175d)" d="
M399.24 43.2937
M457.236 43.2937
L460.8 43.2937" style="fill:none;stroke:#000000;stroke-linecap:round;stroke-width:1.5;"/>
   </g>
   <g id="line2d_18">
    <path clip-path="url(#p07afc9175d)" d="
M410.58 58.2877
L426.78 58.2877
L427.243 58.2815
L427.706 58.2628
L428.169 58.2315
L428.631 58.1878
L429.094 58.1316
L429.557 58.0629
L430.02 57.9817
L430.483 57.8881
L430.946 57.7819
L431.409 57.6633
L431.871 57.5321
L432.334 57.3885
L432.797 57.2324
L433.26 57.0637
L433.723 56.8826
L434.186 56.6891
L434.649 56.483
L435.111 56.2644
L435.574 56.0333
L436.037 55.7898
L436.5 55.5337
L436.963 55.2652
L437.426 54.9842
L437.889 54.6907
L438.351 54.3847
L438.814 54.0662
L439.277 53.7352
L439.74 53.3917
L440.203 53.0358
L440.666 52.6673
L441.129 52.2864
L441.591 51.893
L442.054 51.4871
L442.517 51.0686
L442.98 50.6377
L443.443 50.1944
L443.906 49.7385
L444.369 49.2701
L444.831 48.7893
L445.294 48.2959
L445.757 47.7901
L446.22 47.2717
L446.683 46.7409
L447.146 46.1976
L447.609 45.6418
L448.071 45.0735
L448.534 44.4928
L448.997 43.8995
L449.46 43.2937" style="fill:none;stroke:#000000;stroke-linecap:round;stroke-width:1.5;"/>
   </g>
   <g id="line2d_19">
    <path clip-path="url(#p07afc9175d)" d="
M410.58 28.2997
L426.78 28.2997
L427.243 28.306
L427.706 28.3247
L428.169 28.356
L428.631 28.3997
L429.094 28.4559
L429.557 28.5246
L430.02 28.6057
L430.483 28.6994
L430.946 28.8056
L431.409 28.9242
L431.871 29.0554
L432.334 29.199
L432.797 29.3551
L433.26 29.5237
L433.723 29.7049
L434.186 29.8984
L434.649 30.1045
L435.111 30.3231
L435.574 30.5542
L436.037 30.7977
L436.5 31.0537
L436.963 31.3223
L437.426 31.6033
L437.889 31.8968
L438.351 32.2028
L438.814 32.5213
L439.277 32.8523
L439.74 33.1957
L440.203 33.5517
L440.666 33.9202
L441.129 34.3011
L441.591 34.6945
L442.054 35.1004
L442.517 35.5189
L442.98 35.9497
L443.443 36.3931
L443.906 36.849
L444.369 37.3174
L444.831 37.7982
L445.294 38.2916
L445.757 38.7974
L446.22 39.3157
L446.683 39.8466
L447.146 40.3899
L447.609 40.9457
L448.071 41.514
L448.534 42.0947
L448.997 42.688
L449.46 43.2937" style="fill:none;stroke:#000000;stroke-linecap:round;stroke-width:1.5;"/>
   </g>
   <g id="line2d_20">
    <path clip-path="url(#p07afc9175d)" d="
M410.58 58.2877
L411.202 57.6757
L411.798 57.0637
L412.368 56.4517
L412.913 55.8397
L413.431 55.2277
L413.924 54.6157
L414.39 54.0037
L414.831 53.3917
L415.246 52.7797
L415.634 52.1677
L415.997 51.5557
L416.334 50.9437
L416.645 50.3317
L416.93 49.7197
L417.19 49.1077
L417.423 48.4957
L417.63 47.8837
L417.812 47.2717
L417.967 46.6597
L418.097 46.0477
L418.2 45.4357
L418.278 44.8237
L418.33 44.2117
L418.356 43.5997
L418.356 42.9877
L418.33 42.3757
L418.278 41.7637
L418.2 41.1517
L418.097 40.5397
L417.967 39.9277
L417.812 39.3157
L417.63 38.7037
L417.423 38.0917
L417.19 37.4797
L416.93 36.8677
L416.645 36.2557
L416.334 35.6437
L415.997 35.0317
L415.634 34.4197
L415.246 33.8077
L414.831 33.1957
L414.39 32.5837
L413.924 31.9717
L413.431 31.3597
L412.913 30.7477
L412.368 30.1357
L411.798 29.5237
L411.202 28.9117
L410.58 28.2997" style="fill:none;stroke:#000000;stroke-linecap:round;stroke-width:1.5;"/>
   </g>
   <g id="line2d_21">
    <path clip-path="url(#p07afc9175d)" d="
M399.24 50.9437
L416.334 50.9437" style="fill:none;stroke:#000000;stroke-linecap:round;stroke-width:1.5;"/>
   </g>
   <g id="line2d_22">
    <path clip-path="url(#p07afc9175d)" d="
M399.24 35.6437
L416.334 35.6437" style="fill:none;stroke:#000000;stroke-linecap:round;stroke-width:1.5;"/>
   </g>
   <g id="line2d_23">
    <path clip-path="url(#p07afc9175d)" d="
M528.84 43.2937
M583.92 43.2937
L595.26 43.2937" style="fill:none;stroke:#000000;stroke-linecap:round;stroke-width:1.5;"/>
   </g>
   <g id="line2d_24">
    <path clip-path="url(#p07afc9175d)" d="
M545.04 58.2877
L561.24 58.2877
L561.703 58.2815
L562.166 58.2628
L562.629 58.2315
L563.091 58.1878
L563.554 58.1316
L564.017 58.0629
L564.48 57.9817
L564.943 57.8881
L565.406 57.7819
L565.869 57.6633
L566.331 57.5321
L566.794 57.3885
L567.257 57.2324
L567.72 57.0637
L568.183 56.8826
L568.646 56.6891
L569.109 56.483
L569.571 56.2644
L570.034 56.0333
L570.497 55.7898
L570.96 55.5337
L571.423 55.2652
L571.886 54.9842
L572.349 54.6907
L572.811 54.3847
L573.274 54.0662
L573.737 53.7352
L574.2 53.3917
L574.663 53.0358
L575.126 52.6673
L575.589 52.2864
L576.051 51.893
L576.514 51.4871
L576.977 51.0686
L577.44 50.6377
L577.903 50.1944
L578.366 49.7385
L578.829 49.2701
L579.291 48.7893
L579.754 48.2959
L580.217 47.7901
L580.68 47.2717
L581.143 46.7409
L581.606 46.1976
L582.069 45.6418
L582.531 45.0735
L582.994 44.4928
L583.457 43.8995
L583.92 43.2937" style="fill:none;stroke:#000000;stroke-linecap:round;stroke-width:1.5;"/>
   </g>
   <g id="line2d_25">
    <path clip-path="url(#p07afc9175d)" d="
M545.04 28.2997
L561.24 28.2997
L561.703 28.306
L562.166 28.3247
L562.629 28.356
L563.091 28.3997
L563.554 28.4559
L564.017 28.5246
L564.48 28.6057
L564.943 28.6994
L565.406 28.8056
L565.869 28.9242
L566.331 29.0554
L566.794 29.199
L567.257 29.3551
L567.72 29.5237
L568.183 29.7049
L568.646 29.8984
L569.109 30.1045
L569.571 30.3231
L570.034 30.5542
L570.497 30.7977
L570.96 31.0537
L571.423 31.3223
L571.886 31.6033
L572.349 31.8968
L572.811 32.2028
L573.274 32.5213
L573.737 32.8523
L574.2 33.1957
L574.663 33.5517
L575.126 33.9202
L575.589 34.3011
L576.051 34.6945
L576.514 35.1004
L576.977 35.5189
L577.44 35.9497
L577.903 36.3931
L578.366 36.849
L578.829 37.3174
L579.291 37.7982
L579.754 38.2916
L580.217 38.7974
L580.68 39.3157
L581.143 39.8466
L581.606 40.3899
L582.069 40.9457
L582.531 41.514
L582.994 42.0947
L583.457 42.688
L583.92 43.2937" style="fill:none;stroke:#000000;stroke-linecap:round;stroke-width:1.5;"/>
   </g>
   <g id="line2d_26">
    <path clip-path="url(#p07afc9175d)" d="
M540.18 58.2877
L540.802 57.6757
L541.398 57.0637
L541.968 56.4517
L542.513 55.8397
L543.031 55.2277
L543.524 54.6157
L543.99 54.0037
L544.431 53.3917
L544.846 52.7797
L545.234 52.1677
L545.597 51.5557
L545.934 50.9437
L546.245 50.3317
L546.53 49.7197
L546.79 49.1077
L547.023 48.4957
L547.23 47.8837
L547.412 47.2717
L547.567 46.6597
L547.697 46.0477
L547.8 45.4357
L547.878 44.8237
L547.93 44.2117
L547.956 43.5997
L547.956 42.9877
L547.93 42.3757
L547.878 41.7637
L547.8 41.1517
L547.697 40.5397
L547.567 39.9277
L547.412 39.3157
L547.23 38.7037
L547.023 38.0917
L546.79 37.4797
L546.53 36.8677
L546.245 36.2557
L545.934 35.6437
L545.597 35.0317
L545.234 34.4197
L544.846 33.8077
L544.431 33.1957
L543.99 32.5837
L543.524 31.9717
L543.031 31.3597
L542.513 30.7477
L541.968 30.1357
L541.398 29.5237
L540.802 28.9117
L540.18 28.2997" style="fill:none;stroke:#000000;stroke-linecap:round;stroke-width:1.5;"/>
   </g>
   <g id="line2d_27">
    <path clip-path="url(#p07afc9175d)" d="
M545.04 58.2877
L545.662 57.6757
L546.258 57.0637
L546.828 56.4517
L547.373 55.8397
L547.891 55.2277
L548.384 54.6157
L548.85 54.0037
L549.291 53.3917
L549.706 52.7797
L550.094 52.1677
L550.457 51.5557
L550.794 50.9437
L551.105 50.3317
L551.39 49.7197
L551.65 49.1077
L551.883 48.4957
L552.09 47.8837
L552.272 47.2717
L552.427 46.6597
L552.557 46.0477
L552.66 45.4357
L552.738 44.8237
L552.79 44.2117
L552.816 43.5997
L552.816 42.9877
L552.79 42.3757
L552.738 41.7637
L552.66 41.1517
L552.557 40.5397
L552.427 39.9277
L552.272 39.3157
L552.09 38.7037
L551.883 38.0917
L551.65 37.4797
L551.39 36.8677
L551.105 36.2557
L550.794 35.6437
L550.457 35.0317
L550.094 34.4197
L549.706 33.8077
L549.291 33.1957
L548.85 32.5837
L548.384 31.9717
L547.891 31.3597
L547.373 30.7477
L546.828 30.1357
L546.258 29.5237
L545.662 28.9117
L545.04 28.2997" style="fill:none;stroke:#000000;stroke-linecap:round;stroke-width:1.5;"/>
   </g>
   <g id="line2d_28">
    <path clip-path="url(#p07afc9175d)" d="
M528.84 50.9437
L545.934 50.9437" style="fill:none;stroke:#000000;stroke-linecap:round;stroke-width:1.5;"/>
   </g>
   <g id="line2d_29">
    <path clip-path="url(#p07afc9175d)" d="
M528.84 35.6437
L545.934 35.6437" style="fill:none;stroke:#000000;stroke-linecap:round;stroke-width:1.5;"/>
   </g>
   <g id="line2d_30">
    <path clip-path="url(#p07afc9175d)" d="
M658.44 43.2937
M721.296 43.2937
L724.86 43.2937" style="fill:none;stroke:#000000;stroke-linecap:round;stroke-width:1.5;"/>
   </g>
   <g id="line2d_31">
    <path clip-path="url(#p07afc9175d)" d="
M674.64 58.2877
L690.84 58.2877
L691.303 58.2815
L691.766 58.2628
L692.229 58.2315
L692.691 58.1878
L693.154 58.1316
L693.617 58.0629
L694.08 57.9817
L694.543 57.8881
L695.006 57.7819
L695.469 57.6633
L695.931 57.5321
L696.394 57.3885
L696.857 57.2324
L697.32 57.0637
L697.783 56.8826
L698.246 56.6891
L698.709 56.483
L699.171 56.2644
L699.634 56.0333
L700.097 55.7898
L700.56 55.5337
L701.023 55.2652
L701.486 54.9842
L701.949 54.6907
L702.411 54.3847
L702.874 54.0662
L703.337 53.7352
L703.8 53.3917
L704.263 53.0358
L704.726 52.6673
L705.189 52.2864
L705.651 51.893
L706.114 51.4871
L706.577 51.0686
L707.04 50.6377
L707.503 50.1944
L707.966 49.7385
L708.429 49.2701
L708.891 48.7893
L709.354 48.2959
L709.817 47.7901
L710.28 47.2717
L710.743 46.7409
L711.206 46.1976
L711.669 45.6418
L712.131 45.0735
L712.594 44.4928
L713.057 43.8995
L713.52 43.2937" style="fill:none;stroke:#000000;stroke-linecap:round;stroke-width:1.5;"/>
   </g>
   <g id="line2d_32">
    <path clip-path="url(#p07afc9175d)" d="
M674.64 28.2997
L690.84 28.2997
L691.303 28.306
L691.766 28.3247
L692.229 28.356
L692.691 28.3997
L693.154 28.4559
L693.617 28.5246
L694.08 28.6057
L694.543 28.6994
L695.006 28.8056
L695.469 28.9242
L695.931 29.0554
L696.394 29.199
L696.857 29.3551
L697.32 29.5237
L697.783 29.7049
L698.246 29.8984
L698.709 30.1045
L699.171 30.3231
L699.634 30.5542
L700.097 30.7977
L700.56 31.0537
L701.023 31.3223
L701.486 31.6033
L701.949 31.8968
L702.411 32.2028
L702.874 32.5213
L703.337 32.8523
L703.8 33.1957
L704.263 33.5517
L704.726 33.9202
L705.189 34.3011
L705.651 34.6945
L706.114 35.1004
L706.577 35.5189
L707.04 35.9497
L707.503 36.3931
L707.966 36.849
L708.429 37.3174
L708.891 37.7982
L709.354 38.2916
L709.817 38.7974
L710.28 39.3157
L710.743 39.8466
L711.206 40.3899
L711.669 40.9457
L712.131 41.514
L712.594 42.0947
L713.057 42.688
L713.52 43.2937" style="fill:none;stroke:#000000;stroke-linecap:round;stroke-width:1.5;"/>
   </g>
   <g id="line2d_33">
    <path clip-path="url(#p07afc9175d)" d="
M669.78 58.2877
L670.402 57.6757
L670.998 57.0637
L671.568 56.4517
L672.113 55.8397
L672.631 55.2277
L673.124 54.6157
L673.59 54.0037
L674.031 53.3917
L674.446 52.7797
L674.834 52.1677
L675.197 51.5557
L675.534 50.9437
L675.845 50.3317
L676.13 49.7197
L676.39 49.1077
L676.623 48.4957
L676.83 47.8837
L677.012 47.2717
L677.167 46.6597
L677.297 46.0477
L677.4 45.4357
L677.478 44.8237
L677.53 44.2117
L677.556 43.5997
L677.556 42.9877
L677.53 42.3757
L677.478 41.7637
L677.4 41.1517
L677.297 40.5397
L677.167 39.9277
L677.012 39.3157
L676.83 38.7037
L676.623 38.0917
L676.39 37.4797
L676.13 36.8677
L675.845 36.2557
L675.534 35.6437
L675.197 35.0317
L674.834 34.4197
L674.446 33.8077
L674.031 33.1957
L673.59 32.5837
L673.124 31.9717
L672.631 31.3597
L672.113 30.7477
L671.568 30.1357
L670.998 29.5237
L670.402 28.9117
L669.78 28.2997" style="fill:none;stroke:#000000;stroke-linecap:round;stroke-width:1.5;"/>
   </g>
   <g id="line2d_34">
    <path clip-path="url(#p07afc9175d)" d="
M674.64 58.2877
L675.262 57.6757
L675.858 57.0637
L676.428 56.4517
L676.973 55.8397
L677.491 55.2277
L677.984 54.6157
L678.45 54.0037
L678.891 53.3917
L679.306 52.7797
L679.694 52.1677
L680.057 51.5557
L680.394 50.9437
L680.705 50.3317
L680.99 49.7197
L681.25 49.1077
L681.483 48.4957
L681.69 47.8837
L681.872 47.2717
L682.027 46.6597
L682.157 46.0477
L682.26 45.4357
L682.338 44.8237
L682.39 44.2117
L682.416 43.5997
L682.416 42.9877
L682.39 42.3757
L682.338 41.7637
L682.26 41.1517
L682.157 40.5397
L682.027 39.9277
L681.872 39.3157
L681.69 38.7037
L681.483 38.0917
L681.25 37.4797
L680.99 36.8677
L680.705 36.2557
L680.394 35.6437
L680.057 35.0317
L679.694 34.4197
L679.306 33.8077
L678.891 33.1957
L678.45 32.5837
L677.984 31.9717
L677.491 31.3597
L676.973 30.7477
L676.428 30.1357
L675.858 29.5237
L675.262 28.9117
L674.64 28.2997" style="fill:none;stroke:#000000;stroke-linecap:round;stroke-width:1.5;"/>
   </g>
   <g id="line2d_35">
    <path clip-path="url(#p07afc9175d)" d="
M658.44 50.9437
L675.534 50.9437" style="fill:none;stroke:#000000;stroke-linecap:round;stroke-width:1.5;"/>
   </g>
   <g id="line2d_36">
    <path clip-path="url(#p07afc9175d)" d="
M658.44 35.6437
L675.534 35.6437" style="fill:none;stroke:#000000;stroke-linecap:round;stroke-width:1.5;"/>
   </g>
   <g id="line2d_37">
    <path clip-path="url(#p07afc9175d)" d="
M10.44 119.794
M59.04 119.794
L70.38 119.794" style="fill:none;stroke:#000000;stroke-linecap:round;stroke-width:1.5;"/>
   </g>
   <g id="line2d_38">
    <path clip-path="url(#p07afc9175d)" d="
M21.78 119.794
L21.78 135.094
L42.84 135.094" style="fill:none;stroke:#000000;stroke-linecap:round;stroke-width:1.5;"/>
   </g>
   <g id="line2d_39">
    <path clip-path="url(#p07afc9175d)" d="
M21.78 119.794
L21.78 104.494
L42.84 104.494" style="fill:none;stroke:#000000;stroke-linecap:round;stroke-width:1.5;"/>
   </g>
   <g id="line2d_40">
    <path clip-path="url(#p07afc9175d)" d="
M10.44 129.892
L21.78 129.892" style="fill:none;stroke:#000000;stroke-linecap:round;stroke-width:1.5;"/>
   </g>
   <g id="line2d_41">
    <path clip-path="url(#p07afc9175d)" d="
M10.44 119.794
L21.78 119.794" style="fill:none;stroke:#000000;stroke-linecap:round;stroke-width:1.5;"/>
   </g>
   <g id="line2d_42">
    <path clip-path="url(#p07afc9175d)" d="
M10.44 109.696
L21.78 109.696" style="fill:none;stroke:#000000;stroke-linecap:round;stroke-width:1.5;"/>
   </g>
   <g id="line2d_43">
    <path clip-path="url(#p07afc9175d)" d="
M140.04 119.794
M196.416 119.794
L199.98 119.794" style="fill:none;stroke:#000000;stroke-linecap:round;stroke-width:1.5;"/>
   </g>
   <g id="line2d_44">
    <path clip-path="url(#p07afc9175d)" d="
M151.38 119.794
L151.38 135.094
L172.44 135.094" style="fill:none;stroke:#000000;stroke-linecap:round;stroke-width:1.5;"/>
   </g>
   <g id="line2d_45">
    <path clip-path="url(#p07afc9175d)" d="
M151.38 119.794
L151.38 104.494
L172.44 104.494" style="fill:none;stroke:#000000;stroke-linecap:round;stroke-width:1.5;"/>
   </g>
   <g id="line2d_46">
    <path clip-path="url(#p07afc9175d)" d="
M140.04 129.892
L151.38 129.892" style="fill:none;stroke:#000000;stroke-linecap:round;stroke-width:1.5;"/>
   </g>
   <g id="line2d_47">
    <path clip-path="url(#p07afc9175d)" d="
M140.04 119.794
L151.38 119.794" style="fill:none;stroke:#000000;stroke-linecap:round;stroke-width:1.5;"/>
   </g>
   <g id="line2d_48">
    <path clip-path="url(#p07afc9175d)" d="
M140.04 109.696
L151.38 109.696" style="fill:none;stroke:#000000;stroke-linecap:round;stroke-width:1.5;"/>
   </g>
   <g id="line2d_49">
    <path clip-path="url(#p07afc9175d)" d="
M269.64 119.794
M319.86 119.794
L331.2 119.794" style="fill:none;stroke:#000000;stroke-linecap:round;stroke-width:1.5;"/>
   </g>
   <g id="line2d_50">
    <path clip-path="url(#p07afc9175d)" d="
M280.98 134.788
L297.18 134.788
L297.643 134.782
L298.106 134.763
L298.569 134.732
L299.031 134.688
L299.494 134.632
L299.957 134.563
L300.42 134.482
L300.883 134.388
L301.346 134.282
L301.809 134.163
L302.271 134.032
L302.734 133.888
L303.197 133.732
L303.66 133.564
L304.123 133.383
L304.586 133.189
L305.049 132.983
L305.511 132.764
L305.974 132.533
L306.437 132.29
L306.9 132.034
L307.363 131.765
L307.826 131.484
L308.289 131.191
L308.751 130.885
L309.214 130.566
L309.677 130.235
L310.14 129.892
L310.603 129.536
L311.066 129.167
L311.529 128.786
L311.991 128.393
L312.454 127.987
L312.917 127.569
L313.38 127.138
L313.843 126.694
L314.306 126.238
L314.769 125.77
L315.231 125.289
L315.694 124.796
L316.157 124.29
L316.62 123.772
L317.083 123.241
L317.546 122.698
L318.009 122.142
L318.471 121.574
L318.934 120.993
L319.397 120.4
L319.86 119.794" style="fill:none;stroke:#000000;stroke-linecap:round;stroke-width:1.5;"/>
   </g>
   <g id="line2d_51">
    <path clip-path="url(#p07afc9175d)" d="
M280.98 104.8
L297.18 104.8
L297.643 104.806
L298.106 104.825
L298.569 104.856
L299.031 104.9
L299.494 104.956
L299.957 105.025
L300.42 105.106
L300.883 105.199
L301.346 105.306
L301.809 105.424
L302.271 105.555
L302.734 105.699
L303.197 105.855
L303.66 106.024
L304.123 106.205
L304.586 106.398
L305.049 106.605
L305.511 106.823
L305.974 107.054
L306.437 107.298
L306.9 107.554
L307.363 107.822
L307.826 108.103
L308.289 108.397
L308.751 108.703
L309.214 109.021
L309.677 109.352
L310.14 109.696
L310.603 110.052
L311.066 110.42
L311.529 110.801
L311.991 111.195
L312.454 111.6
L312.917 112.019
L313.38 112.45
L313.843 112.893
L314.306 113.349
L314.769 113.817
L315.231 114.298
L315.694 114.792
L316.157 115.297
L316.62 115.816
L317.083 116.347
L317.546 116.89
L318.009 117.446
L318.471 118.014
L318.934 118.595
L319.397 119.188
L319.86 119.794" style="fill:none;stroke:#000000;stroke-linecap:round;stroke-width:1.5;"/>
   </g>
   <g id="line2d_52">
    <path clip-path="url(#p07afc9175d)" d="
M280.98 134.788
L281.602 134.176
L282.198 133.564
L282.768 132.952
L283.313 132.34
L283.831 131.728
L284.324 131.116
L284.79 130.504
L285.231 129.892
L285.646 129.28
L286.034 128.668
L286.397 128.056
L286.734 127.444
L287.045 126.832
L287.33 126.22
L287.59 125.608
L287.823 124.996
L288.03 124.384
L288.212 123.772
L288.367 123.16
L288.497 122.548
L288.6 121.936
L288.678 121.324
L288.73 120.712
L288.756 120.1
L288.756 119.488
L288.73 118.876
L288.678 118.264
L288.6 117.652
L288.497 117.04
L288.367 116.428
L288.212 115.816
L288.03 115.204
L287.823 114.592
L287.59 113.98
L287.33 113.368
L287.045 112.756
L286.734 112.144
L286.397 111.532
L286.034 110.92
L285.646 110.308
L285.231 109.696
L284.79 109.084
L284.324 108.472
L283.831 107.86
L283.313 107.248
L282.768 106.636
L282.198 106.024
L281.602 105.412
L280.98 104.8" style="fill:none;stroke:#000000;stroke-linecap:round;stroke-width:1.5;"/>
   </g>
   <g id="line2d_53">
    <path clip-path="url(#p07afc9175d)" d="
M269.64 129.892
L285.231 129.892" style="fill:none;stroke:#000000;stroke-linecap:round;stroke-width:1.5;"/>
   </g>
   <g id="line2d_54">
    <path clip-path="url(#p07afc9175d)" d="
M269.64 119.794
L288.759 119.794" style="fill:none;stroke:#000000;stroke-linecap:round;stroke-width:1.5;"/>
   </g>
   <g id="line2d_55">
    <path clip-path="url(#p07afc9175d)" d="
M269.64 109.696
L285.231 109.696" style="fill:none;stroke:#000000;stroke-linecap:round;stroke-width:1.5;"/>
   </g>
   <g id="line2d_56">
    <path clip-path="url(#p07afc9175d)" d="
M399.24 119.794
M457.236 119.794
L460.8 119.794" style="fill:none;stroke:#000000;stroke-linecap:round;stroke-width:1.5;"/>
   </g>
   <g id="line2d_57">
    <path clip-path="url(#p07afc9175d)" d="
M410.58 134.788
L426.78 134.788
L427.243 134.782
L427.706 134.763
L428.169 134.732
L428.631 134.688
L429.094 134.632
L429.557 134.563
L430.02 134.482
L430.483 134.388
L430.946 134.282
L431.409 134.163
L431.871 134.032
L432.334 133.888
L432.797 133.732
L433.26 133.564
L433.723 133.383
L434.186 133.189
L434.649 132.983
L435.111 132.764
L435.574 132.533
L436.037 132.29
L436.5 132.034
L436.963 131.765
L437.426 131.484
L437.889 131.191
L438.351 130.885
L438.814 130.566
L439.277 130.235
L439.74 129.892
L440.203 129.536
L440.666 129.167
L441.129 128.786
L441.591 128.393
L442.054 127.987
L442.517 127.569
L442.98 127.138
L443.443 126.694
L443.906 126.238
L444.369 125.77
L444.831 125.289
L445.294 124.796
L445.757 124.29
L446.22 123.772
L446.683 123.241
L447.146 122.698
L447.609 122.142
L448.071 121.574
L448.534 120.993
L448.997 120.4
L449.46 119.794" style="fill:none;stroke:#000000;stroke-linecap:round;stroke-width:1.5;"/>
   </g>
   <g id="line2d_58">
    <path clip-path="url(#p07afc9175d)" d="
M410.58 104.8
L426.78 104.8
L427.243 104.806
L427.706 104.825
L428.169 104.856
L428.631 104.9
L429.094 104.956
L429.557 105.025
L430.02 105.106
L430.483 105.199
L430.946 105.306
L431.409 105.424
L431.871 105.555
L432.334 105.699
L432.797 105.855
L433.26 106.024
L433.723 106.205
L434.186 106.398
L434.649 106.605
L435.111 106.823
L435.574 107.054
L436.037 107.298
L436.5 107.554
L436.963 107.822
L437.426 108.103
L437.889 108.397
L438.351 108.703
L438.814 109.021
L439.277 109.352
L439.74 109.696
L440.203 110.052
L440.666 110.42
L441.129 110.801
L441.591 111.195
L442.054 111.6
L442.517 112.019
L442.98 112.45
L443.443 112.893
L443.906 113.349
L444.369 113.817
L444.831 114.298
L445.294 114.792
L445.757 115.297
L446.22 115.816
L446.683 116.347
L447.146 116.89
L447.609 117.446
L448.071 118.014
L448.534 118.595
L448.997 119.188
L449.46 119.794" style="fill:none;stroke:#000000;stroke-linecap:round;stroke-width:1.5;"/>
   </g>
   <g id="line2d_59">
    <path clip-path="url(#p07afc9175d)" d="
M410.58 134.788
L411.202 134.176
L411.798 133.564
L412.368 132.952
L412.913 132.34
L413.431 131.728
L413.924 131.116
L414.39 130.504
L414.831 129.892
L415.246 129.28
L415.634 128.668
L415.997 128.056
L416.334 127.444
L416.645 126.832
L416.93 126.22
L417.19 125.608
L417.423 124.996
L417.63 124.384
L417.812 123.772
L417.967 123.16
L418.097 122.548
L418.2 121.936
L418.278 121.324
L418.33 120.712
L418.356 120.1
L418.356 119.488
L418.33 118.876
L418.278 118.264
L418.2 117.652
L418.097 117.04
L417.967 116.428
L417.812 115.816
L417.63 115.204
L417.423 114.592
L417.19 113.98
L416.93 113.368
L416.645 112.756
L416.334 112.144
L415.997 111.532
L415.634 110.92
L415.246 110.308
L414.831 109.696
L414.39 109.084
L413.924 108.472
L413.431 107.86
L412.913 107.248
L412.368 106.636
L411.798 106.024
L411.202 105.412
L410.58 104.8" style="fill:none;stroke:#000000;stroke-linecap:round;stroke-width:1.5;"/>
   </g>
   <g id="line2d_60">
    <path clip-path="url(#p07afc9175d)" d="
M399.24 129.892
L414.831 129.892" style="fill:none;stroke:#000000;stroke-linecap:round;stroke-width:1.5;"/>
   </g>
   <g id="line2d_61">
    <path clip-path="url(#p07afc9175d)" d="
M399.24 119.794
L418.359 119.794" style="fill:none;stroke:#000000;stroke-linecap:round;stroke-width:1.5;"/>
   </g>
   <g id="line2d_62">
    <path clip-path="url(#p07afc9175d)" d="
M399.24 109.696
L414.831 109.696" style="fill:none;stroke:#000000;stroke-linecap:round;stroke-width:1.5;"/>
   </g>
   <g id="line2d_63">
    <path clip-path="url(#p07afc9175d)" d="
M528.84 119.794
M583.92 119.794
L595.26 119.794" style="fill:none;stroke:#000000;stroke-linecap:round;stroke-width:1.5;"/>
   </g>
   <g id="line2d_64">
    <path clip-path="url(#p07afc9175d)" d="
M545.04 134.788
L561.24 134.788
L561.703 134.782
L562.166 134.763
L562.629 134.732
L563.091 134.688
L563.554 134.632
L564.017 134.563
L564.48 134.482
L564.943 134.388
L565.406 134.282
L565.869 134.163
L566.331 134.032
L566.794 133.888
L567.257 133.732
L567.72 133.564
L568.183 133.383
L568.646 133.189
L569.109 132.983
L569.571 132.764
L570.034 132.533
L570.497 132.29
L570.96 132.034
L571.423 131.765
L571.886 131.484
L572.349 131.191
L572.811 130.885
L573.274 130.566
L573.737 130.235
L574.2 129.892
L574.663 129.536
L575.126 129.167
L575.589 128.786
L576.051 128.393
L576.514 127.987
L576.977 127.569
L577.44 127.138
L577.903 126.694
L578.366 126.238
L578.829 125.77
L579.291 125.289
L579.754 124.796
L580.217 124.29
L580.68 123.772
L581.143 123.241
L581.606 122.698
L582.069 122.142
L582.531 121.574
L582.994 120.993
L583.457 120.4
L583.92 119.794" style="fill:none;stroke:#000000;stroke-linecap:round;stroke-width:1.5;"/>
   </g>
   <g id="line2d_65">
    <path clip-path="url(#p07afc9175d)" d="
M545.04 104.8
L561.24 104.8
L561.703 104.806
L562.166 104.825
L562.629 104.856
L563.091 104.9
L563.554 104.956
L564.017 105.025
L564.48 105.106
L564.943 105.199
L565.406 105.306
L565.869 105.424
L566.331 105.555
L566.794 105.699
L567.257 105.855
L567.72 106.024
L568.183 106.205
L568.646 106.398
L569.109 106.605
L569.571 106.823
L570.034 107.054
L570.497 107.298
L570.96 107.554
L571.423 107.822
L571.886 108.103
L572.349 108.397
L572.811 108.703
L573.274 109.021
L573.737 109.352
L574.2 109.696
L574.663 110.052
L575.126 110.42
L575.589 110.801
L576.051 111.195
L576.514 111.6
L576.977 112.019
L577.44 112.45
L577.903 112.893
L578.366 113.349
L578.829 113.817
L579.291 114.298
L579.754 114.792
L580.217 115.297
L580.68 115.816
L581.143 116.347
L581.606 116.89
L582.069 117.446
L582.531 118.014
L582.994 118.595
L583.457 119.188
L583.92 119.794" style="fill:none;stroke:#000000;stroke-linecap:round;stroke-width:1.5;"/>
   </g>
   <g id="line2d_66">
    <path clip-path="url(#p07afc9175d)" d="
M540.18 134.788
L540.802 134.176
L541.398 133.564
L541.968 132.952
L542.513 132.34
L543.031 131.728
L543.524 131.116
L543.99 130.504
L544.431 129.892
L544.846 129.28
L545.234 128.668
L545.597 128.056
L545.934 127.444
L546.245 126.832
L546.53 126.22
L546.79 125.608
L547.023 124.996
L547.23 124.384
L547.412 123.772
L547.567 123.16
L547.697 122.548
L547.8 121.936
L547.878 121.324
L547.93 120.712
L547.956 120.1
L547.956 119.488
L547.93 118.876
L547.878 118.264
L547.8 117.652
L547.697 117.04
L547.567 116.428
L547.412 115.816
L547.23 115.204
L547.023 114.592
L546.79 113.98
L546.53 113.368
L546.245 112.756
L545.934 112.144
L545.597 111.532
L545.234 110.92
L544.846 110.308
L544.431 109.696
L543.99 109.084
L543.524 108.472
L543.031 107.86
L542.513 107.248
L541.968 106.636
L541.398 106.024
L540.802 105.412
L540.18 104.8" style="fill:none;stroke:#000000;stroke-linecap:round;stroke-width:1.5;"/>
   </g>
   <g id="line2d_67">
    <path clip-path="url(#p07afc9175d)" d="
M545.04 134.788
L545.662 134.176
L546.258 133.564
L546.828 132.952
L547.373 132.34
L547.891 131.728
L548.384 131.116
L548.85 130.504
L549.291 129.892
L549.706 129.28
L550.094 128.668
L550.457 128.056
L550.794 127.444
L551.105 126.832
L551.39 126.22
L551.65 125.608
L551.883 124.996
L552.09 124.384
L552.272 123.772
L552.427 123.16
L552.557 122.548
L552.66 121.936
L552.738 121.324
L552.79 120.712
L552.816 120.1
L552.816 119.488
L552.79 118.876
L552.738 118.264
L552.66 117.652
L552.557 117.04
L552.427 116.428
L552.272 115.816
L552.09 115.204
L551.883 114.592
L551.65 113.98
L551.39 113.368
L551.105 112.756
L550.794 112.144
L550.457 111.532
L550.094 110.92
L549.706 110.308
L549.291 109.696
L548.85 109.084
L548.384 108.472
L547.891 107.86
L547.373 107.248
L546.828 106.636
L546.258 106.024
L545.662 105.412
L545.04 104.8" style="fill:none;stroke:#000000;stroke-linecap:round;stroke-width:1.5;"/>
   </g>
   <g id="line2d_68">
    <path clip-path="url(#p07afc9175d)" d="
M528.84 129.892
L544.431 129.892" style="fill:none;stroke:#000000;stroke-linecap:round;stroke-width:1.5;"/>
   </g>
   <g id="line2d_69">
    <path clip-path="url(#p07afc9175d)" d="
M528.84 119.794
L547.959 119.794" style="fill:none;stroke:#000000;stroke-linecap:round;stroke-width:1.5;"/>
   </g>
   <g id="line2d_70">
    <path clip-path="url(#p07afc9175d)" d="
M528.84 109.696
L544.431 109.696" style="fill:none;stroke:#000000;stroke-linecap:round;stroke-width:1.5;"/>
   </g>
   <g id="line2d_71">
    <path clip-path="url(#p07afc9175d)" d="
M658.44 119.794
M721.296 119.794
L724.86 119.794" style="fill:none;stroke:#000000;stroke-linecap:round;stroke-width:1.5;"/>
   </g>
   <g id="line2d_72">
    <path clip-path="url(#p07afc9175d)" d="
M674.64 134.788
L690.84 134.788
L691.303 134.782
L691.766 134.763
L692.229 134.732
L692.691 134.688
L693.154 134.632
L693.617 134.563
L694.08 134.482
L694.543 134.388
L695.006 134.282
L695.469 134.163
L695.931 134.032
L696.394 133.888
L696.857 133.732
L697.32 133.564
L697.783 133.383
L698.246 133.189
L698.709 132.983
L699.171 132.764
L699.634 132.533
L700.097 132.29
L700.56 132.034
L701.023 131.765
L701.486 131.484
L701.949 131.191
L702.411 130.885
L702.874 130.566
L703.337 130.235
L703.8 129.892
L704.263 129.536
L704.726 129.167
L705.189 128.786
L705.651 128.393
L706.114 127.987
L706.577 127.569
L707.04 127.138
L707.503 126.694
L707.966 126.238
L708.429 125.77
L708.891 125.289
L709.354 124.796
L709.817 124.29
L710.28 123.772
L710.743 123.241
L711.206 122.698
L711.669 122.142
L712.131 121.574
L712.594 120.993
L713.057 120.4
L713.52 119.794" style="fill:none;stroke:#000000;stroke-linecap:round;stroke-width:1.5;"/>
   </g>
   <g id="line2d_73">
    <path clip-path="url(#p07afc9175d)" d="
M674.64 104.8
L690.84 104.8
L691.303 104.806
L691.766 104.825
L692.229 104.856
L692.691 104.9
L693.154 104.956
L693.617 105.025
L694.08 105.106
L694.543 105.199
L695.006 105.306
L695.469 105.424
L695.931 105.555
L696.394 105.699
L696.857 105.855
L697.32 106.024
L697.783 106.205
L698.246 106.398
L698.709 106.605
L699.171 106.823
L699.634 107.054
L700.097 107.298
L700.56 107.554
L701.023 107.822
L701.486 108.103
L701.949 108.397
L702.411 108.703
L702.874 109.021
L703.337 109.352
L703.8 109.696
L704.263 110.052
L704.726 110.42
L705.189 110.801
L705.651 111.195
L706.114 111.6
L706.577 112.019
L707.04 112.45
L707.503 112.893
L707.966 113.349
L708.429 113.817
L708.891 114.298
L709.354 114.792
L709.817 115.297
L710.28 115.816
L710.743 116.347
L711.206 116.89
L711.669 117.446
L712.131 118.014
L712.594 118.595
L713.057 119.188
L713.52 119.794" style="fill:none;stroke:#000000;stroke-linecap:round;stroke-width:1.5;"/>
   </g>
   <g id="line2d_74">
    <path clip-path="url(#p07afc9175d)" d="
M669.78 134.788
L670.402 134.176
L670.998 133.564
L671.568 132.952
L672.113 132.34
L672.631 131.728
L673.124 131.116
L673.59 130.504
L674.031 129.892
L674.446 129.28
L674.834 128.668
L675.197 128.056
L675.534 127.444
L675.845 126.832
L676.13 126.22
L676.39 125.608
L676.623 124.996
L676.83 124.384
L677.012 123.772
L677.167 123.16
L677.297 122.548
L677.4 121.936
L677.478 121.324
L677.53 120.712
L677.556 120.1
L677.556 119.488
L677.53 118.876
L677.478 118.264
L677.4 117.652
L677.297 117.04
L677.167 116.428
L677.012 115.816
L676.83 115.204
L676.623 114.592
L676.39 113.98
L676.13 113.368
L675.845 112.756
L675.534 112.144
L675.197 111.532
L674.834 110.92
L674.446 110.308
L674.031 109.696
L673.59 109.084
L673.124 108.472
L672.631 107.86
L672.113 107.248
L671.568 106.636
L670.998 106.024
L670.402 105.412
L669.78 104.8" style="fill:none;stroke:#000000;stroke-linecap:round;stroke-width:1.5;"/>
   </g>
   <g id="line2d_75">
    <path clip-path="url(#p07afc9175d)" d="
M674.64 134.788
L675.262 134.176
L675.858 133.564
L676.428 132.952
L676.973 132.34
L677.491 131.728
L677.984 131.116
L678.45 130.504
L678.891 129.892
L679.306 129.28
L679.694 128.668
L680.057 128.056
L680.394 127.444
L680.705 126.832
L680.99 126.22
L681.25 125.608
L681.483 124.996
L681.69 124.384
L681.872 123.772
L682.027 123.16
L682.157 122.548
L682.26 121.936
L682.338 121.324
L682.39 120.712
L682.416 120.1
L682.416 119.488
L682.39 118.876
L682.338 118.264
L682.26 117.652
L682.157 117.04
L682.027 116.428
L681.872 115.816
L681.69 115.204
L681.483 114.592
L681.25 113.98
L680.99 113.368
L680.705 112.756
L680.394 112.144
L680.057 111.532
L679.694 110.92
L679.306 110.308
L678.891 109.696
L678.45 109.084
L677.984 108.472
L677.491 107.86
L676.973 107.248
L676.428 106.636
L675.858 106.024
L675.262 105.412
L674.64 104.8" style="fill:none;stroke:#000000;stroke-linecap:round;stroke-width:1.5;"/>
   </g>
   <g id="line2d_76">
    <path clip-path="url(#p07afc9175d)" d="
M658.44 129.892
L674.031 129.892" style="fill:none;stroke:#000000;stroke-linecap:round;stroke-width:1.5;"/>
   </g>
   <g id="line2d_77">
    <path clip-path="url(#p07afc9175d)" d="
M658.44 119.794
L677.559 119.794" style="fill:none;stroke:#000000;stroke-linecap:round;stroke-width:1.5;"/>
   </g>
   <g id="line2d_78">
    <path clip-path="url(#p07afc9175d)" d="
M658.44 109.696
L674.031 109.696" style="fill:none;stroke:#000000;stroke-linecap:round;stroke-width:1.5;"/>
   </g>
   <g id="patch_6">
    <path clip-path="url(#p07afc9175d)" d="
M192.528 46.9657
C193.559 46.9657 194.548 46.5788 195.277 45.8902
C196.006 45.2016 196.416 44.2676 196.416 43.2937
C196.416 42.3199 196.006 41.3859 195.277 40.6973
C194.548 40.0087 193.559 39.6217 192.528 39.6217
C191.497 39.6217 190.508 40.0087 189.779 40.6973
C189.05 41.3859 188.64 42.3199 188.64 43.2937
C188.64 44.2676 189.05 45.2016 189.779 45.8902
C190.508 46.5788 191.497 46.9657 192.528 46.9657
L192.528 46.9657" style="fill:none;stroke:#000000;stroke-linejoin:miter;stroke-width:1.5;"/>
   </g>
   <g id="patch_7">
    <path clip-path="url(#p07afc9175d)" d="
M453.348 46.9657
C454.379 46.9657 455.368 46.5788 456.097 45.8902
C456.826 45.2016 457.236 44.2676 457.236 43.2937
C457.236 42.3199 456.826 41.3859 456.097 40.6973
C455.368 40.0087 454.379 39.6217 453.348 39.6217
C452.317 39.6217 451.328 40.0087 450.599 40.6973
C449.87 41.3859 449.46 42.3199 449.46 43.2937
C449.46 44.2676 449.87 45.2016 450.599 45.8902
C451.328 46.5788 452.317 46.9657 453.348 46.9657
L453.348 46.9657" style="fill:none;stroke:#000000;stroke-linejoin:miter;stroke-width:1.5;"/>
   </g>
   <g id="patch_8">
    <path clip-path="url(#p07afc9175d)" d="
M717.408 46.9657
C718.439 46.9657 719.428 46.5788 720.157 45.8902
C720.886 45.2016 721.296 44.2676 721.296 43.2937
C721.296 42.3199 720.886 41.3859 720.157 40.6973
C719.428 40.0087 718.439 39.6217 717.408 39.6217
C716.377 39.6217 715.388 40.0087 714.659 40.6973
C713.93 41.3859 713.52 42.3199 713.52 43.2937
C713.52 44.2676 713.93 45.2016 714.659 45.8902
C715.388 46.5788 716.377 46.9657 717.408 46.9657
L717.408 46.9657" style="fill:none;stroke:#000000;stroke-linejoin:miter;stroke-width:1.5;"/>
   </g>
   <g id="patch_9">
    <path clip-path="url(#p07afc9175d)" d="
M192.528 123.466
C193.559 123.466 194.548 123.079 195.277 122.39
C196.006 121.702 196.416 120.768 196.416 119.794
C196.416 118.82 196.006 117.886 195.277 117.197
C194.548 116.509 193.559 116.122 192.528 116.122
C191.497 116.122 190.508 116.509 189.779 117.197
C189.05 117.886 188.64 118.82 188.64 119.794
C188.64 120.768 189.05 121.702 189.779 122.39
C190.508 123.079 191.497 123.466 192.528 123.466
L192.528 123.466" style="fill:none;stroke:#000000;stroke-linejoin:miter;stroke-width:1.5;"/>
   </g>
   <g id="patch_10">
    <path clip-path="url(#p07afc9175d)" d="
M453.348 123.466
C454.379 123.466 455.368 123.079 456.097 122.39
C456.826 121.702 457.236 120.768 457.236 119.794
C457.236 118.82 456.826 117.886 456.097 117.197
C455.368 116.509 454.379 116.122 453.348 116.122
C452.317 116.122 451.328 116.509 450.599 117.197
C449.87 117.886 449.46 118.82 449.46 119.794
C449.46 120.768 449.87 121.702 450.599 122.39
C451.328 123.079 452.317 123.466 453.348 123.466
L453.348 123.466" style="fill:none;stroke:#000000;stroke-linejoin:miter;stroke-width:1.5;"/>
   </g>
   <g id="patch_11">
    <path clip-path="url(#p07afc9175d)" d="
M717.408 123.466
C718.439 123.466 719.428 123.079 720.157 122.39
C720.886 121.702 721.296 120.768 721.296 119.794
C721.296 118.82 720.886 117.886 720.157 117.197
C719.428 116.509 718.439 116.122 717.408 116.122
C716.377 116.122 715.388 116.509 714.659 117.197
C713.93 117.886 713.52 118.82 713.52 119.794
C713.52 120.768 713.93 121.702 714.659 122.39
C715.388 123.079 716.377 123.466 717.408 123.466
L717.408 123.466" style="fill:none;stroke:#000000;stroke-linejoin:miter;stroke-width:1.5;"/>
   </g>
   <g id="text_1">
    <!-- AND2 -->
    <defs>
     <path d="
M19.6719 64.7969
L19.6719 8.10938
L31.5938 8.10938
Q46.6875 8.10938 53.6875 14.9375
Q60.6875 21.7812 60.6875 36.5312
Q60.6875 51.1719 53.6875 57.9844
Q46.6875 64.7969 31.5938 64.7969
z

M9.8125 72.9062
L30.0781 72.9062
Q51.2656 72.9062 61.1719 64.0938
Q71.0938 55.2812 71.0938 36.5312
Q71.0938 17.6719 61.125 8.82812
Q51.1719 0 30.0781 0
L9.8125 0
z
" id="BitstreamVeraSans-Roman-44"/>
     <path d="
M19.1875 8.29688
L53.6094 8.29688
L53.6094 0
L7.32812 0
L7.32812 8.29688
Q12.9375 14.1094 22.625 23.8906
Q32.3281 33.6875 34.8125 36.5312
Q39.5469 41.8438 41.4219 45.5312
Q43.3125 49.2188 43.3125 52.7812
Q43.3125 58.5938 39.2344 62.25
Q35.1562 65.9219 28.6094 65.9219
Q23.9688 65.9219 18.8125 64.3125
Q13.6719 62.7031 7.8125 59.4219
L7.8125 69.3906
Q13.7656 71.7812 18.9375 73
Q24.125 74.2188 28.4219 74.2188
Q39.75 74.2188 46.4844 68.5469
Q53.2188 62.8906 53.2188 53.4219
Q53.2188 48.9219 51.5312 44.8906
Q49.8594 40.875 45.4062 35.4062
Q44.1875 33.9844 37.6406 27.2188
Q31.1094 20.4531 19.1875 8.29688" id="BitstreamVeraSans-Roman-32"/>
     <path d="
M9.8125 72.9062
L23.0938 72.9062
L55.4219 11.9219
L55.4219 72.9062
L64.9844 72.9062
L64.9844 0
L51.7031 0
L19.3906 60.9844
L19.3906 0
L9.8125 0
z
" id="BitstreamVeraSans-Roman-4e"/>
     <path d="
M34.1875 63.1875
L20.7969 26.9062
L47.6094 26.9062
z

M28.6094 72.9062
L39.7969 72.9062
L67.5781 0
L57.3281 0
L50.6875 18.7031
L17.8281 18.7031
L11.1875 0
L0.78125 0
z
" id="BitstreamVeraSans-Roman-41"/>
    </defs>
    <g transform="translate(26.4571875 16.318125)scale(0.12 -0.12)">
     <use xlink:href="#BitstreamVeraSans-Roman-41"/>
     <use x="68.408203125" xlink:href="#BitstreamVeraSans-Roman-4e"/>
     <use x="143.212890625" xlink:href="#BitstreamVeraSans-Roman-44"/>
     <use x="220.21484375" xlink:href="#BitstreamVeraSans-Roman-32"/>
    </g>
   </g>
   <g id="text_2">
    <!-- NAND2 -->
    <g transform="translate(152.1103125 16.318125)scale(0.12 -0.12)">
     <use xlink:href="#BitstreamVeraSans-Roman-4e"/>
     <use x="74.8046875" xlink:href="#BitstreamVeraSans-Roman-41"/>
     <use x="143.212890625" xlink:href="#BitstreamVeraSans-Roman-4e"/>
     <use x="218.017578125" xlink:href="#BitstreamVeraSans-Roman-44"/>
     <use x="295.01953125" xlink:href="#BitstreamVeraSans-Roman-32"/>
    </g>
   </g>
   <g id="text_3">
    <!-- OR2 -->
    <defs>
     <path d="
M39.4062 66.2188
Q28.6562 66.2188 22.3281 58.2031
Q16.0156 50.2031 16.0156 36.375
Q16.0156 22.6094 22.3281 14.5938
Q28.6562 6.59375 39.4062 6.59375
Q50.1406 6.59375 56.4219 14.5938
Q62.7031 22.6094 62.7031 36.375
Q62.7031 50.2031 56.4219 58.2031
Q50.1406 66.2188 39.4062 66.2188
M39.4062 74.2188
Q54.7344 74.2188 63.9062 63.9375
Q73.0938 53.6562 73.0938 36.375
Q73.0938 19.1406 63.9062 8.85938
Q54.7344 -1.42188 39.4062 -1.42188
Q24.0312 -1.42188 14.8125 8.82812
Q5.60938 19.0938 5.60938 36.375
Q5.60938 53.6562 14.8125 63.9375
Q24.0312 74.2188 39.4062 74.2188" id="BitstreamVeraSans-Roman-4f"/>
     <path d="
M44.3906 34.1875
Q47.5625 33.1094 50.5625 29.5938
Q53.5625 26.0781 56.5938 19.9219
L66.6094 0
L56 0
L46.6875 18.7031
Q43.0625 26.0312 39.6719 28.4219
Q36.2812 30.8125 30.4219 30.8125
L19.6719 30.8125
L19.6719 0
L9.8125 0
L9.8125 72.9062
L32.0781 72.9062
Q44.5781 72.9062 50.7344 67.6719
Q56.8906 62.4531 56.8906 51.9062
Q56.8906 45.0156 53.6875 40.4688
Q50.4844 35.9375 44.3906 34.1875
M19.6719 64.7969
L19.6719 38.9219
L32.0781 38.9219
Q39.2031 38.9219 42.8438 42.2188
Q46.4844 45.5156 46.4844 51.9062
Q46.4844 58.2969 42.8438 61.5469
Q39.2031 64.7969 32.0781 64.7969
z
" id="BitstreamVeraSans-Roman-52"/>
    </defs>
    <g transform="translate(288.6478125 16.318125)scale(0.12 -0.12)">
     <use xlink:href="#BitstreamVeraSans-Roman-4f"/>
     <use x="78.7109375" xlink:href="#BitstreamVeraSans-Roman-52"/>
     <use x="148.193359375" xlink:href="#BitstreamVeraSans-Roman-32"/>
    </g>
   </g>
   <g id="text_4">
    <!-- NOR2 -->
    <g transform="translate(414.01125 16.318125)scale(0.12 -0.12)">
     <use xlink:href="#BitstreamVeraSans-Roman-4e"/>
     <use x="74.8046875" xlink:href="#BitstreamVeraSans-Roman-4f"/>
     <use x="153.515625" xlink:href="#BitstreamVeraSans-Roman-52"/>
     <use x="222.998046875" xlink:href="#BitstreamVeraSans-Roman-32"/>
    </g>
   </g>
   <g id="text_5">
    <!-- XOR2 -->
    <defs>
     <path d="
M6.29688 72.9062
L16.8906 72.9062
L35.0156 45.7969
L53.2188 72.9062
L63.8125 72.9062
L40.375 37.8906
L65.375 0
L54.7812 0
L34.2812 31
L13.625 0
L2.98438 0
L29 38.9219
z
" id="BitstreamVeraSans-Roman-58"/>
    </defs>
    <g transform="translate(546.3928125 16.318125)scale(0.12 -0.12)">
     <use xlink:href="#BitstreamVeraSans-Roman-58"/>
     <use x="62.130859375" xlink:href="#BitstreamVeraSans-Roman-4f"/>
     <use x="140.841796875" xlink:href="#BitstreamVeraSans-Roman-52"/>
     <use x="210.32421875" xlink:href="#BitstreamVeraSans-Roman-32"/>
    </g>
   </g>
   <g id="text_6">
    <!-- XNOR2 -->
    <g transform="translate(671.1215625 16.318125)scale(0.12 -0.12)">
     <use xlink:href="#BitstreamVeraSans-Roman-58"/>
     <use x="68.505859375" xlink:href="#BitstreamVeraSans-Roman-4e"/>
     <use x="143.310546875" xlink:href="#BitstreamVeraSans-Roman-4f"/>
     <use x="222.021484375" xlink:href="#BitstreamVeraSans-Roman-52"/>
     <use x="291.50390625" xlink:href="#BitstreamVeraSans-Roman-32"/>
    </g>
   </g>
   <g id="text_7">
    <!-- AND3 -->
    <defs>
     <path d="
M40.5781 39.3125
Q47.6562 37.7969 51.625 33
Q55.6094 28.2188 55.6094 21.1875
Q55.6094 10.4062 48.1875 4.48438
Q40.7656 -1.42188 27.0938 -1.42188
Q22.5156 -1.42188 17.6562 -0.515625
Q12.7969 0.390625 7.625 2.20312
L7.625 11.7188
Q11.7188 9.32812 16.5938 8.10938
Q21.4844 6.89062 26.8125 6.89062
Q36.0781 6.89062 40.9375 10.5469
Q45.7969 14.2031 45.7969 21.1875
Q45.7969 27.6406 41.2812 31.2656
Q36.7656 34.9062 28.7188 34.9062
L20.2188 34.9062
L20.2188 43.0156
L29.1094 43.0156
Q36.375 43.0156 40.2344 45.9219
Q44.0938 48.8281 44.0938 54.2969
Q44.0938 59.9062 40.1094 62.9062
Q36.1406 65.9219 28.7188 65.9219
Q24.6562 65.9219 20.0156 65.0312
Q15.375 64.1562 9.8125 62.3125
L9.8125 71.0938
Q15.4375 72.6562 20.3438 73.4375
Q25.25 74.2188 29.5938 74.2188
Q40.8281 74.2188 47.3594 69.1094
Q53.9062 64.0156 53.9062 55.3281
Q53.9062 49.2656 50.4375 45.0938
Q46.9688 40.9219 40.5781 39.3125" id="BitstreamVeraSans-Roman-33"/>
    </defs>
    <g transform="translate(26.3371875 92.818125)scale(0.12 -0.12)">
     <use xlink:href="#BitstreamVeraSans-Roman-41"/>
     <use x="68.408203125" xlink:href="#BitstreamVeraSans-Roman-4e"/>
     <use x="143.212890625" xlink:href="#BitstreamVeraSans-Roman-44"/>
     <use x="220.21484375" xlink:href="#BitstreamVeraSans-Roman-33"/>
    </g>
   </g>
   <g id="text_8">
    <!-- NAND3 -->
    <g transform="translate(151.9903125 92.818125)scale(0.12 -0.12)">
     <use xlink:href="#BitstreamVeraSans-Roman-4e"/>
     <use x="74.8046875" xlink:href="#BitstreamVeraSans-Roman-41"/>
     <use x="143.212890625" xlink:href="#BitstreamVeraSans-Roman-4e"/>
     <use x="218.017578125" xlink:href="#BitstreamVeraSans-Roman-44"/>
     <use x="295.01953125" xlink:href="#BitstreamVeraSans-Roman-33"/>
    </g>
   </g>
   <g id="text_9">
    <!-- OR3 -->
    <g transform="translate(288.5278125 92.818125)scale(0.12 -0.12)">
     <use xlink:href="#BitstreamVeraSans-Roman-4f"/>
     <use x="78.7109375" xlink:href="#BitstreamVeraSans-Roman-52"/>
     <use x="148.193359375" xlink:href="#BitstreamVeraSans-Roman-33"/>
    </g>
   </g>
   <g id="text_10">
    <!-- NOR3 -->
    <g transform="translate(413.89125 92.818125)scale(0.12 -0.12)">
     <use xlink:href="#BitstreamVeraSans-Roman-4e"/>
     <use x="74.8046875" xlink:href="#BitstreamVeraSans-Roman-4f"/>
     <use x="153.515625" xlink:href="#BitstreamVeraSans-Roman-52"/>
     <use x="222.998046875" xlink:href="#BitstreamVeraSans-Roman-33"/>
    </g>
   </g>
   <g id="text_11">
    <!-- XOR3 -->
    <g transform="translate(546.2728125 92.818125)scale(0.12 -0.12)">
     <use xlink:href="#BitstreamVeraSans-Roman-58"/>
     <use x="62.130859375" xlink:href="#BitstreamVeraSans-Roman-4f"/>
     <use x="140.841796875" xlink:href="#BitstreamVeraSans-Roman-52"/>
     <use x="210.32421875" xlink:href="#BitstreamVeraSans-Roman-33"/>
    </g>
   </g>
   <g id="text_12">
    <!-- XNOR3 -->
    <g transform="translate(671.0015625 92.818125)scale(0.12 -0.12)">
     <use xlink:href="#BitstreamVeraSans-Roman-58"/>
     <use x="68.505859375" xlink:href="#BitstreamVeraSans-Roman-4e"/>
     <use x="143.310546875" xlink:href="#BitstreamVeraSans-Roman-4f"/>
     <use x="222.021484375" xlink:href="#BitstreamVeraSans-Roman-52"/>
     <use x="291.50390625" xlink:href="#BitstreamVeraSans-Roman-33"/>
    </g>
   </g>
  </g>
 </g>
 <defs>
  <clipPath id="p07afc9175d">
   <rect height="113.22" width="720.9" x="7.2" y="24.93375"/>
  </clipPath>
 </defs>
</svg>
