<?xml version="1.0" encoding="utf-8" standalone="no"?>
<!DOCTYPE svg PUBLIC "-//W3C//DTD SVG 1.1//EN"
  "http://www.w3.org/Graphics/SVG/1.1/DTD/svg11.dtd">
<!-- Created with matplotlib (http://matplotlib.org/) -->
<svg height="154pt" version="1.1" viewBox="0 0 813 154" width="813pt" xmlns="http://www.w3.org/2000/svg" xmlns:xlink="http://www.w3.org/1999/xlink">
 <defs>
  <style type="text/css">
*{stroke-linecap:butt;stroke-linejoin:round;}
  </style>
 </defs>
 <g id="figure_1">
  <g id="patch_1">
   <path d="M 0 154.20875 
L 813.742 154.20875 
L 813.742 0 
L 0 0 
z
" style="fill:none;"/>
  </g>
  <g id="axes_1">
   <g id="patch_2">
    <path clip-path="url(#p01be8faeca)" d="M 82.061 58.59375 
C 86.355859 58.59375 90.479206 56.98069 93.51613 54.112484 
C 96.553054 51.244278 98.261 47.350006 98.261 43.29375 
C 98.261 39.237494 96.553054 35.343222 93.51613 32.475016 
C 90.479206 29.60681 86.355859 27.99375 82.061 27.99375 
" style="fill:none;stroke:#000000;stroke-linejoin:miter;stroke-width:1.5;"/>
   </g>
   <g id="patch_3">
    <path clip-path="url(#p01be8faeca)" d="M 211.661 58.59375 
C 215.955859 58.59375 220.079206 56.98069 223.11613 54.112484 
C 226.153054 51.244278 227.861 47.350006 227.861 43.29375 
C 227.861 39.237494 226.153054 35.343222 223.11613 32.475016 
C 220.079206 29.60681 215.955859 27.99375 211.661 27.99375 
" style="fill:none;stroke:#000000;stroke-linejoin:miter;stroke-width:1.5;"/>
   </g>
   <g id="patch_4">
    <path clip-path="url(#p01be8faeca)" d="M 82.061 135.09375 
C 86.355859 135.09375 90.479206 133.48069 93.51613 130.612484 
C 96.553054 127.744278 98.261 123.850006 98.261 119.79375 
C 98.261 115.737494 96.553054 111.843222 93.51613 108.975016 
C 90.479206 106.10681 86.355859 104.49375 82.061 104.49375 
" style="fill:none;stroke:#000000;stroke-linejoin:miter;stroke-width:1.5;"/>
   </g>
   <g id="patch_5">
    <path clip-path="url(#p01be8faeca)" d="M 211.661 135.09375 
C 215.955859 135.09375 220.079206 133.48069 223.11613 130.612484 
C 226.153054 127.744278 227.861 123.850006 227.861 119.79375 
C 227.861 115.737494 226.153054 111.843222 223.11613 108.975016 
C 220.079206 106.10681 215.955859 104.49375 211.661 104.49375 
" style="fill:none;stroke:#000000;stroke-linejoin:miter;stroke-width:1.5;"/>
   </g>
   <g id="line2d_1">
    <path clip-path="url(#p01be8faeca)" d="M 49.661 43.29375 
M 98.261 43.29375 
L 109.601 43.29375 
" style="fill:none;stroke:#000000;stroke-linecap:round;stroke-width:1.5;"/>
   </g>
   <g id="line2d_2">
    <path clip-path="url(#p01be8faeca)" d="M 61.001 43.29375 
L 61.001 58.59375 
L 82.061 58.59375 
" style="fill:none;stroke:#000000;stroke-linecap:round;stroke-width:1.5;"/>
   </g>
   <g id="line2d_3">
    <path clip-path="url(#p01be8faeca)" d="M 61.001 43.29375 
L 61.001 27.99375 
L 82.061 27.99375 
" style="fill:none;stroke:#000000;stroke-linecap:round;stroke-width:1.5;"/>
   </g>
   <g id="line2d_4">
    <path clip-path="url(#p01be8faeca)" d="M 49.661 50.94375 
L 61.001 50.94375 
" style="fill:none;stroke:#000000;stroke-linecap:round;stroke-width:1.5;"/>
   </g>
   <g id="line2d_5">
    <path clip-path="url(#p01be8faeca)" d="M 49.661 35.64375 
L 61.001 35.64375 
" style="fill:none;stroke:#000000;stroke-linecap:round;stroke-width:1.5;"/>
   </g>
   <g id="line2d_6">
    <path clip-path="url(#p01be8faeca)" d="M 179.261 43.29375 
M 235.637 43.29375 
L 239.201 43.29375 
" style="fill:none;stroke:#000000;stroke-linecap:round;stroke-width:1.5;"/>
   </g>
   <g id="line2d_7">
    <path clip-path="url(#p01be8faeca)" d="M 190.601 43.29375 
L 190.601 58.59375 
L 211.661 58.59375 
" style="fill:none;stroke:#000000;stroke-linecap:round;stroke-width:1.5;"/>
   </g>
   <g id="line2d_8">
    <path clip-path="url(#p01be8faeca)" d="M 190.601 43.29375 
L 190.601 27.99375 
L 211.661 27.99375 
" style="fill:none;stroke:#000000;stroke-linecap:round;stroke-width:1.5;"/>
   </g>
   <g id="line2d_9">
    <path clip-path="url(#p01be8faeca)" d="M 179.261 50.94375 
L 190.601 50.94375 
" style="fill:none;stroke:#000000;stroke-linecap:round;stroke-width:1.5;"/>
   </g>
   <g id="line2d_10">
    <path clip-path="url(#p01be8faeca)" d="M 179.261 35.64375 
L 190.601 35.64375 
" style="fill:none;stroke:#000000;stroke-linecap:round;stroke-width:1.5;"/>
   </g>
   <g id="line2d_11">
    <path clip-path="url(#p01be8faeca)" d="M 308.861 43.29375 
M 359.081 43.29375 
L 370.421 43.29375 
" style="fill:none;stroke:#000000;stroke-linecap:round;stroke-width:1.5;"/>
   </g>
   <g id="line2d_12">
    <path clip-path="url(#p01be8faeca)" d="M 320.201 58.28775 
L 336.401 58.28775 
L 336.863857 58.281505 
L 337.326714 58.26277 
L 337.789571 58.231546 
L 338.252429 58.187832 
L 338.715286 58.131628 
L 339.178143 58.062934 
L 339.641 57.98175 
L 340.103857 57.888077 
L 340.566714 57.781913 
L 341.029571 57.66326 
L 341.492429 57.532117 
L 341.955286 57.388485 
L 342.418143 57.232362 
L 342.881 57.06375 
L 343.343857 56.882648 
L 343.806714 56.689056 
L 344.269571 56.482974 
L 344.732429 56.264403 
L 345.195286 56.033342 
L 345.658143 55.789791 
L 346.121 55.53375 
L 346.583857 55.265219 
L 347.046714 54.984199 
L 347.509571 54.690689 
L 347.972429 54.384689 
L 348.435286 54.066199 
L 348.898143 53.735219 
L 349.361 53.39175 
L 349.823857 53.035791 
L 350.286714 52.667342 
L 350.749571 52.286403 
L 351.212429 51.892974 
L 351.675286 51.487056 
L 352.138143 51.068648 
L 352.601 50.63775 
L 353.063857 50.194362 
L 353.526714 49.738485 
L 353.989571 49.270117 
L 354.452429 48.78926 
L 354.915286 48.295913 
L 355.378143 47.790077 
L 355.841 47.27175 
L 356.303857 46.740934 
L 356.766714 46.197628 
L 357.229571 45.641832 
L 357.692429 45.073546 
L 358.155286 44.49277 
L 358.618143 43.899505 
L 359.081 43.29375 
" style="fill:none;stroke:#000000;stroke-linecap:round;stroke-width:1.5;"/>
   </g>
   <g id="line2d_13">
    <path clip-path="url(#p01be8faeca)" d="M 320.201 28.29975 
L 336.401 28.29975 
L 336.863857 28.305995 
L 337.326714 28.32473 
L 337.789571 28.355954 
L 338.252429 28.399668 
L 338.715286 28.455872 
L 339.178143 28.524566 
L 339.641 28.60575 
L 340.103857 28.699423 
L 340.566714 28.805587 
L 341.029571 28.92424 
L 341.492429 29.055383 
L 341.955286 29.199015 
L 342.418143 29.355138 
L 342.881 29.52375 
L 343.343857 29.704852 
L 343.806714 29.898444 
L 344.269571 30.104526 
L 344.732429 30.323097 
L 345.195286 30.554158 
L 345.658143 30.797709 
L 346.121 31.05375 
L 346.583857 31.322281 
L 347.046714 31.603301 
L 347.509571 31.896811 
L 347.972429 32.202811 
L 348.435286 32.521301 
L 348.898143 32.852281 
L 349.361 33.19575 
L 349.823857 33.551709 
L 350.286714 33.920158 
L 350.749571 34.301097 
L 351.212429 34.694526 
L 351.675286 35.100444 
L 352.138143 35.518852 
L 352.601 35.94975 
L 353.063857 36.393138 
L 353.526714 36.849015 
L 353.989571 37.317383 
L 354.452429 37.79824 
L 354.915286 38.291587 
L 355.378143 38.797423 
L 355.841 39.31575 
L 356.303857 39.846566 
L 356.766714 40.389872 
L 357.229571 40.945668 
L 357.692429 41.513954 
L 358.155286 42.09473 
L 358.618143 42.687995 
L 359.081 43.29375 
" style="fill:none;stroke:#000000;stroke-linecap:round;stroke-width:1.5;"/>
   </g>
   <g id="line2d_14">
    <path clip-path="url(#p01be8faeca)" d="M 320.201 58.28775 
L 320.82308 57.67575 
L 321.41924 57.06375 
L 321.98948 56.45175 
L 322.5338 55.83975 
L 323.0522 55.22775 
L 323.54468 54.61575 
L 324.01124 54.00375 
L 324.45188 53.39175 
L 324.8666 52.77975 
L 325.2554 52.16775 
L 325.61828 51.55575 
L 325.95524 50.94375 
L 326.26628 50.33175 
L 326.5514 49.71975 
L 326.8106 49.10775 
L 327.04388 48.49575 
L 327.25124 47.88375 
L 327.43268 47.27175 
L 327.5882 46.65975 
L 327.7178 46.04775 
L 327.82148 45.43575 
L 327.89924 44.82375 
L 327.95108 44.21175 
L 327.977 43.59975 
L 327.977 42.98775 
L 327.95108 42.37575 
L 327.89924 41.76375 
L 327.82148 41.15175 
L 327.7178 40.53975 
L 327.5882 39.92775 
L 327.43268 39.31575 
L 327.25124 38.70375 
L 327.04388 38.09175 
L 326.8106 37.47975 
L 326.5514 36.86775 
L 326.26628 36.25575 
L 325.95524 35.64375 
L 325.61828 35.03175 
L 325.2554 34.41975 
L 324.8666 33.80775 
L 324.45188 33.19575 
L 324.01124 32.58375 
L 323.54468 31.97175 
L 323.0522 31.35975 
L 322.5338 30.74775 
L 321.98948 30.13575 
L 321.41924 29.52375 
L 320.82308 28.91175 
L 320.201 28.29975 
" style="fill:none;stroke:#000000;stroke-linecap:round;stroke-width:1.5;"/>
   </g>
   <g id="line2d_15">
    <path clip-path="url(#p01be8faeca)" d="M 308.861 50.94375 
L 325.95524 50.94375 
" style="fill:none;stroke:#000000;stroke-linecap:round;stroke-width:1.5;"/>
   </g>
   <g id="line2d_16">
    <path clip-path="url(#p01be8faeca)" d="M 308.861 35.64375 
L 325.95524 35.64375 
" style="fill:none;stroke:#000000;stroke-linecap:round;stroke-width:1.5;"/>
   </g>
   <g id="line2d_17">
    <path clip-path="url(#p01be8faeca)" d="M 438.461 43.29375 
M 496.457 43.29375 
L 500.021 43.29375 
" style="fill:none;stroke:#000000;stroke-linecap:round;stroke-width:1.5;"/>
   </g>
   <g id="line2d_18">
    <path clip-path="url(#p01be8faeca)" d="M 449.801 58.28775 
L 466.001 58.28775 
L 466.463857 58.281505 
L 466.926714 58.26277 
L 467.389571 58.231546 
L 467.852429 58.187832 
L 468.315286 58.131628 
L 468.778143 58.062934 
L 469.241 57.98175 
L 469.703857 57.888077 
L 470.166714 57.781913 
L 470.629571 57.66326 
L 471.092429 57.532117 
L 471.555286 57.388485 
L 472.018143 57.232362 
L 472.481 57.06375 
L 472.943857 56.882648 
L 473.406714 56.689056 
L 473.869571 56.482974 
L 474.332429 56.264403 
L 474.795286 56.033342 
L 475.258143 55.789791 
L 475.721 55.53375 
L 476.183857 55.265219 
L 476.646714 54.984199 
L 477.109571 54.690689 
L 477.572429 54.384689 
L 478.035286 54.066199 
L 478.498143 53.735219 
L 478.961 53.39175 
L 479.423857 53.035791 
L 479.886714 52.667342 
L 480.349571 52.286403 
L 480.812429 51.892974 
L 481.275286 51.487056 
L 481.738143 51.068648 
L 482.201 50.63775 
L 482.663857 50.194362 
L 483.126714 49.738485 
L 483.589571 49.270117 
L 484.052429 48.78926 
L 484.515286 48.295913 
L 484.978143 47.790077 
L 485.441 47.27175 
L 485.903857 46.740934 
L 486.366714 46.197628 
L 486.829571 45.641832 
L 487.292429 45.073546 
L 487.755286 44.49277 
L 488.218143 43.899505 
L 488.681 43.29375 
" style="fill:none;stroke:#000000;stroke-linecap:round;stroke-width:1.5;"/>
   </g>
   <g id="line2d_19">
    <path clip-path="url(#p01be8faeca)" d="M 449.801 28.29975 
L 466.001 28.29975 
L 466.463857 28.305995 
L 466.926714 28.32473 
L 467.389571 28.355954 
L 467.852429 28.399668 
L 468.315286 28.455872 
L 468.778143 28.524566 
L 469.241 28.60575 
L 469.703857 28.699423 
L 470.166714 28.805587 
L 470.629571 28.92424 
L 471.092429 29.055383 
L 471.555286 29.199015 
L 472.018143 29.355138 
L 472.481 29.52375 
L 472.943857 29.704852 
L 473.406714 29.898444 
L 473.869571 30.104526 
L 474.332429 30.323097 
L 474.795286 30.554158 
L 475.258143 30.797709 
L 475.721 31.05375 
L 476.183857 31.322281 
L 476.646714 31.603301 
L 477.109571 31.896811 
L 477.572429 32.202811 
L 478.035286 32.521301 
L 478.498143 32.852281 
L 478.961 33.19575 
L 479.423857 33.551709 
L 479.886714 33.920158 
L 480.349571 34.301097 
L 480.812429 34.694526 
L 481.275286 35.100444 
L 481.738143 35.518852 
L 482.201 35.94975 
L 482.663857 36.393138 
L 483.126714 36.849015 
L 483.589571 37.317383 
L 484.052429 37.79824 
L 484.515286 38.291587 
L 484.978143 38.797423 
L 485.441 39.31575 
L 485.903857 39.846566 
L 486.366714 40.389872 
L 486.829571 40.945668 
L 487.292429 41.513954 
L 487.755286 42.09473 
L 488.218143 42.687995 
L 488.681 43.29375 
" style="fill:none;stroke:#000000;stroke-linecap:round;stroke-width:1.5;"/>
   </g>
   <g id="line2d_20">
    <path clip-path="url(#p01be8faeca)" d="M 449.801 58.28775 
L 450.42308 57.67575 
L 451.01924 57.06375 
L 451.58948 56.45175 
L 452.1338 55.83975 
L 452.6522 55.22775 
L 453.14468 54.61575 
L 453.61124 54.00375 
L 454.05188 53.39175 
L 454.4666 52.77975 
L 454.8554 52.16775 
L 455.21828 51.55575 
L 455.55524 50.94375 
L 455.86628 50.33175 
L 456.1514 49.71975 
L 456.4106 49.10775 
L 456.64388 48.49575 
L 456.85124 47.88375 
L 457.03268 47.27175 
L 457.1882 46.65975 
L 457.3178 46.04775 
L 457.42148 45.43575 
L 457.49924 44.82375 
L 457.55108 44.21175 
L 457.577 43.59975 
L 457.577 42.98775 
L 457.55108 42.37575 
L 457.49924 41.76375 
L 457.42148 41.15175 
L 457.3178 40.53975 
L 457.1882 39.92775 
L 457.03268 39.31575 
L 456.85124 38.70375 
L 456.64388 38.09175 
L 456.4106 37.47975 
L 456.1514 36.86775 
L 455.86628 36.25575 
L 455.55524 35.64375 
L 455.21828 35.03175 
L 454.8554 34.41975 
L 454.4666 33.80775 
L 454.05188 33.19575 
L 453.61124 32.58375 
L 453.14468 31.97175 
L 452.6522 31.35975 
L 452.1338 30.74775 
L 451.58948 30.13575 
L 451.01924 29.52375 
L 450.42308 28.91175 
L 449.801 28.29975 
" style="fill:none;stroke:#000000;stroke-linecap:round;stroke-width:1.5;"/>
   </g>
   <g id="line2d_21">
    <path clip-path="url(#p01be8faeca)" d="M 438.461 50.94375 
L 455.55524 50.94375 
" style="fill:none;stroke:#000000;stroke-linecap:round;stroke-width:1.5;"/>
   </g>
   <g id="line2d_22">
    <path clip-path="url(#p01be8faeca)" d="M 438.461 35.64375 
L 455.55524 35.64375 
" style="fill:none;stroke:#000000;stroke-linecap:round;stroke-width:1.5;"/>
   </g>
   <g id="line2d_23">
    <path clip-path="url(#p01be8faeca)" d="M 568.061 43.29375 
M 623.141 43.29375 
L 634.481 43.29375 
" style="fill:none;stroke:#000000;stroke-linecap:round;stroke-width:1.5;"/>
   </g>
   <g id="line2d_24">
    <path clip-path="url(#p01be8faeca)" d="M 584.261 58.28775 
L 600.461 58.28775 
L 600.923857 58.281505 
L 601.386714 58.26277 
L 601.849571 58.231546 
L 602.312429 58.187832 
L 602.775286 58.131628 
L 603.238143 58.062934 
L 603.701 57.98175 
L 604.163857 57.888077 
L 604.626714 57.781913 
L 605.089571 57.66326 
L 605.552429 57.532117 
L 606.015286 57.388485 
L 606.478143 57.232362 
L 606.941 57.06375 
L 607.403857 56.882648 
L 607.866714 56.689056 
L 608.329571 56.482974 
L 608.792429 56.264403 
L 609.255286 56.033342 
L 609.718143 55.789791 
L 610.181 55.53375 
L 610.643857 55.265219 
L 611.106714 54.984199 
L 611.569571 54.690689 
L 612.032429 54.384689 
L 612.495286 54.066199 
L 612.958143 53.735219 
L 613.421 53.39175 
L 613.883857 53.035791 
L 614.346714 52.667342 
L 614.809571 52.286403 
L 615.272429 51.892974 
L 615.735286 51.487056 
L 616.198143 51.068648 
L 616.661 50.63775 
L 617.123857 50.194362 
L 617.586714 49.738485 
L 618.049571 49.270117 
L 618.512429 48.78926 
L 618.975286 48.295913 
L 619.438143 47.790077 
L 619.901 47.27175 
L 620.363857 46.740934 
L 620.826714 46.197628 
L 621.289571 45.641832 
L 621.752429 45.073546 
L 622.215286 44.49277 
L 622.678143 43.899505 
L 623.141 43.29375 
" style="fill:none;stroke:#000000;stroke-linecap:round;stroke-width:1.5;"/>
   </g>
   <g id="line2d_25">
    <path clip-path="url(#p01be8faeca)" d="M 584.261 28.29975 
L 600.461 28.29975 
L 600.923857 28.305995 
L 601.386714 28.32473 
L 601.849571 28.355954 
L 602.312429 28.399668 
L 602.775286 28.455872 
L 603.238143 28.524566 
L 603.701 28.60575 
L 604.163857 28.699423 
L 604.626714 28.805587 
L 605.089571 28.92424 
L 605.552429 29.055383 
L 606.015286 29.199015 
L 606.478143 29.355138 
L 606.941 29.52375 
L 607.403857 29.704852 
L 607.866714 29.898444 
L 608.329571 30.104526 
L 608.792429 30.323097 
L 609.255286 30.554158 
L 609.718143 30.797709 
L 610.181 31.05375 
L 610.643857 31.322281 
L 611.106714 31.603301 
L 611.569571 31.896811 
L 612.032429 32.202811 
L 612.495286 32.521301 
L 612.958143 32.852281 
L 613.421 33.19575 
L 613.883857 33.551709 
L 614.346714 33.920158 
L 614.809571 34.301097 
L 615.272429 34.694526 
L 615.735286 35.100444 
L 616.198143 35.518852 
L 616.661 35.94975 
L 617.123857 36.393138 
L 617.586714 36.849015 
L 618.049571 37.317383 
L 618.512429 37.79824 
L 618.975286 38.291587 
L 619.438143 38.797423 
L 619.901 39.31575 
L 620.363857 39.846566 
L 620.826714 40.389872 
L 621.289571 40.945668 
L 621.752429 41.513954 
L 622.215286 42.09473 
L 622.678143 42.687995 
L 623.141 43.29375 
" style="fill:none;stroke:#000000;stroke-linecap:round;stroke-width:1.5;"/>
   </g>
   <g id="line2d_26">
    <path clip-path="url(#p01be8faeca)" d="M 579.401 58.28775 
L 580.02308 57.67575 
L 580.61924 57.06375 
L 581.18948 56.45175 
L 581.7338 55.83975 
L 582.2522 55.22775 
L 582.74468 54.61575 
L 583.21124 54.00375 
L 583.65188 53.39175 
L 584.0666 52.77975 
L 584.4554 52.16775 
L 584.81828 51.55575 
L 585.15524 50.94375 
L 585.46628 50.33175 
L 585.7514 49.71975 
L 586.0106 49.10775 
L 586.24388 48.49575 
L 586.45124 47.88375 
L 586.63268 47.27175 
L 586.7882 46.65975 
L 586.9178 46.04775 
L 587.02148 45.43575 
L 587.09924 44.82375 
L 587.15108 44.21175 
L 587.177 43.59975 
L 587.177 42.98775 
L 587.15108 42.37575 
L 587.09924 41.76375 
L 587.02148 41.15175 
L 586.9178 40.53975 
L 586.7882 39.92775 
L 586.63268 39.31575 
L 586.45124 38.70375 
L 586.24388 38.09175 
L 586.0106 37.47975 
L 585.7514 36.86775 
L 585.46628 36.25575 
L 585.15524 35.64375 
L 584.81828 35.03175 
L 584.4554 34.41975 
L 584.0666 33.80775 
L 583.65188 33.19575 
L 583.21124 32.58375 
L 582.74468 31.97175 
L 582.2522 31.35975 
L 581.7338 30.74775 
L 581.18948 30.13575 
L 580.61924 29.52375 
L 580.02308 28.91175 
L 579.401 28.29975 
" style="fill:none;stroke:#000000;stroke-linecap:round;stroke-width:1.5;"/>
   </g>
   <g id="line2d_27">
    <path clip-path="url(#p01be8faeca)" d="M 584.261 58.28775 
L 584.88308 57.67575 
L 585.47924 57.06375 
L 586.04948 56.45175 
L 586.5938 55.83975 
L 587.1122 55.22775 
L 587.60468 54.61575 
L 588.07124 54.00375 
L 588.51188 53.39175 
L 588.9266 52.77975 
L 589.3154 52.16775 
L 589.67828 51.55575 
L 590.01524 50.94375 
L 590.32628 50.33175 
L 590.6114 49.71975 
L 590.8706 49.10775 
L 591.10388 48.49575 
L 591.31124 47.88375 
L 591.49268 47.27175 
L 591.6482 46.65975 
L 591.7778 46.04775 
L 591.88148 45.43575 
L 591.95924 44.82375 
L 592.01108 44.21175 
L 592.037 43.59975 
L 592.037 42.98775 
L 592.01108 42.37575 
L 591.95924 41.76375 
L 591.88148 41.15175 
L 591.7778 40.53975 
L 591.6482 39.92775 
L 591.49268 39.31575 
L 591.31124 38.70375 
L 591.10388 38.09175 
L 590.8706 37.47975 
L 590.6114 36.86775 
L 590.32628 36.25575 
L 590.01524 35.64375 
L 589.67828 35.03175 
L 589.3154 34.41975 
L 588.9266 33.80775 
L 588.51188 33.19575 
L 588.07124 32.58375 
L 587.60468 31.97175 
L 587.1122 31.35975 
L 586.5938 30.74775 
L 586.04948 30.13575 
L 585.47924 29.52375 
L 584.88308 28.91175 
L 584.261 28.29975 
" style="fill:none;stroke:#000000;stroke-linecap:round;stroke-width:1.5;"/>
   </g>
   <g id="line2d_28">
    <path clip-path="url(#p01be8faeca)" d="M 568.061 50.94375 
L 585.15524 50.94375 
" style="fill:none;stroke:#000000;stroke-linecap:round;stroke-width:1.5;"/>
   </g>
   <g id="line2d_29">
    <path clip-path="url(#p01be8faeca)" d="M 568.061 35.64375 
L 585.15524 35.64375 
" style="fill:none;stroke:#000000;stroke-linecap:round;stroke-width:1.5;"/>
   </g>
   <g id="line2d_30">
    <path clip-path="url(#p01be8faeca)" d="M 697.661 43.29375 
M 760.517 43.29375 
L 764.081 43.29375 
" style="fill:none;stroke:#000000;stroke-linecap:round;stroke-width:1.5;"/>
   </g>
   <g id="line2d_31">
    <path clip-path="url(#p01be8faeca)" d="M 713.861 58.28775 
L 730.061 58.28775 
L 730.523857 58.281505 
L 730.986714 58.26277 
L 731.449571 58.231546 
L 731.912429 58.187832 
L 732.375286 58.131628 
L 732.838143 58.062934 
L 733.301 57.98175 
L 733.763857 57.888077 
L 734.226714 57.781913 
L 734.689571 57.66326 
L 735.152429 57.532117 
L 735.615286 57.388485 
L 736.078143 57.232362 
L 736.541 57.06375 
L 737.003857 56.882648 
L 737.466714 56.689056 
L 737.929571 56.482974 
L 738.392429 56.264403 
L 738.855286 56.033342 
L 739.318143 55.789791 
L 739.781 55.53375 
L 740.243857 55.265219 
L 740.706714 54.984199 
L 741.169571 54.690689 
L 741.632429 54.384689 
L 742.095286 54.066199 
L 742.558143 53.735219 
L 743.021 53.39175 
L 743.483857 53.035791 
L 743.946714 52.667342 
L 744.409571 52.286403 
L 744.872429 51.892974 
L 745.335286 51.487056 
L 745.798143 51.068648 
L 746.261 50.63775 
L 746.723857 50.194362 
L 747.186714 49.738485 
L 747.649571 49.270117 
L 748.112429 48.78926 
L 748.575286 48.295913 
L 749.038143 47.790077 
L 749.501 47.27175 
L 749.963857 46.740934 
L 750.426714 46.197628 
L 750.889571 45.641832 
L 751.352429 45.073546 
L 751.815286 44.49277 
L 752.278143 43.899505 
L 752.741 43.29375 
" style="fill:none;stroke:#000000;stroke-linecap:round;stroke-width:1.5;"/>
   </g>
   <g id="line2d_32">
    <path clip-path="url(#p01be8faeca)" d="M 713.861 28.29975 
L 730.061 28.29975 
L 730.523857 28.305995 
L 730.986714 28.32473 
L 731.449571 28.355954 
L 731.912429 28.399668 
L 732.375286 28.455872 
L 732.838143 28.524566 
L 733.301 28.60575 
L 733.763857 28.699423 
L 734.226714 28.805587 
L 734.689571 28.92424 
L 735.152429 29.055383 
L 735.615286 29.199015 
L 736.078143 29.355138 
L 736.541 29.52375 
L 737.003857 29.704852 
L 737.466714 29.898444 
L 737.929571 30.104526 
L 738.392429 30.323097 
L 738.855286 30.554158 
L 739.318143 30.797709 
L 739.781 31.05375 
L 740.243857 31.322281 
L 740.706714 31.603301 
L 741.169571 31.896811 
L 741.632429 32.202811 
L 742.095286 32.521301 
L 742.558143 32.852281 
L 743.021 33.19575 
L 743.483857 33.551709 
L 743.946714 33.920158 
L 744.409571 34.301097 
L 744.872429 34.694526 
L 745.335286 35.100444 
L 745.798143 35.518852 
L 746.261 35.94975 
L 746.723857 36.393138 
L 747.186714 36.849015 
L 747.649571 37.317383 
L 748.112429 37.79824 
L 748.575286 38.291587 
L 749.038143 38.797423 
L 749.501 39.31575 
L 749.963857 39.846566 
L 750.426714 40.389872 
L 750.889571 40.945668 
L 751.352429 41.513954 
L 751.815286 42.09473 
L 752.278143 42.687995 
L 752.741 43.29375 
" style="fill:none;stroke:#000000;stroke-linecap:round;stroke-width:1.5;"/>
   </g>
   <g id="line2d_33">
    <path clip-path="url(#p01be8faeca)" d="M 709.001 58.28775 
L 709.62308 57.67575 
L 710.21924 57.06375 
L 710.78948 56.45175 
L 711.3338 55.83975 
L 711.8522 55.22775 
L 712.34468 54.61575 
L 712.81124 54.00375 
L 713.25188 53.39175 
L 713.6666 52.77975 
L 714.0554 52.16775 
L 714.41828 51.55575 
L 714.75524 50.94375 
L 715.06628 50.33175 
L 715.3514 49.71975 
L 715.6106 49.10775 
L 715.84388 48.49575 
L 716.05124 47.88375 
L 716.23268 47.27175 
L 716.3882 46.65975 
L 716.5178 46.04775 
L 716.62148 45.43575 
L 716.69924 44.82375 
L 716.75108 44.21175 
L 716.777 43.59975 
L 716.777 42.98775 
L 716.75108 42.37575 
L 716.69924 41.76375 
L 716.62148 41.15175 
L 716.5178 40.53975 
L 716.3882 39.92775 
L 716.23268 39.31575 
L 716.05124 38.70375 
L 715.84388 38.09175 
L 715.6106 37.47975 
L 715.3514 36.86775 
L 715.06628 36.25575 
L 714.75524 35.64375 
L 714.41828 35.03175 
L 714.0554 34.41975 
L 713.6666 33.80775 
L 713.25188 33.19575 
L 712.81124 32.58375 
L 712.34468 31.97175 
L 711.8522 31.35975 
L 711.3338 30.74775 
L 710.78948 30.13575 
L 710.21924 29.52375 
L 709.62308 28.91175 
L 709.001 28.29975 
" style="fill:none;stroke:#000000;stroke-linecap:round;stroke-width:1.5;"/>
   </g>
   <g id="line2d_34">
    <path clip-path="url(#p01be8faeca)" d="M 713.861 58.28775 
L 714.48308 57.67575 
L 715.07924 57.06375 
L 715.64948 56.45175 
L 716.1938 55.83975 
L 716.7122 55.22775 
L 717.20468 54.61575 
L 717.67124 54.00375 
L 718.11188 53.39175 
L 718.5266 52.77975 
L 718.9154 52.16775 
L 719.27828 51.55575 
L 719.61524 50.94375 
L 719.92628 50.33175 
L 720.2114 49.71975 
L 720.4706 49.10775 
L 720.70388 48.49575 
L 720.91124 47.88375 
L 721.09268 47.27175 
L 721.2482 46.65975 
L 721.3778 46.04775 
L 721.48148 45.43575 
L 721.55924 44.82375 
L 721.61108 44.21175 
L 721.637 43.59975 
L 721.637 42.98775 
L 721.61108 42.37575 
L 721.55924 41.76375 
L 721.48148 41.15175 
L 721.3778 40.53975 
L 721.2482 39.92775 
L 721.09268 39.31575 
L 720.91124 38.70375 
L 720.70388 38.09175 
L 720.4706 37.47975 
L 720.2114 36.86775 
L 719.92628 36.25575 
L 719.61524 35.64375 
L 719.27828 35.03175 
L 718.9154 34.41975 
L 718.5266 33.80775 
L 718.11188 33.19575 
L 717.67124 32.58375 
L 717.20468 31.97175 
L 716.7122 31.35975 
L 716.1938 30.74775 
L 715.64948 30.13575 
L 715.07924 29.52375 
L 714.48308 28.91175 
L 713.861 28.29975 
" style="fill:none;stroke:#000000;stroke-linecap:round;stroke-width:1.5;"/>
   </g>
   <g id="line2d_35">
    <path clip-path="url(#p01be8faeca)" d="M 697.661 50.94375 
L 714.75524 50.94375 
" style="fill:none;stroke:#000000;stroke-linecap:round;stroke-width:1.5;"/>
   </g>
   <g id="line2d_36">
    <path clip-path="url(#p01be8faeca)" d="M 697.661 35.64375 
L 714.75524 35.64375 
" style="fill:none;stroke:#000000;stroke-linecap:round;stroke-width:1.5;"/>
   </g>
   <g id="line2d_37">
    <path clip-path="url(#p01be8faeca)" d="M 49.661 119.79375 
M 98.261 119.79375 
L 109.601 119.79375 
" style="fill:none;stroke:#000000;stroke-linecap:round;stroke-width:1.5;"/>
   </g>
   <g id="line2d_38">
    <path clip-path="url(#p01be8faeca)" d="M 61.001 119.79375 
L 61.001 135.09375 
L 82.061 135.09375 
" style="fill:none;stroke:#000000;stroke-linecap:round;stroke-width:1.5;"/>
   </g>
   <g id="line2d_39">
    <path clip-path="url(#p01be8faeca)" d="M 61.001 119.79375 
L 61.001 104.49375 
L 82.061 104.49375 
" style="fill:none;stroke:#000000;stroke-linecap:round;stroke-width:1.5;"/>
   </g>
   <g id="line2d_40">
    <path clip-path="url(#p01be8faeca)" d="M 49.661 129.89175 
L 61.001 129.89175 
" style="fill:none;stroke:#000000;stroke-linecap:round;stroke-width:1.5;"/>
   </g>
   <g id="line2d_41">
    <path clip-path="url(#p01be8faeca)" d="M 49.661 119.79375 
L 61.001 119.79375 
" style="fill:none;stroke:#000000;stroke-linecap:round;stroke-width:1.5;"/>
   </g>
   <g id="line2d_42">
    <path clip-path="url(#p01be8faeca)" d="M 49.661 109.69575 
L 61.001 109.69575 
" style="fill:none;stroke:#000000;stroke-linecap:round;stroke-width:1.5;"/>
   </g>
   <g id="line2d_43">
    <path clip-path="url(#p01be8faeca)" d="M 179.261 119.79375 
M 235.637 119.79375 
L 239.201 119.79375 
" style="fill:none;stroke:#000000;stroke-linecap:round;stroke-width:1.5;"/>
   </g>
   <g id="line2d_44">
    <path clip-path="url(#p01be8faeca)" d="M 190.601 119.79375 
L 190.601 135.09375 
L 211.661 135.09375 
" style="fill:none;stroke:#000000;stroke-linecap:round;stroke-width:1.5;"/>
   </g>
   <g id="line2d_45">
    <path clip-path="url(#p01be8faeca)" d="M 190.601 119.79375 
L 190.601 104.49375 
L 211.661 104.49375 
" style="fill:none;stroke:#000000;stroke-linecap:round;stroke-width:1.5;"/>
   </g>
   <g id="line2d_46">
    <path clip-path="url(#p01be8faeca)" d="M 179.261 129.89175 
L 190.601 129.89175 
" style="fill:none;stroke:#000000;stroke-linecap:round;stroke-width:1.5;"/>
   </g>
   <g id="line2d_47">
    <path clip-path="url(#p01be8faeca)" d="M 179.261 119.79375 
L 190.601 119.79375 
" style="fill:none;stroke:#000000;stroke-linecap:round;stroke-width:1.5;"/>
   </g>
   <g id="line2d_48">
    <path clip-path="url(#p01be8faeca)" d="M 179.261 109.69575 
L 190.601 109.69575 
" style="fill:none;stroke:#000000;stroke-linecap:round;stroke-width:1.5;"/>
   </g>
   <g id="line2d_49">
    <path clip-path="url(#p01be8faeca)" d="M 308.861 119.79375 
M 359.081 119.79375 
L 370.421 119.79375 
" style="fill:none;stroke:#000000;stroke-linecap:round;stroke-width:1.5;"/>
   </g>
   <g id="line2d_50">
    <path clip-path="url(#p01be8faeca)" d="M 320.201 134.78775 
L 336.401 134.78775 
L 336.863857 134.781505 
L 337.326714 134.76277 
L 337.789571 134.731546 
L 338.252429 134.687832 
L 338.715286 134.631628 
L 339.178143 134.562934 
L 339.641 134.48175 
L 340.103857 134.388077 
L 340.566714 134.281913 
L 341.029571 134.16326 
L 341.492429 134.032117 
L 341.955286 133.888485 
L 342.418143 133.732362 
L 342.881 133.56375 
L 343.343857 133.382648 
L 343.806714 133.189056 
L 344.269571 132.982974 
L 344.732429 132.764403 
L 345.195286 132.533342 
L 345.658143 132.289791 
L 346.121 132.03375 
L 346.583857 131.765219 
L 347.046714 131.484199 
L 347.509571 131.190689 
L 347.972429 130.884689 
L 348.435286 130.566199 
L 348.898143 130.235219 
L 349.361 129.89175 
L 349.823857 129.535791 
L 350.286714 129.167342 
L 350.749571 128.786403 
L 351.212429 128.392974 
L 351.675286 127.987056 
L 352.138143 127.568648 
L 352.601 127.13775 
L 353.063857 126.694362 
L 353.526714 126.238485 
L 353.989571 125.770117 
L 354.452429 125.28926 
L 354.915286 124.795913 
L 355.378143 124.290077 
L 355.841 123.77175 
L 356.303857 123.240934 
L 356.766714 122.697628 
L 357.229571 122.141832 
L 357.692429 121.573546 
L 358.155286 120.99277 
L 358.618143 120.399505 
L 359.081 119.79375 
" style="fill:none;stroke:#000000;stroke-linecap:round;stroke-width:1.5;"/>
   </g>
   <g id="line2d_51">
    <path clip-path="url(#p01be8faeca)" d="M 320.201 104.79975 
L 336.401 104.79975 
L 336.863857 104.805995 
L 337.326714 104.82473 
L 337.789571 104.855954 
L 338.252429 104.899668 
L 338.715286 104.955872 
L 339.178143 105.024566 
L 339.641 105.10575 
L 340.103857 105.199423 
L 340.566714 105.305587 
L 341.029571 105.42424 
L 341.492429 105.555383 
L 341.955286 105.699015 
L 342.418143 105.855138 
L 342.881 106.02375 
L 343.343857 106.204852 
L 343.806714 106.398444 
L 344.269571 106.604526 
L 344.732429 106.823097 
L 345.195286 107.054158 
L 345.658143 107.297709 
L 346.121 107.55375 
L 346.583857 107.822281 
L 347.046714 108.103301 
L 347.509571 108.396811 
L 347.972429 108.702811 
L 348.435286 109.021301 
L 348.898143 109.352281 
L 349.361 109.69575 
L 349.823857 110.051709 
L 350.286714 110.420158 
L 350.749571 110.801097 
L 351.212429 111.194526 
L 351.675286 111.600444 
L 352.138143 112.018852 
L 352.601 112.44975 
L 353.063857 112.893138 
L 353.526714 113.349015 
L 353.989571 113.817383 
L 354.452429 114.29824 
L 354.915286 114.791587 
L 355.378143 115.297423 
L 355.841 115.81575 
L 356.303857 116.346566 
L 356.766714 116.889872 
L 357.229571 117.445668 
L 357.692429 118.013954 
L 358.155286 118.59473 
L 358.618143 119.187995 
L 359.081 119.79375 
" style="fill:none;stroke:#000000;stroke-linecap:round;stroke-width:1.5;"/>
   </g>
   <g id="line2d_52">
    <path clip-path="url(#p01be8faeca)" d="M 320.201 134.78775 
L 320.82308 134.17575 
L 321.41924 133.56375 
L 321.98948 132.95175 
L 322.5338 132.33975 
L 323.0522 131.72775 
L 323.54468 131.11575 
L 324.01124 130.50375 
L 324.45188 129.89175 
L 324.8666 129.27975 
L 325.2554 128.66775 
L 325.61828 128.05575 
L 325.95524 127.44375 
L 326.26628 126.83175 
L 326.5514 126.21975 
L 326.8106 125.60775 
L 327.04388 124.99575 
L 327.25124 124.38375 
L 327.43268 123.77175 
L 327.5882 123.15975 
L 327.7178 122.54775 
L 327.82148 121.93575 
L 327.89924 121.32375 
L 327.95108 120.71175 
L 327.977 120.09975 
L 327.977 119.48775 
L 327.95108 118.87575 
L 327.89924 118.26375 
L 327.82148 117.65175 
L 327.7178 117.03975 
L 327.5882 116.42775 
L 327.43268 115.81575 
L 327.25124 115.20375 
L 327.04388 114.59175 
L 326.8106 113.97975 
L 326.5514 113.36775 
L 326.26628 112.75575 
L 325.95524 112.14375 
L 325.61828 111.53175 
L 325.2554 110.91975 
L 324.8666 110.30775 
L 324.45188 109.69575 
L 324.01124 109.08375 
L 323.54468 108.47175 
L 323.0522 107.85975 
L 322.5338 107.24775 
L 321.98948 106.63575 
L 321.41924 106.02375 
L 320.82308 105.41175 
L 320.201 104.79975 
" style="fill:none;stroke:#000000;stroke-linecap:round;stroke-width:1.5;"/>
   </g>
   <g id="line2d_53">
    <path clip-path="url(#p01be8faeca)" d="M 308.861 129.89175 
L 324.45188 129.89175 
" style="fill:none;stroke:#000000;stroke-linecap:round;stroke-width:1.5;"/>
   </g>
   <g id="line2d_54">
    <path clip-path="url(#p01be8faeca)" d="M 308.861 119.79375 
L 327.98024 119.79375 
" style="fill:none;stroke:#000000;stroke-linecap:round;stroke-width:1.5;"/>
   </g>
   <g id="line2d_55">
    <path clip-path="url(#p01be8faeca)" d="M 308.861 109.69575 
L 324.45188 109.69575 
" style="fill:none;stroke:#000000;stroke-linecap:round;stroke-width:1.5;"/>
   </g>
   <g id="line2d_56">
    <path clip-path="url(#p01be8faeca)" d="M 438.461 119.79375 
M 496.457 119.79375 
L 500.021 119.79375 
" style="fill:none;stroke:#000000;stroke-linecap:round;stroke-width:1.5;"/>
   </g>
   <g id="line2d_57">
    <path clip-path="url(#p01be8faeca)" d="M 449.801 134.78775 
L 466.001 134.78775 
L 466.463857 134.781505 
L 466.926714 134.76277 
L 467.389571 134.731546 
L 467.852429 134.687832 
L 468.315286 134.631628 
L 468.778143 134.562934 
L 469.241 134.48175 
L 469.703857 134.388077 
L 470.166714 134.281913 
L 470.629571 134.16326 
L 471.092429 134.032117 
L 471.555286 133.888485 
L 472.018143 133.732362 
L 472.481 133.56375 
L 472.943857 133.382648 
L 473.406714 133.189056 
L 473.869571 132.982974 
L 474.332429 132.764403 
L 474.795286 132.533342 
L 475.258143 132.289791 
L 475.721 132.03375 
L 476.183857 131.765219 
L 476.646714 131.484199 
L 477.109571 131.190689 
L 477.572429 130.884689 
L 478.035286 130.566199 
L 478.498143 130.235219 
L 478.961 129.89175 
L 479.423857 129.535791 
L 479.886714 129.167342 
L 480.349571 128.786403 
L 480.812429 128.392974 
L 481.275286 127.987056 
L 481.738143 127.568648 
L 482.201 127.13775 
L 482.663857 126.694362 
L 483.126714 126.238485 
L 483.589571 125.770117 
L 484.052429 125.28926 
L 484.515286 124.795913 
L 484.978143 124.290077 
L 485.441 123.77175 
L 485.903857 123.240934 
L 486.366714 122.697628 
L 486.829571 122.141832 
L 487.292429 121.573546 
L 487.755286 120.99277 
L 488.218143 120.399505 
L 488.681 119.79375 
" style="fill:none;stroke:#000000;stroke-linecap:round;stroke-width:1.5;"/>
   </g>
   <g id="line2d_58">
    <path clip-path="url(#p01be8faeca)" d="M 449.801 104.79975 
L 466.001 104.79975 
L 466.463857 104.805995 
L 466.926714 104.82473 
L 467.389571 104.855954 
L 467.852429 104.899668 
L 468.315286 104.955872 
L 468.778143 105.024566 
L 469.241 105.10575 
L 469.703857 105.199423 
L 470.166714 105.305587 
L 470.629571 105.42424 
L 471.092429 105.555383 
L 471.555286 105.699015 
L 472.018143 105.855138 
L 472.481 106.02375 
L 472.943857 106.204852 
L 473.406714 106.398444 
L 473.869571 106.604526 
L 474.332429 106.823097 
L 474.795286 107.054158 
L 475.258143 107.297709 
L 475.721 107.55375 
L 476.183857 107.822281 
L 476.646714 108.103301 
L 477.109571 108.396811 
L 477.572429 108.702811 
L 478.035286 109.021301 
L 478.498143 109.352281 
L 478.961 109.69575 
L 479.423857 110.051709 
L 479.886714 110.420158 
L 480.349571 110.801097 
L 480.812429 111.194526 
L 481.275286 111.600444 
L 481.738143 112.018852 
L 482.201 112.44975 
L 482.663857 112.893138 
L 483.126714 113.349015 
L 483.589571 113.817383 
L 484.052429 114.29824 
L 484.515286 114.791587 
L 484.978143 115.297423 
L 485.441 115.81575 
L 485.903857 116.346566 
L 486.366714 116.889872 
L 486.829571 117.445668 
L 487.292429 118.013954 
L 487.755286 118.59473 
L 488.218143 119.187995 
L 488.681 119.79375 
" style="fill:none;stroke:#000000;stroke-linecap:round;stroke-width:1.5;"/>
   </g>
   <g id="line2d_59">
    <path clip-path="url(#p01be8faeca)" d="M 449.801 134.78775 
L 450.42308 134.17575 
L 451.01924 133.56375 
L 451.58948 132.95175 
L 452.1338 132.33975 
L 452.6522 131.72775 
L 453.14468 131.11575 
L 453.61124 130.50375 
L 454.05188 129.89175 
L 454.4666 129.27975 
L 454.8554 128.66775 
L 455.21828 128.05575 
L 455.55524 127.44375 
L 455.86628 126.83175 
L 456.1514 126.21975 
L 456.4106 125.60775 
L 456.64388 124.99575 
L 456.85124 124.38375 
L 457.03268 123.77175 
L 457.1882 123.15975 
L 457.3178 122.54775 
L 457.42148 121.93575 
L 457.49924 121.32375 
L 457.55108 120.71175 
L 457.577 120.09975 
L 457.577 119.48775 
L 457.55108 118.87575 
L 457.49924 118.26375 
L 457.42148 117.65175 
L 457.3178 117.03975 
L 457.1882 116.42775 
L 457.03268 115.81575 
L 456.85124 115.20375 
L 456.64388 114.59175 
L 456.4106 113.97975 
L 456.1514 113.36775 
L 455.86628 112.75575 
L 455.55524 112.14375 
L 455.21828 111.53175 
L 454.8554 110.91975 
L 454.4666 110.30775 
L 454.05188 109.69575 
L 453.61124 109.08375 
L 453.14468 108.47175 
L 452.6522 107.85975 
L 452.1338 107.24775 
L 451.58948 106.63575 
L 451.01924 106.02375 
L 450.42308 105.41175 
L 449.801 104.79975 
" style="fill:none;stroke:#000000;stroke-linecap:round;stroke-width:1.5;"/>
   </g>
   <g id="line2d_60">
    <path clip-path="url(#p01be8faeca)" d="M 438.461 129.89175 
L 454.05188 129.89175 
" style="fill:none;stroke:#000000;stroke-linecap:round;stroke-width:1.5;"/>
   </g>
   <g id="line2d_61">
    <path clip-path="url(#p01be8faeca)" d="M 438.461 119.79375 
L 457.58024 119.79375 
" style="fill:none;stroke:#000000;stroke-linecap:round;stroke-width:1.5;"/>
   </g>
   <g id="line2d_62">
    <path clip-path="url(#p01be8faeca)" d="M 438.461 109.69575 
L 454.05188 109.69575 
" style="fill:none;stroke:#000000;stroke-linecap:round;stroke-width:1.5;"/>
   </g>
   <g id="line2d_63">
    <path clip-path="url(#p01be8faeca)" d="M 568.061 119.79375 
M 623.141 119.79375 
L 634.481 119.79375 
" style="fill:none;stroke:#000000;stroke-linecap:round;stroke-width:1.5;"/>
   </g>
   <g id="line2d_64">
    <path clip-path="url(#p01be8faeca)" d="M 584.261 134.78775 
L 600.461 134.78775 
L 600.923857 134.781505 
L 601.386714 134.76277 
L 601.849571 134.731546 
L 602.312429 134.687832 
L 602.775286 134.631628 
L 603.238143 134.562934 
L 603.701 134.48175 
L 604.163857 134.388077 
L 604.626714 134.281913 
L 605.089571 134.16326 
L 605.552429 134.032117 
L 606.015286 133.888485 
L 606.478143 133.732362 
L 606.941 133.56375 
L 607.403857 133.382648 
L 607.866714 133.189056 
L 608.329571 132.982974 
L 608.792429 132.764403 
L 609.255286 132.533342 
L 609.718143 132.289791 
L 610.181 132.03375 
L 610.643857 131.765219 
L 611.106714 131.484199 
L 611.569571 131.190689 
L 612.032429 130.884689 
L 612.495286 130.566199 
L 612.958143 130.235219 
L 613.421 129.89175 
L 613.883857 129.535791 
L 614.346714 129.167342 
L 614.809571 128.786403 
L 615.272429 128.392974 
L 615.735286 127.987056 
L 616.198143 127.568648 
L 616.661 127.13775 
L 617.123857 126.694362 
L 617.586714 126.238485 
L 618.049571 125.770117 
L 618.512429 125.28926 
L 618.975286 124.795913 
L 619.438143 124.290077 
L 619.901 123.77175 
L 620.363857 123.240934 
L 620.826714 122.697628 
L 621.289571 122.141832 
L 621.752429 121.573546 
L 622.215286 120.99277 
L 622.678143 120.399505 
L 623.141 119.79375 
" style="fill:none;stroke:#000000;stroke-linecap:round;stroke-width:1.5;"/>
   </g>
   <g id="line2d_65">
    <path clip-path="url(#p01be8faeca)" d="M 584.261 104.79975 
L 600.461 104.79975 
L 600.923857 104.805995 
L 601.386714 104.82473 
L 601.849571 104.855954 
L 602.312429 104.899668 
L 602.775286 104.955872 
L 603.238143 105.024566 
L 603.701 105.10575 
L 604.163857 105.199423 
L 604.626714 105.305587 
L 605.089571 105.42424 
L 605.552429 105.555383 
L 606.015286 105.699015 
L 606.478143 105.855138 
L 606.941 106.02375 
L 607.403857 106.204852 
L 607.866714 106.398444 
L 608.329571 106.604526 
L 608.792429 106.823097 
L 609.255286 107.054158 
L 609.718143 107.297709 
L 610.181 107.55375 
L 610.643857 107.822281 
L 611.106714 108.103301 
L 611.569571 108.396811 
L 612.032429 108.702811 
L 612.495286 109.021301 
L 612.958143 109.352281 
L 613.421 109.69575 
L 613.883857 110.051709 
L 614.346714 110.420158 
L 614.809571 110.801097 
L 615.272429 111.194526 
L 615.735286 111.600444 
L 616.198143 112.018852 
L 616.661 112.44975 
L 617.123857 112.893138 
L 617.586714 113.349015 
L 618.049571 113.817383 
L 618.512429 114.29824 
L 618.975286 114.791587 
L 619.438143 115.297423 
L 619.901 115.81575 
L 620.363857 116.346566 
L 620.826714 116.889872 
L 621.289571 117.445668 
L 621.752429 118.013954 
L 622.215286 118.59473 
L 622.678143 119.187995 
L 623.141 119.79375 
" style="fill:none;stroke:#000000;stroke-linecap:round;stroke-width:1.5;"/>
   </g>
   <g id="line2d_66">
    <path clip-path="url(#p01be8faeca)" d="M 579.401 134.78775 
L 580.02308 134.17575 
L 580.61924 133.56375 
L 581.18948 132.95175 
L 581.7338 132.33975 
L 582.2522 131.72775 
L 582.74468 131.11575 
L 583.21124 130.50375 
L 583.65188 129.89175 
L 584.0666 129.27975 
L 584.4554 128.66775 
L 584.81828 128.05575 
L 585.15524 127.44375 
L 585.46628 126.83175 
L 585.7514 126.21975 
L 586.0106 125.60775 
L 586.24388 124.99575 
L 586.45124 124.38375 
L 586.63268 123.77175 
L 586.7882 123.15975 
L 586.9178 122.54775 
L 587.02148 121.93575 
L 587.09924 121.32375 
L 587.15108 120.71175 
L 587.177 120.09975 
L 587.177 119.48775 
L 587.15108 118.87575 
L 587.09924 118.26375 
L 587.02148 117.65175 
L 586.9178 117.03975 
L 586.7882 116.42775 
L 586.63268 115.81575 
L 586.45124 115.20375 
L 586.24388 114.59175 
L 586.0106 113.97975 
L 585.7514 113.36775 
L 585.46628 112.75575 
L 585.15524 112.14375 
L 584.81828 111.53175 
L 584.4554 110.91975 
L 584.0666 110.30775 
L 583.65188 109.69575 
L 583.21124 109.08375 
L 582.74468 108.47175 
L 582.2522 107.85975 
L 581.7338 107.24775 
L 581.18948 106.63575 
L 580.61924 106.02375 
L 580.02308 105.41175 
L 579.401 104.79975 
" style="fill:none;stroke:#000000;stroke-linecap:round;stroke-width:1.5;"/>
   </g>
   <g id="line2d_67">
    <path clip-path="url(#p01be8faeca)" d="M 584.261 134.78775 
L 584.88308 134.17575 
L 585.47924 133.56375 
L 586.04948 132.95175 
L 586.5938 132.33975 
L 587.1122 131.72775 
L 587.60468 131.11575 
L 588.07124 130.50375 
L 588.51188 129.89175 
L 588.9266 129.27975 
L 589.3154 128.66775 
L 589.67828 128.05575 
L 590.01524 127.44375 
L 590.32628 126.83175 
L 590.6114 126.21975 
L 590.8706 125.60775 
L 591.10388 124.99575 
L 591.31124 124.38375 
L 591.49268 123.77175 
L 591.6482 123.15975 
L 591.7778 122.54775 
L 591.88148 121.93575 
L 591.95924 121.32375 
L 592.01108 120.71175 
L 592.037 120.09975 
L 592.037 119.48775 
L 592.01108 118.87575 
L 591.95924 118.26375 
L 591.88148 117.65175 
L 591.7778 117.03975 
L 591.6482 116.42775 
L 591.49268 115.81575 
L 591.31124 115.20375 
L 591.10388 114.59175 
L 590.8706 113.97975 
L 590.6114 113.36775 
L 590.32628 112.75575 
L 590.01524 112.14375 
L 589.67828 111.53175 
L 589.3154 110.91975 
L 588.9266 110.30775 
L 588.51188 109.69575 
L 588.07124 109.08375 
L 587.60468 108.47175 
L 587.1122 107.85975 
L 586.5938 107.24775 
L 586.04948 106.63575 
L 585.47924 106.02375 
L 584.88308 105.41175 
L 584.261 104.79975 
" style="fill:none;stroke:#000000;stroke-linecap:round;stroke-width:1.5;"/>
   </g>
   <g id="line2d_68">
    <path clip-path="url(#p01be8faeca)" d="M 568.061 129.89175 
L 583.65188 129.89175 
" style="fill:none;stroke:#000000;stroke-linecap:round;stroke-width:1.5;"/>
   </g>
   <g id="line2d_69">
    <path clip-path="url(#p01be8faeca)" d="M 568.061 119.79375 
L 587.18024 119.79375 
" style="fill:none;stroke:#000000;stroke-linecap:round;stroke-width:1.5;"/>
   </g>
   <g id="line2d_70">
    <path clip-path="url(#p01be8faeca)" d="M 568.061 109.69575 
L 583.65188 109.69575 
" style="fill:none;stroke:#000000;stroke-linecap:round;stroke-width:1.5;"/>
   </g>
   <g id="line2d_71">
    <path clip-path="url(#p01be8faeca)" d="M 697.661 119.79375 
M 760.517 119.79375 
L 764.081 119.79375 
" style="fill:none;stroke:#000000;stroke-linecap:round;stroke-width:1.5;"/>
   </g>
   <g id="line2d_72">
    <path clip-path="url(#p01be8faeca)" d="M 713.861 134.78775 
L 730.061 134.78775 
L 730.523857 134.781505 
L 730.986714 134.76277 
L 731.449571 134.731546 
L 731.912429 134.687832 
L 732.375286 134.631628 
L 732.838143 134.562934 
L 733.301 134.48175 
L 733.763857 134.388077 
L 734.226714 134.281913 
L 734.689571 134.16326 
L 735.152429 134.032117 
L 735.615286 133.888485 
L 736.078143 133.732362 
L 736.541 133.56375 
L 737.003857 133.382648 
L 737.466714 133.189056 
L 737.929571 132.982974 
L 738.392429 132.764403 
L 738.855286 132.533342 
L 739.318143 132.289791 
L 739.781 132.03375 
L 740.243857 131.765219 
L 740.706714 131.484199 
L 741.169571 131.190689 
L 741.632429 130.884689 
L 742.095286 130.566199 
L 742.558143 130.235219 
L 743.021 129.89175 
L 743.483857 129.535791 
L 743.946714 129.167342 
L 744.409571 128.786403 
L 744.872429 128.392974 
L 745.335286 127.987056 
L 745.798143 127.568648 
L 746.261 127.13775 
L 746.723857 126.694362 
L 747.186714 126.238485 
L 747.649571 125.770117 
L 748.112429 125.28926 
L 748.575286 124.795913 
L 749.038143 124.290077 
L 749.501 123.77175 
L 749.963857 123.240934 
L 750.426714 122.697628 
L 750.889571 122.141832 
L 751.352429 121.573546 
L 751.815286 120.99277 
L 752.278143 120.399505 
L 752.741 119.79375 
" style="fill:none;stroke:#000000;stroke-linecap:round;stroke-width:1.5;"/>
   </g>
   <g id="line2d_73">
    <path clip-path="url(#p01be8faeca)" d="M 713.861 104.79975 
L 730.061 104.79975 
L 730.523857 104.805995 
L 730.986714 104.82473 
L 731.449571 104.855954 
L 731.912429 104.899668 
L 732.375286 104.955872 
L 732.838143 105.024566 
L 733.301 105.10575 
L 733.763857 105.199423 
L 734.226714 105.305587 
L 734.689571 105.42424 
L 735.152429 105.555383 
L 735.615286 105.699015 
L 736.078143 105.855138 
L 736.541 106.02375 
L 737.003857 106.204852 
L 737.466714 106.398444 
L 737.929571 106.604526 
L 738.392429 106.823097 
L 738.855286 107.054158 
L 739.318143 107.297709 
L 739.781 107.55375 
L 740.243857 107.822281 
L 740.706714 108.103301 
L 741.169571 108.396811 
L 741.632429 108.702811 
L 742.095286 109.021301 
L 742.558143 109.352281 
L 743.021 109.69575 
L 743.483857 110.051709 
L 743.946714 110.420158 
L 744.409571 110.801097 
L 744.872429 111.194526 
L 745.335286 111.600444 
L 745.798143 112.018852 
L 746.261 112.44975 
L 746.723857 112.893138 
L 747.186714 113.349015 
L 747.649571 113.817383 
L 748.112429 114.29824 
L 748.575286 114.791587 
L 749.038143 115.297423 
L 749.501 115.81575 
L 749.963857 116.346566 
L 750.426714 116.889872 
L 750.889571 117.445668 
L 751.352429 118.013954 
L 751.815286 118.59473 
L 752.278143 119.187995 
L 752.741 119.79375 
" style="fill:none;stroke:#000000;stroke-linecap:round;stroke-width:1.5;"/>
   </g>
   <g id="line2d_74">
    <path clip-path="url(#p01be8faeca)" d="M 709.001 134.78775 
L 709.62308 134.17575 
L 710.21924 133.56375 
L 710.78948 132.95175 
L 711.3338 132.33975 
L 711.8522 131.72775 
L 712.34468 131.11575 
L 712.81124 130.50375 
L 713.25188 129.89175 
L 713.6666 129.27975 
L 714.0554 128.66775 
L 714.41828 128.05575 
L 714.75524 127.44375 
L 715.06628 126.83175 
L 715.3514 126.21975 
L 715.6106 125.60775 
L 715.84388 124.99575 
L 716.05124 124.38375 
L 716.23268 123.77175 
L 716.3882 123.15975 
L 716.5178 122.54775 
L 716.62148 121.93575 
L 716.69924 121.32375 
L 716.75108 120.71175 
L 716.777 120.09975 
L 716.777 119.48775 
L 716.75108 118.87575 
L 716.69924 118.26375 
L 716.62148 117.65175 
L 716.5178 117.03975 
L 716.3882 116.42775 
L 716.23268 115.81575 
L 716.05124 115.20375 
L 715.84388 114.59175 
L 715.6106 113.97975 
L 715.3514 113.36775 
L 715.06628 112.75575 
L 714.75524 112.14375 
L 714.41828 111.53175 
L 714.0554 110.91975 
L 713.6666 110.30775 
L 713.25188 109.69575 
L 712.81124 109.08375 
L 712.34468 108.47175 
L 711.8522 107.85975 
L 711.3338 107.24775 
L 710.78948 106.63575 
L 710.21924 106.02375 
L 709.62308 105.41175 
L 709.001 104.79975 
" style="fill:none;stroke:#000000;stroke-linecap:round;stroke-width:1.5;"/>
   </g>
   <g id="line2d_75">
    <path clip-path="url(#p01be8faeca)" d="M 713.861 134.78775 
L 714.48308 134.17575 
L 715.07924 133.56375 
L 715.64948 132.95175 
L 716.1938 132.33975 
L 716.7122 131.72775 
L 717.20468 131.11575 
L 717.67124 130.50375 
L 718.11188 129.89175 
L 718.5266 129.27975 
L 718.9154 128.66775 
L 719.27828 128.05575 
L 719.61524 127.44375 
L 719.92628 126.83175 
L 720.2114 126.21975 
L 720.4706 125.60775 
L 720.70388 124.99575 
L 720.91124 124.38375 
L 721.09268 123.77175 
L 721.2482 123.15975 
L 721.3778 122.54775 
L 721.48148 121.93575 
L 721.55924 121.32375 
L 721.61108 120.71175 
L 721.637 120.09975 
L 721.637 119.48775 
L 721.61108 118.87575 
L 721.55924 118.26375 
L 721.48148 117.65175 
L 721.3778 117.03975 
L 721.2482 116.42775 
L 721.09268 115.81575 
L 720.91124 115.20375 
L 720.70388 114.59175 
L 720.4706 113.97975 
L 720.2114 113.36775 
L 719.92628 112.75575 
L 719.61524 112.14375 
L 719.27828 111.53175 
L 718.9154 110.91975 
L 718.5266 110.30775 
L 718.11188 109.69575 
L 717.67124 109.08375 
L 717.20468 108.47175 
L 716.7122 107.85975 
L 716.1938 107.24775 
L 715.64948 106.63575 
L 715.07924 106.02375 
L 714.48308 105.41175 
L 713.861 104.79975 
" style="fill:none;stroke:#000000;stroke-linecap:round;stroke-width:1.5;"/>
   </g>
   <g id="line2d_76">
    <path clip-path="url(#p01be8faeca)" d="M 697.661 129.89175 
L 713.25188 129.89175 
" style="fill:none;stroke:#000000;stroke-linecap:round;stroke-width:1.5;"/>
   </g>
   <g id="line2d_77">
    <path clip-path="url(#p01be8faeca)" d="M 697.661 119.79375 
L 716.78024 119.79375 
" style="fill:none;stroke:#000000;stroke-linecap:round;stroke-width:1.5;"/>
   </g>
   <g id="line2d_78">
    <path clip-path="url(#p01be8faeca)" d="M 697.661 109.69575 
L 713.25188 109.69575 
" style="fill:none;stroke:#000000;stroke-linecap:round;stroke-width:1.5;"/>
   </g>
   <g id="patch_6">
    <path clip-path="url(#p01be8faeca)" d="M 231.749 46.96575 
C 232.78011 46.96575 233.769127 46.578845 234.498231 45.890246 
C 235.227336 45.201647 235.637 44.267576 235.637 43.29375 
C 235.637 42.319924 235.227336 41.385853 234.498231 40.697254 
C 233.769127 40.008655 232.78011 39.62175 231.749 39.62175 
C 230.71789 39.62175 229.728873 40.008655 228.999769 40.697254 
C 228.270664 41.385853 227.861 42.319924 227.861 43.29375 
C 227.861 44.267576 228.270664 45.201647 228.999769 45.890246 
C 229.728873 46.578845 230.71789 46.96575 231.749 46.96575 
z
" style="fill:none;stroke:#000000;stroke-linejoin:miter;stroke-width:1.5;"/>
   </g>
   <g id="patch_7">
    <path clip-path="url(#p01be8faeca)" d="M 492.569 46.96575 
C 493.60011 46.96575 494.589127 46.578845 495.318231 45.890246 
C 496.047336 45.201647 496.457 44.267576 496.457 43.29375 
C 496.457 42.319924 496.047336 41.385853 495.318231 40.697254 
C 494.589127 40.008655 493.60011 39.62175 492.569 39.62175 
C 491.53789 39.62175 490.548873 40.008655 489.819769 40.697254 
C 489.090664 41.385853 488.681 42.319924 488.681 43.29375 
C 488.681 44.267576 489.090664 45.201647 489.819769 45.890246 
C 490.548873 46.578845 491.53789 46.96575 492.569 46.96575 
z
" style="fill:none;stroke:#000000;stroke-linejoin:miter;stroke-width:1.5;"/>
   </g>
   <g id="patch_8">
    <path clip-path="url(#p01be8faeca)" d="M 756.629 46.96575 
C 757.66011 46.96575 758.649127 46.578845 759.378231 45.890246 
C 760.107336 45.201647 760.517 44.267576 760.517 43.29375 
C 760.517 42.319924 760.107336 41.385853 759.378231 40.697254 
C 758.649127 40.008655 757.66011 39.62175 756.629 39.62175 
C 755.59789 39.62175 754.608873 40.008655 753.879769 40.697254 
C 753.150664 41.385853 752.741 42.319924 752.741 43.29375 
C 752.741 44.267576 753.150664 45.201647 753.879769 45.890246 
C 754.608873 46.578845 755.59789 46.96575 756.629 46.96575 
z
" style="fill:none;stroke:#000000;stroke-linejoin:miter;stroke-width:1.5;"/>
   </g>
   <g id="patch_9">
    <path clip-path="url(#p01be8faeca)" d="M 231.749 123.46575 
C 232.78011 123.46575 233.769127 123.078845 234.498231 122.390246 
C 235.227336 121.701647 235.637 120.767576 235.637 119.79375 
C 235.637 118.819924 235.227336 117.885853 234.498231 117.197254 
C 233.769127 116.508655 232.78011 116.12175 231.749 116.12175 
C 230.71789 116.12175 229.728873 116.508655 228.999769 117.197254 
C 228.270664 117.885853 227.861 118.819924 227.861 119.79375 
C 227.861 120.767576 228.270664 121.701647 228.999769 122.390246 
C 229.728873 123.078845 230.71789 123.46575 231.749 123.46575 
z
" style="fill:none;stroke:#000000;stroke-linejoin:miter;stroke-width:1.5;"/>
   </g>
   <g id="patch_10">
    <path clip-path="url(#p01be8faeca)" d="M 492.569 123.46575 
C 493.60011 123.46575 494.589127 123.078845 495.318231 122.390246 
C 496.047336 121.701647 496.457 120.767576 496.457 119.79375 
C 496.457 118.819924 496.047336 117.885853 495.318231 117.197254 
C 494.589127 116.508655 493.60011 116.12175 492.569 116.12175 
C 491.53789 116.12175 490.548873 116.508655 489.819769 117.197254 
C 489.090664 117.885853 488.681 118.819924 488.681 119.79375 
C 488.681 120.767576 489.090664 121.701647 489.819769 122.390246 
C 490.548873 123.078845 491.53789 123.46575 492.569 123.46575 
z
" style="fill:none;stroke:#000000;stroke-linejoin:miter;stroke-width:1.5;"/>
   </g>
   <g id="patch_11">
    <path clip-path="url(#p01be8faeca)" d="M 756.629 123.46575 
C 757.66011 123.46575 758.649127 123.078845 759.378231 122.390246 
C 760.107336 121.701647 760.517 120.767576 760.517 119.79375 
C 760.517 118.819924 760.107336 117.885853 759.378231 117.197254 
C 758.649127 116.508655 757.66011 116.12175 756.629 116.12175 
C 755.59789 116.12175 754.608873 116.508655 753.879769 117.197254 
C 753.150664 117.885853 752.741 118.819924 752.741 119.79375 
C 752.741 120.767576 753.150664 121.701647 753.879769 122.390246 
C 754.608873 123.078845 755.59789 123.46575 756.629 123.46575 
z
" style="fill:none;stroke:#000000;stroke-linejoin:miter;stroke-width:1.5;"/>
   </g>
   <g id="text_1">
    <!-- AND2 -->
    <defs>
     <path d="M 34.1875 63.1875 
L 20.796875 26.90625 
L 47.609375 26.90625 
z
M 28.609375 72.90625 
L 39.796875 72.90625 
L 67.578125 0 
L 57.328125 0 
L 50.6875 18.703125 
L 17.828125 18.703125 
L 11.1875 0 
L 0.78125 0 
z
" id="DejaVuSans-41"/>
     <path d="M 9.8125 72.90625 
L 23.09375 72.90625 
L 55.421875 11.921875 
L 55.421875 72.90625 
L 64.984375 72.90625 
L 64.984375 0 
L 51.703125 0 
L 19.390625 60.984375 
L 19.390625 0 
L 9.8125 0 
z
" id="DejaVuSans-4e"/>
     <path d="M 19.671875 64.796875 
L 19.671875 8.109375 
L 31.59375 8.109375 
Q 46.6875 8.109375 53.6875 14.9375 
Q 60.6875 21.78125 60.6875 36.53125 
Q 60.6875 51.171875 53.6875 57.984375 
Q 46.6875 64.796875 31.59375 64.796875 
z
M 9.8125 72.90625 
L 30.078125 72.90625 
Q 51.265625 72.90625 61.171875 64.09375 
Q 71.09375 55.28125 71.09375 36.53125 
Q 71.09375 17.671875 61.125 8.828125 
Q 51.171875 0 30.078125 0 
L 9.8125 0 
z
" id="DejaVuSans-44"/>
     <path d="M 19.1875 8.296875 
L 53.609375 8.296875 
L 53.609375 0 
L 7.328125 0 
L 7.328125 8.296875 
Q 12.9375 14.109375 22.625 23.890625 
Q 32.328125 33.6875 34.8125 36.53125 
Q 39.546875 41.84375 41.421875 45.53125 
Q 43.3125 49.21875 43.3125 52.78125 
Q 43.3125 58.59375 39.234375 62.25 
Q 35.15625 65.921875 28.609375 65.921875 
Q 23.96875 65.921875 18.8125 64.3125 
Q 13.671875 62.703125 7.8125 59.421875 
L 7.8125 69.390625 
Q 13.765625 71.78125 18.9375 73 
Q 24.125 74.21875 28.421875 74.21875 
Q 39.75 74.21875 46.484375 68.546875 
Q 53.21875 62.890625 53.21875 53.421875 
Q 53.21875 48.921875 51.53125 44.890625 
Q 49.859375 40.875 45.40625 35.40625 
Q 44.1875 33.984375 37.640625 27.21875 
Q 31.109375 20.453125 19.1875 8.296875 
z
" id="DejaVuSans-32"/>
    </defs>
    <g transform="translate(65.030375 16.318125)scale(0.12 -0.12)">
     <use xlink:href="#DejaVuSans-41"/>
     <use x="68.408203" xlink:href="#DejaVuSans-4e"/>
     <use x="143.212891" xlink:href="#DejaVuSans-44"/>
     <use x="220.214844" xlink:href="#DejaVuSans-32"/>
    </g>
   </g>
   <g id="text_2">
    <!-- NAND2 -->
    <g transform="translate(190.141625 16.318125)scale(0.12 -0.12)">
     <use xlink:href="#DejaVuSans-4e"/>
     <use x="74.804688" xlink:href="#DejaVuSans-41"/>
     <use x="143.212891" xlink:href="#DejaVuSans-4e"/>
     <use x="218.017578" xlink:href="#DejaVuSans-44"/>
     <use x="295.019531" xlink:href="#DejaVuSans-32"/>
    </g>
   </g>
   <g id="text_3">
    <!-- OR2 -->
    <defs>
     <path d="M 39.40625 66.21875 
Q 28.65625 66.21875 22.328125 58.203125 
Q 16.015625 50.203125 16.015625 36.375 
Q 16.015625 22.609375 22.328125 14.59375 
Q 28.65625 6.59375 39.40625 6.59375 
Q 50.140625 6.59375 56.421875 14.59375 
Q 62.703125 22.609375 62.703125 36.375 
Q 62.703125 50.203125 56.421875 58.203125 
Q 50.140625 66.21875 39.40625 66.21875 
z
M 39.40625 74.21875 
Q 54.734375 74.21875 63.90625 63.9375 
Q 73.09375 53.65625 73.09375 36.375 
Q 73.09375 19.140625 63.90625 8.859375 
Q 54.734375 -1.421875 39.40625 -1.421875 
Q 24.03125 -1.421875 14.8125 8.828125 
Q 5.609375 19.09375 5.609375 36.375 
Q 5.609375 53.65625 14.8125 63.9375 
Q 24.03125 74.21875 39.40625 74.21875 
z
" id="DejaVuSans-4f"/>
     <path d="M 44.390625 34.1875 
Q 47.5625 33.109375 50.5625 29.59375 
Q 53.5625 26.078125 56.59375 19.921875 
L 66.609375 0 
L 56 0 
L 46.6875 18.703125 
Q 43.0625 26.03125 39.671875 28.421875 
Q 36.28125 30.8125 30.421875 30.8125 
L 19.671875 30.8125 
L 19.671875 0 
L 9.8125 0 
L 9.8125 72.90625 
L 32.078125 72.90625 
Q 44.578125 72.90625 50.734375 67.671875 
Q 56.890625 62.453125 56.890625 51.90625 
Q 56.890625 45.015625 53.6875 40.46875 
Q 50.484375 35.9375 44.390625 34.1875 
z
M 19.671875 64.796875 
L 19.671875 38.921875 
L 32.078125 38.921875 
Q 39.203125 38.921875 42.84375 42.21875 
Q 46.484375 45.515625 46.484375 51.90625 
Q 46.484375 58.296875 42.84375 61.546875 
Q 39.203125 64.796875 32.078125 64.796875 
z
" id="DejaVuSans-52"/>
    </defs>
    <g transform="translate(326.931312 16.318125)scale(0.12 -0.12)">
     <use xlink:href="#DejaVuSans-4f"/>
     <use x="78.710938" xlink:href="#DejaVuSans-52"/>
     <use x="148.193359" xlink:href="#DejaVuSans-32"/>
    </g>
   </g>
   <g id="text_4">
    <!-- NOR2 -->
    <g transform="translate(452.042562 16.318125)scale(0.12 -0.12)">
     <use xlink:href="#DejaVuSans-4e"/>
     <use x="74.804688" xlink:href="#DejaVuSans-4f"/>
     <use x="153.515625" xlink:href="#DejaVuSans-52"/>
     <use x="222.998047" xlink:href="#DejaVuSans-32"/>
    </g>
   </g>
   <g id="text_5">
    <!-- XOR2 -->
    <defs>
     <path d="M 6.296875 72.90625 
L 16.890625 72.90625 
L 35.015625 45.796875 
L 53.21875 72.90625 
L 63.8125 72.90625 
L 40.375 37.890625 
L 65.375 0 
L 54.78125 0 
L 34.28125 31 
L 13.625 0 
L 2.984375 0 
L 29 38.921875 
z
" id="DejaVuSans-58"/>
    </defs>
    <g transform="translate(584.456937 16.318125)scale(0.12 -0.12)">
     <use xlink:href="#DejaVuSans-58"/>
     <use x="68.412109" xlink:href="#DejaVuSans-4f"/>
     <use x="147.123047" xlink:href="#DejaVuSans-52"/>
     <use x="216.605469" xlink:href="#DejaVuSans-32"/>
    </g>
   </g>
   <g id="text_6">
    <!-- XNOR2 -->
    <g transform="translate(709.562562 16.318125)scale(0.12 -0.12)">
     <use xlink:href="#DejaVuSans-58"/>
     <use x="68.505859" xlink:href="#DejaVuSans-4e"/>
     <use x="143.310547" xlink:href="#DejaVuSans-4f"/>
     <use x="222.021484" xlink:href="#DejaVuSans-52"/>
     <use x="291.503906" xlink:href="#DejaVuSans-32"/>
    </g>
   </g>
   <g id="text_7">
    <!-- AND3 -->
    <defs>
     <path d="M 40.578125 39.3125 
Q 47.65625 37.796875 51.625 33 
Q 55.609375 28.21875 55.609375 21.1875 
Q 55.609375 10.40625 48.1875 4.484375 
Q 40.765625 -1.421875 27.09375 -1.421875 
Q 22.515625 -1.421875 17.65625 -0.515625 
Q 12.796875 0.390625 7.625 2.203125 
L 7.625 11.71875 
Q 11.71875 9.328125 16.59375 8.109375 
Q 21.484375 6.890625 26.8125 6.890625 
Q 36.078125 6.890625 40.9375 10.546875 
Q 45.796875 14.203125 45.796875 21.1875 
Q 45.796875 27.640625 41.28125 31.265625 
Q 36.765625 34.90625 28.71875 34.90625 
L 20.21875 34.90625 
L 20.21875 43.015625 
L 29.109375 43.015625 
Q 36.375 43.015625 40.234375 45.921875 
Q 44.09375 48.828125 44.09375 54.296875 
Q 44.09375 59.90625 40.109375 62.90625 
Q 36.140625 65.921875 28.71875 65.921875 
Q 24.65625 65.921875 20.015625 65.03125 
Q 15.375 64.15625 9.8125 62.3125 
L 9.8125 71.09375 
Q 15.4375 72.65625 20.34375 73.4375 
Q 25.25 74.21875 29.59375 74.21875 
Q 40.828125 74.21875 47.359375 69.109375 
Q 53.90625 64.015625 53.90625 55.328125 
Q 53.90625 49.265625 50.4375 45.09375 
Q 46.96875 40.921875 40.578125 39.3125 
z
" id="DejaVuSans-33"/>
    </defs>
    <g transform="translate(65.030375 92.818125)scale(0.12 -0.12)">
     <use xlink:href="#DejaVuSans-41"/>
     <use x="68.408203" xlink:href="#DejaVuSans-4e"/>
     <use x="143.212891" xlink:href="#DejaVuSans-44"/>
     <use x="220.214844" xlink:href="#DejaVuSans-33"/>
    </g>
   </g>
   <g id="text_8">
    <!-- NAND3 -->
    <g transform="translate(190.141625 92.818125)scale(0.12 -0.12)">
     <use xlink:href="#DejaVuSans-4e"/>
     <use x="74.804688" xlink:href="#DejaVuSans-41"/>
     <use x="143.212891" xlink:href="#DejaVuSans-4e"/>
     <use x="218.017578" xlink:href="#DejaVuSans-44"/>
     <use x="295.019531" xlink:href="#DejaVuSans-33"/>
    </g>
   </g>
   <g id="text_9">
    <!-- OR3 -->
    <g transform="translate(326.931312 92.818125)scale(0.12 -0.12)">
     <use xlink:href="#DejaVuSans-4f"/>
     <use x="78.710938" xlink:href="#DejaVuSans-52"/>
     <use x="148.193359" xlink:href="#DejaVuSans-33"/>
    </g>
   </g>
   <g id="text_10">
    <!-- NOR3 -->
    <g transform="translate(452.042562 92.818125)scale(0.12 -0.12)">
     <use xlink:href="#DejaVuSans-4e"/>
     <use x="74.804688" xlink:href="#DejaVuSans-4f"/>
     <use x="153.515625" xlink:href="#DejaVuSans-52"/>
     <use x="222.998047" xlink:href="#DejaVuSans-33"/>
    </g>
   </g>
   <g id="text_11">
    <!-- XOR3 -->
    <g transform="translate(584.456937 92.818125)scale(0.12 -0.12)">
     <use xlink:href="#DejaVuSans-58"/>
     <use x="68.412109" xlink:href="#DejaVuSans-4f"/>
     <use x="147.123047" xlink:href="#DejaVuSans-52"/>
     <use x="216.605469" xlink:href="#DejaVuSans-33"/>
    </g>
   </g>
   <g id="text_12">
    <!-- XNOR3 -->
    <g transform="translate(709.562562 92.818125)scale(0.12 -0.12)">
     <use xlink:href="#DejaVuSans-58"/>
     <use x="68.505859" xlink:href="#DejaVuSans-4e"/>
     <use x="143.310547" xlink:href="#DejaVuSans-4f"/>
     <use x="222.021484" xlink:href="#DejaVuSans-52"/>
     <use x="291.503906" xlink:href="#DejaVuSans-33"/>
    </g>
   </g>
  </g>
 </g>
 <defs>
  <clipPath id="p01be8faeca">
   <rect height="123.93" width="792.342" x="10.7" y="19.57875"/>
  </clipPath>
 </defs>
</svg>
