<?xml version="1.0" encoding="utf-8" standalone="no"?>
<!DOCTYPE svg PUBLIC "-//W3C//DTD SVG 1.1//EN"
  "http://www.w3.org/Graphics/SVG/1.1/DTD/svg11.dtd">
<!-- Created with matplotlib (http://matplotlib.org/) -->
<svg height="96pt" version="1.1" viewBox="0 0 140 96" width="140pt" xmlns="http://www.w3.org/2000/svg" xmlns:xlink="http://www.w3.org/1999/xlink">
 <defs>
  <style type="text/css">
*{stroke-linecap:butt;stroke-linejoin:round;}
  </style>
 </defs>
 <g id="figure_1">
  <g id="patch_1">
   <path d="
M0 96.714
L140.98 96.714
L140.98 0
L0 0
L0 96.714" style="fill:none;"/>
  </g>
  <g id="axes_1">
   <g id="patch_2">
    <path clip-path="url(#p6d474f62c6)" d="
M86.28 86.454
C90.5749 86.454 94.6982 84.8409 97.7351 81.9727
C100.772 79.1045 102.48 75.2103 102.48 71.154
C102.48 67.0977 100.772 63.2035 97.7351 60.3353
C94.6982 57.4671 90.5749 55.854 86.28 55.854" style="fill:none;stroke:#000000;stroke-linejoin:miter;stroke-width:1.5;"/>
   </g>
   <g id="line2d_1">
    <path clip-path="url(#p6d474f62c6)" d="
M53.88 25.254
M108.96 25.254
L120.3 25.254" style="fill:none;stroke:#000000;stroke-linecap:round;stroke-width:1.5;"/>
   </g>
   <g id="line2d_2">
    <path clip-path="url(#p6d474f62c6)" d="
M70.08 40.248
L86.28 40.248
L86.7429 40.2418
L87.2057 40.223
L87.6686 40.1918
L88.1314 40.1481
L88.5943 40.0919
L89.0571 40.0232
L89.52 39.942
L89.9829 39.8483
L90.4457 39.7422
L90.9086 39.6235
L91.3714 39.4924
L91.8343 39.3487
L92.2971 39.1926
L92.76 39.024
L93.2229 38.8429
L93.6857 38.6493
L94.1486 38.4432
L94.6114 38.2247
L95.0743 37.9936
L95.5371 37.75
L96 37.494
L96.4629 37.2255
L96.9257 36.9444
L97.3886 36.6509
L97.8514 36.3449
L98.3143 36.0264
L98.7771 35.6955
L99.24 35.352
L99.7029 34.996
L100.166 34.6276
L100.629 34.2467
L101.091 33.8532
L101.554 33.4473
L102.017 33.0289
L102.48 32.598
L102.943 32.1546
L103.406 31.6987
L103.869 31.2304
L104.331 30.7495
L104.794 30.2562
L105.257 29.7503
L105.72 29.232
L106.183 28.7012
L106.646 28.1579
L107.109 27.6021
L107.571 27.0338
L108.034 26.453
L108.497 25.8598
L108.96 25.254" style="fill:none;stroke:#000000;stroke-linecap:round;stroke-width:1.5;"/>
   </g>
   <g id="line2d_3">
    <path clip-path="url(#p6d474f62c6)" d="
M70.08 10.26
L86.28 10.26
L86.7429 10.2662
L87.2057 10.285
L87.6686 10.3162
L88.1314 10.3599
L88.5943 10.4161
L89.0571 10.4848
L89.52 10.566
L89.9829 10.6597
L90.4457 10.7658
L90.9086 10.8845
L91.3714 11.0156
L91.8343 11.1593
L92.2971 11.3154
L92.76 11.484
L93.2229 11.6651
L93.6857 11.8587
L94.1486 12.0648
L94.6114 12.2833
L95.0743 12.5144
L95.5371 12.758
L96 13.014
L96.4629 13.2825
L96.9257 13.5636
L97.3886 13.8571
L97.8514 14.1631
L98.3143 14.4816
L98.7771 14.8125
L99.24 15.156
L99.7029 15.512
L100.166 15.8804
L100.629 16.2613
L101.091 16.6548
L101.554 17.0607
L102.017 17.4791
L102.48 17.91
L102.943 18.3534
L103.406 18.8093
L103.869 19.2776
L104.331 19.7585
L104.794 20.2518
L105.257 20.7577
L105.72 21.276
L106.183 21.8068
L106.646 22.3501
L107.109 22.9059
L107.571 23.4742
L108.034 24.055
L108.497 24.6482
L108.96 25.254" style="fill:none;stroke:#000000;stroke-linecap:round;stroke-width:1.5;"/>
   </g>
   <g id="line2d_4">
    <path clip-path="url(#p6d474f62c6)" d="
M65.22 40.248
L65.8421 39.636
L66.4382 39.024
L67.0085 38.412
L67.5528 37.8
L68.0712 37.188
L68.5637 36.576
L69.0302 35.964
L69.4709 35.352
L69.8856 34.74
L70.2744 34.128
L70.6373 33.516
L70.9742 32.904
L71.2853 32.292
L71.5704 31.68
L71.8296 31.068
L72.0629 30.456
L72.2702 29.844
L72.4517 29.232
L72.6072 28.62
L72.7368 28.008
L72.8405 27.396
L72.9182 26.784
L72.9701 26.172
L72.996 25.56
L72.996 24.948
L72.9701 24.336
L72.9182 23.724
L72.8405 23.112
L72.7368 22.5
L72.6072 21.888
L72.4517 21.276
L72.2702 20.664
L72.0629 20.052
L71.8296 19.44
L71.5704 18.828
L71.2853 18.216
L70.9742 17.604
L70.6373 16.992
L70.2744 16.38
L69.8856 15.768
L69.4709 15.156
L69.0302 14.544
L68.5637 13.932
L68.0712 13.32
L67.5528 12.708
L67.0085 12.096
L66.4382 11.484
L65.8421 10.872
L65.22 10.26" style="fill:none;stroke:#000000;stroke-linecap:round;stroke-width:1.5;"/>
   </g>
   <g id="line2d_5">
    <path clip-path="url(#p6d474f62c6)" d="
M70.08 40.248
L70.7021 39.636
L71.2982 39.024
L71.8685 38.412
L72.4128 37.8
L72.9312 37.188
L73.4237 36.576
L73.8902 35.964
L74.3309 35.352
L74.7456 34.74
L75.1344 34.128
L75.4973 33.516
L75.8342 32.904
L76.1453 32.292
L76.4304 31.68
L76.6896 31.068
L76.9229 30.456
L77.1302 29.844
L77.3117 29.232
L77.4672 28.62
L77.5968 28.008
L77.7005 27.396
L77.7782 26.784
L77.8301 26.172
L77.856 25.56
L77.856 24.948
L77.8301 24.336
L77.7782 23.724
L77.7005 23.112
L77.5968 22.5
L77.4672 21.888
L77.3117 21.276
L77.1302 20.664
L76.9229 20.052
L76.6896 19.44
L76.4304 18.828
L76.1453 18.216
L75.8342 17.604
L75.4973 16.992
L75.1344 16.38
L74.7456 15.768
L74.3309 15.156
L73.8902 14.544
L73.4237 13.932
L72.9312 13.32
L72.4128 12.708
L71.8685 12.096
L71.2982 11.484
L70.7021 10.872
L70.08 10.26" style="fill:none;stroke:#000000;stroke-linecap:round;stroke-width:1.5;"/>
   </g>
   <g id="line2d_6">
    <path clip-path="url(#p6d474f62c6)" d="
M53.88 32.904
L70.9742 32.904" style="fill:none;stroke:#000000;stroke-linecap:round;stroke-width:1.5;"/>
   </g>
   <g id="line2d_7">
    <path clip-path="url(#p6d474f62c6)" d="
M53.88 17.604
L70.9742 17.604" style="fill:none;stroke:#000000;stroke-linecap:round;stroke-width:1.5;"/>
   </g>
   <g id="line2d_8">
    <path clip-path="url(#p6d474f62c6)" d="
M53.88 17.604" style="fill:none;stroke:#000000;stroke-linecap:round;stroke-width:1.5;"/>
   </g>
   <g id="line2d_9">
    <path clip-path="url(#p6d474f62c6)" d="
M53.88 17.604
L37.68 17.604
L21.48 17.604" style="fill:none;stroke:#000000;stroke-linecap:round;stroke-width:1.5;"/>
   </g>
   <g id="line2d_10">
    <path clip-path="url(#p6d474f62c6)" d="
M53.88 32.904
L45.78 32.904
L37.68 32.904" style="fill:none;stroke:#000000;stroke-linecap:round;stroke-width:1.5;"/>
   </g>
   <g id="line2d_11">
    <path clip-path="url(#p6d474f62c6)" d="
M37.68 32.904" style="fill:none;stroke:#000000;stroke-linecap:round;stroke-width:1.5;"/>
   </g>
   <g id="line2d_12">
    <path clip-path="url(#p6d474f62c6)" d="
M37.68 32.904
L29.58 32.904
L21.48 32.904" style="fill:none;stroke:#000000;stroke-linecap:round;stroke-width:1.5;"/>
   </g>
   <g id="line2d_13">
    <path clip-path="url(#p6d474f62c6)" d="
M53.88 17.604
L53.88 40.554
L53.88 63.504" style="fill:none;stroke:#000000;stroke-linecap:round;stroke-width:1.5;"/>
   </g>
   <g id="line2d_14">
    <path clip-path="url(#p6d474f62c6)" d="
M53.88 71.154
M102.48 71.154
L113.82 71.154" style="fill:none;stroke:#000000;stroke-linecap:round;stroke-width:1.5;"/>
   </g>
   <g id="line2d_15">
    <path clip-path="url(#p6d474f62c6)" d="
M65.22 71.154
L65.22 86.454
L86.28 86.454" style="fill:none;stroke:#000000;stroke-linecap:round;stroke-width:1.5;"/>
   </g>
   <g id="line2d_16">
    <path clip-path="url(#p6d474f62c6)" d="
M65.22 71.154
L65.22 55.854
L86.28 55.854" style="fill:none;stroke:#000000;stroke-linecap:round;stroke-width:1.5;"/>
   </g>
   <g id="line2d_17">
    <path clip-path="url(#p6d474f62c6)" d="
M53.88 78.804
L65.22 78.804" style="fill:none;stroke:#000000;stroke-linecap:round;stroke-width:1.5;"/>
   </g>
   <g id="line2d_18">
    <path clip-path="url(#p6d474f62c6)" d="
M53.88 63.504
L65.22 63.504" style="fill:none;stroke:#000000;stroke-linecap:round;stroke-width:1.5;"/>
   </g>
   <g id="line2d_19">
    <path clip-path="url(#p6d474f62c6)" d="
M37.68 32.904
L37.68 55.854
L37.68 78.804" style="fill:none;stroke:#000000;stroke-linecap:round;stroke-width:1.5;"/>
   </g>
   <g id="line2d_20">
    <path clip-path="url(#p6d474f62c6)" d="
M37.68 78.804
L45.78 78.804
L53.88 78.804" style="fill:none;stroke:#000000;stroke-linecap:round;stroke-width:1.5;"/>
   </g>
   <g id="patch_3">
    <path clip-path="url(#p6d474f62c6)" d="
M53.88 19.899
C54.5244 19.899 55.1426 19.6572 55.5983 19.2268
C56.054 18.7964 56.31 18.2126 56.31 17.604
C56.31 16.9954 56.054 16.4116 55.5983 15.9812
C55.1426 15.5508 54.5244 15.309 53.88 15.309
C53.2356 15.309 52.6174 15.5508 52.1617 15.9812
C51.706 16.4116 51.45 16.9954 51.45 17.604
C51.45 18.2126 51.706 18.7964 52.1617 19.2268
C52.6174 19.6572 53.2356 19.899 53.88 19.899
z
" style="stroke:#000000;stroke-linejoin:miter;stroke-width:1.5;"/>
   </g>
   <g id="patch_4">
    <path clip-path="url(#p6d474f62c6)" d="
M37.68 35.199
C38.3244 35.199 38.9426 34.9572 39.3983 34.5268
C39.854 34.0964 40.11 33.5126 40.11 32.904
C40.11 32.2954 39.854 31.7116 39.3983 31.2812
C38.9426 30.8508 38.3244 30.609 37.68 30.609
C37.0356 30.609 36.4174 30.8508 35.9617 31.2812
C35.506 31.7116 35.25 32.2954 35.25 32.904
C35.25 33.5126 35.506 34.0964 35.9617 34.5268
C36.4174 34.9572 37.0356 35.199 37.68 35.199
z
" style="stroke:#000000;stroke-linejoin:miter;stroke-width:1.5;"/>
   </g>
   <g id="text_1">
    <!-- $S$ -->
    <defs>
     <path d="
M53.5156 70.5156
L53.5156 60.8906
Q47.9062 63.5781 42.9219 64.8906
Q37.9375 66.2188 33.2969 66.2188
Q25.25 66.2188 20.875 63.0938
Q16.5 59.9688 16.5 54.2031
Q16.5 49.3594 19.4062 46.8906
Q22.3125 44.4375 30.4219 42.9219
L36.375 41.7031
Q47.4062 39.5938 52.6562 34.2969
Q57.9062 29 57.9062 20.125
Q57.9062 9.51562 50.7969 4.04688
Q43.7031 -1.42188 29.9844 -1.42188
Q24.8125 -1.42188 18.9688 -0.25
Q13.1406 0.921875 6.89062 3.21875
L6.89062 13.375
Q12.8906 10.0156 18.6562 8.29688
Q24.4219 6.59375 29.9844 6.59375
Q38.4219 6.59375 43.0156 9.90625
Q47.6094 13.2344 47.6094 19.3906
Q47.6094 24.75 44.3125 27.7812
Q41.0156 30.8125 33.5 32.3281
L27.4844 33.5
Q16.4531 35.6875 11.5156 40.375
Q6.59375 45.0625 6.59375 53.4219
Q6.59375 63.0938 13.4062 68.6562
Q20.2188 74.2188 32.1719 74.2188
Q37.3125 74.2188 42.625 73.2812
Q47.9531 72.3594 53.5156 70.5156" id="BitstreamVeraSans-Roman-53"/>
    </defs>
    <g transform="translate(123.54 29.669)scale(0.16 -0.16)">
     <use transform="translate(0.0 0.78125)" xlink:href="#BitstreamVeraSans-Roman-53"/>
    </g>
   </g>
   <g id="text_2">
    <!-- $A$ -->
    <defs>
     <path d="
M34.1875 63.1875
L20.7969 26.9062
L47.6094 26.9062
z

M28.6094 72.9062
L39.7969 72.9062
L67.5781 0
L57.3281 0
L50.6875 18.7031
L17.8281 18.7031
L11.1875 0
L0.78125 0
z
" id="BitstreamVeraSans-Roman-41"/>
    </defs>
    <g transform="translate(7.2 22.019)scale(0.16 -0.16)">
     <use transform="translate(0.0 0.09375)" xlink:href="#BitstreamVeraSans-Roman-41"/>
    </g>
   </g>
   <g id="text_3">
    <!-- $B$ -->
    <defs>
     <path d="
M19.6719 34.8125
L19.6719 8.10938
L35.5 8.10938
Q43.4531 8.10938 47.2812 11.4062
Q51.125 14.7031 51.125 21.4844
Q51.125 28.3281 47.2812 31.5625
Q43.4531 34.8125 35.5 34.8125
z

M19.6719 64.7969
L19.6719 42.8281
L34.2812 42.8281
Q41.5 42.8281 45.0312 45.5312
Q48.5781 48.25 48.5781 53.8125
Q48.5781 59.3281 45.0312 62.0625
Q41.5 64.7969 34.2812 64.7969
z

M9.8125 72.9062
L35.0156 72.9062
Q46.2969 72.9062 52.3906 68.2188
Q58.5 63.5312 58.5 54.8906
Q58.5 48.1875 55.375 44.2344
Q52.25 40.2812 46.1875 39.3125
Q53.4688 37.75 57.5 32.7812
Q61.5312 27.8281 61.5312 20.4062
Q61.5312 10.6406 54.8906 5.3125
Q48.25 0 35.9844 0
L9.8125 0
z
" id="BitstreamVeraSans-Roman-42"/>
    </defs>
    <g transform="translate(7.2 37.319)scale(0.16 -0.16)">
     <use transform="translate(0.0 0.09375)" xlink:href="#BitstreamVeraSans-Roman-42"/>
    </g>
   </g>
   <g id="text_4">
    <!-- $C$ -->
    <defs>
     <path d="
M64.4062 67.2812
L64.4062 56.8906
Q59.4219 61.5312 53.7812 63.8125
Q48.1406 66.1094 41.7969 66.1094
Q29.2969 66.1094 22.6562 58.4688
Q16.0156 50.8281 16.0156 36.375
Q16.0156 21.9688 22.6562 14.3281
Q29.2969 6.6875 41.7969 6.6875
Q48.1406 6.6875 53.7812 8.98438
Q59.4219 11.2812 64.4062 15.9219
L64.4062 5.60938
Q59.2344 2.09375 53.4375 0.328125
Q47.6562 -1.42188 41.2188 -1.42188
Q24.6562 -1.42188 15.125 8.70312
Q5.60938 18.8438 5.60938 36.375
Q5.60938 53.9531 15.125 64.0781
Q24.6562 74.2188 41.2188 74.2188
Q47.75 74.2188 53.5312 72.4844
Q59.3281 70.75 64.4062 67.2812" id="BitstreamVeraSans-Roman-43"/>
    </defs>
    <g transform="translate(121.92 75.569)scale(0.16 -0.16)">
     <use transform="translate(0.0 0.78125)" xlink:href="#BitstreamVeraSans-Roman-43"/>
    </g>
   </g>
  </g>
 </g>
 <defs>
  <clipPath id="p6d474f62c6">
   <rect height="82.314" width="105.3" x="18.24" y="7.2"/>
  </clipPath>
 </defs>
</svg>
