<?xml version="1.0" encoding="utf-8" standalone="no"?>
<!DOCTYPE svg PUBLIC "-//W3C//DTD SVG 1.1//EN"
  "http://www.w3.org/Graphics/SVG/1.1/DTD/svg11.dtd">
<!-- Created with matplotlib (https://matplotlib.org/) -->
<svg height="96.3981pt" version="1.1" viewBox="0 0 138.32 96.3981" width="138.32pt" xmlns="http://www.w3.org/2000/svg" xmlns:xlink="http://www.w3.org/1999/xlink">
 <defs>
  <style type="text/css">
*{stroke-linecap:butt;stroke-linejoin:round;white-space:pre;}
  </style>
 </defs>
 <g id="figure_1">
  <g id="patch_1">
   <path d="M 0 96.3981 
L 138.32 96.3981 
L 138.32 0 
L 0 0 
z
" style="fill:none;"/>
  </g>
  <g id="axes_1">
   <g id="patch_2">
    <path clip-path="url(#pf7468b8599)" d="M 52.5 22.25205 
C 53.144444 22.25205 53.762579 22.031571 54.218269 21.639171 
C 54.67396 21.246771 54.93 20.714487 54.93 20.15955 
C 54.93 19.604613 54.67396 19.072329 54.218269 18.679929 
C 53.762579 18.287529 53.144444 18.06705 52.5 18.06705 
C 51.855556 18.06705 51.237421 18.287529 50.781731 18.679929 
C 50.32604 19.072329 50.07 19.604613 50.07 20.15955 
C 50.07 20.714487 50.32604 21.246771 50.781731 21.639171 
C 51.237421 22.031571 51.855556 22.25205 52.5 22.25205 
z
" style="stroke:#000000;stroke-linejoin:miter;stroke-width:2;"/>
   </g>
   <g id="patch_3">
    <path clip-path="url(#pf7468b8599)" d="M 36.3 36.20205 
C 36.944444 36.20205 37.562579 35.981571 38.018269 35.589171 
C 38.47396 35.196771 38.73 34.664487 38.73 34.10955 
C 38.73 33.554613 38.47396 33.022329 38.018269 32.629929 
C 37.562579 32.237529 36.944444 32.01705 36.3 32.01705 
C 35.655556 32.01705 35.037421 32.237529 34.581731 32.629929 
C 34.12604 33.022329 33.87 33.554613 33.87 34.10955 
C 33.87 34.664487 34.12604 35.196771 34.581731 35.589171 
C 35.037421 35.981571 35.655556 36.20205 36.3 36.20205 
z
" style="stroke:#000000;stroke-linejoin:miter;stroke-width:2;"/>
   </g>
   <g id="line2d_1">
    <path clip-path="url(#pf7468b8599)" d="M 68.7 40.80555 
L 86.751429 40.714448 
L 88.602857 40.441142 
L 90.454286 39.985632 
L 92.768571 39.160019 
L 95.082857 38.049713 
L 97.397143 36.654713 
L 99.711429 34.975019 
L 102.025714 33.010632 
L 104.34 30.76155 
L 106.654286 28.227774 
L 107.58 27.13455 
L 107.58 27.13455 
L 104.802857 23.99153 
L 102.488571 21.685509 
L 100.174286 19.664183 
L 97.86 17.92755 
L 95.545714 16.475611 
L 93.231429 15.308366 
L 90.917143 14.425815 
L 88.602857 13.827958 
L 86.751429 13.554652 
L 84.9 13.46355 
L 68.7 13.46355 
L 68.7 13.46355 
L 71.0328 15.69555 
L 72.51024 17.36955 
L 73.7544 19.04355 
L 74.76528 20.71755 
L 75.54288 22.39155 
L 76.0872 24.06555 
L 76.39824 25.73955 
L 76.476 27.41355 
L 76.32048 29.08755 
L 75.93168 30.76155 
L 75.3096 32.43555 
L 74.45424 34.10955 
L 73.3656 35.78355 
L 72.04368 37.45755 
L 70.48848 39.13155 
L 68.7 40.80555 
L 68.7 40.80555 
" style="fill:none;stroke:#000000;stroke-linecap:round;stroke-width:2;"/>
   </g>
   <g id="line2d_2">
    <path clip-path="url(#pf7468b8599)" d="M 63.84 40.80555 
L 64.46208 40.24755 
L 65.05824 39.68955 
L 65.62848 39.13155 
L 66.1728 38.57355 
L 66.6912 38.01555 
L 67.18368 37.45755 
L 67.65024 36.89955 
L 68.09088 36.34155 
L 68.5056 35.78355 
L 68.8944 35.22555 
L 69.25728 34.66755 
L 69.59424 34.10955 
L 69.90528 33.55155 
L 70.1904 32.99355 
L 70.4496 32.43555 
L 70.68288 31.87755 
L 70.89024 31.31955 
L 71.07168 30.76155 
L 71.2272 30.20355 
L 71.3568 29.64555 
L 71.46048 29.08755 
L 71.53824 28.52955 
L 71.59008 27.97155 
L 71.616 27.41355 
L 71.616 26.85555 
L 71.59008 26.29755 
L 71.53824 25.73955 
L 71.46048 25.18155 
L 71.3568 24.62355 
L 71.2272 24.06555 
L 71.07168 23.50755 
L 70.89024 22.94955 
L 70.68288 22.39155 
L 70.4496 21.83355 
L 70.1904 21.27555 
L 69.90528 20.71755 
L 69.59424 20.15955 
L 69.25728 19.60155 
L 68.8944 19.04355 
L 68.5056 18.48555 
L 68.09088 17.92755 
L 67.65024 17.36955 
L 67.18368 16.81155 
L 66.6912 16.25355 
L 66.1728 15.69555 
L 65.62848 15.13755 
L 65.05824 14.57955 
L 64.46208 14.02155 
L 63.84 13.46355 
" style="fill:none;stroke:#000000;stroke-linecap:round;stroke-width:2;"/>
   </g>
   <g id="line2d_3">
    <path clip-path="url(#pf7468b8599)" d="M 52.5 34.10955 
L 69.59424 34.10955 
" style="fill:none;stroke:#000000;stroke-linecap:round;stroke-width:2;"/>
   </g>
   <g id="line2d_4">
    <path clip-path="url(#pf7468b8599)" d="M 52.5 20.15955 
L 69.59424 20.15955 
" style="fill:none;stroke:#000000;stroke-linecap:round;stroke-width:2;"/>
   </g>
   <g id="line2d_5">
    <path clip-path="url(#pf7468b8599)" d="M 52.5 27.13455 
M 107.58 27.13455 
L 118.92 27.13455 
" style="fill:none;stroke:#000000;stroke-linecap:round;stroke-width:2;"/>
   </g>
   <g id="line2d_6">
    <path clip-path="url(#pf7468b8599)" d="M 52.5 20.15955 
" style="fill:none;stroke:#000000;stroke-linecap:round;stroke-width:2;"/>
   </g>
   <g id="line2d_7">
    <path clip-path="url(#pf7468b8599)" d="M 52.5 20.15955 
L 36.3 20.15955 
L 20.1 20.15955 
" style="fill:none;stroke:#000000;stroke-linecap:round;stroke-width:2;"/>
   </g>
   <g id="line2d_8">
    <path clip-path="url(#pf7468b8599)" d="M 52.5 34.10955 
L 44.4 34.10955 
L 36.3 34.10955 
" style="fill:none;stroke:#000000;stroke-linecap:round;stroke-width:2;"/>
   </g>
   <g id="line2d_9">
    <path clip-path="url(#pf7468b8599)" d="M 36.3 34.10955 
" style="fill:none;stroke:#000000;stroke-linecap:round;stroke-width:2;"/>
   </g>
   <g id="line2d_10">
    <path clip-path="url(#pf7468b8599)" d="M 36.3 34.10955 
L 28.2 34.10955 
L 20.1 34.10955 
" style="fill:none;stroke:#000000;stroke-linecap:round;stroke-width:2;"/>
   </g>
   <g id="line2d_11">
    <path clip-path="url(#pf7468b8599)" d="M 52.5 20.15955 
L 52.5 41.08455 
L 52.5 62.00955 
" style="fill:none;stroke:#000000;stroke-linecap:round;stroke-width:2;"/>
   </g>
   <g id="line2d_12">
    <path clip-path="url(#pf7468b8599)" d="M 84.9 82.93455 
L 85.937938 82.905888 
L 86.97161 82.820021 
L 87.99677 82.6773 
L 89.009204 82.478313 
L 90.004753 82.223878 
L 90.979325 81.915039 
L 91.928917 81.553066 
L 92.849624 81.139446 
L 93.737665 80.675879 
L 94.589391 80.16427 
L 95.4013 79.606721 
L 96.170057 79.005523 
L 96.892504 78.363147 
L 97.56567 77.682233 
L 98.186791 76.965577 
L 98.753313 76.216126 
L 99.262909 75.436959 
L 99.713484 74.631278 
L 100.103188 73.802393 
L 100.430419 72.95371 
L 100.693832 72.088717 
L 100.892345 71.210969 
L 101.025142 70.324071 
L 101.091677 69.43167 
L 101.091677 68.53743 
L 101.025142 67.645029 
L 100.892345 66.758131 
L 100.693832 65.880383 
L 100.430419 65.01539 
L 100.103188 64.166707 
L 99.713484 63.337822 
L 99.262909 62.532141 
L 98.753313 61.752974 
L 98.186791 61.003523 
L 97.56567 60.286867 
L 96.892504 59.605953 
L 96.170057 58.963577 
L 95.4013 58.362379 
L 94.589391 57.80483 
L 93.737665 57.293221 
L 92.849624 56.829654 
L 91.928917 56.416034 
L 90.979325 56.054061 
L 90.004753 55.745222 
L 89.009204 55.490787 
L 87.99677 55.2918 
L 86.97161 55.149079 
L 85.937938 55.063212 
L 84.9 55.03455 
L 63.84 55.03455 
L 63.84 68.98455 
L 63.84 82.93455 
L 84.9 82.93455 
" style="fill:none;stroke:#000000;stroke-linecap:round;stroke-width:2;"/>
   </g>
   <g id="line2d_13">
    <path clip-path="url(#pf7468b8599)" d="M 52.5 75.95955 
L 63.84 75.95955 
" style="fill:none;stroke:#000000;stroke-linecap:round;stroke-width:2;"/>
   </g>
   <g id="line2d_14">
    <path clip-path="url(#pf7468b8599)" d="M 52.5 62.00955 
L 63.84 62.00955 
" style="fill:none;stroke:#000000;stroke-linecap:round;stroke-width:2;"/>
   </g>
   <g id="line2d_15">
    <path clip-path="url(#pf7468b8599)" d="M 52.5 68.98455 
M 101.1 68.98455 
L 112.44 68.98455 
" style="fill:none;stroke:#000000;stroke-linecap:round;stroke-width:2;"/>
   </g>
   <g id="line2d_16">
    <path clip-path="url(#pf7468b8599)" d="M 36.3 34.10955 
L 36.3 55.03455 
L 36.3 75.95955 
" style="fill:none;stroke:#000000;stroke-linecap:round;stroke-width:2;"/>
   </g>
   <g id="line2d_17">
    <path clip-path="url(#pf7468b8599)" d="M 36.3 75.95955 
L 44.4 75.95955 
L 52.5 75.95955 
" style="fill:none;stroke:#000000;stroke-linecap:round;stroke-width:2;"/>
   </g>
   <g id="text_1">
    <!-- $S$ -->
    <defs>
     <path d="M 53.515625 70.515625 
L 53.515625 60.890625 
Q 47.90625 63.578125 42.921875 64.890625 
Q 37.9375 66.21875 33.296875 66.21875 
Q 25.25 66.21875 20.875 63.09375 
Q 16.5 59.96875 16.5 54.203125 
Q 16.5 49.359375 19.40625 46.890625 
Q 22.3125 44.4375 30.421875 42.921875 
L 36.375 41.703125 
Q 47.40625 39.59375 52.65625 34.296875 
Q 57.90625 29 57.90625 20.125 
Q 57.90625 9.515625 50.796875 4.046875 
Q 43.703125 -1.421875 29.984375 -1.421875 
Q 24.8125 -1.421875 18.96875 -0.25 
Q 13.140625 0.921875 6.890625 3.21875 
L 6.890625 13.375 
Q 12.890625 10.015625 18.65625 8.296875 
Q 24.421875 6.59375 29.984375 6.59375 
Q 38.421875 6.59375 43.015625 9.90625 
Q 47.609375 13.234375 47.609375 19.390625 
Q 47.609375 24.75 44.3125 27.78125 
Q 41.015625 30.8125 33.5 32.328125 
L 27.484375 33.5 
Q 16.453125 35.6875 11.515625 40.375 
Q 6.59375 45.0625 6.59375 53.421875 
Q 6.59375 63.09375 13.40625 68.65625 
Q 20.21875 74.21875 32.171875 74.21875 
Q 37.3125 74.21875 42.625 73.28125 
Q 47.953125 72.359375 53.515625 70.515625 
z
" id="DejaVuSans-83"/>
    </defs>
    <g transform="translate(122.16 30.997675)scale(0.14 -0.14)">
     <use transform="translate(0 0.78125)" xlink:href="#DejaVuSans-83"/>
    </g>
   </g>
   <g id="text_2">
    <!-- $A$ -->
    <defs>
     <path d="M 34.1875 63.1875 
L 20.796875 26.90625 
L 47.609375 26.90625 
z
M 28.609375 72.90625 
L 39.796875 72.90625 
L 67.578125 0 
L 57.328125 0 
L 50.6875 18.703125 
L 17.828125 18.703125 
L 11.1875 0 
L 0.78125 0 
z
" id="DejaVuSans-65"/>
    </defs>
    <g transform="translate(7.2 24.022675)scale(0.14 -0.14)">
     <use transform="translate(0 0.09375)" xlink:href="#DejaVuSans-65"/>
    </g>
   </g>
   <g id="text_3">
    <!-- $B$ -->
    <defs>
     <path d="M 19.671875 34.8125 
L 19.671875 8.109375 
L 35.5 8.109375 
Q 43.453125 8.109375 47.28125 11.40625 
Q 51.125 14.703125 51.125 21.484375 
Q 51.125 28.328125 47.28125 31.5625 
Q 43.453125 34.8125 35.5 34.8125 
z
M 19.671875 64.796875 
L 19.671875 42.828125 
L 34.28125 42.828125 
Q 41.5 42.828125 45.03125 45.53125 
Q 48.578125 48.25 48.578125 53.8125 
Q 48.578125 59.328125 45.03125 62.0625 
Q 41.5 64.796875 34.28125 64.796875 
z
M 9.8125 72.90625 
L 35.015625 72.90625 
Q 46.296875 72.90625 52.390625 68.21875 
Q 58.5 63.53125 58.5 54.890625 
Q 58.5 48.1875 55.375 44.234375 
Q 52.25 40.28125 46.1875 39.3125 
Q 53.46875 37.75 57.5 32.78125 
Q 61.53125 27.828125 61.53125 20.40625 
Q 61.53125 10.640625 54.890625 5.3125 
Q 48.25 0 35.984375 0 
L 9.8125 0 
z
" id="DejaVuSans-66"/>
    </defs>
    <g transform="translate(7.2 37.972675)scale(0.14 -0.14)">
     <use transform="translate(0 0.09375)" xlink:href="#DejaVuSans-66"/>
    </g>
   </g>
   <g id="text_4">
    <!-- $C$ -->
    <defs>
     <path d="M 64.40625 67.28125 
L 64.40625 56.890625 
Q 59.421875 61.53125 53.78125 63.8125 
Q 48.140625 66.109375 41.796875 66.109375 
Q 29.296875 66.109375 22.65625 58.46875 
Q 16.015625 50.828125 16.015625 36.375 
Q 16.015625 21.96875 22.65625 14.328125 
Q 29.296875 6.6875 41.796875 6.6875 
Q 48.140625 6.6875 53.78125 8.984375 
Q 59.421875 11.28125 64.40625 15.921875 
L 64.40625 5.609375 
Q 59.234375 2.09375 53.4375 0.328125 
Q 47.65625 -1.421875 41.21875 -1.421875 
Q 24.65625 -1.421875 15.125 8.703125 
Q 5.609375 18.84375 5.609375 36.375 
Q 5.609375 53.953125 15.125 64.078125 
Q 24.65625 74.21875 41.21875 74.21875 
Q 47.75 74.21875 53.53125 72.484375 
Q 59.328125 70.75 64.40625 67.28125 
z
" id="DejaVuSans-67"/>
    </defs>
    <g transform="translate(115.68 72.847675)scale(0.14 -0.14)">
     <use transform="translate(0 0.78125)" xlink:href="#DejaVuSans-67"/>
    </g>
   </g>
  </g>
 </g>
 <defs>
  <clipPath id="pf7468b8599">
   <rect height="81.9981" width="115.182" x="11.919" y="7.2"/>
  </clipPath>
 </defs>
</svg>
