<?xml version="1.0" encoding="utf-8" standalone="no"?>
<!DOCTYPE svg PUBLIC "-//W3C//DTD SVG 1.1//EN"
  "http://www.w3.org/Graphics/SVG/1.1/DTD/svg11.dtd">
<!-- Created with matplotlib (http://matplotlib.org/) -->
<svg height="103.3981pt" version="1.1" viewBox="0 0 140.98 103.3981" width="140.98pt" xmlns="http://www.w3.org/2000/svg" xmlns:xlink="http://www.w3.org/1999/xlink">
 <defs>
  <style type="text/css">
*{stroke-linecap:butt;stroke-linejoin:round;}
  </style>
 </defs>
 <g id="figure_1">
  <g id="patch_1">
   <path d="M -0 103.3981 
L 140.98 103.3981 
L 140.98 0 
L -0 0 
z
" style="fill:none;"/>
  </g>
  <g id="axes_1">
   <g id="patch_2">
    <path clip-path="url(#pf2ec51b5f5)" d="M 86.28 86.43455 
C 90.574859 86.43455 94.698206 84.963819 97.73513 82.34869 
C 100.772054 79.73356 102.48 76.182901 102.48 72.48455 
C 102.48 68.786199 100.772054 65.23554 97.73513 62.62041 
C 94.698206 60.005281 90.574859 58.53455 86.28 58.53455 
" style="fill:none;stroke:#000000;stroke-linejoin:miter;stroke-width:1.5;"/>
   </g>
   <g id="line2d_1">
    <path clip-path="url(#pf2ec51b5f5)" d="M 53.88 30.63455 
M 108.96 30.63455 
L 120.3 30.63455 
" style="fill:none;stroke:#000000;stroke-linecap:round;stroke-width:1.5;"/>
   </g>
   <g id="line2d_2">
    <path clip-path="url(#pf2ec51b5f5)" d="M 70.08 44.30555 
L 86.28 44.30555 
L 86.742857 44.299856 
L 87.205714 44.282774 
L 87.668571 44.254305 
L 88.131429 44.214448 
L 88.594286 44.163203 
L 89.057143 44.10057 
L 89.52 44.02655 
L 89.982857 43.941142 
L 90.445714 43.844346 
L 90.908571 43.736162 
L 91.371429 43.616591 
L 91.834286 43.485632 
L 92.297143 43.343285 
L 92.76 43.18955 
L 93.222857 43.024428 
L 93.685714 42.847917 
L 94.148571 42.660019 
L 94.611429 42.460734 
L 95.074286 42.25006 
L 95.537143 42.027999 
L 96 41.79455 
L 96.462857 41.549713 
L 96.925714 41.293489 
L 97.388571 41.025877 
L 97.851429 40.746877 
L 98.314286 40.456489 
L 98.777143 40.154713 
L 99.24 39.84155 
L 99.702857 39.516999 
L 100.165714 39.18106 
L 100.628571 38.833734 
L 101.091429 38.475019 
L 101.554286 38.104917 
L 102.017143 37.723428 
L 102.48 37.33055 
L 102.942857 36.926285 
L 103.405714 36.510632 
L 103.868571 36.083591 
L 104.331429 35.645162 
L 104.794286 35.195346 
L 105.257143 34.734142 
L 105.72 34.26155 
L 106.182857 33.77757 
L 106.645714 33.282203 
L 107.108571 32.775448 
L 107.571429 32.257305 
L 108.034286 31.727774 
L 108.497143 31.186856 
L 108.96 30.63455 
" style="fill:none;stroke:#000000;stroke-linecap:round;stroke-width:1.5;"/>
   </g>
   <g id="line2d_3">
    <path clip-path="url(#pf2ec51b5f5)" d="M 70.08 16.96355 
L 86.28 16.96355 
L 86.742857 16.969244 
L 87.205714 16.986326 
L 87.668571 17.014795 
L 88.131429 17.054652 
L 88.594286 17.105897 
L 89.057143 17.16853 
L 89.52 17.24255 
L 89.982857 17.327958 
L 90.445714 17.424754 
L 90.908571 17.532938 
L 91.371429 17.652509 
L 91.834286 17.783468 
L 92.297143 17.925815 
L 92.76 18.07955 
L 93.222857 18.244672 
L 93.685714 18.421183 
L 94.148571 18.609081 
L 94.611429 18.808366 
L 95.074286 19.01904 
L 95.537143 19.241101 
L 96 19.47455 
L 96.462857 19.719387 
L 96.925714 19.975611 
L 97.388571 20.243223 
L 97.851429 20.522223 
L 98.314286 20.812611 
L 98.777143 21.114387 
L 99.24 21.42755 
L 99.702857 21.752101 
L 100.165714 22.08804 
L 100.628571 22.435366 
L 101.091429 22.794081 
L 101.554286 23.164183 
L 102.017143 23.545672 
L 102.48 23.93855 
L 102.942857 24.342815 
L 103.405714 24.758468 
L 103.868571 25.185509 
L 104.331429 25.623938 
L 104.794286 26.073754 
L 105.257143 26.534958 
L 105.72 27.00755 
L 106.182857 27.49153 
L 106.645714 27.986897 
L 107.108571 28.493652 
L 107.571429 29.011795 
L 108.034286 29.541326 
L 108.497143 30.082244 
L 108.96 30.63455 
" style="fill:none;stroke:#000000;stroke-linecap:round;stroke-width:1.5;"/>
   </g>
   <g id="line2d_4">
    <path clip-path="url(#pf2ec51b5f5)" d="M 65.22 44.30555 
L 65.84208 43.74755 
L 66.43824 43.18955 
L 67.00848 42.63155 
L 67.5528 42.07355 
L 68.0712 41.51555 
L 68.56368 40.95755 
L 69.03024 40.39955 
L 69.47088 39.84155 
L 69.8856 39.28355 
L 70.2744 38.72555 
L 70.63728 38.16755 
L 70.97424 37.60955 
L 71.28528 37.05155 
L 71.5704 36.49355 
L 71.8296 35.93555 
L 72.06288 35.37755 
L 72.27024 34.81955 
L 72.45168 34.26155 
L 72.6072 33.70355 
L 72.7368 33.14555 
L 72.84048 32.58755 
L 72.91824 32.02955 
L 72.97008 31.47155 
L 72.996 30.91355 
L 72.996 30.35555 
L 72.97008 29.79755 
L 72.91824 29.23955 
L 72.84048 28.68155 
L 72.7368 28.12355 
L 72.6072 27.56555 
L 72.45168 27.00755 
L 72.27024 26.44955 
L 72.06288 25.89155 
L 71.8296 25.33355 
L 71.5704 24.77555 
L 71.28528 24.21755 
L 70.97424 23.65955 
L 70.63728 23.10155 
L 70.2744 22.54355 
L 69.8856 21.98555 
L 69.47088 21.42755 
L 69.03024 20.86955 
L 68.56368 20.31155 
L 68.0712 19.75355 
L 67.5528 19.19555 
L 67.00848 18.63755 
L 66.43824 18.07955 
L 65.84208 17.52155 
L 65.22 16.96355 
" style="fill:none;stroke:#000000;stroke-linecap:round;stroke-width:1.5;"/>
   </g>
   <g id="line2d_5">
    <path clip-path="url(#pf2ec51b5f5)" d="M 70.08 44.30555 
L 70.70208 43.74755 
L 71.29824 43.18955 
L 71.86848 42.63155 
L 72.4128 42.07355 
L 72.9312 41.51555 
L 73.42368 40.95755 
L 73.89024 40.39955 
L 74.33088 39.84155 
L 74.7456 39.28355 
L 75.1344 38.72555 
L 75.49728 38.16755 
L 75.83424 37.60955 
L 76.14528 37.05155 
L 76.4304 36.49355 
L 76.6896 35.93555 
L 76.92288 35.37755 
L 77.13024 34.81955 
L 77.31168 34.26155 
L 77.4672 33.70355 
L 77.5968 33.14555 
L 77.70048 32.58755 
L 77.77824 32.02955 
L 77.83008 31.47155 
L 77.856 30.91355 
L 77.856 30.35555 
L 77.83008 29.79755 
L 77.77824 29.23955 
L 77.70048 28.68155 
L 77.5968 28.12355 
L 77.4672 27.56555 
L 77.31168 27.00755 
L 77.13024 26.44955 
L 76.92288 25.89155 
L 76.6896 25.33355 
L 76.4304 24.77555 
L 76.14528 24.21755 
L 75.83424 23.65955 
L 75.49728 23.10155 
L 75.1344 22.54355 
L 74.7456 21.98555 
L 74.33088 21.42755 
L 73.89024 20.86955 
L 73.42368 20.31155 
L 72.9312 19.75355 
L 72.4128 19.19555 
L 71.86848 18.63755 
L 71.29824 18.07955 
L 70.70208 17.52155 
L 70.08 16.96355 
" style="fill:none;stroke:#000000;stroke-linecap:round;stroke-width:1.5;"/>
   </g>
   <g id="line2d_6">
    <path clip-path="url(#pf2ec51b5f5)" d="M 53.88 37.60955 
L 70.97424 37.60955 
" style="fill:none;stroke:#000000;stroke-linecap:round;stroke-width:1.5;"/>
   </g>
   <g id="line2d_7">
    <path clip-path="url(#pf2ec51b5f5)" d="M 53.88 23.65955 
L 70.97424 23.65955 
" style="fill:none;stroke:#000000;stroke-linecap:round;stroke-width:1.5;"/>
   </g>
   <g id="line2d_8">
    <path clip-path="url(#pf2ec51b5f5)" d="M 53.88 23.65955 
" style="fill:none;stroke:#000000;stroke-linecap:round;stroke-width:1.5;"/>
   </g>
   <g id="line2d_9">
    <path clip-path="url(#pf2ec51b5f5)" d="M 53.88 23.65955 
L 37.68 23.65955 
L 21.48 23.65955 
" style="fill:none;stroke:#000000;stroke-linecap:round;stroke-width:1.5;"/>
   </g>
   <g id="line2d_10">
    <path clip-path="url(#pf2ec51b5f5)" d="M 53.88 37.60955 
L 45.78 37.60955 
L 37.68 37.60955 
" style="fill:none;stroke:#000000;stroke-linecap:round;stroke-width:1.5;"/>
   </g>
   <g id="line2d_11">
    <path clip-path="url(#pf2ec51b5f5)" d="M 37.68 37.60955 
" style="fill:none;stroke:#000000;stroke-linecap:round;stroke-width:1.5;"/>
   </g>
   <g id="line2d_12">
    <path clip-path="url(#pf2ec51b5f5)" d="M 37.68 37.60955 
L 29.58 37.60955 
L 21.48 37.60955 
" style="fill:none;stroke:#000000;stroke-linecap:round;stroke-width:1.5;"/>
   </g>
   <g id="line2d_13">
    <path clip-path="url(#pf2ec51b5f5)" d="M 53.88 23.65955 
L 53.88 44.58455 
L 53.88 65.50955 
" style="fill:none;stroke:#000000;stroke-linecap:round;stroke-width:1.5;"/>
   </g>
   <g id="line2d_14">
    <path clip-path="url(#pf2ec51b5f5)" d="M 53.88 72.48455 
M 102.48 72.48455 
L 113.82 72.48455 
" style="fill:none;stroke:#000000;stroke-linecap:round;stroke-width:1.5;"/>
   </g>
   <g id="line2d_15">
    <path clip-path="url(#pf2ec51b5f5)" d="M 65.22 72.48455 
L 65.22 86.43455 
L 86.28 86.43455 
" style="fill:none;stroke:#000000;stroke-linecap:round;stroke-width:1.5;"/>
   </g>
   <g id="line2d_16">
    <path clip-path="url(#pf2ec51b5f5)" d="M 65.22 72.48455 
L 65.22 58.53455 
L 86.28 58.53455 
" style="fill:none;stroke:#000000;stroke-linecap:round;stroke-width:1.5;"/>
   </g>
   <g id="line2d_17">
    <path clip-path="url(#pf2ec51b5f5)" d="M 53.88 79.45955 
L 65.22 79.45955 
" style="fill:none;stroke:#000000;stroke-linecap:round;stroke-width:1.5;"/>
   </g>
   <g id="line2d_18">
    <path clip-path="url(#pf2ec51b5f5)" d="M 53.88 65.50955 
L 65.22 65.50955 
" style="fill:none;stroke:#000000;stroke-linecap:round;stroke-width:1.5;"/>
   </g>
   <g id="line2d_19">
    <path clip-path="url(#pf2ec51b5f5)" d="M 37.68 37.60955 
L 37.68 58.53455 
L 37.68 79.45955 
" style="fill:none;stroke:#000000;stroke-linecap:round;stroke-width:1.5;"/>
   </g>
   <g id="line2d_20">
    <path clip-path="url(#pf2ec51b5f5)" d="M 37.68 79.45955 
L 45.78 79.45955 
L 53.88 79.45955 
" style="fill:none;stroke:#000000;stroke-linecap:round;stroke-width:1.5;"/>
   </g>
   <g id="patch_3">
    <path clip-path="url(#pf2ec51b5f5)" d="M 53.88 25.75205 
C 54.524444 25.75205 55.142579 25.531571 55.598269 25.139171 
C 56.05396 24.746771 56.31 24.214487 56.31 23.65955 
C 56.31 23.104613 56.05396 22.572329 55.598269 22.179929 
C 55.142579 21.787529 54.524444 21.56705 53.88 21.56705 
C 53.235556 21.56705 52.617421 21.787529 52.161731 22.179929 
C 51.70604 22.572329 51.45 23.104613 51.45 23.65955 
C 51.45 24.214487 51.70604 24.746771 52.161731 25.139171 
C 52.617421 25.531571 53.235556 25.75205 53.88 25.75205 
z
" style="stroke:#000000;stroke-linejoin:miter;stroke-width:1.5;"/>
   </g>
   <g id="patch_4">
    <path clip-path="url(#pf2ec51b5f5)" d="M 37.68 39.70205 
C 38.324444 39.70205 38.942579 39.481571 39.398269 39.089171 
C 39.85396 38.696771 40.11 38.164487 40.11 37.60955 
C 40.11 37.054613 39.85396 36.522329 39.398269 36.129929 
C 38.942579 35.737529 38.324444 35.51705 37.68 35.51705 
C 37.035556 35.51705 36.417421 35.737529 35.961731 36.129929 
C 35.50604 36.522329 35.25 37.054613 35.25 37.60955 
C 35.25 38.164487 35.50604 38.696771 35.961731 39.089171 
C 36.417421 39.481571 37.035556 39.70205 37.68 39.70205 
z
" style="stroke:#000000;stroke-linejoin:miter;stroke-width:1.5;"/>
   </g>
   <g id="text_1">
    <!-- $S$ -->
    <defs>
     <path d="M 53.515625 70.515625 
L 53.515625 60.890625 
Q 47.90625 63.578125 42.921875 64.890625 
Q 37.9375 66.21875 33.296875 66.21875 
Q 25.25 66.21875 20.875 63.09375 
Q 16.5 59.96875 16.5 54.203125 
Q 16.5 49.359375 19.40625 46.890625 
Q 22.3125 44.4375 30.421875 42.921875 
L 36.375 41.703125 
Q 47.40625 39.59375 52.65625 34.296875 
Q 57.90625 29 57.90625 20.125 
Q 57.90625 9.515625 50.796875 4.046875 
Q 43.703125 -1.421875 29.984375 -1.421875 
Q 24.8125 -1.421875 18.96875 -0.25 
Q 13.140625 0.921875 6.890625 3.21875 
L 6.890625 13.375 
Q 12.890625 10.015625 18.65625 8.296875 
Q 24.421875 6.59375 29.984375 6.59375 
Q 38.421875 6.59375 43.015625 9.90625 
Q 47.609375 13.234375 47.609375 19.390625 
Q 47.609375 24.75 44.3125 27.78125 
Q 41.015625 30.8125 33.5 32.328125 
L 27.484375 33.5 
Q 16.453125 35.6875 11.515625 40.375 
Q 6.59375 45.0625 6.59375 53.421875 
Q 6.59375 63.09375 13.40625 68.65625 
Q 20.21875 74.21875 32.171875 74.21875 
Q 37.3125 74.21875 42.625 73.28125 
Q 47.953125 72.359375 53.515625 70.515625 
z
" id="DejaVuSans-53"/>
    </defs>
    <g transform="translate(123.54 35.04955)scale(0.16 -0.16)">
     <use transform="translate(0 0.78125)" xlink:href="#DejaVuSans-53"/>
    </g>
   </g>
   <g id="text_2">
    <!-- $A$ -->
    <defs>
     <path d="M 34.1875 63.1875 
L 20.796875 26.90625 
L 47.609375 26.90625 
z
M 28.609375 72.90625 
L 39.796875 72.90625 
L 67.578125 0 
L 57.328125 0 
L 50.6875 18.703125 
L 17.828125 18.703125 
L 11.1875 0 
L 0.78125 0 
z
" id="DejaVuSans-41"/>
    </defs>
    <g transform="translate(7.2 28.07455)scale(0.16 -0.16)">
     <use transform="translate(0 0.09375)" xlink:href="#DejaVuSans-41"/>
    </g>
   </g>
   <g id="text_3">
    <!-- $B$ -->
    <defs>
     <path d="M 19.671875 34.8125 
L 19.671875 8.109375 
L 35.5 8.109375 
Q 43.453125 8.109375 47.28125 11.40625 
Q 51.125 14.703125 51.125 21.484375 
Q 51.125 28.328125 47.28125 31.5625 
Q 43.453125 34.8125 35.5 34.8125 
z
M 19.671875 64.796875 
L 19.671875 42.828125 
L 34.28125 42.828125 
Q 41.5 42.828125 45.03125 45.53125 
Q 48.578125 48.25 48.578125 53.8125 
Q 48.578125 59.328125 45.03125 62.0625 
Q 41.5 64.796875 34.28125 64.796875 
z
M 9.8125 72.90625 
L 35.015625 72.90625 
Q 46.296875 72.90625 52.390625 68.21875 
Q 58.5 63.53125 58.5 54.890625 
Q 58.5 48.1875 55.375 44.234375 
Q 52.25 40.28125 46.1875 39.3125 
Q 53.46875 37.75 57.5 32.78125 
Q 61.53125 27.828125 61.53125 20.40625 
Q 61.53125 10.640625 54.890625 5.3125 
Q 48.25 0 35.984375 0 
L 9.8125 0 
z
" id="DejaVuSans-42"/>
    </defs>
    <g transform="translate(7.2 42.02455)scale(0.16 -0.16)">
     <use transform="translate(0 0.09375)" xlink:href="#DejaVuSans-42"/>
    </g>
   </g>
   <g id="text_4">
    <!-- $C$ -->
    <defs>
     <path d="M 64.40625 67.28125 
L 64.40625 56.890625 
Q 59.421875 61.53125 53.78125 63.8125 
Q 48.140625 66.109375 41.796875 66.109375 
Q 29.296875 66.109375 22.65625 58.46875 
Q 16.015625 50.828125 16.015625 36.375 
Q 16.015625 21.96875 22.65625 14.328125 
Q 29.296875 6.6875 41.796875 6.6875 
Q 48.140625 6.6875 53.78125 8.984375 
Q 59.421875 11.28125 64.40625 15.921875 
L 64.40625 5.609375 
Q 59.234375 2.09375 53.4375 0.328125 
Q 47.65625 -1.421875 41.21875 -1.421875 
Q 24.65625 -1.421875 15.125 8.703125 
Q 5.609375 18.84375 5.609375 36.375 
Q 5.609375 53.953125 15.125 64.078125 
Q 24.65625 74.21875 41.21875 74.21875 
Q 47.75 74.21875 53.53125 72.484375 
Q 59.328125 70.75 64.40625 67.28125 
z
" id="DejaVuSans-43"/>
    </defs>
    <g transform="translate(121.92 76.89955)scale(0.16 -0.16)">
     <use transform="translate(0 0.78125)" xlink:href="#DejaVuSans-43"/>
    </g>
   </g>
  </g>
 </g>
 <defs>
  <clipPath id="pf2ec51b5f5">
   <rect height="81.9981" width="115.182" x="13.299" y="10.7"/>
  </clipPath>
 </defs>
</svg>
