<?xml version="1.0" encoding="utf-8" standalone="no"?>
<!DOCTYPE svg PUBLIC "-//W3C//DTD SVG 1.1//EN"
  "http://www.w3.org/Graphics/SVG/1.1/DTD/svg11.dtd">
<!-- Created with matplotlib (http://matplotlib.org/) -->
<svg height="89pt" version="1.1" viewBox="0 0 140 89" width="140pt" xmlns="http://www.w3.org/2000/svg" xmlns:xlink="http://www.w3.org/1999/xlink">
 <defs>
  <style type="text/css">
*{stroke-linecap:butt;stroke-linejoin:round;}
  </style>
 </defs>
 <g id="figure_1">
  <g id="patch_1">
   <path d="
M0 89.451
L140.98 89.451
L140.98 0
L0 0
L0 89.451" style="fill:none;"/>
  </g>
  <g id="axes_1">
   <g id="patch_2">
    <path clip-path="url(#pd309c91165)" d="
M86.28 79.461
C90.5749 79.461 94.6982 77.9903 97.7351 75.3751
C100.772 72.76 102.48 69.2094 102.48 65.511
C102.48 61.8126 100.772 58.262 97.7351 55.6469
C94.6982 53.0317 90.5749 51.561 86.28 51.561" style="fill:none;stroke:#000000;stroke-linejoin:miter;stroke-width:1.5;"/>
   </g>
   <g id="line2d_1">
    <path clip-path="url(#pd309c91165)" d="
M53.88 23.661
M108.96 23.661
L120.3 23.661" style="fill:none;stroke:#000000;stroke-linecap:round;stroke-width:1.5;"/>
   </g>
   <g id="line2d_2">
    <path clip-path="url(#pd309c91165)" d="
M70.08 37.332
L86.28 37.332
L86.7429 37.3263
L87.2057 37.3092
L87.6686 37.2808
L88.1314 37.2409
L88.5943 37.1897
L89.0571 37.127
L89.52 37.053
L89.9829 36.9676
L90.4457 36.8708
L90.9086 36.7626
L91.3714 36.643
L91.8343 36.5121
L92.2971 36.3697
L92.76 36.216
L93.2229 36.0509
L93.6857 35.8744
L94.1486 35.6865
L94.6114 35.4872
L95.0743 35.2765
L95.5371 35.0544
L96 34.821
L96.4629 34.5762
L96.9257 34.3199
L97.3886 34.0523
L97.8514 33.7733
L98.3143 33.4829
L98.7771 33.1812
L99.24 32.868
L99.7029 32.5434
L100.166 32.2075
L100.629 31.8602
L101.091 31.5015
L101.554 31.1314
L102.017 30.7499
L102.48 30.357
L102.943 29.9527
L103.406 29.5371
L103.869 29.11
L104.331 28.6716
L104.794 28.2218
L105.257 27.7606
L105.72 27.288
L106.183 26.804
L106.646 26.3087
L107.109 25.8019
L107.571 25.2838
L108.034 24.7542
L108.497 24.2133
L108.96 23.661" style="fill:none;stroke:#000000;stroke-linecap:round;stroke-width:1.5;"/>
   </g>
   <g id="line2d_3">
    <path clip-path="url(#pd309c91165)" d="
M70.08 9.99
L86.28 9.99
L86.7429 9.99569
L87.2057 10.0128
L87.6686 10.0412
L88.1314 10.0811
L88.5943 10.1323
L89.0571 10.195
L89.52 10.269
L89.9829 10.3544
L90.4457 10.4512
L90.9086 10.5594
L91.3714 10.679
L91.8343 10.8099
L92.2971 10.9523
L92.76 11.106
L93.2229 11.2711
L93.6857 11.4476
L94.1486 11.6355
L94.6114 11.8348
L95.0743 12.0455
L95.5371 12.2676
L96 12.501
L96.4629 12.7458
L96.9257 13.0021
L97.3886 13.2697
L97.8514 13.5487
L98.3143 13.8391
L98.7771 14.1408
L99.24 14.454
L99.7029 14.7786
L100.166 15.1145
L100.629 15.4618
L101.091 15.8205
L101.554 16.1906
L102.017 16.5721
L102.48 16.965
L102.943 17.3693
L103.406 17.7849
L103.869 18.212
L104.331 18.6504
L104.794 19.1002
L105.257 19.5614
L105.72 20.034
L106.183 20.518
L106.646 21.0133
L107.109 21.5201
L107.571 22.0382
L108.034 22.5678
L108.497 23.1087
L108.96 23.661" style="fill:none;stroke:#000000;stroke-linecap:round;stroke-width:1.5;"/>
   </g>
   <g id="line2d_4">
    <path clip-path="url(#pd309c91165)" d="
M65.22 37.332
L65.8421 36.774
L66.4382 36.216
L67.0085 35.658
L67.5528 35.1
L68.0712 34.542
L68.5637 33.984
L69.0302 33.426
L69.4709 32.868
L69.8856 32.31
L70.2744 31.752
L70.6373 31.194
L70.9742 30.636
L71.2853 30.078
L71.5704 29.52
L71.8296 28.962
L72.0629 28.404
L72.2702 27.846
L72.4517 27.288
L72.6072 26.73
L72.7368 26.172
L72.8405 25.614
L72.9182 25.056
L72.9701 24.498
L72.996 23.94
L72.996 23.382
L72.9701 22.824
L72.9182 22.266
L72.8405 21.708
L72.7368 21.15
L72.6072 20.592
L72.4517 20.034
L72.2702 19.476
L72.0629 18.918
L71.8296 18.36
L71.5704 17.802
L71.2853 17.244
L70.9742 16.686
L70.6373 16.128
L70.2744 15.57
L69.8856 15.012
L69.4709 14.454
L69.0302 13.896
L68.5637 13.338
L68.0712 12.78
L67.5528 12.222
L67.0085 11.664
L66.4382 11.106
L65.8421 10.548
L65.22 9.99" style="fill:none;stroke:#000000;stroke-linecap:round;stroke-width:1.5;"/>
   </g>
   <g id="line2d_5">
    <path clip-path="url(#pd309c91165)" d="
M70.08 37.332
L70.7021 36.774
L71.2982 36.216
L71.8685 35.658
L72.4128 35.1
L72.9312 34.542
L73.4237 33.984
L73.8902 33.426
L74.3309 32.868
L74.7456 32.31
L75.1344 31.752
L75.4973 31.194
L75.8342 30.636
L76.1453 30.078
L76.4304 29.52
L76.6896 28.962
L76.9229 28.404
L77.1302 27.846
L77.3117 27.288
L77.4672 26.73
L77.5968 26.172
L77.7005 25.614
L77.7782 25.056
L77.8301 24.498
L77.856 23.94
L77.856 23.382
L77.8301 22.824
L77.7782 22.266
L77.7005 21.708
L77.5968 21.15
L77.4672 20.592
L77.3117 20.034
L77.1302 19.476
L76.9229 18.918
L76.6896 18.36
L76.4304 17.802
L76.1453 17.244
L75.8342 16.686
L75.4973 16.128
L75.1344 15.57
L74.7456 15.012
L74.3309 14.454
L73.8902 13.896
L73.4237 13.338
L72.9312 12.78
L72.4128 12.222
L71.8685 11.664
L71.2982 11.106
L70.7021 10.548
L70.08 9.99" style="fill:none;stroke:#000000;stroke-linecap:round;stroke-width:1.5;"/>
   </g>
   <g id="line2d_6">
    <path clip-path="url(#pd309c91165)" d="
M53.88 30.636
L70.9742 30.636" style="fill:none;stroke:#000000;stroke-linecap:round;stroke-width:1.5;"/>
   </g>
   <g id="line2d_7">
    <path clip-path="url(#pd309c91165)" d="
M53.88 16.686
L70.9742 16.686" style="fill:none;stroke:#000000;stroke-linecap:round;stroke-width:1.5;"/>
   </g>
   <g id="line2d_8">
    <path clip-path="url(#pd309c91165)" d="
M53.88 16.686" style="fill:none;stroke:#000000;stroke-linecap:round;stroke-width:1.5;"/>
   </g>
   <g id="line2d_9">
    <path clip-path="url(#pd309c91165)" d="
M53.88 16.686
L37.68 16.686
L21.48 16.686" style="fill:none;stroke:#000000;stroke-linecap:round;stroke-width:1.5;"/>
   </g>
   <g id="line2d_10">
    <path clip-path="url(#pd309c91165)" d="
M53.88 30.636
L45.78 30.636
L37.68 30.636" style="fill:none;stroke:#000000;stroke-linecap:round;stroke-width:1.5;"/>
   </g>
   <g id="line2d_11">
    <path clip-path="url(#pd309c91165)" d="
M37.68 30.636" style="fill:none;stroke:#000000;stroke-linecap:round;stroke-width:1.5;"/>
   </g>
   <g id="line2d_12">
    <path clip-path="url(#pd309c91165)" d="
M37.68 30.636
L29.58 30.636
L21.48 30.636" style="fill:none;stroke:#000000;stroke-linecap:round;stroke-width:1.5;"/>
   </g>
   <g id="line2d_13">
    <path clip-path="url(#pd309c91165)" d="
M53.88 16.686
L53.88 37.611
L53.88 58.536" style="fill:none;stroke:#000000;stroke-linecap:round;stroke-width:1.5;"/>
   </g>
   <g id="line2d_14">
    <path clip-path="url(#pd309c91165)" d="
M53.88 65.511
M102.48 65.511
L113.82 65.511" style="fill:none;stroke:#000000;stroke-linecap:round;stroke-width:1.5;"/>
   </g>
   <g id="line2d_15">
    <path clip-path="url(#pd309c91165)" d="
M65.22 65.511
L65.22 79.461
L86.28 79.461" style="fill:none;stroke:#000000;stroke-linecap:round;stroke-width:1.5;"/>
   </g>
   <g id="line2d_16">
    <path clip-path="url(#pd309c91165)" d="
M65.22 65.511
L65.22 51.561
L86.28 51.561" style="fill:none;stroke:#000000;stroke-linecap:round;stroke-width:1.5;"/>
   </g>
   <g id="line2d_17">
    <path clip-path="url(#pd309c91165)" d="
M53.88 72.486
L65.22 72.486" style="fill:none;stroke:#000000;stroke-linecap:round;stroke-width:1.5;"/>
   </g>
   <g id="line2d_18">
    <path clip-path="url(#pd309c91165)" d="
M53.88 58.536
L65.22 58.536" style="fill:none;stroke:#000000;stroke-linecap:round;stroke-width:1.5;"/>
   </g>
   <g id="line2d_19">
    <path clip-path="url(#pd309c91165)" d="
M37.68 30.636
L37.68 51.561
L37.68 72.486" style="fill:none;stroke:#000000;stroke-linecap:round;stroke-width:1.5;"/>
   </g>
   <g id="line2d_20">
    <path clip-path="url(#pd309c91165)" d="
M37.68 72.486
L45.78 72.486
L53.88 72.486" style="fill:none;stroke:#000000;stroke-linecap:round;stroke-width:1.5;"/>
   </g>
   <g id="patch_3">
    <path clip-path="url(#pd309c91165)" d="
M53.88 18.7785
C54.5244 18.7785 55.1426 18.558 55.5983 18.1656
C56.054 17.7732 56.31 17.2409 56.31 16.686
C56.31 16.1311 56.054 15.5988 55.5983 15.2064
C55.1426 14.814 54.5244 14.5935 53.88 14.5935
C53.2356 14.5935 52.6174 14.814 52.1617 15.2064
C51.706 15.5988 51.45 16.1311 51.45 16.686
C51.45 17.2409 51.706 17.7732 52.1617 18.1656
C52.6174 18.558 53.2356 18.7785 53.88 18.7785
z
" style="stroke:#000000;stroke-linejoin:miter;stroke-width:1.5;"/>
   </g>
   <g id="patch_4">
    <path clip-path="url(#pd309c91165)" d="
M37.68 32.7285
C38.3244 32.7285 38.9426 32.508 39.3983 32.1156
C39.854 31.7232 40.11 31.1909 40.11 30.636
C40.11 30.0811 39.854 29.5488 39.3983 29.1564
C38.9426 28.764 38.3244 28.5435 37.68 28.5435
C37.0356 28.5435 36.4174 28.764 35.9617 29.1564
C35.506 29.5488 35.25 30.0811 35.25 30.636
C35.25 31.1909 35.506 31.7232 35.9617 32.1156
C36.4174 32.508 37.0356 32.7285 37.68 32.7285
z
" style="stroke:#000000;stroke-linejoin:miter;stroke-width:1.5;"/>
   </g>
   <g id="text_1">
    <!-- $S$ -->
    <defs>
     <path d="
M53.5156 70.5156
L53.5156 60.8906
Q47.9062 63.5781 42.9219 64.8906
Q37.9375 66.2188 33.2969 66.2188
Q25.25 66.2188 20.875 63.0938
Q16.5 59.9688 16.5 54.2031
Q16.5 49.3594 19.4062 46.8906
Q22.3125 44.4375 30.4219 42.9219
L36.375 41.7031
Q47.4062 39.5938 52.6562 34.2969
Q57.9062 29 57.9062 20.125
Q57.9062 9.51562 50.7969 4.04688
Q43.7031 -1.42188 29.9844 -1.42188
Q24.8125 -1.42188 18.9688 -0.25
Q13.1406 0.921875 6.89062 3.21875
L6.89062 13.375
Q12.8906 10.0156 18.6562 8.29688
Q24.4219 6.59375 29.9844 6.59375
Q38.4219 6.59375 43.0156 9.90625
Q47.6094 13.2344 47.6094 19.3906
Q47.6094 24.75 44.3125 27.7812
Q41.0156 30.8125 33.5 32.3281
L27.4844 33.5
Q16.4531 35.6875 11.5156 40.375
Q6.59375 45.0625 6.59375 53.4219
Q6.59375 63.0938 13.4062 68.6562
Q20.2188 74.2188 32.1719 74.2188
Q37.3125 74.2188 42.625 73.2812
Q47.9531 72.3594 53.5156 70.5156" id="BitstreamVeraSans-Roman-53"/>
    </defs>
    <g transform="translate(123.54 28.076)scale(0.16 -0.16)">
     <use transform="translate(0.0 0.78125)" xlink:href="#BitstreamVeraSans-Roman-53"/>
    </g>
   </g>
   <g id="text_2">
    <!-- $A$ -->
    <defs>
     <path d="
M34.1875 63.1875
L20.7969 26.9062
L47.6094 26.9062
z

M28.6094 72.9062
L39.7969 72.9062
L67.5781 0
L57.3281 0
L50.6875 18.7031
L17.8281 18.7031
L11.1875 0
L0.78125 0
z
" id="BitstreamVeraSans-Roman-41"/>
    </defs>
    <g transform="translate(7.2 21.101)scale(0.16 -0.16)">
     <use transform="translate(0.0 0.09375)" xlink:href="#BitstreamVeraSans-Roman-41"/>
    </g>
   </g>
   <g id="text_3">
    <!-- $B$ -->
    <defs>
     <path d="
M19.6719 34.8125
L19.6719 8.10938
L35.5 8.10938
Q43.4531 8.10938 47.2812 11.4062
Q51.125 14.7031 51.125 21.4844
Q51.125 28.3281 47.2812 31.5625
Q43.4531 34.8125 35.5 34.8125
z

M19.6719 64.7969
L19.6719 42.8281
L34.2812 42.8281
Q41.5 42.8281 45.0312 45.5312
Q48.5781 48.25 48.5781 53.8125
Q48.5781 59.3281 45.0312 62.0625
Q41.5 64.7969 34.2812 64.7969
z

M9.8125 72.9062
L35.0156 72.9062
Q46.2969 72.9062 52.3906 68.2188
Q58.5 63.5312 58.5 54.8906
Q58.5 48.1875 55.375 44.2344
Q52.25 40.2812 46.1875 39.3125
Q53.4688 37.75 57.5 32.7812
Q61.5312 27.8281 61.5312 20.4062
Q61.5312 10.6406 54.8906 5.3125
Q48.25 0 35.9844 0
L9.8125 0
z
" id="BitstreamVeraSans-Roman-42"/>
    </defs>
    <g transform="translate(7.2 35.051)scale(0.16 -0.16)">
     <use transform="translate(0.0 0.09375)" xlink:href="#BitstreamVeraSans-Roman-42"/>
    </g>
   </g>
   <g id="text_4">
    <!-- $C$ -->
    <defs>
     <path d="
M64.4062 67.2812
L64.4062 56.8906
Q59.4219 61.5312 53.7812 63.8125
Q48.1406 66.1094 41.7969 66.1094
Q29.2969 66.1094 22.6562 58.4688
Q16.0156 50.8281 16.0156 36.375
Q16.0156 21.9688 22.6562 14.3281
Q29.2969 6.6875 41.7969 6.6875
Q48.1406 6.6875 53.7812 8.98438
Q59.4219 11.2812 64.4062 15.9219
L64.4062 5.60938
Q59.2344 2.09375 53.4375 0.328125
Q47.6562 -1.42188 41.2188 -1.42188
Q24.6562 -1.42188 15.125 8.70312
Q5.60938 18.8438 5.60938 36.375
Q5.60938 53.9531 15.125 64.0781
Q24.6562 74.2188 41.2188 74.2188
Q47.75 74.2188 53.5312 72.4844
Q59.3281 70.75 64.4062 67.2812" id="BitstreamVeraSans-Roman-43"/>
    </defs>
    <g transform="translate(121.92 69.926)scale(0.16 -0.16)">
     <use transform="translate(0.0 0.78125)" xlink:href="#BitstreamVeraSans-Roman-43"/>
    </g>
   </g>
  </g>
 </g>
 <defs>
  <clipPath id="pd309c91165">
   <rect height="75.051" width="105.3" x="18.24" y="7.2"/>
  </clipPath>
 </defs>
</svg>
