<?xml version="1.0" encoding="utf-8" standalone="no"?>
<!DOCTYPE svg PUBLIC "-//W3C//DTD SVG 1.1//EN"
  "http://www.w3.org/Graphics/SVG/1.1/DTD/svg11.dtd">
<!-- Created with matplotlib (http://matplotlib.org/) -->
<svg height="111pt" version="1.1" viewBox="0 0 140 111" width="140pt" xmlns="http://www.w3.org/2000/svg" xmlns:xlink="http://www.w3.org/1999/xlink">
 <defs>
  <style type="text/css">
*{stroke-linecap:butt;stroke-linejoin:round;}
  </style>
 </defs>
 <g id="figure_1">
  <g id="patch_1">
   <path d="M -0 111.3334 
L 140.98 111.3334 
L 140.98 0 
L -0 0 
z
" style="fill:none;"/>
  </g>
  <g id="axes_1">
   <g id="patch_2">
    <path clip-path="url(#pd87da230ac)" d="M 86.28 93.7637 
C 90.574859 93.7637 94.698206 92.15064 97.73513 89.282434 
C 100.772054 86.414228 102.48 82.519956 102.48 78.4637 
C 102.48 74.407444 100.772054 70.513172 97.73513 67.644966 
C 94.698206 64.77676 90.574859 63.1637 86.28 63.1637 
" style="fill:none;stroke:#000000;stroke-linejoin:miter;stroke-width:1.5;"/>
   </g>
   <g id="line2d_1">
    <path clip-path="url(#pd87da230ac)" d="M 53.88 32.5637 
M 108.96 32.5637 
L 120.3 32.5637 
" style="fill:none;stroke:#000000;stroke-linecap:round;stroke-width:1.5;"/>
   </g>
   <g id="line2d_2">
    <path clip-path="url(#pd87da230ac)" d="M 70.08 47.5577 
L 86.28 47.5577 
L 86.742857 47.551455 
L 87.205714 47.53272 
L 87.668571 47.501496 
L 88.131429 47.457782 
L 88.594286 47.401578 
L 89.057143 47.332884 
L 89.52 47.2517 
L 89.982857 47.158027 
L 90.445714 47.051863 
L 90.908571 46.93321 
L 91.371429 46.802067 
L 91.834286 46.658435 
L 92.297143 46.502312 
L 92.76 46.3337 
L 93.222857 46.152598 
L 93.685714 45.959006 
L 94.148571 45.752924 
L 94.611429 45.534353 
L 95.074286 45.303292 
L 95.537143 45.059741 
L 96 44.8037 
L 96.462857 44.535169 
L 96.925714 44.254149 
L 97.388571 43.960639 
L 97.851429 43.654639 
L 98.314286 43.336149 
L 98.777143 43.005169 
L 99.24 42.6617 
L 99.702857 42.305741 
L 100.165714 41.937292 
L 100.628571 41.556353 
L 101.091429 41.162924 
L 101.554286 40.757006 
L 102.017143 40.338598 
L 102.48 39.9077 
L 102.942857 39.464312 
L 103.405714 39.008435 
L 103.868571 38.540067 
L 104.331429 38.05921 
L 104.794286 37.565863 
L 105.257143 37.060027 
L 105.72 36.5417 
L 106.182857 36.010884 
L 106.645714 35.467578 
L 107.108571 34.911782 
L 107.571429 34.343496 
L 108.034286 33.76272 
L 108.497143 33.169455 
L 108.96 32.5637 
" style="fill:none;stroke:#000000;stroke-linecap:round;stroke-width:1.5;"/>
   </g>
   <g id="line2d_3">
    <path clip-path="url(#pd87da230ac)" d="M 70.08 17.5697 
L 86.28 17.5697 
L 86.742857 17.575945 
L 87.205714 17.59468 
L 87.668571 17.625904 
L 88.131429 17.669618 
L 88.594286 17.725822 
L 89.057143 17.794516 
L 89.52 17.8757 
L 89.982857 17.969373 
L 90.445714 18.075537 
L 90.908571 18.19419 
L 91.371429 18.325333 
L 91.834286 18.468965 
L 92.297143 18.625088 
L 92.76 18.7937 
L 93.222857 18.974802 
L 93.685714 19.168394 
L 94.148571 19.374476 
L 94.611429 19.593047 
L 95.074286 19.824108 
L 95.537143 20.067659 
L 96 20.3237 
L 96.462857 20.592231 
L 96.925714 20.873251 
L 97.388571 21.166761 
L 97.851429 21.472761 
L 98.314286 21.791251 
L 98.777143 22.122231 
L 99.24 22.4657 
L 99.702857 22.821659 
L 100.165714 23.190108 
L 100.628571 23.571047 
L 101.091429 23.964476 
L 101.554286 24.370394 
L 102.017143 24.788802 
L 102.48 25.2197 
L 102.942857 25.663088 
L 103.405714 26.118965 
L 103.868571 26.587333 
L 104.331429 27.06819 
L 104.794286 27.561537 
L 105.257143 28.067373 
L 105.72 28.5857 
L 106.182857 29.116516 
L 106.645714 29.659822 
L 107.108571 30.215618 
L 107.571429 30.783904 
L 108.034286 31.36468 
L 108.497143 31.957945 
L 108.96 32.5637 
" style="fill:none;stroke:#000000;stroke-linecap:round;stroke-width:1.5;"/>
   </g>
   <g id="line2d_4">
    <path clip-path="url(#pd87da230ac)" d="M 65.22 47.5577 
L 65.84208 46.9457 
L 66.43824 46.3337 
L 67.00848 45.7217 
L 67.5528 45.1097 
L 68.0712 44.4977 
L 68.56368 43.8857 
L 69.03024 43.2737 
L 69.47088 42.6617 
L 69.8856 42.0497 
L 70.2744 41.4377 
L 70.63728 40.8257 
L 70.97424 40.2137 
L 71.28528 39.6017 
L 71.5704 38.9897 
L 71.8296 38.3777 
L 72.06288 37.7657 
L 72.27024 37.1537 
L 72.45168 36.5417 
L 72.6072 35.9297 
L 72.7368 35.3177 
L 72.84048 34.7057 
L 72.91824 34.0937 
L 72.97008 33.4817 
L 72.996 32.8697 
L 72.996 32.2577 
L 72.97008 31.6457 
L 72.91824 31.0337 
L 72.84048 30.4217 
L 72.7368 29.8097 
L 72.6072 29.1977 
L 72.45168 28.5857 
L 72.27024 27.9737 
L 72.06288 27.3617 
L 71.8296 26.7497 
L 71.5704 26.1377 
L 71.28528 25.5257 
L 70.97424 24.9137 
L 70.63728 24.3017 
L 70.2744 23.6897 
L 69.8856 23.0777 
L 69.47088 22.4657 
L 69.03024 21.8537 
L 68.56368 21.2417 
L 68.0712 20.6297 
L 67.5528 20.0177 
L 67.00848 19.4057 
L 66.43824 18.7937 
L 65.84208 18.1817 
L 65.22 17.5697 
" style="fill:none;stroke:#000000;stroke-linecap:round;stroke-width:1.5;"/>
   </g>
   <g id="line2d_5">
    <path clip-path="url(#pd87da230ac)" d="M 70.08 47.5577 
L 70.70208 46.9457 
L 71.29824 46.3337 
L 71.86848 45.7217 
L 72.4128 45.1097 
L 72.9312 44.4977 
L 73.42368 43.8857 
L 73.89024 43.2737 
L 74.33088 42.6617 
L 74.7456 42.0497 
L 75.1344 41.4377 
L 75.49728 40.8257 
L 75.83424 40.2137 
L 76.14528 39.6017 
L 76.4304 38.9897 
L 76.6896 38.3777 
L 76.92288 37.7657 
L 77.13024 37.1537 
L 77.31168 36.5417 
L 77.4672 35.9297 
L 77.5968 35.3177 
L 77.70048 34.7057 
L 77.77824 34.0937 
L 77.83008 33.4817 
L 77.856 32.8697 
L 77.856 32.2577 
L 77.83008 31.6457 
L 77.77824 31.0337 
L 77.70048 30.4217 
L 77.5968 29.8097 
L 77.4672 29.1977 
L 77.31168 28.5857 
L 77.13024 27.9737 
L 76.92288 27.3617 
L 76.6896 26.7497 
L 76.4304 26.1377 
L 76.14528 25.5257 
L 75.83424 24.9137 
L 75.49728 24.3017 
L 75.1344 23.6897 
L 74.7456 23.0777 
L 74.33088 22.4657 
L 73.89024 21.8537 
L 73.42368 21.2417 
L 72.9312 20.6297 
L 72.4128 20.0177 
L 71.86848 19.4057 
L 71.29824 18.7937 
L 70.70208 18.1817 
L 70.08 17.5697 
" style="fill:none;stroke:#000000;stroke-linecap:round;stroke-width:1.5;"/>
   </g>
   <g id="line2d_6">
    <path clip-path="url(#pd87da230ac)" d="M 53.88 40.2137 
L 70.97424 40.2137 
" style="fill:none;stroke:#000000;stroke-linecap:round;stroke-width:1.5;"/>
   </g>
   <g id="line2d_7">
    <path clip-path="url(#pd87da230ac)" d="M 53.88 24.9137 
L 70.97424 24.9137 
" style="fill:none;stroke:#000000;stroke-linecap:round;stroke-width:1.5;"/>
   </g>
   <g id="line2d_8">
    <path clip-path="url(#pd87da230ac)" d="M 53.88 24.9137 
" style="fill:none;stroke:#000000;stroke-linecap:round;stroke-width:1.5;"/>
   </g>
   <g id="line2d_9">
    <path clip-path="url(#pd87da230ac)" d="M 53.88 24.9137 
L 37.68 24.9137 
L 21.48 24.9137 
" style="fill:none;stroke:#000000;stroke-linecap:round;stroke-width:1.5;"/>
   </g>
   <g id="line2d_10">
    <path clip-path="url(#pd87da230ac)" d="M 53.88 40.2137 
L 45.78 40.2137 
L 37.68 40.2137 
" style="fill:none;stroke:#000000;stroke-linecap:round;stroke-width:1.5;"/>
   </g>
   <g id="line2d_11">
    <path clip-path="url(#pd87da230ac)" d="M 37.68 40.2137 
" style="fill:none;stroke:#000000;stroke-linecap:round;stroke-width:1.5;"/>
   </g>
   <g id="line2d_12">
    <path clip-path="url(#pd87da230ac)" d="M 37.68 40.2137 
L 29.58 40.2137 
L 21.48 40.2137 
" style="fill:none;stroke:#000000;stroke-linecap:round;stroke-width:1.5;"/>
   </g>
   <g id="line2d_13">
    <path clip-path="url(#pd87da230ac)" d="M 53.88 24.9137 
L 53.88 47.8637 
L 53.88 70.8137 
" style="fill:none;stroke:#000000;stroke-linecap:round;stroke-width:1.5;"/>
   </g>
   <g id="line2d_14">
    <path clip-path="url(#pd87da230ac)" d="M 53.88 78.4637 
M 102.48 78.4637 
L 113.82 78.4637 
" style="fill:none;stroke:#000000;stroke-linecap:round;stroke-width:1.5;"/>
   </g>
   <g id="line2d_15">
    <path clip-path="url(#pd87da230ac)" d="M 65.22 78.4637 
L 65.22 93.7637 
L 86.28 93.7637 
" style="fill:none;stroke:#000000;stroke-linecap:round;stroke-width:1.5;"/>
   </g>
   <g id="line2d_16">
    <path clip-path="url(#pd87da230ac)" d="M 65.22 78.4637 
L 65.22 63.1637 
L 86.28 63.1637 
" style="fill:none;stroke:#000000;stroke-linecap:round;stroke-width:1.5;"/>
   </g>
   <g id="line2d_17">
    <path clip-path="url(#pd87da230ac)" d="M 53.88 86.1137 
L 65.22 86.1137 
" style="fill:none;stroke:#000000;stroke-linecap:round;stroke-width:1.5;"/>
   </g>
   <g id="line2d_18">
    <path clip-path="url(#pd87da230ac)" d="M 53.88 70.8137 
L 65.22 70.8137 
" style="fill:none;stroke:#000000;stroke-linecap:round;stroke-width:1.5;"/>
   </g>
   <g id="line2d_19">
    <path clip-path="url(#pd87da230ac)" d="M 37.68 40.2137 
L 37.68 63.1637 
L 37.68 86.1137 
" style="fill:none;stroke:#000000;stroke-linecap:round;stroke-width:1.5;"/>
   </g>
   <g id="line2d_20">
    <path clip-path="url(#pd87da230ac)" d="M 37.68 86.1137 
L 45.78 86.1137 
L 53.88 86.1137 
" style="fill:none;stroke:#000000;stroke-linecap:round;stroke-width:1.5;"/>
   </g>
   <g id="patch_3">
    <path clip-path="url(#pd87da230ac)" d="M 53.88 27.2087 
C 54.524444 27.2087 55.142579 26.966884 55.598269 26.53651 
C 56.05396 26.106136 56.31 25.522341 56.31 24.9137 
C 56.31 24.305059 56.05396 23.721264 55.598269 23.29089 
C 55.142579 22.860516 54.524444 22.6187 53.88 22.6187 
C 53.235556 22.6187 52.617421 22.860516 52.161731 23.29089 
C 51.70604 23.721264 51.45 24.305059 51.45 24.9137 
C 51.45 25.522341 51.70604 26.106136 52.161731 26.53651 
C 52.617421 26.966884 53.235556 27.2087 53.88 27.2087 
z
" style="stroke:#000000;stroke-linejoin:miter;stroke-width:1.5;"/>
   </g>
   <g id="patch_4">
    <path clip-path="url(#pd87da230ac)" d="M 37.68 42.5087 
C 38.324444 42.5087 38.942579 42.266884 39.398269 41.83651 
C 39.85396 41.406136 40.11 40.822341 40.11 40.2137 
C 40.11 39.605059 39.85396 39.021264 39.398269 38.59089 
C 38.942579 38.160516 38.324444 37.9187 37.68 37.9187 
C 37.035556 37.9187 36.417421 38.160516 35.961731 38.59089 
C 35.50604 39.021264 35.25 39.605059 35.25 40.2137 
C 35.25 40.822341 35.50604 41.406136 35.961731 41.83651 
C 36.417421 42.266884 37.035556 42.5087 37.68 42.5087 
z
" style="stroke:#000000;stroke-linejoin:miter;stroke-width:1.5;"/>
   </g>
   <g id="text_1">
    <!-- $S$ -->
    <defs>
     <path d="M 53.515625 70.515625 
L 53.515625 60.890625 
Q 47.90625 63.578125 42.921875 64.890625 
Q 37.9375 66.21875 33.296875 66.21875 
Q 25.25 66.21875 20.875 63.09375 
Q 16.5 59.96875 16.5 54.203125 
Q 16.5 49.359375 19.40625 46.890625 
Q 22.3125 44.4375 30.421875 42.921875 
L 36.375 41.703125 
Q 47.40625 39.59375 52.65625 34.296875 
Q 57.90625 29 57.90625 20.125 
Q 57.90625 9.515625 50.796875 4.046875 
Q 43.703125 -1.421875 29.984375 -1.421875 
Q 24.8125 -1.421875 18.96875 -0.25 
Q 13.140625 0.921875 6.890625 3.21875 
L 6.890625 13.375 
Q 12.890625 10.015625 18.65625 8.296875 
Q 24.421875 6.59375 29.984375 6.59375 
Q 38.421875 6.59375 43.015625 9.90625 
Q 47.609375 13.234375 47.609375 19.390625 
Q 47.609375 24.75 44.3125 27.78125 
Q 41.015625 30.8125 33.5 32.328125 
L 27.484375 33.5 
Q 16.453125 35.6875 11.515625 40.375 
Q 6.59375 45.0625 6.59375 53.421875 
Q 6.59375 63.09375 13.40625 68.65625 
Q 20.21875 74.21875 32.171875 74.21875 
Q 37.3125 74.21875 42.625 73.28125 
Q 47.953125 72.359375 53.515625 70.515625 
z
" id="DejaVuSans-53"/>
    </defs>
    <g transform="translate(123.54 36.9787)scale(0.16 -0.16)">
     <use transform="translate(0 0.78125)" xlink:href="#DejaVuSans-53"/>
    </g>
   </g>
   <g id="text_2">
    <!-- $A$ -->
    <defs>
     <path d="M 34.1875 63.1875 
L 20.796875 26.90625 
L 47.609375 26.90625 
z
M 28.609375 72.90625 
L 39.796875 72.90625 
L 67.578125 0 
L 57.328125 0 
L 50.6875 18.703125 
L 17.828125 18.703125 
L 11.1875 0 
L 0.78125 0 
z
" id="DejaVuSans-41"/>
    </defs>
    <g transform="translate(7.2 29.3287)scale(0.16 -0.16)">
     <use transform="translate(0 0.09375)" xlink:href="#DejaVuSans-41"/>
    </g>
   </g>
   <g id="text_3">
    <!-- $B$ -->
    <defs>
     <path d="M 19.671875 34.8125 
L 19.671875 8.109375 
L 35.5 8.109375 
Q 43.453125 8.109375 47.28125 11.40625 
Q 51.125 14.703125 51.125 21.484375 
Q 51.125 28.328125 47.28125 31.5625 
Q 43.453125 34.8125 35.5 34.8125 
z
M 19.671875 64.796875 
L 19.671875 42.828125 
L 34.28125 42.828125 
Q 41.5 42.828125 45.03125 45.53125 
Q 48.578125 48.25 48.578125 53.8125 
Q 48.578125 59.328125 45.03125 62.0625 
Q 41.5 64.796875 34.28125 64.796875 
z
M 9.8125 72.90625 
L 35.015625 72.90625 
Q 46.296875 72.90625 52.390625 68.21875 
Q 58.5 63.53125 58.5 54.890625 
Q 58.5 48.1875 55.375 44.234375 
Q 52.25 40.28125 46.1875 39.3125 
Q 53.46875 37.75 57.5 32.78125 
Q 61.53125 27.828125 61.53125 20.40625 
Q 61.53125 10.640625 54.890625 5.3125 
Q 48.25 0 35.984375 0 
L 9.8125 0 
z
" id="DejaVuSans-42"/>
    </defs>
    <g transform="translate(7.2 44.6287)scale(0.16 -0.16)">
     <use transform="translate(0 0.09375)" xlink:href="#DejaVuSans-42"/>
    </g>
   </g>
   <g id="text_4">
    <!-- $C$ -->
    <defs>
     <path d="M 64.40625 67.28125 
L 64.40625 56.890625 
Q 59.421875 61.53125 53.78125 63.8125 
Q 48.140625 66.109375 41.796875 66.109375 
Q 29.296875 66.109375 22.65625 58.46875 
Q 16.015625 50.828125 16.015625 36.375 
Q 16.015625 21.96875 22.65625 14.328125 
Q 29.296875 6.6875 41.796875 6.6875 
Q 48.140625 6.6875 53.78125 8.984375 
Q 59.421875 11.28125 64.40625 15.921875 
L 64.40625 5.609375 
Q 59.234375 2.09375 53.4375 0.328125 
Q 47.65625 -1.421875 41.21875 -1.421875 
Q 24.65625 -1.421875 15.125 8.703125 
Q 5.609375 18.84375 5.609375 36.375 
Q 5.609375 53.953125 15.125 64.078125 
Q 24.65625 74.21875 41.21875 74.21875 
Q 47.75 74.21875 53.53125 72.484375 
Q 59.328125 70.75 64.40625 67.28125 
z
" id="DejaVuSans-43"/>
    </defs>
    <g transform="translate(121.92 82.8787)scale(0.16 -0.16)">
     <use transform="translate(0 0.78125)" xlink:href="#DejaVuSans-43"/>
    </g>
   </g>
  </g>
 </g>
 <defs>
  <clipPath id="pd87da230ac">
   <rect height="89.9334" width="115.182" x="13.299" y="10.7"/>
  </clipPath>
 </defs>
</svg>
