<?xml version="1.0" encoding="utf-8" standalone="no"?>
<!DOCTYPE svg PUBLIC "-//W3C//DTD SVG 1.1//EN"
  "http://www.w3.org/Graphics/SVG/1.1/DTD/svg11.dtd">
<!-- Created with matplotlib (http://matplotlib.org/) -->
<svg height="96pt" version="1.1" viewBox="0 0 140 96" width="140pt" xmlns="http://www.w3.org/2000/svg" xmlns:xlink="http://www.w3.org/1999/xlink">
 <defs>
  <style type="text/css">
*{stroke-linecap:butt;stroke-linejoin:round;stroke-miterlimit:100000;}
  </style>
 </defs>
 <g id="figure_1">
  <g id="patch_1">
   <path d="M 0 96.714 
L 140.98 96.714 
L 140.98 0 
L 0 0 
z
" style="fill:none;"/>
  </g>
  <g id="axes_1">
   <g id="patch_2">
    <path clip-path="url(#p80ecdec60f)" d="M 86.28 86.454 
C 90.574859 86.454 94.698206 84.84094 97.73513 81.972734 
C 100.772054 79.104528 102.48 75.210256 102.48 71.154 
C 102.48 67.097744 100.772054 63.203472 97.73513 60.335266 
C 94.698206 57.46706 90.574859 55.854 86.28 55.854 
" style="fill:none;stroke:#000000;stroke-linejoin:miter;stroke-width:1.5;"/>
   </g>
   <g id="line2d_1">
    <path clip-path="url(#p80ecdec60f)" d="M 108.96 25.254 
L 120.3 25.254 
" style="fill:none;stroke:#000000;stroke-linecap:round;stroke-width:1.5;"/>
   </g>
   <g id="line2d_2">
    <path clip-path="url(#p80ecdec60f)" d="M 70.08 40.248 
L 86.28 40.248 
L 86.742857 40.241755 
L 87.205714 40.22302 
L 87.668571 40.191796 
L 88.131429 40.148082 
L 88.594286 40.091878 
L 89.057143 40.023184 
L 89.52 39.942 
L 89.982857 39.848327 
L 90.445714 39.742163 
L 90.908571 39.62351 
L 91.371429 39.492367 
L 91.834286 39.348735 
L 92.297143 39.192612 
L 92.76 39.024 
L 93.222857 38.842898 
L 93.685714 38.649306 
L 94.148571 38.443224 
L 94.611429 38.224653 
L 95.074286 37.993592 
L 95.537143 37.750041 
L 96 37.494 
L 96.462857 37.225469 
L 96.925714 36.944449 
L 97.388571 36.650939 
L 97.851429 36.344939 
L 98.314286 36.026449 
L 98.777143 35.695469 
L 99.24 35.352 
L 99.702857 34.996041 
L 100.165714 34.627592 
L 100.628571 34.246653 
L 101.091429 33.853224 
L 101.554286 33.447306 
L 102.017143 33.028898 
L 102.48 32.598 
L 102.942857 32.154612 
L 103.405714 31.698735 
L 103.868571 31.230367 
L 104.331429 30.74951 
L 104.794286 30.256163 
L 105.257143 29.750327 
L 105.72 29.232 
L 106.182857 28.701184 
L 106.645714 28.157878 
L 107.108571 27.602082 
L 107.571429 27.033796 
L 108.034286 26.45302 
L 108.497143 25.859755 
L 108.96 25.254 
" style="fill:none;stroke:#000000;stroke-linecap:round;stroke-width:1.5;"/>
   </g>
   <g id="line2d_3">
    <path clip-path="url(#p80ecdec60f)" d="M 70.08 10.26 
L 86.28 10.26 
L 86.742857 10.266245 
L 87.205714 10.28498 
L 87.668571 10.316204 
L 88.131429 10.359918 
L 88.594286 10.416122 
L 89.057143 10.484816 
L 89.52 10.566 
L 89.982857 10.659673 
L 90.445714 10.765837 
L 90.908571 10.88449 
L 91.371429 11.015633 
L 91.834286 11.159265 
L 92.297143 11.315388 
L 92.76 11.484 
L 93.222857 11.665102 
L 93.685714 11.858694 
L 94.148571 12.064776 
L 94.611429 12.283347 
L 95.074286 12.514408 
L 95.537143 12.757959 
L 96 13.014 
L 96.462857 13.282531 
L 96.925714 13.563551 
L 97.388571 13.857061 
L 97.851429 14.163061 
L 98.314286 14.481551 
L 98.777143 14.812531 
L 99.24 15.156 
L 99.702857 15.511959 
L 100.165714 15.880408 
L 100.628571 16.261347 
L 101.091429 16.654776 
L 101.554286 17.060694 
L 102.017143 17.479102 
L 102.48 17.91 
L 102.942857 18.353388 
L 103.405714 18.809265 
L 103.868571 19.277633 
L 104.331429 19.75849 
L 104.794286 20.251837 
L 105.257143 20.757673 
L 105.72 21.276 
L 106.182857 21.806816 
L 106.645714 22.350122 
L 107.108571 22.905918 
L 107.571429 23.474204 
L 108.034286 24.05498 
L 108.497143 24.648245 
L 108.96 25.254 
" style="fill:none;stroke:#000000;stroke-linecap:round;stroke-width:1.5;"/>
   </g>
   <g id="line2d_4">
    <path clip-path="url(#p80ecdec60f)" d="M 65.22 40.248 
L 65.84208 39.636 
L 66.43824 39.024 
L 67.00848 38.412 
L 67.5528 37.8 
L 68.0712 37.188 
L 68.56368 36.576 
L 69.03024 35.964 
L 69.47088 35.352 
L 69.8856 34.74 
L 70.2744 34.128 
L 70.63728 33.516 
L 70.97424 32.904 
L 71.28528 32.292 
L 71.5704 31.68 
L 71.8296 31.068 
L 72.06288 30.456 
L 72.27024 29.844 
L 72.45168 29.232 
L 72.6072 28.62 
L 72.7368 28.008 
L 72.84048 27.396 
L 72.91824 26.784 
L 72.97008 26.172 
L 72.996 25.56 
L 72.996 24.948 
L 72.97008 24.336 
L 72.91824 23.724 
L 72.84048 23.112 
L 72.7368 22.5 
L 72.6072 21.888 
L 72.45168 21.276 
L 72.27024 20.664 
L 72.06288 20.052 
L 71.8296 19.44 
L 71.5704 18.828 
L 71.28528 18.216 
L 70.97424 17.604 
L 70.63728 16.992 
L 70.2744 16.38 
L 69.8856 15.768 
L 69.47088 15.156 
L 69.03024 14.544 
L 68.56368 13.932 
L 68.0712 13.32 
L 67.5528 12.708 
L 67.00848 12.096 
L 66.43824 11.484 
L 65.84208 10.872 
L 65.22 10.26 
" style="fill:none;stroke:#000000;stroke-linecap:round;stroke-width:1.5;"/>
   </g>
   <g id="line2d_5">
    <path clip-path="url(#p80ecdec60f)" d="M 70.08 40.248 
L 70.70208 39.636 
L 71.29824 39.024 
L 71.86848 38.412 
L 72.4128 37.8 
L 72.9312 37.188 
L 73.42368 36.576 
L 73.89024 35.964 
L 74.33088 35.352 
L 74.7456 34.74 
L 75.1344 34.128 
L 75.49728 33.516 
L 75.83424 32.904 
L 76.14528 32.292 
L 76.4304 31.68 
L 76.6896 31.068 
L 76.92288 30.456 
L 77.13024 29.844 
L 77.31168 29.232 
L 77.4672 28.62 
L 77.5968 28.008 
L 77.70048 27.396 
L 77.77824 26.784 
L 77.83008 26.172 
L 77.856 25.56 
L 77.856 24.948 
L 77.83008 24.336 
L 77.77824 23.724 
L 77.70048 23.112 
L 77.5968 22.5 
L 77.4672 21.888 
L 77.31168 21.276 
L 77.13024 20.664 
L 76.92288 20.052 
L 76.6896 19.44 
L 76.4304 18.828 
L 76.14528 18.216 
L 75.83424 17.604 
L 75.49728 16.992 
L 75.1344 16.38 
L 74.7456 15.768 
L 74.33088 15.156 
L 73.89024 14.544 
L 73.42368 13.932 
L 72.9312 13.32 
L 72.4128 12.708 
L 71.86848 12.096 
L 71.29824 11.484 
L 70.70208 10.872 
L 70.08 10.26 
" style="fill:none;stroke:#000000;stroke-linecap:round;stroke-width:1.5;"/>
   </g>
   <g id="line2d_6">
    <path clip-path="url(#p80ecdec60f)" d="M 53.88 32.904 
L 70.97424 32.904 
" style="fill:none;stroke:#000000;stroke-linecap:round;stroke-width:1.5;"/>
   </g>
   <g id="line2d_7">
    <path clip-path="url(#p80ecdec60f)" d="M 53.88 17.604 
L 70.97424 17.604 
" style="fill:none;stroke:#000000;stroke-linecap:round;stroke-width:1.5;"/>
   </g>
   <g id="line2d_8">
    <path clip-path="url(#p80ecdec60f)" d="M 53.88 17.604 
" style="fill:none;stroke:#000000;stroke-linecap:round;stroke-width:1.5;"/>
   </g>
   <g id="line2d_9">
    <path clip-path="url(#p80ecdec60f)" d="M 53.88 17.604 
L 37.68 17.604 
L 21.48 17.604 
" style="fill:none;stroke:#000000;stroke-linecap:round;stroke-width:1.5;"/>
   </g>
   <g id="line2d_10">
    <path clip-path="url(#p80ecdec60f)" d="M 53.88 32.904 
L 45.78 32.904 
L 37.68 32.904 
" style="fill:none;stroke:#000000;stroke-linecap:round;stroke-width:1.5;"/>
   </g>
   <g id="line2d_11">
    <path clip-path="url(#p80ecdec60f)" d="M 37.68 32.904 
" style="fill:none;stroke:#000000;stroke-linecap:round;stroke-width:1.5;"/>
   </g>
   <g id="line2d_12">
    <path clip-path="url(#p80ecdec60f)" d="M 37.68 32.904 
L 29.58 32.904 
L 21.48 32.904 
" style="fill:none;stroke:#000000;stroke-linecap:round;stroke-width:1.5;"/>
   </g>
   <g id="line2d_13">
    <path clip-path="url(#p80ecdec60f)" d="M 53.88 17.604 
L 53.88 40.554 
L 53.88 63.504 
" style="fill:none;stroke:#000000;stroke-linecap:round;stroke-width:1.5;"/>
   </g>
   <g id="line2d_14">
    <path clip-path="url(#p80ecdec60f)" d="M 102.48 71.154 
L 113.82 71.154 
" style="fill:none;stroke:#000000;stroke-linecap:round;stroke-width:1.5;"/>
   </g>
   <g id="line2d_15">
    <path clip-path="url(#p80ecdec60f)" d="M 65.22 71.154 
L 65.22 86.454 
L 86.28 86.454 
" style="fill:none;stroke:#000000;stroke-linecap:round;stroke-width:1.5;"/>
   </g>
   <g id="line2d_16">
    <path clip-path="url(#p80ecdec60f)" d="M 65.22 71.154 
L 65.22 55.854 
L 86.28 55.854 
" style="fill:none;stroke:#000000;stroke-linecap:round;stroke-width:1.5;"/>
   </g>
   <g id="line2d_17">
    <path clip-path="url(#p80ecdec60f)" d="M 53.88 78.804 
L 65.22 78.804 
" style="fill:none;stroke:#000000;stroke-linecap:round;stroke-width:1.5;"/>
   </g>
   <g id="line2d_18">
    <path clip-path="url(#p80ecdec60f)" d="M 53.88 63.504 
L 65.22 63.504 
" style="fill:none;stroke:#000000;stroke-linecap:round;stroke-width:1.5;"/>
   </g>
   <g id="line2d_19">
    <path clip-path="url(#p80ecdec60f)" d="M 37.68 32.904 
L 37.68 55.854 
L 37.68 78.804 
" style="fill:none;stroke:#000000;stroke-linecap:round;stroke-width:1.5;"/>
   </g>
   <g id="line2d_20">
    <path clip-path="url(#p80ecdec60f)" d="M 37.68 78.804 
L 45.78 78.804 
L 53.88 78.804 
" style="fill:none;stroke:#000000;stroke-linecap:round;stroke-width:1.5;"/>
   </g>
   <g id="patch_3">
    <path clip-path="url(#p80ecdec60f)" d="M 53.88 19.899 
C 54.524444 19.899 55.142579 19.657184 55.598269 19.22681 
C 56.05396 18.796436 56.31 18.212641 56.31 17.604 
C 56.31 16.995359 56.05396 16.411564 55.598269 15.98119 
C 55.142579 15.550816 54.524444 15.309 53.88 15.309 
C 53.235556 15.309 52.617421 15.550816 52.161731 15.98119 
C 51.70604 16.411564 51.45 16.995359 51.45 17.604 
C 51.45 18.212641 51.70604 18.796436 52.161731 19.22681 
C 52.617421 19.657184 53.235556 19.899 53.88 19.899 
z
" style="stroke:#000000;stroke-linejoin:miter;stroke-width:1.5;"/>
   </g>
   <g id="patch_4">
    <path clip-path="url(#p80ecdec60f)" d="M 37.68 35.199 
C 38.324444 35.199 38.942579 34.957184 39.398269 34.52681 
C 39.85396 34.096436 40.11 33.512641 40.11 32.904 
C 40.11 32.295359 39.85396 31.711564 39.398269 31.28119 
C 38.942579 30.850816 38.324444 30.609 37.68 30.609 
C 37.035556 30.609 36.417421 30.850816 35.961731 31.28119 
C 35.50604 31.711564 35.25 32.295359 35.25 32.904 
C 35.25 33.512641 35.50604 34.096436 35.961731 34.52681 
C 36.417421 34.957184 37.035556 35.199 37.68 35.199 
z
" style="stroke:#000000;stroke-linejoin:miter;stroke-width:1.5;"/>
   </g>
   <g id="text_1">
    <!-- $S$ -->
    <defs>
     <path d="M 53.515625 70.515625 
L 53.515625 60.890625 
Q 47.90625 63.578125 42.921875 64.890625 
Q 37.9375 66.21875 33.296875 66.21875 
Q 25.25 66.21875 20.875 63.09375 
Q 16.5 59.96875 16.5 54.203125 
Q 16.5 49.359375 19.40625 46.890625 
Q 22.3125 44.4375 30.421875 42.921875 
L 36.375 41.703125 
Q 47.40625 39.59375 52.65625 34.296875 
Q 57.90625 29 57.90625 20.125 
Q 57.90625 9.515625 50.796875 4.046875 
Q 43.703125 -1.421875 29.984375 -1.421875 
Q 24.8125 -1.421875 18.96875 -0.25 
Q 13.140625 0.921875 6.890625 3.21875 
L 6.890625 13.375 
Q 12.890625 10.015625 18.65625 8.296875 
Q 24.421875 6.59375 29.984375 6.59375 
Q 38.421875 6.59375 43.015625 9.90625 
Q 47.609375 13.234375 47.609375 19.390625 
Q 47.609375 24.75 44.3125 27.78125 
Q 41.015625 30.8125 33.5 32.328125 
L 27.484375 33.5 
Q 16.453125 35.6875 11.515625 40.375 
Q 6.59375 45.0625 6.59375 53.421875 
Q 6.59375 63.09375 13.40625 68.65625 
Q 20.21875 74.21875 32.171875 74.21875 
Q 37.3125 74.21875 42.625 73.28125 
Q 47.953125 72.359375 53.515625 70.515625 
" id="BitstreamVeraSans-Roman-53"/>
    </defs>
    <g transform="translate(123.54 29.669)scale(0.16 -0.16)">
     <use transform="translate(0.0 0.78125)" xlink:href="#BitstreamVeraSans-Roman-53"/>
    </g>
   </g>
   <g id="text_2">
    <!-- $A$ -->
    <defs>
     <path d="M 34.1875 63.1875 
L 20.796875 26.90625 
L 47.609375 26.90625 
z
M 28.609375 72.90625 
L 39.796875 72.90625 
L 67.578125 0 
L 57.328125 0 
L 50.6875 18.703125 
L 17.828125 18.703125 
L 11.1875 0 
L 0.78125 0 
z
" id="BitstreamVeraSans-Roman-41"/>
    </defs>
    <g transform="translate(7.2 22.019)scale(0.16 -0.16)">
     <use transform="translate(0.0 0.09375)" xlink:href="#BitstreamVeraSans-Roman-41"/>
    </g>
   </g>
   <g id="text_3">
    <!-- $B$ -->
    <defs>
     <path d="M 19.671875 34.8125 
L 19.671875 8.109375 
L 35.5 8.109375 
Q 43.453125 8.109375 47.28125 11.40625 
Q 51.125 14.703125 51.125 21.484375 
Q 51.125 28.328125 47.28125 31.5625 
Q 43.453125 34.8125 35.5 34.8125 
z
M 19.671875 64.796875 
L 19.671875 42.828125 
L 34.28125 42.828125 
Q 41.5 42.828125 45.03125 45.53125 
Q 48.578125 48.25 48.578125 53.8125 
Q 48.578125 59.328125 45.03125 62.0625 
Q 41.5 64.796875 34.28125 64.796875 
z
M 9.8125 72.90625 
L 35.015625 72.90625 
Q 46.296875 72.90625 52.390625 68.21875 
Q 58.5 63.53125 58.5 54.890625 
Q 58.5 48.1875 55.375 44.234375 
Q 52.25 40.28125 46.1875 39.3125 
Q 53.46875 37.75 57.5 32.78125 
Q 61.53125 27.828125 61.53125 20.40625 
Q 61.53125 10.640625 54.890625 5.3125 
Q 48.25 0 35.984375 0 
L 9.8125 0 
z
" id="BitstreamVeraSans-Roman-42"/>
    </defs>
    <g transform="translate(7.2 37.319)scale(0.16 -0.16)">
     <use transform="translate(0.0 0.09375)" xlink:href="#BitstreamVeraSans-Roman-42"/>
    </g>
   </g>
   <g id="text_4">
    <!-- $C$ -->
    <defs>
     <path d="M 64.40625 67.28125 
L 64.40625 56.890625 
Q 59.421875 61.53125 53.78125 63.8125 
Q 48.140625 66.109375 41.796875 66.109375 
Q 29.296875 66.109375 22.65625 58.46875 
Q 16.015625 50.828125 16.015625 36.375 
Q 16.015625 21.96875 22.65625 14.328125 
Q 29.296875 6.6875 41.796875 6.6875 
Q 48.140625 6.6875 53.78125 8.984375 
Q 59.421875 11.28125 64.40625 15.921875 
L 64.40625 5.609375 
Q 59.234375 2.09375 53.4375 0.328125 
Q 47.65625 -1.421875 41.21875 -1.421875 
Q 24.65625 -1.421875 15.125 8.703125 
Q 5.609375 18.84375 5.609375 36.375 
Q 5.609375 53.953125 15.125 64.078125 
Q 24.65625 74.21875 41.21875 74.21875 
Q 47.75 74.21875 53.53125 72.484375 
Q 59.328125 70.75 64.40625 67.28125 
" id="BitstreamVeraSans-Roman-43"/>
    </defs>
    <g transform="translate(121.92 75.569)scale(0.16 -0.16)">
     <use transform="translate(0.0 0.78125)" xlink:href="#BitstreamVeraSans-Roman-43"/>
    </g>
   </g>
  </g>
 </g>
 <defs>
  <clipPath id="p80ecdec60f">
   <rect height="82.314" width="105.3" x="18.24" y="7.2"/>
  </clipPath>
 </defs>
</svg>
