<?xml version="1.0" encoding="utf-8" standalone="no"?>
<!DOCTYPE svg PUBLIC "-//W3C//DTD SVG 1.1//EN"
  "http://www.w3.org/Graphics/SVG/1.1/DTD/svg11.dtd">
<!-- Created with matplotlib (https://matplotlib.org/) -->
<svg height="96.3981pt" version="1.1" viewBox="0 0 140.98 96.3981" width="140.98pt" xmlns="http://www.w3.org/2000/svg" xmlns:xlink="http://www.w3.org/1999/xlink">
 <defs>
  <style type="text/css">
*{stroke-linecap:butt;stroke-linejoin:round;}
  </style>
 </defs>
 <g id="figure_1">
  <g id="patch_1">
   <path d="M -0 96.3981 
L 140.98 96.3981 
L 140.98 0 
L -0 0 
z
" style="fill:none;"/>
  </g>
  <g id="axes_1">
   <g id="patch_2">
    <path clip-path="url(#pbf3d6b2752)" d="M 53.88 22.25205 
C 54.524444 22.25205 55.142579 22.031571 55.598269 21.639171 
C 56.05396 21.246771 56.31 20.714487 56.31 20.15955 
C 56.31 19.604613 56.05396 19.072329 55.598269 18.679929 
C 55.142579 18.287529 54.524444 18.06705 53.88 18.06705 
C 53.235556 18.06705 52.617421 18.287529 52.161731 18.679929 
C 51.70604 19.072329 51.45 19.604613 51.45 20.15955 
C 51.45 20.714487 51.70604 21.246771 52.161731 21.639171 
C 52.617421 22.031571 53.235556 22.25205 53.88 22.25205 
z
" style="stroke:#000000;stroke-linejoin:miter;stroke-width:1.5;"/>
   </g>
   <g id="patch_3">
    <path clip-path="url(#pbf3d6b2752)" d="M 37.68 36.20205 
C 38.324444 36.20205 38.942579 35.981571 39.398269 35.589171 
C 39.85396 35.196771 40.11 34.664487 40.11 34.10955 
C 40.11 33.554613 39.85396 33.022329 39.398269 32.629929 
C 38.942579 32.237529 38.324444 32.01705 37.68 32.01705 
C 37.035556 32.01705 36.417421 32.237529 35.961731 32.629929 
C 35.50604 33.022329 35.25 33.554613 35.25 34.10955 
C 35.25 34.664487 35.50604 35.196771 35.961731 35.589171 
C 36.417421 35.981571 37.035556 36.20205 37.68 36.20205 
z
" style="stroke:#000000;stroke-linejoin:miter;stroke-width:1.5;"/>
   </g>
   <g id="line2d_1">
    <path clip-path="url(#pbf3d6b2752)" d="M 53.88 27.13455 
M 108.96 27.13455 
L 120.3 27.13455 
" style="fill:none;stroke:#000000;stroke-linecap:round;stroke-width:1.5;"/>
   </g>
   <g id="line2d_2">
    <path clip-path="url(#pbf3d6b2752)" d="M 70.08 40.80555 
L 88.131429 40.714448 
L 89.982857 40.441142 
L 91.834286 39.985632 
L 94.148571 39.160019 
L 96.462857 38.049713 
L 98.777143 36.654713 
L 101.091429 34.975019 
L 103.405714 33.010632 
L 105.72 30.76155 
L 108.034286 28.227774 
L 108.96 27.13455 
L 108.96 27.13455 
L 106.182857 23.99153 
L 103.868571 21.685509 
L 101.554286 19.664183 
L 99.24 17.92755 
L 96.925714 16.475611 
L 94.611429 15.308366 
L 92.297143 14.425815 
L 89.982857 13.827958 
L 88.131429 13.554652 
L 86.28 13.46355 
L 70.08 13.46355 
L 70.08 13.46355 
L 72.4128 15.69555 
L 73.89024 17.36955 
L 75.1344 19.04355 
L 76.14528 20.71755 
L 76.92288 22.39155 
L 77.4672 24.06555 
L 77.77824 25.73955 
L 77.856 27.41355 
L 77.70048 29.08755 
L 77.31168 30.76155 
L 76.6896 32.43555 
L 75.83424 34.10955 
L 74.7456 35.78355 
L 73.42368 37.45755 
L 71.86848 39.13155 
L 70.08 40.80555 
L 70.08 40.80555 
" style="fill:none;stroke:#000000;stroke-linecap:round;stroke-width:1.5;"/>
   </g>
   <g id="line2d_3">
    <path clip-path="url(#pbf3d6b2752)" d="M 65.22 40.80555 
L 65.84208 40.24755 
L 66.43824 39.68955 
L 67.00848 39.13155 
L 67.5528 38.57355 
L 68.0712 38.01555 
L 68.56368 37.45755 
L 69.03024 36.89955 
L 69.47088 36.34155 
L 69.8856 35.78355 
L 70.2744 35.22555 
L 70.63728 34.66755 
L 70.97424 34.10955 
L 71.28528 33.55155 
L 71.5704 32.99355 
L 71.8296 32.43555 
L 72.06288 31.87755 
L 72.27024 31.31955 
L 72.45168 30.76155 
L 72.6072 30.20355 
L 72.7368 29.64555 
L 72.84048 29.08755 
L 72.91824 28.52955 
L 72.97008 27.97155 
L 72.996 27.41355 
L 72.996 26.85555 
L 72.97008 26.29755 
L 72.91824 25.73955 
L 72.84048 25.18155 
L 72.7368 24.62355 
L 72.6072 24.06555 
L 72.45168 23.50755 
L 72.27024 22.94955 
L 72.06288 22.39155 
L 71.8296 21.83355 
L 71.5704 21.27555 
L 71.28528 20.71755 
L 70.97424 20.15955 
L 70.63728 19.60155 
L 70.2744 19.04355 
L 69.8856 18.48555 
L 69.47088 17.92755 
L 69.03024 17.36955 
L 68.56368 16.81155 
L 68.0712 16.25355 
L 67.5528 15.69555 
L 67.00848 15.13755 
L 66.43824 14.57955 
L 65.84208 14.02155 
L 65.22 13.46355 
" style="fill:none;stroke:#000000;stroke-linecap:round;stroke-width:1.5;"/>
   </g>
   <g id="line2d_4">
    <path clip-path="url(#pbf3d6b2752)" d="M 53.88 34.10955 
L 70.97424 34.10955 
" style="fill:none;stroke:#000000;stroke-linecap:round;stroke-width:1.5;"/>
   </g>
   <g id="line2d_5">
    <path clip-path="url(#pbf3d6b2752)" d="M 53.88 20.15955 
L 70.97424 20.15955 
" style="fill:none;stroke:#000000;stroke-linecap:round;stroke-width:1.5;"/>
   </g>
   <g id="line2d_6">
    <path clip-path="url(#pbf3d6b2752)" d="M 53.88 20.15955 
" style="fill:none;stroke:#000000;stroke-linecap:round;stroke-width:1.5;"/>
   </g>
   <g id="line2d_7">
    <path clip-path="url(#pbf3d6b2752)" d="M 53.88 20.15955 
L 37.68 20.15955 
L 21.48 20.15955 
" style="fill:none;stroke:#000000;stroke-linecap:round;stroke-width:1.5;"/>
   </g>
   <g id="line2d_8">
    <path clip-path="url(#pbf3d6b2752)" d="M 53.88 34.10955 
L 45.78 34.10955 
L 37.68 34.10955 
" style="fill:none;stroke:#000000;stroke-linecap:round;stroke-width:1.5;"/>
   </g>
   <g id="line2d_9">
    <path clip-path="url(#pbf3d6b2752)" d="M 37.68 34.10955 
" style="fill:none;stroke:#000000;stroke-linecap:round;stroke-width:1.5;"/>
   </g>
   <g id="line2d_10">
    <path clip-path="url(#pbf3d6b2752)" d="M 37.68 34.10955 
L 29.58 34.10955 
L 21.48 34.10955 
" style="fill:none;stroke:#000000;stroke-linecap:round;stroke-width:1.5;"/>
   </g>
   <g id="line2d_11">
    <path clip-path="url(#pbf3d6b2752)" d="M 53.88 20.15955 
L 53.88 41.08455 
L 53.88 62.00955 
" style="fill:none;stroke:#000000;stroke-linecap:round;stroke-width:1.5;"/>
   </g>
   <g id="line2d_12">
    <path clip-path="url(#pbf3d6b2752)" d="M 53.88 68.98455 
M 102.48 68.98455 
L 113.82 68.98455 
" style="fill:none;stroke:#000000;stroke-linecap:round;stroke-width:1.5;"/>
   </g>
   <g id="line2d_13">
    <path clip-path="url(#pbf3d6b2752)" d="M 86.28 82.93455 
L 87.317938 82.905888 
L 88.35161 82.820021 
L 89.37677 82.6773 
L 90.389204 82.478313 
L 91.384753 82.223878 
L 92.359325 81.915039 
L 93.308917 81.553066 
L 94.229624 81.139446 
L 95.117665 80.675879 
L 95.969391 80.16427 
L 96.7813 79.606721 
L 97.550057 79.005523 
L 98.272504 78.363147 
L 98.94567 77.682233 
L 99.566791 76.965577 
L 100.133313 76.216126 
L 100.642909 75.436959 
L 101.093484 74.631278 
L 101.483188 73.802393 
L 101.810419 72.95371 
L 102.073832 72.088717 
L 102.272345 71.210969 
L 102.405142 70.324071 
L 102.471677 69.43167 
L 102.471677 68.53743 
L 102.405142 67.645029 
L 102.272345 66.758131 
L 102.073832 65.880383 
L 101.810419 65.01539 
L 101.483188 64.166707 
L 101.093484 63.337822 
L 100.642909 62.532141 
L 100.133313 61.752974 
L 99.566791 61.003523 
L 98.94567 60.286867 
L 98.272504 59.605953 
L 97.550057 58.963577 
L 96.7813 58.362379 
L 95.969391 57.80483 
L 95.117665 57.293221 
L 94.229624 56.829654 
L 93.308917 56.416034 
L 92.359325 56.054061 
L 91.384753 55.745222 
L 90.389204 55.490787 
L 89.37677 55.2918 
L 88.35161 55.149079 
L 87.317938 55.063212 
L 86.28 55.03455 
L 65.22 55.03455 
L 65.22 68.98455 
L 65.22 82.93455 
L 86.28 82.93455 
" style="fill:none;stroke:#000000;stroke-linecap:round;stroke-width:1.5;"/>
   </g>
   <g id="line2d_14">
    <path clip-path="url(#pbf3d6b2752)" d="M 53.88 75.95955 
L 65.22 75.95955 
" style="fill:none;stroke:#000000;stroke-linecap:round;stroke-width:1.5;"/>
   </g>
   <g id="line2d_15">
    <path clip-path="url(#pbf3d6b2752)" d="M 53.88 62.00955 
L 65.22 62.00955 
" style="fill:none;stroke:#000000;stroke-linecap:round;stroke-width:1.5;"/>
   </g>
   <g id="line2d_16">
    <path clip-path="url(#pbf3d6b2752)" d="M 37.68 34.10955 
L 37.68 55.03455 
L 37.68 75.95955 
" style="fill:none;stroke:#000000;stroke-linecap:round;stroke-width:1.5;"/>
   </g>
   <g id="line2d_17">
    <path clip-path="url(#pbf3d6b2752)" d="M 37.68 75.95955 
L 45.78 75.95955 
L 53.88 75.95955 
" style="fill:none;stroke:#000000;stroke-linecap:round;stroke-width:1.5;"/>
   </g>
   <g id="text_1">
    <!-- $S$ -->
    <defs>
     <path d="M 53.515625 70.515625 
L 53.515625 60.890625 
Q 47.90625 63.578125 42.921875 64.890625 
Q 37.9375 66.21875 33.296875 66.21875 
Q 25.25 66.21875 20.875 63.09375 
Q 16.5 59.96875 16.5 54.203125 
Q 16.5 49.359375 19.40625 46.890625 
Q 22.3125 44.4375 30.421875 42.921875 
L 36.375 41.703125 
Q 47.40625 39.59375 52.65625 34.296875 
Q 57.90625 29 57.90625 20.125 
Q 57.90625 9.515625 50.796875 4.046875 
Q 43.703125 -1.421875 29.984375 -1.421875 
Q 24.8125 -1.421875 18.96875 -0.25 
Q 13.140625 0.921875 6.890625 3.21875 
L 6.890625 13.375 
Q 12.890625 10.015625 18.65625 8.296875 
Q 24.421875 6.59375 29.984375 6.59375 
Q 38.421875 6.59375 43.015625 9.90625 
Q 47.609375 13.234375 47.609375 19.390625 
Q 47.609375 24.75 44.3125 27.78125 
Q 41.015625 30.8125 33.5 32.328125 
L 27.484375 33.5 
Q 16.453125 35.6875 11.515625 40.375 
Q 6.59375 45.0625 6.59375 53.421875 
Q 6.59375 63.09375 13.40625 68.65625 
Q 20.21875 74.21875 32.171875 74.21875 
Q 37.3125 74.21875 42.625 73.28125 
Q 47.953125 72.359375 53.515625 70.515625 
z
" id="DejaVuSans-83"/>
    </defs>
    <g transform="translate(123.54 31.54955)scale(0.16 -0.16)">
     <use transform="translate(0 0.78125)" xlink:href="#DejaVuSans-83"/>
    </g>
   </g>
   <g id="text_2">
    <!-- $A$ -->
    <defs>
     <path d="M 34.1875 63.1875 
L 20.796875 26.90625 
L 47.609375 26.90625 
z
M 28.609375 72.90625 
L 39.796875 72.90625 
L 67.578125 0 
L 57.328125 0 
L 50.6875 18.703125 
L 17.828125 18.703125 
L 11.1875 0 
L 0.78125 0 
z
" id="DejaVuSans-65"/>
    </defs>
    <g transform="translate(7.2 24.57455)scale(0.16 -0.16)">
     <use transform="translate(0 0.09375)" xlink:href="#DejaVuSans-65"/>
    </g>
   </g>
   <g id="text_3">
    <!-- $B$ -->
    <defs>
     <path d="M 19.671875 34.8125 
L 19.671875 8.109375 
L 35.5 8.109375 
Q 43.453125 8.109375 47.28125 11.40625 
Q 51.125 14.703125 51.125 21.484375 
Q 51.125 28.328125 47.28125 31.5625 
Q 43.453125 34.8125 35.5 34.8125 
z
M 19.671875 64.796875 
L 19.671875 42.828125 
L 34.28125 42.828125 
Q 41.5 42.828125 45.03125 45.53125 
Q 48.578125 48.25 48.578125 53.8125 
Q 48.578125 59.328125 45.03125 62.0625 
Q 41.5 64.796875 34.28125 64.796875 
z
M 9.8125 72.90625 
L 35.015625 72.90625 
Q 46.296875 72.90625 52.390625 68.21875 
Q 58.5 63.53125 58.5 54.890625 
Q 58.5 48.1875 55.375 44.234375 
Q 52.25 40.28125 46.1875 39.3125 
Q 53.46875 37.75 57.5 32.78125 
Q 61.53125 27.828125 61.53125 20.40625 
Q 61.53125 10.640625 54.890625 5.3125 
Q 48.25 0 35.984375 0 
L 9.8125 0 
z
" id="DejaVuSans-66"/>
    </defs>
    <g transform="translate(7.2 38.52455)scale(0.16 -0.16)">
     <use transform="translate(0 0.09375)" xlink:href="#DejaVuSans-66"/>
    </g>
   </g>
   <g id="text_4">
    <!-- $C$ -->
    <defs>
     <path d="M 64.40625 67.28125 
L 64.40625 56.890625 
Q 59.421875 61.53125 53.78125 63.8125 
Q 48.140625 66.109375 41.796875 66.109375 
Q 29.296875 66.109375 22.65625 58.46875 
Q 16.015625 50.828125 16.015625 36.375 
Q 16.015625 21.96875 22.65625 14.328125 
Q 29.296875 6.6875 41.796875 6.6875 
Q 48.140625 6.6875 53.78125 8.984375 
Q 59.421875 11.28125 64.40625 15.921875 
L 64.40625 5.609375 
Q 59.234375 2.09375 53.4375 0.328125 
Q 47.65625 -1.421875 41.21875 -1.421875 
Q 24.65625 -1.421875 15.125 8.703125 
Q 5.609375 18.84375 5.609375 36.375 
Q 5.609375 53.953125 15.125 64.078125 
Q 24.65625 74.21875 41.21875 74.21875 
Q 47.75 74.21875 53.53125 72.484375 
Q 59.328125 70.75 64.40625 67.28125 
z
" id="DejaVuSans-67"/>
    </defs>
    <g transform="translate(117.06 73.39955)scale(0.16 -0.16)">
     <use transform="translate(0 0.78125)" xlink:href="#DejaVuSans-67"/>
    </g>
   </g>
  </g>
 </g>
 <defs>
  <clipPath id="pbf3d6b2752">
   <rect height="81.9981" width="115.182" x="13.299" y="7.2"/>
  </clipPath>
 </defs>
</svg>
