<?xml version="1.0" encoding="utf-8" standalone="no"?>
<!DOCTYPE svg PUBLIC "-//W3C//DTD SVG 1.1//EN"
  "http://www.w3.org/Graphics/SVG/1.1/DTD/svg11.dtd">
<!-- Created with matplotlib (http://matplotlib.org/) -->
<svg height="175pt" version="1.1" viewBox="0 0 269 175" width="269pt" xmlns="http://www.w3.org/2000/svg" xmlns:xlink="http://www.w3.org/1999/xlink">
 <defs>
  <style type="text/css">
*{stroke-linecap:butt;stroke-linejoin:round;}
  </style>
 </defs>
 <g id="figure_1">
  <g id="patch_1">
   <path d="M 0 175.7362 
L 269.248058 175.7362 
L 269.248058 0 
L 0 0 
z
" style="fill:none;"/>
  </g>
  <g id="axes_1">
   <g id="line2d_1">
    <path clip-path="url(#pa4e704f22c)" d="M 156.168507 120.605 
L 156.168507 114.485 
" style="fill:none;stroke:#000000;stroke-linecap:round;stroke-width:1.5;"/>
   </g>
   <g id="line2d_2">
    <path clip-path="url(#pa4e704f22c)" d="M 147.4 98.42 
L 147.4 60.17 
L 217.548058 98.42 
L 147.4 136.67 
L 147.4 98.42 
M 217.548058 98.42 
" style="fill:none;stroke:#000000;stroke-linecap:round;stroke-width:1.5;"/>
   </g>
   <g id="line2d_3">
    <path clip-path="url(#pa4e704f22c)" d="M 152.928507 79.295 
L 159.408507 79.295 
" style="fill:none;stroke:#000000;stroke-linecap:round;stroke-width:1.5;"/>
   </g>
   <g id="line2d_4">
    <path clip-path="url(#pa4e704f22c)" d="M 152.928507 117.545 
L 159.408507 117.545 
" style="fill:none;stroke:#000000;stroke-linecap:round;stroke-width:1.5;"/>
   </g>
   <g id="line2d_5">
    <path clip-path="url(#pa4e704f22c)" d="M 147.4 117.545 
L 135.25 117.545 
L 123.1 117.545 
" style="fill:none;stroke:#000000;stroke-linecap:round;stroke-width:1.5;"/>
   </g>
   <g id="line2d_6">
    <path clip-path="url(#pa4e704f22c)" d="M 123.1 117.545 
L 123.1 126.725 
L 123.1 135.905 
" style="fill:none;stroke:#000000;stroke-linecap:round;stroke-width:1.5;"/>
   </g>
   <g id="line2d_7">
    <path clip-path="url(#pa4e704f22c)" d="M 123.1 135.905 
L 123.1 148.145 
L 115 148.145 
L 131.2 148.145 
M 117.43 151.817 
L 128.77 151.817 
M 121.48 155.489 
L 124.72 155.489 
" style="fill:none;stroke:#000000;stroke-linecap:round;stroke-width:1.5;"/>
   </g>
   <g id="line2d_8">
    <path clip-path="url(#pa4e704f22c)" d="M 147.4 79.295 
L 139.3 79.295 
L 131.2 79.295 
" style="fill:none;stroke:#000000;stroke-linecap:round;stroke-width:1.5;"/>
   </g>
   <g id="line2d_9">
    <path clip-path="url(#pa4e704f22c)" d="M 131.2 79.295 
" style="fill:none;stroke:#000000;stroke-linecap:round;stroke-width:1.5;"/>
   </g>
   <g id="line2d_10">
    <path clip-path="url(#pa4e704f22c)" d="M 127.96 79.295 
L 95.56 79.295 
L 92.86 86.945 
L 87.46 71.645 
L 82.06 86.945 
L 76.66 71.645 
L 71.26 86.945 
L 65.86 71.645 
L 63.16 79.295 
L 30.76 79.295 
" style="fill:none;stroke:#000000;stroke-linecap:round;stroke-width:1.5;"/>
   </g>
   <g id="line2d_11">
    <path clip-path="url(#pa4e704f22c)" d="M 131.2 79.295 
L 131.2 56.345 
L 131.2 33.395 
" style="fill:none;stroke:#000000;stroke-linecap:round;stroke-width:1.5;"/>
   </g>
   <g id="line2d_12">
    <path clip-path="url(#pa4e704f22c)" d="M 131.2 33.395 
L 163.6 33.395 
L 166.3 25.745 
L 171.7 41.045 
L 177.1 25.745 
L 182.5 41.045 
L 187.9 25.745 
L 193.3 41.045 
L 196 33.395 
L 228.4 33.395 
" style="fill:none;stroke:#000000;stroke-linecap:round;stroke-width:1.5;"/>
   </g>
   <g id="line2d_13">
    <path clip-path="url(#pa4e704f22c)" d="M 228.4 33.395 
L 228.4 65.9075 
L 228.4 98.42 
" style="fill:none;stroke:#000000;stroke-linecap:round;stroke-width:1.5;"/>
   </g>
   <g id="line2d_14">
    <path clip-path="url(#pa4e704f22c)" d="M 228.4 98.42 
" style="fill:none;stroke:#000000;stroke-linecap:round;stroke-width:1.5;"/>
   </g>
   <g id="line2d_15">
    <path clip-path="url(#pa4e704f22c)" d="M 228.4 98.42 
L 222.974029 98.42 
L 217.548058 98.42 
" style="fill:none;stroke:#000000;stroke-linecap:round;stroke-width:1.5;"/>
   </g>
   <g id="line2d_16">
    <path clip-path="url(#pa4e704f22c)" d="M 217.548058 98.42 
L 229.698058 98.42 
L 241.848058 98.42 
" style="fill:none;stroke:#000000;stroke-linecap:round;stroke-width:1.5;"/>
   </g>
   <g id="patch_2">
    <path clip-path="url(#pa4e704f22c)" d="M 131.2 81.59 
C 131.844444 81.59 132.462579 81.348184 132.918269 80.91781 
C 133.37396 80.487436 133.63 79.903641 133.63 79.295 
C 133.63 78.686359 133.37396 78.102564 132.918269 77.67219 
C 132.462579 77.241816 131.844444 77 131.2 77 
C 130.555556 77 129.937421 77.241816 129.481731 77.67219 
C 129.02604 78.102564 128.77 78.686359 128.77 79.295 
C 128.77 79.903641 129.02604 80.487436 129.481731 80.91781 
C 129.937421 81.348184 130.555556 81.59 131.2 81.59 
z
" style="stroke:#000000;stroke-linejoin:miter;stroke-width:1.5;"/>
   </g>
   <g id="patch_3">
    <path clip-path="url(#pa4e704f22c)" d="M 228.4 100.715 
C 229.044444 100.715 229.662579 100.473184 230.118269 100.04281 
C 230.57396 99.612436 230.83 99.028641 230.83 98.42 
C 230.83 97.811359 230.57396 97.227564 230.118269 96.79719 
C 229.662579 96.366816 229.044444 96.125 228.4 96.125 
C 227.755556 96.125 227.137421 96.366816 226.681731 96.79719 
C 226.22604 97.227564 225.97 97.811359 225.97 98.42 
C 225.97 99.028641 226.22604 99.612436 226.681731 100.04281 
C 227.137421 100.473184 227.755556 100.715 228.4 100.715 
z
" style="stroke:#000000;stroke-linejoin:miter;stroke-width:1.5;"/>
   </g>
   <g id="text_1">
    <!-- $R_{in}$ -->
    <defs>
     <path d="M 44.390625 34.1875 
Q 47.5625 33.109375 50.5625 29.59375 
Q 53.5625 26.078125 56.59375 19.921875 
L 66.609375 0 
L 56 0 
L 46.6875 18.703125 
Q 43.0625 26.03125 39.671875 28.421875 
Q 36.28125 30.8125 30.421875 30.8125 
L 19.671875 30.8125 
L 19.671875 0 
L 9.8125 0 
L 9.8125 72.90625 
L 32.078125 72.90625 
Q 44.578125 72.90625 50.734375 67.671875 
Q 56.890625 62.453125 56.890625 51.90625 
Q 56.890625 45.015625 53.6875 40.46875 
Q 50.484375 35.9375 44.390625 34.1875 
z
M 19.671875 64.796875 
L 19.671875 38.921875 
L 32.078125 38.921875 
Q 39.203125 38.921875 42.84375 42.21875 
Q 46.484375 45.515625 46.484375 51.90625 
Q 46.484375 58.296875 42.84375 61.546875 
Q 39.203125 64.796875 32.078125 64.796875 
z
" id="DejaVuSans-52"/>
     <path d="M 9.421875 54.6875 
L 18.40625 54.6875 
L 18.40625 0 
L 9.421875 0 
z
M 9.421875 75.984375 
L 18.40625 75.984375 
L 18.40625 64.59375 
L 9.421875 64.59375 
z
" id="DejaVuSans-69"/>
     <path d="M 54.890625 33.015625 
L 54.890625 0 
L 45.90625 0 
L 45.90625 32.71875 
Q 45.90625 40.484375 42.875 44.328125 
Q 39.84375 48.1875 33.796875 48.1875 
Q 26.515625 48.1875 22.3125 43.546875 
Q 18.109375 38.921875 18.109375 30.90625 
L 18.109375 0 
L 9.078125 0 
L 9.078125 54.6875 
L 18.109375 54.6875 
L 18.109375 46.1875 
Q 21.34375 51.125 25.703125 53.5625 
Q 30.078125 56 35.796875 56 
Q 45.21875 56 50.046875 50.171875 
Q 54.890625 44.34375 54.890625 33.015625 
z
" id="DejaVuSans-6e"/>
    </defs>
    <g transform="translate(68.4 102.1625)scale(0.16 -0.16)">
     <use transform="translate(0 0.09375)" xlink:href="#DejaVuSans-52"/>
     <use transform="translate(70.439453 -16.3125)scale(0.7)" xlink:href="#DejaVuSans-69"/>
     <use transform="translate(89.887695 -16.3125)scale(0.7)" xlink:href="#DejaVuSans-6e"/>
    </g>
   </g>
   <g id="text_2">
    <!-- $v_{in}$ -->
    <defs>
     <path d="M 2.984375 54.6875 
L 12.5 54.6875 
L 29.59375 8.796875 
L 46.6875 54.6875 
L 56.203125 54.6875 
L 35.6875 0 
L 23.484375 0 
z
" id="DejaVuSans-76"/>
    </defs>
    <g transform="translate(7.2 83.71)scale(0.16 -0.16)">
     <use transform="translate(0 0.3125)" xlink:href="#DejaVuSans-76"/>
     <use transform="translate(60.136719 -16.09375)scale(0.7)" xlink:href="#DejaVuSans-69"/>
     <use transform="translate(79.584961 -16.09375)scale(0.7)" xlink:href="#DejaVuSans-6e"/>
    </g>
   </g>
   <g id="text_3">
    <!-- $R_f$ -->
    <defs>
     <path d="M 37.109375 75.984375 
L 37.109375 68.5 
L 28.515625 68.5 
Q 23.6875 68.5 21.796875 66.546875 
Q 19.921875 64.59375 19.921875 59.515625 
L 19.921875 54.6875 
L 34.71875 54.6875 
L 34.71875 47.703125 
L 19.921875 47.703125 
L 19.921875 0 
L 10.890625 0 
L 10.890625 47.703125 
L 2.296875 47.703125 
L 2.296875 54.6875 
L 10.890625 54.6875 
L 10.890625 58.5 
Q 10.890625 67.625 15.140625 71.796875 
Q 19.390625 75.984375 28.609375 75.984375 
z
" id="DejaVuSans-66"/>
    </defs>
    <g transform="translate(171.96 19.3575)scale(0.16 -0.16)">
     <use transform="translate(0 0.09375)" xlink:href="#DejaVuSans-52"/>
     <use transform="translate(70.439453 -16.3125)scale(0.7)" xlink:href="#DejaVuSans-66"/>
    </g>
   </g>
   <g id="text_4">
    <!-- $v_{o}$ -->
    <defs>
     <path d="M 30.609375 48.390625 
Q 23.390625 48.390625 19.1875 42.75 
Q 14.984375 37.109375 14.984375 27.296875 
Q 14.984375 17.484375 19.15625 11.84375 
Q 23.34375 6.203125 30.609375 6.203125 
Q 37.796875 6.203125 41.984375 11.859375 
Q 46.1875 17.53125 46.1875 27.296875 
Q 46.1875 37.015625 41.984375 42.703125 
Q 37.796875 48.390625 30.609375 48.390625 
z
M 30.609375 56 
Q 42.328125 56 49.015625 48.375 
Q 55.71875 40.765625 55.71875 27.296875 
Q 55.71875 13.875 49.015625 6.21875 
Q 42.328125 -1.421875 30.609375 -1.421875 
Q 18.84375 -1.421875 12.171875 6.21875 
Q 5.515625 13.875 5.515625 27.296875 
Q 5.515625 40.765625 12.171875 48.375 
Q 18.84375 56 30.609375 56 
z
" id="DejaVuSans-6f"/>
    </defs>
    <g transform="translate(245.088058 102.835)scale(0.16 -0.16)">
     <use transform="translate(0 0.3125)" xlink:href="#DejaVuSans-76"/>
     <use transform="translate(60.136719 -16.09375)scale(0.7)" xlink:href="#DejaVuSans-6f"/>
    </g>
   </g>
  </g>
 </g>
 <defs>
  <clipPath id="pa4e704f22c">
   <rect height="148.8384" width="238.676863" x="16.965597" y="16.1978"/>
  </clipPath>
 </defs>
</svg>
