<?xml version="1.0" encoding="utf-8" standalone="no"?>
<!DOCTYPE svg PUBLIC "-//W3C//DTD SVG 1.1//EN"
  "http://www.w3.org/Graphics/SVG/1.1/DTD/svg11.dtd">
<!-- Created with matplotlib (http://matplotlib.org/) -->
<svg height="167pt" version="1.1" viewBox="0 0 270 167" width="270pt" xmlns="http://www.w3.org/2000/svg" xmlns:xlink="http://www.w3.org/1999/xlink">
 <defs>
  <style type="text/css">
*{stroke-linecap:butt;stroke-linejoin:round;stroke-miterlimit:100000;}
  </style>
 </defs>
 <g id="figure_1">
  <g id="patch_1">
   <path d="M 0 167.064 
L 270.528058 167.064 
L 270.528058 0 
L 0 0 
z
" style="fill:none;"/>
  </g>
  <g id="axes_1">
   <g id="line2d_1">
    <path clip-path="url(#p8bdb7cae76)" d="M 156.808507 121.92 
L 156.808507 115.8 
" style="fill:none;stroke:#000000;stroke-linecap:round;stroke-width:1.5;"/>
   </g>
   <g id="line2d_2">
    <path clip-path="url(#p8bdb7cae76)" d="M 148.04 99.735 
L 148.04 61.485 
L 218.188058 99.735 
L 148.04 137.985 
L 148.04 99.735 
M 218.188058 99.735 
" style="fill:none;stroke:#000000;stroke-linecap:round;stroke-width:1.5;"/>
   </g>
   <g id="line2d_3">
    <path clip-path="url(#p8bdb7cae76)" d="M 153.568507 80.61 
L 160.048507 80.61 
" style="fill:none;stroke:#000000;stroke-linecap:round;stroke-width:1.5;"/>
   </g>
   <g id="line2d_4">
    <path clip-path="url(#p8bdb7cae76)" d="M 153.568507 118.86 
L 160.048507 118.86 
" style="fill:none;stroke:#000000;stroke-linecap:round;stroke-width:1.5;"/>
   </g>
   <g id="line2d_5">
    <path clip-path="url(#p8bdb7cae76)" d="M 148.04 118.86 
L 135.89 118.86 
L 123.74 118.86 
" style="fill:none;stroke:#000000;stroke-linecap:round;stroke-width:1.5;"/>
   </g>
   <g id="line2d_6">
    <path clip-path="url(#p8bdb7cae76)" d="M 123.74 118.86 
L 123.74 128.04 
L 123.74 137.22 
" style="fill:none;stroke:#000000;stroke-linecap:round;stroke-width:1.5;"/>
   </g>
   <g id="line2d_7">
    <path clip-path="url(#p8bdb7cae76)" d="M 123.74 137.22 
L 123.74 149.46 
L 115.64 149.46 
L 131.84 149.46 
M 118.07 153.132 
L 129.41 153.132 
M 122.12 156.804 
L 125.36 156.804 
" style="fill:none;stroke:#000000;stroke-linecap:round;stroke-width:1.5;"/>
   </g>
   <g id="line2d_8">
    <path clip-path="url(#p8bdb7cae76)" d="M 148.04 80.61 
L 139.94 80.61 
L 131.84 80.61 
" style="fill:none;stroke:#000000;stroke-linecap:round;stroke-width:1.5;"/>
   </g>
   <g id="line2d_9">
    <path clip-path="url(#p8bdb7cae76)" d="M 131.84 80.61 
" style="fill:none;stroke:#000000;stroke-linecap:round;stroke-width:1.5;"/>
   </g>
   <g id="line2d_10">
    <path clip-path="url(#p8bdb7cae76)" d="M 128.6 80.61 
L 96.2 80.61 
L 93.5 88.26 
L 88.1 72.96 
L 82.7 88.26 
L 77.3 72.96 
L 71.9 88.26 
L 66.5 72.96 
L 63.8 80.61 
L 31.4 80.61 
" style="fill:none;stroke:#000000;stroke-linecap:round;stroke-width:1.5;"/>
   </g>
   <g id="line2d_11">
    <path clip-path="url(#p8bdb7cae76)" d="M 131.84 80.61 
L 131.84 57.66 
L 131.84 34.71 
" style="fill:none;stroke:#000000;stroke-linecap:round;stroke-width:1.5;"/>
   </g>
   <g id="line2d_12">
    <path clip-path="url(#p8bdb7cae76)" d="M 131.84 34.71 
L 164.24 34.71 
L 166.94 27.06 
L 172.34 42.36 
L 177.74 27.06 
L 183.14 42.36 
L 188.54 27.06 
L 193.94 42.36 
L 196.64 34.71 
L 229.04 34.71 
" style="fill:none;stroke:#000000;stroke-linecap:round;stroke-width:1.5;"/>
   </g>
   <g id="line2d_13">
    <path clip-path="url(#p8bdb7cae76)" d="M 229.04 34.71 
L 229.04 67.2225 
L 229.04 99.735 
" style="fill:none;stroke:#000000;stroke-linecap:round;stroke-width:1.5;"/>
   </g>
   <g id="line2d_14">
    <path clip-path="url(#p8bdb7cae76)" d="M 229.04 99.735 
" style="fill:none;stroke:#000000;stroke-linecap:round;stroke-width:1.5;"/>
   </g>
   <g id="line2d_15">
    <path clip-path="url(#p8bdb7cae76)" d="M 229.04 99.735 
L 223.614029 99.735 
L 218.188058 99.735 
" style="fill:none;stroke:#000000;stroke-linecap:round;stroke-width:1.5;"/>
   </g>
   <g id="line2d_16">
    <path clip-path="url(#p8bdb7cae76)" d="M 218.188058 99.735 
L 230.338058 99.735 
L 242.488058 99.735 
" style="fill:none;stroke:#000000;stroke-linecap:round;stroke-width:1.5;"/>
   </g>
   <g id="patch_2">
    <path clip-path="url(#p8bdb7cae76)" d="M 131.84 82.905 
C 132.484444 82.905 133.102579 82.663184 133.558269 82.23281 
C 134.01396 81.802436 134.27 81.218641 134.27 80.61 
C 134.27 80.001359 134.01396 79.417564 133.558269 78.98719 
C 133.102579 78.556816 132.484444 78.315 131.84 78.315 
C 131.195556 78.315 130.577421 78.556816 130.121731 78.98719 
C 129.66604 79.417564 129.41 80.001359 129.41 80.61 
C 129.41 81.218641 129.66604 81.802436 130.121731 82.23281 
C 130.577421 82.663184 131.195556 82.905 131.84 82.905 
z
" style="stroke:#000000;stroke-linejoin:miter;stroke-width:1.5;"/>
   </g>
   <g id="patch_3">
    <path clip-path="url(#p8bdb7cae76)" d="M 229.04 102.03 
C 229.684444 102.03 230.302579 101.788184 230.758269 101.35781 
C 231.21396 100.927436 231.47 100.343641 231.47 99.735 
C 231.47 99.126359 231.21396 98.542564 230.758269 98.11219 
C 230.302579 97.681816 229.684444 97.44 229.04 97.44 
C 228.395556 97.44 227.777421 97.681816 227.321731 98.11219 
C 226.86604 98.542564 226.61 99.126359 226.61 99.735 
C 226.61 100.343641 226.86604 100.927436 227.321731 101.35781 
C 227.777421 101.788184 228.395556 102.03 229.04 102.03 
z
" style="stroke:#000000;stroke-linejoin:miter;stroke-width:1.5;"/>
   </g>
   <g id="text_1">
    <!-- $R_{in}$ -->
    <defs>
     <path d="M 44.390625 34.1875 
Q 47.5625 33.109375 50.5625 29.59375 
Q 53.5625 26.078125 56.59375 19.921875 
L 66.609375 0 
L 56 0 
L 46.6875 18.703125 
Q 43.0625 26.03125 39.671875 28.421875 
Q 36.28125 30.8125 30.421875 30.8125 
L 19.671875 30.8125 
L 19.671875 0 
L 9.8125 0 
L 9.8125 72.90625 
L 32.078125 72.90625 
Q 44.578125 72.90625 50.734375 67.671875 
Q 56.890625 62.453125 56.890625 51.90625 
Q 56.890625 45.015625 53.6875 40.46875 
Q 50.484375 35.9375 44.390625 34.1875 
M 19.671875 64.796875 
L 19.671875 38.921875 
L 32.078125 38.921875 
Q 39.203125 38.921875 42.84375 42.21875 
Q 46.484375 45.515625 46.484375 51.90625 
Q 46.484375 58.296875 42.84375 61.546875 
Q 39.203125 64.796875 32.078125 64.796875 
z
" id="BitstreamVeraSans-Roman-52"/>
     <path d="M 9.421875 54.6875 
L 18.40625 54.6875 
L 18.40625 0 
L 9.421875 0 
z
M 9.421875 75.984375 
L 18.40625 75.984375 
L 18.40625 64.59375 
L 9.421875 64.59375 
z
" id="BitstreamVeraSans-Roman-69"/>
     <path d="M 54.890625 33.015625 
L 54.890625 0 
L 45.90625 0 
L 45.90625 32.71875 
Q 45.90625 40.484375 42.875 44.328125 
Q 39.84375 48.1875 33.796875 48.1875 
Q 26.515625 48.1875 22.3125 43.546875 
Q 18.109375 38.921875 18.109375 30.90625 
L 18.109375 0 
L 9.078125 0 
L 9.078125 54.6875 
L 18.109375 54.6875 
L 18.109375 46.1875 
Q 21.34375 51.125 25.703125 53.5625 
Q 30.078125 56 35.796875 56 
Q 45.21875 56 50.046875 50.171875 
Q 54.890625 44.34375 54.890625 33.015625 
" id="BitstreamVeraSans-Roman-6e"/>
    </defs>
    <g transform="translate(68.72 103.0)scale(0.16 -0.16)">
     <use transform="translate(0.0 0.09375)" xlink:href="#BitstreamVeraSans-Roman-52"/>
     <use transform="translate(71.319921875 -31.40625)scale(0.7)" xlink:href="#BitstreamVeraSans-Roman-69"/>
     <use transform="translate(90.7681640625 -31.40625)scale(0.7)" xlink:href="#BitstreamVeraSans-Roman-6e"/>
    </g>
   </g>
   <g id="text_2">
    <!-- $v_{in}$ -->
    <defs>
     <path d="M 2.984375 54.6875 
L 12.5 54.6875 
L 29.59375 8.796875 
L 46.6875 54.6875 
L 56.203125 54.6875 
L 35.6875 0 
L 23.484375 0 
z
" id="BitstreamVeraSans-Roman-76"/>
    </defs>
    <g transform="translate(7.2 83.2325)scale(0.16 -0.16)">
     <use transform="translate(0.0 0.3125)" xlink:href="#BitstreamVeraSans-Roman-76"/>
     <use transform="translate(61.0171875 -31.1875)scale(0.7)" xlink:href="#BitstreamVeraSans-Roman-69"/>
     <use transform="translate(80.4654296875 -31.1875)scale(0.7)" xlink:href="#BitstreamVeraSans-Roman-6e"/>
    </g>
   </g>
   <g id="text_3">
    <!-- $R_f$ -->
    <defs>
     <path d="M 37.109375 75.984375 
L 37.109375 68.5 
L 28.515625 68.5 
Q 23.6875 68.5 21.796875 66.546875 
Q 19.921875 64.59375 19.921875 59.515625 
L 19.921875 54.6875 
L 34.71875 54.6875 
L 34.71875 47.703125 
L 19.921875 47.703125 
L 19.921875 0 
L 10.890625 0 
L 10.890625 47.703125 
L 2.296875 47.703125 
L 2.296875 54.6875 
L 10.890625 54.6875 
L 10.890625 58.5 
Q 10.890625 67.625 15.140625 71.796875 
Q 19.390625 75.984375 28.609375 75.984375 
z
" id="BitstreamVeraSans-Roman-66"/>
    </defs>
    <g transform="translate(172.28 18.88)scale(0.16 -0.16)">
     <use transform="translate(0.0 0.09375)" xlink:href="#BitstreamVeraSans-Roman-52"/>
     <use transform="translate(71.319921875 -31.40625)scale(0.7)" xlink:href="#BitstreamVeraSans-Roman-66"/>
    </g>
   </g>
   <g id="text_4">
    <!-- $v_{o}$ -->
    <defs>
     <path d="M 30.609375 48.390625 
Q 23.390625 48.390625 19.1875 42.75 
Q 14.984375 37.109375 14.984375 27.296875 
Q 14.984375 17.484375 19.15625 11.84375 
Q 23.34375 6.203125 30.609375 6.203125 
Q 37.796875 6.203125 41.984375 11.859375 
Q 46.1875 17.53125 46.1875 27.296875 
Q 46.1875 37.015625 41.984375 42.703125 
Q 37.796875 48.390625 30.609375 48.390625 
M 30.609375 56 
Q 42.328125 56 49.015625 48.375 
Q 55.71875 40.765625 55.71875 27.296875 
Q 55.71875 13.875 49.015625 6.21875 
Q 42.328125 -1.421875 30.609375 -1.421875 
Q 18.84375 -1.421875 12.171875 6.21875 
Q 5.515625 13.875 5.515625 27.296875 
Q 5.515625 40.765625 12.171875 48.375 
Q 18.84375 56 30.609375 56 
" id="BitstreamVeraSans-Roman-6f"/>
    </defs>
    <g transform="translate(245.728057707 102.1975)scale(0.16 -0.16)">
     <use transform="translate(0.0 0.3125)" xlink:href="#BitstreamVeraSans-Roman-76"/>
     <use transform="translate(61.0171875 -31.1875)scale(0.7)" xlink:href="#BitstreamVeraSans-Roman-6f"/>
    </g>
   </g>
  </g>
 </g>
 <defs>
  <clipPath id="p8bdb7cae76">
   <rect height="135.864" width="217.568057707" x="28.16" y="24.0"/>
  </clipPath>
 </defs>
</svg>
