<?xml version="1.0" encoding="utf-8" standalone="no"?>
<!DOCTYPE svg PUBLIC "-//W3C//DTD SVG 1.1//EN"
  "http://www.w3.org/Graphics/SVG/1.1/DTD/svg11.dtd">
<!-- Created with matplotlib (https://matplotlib.org/) -->
<svg height="162.9954pt" version="1.1" viewBox="0 0 284.199 162.9954" width="284.199pt" xmlns="http://www.w3.org/2000/svg" xmlns:xlink="http://www.w3.org/1999/xlink">
 <defs>
  <style type="text/css">
*{stroke-linecap:butt;stroke-linejoin:round;white-space:pre;}
  </style>
 </defs>
 <g id="figure_1">
  <g id="patch_1">
   <path d="M 0 162.9954 
L 284.199 162.9954 
L 284.199 0 
L 0 0 
z
" style="fill:none;"/>
  </g>
  <g id="axes_1">
   <g id="patch_2">
    <path clip-path="url(#pab195cc752)" d="M 190.248 49.9707 
C 191.27911 49.9707 192.268127 49.617934 192.997231 48.990094 
C 193.726336 48.362253 194.136 47.5106 194.136 46.6227 
C 194.136 45.7348 193.726336 44.883147 192.997231 44.255306 
C 192.268127 43.627466 191.27911 43.2747 190.248 43.2747 
C 189.21689 43.2747 188.227873 43.627466 187.498769 44.255306 
C 186.769664 44.883147 186.36 45.7348 186.36 46.6227 
C 186.36 47.5106 186.769664 48.362253 187.498769 48.990094 
C 188.227873 49.617934 189.21689 49.9707 190.248 49.9707 
z
" style="fill:none;stroke:#000000;stroke-linejoin:miter;stroke-width:2;"/>
   </g>
   <g id="patch_3">
    <path clip-path="url(#pab195cc752)" d="M 213.9 48.7152 
C 214.544444 48.7152 215.162579 48.494721 215.618269 48.102321 
C 216.07396 47.709921 216.33 47.177637 216.33 46.6227 
C 216.33 46.067763 216.07396 45.535479 215.618269 45.143079 
C 215.162579 44.750679 214.544444 44.5302 213.9 44.5302 
C 213.255556 44.5302 212.637421 44.750679 212.181731 45.143079 
C 211.72604 45.535479 211.47 46.067763 211.47 46.6227 
C 211.47 47.177637 211.72604 47.709921 212.181731 48.102321 
C 212.637421 48.494721 213.255556 48.7152 213.9 48.7152 
z
" style="stroke:#000000;stroke-linejoin:miter;stroke-width:2;"/>
   </g>
   <g id="patch_4">
    <path clip-path="url(#pab195cc752)" d="M 230.1 48.7152 
C 230.744444 48.7152 231.362579 48.494721 231.818269 48.102321 
C 232.27396 47.709921 232.53 47.177637 232.53 46.6227 
C 232.53 46.067763 232.27396 45.535479 231.818269 45.143079 
C 231.362579 44.750679 230.744444 44.5302 230.1 44.5302 
C 229.455556 44.5302 228.837421 44.750679 228.381731 45.143079 
C 227.92604 45.535479 227.67 46.067763 227.67 46.6227 
C 227.67 47.177637 227.92604 47.709921 228.381731 48.102321 
C 228.837421 48.494721 229.455556 48.7152 230.1 48.7152 
z
" style="stroke:#000000;stroke-linejoin:miter;stroke-width:2;"/>
   </g>
   <g id="patch_5">
    <path clip-path="url(#pab195cc752)" d="M 190.248 119.7207 
C 191.27911 119.7207 192.268127 119.367934 192.997231 118.740094 
C 193.726336 118.112253 194.136 117.2606 194.136 116.3727 
C 194.136 115.4848 193.726336 114.633147 192.997231 114.005306 
C 192.268127 113.377466 191.27911 113.0247 190.248 113.0247 
C 189.21689 113.0247 188.227873 113.377466 187.498769 114.005306 
C 186.769664 114.633147 186.36 115.4848 186.36 116.3727 
C 186.36 117.2606 186.769664 118.112253 187.498769 118.740094 
C 188.227873 119.367934 189.21689 119.7207 190.248 119.7207 
z
" style="fill:none;stroke:#000000;stroke-linejoin:miter;stroke-width:2;"/>
   </g>
   <g id="patch_6">
    <path clip-path="url(#pab195cc752)" d="M 213.9 118.4652 
C 214.544444 118.4652 215.162579 118.244721 215.618269 117.852321 
C 216.07396 117.459921 216.33 116.927637 216.33 116.3727 
C 216.33 115.817763 216.07396 115.285479 215.618269 114.893079 
C 215.162579 114.500679 214.544444 114.2802 213.9 114.2802 
C 213.255556 114.2802 212.637421 114.500679 212.181731 114.893079 
C 211.72604 115.285479 211.47 115.817763 211.47 116.3727 
C 211.47 116.927637 211.72604 117.459921 212.181731 117.852321 
C 212.637421 118.244721 213.255556 118.4652 213.9 118.4652 
z
" style="stroke:#000000;stroke-linejoin:miter;stroke-width:2;"/>
   </g>
   <g id="patch_7">
    <path clip-path="url(#pab195cc752)" d="M 246.3 118.4652 
C 246.944444 118.4652 247.562579 118.244721 248.018269 117.852321 
C 248.47396 117.459921 248.73 116.927637 248.73 116.3727 
C 248.73 115.817763 248.47396 115.285479 248.018269 114.893079 
C 247.562579 114.500679 246.944444 114.2802 246.3 114.2802 
C 245.655556 114.2802 245.037421 114.500679 244.581731 114.893079 
C 244.12604 115.285479 243.87 115.817763 243.87 116.3727 
C 243.87 116.927637 244.12604 117.459921 244.581731 117.852321 
C 245.037421 118.244721 245.655556 118.4652 246.3 118.4652 
z
" style="stroke:#000000;stroke-linejoin:miter;stroke-width:2;"/>
   </g>
   <g id="patch_8">
    <path clip-path="url(#pab195cc752)" d="M 114.108 42.9957 
C 115.13911 42.9957 116.128127 42.642934 116.857231 42.015094 
C 117.586336 41.387253 117.996 40.5356 117.996 39.6477 
C 117.996 38.7598 117.586336 37.908147 116.857231 37.280306 
C 116.128127 36.652466 115.13911 36.2997 114.108 36.2997 
C 113.07689 36.2997 112.087873 36.652466 111.358769 37.280306 
C 110.629664 37.908147 110.22 38.7598 110.22 39.6477 
C 110.22 40.5356 110.629664 41.387253 111.358769 42.015094 
C 112.087873 42.642934 113.07689 42.9957 114.108 42.9957 
z
" style="fill:none;stroke:#000000;stroke-linejoin:miter;stroke-width:2;"/>
   </g>
   <g id="patch_9">
    <path clip-path="url(#pab195cc752)" d="M 114.108 126.6957 
C 115.13911 126.6957 116.128127 126.342934 116.857231 125.715094 
C 117.586336 125.087253 117.996 124.2356 117.996 123.3477 
C 117.996 122.4598 117.586336 121.608147 116.857231 120.980306 
C 116.128127 120.352466 115.13911 119.9997 114.108 119.9997 
C 113.07689 119.9997 112.087873 120.352466 111.358769 120.980306 
C 110.629664 121.608147 110.22 122.4598 110.22 123.3477 
C 110.22 124.2356 110.629664 125.087253 111.358769 125.715094 
C 112.087873 126.342934 113.07689 126.6957 114.108 126.6957 
z
" style="fill:none;stroke:#000000;stroke-linejoin:miter;stroke-width:2;"/>
   </g>
   <g id="patch_10">
    <path clip-path="url(#pab195cc752)" d="M 61.62 83.5902 
C 62.264444 83.5902 62.882579 83.369721 63.338269 82.977321 
C 63.79396 82.584921 64.05 82.052637 64.05 81.4977 
C 64.05 80.942763 63.79396 80.410479 63.338269 80.018079 
C 62.882579 79.625679 62.264444 79.4052 61.62 79.4052 
C 60.975556 79.4052 60.357421 79.625679 59.901731 80.018079 
C 59.44604 80.410479 59.19 80.942763 59.19 81.4977 
C 59.19 82.052637 59.44604 82.584921 59.901731 82.977321 
C 60.357421 83.369721 60.975556 83.5902 61.62 83.5902 
z
" style="stroke:#000000;stroke-linejoin:miter;stroke-width:2;"/>
   </g>
   <g id="line2d_1">
    <path clip-path="url(#pab195cc752)" d="M 170.16 60.5727 
L 171.197938 60.544038 
L 172.23161 60.458171 
L 173.25677 60.31545 
L 174.269204 60.116463 
L 175.264753 59.862028 
L 176.239325 59.553189 
L 177.188917 59.191216 
L 178.109624 58.777596 
L 178.997665 58.314029 
L 179.849391 57.80242 
L 180.6613 57.244871 
L 181.430057 56.643673 
L 182.152504 56.001297 
L 182.82567 55.320383 
L 183.446791 54.603727 
L 184.013313 53.854276 
L 184.522909 53.075109 
L 184.973484 52.269428 
L 185.363188 51.440543 
L 185.690419 50.59186 
L 185.953832 49.726867 
L 186.152345 48.849119 
L 186.285142 47.962221 
L 186.351677 47.06982 
L 186.351677 46.17558 
L 186.285142 45.283179 
L 186.152345 44.396281 
L 185.953832 43.518533 
L 185.690419 42.65354 
L 185.363188 41.804857 
L 184.973484 40.975972 
L 184.522909 40.170291 
L 184.013313 39.391124 
L 183.446791 38.641673 
L 182.82567 37.925017 
L 182.152504 37.244103 
L 181.430057 36.601727 
L 180.6613 36.000529 
L 179.849391 35.44298 
L 178.997665 34.931371 
L 178.109624 34.467804 
L 177.188917 34.054184 
L 176.239325 33.692211 
L 175.264753 33.383372 
L 174.269204 33.128937 
L 173.25677 32.92995 
L 172.23161 32.787229 
L 171.197938 32.701362 
L 170.16 32.6727 
L 149.1 32.6727 
L 149.1 46.6227 
L 149.1 60.5727 
L 170.16 60.5727 
" style="fill:none;stroke:#000000;stroke-linecap:round;stroke-width:2;"/>
   </g>
   <g id="line2d_2">
    <path clip-path="url(#pab195cc752)" d="M 137.76 53.5977 
L 149.1 53.5977 
" style="fill:none;stroke:#000000;stroke-linecap:round;stroke-width:2;"/>
   </g>
   <g id="line2d_3">
    <path clip-path="url(#pab195cc752)" d="M 137.76 39.6477 
L 149.1 39.6477 
" style="fill:none;stroke:#000000;stroke-linecap:round;stroke-width:2;"/>
   </g>
   <g id="line2d_4">
    <path clip-path="url(#pab195cc752)" d="M 137.76 46.6227 
M 194.136 46.6227 
L 197.7 46.6227 
" style="fill:none;stroke:#000000;stroke-linecap:round;stroke-width:2;"/>
   </g>
   <g id="line2d_5">
    <path clip-path="url(#pab195cc752)" d="M 197.7 46.6227 
L 205.8 46.6227 
L 213.9 46.6227 
" style="fill:none;stroke:#000000;stroke-linecap:round;stroke-width:2;"/>
   </g>
   <g id="line2d_6">
    <path clip-path="url(#pab195cc752)" d="M 213.9 46.6227 
" style="fill:none;stroke:#000000;stroke-linecap:round;stroke-width:2;"/>
   </g>
   <g id="line2d_7">
    <path clip-path="url(#pab195cc752)" d="M 213.9 46.6227 
L 222 46.6227 
L 230.1 46.6227 
" style="fill:none;stroke:#000000;stroke-linecap:round;stroke-width:2;"/>
   </g>
   <g id="line2d_8">
    <path clip-path="url(#pab195cc752)" d="M 230.1 46.6227 
" style="fill:none;stroke:#000000;stroke-linecap:round;stroke-width:2;"/>
   </g>
   <g id="line2d_9">
    <path clip-path="url(#pab195cc752)" d="M 230.1 46.6227 
L 246.3 46.6227 
L 262.5 46.6227 
" style="fill:none;stroke:#000000;stroke-linecap:round;stroke-width:2;"/>
   </g>
   <g id="line2d_10">
    <path clip-path="url(#pab195cc752)" d="M 170.16 130.3227 
L 171.197938 130.294038 
L 172.23161 130.208171 
L 173.25677 130.06545 
L 174.269204 129.866463 
L 175.264753 129.612028 
L 176.239325 129.303189 
L 177.188917 128.941216 
L 178.109624 128.527596 
L 178.997665 128.064029 
L 179.849391 127.55242 
L 180.6613 126.994871 
L 181.430057 126.393673 
L 182.152504 125.751297 
L 182.82567 125.070383 
L 183.446791 124.353727 
L 184.013313 123.604276 
L 184.522909 122.825109 
L 184.973484 122.019428 
L 185.363188 121.190543 
L 185.690419 120.34186 
L 185.953832 119.476867 
L 186.152345 118.599119 
L 186.285142 117.712221 
L 186.351677 116.81982 
L 186.351677 115.92558 
L 186.285142 115.033179 
L 186.152345 114.146281 
L 185.953832 113.268533 
L 185.690419 112.40354 
L 185.363188 111.554857 
L 184.973484 110.725972 
L 184.522909 109.920291 
L 184.013313 109.141124 
L 183.446791 108.391673 
L 182.82567 107.675017 
L 182.152504 106.994103 
L 181.430057 106.351727 
L 180.6613 105.750529 
L 179.849391 105.19298 
L 178.997665 104.681371 
L 178.109624 104.217804 
L 177.188917 103.804184 
L 176.239325 103.442211 
L 175.264753 103.133372 
L 174.269204 102.878937 
L 173.25677 102.67995 
L 172.23161 102.537229 
L 171.197938 102.451362 
L 170.16 102.4227 
L 149.1 102.4227 
L 149.1 116.3727 
L 149.1 130.3227 
L 170.16 130.3227 
" style="fill:none;stroke:#000000;stroke-linecap:round;stroke-width:2;"/>
   </g>
   <g id="line2d_11">
    <path clip-path="url(#pab195cc752)" d="M 137.76 123.3477 
L 149.1 123.3477 
" style="fill:none;stroke:#000000;stroke-linecap:round;stroke-width:2;"/>
   </g>
   <g id="line2d_12">
    <path clip-path="url(#pab195cc752)" d="M 137.76 109.3977 
L 149.1 109.3977 
" style="fill:none;stroke:#000000;stroke-linecap:round;stroke-width:2;"/>
   </g>
   <g id="line2d_13">
    <path clip-path="url(#pab195cc752)" d="M 137.76 116.3727 
M 194.136 116.3727 
L 197.7 116.3727 
" style="fill:none;stroke:#000000;stroke-linecap:round;stroke-width:2;"/>
   </g>
   <g id="line2d_14">
    <path clip-path="url(#pab195cc752)" d="M 197.7 116.3727 
L 205.8 116.3727 
L 213.9 116.3727 
" style="fill:none;stroke:#000000;stroke-linecap:round;stroke-width:2;"/>
   </g>
   <g id="line2d_15">
    <path clip-path="url(#pab195cc752)" d="M 213.9 116.3727 
" style="fill:none;stroke:#000000;stroke-linecap:round;stroke-width:2;"/>
   </g>
   <g id="line2d_16">
    <path clip-path="url(#pab195cc752)" d="M 213.9 116.3727 
L 230.1 116.3727 
L 246.3 116.3727 
" style="fill:none;stroke:#000000;stroke-linecap:round;stroke-width:2;"/>
   </g>
   <g id="line2d_17">
    <path clip-path="url(#pab195cc752)" d="M 246.3 116.3727 
" style="fill:none;stroke:#000000;stroke-linecap:round;stroke-width:2;"/>
   </g>
   <g id="line2d_18">
    <path clip-path="url(#pab195cc752)" d="M 246.3 116.3727 
L 254.4 116.3727 
L 262.5 116.3727 
" style="fill:none;stroke:#000000;stroke-linecap:round;stroke-width:2;"/>
   </g>
   <g id="line2d_19">
    <path clip-path="url(#pab195cc752)" d="M 137.76 109.3977 
L 137.76 102.4227 
L 137.76 95.4477 
" style="fill:none;stroke:#000000;stroke-linecap:round;stroke-width:2;"/>
   </g>
   <g id="line2d_20">
    <path clip-path="url(#pab195cc752)" d="M 213.9 46.6227 
L 213.9 53.5977 
L 213.9 60.5727 
" style="fill:none;stroke:#000000;stroke-linecap:round;stroke-width:2;"/>
   </g>
   <g id="line2d_21">
    <path clip-path="url(#pab195cc752)" d="M 213.9 60.5727 
L 175.83 78.0102 
L 137.76 95.4477 
" style="fill:none;stroke:#000000;stroke-linecap:round;stroke-width:2;"/>
   </g>
   <g id="line2d_22">
    <path clip-path="url(#pab195cc752)" d="M 137.76 53.5977 
L 137.76 60.5727 
L 137.76 67.5477 
" style="fill:none;stroke:#000000;stroke-linecap:round;stroke-width:2;"/>
   </g>
   <g id="line2d_23">
    <path clip-path="url(#pab195cc752)" d="M 213.9 116.3727 
L 213.9 109.3977 
L 213.9 102.4227 
" style="fill:none;stroke:#000000;stroke-linecap:round;stroke-width:2;"/>
   </g>
   <g id="line2d_24">
    <path clip-path="url(#pab195cc752)" d="M 213.9 102.4227 
L 175.83 84.9852 
L 137.76 67.5477 
" style="fill:none;stroke:#000000;stroke-linecap:round;stroke-width:2;"/>
   </g>
   <g id="line2d_25">
    <path clip-path="url(#pab195cc752)" d="M 137.76 39.6477 
L 129.66 39.6477 
L 121.56 39.6477 
" style="fill:none;stroke:#000000;stroke-linecap:round;stroke-width:2;"/>
   </g>
   <g id="line2d_26">
    <path clip-path="url(#pab195cc752)" d="M 94.02 25.6977 
L 72.96 25.6977 
L 72.96 39.6477 
L 72.96 53.5977 
L 94.02 53.5977 
L 95.057938 53.569038 
L 96.09161 53.483171 
L 97.11677 53.34045 
L 98.129204 53.141463 
L 99.124753 52.887028 
L 100.099325 52.578189 
L 101.048917 52.216216 
L 101.969624 51.802596 
L 102.857665 51.339029 
L 103.709391 50.82742 
L 104.5213 50.269871 
L 105.290057 49.668673 
L 106.012504 49.026297 
L 106.68567 48.345383 
L 107.306791 47.628727 
L 107.873313 46.879276 
L 108.382909 46.100109 
L 108.833484 45.294428 
L 109.223188 44.465543 
L 109.550419 43.61686 
L 109.813832 42.751867 
L 110.012345 41.874119 
L 110.145142 40.987221 
L 110.211677 40.09482 
L 110.211677 39.20058 
L 110.145142 38.308179 
L 110.012345 37.421281 
L 109.813832 36.543533 
L 109.550419 35.67854 
L 109.223188 34.829857 
L 108.833484 34.000972 
L 108.382909 33.195291 
L 107.873313 32.416124 
L 107.306791 31.666673 
L 106.68567 30.950017 
L 106.012504 30.269103 
L 105.290057 29.626727 
L 104.5213 29.025529 
L 103.709391 28.46798 
L 102.857665 27.956371 
L 101.969624 27.492804 
L 101.048917 27.079184 
L 100.099325 26.717211 
L 99.124753 26.408372 
L 98.129204 26.153937 
L 97.11677 25.95495 
L 96.09161 25.812229 
L 95.057938 25.726362 
L 94.02 25.6977 
" style="fill:none;stroke:#000000;stroke-linecap:round;stroke-width:2;"/>
   </g>
   <g id="line2d_27">
    <path clip-path="url(#pab195cc752)" d="M 72.96 30.4407 
L 61.62 30.4407 
" style="fill:none;stroke:#000000;stroke-linecap:round;stroke-width:2;"/>
   </g>
   <g id="line2d_28">
    <path clip-path="url(#pab195cc752)" d="M 72.96 39.6477 
L 61.62 39.6477 
" style="fill:none;stroke:#000000;stroke-linecap:round;stroke-width:2;"/>
   </g>
   <g id="line2d_29">
    <path clip-path="url(#pab195cc752)" d="M 72.96 48.8547 
L 61.62 48.8547 
" style="fill:none;stroke:#000000;stroke-linecap:round;stroke-width:2;"/>
   </g>
   <g id="line2d_30">
    <path clip-path="url(#pab195cc752)" d="M 121.56 39.6477 
L 117.996 39.6477 
M 61.62 39.6477 
" style="fill:none;stroke:#000000;stroke-linecap:round;stroke-width:2;"/>
   </g>
   <g id="line2d_31">
    <path clip-path="url(#pab195cc752)" d="M 61.62 30.4407 
L 61.62 23.4657 
L 61.62 16.4907 
" style="fill:none;stroke:#000000;stroke-linecap:round;stroke-width:2;"/>
   </g>
   <g id="line2d_32">
    <path clip-path="url(#pab195cc752)" d="M 61.62 16.4907 
L 153.96 16.4907 
L 246.3 16.4907 
" style="fill:none;stroke:#000000;stroke-linecap:round;stroke-width:2;"/>
   </g>
   <g id="line2d_33">
    <path clip-path="url(#pab195cc752)" d="M 246.3 16.4907 
L 246.3 66.4317 
L 246.3 116.3727 
" style="fill:none;stroke:#000000;stroke-linecap:round;stroke-width:2;"/>
   </g>
   <g id="line2d_34">
    <path clip-path="url(#pab195cc752)" d="M 61.62 39.6477 
L 49.47 39.6477 
L 37.32 39.6477 
" style="fill:none;stroke:#000000;stroke-linecap:round;stroke-width:2;"/>
   </g>
   <g id="line2d_35">
    <path clip-path="url(#pab195cc752)" d="M 137.76 123.3477 
L 129.66 123.3477 
L 121.56 123.3477 
" style="fill:none;stroke:#000000;stroke-linecap:round;stroke-width:2;"/>
   </g>
   <g id="line2d_36">
    <path clip-path="url(#pab195cc752)" d="M 94.02 109.3977 
L 72.96 109.3977 
L 72.96 123.3477 
L 72.96 137.2977 
L 94.02 137.2977 
L 95.057938 137.269038 
L 96.09161 137.183171 
L 97.11677 137.04045 
L 98.129204 136.841463 
L 99.124753 136.587028 
L 100.099325 136.278189 
L 101.048917 135.916216 
L 101.969624 135.502596 
L 102.857665 135.039029 
L 103.709391 134.52742 
L 104.5213 133.969871 
L 105.290057 133.368673 
L 106.012504 132.726297 
L 106.68567 132.045383 
L 107.306791 131.328727 
L 107.873313 130.579276 
L 108.382909 129.800109 
L 108.833484 128.994428 
L 109.223188 128.165543 
L 109.550419 127.31686 
L 109.813832 126.451867 
L 110.012345 125.574119 
L 110.145142 124.687221 
L 110.211677 123.79482 
L 110.211677 122.90058 
L 110.145142 122.008179 
L 110.012345 121.121281 
L 109.813832 120.243533 
L 109.550419 119.37854 
L 109.223188 118.529857 
L 108.833484 117.700972 
L 108.382909 116.895291 
L 107.873313 116.116124 
L 107.306791 115.366673 
L 106.68567 114.650017 
L 106.012504 113.969103 
L 105.290057 113.326727 
L 104.5213 112.725529 
L 103.709391 112.16798 
L 102.857665 111.656371 
L 101.969624 111.192804 
L 101.048917 110.779184 
L 100.099325 110.417211 
L 99.124753 110.108372 
L 98.129204 109.853937 
L 97.11677 109.65495 
L 96.09161 109.512229 
L 95.057938 109.426362 
L 94.02 109.3977 
" style="fill:none;stroke:#000000;stroke-linecap:round;stroke-width:2;"/>
   </g>
   <g id="line2d_37">
    <path clip-path="url(#pab195cc752)" d="M 72.96 114.1407 
L 61.62 114.1407 
" style="fill:none;stroke:#000000;stroke-linecap:round;stroke-width:2;"/>
   </g>
   <g id="line2d_38">
    <path clip-path="url(#pab195cc752)" d="M 72.96 123.3477 
L 61.62 123.3477 
" style="fill:none;stroke:#000000;stroke-linecap:round;stroke-width:2;"/>
   </g>
   <g id="line2d_39">
    <path clip-path="url(#pab195cc752)" d="M 72.96 132.5547 
L 61.62 132.5547 
" style="fill:none;stroke:#000000;stroke-linecap:round;stroke-width:2;"/>
   </g>
   <g id="line2d_40">
    <path clip-path="url(#pab195cc752)" d="M 121.56 123.3477 
L 117.996 123.3477 
M 61.62 123.3477 
" style="fill:none;stroke:#000000;stroke-linecap:round;stroke-width:2;"/>
   </g>
   <g id="line2d_41">
    <path clip-path="url(#pab195cc752)" d="M 61.62 132.5547 
L 61.62 139.5297 
L 61.62 146.5047 
" style="fill:none;stroke:#000000;stroke-linecap:round;stroke-width:2;"/>
   </g>
   <g id="line2d_42">
    <path clip-path="url(#pab195cc752)" d="M 61.62 146.5047 
L 145.86 146.5047 
L 230.1 146.5047 
" style="fill:none;stroke:#000000;stroke-linecap:round;stroke-width:2;"/>
   </g>
   <g id="line2d_43">
    <path clip-path="url(#pab195cc752)" d="M 230.1 146.5047 
L 230.1 96.5637 
L 230.1 46.6227 
" style="fill:none;stroke:#000000;stroke-linecap:round;stroke-width:2;"/>
   </g>
   <g id="line2d_44">
    <path clip-path="url(#pab195cc752)" d="M 61.62 123.3477 
L 49.47 123.3477 
L 37.32 123.3477 
" style="fill:none;stroke:#000000;stroke-linecap:round;stroke-width:2;"/>
   </g>
   <g id="line2d_45">
    <path clip-path="url(#pab195cc752)" d="M 61.62 48.8547 
L 61.62 81.4977 
L 61.62 114.1407 
" style="fill:none;stroke:#000000;stroke-linecap:round;stroke-width:2;"/>
   </g>
   <g id="line2d_46">
    <path clip-path="url(#pab195cc752)" d="M 61.62 81.4977 
" style="fill:none;stroke:#000000;stroke-linecap:round;stroke-width:2;"/>
   </g>
   <g id="line2d_47">
    <path clip-path="url(#pab195cc752)" d="M 61.62 81.4977 
L 49.47 81.4977 
L 37.32 81.4977 
" style="fill:none;stroke:#000000;stroke-linecap:round;stroke-width:2;"/>
   </g>
   <g id="text_1">
    <!-- $Q$ -->
    <defs>
     <path d="M 39.40625 66.21875 
Q 28.65625 66.21875 22.328125 58.203125 
Q 16.015625 50.203125 16.015625 36.375 
Q 16.015625 22.609375 22.328125 14.59375 
Q 28.65625 6.59375 39.40625 6.59375 
Q 50.140625 6.59375 56.421875 14.59375 
Q 62.703125 22.609375 62.703125 36.375 
Q 62.703125 50.203125 56.421875 58.203125 
Q 50.140625 66.21875 39.40625 66.21875 
z
M 53.21875 1.3125 
L 66.21875 -12.890625 
L 54.296875 -12.890625 
L 43.5 -1.21875 
Q 41.890625 -1.3125 41.03125 -1.359375 
Q 40.1875 -1.421875 39.40625 -1.421875 
Q 24.03125 -1.421875 14.8125 8.859375 
Q 5.609375 19.140625 5.609375 36.375 
Q 5.609375 53.65625 14.8125 63.9375 
Q 24.03125 74.21875 39.40625 74.21875 
Q 54.734375 74.21875 63.90625 63.9375 
Q 73.09375 53.65625 73.09375 36.375 
Q 73.09375 23.6875 67.984375 14.640625 
Q 62.890625 5.609375 53.21875 1.3125 
z
" id="DejaVuSans-81"/>
    </defs>
    <g transform="translate(265.74 50.485825)scale(0.14 -0.14)">
     <use transform="translate(0 0.78125)" xlink:href="#DejaVuSans-81"/>
    </g>
   </g>
   <g id="text_2">
    <!-- $\overline{Q}$ -->
    <g transform="translate(265.74 121.301137)scale(0.14 -0.14)">
     <use transform="translate(0 0.53125)" xlink:href="#DejaVuSans-81"/>
     <path d="M 0 86.5 
L 0 92.75 
L 78.710938 92.75 
L 78.710938 86.5 
L 0 86.5 
z
"/>
    </g>
   </g>
   <g id="text_3">
    <!-- $J$ -->
    <defs>
     <path d="M 9.8125 72.90625 
L 19.671875 72.90625 
L 19.671875 5.078125 
Q 19.671875 -8.109375 14.671875 -14.0625 
Q 9.671875 -20.015625 -1.421875 -20.015625 
L -5.171875 -20.015625 
L -5.171875 -11.71875 
L -2.09375 -11.71875 
Q 4.4375 -11.71875 7.125 -8.046875 
Q 9.8125 -4.390625 9.8125 5.078125 
z
" id="DejaVuSans-74"/>
    </defs>
    <g transform="translate(29.88 43.482387)scale(0.14 -0.14)">
     <use transform="translate(0 0.09375)" xlink:href="#DejaVuSans-74"/>
    </g>
   </g>
   <g id="text_4">
    <!-- $K$ -->
    <defs>
     <path d="M 9.8125 72.90625 
L 19.671875 72.90625 
L 19.671875 42.09375 
L 52.390625 72.90625 
L 65.09375 72.90625 
L 28.90625 38.921875 
L 67.671875 0 
L 54.6875 0 
L 19.671875 35.109375 
L 19.671875 0 
L 9.8125 0 
z
" id="DejaVuSans-75"/>
    </defs>
    <g transform="translate(24.84 127.210825)scale(0.14 -0.14)">
     <use transform="translate(0 0.09375)" xlink:href="#DejaVuSans-75"/>
    </g>
   </g>
   <g id="text_5">
    <!-- $CLK$ -->
    <defs>
     <path d="M 64.40625 67.28125 
L 64.40625 56.890625 
Q 59.421875 61.53125 53.78125 63.8125 
Q 48.140625 66.109375 41.796875 66.109375 
Q 29.296875 66.109375 22.65625 58.46875 
Q 16.015625 50.828125 16.015625 36.375 
Q 16.015625 21.96875 22.65625 14.328125 
Q 29.296875 6.6875 41.796875 6.6875 
Q 48.140625 6.6875 53.78125 8.984375 
Q 59.421875 11.28125 64.40625 15.921875 
L 64.40625 5.609375 
Q 59.234375 2.09375 53.4375 0.328125 
Q 47.65625 -1.421875 41.21875 -1.421875 
Q 24.65625 -1.421875 15.125 8.703125 
Q 5.609375 18.84375 5.609375 36.375 
Q 5.609375 53.953125 15.125 64.078125 
Q 24.65625 74.21875 41.21875 74.21875 
Q 47.75 74.21875 53.53125 72.484375 
Q 59.328125 70.75 64.40625 67.28125 
z
" id="DejaVuSans-67"/>
     <path d="M 9.8125 72.90625 
L 19.671875 72.90625 
L 19.671875 8.296875 
L 55.171875 8.296875 
L 55.171875 0 
L 9.8125 0 
z
" id="DejaVuSans-76"/>
    </defs>
    <g transform="translate(7.2 85.360825)scale(0.14 -0.14)">
     <use transform="translate(0 0.78125)" xlink:href="#DejaVuSans-67"/>
     <use transform="translate(69.824219 0.78125)" xlink:href="#DejaVuSans-76"/>
     <use transform="translate(125.537109 0.78125)" xlink:href="#DejaVuSans-75"/>
    </g>
   </g>
  </g>
 </g>
 <defs>
  <clipPath id="pab195cc752">
   <rect height="148.5954" width="254.178" x="22.821" y="7.2"/>
  </clipPath>
 </defs>
</svg>
