<?xml version="1.0" encoding="utf-8" standalone="no"?>
<!DOCTYPE svg PUBLIC "-//W3C//DTD SVG 1.1//EN"
  "http://www.w3.org/Graphics/SVG/1.1/DTD/svg11.dtd">
<!-- Created with matplotlib (http://matplotlib.org/) -->
<svg height="163pt" version="1.1" viewBox="0 0 289 163" width="289pt" xmlns="http://www.w3.org/2000/svg" xmlns:xlink="http://www.w3.org/1999/xlink">
 <defs>
  <style type="text/css">
*{stroke-linecap:butt;stroke-linejoin:round;stroke-miterlimit:100000;}
  </style>
 </defs>
 <g id="figure_1">
  <g id="patch_1">
   <path d="M 0 163.116 
L 289.42 163.116 
L 289.42 0 
L 0 0 
z
" style="fill:none;"/>
  </g>
  <g id="axes_1">
   <g id="patch_2">
    <path clip-path="url(#p3e940c9801)" d="M 174 58.608 
C 178.294859 58.608 182.418206 56.99494 185.45513 54.126734 
C 188.492054 51.258528 190.2 47.364256 190.2 43.308 
C 190.2 39.251744 188.492054 35.357472 185.45513 32.489266 
C 182.418206 29.62106 178.294859 28.008 174 28.008 
" style="fill:none;stroke:#000000;stroke-linejoin:miter;stroke-width:1.5;"/>
   </g>
   <g id="patch_3">
    <path clip-path="url(#p3e940c9801)" d="M 174 135.108 
C 178.294859 135.108 182.418206 133.49494 185.45513 130.626734 
C 188.492054 127.758528 190.2 123.864256 190.2 119.808 
C 190.2 115.751744 188.492054 111.857472 185.45513 108.989266 
C 182.418206 106.12106 178.294859 104.508 174 104.508 
" style="fill:none;stroke:#000000;stroke-linejoin:miter;stroke-width:1.5;"/>
   </g>
   <g id="patch_4">
    <path clip-path="url(#p3e940c9801)" d="M 97.86 50.958 
C 102.154859 50.958 106.278206 49.34494 109.31513 46.476734 
C 112.352054 43.608528 114.06 39.714256 114.06 35.658 
C 114.06 31.601744 112.352054 27.707472 109.31513 24.839266 
C 106.278206 21.97106 102.154859 20.358 97.86 20.358 
" style="fill:none;stroke:#000000;stroke-linejoin:miter;stroke-width:1.5;"/>
   </g>
   <g id="patch_5">
    <path clip-path="url(#p3e940c9801)" d="M 97.86 142.758 
C 102.154859 142.758 106.278206 141.14494 109.31513 138.276734 
C 112.352054 135.408528 114.06 131.514256 114.06 127.458 
C 114.06 123.401744 112.352054 119.507472 109.31513 116.639266 
C 106.278206 113.77106 102.154859 112.158 97.86 112.158 
" style="fill:none;stroke:#000000;stroke-linejoin:miter;stroke-width:1.5;"/>
   </g>
   <g id="line2d_1">
    <path clip-path="url(#p3e940c9801)" d="M 197.976 43.308 
L 201.54 43.308 
" style="fill:none;stroke:#000000;stroke-linecap:round;stroke-width:1.5;"/>
   </g>
   <g id="line2d_2">
    <path clip-path="url(#p3e940c9801)" d="M 152.94 43.308 
L 152.94 58.608 
L 174 58.608 
" style="fill:none;stroke:#000000;stroke-linecap:round;stroke-width:1.5;"/>
   </g>
   <g id="line2d_3">
    <path clip-path="url(#p3e940c9801)" d="M 152.94 43.308 
L 152.94 28.008 
L 174 28.008 
" style="fill:none;stroke:#000000;stroke-linecap:round;stroke-width:1.5;"/>
   </g>
   <g id="line2d_4">
    <path clip-path="url(#p3e940c9801)" d="M 141.6 50.958 
L 152.94 50.958 
" style="fill:none;stroke:#000000;stroke-linecap:round;stroke-width:1.5;"/>
   </g>
   <g id="line2d_5">
    <path clip-path="url(#p3e940c9801)" d="M 141.6 35.658 
L 152.94 35.658 
" style="fill:none;stroke:#000000;stroke-linecap:round;stroke-width:1.5;"/>
   </g>
   <g id="line2d_6">
    <path clip-path="url(#p3e940c9801)" d="M 201.54 43.308 
L 209.64 43.308 
L 217.74 43.308 
" style="fill:none;stroke:#000000;stroke-linecap:round;stroke-width:1.5;"/>
   </g>
   <g id="line2d_7">
    <path clip-path="url(#p3e940c9801)" d="M 217.74 43.308 
" style="fill:none;stroke:#000000;stroke-linecap:round;stroke-width:1.5;"/>
   </g>
   <g id="line2d_8">
    <path clip-path="url(#p3e940c9801)" d="M 217.74 43.308 
L 225.84 43.308 
L 233.94 43.308 
" style="fill:none;stroke:#000000;stroke-linecap:round;stroke-width:1.5;"/>
   </g>
   <g id="line2d_9">
    <path clip-path="url(#p3e940c9801)" d="M 233.94 43.308 
" style="fill:none;stroke:#000000;stroke-linecap:round;stroke-width:1.5;"/>
   </g>
   <g id="line2d_10">
    <path clip-path="url(#p3e940c9801)" d="M 233.94 43.308 
L 250.14 43.308 
L 266.34 43.308 
" style="fill:none;stroke:#000000;stroke-linecap:round;stroke-width:1.5;"/>
   </g>
   <g id="line2d_11">
    <path clip-path="url(#p3e940c9801)" d="M 197.976 119.808 
L 201.54 119.808 
" style="fill:none;stroke:#000000;stroke-linecap:round;stroke-width:1.5;"/>
   </g>
   <g id="line2d_12">
    <path clip-path="url(#p3e940c9801)" d="M 152.94 119.808 
L 152.94 135.108 
L 174 135.108 
" style="fill:none;stroke:#000000;stroke-linecap:round;stroke-width:1.5;"/>
   </g>
   <g id="line2d_13">
    <path clip-path="url(#p3e940c9801)" d="M 152.94 119.808 
L 152.94 104.508 
L 174 104.508 
" style="fill:none;stroke:#000000;stroke-linecap:round;stroke-width:1.5;"/>
   </g>
   <g id="line2d_14">
    <path clip-path="url(#p3e940c9801)" d="M 141.6 127.458 
L 152.94 127.458 
" style="fill:none;stroke:#000000;stroke-linecap:round;stroke-width:1.5;"/>
   </g>
   <g id="line2d_15">
    <path clip-path="url(#p3e940c9801)" d="M 141.6 112.158 
L 152.94 112.158 
" style="fill:none;stroke:#000000;stroke-linecap:round;stroke-width:1.5;"/>
   </g>
   <g id="line2d_16">
    <path clip-path="url(#p3e940c9801)" d="M 201.54 119.808 
L 209.64 119.808 
L 217.74 119.808 
" style="fill:none;stroke:#000000;stroke-linecap:round;stroke-width:1.5;"/>
   </g>
   <g id="line2d_17">
    <path clip-path="url(#p3e940c9801)" d="M 217.74 119.808 
" style="fill:none;stroke:#000000;stroke-linecap:round;stroke-width:1.5;"/>
   </g>
   <g id="line2d_18">
    <path clip-path="url(#p3e940c9801)" d="M 217.74 119.808 
L 233.94 119.808 
L 250.14 119.808 
" style="fill:none;stroke:#000000;stroke-linecap:round;stroke-width:1.5;"/>
   </g>
   <g id="line2d_19">
    <path clip-path="url(#p3e940c9801)" d="M 250.14 119.808 
" style="fill:none;stroke:#000000;stroke-linecap:round;stroke-width:1.5;"/>
   </g>
   <g id="line2d_20">
    <path clip-path="url(#p3e940c9801)" d="M 250.14 119.808 
L 258.24 119.808 
L 266.34 119.808 
" style="fill:none;stroke:#000000;stroke-linecap:round;stroke-width:1.5;"/>
   </g>
   <g id="line2d_21">
    <path clip-path="url(#p3e940c9801)" d="M 141.6 112.158 
L 141.6 104.508 
L 141.6 96.858 
" style="fill:none;stroke:#000000;stroke-linecap:round;stroke-width:1.5;"/>
   </g>
   <g id="line2d_22">
    <path clip-path="url(#p3e940c9801)" d="M 217.74 43.308 
L 217.74 50.958 
L 217.74 58.608 
" style="fill:none;stroke:#000000;stroke-linecap:round;stroke-width:1.5;"/>
   </g>
   <g id="line2d_23">
    <path clip-path="url(#p3e940c9801)" d="M 217.74 58.608 
L 179.67 77.733 
L 141.6 96.858 
" style="fill:none;stroke:#000000;stroke-linecap:round;stroke-width:1.5;"/>
   </g>
   <g id="line2d_24">
    <path clip-path="url(#p3e940c9801)" d="M 141.6 50.958 
L 141.6 58.608 
L 141.6 66.258 
" style="fill:none;stroke:#000000;stroke-linecap:round;stroke-width:1.5;"/>
   </g>
   <g id="line2d_25">
    <path clip-path="url(#p3e940c9801)" d="M 217.74 119.808 
L 217.74 112.158 
L 217.74 104.508 
" style="fill:none;stroke:#000000;stroke-linecap:round;stroke-width:1.5;"/>
   </g>
   <g id="line2d_26">
    <path clip-path="url(#p3e940c9801)" d="M 217.74 104.508 
L 179.67 85.383 
L 141.6 66.258 
" style="fill:none;stroke:#000000;stroke-linecap:round;stroke-width:1.5;"/>
   </g>
   <g id="line2d_27">
    <path clip-path="url(#p3e940c9801)" d="M 141.6 35.658 
L 133.5 35.658 
L 125.4 35.658 
" style="fill:none;stroke:#000000;stroke-linecap:round;stroke-width:1.5;"/>
   </g>
   <g id="line2d_28">
    <path clip-path="url(#p3e940c9801)" d="M 121.836 35.658 
L 125.4 35.658 
" style="fill:none;stroke:#000000;stroke-linecap:round;stroke-width:1.5;"/>
   </g>
   <g id="line2d_29">
    <path clip-path="url(#p3e940c9801)" d="M 76.8 35.658 
L 76.8 20.358 
L 97.86 20.358 
" style="fill:none;stroke:#000000;stroke-linecap:round;stroke-width:1.5;"/>
   </g>
   <g id="line2d_30">
    <path clip-path="url(#p3e940c9801)" d="M 76.8 35.658 
L 76.8 50.958 
L 97.86 50.958 
" style="fill:none;stroke:#000000;stroke-linecap:round;stroke-width:1.5;"/>
   </g>
   <g id="line2d_31">
    <path clip-path="url(#p3e940c9801)" d="M 65.46 25.56 
L 76.8 25.56 
" style="fill:none;stroke:#000000;stroke-linecap:round;stroke-width:1.5;"/>
   </g>
   <g id="line2d_32">
    <path clip-path="url(#p3e940c9801)" d="M 65.46 35.658 
L 76.8 35.658 
" style="fill:none;stroke:#000000;stroke-linecap:round;stroke-width:1.5;"/>
   </g>
   <g id="line2d_33">
    <path clip-path="url(#p3e940c9801)" d="M 65.46 45.756 
L 76.8 45.756 
" style="fill:none;stroke:#000000;stroke-linecap:round;stroke-width:1.5;"/>
   </g>
   <g id="line2d_34">
    <path clip-path="url(#p3e940c9801)" d="M 65.46 25.56 
L 65.46 17.91 
L 65.46 10.26 
" style="fill:none;stroke:#000000;stroke-linecap:round;stroke-width:1.5;"/>
   </g>
   <g id="line2d_35">
    <path clip-path="url(#p3e940c9801)" d="M 65.46 10.26 
L 157.8 10.26 
L 250.14 10.26 
" style="fill:none;stroke:#000000;stroke-linecap:round;stroke-width:1.5;"/>
   </g>
   <g id="line2d_36">
    <path clip-path="url(#p3e940c9801)" d="M 250.14 10.26 
L 250.14 65.034 
L 250.14 119.808 
" style="fill:none;stroke:#000000;stroke-linecap:round;stroke-width:1.5;"/>
   </g>
   <g id="line2d_37">
    <path clip-path="url(#p3e940c9801)" d="M 65.46 35.658 
L 53.31 35.658 
L 41.16 35.658 
" style="fill:none;stroke:#000000;stroke-linecap:round;stroke-width:1.5;"/>
   </g>
   <g id="line2d_38">
    <path clip-path="url(#p3e940c9801)" d="M 141.6 127.458 
L 133.5 127.458 
L 125.4 127.458 
" style="fill:none;stroke:#000000;stroke-linecap:round;stroke-width:1.5;"/>
   </g>
   <g id="line2d_39">
    <path clip-path="url(#p3e940c9801)" d="M 121.836 127.458 
L 125.4 127.458 
" style="fill:none;stroke:#000000;stroke-linecap:round;stroke-width:1.5;"/>
   </g>
   <g id="line2d_40">
    <path clip-path="url(#p3e940c9801)" d="M 76.8 127.458 
L 76.8 112.158 
L 97.86 112.158 
" style="fill:none;stroke:#000000;stroke-linecap:round;stroke-width:1.5;"/>
   </g>
   <g id="line2d_41">
    <path clip-path="url(#p3e940c9801)" d="M 76.8 127.458 
L 76.8 142.758 
L 97.86 142.758 
" style="fill:none;stroke:#000000;stroke-linecap:round;stroke-width:1.5;"/>
   </g>
   <g id="line2d_42">
    <path clip-path="url(#p3e940c9801)" d="M 65.46 117.36 
L 76.8 117.36 
" style="fill:none;stroke:#000000;stroke-linecap:round;stroke-width:1.5;"/>
   </g>
   <g id="line2d_43">
    <path clip-path="url(#p3e940c9801)" d="M 65.46 127.458 
L 76.8 127.458 
" style="fill:none;stroke:#000000;stroke-linecap:round;stroke-width:1.5;"/>
   </g>
   <g id="line2d_44">
    <path clip-path="url(#p3e940c9801)" d="M 65.46 137.556 
L 76.8 137.556 
" style="fill:none;stroke:#000000;stroke-linecap:round;stroke-width:1.5;"/>
   </g>
   <g id="line2d_45">
    <path clip-path="url(#p3e940c9801)" d="M 65.46 137.556 
L 65.46 145.206 
L 65.46 152.856 
" style="fill:none;stroke:#000000;stroke-linecap:round;stroke-width:1.5;"/>
   </g>
   <g id="line2d_46">
    <path clip-path="url(#p3e940c9801)" d="M 65.46 152.856 
L 149.7 152.856 
L 233.94 152.856 
" style="fill:none;stroke:#000000;stroke-linecap:round;stroke-width:1.5;"/>
   </g>
   <g id="line2d_47">
    <path clip-path="url(#p3e940c9801)" d="M 233.94 152.856 
L 233.94 98.082 
L 233.94 43.308 
" style="fill:none;stroke:#000000;stroke-linecap:round;stroke-width:1.5;"/>
   </g>
   <g id="line2d_48">
    <path clip-path="url(#p3e940c9801)" d="M 65.46 127.458 
L 53.31 127.458 
L 41.16 127.458 
" style="fill:none;stroke:#000000;stroke-linecap:round;stroke-width:1.5;"/>
   </g>
   <g id="line2d_49">
    <path clip-path="url(#p3e940c9801)" d="M 65.46 45.756 
L 65.46 81.558 
L 65.46 117.36 
" style="fill:none;stroke:#000000;stroke-linecap:round;stroke-width:1.5;"/>
   </g>
   <g id="line2d_50">
    <path clip-path="url(#p3e940c9801)" d="M 65.46 81.558 
" style="fill:none;stroke:#000000;stroke-linecap:round;stroke-width:1.5;"/>
   </g>
   <g id="line2d_51">
    <path clip-path="url(#p3e940c9801)" d="M 65.46 81.558 
L 53.31 81.558 
L 41.16 81.558 
" style="fill:none;stroke:#000000;stroke-linecap:round;stroke-width:1.5;"/>
   </g>
   <g id="patch_6">
    <path clip-path="url(#p3e940c9801)" d="M 194.088 46.98 
C 195.11911 46.98 196.108127 46.593095 196.837231 45.904496 
C 197.566336 45.215897 197.976 44.281826 197.976 43.308 
C 197.976 42.334174 197.566336 41.400103 196.837231 40.711504 
C 196.108127 40.022905 195.11911 39.636 194.088 39.636 
C 193.05689 39.636 192.067873 40.022905 191.338769 40.711504 
C 190.609664 41.400103 190.2 42.334174 190.2 43.308 
C 190.2 44.281826 190.609664 45.215897 191.338769 45.904496 
C 192.067873 46.593095 193.05689 46.98 194.088 46.98 
z
" style="fill:none;stroke:#000000;stroke-linejoin:miter;stroke-width:1.5;"/>
   </g>
   <g id="patch_7">
    <path clip-path="url(#p3e940c9801)" d="M 217.74 45.603 
C 218.384444 45.603 219.002579 45.361184 219.458269 44.93081 
C 219.91396 44.500436 220.17 43.916641 220.17 43.308 
C 220.17 42.699359 219.91396 42.115564 219.458269 41.68519 
C 219.002579 41.254816 218.384444 41.013 217.74 41.013 
C 217.095556 41.013 216.477421 41.254816 216.021731 41.68519 
C 215.56604 42.115564 215.31 42.699359 215.31 43.308 
C 215.31 43.916641 215.56604 44.500436 216.021731 44.93081 
C 216.477421 45.361184 217.095556 45.603 217.74 45.603 
z
" style="stroke:#000000;stroke-linejoin:miter;stroke-width:1.5;"/>
   </g>
   <g id="patch_8">
    <path clip-path="url(#p3e940c9801)" d="M 233.94 45.603 
C 234.584444 45.603 235.202579 45.361184 235.658269 44.93081 
C 236.11396 44.500436 236.37 43.916641 236.37 43.308 
C 236.37 42.699359 236.11396 42.115564 235.658269 41.68519 
C 235.202579 41.254816 234.584444 41.013 233.94 41.013 
C 233.295556 41.013 232.677421 41.254816 232.221731 41.68519 
C 231.76604 42.115564 231.51 42.699359 231.51 43.308 
C 231.51 43.916641 231.76604 44.500436 232.221731 44.93081 
C 232.677421 45.361184 233.295556 45.603 233.94 45.603 
z
" style="stroke:#000000;stroke-linejoin:miter;stroke-width:1.5;"/>
   </g>
   <g id="patch_9">
    <path clip-path="url(#p3e940c9801)" d="M 194.088 123.48 
C 195.11911 123.48 196.108127 123.093095 196.837231 122.404496 
C 197.566336 121.715897 197.976 120.781826 197.976 119.808 
C 197.976 118.834174 197.566336 117.900103 196.837231 117.211504 
C 196.108127 116.522905 195.11911 116.136 194.088 116.136 
C 193.05689 116.136 192.067873 116.522905 191.338769 117.211504 
C 190.609664 117.900103 190.2 118.834174 190.2 119.808 
C 190.2 120.781826 190.609664 121.715897 191.338769 122.404496 
C 192.067873 123.093095 193.05689 123.48 194.088 123.48 
z
" style="fill:none;stroke:#000000;stroke-linejoin:miter;stroke-width:1.5;"/>
   </g>
   <g id="patch_10">
    <path clip-path="url(#p3e940c9801)" d="M 217.74 122.103 
C 218.384444 122.103 219.002579 121.861184 219.458269 121.43081 
C 219.91396 121.000436 220.17 120.416641 220.17 119.808 
C 220.17 119.199359 219.91396 118.615564 219.458269 118.18519 
C 219.002579 117.754816 218.384444 117.513 217.74 117.513 
C 217.095556 117.513 216.477421 117.754816 216.021731 118.18519 
C 215.56604 118.615564 215.31 119.199359 215.31 119.808 
C 215.31 120.416641 215.56604 121.000436 216.021731 121.43081 
C 216.477421 121.861184 217.095556 122.103 217.74 122.103 
z
" style="stroke:#000000;stroke-linejoin:miter;stroke-width:1.5;"/>
   </g>
   <g id="patch_11">
    <path clip-path="url(#p3e940c9801)" d="M 250.14 122.103 
C 250.784444 122.103 251.402579 121.861184 251.858269 121.43081 
C 252.31396 121.000436 252.57 120.416641 252.57 119.808 
C 252.57 119.199359 252.31396 118.615564 251.858269 118.18519 
C 251.402579 117.754816 250.784444 117.513 250.14 117.513 
C 249.495556 117.513 248.877421 117.754816 248.421731 118.18519 
C 247.96604 118.615564 247.71 119.199359 247.71 119.808 
C 247.71 120.416641 247.96604 121.000436 248.421731 121.43081 
C 248.877421 121.861184 249.495556 122.103 250.14 122.103 
z
" style="stroke:#000000;stroke-linejoin:miter;stroke-width:1.5;"/>
   </g>
   <g id="patch_12">
    <path clip-path="url(#p3e940c9801)" d="M 117.948 39.33 
C 118.97911 39.33 119.968127 38.943095 120.697231 38.254496 
C 121.426336 37.565897 121.836 36.631826 121.836 35.658 
C 121.836 34.684174 121.426336 33.750103 120.697231 33.061504 
C 119.968127 32.372905 118.97911 31.986 117.948 31.986 
C 116.91689 31.986 115.927873 32.372905 115.198769 33.061504 
C 114.469664 33.750103 114.06 34.684174 114.06 35.658 
C 114.06 36.631826 114.469664 37.565897 115.198769 38.254496 
C 115.927873 38.943095 116.91689 39.33 117.948 39.33 
z
" style="fill:none;stroke:#000000;stroke-linejoin:miter;stroke-width:1.5;"/>
   </g>
   <g id="patch_13">
    <path clip-path="url(#p3e940c9801)" d="M 117.948 131.13 
C 118.97911 131.13 119.968127 130.743095 120.697231 130.054496 
C 121.426336 129.365897 121.836 128.431826 121.836 127.458 
C 121.836 126.484174 121.426336 125.550103 120.697231 124.861504 
C 119.968127 124.172905 118.97911 123.786 117.948 123.786 
C 116.91689 123.786 115.927873 124.172905 115.198769 124.861504 
C 114.469664 125.550103 114.06 126.484174 114.06 127.458 
C 114.06 128.431826 114.469664 129.365897 115.198769 130.054496 
C 115.927873 130.743095 116.91689 131.13 117.948 131.13 
z
" style="fill:none;stroke:#000000;stroke-linejoin:miter;stroke-width:1.5;"/>
   </g>
   <g id="patch_14">
    <path clip-path="url(#p3e940c9801)" d="M 65.46 83.853 
C 66.104444 83.853 66.722579 83.611184 67.178269 83.18081 
C 67.63396 82.750436 67.89 82.166641 67.89 81.558 
C 67.89 80.949359 67.63396 80.365564 67.178269 79.93519 
C 66.722579 79.504816 66.104444 79.263 65.46 79.263 
C 64.815556 79.263 64.197421 79.504816 63.741731 79.93519 
C 63.28604 80.365564 63.03 80.949359 63.03 81.558 
C 63.03 82.166641 63.28604 82.750436 63.741731 83.18081 
C 64.197421 83.611184 64.815556 83.853 65.46 83.853 
z
" style="stroke:#000000;stroke-linejoin:miter;stroke-width:1.5;"/>
   </g>
   <g id="text_1">
    <!-- $Q$ -->
    <defs>
     <path d="M 39.40625 66.21875 
Q 28.65625 66.21875 22.328125 58.203125 
Q 16.015625 50.203125 16.015625 36.375 
Q 16.015625 22.609375 22.328125 14.59375 
Q 28.65625 6.59375 39.40625 6.59375 
Q 50.140625 6.59375 56.421875 14.59375 
Q 62.703125 22.609375 62.703125 36.375 
Q 62.703125 50.203125 56.421875 58.203125 
Q 50.140625 66.21875 39.40625 66.21875 
M 53.21875 1.3125 
L 66.21875 -12.890625 
L 54.296875 -12.890625 
L 43.5 -1.21875 
Q 41.890625 -1.3125 41.03125 -1.359375 
Q 40.1875 -1.421875 39.40625 -1.421875 
Q 24.03125 -1.421875 14.8125 8.859375 
Q 5.609375 19.140625 5.609375 36.375 
Q 5.609375 53.65625 14.8125 63.9375 
Q 24.03125 74.21875 39.40625 74.21875 
Q 54.734375 74.21875 63.90625 63.9375 
Q 73.09375 53.65625 73.09375 36.375 
Q 73.09375 23.6875 67.984375 14.640625 
Q 62.890625 5.609375 53.21875 1.3125 
" id="BitstreamVeraSans-Roman-51"/>
    </defs>
    <g transform="translate(269.58 47.723)scale(0.16 -0.16)">
     <use transform="translate(0.0 0.78125)" xlink:href="#BitstreamVeraSans-Roman-51"/>
    </g>
   </g>
   <g id="text_2">
    <!-- $\overline{Q}$ -->
    <g transform="translate(269.58 125.4405)scale(0.16 -0.16)">
     <use transform="translate(0.0 0.53125)" xlink:href="#BitstreamVeraSans-Roman-51"/>
     <path d="M 0 86.5 
L 0 92.75 
L 78.710938 92.75 
L 78.710938 86.5 
L 0 86.5 
z
"/>
    </g>
   </g>
   <g id="text_3">
    <!-- $J$ -->
    <defs>
     <path d="M 9.8125 72.90625 
L 19.671875 72.90625 
L 19.671875 5.078125 
Q 19.671875 -8.109375 14.671875 -14.0625 
Q 9.671875 -20.015625 -1.421875 -20.015625 
L -5.171875 -20.015625 
L -5.171875 -11.71875 
L -2.09375 -11.71875 
Q 4.4375 -11.71875 7.125 -8.046875 
Q 9.8125 -4.390625 9.8125 5.078125 
z
" id="BitstreamVeraSans-Roman-4a"/>
    </defs>
    <g transform="translate(33.12 40.0405)scale(0.16 -0.16)">
     <use transform="translate(0.0 0.09375)" xlink:href="#BitstreamVeraSans-Roman-4a"/>
    </g>
   </g>
   <g id="text_4">
    <!-- $K$ -->
    <defs>
     <path d="M 9.8125 72.90625 
L 19.671875 72.90625 
L 19.671875 42.09375 
L 52.390625 72.90625 
L 65.09375 72.90625 
L 28.90625 38.921875 
L 67.671875 0 
L 54.6875 0 
L 19.671875 35.109375 
L 19.671875 0 
L 9.8125 0 
z
" id="BitstreamVeraSans-Roman-4b"/>
    </defs>
    <g transform="translate(27.36 131.873)scale(0.16 -0.16)">
     <use transform="translate(0.0 0.09375)" xlink:href="#BitstreamVeraSans-Roman-4b"/>
    </g>
   </g>
   <g id="text_5">
    <!-- $CLK$ -->
    <defs>
     <path d="M 9.8125 72.90625 
L 19.671875 72.90625 
L 19.671875 8.296875 
L 55.171875 8.296875 
L 55.171875 0 
L 9.8125 0 
z
" id="BitstreamVeraSans-Roman-4c"/>
     <path d="M 64.40625 67.28125 
L 64.40625 56.890625 
Q 59.421875 61.53125 53.78125 63.8125 
Q 48.140625 66.109375 41.796875 66.109375 
Q 29.296875 66.109375 22.65625 58.46875 
Q 16.015625 50.828125 16.015625 36.375 
Q 16.015625 21.96875 22.65625 14.328125 
Q 29.296875 6.6875 41.796875 6.6875 
Q 48.140625 6.6875 53.78125 8.984375 
Q 59.421875 11.28125 64.40625 15.921875 
L 64.40625 5.609375 
Q 59.234375 2.09375 53.4375 0.328125 
Q 47.65625 -1.421875 41.21875 -1.421875 
Q 24.65625 -1.421875 15.125 8.703125 
Q 5.609375 18.84375 5.609375 36.375 
Q 5.609375 53.953125 15.125 64.078125 
Q 24.65625 74.21875 41.21875 74.21875 
Q 47.75 74.21875 53.53125 72.484375 
Q 59.328125 70.75 64.40625 67.28125 
" id="BitstreamVeraSans-Roman-43"/>
    </defs>
    <g transform="translate(7.2 85.973)scale(0.16 -0.16)">
     <use transform="translate(0.0 0.78125)" xlink:href="#BitstreamVeraSans-Roman-43"/>
     <use transform="translate(69.82421875 0.78125)" xlink:href="#BitstreamVeraSans-Roman-4c"/>
     <use transform="translate(125.537109375 0.78125)" xlink:href="#BitstreamVeraSans-Roman-4b"/>
    </g>
   </g>
  </g>
 </g>
 <defs>
  <clipPath id="p3e940c9801">
   <rect height="148.716" width="231.66" x="37.92" y="7.2"/>
  </clipPath>
 </defs>
</svg>
