<?xml version="1.0" encoding="utf-8" standalone="no"?>
<!DOCTYPE svg PUBLIC "-//W3C//DTD SVG 1.1//EN"
  "http://www.w3.org/Graphics/SVG/1.1/DTD/svg11.dtd">
<!-- Created with matplotlib (http://matplotlib.org/) -->
<svg height="184pt" version="1.1" viewBox="0 0 291 184" width="291pt" xmlns="http://www.w3.org/2000/svg" xmlns:xlink="http://www.w3.org/1999/xlink">
 <defs>
  <style type="text/css">
*{stroke-linecap:butt;stroke-linejoin:round;}
  </style>
 </defs>
 <g id="figure_1">
  <g id="patch_1">
   <path d="M 0 184.3756 
L 291.539 184.3756 
L 291.539 0 
L 0 0 
z
" style="fill:none;"/>
  </g>
  <g id="axes_1">
   <g id="patch_2">
    <path clip-path="url(#p6215633ae8)" d="M 174 69.2378 
C 178.294859 69.2378 182.418206 67.62474 185.45513 64.756534 
C 188.492054 61.888328 190.2 57.994056 190.2 53.9378 
C 190.2 49.881544 188.492054 45.987272 185.45513 43.119066 
C 182.418206 40.25086 178.294859 38.6378 174 38.6378 
" style="fill:none;stroke:#000000;stroke-linejoin:miter;stroke-width:1.5;"/>
   </g>
   <g id="patch_3">
    <path clip-path="url(#p6215633ae8)" d="M 174 145.7378 
C 178.294859 145.7378 182.418206 144.12474 185.45513 141.256534 
C 188.492054 138.388328 190.2 134.494056 190.2 130.4378 
C 190.2 126.381544 188.492054 122.487272 185.45513 119.619066 
C 182.418206 116.75086 178.294859 115.1378 174 115.1378 
" style="fill:none;stroke:#000000;stroke-linejoin:miter;stroke-width:1.5;"/>
   </g>
   <g id="patch_4">
    <path clip-path="url(#p6215633ae8)" d="M 97.86 61.5878 
C 102.154859 61.5878 106.278206 59.97474 109.31513 57.106534 
C 112.352054 54.238328 114.06 50.344056 114.06 46.2878 
C 114.06 42.231544 112.352054 38.337272 109.31513 35.469066 
C 106.278206 32.60086 102.154859 30.9878 97.86 30.9878 
" style="fill:none;stroke:#000000;stroke-linejoin:miter;stroke-width:1.5;"/>
   </g>
   <g id="patch_5">
    <path clip-path="url(#p6215633ae8)" d="M 97.86 153.3878 
C 102.154859 153.3878 106.278206 151.77474 109.31513 148.906534 
C 112.352054 146.038328 114.06 142.144056 114.06 138.0878 
C 114.06 134.031544 112.352054 130.137272 109.31513 127.269066 
C 106.278206 124.40086 102.154859 122.7878 97.86 122.7878 
" style="fill:none;stroke:#000000;stroke-linejoin:miter;stroke-width:1.5;"/>
   </g>
   <g id="line2d_1">
    <path clip-path="url(#p6215633ae8)" d="M 141.6 53.9378 
M 197.976 53.9378 
L 201.54 53.9378 
" style="fill:none;stroke:#000000;stroke-linecap:round;stroke-width:1.5;"/>
   </g>
   <g id="line2d_2">
    <path clip-path="url(#p6215633ae8)" d="M 152.94 53.9378 
L 152.94 69.2378 
L 174 69.2378 
" style="fill:none;stroke:#000000;stroke-linecap:round;stroke-width:1.5;"/>
   </g>
   <g id="line2d_3">
    <path clip-path="url(#p6215633ae8)" d="M 152.94 53.9378 
L 152.94 38.6378 
L 174 38.6378 
" style="fill:none;stroke:#000000;stroke-linecap:round;stroke-width:1.5;"/>
   </g>
   <g id="line2d_4">
    <path clip-path="url(#p6215633ae8)" d="M 141.6 61.5878 
L 152.94 61.5878 
" style="fill:none;stroke:#000000;stroke-linecap:round;stroke-width:1.5;"/>
   </g>
   <g id="line2d_5">
    <path clip-path="url(#p6215633ae8)" d="M 141.6 46.2878 
L 152.94 46.2878 
" style="fill:none;stroke:#000000;stroke-linecap:round;stroke-width:1.5;"/>
   </g>
   <g id="line2d_6">
    <path clip-path="url(#p6215633ae8)" d="M 201.54 53.9378 
L 209.64 53.9378 
L 217.74 53.9378 
" style="fill:none;stroke:#000000;stroke-linecap:round;stroke-width:1.5;"/>
   </g>
   <g id="line2d_7">
    <path clip-path="url(#p6215633ae8)" d="M 217.74 53.9378 
" style="fill:none;stroke:#000000;stroke-linecap:round;stroke-width:1.5;"/>
   </g>
   <g id="line2d_8">
    <path clip-path="url(#p6215633ae8)" d="M 217.74 53.9378 
L 225.84 53.9378 
L 233.94 53.9378 
" style="fill:none;stroke:#000000;stroke-linecap:round;stroke-width:1.5;"/>
   </g>
   <g id="line2d_9">
    <path clip-path="url(#p6215633ae8)" d="M 233.94 53.9378 
" style="fill:none;stroke:#000000;stroke-linecap:round;stroke-width:1.5;"/>
   </g>
   <g id="line2d_10">
    <path clip-path="url(#p6215633ae8)" d="M 233.94 53.9378 
L 250.14 53.9378 
L 266.34 53.9378 
" style="fill:none;stroke:#000000;stroke-linecap:round;stroke-width:1.5;"/>
   </g>
   <g id="line2d_11">
    <path clip-path="url(#p6215633ae8)" d="M 141.6 130.4378 
M 197.976 130.4378 
L 201.54 130.4378 
" style="fill:none;stroke:#000000;stroke-linecap:round;stroke-width:1.5;"/>
   </g>
   <g id="line2d_12">
    <path clip-path="url(#p6215633ae8)" d="M 152.94 130.4378 
L 152.94 145.7378 
L 174 145.7378 
" style="fill:none;stroke:#000000;stroke-linecap:round;stroke-width:1.5;"/>
   </g>
   <g id="line2d_13">
    <path clip-path="url(#p6215633ae8)" d="M 152.94 130.4378 
L 152.94 115.1378 
L 174 115.1378 
" style="fill:none;stroke:#000000;stroke-linecap:round;stroke-width:1.5;"/>
   </g>
   <g id="line2d_14">
    <path clip-path="url(#p6215633ae8)" d="M 141.6 138.0878 
L 152.94 138.0878 
" style="fill:none;stroke:#000000;stroke-linecap:round;stroke-width:1.5;"/>
   </g>
   <g id="line2d_15">
    <path clip-path="url(#p6215633ae8)" d="M 141.6 122.7878 
L 152.94 122.7878 
" style="fill:none;stroke:#000000;stroke-linecap:round;stroke-width:1.5;"/>
   </g>
   <g id="line2d_16">
    <path clip-path="url(#p6215633ae8)" d="M 201.54 130.4378 
L 209.64 130.4378 
L 217.74 130.4378 
" style="fill:none;stroke:#000000;stroke-linecap:round;stroke-width:1.5;"/>
   </g>
   <g id="line2d_17">
    <path clip-path="url(#p6215633ae8)" d="M 217.74 130.4378 
" style="fill:none;stroke:#000000;stroke-linecap:round;stroke-width:1.5;"/>
   </g>
   <g id="line2d_18">
    <path clip-path="url(#p6215633ae8)" d="M 217.74 130.4378 
L 233.94 130.4378 
L 250.14 130.4378 
" style="fill:none;stroke:#000000;stroke-linecap:round;stroke-width:1.5;"/>
   </g>
   <g id="line2d_19">
    <path clip-path="url(#p6215633ae8)" d="M 250.14 130.4378 
" style="fill:none;stroke:#000000;stroke-linecap:round;stroke-width:1.5;"/>
   </g>
   <g id="line2d_20">
    <path clip-path="url(#p6215633ae8)" d="M 250.14 130.4378 
L 258.24 130.4378 
L 266.34 130.4378 
" style="fill:none;stroke:#000000;stroke-linecap:round;stroke-width:1.5;"/>
   </g>
   <g id="line2d_21">
    <path clip-path="url(#p6215633ae8)" d="M 141.6 122.7878 
L 141.6 115.1378 
L 141.6 107.4878 
" style="fill:none;stroke:#000000;stroke-linecap:round;stroke-width:1.5;"/>
   </g>
   <g id="line2d_22">
    <path clip-path="url(#p6215633ae8)" d="M 217.74 53.9378 
L 217.74 61.5878 
L 217.74 69.2378 
" style="fill:none;stroke:#000000;stroke-linecap:round;stroke-width:1.5;"/>
   </g>
   <g id="line2d_23">
    <path clip-path="url(#p6215633ae8)" d="M 217.74 69.2378 
L 179.67 88.3628 
L 141.6 107.4878 
" style="fill:none;stroke:#000000;stroke-linecap:round;stroke-width:1.5;"/>
   </g>
   <g id="line2d_24">
    <path clip-path="url(#p6215633ae8)" d="M 141.6 61.5878 
L 141.6 69.2378 
L 141.6 76.8878 
" style="fill:none;stroke:#000000;stroke-linecap:round;stroke-width:1.5;"/>
   </g>
   <g id="line2d_25">
    <path clip-path="url(#p6215633ae8)" d="M 217.74 130.4378 
L 217.74 122.7878 
L 217.74 115.1378 
" style="fill:none;stroke:#000000;stroke-linecap:round;stroke-width:1.5;"/>
   </g>
   <g id="line2d_26">
    <path clip-path="url(#p6215633ae8)" d="M 217.74 115.1378 
L 179.67 96.0128 
L 141.6 76.8878 
" style="fill:none;stroke:#000000;stroke-linecap:round;stroke-width:1.5;"/>
   </g>
   <g id="line2d_27">
    <path clip-path="url(#p6215633ae8)" d="M 141.6 46.2878 
L 133.5 46.2878 
L 125.4 46.2878 
" style="fill:none;stroke:#000000;stroke-linecap:round;stroke-width:1.5;"/>
   </g>
   <g id="line2d_28">
    <path clip-path="url(#p6215633ae8)" d="M 65.46 46.2878 
M 121.836 46.2878 
L 125.4 46.2878 
" style="fill:none;stroke:#000000;stroke-linecap:round;stroke-width:1.5;"/>
   </g>
   <g id="line2d_29">
    <path clip-path="url(#p6215633ae8)" d="M 76.8 46.2878 
L 76.8 30.9878 
L 97.86 30.9878 
" style="fill:none;stroke:#000000;stroke-linecap:round;stroke-width:1.5;"/>
   </g>
   <g id="line2d_30">
    <path clip-path="url(#p6215633ae8)" d="M 76.8 46.2878 
L 76.8 61.5878 
L 97.86 61.5878 
" style="fill:none;stroke:#000000;stroke-linecap:round;stroke-width:1.5;"/>
   </g>
   <g id="line2d_31">
    <path clip-path="url(#p6215633ae8)" d="M 65.46 36.1898 
L 76.8 36.1898 
" style="fill:none;stroke:#000000;stroke-linecap:round;stroke-width:1.5;"/>
   </g>
   <g id="line2d_32">
    <path clip-path="url(#p6215633ae8)" d="M 65.46 46.2878 
L 76.8 46.2878 
" style="fill:none;stroke:#000000;stroke-linecap:round;stroke-width:1.5;"/>
   </g>
   <g id="line2d_33">
    <path clip-path="url(#p6215633ae8)" d="M 65.46 56.3858 
L 76.8 56.3858 
" style="fill:none;stroke:#000000;stroke-linecap:round;stroke-width:1.5;"/>
   </g>
   <g id="line2d_34">
    <path clip-path="url(#p6215633ae8)" d="M 65.46 36.1898 
L 65.46 28.5398 
L 65.46 20.8898 
" style="fill:none;stroke:#000000;stroke-linecap:round;stroke-width:1.5;"/>
   </g>
   <g id="line2d_35">
    <path clip-path="url(#p6215633ae8)" d="M 65.46 20.8898 
L 157.8 20.8898 
L 250.14 20.8898 
" style="fill:none;stroke:#000000;stroke-linecap:round;stroke-width:1.5;"/>
   </g>
   <g id="line2d_36">
    <path clip-path="url(#p6215633ae8)" d="M 250.14 20.8898 
L 250.14 75.6638 
L 250.14 130.4378 
" style="fill:none;stroke:#000000;stroke-linecap:round;stroke-width:1.5;"/>
   </g>
   <g id="line2d_37">
    <path clip-path="url(#p6215633ae8)" d="M 65.46 46.2878 
L 53.31 46.2878 
L 41.16 46.2878 
" style="fill:none;stroke:#000000;stroke-linecap:round;stroke-width:1.5;"/>
   </g>
   <g id="line2d_38">
    <path clip-path="url(#p6215633ae8)" d="M 141.6 138.0878 
L 133.5 138.0878 
L 125.4 138.0878 
" style="fill:none;stroke:#000000;stroke-linecap:round;stroke-width:1.5;"/>
   </g>
   <g id="line2d_39">
    <path clip-path="url(#p6215633ae8)" d="M 65.46 138.0878 
M 121.836 138.0878 
L 125.4 138.0878 
" style="fill:none;stroke:#000000;stroke-linecap:round;stroke-width:1.5;"/>
   </g>
   <g id="line2d_40">
    <path clip-path="url(#p6215633ae8)" d="M 76.8 138.0878 
L 76.8 122.7878 
L 97.86 122.7878 
" style="fill:none;stroke:#000000;stroke-linecap:round;stroke-width:1.5;"/>
   </g>
   <g id="line2d_41">
    <path clip-path="url(#p6215633ae8)" d="M 76.8 138.0878 
L 76.8 153.3878 
L 97.86 153.3878 
" style="fill:none;stroke:#000000;stroke-linecap:round;stroke-width:1.5;"/>
   </g>
   <g id="line2d_42">
    <path clip-path="url(#p6215633ae8)" d="M 65.46 127.9898 
L 76.8 127.9898 
" style="fill:none;stroke:#000000;stroke-linecap:round;stroke-width:1.5;"/>
   </g>
   <g id="line2d_43">
    <path clip-path="url(#p6215633ae8)" d="M 65.46 138.0878 
L 76.8 138.0878 
" style="fill:none;stroke:#000000;stroke-linecap:round;stroke-width:1.5;"/>
   </g>
   <g id="line2d_44">
    <path clip-path="url(#p6215633ae8)" d="M 65.46 148.1858 
L 76.8 148.1858 
" style="fill:none;stroke:#000000;stroke-linecap:round;stroke-width:1.5;"/>
   </g>
   <g id="line2d_45">
    <path clip-path="url(#p6215633ae8)" d="M 65.46 148.1858 
L 65.46 155.8358 
L 65.46 163.4858 
" style="fill:none;stroke:#000000;stroke-linecap:round;stroke-width:1.5;"/>
   </g>
   <g id="line2d_46">
    <path clip-path="url(#p6215633ae8)" d="M 65.46 163.4858 
L 149.7 163.4858 
L 233.94 163.4858 
" style="fill:none;stroke:#000000;stroke-linecap:round;stroke-width:1.5;"/>
   </g>
   <g id="line2d_47">
    <path clip-path="url(#p6215633ae8)" d="M 233.94 163.4858 
L 233.94 108.7118 
L 233.94 53.9378 
" style="fill:none;stroke:#000000;stroke-linecap:round;stroke-width:1.5;"/>
   </g>
   <g id="line2d_48">
    <path clip-path="url(#p6215633ae8)" d="M 65.46 138.0878 
L 53.31 138.0878 
L 41.16 138.0878 
" style="fill:none;stroke:#000000;stroke-linecap:round;stroke-width:1.5;"/>
   </g>
   <g id="line2d_49">
    <path clip-path="url(#p6215633ae8)" d="M 65.46 56.3858 
L 65.46 92.1878 
L 65.46 127.9898 
" style="fill:none;stroke:#000000;stroke-linecap:round;stroke-width:1.5;"/>
   </g>
   <g id="line2d_50">
    <path clip-path="url(#p6215633ae8)" d="M 65.46 92.1878 
" style="fill:none;stroke:#000000;stroke-linecap:round;stroke-width:1.5;"/>
   </g>
   <g id="line2d_51">
    <path clip-path="url(#p6215633ae8)" d="M 65.46 92.1878 
L 53.31 92.1878 
L 41.16 92.1878 
" style="fill:none;stroke:#000000;stroke-linecap:round;stroke-width:1.5;"/>
   </g>
   <g id="patch_6">
    <path clip-path="url(#p6215633ae8)" d="M 194.088 57.6098 
C 195.11911 57.6098 196.108127 57.222895 196.837231 56.534296 
C 197.566336 55.845697 197.976 54.911626 197.976 53.9378 
C 197.976 52.963974 197.566336 52.029903 196.837231 51.341304 
C 196.108127 50.652705 195.11911 50.2658 194.088 50.2658 
C 193.05689 50.2658 192.067873 50.652705 191.338769 51.341304 
C 190.609664 52.029903 190.2 52.963974 190.2 53.9378 
C 190.2 54.911626 190.609664 55.845697 191.338769 56.534296 
C 192.067873 57.222895 193.05689 57.6098 194.088 57.6098 
z
" style="fill:none;stroke:#000000;stroke-linejoin:miter;stroke-width:1.5;"/>
   </g>
   <g id="patch_7">
    <path clip-path="url(#p6215633ae8)" d="M 217.74 56.2328 
C 218.384444 56.2328 219.002579 55.990984 219.458269 55.56061 
C 219.91396 55.130236 220.17 54.546441 220.17 53.9378 
C 220.17 53.329159 219.91396 52.745364 219.458269 52.31499 
C 219.002579 51.884616 218.384444 51.6428 217.74 51.6428 
C 217.095556 51.6428 216.477421 51.884616 216.021731 52.31499 
C 215.56604 52.745364 215.31 53.329159 215.31 53.9378 
C 215.31 54.546441 215.56604 55.130236 216.021731 55.56061 
C 216.477421 55.990984 217.095556 56.2328 217.74 56.2328 
z
" style="stroke:#000000;stroke-linejoin:miter;stroke-width:1.5;"/>
   </g>
   <g id="patch_8">
    <path clip-path="url(#p6215633ae8)" d="M 233.94 56.2328 
C 234.584444 56.2328 235.202579 55.990984 235.658269 55.56061 
C 236.11396 55.130236 236.37 54.546441 236.37 53.9378 
C 236.37 53.329159 236.11396 52.745364 235.658269 52.31499 
C 235.202579 51.884616 234.584444 51.6428 233.94 51.6428 
C 233.295556 51.6428 232.677421 51.884616 232.221731 52.31499 
C 231.76604 52.745364 231.51 53.329159 231.51 53.9378 
C 231.51 54.546441 231.76604 55.130236 232.221731 55.56061 
C 232.677421 55.990984 233.295556 56.2328 233.94 56.2328 
z
" style="stroke:#000000;stroke-linejoin:miter;stroke-width:1.5;"/>
   </g>
   <g id="patch_9">
    <path clip-path="url(#p6215633ae8)" d="M 194.088 134.1098 
C 195.11911 134.1098 196.108127 133.722895 196.837231 133.034296 
C 197.566336 132.345697 197.976 131.411626 197.976 130.4378 
C 197.976 129.463974 197.566336 128.529903 196.837231 127.841304 
C 196.108127 127.152705 195.11911 126.7658 194.088 126.7658 
C 193.05689 126.7658 192.067873 127.152705 191.338769 127.841304 
C 190.609664 128.529903 190.2 129.463974 190.2 130.4378 
C 190.2 131.411626 190.609664 132.345697 191.338769 133.034296 
C 192.067873 133.722895 193.05689 134.1098 194.088 134.1098 
z
" style="fill:none;stroke:#000000;stroke-linejoin:miter;stroke-width:1.5;"/>
   </g>
   <g id="patch_10">
    <path clip-path="url(#p6215633ae8)" d="M 217.74 132.7328 
C 218.384444 132.7328 219.002579 132.490984 219.458269 132.06061 
C 219.91396 131.630236 220.17 131.046441 220.17 130.4378 
C 220.17 129.829159 219.91396 129.245364 219.458269 128.81499 
C 219.002579 128.384616 218.384444 128.1428 217.74 128.1428 
C 217.095556 128.1428 216.477421 128.384616 216.021731 128.81499 
C 215.56604 129.245364 215.31 129.829159 215.31 130.4378 
C 215.31 131.046441 215.56604 131.630236 216.021731 132.06061 
C 216.477421 132.490984 217.095556 132.7328 217.74 132.7328 
z
" style="stroke:#000000;stroke-linejoin:miter;stroke-width:1.5;"/>
   </g>
   <g id="patch_11">
    <path clip-path="url(#p6215633ae8)" d="M 250.14 132.7328 
C 250.784444 132.7328 251.402579 132.490984 251.858269 132.06061 
C 252.31396 131.630236 252.57 131.046441 252.57 130.4378 
C 252.57 129.829159 252.31396 129.245364 251.858269 128.81499 
C 251.402579 128.384616 250.784444 128.1428 250.14 128.1428 
C 249.495556 128.1428 248.877421 128.384616 248.421731 128.81499 
C 247.96604 129.245364 247.71 129.829159 247.71 130.4378 
C 247.71 131.046441 247.96604 131.630236 248.421731 132.06061 
C 248.877421 132.490984 249.495556 132.7328 250.14 132.7328 
z
" style="stroke:#000000;stroke-linejoin:miter;stroke-width:1.5;"/>
   </g>
   <g id="patch_12">
    <path clip-path="url(#p6215633ae8)" d="M 117.948 49.9598 
C 118.97911 49.9598 119.968127 49.572895 120.697231 48.884296 
C 121.426336 48.195697 121.836 47.261626 121.836 46.2878 
C 121.836 45.313974 121.426336 44.379903 120.697231 43.691304 
C 119.968127 43.002705 118.97911 42.6158 117.948 42.6158 
C 116.91689 42.6158 115.927873 43.002705 115.198769 43.691304 
C 114.469664 44.379903 114.06 45.313974 114.06 46.2878 
C 114.06 47.261626 114.469664 48.195697 115.198769 48.884296 
C 115.927873 49.572895 116.91689 49.9598 117.948 49.9598 
z
" style="fill:none;stroke:#000000;stroke-linejoin:miter;stroke-width:1.5;"/>
   </g>
   <g id="patch_13">
    <path clip-path="url(#p6215633ae8)" d="M 117.948 141.7598 
C 118.97911 141.7598 119.968127 141.372895 120.697231 140.684296 
C 121.426336 139.995697 121.836 139.061626 121.836 138.0878 
C 121.836 137.113974 121.426336 136.179903 120.697231 135.491304 
C 119.968127 134.802705 118.97911 134.4158 117.948 134.4158 
C 116.91689 134.4158 115.927873 134.802705 115.198769 135.491304 
C 114.469664 136.179903 114.06 137.113974 114.06 138.0878 
C 114.06 139.061626 114.469664 139.995697 115.198769 140.684296 
C 115.927873 141.372895 116.91689 141.7598 117.948 141.7598 
z
" style="fill:none;stroke:#000000;stroke-linejoin:miter;stroke-width:1.5;"/>
   </g>
   <g id="patch_14">
    <path clip-path="url(#p6215633ae8)" d="M 65.46 94.4828 
C 66.104444 94.4828 66.722579 94.240984 67.178269 93.81061 
C 67.63396 93.380236 67.89 92.796441 67.89 92.1878 
C 67.89 91.579159 67.63396 90.995364 67.178269 90.56499 
C 66.722579 90.134616 66.104444 89.8928 65.46 89.8928 
C 64.815556 89.8928 64.197421 90.134616 63.741731 90.56499 
C 63.28604 90.995364 63.03 91.579159 63.03 92.1878 
C 63.03 92.796441 63.28604 93.380236 63.741731 93.81061 
C 64.197421 94.240984 64.815556 94.4828 65.46 94.4828 
z
" style="stroke:#000000;stroke-linejoin:miter;stroke-width:1.5;"/>
   </g>
   <g id="text_1">
    <!-- $Q$ -->
    <defs>
     <path d="M 39.40625 66.21875 
Q 28.65625 66.21875 22.328125 58.203125 
Q 16.015625 50.203125 16.015625 36.375 
Q 16.015625 22.609375 22.328125 14.59375 
Q 28.65625 6.59375 39.40625 6.59375 
Q 50.140625 6.59375 56.421875 14.59375 
Q 62.703125 22.609375 62.703125 36.375 
Q 62.703125 50.203125 56.421875 58.203125 
Q 50.140625 66.21875 39.40625 66.21875 
z
M 53.21875 1.3125 
L 66.21875 -12.890625 
L 54.296875 -12.890625 
L 43.5 -1.21875 
Q 41.890625 -1.3125 41.03125 -1.359375 
Q 40.1875 -1.421875 39.40625 -1.421875 
Q 24.03125 -1.421875 14.8125 8.859375 
Q 5.609375 19.140625 5.609375 36.375 
Q 5.609375 53.65625 14.8125 63.9375 
Q 24.03125 74.21875 39.40625 74.21875 
Q 54.734375 74.21875 63.90625 63.9375 
Q 73.09375 53.65625 73.09375 36.375 
Q 73.09375 23.6875 67.984375 14.640625 
Q 62.890625 5.609375 53.21875 1.3125 
z
" id="DejaVuSans-51"/>
    </defs>
    <g transform="translate(269.58 58.3528)scale(0.16 -0.16)">
     <use transform="translate(0 0.78125)" xlink:href="#DejaVuSans-51"/>
    </g>
   </g>
   <g id="text_2">
    <!-- $\overline{Q}$ -->
    <g transform="translate(269.58 136.0703)scale(0.16 -0.16)">
     <use transform="translate(0 0.53125)" xlink:href="#DejaVuSans-51"/>
     <path d="M 0 86.5 
L 0 92.75 
L 78.710938 92.75 
L 78.710938 86.5 
L 0 86.5 
z
"/>
    </g>
   </g>
   <g id="text_3">
    <!-- $J$ -->
    <defs>
     <path d="M 9.8125 72.90625 
L 19.671875 72.90625 
L 19.671875 5.078125 
Q 19.671875 -8.109375 14.671875 -14.0625 
Q 9.671875 -20.015625 -1.421875 -20.015625 
L -5.171875 -20.015625 
L -5.171875 -11.71875 
L -2.09375 -11.71875 
Q 4.4375 -11.71875 7.125 -8.046875 
Q 9.8125 -4.390625 9.8125 5.078125 
z
" id="DejaVuSans-4a"/>
    </defs>
    <g transform="translate(33.12 50.6703)scale(0.16 -0.16)">
     <use transform="translate(0 0.09375)" xlink:href="#DejaVuSans-4a"/>
    </g>
   </g>
   <g id="text_4">
    <!-- $K$ -->
    <defs>
     <path d="M 9.8125 72.90625 
L 19.671875 72.90625 
L 19.671875 42.09375 
L 52.390625 72.90625 
L 65.09375 72.90625 
L 28.90625 38.921875 
L 67.671875 0 
L 54.6875 0 
L 19.671875 35.109375 
L 19.671875 0 
L 9.8125 0 
z
" id="DejaVuSans-4b"/>
    </defs>
    <g transform="translate(27.36 142.5028)scale(0.16 -0.16)">
     <use transform="translate(0 0.09375)" xlink:href="#DejaVuSans-4b"/>
    </g>
   </g>
   <g id="text_5">
    <!-- $CLK$ -->
    <defs>
     <path d="M 64.40625 67.28125 
L 64.40625 56.890625 
Q 59.421875 61.53125 53.78125 63.8125 
Q 48.140625 66.109375 41.796875 66.109375 
Q 29.296875 66.109375 22.65625 58.46875 
Q 16.015625 50.828125 16.015625 36.375 
Q 16.015625 21.96875 22.65625 14.328125 
Q 29.296875 6.6875 41.796875 6.6875 
Q 48.140625 6.6875 53.78125 8.984375 
Q 59.421875 11.28125 64.40625 15.921875 
L 64.40625 5.609375 
Q 59.234375 2.09375 53.4375 0.328125 
Q 47.65625 -1.421875 41.21875 -1.421875 
Q 24.65625 -1.421875 15.125 8.703125 
Q 5.609375 18.84375 5.609375 36.375 
Q 5.609375 53.953125 15.125 64.078125 
Q 24.65625 74.21875 41.21875 74.21875 
Q 47.75 74.21875 53.53125 72.484375 
Q 59.328125 70.75 64.40625 67.28125 
z
" id="DejaVuSans-43"/>
     <path d="M 9.8125 72.90625 
L 19.671875 72.90625 
L 19.671875 8.296875 
L 55.171875 8.296875 
L 55.171875 0 
L 9.8125 0 
z
" id="DejaVuSans-4c"/>
    </defs>
    <g transform="translate(7.2 96.6028)scale(0.16 -0.16)">
     <use transform="translate(0 0.78125)" xlink:href="#DejaVuSans-43"/>
     <use transform="translate(69.824219 0.78125)" xlink:href="#DejaVuSans-4c"/>
     <use transform="translate(125.537109 0.78125)" xlink:href="#DejaVuSans-4b"/>
    </g>
   </g>
  </g>
 </g>
 <defs>
  <clipPath id="p6215633ae8">
   <rect height="162.9756" width="254.178" x="26.661" y="10.7"/>
  </clipPath>
 </defs>
</svg>
