<?xml version="1.0" encoding="utf-8" standalone="no"?>
<!DOCTYPE svg PUBLIC "-//W3C//DTD SVG 1.1//EN"
  "http://www.w3.org/Graphics/SVG/1.1/DTD/svg11.dtd">
<!-- Created with matplotlib (https://matplotlib.org/) -->
<svg height="162.9954pt" version="1.1" viewBox="0 0 289.42 162.9954" width="289.42pt" xmlns="http://www.w3.org/2000/svg" xmlns:xlink="http://www.w3.org/1999/xlink">
 <defs>
  <style type="text/css">
*{stroke-linecap:butt;stroke-linejoin:round;}
  </style>
 </defs>
 <g id="figure_1">
  <g id="patch_1">
   <path d="M 0 162.9954 
L 289.42 162.9954 
L 289.42 0 
L 0 0 
z
" style="fill:none;"/>
  </g>
  <g id="axes_1">
   <g id="patch_2">
    <path clip-path="url(#p8dbe1e8bc7)" d="M 194.088 49.9707 
C 195.11911 49.9707 196.108127 49.617934 196.837231 48.990094 
C 197.566336 48.362253 197.976 47.5106 197.976 46.6227 
C 197.976 45.7348 197.566336 44.883147 196.837231 44.255306 
C 196.108127 43.627466 195.11911 43.2747 194.088 43.2747 
C 193.05689 43.2747 192.067873 43.627466 191.338769 44.255306 
C 190.609664 44.883147 190.2 45.7348 190.2 46.6227 
C 190.2 47.5106 190.609664 48.362253 191.338769 48.990094 
C 192.067873 49.617934 193.05689 49.9707 194.088 49.9707 
z
" style="fill:none;stroke:#000000;stroke-linejoin:miter;stroke-width:1.5;"/>
   </g>
   <g id="patch_3">
    <path clip-path="url(#p8dbe1e8bc7)" d="M 217.74 48.7152 
C 218.384444 48.7152 219.002579 48.494721 219.458269 48.102321 
C 219.91396 47.709921 220.17 47.177637 220.17 46.6227 
C 220.17 46.067763 219.91396 45.535479 219.458269 45.143079 
C 219.002579 44.750679 218.384444 44.5302 217.74 44.5302 
C 217.095556 44.5302 216.477421 44.750679 216.021731 45.143079 
C 215.56604 45.535479 215.31 46.067763 215.31 46.6227 
C 215.31 47.177637 215.56604 47.709921 216.021731 48.102321 
C 216.477421 48.494721 217.095556 48.7152 217.74 48.7152 
z
" style="stroke:#000000;stroke-linejoin:miter;stroke-width:1.5;"/>
   </g>
   <g id="patch_4">
    <path clip-path="url(#p8dbe1e8bc7)" d="M 233.94 48.7152 
C 234.584444 48.7152 235.202579 48.494721 235.658269 48.102321 
C 236.11396 47.709921 236.37 47.177637 236.37 46.6227 
C 236.37 46.067763 236.11396 45.535479 235.658269 45.143079 
C 235.202579 44.750679 234.584444 44.5302 233.94 44.5302 
C 233.295556 44.5302 232.677421 44.750679 232.221731 45.143079 
C 231.76604 45.535479 231.51 46.067763 231.51 46.6227 
C 231.51 47.177637 231.76604 47.709921 232.221731 48.102321 
C 232.677421 48.494721 233.295556 48.7152 233.94 48.7152 
z
" style="stroke:#000000;stroke-linejoin:miter;stroke-width:1.5;"/>
   </g>
   <g id="patch_5">
    <path clip-path="url(#p8dbe1e8bc7)" d="M 194.088 119.7207 
C 195.11911 119.7207 196.108127 119.367934 196.837231 118.740094 
C 197.566336 118.112253 197.976 117.2606 197.976 116.3727 
C 197.976 115.4848 197.566336 114.633147 196.837231 114.005306 
C 196.108127 113.377466 195.11911 113.0247 194.088 113.0247 
C 193.05689 113.0247 192.067873 113.377466 191.338769 114.005306 
C 190.609664 114.633147 190.2 115.4848 190.2 116.3727 
C 190.2 117.2606 190.609664 118.112253 191.338769 118.740094 
C 192.067873 119.367934 193.05689 119.7207 194.088 119.7207 
z
" style="fill:none;stroke:#000000;stroke-linejoin:miter;stroke-width:1.5;"/>
   </g>
   <g id="patch_6">
    <path clip-path="url(#p8dbe1e8bc7)" d="M 217.74 118.4652 
C 218.384444 118.4652 219.002579 118.244721 219.458269 117.852321 
C 219.91396 117.459921 220.17 116.927637 220.17 116.3727 
C 220.17 115.817763 219.91396 115.285479 219.458269 114.893079 
C 219.002579 114.500679 218.384444 114.2802 217.74 114.2802 
C 217.095556 114.2802 216.477421 114.500679 216.021731 114.893079 
C 215.56604 115.285479 215.31 115.817763 215.31 116.3727 
C 215.31 116.927637 215.56604 117.459921 216.021731 117.852321 
C 216.477421 118.244721 217.095556 118.4652 217.74 118.4652 
z
" style="stroke:#000000;stroke-linejoin:miter;stroke-width:1.5;"/>
   </g>
   <g id="patch_7">
    <path clip-path="url(#p8dbe1e8bc7)" d="M 250.14 118.4652 
C 250.784444 118.4652 251.402579 118.244721 251.858269 117.852321 
C 252.31396 117.459921 252.57 116.927637 252.57 116.3727 
C 252.57 115.817763 252.31396 115.285479 251.858269 114.893079 
C 251.402579 114.500679 250.784444 114.2802 250.14 114.2802 
C 249.495556 114.2802 248.877421 114.500679 248.421731 114.893079 
C 247.96604 115.285479 247.71 115.817763 247.71 116.3727 
C 247.71 116.927637 247.96604 117.459921 248.421731 117.852321 
C 248.877421 118.244721 249.495556 118.4652 250.14 118.4652 
z
" style="stroke:#000000;stroke-linejoin:miter;stroke-width:1.5;"/>
   </g>
   <g id="patch_8">
    <path clip-path="url(#p8dbe1e8bc7)" d="M 117.948 42.9957 
C 118.97911 42.9957 119.968127 42.642934 120.697231 42.015094 
C 121.426336 41.387253 121.836 40.5356 121.836 39.6477 
C 121.836 38.7598 121.426336 37.908147 120.697231 37.280306 
C 119.968127 36.652466 118.97911 36.2997 117.948 36.2997 
C 116.91689 36.2997 115.927873 36.652466 115.198769 37.280306 
C 114.469664 37.908147 114.06 38.7598 114.06 39.6477 
C 114.06 40.5356 114.469664 41.387253 115.198769 42.015094 
C 115.927873 42.642934 116.91689 42.9957 117.948 42.9957 
z
" style="fill:none;stroke:#000000;stroke-linejoin:miter;stroke-width:1.5;"/>
   </g>
   <g id="patch_9">
    <path clip-path="url(#p8dbe1e8bc7)" d="M 117.948 126.6957 
C 118.97911 126.6957 119.968127 126.342934 120.697231 125.715094 
C 121.426336 125.087253 121.836 124.2356 121.836 123.3477 
C 121.836 122.4598 121.426336 121.608147 120.697231 120.980306 
C 119.968127 120.352466 118.97911 119.9997 117.948 119.9997 
C 116.91689 119.9997 115.927873 120.352466 115.198769 120.980306 
C 114.469664 121.608147 114.06 122.4598 114.06 123.3477 
C 114.06 124.2356 114.469664 125.087253 115.198769 125.715094 
C 115.927873 126.342934 116.91689 126.6957 117.948 126.6957 
z
" style="fill:none;stroke:#000000;stroke-linejoin:miter;stroke-width:1.5;"/>
   </g>
   <g id="patch_10">
    <path clip-path="url(#p8dbe1e8bc7)" d="M 65.46 83.5902 
C 66.104444 83.5902 66.722579 83.369721 67.178269 82.977321 
C 67.63396 82.584921 67.89 82.052637 67.89 81.4977 
C 67.89 80.942763 67.63396 80.410479 67.178269 80.018079 
C 66.722579 79.625679 66.104444 79.4052 65.46 79.4052 
C 64.815556 79.4052 64.197421 79.625679 63.741731 80.018079 
C 63.28604 80.410479 63.03 80.942763 63.03 81.4977 
C 63.03 82.052637 63.28604 82.584921 63.741731 82.977321 
C 64.197421 83.369721 64.815556 83.5902 65.46 83.5902 
z
" style="stroke:#000000;stroke-linejoin:miter;stroke-width:1.5;"/>
   </g>
   <g id="line2d_1">
    <path clip-path="url(#p8dbe1e8bc7)" d="M 141.6 46.6227 
M 197.976 46.6227 
L 201.54 46.6227 
" style="fill:none;stroke:#000000;stroke-linecap:round;stroke-width:1.5;"/>
   </g>
   <g id="line2d_2">
    <path clip-path="url(#p8dbe1e8bc7)" d="M 174 60.5727 
L 175.037938 60.544038 
L 176.07161 60.458171 
L 177.09677 60.31545 
L 178.109204 60.116463 
L 179.104753 59.862028 
L 180.079325 59.553189 
L 181.028917 59.191216 
L 181.949624 58.777596 
L 182.837665 58.314029 
L 183.689391 57.80242 
L 184.5013 57.244871 
L 185.270057 56.643673 
L 185.992504 56.001297 
L 186.66567 55.320383 
L 187.286791 54.603727 
L 187.853313 53.854276 
L 188.362909 53.075109 
L 188.813484 52.269428 
L 189.203188 51.440543 
L 189.530419 50.59186 
L 189.793832 49.726867 
L 189.992345 48.849119 
L 190.125142 47.962221 
L 190.191677 47.06982 
L 190.191677 46.17558 
L 190.125142 45.283179 
L 189.992345 44.396281 
L 189.793832 43.518533 
L 189.530419 42.65354 
L 189.203188 41.804857 
L 188.813484 40.975972 
L 188.362909 40.170291 
L 187.853313 39.391124 
L 187.286791 38.641673 
L 186.66567 37.925017 
L 185.992504 37.244103 
L 185.270057 36.601727 
L 184.5013 36.000529 
L 183.689391 35.44298 
L 182.837665 34.931371 
L 181.949624 34.467804 
L 181.028917 34.054184 
L 180.079325 33.692211 
L 179.104753 33.383372 
L 178.109204 33.128937 
L 177.09677 32.92995 
L 176.07161 32.787229 
L 175.037938 32.701362 
L 174 32.6727 
L 152.94 32.6727 
L 152.94 46.6227 
L 152.94 60.5727 
L 174 60.5727 
" style="fill:none;stroke:#000000;stroke-linecap:round;stroke-width:1.5;"/>
   </g>
   <g id="line2d_3">
    <path clip-path="url(#p8dbe1e8bc7)" d="M 141.6 53.5977 
L 152.94 53.5977 
" style="fill:none;stroke:#000000;stroke-linecap:round;stroke-width:1.5;"/>
   </g>
   <g id="line2d_4">
    <path clip-path="url(#p8dbe1e8bc7)" d="M 141.6 39.6477 
L 152.94 39.6477 
" style="fill:none;stroke:#000000;stroke-linecap:round;stroke-width:1.5;"/>
   </g>
   <g id="line2d_5">
    <path clip-path="url(#p8dbe1e8bc7)" d="M 201.54 46.6227 
L 209.64 46.6227 
L 217.74 46.6227 
" style="fill:none;stroke:#000000;stroke-linecap:round;stroke-width:1.5;"/>
   </g>
   <g id="line2d_6">
    <path clip-path="url(#p8dbe1e8bc7)" d="M 217.74 46.6227 
" style="fill:none;stroke:#000000;stroke-linecap:round;stroke-width:1.5;"/>
   </g>
   <g id="line2d_7">
    <path clip-path="url(#p8dbe1e8bc7)" d="M 217.74 46.6227 
L 225.84 46.6227 
L 233.94 46.6227 
" style="fill:none;stroke:#000000;stroke-linecap:round;stroke-width:1.5;"/>
   </g>
   <g id="line2d_8">
    <path clip-path="url(#p8dbe1e8bc7)" d="M 233.94 46.6227 
" style="fill:none;stroke:#000000;stroke-linecap:round;stroke-width:1.5;"/>
   </g>
   <g id="line2d_9">
    <path clip-path="url(#p8dbe1e8bc7)" d="M 233.94 46.6227 
L 250.14 46.6227 
L 266.34 46.6227 
" style="fill:none;stroke:#000000;stroke-linecap:round;stroke-width:1.5;"/>
   </g>
   <g id="line2d_10">
    <path clip-path="url(#p8dbe1e8bc7)" d="M 141.6 116.3727 
M 197.976 116.3727 
L 201.54 116.3727 
" style="fill:none;stroke:#000000;stroke-linecap:round;stroke-width:1.5;"/>
   </g>
   <g id="line2d_11">
    <path clip-path="url(#p8dbe1e8bc7)" d="M 174 130.3227 
L 175.037938 130.294038 
L 176.07161 130.208171 
L 177.09677 130.06545 
L 178.109204 129.866463 
L 179.104753 129.612028 
L 180.079325 129.303189 
L 181.028917 128.941216 
L 181.949624 128.527596 
L 182.837665 128.064029 
L 183.689391 127.55242 
L 184.5013 126.994871 
L 185.270057 126.393673 
L 185.992504 125.751297 
L 186.66567 125.070383 
L 187.286791 124.353727 
L 187.853313 123.604276 
L 188.362909 122.825109 
L 188.813484 122.019428 
L 189.203188 121.190543 
L 189.530419 120.34186 
L 189.793832 119.476867 
L 189.992345 118.599119 
L 190.125142 117.712221 
L 190.191677 116.81982 
L 190.191677 115.92558 
L 190.125142 115.033179 
L 189.992345 114.146281 
L 189.793832 113.268533 
L 189.530419 112.40354 
L 189.203188 111.554857 
L 188.813484 110.725972 
L 188.362909 109.920291 
L 187.853313 109.141124 
L 187.286791 108.391673 
L 186.66567 107.675017 
L 185.992504 106.994103 
L 185.270057 106.351727 
L 184.5013 105.750529 
L 183.689391 105.19298 
L 182.837665 104.681371 
L 181.949624 104.217804 
L 181.028917 103.804184 
L 180.079325 103.442211 
L 179.104753 103.133372 
L 178.109204 102.878937 
L 177.09677 102.67995 
L 176.07161 102.537229 
L 175.037938 102.451362 
L 174 102.4227 
L 152.94 102.4227 
L 152.94 116.3727 
L 152.94 130.3227 
L 174 130.3227 
" style="fill:none;stroke:#000000;stroke-linecap:round;stroke-width:1.5;"/>
   </g>
   <g id="line2d_12">
    <path clip-path="url(#p8dbe1e8bc7)" d="M 141.6 123.3477 
L 152.94 123.3477 
" style="fill:none;stroke:#000000;stroke-linecap:round;stroke-width:1.5;"/>
   </g>
   <g id="line2d_13">
    <path clip-path="url(#p8dbe1e8bc7)" d="M 141.6 109.3977 
L 152.94 109.3977 
" style="fill:none;stroke:#000000;stroke-linecap:round;stroke-width:1.5;"/>
   </g>
   <g id="line2d_14">
    <path clip-path="url(#p8dbe1e8bc7)" d="M 201.54 116.3727 
L 209.64 116.3727 
L 217.74 116.3727 
" style="fill:none;stroke:#000000;stroke-linecap:round;stroke-width:1.5;"/>
   </g>
   <g id="line2d_15">
    <path clip-path="url(#p8dbe1e8bc7)" d="M 217.74 116.3727 
" style="fill:none;stroke:#000000;stroke-linecap:round;stroke-width:1.5;"/>
   </g>
   <g id="line2d_16">
    <path clip-path="url(#p8dbe1e8bc7)" d="M 217.74 116.3727 
L 233.94 116.3727 
L 250.14 116.3727 
" style="fill:none;stroke:#000000;stroke-linecap:round;stroke-width:1.5;"/>
   </g>
   <g id="line2d_17">
    <path clip-path="url(#p8dbe1e8bc7)" d="M 250.14 116.3727 
" style="fill:none;stroke:#000000;stroke-linecap:round;stroke-width:1.5;"/>
   </g>
   <g id="line2d_18">
    <path clip-path="url(#p8dbe1e8bc7)" d="M 250.14 116.3727 
L 258.24 116.3727 
L 266.34 116.3727 
" style="fill:none;stroke:#000000;stroke-linecap:round;stroke-width:1.5;"/>
   </g>
   <g id="line2d_19">
    <path clip-path="url(#p8dbe1e8bc7)" d="M 141.6 109.3977 
L 141.6 102.4227 
L 141.6 95.4477 
" style="fill:none;stroke:#000000;stroke-linecap:round;stroke-width:1.5;"/>
   </g>
   <g id="line2d_20">
    <path clip-path="url(#p8dbe1e8bc7)" d="M 217.74 46.6227 
L 217.74 53.5977 
L 217.74 60.5727 
" style="fill:none;stroke:#000000;stroke-linecap:round;stroke-width:1.5;"/>
   </g>
   <g id="line2d_21">
    <path clip-path="url(#p8dbe1e8bc7)" d="M 217.74 60.5727 
L 179.67 78.0102 
L 141.6 95.4477 
" style="fill:none;stroke:#000000;stroke-linecap:round;stroke-width:1.5;"/>
   </g>
   <g id="line2d_22">
    <path clip-path="url(#p8dbe1e8bc7)" d="M 141.6 53.5977 
L 141.6 60.5727 
L 141.6 67.5477 
" style="fill:none;stroke:#000000;stroke-linecap:round;stroke-width:1.5;"/>
   </g>
   <g id="line2d_23">
    <path clip-path="url(#p8dbe1e8bc7)" d="M 217.74 116.3727 
L 217.74 109.3977 
L 217.74 102.4227 
" style="fill:none;stroke:#000000;stroke-linecap:round;stroke-width:1.5;"/>
   </g>
   <g id="line2d_24">
    <path clip-path="url(#p8dbe1e8bc7)" d="M 217.74 102.4227 
L 179.67 84.9852 
L 141.6 67.5477 
" style="fill:none;stroke:#000000;stroke-linecap:round;stroke-width:1.5;"/>
   </g>
   <g id="line2d_25">
    <path clip-path="url(#p8dbe1e8bc7)" d="M 141.6 39.6477 
L 133.5 39.6477 
L 125.4 39.6477 
" style="fill:none;stroke:#000000;stroke-linecap:round;stroke-width:1.5;"/>
   </g>
   <g id="line2d_26">
    <path clip-path="url(#p8dbe1e8bc7)" d="M 65.46 39.6477 
M 121.836 39.6477 
L 125.4 39.6477 
" style="fill:none;stroke:#000000;stroke-linecap:round;stroke-width:1.5;"/>
   </g>
   <g id="line2d_27">
    <path clip-path="url(#p8dbe1e8bc7)" d="M 97.86 25.6977 
L 98.897938 25.726362 
L 99.93161 25.812229 
L 100.95677 25.95495 
L 101.969204 26.153937 
L 102.964753 26.408372 
L 103.939325 26.717211 
L 104.888917 27.079184 
L 105.809624 27.492804 
L 106.697665 27.956371 
L 107.549391 28.46798 
L 108.3613 29.025529 
L 109.130057 29.626727 
L 109.852504 30.269103 
L 110.52567 30.950017 
L 111.146791 31.666673 
L 111.713313 32.416124 
L 112.222909 33.195291 
L 112.673484 34.000972 
L 113.063188 34.829857 
L 113.390419 35.67854 
L 113.653832 36.543533 
L 113.852345 37.421281 
L 113.985142 38.308179 
L 114.051677 39.20058 
L 114.051677 40.09482 
L 113.985142 40.987221 
L 113.852345 41.874119 
L 113.653832 42.751867 
L 113.390419 43.61686 
L 113.063188 44.465543 
L 112.673484 45.294428 
L 112.222909 46.100109 
L 111.713313 46.879276 
L 111.146791 47.628727 
L 110.52567 48.345383 
L 109.852504 49.026297 
L 109.130057 49.668673 
L 108.3613 50.269871 
L 107.549391 50.82742 
L 106.697665 51.339029 
L 105.809624 51.802596 
L 104.888917 52.216216 
L 103.939325 52.578189 
L 102.964753 52.887028 
L 101.969204 53.141463 
L 100.95677 53.34045 
L 99.93161 53.483171 
L 98.897938 53.569038 
L 97.86 53.5977 
L 76.8 53.5977 
L 76.8 39.6477 
L 76.8 25.6977 
L 97.86 25.6977 
" style="fill:none;stroke:#000000;stroke-linecap:round;stroke-width:1.5;"/>
   </g>
   <g id="line2d_28">
    <path clip-path="url(#p8dbe1e8bc7)" d="M 65.46 30.4407 
L 76.8 30.4407 
" style="fill:none;stroke:#000000;stroke-linecap:round;stroke-width:1.5;"/>
   </g>
   <g id="line2d_29">
    <path clip-path="url(#p8dbe1e8bc7)" d="M 65.46 39.6477 
L 76.8 39.6477 
" style="fill:none;stroke:#000000;stroke-linecap:round;stroke-width:1.5;"/>
   </g>
   <g id="line2d_30">
    <path clip-path="url(#p8dbe1e8bc7)" d="M 65.46 48.8547 
L 76.8 48.8547 
" style="fill:none;stroke:#000000;stroke-linecap:round;stroke-width:1.5;"/>
   </g>
   <g id="line2d_31">
    <path clip-path="url(#p8dbe1e8bc7)" d="M 65.46 30.4407 
L 65.46 23.4657 
L 65.46 16.4907 
" style="fill:none;stroke:#000000;stroke-linecap:round;stroke-width:1.5;"/>
   </g>
   <g id="line2d_32">
    <path clip-path="url(#p8dbe1e8bc7)" d="M 65.46 16.4907 
L 157.8 16.4907 
L 250.14 16.4907 
" style="fill:none;stroke:#000000;stroke-linecap:round;stroke-width:1.5;"/>
   </g>
   <g id="line2d_33">
    <path clip-path="url(#p8dbe1e8bc7)" d="M 250.14 16.4907 
L 250.14 66.4317 
L 250.14 116.3727 
" style="fill:none;stroke:#000000;stroke-linecap:round;stroke-width:1.5;"/>
   </g>
   <g id="line2d_34">
    <path clip-path="url(#p8dbe1e8bc7)" d="M 65.46 39.6477 
L 53.31 39.6477 
L 41.16 39.6477 
" style="fill:none;stroke:#000000;stroke-linecap:round;stroke-width:1.5;"/>
   </g>
   <g id="line2d_35">
    <path clip-path="url(#p8dbe1e8bc7)" d="M 141.6 123.3477 
L 133.5 123.3477 
L 125.4 123.3477 
" style="fill:none;stroke:#000000;stroke-linecap:round;stroke-width:1.5;"/>
   </g>
   <g id="line2d_36">
    <path clip-path="url(#p8dbe1e8bc7)" d="M 65.46 123.3477 
M 121.836 123.3477 
L 125.4 123.3477 
" style="fill:none;stroke:#000000;stroke-linecap:round;stroke-width:1.5;"/>
   </g>
   <g id="line2d_37">
    <path clip-path="url(#p8dbe1e8bc7)" d="M 97.86 109.3977 
L 98.897938 109.426362 
L 99.93161 109.512229 
L 100.95677 109.65495 
L 101.969204 109.853937 
L 102.964753 110.108372 
L 103.939325 110.417211 
L 104.888917 110.779184 
L 105.809624 111.192804 
L 106.697665 111.656371 
L 107.549391 112.16798 
L 108.3613 112.725529 
L 109.130057 113.326727 
L 109.852504 113.969103 
L 110.52567 114.650017 
L 111.146791 115.366673 
L 111.713313 116.116124 
L 112.222909 116.895291 
L 112.673484 117.700972 
L 113.063188 118.529857 
L 113.390419 119.37854 
L 113.653832 120.243533 
L 113.852345 121.121281 
L 113.985142 122.008179 
L 114.051677 122.90058 
L 114.051677 123.79482 
L 113.985142 124.687221 
L 113.852345 125.574119 
L 113.653832 126.451867 
L 113.390419 127.31686 
L 113.063188 128.165543 
L 112.673484 128.994428 
L 112.222909 129.800109 
L 111.713313 130.579276 
L 111.146791 131.328727 
L 110.52567 132.045383 
L 109.852504 132.726297 
L 109.130057 133.368673 
L 108.3613 133.969871 
L 107.549391 134.52742 
L 106.697665 135.039029 
L 105.809624 135.502596 
L 104.888917 135.916216 
L 103.939325 136.278189 
L 102.964753 136.587028 
L 101.969204 136.841463 
L 100.95677 137.04045 
L 99.93161 137.183171 
L 98.897938 137.269038 
L 97.86 137.2977 
L 76.8 137.2977 
L 76.8 123.3477 
L 76.8 109.3977 
L 97.86 109.3977 
" style="fill:none;stroke:#000000;stroke-linecap:round;stroke-width:1.5;"/>
   </g>
   <g id="line2d_38">
    <path clip-path="url(#p8dbe1e8bc7)" d="M 65.46 114.1407 
L 76.8 114.1407 
" style="fill:none;stroke:#000000;stroke-linecap:round;stroke-width:1.5;"/>
   </g>
   <g id="line2d_39">
    <path clip-path="url(#p8dbe1e8bc7)" d="M 65.46 123.3477 
L 76.8 123.3477 
" style="fill:none;stroke:#000000;stroke-linecap:round;stroke-width:1.5;"/>
   </g>
   <g id="line2d_40">
    <path clip-path="url(#p8dbe1e8bc7)" d="M 65.46 132.5547 
L 76.8 132.5547 
" style="fill:none;stroke:#000000;stroke-linecap:round;stroke-width:1.5;"/>
   </g>
   <g id="line2d_41">
    <path clip-path="url(#p8dbe1e8bc7)" d="M 65.46 132.5547 
L 65.46 139.5297 
L 65.46 146.5047 
" style="fill:none;stroke:#000000;stroke-linecap:round;stroke-width:1.5;"/>
   </g>
   <g id="line2d_42">
    <path clip-path="url(#p8dbe1e8bc7)" d="M 65.46 146.5047 
L 149.7 146.5047 
L 233.94 146.5047 
" style="fill:none;stroke:#000000;stroke-linecap:round;stroke-width:1.5;"/>
   </g>
   <g id="line2d_43">
    <path clip-path="url(#p8dbe1e8bc7)" d="M 233.94 146.5047 
L 233.94 96.5637 
L 233.94 46.6227 
" style="fill:none;stroke:#000000;stroke-linecap:round;stroke-width:1.5;"/>
   </g>
   <g id="line2d_44">
    <path clip-path="url(#p8dbe1e8bc7)" d="M 65.46 123.3477 
L 53.31 123.3477 
L 41.16 123.3477 
" style="fill:none;stroke:#000000;stroke-linecap:round;stroke-width:1.5;"/>
   </g>
   <g id="line2d_45">
    <path clip-path="url(#p8dbe1e8bc7)" d="M 65.46 48.8547 
L 65.46 81.4977 
L 65.46 114.1407 
" style="fill:none;stroke:#000000;stroke-linecap:round;stroke-width:1.5;"/>
   </g>
   <g id="line2d_46">
    <path clip-path="url(#p8dbe1e8bc7)" d="M 65.46 81.4977 
" style="fill:none;stroke:#000000;stroke-linecap:round;stroke-width:1.5;"/>
   </g>
   <g id="line2d_47">
    <path clip-path="url(#p8dbe1e8bc7)" d="M 65.46 81.4977 
L 53.31 81.4977 
L 41.16 81.4977 
" style="fill:none;stroke:#000000;stroke-linecap:round;stroke-width:1.5;"/>
   </g>
   <g id="text_1">
    <!-- $Q$ -->
    <defs>
     <path d="M 39.40625 66.21875 
Q 28.65625 66.21875 22.328125 58.203125 
Q 16.015625 50.203125 16.015625 36.375 
Q 16.015625 22.609375 22.328125 14.59375 
Q 28.65625 6.59375 39.40625 6.59375 
Q 50.140625 6.59375 56.421875 14.59375 
Q 62.703125 22.609375 62.703125 36.375 
Q 62.703125 50.203125 56.421875 58.203125 
Q 50.140625 66.21875 39.40625 66.21875 
z
M 53.21875 1.3125 
L 66.21875 -12.890625 
L 54.296875 -12.890625 
L 43.5 -1.21875 
Q 41.890625 -1.3125 41.03125 -1.359375 
Q 40.1875 -1.421875 39.40625 -1.421875 
Q 24.03125 -1.421875 14.8125 8.859375 
Q 5.609375 19.140625 5.609375 36.375 
Q 5.609375 53.65625 14.8125 63.9375 
Q 24.03125 74.21875 39.40625 74.21875 
Q 54.734375 74.21875 63.90625 63.9375 
Q 73.09375 53.65625 73.09375 36.375 
Q 73.09375 23.6875 67.984375 14.640625 
Q 62.890625 5.609375 53.21875 1.3125 
z
" id="DejaVuSans-81"/>
    </defs>
    <g transform="translate(269.58 51.0377)scale(0.16 -0.16)">
     <use transform="translate(0 0.78125)" xlink:href="#DejaVuSans-81"/>
    </g>
   </g>
   <g id="text_2">
    <!-- $\overline{Q}$ -->
    <g transform="translate(269.58 122.0052)scale(0.16 -0.16)">
     <use transform="translate(0 0.53125)" xlink:href="#DejaVuSans-81"/>
     <path d="M 0 86.5 
L 0 92.75 
L 78.710938 92.75 
L 78.710938 86.5 
L 0 86.5 
z
"/>
    </g>
   </g>
   <g id="text_3">
    <!-- $J$ -->
    <defs>
     <path d="M 9.8125 72.90625 
L 19.671875 72.90625 
L 19.671875 5.078125 
Q 19.671875 -8.109375 14.671875 -14.0625 
Q 9.671875 -20.015625 -1.421875 -20.015625 
L -5.171875 -20.015625 
L -5.171875 -11.71875 
L -2.09375 -11.71875 
Q 4.4375 -11.71875 7.125 -8.046875 
Q 9.8125 -4.390625 9.8125 5.078125 
z
" id="DejaVuSans-74"/>
    </defs>
    <g transform="translate(33.12 44.0302)scale(0.16 -0.16)">
     <use transform="translate(0 0.09375)" xlink:href="#DejaVuSans-74"/>
    </g>
   </g>
   <g id="text_4">
    <!-- $K$ -->
    <defs>
     <path d="M 9.8125 72.90625 
L 19.671875 72.90625 
L 19.671875 42.09375 
L 52.390625 72.90625 
L 65.09375 72.90625 
L 28.90625 38.921875 
L 67.671875 0 
L 54.6875 0 
L 19.671875 35.109375 
L 19.671875 0 
L 9.8125 0 
z
" id="DejaVuSans-75"/>
    </defs>
    <g transform="translate(27.36 127.7627)scale(0.16 -0.16)">
     <use transform="translate(0 0.09375)" xlink:href="#DejaVuSans-75"/>
    </g>
   </g>
   <g id="text_5">
    <!-- $CLK$ -->
    <defs>
     <path d="M 64.40625 67.28125 
L 64.40625 56.890625 
Q 59.421875 61.53125 53.78125 63.8125 
Q 48.140625 66.109375 41.796875 66.109375 
Q 29.296875 66.109375 22.65625 58.46875 
Q 16.015625 50.828125 16.015625 36.375 
Q 16.015625 21.96875 22.65625 14.328125 
Q 29.296875 6.6875 41.796875 6.6875 
Q 48.140625 6.6875 53.78125 8.984375 
Q 59.421875 11.28125 64.40625 15.921875 
L 64.40625 5.609375 
Q 59.234375 2.09375 53.4375 0.328125 
Q 47.65625 -1.421875 41.21875 -1.421875 
Q 24.65625 -1.421875 15.125 8.703125 
Q 5.609375 18.84375 5.609375 36.375 
Q 5.609375 53.953125 15.125 64.078125 
Q 24.65625 74.21875 41.21875 74.21875 
Q 47.75 74.21875 53.53125 72.484375 
Q 59.328125 70.75 64.40625 67.28125 
z
" id="DejaVuSans-67"/>
     <path d="M 9.8125 72.90625 
L 19.671875 72.90625 
L 19.671875 8.296875 
L 55.171875 8.296875 
L 55.171875 0 
L 9.8125 0 
z
" id="DejaVuSans-76"/>
    </defs>
    <g transform="translate(7.2 85.9127)scale(0.16 -0.16)">
     <use transform="translate(0 0.78125)" xlink:href="#DejaVuSans-67"/>
     <use transform="translate(69.824219 0.78125)" xlink:href="#DejaVuSans-76"/>
     <use transform="translate(125.537109 0.78125)" xlink:href="#DejaVuSans-75"/>
    </g>
   </g>
  </g>
 </g>
 <defs>
  <clipPath id="p8dbe1e8bc7">
   <rect height="148.5954" width="254.178" x="26.661" y="7.2"/>
  </clipPath>
 </defs>
</svg>
