<?xml version="1.0" encoding="utf-8" standalone="no"?>
<!DOCTYPE svg PUBLIC "-//W3C//DTD SVG 1.1//EN"
  "http://www.w3.org/Graphics/SVG/1.1/DTD/svg11.dtd">
<!-- Created with matplotlib (http://matplotlib.org/) -->
<svg height="116pt" version="1.1" viewBox="0 0 133 116" width="133pt" xmlns="http://www.w3.org/2000/svg" xmlns:xlink="http://www.w3.org/1999/xlink">
 <defs>
  <style type="text/css">
*{stroke-linecap:butt;stroke-linejoin:round;}
  </style>
 </defs>
 <g id="figure_1">
  <g id="patch_1">
   <path d="
M0 116.91
L133.052 116.91
L133.052 0
L0 0
L0 116.91" style="fill:none;"/>
  </g>
  <g id="axes_1">
   <g id="line2d_1">
    <path clip-path="url(#p6f0add77b0)" d="
M10.44 12.555
L26.64 12.555
L42.84 12.555" style="fill:none;stroke:#000000;stroke-linecap:round;stroke-width:1.5;"/>
   </g>
   <g id="line2d_2">
    <path clip-path="url(#p6f0add77b0)" d="
M42.84 12.555" style="fill:none;stroke:#000000;stroke-linecap:round;stroke-width:1.5;"/>
   </g>
   <g id="line2d_3">
    <path clip-path="url(#p6f0add77b0)" d="
M42.84 12.555
L42.84 43.155
M42.84 73.755
L42.84 104.355" style="fill:none;stroke:#ffffff;stroke-linecap:round;stroke-width:1.5;"/>
   </g>
   <g id="line2d_4">
    <path clip-path="url(#p6f0add77b0)" d="
M42.84 104.355" style="fill:none;stroke:#000000;stroke-linecap:round;stroke-width:1.5;"/>
   </g>
   <g id="line2d_5">
    <path clip-path="url(#p6f0add77b0)" d="
M42.84 104.355
L26.64 104.355
L10.44 104.355" style="fill:none;stroke:#000000;stroke-linecap:round;stroke-width:1.5;"/>
   </g>
   <g id="patch_2">
    <path clip-path="url(#p6f0add77b0)" d="
M42.84 14.85
C43.4844 14.85 44.1026 14.6082 44.5583 14.1778
C45.014 13.7474 45.27 13.1636 45.27 12.555
C45.27 11.9464 45.014 11.3626 44.5583 10.9322
C44.1026 10.5018 43.4844 10.26 42.84 10.26
C42.1956 10.26 41.5774 10.5018 41.1217 10.9322
C40.666 11.3626 40.41 11.9464 40.41 12.555
C40.41 13.1636 40.666 13.7474 41.1217 14.1778
C41.5774 14.6082 42.1956 14.85 42.84 14.85
z
" style="fill:#ffffff;stroke:#000000;stroke-linejoin:miter;stroke-width:1.5;"/>
   </g>
   <g id="patch_3">
    <path clip-path="url(#p6f0add77b0)" d="
M42.84 106.65
C43.4844 106.65 44.1026 106.408 44.5583 105.978
C45.014 105.547 45.27 104.964 45.27 104.355
C45.27 103.746 45.014 103.163 44.5583 102.732
C44.1026 102.302 43.4844 102.06 42.84 102.06
C42.1956 102.06 41.5774 102.302 41.1217 102.732
C40.666 103.163 40.41 103.746 40.41 104.355
C40.41 104.964 40.666 105.547 41.1217 105.978
C41.5774 106.408 42.1956 106.65 42.84 106.65
z
" style="fill:#ffffff;stroke:#000000;stroke-linejoin:miter;stroke-width:1.5;"/>
   </g>
   <g id="text_1">
    <!-- LABEL -->
    <defs>
     <path d="
M9.8125 72.9062
L55.9062 72.9062
L55.9062 64.5938
L19.6719 64.5938
L19.6719 43.0156
L54.3906 43.0156
L54.3906 34.7188
L19.6719 34.7188
L19.6719 8.29688
L56.7812 8.29688
L56.7812 0
L9.8125 0
z
" id="BitstreamVeraSans-Roman-45"/>
     <path d="
M19.6719 34.8125
L19.6719 8.10938
L35.5 8.10938
Q43.4531 8.10938 47.2812 11.4062
Q51.125 14.7031 51.125 21.4844
Q51.125 28.3281 47.2812 31.5625
Q43.4531 34.8125 35.5 34.8125
z

M19.6719 64.7969
L19.6719 42.8281
L34.2812 42.8281
Q41.5 42.8281 45.0312 45.5312
Q48.5781 48.25 48.5781 53.8125
Q48.5781 59.3281 45.0312 62.0625
Q41.5 64.7969 34.2812 64.7969
z

M9.8125 72.9062
L35.0156 72.9062
Q46.2969 72.9062 52.3906 68.2188
Q58.5 63.5312 58.5 54.8906
Q58.5 48.1875 55.375 44.2344
Q52.25 40.2812 46.1875 39.3125
Q53.4688 37.75 57.5 32.7812
Q61.5312 27.8281 61.5312 20.4062
Q61.5312 10.6406 54.8906 5.3125
Q48.25 0 35.9844 0
L9.8125 0
z
" id="BitstreamVeraSans-Roman-42"/>
     <path d="
M9.8125 72.9062
L19.6719 72.9062
L19.6719 8.29688
L55.1719 8.29688
L55.1719 0
L9.8125 0
z
" id="BitstreamVeraSans-Roman-4c"/>
     <path d="
M34.1875 63.1875
L20.7969 26.9062
L47.6094 26.9062
z

M28.6094 72.9062
L39.7969 72.9062
L67.5781 0
L57.3281 0
L50.6875 18.7031
L17.8281 18.7031
L11.1875 0
L0.78125 0
z
" id="BitstreamVeraSans-Roman-41"/>
    </defs>
    <g transform="translate(89.428125 25.359375)scale(0.12 -0.12)">
     <use xlink:href="#BitstreamVeraSans-Roman-4c"/>
     <use x="57.962890625" xlink:href="#BitstreamVeraSans-Roman-41"/>
     <use x="126.37109375" xlink:href="#BitstreamVeraSans-Roman-42"/>
     <use x="194.974609375" xlink:href="#BitstreamVeraSans-Roman-45"/>
     <use x="258.158203125" xlink:href="#BitstreamVeraSans-Roman-4c"/>
    </g>
   </g>
   <g id="text_2">
    <!-- + -->
    <defs>
     <path d="
M46 62.7031
L46 35.5
L73.1875 35.5
L73.1875 27.2031
L46 27.2031
L46 0
L37.7969 0
L37.7969 27.2031
L10.5938 27.2031
L10.5938 35.5
L37.7969 35.5
L37.7969 62.7031
z
" id="BitstreamVeraSans-Roman-2b"/>
    </defs>
    <g transform="translate(42.84 38.81625)scale(0.12 -0.12)">
     <use xlink:href="#BitstreamVeraSans-Roman-2b"/>
    </g>
   </g>
   <g id="text_3">
    <!-- GAP_LABEL -->
    <defs>
     <path d="
M19.6719 64.7969
L19.6719 37.4062
L32.0781 37.4062
Q38.9688 37.4062 42.7188 40.9688
Q46.4844 44.5312 46.4844 51.125
Q46.4844 57.6719 42.7188 61.2344
Q38.9688 64.7969 32.0781 64.7969
z

M9.8125 72.9062
L32.0781 72.9062
Q44.3438 72.9062 50.6094 67.3594
Q56.8906 61.8125 56.8906 51.125
Q56.8906 40.3281 50.6094 34.8125
Q44.3438 29.2969 32.0781 29.2969
L19.6719 29.2969
L19.6719 0
L9.8125 0
z
" id="BitstreamVeraSans-Roman-50"/>
     <path d="
M59.5156 10.4062
L59.5156 29.9844
L43.4062 29.9844
L43.4062 38.0938
L69.2812 38.0938
L69.2812 6.78125
Q63.5781 2.73438 56.6875 0.65625
Q49.8125 -1.42188 42 -1.42188
Q24.9062 -1.42188 15.25 8.5625
Q5.60938 18.5625 5.60938 36.375
Q5.60938 54.25 15.25 64.2344
Q24.9062 74.2188 42 74.2188
Q49.125 74.2188 55.5469 72.4531
Q61.9688 70.7031 67.3906 67.2812
L67.3906 56.7812
Q61.9219 61.4219 55.7656 63.7656
Q49.6094 66.1094 42.8281 66.1094
Q29.4375 66.1094 22.7188 58.6406
Q16.0156 51.1719 16.0156 36.375
Q16.0156 21.625 22.7188 14.1562
Q29.4375 6.6875 42.8281 6.6875
Q48.0469 6.6875 52.1406 7.59375
Q56.25 8.5 59.5156 10.4062" id="BitstreamVeraSans-Roman-47"/>
     <path d="
M50.9844 -16.6094
L50.9844 -23.5781
L-0.984375 -23.5781
L-0.984375 -16.6094
z
" id="BitstreamVeraSans-Roman-5f"/>
    </defs>
    <g transform="translate(42.84 61.4934375)scale(0.12 -0.12)">
     <use xlink:href="#BitstreamVeraSans-Roman-47"/>
     <use x="77.490234375" xlink:href="#BitstreamVeraSans-Roman-41"/>
     <use x="145.8984375" xlink:href="#BitstreamVeraSans-Roman-50"/>
     <use x="206.201171875" xlink:href="#BitstreamVeraSans-Roman-5f"/>
     <use x="256.201171875" xlink:href="#BitstreamVeraSans-Roman-4c"/>
     <use x="314.1640625" xlink:href="#BitstreamVeraSans-Roman-41"/>
     <use x="382.572265625" xlink:href="#BitstreamVeraSans-Roman-42"/>
     <use x="451.17578125" xlink:href="#BitstreamVeraSans-Roman-45"/>
     <use x="514.359375" xlink:href="#BitstreamVeraSans-Roman-4c"/>
    </g>
   </g>
   <g id="text_4">
    <!-- $-$ -->
    <defs>
     <path d="
M10.5938 35.5
L73.1875 35.5
L73.1875 27.2031
L10.5938 27.2031
z
" id="BitstreamVeraSans-Roman-2212"/>
    </defs>
    <g transform="translate(42.84 84.71625)scale(0.12 -0.12)">
     <use transform="translate(0.0 0.5)" xlink:href="#BitstreamVeraSans-Roman-2212"/>
    </g>
   </g>
  </g>
 </g>
 <defs>
  <clipPath id="p6f0add77b0">
   <rect height="102.51" width="41.31" x="7.2" y="7.2"/>
  </clipPath>
 </defs>
</svg>
