<?xml version="1.0" encoding="utf-8" standalone="no"?>
<!DOCTYPE svg PUBLIC "-//W3C//DTD SVG 1.1//EN"
  "http://www.w3.org/Graphics/SVG/1.1/DTD/svg11.dtd">
<!-- Created with matplotlib (http://matplotlib.org/) -->
<svg height="116pt" version="1.1" viewBox="0 0 133 116" width="133pt" xmlns="http://www.w3.org/2000/svg" xmlns:xlink="http://www.w3.org/1999/xlink">
 <defs>
  <style type="text/css">
*{stroke-linecap:butt;stroke-linejoin:round;stroke-miterlimit:100000;}
  </style>
 </defs>
 <g id="figure_1">
  <g id="patch_1">
   <path d="M 0 116.91 
L 133.540312 116.91 
L 133.540312 0 
L 0 0 
z
" style="fill:none;"/>
  </g>
  <g id="axes_1">
   <g id="line2d_1">
    <path clip-path="url(#p5c2e007c4e)" d="M 10.44 12.555 
L 26.64 12.555 
L 42.84 12.555 
" style="fill:none;stroke:#000000;stroke-linecap:round;stroke-width:1.5;"/>
   </g>
   <g id="line2d_2">
    <path clip-path="url(#p5c2e007c4e)" d="M 42.84 12.555 
" style="fill:none;stroke:#000000;stroke-linecap:round;stroke-width:1.5;"/>
   </g>
   <g id="line2d_3">
    <path clip-path="url(#p5c2e007c4e)" d="M 42.84 12.555 
L 42.84 43.155 
M 42.84 73.755 
L 42.84 104.355 
" style="fill:none;stroke:#ffffff;stroke-linecap:round;stroke-width:1.5;"/>
   </g>
   <g id="line2d_4">
    <path clip-path="url(#p5c2e007c4e)" d="M 42.84 104.355 
" style="fill:none;stroke:#000000;stroke-linecap:round;stroke-width:1.5;"/>
   </g>
   <g id="line2d_5">
    <path clip-path="url(#p5c2e007c4e)" d="M 42.84 104.355 
L 26.64 104.355 
L 10.44 104.355 
" style="fill:none;stroke:#000000;stroke-linecap:round;stroke-width:1.5;"/>
   </g>
   <g id="patch_2">
    <path clip-path="url(#p5c2e007c4e)" d="M 42.84 14.85 
C 43.484444 14.85 44.102579 14.608184 44.558269 14.17781 
C 45.01396 13.747436 45.27 13.163641 45.27 12.555 
C 45.27 11.946359 45.01396 11.362564 44.558269 10.93219 
C 44.102579 10.501816 43.484444 10.26 42.84 10.26 
C 42.195556 10.26 41.577421 10.501816 41.121731 10.93219 
C 40.66604 11.362564 40.41 11.946359 40.41 12.555 
C 40.41 13.163641 40.66604 13.747436 41.121731 14.17781 
C 41.577421 14.608184 42.195556 14.85 42.84 14.85 
z
" style="fill:#ffffff;stroke:#000000;stroke-linejoin:miter;stroke-width:1.5;"/>
   </g>
   <g id="patch_3">
    <path clip-path="url(#p5c2e007c4e)" d="M 42.84 106.65 
C 43.484444 106.65 44.102579 106.408184 44.558269 105.97781 
C 45.01396 105.547436 45.27 104.963641 45.27 104.355 
C 45.27 103.746359 45.01396 103.162564 44.558269 102.73219 
C 44.102579 102.301816 43.484444 102.06 42.84 102.06 
C 42.195556 102.06 41.577421 102.301816 41.121731 102.73219 
C 40.66604 103.162564 40.41 103.746359 40.41 104.355 
C 40.41 104.963641 40.66604 105.547436 41.121731 105.97781 
C 41.577421 106.408184 42.195556 106.65 42.84 106.65 
z
" style="fill:#ffffff;stroke:#000000;stroke-linejoin:miter;stroke-width:1.5;"/>
   </g>
   <g id="text_1">
    <!-- LABEL -->
    <defs>
     <path d="M 19.671875 34.8125 
L 19.671875 8.109375 
L 35.5 8.109375 
Q 43.453125 8.109375 47.28125 11.40625 
Q 51.125 14.703125 51.125 21.484375 
Q 51.125 28.328125 47.28125 31.5625 
Q 43.453125 34.8125 35.5 34.8125 
z
M 19.671875 64.796875 
L 19.671875 42.828125 
L 34.28125 42.828125 
Q 41.5 42.828125 45.03125 45.53125 
Q 48.578125 48.25 48.578125 53.8125 
Q 48.578125 59.328125 45.03125 62.0625 
Q 41.5 64.796875 34.28125 64.796875 
z
M 9.8125 72.90625 
L 35.015625 72.90625 
Q 46.296875 72.90625 52.390625 68.21875 
Q 58.5 63.53125 58.5 54.890625 
Q 58.5 48.1875 55.375 44.234375 
Q 52.25 40.28125 46.1875 39.3125 
Q 53.46875 37.75 57.5 32.78125 
Q 61.53125 27.828125 61.53125 20.40625 
Q 61.53125 10.640625 54.890625 5.3125 
Q 48.25 0 35.984375 0 
L 9.8125 0 
z
" id="BitstreamVeraSans-Roman-42"/>
     <path d="M 34.1875 63.1875 
L 20.796875 26.90625 
L 47.609375 26.90625 
z
M 28.609375 72.90625 
L 39.796875 72.90625 
L 67.578125 0 
L 57.328125 0 
L 50.6875 18.703125 
L 17.828125 18.703125 
L 11.1875 0 
L 0.78125 0 
z
" id="BitstreamVeraSans-Roman-41"/>
     <path d="M 9.8125 72.90625 
L 55.90625 72.90625 
L 55.90625 64.59375 
L 19.671875 64.59375 
L 19.671875 43.015625 
L 54.390625 43.015625 
L 54.390625 34.71875 
L 19.671875 34.71875 
L 19.671875 8.296875 
L 56.78125 8.296875 
L 56.78125 0 
L 9.8125 0 
z
" id="BitstreamVeraSans-Roman-45"/>
     <path d="M 9.8125 72.90625 
L 19.671875 72.90625 
L 19.671875 8.296875 
L 55.171875 8.296875 
L 55.171875 0 
L 9.8125 0 
z
" id="BitstreamVeraSans-Roman-4c"/>
    </defs>
    <g transform="translate(88.9396875 25.359375)scale(0.12 -0.12)">
     <use xlink:href="#BitstreamVeraSans-Roman-4c"/>
     <use x="55.744140625" xlink:href="#BitstreamVeraSans-Roman-41"/>
     <use x="124.15234375" xlink:href="#BitstreamVeraSans-Roman-42"/>
     <use x="192.755859375" xlink:href="#BitstreamVeraSans-Roman-45"/>
     <use x="255.939453125" xlink:href="#BitstreamVeraSans-Roman-4c"/>
    </g>
   </g>
   <g id="text_2">
    <!-- + -->
    <defs>
     <path d="M 46 62.703125 
L 46 35.5 
L 73.1875 35.5 
L 73.1875 27.203125 
L 46 27.203125 
L 46 0 
L 37.796875 0 
L 37.796875 27.203125 
L 10.59375 27.203125 
L 10.59375 35.5 
L 37.796875 35.5 
L 37.796875 62.703125 
z
" id="BitstreamVeraSans-Roman-2b"/>
    </defs>
    <g transform="translate(42.84 38.81625)scale(0.12 -0.12)">
     <use xlink:href="#BitstreamVeraSans-Roman-2b"/>
    </g>
   </g>
   <g id="text_3">
    <!-- GAP_LABEL -->
    <defs>
     <path d="M 59.515625 10.40625 
L 59.515625 29.984375 
L 43.40625 29.984375 
L 43.40625 38.09375 
L 69.28125 38.09375 
L 69.28125 6.78125 
Q 63.578125 2.734375 56.6875 0.65625 
Q 49.8125 -1.421875 42 -1.421875 
Q 24.90625 -1.421875 15.25 8.5625 
Q 5.609375 18.5625 5.609375 36.375 
Q 5.609375 54.25 15.25 64.234375 
Q 24.90625 74.21875 42 74.21875 
Q 49.125 74.21875 55.546875 72.453125 
Q 61.96875 70.703125 67.390625 67.28125 
L 67.390625 56.78125 
Q 61.921875 61.421875 55.765625 63.765625 
Q 49.609375 66.109375 42.828125 66.109375 
Q 29.4375 66.109375 22.71875 58.640625 
Q 16.015625 51.171875 16.015625 36.375 
Q 16.015625 21.625 22.71875 14.15625 
Q 29.4375 6.6875 42.828125 6.6875 
Q 48.046875 6.6875 52.140625 7.59375 
Q 56.25 8.5 59.515625 10.40625 
" id="BitstreamVeraSans-Roman-47"/>
     <path d="M 50.984375 -16.609375 
L 50.984375 -23.578125 
L -0.984375 -23.578125 
L -0.984375 -16.609375 
z
" id="BitstreamVeraSans-Roman-5f"/>
     <path d="M 19.671875 64.796875 
L 19.671875 37.40625 
L 32.078125 37.40625 
Q 38.96875 37.40625 42.71875 40.96875 
Q 46.484375 44.53125 46.484375 51.125 
Q 46.484375 57.671875 42.71875 61.234375 
Q 38.96875 64.796875 32.078125 64.796875 
z
M 9.8125 72.90625 
L 32.078125 72.90625 
Q 44.34375 72.90625 50.609375 67.359375 
Q 56.890625 61.8125 56.890625 51.125 
Q 56.890625 40.328125 50.609375 34.8125 
Q 44.34375 29.296875 32.078125 29.296875 
L 19.671875 29.296875 
L 19.671875 0 
L 9.8125 0 
z
" id="BitstreamVeraSans-Roman-50"/>
    </defs>
    <g transform="translate(42.84 61.4934375)scale(0.12 -0.12)">
     <use xlink:href="#BitstreamVeraSans-Roman-47"/>
     <use x="77.490234375" xlink:href="#BitstreamVeraSans-Roman-41"/>
     <use x="145.8984375" xlink:href="#BitstreamVeraSans-Roman-50"/>
     <use x="206.201171875" xlink:href="#BitstreamVeraSans-Roman-5f"/>
     <use x="256.201171875" xlink:href="#BitstreamVeraSans-Roman-4c"/>
     <use x="311.9453125" xlink:href="#BitstreamVeraSans-Roman-41"/>
     <use x="380.353515625" xlink:href="#BitstreamVeraSans-Roman-42"/>
     <use x="448.95703125" xlink:href="#BitstreamVeraSans-Roman-45"/>
     <use x="512.140625" xlink:href="#BitstreamVeraSans-Roman-4c"/>
    </g>
   </g>
   <g id="text_4">
    <!-- $-$ -->
    <defs>
     <path d="M 10.59375 35.5 
L 73.1875 35.5 
L 73.1875 27.203125 
L 10.59375 27.203125 
z
" id="BitstreamVeraSans-Roman-2212"/>
    </defs>
    <g transform="translate(42.84 84.71625)scale(0.12 -0.12)">
     <use transform="translate(0.0 0.5)" xlink:href="#BitstreamVeraSans-Roman-2212"/>
    </g>
   </g>
  </g>
 </g>
 <defs>
  <clipPath id="p5c2e007c4e">
   <rect height="102.51" width="41.31" x="7.2" y="7.2"/>
  </clipPath>
 </defs>
</svg>
