<?xml version="1.0" encoding="utf-8" standalone="no"?>
<!DOCTYPE svg PUBLIC "-//W3C//DTD SVG 1.1//EN"
  "http://www.w3.org/Graphics/SVG/1.1/DTD/svg11.dtd">
<!-- Created with matplotlib (http://matplotlib.org/) -->
<svg height="134.395pt" version="1.1" viewBox="0 0 148.165 134.395" width="148.165pt" xmlns="http://www.w3.org/2000/svg" xmlns:xlink="http://www.w3.org/1999/xlink">
 <defs>
  <style type="text/css">
*{stroke-linecap:butt;stroke-linejoin:round;}
  </style>
 </defs>
 <g id="figure_1">
  <g id="patch_1">
   <path d="M 0 134.395 
L 148.165 134.395 
L 148.165 0 
L 0 0 
z
" style="fill:none;"/>
  </g>
  <g id="axes_1">
   <g id="patch_2">
    <path clip-path="url(#p75bab11bbc)" d="M 23.4575 74.1725 
C 22.383785 74.1725 21.352949 74.540183 20.593718 75.193965 
C 19.834486 75.847747 19.4075 76.735412 19.4075 77.66 
C 19.4075 78.584588 19.834486 79.472253 20.593718 80.126035 
C 21.352949 80.779817 22.383785 81.1475 23.4575 81.1475 
" style="fill:none;stroke:#000000;stroke-linejoin:miter;stroke-width:1.5;"/>
   </g>
   <g id="patch_3">
    <path clip-path="url(#p75bab11bbc)" d="M 23.4575 67.1975 
C 22.383785 67.1975 21.352949 67.565183 20.593718 68.218965 
C 19.834486 68.872747 19.4075 69.760412 19.4075 70.685 
C 19.4075 71.609588 19.834486 72.497253 20.593718 73.151035 
C 21.352949 73.804817 22.383785 74.1725 23.4575 74.1725 
" style="fill:none;stroke:#000000;stroke-linejoin:miter;stroke-width:1.5;"/>
   </g>
   <g id="patch_4">
    <path clip-path="url(#p75bab11bbc)" d="M 23.4575 60.2225 
C 22.383785 60.2225 21.352949 60.590183 20.593718 61.243965 
C 19.834486 61.897747 19.4075 62.785412 19.4075 63.71 
C 19.4075 64.634588 19.834486 65.522253 20.593718 66.176035 
C 21.352949 66.829817 22.383785 67.1975 23.4575 67.1975 
" style="fill:none;stroke:#000000;stroke-linejoin:miter;stroke-width:1.5;"/>
   </g>
   <g id="patch_5">
    <path clip-path="url(#p75bab11bbc)" d="M 23.4575 53.2475 
C 22.383785 53.2475 21.352949 53.615183 20.593718 54.268965 
C 19.834486 54.922747 19.4075 55.810412 19.4075 56.735 
C 19.4075 57.659588 19.834486 58.547253 20.593718 59.201035 
C 21.352949 59.854817 22.383785 60.2225 23.4575 60.2225 
" style="fill:none;stroke:#000000;stroke-linejoin:miter;stroke-width:1.5;"/>
   </g>
   <g id="patch_6">
    <path clip-path="url(#p75bab11bbc)" d="M 99.925053 50.394578 
C 97.863178 47.858897 95.347546 45.620583 92.471924 43.763065 
C 89.596301 41.905548 86.396865 40.452196 82.992871 39.457182 
C 79.588876 38.462168 76.023148 37.938009 72.428593 37.904243 
C 68.834039 37.870477 65.25588 38.327529 61.827489 39.258362 
C 58.399097 40.189195 55.163604 41.5821 52.241609 43.385156 
C 49.319613 45.188213 46.747876 47.378739 44.622255 49.875084 
C 42.496633 52.371429 40.84387 55.142188 39.72557 58.084085 
C 38.607269 61.025982 38.0375 64.102005 38.0375 67.1975 
C 38.0375 70.292995 38.607269 73.369018 39.72557 76.310915 
C 40.84387 79.252812 42.496633 82.023571 44.622255 84.519916 
C 46.747876 87.016261 49.319613 89.206787 52.241609 91.009844 
C 55.163604 92.8129 58.399097 94.205805 61.827489 95.136638 
C 65.25588 96.067471 68.834039 96.524523 72.428593 96.490757 
C 76.023148 96.456991 79.588876 95.932832 82.992871 94.937818 
C 86.396865 93.942804 89.596301 92.489452 92.471924 90.631935 
C 95.347546 88.774417 97.863178 86.536103 99.925053 84.000422 
" style="fill:none;stroke:#000000;stroke-linejoin:miter;stroke-width:1.5;"/>
   </g>
   <g id="patch_7">
    <path clip-path="url(#p75bab11bbc)" d="M 104.75686 56.336707 
L 98.120352 51.82333 
L 100.097621 50.631123 
L 99.911782 50.40258 
L 99.938323 50.386577 
L 100.124162 50.61512 
L 102.101431 49.422913 
z
" style="stroke:#000000;stroke-linejoin:miter;"/>
   </g>
   <g id="line2d_1">
    <path clip-path="url(#p75bab11bbc)" d="M 23.4575 25.3475 
L 55.8575 25.3475 
L 58.5575 18.3725 
L 63.9575 32.3225 
L 69.3575 18.3725 
L 74.7575 32.3225 
L 80.1575 18.3725 
L 85.5575 32.3225 
L 88.2575 25.3475 
L 120.6575 25.3475 
" style="fill:none;stroke:#000000;stroke-linecap:round;stroke-width:1.5;"/>
   </g>
   <g id="line2d_2">
    <path clip-path="url(#p75bab11bbc)" d="M 120.6575 25.3475 
L 120.6575 64.6865 
M 128.7575 64.6865 
L 112.5575 64.6865 
M 128.7575 69.7085 
L 112.5575 69.7085 
M 120.6575 69.7085 
L 120.6575 109.0475 
" style="fill:none;stroke:#000000;stroke-linecap:round;stroke-width:1.5;"/>
   </g>
   <g id="line2d_3">
    <path clip-path="url(#p75bab11bbc)" d="M 120.6575 109.0475 
L 77.7275 109.0475 
M 66.3875 116.0225 
L 66.3875 102.0725 
M 66.3875 109.0475 
L 23.4575 109.0475 
" style="fill:none;stroke:#000000;stroke-linecap:round;stroke-width:1.5;"/>
   </g>
   <g id="line2d_4">
    <path clip-path="url(#p75bab11bbc)" d="M 23.4575 109.0475 
L 23.4575 81.1475 
M 23.4575 53.2475 
L 23.4575 25.3475 
" style="fill:none;stroke:#000000;stroke-linecap:round;stroke-width:1.5;"/>
   </g>
   <g id="patch_8">
    <path clip-path="url(#p75bab11bbc)" d="M 77.7275 116.0225 
L 66.3875 109.0475 
L 77.7275 102.0725 
z
" style="stroke:#000000;stroke-linejoin:miter;stroke-width:1.5;"/>
   </g>
   <g id="patch_9">
    <path clip-path="url(#p75bab11bbc)" d="M 77.7275 116.0225 
L 66.3875 109.0475 
L 77.7275 102.0725 
z
" style="fill:none;stroke:#000000;stroke-linejoin:miter;stroke-width:1.5;"/>
   </g>
   <g id="text_1">
    <!-- $I_1$ -->
    <defs>
     <path d="M 9.8125 72.90625 
L 19.671875 72.90625 
L 19.671875 0 
L 9.8125 0 
z
" id="DejaVuSans-49"/>
     <path d="M 12.40625 8.296875 
L 28.515625 8.296875 
L 28.515625 63.921875 
L 10.984375 60.40625 
L 10.984375 69.390625 
L 28.421875 72.90625 
L 38.28125 72.90625 
L 38.28125 8.296875 
L 54.390625 8.296875 
L 54.390625 0 
L 12.40625 0 
z
" id="DejaVuSans-31"/>
    </defs>
    <g transform="translate(65.8175 71.6125)scale(0.16 -0.16)">
     <use transform="translate(0 0.09375)" xlink:href="#DejaVuSans-49"/>
     <use transform="translate(30.449219 -16.3125)scale(0.7)" xlink:href="#DejaVuSans-31"/>
    </g>
   </g>
  </g>
 </g>
 <defs>
  <clipPath id="p75bab11bbc">
   <rect height="112.995" width="126.765" x="10.7" y="10.7"/>
  </clipPath>
 </defs>
</svg>
