<?xml version="1.0" encoding="utf-8" standalone="no"?>
<!DOCTYPE svg PUBLIC "-//W3C//DTD SVG 1.1//EN"
  "http://www.w3.org/Graphics/SVG/1.1/DTD/svg11.dtd">
<!-- Created with matplotlib (http://matplotlib.org/) -->
<svg height="127pt" version="1.1" viewBox="0 0 130 127" width="130pt" xmlns="http://www.w3.org/2000/svg" xmlns:xlink="http://www.w3.org/1999/xlink">
 <defs>
  <style type="text/css">
*{stroke-linecap:butt;stroke-linejoin:round;}
  </style>
 </defs>
 <g id="figure_1">
  <g id="patch_1">
   <path d="
M0 127.62
L130.23 127.62
L130.23 0
L0 0
L0 127.62" style="fill:none;"/>
  </g>
  <g id="axes_1">
   <g id="patch_2">
    <path clip-path="url(#pa392282536)" d="
M14.49 71.46
C13.4163 71.46 12.3854 71.8633 11.6262 72.5803
C10.867 73.2974 10.44 74.2709 10.44 75.285
C10.44 76.2991 10.867 77.2726 11.6262 77.9897
C12.3854 78.7067 13.4163 79.11 14.49 79.11" style="fill:none;stroke:#000000;stroke-linejoin:miter;stroke-width:1.5;"/>
   </g>
   <g id="patch_3">
    <path clip-path="url(#pa392282536)" d="
M14.49 63.81
C13.4163 63.81 12.3854 64.2133 11.6262 64.9303
C10.867 65.6474 10.44 66.6209 10.44 67.635
C10.44 68.6491 10.867 69.6226 11.6262 70.3397
C12.3854 71.0567 13.4163 71.46 14.49 71.46" style="fill:none;stroke:#000000;stroke-linejoin:miter;stroke-width:1.5;"/>
   </g>
   <g id="patch_4">
    <path clip-path="url(#pa392282536)" d="
M14.49 56.16
C13.4163 56.16 12.3854 56.5633 11.6262 57.2803
C10.867 57.9974 10.44 58.9709 10.44 59.985
C10.44 60.9991 10.867 61.9726 11.6262 62.6897
C12.3854 63.4067 13.4163 63.81 14.49 63.81" style="fill:none;stroke:#000000;stroke-linejoin:miter;stroke-width:1.5;"/>
   </g>
   <g id="patch_5">
    <path clip-path="url(#pa392282536)" d="
M14.49 48.51
C13.4163 48.51 12.3854 48.9133 11.6262 49.6303
C10.867 50.3474 10.44 51.3209 10.44 52.335
C10.44 53.3491 10.867 54.3226 11.6262 55.0397
C12.3854 55.7567 13.4163 56.16 14.49 56.16" style="fill:none;stroke:#000000;stroke-linejoin:miter;stroke-width:1.5;"/>
   </g>
   <g id="patch_6">
    <path clip-path="url(#pa392282536)" d="
M90.9576 45.381
C88.8957 42.5999 86.38 40.145 83.5044 38.1077
C80.6288 36.0704 77.4294 34.4764 74.0254 33.3851
C70.6214 32.2938 67.0556 31.7189 63.4611 31.6819
C59.8665 31.6449 56.2884 32.1462 52.86 33.1671
C49.4316 34.188 46.1961 35.7157 43.2741 37.6932
C40.3521 39.6708 37.7804 42.0733 35.6548 44.8112
C33.5291 47.5491 31.8764 50.588 30.7581 53.8146
C29.6398 57.0412 29.07 60.4149 29.07 63.81
C29.07 67.2051 29.6398 70.5788 30.7581 73.8054
C31.8764 77.032 33.5291 80.0709 35.6548 82.8088
C37.7804 85.5467 40.3521 87.9492 43.2741 89.9268
C46.1961 91.9043 49.4316 93.432 52.86 94.4529
C56.2884 95.4738 59.8665 95.9751 63.4611 95.9381
C67.0556 95.9011 70.6214 95.3262 74.0254 94.2349
C77.4294 93.1436 80.6288 91.5496 83.5044 89.5123
C86.38 87.475 88.8957 85.0201 90.9576 82.239" style="fill:none;stroke:#000000;stroke-linejoin:miter;stroke-width:1.5;"/>
   </g>
   <g id="patch_7">
    <path clip-path="url(#pa392282536)" d="
M95.7894 51.8982
L89.1529 46.948
L91.1301 45.6404
L90.9443 45.3898
L90.9708 45.3722
L91.1567 45.6229
L93.1339 44.3153
z
" style="stroke:#000000;stroke-linejoin:miter;"/>
   </g>
   <g id="line2d_1">
    <path clip-path="url(#pa392282536)" d="
M14.49 17.91
L46.89 17.91
L49.59 10.26
L54.99 25.56
L60.39 10.26
L65.79 25.56
L71.19 10.26
L76.59 25.56
L79.29 17.91
L111.69 17.91" style="fill:none;stroke:#000000;stroke-linecap:round;stroke-width:1.5;"/>
   </g>
   <g id="line2d_2">
    <path clip-path="url(#pa392282536)" d="
M111.69 17.91
L111.69 61.056
M119.79 61.056
L103.59 61.056
M119.79 66.564
L103.59 66.564
M111.69 66.564
L111.69 109.71" style="fill:none;stroke:#000000;stroke-linecap:round;stroke-width:1.5;"/>
   </g>
   <g id="line2d_3">
    <path clip-path="url(#pa392282536)" d="
M111.69 109.71
L68.76 109.71
M57.42 117.36
L57.42 102.06
M57.42 109.71
L14.49 109.71" style="fill:none;stroke:#000000;stroke-linecap:round;stroke-width:1.5;"/>
   </g>
   <g id="line2d_4">
    <path clip-path="url(#pa392282536)" d="
M14.49 109.71
L14.49 79.11
M14.49 48.51
L14.49 17.91" style="fill:none;stroke:#000000;stroke-linecap:round;stroke-width:1.5;"/>
   </g>
   <g id="patch_8">
    <path clip-path="url(#pa392282536)" d="
M68.76 117.36
L57.42 109.71
L68.76 102.06
z
" style="stroke:#000000;stroke-linejoin:miter;stroke-width:1.5;"/>
   </g>
   <g id="patch_9">
    <path clip-path="url(#pa392282536)" d="
M68.76 117.36
L57.42 109.71
L68.76 102.06
L68.76 117.36" style="fill:none;stroke:#000000;stroke-linejoin:miter;stroke-width:1.5;"/>
   </g>
   <g id="text_1">
    <!-- $I_1$ -->
    <defs>
     <path d="
M12.4062 8.29688
L28.5156 8.29688
L28.5156 63.9219
L10.9844 60.4062
L10.9844 69.3906
L28.4219 72.9062
L38.2812 72.9062
L38.2812 8.29688
L54.3906 8.29688
L54.3906 0
L12.4062 0
z
" id="BitstreamVeraSans-Roman-31"/>
     <path d="
M9.8125 72.9062
L19.6719 72.9062
L19.6719 0
L9.8125 0
z
" id="BitstreamVeraSans-Roman-49"/>
    </defs>
    <g transform="translate(55.57 67.09)scale(0.16 -0.16)">
     <use transform="translate(0.0 0.09375)" xlink:href="#BitstreamVeraSans-Roman-49"/>
     <use transform="translate(29.4921875 -31.40625)scale(0.7)" xlink:href="#BitstreamVeraSans-Roman-31"/>
    </g>
   </g>
  </g>
 </g>
 <defs>
  <clipPath id="pa392282536">
   <rect height="113.22" width="115.83" x="7.2" y="7.2"/>
  </clipPath>
 </defs>
</svg>
