<?xml version="1.0" encoding="utf-8" standalone="no"?>
<!DOCTYPE svg PUBLIC "-//W3C//DTD SVG 1.1//EN"
  "http://www.w3.org/Graphics/SVG/1.1/DTD/svg11.dtd">
<!-- Created with matplotlib (https://matplotlib.org/) -->
<svg height="127.395pt" version="1.1" viewBox="0 0 141.165 127.395" width="141.165pt" xmlns="http://www.w3.org/2000/svg" xmlns:xlink="http://www.w3.org/1999/xlink">
 <defs>
  <style type="text/css">
*{stroke-linecap:butt;stroke-linejoin:round;}
  </style>
 </defs>
 <g id="figure_1">
  <g id="patch_1">
   <path d="M 0 127.395 
L 141.165 127.395 
L 141.165 -0 
L 0 -0 
z
" style="fill:none;"/>
  </g>
  <g id="axes_1">
   <g id="patch_2">
    <path clip-path="url(#pfaaff4a415)" d="M 19.9575 70.6725 
C 18.883785 70.6725 17.852949 71.040183 17.093718 71.693965 
C 16.334486 72.347747 15.9075 73.235412 15.9075 74.16 
C 15.9075 75.084588 16.334486 75.972253 17.093718 76.626035 
C 17.852949 77.279817 18.883785 77.6475 19.9575 77.6475 
" style="fill:none;stroke:#000000;stroke-linejoin:miter;stroke-width:1.5;"/>
   </g>
   <g id="patch_3">
    <path clip-path="url(#pfaaff4a415)" d="M 19.9575 63.6975 
C 18.883785 63.6975 17.852949 64.065183 17.093718 64.718965 
C 16.334486 65.372747 15.9075 66.260412 15.9075 67.185 
C 15.9075 68.109588 16.334486 68.997253 17.093718 69.651035 
C 17.852949 70.304817 18.883785 70.6725 19.9575 70.6725 
" style="fill:none;stroke:#000000;stroke-linejoin:miter;stroke-width:1.5;"/>
   </g>
   <g id="patch_4">
    <path clip-path="url(#pfaaff4a415)" d="M 19.9575 56.7225 
C 18.883785 56.7225 17.852949 57.090183 17.093718 57.743965 
C 16.334486 58.397747 15.9075 59.285412 15.9075 60.21 
C 15.9075 61.134588 16.334486 62.022253 17.093718 62.676035 
C 17.852949 63.329817 18.883785 63.6975 19.9575 63.6975 
" style="fill:none;stroke:#000000;stroke-linejoin:miter;stroke-width:1.5;"/>
   </g>
   <g id="patch_5">
    <path clip-path="url(#pfaaff4a415)" d="M 19.9575 49.7475 
C 18.883785 49.7475 17.852949 50.115183 17.093718 50.768965 
C 16.334486 51.422747 15.9075 52.310412 15.9075 53.235 
C 15.9075 54.159588 16.334486 55.047253 17.093718 55.701035 
C 17.852949 56.354817 18.883785 56.7225 19.9575 56.7225 
" style="fill:none;stroke:#000000;stroke-linejoin:miter;stroke-width:1.5;"/>
   </g>
   <g id="patch_6">
    <path clip-path="url(#pfaaff4a415)" d="M 96.425053 46.894578 
C 94.363178 44.358897 91.847546 42.120583 88.971924 40.263065 
C 86.096301 38.405548 82.896865 36.952196 79.492871 35.957182 
C 76.088876 34.962168 72.523148 34.438009 68.928593 34.404243 
C 65.334039 34.370477 61.75588 34.827529 58.327489 35.758362 
C 54.899097 36.689195 51.663604 38.0821 48.741609 39.885156 
C 45.819613 41.688213 43.247876 43.878739 41.122255 46.375084 
C 38.996633 48.871429 37.34387 51.642188 36.22557 54.584085 
C 35.107269 57.525982 34.5375 60.602005 34.5375 63.6975 
C 34.5375 66.792995 35.107269 69.869018 36.22557 72.810915 
C 37.34387 75.752812 38.996633 78.523571 41.122255 81.019916 
C 43.247876 83.516261 45.819613 85.706787 48.741609 87.509844 
C 51.663604 89.3129 54.899097 90.705805 58.327489 91.636638 
C 61.75588 92.567471 65.334039 93.024523 68.928593 92.990757 
C 72.523148 92.956991 76.088876 92.432832 79.492871 91.437818 
C 82.896865 90.442804 86.096301 88.989452 88.971924 87.131935 
C 91.847546 85.274417 94.363178 83.036103 96.425053 80.500422 
" style="fill:none;stroke:#000000;stroke-linejoin:miter;stroke-width:1.5;"/>
   </g>
   <g id="patch_7">
    <path clip-path="url(#pfaaff4a415)" d="M 101.25686 52.836707 
L 94.620352 48.32333 
L 96.597621 47.131123 
L 96.411782 46.90258 
L 96.438323 46.886577 
L 96.624162 47.11512 
L 98.601431 45.922913 
z
" style="stroke:#000000;stroke-linejoin:miter;"/>
   </g>
   <g id="line2d_1">
    <path clip-path="url(#pfaaff4a415)" d="M 19.9575 21.8475 
L 52.3575 21.8475 
L 55.0575 14.8725 
L 60.4575 28.8225 
L 65.8575 14.8725 
L 71.2575 28.8225 
L 76.6575 14.8725 
L 82.0575 28.8225 
L 84.7575 21.8475 
L 117.1575 21.8475 
" style="fill:none;stroke:#000000;stroke-linecap:round;stroke-width:1.5;"/>
   </g>
   <g id="line2d_2">
    <path clip-path="url(#pfaaff4a415)" d="M 117.1575 21.8475 
L 117.1575 61.1865 
M 125.2575 61.1865 
L 109.0575 61.1865 
M 125.2575 66.2085 
L 109.0575 66.2085 
M 117.1575 66.2085 
L 117.1575 105.5475 
" style="fill:none;stroke:#000000;stroke-linecap:round;stroke-width:1.5;"/>
   </g>
   <g id="line2d_3">
    <path clip-path="url(#pfaaff4a415)" d="M 117.1575 105.5475 
L 74.2275 105.5475 
M 62.8875 112.5225 
L 62.8875 98.5725 
M 62.8875 105.5475 
L 19.9575 105.5475 
" style="fill:none;stroke:#000000;stroke-linecap:round;stroke-width:1.5;"/>
   </g>
   <g id="line2d_4">
    <path clip-path="url(#pfaaff4a415)" d="M 19.9575 105.5475 
L 19.9575 77.6475 
M 19.9575 49.7475 
L 19.9575 21.8475 
" style="fill:none;stroke:#000000;stroke-linecap:round;stroke-width:1.5;"/>
   </g>
   <g id="patch_8">
    <path clip-path="url(#pfaaff4a415)" d="M 74.2275 112.5225 
L 62.8875 105.5475 
L 74.2275 98.5725 
z
" style="stroke:#000000;stroke-linejoin:miter;stroke-width:1.5;"/>
   </g>
   <g id="patch_9">
    <path clip-path="url(#pfaaff4a415)" d="M 74.2275 112.5225 
L 62.8875 105.5475 
L 74.2275 98.5725 
z
" style="fill:none;stroke:#000000;stroke-linejoin:miter;stroke-width:1.5;"/>
   </g>
   <g id="text_1">
    <!-- $I_1$ -->
    <defs>
     <path d="M 9.8125 72.90625 
L 19.671875 72.90625 
L 19.671875 0 
L 9.8125 0 
z
" id="DejaVuSans-73"/>
     <path d="M 12.40625 8.296875 
L 28.515625 8.296875 
L 28.515625 63.921875 
L 10.984375 60.40625 
L 10.984375 69.390625 
L 28.421875 72.90625 
L 38.28125 72.90625 
L 38.28125 8.296875 
L 54.390625 8.296875 
L 54.390625 0 
L 12.40625 0 
z
" id="DejaVuSans-49"/>
    </defs>
    <g transform="translate(62.3175 68.1125)scale(0.16 -0.16)">
     <use transform="translate(0 0.09375)" xlink:href="#DejaVuSans-73"/>
     <use transform="translate(30.449219 -16.3125)scale(0.7)" xlink:href="#DejaVuSans-49"/>
    </g>
   </g>
  </g>
 </g>
 <defs>
  <clipPath id="pfaaff4a415">
   <rect height="112.995" width="126.765" x="7.2" y="7.2"/>
  </clipPath>
 </defs>
</svg>
