<?xml version="1.0" encoding="utf-8" standalone="no"?>
<!DOCTYPE svg PUBLIC "-//W3C//DTD SVG 1.1//EN"
  "http://www.w3.org/Graphics/SVG/1.1/DTD/svg11.dtd">
<!-- Created with matplotlib (http://matplotlib.org/) -->
<svg height="127pt" version="1.1" viewBox="0 0 130 127" width="130pt" xmlns="http://www.w3.org/2000/svg" xmlns:xlink="http://www.w3.org/1999/xlink">
 <defs>
  <style type="text/css">
*{stroke-linecap:butt;stroke-linejoin:round;stroke-miterlimit:100000;}
  </style>
 </defs>
 <g id="figure_1">
  <g id="patch_1">
   <path d="M 0 127.62 
L 130.23 127.62 
L 130.23 0 
L 0 0 
z
" style="fill:none;"/>
  </g>
  <g id="axes_1">
   <g id="patch_2">
    <path clip-path="url(#pdefbae25fd)" d="M 14.49 71.46 
C 13.416285 71.46 12.385449 71.863265 11.626218 72.580317 
C 10.866986 73.297368 10.44 74.270936 10.44 75.285 
C 10.44 76.299064 10.866986 77.272632 11.626218 77.989683 
C 12.385449 78.706735 13.416285 79.11 14.49 79.11 
" style="fill:none;stroke:#000000;stroke-linejoin:miter;stroke-width:1.5;"/>
   </g>
   <g id="patch_3">
    <path clip-path="url(#pdefbae25fd)" d="M 14.49 63.81 
C 13.416285 63.81 12.385449 64.213265 11.626218 64.930317 
C 10.866986 65.647368 10.44 66.620936 10.44 67.635 
C 10.44 68.649064 10.866986 69.622632 11.626218 70.339683 
C 12.385449 71.056735 13.416285 71.46 14.49 71.46 
" style="fill:none;stroke:#000000;stroke-linejoin:miter;stroke-width:1.5;"/>
   </g>
   <g id="patch_4">
    <path clip-path="url(#pdefbae25fd)" d="M 14.49 56.16 
C 13.416285 56.16 12.385449 56.563265 11.626218 57.280317 
C 10.866986 57.997368 10.44 58.970936 10.44 59.985 
C 10.44 60.999064 10.866986 61.972632 11.626218 62.689683 
C 12.385449 63.406735 13.416285 63.81 14.49 63.81 
" style="fill:none;stroke:#000000;stroke-linejoin:miter;stroke-width:1.5;"/>
   </g>
   <g id="patch_5">
    <path clip-path="url(#pdefbae25fd)" d="M 14.49 48.51 
C 13.416285 48.51 12.385449 48.913265 11.626218 49.630317 
C 10.866986 50.347368 10.44 51.320936 10.44 52.335 
C 10.44 53.349064 10.866986 54.322632 11.626218 55.039683 
C 12.385449 55.756735 13.416285 56.16 14.49 56.16 
" style="fill:none;stroke:#000000;stroke-linejoin:miter;stroke-width:1.5;"/>
   </g>
   <g id="patch_6">
    <path clip-path="url(#pdefbae25fd)" d="M 90.957553 45.380989 
C 88.895678 42.59992 86.380046 40.144994 83.504424 38.107717 
C 80.628801 36.07044 77.429365 34.476441 74.025371 33.385135 
C 70.621376 32.293829 67.055648 31.718945 63.461093 31.681912 
C 59.866539 31.644878 56.28838 32.14616 52.859989 33.167074 
C 49.431597 34.187988 46.196104 35.71569 43.274109 37.693236 
C 40.352113 39.670782 37.780376 42.073294 35.654755 44.811221 
C 33.529133 47.549148 31.87637 50.588045 30.75807 53.814642 
C 29.639769 57.041238 29.07 60.414941 29.07 63.81 
C 29.07 67.205059 29.639769 70.578762 30.75807 73.805358 
C 31.87637 77.031955 33.529133 80.070852 35.654755 82.808779 
C 37.780376 85.546706 40.352113 87.949218 43.274109 89.926764 
C 46.196104 91.90431 49.431597 93.432012 52.859989 94.452926 
C 56.28838 95.47384 59.866539 95.975122 63.461093 95.938088 
C 67.055648 95.901055 70.621376 95.326171 74.025371 94.234865 
C 77.429365 93.143559 80.628801 91.54956 83.504424 89.512283 
C 86.380046 87.475006 88.895678 85.02008 90.957553 82.239011 
" style="fill:none;stroke:#000000;stroke-linejoin:miter;stroke-width:1.5;"/>
   </g>
   <g id="patch_7">
    <path clip-path="url(#pdefbae25fd)" d="M 95.78936 51.898163 
L 89.152852 46.948008 
L 91.130121 45.640425 
L 90.944282 45.389765 
L 90.970823 45.372213 
L 91.156662 45.622874 
L 93.133931 44.315292 
z
" style="stroke:#000000;stroke-linejoin:miter;"/>
   </g>
   <g id="line2d_1">
    <path clip-path="url(#pdefbae25fd)" d="M 14.49 17.91 
L 46.89 17.91 
L 49.59 10.26 
L 54.99 25.56 
L 60.39 10.26 
L 65.79 25.56 
L 71.19 10.26 
L 76.59 25.56 
L 79.29 17.91 
L 111.69 17.91 
" style="fill:none;stroke:#000000;stroke-linecap:round;stroke-width:1.5;"/>
   </g>
   <g id="line2d_2">
    <path clip-path="url(#pdefbae25fd)" d="M 111.69 17.91 
L 111.69 61.056 
M 119.79 61.056 
L 103.59 61.056 
M 119.79 66.564 
L 103.59 66.564 
M 111.69 66.564 
L 111.69 109.71 
" style="fill:none;stroke:#000000;stroke-linecap:round;stroke-width:1.5;"/>
   </g>
   <g id="line2d_3">
    <path clip-path="url(#pdefbae25fd)" d="M 111.69 109.71 
L 68.76 109.71 
M 57.42 117.36 
L 57.42 102.06 
M 57.42 109.71 
L 14.49 109.71 
" style="fill:none;stroke:#000000;stroke-linecap:round;stroke-width:1.5;"/>
   </g>
   <g id="line2d_4">
    <path clip-path="url(#pdefbae25fd)" d="M 14.49 109.71 
L 14.49 79.11 
M 14.49 48.51 
L 14.49 17.91 
" style="fill:none;stroke:#000000;stroke-linecap:round;stroke-width:1.5;"/>
   </g>
   <g id="patch_8">
    <path clip-path="url(#pdefbae25fd)" d="M 68.76 117.36 
L 57.42 109.71 
L 68.76 102.06 
z
" style="stroke:#000000;stroke-linejoin:miter;stroke-width:1.5;"/>
   </g>
   <g id="patch_9">
    <path clip-path="url(#pdefbae25fd)" d="M 68.76 117.36 
L 57.42 109.71 
L 68.76 102.06 
z
" style="fill:none;stroke:#000000;stroke-linejoin:miter;stroke-width:1.5;"/>
   </g>
   <g id="text_1">
    <!-- $I_1$ -->
    <defs>
     <path d="M 9.8125 72.90625 
L 19.671875 72.90625 
L 19.671875 0 
L 9.8125 0 
z
" id="BitstreamVeraSans-Roman-49"/>
     <path d="M 12.40625 8.296875 
L 28.515625 8.296875 
L 28.515625 63.921875 
L 10.984375 60.40625 
L 10.984375 69.390625 
L 28.421875 72.90625 
L 38.28125 72.90625 
L 38.28125 8.296875 
L 54.390625 8.296875 
L 54.390625 0 
L 12.40625 0 
z
" id="BitstreamVeraSans-Roman-31"/>
    </defs>
    <g transform="translate(56.53 67.09)scale(0.16 -0.16)">
     <use transform="translate(0.0 0.09375)" xlink:href="#BitstreamVeraSans-Roman-49"/>
     <use transform="translate(31.3296875 -31.40625)scale(0.7)" xlink:href="#BitstreamVeraSans-Roman-31"/>
    </g>
   </g>
  </g>
 </g>
 <defs>
  <clipPath id="pdefbae25fd">
   <rect height="113.22" width="115.83" x="7.2" y="7.2"/>
  </clipPath>
 </defs>
</svg>
