<?xml version="1.0" encoding="utf-8" standalone="no"?>
<!DOCTYPE svg PUBLIC "-//W3C//DTD SVG 1.1//EN"
  "http://www.w3.org/Graphics/SVG/1.1/DTD/svg11.dtd">
<!-- Created with matplotlib (https://matplotlib.org/) -->
<svg height="69.380625pt" version="1.1" viewBox="0 0 412.92 69.380625" width="412.92pt" xmlns="http://www.w3.org/2000/svg" xmlns:xlink="http://www.w3.org/1999/xlink">
 <defs>
  <style type="text/css">
*{stroke-linecap:butt;stroke-linejoin:round;}
  </style>
 </defs>
 <g id="figure_1">
  <g id="patch_1">
   <path d="M 0 69.380625 
L 412.92 69.380625 
L 412.92 0 
L 0 0 
z
" style="fill:none;"/>
  </g>
  <g id="axes_1">
   <g id="line2d_1">
    <path clip-path="url(#p05b4d579b2)" d="M 125.46 44.045625 
L 93.06 44.045625 
L 93.06 44.045625 
M 60.66 44.045625 
L 60.66 44.045625 
L 28.26 44.045625 
" style="fill:none;stroke:#000000;stroke-linecap:round;stroke-width:1.5;"/>
   </g>
   <g id="line2d_2">
    <path clip-path="url(#p05b4d579b2)" d="M 255.06 44.045625 
L 222.66 44.045625 
L 222.66 44.045625 
M 190.26 44.045625 
L 190.26 44.045625 
L 157.86 44.045625 
" style="fill:none;stroke:#000000;stroke-linecap:round;stroke-width:1.5;"/>
   </g>
   <g id="line2d_3">
    <path clip-path="url(#p05b4d579b2)" d="M 384.66 44.045625 
L 352.26 44.045625 
L 352.26 44.045625 
M 319.86 44.045625 
L 319.86 44.045625 
L 287.46 44.045625 
" style="fill:none;stroke:#000000;stroke-linecap:round;stroke-width:1.5;"/>
   </g>
   <g id="patch_2">
    <path clip-path="url(#p05b4d579b2)" d="M 76.86 57.995625 
C 81.15629 57.995625 85.277194 56.525765 88.31513 53.909765 
C 91.353066 51.293764 93.06 47.745208 93.06 44.045625 
C 93.06 40.346042 91.353066 36.797486 88.31513 34.181485 
C 85.277194 31.565485 81.15629 30.095625 76.86 30.095625 
C 72.56371 30.095625 68.442806 31.565485 65.40487 34.181485 
C 62.366934 36.797486 60.66 40.346042 60.66 44.045625 
C 60.66 47.745208 62.366934 51.293764 65.40487 53.909765 
C 68.442806 56.525765 72.56371 57.995625 76.86 57.995625 
z
" style="fill:none;stroke:#000000;stroke-linejoin:miter;stroke-width:1.5;"/>
   </g>
   <g id="patch_3">
    <path clip-path="url(#p05b4d579b2)" d="M 206.46 57.995625 
C 210.75629 57.995625 214.877194 56.525765 217.91513 53.909765 
C 220.953066 51.293764 222.66 47.745208 222.66 44.045625 
C 222.66 40.346042 220.953066 36.797486 217.91513 34.181485 
C 214.877194 31.565485 210.75629 30.095625 206.46 30.095625 
C 202.16371 30.095625 198.042806 31.565485 195.00487 34.181485 
C 191.966934 36.797486 190.26 40.346042 190.26 44.045625 
C 190.26 47.745208 191.966934 51.293764 195.00487 53.909765 
C 198.042806 56.525765 202.16371 57.995625 206.46 57.995625 
z
" style="fill:none;stroke:#000000;stroke-linejoin:miter;stroke-width:1.5;"/>
   </g>
   <g id="patch_4">
    <path clip-path="url(#p05b4d579b2)" d="M 336.06 57.995625 
C 340.35629 57.995625 344.477194 56.525765 347.51513 53.909765 
C 350.553066 51.293764 352.26 47.745208 352.26 44.045625 
C 352.26 40.346042 350.553066 36.797486 347.51513 34.181485 
C 344.477194 31.565485 340.35629 30.095625 336.06 30.095625 
C 331.76371 30.095625 327.642806 31.565485 324.60487 34.181485 
C 321.566934 36.797486 319.86 40.346042 319.86 44.045625 
C 319.86 47.745208 321.566934 51.293764 324.60487 53.909765 
C 327.642806 56.525765 331.76371 57.995625 336.06 57.995625 
z
" style="fill:none;stroke:#000000;stroke-linejoin:miter;stroke-width:1.5;"/>
   </g>
   <g id="text_1">
    <!-- METER_V -->
    <defs>
     <path d="M 9.8125 72.90625 
L 24.515625 72.90625 
L 43.109375 23.296875 
L 61.8125 72.90625 
L 76.515625 72.90625 
L 76.515625 0 
L 66.890625 0 
L 66.890625 64.015625 
L 48.09375 14.015625 
L 38.1875 14.015625 
L 19.390625 64.015625 
L 19.390625 0 
L 9.8125 0 
z
" id="DejaVuSans-77"/>
     <path d="M 9.8125 72.90625 
L 55.90625 72.90625 
L 55.90625 64.59375 
L 19.671875 64.59375 
L 19.671875 43.015625 
L 54.390625 43.015625 
L 54.390625 34.71875 
L 19.671875 34.71875 
L 19.671875 8.296875 
L 56.78125 8.296875 
L 56.78125 0 
L 9.8125 0 
z
" id="DejaVuSans-69"/>
     <path d="M -0.296875 72.90625 
L 61.375 72.90625 
L 61.375 64.59375 
L 35.5 64.59375 
L 35.5 0 
L 25.59375 0 
L 25.59375 64.59375 
L -0.296875 64.59375 
z
" id="DejaVuSans-84"/>
     <path d="M 44.390625 34.1875 
Q 47.5625 33.109375 50.5625 29.59375 
Q 53.5625 26.078125 56.59375 19.921875 
L 66.609375 0 
L 56 0 
L 46.6875 18.703125 
Q 43.0625 26.03125 39.671875 28.421875 
Q 36.28125 30.8125 30.421875 30.8125 
L 19.671875 30.8125 
L 19.671875 0 
L 9.8125 0 
L 9.8125 72.90625 
L 32.078125 72.90625 
Q 44.578125 72.90625 50.734375 67.671875 
Q 56.890625 62.453125 56.890625 51.90625 
Q 56.890625 45.015625 53.6875 40.46875 
Q 50.484375 35.9375 44.390625 34.1875 
z
M 19.671875 64.796875 
L 19.671875 38.921875 
L 32.078125 38.921875 
Q 39.203125 38.921875 42.84375 42.21875 
Q 46.484375 45.515625 46.484375 51.90625 
Q 46.484375 58.296875 42.84375 61.546875 
Q 39.203125 64.796875 32.078125 64.796875 
z
" id="DejaVuSans-82"/>
     <path d="M 50.984375 -16.609375 
L 50.984375 -23.578125 
L -0.984375 -23.578125 
L -0.984375 -16.609375 
z
" id="DejaVuSans-95"/>
     <path d="M 28.609375 0 
L 0.78125 72.90625 
L 11.078125 72.90625 
L 34.1875 11.53125 
L 57.328125 72.90625 
L 67.578125 72.90625 
L 39.796875 0 
z
" id="DejaVuSans-86"/>
    </defs>
    <g transform="translate(49.1625 16.10625)scale(0.12 -0.12)">
     <use xlink:href="#DejaVuSans-77"/>
     <use x="86.279297" xlink:href="#DejaVuSans-69"/>
     <use x="149.462891" xlink:href="#DejaVuSans-84"/>
     <use x="210.546875" xlink:href="#DejaVuSans-69"/>
     <use x="273.730469" xlink:href="#DejaVuSans-82"/>
     <use x="343.212891" xlink:href="#DejaVuSans-95"/>
     <use x="393.212891" xlink:href="#DejaVuSans-86"/>
    </g>
   </g>
   <g id="text_2">
    <!-- V -->
    <g transform="translate(72.755625 47.356875)scale(0.12 -0.12)">
     <use xlink:href="#DejaVuSans-86"/>
    </g>
   </g>
   <g id="text_3">
    <!-- METER_I -->
    <defs>
     <path d="M 9.8125 72.90625 
L 19.671875 72.90625 
L 19.671875 0 
L 9.8125 0 
z
" id="DejaVuSans-73"/>
    </defs>
    <g transform="translate(181.096875 16.10625)scale(0.12 -0.12)">
     <use xlink:href="#DejaVuSans-77"/>
     <use x="86.279297" xlink:href="#DejaVuSans-69"/>
     <use x="149.462891" xlink:href="#DejaVuSans-84"/>
     <use x="210.546875" xlink:href="#DejaVuSans-69"/>
     <use x="273.730469" xlink:href="#DejaVuSans-82"/>
     <use x="343.212891" xlink:href="#DejaVuSans-95"/>
     <use x="393.212891" xlink:href="#DejaVuSans-73"/>
    </g>
   </g>
   <g id="text_4">
    <!-- I -->
    <g transform="translate(204.69 47.356875)scale(0.12 -0.12)">
     <use xlink:href="#DejaVuSans-73"/>
    </g>
   </g>
   <g id="text_5">
    <!-- METER_OHM -->
    <defs>
     <path d="M 39.40625 66.21875 
Q 28.65625 66.21875 22.328125 58.203125 
Q 16.015625 50.203125 16.015625 36.375 
Q 16.015625 22.609375 22.328125 14.59375 
Q 28.65625 6.59375 39.40625 6.59375 
Q 50.140625 6.59375 56.421875 14.59375 
Q 62.703125 22.609375 62.703125 36.375 
Q 62.703125 50.203125 56.421875 58.203125 
Q 50.140625 66.21875 39.40625 66.21875 
z
M 39.40625 74.21875 
Q 54.734375 74.21875 63.90625 63.9375 
Q 73.09375 53.65625 73.09375 36.375 
Q 73.09375 19.140625 63.90625 8.859375 
Q 54.734375 -1.421875 39.40625 -1.421875 
Q 24.03125 -1.421875 14.8125 8.828125 
Q 5.609375 19.09375 5.609375 36.375 
Q 5.609375 53.65625 14.8125 63.9375 
Q 24.03125 74.21875 39.40625 74.21875 
z
" id="DejaVuSans-79"/>
     <path d="M 9.8125 72.90625 
L 19.671875 72.90625 
L 19.671875 43.015625 
L 55.515625 43.015625 
L 55.515625 72.90625 
L 65.375 72.90625 
L 65.375 0 
L 55.515625 0 
L 55.515625 34.71875 
L 19.671875 34.71875 
L 19.671875 0 
L 9.8125 0 
z
" id="DejaVuSans-72"/>
    </defs>
    <g transform="translate(298.054688 16.10625)scale(0.12 -0.12)">
     <use xlink:href="#DejaVuSans-77"/>
     <use x="86.279297" xlink:href="#DejaVuSans-69"/>
     <use x="149.462891" xlink:href="#DejaVuSans-84"/>
     <use x="210.546875" xlink:href="#DejaVuSans-69"/>
     <use x="273.730469" xlink:href="#DejaVuSans-82"/>
     <use x="343.212891" xlink:href="#DejaVuSans-95"/>
     <use x="393.212891" xlink:href="#DejaVuSans-79"/>
     <use x="471.923828" xlink:href="#DejaVuSans-72"/>
     <use x="547.119141" xlink:href="#DejaVuSans-77"/>
    </g>
   </g>
   <g id="text_6">
    <!-- $\Omega$ -->
    <defs>
     <path d="M 72.609375 8.6875 
L 72.609375 0 
L 43.3125 0 
L 43.3125 8.6875 
Q 51.953125 13.421875 56.78125 21.53125 
Q 61.625 29.640625 61.625 39.5 
Q 61.625 51.21875 55.171875 58.296875 
Q 48.734375 65.375 38.1875 65.375 
Q 27.640625 65.375 21.171875 58.265625 
Q 14.703125 51.171875 14.703125 39.5 
Q 14.703125 29.640625 19.53125 21.53125 
Q 24.421875 13.421875 33.109375 8.6875 
L 33.109375 0 
L 3.8125 0 
L 3.8125 8.6875 
L 19.390625 8.6875 
Q 11.671875 15.484375 8.109375 22.75 
Q 4.59375 30.03125 4.59375 39.015625 
Q 4.59375 54.546875 13.96875 64.15625 
Q 23.296875 73.78125 38.1875 73.78125 
Q 52.984375 73.78125 62.40625 64.15625 
Q 71.78125 54.59375 71.78125 39.5 
Q 71.78125 30.03125 68.3125 22.796875 
Q 64.84375 15.578125 56.984375 8.6875 
z
" id="DejaVuSans-937"/>
    </defs>
    <g transform="translate(331.44 47.356875)scale(0.12 -0.12)">
     <use transform="translate(0 0.21875)" xlink:href="#DejaVuSans-937"/>
    </g>
   </g>
  </g>
 </g>
 <defs>
  <clipPath id="p05b4d579b2">
   <rect height="36.27" width="398.52" x="7.2" y="25.910625"/>
  </clipPath>
 </defs>
</svg>
