<?xml version="1.0" encoding="utf-8" standalone="no"?>
<!DOCTYPE svg PUBLIC "-//W3C//DTD SVG 1.1//EN"
  "http://www.w3.org/Graphics/SVG/1.1/DTD/svg11.dtd">
<!-- Created with matplotlib (http://matplotlib.org/) -->
<svg height="72.880625pt" version="1.1" viewBox="0 0 419.92 72.880625" width="419.92pt" xmlns="http://www.w3.org/2000/svg" xmlns:xlink="http://www.w3.org/1999/xlink">
 <defs>
  <style type="text/css">
*{stroke-linecap:butt;stroke-linejoin:round;}
  </style>
 </defs>
 <g id="figure_1">
  <g id="patch_1">
   <path d="M 0 72.880625 
L 419.92 72.880625 
L 419.92 0 
L 0 0 
z
" style="fill:none;"/>
  </g>
  <g id="axes_1">
   <g id="line2d_1">
    <path clip-path="url(#pb422a0c61d)" d="M 128.96 44.045625 
L 96.56 44.045625 
L 96.56 44.045625 
M 64.16 44.045625 
L 64.16 44.045625 
L 31.76 44.045625 
" style="fill:none;stroke:#000000;stroke-linecap:round;stroke-width:1.5;"/>
   </g>
   <g id="line2d_2">
    <path clip-path="url(#pb422a0c61d)" d="M 258.56 44.045625 
L 226.16 44.045625 
L 226.16 44.045625 
M 193.76 44.045625 
L 193.76 44.045625 
L 161.36 44.045625 
" style="fill:none;stroke:#000000;stroke-linecap:round;stroke-width:1.5;"/>
   </g>
   <g id="line2d_3">
    <path clip-path="url(#pb422a0c61d)" d="M 388.16 44.045625 
L 355.76 44.045625 
L 355.76 44.045625 
M 323.36 44.045625 
L 323.36 44.045625 
L 290.96 44.045625 
" style="fill:none;stroke:#000000;stroke-linecap:round;stroke-width:1.5;"/>
   </g>
   <g id="patch_2">
    <path clip-path="url(#pb422a0c61d)" d="M 80.36 57.995625 
C 84.65629 57.995625 88.777194 56.525765 91.81513 53.909765 
C 94.853066 51.293764 96.56 47.745208 96.56 44.045625 
C 96.56 40.346042 94.853066 36.797486 91.81513 34.181485 
C 88.777194 31.565485 84.65629 30.095625 80.36 30.095625 
C 76.06371 30.095625 71.942806 31.565485 68.90487 34.181485 
C 65.866934 36.797486 64.16 40.346042 64.16 44.045625 
C 64.16 47.745208 65.866934 51.293764 68.90487 53.909765 
C 71.942806 56.525765 76.06371 57.995625 80.36 57.995625 
z
" style="fill:none;stroke:#000000;stroke-linejoin:miter;stroke-width:1.5;"/>
   </g>
   <g id="patch_3">
    <path clip-path="url(#pb422a0c61d)" d="M 209.96 57.995625 
C 214.25629 57.995625 218.377194 56.525765 221.41513 53.909765 
C 224.453066 51.293764 226.16 47.745208 226.16 44.045625 
C 226.16 40.346042 224.453066 36.797486 221.41513 34.181485 
C 218.377194 31.565485 214.25629 30.095625 209.96 30.095625 
C 205.66371 30.095625 201.542806 31.565485 198.50487 34.181485 
C 195.466934 36.797486 193.76 40.346042 193.76 44.045625 
C 193.76 47.745208 195.466934 51.293764 198.50487 53.909765 
C 201.542806 56.525765 205.66371 57.995625 209.96 57.995625 
z
" style="fill:none;stroke:#000000;stroke-linejoin:miter;stroke-width:1.5;"/>
   </g>
   <g id="patch_4">
    <path clip-path="url(#pb422a0c61d)" d="M 339.56 57.995625 
C 343.85629 57.995625 347.977194 56.525765 351.01513 53.909765 
C 354.053066 51.293764 355.76 47.745208 355.76 44.045625 
C 355.76 40.346042 354.053066 36.797486 351.01513 34.181485 
C 347.977194 31.565485 343.85629 30.095625 339.56 30.095625 
C 335.26371 30.095625 331.142806 31.565485 328.10487 34.181485 
C 325.066934 36.797486 323.36 40.346042 323.36 44.045625 
C 323.36 47.745208 325.066934 51.293764 328.10487 53.909765 
C 331.142806 56.525765 335.26371 57.995625 339.56 57.995625 
z
" style="fill:none;stroke:#000000;stroke-linejoin:miter;stroke-width:1.5;"/>
   </g>
   <g id="text_1">
    <!-- METER_V -->
    <defs>
     <path d="M 9.8125 72.90625 
L 24.515625 72.90625 
L 43.109375 23.296875 
L 61.8125 72.90625 
L 76.515625 72.90625 
L 76.515625 0 
L 66.890625 0 
L 66.890625 64.015625 
L 48.09375 14.015625 
L 38.1875 14.015625 
L 19.390625 64.015625 
L 19.390625 0 
L 9.8125 0 
z
" id="DejaVuSans-4d"/>
     <path d="M 9.8125 72.90625 
L 55.90625 72.90625 
L 55.90625 64.59375 
L 19.671875 64.59375 
L 19.671875 43.015625 
L 54.390625 43.015625 
L 54.390625 34.71875 
L 19.671875 34.71875 
L 19.671875 8.296875 
L 56.78125 8.296875 
L 56.78125 0 
L 9.8125 0 
z
" id="DejaVuSans-45"/>
     <path d="M -0.296875 72.90625 
L 61.375 72.90625 
L 61.375 64.59375 
L 35.5 64.59375 
L 35.5 0 
L 25.59375 0 
L 25.59375 64.59375 
L -0.296875 64.59375 
z
" id="DejaVuSans-54"/>
     <path d="M 44.390625 34.1875 
Q 47.5625 33.109375 50.5625 29.59375 
Q 53.5625 26.078125 56.59375 19.921875 
L 66.609375 0 
L 56 0 
L 46.6875 18.703125 
Q 43.0625 26.03125 39.671875 28.421875 
Q 36.28125 30.8125 30.421875 30.8125 
L 19.671875 30.8125 
L 19.671875 0 
L 9.8125 0 
L 9.8125 72.90625 
L 32.078125 72.90625 
Q 44.578125 72.90625 50.734375 67.671875 
Q 56.890625 62.453125 56.890625 51.90625 
Q 56.890625 45.015625 53.6875 40.46875 
Q 50.484375 35.9375 44.390625 34.1875 
z
M 19.671875 64.796875 
L 19.671875 38.921875 
L 32.078125 38.921875 
Q 39.203125 38.921875 42.84375 42.21875 
Q 46.484375 45.515625 46.484375 51.90625 
Q 46.484375 58.296875 42.84375 61.546875 
Q 39.203125 64.796875 32.078125 64.796875 
z
" id="DejaVuSans-52"/>
     <path d="M 50.984375 -16.609375 
L 50.984375 -23.578125 
L -0.984375 -23.578125 
L -0.984375 -16.609375 
z
" id="DejaVuSans-5f"/>
     <path d="M 28.609375 0 
L 0.78125 72.90625 
L 11.078125 72.90625 
L 34.1875 11.53125 
L 57.328125 72.90625 
L 67.578125 72.90625 
L 39.796875 0 
z
" id="DejaVuSans-56"/>
    </defs>
    <g transform="translate(52.6625 16.10625)scale(0.12 -0.12)">
     <use xlink:href="#DejaVuSans-4d"/>
     <use x="86.279297" xlink:href="#DejaVuSans-45"/>
     <use x="149.462891" xlink:href="#DejaVuSans-54"/>
     <use x="210.546875" xlink:href="#DejaVuSans-45"/>
     <use x="273.730469" xlink:href="#DejaVuSans-52"/>
     <use x="343.212891" xlink:href="#DejaVuSans-5f"/>
     <use x="393.212891" xlink:href="#DejaVuSans-56"/>
    </g>
   </g>
   <g id="text_2">
    <!-- V -->
    <g transform="translate(76.255625 47.356875)scale(0.12 -0.12)">
     <use xlink:href="#DejaVuSans-56"/>
    </g>
   </g>
   <g id="text_3">
    <!-- METER_I -->
    <defs>
     <path d="M 9.8125 72.90625 
L 19.671875 72.90625 
L 19.671875 0 
L 9.8125 0 
z
" id="DejaVuSans-49"/>
    </defs>
    <g transform="translate(184.596875 16.10625)scale(0.12 -0.12)">
     <use xlink:href="#DejaVuSans-4d"/>
     <use x="86.279297" xlink:href="#DejaVuSans-45"/>
     <use x="149.462891" xlink:href="#DejaVuSans-54"/>
     <use x="210.546875" xlink:href="#DejaVuSans-45"/>
     <use x="273.730469" xlink:href="#DejaVuSans-52"/>
     <use x="343.212891" xlink:href="#DejaVuSans-5f"/>
     <use x="393.212891" xlink:href="#DejaVuSans-49"/>
    </g>
   </g>
   <g id="text_4">
    <!-- I -->
    <g transform="translate(208.19 47.356875)scale(0.12 -0.12)">
     <use xlink:href="#DejaVuSans-49"/>
    </g>
   </g>
   <g id="text_5">
    <!-- METER_OHM -->
    <defs>
     <path d="M 39.40625 66.21875 
Q 28.65625 66.21875 22.328125 58.203125 
Q 16.015625 50.203125 16.015625 36.375 
Q 16.015625 22.609375 22.328125 14.59375 
Q 28.65625 6.59375 39.40625 6.59375 
Q 50.140625 6.59375 56.421875 14.59375 
Q 62.703125 22.609375 62.703125 36.375 
Q 62.703125 50.203125 56.421875 58.203125 
Q 50.140625 66.21875 39.40625 66.21875 
z
M 39.40625 74.21875 
Q 54.734375 74.21875 63.90625 63.9375 
Q 73.09375 53.65625 73.09375 36.375 
Q 73.09375 19.140625 63.90625 8.859375 
Q 54.734375 -1.421875 39.40625 -1.421875 
Q 24.03125 -1.421875 14.8125 8.828125 
Q 5.609375 19.09375 5.609375 36.375 
Q 5.609375 53.65625 14.8125 63.9375 
Q 24.03125 74.21875 39.40625 74.21875 
z
" id="DejaVuSans-4f"/>
     <path d="M 9.8125 72.90625 
L 19.671875 72.90625 
L 19.671875 43.015625 
L 55.515625 43.015625 
L 55.515625 72.90625 
L 65.375 72.90625 
L 65.375 0 
L 55.515625 0 
L 55.515625 34.71875 
L 19.671875 34.71875 
L 19.671875 0 
L 9.8125 0 
z
" id="DejaVuSans-48"/>
    </defs>
    <g transform="translate(301.554688 16.10625)scale(0.12 -0.12)">
     <use xlink:href="#DejaVuSans-4d"/>
     <use x="86.279297" xlink:href="#DejaVuSans-45"/>
     <use x="149.462891" xlink:href="#DejaVuSans-54"/>
     <use x="210.546875" xlink:href="#DejaVuSans-45"/>
     <use x="273.730469" xlink:href="#DejaVuSans-52"/>
     <use x="343.212891" xlink:href="#DejaVuSans-5f"/>
     <use x="393.212891" xlink:href="#DejaVuSans-4f"/>
     <use x="471.923828" xlink:href="#DejaVuSans-48"/>
     <use x="547.119141" xlink:href="#DejaVuSans-4d"/>
    </g>
   </g>
   <g id="text_6">
    <!-- $\Omega$ -->
    <defs>
     <path d="M 72.609375 8.6875 
L 72.609375 0 
L 43.3125 0 
L 43.3125 8.6875 
Q 51.953125 13.421875 56.78125 21.53125 
Q 61.625 29.640625 61.625 39.5 
Q 61.625 51.21875 55.171875 58.296875 
Q 48.734375 65.375 38.1875 65.375 
Q 27.640625 65.375 21.171875 58.265625 
Q 14.703125 51.171875 14.703125 39.5 
Q 14.703125 29.640625 19.53125 21.53125 
Q 24.421875 13.421875 33.109375 8.6875 
L 33.109375 0 
L 3.8125 0 
L 3.8125 8.6875 
L 19.390625 8.6875 
Q 11.671875 15.484375 8.109375 22.75 
Q 4.59375 30.03125 4.59375 39.015625 
Q 4.59375 54.546875 13.96875 64.15625 
Q 23.296875 73.78125 38.1875 73.78125 
Q 52.984375 73.78125 62.40625 64.15625 
Q 71.78125 54.59375 71.78125 39.5 
Q 71.78125 30.03125 68.3125 22.796875 
Q 64.84375 15.578125 56.984375 8.6875 
z
" id="DejaVuSans-3a9"/>
    </defs>
    <g transform="translate(334.94 47.356875)scale(0.12 -0.12)">
     <use transform="translate(0 0.21875)" xlink:href="#DejaVuSans-3a9"/>
    </g>
   </g>
  </g>
 </g>
 <defs>
  <clipPath id="pb422a0c61d">
   <rect height="36.27" width="398.52" x="10.7" y="25.910625"/>
  </clipPath>
 </defs>
</svg>
