<?xml version="1.0" encoding="utf-8" standalone="no"?>
<!DOCTYPE svg PUBLIC "-//W3C//DTD SVG 1.1//EN"
  "http://www.w3.org/Graphics/SVG/1.1/DTD/svg11.dtd">
<!-- Created with matplotlib (https://matplotlib.org/) -->
<svg height="71.336562pt" version="1.1" viewBox="0 0 412.92 71.336562" width="412.92pt" xmlns="http://www.w3.org/2000/svg" xmlns:xlink="http://www.w3.org/1999/xlink">
 <defs>
  <style type="text/css">
*{stroke-linecap:butt;stroke-linejoin:round;white-space:pre;}
  </style>
 </defs>
 <g id="figure_1">
  <g id="patch_1">
   <path d="M 0 71.336562 
L 412.92 71.336562 
L 412.92 0 
L 0 0 
z
" style="fill:none;"/>
  </g>
  <g id="axes_1">
   <g id="patch_2">
    <path clip-path="url(#p8ecd312752)" d="M 76.86 59.951563 
C 81.15629 59.951563 85.277194 58.481702 88.31513 55.865702 
C 91.353066 53.249702 93.06 49.701146 93.06 46.001563 
C 93.06 42.301979 91.353066 38.753423 88.31513 36.137423 
C 85.277194 33.521423 81.15629 32.051563 76.86 32.051563 
C 72.56371 32.051563 68.442806 33.521423 65.40487 36.137423 
C 62.366934 38.753423 60.66 42.301979 60.66 46.001563 
C 60.66 49.701146 62.366934 53.249702 65.40487 55.865702 
C 68.442806 58.481702 72.56371 59.951563 76.86 59.951563 
z
" style="fill:none;stroke:#000000;stroke-linejoin:miter;stroke-width:2;"/>
   </g>
   <g id="patch_3">
    <path clip-path="url(#p8ecd312752)" d="M 206.46 59.951563 
C 210.75629 59.951563 214.877194 58.481702 217.91513 55.865702 
C 220.953066 53.249702 222.66 49.701146 222.66 46.001563 
C 222.66 42.301979 220.953066 38.753423 217.91513 36.137423 
C 214.877194 33.521423 210.75629 32.051563 206.46 32.051563 
C 202.16371 32.051563 198.042806 33.521423 195.00487 36.137423 
C 191.966934 38.753423 190.26 42.301979 190.26 46.001563 
C 190.26 49.701146 191.966934 53.249702 195.00487 55.865702 
C 198.042806 58.481702 202.16371 59.951563 206.46 59.951563 
z
" style="fill:none;stroke:#000000;stroke-linejoin:miter;stroke-width:2;"/>
   </g>
   <g id="patch_4">
    <path clip-path="url(#p8ecd312752)" d="M 336.06 59.951563 
C 340.35629 59.951563 344.477194 58.481702 347.51513 55.865702 
C 350.553066 53.249702 352.26 49.701146 352.26 46.001563 
C 352.26 42.301979 350.553066 38.753423 347.51513 36.137423 
C 344.477194 33.521423 340.35629 32.051563 336.06 32.051563 
C 331.76371 32.051563 327.642806 33.521423 324.60487 36.137423 
C 321.566934 38.753423 319.86 42.301979 319.86 46.001563 
C 319.86 49.701146 321.566934 53.249702 324.60487 55.865702 
C 327.642806 58.481702 331.76371 59.951563 336.06 59.951563 
z
" style="fill:none;stroke:#000000;stroke-linejoin:miter;stroke-width:2;"/>
   </g>
   <g id="line2d_1">
    <path clip-path="url(#p8ecd312752)" d="M 125.46 46.001563 
L 93.06 46.001563 
L 93.06 46.001563 
M 60.66 46.001562 
L 60.66 46.001562 
L 28.26 46.001562 
" style="fill:none;stroke:#000000;stroke-linecap:round;stroke-width:2;"/>
   </g>
   <g id="line2d_2">
    <path clip-path="url(#p8ecd312752)" d="M 255.06 46.001563 
L 222.66 46.001563 
L 222.66 46.001563 
M 190.26 46.001562 
L 190.26 46.001562 
L 157.86 46.001562 
" style="fill:none;stroke:#000000;stroke-linecap:round;stroke-width:2;"/>
   </g>
   <g id="line2d_3">
    <path clip-path="url(#p8ecd312752)" d="M 384.66 46.001563 
L 352.26 46.001563 
L 352.26 46.001563 
M 319.86 46.001562 
L 319.86 46.001562 
L 287.46 46.001562 
" style="fill:none;stroke:#000000;stroke-linecap:round;stroke-width:2;"/>
   </g>
   <g id="text_1">
    <!-- V -->
    <defs>
     <path d="M 28.609375 0 
L 0.78125 72.90625 
L 11.078125 72.90625 
L 34.1875 11.53125 
L 57.328125 72.90625 
L 67.578125 72.90625 
L 39.796875 0 
z
" id="DejaVuSans-86"/>
    </defs>
    <g transform="translate(72.071562 49.864688)scale(0.14 -0.14)">
     <use xlink:href="#DejaVuSans-86"/>
    </g>
   </g>
   <g id="text_2">
    <!-- METER_V -->
    <defs>
     <path d="M 9.8125 72.90625 
L 24.515625 72.90625 
L 43.109375 23.296875 
L 61.8125 72.90625 
L 76.515625 72.90625 
L 76.515625 0 
L 66.890625 0 
L 66.890625 64.015625 
L 48.09375 14.015625 
L 38.1875 14.015625 
L 19.390625 64.015625 
L 19.390625 0 
L 9.8125 0 
z
" id="DejaVuSans-77"/>
     <path d="M 9.8125 72.90625 
L 55.90625 72.90625 
L 55.90625 64.59375 
L 19.671875 64.59375 
L 19.671875 43.015625 
L 54.390625 43.015625 
L 54.390625 34.71875 
L 19.671875 34.71875 
L 19.671875 8.296875 
L 56.78125 8.296875 
L 56.78125 0 
L 9.8125 0 
z
" id="DejaVuSans-69"/>
     <path d="M -0.296875 72.90625 
L 61.375 72.90625 
L 61.375 64.59375 
L 35.5 64.59375 
L 35.5 0 
L 25.59375 0 
L 25.59375 64.59375 
L -0.296875 64.59375 
z
" id="DejaVuSans-84"/>
     <path d="M 44.390625 34.1875 
Q 47.5625 33.109375 50.5625 29.59375 
Q 53.5625 26.078125 56.59375 19.921875 
L 66.609375 0 
L 56 0 
L 46.6875 18.703125 
Q 43.0625 26.03125 39.671875 28.421875 
Q 36.28125 30.8125 30.421875 30.8125 
L 19.671875 30.8125 
L 19.671875 0 
L 9.8125 0 
L 9.8125 72.90625 
L 32.078125 72.90625 
Q 44.578125 72.90625 50.734375 67.671875 
Q 56.890625 62.453125 56.890625 51.90625 
Q 56.890625 45.015625 53.6875 40.46875 
Q 50.484375 35.9375 44.390625 34.1875 
z
M 19.671875 64.796875 
L 19.671875 38.921875 
L 32.078125 38.921875 
Q 39.203125 38.921875 42.84375 42.21875 
Q 46.484375 45.515625 46.484375 51.90625 
Q 46.484375 58.296875 42.84375 61.546875 
Q 39.203125 64.796875 32.078125 64.796875 
z
" id="DejaVuSans-82"/>
     <path d="M 50.984375 -16.609375 
L 50.984375 -23.578125 
L -0.984375 -23.578125 
L -0.984375 -16.609375 
z
" id="DejaVuSans-95"/>
    </defs>
    <g transform="translate(44.54625 17.590625)scale(0.14 -0.14)">
     <use xlink:href="#DejaVuSans-77"/>
     <use x="86.279297" xlink:href="#DejaVuSans-69"/>
     <use x="149.462891" xlink:href="#DejaVuSans-84"/>
     <use x="210.546875" xlink:href="#DejaVuSans-69"/>
     <use x="273.730469" xlink:href="#DejaVuSans-82"/>
     <use x="343.212891" xlink:href="#DejaVuSans-95"/>
     <use x="393.212891" xlink:href="#DejaVuSans-86"/>
    </g>
   </g>
   <g id="text_3">
    <!-- I -->
    <defs>
     <path d="M 9.8125 72.90625 
L 19.671875 72.90625 
L 19.671875 0 
L 9.8125 0 
z
" id="DejaVuSans-73"/>
    </defs>
    <g transform="translate(204.395 49.864688)scale(0.14 -0.14)">
     <use xlink:href="#DejaVuSans-73"/>
    </g>
   </g>
   <g id="text_4">
    <!-- METER_I -->
    <g transform="translate(176.869687 17.590625)scale(0.14 -0.14)">
     <use xlink:href="#DejaVuSans-77"/>
     <use x="86.279297" xlink:href="#DejaVuSans-69"/>
     <use x="149.462891" xlink:href="#DejaVuSans-84"/>
     <use x="210.546875" xlink:href="#DejaVuSans-69"/>
     <use x="273.730469" xlink:href="#DejaVuSans-82"/>
     <use x="343.212891" xlink:href="#DejaVuSans-95"/>
     <use x="393.212891" xlink:href="#DejaVuSans-73"/>
    </g>
   </g>
   <g id="text_5">
    <!-- $\Omega$ -->
    <defs>
     <path d="M 72.609375 8.6875 
L 72.609375 0 
L 43.3125 0 
L 43.3125 8.6875 
Q 51.953125 13.421875 56.78125 21.53125 
Q 61.625 29.640625 61.625 39.5 
Q 61.625 51.21875 55.171875 58.296875 
Q 48.734375 65.375 38.1875 65.375 
Q 27.640625 65.375 21.171875 58.265625 
Q 14.703125 51.171875 14.703125 39.5 
Q 14.703125 29.640625 19.53125 21.53125 
Q 24.421875 13.421875 33.109375 8.6875 
L 33.109375 0 
L 3.8125 0 
L 3.8125 8.6875 
L 19.390625 8.6875 
Q 11.671875 15.484375 8.109375 22.75 
Q 4.59375 30.03125 4.59375 39.015625 
Q 4.59375 54.546875 13.96875 64.15625 
Q 23.296875 73.78125 38.1875 73.78125 
Q 52.984375 73.78125 62.40625 64.15625 
Q 71.78125 54.59375 71.78125 39.5 
Q 71.78125 30.03125 68.3125 22.796875 
Q 64.84375 15.578125 56.984375 8.6875 
z
" id="DejaVuSans-937"/>
    </defs>
    <g transform="translate(330.67 49.864688)scale(0.14 -0.14)">
     <use transform="translate(0 0.21875)" xlink:href="#DejaVuSans-937"/>
    </g>
   </g>
   <g id="text_6">
    <!-- METER_OHM -->
    <defs>
     <path d="M 39.40625 66.21875 
Q 28.65625 66.21875 22.328125 58.203125 
Q 16.015625 50.203125 16.015625 36.375 
Q 16.015625 22.609375 22.328125 14.59375 
Q 28.65625 6.59375 39.40625 6.59375 
Q 50.140625 6.59375 56.421875 14.59375 
Q 62.703125 22.609375 62.703125 36.375 
Q 62.703125 50.203125 56.421875 58.203125 
Q 50.140625 66.21875 39.40625 66.21875 
z
M 39.40625 74.21875 
Q 54.734375 74.21875 63.90625 63.9375 
Q 73.09375 53.65625 73.09375 36.375 
Q 73.09375 19.140625 63.90625 8.859375 
Q 54.734375 -1.421875 39.40625 -1.421875 
Q 24.03125 -1.421875 14.8125 8.828125 
Q 5.609375 19.09375 5.609375 36.375 
Q 5.609375 53.65625 14.8125 63.9375 
Q 24.03125 74.21875 39.40625 74.21875 
z
" id="DejaVuSans-79"/>
     <path d="M 9.8125 72.90625 
L 19.671875 72.90625 
L 19.671875 43.015625 
L 55.515625 43.015625 
L 55.515625 72.90625 
L 65.375 72.90625 
L 65.375 0 
L 55.515625 0 
L 55.515625 34.71875 
L 19.671875 34.71875 
L 19.671875 0 
L 9.8125 0 
z
" id="DejaVuSans-72"/>
    </defs>
    <g transform="translate(291.720469 17.590625)scale(0.14 -0.14)">
     <use xlink:href="#DejaVuSans-77"/>
     <use x="86.279297" xlink:href="#DejaVuSans-69"/>
     <use x="149.462891" xlink:href="#DejaVuSans-84"/>
     <use x="210.546875" xlink:href="#DejaVuSans-69"/>
     <use x="273.730469" xlink:href="#DejaVuSans-82"/>
     <use x="343.212891" xlink:href="#DejaVuSans-95"/>
     <use x="393.212891" xlink:href="#DejaVuSans-79"/>
     <use x="471.923828" xlink:href="#DejaVuSans-72"/>
     <use x="547.119141" xlink:href="#DejaVuSans-77"/>
    </g>
   </g>
  </g>
 </g>
 <defs>
  <clipPath id="p8ecd312752">
   <rect height="36.27" width="398.52" x="7.2" y="27.866562"/>
  </clipPath>
 </defs>
</svg>
