<?xml version="1.0" encoding="utf-8" standalone="no"?>
<!DOCTYPE svg PUBLIC "-//W3C//DTD SVG 1.1//EN"
  "http://www.w3.org/Graphics/SVG/1.1/DTD/svg11.dtd">
<!-- Created with matplotlib (http://matplotlib.org/) -->
<svg height="72pt" version="1.1" viewBox="0 0 377 72" width="377pt" xmlns="http://www.w3.org/2000/svg" xmlns:xlink="http://www.w3.org/1999/xlink">
 <defs>
  <style type="text/css">
*{stroke-linecap:butt;stroke-linejoin:round;stroke-miterlimit:100000;}
  </style>
 </defs>
 <g id="figure_1">
  <g id="patch_1">
   <path d="M 0 72.035625 
L 377.28 72.035625 
L 377.28 0 
L 0 0 
z
" style="fill:none;"/>
  </g>
  <g id="axes_1">
   <g id="line2d_1">
    <path clip-path="url(#p39cc6663ca)" d="M 107.64 46.475625 
L 75.24 46.475625 
L 75.24 46.475625 
M 42.84 46.475625 
L 42.84 46.475625 
L 10.44 46.475625 
" style="fill:none;stroke:#000000;stroke-linecap:round;stroke-width:1.5;"/>
   </g>
   <g id="line2d_2">
    <path clip-path="url(#p39cc6663ca)" d="M 237.24 46.475625 
L 204.84 46.475625 
L 204.84 46.475625 
M 172.44 46.475625 
L 172.44 46.475625 
L 140.04 46.475625 
" style="fill:none;stroke:#000000;stroke-linecap:round;stroke-width:1.5;"/>
   </g>
   <g id="line2d_3">
    <path clip-path="url(#p39cc6663ca)" d="M 366.84 46.475625 
L 334.44 46.475625 
L 334.44 46.475625 
M 302.04 46.475625 
L 302.04 46.475625 
L 269.64 46.475625 
" style="fill:none;stroke:#000000;stroke-linecap:round;stroke-width:1.5;"/>
   </g>
   <g id="patch_2">
    <path clip-path="url(#p39cc6663ca)" d="M 59.04 61.775625 
C 63.33629 61.775625 67.457194 60.16352 70.49513 57.294359 
C 73.533066 54.425197 75.24 50.533232 75.24 46.475625 
C 75.24 42.418018 73.533066 38.526053 70.49513 35.656891 
C 67.457194 32.78773 63.33629 31.175625 59.04 31.175625 
C 54.74371 31.175625 50.622806 32.78773 47.58487 35.656891 
C 44.546934 38.526053 42.84 42.418018 42.84 46.475625 
C 42.84 50.533232 44.546934 54.425197 47.58487 57.294359 
C 50.622806 60.16352 54.74371 61.775625 59.04 61.775625 
z
" style="fill:none;stroke:#000000;stroke-linejoin:miter;stroke-width:1.5;"/>
   </g>
   <g id="patch_3">
    <path clip-path="url(#p39cc6663ca)" d="M 188.64 61.775625 
C 192.93629 61.775625 197.057194 60.16352 200.09513 57.294359 
C 203.133066 54.425197 204.84 50.533232 204.84 46.475625 
C 204.84 42.418018 203.133066 38.526053 200.09513 35.656891 
C 197.057194 32.78773 192.93629 31.175625 188.64 31.175625 
C 184.34371 31.175625 180.222806 32.78773 177.18487 35.656891 
C 174.146934 38.526053 172.44 42.418018 172.44 46.475625 
C 172.44 50.533232 174.146934 54.425197 177.18487 57.294359 
C 180.222806 60.16352 184.34371 61.775625 188.64 61.775625 
z
" style="fill:none;stroke:#000000;stroke-linejoin:miter;stroke-width:1.5;"/>
   </g>
   <g id="patch_4">
    <path clip-path="url(#p39cc6663ca)" d="M 318.24 61.775625 
C 322.53629 61.775625 326.657194 60.16352 329.69513 57.294359 
C 332.733066 54.425197 334.44 50.533232 334.44 46.475625 
C 334.44 42.418018 332.733066 38.526053 329.69513 35.656891 
C 326.657194 32.78773 322.53629 31.175625 318.24 31.175625 
C 313.94371 31.175625 309.822806 32.78773 306.78487 35.656891 
C 303.746934 38.526053 302.04 42.418018 302.04 46.475625 
C 302.04 50.533232 303.746934 54.425197 306.78487 57.294359 
C 309.822806 60.16352 313.94371 61.775625 318.24 61.775625 
z
" style="fill:none;stroke:#000000;stroke-linejoin:miter;stroke-width:1.5;"/>
   </g>
   <g id="text_1">
    <!-- METER_V -->
    <defs>
     <path d="M 28.609375 0 
L 0.78125 72.90625 
L 11.078125 72.90625 
L 34.1875 11.53125 
L 57.328125 72.90625 
L 67.578125 72.90625 
L 39.796875 0 
z
" id="BitstreamVeraSans-Roman-56"/>
     <path d="M -0.296875 72.90625 
L 61.375 72.90625 
L 61.375 64.59375 
L 35.5 64.59375 
L 35.5 0 
L 25.59375 0 
L 25.59375 64.59375 
L -0.296875 64.59375 
z
" id="BitstreamVeraSans-Roman-54"/>
     <path d="M 9.8125 72.90625 
L 55.90625 72.90625 
L 55.90625 64.59375 
L 19.671875 64.59375 
L 19.671875 43.015625 
L 54.390625 43.015625 
L 54.390625 34.71875 
L 19.671875 34.71875 
L 19.671875 8.296875 
L 56.78125 8.296875 
L 56.78125 0 
L 9.8125 0 
z
" id="BitstreamVeraSans-Roman-45"/>
     <path d="M 9.8125 72.90625 
L 24.515625 72.90625 
L 43.109375 23.296875 
L 61.8125 72.90625 
L 76.515625 72.90625 
L 76.515625 0 
L 66.890625 0 
L 66.890625 64.015625 
L 48.09375 14.015625 
L 38.1875 14.015625 
L 19.390625 64.015625 
L 19.390625 0 
L 9.8125 0 
z
" id="BitstreamVeraSans-Roman-4d"/>
     <path d="M 50.984375 -16.609375 
L 50.984375 -23.578125 
L -0.984375 -23.578125 
L -0.984375 -16.609375 
z
" id="BitstreamVeraSans-Roman-5f"/>
     <path d="M 44.390625 34.1875 
Q 47.5625 33.109375 50.5625 29.59375 
Q 53.5625 26.078125 56.59375 19.921875 
L 66.609375 0 
L 56 0 
L 46.6875 18.703125 
Q 43.0625 26.03125 39.671875 28.421875 
Q 36.28125 30.8125 30.421875 30.8125 
L 19.671875 30.8125 
L 19.671875 0 
L 9.8125 0 
L 9.8125 72.90625 
L 32.078125 72.90625 
Q 44.578125 72.90625 50.734375 67.671875 
Q 56.890625 62.453125 56.890625 51.90625 
Q 56.890625 45.015625 53.6875 40.46875 
Q 50.484375 35.9375 44.390625 34.1875 
M 19.671875 64.796875 
L 19.671875 38.921875 
L 32.078125 38.921875 
Q 39.203125 38.921875 42.84375 42.21875 
Q 46.484375 45.515625 46.484375 51.90625 
Q 46.484375 58.296875 42.84375 61.546875 
Q 39.203125 64.796875 32.078125 64.796875 
z
" id="BitstreamVeraSans-Roman-52"/>
    </defs>
    <g transform="translate(31.3425 16.10625)scale(0.12 -0.12)">
     <use xlink:href="#BitstreamVeraSans-Roman-4d"/>
     <use x="86.279296875" xlink:href="#BitstreamVeraSans-Roman-45"/>
     <use x="149.462890625" xlink:href="#BitstreamVeraSans-Roman-54"/>
     <use x="210.546875" xlink:href="#BitstreamVeraSans-Roman-45"/>
     <use x="273.73046875" xlink:href="#BitstreamVeraSans-Roman-52"/>
     <use x="343.212890625" xlink:href="#BitstreamVeraSans-Roman-5f"/>
     <use x="393.212890625" xlink:href="#BitstreamVeraSans-Roman-56"/>
    </g>
   </g>
   <g id="text_2">
    <!-- V -->
    <g transform="translate(54.935625 49.786875)scale(0.12 -0.12)">
     <use xlink:href="#BitstreamVeraSans-Roman-56"/>
    </g>
   </g>
   <g id="text_3">
    <!-- METER_I -->
    <defs>
     <path d="M 9.8125 72.90625 
L 19.671875 72.90625 
L 19.671875 0 
L 9.8125 0 
z
" id="BitstreamVeraSans-Roman-49"/>
    </defs>
    <g transform="translate(163.276875 16.10625)scale(0.12 -0.12)">
     <use xlink:href="#BitstreamVeraSans-Roman-4d"/>
     <use x="86.279296875" xlink:href="#BitstreamVeraSans-Roman-45"/>
     <use x="149.462890625" xlink:href="#BitstreamVeraSans-Roman-54"/>
     <use x="210.546875" xlink:href="#BitstreamVeraSans-Roman-45"/>
     <use x="273.73046875" xlink:href="#BitstreamVeraSans-Roman-52"/>
     <use x="343.212890625" xlink:href="#BitstreamVeraSans-Roman-5f"/>
     <use x="393.212890625" xlink:href="#BitstreamVeraSans-Roman-49"/>
    </g>
   </g>
   <g id="text_4">
    <!-- I -->
    <g transform="translate(186.87 49.786875)scale(0.12 -0.12)">
     <use xlink:href="#BitstreamVeraSans-Roman-49"/>
    </g>
   </g>
   <g id="text_5">
    <!-- METER_OHM -->
    <defs>
     <path d="M 9.8125 72.90625 
L 19.671875 72.90625 
L 19.671875 43.015625 
L 55.515625 43.015625 
L 55.515625 72.90625 
L 65.375 72.90625 
L 65.375 0 
L 55.515625 0 
L 55.515625 34.71875 
L 19.671875 34.71875 
L 19.671875 0 
L 9.8125 0 
z
" id="BitstreamVeraSans-Roman-48"/>
     <path d="M 39.40625 66.21875 
Q 28.65625 66.21875 22.328125 58.203125 
Q 16.015625 50.203125 16.015625 36.375 
Q 16.015625 22.609375 22.328125 14.59375 
Q 28.65625 6.59375 39.40625 6.59375 
Q 50.140625 6.59375 56.421875 14.59375 
Q 62.703125 22.609375 62.703125 36.375 
Q 62.703125 50.203125 56.421875 58.203125 
Q 50.140625 66.21875 39.40625 66.21875 
M 39.40625 74.21875 
Q 54.734375 74.21875 63.90625 63.9375 
Q 73.09375 53.65625 73.09375 36.375 
Q 73.09375 19.140625 63.90625 8.859375 
Q 54.734375 -1.421875 39.40625 -1.421875 
Q 24.03125 -1.421875 14.8125 8.828125 
Q 5.609375 19.09375 5.609375 36.375 
Q 5.609375 53.65625 14.8125 63.9375 
Q 24.03125 74.21875 39.40625 74.21875 
" id="BitstreamVeraSans-Roman-4f"/>
    </defs>
    <g transform="translate(280.2346875 16.10625)scale(0.12 -0.12)">
     <use xlink:href="#BitstreamVeraSans-Roman-4d"/>
     <use x="86.279296875" xlink:href="#BitstreamVeraSans-Roman-45"/>
     <use x="149.462890625" xlink:href="#BitstreamVeraSans-Roman-54"/>
     <use x="210.546875" xlink:href="#BitstreamVeraSans-Roman-45"/>
     <use x="273.73046875" xlink:href="#BitstreamVeraSans-Roman-52"/>
     <use x="343.212890625" xlink:href="#BitstreamVeraSans-Roman-5f"/>
     <use x="393.212890625" xlink:href="#BitstreamVeraSans-Roman-4f"/>
     <use x="471.923828125" xlink:href="#BitstreamVeraSans-Roman-48"/>
     <use x="547.119140625" xlink:href="#BitstreamVeraSans-Roman-4d"/>
    </g>
   </g>
   <g id="text_6">
    <!-- $\Omega$ -->
    <defs>
     <path d="M 72.609375 8.6875 
L 72.609375 0 
L 43.3125 0 
L 43.3125 8.6875 
Q 51.953125 13.421875 56.78125 21.53125 
Q 61.625 29.640625 61.625 39.5 
Q 61.625 51.21875 55.171875 58.296875 
Q 48.734375 65.375 38.1875 65.375 
Q 27.640625 65.375 21.171875 58.265625 
Q 14.703125 51.171875 14.703125 39.5 
Q 14.703125 29.640625 19.5625 21.53125 
Q 24.421875 13.421875 33.109375 8.6875 
L 33.109375 0 
L 3.8125 0 
L 3.8125 8.6875 
L 19.390625 8.6875 
Q 11.671875 15.484375 8.125 22.75 
Q 4.59375 30.03125 4.59375 39.015625 
Q 4.59375 54.546875 13.9375 64.15625 
Q 23.296875 73.78125 38.1875 73.78125 
Q 52.984375 73.78125 62.375 64.1875 
Q 71.78125 54.59375 71.78125 39.5 
Q 71.78125 30.03125 68.3125 22.796875 
Q 64.84375 15.578125 56.984375 8.6875 
z
" id="BitstreamVeraSans-Roman-3a9"/>
    </defs>
    <g transform="translate(313.62 49.786875)scale(0.12 -0.12)">
     <use transform="translate(0.0 0.21875)" xlink:href="#BitstreamVeraSans-Roman-3a9"/>
    </g>
   </g>
  </g>
 </g>
 <defs>
  <clipPath id="p39cc6663ca">
   <rect height="36.72" width="362.88" x="7.2" y="28.115625"/>
  </clipPath>
 </defs>
</svg>
