<?xml version="1.0" encoding="utf-8" standalone="no"?>
<!DOCTYPE svg PUBLIC "-//W3C//DTD SVG 1.1//EN"
  "http://www.w3.org/Graphics/SVG/1.1/DTD/svg11.dtd">
<!-- Created with matplotlib (http://matplotlib.org/) -->
<svg height="68pt" version="1.1" viewBox="0 0 323 68" width="323pt" xmlns="http://www.w3.org/2000/svg" xmlns:xlink="http://www.w3.org/1999/xlink">
 <defs>
  <style type="text/css">
*{stroke-linecap:butt;stroke-linejoin:round;}
  </style>
 </defs>
 <g id="figure_1">
  <g id="patch_1">
   <path d="
M0 68.8537
L323.892 68.8537
L323.892 0
L0 0
L0 68.8537" style="fill:none;"/>
  </g>
  <g id="axes_1">
   <g id="line2d_1">
    <path clip-path="url(#p3f5854f45c)" d="
M42.84 43.2937
L54.18 43.2937" style="fill:none;stroke:#000000;stroke-linecap:round;stroke-width:1.5;"/>
   </g>
   <g id="line2d_2">
    <path clip-path="url(#p3f5854f45c)" d="
M10.44 43.2937
L21.78 43.2937
L21.78 58.5937
L42.84 43.2937
L21.78 27.9937
L21.78 43.2937" style="fill:none;stroke:#000000;stroke-linecap:round;stroke-width:1.5;"/>
   </g>
   <g id="line2d_3">
    <path clip-path="url(#p3f5854f45c)" d="
M180.216 43.2937
L183.78 43.2937" style="fill:none;stroke:#000000;stroke-linecap:round;stroke-width:1.5;"/>
   </g>
   <g id="line2d_4">
    <path clip-path="url(#p3f5854f45c)" d="
M140.04 43.2937
L151.38 43.2937
L151.38 58.5937
L172.44 43.2937
L151.38 27.9937
L151.38 43.2937" style="fill:none;stroke:#000000;stroke-linecap:round;stroke-width:1.5;"/>
   </g>
   <g id="line2d_5">
    <path clip-path="url(#p3f5854f45c)" d="
M309.816 43.2937
L313.38 43.2937" style="fill:none;stroke:#000000;stroke-linecap:round;stroke-width:1.5;"/>
   </g>
   <g id="line2d_6">
    <path clip-path="url(#p3f5854f45c)" d="
M269.64 43.2937
L273.204 43.2937
M280.98 43.2937
L280.98 58.5937
L302.04 43.2937
L280.98 27.9937
L280.98 43.2937" style="fill:none;stroke:#000000;stroke-linecap:round;stroke-width:1.5;"/>
   </g>
   <g id="patch_2">
    <path clip-path="url(#p3f5854f45c)" d="
M176.328 46.9657
C177.359 46.9657 178.348 46.5788 179.077 45.8902
C179.806 45.2016 180.216 44.2676 180.216 43.2937
C180.216 42.3199 179.806 41.3859 179.077 40.6973
C178.348 40.0087 177.359 39.6217 176.328 39.6217
C175.297 39.6217 174.308 40.0087 173.579 40.6973
C172.85 41.3859 172.44 42.3199 172.44 43.2937
C172.44 44.2676 172.85 45.2016 173.579 45.8902
C174.308 46.5788 175.297 46.9657 176.328 46.9657
L176.328 46.9657" style="fill:none;stroke:#000000;stroke-linejoin:miter;stroke-width:1.5;"/>
   </g>
   <g id="patch_3">
    <path clip-path="url(#p3f5854f45c)" d="
M305.928 46.9657
C306.959 46.9657 307.948 46.5788 308.677 45.8902
C309.406 45.2016 309.816 44.2676 309.816 43.2937
C309.816 42.3199 309.406 41.3859 308.677 40.6973
C307.948 40.0087 306.959 39.6217 305.928 39.6217
C304.897 39.6217 303.908 40.0087 303.179 40.6973
C302.45 41.3859 302.04 42.3199 302.04 43.2937
C302.04 44.2676 302.45 45.2016 303.179 45.8902
C303.908 46.5788 304.897 46.9657 305.928 46.9657
L305.928 46.9657" style="fill:none;stroke:#000000;stroke-linejoin:miter;stroke-width:1.5;"/>
   </g>
   <g id="patch_4">
    <path clip-path="url(#p3f5854f45c)" d="
M277.092 46.9657
C278.123 46.9657 279.112 46.5788 279.841 45.8902
C280.57 45.2016 280.98 44.2676 280.98 43.2937
C280.98 42.3199 280.57 41.3859 279.841 40.6973
C279.112 40.0087 278.123 39.6217 277.092 39.6217
C276.061 39.6217 275.072 40.0087 274.343 40.6973
C273.614 41.3859 273.204 42.3199 273.204 43.2937
C273.204 44.2676 273.614 45.2016 274.343 45.8902
C275.072 46.5788 276.061 46.9657 277.092 46.9657
L277.092 46.9657" style="fill:none;stroke:#000000;stroke-linejoin:miter;stroke-width:1.5;"/>
   </g>
   <g id="text_1">
    <!-- BUF -->
    <defs>
     <path d="
M19.6719 34.8125
L19.6719 8.10938
L35.5 8.10938
Q43.4531 8.10938 47.2812 11.4062
Q51.125 14.7031 51.125 21.4844
Q51.125 28.3281 47.2812 31.5625
Q43.4531 34.8125 35.5 34.8125
z

M19.6719 64.7969
L19.6719 42.8281
L34.2812 42.8281
Q41.5 42.8281 45.0312 45.5312
Q48.5781 48.25 48.5781 53.8125
Q48.5781 59.3281 45.0312 62.0625
Q41.5 64.7969 34.2812 64.7969
z

M9.8125 72.9062
L35.0156 72.9062
Q46.2969 72.9062 52.3906 68.2188
Q58.5 63.5312 58.5 54.8906
Q58.5 48.1875 55.375 44.2344
Q52.25 40.2812 46.1875 39.3125
Q53.4688 37.75 57.5 32.7812
Q61.5312 27.8281 61.5312 20.4062
Q61.5312 10.6406 54.8906 5.3125
Q48.25 0 35.9844 0
L9.8125 0
z
" id="BitstreamVeraSans-Roman-42"/>
     <path d="
M9.8125 72.9062
L51.7031 72.9062
L51.7031 64.5938
L19.6719 64.5938
L19.6719 43.1094
L48.5781 43.1094
L48.5781 34.8125
L19.6719 34.8125
L19.6719 0
L9.8125 0
z
" id="BitstreamVeraSans-Roman-46"/>
     <path d="
M8.6875 72.9062
L18.6094 72.9062
L18.6094 28.6094
Q18.6094 16.8906 22.8438 11.7344
Q27.0938 6.59375 36.625 6.59375
Q46.0938 6.59375 50.3438 11.7344
Q54.5938 16.8906 54.5938 28.6094
L54.5938 72.9062
L64.5 72.9062
L64.5 27.3906
Q64.5 13.1406 57.4375 5.85938
Q50.3906 -1.42188 36.625 -1.42188
Q22.7969 -1.42188 15.7344 5.85938
Q8.6875 13.1406 8.6875 27.3906
z
" id="BitstreamVeraSans-Roman-55"/>
    </defs>
    <g transform="translate(21.28875 16.318125)scale(0.12 -0.12)">
     <use xlink:href="#BitstreamVeraSans-Roman-42"/>
     <use x="68.603515625" xlink:href="#BitstreamVeraSans-Roman-55"/>
     <use x="141.796875" xlink:href="#BitstreamVeraSans-Roman-46"/>
    </g>
   </g>
   <g id="text_2">
    <!-- NOT -->
    <defs>
     <path d="
M9.8125 72.9062
L23.0938 72.9062
L55.4219 11.9219
L55.4219 72.9062
L64.9844 72.9062
L64.9844 0
L51.7031 0
L19.3906 60.9844
L19.3906 0
L9.8125 0
z
" id="BitstreamVeraSans-Roman-4e"/>
     <path d="
M39.4062 66.2188
Q28.6562 66.2188 22.3281 58.2031
Q16.0156 50.2031 16.0156 36.375
Q16.0156 22.6094 22.3281 14.5938
Q28.6562 6.59375 39.4062 6.59375
Q50.1406 6.59375 56.4219 14.5938
Q62.7031 22.6094 62.7031 36.375
Q62.7031 50.2031 56.4219 58.2031
Q50.1406 66.2188 39.4062 66.2188
M39.4062 74.2188
Q54.7344 74.2188 63.9062 63.9375
Q73.0938 53.6562 73.0938 36.375
Q73.0938 19.1406 63.9062 8.85938
Q54.7344 -1.42188 39.4062 -1.42188
Q24.0312 -1.42188 14.8125 8.82812
Q5.60938 19.0938 5.60938 36.375
Q5.60938 53.6562 14.8125 63.9375
Q24.0312 74.2188 39.4062 74.2188" id="BitstreamVeraSans-Roman-4f"/>
     <path d="
M-0.296875 72.9062
L61.375 72.9062
L61.375 64.5938
L35.5 64.5938
L35.5 0
L25.5938 0
L25.5938 64.5938
L-0.296875 64.5938
z
" id="BitstreamVeraSans-Roman-54"/>
    </defs>
    <g transform="translate(149.604375 16.318125)scale(0.12 -0.12)">
     <use xlink:href="#BitstreamVeraSans-Roman-4e"/>
     <use x="74.8046875" xlink:href="#BitstreamVeraSans-Roman-4f"/>
     <use x="153.515625" xlink:href="#BitstreamVeraSans-Roman-54"/>
    </g>
   </g>
   <g id="text_3">
    <!-- NOTNOT -->
    <g transform="translate(266.3278125 16.318125)scale(0.12 -0.12)">
     <use xlink:href="#BitstreamVeraSans-Roman-4e"/>
     <use x="74.8046875" xlink:href="#BitstreamVeraSans-Roman-4f"/>
     <use x="153.515625" xlink:href="#BitstreamVeraSans-Roman-54"/>
     <use x="214.599609375" xlink:href="#BitstreamVeraSans-Roman-4e"/>
     <use x="289.404296875" xlink:href="#BitstreamVeraSans-Roman-4f"/>
     <use x="368.115234375" xlink:href="#BitstreamVeraSans-Roman-54"/>
    </g>
   </g>
  </g>
 </g>
 <defs>
  <clipPath id="p3f5854f45c">
   <rect height="36.72" width="309.42" x="7.2" y="24.93375"/>
  </clipPath>
 </defs>
</svg>
