<?xml version="1.0" encoding="utf-8" standalone="no"?>
<!DOCTYPE svg PUBLIC "-//W3C//DTD SVG 1.1//EN"
  "http://www.w3.org/Graphics/SVG/1.1/DTD/svg11.dtd">
<!-- Created with matplotlib (http://matplotlib.org/) -->
<svg height="68pt" version="1.1" viewBox="0 0 324 68" width="324pt" xmlns="http://www.w3.org/2000/svg" xmlns:xlink="http://www.w3.org/1999/xlink">
 <defs>
  <style type="text/css">
*{stroke-linecap:butt;stroke-linejoin:round;stroke-miterlimit:100000;}
  </style>
 </defs>
 <g id="figure_1">
  <g id="patch_1">
   <path d="M 0 68.85375 
L 324.463125 68.85375 
L 324.463125 0 
L 0 0 
z
" style="fill:none;"/>
  </g>
  <g id="axes_1">
   <g id="line2d_1">
    <path clip-path="url(#pe61c998da2)" d="M 42.84 43.29375 
L 54.18 43.29375 
" style="fill:none;stroke:#000000;stroke-linecap:round;stroke-width:1.5;"/>
   </g>
   <g id="line2d_2">
    <path clip-path="url(#pe61c998da2)" d="M 10.44 43.29375 
L 21.78 43.29375 
L 21.78 58.59375 
L 42.84 43.29375 
L 21.78 27.99375 
L 21.78 43.29375 
" style="fill:none;stroke:#000000;stroke-linecap:round;stroke-width:1.5;"/>
   </g>
   <g id="line2d_3">
    <path clip-path="url(#pe61c998da2)" d="M 180.216 43.29375 
L 183.78 43.29375 
" style="fill:none;stroke:#000000;stroke-linecap:round;stroke-width:1.5;"/>
   </g>
   <g id="line2d_4">
    <path clip-path="url(#pe61c998da2)" d="M 140.04 43.29375 
L 151.38 43.29375 
L 151.38 58.59375 
L 172.44 43.29375 
L 151.38 27.99375 
L 151.38 43.29375 
" style="fill:none;stroke:#000000;stroke-linecap:round;stroke-width:1.5;"/>
   </g>
   <g id="line2d_5">
    <path clip-path="url(#pe61c998da2)" d="M 309.816 43.29375 
L 313.38 43.29375 
" style="fill:none;stroke:#000000;stroke-linecap:round;stroke-width:1.5;"/>
   </g>
   <g id="line2d_6">
    <path clip-path="url(#pe61c998da2)" d="M 269.64 43.29375 
L 273.204 43.29375 
M 280.98 43.29375 
L 280.98 58.59375 
L 302.04 43.29375 
L 280.98 27.99375 
L 280.98 43.29375 
" style="fill:none;stroke:#000000;stroke-linecap:round;stroke-width:1.5;"/>
   </g>
   <g id="patch_2">
    <path clip-path="url(#pe61c998da2)" d="M 176.328 46.96575 
C 177.35911 46.96575 178.348127 46.578845 179.077231 45.890246 
C 179.806336 45.201647 180.216 44.267576 180.216 43.29375 
C 180.216 42.319924 179.806336 41.385853 179.077231 40.697254 
C 178.348127 40.008655 177.35911 39.62175 176.328 39.62175 
C 175.29689 39.62175 174.307873 40.008655 173.578769 40.697254 
C 172.849664 41.385853 172.44 42.319924 172.44 43.29375 
C 172.44 44.267576 172.849664 45.201647 173.578769 45.890246 
C 174.307873 46.578845 175.29689 46.96575 176.328 46.96575 
z
" style="fill:none;stroke:#000000;stroke-linejoin:miter;stroke-width:1.5;"/>
   </g>
   <g id="patch_3">
    <path clip-path="url(#pe61c998da2)" d="M 305.928 46.96575 
C 306.95911 46.96575 307.948127 46.578845 308.677231 45.890246 
C 309.406336 45.201647 309.816 44.267576 309.816 43.29375 
C 309.816 42.319924 309.406336 41.385853 308.677231 40.697254 
C 307.948127 40.008655 306.95911 39.62175 305.928 39.62175 
C 304.89689 39.62175 303.907873 40.008655 303.178769 40.697254 
C 302.449664 41.385853 302.04 42.319924 302.04 43.29375 
C 302.04 44.267576 302.449664 45.201647 303.178769 45.890246 
C 303.907873 46.578845 304.89689 46.96575 305.928 46.96575 
z
" style="fill:none;stroke:#000000;stroke-linejoin:miter;stroke-width:1.5;"/>
   </g>
   <g id="patch_4">
    <path clip-path="url(#pe61c998da2)" d="M 277.092 46.96575 
C 278.12311 46.96575 279.112127 46.578845 279.841231 45.890246 
C 280.570336 45.201647 280.98 44.267576 280.98 43.29375 
C 280.98 42.319924 280.570336 41.385853 279.841231 40.697254 
C 279.112127 40.008655 278.12311 39.62175 277.092 39.62175 
C 276.06089 39.62175 275.071873 40.008655 274.342769 40.697254 
C 273.613664 41.385853 273.204 42.319924 273.204 43.29375 
C 273.204 44.267576 273.613664 45.201647 274.342769 45.890246 
C 275.071873 46.578845 276.06089 46.96575 277.092 46.96575 
z
" style="fill:none;stroke:#000000;stroke-linejoin:miter;stroke-width:1.5;"/>
   </g>
   <g id="text_1">
    <!-- BUF -->
    <defs>
     <path d="M 19.671875 34.8125 
L 19.671875 8.109375 
L 35.5 8.109375 
Q 43.453125 8.109375 47.28125 11.40625 
Q 51.125 14.703125 51.125 21.484375 
Q 51.125 28.328125 47.28125 31.5625 
Q 43.453125 34.8125 35.5 34.8125 
z
M 19.671875 64.796875 
L 19.671875 42.828125 
L 34.28125 42.828125 
Q 41.5 42.828125 45.03125 45.53125 
Q 48.578125 48.25 48.578125 53.8125 
Q 48.578125 59.328125 45.03125 62.0625 
Q 41.5 64.796875 34.28125 64.796875 
z
M 9.8125 72.90625 
L 35.015625 72.90625 
Q 46.296875 72.90625 52.390625 68.21875 
Q 58.5 63.53125 58.5 54.890625 
Q 58.5 48.1875 55.375 44.234375 
Q 52.25 40.28125 46.1875 39.3125 
Q 53.46875 37.75 57.5 32.78125 
Q 61.53125 27.828125 61.53125 20.40625 
Q 61.53125 10.640625 54.890625 5.3125 
Q 48.25 0 35.984375 0 
L 9.8125 0 
z
" id="BitstreamVeraSans-Roman-42"/>
     <path d="M 9.8125 72.90625 
L 51.703125 72.90625 
L 51.703125 64.59375 
L 19.671875 64.59375 
L 19.671875 43.109375 
L 48.578125 43.109375 
L 48.578125 34.8125 
L 19.671875 34.8125 
L 19.671875 0 
L 9.8125 0 
z
" id="BitstreamVeraSans-Roman-46"/>
     <path d="M 8.6875 72.90625 
L 18.609375 72.90625 
L 18.609375 28.609375 
Q 18.609375 16.890625 22.84375 11.734375 
Q 27.09375 6.59375 36.625 6.59375 
Q 46.09375 6.59375 50.34375 11.734375 
Q 54.59375 16.890625 54.59375 28.609375 
L 54.59375 72.90625 
L 64.5 72.90625 
L 64.5 27.390625 
Q 64.5 13.140625 57.4375 5.859375 
Q 50.390625 -1.421875 36.625 -1.421875 
Q 22.796875 -1.421875 15.734375 5.859375 
Q 8.6875 13.140625 8.6875 27.390625 
z
" id="BitstreamVeraSans-Roman-55"/>
    </defs>
    <g transform="translate(20.35125 16.318125)scale(0.12 -0.12)">
     <use xlink:href="#BitstreamVeraSans-Roman-42"/>
     <use x="68.603515625" xlink:href="#BitstreamVeraSans-Roman-55"/>
     <use x="141.796875" xlink:href="#BitstreamVeraSans-Roman-46"/>
    </g>
   </g>
   <g id="text_2">
    <!-- NOT -->
    <defs>
     <path d="M 9.8125 72.90625 
L 23.09375 72.90625 
L 55.421875 11.921875 
L 55.421875 72.90625 
L 64.984375 72.90625 
L 64.984375 0 
L 51.703125 0 
L 19.390625 60.984375 
L 19.390625 0 
L 9.8125 0 
z
" id="BitstreamVeraSans-Roman-4e"/>
     <path d="M 39.40625 66.21875 
Q 28.65625 66.21875 22.328125 58.203125 
Q 16.015625 50.203125 16.015625 36.375 
Q 16.015625 22.609375 22.328125 14.59375 
Q 28.65625 6.59375 39.40625 6.59375 
Q 50.140625 6.59375 56.421875 14.59375 
Q 62.703125 22.609375 62.703125 36.375 
Q 62.703125 50.203125 56.421875 58.203125 
Q 50.140625 66.21875 39.40625 66.21875 
M 39.40625 74.21875 
Q 54.734375 74.21875 63.90625 63.9375 
Q 73.09375 53.65625 73.09375 36.375 
Q 73.09375 19.140625 63.90625 8.859375 
Q 54.734375 -1.421875 39.40625 -1.421875 
Q 24.03125 -1.421875 14.8125 8.828125 
Q 5.609375 19.09375 5.609375 36.375 
Q 5.609375 53.65625 14.8125 63.9375 
Q 24.03125 74.21875 39.40625 74.21875 
" id="BitstreamVeraSans-Roman-4f"/>
     <path d="M -0.296875 72.90625 
L 61.375 72.90625 
L 61.375 64.59375 
L 35.5 64.59375 
L 35.5 0 
L 25.59375 0 
L 25.59375 64.59375 
L -0.296875 64.59375 
z
" id="BitstreamVeraSans-Roman-54"/>
    </defs>
    <g transform="translate(149.0334375 16.318125)scale(0.12 -0.12)">
     <use xlink:href="#BitstreamVeraSans-Roman-4e"/>
     <use x="74.8046875" xlink:href="#BitstreamVeraSans-Roman-4f"/>
     <use x="153.515625" xlink:href="#BitstreamVeraSans-Roman-54"/>
    </g>
   </g>
   <g id="text_3">
    <!-- NOTNOT -->
    <g transform="translate(265.756875 16.318125)scale(0.12 -0.12)">
     <use xlink:href="#BitstreamVeraSans-Roman-4e"/>
     <use x="74.8046875" xlink:href="#BitstreamVeraSans-Roman-4f"/>
     <use x="153.515625" xlink:href="#BitstreamVeraSans-Roman-54"/>
     <use x="214.599609375" xlink:href="#BitstreamVeraSans-Roman-4e"/>
     <use x="289.404296875" xlink:href="#BitstreamVeraSans-Roman-4f"/>
     <use x="368.115234375" xlink:href="#BitstreamVeraSans-Roman-54"/>
    </g>
   </g>
  </g>
 </g>
 <defs>
  <clipPath id="pe61c998da2">
   <rect height="36.72" width="309.42" x="7.2" y="24.93375"/>
  </clipPath>
 </defs>
</svg>
