<?xml version="1.0" encoding="utf-8" standalone="no"?>
<!DOCTYPE svg PUBLIC "-//W3C//DTD SVG 1.1//EN"
  "http://www.w3.org/Graphics/SVG/1.1/DTD/svg11.dtd">
<!-- Created with matplotlib (http://matplotlib.org/) -->
<svg height="73pt" version="1.1" viewBox="0 0 419 73" width="419pt" xmlns="http://www.w3.org/2000/svg" xmlns:xlink="http://www.w3.org/1999/xlink">
 <defs>
  <style type="text/css">
*{stroke-linecap:butt;stroke-linejoin:round;}
  </style>
 </defs>
 <g id="figure_1">
  <g id="patch_1">
   <path d="M 0 73.88375 
L 419.92 73.88375 
L 419.92 0 
L 0 0 
z
" style="fill:none;"/>
  </g>
  <g id="axes_1">
   <g id="line2d_1">
    <path clip-path="url(#pd42bbc27a7)" d="M 31.76 43.29375 
L 64.16 43.29375 
L 75.5 43.29375 
M 96.56 43.29375 
L 128.96 43.29375 
" style="fill:none;stroke:#000000;stroke-linecap:round;stroke-width:1.5;"/>
   </g>
   <g id="line2d_2">
    <path clip-path="url(#pd42bbc27a7)" d="M 75.5 43.29375 
L 75.5 58.59375 
L 96.56 43.29375 
L 75.5 27.99375 
L 75.5 43.29375 
" style="fill:none;stroke:#000000;stroke-linecap:round;stroke-width:1.5;"/>
   </g>
   <g id="line2d_3">
    <path clip-path="url(#pd42bbc27a7)" d="M 96.56 43.29375 
L 107.9 43.29375 
" style="fill:none;stroke:#000000;stroke-linecap:round;stroke-width:1.5;"/>
   </g>
   <g id="line2d_4">
    <path clip-path="url(#pd42bbc27a7)" d="M 161.36 43.29375 
L 189.872 43.29375 
L 201.212 43.29375 
M 230.048 43.29375 
L 258.56 43.29375 
" style="fill:none;stroke:#000000;stroke-linecap:round;stroke-width:1.5;"/>
   </g>
   <g id="line2d_5">
    <path clip-path="url(#pd42bbc27a7)" d="M 201.212 43.29375 
L 201.212 58.59375 
L 222.272 43.29375 
L 201.212 27.99375 
L 201.212 43.29375 
" style="fill:none;stroke:#000000;stroke-linecap:round;stroke-width:1.5;"/>
   </g>
   <g id="line2d_6">
    <path clip-path="url(#pd42bbc27a7)" d="M 230.048 43.29375 
L 233.612 43.29375 
" style="fill:none;stroke:#000000;stroke-linecap:round;stroke-width:1.5;"/>
   </g>
   <g id="line2d_7">
    <path clip-path="url(#pd42bbc27a7)" d="M 290.96 43.29375 
L 319.472 43.29375 
L 323.036 43.29375 
M 359.648 43.29375 
L 388.16 43.29375 
" style="fill:none;stroke:#000000;stroke-linecap:round;stroke-width:1.5;"/>
   </g>
   <g id="line2d_8">
    <path clip-path="url(#pd42bbc27a7)" d="M 330.812 43.29375 
L 330.812 58.59375 
L 351.872 43.29375 
L 330.812 27.99375 
L 330.812 43.29375 
" style="fill:none;stroke:#000000;stroke-linecap:round;stroke-width:1.5;"/>
   </g>
   <g id="line2d_9">
    <path clip-path="url(#pd42bbc27a7)" d="M 359.648 43.29375 
L 363.212 43.29375 
" style="fill:none;stroke:#000000;stroke-linecap:round;stroke-width:1.5;"/>
   </g>
   <g id="patch_2">
    <path clip-path="url(#pd42bbc27a7)" d="M 226.16 46.96575 
C 227.19111 46.96575 228.180127 46.578845 228.909231 45.890246 
C 229.638336 45.201647 230.048 44.267576 230.048 43.29375 
C 230.048 42.319924 229.638336 41.385853 228.909231 40.697254 
C 228.180127 40.008655 227.19111 39.62175 226.16 39.62175 
C 225.12889 39.62175 224.139873 40.008655 223.410769 40.697254 
C 222.681664 41.385853 222.272 42.319924 222.272 43.29375 
C 222.272 44.267576 222.681664 45.201647 223.410769 45.890246 
C 224.139873 46.578845 225.12889 46.96575 226.16 46.96575 
z
" style="fill:none;stroke:#000000;stroke-linejoin:miter;stroke-width:1.5;"/>
   </g>
   <g id="patch_3">
    <path clip-path="url(#pd42bbc27a7)" d="M 355.76 46.96575 
C 356.79111 46.96575 357.780127 46.578845 358.509231 45.890246 
C 359.238336 45.201647 359.648 44.267576 359.648 43.29375 
C 359.648 42.319924 359.238336 41.385853 358.509231 40.697254 
C 357.780127 40.008655 356.79111 39.62175 355.76 39.62175 
C 354.72889 39.62175 353.739873 40.008655 353.010769 40.697254 
C 352.281664 41.385853 351.872 42.319924 351.872 43.29375 
C 351.872 44.267576 352.281664 45.201647 353.010769 45.890246 
C 353.739873 46.578845 354.72889 46.96575 355.76 46.96575 
z
" style="fill:none;stroke:#000000;stroke-linejoin:miter;stroke-width:1.5;"/>
   </g>
   <g id="patch_4">
    <path clip-path="url(#pd42bbc27a7)" d="M 326.924 46.96575 
C 327.95511 46.96575 328.944127 46.578845 329.673231 45.890246 
C 330.402336 45.201647 330.812 44.267576 330.812 43.29375 
C 330.812 42.319924 330.402336 41.385853 329.673231 40.697254 
C 328.944127 40.008655 327.95511 39.62175 326.924 39.62175 
C 325.89289 39.62175 324.903873 40.008655 324.174769 40.697254 
C 323.445664 41.385853 323.036 42.319924 323.036 43.29375 
C 323.036 44.267576 323.445664 45.201647 324.174769 45.890246 
C 324.903873 46.578845 325.89289 46.96575 326.924 46.96575 
z
" style="fill:none;stroke:#000000;stroke-linejoin:miter;stroke-width:1.5;"/>
   </g>
   <g id="text_1">
    <!-- BUF -->
    <defs>
     <path d="M 19.671875 34.8125 
L 19.671875 8.109375 
L 35.5 8.109375 
Q 43.453125 8.109375 47.28125 11.40625 
Q 51.125 14.703125 51.125 21.484375 
Q 51.125 28.328125 47.28125 31.5625 
Q 43.453125 34.8125 35.5 34.8125 
z
M 19.671875 64.796875 
L 19.671875 42.828125 
L 34.28125 42.828125 
Q 41.5 42.828125 45.03125 45.53125 
Q 48.578125 48.25 48.578125 53.8125 
Q 48.578125 59.328125 45.03125 62.0625 
Q 41.5 64.796875 34.28125 64.796875 
z
M 9.8125 72.90625 
L 35.015625 72.90625 
Q 46.296875 72.90625 52.390625 68.21875 
Q 58.5 63.53125 58.5 54.890625 
Q 58.5 48.1875 55.375 44.234375 
Q 52.25 40.28125 46.1875 39.3125 
Q 53.46875 37.75 57.5 32.78125 
Q 61.53125 27.828125 61.53125 20.40625 
Q 61.53125 10.640625 54.890625 5.3125 
Q 48.25 0 35.984375 0 
L 9.8125 0 
z
" id="DejaVuSans-42"/>
     <path d="M 8.6875 72.90625 
L 18.609375 72.90625 
L 18.609375 28.609375 
Q 18.609375 16.890625 22.84375 11.734375 
Q 27.09375 6.59375 36.625 6.59375 
Q 46.09375 6.59375 50.34375 11.734375 
Q 54.59375 16.890625 54.59375 28.609375 
L 54.59375 72.90625 
L 64.5 72.90625 
L 64.5 27.390625 
Q 64.5 13.140625 57.4375 5.859375 
Q 50.390625 -1.421875 36.625 -1.421875 
Q 22.796875 -1.421875 15.734375 5.859375 
Q 8.6875 13.140625 8.6875 27.390625 
z
" id="DejaVuSans-55"/>
     <path d="M 9.8125 72.90625 
L 51.703125 72.90625 
L 51.703125 64.59375 
L 19.671875 64.59375 
L 19.671875 43.109375 
L 48.578125 43.109375 
L 48.578125 34.8125 
L 19.671875 34.8125 
L 19.671875 0 
L 9.8125 0 
z
" id="DejaVuSans-46"/>
    </defs>
    <g transform="translate(68.40125 16.318125)scale(0.12 -0.12)">
     <use xlink:href="#DejaVuSans-42"/>
     <use x="68.603516" xlink:href="#DejaVuSans-55"/>
     <use x="141.796875" xlink:href="#DejaVuSans-46"/>
    </g>
   </g>
   <g id="text_2">
    <!-- NOT -->
    <defs>
     <path d="M 9.8125 72.90625 
L 23.09375 72.90625 
L 55.421875 11.921875 
L 55.421875 72.90625 
L 64.984375 72.90625 
L 64.984375 0 
L 51.703125 0 
L 19.390625 60.984375 
L 19.390625 0 
L 9.8125 0 
z
" id="DejaVuSans-4e"/>
     <path d="M 39.40625 66.21875 
Q 28.65625 66.21875 22.328125 58.203125 
Q 16.015625 50.203125 16.015625 36.375 
Q 16.015625 22.609375 22.328125 14.59375 
Q 28.65625 6.59375 39.40625 6.59375 
Q 50.140625 6.59375 56.421875 14.59375 
Q 62.703125 22.609375 62.703125 36.375 
Q 62.703125 50.203125 56.421875 58.203125 
Q 50.140625 66.21875 39.40625 66.21875 
z
M 39.40625 74.21875 
Q 54.734375 74.21875 63.90625 63.9375 
Q 73.09375 53.65625 73.09375 36.375 
Q 73.09375 19.140625 63.90625 8.859375 
Q 54.734375 -1.421875 39.40625 -1.421875 
Q 24.03125 -1.421875 14.8125 8.828125 
Q 5.609375 19.09375 5.609375 36.375 
Q 5.609375 53.65625 14.8125 63.9375 
Q 24.03125 74.21875 39.40625 74.21875 
z
" id="DejaVuSans-4f"/>
     <path d="M -0.296875 72.90625 
L 61.375 72.90625 
L 61.375 64.59375 
L 35.5 64.59375 
L 35.5 0 
L 25.59375 0 
L 25.59375 64.59375 
L -0.296875 64.59375 
z
" id="DejaVuSans-54"/>
    </defs>
    <g transform="translate(197.083438 16.318125)scale(0.12 -0.12)">
     <use xlink:href="#DejaVuSans-4e"/>
     <use x="74.804688" xlink:href="#DejaVuSans-4f"/>
     <use x="153.515625" xlink:href="#DejaVuSans-54"/>
    </g>
   </g>
   <g id="text_3">
    <!-- NOTNOT -->
    <g transform="translate(313.806875 16.318125)scale(0.12 -0.12)">
     <use xlink:href="#DejaVuSans-4e"/>
     <use x="74.804688" xlink:href="#DejaVuSans-4f"/>
     <use x="153.515625" xlink:href="#DejaVuSans-54"/>
     <use x="214.599609" xlink:href="#DejaVuSans-4e"/>
     <use x="289.404297" xlink:href="#DejaVuSans-4f"/>
     <use x="368.115234" xlink:href="#DejaVuSans-54"/>
    </g>
   </g>
  </g>
 </g>
 <defs>
  <clipPath id="pd42bbc27a7">
   <rect height="39.78" width="398.52" x="10.7" y="23.40375"/>
  </clipPath>
 </defs>
</svg>
