<?xml version="1.0" encoding="utf-8" standalone="no"?>
<!DOCTYPE svg PUBLIC "-//W3C//DTD SVG 1.1//EN"
  "http://www.w3.org/Graphics/SVG/1.1/DTD/svg11.dtd">
<!-- Created with matplotlib (https://matplotlib.org/) -->
<svg height="61.629688pt" version="1.1" viewBox="0 0 412.92 61.629688" width="412.92pt" xmlns="http://www.w3.org/2000/svg" xmlns:xlink="http://www.w3.org/1999/xlink">
 <defs>
  <style type="text/css">
*{stroke-linecap:butt;stroke-linejoin:round;white-space:pre;}
  </style>
 </defs>
 <g id="figure_1">
  <g id="patch_1">
   <path d="M 0 61.629688 
L 412.92 61.629688 
L 412.92 0 
L 0 0 
z
" style="fill:none;"/>
  </g>
  <g id="axes_1">
   <g id="patch_2">
    <path clip-path="url(#pf4bf3e361d)" d="M 222.66 39.642688 
C 223.69111 39.642688 224.680127 39.289921 225.409231 38.662081 
C 226.138336 38.034241 226.548 37.182587 226.548 36.294688 
C 226.548 35.406788 226.138336 34.555134 225.409231 33.927294 
C 224.680127 33.299454 223.69111 32.946688 222.66 32.946688 
C 221.62889 32.946688 220.639873 33.299454 219.910769 33.927294 
C 219.181664 34.555134 218.772 35.406788 218.772 36.294688 
C 218.772 37.182587 219.181664 38.034241 219.910769 38.662081 
C 220.639873 39.289921 221.62889 39.642688 222.66 39.642688 
z
" style="fill:none;stroke:#000000;stroke-linejoin:miter;stroke-width:2;"/>
   </g>
   <g id="patch_3">
    <path clip-path="url(#pf4bf3e361d)" d="M 352.26 39.642688 
C 353.29111 39.642688 354.280127 39.289921 355.009231 38.662081 
C 355.738336 38.034241 356.148 37.182587 356.148 36.294688 
C 356.148 35.406788 355.738336 34.555134 355.009231 33.927294 
C 354.280127 33.299454 353.29111 32.946688 352.26 32.946688 
C 351.22889 32.946688 350.239873 33.299454 349.510769 33.927294 
C 348.781664 34.555134 348.372 35.406788 348.372 36.294688 
C 348.372 37.182587 348.781664 38.034241 349.510769 38.662081 
C 350.239873 39.289921 351.22889 39.642688 352.26 39.642688 
z
" style="fill:none;stroke:#000000;stroke-linejoin:miter;stroke-width:2;"/>
   </g>
   <g id="patch_4">
    <path clip-path="url(#pf4bf3e361d)" d="M 323.424 39.642688 
C 324.45511 39.642688 325.444127 39.289921 326.173231 38.662081 
C 326.902336 38.034241 327.312 37.182587 327.312 36.294688 
C 327.312 35.406788 326.902336 34.555134 326.173231 33.927294 
C 325.444127 33.299454 324.45511 32.946688 323.424 32.946688 
C 322.39289 32.946688 321.403873 33.299454 320.674769 33.927294 
C 319.945664 34.555134 319.536 35.406788 319.536 36.294688 
C 319.536 37.182587 319.945664 38.034241 320.674769 38.662081 
C 321.403873 39.289921 322.39289 39.642688 323.424 39.642688 
z
" style="fill:none;stroke:#000000;stroke-linejoin:miter;stroke-width:2;"/>
   </g>
   <g id="line2d_1">
    <path clip-path="url(#pf4bf3e361d)" d="M 72 36.294688 
L 72 50.244687 
L 93.06 36.294688 
L 72 22.344688 
L 72 36.294688 
" style="fill:none;stroke:#000000;stroke-linecap:round;stroke-width:2;"/>
   </g>
   <g id="line2d_2">
    <path clip-path="url(#pf4bf3e361d)" d="M 93.06 36.294688 
L 104.4 36.294688 
" style="fill:none;stroke:#000000;stroke-linecap:round;stroke-width:2;"/>
   </g>
   <g id="line2d_3">
    <path clip-path="url(#pf4bf3e361d)" d="M 28.26 36.294688 
L 60.66 36.294688 
L 72 36.294688 
M 93.06 36.294688 
L 125.46 36.294688 
" style="fill:none;stroke:#000000;stroke-linecap:round;stroke-width:2;"/>
   </g>
   <g id="line2d_4">
    <path clip-path="url(#pf4bf3e361d)" d="M 197.712 36.294688 
L 197.712 50.244687 
L 218.772 36.294688 
L 197.712 22.344688 
L 197.712 36.294688 
" style="fill:none;stroke:#000000;stroke-linecap:round;stroke-width:2;"/>
   </g>
   <g id="line2d_5">
    <path clip-path="url(#pf4bf3e361d)" d="M 226.548 36.294688 
L 230.112 36.294688 
" style="fill:none;stroke:#000000;stroke-linecap:round;stroke-width:2;"/>
   </g>
   <g id="line2d_6">
    <path clip-path="url(#pf4bf3e361d)" d="M 157.86 36.294688 
L 186.372 36.294688 
L 197.712 36.294688 
M 226.548 36.294688 
L 255.06 36.294688 
" style="fill:none;stroke:#000000;stroke-linecap:round;stroke-width:2;"/>
   </g>
   <g id="line2d_7">
    <path clip-path="url(#pf4bf3e361d)" d="M 327.312 36.294688 
L 327.312 50.244687 
L 348.372 36.294688 
L 327.312 22.344688 
L 327.312 36.294688 
" style="fill:none;stroke:#000000;stroke-linecap:round;stroke-width:2;"/>
   </g>
   <g id="line2d_8">
    <path clip-path="url(#pf4bf3e361d)" d="M 356.148 36.294688 
L 359.712 36.294688 
" style="fill:none;stroke:#000000;stroke-linecap:round;stroke-width:2;"/>
   </g>
   <g id="line2d_9">
    <path clip-path="url(#pf4bf3e361d)" d="M 287.46 36.294688 
L 315.972 36.294688 
L 319.536 36.294688 
M 356.148 36.294688 
L 384.66 36.294688 
" style="fill:none;stroke:#000000;stroke-linecap:round;stroke-width:2;"/>
   </g>
   <g id="text_1">
    <!-- BUF -->
    <defs>
     <path d="M 19.671875 34.8125 
L 19.671875 8.109375 
L 35.5 8.109375 
Q 43.453125 8.109375 47.28125 11.40625 
Q 51.125 14.703125 51.125 21.484375 
Q 51.125 28.328125 47.28125 31.5625 
Q 43.453125 34.8125 35.5 34.8125 
z
M 19.671875 64.796875 
L 19.671875 42.828125 
L 34.28125 42.828125 
Q 41.5 42.828125 45.03125 45.53125 
Q 48.578125 48.25 48.578125 53.8125 
Q 48.578125 59.328125 45.03125 62.0625 
Q 41.5 64.796875 34.28125 64.796875 
z
M 9.8125 72.90625 
L 35.015625 72.90625 
Q 46.296875 72.90625 52.390625 68.21875 
Q 58.5 63.53125 58.5 54.890625 
Q 58.5 48.1875 55.375 44.234375 
Q 52.25 40.28125 46.1875 39.3125 
Q 53.46875 37.75 57.5 32.78125 
Q 61.53125 27.828125 61.53125 20.40625 
Q 61.53125 10.640625 54.890625 5.3125 
Q 48.25 0 35.984375 0 
L 9.8125 0 
z
" id="DejaVuSans-66"/>
     <path d="M 8.6875 72.90625 
L 18.609375 72.90625 
L 18.609375 28.609375 
Q 18.609375 16.890625 22.84375 11.734375 
Q 27.09375 6.59375 36.625 6.59375 
Q 46.09375 6.59375 50.34375 11.734375 
Q 54.59375 16.890625 54.59375 28.609375 
L 54.59375 72.90625 
L 64.5 72.90625 
L 64.5 27.390625 
Q 64.5 13.140625 57.4375 5.859375 
Q 50.390625 -1.421875 36.625 -1.421875 
Q 22.796875 -1.421875 15.734375 5.859375 
Q 8.6875 13.140625 8.6875 27.390625 
z
" id="DejaVuSans-85"/>
     <path d="M 9.8125 72.90625 
L 51.703125 72.90625 
L 51.703125 64.59375 
L 19.671875 64.59375 
L 19.671875 43.109375 
L 48.578125 43.109375 
L 48.578125 34.8125 
L 19.671875 34.8125 
L 19.671875 0 
L 9.8125 0 
z
" id="DejaVuSans-70"/>
    </defs>
    <g transform="translate(62.908125 17.837812)scale(0.14 -0.14)">
     <use xlink:href="#DejaVuSans-66"/>
     <use x="68.603516" xlink:href="#DejaVuSans-85"/>
     <use x="141.796875" xlink:href="#DejaVuSans-70"/>
    </g>
   </g>
   <g id="text_2">
    <!-- NOT -->
    <defs>
     <path d="M 9.8125 72.90625 
L 23.09375 72.90625 
L 55.421875 11.921875 
L 55.421875 72.90625 
L 64.984375 72.90625 
L 64.984375 0 
L 51.703125 0 
L 19.390625 60.984375 
L 19.390625 0 
L 9.8125 0 
z
" id="DejaVuSans-78"/>
     <path d="M 39.40625 66.21875 
Q 28.65625 66.21875 22.328125 58.203125 
Q 16.015625 50.203125 16.015625 36.375 
Q 16.015625 22.609375 22.328125 14.59375 
Q 28.65625 6.59375 39.40625 6.59375 
Q 50.140625 6.59375 56.421875 14.59375 
Q 62.703125 22.609375 62.703125 36.375 
Q 62.703125 50.203125 56.421875 58.203125 
Q 50.140625 66.21875 39.40625 66.21875 
z
M 39.40625 74.21875 
Q 54.734375 74.21875 63.90625 63.9375 
Q 73.09375 53.65625 73.09375 36.375 
Q 73.09375 19.140625 63.90625 8.859375 
Q 54.734375 -1.421875 39.40625 -1.421875 
Q 24.03125 -1.421875 14.8125 8.828125 
Q 5.609375 19.09375 5.609375 36.375 
Q 5.609375 53.65625 14.8125 63.9375 
Q 24.03125 74.21875 39.40625 74.21875 
z
" id="DejaVuSans-79"/>
     <path d="M -0.296875 72.90625 
L 61.375 72.90625 
L 61.375 64.59375 
L 35.5 64.59375 
L 35.5 0 
L 25.59375 0 
L 25.59375 64.59375 
L -0.296875 64.59375 
z
" id="DejaVuSans-84"/>
    </defs>
    <g transform="translate(191.437344 17.837812)scale(0.14 -0.14)">
     <use xlink:href="#DejaVuSans-78"/>
     <use x="74.804688" xlink:href="#DejaVuSans-79"/>
     <use x="153.515625" xlink:href="#DejaVuSans-84"/>
    </g>
   </g>
   <g id="text_3">
    <!-- NOTNOT -->
    <g transform="translate(306.014687 17.837812)scale(0.14 -0.14)">
     <use xlink:href="#DejaVuSans-78"/>
     <use x="74.804688" xlink:href="#DejaVuSans-79"/>
     <use x="153.515625" xlink:href="#DejaVuSans-84"/>
     <use x="214.599609" xlink:href="#DejaVuSans-78"/>
     <use x="289.404297" xlink:href="#DejaVuSans-79"/>
     <use x="368.115234" xlink:href="#DejaVuSans-84"/>
    </g>
   </g>
  </g>
 </g>
 <defs>
  <clipPath id="pf4bf3e361d">
   <rect height="36.27" width="398.52" x="7.2" y="18.159687"/>
  </clipPath>
 </defs>
</svg>
