<?xml version="1.0" encoding="utf-8" standalone="no"?>
<!DOCTYPE svg PUBLIC "-//W3C//DTD SVG 1.1//EN"
  "http://www.w3.org/Graphics/SVG/1.1/DTD/svg11.dtd">
<!-- Created with matplotlib (http://matplotlib.org/) -->
<svg height="518.02pt" version="1.1" viewBox="0 0 375.906863 518.02" width="375.906863pt" xmlns="http://www.w3.org/2000/svg" xmlns:xlink="http://www.w3.org/1999/xlink">
 <defs>
  <style type="text/css">
*{stroke-linecap:butt;stroke-linejoin:round;}
  </style>
 </defs>
 <g id="figure_1">
  <g id="patch_1">
   <path d="M 0 518.02 
L 375.906863 518.02 
L 375.906863 0 
L 0 0 
z
" style="fill:none;"/>
  </g>
  <g id="axes_1">
   <g id="line2d_1">
    <path clip-path="url(#pee6c6e716d)" d="M 45.959403 188.5625 
L 45.959403 199.7225 
L 37.859403 199.7225 
L 54.059403 199.7225 
M 40.289403 203.0705 
L 51.629403 203.0705 
M 44.339403 206.4185 
L 47.579403 206.4185 
" style="fill:none;stroke:#000000;stroke-linecap:round;stroke-width:1.5;"/>
   </g>
   <g id="line2d_2">
    <path clip-path="url(#pee6c6e716d)" d="M 45.959403 63.71 
L 54.869403 63.71 
L 63.779403 63.71 
" style="fill:none;stroke:#000000;stroke-linecap:round;stroke-width:1.5;"/>
   </g>
   <g id="line2d_3">
    <path clip-path="url(#pee6c6e716d)" d="M 63.779403 81.1475 
L 63.779403 46.2725 
L 133.927461 81.1475 
L 63.779403 116.0225 
L 63.779403 81.1475 
M 133.927461 81.1475 
" style="fill:none;stroke:#000000;stroke-linecap:round;stroke-width:1.5;"/>
   </g>
   <g id="line2d_4">
    <path clip-path="url(#pee6c6e716d)" d="M 133.927461 81.1475 
L 153.367461 81.1475 
L 153.367461 81.1475 
M 185.767461 81.1475 
L 185.767461 81.1475 
L 205.207461 81.1475 
" style="fill:none;stroke:#000000;stroke-linecap:round;stroke-width:1.5;"/>
   </g>
   <g id="line2d_5">
    <path clip-path="url(#pee6c6e716d)" d="M 205.207461 81.1475 
" style="fill:none;stroke:#000000;stroke-linecap:round;stroke-width:1.5;"/>
   </g>
   <g id="line2d_6">
    <path clip-path="url(#pee6c6e716d)" d="M 205.207461 81.1475 
L 223.027461 81.1475 
L 240.847461 81.1475 
" style="fill:none;stroke:#000000;stroke-linecap:round;stroke-width:1.5;"/>
   </g>
   <g id="line2d_7">
    <path clip-path="url(#pee6c6e716d)" d="M 240.847461 81.1475 
" style="fill:none;stroke:#000000;stroke-linecap:round;stroke-width:1.5;"/>
   </g>
   <g id="line2d_8">
    <path clip-path="url(#pee6c6e716d)" d="M 205.207461 81.1475 
L 205.207461 97.8875 
L 213.307461 100.2125 
L 197.107461 104.8625 
L 213.307461 109.5125 
L 197.107461 114.1625 
L 213.307461 118.8125 
L 197.107461 123.4625 
L 205.207461 125.7875 
L 205.207461 142.5275 
" style="fill:none;stroke:#000000;stroke-linecap:round;stroke-width:1.5;"/>
   </g>
   <g id="line2d_9">
    <path clip-path="url(#pee6c6e716d)" d="M 205.207461 142.5275 
" style="fill:none;stroke:#000000;stroke-linecap:round;stroke-width:1.5;"/>
   </g>
   <g id="line2d_10">
    <path clip-path="url(#pee6c6e716d)" d="M 205.207461 142.5275 
L 223.027461 142.5275 
L 240.847461 142.5275 
" style="fill:none;stroke:#000000;stroke-linecap:round;stroke-width:1.5;"/>
   </g>
   <g id="line2d_11">
    <path clip-path="url(#pee6c6e716d)" d="M 240.847461 142.5275 
" style="fill:none;stroke:#000000;stroke-linecap:round;stroke-width:1.5;"/>
   </g>
   <g id="line2d_12">
    <path clip-path="url(#pee6c6e716d)" d="M 205.207461 142.5275 
L 125.583432 142.5275 
L 45.959403 142.5275 
" style="fill:none;stroke:#000000;stroke-linecap:round;stroke-width:1.5;"/>
   </g>
   <g id="line2d_13">
    <path clip-path="url(#pee6c6e716d)" d="M 45.959403 142.5275 
" style="fill:none;stroke:#000000;stroke-linecap:round;stroke-width:1.5;"/>
   </g>
   <g id="line2d_14">
    <path clip-path="url(#pee6c6e716d)" d="M 45.959403 142.5275 
L 45.959403 120.55625 
L 45.959403 98.585 
" style="fill:none;stroke:#000000;stroke-linecap:round;stroke-width:1.5;"/>
   </g>
   <g id="line2d_15">
    <path clip-path="url(#pee6c6e716d)" d="M 45.959403 98.585 
L 54.869403 98.585 
L 63.779403 98.585 
" style="fill:none;stroke:#000000;stroke-linecap:round;stroke-width:1.5;"/>
   </g>
   <g id="line2d_16">
    <path clip-path="url(#pee6c6e716d)" d="M 45.959403 142.5275 
L 45.959403 151.595 
L 45.959403 151.595 
M 45.959403 179.495 
L 45.959403 179.495 
L 45.959403 188.5625 
" style="fill:none;stroke:#000000;stroke-linecap:round;stroke-width:1.5;"/>
   </g>
   <g id="line2d_17">
    <path clip-path="url(#pee6c6e716d)" d="M 29.759403 35.81 
L 126.959403 35.81 
L 224.159403 35.81 
" style="fill:none;stroke:#000000;stroke-dasharray:1.5,2.475;stroke-dashoffset:0;stroke-width:1.5;"/>
   </g>
   <g id="line2d_18">
    <path clip-path="url(#pee6c6e716d)" d="M 224.159403 35.81 
L 224.159403 133.46 
L 224.159403 231.11 
" style="fill:none;stroke:#000000;stroke-dasharray:1.5,2.475;stroke-dashoffset:0;stroke-width:1.5;"/>
   </g>
   <g id="line2d_19">
    <path clip-path="url(#pee6c6e716d)" d="M 224.159403 231.11 
L 126.959403 231.11 
L 29.759403 231.11 
" style="fill:none;stroke:#000000;stroke-dasharray:1.5,2.475;stroke-dashoffset:0;stroke-width:1.5;"/>
   </g>
   <g id="line2d_20">
    <path clip-path="url(#pee6c6e716d)" d="M 29.759403 231.11 
L 29.759403 133.46 
L 29.759403 35.81 
" style="fill:none;stroke:#000000;stroke-dasharray:1.5,2.475;stroke-dashoffset:0;stroke-width:1.5;"/>
   </g>
   <g id="line2d_21">
    <path clip-path="url(#pee6c6e716d)" d="M 240.847461 81.1475 
L 273.247461 81.1475 
L 275.947461 74.1725 
L 281.347461 88.1225 
L 286.747461 74.1725 
L 292.147461 88.1225 
L 297.547461 74.1725 
L 302.947461 88.1225 
L 305.647461 81.1475 
L 338.047461 81.1475 
" style="fill:none;stroke:#000000;stroke-linecap:round;stroke-width:1.5;"/>
   </g>
   <g id="line2d_22">
    <path clip-path="url(#pee6c6e716d)" d="M 338.047461 81.1475 
L 338.047461 192.7475 
L 346.147461 195.0725 
L 329.947461 199.7225 
L 346.147461 204.3725 
L 329.947461 209.0225 
L 346.147461 213.6725 
L 329.947461 218.3225 
L 338.047461 220.6475 
L 338.047461 332.2475 
" style="fill:none;stroke:#000000;stroke-linecap:round;stroke-width:1.5;"/>
   </g>
   <g id="line2d_23">
    <path clip-path="url(#pee6c6e716d)" d="M 338.047461 332.2475 
L 305.647461 332.2475 
L 302.947461 339.2225 
L 297.547461 325.2725 
L 292.147461 339.2225 
L 286.747461 325.2725 
L 281.347461 339.2225 
L 275.947461 325.2725 
L 273.247461 332.2475 
L 240.847461 332.2475 
" style="fill:none;stroke:#000000;stroke-linecap:round;stroke-width:1.5;"/>
   </g>
   <g id="line2d_24">
    <path clip-path="url(#pee6c6e716d)" d="M 45.959403 439.6625 
L 45.959403 450.8225 
L 37.859403 450.8225 
L 54.059403 450.8225 
M 40.289403 454.1705 
L 51.629403 454.1705 
M 44.339403 457.5185 
L 47.579403 457.5185 
" style="fill:none;stroke:#000000;stroke-linecap:round;stroke-width:1.5;"/>
   </g>
   <g id="line2d_25">
    <path clip-path="url(#pee6c6e716d)" d="M 45.959403 314.81 
L 54.869403 314.81 
L 63.779403 314.81 
" style="fill:none;stroke:#000000;stroke-linecap:round;stroke-width:1.5;"/>
   </g>
   <g id="line2d_26">
    <path clip-path="url(#pee6c6e716d)" d="M 63.779403 332.2475 
L 63.779403 297.3725 
L 133.927461 332.2475 
L 63.779403 367.1225 
L 63.779403 332.2475 
M 133.927461 332.2475 
" style="fill:none;stroke:#000000;stroke-linecap:round;stroke-width:1.5;"/>
   </g>
   <g id="line2d_27">
    <path clip-path="url(#pee6c6e716d)" d="M 133.927461 332.2475 
L 153.367461 332.2475 
L 153.367461 332.2475 
M 185.767461 332.2475 
L 185.767461 332.2475 
L 205.207461 332.2475 
" style="fill:none;stroke:#000000;stroke-linecap:round;stroke-width:1.5;"/>
   </g>
   <g id="line2d_28">
    <path clip-path="url(#pee6c6e716d)" d="M 205.207461 332.2475 
" style="fill:none;stroke:#000000;stroke-linecap:round;stroke-width:1.5;"/>
   </g>
   <g id="line2d_29">
    <path clip-path="url(#pee6c6e716d)" d="M 205.207461 332.2475 
L 223.027461 332.2475 
L 240.847461 332.2475 
" style="fill:none;stroke:#000000;stroke-linecap:round;stroke-width:1.5;"/>
   </g>
   <g id="line2d_30">
    <path clip-path="url(#pee6c6e716d)" d="M 240.847461 332.2475 
" style="fill:none;stroke:#000000;stroke-linecap:round;stroke-width:1.5;"/>
   </g>
   <g id="line2d_31">
    <path clip-path="url(#pee6c6e716d)" d="M 205.207461 332.2475 
L 205.207461 348.9875 
L 213.307461 351.3125 
L 197.107461 355.9625 
L 213.307461 360.6125 
L 197.107461 365.2625 
L 213.307461 369.9125 
L 197.107461 374.5625 
L 205.207461 376.8875 
L 205.207461 393.6275 
" style="fill:none;stroke:#000000;stroke-linecap:round;stroke-width:1.5;"/>
   </g>
   <g id="line2d_32">
    <path clip-path="url(#pee6c6e716d)" d="M 205.207461 393.6275 
" style="fill:none;stroke:#000000;stroke-linecap:round;stroke-width:1.5;"/>
   </g>
   <g id="line2d_33">
    <path clip-path="url(#pee6c6e716d)" d="M 205.207461 393.6275 
L 223.027461 393.6275 
L 240.847461 393.6275 
" style="fill:none;stroke:#000000;stroke-linecap:round;stroke-width:1.5;"/>
   </g>
   <g id="line2d_34">
    <path clip-path="url(#pee6c6e716d)" d="M 240.847461 393.6275 
" style="fill:none;stroke:#000000;stroke-linecap:round;stroke-width:1.5;"/>
   </g>
   <g id="line2d_35">
    <path clip-path="url(#pee6c6e716d)" d="M 205.207461 393.6275 
L 125.583432 393.6275 
L 45.959403 393.6275 
" style="fill:none;stroke:#000000;stroke-linecap:round;stroke-width:1.5;"/>
   </g>
   <g id="line2d_36">
    <path clip-path="url(#pee6c6e716d)" d="M 45.959403 393.6275 
" style="fill:none;stroke:#000000;stroke-linecap:round;stroke-width:1.5;"/>
   </g>
   <g id="line2d_37">
    <path clip-path="url(#pee6c6e716d)" d="M 45.959403 393.6275 
L 45.959403 371.65625 
L 45.959403 349.685 
" style="fill:none;stroke:#000000;stroke-linecap:round;stroke-width:1.5;"/>
   </g>
   <g id="line2d_38">
    <path clip-path="url(#pee6c6e716d)" d="M 45.959403 349.685 
L 54.869403 349.685 
L 63.779403 349.685 
" style="fill:none;stroke:#000000;stroke-linecap:round;stroke-width:1.5;"/>
   </g>
   <g id="line2d_39">
    <path clip-path="url(#pee6c6e716d)" d="M 45.959403 393.6275 
L 45.959403 402.695 
L 45.959403 402.695 
M 45.959403 430.595 
L 45.959403 430.595 
L 45.959403 439.6625 
" style="fill:none;stroke:#000000;stroke-linecap:round;stroke-width:1.5;"/>
   </g>
   <g id="line2d_40">
    <path clip-path="url(#pee6c6e716d)" d="M 29.759403 286.91 
L 126.959403 286.91 
L 224.159403 286.91 
" style="fill:none;stroke:#000000;stroke-dasharray:1.5,2.475;stroke-dashoffset:0;stroke-width:1.5;"/>
   </g>
   <g id="line2d_41">
    <path clip-path="url(#pee6c6e716d)" d="M 224.159403 286.91 
L 224.159403 384.56 
L 224.159403 482.21 
" style="fill:none;stroke:#000000;stroke-dasharray:1.5,2.475;stroke-dashoffset:0;stroke-width:1.5;"/>
   </g>
   <g id="line2d_42">
    <path clip-path="url(#pee6c6e716d)" d="M 224.159403 482.21 
L 126.959403 482.21 
L 29.759403 482.21 
" style="fill:none;stroke:#000000;stroke-dasharray:1.5,2.475;stroke-dashoffset:0;stroke-width:1.5;"/>
   </g>
   <g id="line2d_43">
    <path clip-path="url(#pee6c6e716d)" d="M 29.759403 482.21 
L 29.759403 384.56 
L 29.759403 286.91 
" style="fill:none;stroke:#000000;stroke-dasharray:1.5,2.475;stroke-dashoffset:0;stroke-width:1.5;"/>
   </g>
   <g id="patch_2">
    <path clip-path="url(#pee6c6e716d)" d="M 169.567461 95.0975 
C 173.863751 95.0975 177.984654 93.62764 181.02259 91.01164 
C 184.060526 88.395639 185.767461 84.847083 185.767461 81.1475 
C 185.767461 77.447917 184.060526 73.899361 181.02259 71.28336 
C 177.984654 68.66736 173.863751 67.1975 169.567461 67.1975 
C 165.27117 67.1975 161.150267 68.66736 158.112331 71.28336 
C 155.074395 73.899361 153.367461 77.447917 153.367461 81.1475 
C 153.367461 84.847083 155.074395 88.395639 158.112331 91.01164 
C 161.150267 93.62764 165.27117 95.0975 169.567461 95.0975 
z
" style="fill:none;stroke:#000000;stroke-linejoin:miter;stroke-width:1.5;"/>
   </g>
   <g id="patch_3">
    <path clip-path="url(#pee6c6e716d)" d="M 205.207461 83.24 
C 205.851904 83.24 206.47004 83.019521 206.92573 82.627121 
C 207.38142 82.234721 207.637461 81.702437 207.637461 81.1475 
C 207.637461 80.592563 207.38142 80.060279 206.92573 79.667879 
C 206.47004 79.275479 205.851904 79.055 205.207461 79.055 
C 204.563017 79.055 203.944882 79.275479 203.489191 79.667879 
C 203.033501 80.060279 202.777461 80.592563 202.777461 81.1475 
C 202.777461 81.702437 203.033501 82.234721 203.489191 82.627121 
C 203.944882 83.019521 204.563017 83.24 205.207461 83.24 
z
" style="stroke:#000000;stroke-linejoin:miter;stroke-width:1.5;"/>
   </g>
   <g id="patch_4">
    <path clip-path="url(#pee6c6e716d)" d="M 240.847461 83.24 
C 241.491904 83.24 242.11004 83.019521 242.56573 82.627121 
C 243.02142 82.234721 243.277461 81.702437 243.277461 81.1475 
C 243.277461 80.592563 243.02142 80.060279 242.56573 79.667879 
C 242.11004 79.275479 241.491904 79.055 240.847461 79.055 
C 240.203017 79.055 239.584882 79.275479 239.129191 79.667879 
C 238.673501 80.060279 238.417461 80.592563 238.417461 81.1475 
C 238.417461 81.702437 238.673501 82.234721 239.129191 82.627121 
C 239.584882 83.019521 240.203017 83.24 240.847461 83.24 
z
" style="fill:#ffffff;stroke:#000000;stroke-linejoin:miter;stroke-width:1.5;"/>
   </g>
   <g id="patch_5">
    <path clip-path="url(#pee6c6e716d)" d="M 205.207461 144.62 
C 205.851904 144.62 206.47004 144.399521 206.92573 144.007121 
C 207.38142 143.614721 207.637461 143.082437 207.637461 142.5275 
C 207.637461 141.972563 207.38142 141.440279 206.92573 141.047879 
C 206.47004 140.655479 205.851904 140.435 205.207461 140.435 
C 204.563017 140.435 203.944882 140.655479 203.489191 141.047879 
C 203.033501 141.440279 202.777461 141.972563 202.777461 142.5275 
C 202.777461 143.082437 203.033501 143.614721 203.489191 144.007121 
C 203.944882 144.399521 204.563017 144.62 205.207461 144.62 
z
" style="stroke:#000000;stroke-linejoin:miter;stroke-width:1.5;"/>
   </g>
   <g id="patch_6">
    <path clip-path="url(#pee6c6e716d)" d="M 240.847461 144.62 
C 241.491904 144.62 242.11004 144.399521 242.56573 144.007121 
C 243.02142 143.614721 243.277461 143.082437 243.277461 142.5275 
C 243.277461 141.972563 243.02142 141.440279 242.56573 141.047879 
C 242.11004 140.655479 241.491904 140.435 240.847461 140.435 
C 240.203017 140.435 239.584882 140.655479 239.129191 141.047879 
C 238.673501 141.440279 238.417461 141.972563 238.417461 142.5275 
C 238.417461 143.082437 238.673501 143.614721 239.129191 144.007121 
C 239.584882 144.399521 240.203017 144.62 240.847461 144.62 
z
" style="fill:#ffffff;stroke:#000000;stroke-linejoin:miter;stroke-width:1.5;"/>
   </g>
   <g id="patch_7">
    <path clip-path="url(#pee6c6e716d)" d="M 45.959403 144.62 
C 46.603846 144.62 47.221982 144.399521 47.677672 144.007121 
C 48.133363 143.614721 48.389403 143.082437 48.389403 142.5275 
C 48.389403 141.972563 48.133363 141.440279 47.677672 141.047879 
C 47.221982 140.655479 46.603846 140.435 45.959403 140.435 
C 45.314959 140.435 44.696824 140.655479 44.241133 141.047879 
C 43.785443 141.440279 43.529403 141.972563 43.529403 142.5275 
C 43.529403 143.082437 43.785443 143.614721 44.241133 144.007121 
C 44.696824 144.399521 45.314959 144.62 45.959403 144.62 
z
" style="stroke:#000000;stroke-linejoin:miter;stroke-width:1.5;"/>
   </g>
   <g id="patch_8">
    <path clip-path="url(#pee6c6e716d)" d="M 45.959403 179.495 
C 50.255693 179.495 54.376597 178.02514 57.414533 175.40914 
C 60.452469 172.793139 62.159403 169.244583 62.159403 165.545 
C 62.159403 161.845417 60.452469 158.296861 57.414533 155.68086 
C 54.376597 153.06486 50.255693 151.595 45.959403 151.595 
C 41.663113 151.595 37.542209 153.06486 34.504273 155.68086 
C 31.466337 158.296861 29.759403 161.845417 29.759403 165.545 
C 29.759403 169.244583 31.466337 172.793139 34.504273 175.40914 
C 37.542209 178.02514 41.663113 179.495 45.959403 179.495 
z
" style="fill:none;stroke:#000000;stroke-linejoin:miter;stroke-width:1.5;"/>
   </g>
   <g id="patch_9">
    <path clip-path="url(#pee6c6e716d)" d="M 169.567461 346.1975 
C 173.863751 346.1975 177.984654 344.72764 181.02259 342.11164 
C 184.060526 339.495639 185.767461 335.947083 185.767461 332.2475 
C 185.767461 328.547917 184.060526 324.999361 181.02259 322.38336 
C 177.984654 319.76736 173.863751 318.2975 169.567461 318.2975 
C 165.27117 318.2975 161.150267 319.76736 158.112331 322.38336 
C 155.074395 324.999361 153.367461 328.547917 153.367461 332.2475 
C 153.367461 335.947083 155.074395 339.495639 158.112331 342.11164 
C 161.150267 344.72764 165.27117 346.1975 169.567461 346.1975 
z
" style="fill:none;stroke:#000000;stroke-linejoin:miter;stroke-width:1.5;"/>
   </g>
   <g id="patch_10">
    <path clip-path="url(#pee6c6e716d)" d="M 205.207461 334.34 
C 205.851904 334.34 206.47004 334.119521 206.92573 333.727121 
C 207.38142 333.334721 207.637461 332.802437 207.637461 332.2475 
C 207.637461 331.692563 207.38142 331.160279 206.92573 330.767879 
C 206.47004 330.375479 205.851904 330.155 205.207461 330.155 
C 204.563017 330.155 203.944882 330.375479 203.489191 330.767879 
C 203.033501 331.160279 202.777461 331.692563 202.777461 332.2475 
C 202.777461 332.802437 203.033501 333.334721 203.489191 333.727121 
C 203.944882 334.119521 204.563017 334.34 205.207461 334.34 
z
" style="stroke:#000000;stroke-linejoin:miter;stroke-width:1.5;"/>
   </g>
   <g id="patch_11">
    <path clip-path="url(#pee6c6e716d)" d="M 240.847461 334.34 
C 241.491904 334.34 242.11004 334.119521 242.56573 333.727121 
C 243.02142 333.334721 243.277461 332.802437 243.277461 332.2475 
C 243.277461 331.692563 243.02142 331.160279 242.56573 330.767879 
C 242.11004 330.375479 241.491904 330.155 240.847461 330.155 
C 240.203017 330.155 239.584882 330.375479 239.129191 330.767879 
C 238.673501 331.160279 238.417461 331.692563 238.417461 332.2475 
C 238.417461 332.802437 238.673501 333.334721 239.129191 333.727121 
C 239.584882 334.119521 240.203017 334.34 240.847461 334.34 
z
" style="fill:#ffffff;stroke:#000000;stroke-linejoin:miter;stroke-width:1.5;"/>
   </g>
   <g id="patch_12">
    <path clip-path="url(#pee6c6e716d)" d="M 205.207461 395.72 
C 205.851904 395.72 206.47004 395.499521 206.92573 395.107121 
C 207.38142 394.714721 207.637461 394.182437 207.637461 393.6275 
C 207.637461 393.072563 207.38142 392.540279 206.92573 392.147879 
C 206.47004 391.755479 205.851904 391.535 205.207461 391.535 
C 204.563017 391.535 203.944882 391.755479 203.489191 392.147879 
C 203.033501 392.540279 202.777461 393.072563 202.777461 393.6275 
C 202.777461 394.182437 203.033501 394.714721 203.489191 395.107121 
C 203.944882 395.499521 204.563017 395.72 205.207461 395.72 
z
" style="stroke:#000000;stroke-linejoin:miter;stroke-width:1.5;"/>
   </g>
   <g id="patch_13">
    <path clip-path="url(#pee6c6e716d)" d="M 240.847461 395.72 
C 241.491904 395.72 242.11004 395.499521 242.56573 395.107121 
C 243.02142 394.714721 243.277461 394.182437 243.277461 393.6275 
C 243.277461 393.072563 243.02142 392.540279 242.56573 392.147879 
C 242.11004 391.755479 241.491904 391.535 240.847461 391.535 
C 240.203017 391.535 239.584882 391.755479 239.129191 392.147879 
C 238.673501 392.540279 238.417461 393.072563 238.417461 393.6275 
C 238.417461 394.182437 238.673501 394.714721 239.129191 395.107121 
C 239.584882 395.499521 240.203017 395.72 240.847461 395.72 
z
" style="fill:#ffffff;stroke:#000000;stroke-linejoin:miter;stroke-width:1.5;"/>
   </g>
   <g id="patch_14">
    <path clip-path="url(#pee6c6e716d)" d="M 45.959403 395.72 
C 46.603846 395.72 47.221982 395.499521 47.677672 395.107121 
C 48.133363 394.714721 48.389403 394.182437 48.389403 393.6275 
C 48.389403 393.072563 48.133363 392.540279 47.677672 392.147879 
C 47.221982 391.755479 46.603846 391.535 45.959403 391.535 
C 45.314959 391.535 44.696824 391.755479 44.241133 392.147879 
C 43.785443 392.540279 43.529403 393.072563 43.529403 393.6275 
C 43.529403 394.182437 43.785443 394.714721 44.241133 395.107121 
C 44.696824 395.499521 45.314959 395.72 45.959403 395.72 
z
" style="stroke:#000000;stroke-linejoin:miter;stroke-width:1.5;"/>
   </g>
   <g id="patch_15">
    <path clip-path="url(#pee6c6e716d)" d="M 45.959403 430.595 
C 50.255693 430.595 54.376597 429.12514 57.414533 426.50914 
C 60.452469 423.893139 62.159403 420.344583 62.159403 416.645 
C 62.159403 412.945417 60.452469 409.396861 57.414533 406.78086 
C 54.376597 404.16486 50.255693 402.695 45.959403 402.695 
C 41.663113 402.695 37.542209 404.16486 34.504273 406.78086 
C 31.466337 409.396861 29.759403 412.945417 29.759403 416.645 
C 29.759403 420.344583 31.466337 423.893139 34.504273 426.50914 
C 37.542209 429.12514 41.663113 430.595 45.959403 430.595 
z
" style="fill:none;stroke:#000000;stroke-linejoin:miter;stroke-width:1.5;"/>
   </g>
   <g id="text_1">
    <!-- I -->
    <defs>
     <path d="M 9.8125 72.90625 
L 19.671875 72.90625 
L 19.671875 0 
L 9.8125 0 
z
" id="DejaVuSans-49"/>
    </defs>
    <g transform="translate(167.207461 85.5625)scale(0.16 -0.16)">
     <use xlink:href="#DejaVuSans-49"/>
    </g>
   </g>
   <g id="text_2">
    <!-- F -->
    <defs>
     <path d="M 9.8125 72.90625 
L 51.703125 72.90625 
L 51.703125 64.59375 
L 19.671875 64.59375 
L 19.671875 43.109375 
L 48.578125 43.109375 
L 48.578125 34.8125 
L 19.671875 34.8125 
L 19.671875 0 
L 9.8125 0 
z
" id="DejaVuSans-46"/>
    </defs>
    <g transform="translate(236.246211 72.9375)scale(0.16 -0.16)">
     <use xlink:href="#DejaVuSans-46"/>
    </g>
   </g>
   <g id="text_3">
    <!-- $R_s$ -->
    <defs>
     <path d="M 44.390625 34.1875 
Q 47.5625 33.109375 50.5625 29.59375 
Q 53.5625 26.078125 56.59375 19.921875 
L 66.609375 0 
L 56 0 
L 46.6875 18.703125 
Q 43.0625 26.03125 39.671875 28.421875 
Q 36.28125 30.8125 30.421875 30.8125 
L 19.671875 30.8125 
L 19.671875 0 
L 9.8125 0 
L 9.8125 72.90625 
L 32.078125 72.90625 
Q 44.578125 72.90625 50.734375 67.671875 
Q 56.890625 62.453125 56.890625 51.90625 
Q 56.890625 45.015625 53.6875 40.46875 
Q 50.484375 35.9375 44.390625 34.1875 
z
M 19.671875 64.796875 
L 19.671875 38.921875 
L 32.078125 38.921875 
Q 39.203125 38.921875 42.84375 42.21875 
Q 46.484375 45.515625 46.484375 51.90625 
Q 46.484375 58.296875 42.84375 61.546875 
Q 39.203125 64.796875 32.078125 64.796875 
z
" id="DejaVuSans-52"/>
     <path d="M 44.28125 53.078125 
L 44.28125 44.578125 
Q 40.484375 46.53125 36.375 47.5 
Q 32.28125 48.484375 27.875 48.484375 
Q 21.1875 48.484375 17.84375 46.4375 
Q 14.5 44.390625 14.5 40.28125 
Q 14.5 37.15625 16.890625 35.375 
Q 19.28125 33.59375 26.515625 31.984375 
L 29.59375 31.296875 
Q 39.15625 29.25 43.1875 25.515625 
Q 47.21875 21.78125 47.21875 15.09375 
Q 47.21875 7.46875 41.1875 3.015625 
Q 35.15625 -1.421875 24.609375 -1.421875 
Q 20.21875 -1.421875 15.453125 -0.5625 
Q 10.6875 0.296875 5.421875 2 
L 5.421875 11.28125 
Q 10.40625 8.6875 15.234375 7.390625 
Q 20.0625 6.109375 24.8125 6.109375 
Q 31.15625 6.109375 34.5625 8.28125 
Q 37.984375 10.453125 37.984375 14.40625 
Q 37.984375 18.0625 35.515625 20.015625 
Q 33.0625 21.96875 24.703125 23.78125 
L 21.578125 24.515625 
Q 13.234375 26.265625 9.515625 29.90625 
Q 5.8125 33.546875 5.8125 39.890625 
Q 5.8125 47.609375 11.28125 51.796875 
Q 16.75 56 26.8125 56 
Q 31.78125 56 36.171875 55.265625 
Q 40.578125 54.546875 44.28125 53.078125 
z
" id="DejaVuSans-73"/>
    </defs>
    <g transform="translate(177.887461 130.2025)scale(0.16 -0.16)">
     <use transform="translate(0 0.09375)" xlink:href="#DejaVuSans-52"/>
     <use transform="translate(70.439453 -16.3125)scale(0.7)" xlink:href="#DejaVuSans-73"/>
    </g>
   </g>
   <g id="text_4">
    <!-- S -->
    <defs>
     <path d="M 53.515625 70.515625 
L 53.515625 60.890625 
Q 47.90625 63.578125 42.921875 64.890625 
Q 37.9375 66.21875 33.296875 66.21875 
Q 25.25 66.21875 20.875 63.09375 
Q 16.5 59.96875 16.5 54.203125 
Q 16.5 49.359375 19.40625 46.890625 
Q 22.3125 44.4375 30.421875 42.921875 
L 36.375 41.703125 
Q 47.40625 39.59375 52.65625 34.296875 
Q 57.90625 29 57.90625 20.125 
Q 57.90625 9.515625 50.796875 4.046875 
Q 43.703125 -1.421875 29.984375 -1.421875 
Q 24.8125 -1.421875 18.96875 -0.25 
Q 13.140625 0.921875 6.890625 3.21875 
L 6.890625 13.375 
Q 12.890625 10.015625 18.65625 8.296875 
Q 24.421875 6.59375 29.984375 6.59375 
Q 38.421875 6.59375 43.015625 9.90625 
Q 47.609375 13.234375 47.609375 19.390625 
Q 47.609375 24.75 44.3125 27.78125 
Q 41.015625 30.8125 33.5 32.328125 
L 27.484375 33.5 
Q 16.453125 35.6875 11.515625 40.375 
Q 6.59375 45.0625 6.59375 53.421875 
Q 6.59375 63.09375 13.40625 68.65625 
Q 20.21875 74.21875 32.171875 74.21875 
Q 37.3125 74.21875 42.625 73.28125 
Q 47.953125 72.359375 53.515625 70.515625 
z
" id="DejaVuSans-53"/>
    </defs>
    <g transform="translate(235.768711 134.3175)scale(0.16 -0.16)">
     <use xlink:href="#DejaVuSans-53"/>
    </g>
   </g>
   <g id="text_5">
    <!-- V -->
    <defs>
     <path d="M 28.609375 0 
L 0.78125 72.90625 
L 11.078125 72.90625 
L 34.1875 11.53125 
L 57.328125 72.90625 
L 67.578125 72.90625 
L 39.796875 0 
z
" id="DejaVuSans-56"/>
    </defs>
    <g transform="translate(40.486903 169.96)scale(0.16 -0.16)">
     <use xlink:href="#DejaVuSans-56"/>
    </g>
   </g>
   <g id="text_6">
    <!-- SMU1 -->
    <defs>
     <path d="M 9.8125 72.90625 
L 24.515625 72.90625 
L 43.109375 23.296875 
L 61.8125 72.90625 
L 76.515625 72.90625 
L 76.515625 0 
L 66.890625 0 
L 66.890625 64.015625 
L 48.09375 14.015625 
L 38.1875 14.015625 
L 19.390625 64.015625 
L 19.390625 0 
L 9.8125 0 
z
" id="DejaVuSans-4d"/>
     <path d="M 8.6875 72.90625 
L 18.609375 72.90625 
L 18.609375 28.609375 
Q 18.609375 16.890625 22.84375 11.734375 
Q 27.09375 6.59375 36.625 6.59375 
Q 46.09375 6.59375 50.34375 11.734375 
Q 54.59375 16.890625 54.59375 28.609375 
L 54.59375 72.90625 
L 64.5 72.90625 
L 64.5 27.390625 
Q 64.5 13.140625 57.4375 5.859375 
Q 50.390625 -1.421875 36.625 -1.421875 
Q 22.796875 -1.421875 15.734375 5.859375 
Q 8.6875 13.140625 8.6875 27.390625 
z
" id="DejaVuSans-55"/>
     <path d="M 12.40625 8.296875 
L 28.515625 8.296875 
L 28.515625 63.921875 
L 10.984375 60.40625 
L 10.984375 69.390625 
L 28.421875 72.90625 
L 38.28125 72.90625 
L 38.28125 8.296875 
L 54.390625 8.296875 
L 54.390625 0 
L 12.40625 0 
z
" id="DejaVuSans-31"/>
    </defs>
    <g transform="translate(146.641211 185.235)scale(0.16 -0.16)">
     <use xlink:href="#DejaVuSans-53"/>
     <use x="63.476562" xlink:href="#DejaVuSans-4d"/>
     <use x="149.755859" xlink:href="#DejaVuSans-55"/>
     <use x="222.949219" xlink:href="#DejaVuSans-31"/>
    </g>
   </g>
   <g id="text_7">
    <!-- $R_c$ -->
    <defs>
     <path d="M 48.78125 52.59375 
L 48.78125 44.1875 
Q 44.96875 46.296875 41.140625 47.34375 
Q 37.3125 48.390625 33.40625 48.390625 
Q 24.65625 48.390625 19.8125 42.84375 
Q 14.984375 37.3125 14.984375 27.296875 
Q 14.984375 17.28125 19.8125 11.734375 
Q 24.65625 6.203125 33.40625 6.203125 
Q 37.3125 6.203125 41.140625 7.25 
Q 44.96875 8.296875 48.78125 10.40625 
L 48.78125 2.09375 
Q 45.015625 0.34375 40.984375 -0.53125 
Q 36.96875 -1.421875 32.421875 -1.421875 
Q 20.0625 -1.421875 12.78125 6.34375 
Q 5.515625 14.109375 5.515625 27.296875 
Q 5.515625 40.671875 12.859375 48.328125 
Q 20.21875 56 33.015625 56 
Q 37.15625 56 41.109375 55.140625 
Q 45.0625 54.296875 48.78125 52.59375 
z
" id="DejaVuSans-63"/>
    </defs>
    <g transform="translate(280.487461 68.055)scale(0.16 -0.16)">
     <use transform="translate(0 0.09375)" xlink:href="#DejaVuSans-52"/>
     <use transform="translate(70.439453 -16.3125)scale(0.7)" xlink:href="#DejaVuSans-63"/>
    </g>
   </g>
   <g id="text_8">
    <!-- $R_{ch}$ -->
    <defs>
     <path d="M 54.890625 33.015625 
L 54.890625 0 
L 45.90625 0 
L 45.90625 32.71875 
Q 45.90625 40.484375 42.875 44.328125 
Q 39.84375 48.1875 33.796875 48.1875 
Q 26.515625 48.1875 22.3125 43.546875 
Q 18.109375 38.921875 18.109375 30.90625 
L 18.109375 0 
L 9.078125 0 
L 9.078125 75.984375 
L 18.109375 75.984375 
L 18.109375 46.1875 
Q 21.34375 51.125 25.703125 53.5625 
Q 30.078125 56 35.796875 56 
Q 45.21875 56 50.046875 50.171875 
Q 54.890625 44.34375 54.890625 33.015625 
z
" id="DejaVuSans-68"/>
    </defs>
    <g transform="translate(301.587461 211.1125)scale(0.16 -0.16)">
     <use transform="translate(0 0.09375)" xlink:href="#DejaVuSans-52"/>
     <use transform="translate(70.439453 -16.3125)scale(0.7)" xlink:href="#DejaVuSans-63"/>
     <use transform="translate(108.925781 -16.3125)scale(0.7)" xlink:href="#DejaVuSans-68"/>
    </g>
   </g>
   <g id="text_9">
    <!-- $R_c$ -->
    <g transform="translate(280.487461 319.155)scale(0.16 -0.16)">
     <use transform="translate(0 0.09375)" xlink:href="#DejaVuSans-52"/>
     <use transform="translate(70.439453 -16.3125)scale(0.7)" xlink:href="#DejaVuSans-63"/>
    </g>
   </g>
   <g id="text_10">
    <!-- I -->
    <g transform="translate(167.207461 336.6625)scale(0.16 -0.16)">
     <use xlink:href="#DejaVuSans-49"/>
    </g>
   </g>
   <g id="text_11">
    <!-- F -->
    <g transform="translate(236.246211 324.0375)scale(0.16 -0.16)">
     <use xlink:href="#DejaVuSans-46"/>
    </g>
   </g>
   <g id="text_12">
    <!-- $R_s$ -->
    <g transform="translate(177.887461 381.3025)scale(0.16 -0.16)">
     <use transform="translate(0 0.09375)" xlink:href="#DejaVuSans-52"/>
     <use transform="translate(70.439453 -16.3125)scale(0.7)" xlink:href="#DejaVuSans-73"/>
    </g>
   </g>
   <g id="text_13">
    <!-- S -->
    <g transform="translate(235.768711 385.4175)scale(0.16 -0.16)">
     <use xlink:href="#DejaVuSans-53"/>
    </g>
   </g>
   <g id="text_14">
    <!-- V -->
    <g transform="translate(40.486903 421.06)scale(0.16 -0.16)">
     <use xlink:href="#DejaVuSans-56"/>
    </g>
   </g>
   <g id="text_15">
    <!-- SMU2 -->
    <defs>
     <path d="M 19.1875 8.296875 
L 53.609375 8.296875 
L 53.609375 0 
L 7.328125 0 
L 7.328125 8.296875 
Q 12.9375 14.109375 22.625 23.890625 
Q 32.328125 33.6875 34.8125 36.53125 
Q 39.546875 41.84375 41.421875 45.53125 
Q 43.3125 49.21875 43.3125 52.78125 
Q 43.3125 58.59375 39.234375 62.25 
Q 35.15625 65.921875 28.609375 65.921875 
Q 23.96875 65.921875 18.8125 64.3125 
Q 13.671875 62.703125 7.8125 59.421875 
L 7.8125 69.390625 
Q 13.765625 71.78125 18.9375 73 
Q 24.125 74.21875 28.421875 74.21875 
Q 39.75 74.21875 46.484375 68.546875 
Q 53.21875 62.890625 53.21875 53.421875 
Q 53.21875 48.921875 51.53125 44.890625 
Q 49.859375 40.875 45.40625 35.40625 
Q 44.1875 33.984375 37.640625 27.21875 
Q 31.109375 20.453125 19.1875 8.296875 
z
" id="DejaVuSans-32"/>
    </defs>
    <g transform="translate(123.714961 444.0775)scale(0.16 -0.16)">
     <use xlink:href="#DejaVuSans-53"/>
     <use x="63.476562" xlink:href="#DejaVuSans-4d"/>
     <use x="149.755859" xlink:href="#DejaVuSans-55"/>
     <use x="222.949219" xlink:href="#DejaVuSans-32"/>
    </g>
   </g>
  </g>
 </g>
 <defs>
  <clipPath id="pee6c6e716d">
   <rect height="496.62" width="354.506863" x="10.7" y="10.7"/>
  </clipPath>
 </defs>
</svg>
