<?xml version="1.0" encoding="utf-8" standalone="no"?>
<!DOCTYPE svg PUBLIC "-//W3C//DTD SVG 1.1//EN"
  "http://www.w3.org/Graphics/SVG/1.1/DTD/svg11.dtd">
<!-- Created with matplotlib (https://matplotlib.org/) -->
<svg height="511.02pt" version="1.1" viewBox="0 0 368.906863 511.02" width="368.906863pt" xmlns="http://www.w3.org/2000/svg" xmlns:xlink="http://www.w3.org/1999/xlink">
 <defs>
  <style type="text/css">
*{stroke-linecap:butt;stroke-linejoin:round;white-space:pre;}
  </style>
 </defs>
 <g id="figure_1">
  <g id="patch_1">
   <path d="M 0 511.02 
L 368.906863 511.02 
L 368.906863 0 
L 0 0 
z
" style="fill:none;"/>
  </g>
  <g id="axes_1">
   <g id="patch_2">
    <path clip-path="url(#pdb53821ec6)" d="M 166.067461 91.5975 
C 170.363751 91.5975 174.484654 90.12764 177.52259 87.51164 
C 180.560526 84.895639 182.267461 81.347083 182.267461 77.6475 
C 182.267461 73.947917 180.560526 70.399361 177.52259 67.78336 
C 174.484654 65.16736 170.363751 63.6975 166.067461 63.6975 
C 161.77117 63.6975 157.650267 65.16736 154.612331 67.78336 
C 151.574395 70.399361 149.867461 73.947917 149.867461 77.6475 
C 149.867461 81.347083 151.574395 84.895639 154.612331 87.51164 
C 157.650267 90.12764 161.77117 91.5975 166.067461 91.5975 
z
" style="fill:none;stroke:#000000;stroke-linejoin:miter;stroke-width:2;"/>
   </g>
   <g id="patch_3">
    <path clip-path="url(#pdb53821ec6)" d="M 201.707461 79.74 
C 202.351904 79.74 202.97004 79.519521 203.42573 79.127121 
C 203.88142 78.734721 204.137461 78.202437 204.137461 77.6475 
C 204.137461 77.092563 203.88142 76.560279 203.42573 76.167879 
C 202.97004 75.775479 202.351904 75.555 201.707461 75.555 
C 201.063017 75.555 200.444882 75.775479 199.989191 76.167879 
C 199.533501 76.560279 199.277461 77.092563 199.277461 77.6475 
C 199.277461 78.202437 199.533501 78.734721 199.989191 79.127121 
C 200.444882 79.519521 201.063017 79.74 201.707461 79.74 
z
" style="stroke:#000000;stroke-linejoin:miter;stroke-width:2;"/>
   </g>
   <g id="patch_4">
    <path clip-path="url(#pdb53821ec6)" d="M 201.707461 141.12 
C 202.351904 141.12 202.97004 140.899521 203.42573 140.507121 
C 203.88142 140.114721 204.137461 139.582437 204.137461 139.0275 
C 204.137461 138.472563 203.88142 137.940279 203.42573 137.547879 
C 202.97004 137.155479 202.351904 136.935 201.707461 136.935 
C 201.063017 136.935 200.444882 137.155479 199.989191 137.547879 
C 199.533501 137.940279 199.277461 138.472563 199.277461 139.0275 
C 199.277461 139.582437 199.533501 140.114721 199.989191 140.507121 
C 200.444882 140.899521 201.063017 141.12 201.707461 141.12 
z
" style="stroke:#000000;stroke-linejoin:miter;stroke-width:2;"/>
   </g>
   <g id="patch_5">
    <path clip-path="url(#pdb53821ec6)" d="M 42.459403 141.12 
C 43.103846 141.12 43.721982 140.899521 44.177672 140.507121 
C 44.633363 140.114721 44.889403 139.582437 44.889403 139.0275 
C 44.889403 138.472563 44.633363 137.940279 44.177672 137.547879 
C 43.721982 137.155479 43.103846 136.935 42.459403 136.935 
C 41.814959 136.935 41.196824 137.155479 40.741133 137.547879 
C 40.285443 137.940279 40.029403 138.472563 40.029403 139.0275 
C 40.029403 139.582437 40.285443 140.114721 40.741133 140.507121 
C 41.196824 140.899521 41.814959 141.12 42.459403 141.12 
z
" style="stroke:#000000;stroke-linejoin:miter;stroke-width:2;"/>
   </g>
   <g id="patch_6">
    <path clip-path="url(#pdb53821ec6)" d="M 42.459403 175.995 
C 46.755693 175.995 50.876597 174.52514 53.914533 171.90914 
C 56.952469 169.293139 58.659403 165.744583 58.659403 162.045 
C 58.659403 158.345417 56.952469 154.796861 53.914533 152.18086 
C 50.876597 149.56486 46.755693 148.095 42.459403 148.095 
C 38.163113 148.095 34.042209 149.56486 31.004273 152.18086 
C 27.966337 154.796861 26.259403 158.345417 26.259403 162.045 
C 26.259403 165.744583 27.966337 169.293139 31.004273 171.90914 
C 34.042209 174.52514 38.163113 175.995 42.459403 175.995 
z
" style="fill:none;stroke:#000000;stroke-linejoin:miter;stroke-width:2;"/>
   </g>
   <g id="patch_7">
    <path clip-path="url(#pdb53821ec6)" d="M 166.067461 342.6975 
C 170.363751 342.6975 174.484654 341.22764 177.52259 338.61164 
C 180.560526 335.995639 182.267461 332.447083 182.267461 328.7475 
C 182.267461 325.047917 180.560526 321.499361 177.52259 318.88336 
C 174.484654 316.26736 170.363751 314.7975 166.067461 314.7975 
C 161.77117 314.7975 157.650267 316.26736 154.612331 318.88336 
C 151.574395 321.499361 149.867461 325.047917 149.867461 328.7475 
C 149.867461 332.447083 151.574395 335.995639 154.612331 338.61164 
C 157.650267 341.22764 161.77117 342.6975 166.067461 342.6975 
z
" style="fill:none;stroke:#000000;stroke-linejoin:miter;stroke-width:2;"/>
   </g>
   <g id="patch_8">
    <path clip-path="url(#pdb53821ec6)" d="M 201.707461 330.84 
C 202.351904 330.84 202.97004 330.619521 203.42573 330.227121 
C 203.88142 329.834721 204.137461 329.302437 204.137461 328.7475 
C 204.137461 328.192563 203.88142 327.660279 203.42573 327.267879 
C 202.97004 326.875479 202.351904 326.655 201.707461 326.655 
C 201.063017 326.655 200.444882 326.875479 199.989191 327.267879 
C 199.533501 327.660279 199.277461 328.192563 199.277461 328.7475 
C 199.277461 329.302437 199.533501 329.834721 199.989191 330.227121 
C 200.444882 330.619521 201.063017 330.84 201.707461 330.84 
z
" style="stroke:#000000;stroke-linejoin:miter;stroke-width:2;"/>
   </g>
   <g id="patch_9">
    <path clip-path="url(#pdb53821ec6)" d="M 201.707461 392.22 
C 202.351904 392.22 202.97004 391.999521 203.42573 391.607121 
C 203.88142 391.214721 204.137461 390.682437 204.137461 390.1275 
C 204.137461 389.572563 203.88142 389.040279 203.42573 388.647879 
C 202.97004 388.255479 202.351904 388.035 201.707461 388.035 
C 201.063017 388.035 200.444882 388.255479 199.989191 388.647879 
C 199.533501 389.040279 199.277461 389.572563 199.277461 390.1275 
C 199.277461 390.682437 199.533501 391.214721 199.989191 391.607121 
C 200.444882 391.999521 201.063017 392.22 201.707461 392.22 
z
" style="stroke:#000000;stroke-linejoin:miter;stroke-width:2;"/>
   </g>
   <g id="patch_10">
    <path clip-path="url(#pdb53821ec6)" d="M 42.459403 392.22 
C 43.103846 392.22 43.721982 391.999521 44.177672 391.607121 
C 44.633363 391.214721 44.889403 390.682437 44.889403 390.1275 
C 44.889403 389.572563 44.633363 389.040279 44.177672 388.647879 
C 43.721982 388.255479 43.103846 388.035 42.459403 388.035 
C 41.814959 388.035 41.196824 388.255479 40.741133 388.647879 
C 40.285443 389.040279 40.029403 389.572563 40.029403 390.1275 
C 40.029403 390.682437 40.285443 391.214721 40.741133 391.607121 
C 41.196824 391.999521 41.814959 392.22 42.459403 392.22 
z
" style="stroke:#000000;stroke-linejoin:miter;stroke-width:2;"/>
   </g>
   <g id="patch_11">
    <path clip-path="url(#pdb53821ec6)" d="M 42.459403 427.095 
C 46.755693 427.095 50.876597 425.62514 53.914533 423.00914 
C 56.952469 420.393139 58.659403 416.844583 58.659403 413.145 
C 58.659403 409.445417 56.952469 405.896861 53.914533 403.28086 
C 50.876597 400.66486 46.755693 399.195 42.459403 399.195 
C 38.163113 399.195 34.042209 400.66486 31.004273 403.28086 
C 27.966337 405.896861 26.259403 409.445417 26.259403 413.145 
C 26.259403 416.844583 27.966337 420.393139 31.004273 423.00914 
C 34.042209 425.62514 38.163113 427.095 42.459403 427.095 
z
" style="fill:none;stroke:#000000;stroke-linejoin:miter;stroke-width:2;"/>
   </g>
   <g id="line2d_1">
    <path clip-path="url(#pdb53821ec6)" d="M 42.459403 60.21 
L 51.369403 60.21 
L 60.279403 60.21 
" style="fill:none;stroke:#000000;stroke-linecap:round;stroke-width:2;"/>
   </g>
   <g id="line2d_2">
    <path clip-path="url(#pdb53821ec6)" d="M 60.279403 77.6475 
L 60.279403 42.7725 
L 130.427461 77.6475 
L 60.279403 112.5225 
L 60.279403 77.6475 
M 130.427461 77.6475 
" style="fill:none;stroke:#000000;stroke-linecap:round;stroke-width:2;"/>
   </g>
   <g id="line2d_3">
    <path clip-path="url(#pdb53821ec6)" d="M 130.427461 77.6475 
L 149.867461 77.6475 
L 149.867461 77.6475 
M 182.267461 77.6475 
L 182.267461 77.6475 
L 201.707461 77.6475 
" style="fill:none;stroke:#000000;stroke-linecap:round;stroke-width:2;"/>
   </g>
   <g id="line2d_4">
    <path clip-path="url(#pdb53821ec6)" d="M 201.707461 77.6475 
" style="fill:none;stroke:#000000;stroke-linecap:round;stroke-width:2;"/>
   </g>
   <g id="line2d_5">
    <path clip-path="url(#pdb53821ec6)" d="M 201.707461 77.6475 
L 219.527461 77.6475 
L 237.347461 77.6475 
" style="fill:none;stroke:#000000;stroke-linecap:round;stroke-width:2;"/>
   </g>
   <g id="line2d_6">
    <path clip-path="url(#pdb53821ec6)" d="M 237.347461 77.6475 
" style="fill:none;stroke:#000000;stroke-linecap:round;stroke-width:2;"/>
   </g>
   <g id="line2d_7">
    <path clip-path="url(#pdb53821ec6)" d="M 201.707461 77.6475 
L 201.707461 94.3875 
L 209.807461 96.7125 
L 193.607461 101.3625 
L 209.807461 106.0125 
L 193.607461 110.6625 
L 209.807461 115.3125 
L 193.607461 119.9625 
L 201.707461 122.2875 
L 201.707461 139.0275 
" style="fill:none;stroke:#000000;stroke-linecap:round;stroke-width:2;"/>
   </g>
   <g id="line2d_8">
    <path clip-path="url(#pdb53821ec6)" d="M 201.707461 139.0275 
" style="fill:none;stroke:#000000;stroke-linecap:round;stroke-width:2;"/>
   </g>
   <g id="line2d_9">
    <path clip-path="url(#pdb53821ec6)" d="M 201.707461 139.0275 
L 219.527461 139.0275 
L 237.347461 139.0275 
" style="fill:none;stroke:#000000;stroke-linecap:round;stroke-width:2;"/>
   </g>
   <g id="line2d_10">
    <path clip-path="url(#pdb53821ec6)" d="M 237.347461 139.0275 
" style="fill:none;stroke:#000000;stroke-linecap:round;stroke-width:2;"/>
   </g>
   <g id="line2d_11">
    <path clip-path="url(#pdb53821ec6)" d="M 201.707461 139.0275 
L 122.083432 139.0275 
L 42.459403 139.0275 
" style="fill:none;stroke:#000000;stroke-linecap:round;stroke-width:2;"/>
   </g>
   <g id="line2d_12">
    <path clip-path="url(#pdb53821ec6)" d="M 42.459403 139.0275 
" style="fill:none;stroke:#000000;stroke-linecap:round;stroke-width:2;"/>
   </g>
   <g id="line2d_13">
    <path clip-path="url(#pdb53821ec6)" d="M 42.459403 139.0275 
L 42.459403 117.05625 
L 42.459403 95.085 
" style="fill:none;stroke:#000000;stroke-linecap:round;stroke-width:2;"/>
   </g>
   <g id="line2d_14">
    <path clip-path="url(#pdb53821ec6)" d="M 42.459403 95.085 
L 51.369403 95.085 
L 60.279403 95.085 
" style="fill:none;stroke:#000000;stroke-linecap:round;stroke-width:2;"/>
   </g>
   <g id="line2d_15">
    <path clip-path="url(#pdb53821ec6)" d="M 42.459403 139.0275 
L 42.459403 148.095 
L 42.459403 148.095 
M 42.459403 175.995 
L 42.459403 175.995 
L 42.459403 185.0625 
" style="fill:none;stroke:#000000;stroke-linecap:round;stroke-width:2;"/>
   </g>
   <g id="line2d_16">
    <path clip-path="url(#pdb53821ec6)" d="M 42.459403 185.0625 
L 42.459403 196.2225 
L 34.359403 196.2225 
L 50.559403 196.2225 
M 36.789403 199.5705 
L 48.129403 199.5705 
M 40.839403 202.9185 
L 44.079403 202.9185 
" style="fill:none;stroke:#000000;stroke-linecap:round;stroke-width:2;"/>
   </g>
   <g id="line2d_17">
    <path clip-path="url(#pdb53821ec6)" d="M 26.259403 32.31 
L 123.459403 32.31 
L 220.659403 32.31 
" style="fill:none;stroke:#000000;stroke-dasharray:2,3.3;stroke-dashoffset:0;stroke-width:2;"/>
   </g>
   <g id="line2d_18">
    <path clip-path="url(#pdb53821ec6)" d="M 220.659403 32.31 
L 220.659403 129.96 
L 220.659403 227.61 
" style="fill:none;stroke:#000000;stroke-dasharray:2,3.3;stroke-dashoffset:0;stroke-width:2;"/>
   </g>
   <g id="line2d_19">
    <path clip-path="url(#pdb53821ec6)" d="M 220.659403 227.61 
L 123.459403 227.61 
L 26.259403 227.61 
" style="fill:none;stroke:#000000;stroke-dasharray:2,3.3;stroke-dashoffset:0;stroke-width:2;"/>
   </g>
   <g id="line2d_20">
    <path clip-path="url(#pdb53821ec6)" d="M 26.259403 227.61 
L 26.259403 129.96 
L 26.259403 32.31 
" style="fill:none;stroke:#000000;stroke-dasharray:2,3.3;stroke-dashoffset:0;stroke-width:2;"/>
   </g>
   <g id="line2d_21">
    <path clip-path="url(#pdb53821ec6)" d="M 237.347461 77.6475 
L 269.747461 77.6475 
L 272.447461 70.6725 
L 277.847461 84.6225 
L 283.247461 70.6725 
L 288.647461 84.6225 
L 294.047461 70.6725 
L 299.447461 84.6225 
L 302.147461 77.6475 
L 334.547461 77.6475 
" style="fill:none;stroke:#000000;stroke-linecap:round;stroke-width:2;"/>
   </g>
   <g id="line2d_22">
    <path clip-path="url(#pdb53821ec6)" d="M 334.547461 77.6475 
L 334.547461 189.2475 
L 342.647461 191.5725 
L 326.447461 196.2225 
L 342.647461 200.8725 
L 326.447461 205.5225 
L 342.647461 210.1725 
L 326.447461 214.8225 
L 334.547461 217.1475 
L 334.547461 328.7475 
" style="fill:none;stroke:#000000;stroke-linecap:round;stroke-width:2;"/>
   </g>
   <g id="line2d_23">
    <path clip-path="url(#pdb53821ec6)" d="M 334.547461 328.7475 
L 302.147461 328.7475 
L 299.447461 335.7225 
L 294.047461 321.7725 
L 288.647461 335.7225 
L 283.247461 321.7725 
L 277.847461 335.7225 
L 272.447461 321.7725 
L 269.747461 328.7475 
L 237.347461 328.7475 
" style="fill:none;stroke:#000000;stroke-linecap:round;stroke-width:2;"/>
   </g>
   <g id="line2d_24">
    <path clip-path="url(#pdb53821ec6)" d="M 42.459403 311.31 
L 51.369403 311.31 
L 60.279403 311.31 
" style="fill:none;stroke:#000000;stroke-linecap:round;stroke-width:2;"/>
   </g>
   <g id="line2d_25">
    <path clip-path="url(#pdb53821ec6)" d="M 60.279403 328.7475 
L 60.279403 293.8725 
L 130.427461 328.7475 
L 60.279403 363.6225 
L 60.279403 328.7475 
M 130.427461 328.7475 
" style="fill:none;stroke:#000000;stroke-linecap:round;stroke-width:2;"/>
   </g>
   <g id="line2d_26">
    <path clip-path="url(#pdb53821ec6)" d="M 130.427461 328.7475 
L 149.867461 328.7475 
L 149.867461 328.7475 
M 182.267461 328.7475 
L 182.267461 328.7475 
L 201.707461 328.7475 
" style="fill:none;stroke:#000000;stroke-linecap:round;stroke-width:2;"/>
   </g>
   <g id="line2d_27">
    <path clip-path="url(#pdb53821ec6)" d="M 201.707461 328.7475 
" style="fill:none;stroke:#000000;stroke-linecap:round;stroke-width:2;"/>
   </g>
   <g id="line2d_28">
    <path clip-path="url(#pdb53821ec6)" d="M 201.707461 328.7475 
L 219.527461 328.7475 
L 237.347461 328.7475 
" style="fill:none;stroke:#000000;stroke-linecap:round;stroke-width:2;"/>
   </g>
   <g id="line2d_29">
    <path clip-path="url(#pdb53821ec6)" d="M 237.347461 328.7475 
" style="fill:none;stroke:#000000;stroke-linecap:round;stroke-width:2;"/>
   </g>
   <g id="line2d_30">
    <path clip-path="url(#pdb53821ec6)" d="M 201.707461 328.7475 
L 201.707461 345.4875 
L 209.807461 347.8125 
L 193.607461 352.4625 
L 209.807461 357.1125 
L 193.607461 361.7625 
L 209.807461 366.4125 
L 193.607461 371.0625 
L 201.707461 373.3875 
L 201.707461 390.1275 
" style="fill:none;stroke:#000000;stroke-linecap:round;stroke-width:2;"/>
   </g>
   <g id="line2d_31">
    <path clip-path="url(#pdb53821ec6)" d="M 201.707461 390.1275 
" style="fill:none;stroke:#000000;stroke-linecap:round;stroke-width:2;"/>
   </g>
   <g id="line2d_32">
    <path clip-path="url(#pdb53821ec6)" d="M 201.707461 390.1275 
L 219.527461 390.1275 
L 237.347461 390.1275 
" style="fill:none;stroke:#000000;stroke-linecap:round;stroke-width:2;"/>
   </g>
   <g id="line2d_33">
    <path clip-path="url(#pdb53821ec6)" d="M 237.347461 390.1275 
" style="fill:none;stroke:#000000;stroke-linecap:round;stroke-width:2;"/>
   </g>
   <g id="line2d_34">
    <path clip-path="url(#pdb53821ec6)" d="M 201.707461 390.1275 
L 122.083432 390.1275 
L 42.459403 390.1275 
" style="fill:none;stroke:#000000;stroke-linecap:round;stroke-width:2;"/>
   </g>
   <g id="line2d_35">
    <path clip-path="url(#pdb53821ec6)" d="M 42.459403 390.1275 
" style="fill:none;stroke:#000000;stroke-linecap:round;stroke-width:2;"/>
   </g>
   <g id="line2d_36">
    <path clip-path="url(#pdb53821ec6)" d="M 42.459403 390.1275 
L 42.459403 368.15625 
L 42.459403 346.185 
" style="fill:none;stroke:#000000;stroke-linecap:round;stroke-width:2;"/>
   </g>
   <g id="line2d_37">
    <path clip-path="url(#pdb53821ec6)" d="M 42.459403 346.185 
L 51.369403 346.185 
L 60.279403 346.185 
" style="fill:none;stroke:#000000;stroke-linecap:round;stroke-width:2;"/>
   </g>
   <g id="line2d_38">
    <path clip-path="url(#pdb53821ec6)" d="M 42.459403 390.1275 
L 42.459403 399.195 
L 42.459403 399.195 
M 42.459403 427.095 
L 42.459403 427.095 
L 42.459403 436.1625 
" style="fill:none;stroke:#000000;stroke-linecap:round;stroke-width:2;"/>
   </g>
   <g id="line2d_39">
    <path clip-path="url(#pdb53821ec6)" d="M 42.459403 436.1625 
L 42.459403 447.3225 
L 34.359403 447.3225 
L 50.559403 447.3225 
M 36.789403 450.6705 
L 48.129403 450.6705 
M 40.839403 454.0185 
L 44.079403 454.0185 
" style="fill:none;stroke:#000000;stroke-linecap:round;stroke-width:2;"/>
   </g>
   <g id="line2d_40">
    <path clip-path="url(#pdb53821ec6)" d="M 26.259403 283.41 
L 123.459403 283.41 
L 220.659403 283.41 
" style="fill:none;stroke:#000000;stroke-dasharray:2,3.3;stroke-dashoffset:0;stroke-width:2;"/>
   </g>
   <g id="line2d_41">
    <path clip-path="url(#pdb53821ec6)" d="M 220.659403 283.41 
L 220.659403 381.06 
L 220.659403 478.71 
" style="fill:none;stroke:#000000;stroke-dasharray:2,3.3;stroke-dashoffset:0;stroke-width:2;"/>
   </g>
   <g id="line2d_42">
    <path clip-path="url(#pdb53821ec6)" d="M 220.659403 478.71 
L 123.459403 478.71 
L 26.259403 478.71 
" style="fill:none;stroke:#000000;stroke-dasharray:2,3.3;stroke-dashoffset:0;stroke-width:2;"/>
   </g>
   <g id="line2d_43">
    <path clip-path="url(#pdb53821ec6)" d="M 26.259403 478.71 
L 26.259403 381.06 
L 26.259403 283.41 
" style="fill:none;stroke:#000000;stroke-dasharray:2,3.3;stroke-dashoffset:0;stroke-width:2;"/>
   </g>
   <g id="text_1">
    <!-- I -->
    <defs>
     <path d="M 9.8125 72.90625 
L 19.671875 72.90625 
L 19.671875 0 
L 9.8125 0 
z
" id="DejaVuSans-73"/>
    </defs>
    <g transform="translate(164.002461 81.510625)scale(0.14 -0.14)">
     <use xlink:href="#DejaVuSans-73"/>
    </g>
   </g>
   <g id="text_2">
    <!-- F -->
    <defs>
     <path d="M 9.8125 72.90625 
L 51.703125 72.90625 
L 51.703125 64.59375 
L 19.671875 64.59375 
L 19.671875 43.109375 
L 48.578125 43.109375 
L 48.578125 34.8125 
L 19.671875 34.8125 
L 19.671875 0 
L 9.8125 0 
z
" id="DejaVuSans-70"/>
    </defs>
    <g transform="translate(233.321367 69.853437)scale(0.14 -0.14)">
     <use xlink:href="#DejaVuSans-70"/>
    </g>
   </g>
   <g id="text_3">
    <!-- $R_s$ -->
    <defs>
     <path d="M 44.390625 34.1875 
Q 47.5625 33.109375 50.5625 29.59375 
Q 53.5625 26.078125 56.59375 19.921875 
L 66.609375 0 
L 56 0 
L 46.6875 18.703125 
Q 43.0625 26.03125 39.671875 28.421875 
Q 36.28125 30.8125 30.421875 30.8125 
L 19.671875 30.8125 
L 19.671875 0 
L 9.8125 0 
L 9.8125 72.90625 
L 32.078125 72.90625 
Q 44.578125 72.90625 50.734375 67.671875 
Q 56.890625 62.453125 56.890625 51.90625 
Q 56.890625 45.015625 53.6875 40.46875 
Q 50.484375 35.9375 44.390625 34.1875 
z
M 19.671875 64.796875 
L 19.671875 38.921875 
L 32.078125 38.921875 
Q 39.203125 38.921875 42.84375 42.21875 
Q 46.484375 45.515625 46.484375 51.90625 
Q 46.484375 58.296875 42.84375 61.546875 
Q 39.203125 64.796875 32.078125 64.796875 
z
" id="DejaVuSans-82"/>
     <path d="M 44.28125 53.078125 
L 44.28125 44.578125 
Q 40.484375 46.53125 36.375 47.5 
Q 32.28125 48.484375 27.875 48.484375 
Q 21.1875 48.484375 17.84375 46.4375 
Q 14.5 44.390625 14.5 40.28125 
Q 14.5 37.15625 16.890625 35.375 
Q 19.28125 33.59375 26.515625 31.984375 
L 29.59375 31.296875 
Q 39.15625 29.25 43.1875 25.515625 
Q 47.21875 21.78125 47.21875 15.09375 
Q 47.21875 7.46875 41.1875 3.015625 
Q 35.15625 -1.421875 24.609375 -1.421875 
Q 20.21875 -1.421875 15.453125 -0.5625 
Q 10.6875 0.296875 5.421875 2 
L 5.421875 11.28125 
Q 10.40625 8.6875 15.234375 7.390625 
Q 20.0625 6.109375 24.8125 6.109375 
Q 31.15625 6.109375 34.5625 8.28125 
Q 37.984375 10.453125 37.984375 14.40625 
Q 37.984375 18.0625 35.515625 20.015625 
Q 33.0625 21.96875 24.703125 23.78125 
L 21.578125 24.515625 
Q 13.234375 26.265625 9.515625 29.90625 
Q 5.8125 33.546875 5.8125 39.890625 
Q 5.8125 47.609375 11.28125 51.796875 
Q 16.75 56 26.8125 56 
Q 31.78125 56 36.171875 55.265625 
Q 40.578125 54.546875 44.28125 53.078125 
z
" id="DejaVuSans-115"/>
    </defs>
    <g transform="translate(176.587461 126.150625)scale(0.14 -0.14)">
     <use transform="translate(0 0.09375)" xlink:href="#DejaVuSans-82"/>
     <use transform="translate(70.439453 -16.3125)scale(0.7)" xlink:href="#DejaVuSans-115"/>
    </g>
   </g>
   <g id="text_4">
    <!-- S -->
    <defs>
     <path d="M 53.515625 70.515625 
L 53.515625 60.890625 
Q 47.90625 63.578125 42.921875 64.890625 
Q 37.9375 66.21875 33.296875 66.21875 
Q 25.25 66.21875 20.875 63.09375 
Q 16.5 59.96875 16.5 54.203125 
Q 16.5 49.359375 19.40625 46.890625 
Q 22.3125 44.4375 30.421875 42.921875 
L 36.375 41.703125 
Q 47.40625 39.59375 52.65625 34.296875 
Q 57.90625 29 57.90625 20.125 
Q 57.90625 9.515625 50.796875 4.046875 
Q 43.703125 -1.421875 29.984375 -1.421875 
Q 24.8125 -1.421875 18.96875 -0.25 
Q 13.140625 0.921875 6.890625 3.21875 
L 6.890625 13.375 
Q 12.890625 10.015625 18.65625 8.296875 
Q 24.421875 6.59375 29.984375 6.59375 
Q 38.421875 6.59375 43.015625 9.90625 
Q 47.609375 13.234375 47.609375 19.390625 
Q 47.609375 24.75 44.3125 27.78125 
Q 41.015625 30.8125 33.5 32.328125 
L 27.484375 33.5 
Q 16.453125 35.6875 11.515625 40.375 
Q 6.59375 45.0625 6.59375 53.421875 
Q 6.59375 63.09375 13.40625 68.65625 
Q 20.21875 74.21875 32.171875 74.21875 
Q 37.3125 74.21875 42.625 73.28125 
Q 47.953125 72.359375 53.515625 70.515625 
z
" id="DejaVuSans-83"/>
    </defs>
    <g transform="translate(232.903554 131.233437)scale(0.14 -0.14)">
     <use xlink:href="#DejaVuSans-83"/>
    </g>
   </g>
   <g id="text_5">
    <!-- V -->
    <defs>
     <path d="M 28.609375 0 
L 0.78125 72.90625 
L 11.078125 72.90625 
L 34.1875 11.53125 
L 57.328125 72.90625 
L 67.578125 72.90625 
L 39.796875 0 
z
" id="DejaVuSans-86"/>
    </defs>
    <g transform="translate(37.670965 165.908125)scale(0.14 -0.14)">
     <use xlink:href="#DejaVuSans-86"/>
    </g>
   </g>
   <g id="text_6">
    <!-- SMU1 -->
    <defs>
     <path d="M 9.8125 72.90625 
L 24.515625 72.90625 
L 43.109375 23.296875 
L 61.8125 72.90625 
L 76.515625 72.90625 
L 76.515625 0 
L 66.890625 0 
L 66.890625 64.015625 
L 48.09375 14.015625 
L 38.1875 14.015625 
L 19.390625 64.015625 
L 19.390625 0 
L 9.8125 0 
z
" id="DejaVuSans-77"/>
     <path d="M 8.6875 72.90625 
L 18.609375 72.90625 
L 18.609375 28.609375 
Q 18.609375 16.890625 22.84375 11.734375 
Q 27.09375 6.59375 36.625 6.59375 
Q 46.09375 6.59375 50.34375 11.734375 
Q 54.59375 16.890625 54.59375 28.609375 
L 54.59375 72.90625 
L 64.5 72.90625 
L 64.5 27.390625 
Q 64.5 13.140625 57.4375 5.859375 
Q 50.390625 -1.421875 36.625 -1.421875 
Q 22.796875 -1.421875 15.734375 5.859375 
Q 8.6875 13.140625 8.6875 27.390625 
z
" id="DejaVuSans-85"/>
     <path d="M 12.40625 8.296875 
L 28.515625 8.296875 
L 28.515625 63.921875 
L 10.984375 60.40625 
L 10.984375 69.390625 
L 28.421875 72.90625 
L 38.28125 72.90625 
L 38.28125 8.296875 
L 54.390625 8.296875 
L 54.390625 0 
L 12.40625 0 
z
" id="DejaVuSans-49"/>
    </defs>
    <g transform="translate(146.006992 188.925625)scale(0.14 -0.14)">
     <use xlink:href="#DejaVuSans-83"/>
     <use x="63.476562" xlink:href="#DejaVuSans-77"/>
     <use x="149.755859" xlink:href="#DejaVuSans-85"/>
     <use x="222.949219" xlink:href="#DejaVuSans-49"/>
    </g>
   </g>
   <g id="text_7">
    <!-- $R_c$ -->
    <defs>
     <path d="M 48.78125 52.59375 
L 48.78125 44.1875 
Q 44.96875 46.296875 41.140625 47.34375 
Q 37.3125 48.390625 33.40625 48.390625 
Q 24.65625 48.390625 19.8125 42.84375 
Q 14.984375 37.3125 14.984375 27.296875 
Q 14.984375 17.28125 19.8125 11.734375 
Q 24.65625 6.203125 33.40625 6.203125 
Q 37.3125 6.203125 41.140625 7.25 
Q 44.96875 8.296875 48.78125 10.40625 
L 48.78125 2.09375 
Q 45.015625 0.34375 40.984375 -0.53125 
Q 36.96875 -1.421875 32.421875 -1.421875 
Q 20.0625 -1.421875 12.78125 6.34375 
Q 5.515625 14.109375 5.515625 27.296875 
Q 5.515625 40.671875 12.859375 48.328125 
Q 20.21875 56 33.015625 56 
Q 37.15625 56 41.109375 55.140625 
Q 45.0625 54.296875 48.78125 52.59375 
z
" id="DejaVuSans-99"/>
    </defs>
    <g transform="translate(278.107461 64.970937)scale(0.14 -0.14)">
     <use transform="translate(0 0.09375)" xlink:href="#DejaVuSans-82"/>
     <use transform="translate(70.439453 -16.3125)scale(0.7)" xlink:href="#DejaVuSans-99"/>
    </g>
   </g>
   <g id="text_8">
    <!-- $R_{ch}$ -->
    <defs>
     <path d="M 54.890625 33.015625 
L 54.890625 0 
L 45.90625 0 
L 45.90625 32.71875 
Q 45.90625 40.484375 42.875 44.328125 
Q 39.84375 48.1875 33.796875 48.1875 
Q 26.515625 48.1875 22.3125 43.546875 
Q 18.109375 38.921875 18.109375 30.90625 
L 18.109375 0 
L 9.078125 0 
L 9.078125 75.984375 
L 18.109375 75.984375 
L 18.109375 46.1875 
Q 21.34375 51.125 25.703125 53.5625 
Q 30.078125 56 35.796875 56 
Q 45.21875 56 50.046875 50.171875 
Q 54.890625 44.34375 54.890625 33.015625 
z
" id="DejaVuSans-104"/>
    </defs>
    <g transform="translate(301.227461 207.060625)scale(0.14 -0.14)">
     <use transform="translate(0 0.09375)" xlink:href="#DejaVuSans-82"/>
     <use transform="translate(70.439453 -16.3125)scale(0.7)" xlink:href="#DejaVuSans-99"/>
     <use transform="translate(108.925781 -16.3125)scale(0.7)" xlink:href="#DejaVuSans-104"/>
    </g>
   </g>
   <g id="text_9">
    <!-- $R_c$ -->
    <g transform="translate(278.107461 316.070937)scale(0.14 -0.14)">
     <use transform="translate(0 0.09375)" xlink:href="#DejaVuSans-82"/>
     <use transform="translate(70.439453 -16.3125)scale(0.7)" xlink:href="#DejaVuSans-99"/>
    </g>
   </g>
   <g id="text_10">
    <!-- I -->
    <g transform="translate(164.002461 332.610625)scale(0.14 -0.14)">
     <use xlink:href="#DejaVuSans-73"/>
    </g>
   </g>
   <g id="text_11">
    <!-- F -->
    <g transform="translate(233.321367 320.953437)scale(0.14 -0.14)">
     <use xlink:href="#DejaVuSans-70"/>
    </g>
   </g>
   <g id="text_12">
    <!-- $R_s$ -->
    <g transform="translate(176.587461 377.250625)scale(0.14 -0.14)">
     <use transform="translate(0 0.09375)" xlink:href="#DejaVuSans-82"/>
     <use transform="translate(70.439453 -16.3125)scale(0.7)" xlink:href="#DejaVuSans-115"/>
    </g>
   </g>
   <g id="text_13">
    <!-- S -->
    <g transform="translate(232.903554 382.333437)scale(0.14 -0.14)">
     <use xlink:href="#DejaVuSans-83"/>
    </g>
   </g>
   <g id="text_14">
    <!-- V -->
    <g transform="translate(37.670965 417.008125)scale(0.14 -0.14)">
     <use xlink:href="#DejaVuSans-86"/>
    </g>
   </g>
   <g id="text_15">
    <!-- SMU2 -->
    <defs>
     <path d="M 19.1875 8.296875 
L 53.609375 8.296875 
L 53.609375 0 
L 7.328125 0 
L 7.328125 8.296875 
Q 12.9375 14.109375 22.625 23.890625 
Q 32.328125 33.6875 34.8125 36.53125 
Q 39.546875 41.84375 41.421875 45.53125 
Q 43.3125 49.21875 43.3125 52.78125 
Q 43.3125 58.59375 39.234375 62.25 
Q 35.15625 65.921875 28.609375 65.921875 
Q 23.96875 65.921875 18.8125 64.3125 
Q 13.671875 62.703125 7.8125 59.421875 
L 7.8125 69.390625 
Q 13.765625 71.78125 18.9375 73 
Q 24.125 74.21875 28.421875 74.21875 
Q 39.75 74.21875 46.484375 68.546875 
Q 53.21875 62.890625 53.21875 53.421875 
Q 53.21875 48.921875 51.53125 44.890625 
Q 49.859375 40.875 45.40625 35.40625 
Q 44.1875 33.984375 37.640625 27.21875 
Q 31.109375 20.453125 19.1875 8.296875 
z
" id="DejaVuSans-50"/>
    </defs>
    <g transform="translate(146.006992 440.025625)scale(0.14 -0.14)">
     <use xlink:href="#DejaVuSans-83"/>
     <use x="63.476562" xlink:href="#DejaVuSans-77"/>
     <use x="149.755859" xlink:href="#DejaVuSans-85"/>
     <use x="222.949219" xlink:href="#DejaVuSans-50"/>
    </g>
   </g>
   <g id="patch_12">
    <path clip-path="url(#pdb53821ec6)" d="M 237.347461 79.74 
C 237.991904 79.74 238.61004 79.519521 239.06573 79.127121 
C 239.52142 78.734721 239.777461 78.202437 239.777461 77.6475 
C 239.777461 77.092563 239.52142 76.560279 239.06573 76.167879 
C 238.61004 75.775479 237.991904 75.555 237.347461 75.555 
C 236.703017 75.555 236.084882 75.775479 235.629191 76.167879 
C 235.173501 76.560279 234.917461 77.092563 234.917461 77.6475 
C 234.917461 78.202437 235.173501 78.734721 235.629191 79.127121 
C 236.084882 79.519521 236.703017 79.74 237.347461 79.74 
z
" style="fill:#ffffff;stroke:#000000;stroke-linejoin:miter;stroke-width:2;"/>
   </g>
   <g id="patch_13">
    <path clip-path="url(#pdb53821ec6)" d="M 237.347461 141.12 
C 237.991904 141.12 238.61004 140.899521 239.06573 140.507121 
C 239.52142 140.114721 239.777461 139.582437 239.777461 139.0275 
C 239.777461 138.472563 239.52142 137.940279 239.06573 137.547879 
C 238.61004 137.155479 237.991904 136.935 237.347461 136.935 
C 236.703017 136.935 236.084882 137.155479 235.629191 137.547879 
C 235.173501 137.940279 234.917461 138.472563 234.917461 139.0275 
C 234.917461 139.582437 235.173501 140.114721 235.629191 140.507121 
C 236.084882 140.899521 236.703017 141.12 237.347461 141.12 
z
" style="fill:#ffffff;stroke:#000000;stroke-linejoin:miter;stroke-width:2;"/>
   </g>
   <g id="patch_14">
    <path clip-path="url(#pdb53821ec6)" d="M 237.347461 330.84 
C 237.991904 330.84 238.61004 330.619521 239.06573 330.227121 
C 239.52142 329.834721 239.777461 329.302437 239.777461 328.7475 
C 239.777461 328.192563 239.52142 327.660279 239.06573 327.267879 
C 238.61004 326.875479 237.991904 326.655 237.347461 326.655 
C 236.703017 326.655 236.084882 326.875479 235.629191 327.267879 
C 235.173501 327.660279 234.917461 328.192563 234.917461 328.7475 
C 234.917461 329.302437 235.173501 329.834721 235.629191 330.227121 
C 236.084882 330.619521 236.703017 330.84 237.347461 330.84 
z
" style="fill:#ffffff;stroke:#000000;stroke-linejoin:miter;stroke-width:2;"/>
   </g>
   <g id="patch_15">
    <path clip-path="url(#pdb53821ec6)" d="M 237.347461 392.22 
C 237.991904 392.22 238.61004 391.999521 239.06573 391.607121 
C 239.52142 391.214721 239.777461 390.682437 239.777461 390.1275 
C 239.777461 389.572563 239.52142 389.040279 239.06573 388.647879 
C 238.61004 388.255479 237.991904 388.035 237.347461 388.035 
C 236.703017 388.035 236.084882 388.255479 235.629191 388.647879 
C 235.173501 389.040279 234.917461 389.572563 234.917461 390.1275 
C 234.917461 390.682437 235.173501 391.214721 235.629191 391.607121 
C 236.084882 391.999521 236.703017 392.22 237.347461 392.22 
z
" style="fill:#ffffff;stroke:#000000;stroke-linejoin:miter;stroke-width:2;"/>
   </g>
  </g>
 </g>
 <defs>
  <clipPath id="pdb53821ec6">
   <rect height="496.62" width="354.506863" x="7.2" y="7.2"/>
  </clipPath>
 </defs>
</svg>
