<?xml version="1.0" encoding="utf-8" standalone="no"?>
<!DOCTYPE svg PUBLIC "-//W3C//DTD SVG 1.1//EN"
  "http://www.w3.org/Graphics/SVG/1.1/DTD/svg11.dtd">
<!-- Created with matplotlib (http://matplotlib.org/) -->
<svg height="510pt" version="1.1" viewBox="0 0 337 510" width="337pt" xmlns="http://www.w3.org/2000/svg" xmlns:xlink="http://www.w3.org/1999/xlink">
 <defs>
  <style type="text/css">
*{stroke-linecap:butt;stroke-linejoin:round;}
  </style>
 </defs>
 <g id="figure_1">
  <g id="patch_1">
   <path d="
M0 510.12
L337.268 510.12
L337.268 5.68434e-14
L0 5.68434e-14
L0 510.12" style="fill:none;"/>
  </g>
  <g id="axes_1">
   <g id="line2d_1">
    <path clip-path="url(#p938151fbaa)" d="
M26.64 177.795
L26.64 190.035
L18.54 190.035
L34.74 190.035
M20.97 193.707
L32.31 193.707
M25.02 197.379
L28.26 197.379" style="fill:none;stroke:#000000;stroke-linecap:round;stroke-width:1.5;"/>
   </g>
   <g id="line2d_2">
    <path clip-path="url(#p938151fbaa)" d="
M26.64 40.86
L35.55 40.86
L44.46 40.86" style="fill:none;stroke:#000000;stroke-linecap:round;stroke-width:1.5;"/>
   </g>
   <g id="line2d_3">
    <path clip-path="url(#p938151fbaa)" d="
M44.46 59.985
L44.46 21.735
L114.608 59.985
L44.46 98.235
L44.46 59.985
M114.608 59.985" style="fill:none;stroke:#000000;stroke-linecap:round;stroke-width:1.5;"/>
   </g>
   <g id="line2d_4">
    <path clip-path="url(#p938151fbaa)" d="
M114.608 59.985
L134.048 59.985
L134.048 59.985
M166.448 59.985
L166.448 59.985
L185.888 59.985" style="fill:none;stroke:#000000;stroke-linecap:round;stroke-width:1.5;"/>
   </g>
   <g id="line2d_5">
    <path clip-path="url(#p938151fbaa)" d="
M185.888 59.985" style="fill:none;stroke:#000000;stroke-linecap:round;stroke-width:1.5;"/>
   </g>
   <g id="line2d_6">
    <path clip-path="url(#p938151fbaa)" d="
M185.888 59.985
L203.708 59.985
L221.528 59.985" style="fill:none;stroke:#000000;stroke-linecap:round;stroke-width:1.5;"/>
   </g>
   <g id="line2d_7">
    <path clip-path="url(#p938151fbaa)" d="
M221.528 59.985" style="fill:none;stroke:#000000;stroke-linecap:round;stroke-width:1.5;"/>
   </g>
   <g id="line2d_8">
    <path clip-path="url(#p938151fbaa)" d="
M185.888 59.985
L185.888 78.345
L193.988 80.895
L177.788 85.995
L193.988 91.095
L177.788 96.195
L193.988 101.295
L177.788 106.395
L185.888 108.945
L185.888 127.305" style="fill:none;stroke:#000000;stroke-linecap:round;stroke-width:1.5;"/>
   </g>
   <g id="line2d_9">
    <path clip-path="url(#p938151fbaa)" d="
M185.888 127.305" style="fill:none;stroke:#000000;stroke-linecap:round;stroke-width:1.5;"/>
   </g>
   <g id="line2d_10">
    <path clip-path="url(#p938151fbaa)" d="
M185.888 127.305
L203.708 127.305
L221.528 127.305" style="fill:none;stroke:#000000;stroke-linecap:round;stroke-width:1.5;"/>
   </g>
   <g id="line2d_11">
    <path clip-path="url(#p938151fbaa)" d="
M221.528 127.305" style="fill:none;stroke:#000000;stroke-linecap:round;stroke-width:1.5;"/>
   </g>
   <g id="line2d_12">
    <path clip-path="url(#p938151fbaa)" d="
M185.888 127.305
L106.264 127.305
L26.64 127.305" style="fill:none;stroke:#000000;stroke-linecap:round;stroke-width:1.5;"/>
   </g>
   <g id="line2d_13">
    <path clip-path="url(#p938151fbaa)" d="
M26.64 127.305" style="fill:none;stroke:#000000;stroke-linecap:round;stroke-width:1.5;"/>
   </g>
   <g id="line2d_14">
    <path clip-path="url(#p938151fbaa)" d="
M26.64 127.305
L26.64 103.207
L26.64 79.11" style="fill:none;stroke:#000000;stroke-linecap:round;stroke-width:1.5;"/>
   </g>
   <g id="line2d_15">
    <path clip-path="url(#p938151fbaa)" d="
M26.64 79.11
L35.55 79.11
L44.46 79.11" style="fill:none;stroke:#000000;stroke-linecap:round;stroke-width:1.5;"/>
   </g>
   <g id="line2d_16">
    <path clip-path="url(#p938151fbaa)" d="
M26.64 127.305
L26.64 137.25
L26.64 137.25
M26.64 167.85
L26.64 167.85
L26.64 177.795" style="fill:none;stroke:#000000;stroke-linecap:round;stroke-width:1.5;"/>
   </g>
   <g id="line2d_17">
    <path clip-path="url(#p938151fbaa)" d="
M10.44 10.26
L107.64 10.26
L204.84 10.26" style="fill:none;stroke:#000000;stroke-dasharray:1.000000,3.000000;stroke-dashoffset:0.0;stroke-width:1.5;"/>
   </g>
   <g id="line2d_18">
    <path clip-path="url(#p938151fbaa)" d="
M204.84 10.26
L204.84 117.36
L204.84 224.46" style="fill:none;stroke:#000000;stroke-dasharray:1.000000,3.000000;stroke-dashoffset:0.0;stroke-width:1.5;"/>
   </g>
   <g id="line2d_19">
    <path clip-path="url(#p938151fbaa)" d="
M204.84 224.46
L107.64 224.46
L10.44 224.46" style="fill:none;stroke:#000000;stroke-dasharray:1.000000,3.000000;stroke-dashoffset:0.0;stroke-width:1.5;"/>
   </g>
   <g id="line2d_20">
    <path clip-path="url(#p938151fbaa)" d="
M10.44 224.46
L10.44 117.36
L10.44 10.26" style="fill:none;stroke:#000000;stroke-dasharray:1.000000,3.000000;stroke-dashoffset:0.0;stroke-width:1.5;"/>
   </g>
   <g id="line2d_21">
    <path clip-path="url(#p938151fbaa)" d="
M221.528 59.985
L253.928 59.985
L256.628 52.335
L262.028 67.635
L267.428 52.335
L272.828 67.635
L278.228 52.335
L283.628 67.635
L286.328 59.985
L318.728 59.985" style="fill:none;stroke:#000000;stroke-linecap:round;stroke-width:1.5;"/>
   </g>
   <g id="line2d_22">
    <path clip-path="url(#p938151fbaa)" d="
M318.728 59.985
L318.728 182.385
L326.828 184.935
L310.628 190.035
L326.828 195.135
L310.628 200.235
L326.828 205.335
L310.628 210.435
L318.728 212.985
L318.728 335.385" style="fill:none;stroke:#000000;stroke-linecap:round;stroke-width:1.5;"/>
   </g>
   <g id="line2d_23">
    <path clip-path="url(#p938151fbaa)" d="
M318.728 335.385
L286.328 335.385
L283.628 343.035
L278.228 327.735
L272.828 343.035
L267.428 327.735
L262.028 343.035
L256.628 327.735
L253.928 335.385
L221.528 335.385" style="fill:none;stroke:#000000;stroke-linecap:round;stroke-width:1.5;"/>
   </g>
   <g id="line2d_24">
    <path clip-path="url(#p938151fbaa)" d="
M26.64 453.195
L26.64 465.435
L18.54 465.435
L34.74 465.435
M20.97 469.107
L32.31 469.107
M25.02 472.779
L28.26 472.779" style="fill:none;stroke:#000000;stroke-linecap:round;stroke-width:1.5;"/>
   </g>
   <g id="line2d_25">
    <path clip-path="url(#p938151fbaa)" d="
M26.64 316.26
L35.55 316.26
L44.46 316.26" style="fill:none;stroke:#000000;stroke-linecap:round;stroke-width:1.5;"/>
   </g>
   <g id="line2d_26">
    <path clip-path="url(#p938151fbaa)" d="
M44.46 335.385
L44.46 297.135
L114.608 335.385
L44.46 373.635
L44.46 335.385
M114.608 335.385" style="fill:none;stroke:#000000;stroke-linecap:round;stroke-width:1.5;"/>
   </g>
   <g id="line2d_27">
    <path clip-path="url(#p938151fbaa)" d="
M114.608 335.385
L134.048 335.385
L134.048 335.385
M166.448 335.385
L166.448 335.385
L185.888 335.385" style="fill:none;stroke:#000000;stroke-linecap:round;stroke-width:1.5;"/>
   </g>
   <g id="line2d_28">
    <path clip-path="url(#p938151fbaa)" d="
M185.888 335.385" style="fill:none;stroke:#000000;stroke-linecap:round;stroke-width:1.5;"/>
   </g>
   <g id="line2d_29">
    <path clip-path="url(#p938151fbaa)" d="
M185.888 335.385
L203.708 335.385
L221.528 335.385" style="fill:none;stroke:#000000;stroke-linecap:round;stroke-width:1.5;"/>
   </g>
   <g id="line2d_30">
    <path clip-path="url(#p938151fbaa)" d="
M221.528 335.385" style="fill:none;stroke:#000000;stroke-linecap:round;stroke-width:1.5;"/>
   </g>
   <g id="line2d_31">
    <path clip-path="url(#p938151fbaa)" d="
M185.888 335.385
L185.888 353.745
L193.988 356.295
L177.788 361.395
L193.988 366.495
L177.788 371.595
L193.988 376.695
L177.788 381.795
L185.888 384.345
L185.888 402.705" style="fill:none;stroke:#000000;stroke-linecap:round;stroke-width:1.5;"/>
   </g>
   <g id="line2d_32">
    <path clip-path="url(#p938151fbaa)" d="
M185.888 402.705" style="fill:none;stroke:#000000;stroke-linecap:round;stroke-width:1.5;"/>
   </g>
   <g id="line2d_33">
    <path clip-path="url(#p938151fbaa)" d="
M185.888 402.705
L203.708 402.705
L221.528 402.705" style="fill:none;stroke:#000000;stroke-linecap:round;stroke-width:1.5;"/>
   </g>
   <g id="line2d_34">
    <path clip-path="url(#p938151fbaa)" d="
M221.528 402.705" style="fill:none;stroke:#000000;stroke-linecap:round;stroke-width:1.5;"/>
   </g>
   <g id="line2d_35">
    <path clip-path="url(#p938151fbaa)" d="
M185.888 402.705
L106.264 402.705
L26.64 402.705" style="fill:none;stroke:#000000;stroke-linecap:round;stroke-width:1.5;"/>
   </g>
   <g id="line2d_36">
    <path clip-path="url(#p938151fbaa)" d="
M26.64 402.705" style="fill:none;stroke:#000000;stroke-linecap:round;stroke-width:1.5;"/>
   </g>
   <g id="line2d_37">
    <path clip-path="url(#p938151fbaa)" d="
M26.64 402.705
L26.64 378.607
L26.64 354.51" style="fill:none;stroke:#000000;stroke-linecap:round;stroke-width:1.5;"/>
   </g>
   <g id="line2d_38">
    <path clip-path="url(#p938151fbaa)" d="
M26.64 354.51
L35.55 354.51
L44.46 354.51" style="fill:none;stroke:#000000;stroke-linecap:round;stroke-width:1.5;"/>
   </g>
   <g id="line2d_39">
    <path clip-path="url(#p938151fbaa)" d="
M26.64 402.705
L26.64 412.65
L26.64 412.65
M26.64 443.25
L26.64 443.25
L26.64 453.195" style="fill:none;stroke:#000000;stroke-linecap:round;stroke-width:1.5;"/>
   </g>
   <g id="line2d_40">
    <path clip-path="url(#p938151fbaa)" d="
M10.44 285.66
L107.64 285.66
L204.84 285.66" style="fill:none;stroke:#000000;stroke-dasharray:1.000000,3.000000;stroke-dashoffset:0.0;stroke-width:1.5;"/>
   </g>
   <g id="line2d_41">
    <path clip-path="url(#p938151fbaa)" d="
M204.84 285.66
L204.84 392.76
L204.84 499.86" style="fill:none;stroke:#000000;stroke-dasharray:1.000000,3.000000;stroke-dashoffset:0.0;stroke-width:1.5;"/>
   </g>
   <g id="line2d_42">
    <path clip-path="url(#p938151fbaa)" d="
M204.84 499.86
L107.64 499.86
L10.44 499.86" style="fill:none;stroke:#000000;stroke-dasharray:1.000000,3.000000;stroke-dashoffset:0.0;stroke-width:1.5;"/>
   </g>
   <g id="line2d_43">
    <path clip-path="url(#p938151fbaa)" d="
M10.44 499.86
L10.44 392.76
L10.44 285.66" style="fill:none;stroke:#000000;stroke-dasharray:1.000000,3.000000;stroke-dashoffset:0.0;stroke-width:1.5;"/>
   </g>
   <g id="patch_2">
    <path clip-path="url(#p938151fbaa)" d="
M150.248 75.285
C154.544 75.285 158.665 73.6729 161.703 70.8037
C164.741 67.9346 166.448 64.0426 166.448 59.985
C166.448 55.9274 164.741 52.0354 161.703 49.1663
C158.665 46.2971 154.544 44.685 150.248 44.685
C145.952 44.685 141.831 46.2971 138.793 49.1663
C135.755 52.0354 134.048 55.9274 134.048 59.985
C134.048 64.0426 135.755 67.9346 138.793 70.8037
C141.831 73.6729 145.952 75.285 150.248 75.285
L150.248 75.285" style="fill:none;stroke:#000000;stroke-linejoin:miter;stroke-width:1.5;"/>
   </g>
   <g id="patch_3">
    <path clip-path="url(#p938151fbaa)" d="
M185.888 62.28
C186.533 62.28 187.151 62.0382 187.606 61.6078
C188.062 61.1774 188.318 60.5936 188.318 59.985
C188.318 59.3764 188.062 58.7926 187.606 58.3622
C187.151 57.9318 186.533 57.69 185.888 57.69
C185.244 57.69 184.625 57.9318 184.17 58.3622
C183.714 58.7926 183.458 59.3764 183.458 59.985
C183.458 60.5936 183.714 61.1774 184.17 61.6078
C184.625 62.0382 185.244 62.28 185.888 62.28
z
" style="stroke:#000000;stroke-linejoin:miter;stroke-width:1.5;"/>
   </g>
   <g id="patch_4">
    <path clip-path="url(#p938151fbaa)" d="
M221.528 62.28
C222.173 62.28 222.791 62.0382 223.246 61.6078
C223.702 61.1774 223.958 60.5936 223.958 59.985
C223.958 59.3764 223.702 58.7926 223.246 58.3622
C222.791 57.9318 222.173 57.69 221.528 57.69
C220.884 57.69 220.265 57.9318 219.81 58.3622
C219.354 58.7926 219.098 59.3764 219.098 59.985
C219.098 60.5936 219.354 61.1774 219.81 61.6078
C220.265 62.0382 220.884 62.28 221.528 62.28
z
" style="fill:#ffffff;stroke:#000000;stroke-linejoin:miter;stroke-width:1.5;"/>
   </g>
   <g id="patch_5">
    <path clip-path="url(#p938151fbaa)" d="
M185.888 129.6
C186.533 129.6 187.151 129.358 187.606 128.928
C188.062 128.497 188.318 127.914 188.318 127.305
C188.318 126.696 188.062 126.113 187.606 125.682
C187.151 125.252 186.533 125.01 185.888 125.01
C185.244 125.01 184.625 125.252 184.17 125.682
C183.714 126.113 183.458 126.696 183.458 127.305
C183.458 127.914 183.714 128.497 184.17 128.928
C184.625 129.358 185.244 129.6 185.888 129.6
z
" style="stroke:#000000;stroke-linejoin:miter;stroke-width:1.5;"/>
   </g>
   <g id="patch_6">
    <path clip-path="url(#p938151fbaa)" d="
M221.528 129.6
C222.173 129.6 222.791 129.358 223.246 128.928
C223.702 128.497 223.958 127.914 223.958 127.305
C223.958 126.696 223.702 126.113 223.246 125.682
C222.791 125.252 222.173 125.01 221.528 125.01
C220.884 125.01 220.265 125.252 219.81 125.682
C219.354 126.113 219.098 126.696 219.098 127.305
C219.098 127.914 219.354 128.497 219.81 128.928
C220.265 129.358 220.884 129.6 221.528 129.6
z
" style="fill:#ffffff;stroke:#000000;stroke-linejoin:miter;stroke-width:1.5;"/>
   </g>
   <g id="patch_7">
    <path clip-path="url(#p938151fbaa)" d="
M26.64 129.6
C27.2844 129.6 27.9026 129.358 28.3583 128.928
C28.814 128.497 29.07 127.914 29.07 127.305
C29.07 126.696 28.814 126.113 28.3583 125.682
C27.9026 125.252 27.2844 125.01 26.64 125.01
C25.9956 125.01 25.3774 125.252 24.9217 125.682
C24.466 126.113 24.21 126.696 24.21 127.305
C24.21 127.914 24.466 128.497 24.9217 128.928
C25.3774 129.358 25.9956 129.6 26.64 129.6
z
" style="stroke:#000000;stroke-linejoin:miter;stroke-width:1.5;"/>
   </g>
   <g id="patch_8">
    <path clip-path="url(#p938151fbaa)" d="
M26.64 167.85
C30.9363 167.85 35.0572 166.238 38.0951 163.369
C41.1331 160.5 42.84 156.608 42.84 152.55
C42.84 148.492 41.1331 144.6 38.0951 141.731
C35.0572 138.862 30.9363 137.25 26.64 137.25
C22.3437 137.25 18.2228 138.862 15.1849 141.731
C12.1469 144.6 10.44 148.492 10.44 152.55
C10.44 156.608 12.1469 160.5 15.1849 163.369
C18.2228 166.238 22.3437 167.85 26.64 167.85
L26.64 167.85" style="fill:none;stroke:#000000;stroke-linejoin:miter;stroke-width:1.5;"/>
   </g>
   <g id="patch_9">
    <path clip-path="url(#p938151fbaa)" d="
M150.248 350.685
C154.544 350.685 158.665 349.073 161.703 346.204
C164.741 343.335 166.448 339.443 166.448 335.385
C166.448 331.327 164.741 327.435 161.703 324.566
C158.665 321.697 154.544 320.085 150.248 320.085
C145.952 320.085 141.831 321.697 138.793 324.566
C135.755 327.435 134.048 331.327 134.048 335.385
C134.048 339.443 135.755 343.335 138.793 346.204
C141.831 349.073 145.952 350.685 150.248 350.685
L150.248 350.685" style="fill:none;stroke:#000000;stroke-linejoin:miter;stroke-width:1.5;"/>
   </g>
   <g id="patch_10">
    <path clip-path="url(#p938151fbaa)" d="
M185.888 337.68
C186.533 337.68 187.151 337.438 187.606 337.008
C188.062 336.577 188.318 335.994 188.318 335.385
C188.318 334.776 188.062 334.193 187.606 333.762
C187.151 333.332 186.533 333.09 185.888 333.09
C185.244 333.09 184.625 333.332 184.17 333.762
C183.714 334.193 183.458 334.776 183.458 335.385
C183.458 335.994 183.714 336.577 184.17 337.008
C184.625 337.438 185.244 337.68 185.888 337.68
z
" style="stroke:#000000;stroke-linejoin:miter;stroke-width:1.5;"/>
   </g>
   <g id="patch_11">
    <path clip-path="url(#p938151fbaa)" d="
M221.528 337.68
C222.173 337.68 222.791 337.438 223.246 337.008
C223.702 336.577 223.958 335.994 223.958 335.385
C223.958 334.776 223.702 334.193 223.246 333.762
C222.791 333.332 222.173 333.09 221.528 333.09
C220.884 333.09 220.265 333.332 219.81 333.762
C219.354 334.193 219.098 334.776 219.098 335.385
C219.098 335.994 219.354 336.577 219.81 337.008
C220.265 337.438 220.884 337.68 221.528 337.68
z
" style="fill:#ffffff;stroke:#000000;stroke-linejoin:miter;stroke-width:1.5;"/>
   </g>
   <g id="patch_12">
    <path clip-path="url(#p938151fbaa)" d="
M185.888 405
C186.533 405 187.151 404.758 187.606 404.328
C188.062 403.897 188.318 403.314 188.318 402.705
C188.318 402.096 188.062 401.513 187.606 401.082
C187.151 400.652 186.533 400.41 185.888 400.41
C185.244 400.41 184.625 400.652 184.17 401.082
C183.714 401.513 183.458 402.096 183.458 402.705
C183.458 403.314 183.714 403.897 184.17 404.328
C184.625 404.758 185.244 405 185.888 405
z
" style="stroke:#000000;stroke-linejoin:miter;stroke-width:1.5;"/>
   </g>
   <g id="patch_13">
    <path clip-path="url(#p938151fbaa)" d="
M221.528 405
C222.173 405 222.791 404.758 223.246 404.328
C223.702 403.897 223.958 403.314 223.958 402.705
C223.958 402.096 223.702 401.513 223.246 401.082
C222.791 400.652 222.173 400.41 221.528 400.41
C220.884 400.41 220.265 400.652 219.81 401.082
C219.354 401.513 219.098 402.096 219.098 402.705
C219.098 403.314 219.354 403.897 219.81 404.328
C220.265 404.758 220.884 405 221.528 405
z
" style="fill:#ffffff;stroke:#000000;stroke-linejoin:miter;stroke-width:1.5;"/>
   </g>
   <g id="patch_14">
    <path clip-path="url(#p938151fbaa)" d="
M26.64 405
C27.2844 405 27.9026 404.758 28.3583 404.328
C28.814 403.897 29.07 403.314 29.07 402.705
C29.07 402.096 28.814 401.513 28.3583 401.082
C27.9026 400.652 27.2844 400.41 26.64 400.41
C25.9956 400.41 25.3774 400.652 24.9217 401.082
C24.466 401.513 24.21 402.096 24.21 402.705
C24.21 403.314 24.466 403.897 24.9217 404.328
C25.3774 404.758 25.9956 405 26.64 405
z
" style="stroke:#000000;stroke-linejoin:miter;stroke-width:1.5;"/>
   </g>
   <g id="patch_15">
    <path clip-path="url(#p938151fbaa)" d="
M26.64 443.25
C30.9363 443.25 35.0572 441.638 38.0951 438.769
C41.1331 435.9 42.84 432.008 42.84 427.95
C42.84 423.892 41.1331 420 38.0951 417.131
C35.0572 414.262 30.9363 412.65 26.64 412.65
C22.3437 412.65 18.2228 414.262 15.1849 417.131
C12.1469 420 10.44 423.892 10.44 427.95
C10.44 432.008 12.1469 435.9 15.1849 438.769
C18.2228 441.638 22.3437 443.25 26.64 443.25
L26.64 443.25" style="fill:none;stroke:#000000;stroke-linejoin:miter;stroke-width:1.5;"/>
   </g>
   <g id="text_1">
    <!-- I -->
    <defs>
     <path d="
M9.8125 72.9062
L19.6719 72.9062
L19.6719 0
L9.8125 0
z
" id="BitstreamVeraSans-Roman-49"/>
    </defs>
    <g transform="translate(149.459307707 64.4)scale(0.16 -0.16)">
     <use xlink:href="#BitstreamVeraSans-Roman-49"/>
    </g>
   </g>
   <g id="text_2">
    <!-- F -->
    <defs>
     <path d="
M9.8125 72.9062
L51.7031 72.9062
L51.7031 64.5938
L19.6719 64.5938
L19.6719 43.1094
L48.5781 43.1094
L48.5781 34.8125
L19.6719 34.8125
L19.6719 0
L9.8125 0
z
" id="BitstreamVeraSans-Roman-46"/>
    </defs>
    <g transform="translate(218.176807707 51.3025)scale(0.16 -0.16)">
     <use xlink:href="#BitstreamVeraSans-Roman-46"/>
    </g>
   </g>
   <g id="text_3">
    <!-- $R_s$ -->
    <defs>
     <path d="
M44.2812 53.0781
L44.2812 44.5781
Q40.4844 46.5312 36.375 47.5
Q32.2812 48.4844 27.875 48.4844
Q21.1875 48.4844 17.8438 46.4375
Q14.5 44.3906 14.5 40.2812
Q14.5 37.1562 16.8906 35.375
Q19.2812 33.5938 26.5156 31.9844
L29.5938 31.2969
Q39.1562 29.25 43.1875 25.5156
Q47.2188 21.7812 47.2188 15.0938
Q47.2188 7.46875 41.1875 3.01562
Q35.1562 -1.42188 24.6094 -1.42188
Q20.2188 -1.42188 15.4531 -0.5625
Q10.6875 0.296875 5.42188 2
L5.42188 11.2812
Q10.4062 8.6875 15.2344 7.39062
Q20.0625 6.10938 24.8125 6.10938
Q31.1562 6.10938 34.5625 8.28125
Q37.9844 10.4531 37.9844 14.4062
Q37.9844 18.0625 35.5156 20.0156
Q33.0625 21.9688 24.7031 23.7812
L21.5781 24.5156
Q13.2344 26.2656 9.51562 29.9062
Q5.8125 33.5469 5.8125 39.8906
Q5.8125 47.6094 11.2812 51.7969
Q16.75 56 26.8125 56
Q31.7812 56 36.1719 55.2656
Q40.5781 54.5469 44.2812 53.0781" id="BitstreamVeraSans-Roman-73"/>
     <path d="
M44.3906 34.1875
Q47.5625 33.1094 50.5625 29.5938
Q53.5625 26.0781 56.5938 19.9219
L66.6094 0
L56 0
L46.6875 18.7031
Q43.0625 26.0312 39.6719 28.4219
Q36.2812 30.8125 30.4219 30.8125
L19.6719 30.8125
L19.6719 0
L9.8125 0
L9.8125 72.9062
L32.0781 72.9062
Q44.5781 72.9062 50.7344 67.6719
Q56.8906 62.4531 56.8906 51.9062
Q56.8906 45.0156 53.6875 40.4688
Q50.4844 35.9375 44.3906 34.1875
M19.6719 64.7969
L19.6719 38.9219
L32.0781 38.9219
Q39.2031 38.9219 42.8438 42.2188
Q46.4844 45.5156 46.4844 51.9062
Q46.4844 58.2969 42.8438 61.5469
Q39.2031 64.7969 32.0781 64.7969
z
" id="BitstreamVeraSans-Roman-52"/>
    </defs>
    <g transform="translate(156.648057707 112.145)scale(0.16 -0.16)">
     <use transform="translate(0.0 0.09375)" xlink:href="#BitstreamVeraSans-Roman-52"/>
     <use transform="translate(69.482421875 -31.40625)scale(0.7)" xlink:href="#BitstreamVeraSans-Roman-73"/>
    </g>
   </g>
   <g id="text_4">
    <!-- S -->
    <defs>
     <path d="
M53.5156 70.5156
L53.5156 60.8906
Q47.9062 63.5781 42.9219 64.8906
Q37.9375 66.2188 33.2969 66.2188
Q25.25 66.2188 20.875 63.0938
Q16.5 59.9688 16.5 54.2031
Q16.5 49.3594 19.4062 46.8906
Q22.3125 44.4375 30.4219 42.9219
L36.375 41.7031
Q47.4062 39.5938 52.6562 34.2969
Q57.9062 29 57.9062 20.125
Q57.9062 9.51562 50.7969 4.04688
Q43.7031 -1.42188 29.9844 -1.42188
Q24.8125 -1.42188 18.9688 -0.25
Q13.1406 0.921875 6.89062 3.21875
L6.89062 13.375
Q12.8906 10.0156 18.6562 8.29688
Q24.4219 6.59375 29.9844 6.59375
Q38.4219 6.59375 43.0156 9.90625
Q47.6094 13.2344 47.6094 19.3906
Q47.6094 24.75 44.3125 27.7812
Q41.0156 30.8125 33.5 32.3281
L27.4844 33.5
Q16.4531 35.6875 11.5156 40.375
Q6.59375 45.0625 6.59375 53.4219
Q6.59375 63.0938 13.4062 68.6562
Q20.2188 74.2188 32.1719 74.2188
Q37.3125 74.2188 42.625 73.2812
Q47.9531 72.3594 53.5156 70.5156" id="BitstreamVeraSans-Roman-53"/>
    </defs>
    <g transform="translate(217.423057707 118.6225)scale(0.16 -0.16)">
     <use xlink:href="#BitstreamVeraSans-Roman-53"/>
    </g>
   </g>
   <g id="text_5">
    <!-- V -->
    <defs>
     <path d="
M28.6094 0
L0.78125 72.9062
L11.0781 72.9062
L34.1875 11.5312
L57.3281 72.9062
L67.5781 72.9062
L39.7969 0
z
" id="BitstreamVeraSans-Roman-56"/>
    </defs>
    <g transform="translate(21.29625 156.965)scale(0.16 -0.16)">
     <use xlink:href="#BitstreamVeraSans-Roman-56"/>
    </g>
   </g>
   <g id="text_6">
    <!-- SMU1 -->
    <defs>
     <path d="
M8.6875 72.9062
L18.6094 72.9062
L18.6094 28.6094
Q18.6094 16.8906 22.8438 11.7344
Q27.0938 6.59375 36.625 6.59375
Q46.0938 6.59375 50.3438 11.7344
Q54.5938 16.8906 54.5938 28.6094
L54.5938 72.9062
L64.5 72.9062
L64.5 27.3906
Q64.5 13.1406 57.4375 5.85938
Q50.3906 -1.42188 36.625 -1.42188
Q22.7969 -1.42188 15.7344 5.85938
Q8.6875 13.1406 8.6875 27.3906
z
" id="BitstreamVeraSans-Roman-55"/>
     <path d="
M12.4062 8.29688
L28.5156 8.29688
L28.5156 63.9219
L10.9844 60.4062
L10.9844 69.3906
L28.4219 72.9062
L38.2812 72.9062
L38.2812 8.29688
L54.3906 8.29688
L54.3906 0
L12.4062 0
z
" id="BitstreamVeraSans-Roman-31"/>
     <path d="
M9.8125 72.9062
L24.5156 72.9062
L43.1094 23.2969
L61.8125 72.9062
L76.5156 72.9062
L76.5156 0
L66.8906 0
L66.8906 64.0156
L48.0938 14.0156
L38.1875 14.0156
L19.3906 64.0156
L19.3906 0
L9.8125 0
z
" id="BitstreamVeraSans-Roman-4d"/>
    </defs>
    <g transform="translate(128.588057707 174.4675)scale(0.16 -0.16)">
     <use xlink:href="#BitstreamVeraSans-Roman-53"/>
     <use x="63.4765625" xlink:href="#BitstreamVeraSans-Roman-4d"/>
     <use x="149.755859375" xlink:href="#BitstreamVeraSans-Roman-55"/>
     <use x="222.94921875" xlink:href="#BitstreamVeraSans-Roman-31"/>
    </g>
   </g>
   <g id="text_7">
    <!-- $R_c$ -->
    <defs>
     <path d="
M48.7812 52.5938
L48.7812 44.1875
Q44.9688 46.2969 41.1406 47.3438
Q37.3125 48.3906 33.4062 48.3906
Q24.6562 48.3906 19.8125 42.8438
Q14.9844 37.3125 14.9844 27.2969
Q14.9844 17.2812 19.8125 11.7344
Q24.6562 6.20312 33.4062 6.20312
Q37.3125 6.20312 41.1406 7.25
Q44.9688 8.29688 48.7812 10.4062
L48.7812 2.09375
Q45.0156 0.34375 40.9844 -0.53125
Q36.9688 -1.42188 32.4219 -1.42188
Q20.0625 -1.42188 12.7812 6.34375
Q5.51562 14.1094 5.51562 27.2969
Q5.51562 40.6719 12.8594 48.3281
Q20.2188 56 33.0156 56
Q37.1562 56 41.1094 55.1406
Q45.0625 54.2969 48.7812 52.5938" id="BitstreamVeraSans-Roman-63"/>
    </defs>
    <g transform="translate(260.128057707 43.995)scale(0.16 -0.16)">
     <use transform="translate(0.0 0.09375)" xlink:href="#BitstreamVeraSans-Roman-52"/>
     <use transform="translate(69.482421875 -31.40625)scale(0.7)" xlink:href="#BitstreamVeraSans-Roman-63"/>
    </g>
   </g>
   <g id="text_8">
    <!-- $R_{ch}$ -->
    <defs>
     <path d="
M54.8906 33.0156
L54.8906 0
L45.9062 0
L45.9062 32.7188
Q45.9062 40.4844 42.875 44.3281
Q39.8438 48.1875 33.7969 48.1875
Q26.5156 48.1875 22.3125 43.5469
Q18.1094 38.9219 18.1094 30.9062
L18.1094 0
L9.07812 0
L9.07812 75.9844
L18.1094 75.9844
L18.1094 46.1875
Q21.3438 51.125 25.7031 53.5625
Q30.0781 56 35.7969 56
Q45.2188 56 50.0469 50.1719
Q54.8906 44.3438 54.8906 33.0156" id="BitstreamVeraSans-Roman-68"/>
    </defs>
    <g transform="translate(282.908057707 200.885)scale(0.16 -0.16)">
     <use transform="translate(0.0 0.09375)" xlink:href="#BitstreamVeraSans-Roman-52"/>
     <use transform="translate(69.482421875 -31.40625)scale(0.7)" xlink:href="#BitstreamVeraSans-Roman-63"/>
     <use transform="translate(107.96875 -31.40625)scale(0.7)" xlink:href="#BitstreamVeraSans-Roman-68"/>
    </g>
   </g>
   <g id="text_9">
    <!-- $R_c$ -->
    <g transform="translate(260.128057707 319.395)scale(0.16 -0.16)">
     <use transform="translate(0.0 0.09375)" xlink:href="#BitstreamVeraSans-Roman-52"/>
     <use transform="translate(69.482421875 -31.40625)scale(0.7)" xlink:href="#BitstreamVeraSans-Roman-63"/>
    </g>
   </g>
   <g id="text_10">
    <!-- I -->
    <g transform="translate(149.459307707 339.8)scale(0.16 -0.16)">
     <use xlink:href="#BitstreamVeraSans-Roman-49"/>
    </g>
   </g>
   <g id="text_11">
    <!-- F -->
    <g transform="translate(218.176807707 326.7025)scale(0.16 -0.16)">
     <use xlink:href="#BitstreamVeraSans-Roman-46"/>
    </g>
   </g>
   <g id="text_12">
    <!-- $R_s$ -->
    <g transform="translate(156.648057707 387.545)scale(0.16 -0.16)">
     <use transform="translate(0.0 0.09375)" xlink:href="#BitstreamVeraSans-Roman-52"/>
     <use transform="translate(69.482421875 -31.40625)scale(0.7)" xlink:href="#BitstreamVeraSans-Roman-73"/>
    </g>
   </g>
   <g id="text_13">
    <!-- S -->
    <g transform="translate(217.423057707 394.0225)scale(0.16 -0.16)">
     <use xlink:href="#BitstreamVeraSans-Roman-53"/>
    </g>
   </g>
   <g id="text_14">
    <!-- V -->
    <g transform="translate(21.29625 432.365)scale(0.16 -0.16)">
     <use xlink:href="#BitstreamVeraSans-Roman-56"/>
    </g>
   </g>
   <g id="text_15">
    <!-- SMU2 -->
    <defs>
     <path d="
M19.1875 8.29688
L53.6094 8.29688
L53.6094 0
L7.32812 0
L7.32812 8.29688
Q12.9375 14.1094 22.625 23.8906
Q32.3281 33.6875 34.8125 36.5312
Q39.5469 41.8438 41.4219 45.5312
Q43.3125 49.2188 43.3125 52.7812
Q43.3125 58.5938 39.2344 62.25
Q35.1562 65.9219 28.6094 65.9219
Q23.9688 65.9219 18.8125 64.3125
Q13.6719 62.7031 7.8125 59.4219
L7.8125 69.3906
Q13.7656 71.7812 18.9375 73
Q24.125 74.2188 28.4219 74.2188
Q39.75 74.2188 46.4844 68.5469
Q53.2188 62.8906 53.2188 53.4219
Q53.2188 48.9219 51.5312 44.8906
Q49.8594 40.875 45.4062 35.4062
Q44.1875 33.9844 37.6406 27.2188
Q31.1094 20.4531 19.1875 8.29688" id="BitstreamVeraSans-Roman-32"/>
    </defs>
    <g transform="translate(107.053057707 457.61)scale(0.16 -0.16)">
     <use xlink:href="#BitstreamVeraSans-Roman-53"/>
     <use x="63.4765625" xlink:href="#BitstreamVeraSans-Roman-4d"/>
     <use x="149.755859375" xlink:href="#BitstreamVeraSans-Roman-55"/>
     <use x="222.94921875" xlink:href="#BitstreamVeraSans-Roman-32"/>
    </g>
   </g>
  </g>
 </g>
 <defs>
  <clipPath id="p938151fbaa">
   <rect height="495.72" width="322.868057707" x="7.2" y="7.2"/>
  </clipPath>
 </defs>
</svg>
