<?xml version="1.0" encoding="utf-8" standalone="no"?>
<!DOCTYPE svg PUBLIC "-//W3C//DTD SVG 1.1//EN"
  "http://www.w3.org/Graphics/SVG/1.1/DTD/svg11.dtd">
<!-- Created with matplotlib (http://matplotlib.org/) -->
<svg height="137.329625pt" version="1.1" viewBox="0 0 705.04 137.329625" width="705.04pt" xmlns="http://www.w3.org/2000/svg" xmlns:xlink="http://www.w3.org/1999/xlink">
 <defs>
  <style type="text/css">
*{stroke-linecap:butt;stroke-linejoin:round;}
  </style>
 </defs>
 <g id="figure_1">
  <g id="patch_1">
   <path d="M 0 137.329625 
L 705.04 137.329625 
L 705.04 0 
L 0 0 
z
" style="fill:none;"/>
  </g>
  <g id="axes_1">
   <g id="patch_2">
    <path clip-path="url(#p5126589f80)" d="M 344.42 44.045625 
L 350.9 42.650625 
L 350.9 44.031675 
L 360.62 44.031675 
L 360.62 44.059575 
L 350.9 44.059575 
L 350.9 45.440625 
z
" style="stroke:#000000;stroke-linejoin:miter;stroke-width:1.5;"/>
   </g>
   <g id="patch_3">
    <path clip-path="url(#p5126589f80)" d="M 85.22 105.425625 
L 91.7 104.030625 
L 91.7 105.411675 
L 101.42 105.411675 
L 101.42 105.439575 
L 91.7 105.439575 
L 91.7 106.820625 
z
" style="stroke:#000000;stroke-linejoin:miter;stroke-width:1.5;"/>
   </g>
   <g id="line2d_1">
    <path clip-path="url(#p5126589f80)" d="M 44.72 44.045625 
L 77.12 44.045625 
L 77.12 44.045625 
M 109.52 44.045625 
L 109.52 44.045625 
L 141.92 44.045625 
" style="fill:none;stroke:#000000;stroke-linecap:round;stroke-width:1.5;"/>
   </g>
   <g id="line2d_2">
    <path clip-path="url(#p5126589f80)" d="M 174.32 44.045625 
L 206.72 44.045625 
L 206.72 44.045625 
M 239.12 44.045625 
L 239.12 44.045625 
L 271.52 44.045625 
" style="fill:none;stroke:#000000;stroke-linecap:round;stroke-width:1.5;"/>
   </g>
   <g id="line2d_3">
    <path clip-path="url(#p5126589f80)" d="M 214.82 46.835625 
L 214.82 41.255625 
" style="fill:none;stroke:#000000;stroke-linecap:round;stroke-width:1.5;"/>
   </g>
   <g id="line2d_4">
    <path clip-path="url(#p5126589f80)" d="M 227.78 44.045625 
L 234.26 44.045625 
" style="fill:none;stroke:#000000;stroke-linecap:round;stroke-width:1.5;"/>
   </g>
   <g id="line2d_5">
    <path clip-path="url(#p5126589f80)" d="M 231.02 46.835625 
L 231.02 41.255625 
" style="fill:none;stroke:#000000;stroke-linecap:round;stroke-width:1.5;"/>
   </g>
   <g id="line2d_6">
    <path clip-path="url(#p5126589f80)" d="M 303.92 44.045625 
L 336.32 44.045625 
L 336.32 44.045625 
M 368.72 44.045625 
L 368.72 44.045625 
L 401.12 44.045625 
" style="fill:none;stroke:#000000;stroke-linecap:round;stroke-width:1.5;"/>
   </g>
   <g id="line2d_7">
    <path clip-path="url(#p5126589f80)" d="M 433.52 44.045625 
L 465.92 44.045625 
L 465.92 44.045625 
M 498.32 44.045625 
L 498.32 44.045625 
L 530.72 44.045625 
" style="fill:none;stroke:#000000;stroke-linecap:round;stroke-width:1.5;"/>
   </g>
   <g id="line2d_8">
    <path clip-path="url(#p5126589f80)" d="M 482.12 51.020625 
L 483.797147 50.439375 
L 485.36 49.858125 
L 486.702052 49.276875 
L 487.731845 48.695625 
L 488.379199 48.114375 
L 488.6 47.533125 
L 488.379199 46.951875 
L 487.731845 46.370625 
L 486.702052 45.789375 
L 485.36 45.208125 
L 483.797147 44.626875 
L 482.12 44.045625 
L 480.442853 43.464375 
L 478.88 42.883125 
L 477.537948 42.301875 
L 476.508155 41.720625 
L 475.860801 41.139375 
L 475.64 40.558125 
L 475.860801 39.976875 
L 476.508155 39.395625 
L 477.537948 38.814375 
L 478.88 38.233125 
L 480.442853 37.651875 
L 482.12 37.070625 
" style="fill:none;stroke:#000000;stroke-linecap:round;stroke-width:1.5;"/>
   </g>
   <g id="line2d_9">
    <path clip-path="url(#p5126589f80)" d="M 563.12 44.045625 
L 595.52 44.045625 
L 611.72 57.995625 
L 627.92 44.045625 
L 660.32 44.045625 
" style="fill:none;stroke:#000000;stroke-linecap:round;stroke-width:1.5;"/>
   </g>
   <g id="line2d_10">
    <path clip-path="url(#p5126589f80)" d="M 595.52 44.045625 
L 611.72 30.095625 
L 627.92 44.045625 
" style="fill:none;stroke:#000000;stroke-linecap:round;stroke-width:1.5;"/>
   </g>
   <g id="line2d_11">
    <path clip-path="url(#p5126589f80)" d="M 44.72 105.425625 
L 77.12 105.425625 
L 93.32 119.375625 
L 109.52 105.425625 
L 141.92 105.425625 
" style="fill:none;stroke:#000000;stroke-linecap:round;stroke-width:1.5;"/>
   </g>
   <g id="line2d_12">
    <path clip-path="url(#p5126589f80)" d="M 77.12 105.425625 
L 93.32 91.475625 
L 109.52 105.425625 
" style="fill:none;stroke:#000000;stroke-linecap:round;stroke-width:1.5;"/>
   </g>
   <g id="line2d_13">
    <path clip-path="url(#p5126589f80)" d="M 174.32 105.425625 
L 206.72 105.425625 
L 222.92 119.375625 
L 239.12 105.425625 
L 271.52 105.425625 
" style="fill:none;stroke:#000000;stroke-linecap:round;stroke-width:1.5;"/>
   </g>
   <g id="line2d_14">
    <path clip-path="url(#p5126589f80)" d="M 214.82 108.215625 
L 214.82 102.635625 
" style="fill:none;stroke:#000000;stroke-linecap:round;stroke-width:1.5;"/>
   </g>
   <g id="line2d_15">
    <path clip-path="url(#p5126589f80)" d="M 227.78 105.425625 
L 234.26 105.425625 
" style="fill:none;stroke:#000000;stroke-linecap:round;stroke-width:1.5;"/>
   </g>
   <g id="line2d_16">
    <path clip-path="url(#p5126589f80)" d="M 231.02 108.215625 
L 231.02 102.635625 
" style="fill:none;stroke:#000000;stroke-linecap:round;stroke-width:1.5;"/>
   </g>
   <g id="line2d_17">
    <path clip-path="url(#p5126589f80)" d="M 206.72 105.425625 
L 222.92 91.475625 
L 239.12 105.425625 
" style="fill:none;stroke:#000000;stroke-linecap:round;stroke-width:1.5;"/>
   </g>
   <g id="line2d_18">
    <path clip-path="url(#p5126589f80)" d="M 303.92 105.425625 
L 349.4825 105.425625 
M 355.5575 105.425625 
L 401.12 105.425625 
" style="fill:none;stroke:#000000;stroke-linecap:round;stroke-width:1.5;"/>
   </g>
   <g id="line2d_19">
    <path clip-path="url(#p5126589f80)" d="M 349.4825 94.963125 
L 349.4825 115.888125 
" style="fill:none;stroke:#000000;stroke-linecap:round;stroke-width:1.5;"/>
   </g>
   <g id="line2d_20">
    <path clip-path="url(#p5126589f80)" d="M 355.5575 100.194375 
L 355.5575 110.656875 
" style="fill:none;stroke:#000000;stroke-linecap:round;stroke-width:1.5;"/>
   </g>
   <g id="line2d_21">
    <path clip-path="url(#p5126589f80)" d="M 433.52 105.425625 
L 473.0075 105.425625 
M 491.2325 105.425625 
L 530.72 105.425625 
" style="fill:none;stroke:#000000;stroke-linecap:round;stroke-width:1.5;"/>
   </g>
   <g id="line2d_22">
    <path clip-path="url(#p5126589f80)" d="M 473.0075 94.963125 
L 473.0075 115.888125 
" style="fill:none;stroke:#000000;stroke-linecap:round;stroke-width:1.5;"/>
   </g>
   <g id="line2d_23">
    <path clip-path="url(#p5126589f80)" d="M 479.0825 100.194375 
L 479.0825 110.656875 
" style="fill:none;stroke:#000000;stroke-linecap:round;stroke-width:1.5;"/>
   </g>
   <g id="line2d_24">
    <path clip-path="url(#p5126589f80)" d="M 485.1575 94.963125 
L 485.1575 115.888125 
" style="fill:none;stroke:#000000;stroke-linecap:round;stroke-width:1.5;"/>
   </g>
   <g id="line2d_25">
    <path clip-path="url(#p5126589f80)" d="M 491.2325 100.194375 
L 491.2325 110.656875 
" style="fill:none;stroke:#000000;stroke-linecap:round;stroke-width:1.5;"/>
   </g>
   <g id="line2d_26">
    <path clip-path="url(#p5126589f80)" d="M 563.12 105.425625 
L 595.52 105.425625 
L 595.52 105.425625 
M 627.92 105.425625 
L 627.92 105.425625 
L 660.32 105.425625 
" style="fill:none;stroke:#000000;stroke-linecap:round;stroke-width:1.5;"/>
   </g>
   <g id="line2d_27">
    <path clip-path="url(#p5126589f80)" d="M 595.52 105.425625 
L 595.660218 104.940656 
L 595.859525 104.452234 
L 596.118044 103.965249 
L 596.435304 103.484576 
L 596.810247 103.015028 
L 597.241238 102.561305 
L 597.726078 102.127949 
L 598.262032 101.7193 
L 598.845852 101.339447 
L 599.473811 100.992195 
L 600.141739 100.681019 
L 600.845069 100.409034 
L 601.578875 100.178965 
L 602.337929 99.993113 
L 603.116751 99.85334 
L 603.90966 99.761044 
L 604.710837 99.717151 
L 605.514378 99.722098 
L 606.314356 99.775838 
L 607.10488 99.877831 
L 607.880155 100.027057 
L 608.634535 100.222021 
L 609.362587 100.460772 
L 610.059139 100.740921 
L 610.719336 101.059661 
L 611.338685 101.413802 
L 611.913105 101.799798 
L 612.438961 102.213786 
L 612.913109 102.651621 
L 613.332917 103.108918 
L 613.696301 103.581102 
L 614.001741 104.063443 
L 614.248297 104.551113 
L 614.435617 105.039231 
L 614.563946 105.522908 
L 614.634114 105.997304 
L 614.647538 106.457668 
L 614.606201 106.899393 
L 614.512634 107.318055 
L 614.369892 107.709463 
L 614.181522 108.069699 
L 613.951527 108.395156 
L 613.684328 108.682576 
L 613.384716 108.929082 
L 613.05781 109.132206 
L 612.708999 109.289914 
L 612.343894 109.400627 
L 611.968268 109.463238 
L 611.587998 109.477118 
L 611.20901 109.44213 
L 610.837214 109.358623 
L 610.478452 109.227434 
L 610.138432 109.049875 
L 609.822677 108.827725 
L 609.536464 108.563208 
L 609.284778 108.258971 
L 609.072255 107.918061 
L 608.903141 107.54389 
L 608.781247 107.140204 
L 608.70991 106.711046 
L 608.691963 106.26071 
L 608.729703 105.793706 
L 608.824869 105.314709 
L 608.978627 104.828515 
L 609.191556 104.33999 
L 609.46364 103.854026 
L 609.794274 103.375488 
L 610.182266 102.909166 
L 610.625849 102.459729 
L 611.1227 102.031677 
L 611.669962 101.629294 
L 612.264274 101.25661 
L 612.901805 100.917355 
L 613.578288 100.614926 
L 614.289071 100.35235 
L 615.029153 100.132256 
L 615.793245 99.956848 
L 616.575814 99.827881 
L 617.371142 99.746647 
L 618.173387 99.713959 
L 618.976633 99.730144 
L 619.774957 99.79504 
L 620.562485 99.907998 
L 621.333449 100.067887 
L 622.08225 100.273105 
L 622.803508 100.521599 
L 623.492121 100.810881 
L 624.143312 101.138054 
L 624.752679 101.499843 
L 625.31624 101.892627 
L 625.830471 102.312472 
L 626.292341 102.755176 
L 626.699344 103.216307 
L 627.049523 103.691248 
L 627.34149 104.175245 
L 627.574439 104.663451 
L 627.748157 105.150979 
L 627.863021 105.632949 
L 627.92 106.104536 
" style="fill:none;stroke:#000000;stroke-linecap:round;stroke-width:1.5;"/>
   </g>
   <g id="patch_4">
    <path clip-path="url(#p5126589f80)" d="M 93.32 57.995625 
C 97.61629 57.995625 101.737194 56.525765 104.77513 53.909765 
C 107.813066 51.293764 109.52 47.745208 109.52 44.045625 
C 109.52 40.346042 107.813066 36.797486 104.77513 34.181485 
C 101.737194 31.565485 97.61629 30.095625 93.32 30.095625 
C 89.02371 30.095625 84.902806 31.565485 81.86487 34.181485 
C 78.826934 36.797486 77.12 40.346042 77.12 44.045625 
C 77.12 47.745208 78.826934 51.293764 81.86487 53.909765 
C 84.902806 56.525765 89.02371 57.995625 93.32 57.995625 
z
" style="fill:none;stroke:#000000;stroke-linejoin:miter;stroke-width:1.5;"/>
   </g>
   <g id="patch_5">
    <path clip-path="url(#p5126589f80)" d="M 222.92 57.995625 
C 227.21629 57.995625 231.337194 56.525765 234.37513 53.909765 
C 237.413066 51.293764 239.12 47.745208 239.12 44.045625 
C 239.12 40.346042 237.413066 36.797486 234.37513 34.181485 
C 231.337194 31.565485 227.21629 30.095625 222.92 30.095625 
C 218.62371 30.095625 214.502806 31.565485 211.46487 34.181485 
C 208.426934 36.797486 206.72 40.346042 206.72 44.045625 
C 206.72 47.745208 208.426934 51.293764 211.46487 53.909765 
C 214.502806 56.525765 218.62371 57.995625 222.92 57.995625 
z
" style="fill:none;stroke:#000000;stroke-linejoin:miter;stroke-width:1.5;"/>
   </g>
   <g id="patch_6">
    <path clip-path="url(#p5126589f80)" d="M 352.52 57.995625 
C 356.81629 57.995625 360.937194 56.525765 363.97513 53.909765 
C 367.013066 51.293764 368.72 47.745208 368.72 44.045625 
C 368.72 40.346042 367.013066 36.797486 363.97513 34.181485 
C 360.937194 31.565485 356.81629 30.095625 352.52 30.095625 
C 348.22371 30.095625 344.102806 31.565485 341.06487 34.181485 
C 338.026934 36.797486 336.32 40.346042 336.32 44.045625 
C 336.32 47.745208 338.026934 51.293764 341.06487 53.909765 
C 344.102806 56.525765 348.22371 57.995625 352.52 57.995625 
z
" style="fill:none;stroke:#000000;stroke-linejoin:miter;stroke-width:1.5;"/>
   </g>
   <g id="patch_7">
    <path clip-path="url(#p5126589f80)" d="M 482.12 57.995625 
C 486.41629 57.995625 490.537194 56.525765 493.57513 53.909765 
C 496.613066 51.293764 498.32 47.745208 498.32 44.045625 
C 498.32 40.346042 496.613066 36.797486 493.57513 34.181485 
C 490.537194 31.565485 486.41629 30.095625 482.12 30.095625 
C 477.82371 30.095625 473.702806 31.565485 470.66487 34.181485 
C 467.626934 36.797486 465.92 40.346042 465.92 44.045625 
C 465.92 47.745208 467.626934 51.293764 470.66487 53.909765 
C 473.702806 56.525765 477.82371 57.995625 482.12 57.995625 
z
" style="fill:none;stroke:#000000;stroke-linejoin:miter;stroke-width:1.5;"/>
   </g>
   <g id="patch_8">
    <path clip-path="url(#p5126589f80)" d="M 611.72 119.375625 
C 616.01629 119.375625 620.137194 117.905765 623.17513 115.289765 
C 626.213066 112.673764 627.92 109.125208 627.92 105.425625 
C 627.92 101.726042 626.213066 98.177486 623.17513 95.561485 
C 620.137194 92.945485 616.01629 91.475625 611.72 91.475625 
C 607.42371 91.475625 603.302806 92.945485 600.26487 95.561485 
C 597.226934 98.177486 595.52 101.726042 595.52 105.425625 
C 595.52 109.125208 597.226934 112.673764 600.26487 115.289765 
C 603.302806 117.905765 607.42371 119.375625 611.72 119.375625 
z
" style="fill:none;stroke:#000000;stroke-linejoin:miter;stroke-width:1.5;"/>
   </g>
   <g id="text_1">
    <!-- SOURCE -->
    <defs>
     <path d="M 53.515625 70.515625 
L 53.515625 60.890625 
Q 47.90625 63.578125 42.921875 64.890625 
Q 37.9375 66.21875 33.296875 66.21875 
Q 25.25 66.21875 20.875 63.09375 
Q 16.5 59.96875 16.5 54.203125 
Q 16.5 49.359375 19.40625 46.890625 
Q 22.3125 44.4375 30.421875 42.921875 
L 36.375 41.703125 
Q 47.40625 39.59375 52.65625 34.296875 
Q 57.90625 29 57.90625 20.125 
Q 57.90625 9.515625 50.796875 4.046875 
Q 43.703125 -1.421875 29.984375 -1.421875 
Q 24.8125 -1.421875 18.96875 -0.25 
Q 13.140625 0.921875 6.890625 3.21875 
L 6.890625 13.375 
Q 12.890625 10.015625 18.65625 8.296875 
Q 24.421875 6.59375 29.984375 6.59375 
Q 38.421875 6.59375 43.015625 9.90625 
Q 47.609375 13.234375 47.609375 19.390625 
Q 47.609375 24.75 44.3125 27.78125 
Q 41.015625 30.8125 33.5 32.328125 
L 27.484375 33.5 
Q 16.453125 35.6875 11.515625 40.375 
Q 6.59375 45.0625 6.59375 53.421875 
Q 6.59375 63.09375 13.40625 68.65625 
Q 20.21875 74.21875 32.171875 74.21875 
Q 37.3125 74.21875 42.625 73.28125 
Q 47.953125 72.359375 53.515625 70.515625 
z
" id="DejaVuSans-53"/>
     <path d="M 39.40625 66.21875 
Q 28.65625 66.21875 22.328125 58.203125 
Q 16.015625 50.203125 16.015625 36.375 
Q 16.015625 22.609375 22.328125 14.59375 
Q 28.65625 6.59375 39.40625 6.59375 
Q 50.140625 6.59375 56.421875 14.59375 
Q 62.703125 22.609375 62.703125 36.375 
Q 62.703125 50.203125 56.421875 58.203125 
Q 50.140625 66.21875 39.40625 66.21875 
z
M 39.40625 74.21875 
Q 54.734375 74.21875 63.90625 63.9375 
Q 73.09375 53.65625 73.09375 36.375 
Q 73.09375 19.140625 63.90625 8.859375 
Q 54.734375 -1.421875 39.40625 -1.421875 
Q 24.03125 -1.421875 14.8125 8.828125 
Q 5.609375 19.09375 5.609375 36.375 
Q 5.609375 53.65625 14.8125 63.9375 
Q 24.03125 74.21875 39.40625 74.21875 
z
" id="DejaVuSans-4f"/>
     <path d="M 8.6875 72.90625 
L 18.609375 72.90625 
L 18.609375 28.609375 
Q 18.609375 16.890625 22.84375 11.734375 
Q 27.09375 6.59375 36.625 6.59375 
Q 46.09375 6.59375 50.34375 11.734375 
Q 54.59375 16.890625 54.59375 28.609375 
L 54.59375 72.90625 
L 64.5 72.90625 
L 64.5 27.390625 
Q 64.5 13.140625 57.4375 5.859375 
Q 50.390625 -1.421875 36.625 -1.421875 
Q 22.796875 -1.421875 15.734375 5.859375 
Q 8.6875 13.140625 8.6875 27.390625 
z
" id="DejaVuSans-55"/>
     <path d="M 44.390625 34.1875 
Q 47.5625 33.109375 50.5625 29.59375 
Q 53.5625 26.078125 56.59375 19.921875 
L 66.609375 0 
L 56 0 
L 46.6875 18.703125 
Q 43.0625 26.03125 39.671875 28.421875 
Q 36.28125 30.8125 30.421875 30.8125 
L 19.671875 30.8125 
L 19.671875 0 
L 9.8125 0 
L 9.8125 72.90625 
L 32.078125 72.90625 
Q 44.578125 72.90625 50.734375 67.671875 
Q 56.890625 62.453125 56.890625 51.90625 
Q 56.890625 45.015625 53.6875 40.46875 
Q 50.484375 35.9375 44.390625 34.1875 
z
M 19.671875 64.796875 
L 19.671875 38.921875 
L 32.078125 38.921875 
Q 39.203125 38.921875 42.84375 42.21875 
Q 46.484375 45.515625 46.484375 51.90625 
Q 46.484375 58.296875 42.84375 61.546875 
Q 39.203125 64.796875 32.078125 64.796875 
z
" id="DejaVuSans-52"/>
     <path d="M 64.40625 67.28125 
L 64.40625 56.890625 
Q 59.421875 61.53125 53.78125 63.8125 
Q 48.140625 66.109375 41.796875 66.109375 
Q 29.296875 66.109375 22.65625 58.46875 
Q 16.015625 50.828125 16.015625 36.375 
Q 16.015625 21.96875 22.65625 14.328125 
Q 29.296875 6.6875 41.796875 6.6875 
Q 48.140625 6.6875 53.78125 8.984375 
Q 59.421875 11.28125 64.40625 15.921875 
L 64.40625 5.609375 
Q 59.234375 2.09375 53.4375 0.328125 
Q 47.65625 -1.421875 41.21875 -1.421875 
Q 24.65625 -1.421875 15.125 8.703125 
Q 5.609375 18.84375 5.609375 36.375 
Q 5.609375 53.953125 15.125 64.078125 
Q 24.65625 74.21875 41.21875 74.21875 
Q 47.75 74.21875 53.53125 72.484375 
Q 59.328125 70.75 64.40625 67.28125 
z
" id="DejaVuSans-43"/>
     <path d="M 9.8125 72.90625 
L 55.90625 72.90625 
L 55.90625 64.59375 
L 19.671875 64.59375 
L 19.671875 43.015625 
L 54.390625 43.015625 
L 54.390625 34.71875 
L 19.671875 34.71875 
L 19.671875 8.296875 
L 56.78125 8.296875 
L 56.78125 0 
L 9.8125 0 
z
" id="DejaVuSans-45"/>
    </defs>
    <g transform="translate(68.25125 16.44)scale(0.12 -0.12)">
     <use xlink:href="#DejaVuSans-53"/>
     <use x="63.476562" xlink:href="#DejaVuSans-4f"/>
     <use x="142.1875" xlink:href="#DejaVuSans-55"/>
     <use x="215.380859" xlink:href="#DejaVuSans-52"/>
     <use x="284.785156" xlink:href="#DejaVuSans-43"/>
     <use x="354.609375" xlink:href="#DejaVuSans-45"/>
    </g>
   </g>
   <g id="text_2">
    <!-- SOURCE_V -->
    <defs>
     <path d="M 50.984375 -16.609375 
L 50.984375 -23.578125 
L -0.984375 -23.578125 
L -0.984375 -16.609375 
z
" id="DejaVuSans-5f"/>
     <path d="M 28.609375 0 
L 0.78125 72.90625 
L 11.078125 72.90625 
L 34.1875 11.53125 
L 57.328125 72.90625 
L 67.578125 72.90625 
L 39.796875 0 
z
" id="DejaVuSans-56"/>
    </defs>
    <g transform="translate(190.746875 16.10625)scale(0.12 -0.12)">
     <use xlink:href="#DejaVuSans-53"/>
     <use x="63.476562" xlink:href="#DejaVuSans-4f"/>
     <use x="142.1875" xlink:href="#DejaVuSans-55"/>
     <use x="215.380859" xlink:href="#DejaVuSans-52"/>
     <use x="284.785156" xlink:href="#DejaVuSans-43"/>
     <use x="354.609375" xlink:href="#DejaVuSans-45"/>
     <use x="417.792969" xlink:href="#DejaVuSans-5f"/>
     <use x="467.792969" xlink:href="#DejaVuSans-56"/>
    </g>
   </g>
   <g id="text_3">
    <!-- SOURCE_I -->
    <defs>
     <path d="M 9.8125 72.90625 
L 19.671875 72.90625 
L 19.671875 0 
L 9.8125 0 
z
" id="DejaVuSans-49"/>
    </defs>
    <g transform="translate(322.68125 16.10625)scale(0.12 -0.12)">
     <use xlink:href="#DejaVuSans-53"/>
     <use x="63.476562" xlink:href="#DejaVuSans-4f"/>
     <use x="142.1875" xlink:href="#DejaVuSans-55"/>
     <use x="215.380859" xlink:href="#DejaVuSans-52"/>
     <use x="284.785156" xlink:href="#DejaVuSans-43"/>
     <use x="354.609375" xlink:href="#DejaVuSans-45"/>
     <use x="417.792969" xlink:href="#DejaVuSans-5f"/>
     <use x="467.792969" xlink:href="#DejaVuSans-49"/>
    </g>
   </g>
   <g id="text_4">
    <!-- SOURCE_SIN -->
    <defs>
     <path d="M 9.8125 72.90625 
L 23.09375 72.90625 
L 55.421875 11.921875 
L 55.421875 72.90625 
L 64.984375 72.90625 
L 64.984375 0 
L 51.703125 0 
L 19.390625 60.984375 
L 19.390625 0 
L 9.8125 0 
z
" id="DejaVuSans-4e"/>
    </defs>
    <g transform="translate(443.983437 16.10625)scale(0.12 -0.12)">
     <use xlink:href="#DejaVuSans-53"/>
     <use x="63.476562" xlink:href="#DejaVuSans-4f"/>
     <use x="142.1875" xlink:href="#DejaVuSans-55"/>
     <use x="215.380859" xlink:href="#DejaVuSans-52"/>
     <use x="284.785156" xlink:href="#DejaVuSans-43"/>
     <use x="354.609375" xlink:href="#DejaVuSans-45"/>
     <use x="417.792969" xlink:href="#DejaVuSans-5f"/>
     <use x="467.792969" xlink:href="#DejaVuSans-53"/>
     <use x="531.269531" xlink:href="#DejaVuSans-49"/>
     <use x="560.761719" xlink:href="#DejaVuSans-4e"/>
    </g>
   </g>
   <g id="text_5">
    <!-- SOURCE_CONT -->
    <defs>
     <path d="M -0.296875 72.90625 
L 61.375 72.90625 
L 61.375 64.59375 
L 35.5 64.59375 
L 35.5 0 
L 25.59375 0 
L 25.59375 64.59375 
L -0.296875 64.59375 
z
" id="DejaVuSans-54"/>
    </defs>
    <g transform="translate(566.585 16.10625)scale(0.12 -0.12)">
     <use xlink:href="#DejaVuSans-53"/>
     <use x="63.476562" xlink:href="#DejaVuSans-4f"/>
     <use x="142.1875" xlink:href="#DejaVuSans-55"/>
     <use x="215.380859" xlink:href="#DejaVuSans-52"/>
     <use x="284.785156" xlink:href="#DejaVuSans-43"/>
     <use x="354.609375" xlink:href="#DejaVuSans-45"/>
     <use x="417.792969" xlink:href="#DejaVuSans-5f"/>
     <use x="467.792969" xlink:href="#DejaVuSans-43"/>
     <use x="537.617188" xlink:href="#DejaVuSans-4f"/>
     <use x="616.328125" xlink:href="#DejaVuSans-4e"/>
     <use x="691.132812" xlink:href="#DejaVuSans-54"/>
    </g>
   </g>
   <g id="text_6">
    <!-- SOURCE_CONT_I -->
    <g transform="translate(43.415 77.48625)scale(0.12 -0.12)">
     <use xlink:href="#DejaVuSans-53"/>
     <use x="63.476562" xlink:href="#DejaVuSans-4f"/>
     <use x="142.1875" xlink:href="#DejaVuSans-55"/>
     <use x="215.380859" xlink:href="#DejaVuSans-52"/>
     <use x="284.785156" xlink:href="#DejaVuSans-43"/>
     <use x="354.609375" xlink:href="#DejaVuSans-45"/>
     <use x="417.792969" xlink:href="#DejaVuSans-5f"/>
     <use x="467.792969" xlink:href="#DejaVuSans-43"/>
     <use x="537.617188" xlink:href="#DejaVuSans-4f"/>
     <use x="616.328125" xlink:href="#DejaVuSans-4e"/>
     <use x="691.132812" xlink:href="#DejaVuSans-54"/>
     <use x="752.216797" xlink:href="#DejaVuSans-5f"/>
     <use x="802.216797" xlink:href="#DejaVuSans-49"/>
    </g>
   </g>
   <g id="text_7">
    <!-- SOURCE_CONT_V -->
    <g transform="translate(170.680625 77.48625)scale(0.12 -0.12)">
     <use xlink:href="#DejaVuSans-53"/>
     <use x="63.476562" xlink:href="#DejaVuSans-4f"/>
     <use x="142.1875" xlink:href="#DejaVuSans-55"/>
     <use x="215.380859" xlink:href="#DejaVuSans-52"/>
     <use x="284.785156" xlink:href="#DejaVuSans-43"/>
     <use x="354.609375" xlink:href="#DejaVuSans-45"/>
     <use x="417.792969" xlink:href="#DejaVuSans-5f"/>
     <use x="467.792969" xlink:href="#DejaVuSans-43"/>
     <use x="537.617188" xlink:href="#DejaVuSans-4f"/>
     <use x="616.328125" xlink:href="#DejaVuSans-4e"/>
     <use x="691.132812" xlink:href="#DejaVuSans-54"/>
     <use x="752.216797" xlink:href="#DejaVuSans-5f"/>
     <use x="802.216797" xlink:href="#DejaVuSans-56"/>
    </g>
   </g>
   <g id="text_8">
    <!-- BAT_CELL -->
    <defs>
     <path d="M 19.671875 34.8125 
L 19.671875 8.109375 
L 35.5 8.109375 
Q 43.453125 8.109375 47.28125 11.40625 
Q 51.125 14.703125 51.125 21.484375 
Q 51.125 28.328125 47.28125 31.5625 
Q 43.453125 34.8125 35.5 34.8125 
z
M 19.671875 64.796875 
L 19.671875 42.828125 
L 34.28125 42.828125 
Q 41.5 42.828125 45.03125 45.53125 
Q 48.578125 48.25 48.578125 53.8125 
Q 48.578125 59.328125 45.03125 62.0625 
Q 41.5 64.796875 34.28125 64.796875 
z
M 9.8125 72.90625 
L 35.015625 72.90625 
Q 46.296875 72.90625 52.390625 68.21875 
Q 58.5 63.53125 58.5 54.890625 
Q 58.5 48.1875 55.375 44.234375 
Q 52.25 40.28125 46.1875 39.3125 
Q 53.46875 37.75 57.5 32.78125 
Q 61.53125 27.828125 61.53125 20.40625 
Q 61.53125 10.640625 54.890625 5.3125 
Q 48.25 0 35.984375 0 
L 9.8125 0 
z
" id="DejaVuSans-42"/>
     <path d="M 34.1875 63.1875 
L 20.796875 26.90625 
L 47.609375 26.90625 
z
M 28.609375 72.90625 
L 39.796875 72.90625 
L 67.578125 0 
L 57.328125 0 
L 50.6875 18.703125 
L 17.828125 18.703125 
L 11.1875 0 
L 0.78125 0 
z
" id="DejaVuSans-41"/>
     <path d="M 9.8125 72.90625 
L 19.671875 72.90625 
L 19.671875 8.296875 
L 55.171875 8.296875 
L 55.171875 0 
L 9.8125 0 
z
" id="DejaVuSans-4c"/>
    </defs>
    <g transform="translate(322.97375 80.97375)scale(0.12 -0.12)">
     <use xlink:href="#DejaVuSans-42"/>
     <use x="68.603516" xlink:href="#DejaVuSans-41"/>
     <use x="136.902344" xlink:href="#DejaVuSans-54"/>
     <use x="197.986328" xlink:href="#DejaVuSans-5f"/>
     <use x="247.986328" xlink:href="#DejaVuSans-43"/>
     <use x="317.810547" xlink:href="#DejaVuSans-45"/>
     <use x="380.994141" xlink:href="#DejaVuSans-4c"/>
     <use x="436.707031" xlink:href="#DejaVuSans-4c"/>
    </g>
   </g>
   <g id="text_9">
    <!-- BATTERY -->
    <defs>
     <path d="M -0.203125 72.90625 
L 10.40625 72.90625 
L 30.609375 42.921875 
L 50.6875 72.90625 
L 61.28125 72.90625 
L 35.5 34.71875 
L 35.5 0 
L 25.59375 0 
L 25.59375 34.71875 
z
" id="DejaVuSans-59"/>
    </defs>
    <g transform="translate(454.957812 81.3075)scale(0.12 -0.12)">
     <use xlink:href="#DejaVuSans-42"/>
     <use x="68.603516" xlink:href="#DejaVuSans-41"/>
     <use x="136.902344" xlink:href="#DejaVuSans-54"/>
     <use x="197.970703" xlink:href="#DejaVuSans-54"/>
     <use x="259.054688" xlink:href="#DejaVuSans-45"/>
     <use x="322.238281" xlink:href="#DejaVuSans-52"/>
     <use x="391.626953" xlink:href="#DejaVuSans-59"/>
    </g>
   </g>
   <g id="text_10">
    <!-- LAMP -->
    <defs>
     <path d="M 9.8125 72.90625 
L 24.515625 72.90625 
L 43.109375 23.296875 
L 61.8125 72.90625 
L 76.515625 72.90625 
L 76.515625 0 
L 66.890625 0 
L 66.890625 64.015625 
L 48.09375 14.015625 
L 38.1875 14.015625 
L 19.390625 64.015625 
L 19.390625 0 
L 9.8125 0 
z
" id="DejaVuSans-4d"/>
     <path d="M 19.671875 64.796875 
L 19.671875 37.40625 
L 32.078125 37.40625 
Q 38.96875 37.40625 42.71875 40.96875 
Q 46.484375 44.53125 46.484375 51.125 
Q 46.484375 57.671875 42.71875 61.234375 
Q 38.96875 64.796875 32.078125 64.796875 
z
M 9.8125 72.90625 
L 32.078125 72.90625 
Q 44.34375 72.90625 50.609375 67.359375 
Q 56.890625 61.8125 56.890625 51.125 
Q 56.890625 40.328125 50.609375 34.8125 
Q 44.34375 29.296875 32.078125 29.296875 
L 19.671875 29.296875 
L 19.671875 0 
L 9.8125 0 
z
" id="DejaVuSans-50"/>
    </defs>
    <g transform="translate(595.475937 77.82)scale(0.12 -0.12)">
     <use xlink:href="#DejaVuSans-4c"/>
     <use x="55.744141" xlink:href="#DejaVuSans-41"/>
     <use x="124.152344" xlink:href="#DejaVuSans-4d"/>
     <use x="210.431641" xlink:href="#DejaVuSans-50"/>
    </g>
   </g>
  </g>
 </g>
 <defs>
  <clipPath id="p5126589f80">
   <rect height="103.788" width="683.64" x="10.7" y="22.841625"/>
  </clipPath>
 </defs>
</svg>
