<?xml version="1.0" encoding="utf-8" standalone="no"?>
<!DOCTYPE svg PUBLIC "-//W3C//DTD SVG 1.1//EN"
  "http://www.w3.org/Graphics/SVG/1.1/DTD/svg11.dtd">
<!-- Created with matplotlib (http://matplotlib.org/) -->
<svg height="147pt" version="1.1" viewBox="0 0 705 147" width="705pt" xmlns="http://www.w3.org/2000/svg" xmlns:xlink="http://www.w3.org/1999/xlink">
 <defs>
  <style type="text/css">
*{stroke-linecap:butt;stroke-linejoin:round;}
  </style>
 </defs>
 <g id="figure_1">
  <g id="patch_1">
   <path d="M 0 147.751625 
L 705.04 147.751625 
L 705.04 0 
L 0 0 
z
" style="fill:none;"/>
  </g>
  <g id="axes_1">
   <g id="patch_2">
    <path clip-path="url(#pff626e63a3)" d="M 344.42 46.475625 
L 350.9 44.945625 
L 350.9 46.460325 
L 360.62 46.460325 
L 360.62 46.490925 
L 350.9 46.490925 
L 350.9 48.005625 
z
" style="stroke:#000000;stroke-linejoin:miter;stroke-width:1.5;"/>
   </g>
   <g id="patch_3">
    <path clip-path="url(#pff626e63a3)" d="M 85.22 113.795625 
L 91.7 112.265625 
L 91.7 113.780325 
L 101.42 113.780325 
L 101.42 113.810925 
L 91.7 113.810925 
L 91.7 115.325625 
z
" style="stroke:#000000;stroke-linejoin:miter;stroke-width:1.5;"/>
   </g>
   <g id="line2d_1">
    <path clip-path="url(#pff626e63a3)" d="M 44.72 46.475625 
L 77.12 46.475625 
L 77.12 46.475625 
M 109.52 46.475625 
L 109.52 46.475625 
L 141.92 46.475625 
" style="fill:none;stroke:#000000;stroke-linecap:round;stroke-width:1.5;"/>
   </g>
   <g id="line2d_2">
    <path clip-path="url(#pff626e63a3)" d="M 174.32 46.475625 
L 206.72 46.475625 
L 206.72 46.475625 
M 239.12 46.475625 
L 239.12 46.475625 
L 271.52 46.475625 
" style="fill:none;stroke:#000000;stroke-linecap:round;stroke-width:1.5;"/>
   </g>
   <g id="line2d_3">
    <path clip-path="url(#pff626e63a3)" d="M 214.82 49.535625 
L 214.82 43.415625 
" style="fill:none;stroke:#000000;stroke-linecap:round;stroke-width:1.5;"/>
   </g>
   <g id="line2d_4">
    <path clip-path="url(#pff626e63a3)" d="M 227.78 46.475625 
L 234.26 46.475625 
" style="fill:none;stroke:#000000;stroke-linecap:round;stroke-width:1.5;"/>
   </g>
   <g id="line2d_5">
    <path clip-path="url(#pff626e63a3)" d="M 231.02 49.535625 
L 231.02 43.415625 
" style="fill:none;stroke:#000000;stroke-linecap:round;stroke-width:1.5;"/>
   </g>
   <g id="line2d_6">
    <path clip-path="url(#pff626e63a3)" d="M 303.92 46.475625 
L 336.32 46.475625 
L 336.32 46.475625 
M 368.72 46.475625 
L 368.72 46.475625 
L 401.12 46.475625 
" style="fill:none;stroke:#000000;stroke-linecap:round;stroke-width:1.5;"/>
   </g>
   <g id="line2d_7">
    <path clip-path="url(#pff626e63a3)" d="M 433.52 46.475625 
L 465.92 46.475625 
L 465.92 46.475625 
M 498.32 46.475625 
L 498.32 46.475625 
L 530.72 46.475625 
" style="fill:none;stroke:#000000;stroke-linecap:round;stroke-width:1.5;"/>
   </g>
   <g id="line2d_8">
    <path clip-path="url(#pff626e63a3)" d="M 482.12 54.125625 
L 483.797147 53.488125 
L 485.36 52.850625 
L 486.702052 52.213125 
L 487.731845 51.575625 
L 488.379199 50.938125 
L 488.6 50.300625 
L 488.379199 49.663125 
L 487.731845 49.025625 
L 486.702052 48.388125 
L 485.36 47.750625 
L 483.797147 47.113125 
L 482.12 46.475625 
L 480.442853 45.838125 
L 478.88 45.200625 
L 477.537948 44.563125 
L 476.508155 43.925625 
L 475.860801 43.288125 
L 475.64 42.650625 
L 475.860801 42.013125 
L 476.508155 41.375625 
L 477.537948 40.738125 
L 478.88 40.100625 
L 480.442853 39.463125 
L 482.12 38.825625 
" style="fill:none;stroke:#000000;stroke-linecap:round;stroke-width:1.5;"/>
   </g>
   <g id="line2d_9">
    <path clip-path="url(#pff626e63a3)" d="M 563.12 46.475625 
L 595.52 46.475625 
L 611.72 61.775625 
L 627.92 46.475625 
L 660.32 46.475625 
" style="fill:none;stroke:#000000;stroke-linecap:round;stroke-width:1.5;"/>
   </g>
   <g id="line2d_10">
    <path clip-path="url(#pff626e63a3)" d="M 595.52 46.475625 
L 611.72 31.175625 
L 627.92 46.475625 
" style="fill:none;stroke:#000000;stroke-linecap:round;stroke-width:1.5;"/>
   </g>
   <g id="line2d_11">
    <path clip-path="url(#pff626e63a3)" d="M 44.72 113.795625 
L 77.12 113.795625 
L 93.32 129.095625 
L 109.52 113.795625 
L 141.92 113.795625 
" style="fill:none;stroke:#000000;stroke-linecap:round;stroke-width:1.5;"/>
   </g>
   <g id="line2d_12">
    <path clip-path="url(#pff626e63a3)" d="M 77.12 113.795625 
L 93.32 98.495625 
L 109.52 113.795625 
" style="fill:none;stroke:#000000;stroke-linecap:round;stroke-width:1.5;"/>
   </g>
   <g id="line2d_13">
    <path clip-path="url(#pff626e63a3)" d="M 174.32 113.795625 
L 206.72 113.795625 
L 222.92 129.095625 
L 239.12 113.795625 
L 271.52 113.795625 
" style="fill:none;stroke:#000000;stroke-linecap:round;stroke-width:1.5;"/>
   </g>
   <g id="line2d_14">
    <path clip-path="url(#pff626e63a3)" d="M 214.82 116.855625 
L 214.82 110.735625 
" style="fill:none;stroke:#000000;stroke-linecap:round;stroke-width:1.5;"/>
   </g>
   <g id="line2d_15">
    <path clip-path="url(#pff626e63a3)" d="M 227.78 113.795625 
L 234.26 113.795625 
" style="fill:none;stroke:#000000;stroke-linecap:round;stroke-width:1.5;"/>
   </g>
   <g id="line2d_16">
    <path clip-path="url(#pff626e63a3)" d="M 231.02 116.855625 
L 231.02 110.735625 
" style="fill:none;stroke:#000000;stroke-linecap:round;stroke-width:1.5;"/>
   </g>
   <g id="line2d_17">
    <path clip-path="url(#pff626e63a3)" d="M 206.72 113.795625 
L 222.92 98.495625 
L 239.12 113.795625 
" style="fill:none;stroke:#000000;stroke-linecap:round;stroke-width:1.5;"/>
   </g>
   <g id="line2d_18">
    <path clip-path="url(#pff626e63a3)" d="M 303.92 113.795625 
L 349.4825 113.795625 
M 355.5575 113.795625 
L 401.12 113.795625 
" style="fill:none;stroke:#000000;stroke-linecap:round;stroke-width:1.5;"/>
   </g>
   <g id="line2d_19">
    <path clip-path="url(#pff626e63a3)" d="M 349.4825 102.320625 
L 349.4825 125.270625 
" style="fill:none;stroke:#000000;stroke-linecap:round;stroke-width:1.5;"/>
   </g>
   <g id="line2d_20">
    <path clip-path="url(#pff626e63a3)" d="M 355.5575 108.058125 
L 355.5575 119.533125 
" style="fill:none;stroke:#000000;stroke-linecap:round;stroke-width:1.5;"/>
   </g>
   <g id="line2d_21">
    <path clip-path="url(#pff626e63a3)" d="M 433.52 113.795625 
L 473.0075 113.795625 
M 491.2325 113.795625 
L 530.72 113.795625 
" style="fill:none;stroke:#000000;stroke-linecap:round;stroke-width:1.5;"/>
   </g>
   <g id="line2d_22">
    <path clip-path="url(#pff626e63a3)" d="M 473.0075 102.320625 
L 473.0075 125.270625 
" style="fill:none;stroke:#000000;stroke-linecap:round;stroke-width:1.5;"/>
   </g>
   <g id="line2d_23">
    <path clip-path="url(#pff626e63a3)" d="M 479.0825 108.058125 
L 479.0825 119.533125 
" style="fill:none;stroke:#000000;stroke-linecap:round;stroke-width:1.5;"/>
   </g>
   <g id="line2d_24">
    <path clip-path="url(#pff626e63a3)" d="M 485.1575 102.320625 
L 485.1575 125.270625 
" style="fill:none;stroke:#000000;stroke-linecap:round;stroke-width:1.5;"/>
   </g>
   <g id="line2d_25">
    <path clip-path="url(#pff626e63a3)" d="M 491.2325 108.058125 
L 491.2325 119.533125 
" style="fill:none;stroke:#000000;stroke-linecap:round;stroke-width:1.5;"/>
   </g>
   <g id="line2d_26">
    <path clip-path="url(#pff626e63a3)" d="M 563.12 113.795625 
L 595.52 113.795625 
L 595.52 113.795625 
M 627.92 113.795625 
L 627.92 113.795625 
L 660.32 113.795625 
" style="fill:none;stroke:#000000;stroke-linecap:round;stroke-width:1.5;"/>
   </g>
   <g id="line2d_27">
    <path clip-path="url(#pff626e63a3)" d="M 595.52 113.795625 
L 595.660218 113.263723 
L 595.859525 112.728035 
L 596.118044 112.193922 
L 596.435304 111.666733 
L 596.810247 111.151744 
L 597.241238 110.654113 
L 597.726078 110.178819 
L 598.262032 109.730623 
L 598.845852 109.314011 
L 599.473811 108.933153 
L 600.141739 108.591863 
L 600.845069 108.293558 
L 601.578875 108.041223 
L 602.337929 107.837386 
L 603.116751 107.684086 
L 603.90966 107.582859 
L 604.710837 107.534718 
L 605.514378 107.540144 
L 606.314356 107.599084 
L 607.10488 107.710947 
L 607.880155 107.874614 
L 608.634535 108.088447 
L 609.362587 108.350303 
L 610.059139 108.657562 
L 610.719336 109.007148 
L 611.338685 109.395561 
L 611.913105 109.818912 
L 612.438961 110.272963 
L 612.913109 110.753168 
L 613.332917 111.254721 
L 613.696301 111.772599 
L 614.001741 112.301619 
L 614.248297 112.836483 
L 614.435617 113.371838 
L 614.563946 113.902323 
L 614.634114 114.422628 
L 614.647538 114.927544 
L 614.606201 115.412015 
L 614.512634 115.871193 
L 614.369892 116.300479 
L 614.181522 116.695577 
L 613.951527 117.05253 
L 613.684328 117.367765 
L 613.384716 117.638126 
L 613.05781 117.860907 
L 612.708999 118.033877 
L 612.343894 118.155305 
L 611.968268 118.223974 
L 611.587998 118.239198 
L 611.20901 118.200824 
L 610.837214 118.109236 
L 610.478452 117.965351 
L 610.138432 117.770609 
L 609.822677 117.526961 
L 609.536464 117.236845 
L 609.284778 116.903166 
L 609.072255 116.529264 
L 608.903141 116.118883 
L 608.781247 115.676131 
L 608.70991 115.205441 
L 608.691963 114.711525 
L 608.729703 114.199327 
L 608.824869 113.673976 
L 608.978627 113.14073 
L 609.191556 112.604929 
L 609.46364 112.071936 
L 609.794274 111.547087 
L 610.182266 111.035638 
L 610.625849 110.542707 
L 611.1227 110.07323 
L 611.669962 109.631908 
L 612.264274 109.223157 
L 612.901805 108.851071 
L 613.578288 108.519374 
L 614.289071 108.231388 
L 615.029153 107.989994 
L 615.793245 107.797611 
L 616.575814 107.656164 
L 617.371142 107.567068 
L 618.173387 107.531217 
L 618.976633 107.548968 
L 619.774957 107.620145 
L 620.562485 107.744034 
L 621.333449 107.919396 
L 622.08225 108.144474 
L 622.803508 108.417016 
L 623.492121 108.734292 
L 624.143312 109.093128 
L 624.752679 109.489929 
L 625.31624 109.920724 
L 625.830471 110.381199 
L 626.292341 110.866746 
L 626.699344 111.372502 
L 627.049523 111.893405 
L 627.34149 112.42424 
L 627.574439 112.959692 
L 627.748157 113.494401 
L 627.863021 114.023013 
L 627.92 114.540237 
" style="fill:none;stroke:#000000;stroke-linecap:round;stroke-width:1.5;"/>
   </g>
   <g id="patch_4">
    <path clip-path="url(#pff626e63a3)" d="M 93.32 61.775625 
C 97.61629 61.775625 101.737194 60.16352 104.77513 57.294359 
C 107.813066 54.425197 109.52 50.533232 109.52 46.475625 
C 109.52 42.418018 107.813066 38.526053 104.77513 35.656891 
C 101.737194 32.78773 97.61629 31.175625 93.32 31.175625 
C 89.02371 31.175625 84.902806 32.78773 81.86487 35.656891 
C 78.826934 38.526053 77.12 42.418018 77.12 46.475625 
C 77.12 50.533232 78.826934 54.425197 81.86487 57.294359 
C 84.902806 60.16352 89.02371 61.775625 93.32 61.775625 
z
" style="fill:none;stroke:#000000;stroke-linejoin:miter;stroke-width:1.5;"/>
   </g>
   <g id="patch_5">
    <path clip-path="url(#pff626e63a3)" d="M 222.92 61.775625 
C 227.21629 61.775625 231.337194 60.16352 234.37513 57.294359 
C 237.413066 54.425197 239.12 50.533232 239.12 46.475625 
C 239.12 42.418018 237.413066 38.526053 234.37513 35.656891 
C 231.337194 32.78773 227.21629 31.175625 222.92 31.175625 
C 218.62371 31.175625 214.502806 32.78773 211.46487 35.656891 
C 208.426934 38.526053 206.72 42.418018 206.72 46.475625 
C 206.72 50.533232 208.426934 54.425197 211.46487 57.294359 
C 214.502806 60.16352 218.62371 61.775625 222.92 61.775625 
z
" style="fill:none;stroke:#000000;stroke-linejoin:miter;stroke-width:1.5;"/>
   </g>
   <g id="patch_6">
    <path clip-path="url(#pff626e63a3)" d="M 352.52 61.775625 
C 356.81629 61.775625 360.937194 60.16352 363.97513 57.294359 
C 367.013066 54.425197 368.72 50.533232 368.72 46.475625 
C 368.72 42.418018 367.013066 38.526053 363.97513 35.656891 
C 360.937194 32.78773 356.81629 31.175625 352.52 31.175625 
C 348.22371 31.175625 344.102806 32.78773 341.06487 35.656891 
C 338.026934 38.526053 336.32 42.418018 336.32 46.475625 
C 336.32 50.533232 338.026934 54.425197 341.06487 57.294359 
C 344.102806 60.16352 348.22371 61.775625 352.52 61.775625 
z
" style="fill:none;stroke:#000000;stroke-linejoin:miter;stroke-width:1.5;"/>
   </g>
   <g id="patch_7">
    <path clip-path="url(#pff626e63a3)" d="M 482.12 61.775625 
C 486.41629 61.775625 490.537194 60.16352 493.57513 57.294359 
C 496.613066 54.425197 498.32 50.533232 498.32 46.475625 
C 498.32 42.418018 496.613066 38.526053 493.57513 35.656891 
C 490.537194 32.78773 486.41629 31.175625 482.12 31.175625 
C 477.82371 31.175625 473.702806 32.78773 470.66487 35.656891 
C 467.626934 38.526053 465.92 42.418018 465.92 46.475625 
C 465.92 50.533232 467.626934 54.425197 470.66487 57.294359 
C 473.702806 60.16352 477.82371 61.775625 482.12 61.775625 
z
" style="fill:none;stroke:#000000;stroke-linejoin:miter;stroke-width:1.5;"/>
   </g>
   <g id="patch_8">
    <path clip-path="url(#pff626e63a3)" d="M 611.72 129.095625 
C 616.01629 129.095625 620.137194 127.48352 623.17513 124.614359 
C 626.213066 121.745197 627.92 117.853232 627.92 113.795625 
C 627.92 109.738018 626.213066 105.846053 623.17513 102.976891 
C 620.137194 100.10773 616.01629 98.495625 611.72 98.495625 
C 607.42371 98.495625 603.302806 100.10773 600.26487 102.976891 
C 597.226934 105.846053 595.52 109.738018 595.52 113.795625 
C 595.52 117.853232 597.226934 121.745197 600.26487 124.614359 
C 603.302806 127.48352 607.42371 129.095625 611.72 129.095625 
z
" style="fill:none;stroke:#000000;stroke-linejoin:miter;stroke-width:1.5;"/>
   </g>
   <g id="text_1">
    <!-- SOURCE -->
    <defs>
     <path d="M 53.515625 70.515625 
L 53.515625 60.890625 
Q 47.90625 63.578125 42.921875 64.890625 
Q 37.9375 66.21875 33.296875 66.21875 
Q 25.25 66.21875 20.875 63.09375 
Q 16.5 59.96875 16.5 54.203125 
Q 16.5 49.359375 19.40625 46.890625 
Q 22.3125 44.4375 30.421875 42.921875 
L 36.375 41.703125 
Q 47.40625 39.59375 52.65625 34.296875 
Q 57.90625 29 57.90625 20.125 
Q 57.90625 9.515625 50.796875 4.046875 
Q 43.703125 -1.421875 29.984375 -1.421875 
Q 24.8125 -1.421875 18.96875 -0.25 
Q 13.140625 0.921875 6.890625 3.21875 
L 6.890625 13.375 
Q 12.890625 10.015625 18.65625 8.296875 
Q 24.421875 6.59375 29.984375 6.59375 
Q 38.421875 6.59375 43.015625 9.90625 
Q 47.609375 13.234375 47.609375 19.390625 
Q 47.609375 24.75 44.3125 27.78125 
Q 41.015625 30.8125 33.5 32.328125 
L 27.484375 33.5 
Q 16.453125 35.6875 11.515625 40.375 
Q 6.59375 45.0625 6.59375 53.421875 
Q 6.59375 63.09375 13.40625 68.65625 
Q 20.21875 74.21875 32.171875 74.21875 
Q 37.3125 74.21875 42.625 73.28125 
Q 47.953125 72.359375 53.515625 70.515625 
z
" id="DejaVuSans-53"/>
     <path d="M 39.40625 66.21875 
Q 28.65625 66.21875 22.328125 58.203125 
Q 16.015625 50.203125 16.015625 36.375 
Q 16.015625 22.609375 22.328125 14.59375 
Q 28.65625 6.59375 39.40625 6.59375 
Q 50.140625 6.59375 56.421875 14.59375 
Q 62.703125 22.609375 62.703125 36.375 
Q 62.703125 50.203125 56.421875 58.203125 
Q 50.140625 66.21875 39.40625 66.21875 
z
M 39.40625 74.21875 
Q 54.734375 74.21875 63.90625 63.9375 
Q 73.09375 53.65625 73.09375 36.375 
Q 73.09375 19.140625 63.90625 8.859375 
Q 54.734375 -1.421875 39.40625 -1.421875 
Q 24.03125 -1.421875 14.8125 8.828125 
Q 5.609375 19.09375 5.609375 36.375 
Q 5.609375 53.65625 14.8125 63.9375 
Q 24.03125 74.21875 39.40625 74.21875 
z
" id="DejaVuSans-4f"/>
     <path d="M 8.6875 72.90625 
L 18.609375 72.90625 
L 18.609375 28.609375 
Q 18.609375 16.890625 22.84375 11.734375 
Q 27.09375 6.59375 36.625 6.59375 
Q 46.09375 6.59375 50.34375 11.734375 
Q 54.59375 16.890625 54.59375 28.609375 
L 54.59375 72.90625 
L 64.5 72.90625 
L 64.5 27.390625 
Q 64.5 13.140625 57.4375 5.859375 
Q 50.390625 -1.421875 36.625 -1.421875 
Q 22.796875 -1.421875 15.734375 5.859375 
Q 8.6875 13.140625 8.6875 27.390625 
z
" id="DejaVuSans-55"/>
     <path d="M 44.390625 34.1875 
Q 47.5625 33.109375 50.5625 29.59375 
Q 53.5625 26.078125 56.59375 19.921875 
L 66.609375 0 
L 56 0 
L 46.6875 18.703125 
Q 43.0625 26.03125 39.671875 28.421875 
Q 36.28125 30.8125 30.421875 30.8125 
L 19.671875 30.8125 
L 19.671875 0 
L 9.8125 0 
L 9.8125 72.90625 
L 32.078125 72.90625 
Q 44.578125 72.90625 50.734375 67.671875 
Q 56.890625 62.453125 56.890625 51.90625 
Q 56.890625 45.015625 53.6875 40.46875 
Q 50.484375 35.9375 44.390625 34.1875 
z
M 19.671875 64.796875 
L 19.671875 38.921875 
L 32.078125 38.921875 
Q 39.203125 38.921875 42.84375 42.21875 
Q 46.484375 45.515625 46.484375 51.90625 
Q 46.484375 58.296875 42.84375 61.546875 
Q 39.203125 64.796875 32.078125 64.796875 
z
" id="DejaVuSans-52"/>
     <path d="M 64.40625 67.28125 
L 64.40625 56.890625 
Q 59.421875 61.53125 53.78125 63.8125 
Q 48.140625 66.109375 41.796875 66.109375 
Q 29.296875 66.109375 22.65625 58.46875 
Q 16.015625 50.828125 16.015625 36.375 
Q 16.015625 21.96875 22.65625 14.328125 
Q 29.296875 6.6875 41.796875 6.6875 
Q 48.140625 6.6875 53.78125 8.984375 
Q 59.421875 11.28125 64.40625 15.921875 
L 64.40625 5.609375 
Q 59.234375 2.09375 53.4375 0.328125 
Q 47.65625 -1.421875 41.21875 -1.421875 
Q 24.65625 -1.421875 15.125 8.703125 
Q 5.609375 18.84375 5.609375 36.375 
Q 5.609375 53.953125 15.125 64.078125 
Q 24.65625 74.21875 41.21875 74.21875 
Q 47.75 74.21875 53.53125 72.484375 
Q 59.328125 70.75 64.40625 67.28125 
z
" id="DejaVuSans-43"/>
     <path d="M 9.8125 72.90625 
L 55.90625 72.90625 
L 55.90625 64.59375 
L 19.671875 64.59375 
L 19.671875 43.015625 
L 54.390625 43.015625 
L 54.390625 34.71875 
L 19.671875 34.71875 
L 19.671875 8.296875 
L 56.78125 8.296875 
L 56.78125 0 
L 9.8125 0 
z
" id="DejaVuSans-45"/>
    </defs>
    <g transform="translate(68.25125 16.44)scale(0.12 -0.12)">
     <use xlink:href="#DejaVuSans-53"/>
     <use x="63.476562" xlink:href="#DejaVuSans-4f"/>
     <use x="142.1875" xlink:href="#DejaVuSans-55"/>
     <use x="215.380859" xlink:href="#DejaVuSans-52"/>
     <use x="284.785156" xlink:href="#DejaVuSans-43"/>
     <use x="354.609375" xlink:href="#DejaVuSans-45"/>
    </g>
   </g>
   <g id="text_2">
    <!-- SOURCE_V -->
    <defs>
     <path d="M 50.984375 -16.609375 
L 50.984375 -23.578125 
L -0.984375 -23.578125 
L -0.984375 -16.609375 
z
" id="DejaVuSans-5f"/>
     <path d="M 28.609375 0 
L 0.78125 72.90625 
L 11.078125 72.90625 
L 34.1875 11.53125 
L 57.328125 72.90625 
L 67.578125 72.90625 
L 39.796875 0 
z
" id="DejaVuSans-56"/>
    </defs>
    <g transform="translate(190.746875 16.10625)scale(0.12 -0.12)">
     <use xlink:href="#DejaVuSans-53"/>
     <use x="63.476562" xlink:href="#DejaVuSans-4f"/>
     <use x="142.1875" xlink:href="#DejaVuSans-55"/>
     <use x="215.380859" xlink:href="#DejaVuSans-52"/>
     <use x="284.785156" xlink:href="#DejaVuSans-43"/>
     <use x="354.609375" xlink:href="#DejaVuSans-45"/>
     <use x="417.792969" xlink:href="#DejaVuSans-5f"/>
     <use x="467.792969" xlink:href="#DejaVuSans-56"/>
    </g>
   </g>
   <g id="text_3">
    <!-- SOURCE_I -->
    <defs>
     <path d="M 9.8125 72.90625 
L 19.671875 72.90625 
L 19.671875 0 
L 9.8125 0 
z
" id="DejaVuSans-49"/>
    </defs>
    <g transform="translate(322.68125 16.10625)scale(0.12 -0.12)">
     <use xlink:href="#DejaVuSans-53"/>
     <use x="63.476562" xlink:href="#DejaVuSans-4f"/>
     <use x="142.1875" xlink:href="#DejaVuSans-55"/>
     <use x="215.380859" xlink:href="#DejaVuSans-52"/>
     <use x="284.785156" xlink:href="#DejaVuSans-43"/>
     <use x="354.609375" xlink:href="#DejaVuSans-45"/>
     <use x="417.792969" xlink:href="#DejaVuSans-5f"/>
     <use x="467.792969" xlink:href="#DejaVuSans-49"/>
    </g>
   </g>
   <g id="text_4">
    <!-- SOURCE_SIN -->
    <defs>
     <path d="M 9.8125 72.90625 
L 23.09375 72.90625 
L 55.421875 11.921875 
L 55.421875 72.90625 
L 64.984375 72.90625 
L 64.984375 0 
L 51.703125 0 
L 19.390625 60.984375 
L 19.390625 0 
L 9.8125 0 
z
" id="DejaVuSans-4e"/>
    </defs>
    <g transform="translate(443.983437 16.10625)scale(0.12 -0.12)">
     <use xlink:href="#DejaVuSans-53"/>
     <use x="63.476562" xlink:href="#DejaVuSans-4f"/>
     <use x="142.1875" xlink:href="#DejaVuSans-55"/>
     <use x="215.380859" xlink:href="#DejaVuSans-52"/>
     <use x="284.785156" xlink:href="#DejaVuSans-43"/>
     <use x="354.609375" xlink:href="#DejaVuSans-45"/>
     <use x="417.792969" xlink:href="#DejaVuSans-5f"/>
     <use x="467.792969" xlink:href="#DejaVuSans-53"/>
     <use x="531.269531" xlink:href="#DejaVuSans-49"/>
     <use x="560.761719" xlink:href="#DejaVuSans-4e"/>
    </g>
   </g>
   <g id="text_5">
    <!-- SOURCE_CONT -->
    <defs>
     <path d="M -0.296875 72.90625 
L 61.375 72.90625 
L 61.375 64.59375 
L 35.5 64.59375 
L 35.5 0 
L 25.59375 0 
L 25.59375 64.59375 
L -0.296875 64.59375 
z
" id="DejaVuSans-54"/>
    </defs>
    <g transform="translate(566.585 16.10625)scale(0.12 -0.12)">
     <use xlink:href="#DejaVuSans-53"/>
     <use x="63.476562" xlink:href="#DejaVuSans-4f"/>
     <use x="142.1875" xlink:href="#DejaVuSans-55"/>
     <use x="215.380859" xlink:href="#DejaVuSans-52"/>
     <use x="284.785156" xlink:href="#DejaVuSans-43"/>
     <use x="354.609375" xlink:href="#DejaVuSans-45"/>
     <use x="417.792969" xlink:href="#DejaVuSans-5f"/>
     <use x="467.792969" xlink:href="#DejaVuSans-43"/>
     <use x="537.617188" xlink:href="#DejaVuSans-4f"/>
     <use x="616.328125" xlink:href="#DejaVuSans-4e"/>
     <use x="691.132812" xlink:href="#DejaVuSans-54"/>
    </g>
   </g>
   <g id="text_6">
    <!-- SOURCE_CONT_I -->
    <g transform="translate(43.415 83.42625)scale(0.12 -0.12)">
     <use xlink:href="#DejaVuSans-53"/>
     <use x="63.476562" xlink:href="#DejaVuSans-4f"/>
     <use x="142.1875" xlink:href="#DejaVuSans-55"/>
     <use x="215.380859" xlink:href="#DejaVuSans-52"/>
     <use x="284.785156" xlink:href="#DejaVuSans-43"/>
     <use x="354.609375" xlink:href="#DejaVuSans-45"/>
     <use x="417.792969" xlink:href="#DejaVuSans-5f"/>
     <use x="467.792969" xlink:href="#DejaVuSans-43"/>
     <use x="537.617188" xlink:href="#DejaVuSans-4f"/>
     <use x="616.328125" xlink:href="#DejaVuSans-4e"/>
     <use x="691.132812" xlink:href="#DejaVuSans-54"/>
     <use x="752.216797" xlink:href="#DejaVuSans-5f"/>
     <use x="802.216797" xlink:href="#DejaVuSans-49"/>
    </g>
   </g>
   <g id="text_7">
    <!-- SOURCE_CONT_V -->
    <g transform="translate(170.680625 83.42625)scale(0.12 -0.12)">
     <use xlink:href="#DejaVuSans-53"/>
     <use x="63.476562" xlink:href="#DejaVuSans-4f"/>
     <use x="142.1875" xlink:href="#DejaVuSans-55"/>
     <use x="215.380859" xlink:href="#DejaVuSans-52"/>
     <use x="284.785156" xlink:href="#DejaVuSans-43"/>
     <use x="354.609375" xlink:href="#DejaVuSans-45"/>
     <use x="417.792969" xlink:href="#DejaVuSans-5f"/>
     <use x="467.792969" xlink:href="#DejaVuSans-43"/>
     <use x="537.617188" xlink:href="#DejaVuSans-4f"/>
     <use x="616.328125" xlink:href="#DejaVuSans-4e"/>
     <use x="691.132812" xlink:href="#DejaVuSans-54"/>
     <use x="752.216797" xlink:href="#DejaVuSans-5f"/>
     <use x="802.216797" xlink:href="#DejaVuSans-56"/>
    </g>
   </g>
   <g id="text_8">
    <!-- BAT_CELL -->
    <defs>
     <path d="M 19.671875 34.8125 
L 19.671875 8.109375 
L 35.5 8.109375 
Q 43.453125 8.109375 47.28125 11.40625 
Q 51.125 14.703125 51.125 21.484375 
Q 51.125 28.328125 47.28125 31.5625 
Q 43.453125 34.8125 35.5 34.8125 
z
M 19.671875 64.796875 
L 19.671875 42.828125 
L 34.28125 42.828125 
Q 41.5 42.828125 45.03125 45.53125 
Q 48.578125 48.25 48.578125 53.8125 
Q 48.578125 59.328125 45.03125 62.0625 
Q 41.5 64.796875 34.28125 64.796875 
z
M 9.8125 72.90625 
L 35.015625 72.90625 
Q 46.296875 72.90625 52.390625 68.21875 
Q 58.5 63.53125 58.5 54.890625 
Q 58.5 48.1875 55.375 44.234375 
Q 52.25 40.28125 46.1875 39.3125 
Q 53.46875 37.75 57.5 32.78125 
Q 61.53125 27.828125 61.53125 20.40625 
Q 61.53125 10.640625 54.890625 5.3125 
Q 48.25 0 35.984375 0 
L 9.8125 0 
z
" id="DejaVuSans-42"/>
     <path d="M 34.1875 63.1875 
L 20.796875 26.90625 
L 47.609375 26.90625 
z
M 28.609375 72.90625 
L 39.796875 72.90625 
L 67.578125 0 
L 57.328125 0 
L 50.6875 18.703125 
L 17.828125 18.703125 
L 11.1875 0 
L 0.78125 0 
z
" id="DejaVuSans-41"/>
     <path d="M 9.8125 72.90625 
L 19.671875 72.90625 
L 19.671875 8.296875 
L 55.171875 8.296875 
L 55.171875 0 
L 9.8125 0 
z
" id="DejaVuSans-4c"/>
    </defs>
    <g transform="translate(322.97375 87.25125)scale(0.12 -0.12)">
     <use xlink:href="#DejaVuSans-42"/>
     <use x="68.603516" xlink:href="#DejaVuSans-41"/>
     <use x="136.902344" xlink:href="#DejaVuSans-54"/>
     <use x="197.986328" xlink:href="#DejaVuSans-5f"/>
     <use x="247.986328" xlink:href="#DejaVuSans-43"/>
     <use x="317.810547" xlink:href="#DejaVuSans-45"/>
     <use x="380.994141" xlink:href="#DejaVuSans-4c"/>
     <use x="436.707031" xlink:href="#DejaVuSans-4c"/>
    </g>
   </g>
   <g id="text_9">
    <!-- BATTERY -->
    <defs>
     <path d="M -0.203125 72.90625 
L 10.40625 72.90625 
L 30.609375 42.921875 
L 50.6875 72.90625 
L 61.28125 72.90625 
L 35.5 34.71875 
L 35.5 0 
L 25.59375 0 
L 25.59375 34.71875 
z
" id="DejaVuSans-59"/>
    </defs>
    <g transform="translate(454.957812 87.585)scale(0.12 -0.12)">
     <use xlink:href="#DejaVuSans-42"/>
     <use x="68.603516" xlink:href="#DejaVuSans-41"/>
     <use x="136.902344" xlink:href="#DejaVuSans-54"/>
     <use x="197.970703" xlink:href="#DejaVuSans-54"/>
     <use x="259.054688" xlink:href="#DejaVuSans-45"/>
     <use x="322.238281" xlink:href="#DejaVuSans-52"/>
     <use x="391.626953" xlink:href="#DejaVuSans-59"/>
    </g>
   </g>
   <g id="text_10">
    <!-- LAMP -->
    <defs>
     <path d="M 9.8125 72.90625 
L 24.515625 72.90625 
L 43.109375 23.296875 
L 61.8125 72.90625 
L 76.515625 72.90625 
L 76.515625 0 
L 66.890625 0 
L 66.890625 64.015625 
L 48.09375 14.015625 
L 38.1875 14.015625 
L 19.390625 64.015625 
L 19.390625 0 
L 9.8125 0 
z
" id="DejaVuSans-4d"/>
     <path d="M 19.671875 64.796875 
L 19.671875 37.40625 
L 32.078125 37.40625 
Q 38.96875 37.40625 42.71875 40.96875 
Q 46.484375 44.53125 46.484375 51.125 
Q 46.484375 57.671875 42.71875 61.234375 
Q 38.96875 64.796875 32.078125 64.796875 
z
M 9.8125 72.90625 
L 32.078125 72.90625 
Q 44.34375 72.90625 50.609375 67.359375 
Q 56.890625 61.8125 56.890625 51.125 
Q 56.890625 40.328125 50.609375 34.8125 
Q 44.34375 29.296875 32.078125 29.296875 
L 19.671875 29.296875 
L 19.671875 0 
L 9.8125 0 
z
" id="DejaVuSans-50"/>
    </defs>
    <g transform="translate(595.475937 83.76)scale(0.12 -0.12)">
     <use xlink:href="#DejaVuSans-4c"/>
     <use x="55.744141" xlink:href="#DejaVuSans-41"/>
     <use x="124.152344" xlink:href="#DejaVuSans-4d"/>
     <use x="210.431641" xlink:href="#DejaVuSans-50"/>
    </g>
   </g>
  </g>
 </g>
 <defs>
  <clipPath id="pff626e63a3">
   <rect height="113.832" width="683.64" x="10.7" y="23.219625"/>
  </clipPath>
 </defs>
</svg>
