<?xml version="1.0" encoding="utf-8" standalone="no"?>
<!DOCTYPE svg PUBLIC "-//W3C//DTD SVG 1.1//EN"
  "http://www.w3.org/Graphics/SVG/1.1/DTD/svg11.dtd">
<!-- Created with matplotlib (https://matplotlib.org/) -->
<svg height="137.250312pt" version="1.1" viewBox="0 0 698.04 137.250312" width="698.04pt" xmlns="http://www.w3.org/2000/svg" xmlns:xlink="http://www.w3.org/1999/xlink">
 <defs>
  <style type="text/css">
*{stroke-linecap:butt;stroke-linejoin:round;white-space:pre;}
  </style>
 </defs>
 <g id="figure_1">
  <g id="patch_1">
   <path d="M 0 137.250312 
L 698.04 137.250312 
L 698.04 0 
L 0 0 
z
" style="fill:none;"/>
  </g>
  <g id="axes_1">
   <g id="patch_2">
    <path clip-path="url(#p4f45914a83)" d="M 89.82 59.951562 
C 94.11629 59.951562 98.237194 58.481702 101.27513 55.865702 
C 104.313066 53.249702 106.02 49.701146 106.02 46.001562 
C 106.02 42.301979 104.313066 38.753423 101.27513 36.137423 
C 98.237194 33.521423 94.11629 32.051562 89.82 32.051562 
C 85.52371 32.051562 81.402806 33.521423 78.36487 36.137423 
C 75.326934 38.753423 73.62 42.301979 73.62 46.001562 
C 73.62 49.701146 75.326934 53.249702 78.36487 55.865702 
C 81.402806 58.481702 85.52371 59.951562 89.82 59.951562 
z
" style="fill:none;stroke:#000000;stroke-linejoin:miter;stroke-width:2;"/>
   </g>
   <g id="patch_3">
    <path clip-path="url(#p4f45914a83)" d="M 219.42 59.951562 
C 223.71629 59.951562 227.837194 58.481702 230.87513 55.865702 
C 233.913066 53.249702 235.62 49.701146 235.62 46.001562 
C 235.62 42.301979 233.913066 38.753423 230.87513 36.137423 
C 227.837194 33.521423 223.71629 32.051562 219.42 32.051562 
C 215.12371 32.051562 211.002806 33.521423 207.96487 36.137423 
C 204.926934 38.753423 203.22 42.301979 203.22 46.001562 
C 203.22 49.701146 204.926934 53.249702 207.96487 55.865702 
C 211.002806 58.481702 215.12371 59.951562 219.42 59.951562 
z
" style="fill:none;stroke:#000000;stroke-linejoin:miter;stroke-width:2;"/>
   </g>
   <g id="patch_4">
    <path clip-path="url(#p4f45914a83)" d="M 349.02 59.951562 
C 353.31629 59.951562 357.437194 58.481702 360.47513 55.865702 
C 363.513066 53.249702 365.22 49.701146 365.22 46.001562 
C 365.22 42.301979 363.513066 38.753423 360.47513 36.137423 
C 357.437194 33.521423 353.31629 32.051562 349.02 32.051562 
C 344.72371 32.051562 340.602806 33.521423 337.56487 36.137423 
C 334.526934 38.753423 332.82 42.301979 332.82 46.001562 
C 332.82 49.701146 334.526934 53.249702 337.56487 55.865702 
C 340.602806 58.481702 344.72371 59.951562 349.02 59.951562 
z
" style="fill:none;stroke:#000000;stroke-linejoin:miter;stroke-width:2;"/>
   </g>
   <g id="patch_5">
    <path clip-path="url(#p4f45914a83)" d="M 478.62 59.951562 
C 482.91629 59.951562 487.037194 58.481702 490.07513 55.865702 
C 493.113066 53.249702 494.82 49.701146 494.82 46.001562 
C 494.82 42.301979 493.113066 38.753423 490.07513 36.137423 
C 487.037194 33.521423 482.91629 32.051562 478.62 32.051562 
C 474.32371 32.051562 470.202806 33.521423 467.16487 36.137423 
C 464.126934 38.753423 462.42 42.301979 462.42 46.001562 
C 462.42 49.701146 464.126934 53.249702 467.16487 55.865702 
C 470.202806 58.481702 474.32371 59.951562 478.62 59.951562 
z
" style="fill:none;stroke:#000000;stroke-linejoin:miter;stroke-width:2;"/>
   </g>
   <g id="patch_6">
    <path clip-path="url(#p4f45914a83)" d="M 608.22 122.726562 
C 612.51629 122.726562 616.637194 121.256702 619.67513 118.640702 
C 622.713066 116.024702 624.42 112.476146 624.42 108.776562 
C 624.42 105.076979 622.713066 101.528423 619.67513 98.912423 
C 616.637194 96.296423 612.51629 94.826562 608.22 94.826562 
C 603.92371 94.826562 599.802806 96.296423 596.76487 98.912423 
C 593.726934 101.528423 592.02 105.076979 592.02 108.776562 
C 592.02 112.476146 593.726934 116.024702 596.76487 118.640702 
C 599.802806 121.256702 603.92371 122.726562 608.22 122.726562 
z
" style="fill:none;stroke:#000000;stroke-linejoin:miter;stroke-width:2;"/>
   </g>
   <g id="patch_7">
    <path clip-path="url(#p4f45914a83)" d="M 357.12 46.001562 
L 350.64 47.396562 
L 350.64 46.015512 
L 340.92 46.015512 
L 340.92 45.987612 
L 350.64 45.987612 
L 350.64 44.606562 
z
" style="stroke:#000000;stroke-linejoin:miter;stroke-width:2;"/>
   </g>
   <g id="patch_8">
    <path clip-path="url(#p4f45914a83)" d="M 97.92 108.776562 
L 91.44 110.171562 
L 91.44 108.790512 
L 81.72 108.790512 
L 81.72 108.762612 
L 91.44 108.762612 
L 91.44 107.381562 
z
" style="stroke:#000000;stroke-linejoin:miter;stroke-width:2;"/>
   </g>
   <g id="line2d_1">
    <path clip-path="url(#p4f45914a83)" d="M 41.22 46.001562 
L 73.62 46.001562 
L 73.62 46.001562 
M 106.02 46.001562 
L 106.02 46.001562 
L 138.42 46.001562 
" style="fill:none;stroke:#000000;stroke-linecap:round;stroke-width:2;"/>
   </g>
   <g id="line2d_2">
    <path clip-path="url(#p4f45914a83)" d="M 211.32 48.791562 
L 211.32 43.211562 
" style="fill:none;stroke:#000000;stroke-linecap:round;stroke-width:2;"/>
   </g>
   <g id="line2d_3">
    <path clip-path="url(#p4f45914a83)" d="M 224.28 46.001562 
L 230.76 46.001562 
" style="fill:none;stroke:#000000;stroke-linecap:round;stroke-width:2;"/>
   </g>
   <g id="line2d_4">
    <path clip-path="url(#p4f45914a83)" d="M 227.52 48.791562 
L 227.52 43.211562 
" style="fill:none;stroke:#000000;stroke-linecap:round;stroke-width:2;"/>
   </g>
   <g id="line2d_5">
    <path clip-path="url(#p4f45914a83)" d="M 170.82 46.001562 
L 203.22 46.001562 
L 203.22 46.001562 
M 235.62 46.001562 
L 235.62 46.001562 
L 268.02 46.001562 
" style="fill:none;stroke:#000000;stroke-linecap:round;stroke-width:2;"/>
   </g>
   <g id="line2d_6">
    <path clip-path="url(#p4f45914a83)" d="M 300.42 46.001562 
L 332.82 46.001562 
L 332.82 46.001562 
M 365.22 46.001562 
L 365.22 46.001562 
L 397.62 46.001562 
" style="fill:none;stroke:#000000;stroke-linecap:round;stroke-width:2;"/>
   </g>
   <g id="line2d_7">
    <path clip-path="url(#p4f45914a83)" d="M 478.62 52.976562 
L 480.297147 52.395312 
L 481.86 51.814062 
L 483.202052 51.232812 
L 484.231845 50.651562 
L 484.879199 50.070312 
L 485.1 49.489062 
L 484.879199 48.907812 
L 484.231845 48.326562 
L 483.202052 47.745312 
L 481.86 47.164062 
L 480.297147 46.582812 
L 478.62 46.001562 
L 476.942853 45.420312 
L 475.38 44.839062 
L 474.037948 44.257812 
L 473.008155 43.676562 
L 472.360801 43.095312 
L 472.14 42.514062 
L 472.360801 41.932812 
L 473.008155 41.351562 
L 474.037948 40.770312 
L 475.38 40.189062 
L 476.942853 39.607812 
L 478.62 39.026562 
" style="fill:none;stroke:#000000;stroke-linecap:round;stroke-width:2;"/>
   </g>
   <g id="line2d_8">
    <path clip-path="url(#p4f45914a83)" d="M 430.02 46.001562 
L 462.42 46.001562 
L 462.42 46.001562 
M 494.82 46.001562 
L 494.82 46.001562 
L 527.22 46.001562 
" style="fill:none;stroke:#000000;stroke-linecap:round;stroke-width:2;"/>
   </g>
   <g id="line2d_9">
    <path clip-path="url(#p4f45914a83)" d="M 559.62 46.001562 
L 592.02 46.001562 
L 608.22 32.051562 
L 624.42 46.001562 
L 608.22 59.951562 
L 592.02 46.001562 
M 624.42 46.001562 
L 656.82 46.001562 
" style="fill:none;stroke:#000000;stroke-linecap:round;stroke-width:2;"/>
   </g>
   <g id="line2d_10">
    <path clip-path="url(#p4f45914a83)" d="M 41.22 108.776562 
L 73.62 108.776562 
L 89.82 94.826562 
L 106.02 108.776562 
L 89.82 122.726562 
L 73.62 108.776562 
M 106.02 108.776562 
L 138.42 108.776562 
" style="fill:none;stroke:#000000;stroke-linecap:round;stroke-width:2;"/>
   </g>
   <g id="line2d_11">
    <path clip-path="url(#p4f45914a83)" d="M 211.32 111.566562 
L 211.32 105.986562 
" style="fill:none;stroke:#000000;stroke-linecap:round;stroke-width:2;"/>
   </g>
   <g id="line2d_12">
    <path clip-path="url(#p4f45914a83)" d="M 224.28 108.776562 
L 230.76 108.776562 
" style="fill:none;stroke:#000000;stroke-linecap:round;stroke-width:2;"/>
   </g>
   <g id="line2d_13">
    <path clip-path="url(#p4f45914a83)" d="M 227.52 111.566562 
L 227.52 105.986562 
" style="fill:none;stroke:#000000;stroke-linecap:round;stroke-width:2;"/>
   </g>
   <g id="line2d_14">
    <path clip-path="url(#p4f45914a83)" d="M 170.82 108.776562 
L 203.22 108.776562 
L 219.42 94.826562 
L 235.62 108.776562 
L 219.42 122.726562 
L 203.22 108.776562 
M 235.62 108.776562 
L 268.02 108.776562 
" style="fill:none;stroke:#000000;stroke-linecap:round;stroke-width:2;"/>
   </g>
   <g id="line2d_15">
    <path clip-path="url(#p4f45914a83)" d="M 345.9825 98.314062 
L 345.9825 119.239062 
" style="fill:none;stroke:#000000;stroke-linecap:round;stroke-width:2;"/>
   </g>
   <g id="line2d_16">
    <path clip-path="url(#p4f45914a83)" d="M 352.0575 103.545312 
L 352.0575 114.007812 
" style="fill:none;stroke:#000000;stroke-linecap:round;stroke-width:2;"/>
   </g>
   <g id="line2d_17">
    <path clip-path="url(#p4f45914a83)" d="M 300.42 108.776562 
L 345.9825 108.776562 
M 352.0575 108.776562 
L 397.62 108.776562 
" style="fill:none;stroke:#000000;stroke-linecap:round;stroke-width:2;"/>
   </g>
   <g id="line2d_18">
    <path clip-path="url(#p4f45914a83)" d="M 469.5075 98.314062 
L 469.5075 119.239062 
" style="fill:none;stroke:#000000;stroke-linecap:round;stroke-width:2;"/>
   </g>
   <g id="line2d_19">
    <path clip-path="url(#p4f45914a83)" d="M 475.5825 103.545312 
L 475.5825 114.007812 
" style="fill:none;stroke:#000000;stroke-linecap:round;stroke-width:2;"/>
   </g>
   <g id="line2d_20">
    <path clip-path="url(#p4f45914a83)" d="M 481.6575 98.314062 
L 481.6575 119.239062 
" style="fill:none;stroke:#000000;stroke-linecap:round;stroke-width:2;"/>
   </g>
   <g id="line2d_21">
    <path clip-path="url(#p4f45914a83)" d="M 487.7325 103.545312 
L 487.7325 114.007812 
" style="fill:none;stroke:#000000;stroke-linecap:round;stroke-width:2;"/>
   </g>
   <g id="line2d_22">
    <path clip-path="url(#p4f45914a83)" d="M 430.02 108.776562 
L 469.5075 108.776562 
M 487.7325 108.776562 
L 527.22 108.776562 
" style="fill:none;stroke:#000000;stroke-linecap:round;stroke-width:2;"/>
   </g>
   <g id="line2d_23">
    <path clip-path="url(#p4f45914a83)" d="M 592.02 108.776562 
L 592.160218 108.291593 
L 592.359525 107.803172 
L 592.618044 107.316187 
L 592.935304 106.835514 
L 593.310247 106.365965 
L 593.741238 105.912242 
L 594.226078 105.478887 
L 594.762032 105.070237 
L 595.345852 104.690385 
L 595.973811 104.343132 
L 596.641739 104.031956 
L 597.345069 103.759972 
L 598.078875 103.529902 
L 598.837929 103.34405 
L 599.616751 103.204277 
L 600.40966 103.111982 
L 601.210837 103.068088 
L 602.014378 103.073036 
L 602.814356 103.126775 
L 603.60488 103.228768 
L 604.380155 103.377994 
L 605.134535 103.572959 
L 605.862587 103.81171 
L 606.559139 104.091858 
L 607.219336 104.410598 
L 607.838685 104.764739 
L 608.413105 105.150736 
L 608.938961 105.564724 
L 609.413109 106.002558 
L 609.832917 106.459856 
L 610.196301 106.932039 
L 610.501741 107.41438 
L 610.748297 107.902051 
L 610.935617 108.390168 
L 611.063946 108.873846 
L 611.134114 109.348241 
L 611.147538 109.808606 
L 611.106201 110.25033 
L 611.012634 110.668992 
L 610.869892 111.0604 
L 610.681522 111.420636 
L 610.451527 111.746093 
L 610.184328 112.033514 
L 609.884716 112.28002 
L 609.55781 112.483143 
L 609.208999 112.640851 
L 608.843894 112.751565 
L 608.468268 112.814175 
L 608.087998 112.828056 
L 607.70901 112.793067 
L 607.337214 112.70956 
L 606.978452 112.578371 
L 606.638432 112.400813 
L 606.322677 112.178663 
L 606.036464 111.914145 
L 605.784778 111.609909 
L 605.572255 111.268998 
L 605.403141 110.894827 
L 605.281247 110.491142 
L 605.20991 110.061983 
L 605.191963 109.611648 
L 605.229703 109.144644 
L 605.324869 108.665647 
L 605.478627 108.179452 
L 605.691556 107.690928 
L 605.96364 107.204964 
L 606.294274 106.726425 
L 606.682266 106.260103 
L 607.125849 105.810667 
L 607.6227 105.382614 
L 608.169962 104.980232 
L 608.764274 104.607548 
L 609.401805 104.268293 
L 610.078288 103.965863 
L 610.789071 103.703287 
L 611.529153 103.483193 
L 612.293245 103.307785 
L 613.075814 103.178818 
L 613.871142 103.097584 
L 614.673387 103.064896 
L 615.476633 103.081081 
L 616.274957 103.145978 
L 617.062485 103.258936 
L 617.833449 103.418824 
L 618.58225 103.624043 
L 619.303508 103.872536 
L 619.992121 104.161818 
L 620.643312 104.488991 
L 621.252679 104.850781 
L 621.81624 105.243564 
L 622.330471 105.66341 
L 622.792341 106.106114 
L 623.199344 106.567245 
L 623.549523 107.042186 
L 623.84149 107.526182 
L 624.074439 108.014388 
L 624.248157 108.501917 
L 624.363021 108.983887 
L 624.42 109.455473 
" style="fill:none;stroke:#000000;stroke-linecap:round;stroke-width:2;"/>
   </g>
   <g id="line2d_24">
    <path clip-path="url(#p4f45914a83)" d="M 559.62 108.776562 
L 592.02 108.776562 
L 592.02 108.776562 
M 624.42 108.776562 
L 624.42 108.776562 
L 656.82 108.776562 
" style="fill:none;stroke:#000000;stroke-linecap:round;stroke-width:2;"/>
   </g>
   <g id="text_1">
    <!-- SOURCE -->
    <defs>
     <path d="M 53.515625 70.515625 
L 53.515625 60.890625 
Q 47.90625 63.578125 42.921875 64.890625 
Q 37.9375 66.21875 33.296875 66.21875 
Q 25.25 66.21875 20.875 63.09375 
Q 16.5 59.96875 16.5 54.203125 
Q 16.5 49.359375 19.40625 46.890625 
Q 22.3125 44.4375 30.421875 42.921875 
L 36.375 41.703125 
Q 47.40625 39.59375 52.65625 34.296875 
Q 57.90625 29 57.90625 20.125 
Q 57.90625 9.515625 50.796875 4.046875 
Q 43.703125 -1.421875 29.984375 -1.421875 
Q 24.8125 -1.421875 18.96875 -0.25 
Q 13.140625 0.921875 6.890625 3.21875 
L 6.890625 13.375 
Q 12.890625 10.015625 18.65625 8.296875 
Q 24.421875 6.59375 29.984375 6.59375 
Q 38.421875 6.59375 43.015625 9.90625 
Q 47.609375 13.234375 47.609375 19.390625 
Q 47.609375 24.75 44.3125 27.78125 
Q 41.015625 30.8125 33.5 32.328125 
L 27.484375 33.5 
Q 16.453125 35.6875 11.515625 40.375 
Q 6.59375 45.0625 6.59375 53.421875 
Q 6.59375 63.09375 13.40625 68.65625 
Q 20.21875 74.21875 32.171875 74.21875 
Q 37.3125 74.21875 42.625 73.28125 
Q 47.953125 72.359375 53.515625 70.515625 
z
" id="DejaVuSans-83"/>
     <path d="M 39.40625 66.21875 
Q 28.65625 66.21875 22.328125 58.203125 
Q 16.015625 50.203125 16.015625 36.375 
Q 16.015625 22.609375 22.328125 14.59375 
Q 28.65625 6.59375 39.40625 6.59375 
Q 50.140625 6.59375 56.421875 14.59375 
Q 62.703125 22.609375 62.703125 36.375 
Q 62.703125 50.203125 56.421875 58.203125 
Q 50.140625 66.21875 39.40625 66.21875 
z
M 39.40625 74.21875 
Q 54.734375 74.21875 63.90625 63.9375 
Q 73.09375 53.65625 73.09375 36.375 
Q 73.09375 19.140625 63.90625 8.859375 
Q 54.734375 -1.421875 39.40625 -1.421875 
Q 24.03125 -1.421875 14.8125 8.828125 
Q 5.609375 19.09375 5.609375 36.375 
Q 5.609375 53.65625 14.8125 63.9375 
Q 24.03125 74.21875 39.40625 74.21875 
z
" id="DejaVuSans-79"/>
     <path d="M 8.6875 72.90625 
L 18.609375 72.90625 
L 18.609375 28.609375 
Q 18.609375 16.890625 22.84375 11.734375 
Q 27.09375 6.59375 36.625 6.59375 
Q 46.09375 6.59375 50.34375 11.734375 
Q 54.59375 16.890625 54.59375 28.609375 
L 54.59375 72.90625 
L 64.5 72.90625 
L 64.5 27.390625 
Q 64.5 13.140625 57.4375 5.859375 
Q 50.390625 -1.421875 36.625 -1.421875 
Q 22.796875 -1.421875 15.734375 5.859375 
Q 8.6875 13.140625 8.6875 27.390625 
z
" id="DejaVuSans-85"/>
     <path d="M 44.390625 34.1875 
Q 47.5625 33.109375 50.5625 29.59375 
Q 53.5625 26.078125 56.59375 19.921875 
L 66.609375 0 
L 56 0 
L 46.6875 18.703125 
Q 43.0625 26.03125 39.671875 28.421875 
Q 36.28125 30.8125 30.421875 30.8125 
L 19.671875 30.8125 
L 19.671875 0 
L 9.8125 0 
L 9.8125 72.90625 
L 32.078125 72.90625 
Q 44.578125 72.90625 50.734375 67.671875 
Q 56.890625 62.453125 56.890625 51.90625 
Q 56.890625 45.015625 53.6875 40.46875 
Q 50.484375 35.9375 44.390625 34.1875 
z
M 19.671875 64.796875 
L 19.671875 38.921875 
L 32.078125 38.921875 
Q 39.203125 38.921875 42.84375 42.21875 
Q 46.484375 45.515625 46.484375 51.90625 
Q 46.484375 58.296875 42.84375 61.546875 
Q 39.203125 64.796875 32.078125 64.796875 
z
" id="DejaVuSans-82"/>
     <path d="M 64.40625 67.28125 
L 64.40625 56.890625 
Q 59.421875 61.53125 53.78125 63.8125 
Q 48.140625 66.109375 41.796875 66.109375 
Q 29.296875 66.109375 22.65625 58.46875 
Q 16.015625 50.828125 16.015625 36.375 
Q 16.015625 21.96875 22.65625 14.328125 
Q 29.296875 6.6875 41.796875 6.6875 
Q 48.140625 6.6875 53.78125 8.984375 
Q 59.421875 11.28125 64.40625 15.921875 
L 64.40625 5.609375 
Q 59.234375 2.09375 53.4375 0.328125 
Q 47.65625 -1.421875 41.21875 -1.421875 
Q 24.65625 -1.421875 15.125 8.703125 
Q 5.609375 18.84375 5.609375 36.375 
Q 5.609375 53.953125 15.125 64.078125 
Q 24.65625 74.21875 41.21875 74.21875 
Q 47.75 74.21875 53.53125 72.484375 
Q 59.328125 70.75 64.40625 67.28125 
z
" id="DejaVuSans-67"/>
     <path d="M 9.8125 72.90625 
L 55.90625 72.90625 
L 55.90625 64.59375 
L 19.671875 64.59375 
L 19.671875 43.015625 
L 54.390625 43.015625 
L 54.390625 34.71875 
L 19.671875 34.71875 
L 19.671875 8.296875 
L 56.78125 8.296875 
L 56.78125 0 
L 9.8125 0 
z
" id="DejaVuSans-69"/>
    </defs>
    <g transform="translate(60.573125 17.98)scale(0.14 -0.14)">
     <use xlink:href="#DejaVuSans-83"/>
     <use x="63.476562" xlink:href="#DejaVuSans-79"/>
     <use x="142.1875" xlink:href="#DejaVuSans-85"/>
     <use x="215.380859" xlink:href="#DejaVuSans-82"/>
     <use x="284.785156" xlink:href="#DejaVuSans-67"/>
     <use x="354.609375" xlink:href="#DejaVuSans-69"/>
    </g>
   </g>
   <g id="text_2">
    <!-- SOURCE_V -->
    <defs>
     <path d="M 50.984375 -16.609375 
L 50.984375 -23.578125 
L -0.984375 -23.578125 
L -0.984375 -16.609375 
z
" id="DejaVuSans-95"/>
     <path d="M 28.609375 0 
L 0.78125 72.90625 
L 11.078125 72.90625 
L 34.1875 11.53125 
L 57.328125 72.90625 
L 67.578125 72.90625 
L 39.796875 0 
z
" id="DejaVuSans-86"/>
    </defs>
    <g transform="translate(181.884687 17.590625)scale(0.14 -0.14)">
     <use xlink:href="#DejaVuSans-83"/>
     <use x="63.476562" xlink:href="#DejaVuSans-79"/>
     <use x="142.1875" xlink:href="#DejaVuSans-85"/>
     <use x="215.380859" xlink:href="#DejaVuSans-82"/>
     <use x="284.785156" xlink:href="#DejaVuSans-67"/>
     <use x="354.609375" xlink:href="#DejaVuSans-69"/>
     <use x="417.792969" xlink:href="#DejaVuSans-95"/>
     <use x="467.792969" xlink:href="#DejaVuSans-86"/>
    </g>
   </g>
   <g id="text_3">
    <!-- SOURCE_I -->
    <defs>
     <path d="M 9.8125 72.90625 
L 19.671875 72.90625 
L 19.671875 0 
L 9.8125 0 
z
" id="DejaVuSans-73"/>
    </defs>
    <g transform="translate(314.208125 17.590625)scale(0.14 -0.14)">
     <use xlink:href="#DejaVuSans-83"/>
     <use x="63.476562" xlink:href="#DejaVuSans-79"/>
     <use x="142.1875" xlink:href="#DejaVuSans-85"/>
     <use x="215.380859" xlink:href="#DejaVuSans-82"/>
     <use x="284.785156" xlink:href="#DejaVuSans-67"/>
     <use x="354.609375" xlink:href="#DejaVuSans-69"/>
     <use x="417.792969" xlink:href="#DejaVuSans-95"/>
     <use x="467.792969" xlink:href="#DejaVuSans-73"/>
    </g>
   </g>
   <g id="text_4">
    <!-- SOURCE_SIN -->
    <defs>
     <path d="M 9.8125 72.90625 
L 23.09375 72.90625 
L 55.421875 11.921875 
L 55.421875 72.90625 
L 64.984375 72.90625 
L 64.984375 0 
L 51.703125 0 
L 19.390625 60.984375 
L 19.390625 0 
L 9.8125 0 
z
" id="DejaVuSans-78"/>
    </defs>
    <g transform="translate(434.127344 17.590625)scale(0.14 -0.14)">
     <use xlink:href="#DejaVuSans-83"/>
     <use x="63.476562" xlink:href="#DejaVuSans-79"/>
     <use x="142.1875" xlink:href="#DejaVuSans-85"/>
     <use x="215.380859" xlink:href="#DejaVuSans-82"/>
     <use x="284.785156" xlink:href="#DejaVuSans-67"/>
     <use x="354.609375" xlink:href="#DejaVuSans-69"/>
     <use x="417.792969" xlink:href="#DejaVuSans-95"/>
     <use x="467.792969" xlink:href="#DejaVuSans-83"/>
     <use x="531.269531" xlink:href="#DejaVuSans-73"/>
     <use x="560.761719" xlink:href="#DejaVuSans-78"/>
    </g>
   </g>
   <g id="text_5">
    <!-- SOURCE_CONT -->
    <defs>
     <path d="M -0.296875 72.90625 
L 61.375 72.90625 
L 61.375 64.59375 
L 35.5 64.59375 
L 35.5 0 
L 25.59375 0 
L 25.59375 64.59375 
L -0.296875 64.59375 
z
" id="DejaVuSans-84"/>
    </defs>
    <g transform="translate(555.5625 17.590625)scale(0.14 -0.14)">
     <use xlink:href="#DejaVuSans-83"/>
     <use x="63.476562" xlink:href="#DejaVuSans-79"/>
     <use x="142.1875" xlink:href="#DejaVuSans-85"/>
     <use x="215.380859" xlink:href="#DejaVuSans-82"/>
     <use x="284.785156" xlink:href="#DejaVuSans-67"/>
     <use x="354.609375" xlink:href="#DejaVuSans-69"/>
     <use x="417.792969" xlink:href="#DejaVuSans-95"/>
     <use x="467.792969" xlink:href="#DejaVuSans-67"/>
     <use x="537.617188" xlink:href="#DejaVuSans-79"/>
     <use x="616.328125" xlink:href="#DejaVuSans-78"/>
     <use x="691.132812" xlink:href="#DejaVuSans-84"/>
    </g>
   </g>
   <g id="text_6">
    <!-- SOURCE_CONT_I -->
    <g transform="translate(31.5975 80.365625)scale(0.14 -0.14)">
     <use xlink:href="#DejaVuSans-83"/>
     <use x="63.476562" xlink:href="#DejaVuSans-79"/>
     <use x="142.1875" xlink:href="#DejaVuSans-85"/>
     <use x="215.380859" xlink:href="#DejaVuSans-82"/>
     <use x="284.785156" xlink:href="#DejaVuSans-67"/>
     <use x="354.609375" xlink:href="#DejaVuSans-69"/>
     <use x="417.792969" xlink:href="#DejaVuSans-95"/>
     <use x="467.792969" xlink:href="#DejaVuSans-67"/>
     <use x="537.617188" xlink:href="#DejaVuSans-79"/>
     <use x="616.328125" xlink:href="#DejaVuSans-78"/>
     <use x="691.132812" xlink:href="#DejaVuSans-84"/>
     <use x="752.216797" xlink:href="#DejaVuSans-95"/>
     <use x="802.216797" xlink:href="#DejaVuSans-73"/>
    </g>
   </g>
   <g id="text_7">
    <!-- SOURCE_CONT_V -->
    <g transform="translate(158.474062 80.365625)scale(0.14 -0.14)">
     <use xlink:href="#DejaVuSans-83"/>
     <use x="63.476562" xlink:href="#DejaVuSans-79"/>
     <use x="142.1875" xlink:href="#DejaVuSans-85"/>
     <use x="215.380859" xlink:href="#DejaVuSans-82"/>
     <use x="284.785156" xlink:href="#DejaVuSans-67"/>
     <use x="354.609375" xlink:href="#DejaVuSans-69"/>
     <use x="417.792969" xlink:href="#DejaVuSans-95"/>
     <use x="467.792969" xlink:href="#DejaVuSans-67"/>
     <use x="537.617188" xlink:href="#DejaVuSans-79"/>
     <use x="616.328125" xlink:href="#DejaVuSans-78"/>
     <use x="691.132812" xlink:href="#DejaVuSans-84"/>
     <use x="752.216797" xlink:href="#DejaVuSans-95"/>
     <use x="802.216797" xlink:href="#DejaVuSans-86"/>
    </g>
   </g>
   <g id="text_8">
    <!-- BAT_CELL -->
    <defs>
     <path d="M 19.671875 34.8125 
L 19.671875 8.109375 
L 35.5 8.109375 
Q 43.453125 8.109375 47.28125 11.40625 
Q 51.125 14.703125 51.125 21.484375 
Q 51.125 28.328125 47.28125 31.5625 
Q 43.453125 34.8125 35.5 34.8125 
z
M 19.671875 64.796875 
L 19.671875 42.828125 
L 34.28125 42.828125 
Q 41.5 42.828125 45.03125 45.53125 
Q 48.578125 48.25 48.578125 53.8125 
Q 48.578125 59.328125 45.03125 62.0625 
Q 41.5 64.796875 34.28125 64.796875 
z
M 9.8125 72.90625 
L 35.015625 72.90625 
Q 46.296875 72.90625 52.390625 68.21875 
Q 58.5 63.53125 58.5 54.890625 
Q 58.5 48.1875 55.375 44.234375 
Q 52.25 40.28125 46.1875 39.3125 
Q 53.46875 37.75 57.5 32.78125 
Q 61.53125 27.828125 61.53125 20.40625 
Q 61.53125 10.640625 54.890625 5.3125 
Q 48.25 0 35.984375 0 
L 9.8125 0 
z
" id="DejaVuSans-66"/>
     <path d="M 34.1875 63.1875 
L 20.796875 26.90625 
L 47.609375 26.90625 
z
M 28.609375 72.90625 
L 39.796875 72.90625 
L 67.578125 0 
L 57.328125 0 
L 50.6875 18.703125 
L 17.828125 18.703125 
L 11.1875 0 
L 0.78125 0 
z
" id="DejaVuSans-65"/>
     <path d="M 9.8125 72.90625 
L 19.671875 72.90625 
L 19.671875 8.296875 
L 55.171875 8.296875 
L 55.171875 0 
L 9.8125 0 
z
" id="DejaVuSans-76"/>
    </defs>
    <g transform="translate(314.549375 83.853125)scale(0.14 -0.14)">
     <use xlink:href="#DejaVuSans-66"/>
     <use x="68.603516" xlink:href="#DejaVuSans-65"/>
     <use x="136.902344" xlink:href="#DejaVuSans-84"/>
     <use x="197.986328" xlink:href="#DejaVuSans-95"/>
     <use x="247.986328" xlink:href="#DejaVuSans-67"/>
     <use x="317.810547" xlink:href="#DejaVuSans-69"/>
     <use x="380.994141" xlink:href="#DejaVuSans-76"/>
     <use x="436.707031" xlink:href="#DejaVuSans-76"/>
    </g>
   </g>
   <g id="text_9">
    <!-- BATTERY -->
    <defs>
     <path d="M -0.203125 72.90625 
L 10.40625 72.90625 
L 30.609375 42.921875 
L 50.6875 72.90625 
L 61.28125 72.90625 
L 35.5 34.71875 
L 35.5 0 
L 25.59375 0 
L 25.59375 34.71875 
z
" id="DejaVuSans-89"/>
    </defs>
    <g transform="translate(446.930781 84.2425)scale(0.14 -0.14)">
     <use xlink:href="#DejaVuSans-66"/>
     <use x="68.603516" xlink:href="#DejaVuSans-65"/>
     <use x="136.902344" xlink:href="#DejaVuSans-84"/>
     <use x="197.970703" xlink:href="#DejaVuSans-84"/>
     <use x="259.054688" xlink:href="#DejaVuSans-69"/>
     <use x="322.238281" xlink:href="#DejaVuSans-82"/>
     <use x="391.626953" xlink:href="#DejaVuSans-89"/>
    </g>
   </g>
   <g id="text_10">
    <!-- LAMP -->
    <defs>
     <path d="M 9.8125 72.90625 
L 24.515625 72.90625 
L 43.109375 23.296875 
L 61.8125 72.90625 
L 76.515625 72.90625 
L 76.515625 0 
L 66.890625 0 
L 66.890625 64.015625 
L 48.09375 14.015625 
L 38.1875 14.015625 
L 19.390625 64.015625 
L 19.390625 0 
L 9.8125 0 
z
" id="DejaVuSans-77"/>
     <path d="M 19.671875 64.796875 
L 19.671875 37.40625 
L 32.078125 37.40625 
Q 38.96875 37.40625 42.71875 40.96875 
Q 46.484375 44.53125 46.484375 51.125 
Q 46.484375 57.671875 42.71875 61.234375 
Q 38.96875 64.796875 32.078125 64.796875 
z
M 9.8125 72.90625 
L 32.078125 72.90625 
Q 44.34375 72.90625 50.609375 67.359375 
Q 56.890625 61.8125 56.890625 51.125 
Q 56.890625 40.328125 50.609375 34.8125 
Q 44.34375 29.296875 32.078125 29.296875 
L 19.671875 29.296875 
L 19.671875 0 
L 9.8125 0 
z
" id="DejaVuSans-80"/>
    </defs>
    <g transform="translate(589.268594 80.755)scale(0.14 -0.14)">
     <use xlink:href="#DejaVuSans-76"/>
     <use x="55.744141" xlink:href="#DejaVuSans-65"/>
     <use x="124.152344" xlink:href="#DejaVuSans-77"/>
     <use x="210.431641" xlink:href="#DejaVuSans-80"/>
    </g>
   </g>
  </g>
 </g>
 <defs>
  <clipPath id="p4f45914a83">
   <rect height="105.3225" width="683.64" x="7.2" y="24.727812"/>
  </clipPath>
 </defs>
</svg>
