<?xml version="1.0" encoding="utf-8" standalone="no"?>
<!DOCTYPE svg PUBLIC "-//W3C//DTD SVG 1.1//EN"
  "http://www.w3.org/Graphics/SVG/1.1/DTD/svg11.dtd">
<!-- Created with matplotlib (https://matplotlib.org/) -->
<svg height="133.829625pt" version="1.1" viewBox="0 0 698.04 133.829625" width="698.04pt" xmlns="http://www.w3.org/2000/svg" xmlns:xlink="http://www.w3.org/1999/xlink">
 <defs>
  <style type="text/css">
*{stroke-linecap:butt;stroke-linejoin:round;}
  </style>
 </defs>
 <g id="figure_1">
  <g id="patch_1">
   <path d="M 0 133.829625 
L 698.04 133.829625 
L 698.04 0 
L 0 0 
z
" style="fill:none;"/>
  </g>
  <g id="axes_1">
   <g id="patch_2">
    <path clip-path="url(#pce85991d01)" d="M 340.92 44.045625 
L 347.4 42.650625 
L 347.4 44.031675 
L 357.12 44.031675 
L 357.12 44.059575 
L 347.4 44.059575 
L 347.4 45.440625 
z
" style="stroke:#000000;stroke-linejoin:miter;stroke-width:1.5;"/>
   </g>
   <g id="patch_3">
    <path clip-path="url(#pce85991d01)" d="M 81.72 105.425625 
L 88.2 104.030625 
L 88.2 105.411675 
L 97.92 105.411675 
L 97.92 105.439575 
L 88.2 105.439575 
L 88.2 106.820625 
z
" style="stroke:#000000;stroke-linejoin:miter;stroke-width:1.5;"/>
   </g>
   <g id="line2d_1">
    <path clip-path="url(#pce85991d01)" d="M 41.22 44.045625 
L 73.62 44.045625 
L 73.62 44.045625 
M 106.02 44.045625 
L 106.02 44.045625 
L 138.42 44.045625 
" style="fill:none;stroke:#000000;stroke-linecap:round;stroke-width:1.5;"/>
   </g>
   <g id="line2d_2">
    <path clip-path="url(#pce85991d01)" d="M 170.82 44.045625 
L 203.22 44.045625 
L 203.22 44.045625 
M 235.62 44.045625 
L 235.62 44.045625 
L 268.02 44.045625 
" style="fill:none;stroke:#000000;stroke-linecap:round;stroke-width:1.5;"/>
   </g>
   <g id="line2d_3">
    <path clip-path="url(#pce85991d01)" d="M 211.32 46.835625 
L 211.32 41.255625 
" style="fill:none;stroke:#000000;stroke-linecap:round;stroke-width:1.5;"/>
   </g>
   <g id="line2d_4">
    <path clip-path="url(#pce85991d01)" d="M 224.28 44.045625 
L 230.76 44.045625 
" style="fill:none;stroke:#000000;stroke-linecap:round;stroke-width:1.5;"/>
   </g>
   <g id="line2d_5">
    <path clip-path="url(#pce85991d01)" d="M 227.52 46.835625 
L 227.52 41.255625 
" style="fill:none;stroke:#000000;stroke-linecap:round;stroke-width:1.5;"/>
   </g>
   <g id="line2d_6">
    <path clip-path="url(#pce85991d01)" d="M 300.42 44.045625 
L 332.82 44.045625 
L 332.82 44.045625 
M 365.22 44.045625 
L 365.22 44.045625 
L 397.62 44.045625 
" style="fill:none;stroke:#000000;stroke-linecap:round;stroke-width:1.5;"/>
   </g>
   <g id="line2d_7">
    <path clip-path="url(#pce85991d01)" d="M 430.02 44.045625 
L 462.42 44.045625 
L 462.42 44.045625 
M 494.82 44.045625 
L 494.82 44.045625 
L 527.22 44.045625 
" style="fill:none;stroke:#000000;stroke-linecap:round;stroke-width:1.5;"/>
   </g>
   <g id="line2d_8">
    <path clip-path="url(#pce85991d01)" d="M 478.62 51.020625 
L 480.297147 50.439375 
L 481.86 49.858125 
L 483.202052 49.276875 
L 484.231845 48.695625 
L 484.879199 48.114375 
L 485.1 47.533125 
L 484.879199 46.951875 
L 484.231845 46.370625 
L 483.202052 45.789375 
L 481.86 45.208125 
L 480.297147 44.626875 
L 478.62 44.045625 
L 476.942853 43.464375 
L 475.38 42.883125 
L 474.037948 42.301875 
L 473.008155 41.720625 
L 472.360801 41.139375 
L 472.14 40.558125 
L 472.360801 39.976875 
L 473.008155 39.395625 
L 474.037948 38.814375 
L 475.38 38.233125 
L 476.942853 37.651875 
L 478.62 37.070625 
" style="fill:none;stroke:#000000;stroke-linecap:round;stroke-width:1.5;"/>
   </g>
   <g id="line2d_9">
    <path clip-path="url(#pce85991d01)" d="M 559.62 44.045625 
L 592.02 44.045625 
L 608.22 57.995625 
L 624.42 44.045625 
L 656.82 44.045625 
" style="fill:none;stroke:#000000;stroke-linecap:round;stroke-width:1.5;"/>
   </g>
   <g id="line2d_10">
    <path clip-path="url(#pce85991d01)" d="M 592.02 44.045625 
L 608.22 30.095625 
L 624.42 44.045625 
" style="fill:none;stroke:#000000;stroke-linecap:round;stroke-width:1.5;"/>
   </g>
   <g id="line2d_11">
    <path clip-path="url(#pce85991d01)" d="M 41.22 105.425625 
L 73.62 105.425625 
L 89.82 119.375625 
L 106.02 105.425625 
L 138.42 105.425625 
" style="fill:none;stroke:#000000;stroke-linecap:round;stroke-width:1.5;"/>
   </g>
   <g id="line2d_12">
    <path clip-path="url(#pce85991d01)" d="M 73.62 105.425625 
L 89.82 91.475625 
L 106.02 105.425625 
" style="fill:none;stroke:#000000;stroke-linecap:round;stroke-width:1.5;"/>
   </g>
   <g id="line2d_13">
    <path clip-path="url(#pce85991d01)" d="M 170.82 105.425625 
L 203.22 105.425625 
L 219.42 119.375625 
L 235.62 105.425625 
L 268.02 105.425625 
" style="fill:none;stroke:#000000;stroke-linecap:round;stroke-width:1.5;"/>
   </g>
   <g id="line2d_14">
    <path clip-path="url(#pce85991d01)" d="M 211.32 108.215625 
L 211.32 102.635625 
" style="fill:none;stroke:#000000;stroke-linecap:round;stroke-width:1.5;"/>
   </g>
   <g id="line2d_15">
    <path clip-path="url(#pce85991d01)" d="M 224.28 105.425625 
L 230.76 105.425625 
" style="fill:none;stroke:#000000;stroke-linecap:round;stroke-width:1.5;"/>
   </g>
   <g id="line2d_16">
    <path clip-path="url(#pce85991d01)" d="M 227.52 108.215625 
L 227.52 102.635625 
" style="fill:none;stroke:#000000;stroke-linecap:round;stroke-width:1.5;"/>
   </g>
   <g id="line2d_17">
    <path clip-path="url(#pce85991d01)" d="M 203.22 105.425625 
L 219.42 91.475625 
L 235.62 105.425625 
" style="fill:none;stroke:#000000;stroke-linecap:round;stroke-width:1.5;"/>
   </g>
   <g id="line2d_18">
    <path clip-path="url(#pce85991d01)" d="M 300.42 105.425625 
L 345.9825 105.425625 
M 352.0575 105.425625 
L 397.62 105.425625 
" style="fill:none;stroke:#000000;stroke-linecap:round;stroke-width:1.5;"/>
   </g>
   <g id="line2d_19">
    <path clip-path="url(#pce85991d01)" d="M 345.9825 94.963125 
L 345.9825 115.888125 
" style="fill:none;stroke:#000000;stroke-linecap:round;stroke-width:1.5;"/>
   </g>
   <g id="line2d_20">
    <path clip-path="url(#pce85991d01)" d="M 352.0575 100.194375 
L 352.0575 110.656875 
" style="fill:none;stroke:#000000;stroke-linecap:round;stroke-width:1.5;"/>
   </g>
   <g id="line2d_21">
    <path clip-path="url(#pce85991d01)" d="M 430.02 105.425625 
L 469.5075 105.425625 
M 487.7325 105.425625 
L 527.22 105.425625 
" style="fill:none;stroke:#000000;stroke-linecap:round;stroke-width:1.5;"/>
   </g>
   <g id="line2d_22">
    <path clip-path="url(#pce85991d01)" d="M 469.5075 94.963125 
L 469.5075 115.888125 
" style="fill:none;stroke:#000000;stroke-linecap:round;stroke-width:1.5;"/>
   </g>
   <g id="line2d_23">
    <path clip-path="url(#pce85991d01)" d="M 475.5825 100.194375 
L 475.5825 110.656875 
" style="fill:none;stroke:#000000;stroke-linecap:round;stroke-width:1.5;"/>
   </g>
   <g id="line2d_24">
    <path clip-path="url(#pce85991d01)" d="M 481.6575 94.963125 
L 481.6575 115.888125 
" style="fill:none;stroke:#000000;stroke-linecap:round;stroke-width:1.5;"/>
   </g>
   <g id="line2d_25">
    <path clip-path="url(#pce85991d01)" d="M 487.7325 100.194375 
L 487.7325 110.656875 
" style="fill:none;stroke:#000000;stroke-linecap:round;stroke-width:1.5;"/>
   </g>
   <g id="line2d_26">
    <path clip-path="url(#pce85991d01)" d="M 559.62 105.425625 
L 592.02 105.425625 
L 592.02 105.425625 
M 624.42 105.425625 
L 624.42 105.425625 
L 656.82 105.425625 
" style="fill:none;stroke:#000000;stroke-linecap:round;stroke-width:1.5;"/>
   </g>
   <g id="line2d_27">
    <path clip-path="url(#pce85991d01)" d="M 592.02 105.425625 
L 592.160218 104.940656 
L 592.359525 104.452234 
L 592.618044 103.965249 
L 592.935304 103.484576 
L 593.310247 103.015028 
L 593.741238 102.561305 
L 594.226078 102.127949 
L 594.762032 101.7193 
L 595.345852 101.339447 
L 595.973811 100.992195 
L 596.641739 100.681019 
L 597.345069 100.409034 
L 598.078875 100.178965 
L 598.837929 99.993113 
L 599.616751 99.85334 
L 600.40966 99.761044 
L 601.210837 99.717151 
L 602.014378 99.722098 
L 602.814356 99.775838 
L 603.60488 99.877831 
L 604.380155 100.027057 
L 605.134535 100.222021 
L 605.862587 100.460772 
L 606.559139 100.740921 
L 607.219336 101.059661 
L 607.838685 101.413802 
L 608.413105 101.799798 
L 608.938961 102.213786 
L 609.413109 102.651621 
L 609.832917 103.108918 
L 610.196301 103.581102 
L 610.501741 104.063443 
L 610.748297 104.551113 
L 610.935617 105.039231 
L 611.063946 105.522908 
L 611.134114 105.997304 
L 611.147538 106.457668 
L 611.106201 106.899393 
L 611.012634 107.318055 
L 610.869892 107.709463 
L 610.681522 108.069699 
L 610.451527 108.395156 
L 610.184328 108.682576 
L 609.884716 108.929082 
L 609.55781 109.132206 
L 609.208999 109.289914 
L 608.843894 109.400627 
L 608.468268 109.463238 
L 608.087998 109.477118 
L 607.70901 109.44213 
L 607.337214 109.358623 
L 606.978452 109.227434 
L 606.638432 109.049875 
L 606.322677 108.827725 
L 606.036464 108.563208 
L 605.784778 108.258971 
L 605.572255 107.918061 
L 605.403141 107.54389 
L 605.281247 107.140204 
L 605.20991 106.711046 
L 605.191963 106.26071 
L 605.229703 105.793706 
L 605.324869 105.314709 
L 605.478627 104.828515 
L 605.691556 104.33999 
L 605.96364 103.854026 
L 606.294274 103.375488 
L 606.682266 102.909166 
L 607.125849 102.459729 
L 607.6227 102.031677 
L 608.169962 101.629294 
L 608.764274 101.25661 
L 609.401805 100.917355 
L 610.078288 100.614926 
L 610.789071 100.35235 
L 611.529153 100.132256 
L 612.293245 99.956848 
L 613.075814 99.827881 
L 613.871142 99.746647 
L 614.673387 99.713959 
L 615.476633 99.730144 
L 616.274957 99.79504 
L 617.062485 99.907998 
L 617.833449 100.067887 
L 618.58225 100.273105 
L 619.303508 100.521599 
L 619.992121 100.810881 
L 620.643312 101.138054 
L 621.252679 101.499843 
L 621.81624 101.892627 
L 622.330471 102.312472 
L 622.792341 102.755176 
L 623.199344 103.216307 
L 623.549523 103.691248 
L 623.84149 104.175245 
L 624.074439 104.663451 
L 624.248157 105.150979 
L 624.363021 105.632949 
L 624.42 106.104536 
" style="fill:none;stroke:#000000;stroke-linecap:round;stroke-width:1.5;"/>
   </g>
   <g id="patch_4">
    <path clip-path="url(#pce85991d01)" d="M 89.82 57.995625 
C 94.11629 57.995625 98.237194 56.525765 101.27513 53.909765 
C 104.313066 51.293764 106.02 47.745208 106.02 44.045625 
C 106.02 40.346042 104.313066 36.797486 101.27513 34.181485 
C 98.237194 31.565485 94.11629 30.095625 89.82 30.095625 
C 85.52371 30.095625 81.402806 31.565485 78.36487 34.181485 
C 75.326934 36.797486 73.62 40.346042 73.62 44.045625 
C 73.62 47.745208 75.326934 51.293764 78.36487 53.909765 
C 81.402806 56.525765 85.52371 57.995625 89.82 57.995625 
z
" style="fill:none;stroke:#000000;stroke-linejoin:miter;stroke-width:1.5;"/>
   </g>
   <g id="patch_5">
    <path clip-path="url(#pce85991d01)" d="M 219.42 57.995625 
C 223.71629 57.995625 227.837194 56.525765 230.87513 53.909765 
C 233.913066 51.293764 235.62 47.745208 235.62 44.045625 
C 235.62 40.346042 233.913066 36.797486 230.87513 34.181485 
C 227.837194 31.565485 223.71629 30.095625 219.42 30.095625 
C 215.12371 30.095625 211.002806 31.565485 207.96487 34.181485 
C 204.926934 36.797486 203.22 40.346042 203.22 44.045625 
C 203.22 47.745208 204.926934 51.293764 207.96487 53.909765 
C 211.002806 56.525765 215.12371 57.995625 219.42 57.995625 
z
" style="fill:none;stroke:#000000;stroke-linejoin:miter;stroke-width:1.5;"/>
   </g>
   <g id="patch_6">
    <path clip-path="url(#pce85991d01)" d="M 349.02 57.995625 
C 353.31629 57.995625 357.437194 56.525765 360.47513 53.909765 
C 363.513066 51.293764 365.22 47.745208 365.22 44.045625 
C 365.22 40.346042 363.513066 36.797486 360.47513 34.181485 
C 357.437194 31.565485 353.31629 30.095625 349.02 30.095625 
C 344.72371 30.095625 340.602806 31.565485 337.56487 34.181485 
C 334.526934 36.797486 332.82 40.346042 332.82 44.045625 
C 332.82 47.745208 334.526934 51.293764 337.56487 53.909765 
C 340.602806 56.525765 344.72371 57.995625 349.02 57.995625 
z
" style="fill:none;stroke:#000000;stroke-linejoin:miter;stroke-width:1.5;"/>
   </g>
   <g id="patch_7">
    <path clip-path="url(#pce85991d01)" d="M 478.62 57.995625 
C 482.91629 57.995625 487.037194 56.525765 490.07513 53.909765 
C 493.113066 51.293764 494.82 47.745208 494.82 44.045625 
C 494.82 40.346042 493.113066 36.797486 490.07513 34.181485 
C 487.037194 31.565485 482.91629 30.095625 478.62 30.095625 
C 474.32371 30.095625 470.202806 31.565485 467.16487 34.181485 
C 464.126934 36.797486 462.42 40.346042 462.42 44.045625 
C 462.42 47.745208 464.126934 51.293764 467.16487 53.909765 
C 470.202806 56.525765 474.32371 57.995625 478.62 57.995625 
z
" style="fill:none;stroke:#000000;stroke-linejoin:miter;stroke-width:1.5;"/>
   </g>
   <g id="patch_8">
    <path clip-path="url(#pce85991d01)" d="M 608.22 119.375625 
C 612.51629 119.375625 616.637194 117.905765 619.67513 115.289765 
C 622.713066 112.673764 624.42 109.125208 624.42 105.425625 
C 624.42 101.726042 622.713066 98.177486 619.67513 95.561485 
C 616.637194 92.945485 612.51629 91.475625 608.22 91.475625 
C 603.92371 91.475625 599.802806 92.945485 596.76487 95.561485 
C 593.726934 98.177486 592.02 101.726042 592.02 105.425625 
C 592.02 109.125208 593.726934 112.673764 596.76487 115.289765 
C 599.802806 117.905765 603.92371 119.375625 608.22 119.375625 
z
" style="fill:none;stroke:#000000;stroke-linejoin:miter;stroke-width:1.5;"/>
   </g>
   <g id="text_1">
    <!-- SOURCE -->
    <defs>
     <path d="M 53.515625 70.515625 
L 53.515625 60.890625 
Q 47.90625 63.578125 42.921875 64.890625 
Q 37.9375 66.21875 33.296875 66.21875 
Q 25.25 66.21875 20.875 63.09375 
Q 16.5 59.96875 16.5 54.203125 
Q 16.5 49.359375 19.40625 46.890625 
Q 22.3125 44.4375 30.421875 42.921875 
L 36.375 41.703125 
Q 47.40625 39.59375 52.65625 34.296875 
Q 57.90625 29 57.90625 20.125 
Q 57.90625 9.515625 50.796875 4.046875 
Q 43.703125 -1.421875 29.984375 -1.421875 
Q 24.8125 -1.421875 18.96875 -0.25 
Q 13.140625 0.921875 6.890625 3.21875 
L 6.890625 13.375 
Q 12.890625 10.015625 18.65625 8.296875 
Q 24.421875 6.59375 29.984375 6.59375 
Q 38.421875 6.59375 43.015625 9.90625 
Q 47.609375 13.234375 47.609375 19.390625 
Q 47.609375 24.75 44.3125 27.78125 
Q 41.015625 30.8125 33.5 32.328125 
L 27.484375 33.5 
Q 16.453125 35.6875 11.515625 40.375 
Q 6.59375 45.0625 6.59375 53.421875 
Q 6.59375 63.09375 13.40625 68.65625 
Q 20.21875 74.21875 32.171875 74.21875 
Q 37.3125 74.21875 42.625 73.28125 
Q 47.953125 72.359375 53.515625 70.515625 
z
" id="DejaVuSans-83"/>
     <path d="M 39.40625 66.21875 
Q 28.65625 66.21875 22.328125 58.203125 
Q 16.015625 50.203125 16.015625 36.375 
Q 16.015625 22.609375 22.328125 14.59375 
Q 28.65625 6.59375 39.40625 6.59375 
Q 50.140625 6.59375 56.421875 14.59375 
Q 62.703125 22.609375 62.703125 36.375 
Q 62.703125 50.203125 56.421875 58.203125 
Q 50.140625 66.21875 39.40625 66.21875 
z
M 39.40625 74.21875 
Q 54.734375 74.21875 63.90625 63.9375 
Q 73.09375 53.65625 73.09375 36.375 
Q 73.09375 19.140625 63.90625 8.859375 
Q 54.734375 -1.421875 39.40625 -1.421875 
Q 24.03125 -1.421875 14.8125 8.828125 
Q 5.609375 19.09375 5.609375 36.375 
Q 5.609375 53.65625 14.8125 63.9375 
Q 24.03125 74.21875 39.40625 74.21875 
z
" id="DejaVuSans-79"/>
     <path d="M 8.6875 72.90625 
L 18.609375 72.90625 
L 18.609375 28.609375 
Q 18.609375 16.890625 22.84375 11.734375 
Q 27.09375 6.59375 36.625 6.59375 
Q 46.09375 6.59375 50.34375 11.734375 
Q 54.59375 16.890625 54.59375 28.609375 
L 54.59375 72.90625 
L 64.5 72.90625 
L 64.5 27.390625 
Q 64.5 13.140625 57.4375 5.859375 
Q 50.390625 -1.421875 36.625 -1.421875 
Q 22.796875 -1.421875 15.734375 5.859375 
Q 8.6875 13.140625 8.6875 27.390625 
z
" id="DejaVuSans-85"/>
     <path d="M 44.390625 34.1875 
Q 47.5625 33.109375 50.5625 29.59375 
Q 53.5625 26.078125 56.59375 19.921875 
L 66.609375 0 
L 56 0 
L 46.6875 18.703125 
Q 43.0625 26.03125 39.671875 28.421875 
Q 36.28125 30.8125 30.421875 30.8125 
L 19.671875 30.8125 
L 19.671875 0 
L 9.8125 0 
L 9.8125 72.90625 
L 32.078125 72.90625 
Q 44.578125 72.90625 50.734375 67.671875 
Q 56.890625 62.453125 56.890625 51.90625 
Q 56.890625 45.015625 53.6875 40.46875 
Q 50.484375 35.9375 44.390625 34.1875 
z
M 19.671875 64.796875 
L 19.671875 38.921875 
L 32.078125 38.921875 
Q 39.203125 38.921875 42.84375 42.21875 
Q 46.484375 45.515625 46.484375 51.90625 
Q 46.484375 58.296875 42.84375 61.546875 
Q 39.203125 64.796875 32.078125 64.796875 
z
" id="DejaVuSans-82"/>
     <path d="M 64.40625 67.28125 
L 64.40625 56.890625 
Q 59.421875 61.53125 53.78125 63.8125 
Q 48.140625 66.109375 41.796875 66.109375 
Q 29.296875 66.109375 22.65625 58.46875 
Q 16.015625 50.828125 16.015625 36.375 
Q 16.015625 21.96875 22.65625 14.328125 
Q 29.296875 6.6875 41.796875 6.6875 
Q 48.140625 6.6875 53.78125 8.984375 
Q 59.421875 11.28125 64.40625 15.921875 
L 64.40625 5.609375 
Q 59.234375 2.09375 53.4375 0.328125 
Q 47.65625 -1.421875 41.21875 -1.421875 
Q 24.65625 -1.421875 15.125 8.703125 
Q 5.609375 18.84375 5.609375 36.375 
Q 5.609375 53.953125 15.125 64.078125 
Q 24.65625 74.21875 41.21875 74.21875 
Q 47.75 74.21875 53.53125 72.484375 
Q 59.328125 70.75 64.40625 67.28125 
z
" id="DejaVuSans-67"/>
     <path d="M 9.8125 72.90625 
L 55.90625 72.90625 
L 55.90625 64.59375 
L 19.671875 64.59375 
L 19.671875 43.015625 
L 54.390625 43.015625 
L 54.390625 34.71875 
L 19.671875 34.71875 
L 19.671875 8.296875 
L 56.78125 8.296875 
L 56.78125 0 
L 9.8125 0 
z
" id="DejaVuSans-69"/>
    </defs>
    <g transform="translate(64.75125 16.44)scale(0.12 -0.12)">
     <use xlink:href="#DejaVuSans-83"/>
     <use x="63.476562" xlink:href="#DejaVuSans-79"/>
     <use x="142.1875" xlink:href="#DejaVuSans-85"/>
     <use x="215.380859" xlink:href="#DejaVuSans-82"/>
     <use x="284.785156" xlink:href="#DejaVuSans-67"/>
     <use x="354.609375" xlink:href="#DejaVuSans-69"/>
    </g>
   </g>
   <g id="text_2">
    <!-- SOURCE_V -->
    <defs>
     <path d="M 50.984375 -16.609375 
L 50.984375 -23.578125 
L -0.984375 -23.578125 
L -0.984375 -16.609375 
z
" id="DejaVuSans-95"/>
     <path d="M 28.609375 0 
L 0.78125 72.90625 
L 11.078125 72.90625 
L 34.1875 11.53125 
L 57.328125 72.90625 
L 67.578125 72.90625 
L 39.796875 0 
z
" id="DejaVuSans-86"/>
    </defs>
    <g transform="translate(187.246875 16.10625)scale(0.12 -0.12)">
     <use xlink:href="#DejaVuSans-83"/>
     <use x="63.476562" xlink:href="#DejaVuSans-79"/>
     <use x="142.1875" xlink:href="#DejaVuSans-85"/>
     <use x="215.380859" xlink:href="#DejaVuSans-82"/>
     <use x="284.785156" xlink:href="#DejaVuSans-67"/>
     <use x="354.609375" xlink:href="#DejaVuSans-69"/>
     <use x="417.792969" xlink:href="#DejaVuSans-95"/>
     <use x="467.792969" xlink:href="#DejaVuSans-86"/>
    </g>
   </g>
   <g id="text_3">
    <!-- SOURCE_I -->
    <defs>
     <path d="M 9.8125 72.90625 
L 19.671875 72.90625 
L 19.671875 0 
L 9.8125 0 
z
" id="DejaVuSans-73"/>
    </defs>
    <g transform="translate(319.18125 16.10625)scale(0.12 -0.12)">
     <use xlink:href="#DejaVuSans-83"/>
     <use x="63.476562" xlink:href="#DejaVuSans-79"/>
     <use x="142.1875" xlink:href="#DejaVuSans-85"/>
     <use x="215.380859" xlink:href="#DejaVuSans-82"/>
     <use x="284.785156" xlink:href="#DejaVuSans-67"/>
     <use x="354.609375" xlink:href="#DejaVuSans-69"/>
     <use x="417.792969" xlink:href="#DejaVuSans-95"/>
     <use x="467.792969" xlink:href="#DejaVuSans-73"/>
    </g>
   </g>
   <g id="text_4">
    <!-- SOURCE_SIN -->
    <defs>
     <path d="M 9.8125 72.90625 
L 23.09375 72.90625 
L 55.421875 11.921875 
L 55.421875 72.90625 
L 64.984375 72.90625 
L 64.984375 0 
L 51.703125 0 
L 19.390625 60.984375 
L 19.390625 0 
L 9.8125 0 
z
" id="DejaVuSans-78"/>
    </defs>
    <g transform="translate(440.483437 16.10625)scale(0.12 -0.12)">
     <use xlink:href="#DejaVuSans-83"/>
     <use x="63.476562" xlink:href="#DejaVuSans-79"/>
     <use x="142.1875" xlink:href="#DejaVuSans-85"/>
     <use x="215.380859" xlink:href="#DejaVuSans-82"/>
     <use x="284.785156" xlink:href="#DejaVuSans-67"/>
     <use x="354.609375" xlink:href="#DejaVuSans-69"/>
     <use x="417.792969" xlink:href="#DejaVuSans-95"/>
     <use x="467.792969" xlink:href="#DejaVuSans-83"/>
     <use x="531.269531" xlink:href="#DejaVuSans-73"/>
     <use x="560.761719" xlink:href="#DejaVuSans-78"/>
    </g>
   </g>
   <g id="text_5">
    <!-- SOURCE_CONT -->
    <defs>
     <path d="M -0.296875 72.90625 
L 61.375 72.90625 
L 61.375 64.59375 
L 35.5 64.59375 
L 35.5 0 
L 25.59375 0 
L 25.59375 64.59375 
L -0.296875 64.59375 
z
" id="DejaVuSans-84"/>
    </defs>
    <g transform="translate(563.085 16.10625)scale(0.12 -0.12)">
     <use xlink:href="#DejaVuSans-83"/>
     <use x="63.476562" xlink:href="#DejaVuSans-79"/>
     <use x="142.1875" xlink:href="#DejaVuSans-85"/>
     <use x="215.380859" xlink:href="#DejaVuSans-82"/>
     <use x="284.785156" xlink:href="#DejaVuSans-67"/>
     <use x="354.609375" xlink:href="#DejaVuSans-69"/>
     <use x="417.792969" xlink:href="#DejaVuSans-95"/>
     <use x="467.792969" xlink:href="#DejaVuSans-67"/>
     <use x="537.617188" xlink:href="#DejaVuSans-79"/>
     <use x="616.328125" xlink:href="#DejaVuSans-78"/>
     <use x="691.132812" xlink:href="#DejaVuSans-84"/>
    </g>
   </g>
   <g id="text_6">
    <!-- SOURCE_CONT_I -->
    <g transform="translate(39.915 77.48625)scale(0.12 -0.12)">
     <use xlink:href="#DejaVuSans-83"/>
     <use x="63.476562" xlink:href="#DejaVuSans-79"/>
     <use x="142.1875" xlink:href="#DejaVuSans-85"/>
     <use x="215.380859" xlink:href="#DejaVuSans-82"/>
     <use x="284.785156" xlink:href="#DejaVuSans-67"/>
     <use x="354.609375" xlink:href="#DejaVuSans-69"/>
     <use x="417.792969" xlink:href="#DejaVuSans-95"/>
     <use x="467.792969" xlink:href="#DejaVuSans-67"/>
     <use x="537.617188" xlink:href="#DejaVuSans-79"/>
     <use x="616.328125" xlink:href="#DejaVuSans-78"/>
     <use x="691.132812" xlink:href="#DejaVuSans-84"/>
     <use x="752.216797" xlink:href="#DejaVuSans-95"/>
     <use x="802.216797" xlink:href="#DejaVuSans-73"/>
    </g>
   </g>
   <g id="text_7">
    <!-- SOURCE_CONT_V -->
    <g transform="translate(167.180625 77.48625)scale(0.12 -0.12)">
     <use xlink:href="#DejaVuSans-83"/>
     <use x="63.476562" xlink:href="#DejaVuSans-79"/>
     <use x="142.1875" xlink:href="#DejaVuSans-85"/>
     <use x="215.380859" xlink:href="#DejaVuSans-82"/>
     <use x="284.785156" xlink:href="#DejaVuSans-67"/>
     <use x="354.609375" xlink:href="#DejaVuSans-69"/>
     <use x="417.792969" xlink:href="#DejaVuSans-95"/>
     <use x="467.792969" xlink:href="#DejaVuSans-67"/>
     <use x="537.617188" xlink:href="#DejaVuSans-79"/>
     <use x="616.328125" xlink:href="#DejaVuSans-78"/>
     <use x="691.132812" xlink:href="#DejaVuSans-84"/>
     <use x="752.216797" xlink:href="#DejaVuSans-95"/>
     <use x="802.216797" xlink:href="#DejaVuSans-86"/>
    </g>
   </g>
   <g id="text_8">
    <!-- BAT_CELL -->
    <defs>
     <path d="M 19.671875 34.8125 
L 19.671875 8.109375 
L 35.5 8.109375 
Q 43.453125 8.109375 47.28125 11.40625 
Q 51.125 14.703125 51.125 21.484375 
Q 51.125 28.328125 47.28125 31.5625 
Q 43.453125 34.8125 35.5 34.8125 
z
M 19.671875 64.796875 
L 19.671875 42.828125 
L 34.28125 42.828125 
Q 41.5 42.828125 45.03125 45.53125 
Q 48.578125 48.25 48.578125 53.8125 
Q 48.578125 59.328125 45.03125 62.0625 
Q 41.5 64.796875 34.28125 64.796875 
z
M 9.8125 72.90625 
L 35.015625 72.90625 
Q 46.296875 72.90625 52.390625 68.21875 
Q 58.5 63.53125 58.5 54.890625 
Q 58.5 48.1875 55.375 44.234375 
Q 52.25 40.28125 46.1875 39.3125 
Q 53.46875 37.75 57.5 32.78125 
Q 61.53125 27.828125 61.53125 20.40625 
Q 61.53125 10.640625 54.890625 5.3125 
Q 48.25 0 35.984375 0 
L 9.8125 0 
z
" id="DejaVuSans-66"/>
     <path d="M 34.1875 63.1875 
L 20.796875 26.90625 
L 47.609375 26.90625 
z
M 28.609375 72.90625 
L 39.796875 72.90625 
L 67.578125 0 
L 57.328125 0 
L 50.6875 18.703125 
L 17.828125 18.703125 
L 11.1875 0 
L 0.78125 0 
z
" id="DejaVuSans-65"/>
     <path d="M 9.8125 72.90625 
L 19.671875 72.90625 
L 19.671875 8.296875 
L 55.171875 8.296875 
L 55.171875 0 
L 9.8125 0 
z
" id="DejaVuSans-76"/>
    </defs>
    <g transform="translate(319.47375 80.97375)scale(0.12 -0.12)">
     <use xlink:href="#DejaVuSans-66"/>
     <use x="68.603516" xlink:href="#DejaVuSans-65"/>
     <use x="136.902344" xlink:href="#DejaVuSans-84"/>
     <use x="197.986328" xlink:href="#DejaVuSans-95"/>
     <use x="247.986328" xlink:href="#DejaVuSans-67"/>
     <use x="317.810547" xlink:href="#DejaVuSans-69"/>
     <use x="380.994141" xlink:href="#DejaVuSans-76"/>
     <use x="436.707031" xlink:href="#DejaVuSans-76"/>
    </g>
   </g>
   <g id="text_9">
    <!-- BATTERY -->
    <defs>
     <path d="M -0.203125 72.90625 
L 10.40625 72.90625 
L 30.609375 42.921875 
L 50.6875 72.90625 
L 61.28125 72.90625 
L 35.5 34.71875 
L 35.5 0 
L 25.59375 0 
L 25.59375 34.71875 
z
" id="DejaVuSans-89"/>
    </defs>
    <g transform="translate(451.457812 81.3075)scale(0.12 -0.12)">
     <use xlink:href="#DejaVuSans-66"/>
     <use x="68.603516" xlink:href="#DejaVuSans-65"/>
     <use x="136.902344" xlink:href="#DejaVuSans-84"/>
     <use x="197.970703" xlink:href="#DejaVuSans-84"/>
     <use x="259.054688" xlink:href="#DejaVuSans-69"/>
     <use x="322.238281" xlink:href="#DejaVuSans-82"/>
     <use x="391.626953" xlink:href="#DejaVuSans-89"/>
    </g>
   </g>
   <g id="text_10">
    <!-- LAMP -->
    <defs>
     <path d="M 9.8125 72.90625 
L 24.515625 72.90625 
L 43.109375 23.296875 
L 61.8125 72.90625 
L 76.515625 72.90625 
L 76.515625 0 
L 66.890625 0 
L 66.890625 64.015625 
L 48.09375 14.015625 
L 38.1875 14.015625 
L 19.390625 64.015625 
L 19.390625 0 
L 9.8125 0 
z
" id="DejaVuSans-77"/>
     <path d="M 19.671875 64.796875 
L 19.671875 37.40625 
L 32.078125 37.40625 
Q 38.96875 37.40625 42.71875 40.96875 
Q 46.484375 44.53125 46.484375 51.125 
Q 46.484375 57.671875 42.71875 61.234375 
Q 38.96875 64.796875 32.078125 64.796875 
z
M 9.8125 72.90625 
L 32.078125 72.90625 
Q 44.34375 72.90625 50.609375 67.359375 
Q 56.890625 61.8125 56.890625 51.125 
Q 56.890625 40.328125 50.609375 34.8125 
Q 44.34375 29.296875 32.078125 29.296875 
L 19.671875 29.296875 
L 19.671875 0 
L 9.8125 0 
z
" id="DejaVuSans-80"/>
    </defs>
    <g transform="translate(591.975937 77.82)scale(0.12 -0.12)">
     <use xlink:href="#DejaVuSans-76"/>
     <use x="55.744141" xlink:href="#DejaVuSans-65"/>
     <use x="124.152344" xlink:href="#DejaVuSans-77"/>
     <use x="210.431641" xlink:href="#DejaVuSans-80"/>
    </g>
   </g>
  </g>
 </g>
 <defs>
  <clipPath id="pce85991d01">
   <rect height="103.788" width="683.64" x="7.2" y="22.841625"/>
  </clipPath>
 </defs>
</svg>
