<?xml version="1.0" encoding="utf-8" standalone="no"?>
<!DOCTYPE svg PUBLIC "-//W3C//DTD SVG 1.1//EN"
  "http://www.w3.org/Graphics/SVG/1.1/DTD/svg11.dtd">
<!-- Created with matplotlib (http://matplotlib.org/) -->
<svg height="139pt" version="1.1" viewBox="0 0 636 139" width="636pt" xmlns="http://www.w3.org/2000/svg" xmlns:xlink="http://www.w3.org/1999/xlink">
 <defs>
  <style type="text/css">
*{stroke-linecap:butt;stroke-linejoin:round;stroke-miterlimit:100000;}
  </style>
 </defs>
 <g id="figure_1">
  <g id="patch_1">
   <path d="M 0 139.355625 
L 636.48 139.355625 
L 636.48 0 
L 0 0 
z
" style="fill:none;"/>
  </g>
  <g id="axes_1">
   <g id="patch_2">
    <path clip-path="url(#p27caeecdb8)" d="M 310.14 46.475625 
L 316.62 44.945625 
L 316.62 46.460325 
L 326.34 46.460325 
L 326.34 46.490925 
L 316.62 46.490925 
L 316.62 48.005625 
z
" style="stroke:#000000;stroke-linejoin:miter;stroke-width:1.5;"/>
   </g>
   <g id="patch_3">
    <path clip-path="url(#p27caeecdb8)" d="M 50.94 113.795625 
L 57.42 112.265625 
L 57.42 113.780325 
L 67.14 113.780325 
L 67.14 113.810925 
L 57.42 113.810925 
L 57.42 115.325625 
z
" style="stroke:#000000;stroke-linejoin:miter;stroke-width:1.5;"/>
   </g>
   <g id="line2d_1">
    <path clip-path="url(#p27caeecdb8)" d="M 10.44 46.475625 
L 42.84 46.475625 
L 42.84 46.475625 
M 75.24 46.475625 
L 75.24 46.475625 
L 107.64 46.475625 
" style="fill:none;stroke:#000000;stroke-linecap:round;stroke-width:1.5;"/>
   </g>
   <g id="line2d_2">
    <path clip-path="url(#p27caeecdb8)" d="M 140.04 46.475625 
L 172.44 46.475625 
L 172.44 46.475625 
M 204.84 46.475625 
L 204.84 46.475625 
L 237.24 46.475625 
" style="fill:none;stroke:#000000;stroke-linecap:round;stroke-width:1.5;"/>
   </g>
   <g id="line2d_3">
    <path clip-path="url(#p27caeecdb8)" d="M 180.54 49.535625 
L 180.54 43.415625 
" style="fill:none;stroke:#000000;stroke-linecap:round;stroke-width:1.5;"/>
   </g>
   <g id="line2d_4">
    <path clip-path="url(#p27caeecdb8)" d="M 193.5 46.475625 
L 199.98 46.475625 
" style="fill:none;stroke:#000000;stroke-linecap:round;stroke-width:1.5;"/>
   </g>
   <g id="line2d_5">
    <path clip-path="url(#p27caeecdb8)" d="M 196.74 49.535625 
L 196.74 43.415625 
" style="fill:none;stroke:#000000;stroke-linecap:round;stroke-width:1.5;"/>
   </g>
   <g id="line2d_6">
    <path clip-path="url(#p27caeecdb8)" d="M 269.64 46.475625 
L 302.04 46.475625 
L 302.04 46.475625 
M 334.44 46.475625 
L 334.44 46.475625 
L 366.84 46.475625 
" style="fill:none;stroke:#000000;stroke-linecap:round;stroke-width:1.5;"/>
   </g>
   <g id="line2d_7">
    <path clip-path="url(#p27caeecdb8)" d="M 399.24 46.475625 
L 431.64 46.475625 
L 431.64 46.475625 
M 464.04 46.475625 
L 464.04 46.475625 
L 496.44 46.475625 
" style="fill:none;stroke:#000000;stroke-linecap:round;stroke-width:1.5;"/>
   </g>
   <g id="line2d_8">
    <path clip-path="url(#p27caeecdb8)" d="M 447.84 54.125625 
L 449.517147 53.488125 
L 451.08 52.850625 
L 452.422052 52.213125 
L 453.451845 51.575625 
L 454.099199 50.938125 
L 454.32 50.300625 
L 454.099199 49.663125 
L 453.451845 49.025625 
L 452.422052 48.388125 
L 451.08 47.750625 
L 449.517147 47.113125 
L 447.84 46.475625 
L 446.162853 45.838125 
L 444.6 45.200625 
L 443.257948 44.563125 
L 442.228155 43.925625 
L 441.580801 43.288125 
L 441.36 42.650625 
L 441.580801 42.013125 
L 442.228155 41.375625 
L 443.257948 40.738125 
L 444.6 40.100625 
L 446.162853 39.463125 
L 447.84 38.825625 
" style="fill:none;stroke:#000000;stroke-linecap:round;stroke-width:1.5;"/>
   </g>
   <g id="line2d_9">
    <path clip-path="url(#p27caeecdb8)" d="M 528.84 46.475625 
L 561.24 46.475625 
L 577.44 61.775625 
L 593.64 46.475625 
L 626.04 46.475625 
" style="fill:none;stroke:#000000;stroke-linecap:round;stroke-width:1.5;"/>
   </g>
   <g id="line2d_10">
    <path clip-path="url(#p27caeecdb8)" d="M 561.24 46.475625 
L 577.44 31.175625 
L 593.64 46.475625 
" style="fill:none;stroke:#000000;stroke-linecap:round;stroke-width:1.5;"/>
   </g>
   <g id="line2d_11">
    <path clip-path="url(#p27caeecdb8)" d="M 10.44 113.795625 
L 42.84 113.795625 
L 59.04 129.095625 
L 75.24 113.795625 
L 107.64 113.795625 
" style="fill:none;stroke:#000000;stroke-linecap:round;stroke-width:1.5;"/>
   </g>
   <g id="line2d_12">
    <path clip-path="url(#p27caeecdb8)" d="M 42.84 113.795625 
L 59.04 98.495625 
L 75.24 113.795625 
" style="fill:none;stroke:#000000;stroke-linecap:round;stroke-width:1.5;"/>
   </g>
   <g id="line2d_13">
    <path clip-path="url(#p27caeecdb8)" d="M 140.04 113.795625 
L 172.44 113.795625 
L 188.64 129.095625 
L 204.84 113.795625 
L 237.24 113.795625 
" style="fill:none;stroke:#000000;stroke-linecap:round;stroke-width:1.5;"/>
   </g>
   <g id="line2d_14">
    <path clip-path="url(#p27caeecdb8)" d="M 180.54 116.855625 
L 180.54 110.735625 
" style="fill:none;stroke:#000000;stroke-linecap:round;stroke-width:1.5;"/>
   </g>
   <g id="line2d_15">
    <path clip-path="url(#p27caeecdb8)" d="M 193.5 113.795625 
L 199.98 113.795625 
" style="fill:none;stroke:#000000;stroke-linecap:round;stroke-width:1.5;"/>
   </g>
   <g id="line2d_16">
    <path clip-path="url(#p27caeecdb8)" d="M 196.74 116.855625 
L 196.74 110.735625 
" style="fill:none;stroke:#000000;stroke-linecap:round;stroke-width:1.5;"/>
   </g>
   <g id="line2d_17">
    <path clip-path="url(#p27caeecdb8)" d="M 172.44 113.795625 
L 188.64 98.495625 
L 204.84 113.795625 
" style="fill:none;stroke:#000000;stroke-linecap:round;stroke-width:1.5;"/>
   </g>
   <g id="line2d_18">
    <path clip-path="url(#p27caeecdb8)" d="M 269.64 113.795625 
L 315.2025 113.795625 
M 321.2775 113.795625 
L 366.84 113.795625 
" style="fill:none;stroke:#000000;stroke-linecap:round;stroke-width:1.5;"/>
   </g>
   <g id="line2d_19">
    <path clip-path="url(#p27caeecdb8)" d="M 315.2025 102.320625 
L 315.2025 125.270625 
" style="fill:none;stroke:#000000;stroke-linecap:round;stroke-width:1.5;"/>
   </g>
   <g id="line2d_20">
    <path clip-path="url(#p27caeecdb8)" d="M 321.2775 108.058125 
L 321.2775 119.533125 
" style="fill:none;stroke:#000000;stroke-linecap:round;stroke-width:1.5;"/>
   </g>
   <g id="line2d_21">
    <path clip-path="url(#p27caeecdb8)" d="M 399.24 113.795625 
L 438.7275 113.795625 
M 456.9525 113.795625 
L 496.44 113.795625 
" style="fill:none;stroke:#000000;stroke-linecap:round;stroke-width:1.5;"/>
   </g>
   <g id="line2d_22">
    <path clip-path="url(#p27caeecdb8)" d="M 438.7275 102.320625 
L 438.7275 125.270625 
" style="fill:none;stroke:#000000;stroke-linecap:round;stroke-width:1.5;"/>
   </g>
   <g id="line2d_23">
    <path clip-path="url(#p27caeecdb8)" d="M 444.8025 108.058125 
L 444.8025 119.533125 
" style="fill:none;stroke:#000000;stroke-linecap:round;stroke-width:1.5;"/>
   </g>
   <g id="line2d_24">
    <path clip-path="url(#p27caeecdb8)" d="M 450.8775 102.320625 
L 450.8775 125.270625 
" style="fill:none;stroke:#000000;stroke-linecap:round;stroke-width:1.5;"/>
   </g>
   <g id="line2d_25">
    <path clip-path="url(#p27caeecdb8)" d="M 456.9525 108.058125 
L 456.9525 119.533125 
" style="fill:none;stroke:#000000;stroke-linecap:round;stroke-width:1.5;"/>
   </g>
   <g id="line2d_26">
    <path clip-path="url(#p27caeecdb8)" d="M 528.84 113.795625 
L 561.24 113.795625 
L 561.24 113.795625 
M 593.64 113.795625 
L 593.64 113.795625 
L 626.04 113.795625 
" style="fill:none;stroke:#000000;stroke-linecap:round;stroke-width:1.5;"/>
   </g>
   <g id="line2d_27">
    <path clip-path="url(#p27caeecdb8)" d="M 561.24 113.795625 
L 561.380218 113.263723 
L 561.579525 112.728035 
L 561.838044 112.193922 
L 562.155304 111.666733 
L 562.530247 111.151744 
L 562.961238 110.654113 
L 563.446078 110.178819 
L 563.982032 109.730623 
L 564.565852 109.314011 
L 565.193811 108.933153 
L 565.861739 108.591863 
L 566.565069 108.293558 
L 567.298875 108.041223 
L 568.057929 107.837386 
L 568.836751 107.684086 
L 569.62966 107.582859 
L 570.430837 107.534718 
L 571.234378 107.540144 
L 572.034356 107.599084 
L 572.82488 107.710947 
L 573.600155 107.874614 
L 574.354535 108.088447 
L 575.082587 108.350303 
L 575.779139 108.657562 
L 576.439336 109.007148 
L 577.058685 109.395561 
L 577.633105 109.818912 
L 578.158961 110.272963 
L 578.633109 110.753168 
L 579.052917 111.254721 
L 579.416301 111.772599 
L 579.721741 112.301619 
L 579.968297 112.836483 
L 580.155617 113.371838 
L 580.283946 113.902323 
L 580.354114 114.422628 
L 580.367538 114.927544 
L 580.326201 115.412015 
L 580.232634 115.871193 
L 580.089892 116.300479 
L 579.901522 116.695577 
L 579.671527 117.05253 
L 579.404328 117.367765 
L 579.104716 117.638126 
L 578.77781 117.860907 
L 578.428999 118.033877 
L 578.063894 118.155305 
L 577.688268 118.223974 
L 577.307998 118.239198 
L 576.92901 118.200824 
L 576.557214 118.109236 
L 576.198452 117.965351 
L 575.858432 117.770609 
L 575.542677 117.526961 
L 575.256464 117.236845 
L 575.004778 116.903166 
L 574.792255 116.529264 
L 574.623141 116.118883 
L 574.501247 115.676131 
L 574.42991 115.205441 
L 574.411963 114.711525 
L 574.449703 114.199327 
L 574.544869 113.673976 
L 574.698627 113.14073 
L 574.911556 112.604929 
L 575.18364 112.071936 
L 575.514274 111.547087 
L 575.902266 111.035638 
L 576.345849 110.542707 
L 576.8427 110.07323 
L 577.389962 109.631908 
L 577.984274 109.223157 
L 578.621805 108.851071 
L 579.298288 108.519374 
L 580.009071 108.231388 
L 580.749153 107.989994 
L 581.513245 107.797611 
L 582.295814 107.656164 
L 583.091142 107.567068 
L 583.893387 107.531217 
L 584.696633 107.548968 
L 585.494957 107.620145 
L 586.282485 107.744034 
L 587.053449 107.919396 
L 587.80225 108.144474 
L 588.523508 108.417016 
L 589.212121 108.734292 
L 589.863312 109.093128 
L 590.472679 109.489929 
L 591.03624 109.920724 
L 591.550471 110.381199 
L 592.012341 110.866746 
L 592.419344 111.372502 
L 592.769523 111.893405 
L 593.06149 112.42424 
L 593.294439 112.959692 
L 593.468157 113.494401 
L 593.583021 114.023013 
L 593.64 114.540237 
" style="fill:none;stroke:#000000;stroke-linecap:round;stroke-width:1.5;"/>
   </g>
   <g id="patch_4">
    <path clip-path="url(#p27caeecdb8)" d="M 59.04 61.775625 
C 63.33629 61.775625 67.457194 60.16352 70.49513 57.294359 
C 73.533066 54.425197 75.24 50.533232 75.24 46.475625 
C 75.24 42.418018 73.533066 38.526053 70.49513 35.656891 
C 67.457194 32.78773 63.33629 31.175625 59.04 31.175625 
C 54.74371 31.175625 50.622806 32.78773 47.58487 35.656891 
C 44.546934 38.526053 42.84 42.418018 42.84 46.475625 
C 42.84 50.533232 44.546934 54.425197 47.58487 57.294359 
C 50.622806 60.16352 54.74371 61.775625 59.04 61.775625 
z
" style="fill:none;stroke:#000000;stroke-linejoin:miter;stroke-width:1.5;"/>
   </g>
   <g id="patch_5">
    <path clip-path="url(#p27caeecdb8)" d="M 188.64 61.775625 
C 192.93629 61.775625 197.057194 60.16352 200.09513 57.294359 
C 203.133066 54.425197 204.84 50.533232 204.84 46.475625 
C 204.84 42.418018 203.133066 38.526053 200.09513 35.656891 
C 197.057194 32.78773 192.93629 31.175625 188.64 31.175625 
C 184.34371 31.175625 180.222806 32.78773 177.18487 35.656891 
C 174.146934 38.526053 172.44 42.418018 172.44 46.475625 
C 172.44 50.533232 174.146934 54.425197 177.18487 57.294359 
C 180.222806 60.16352 184.34371 61.775625 188.64 61.775625 
z
" style="fill:none;stroke:#000000;stroke-linejoin:miter;stroke-width:1.5;"/>
   </g>
   <g id="patch_6">
    <path clip-path="url(#p27caeecdb8)" d="M 318.24 61.775625 
C 322.53629 61.775625 326.657194 60.16352 329.69513 57.294359 
C 332.733066 54.425197 334.44 50.533232 334.44 46.475625 
C 334.44 42.418018 332.733066 38.526053 329.69513 35.656891 
C 326.657194 32.78773 322.53629 31.175625 318.24 31.175625 
C 313.94371 31.175625 309.822806 32.78773 306.78487 35.656891 
C 303.746934 38.526053 302.04 42.418018 302.04 46.475625 
C 302.04 50.533232 303.746934 54.425197 306.78487 57.294359 
C 309.822806 60.16352 313.94371 61.775625 318.24 61.775625 
z
" style="fill:none;stroke:#000000;stroke-linejoin:miter;stroke-width:1.5;"/>
   </g>
   <g id="patch_7">
    <path clip-path="url(#p27caeecdb8)" d="M 447.84 61.775625 
C 452.13629 61.775625 456.257194 60.16352 459.29513 57.294359 
C 462.333066 54.425197 464.04 50.533232 464.04 46.475625 
C 464.04 42.418018 462.333066 38.526053 459.29513 35.656891 
C 456.257194 32.78773 452.13629 31.175625 447.84 31.175625 
C 443.54371 31.175625 439.422806 32.78773 436.38487 35.656891 
C 433.346934 38.526053 431.64 42.418018 431.64 46.475625 
C 431.64 50.533232 433.346934 54.425197 436.38487 57.294359 
C 439.422806 60.16352 443.54371 61.775625 447.84 61.775625 
z
" style="fill:none;stroke:#000000;stroke-linejoin:miter;stroke-width:1.5;"/>
   </g>
   <g id="patch_8">
    <path clip-path="url(#p27caeecdb8)" d="M 577.44 129.095625 
C 581.73629 129.095625 585.857194 127.48352 588.89513 124.614359 
C 591.933066 121.745197 593.64 117.853232 593.64 113.795625 
C 593.64 109.738018 591.933066 105.846053 588.89513 102.976891 
C 585.857194 100.10773 581.73629 98.495625 577.44 98.495625 
C 573.14371 98.495625 569.022806 100.10773 565.98487 102.976891 
C 562.946934 105.846053 561.24 109.738018 561.24 113.795625 
C 561.24 117.853232 562.946934 121.745197 565.98487 124.614359 
C 569.022806 127.48352 573.14371 129.095625 577.44 129.095625 
z
" style="fill:none;stroke:#000000;stroke-linejoin:miter;stroke-width:1.5;"/>
   </g>
   <g id="text_1">
    <!-- SOURCE -->
    <defs>
     <path d="M 53.515625 70.515625 
L 53.515625 60.890625 
Q 47.90625 63.578125 42.921875 64.890625 
Q 37.9375 66.21875 33.296875 66.21875 
Q 25.25 66.21875 20.875 63.09375 
Q 16.5 59.96875 16.5 54.203125 
Q 16.5 49.359375 19.40625 46.890625 
Q 22.3125 44.4375 30.421875 42.921875 
L 36.375 41.703125 
Q 47.40625 39.59375 52.65625 34.296875 
Q 57.90625 29 57.90625 20.125 
Q 57.90625 9.515625 50.796875 4.046875 
Q 43.703125 -1.421875 29.984375 -1.421875 
Q 24.8125 -1.421875 18.96875 -0.25 
Q 13.140625 0.921875 6.890625 3.21875 
L 6.890625 13.375 
Q 12.890625 10.015625 18.65625 8.296875 
Q 24.421875 6.59375 29.984375 6.59375 
Q 38.421875 6.59375 43.015625 9.90625 
Q 47.609375 13.234375 47.609375 19.390625 
Q 47.609375 24.75 44.3125 27.78125 
Q 41.015625 30.8125 33.5 32.328125 
L 27.484375 33.5 
Q 16.453125 35.6875 11.515625 40.375 
Q 6.59375 45.0625 6.59375 53.421875 
Q 6.59375 63.09375 13.40625 68.65625 
Q 20.21875 74.21875 32.171875 74.21875 
Q 37.3125 74.21875 42.625 73.28125 
Q 47.953125 72.359375 53.515625 70.515625 
" id="BitstreamVeraSans-Roman-53"/>
     <path d="M 39.40625 66.21875 
Q 28.65625 66.21875 22.328125 58.203125 
Q 16.015625 50.203125 16.015625 36.375 
Q 16.015625 22.609375 22.328125 14.59375 
Q 28.65625 6.59375 39.40625 6.59375 
Q 50.140625 6.59375 56.421875 14.59375 
Q 62.703125 22.609375 62.703125 36.375 
Q 62.703125 50.203125 56.421875 58.203125 
Q 50.140625 66.21875 39.40625 66.21875 
M 39.40625 74.21875 
Q 54.734375 74.21875 63.90625 63.9375 
Q 73.09375 53.65625 73.09375 36.375 
Q 73.09375 19.140625 63.90625 8.859375 
Q 54.734375 -1.421875 39.40625 -1.421875 
Q 24.03125 -1.421875 14.8125 8.828125 
Q 5.609375 19.09375 5.609375 36.375 
Q 5.609375 53.65625 14.8125 63.9375 
Q 24.03125 74.21875 39.40625 74.21875 
" id="BitstreamVeraSans-Roman-4f"/>
     <path d="M 64.40625 67.28125 
L 64.40625 56.890625 
Q 59.421875 61.53125 53.78125 63.8125 
Q 48.140625 66.109375 41.796875 66.109375 
Q 29.296875 66.109375 22.65625 58.46875 
Q 16.015625 50.828125 16.015625 36.375 
Q 16.015625 21.96875 22.65625 14.328125 
Q 29.296875 6.6875 41.796875 6.6875 
Q 48.140625 6.6875 53.78125 8.984375 
Q 59.421875 11.28125 64.40625 15.921875 
L 64.40625 5.609375 
Q 59.234375 2.09375 53.4375 0.328125 
Q 47.65625 -1.421875 41.21875 -1.421875 
Q 24.65625 -1.421875 15.125 8.703125 
Q 5.609375 18.84375 5.609375 36.375 
Q 5.609375 53.953125 15.125 64.078125 
Q 24.65625 74.21875 41.21875 74.21875 
Q 47.75 74.21875 53.53125 72.484375 
Q 59.328125 70.75 64.40625 67.28125 
" id="BitstreamVeraSans-Roman-43"/>
     <path d="M 9.8125 72.90625 
L 55.90625 72.90625 
L 55.90625 64.59375 
L 19.671875 64.59375 
L 19.671875 43.015625 
L 54.390625 43.015625 
L 54.390625 34.71875 
L 19.671875 34.71875 
L 19.671875 8.296875 
L 56.78125 8.296875 
L 56.78125 0 
L 9.8125 0 
z
" id="BitstreamVeraSans-Roman-45"/>
     <path d="M 44.390625 34.1875 
Q 47.5625 33.109375 50.5625 29.59375 
Q 53.5625 26.078125 56.59375 19.921875 
L 66.609375 0 
L 56 0 
L 46.6875 18.703125 
Q 43.0625 26.03125 39.671875 28.421875 
Q 36.28125 30.8125 30.421875 30.8125 
L 19.671875 30.8125 
L 19.671875 0 
L 9.8125 0 
L 9.8125 72.90625 
L 32.078125 72.90625 
Q 44.578125 72.90625 50.734375 67.671875 
Q 56.890625 62.453125 56.890625 51.90625 
Q 56.890625 45.015625 53.6875 40.46875 
Q 50.484375 35.9375 44.390625 34.1875 
M 19.671875 64.796875 
L 19.671875 38.921875 
L 32.078125 38.921875 
Q 39.203125 38.921875 42.84375 42.21875 
Q 46.484375 45.515625 46.484375 51.90625 
Q 46.484375 58.296875 42.84375 61.546875 
Q 39.203125 64.796875 32.078125 64.796875 
z
" id="BitstreamVeraSans-Roman-52"/>
     <path d="M 8.6875 72.90625 
L 18.609375 72.90625 
L 18.609375 28.609375 
Q 18.609375 16.890625 22.84375 11.734375 
Q 27.09375 6.59375 36.625 6.59375 
Q 46.09375 6.59375 50.34375 11.734375 
Q 54.59375 16.890625 54.59375 28.609375 
L 54.59375 72.90625 
L 64.5 72.90625 
L 64.5 27.390625 
Q 64.5 13.140625 57.4375 5.859375 
Q 50.390625 -1.421875 36.625 -1.421875 
Q 22.796875 -1.421875 15.734375 5.859375 
Q 8.6875 13.140625 8.6875 27.390625 
z
" id="BitstreamVeraSans-Roman-55"/>
    </defs>
    <g transform="translate(33.97125 16.44)scale(0.12 -0.12)">
     <use xlink:href="#BitstreamVeraSans-Roman-53"/>
     <use x="63.4765625" xlink:href="#BitstreamVeraSans-Roman-4f"/>
     <use x="142.1875" xlink:href="#BitstreamVeraSans-Roman-55"/>
     <use x="215.380859375" xlink:href="#BitstreamVeraSans-Roman-52"/>
     <use x="284.78515625" xlink:href="#BitstreamVeraSans-Roman-43"/>
     <use x="354.609375" xlink:href="#BitstreamVeraSans-Roman-45"/>
    </g>
   </g>
   <g id="text_2">
    <!-- SOURCE_V -->
    <defs>
     <path d="M 28.609375 0 
L 0.78125 72.90625 
L 11.078125 72.90625 
L 34.1875 11.53125 
L 57.328125 72.90625 
L 67.578125 72.90625 
L 39.796875 0 
z
" id="BitstreamVeraSans-Roman-56"/>
     <path d="M 50.984375 -16.609375 
L 50.984375 -23.578125 
L -0.984375 -23.578125 
L -0.984375 -16.609375 
z
" id="BitstreamVeraSans-Roman-5f"/>
    </defs>
    <g transform="translate(156.466875 16.10625)scale(0.12 -0.12)">
     <use xlink:href="#BitstreamVeraSans-Roman-53"/>
     <use x="63.4765625" xlink:href="#BitstreamVeraSans-Roman-4f"/>
     <use x="142.1875" xlink:href="#BitstreamVeraSans-Roman-55"/>
     <use x="215.380859375" xlink:href="#BitstreamVeraSans-Roman-52"/>
     <use x="284.78515625" xlink:href="#BitstreamVeraSans-Roman-43"/>
     <use x="354.609375" xlink:href="#BitstreamVeraSans-Roman-45"/>
     <use x="417.79296875" xlink:href="#BitstreamVeraSans-Roman-5f"/>
     <use x="467.79296875" xlink:href="#BitstreamVeraSans-Roman-56"/>
    </g>
   </g>
   <g id="text_3">
    <!-- SOURCE_I -->
    <defs>
     <path d="M 9.8125 72.90625 
L 19.671875 72.90625 
L 19.671875 0 
L 9.8125 0 
z
" id="BitstreamVeraSans-Roman-49"/>
    </defs>
    <g transform="translate(288.40125 16.10625)scale(0.12 -0.12)">
     <use xlink:href="#BitstreamVeraSans-Roman-53"/>
     <use x="63.4765625" xlink:href="#BitstreamVeraSans-Roman-4f"/>
     <use x="142.1875" xlink:href="#BitstreamVeraSans-Roman-55"/>
     <use x="215.380859375" xlink:href="#BitstreamVeraSans-Roman-52"/>
     <use x="284.78515625" xlink:href="#BitstreamVeraSans-Roman-43"/>
     <use x="354.609375" xlink:href="#BitstreamVeraSans-Roman-45"/>
     <use x="417.79296875" xlink:href="#BitstreamVeraSans-Roman-5f"/>
     <use x="467.79296875" xlink:href="#BitstreamVeraSans-Roman-49"/>
    </g>
   </g>
   <g id="text_4">
    <!-- SOURCE_SIN -->
    <defs>
     <path d="M 9.8125 72.90625 
L 23.09375 72.90625 
L 55.421875 11.921875 
L 55.421875 72.90625 
L 64.984375 72.90625 
L 64.984375 0 
L 51.703125 0 
L 19.390625 60.984375 
L 19.390625 0 
L 9.8125 0 
z
" id="BitstreamVeraSans-Roman-4e"/>
    </defs>
    <g transform="translate(409.7034375 16.10625)scale(0.12 -0.12)">
     <use xlink:href="#BitstreamVeraSans-Roman-53"/>
     <use x="63.4765625" xlink:href="#BitstreamVeraSans-Roman-4f"/>
     <use x="142.1875" xlink:href="#BitstreamVeraSans-Roman-55"/>
     <use x="215.380859375" xlink:href="#BitstreamVeraSans-Roman-52"/>
     <use x="284.78515625" xlink:href="#BitstreamVeraSans-Roman-43"/>
     <use x="354.609375" xlink:href="#BitstreamVeraSans-Roman-45"/>
     <use x="417.79296875" xlink:href="#BitstreamVeraSans-Roman-5f"/>
     <use x="467.79296875" xlink:href="#BitstreamVeraSans-Roman-53"/>
     <use x="531.26953125" xlink:href="#BitstreamVeraSans-Roman-49"/>
     <use x="560.76171875" xlink:href="#BitstreamVeraSans-Roman-4e"/>
    </g>
   </g>
   <g id="text_5">
    <!-- SOURCE_CONT -->
    <defs>
     <path d="M -0.296875 72.90625 
L 61.375 72.90625 
L 61.375 64.59375 
L 35.5 64.59375 
L 35.5 0 
L 25.59375 0 
L 25.59375 64.59375 
L -0.296875 64.59375 
z
" id="BitstreamVeraSans-Roman-54"/>
    </defs>
    <g transform="translate(532.305 16.10625)scale(0.12 -0.12)">
     <use xlink:href="#BitstreamVeraSans-Roman-53"/>
     <use x="63.4765625" xlink:href="#BitstreamVeraSans-Roman-4f"/>
     <use x="142.1875" xlink:href="#BitstreamVeraSans-Roman-55"/>
     <use x="215.380859375" xlink:href="#BitstreamVeraSans-Roman-52"/>
     <use x="284.78515625" xlink:href="#BitstreamVeraSans-Roman-43"/>
     <use x="354.609375" xlink:href="#BitstreamVeraSans-Roman-45"/>
     <use x="417.79296875" xlink:href="#BitstreamVeraSans-Roman-5f"/>
     <use x="467.79296875" xlink:href="#BitstreamVeraSans-Roman-43"/>
     <use x="537.6171875" xlink:href="#BitstreamVeraSans-Roman-4f"/>
     <use x="616.328125" xlink:href="#BitstreamVeraSans-Roman-4e"/>
     <use x="691.1328125" xlink:href="#BitstreamVeraSans-Roman-54"/>
    </g>
   </g>
   <g id="text_6">
    <!-- SOURCE_CONT_I -->
    <g transform="translate(9.135 83.42625)scale(0.12 -0.12)">
     <use xlink:href="#BitstreamVeraSans-Roman-53"/>
     <use x="63.4765625" xlink:href="#BitstreamVeraSans-Roman-4f"/>
     <use x="142.1875" xlink:href="#BitstreamVeraSans-Roman-55"/>
     <use x="215.380859375" xlink:href="#BitstreamVeraSans-Roman-52"/>
     <use x="284.78515625" xlink:href="#BitstreamVeraSans-Roman-43"/>
     <use x="354.609375" xlink:href="#BitstreamVeraSans-Roman-45"/>
     <use x="417.79296875" xlink:href="#BitstreamVeraSans-Roman-5f"/>
     <use x="467.79296875" xlink:href="#BitstreamVeraSans-Roman-43"/>
     <use x="537.6171875" xlink:href="#BitstreamVeraSans-Roman-4f"/>
     <use x="616.328125" xlink:href="#BitstreamVeraSans-Roman-4e"/>
     <use x="691.1328125" xlink:href="#BitstreamVeraSans-Roman-54"/>
     <use x="752.216796875" xlink:href="#BitstreamVeraSans-Roman-5f"/>
     <use x="802.216796875" xlink:href="#BitstreamVeraSans-Roman-49"/>
    </g>
   </g>
   <g id="text_7">
    <!-- SOURCE_CONT_V -->
    <g transform="translate(136.400625 83.42625)scale(0.12 -0.12)">
     <use xlink:href="#BitstreamVeraSans-Roman-53"/>
     <use x="63.4765625" xlink:href="#BitstreamVeraSans-Roman-4f"/>
     <use x="142.1875" xlink:href="#BitstreamVeraSans-Roman-55"/>
     <use x="215.380859375" xlink:href="#BitstreamVeraSans-Roman-52"/>
     <use x="284.78515625" xlink:href="#BitstreamVeraSans-Roman-43"/>
     <use x="354.609375" xlink:href="#BitstreamVeraSans-Roman-45"/>
     <use x="417.79296875" xlink:href="#BitstreamVeraSans-Roman-5f"/>
     <use x="467.79296875" xlink:href="#BitstreamVeraSans-Roman-43"/>
     <use x="537.6171875" xlink:href="#BitstreamVeraSans-Roman-4f"/>
     <use x="616.328125" xlink:href="#BitstreamVeraSans-Roman-4e"/>
     <use x="691.1328125" xlink:href="#BitstreamVeraSans-Roman-54"/>
     <use x="752.216796875" xlink:href="#BitstreamVeraSans-Roman-5f"/>
     <use x="802.216796875" xlink:href="#BitstreamVeraSans-Roman-56"/>
    </g>
   </g>
   <g id="text_8">
    <!-- BAT_CELL -->
    <defs>
     <path d="M 19.671875 34.8125 
L 19.671875 8.109375 
L 35.5 8.109375 
Q 43.453125 8.109375 47.28125 11.40625 
Q 51.125 14.703125 51.125 21.484375 
Q 51.125 28.328125 47.28125 31.5625 
Q 43.453125 34.8125 35.5 34.8125 
z
M 19.671875 64.796875 
L 19.671875 42.828125 
L 34.28125 42.828125 
Q 41.5 42.828125 45.03125 45.53125 
Q 48.578125 48.25 48.578125 53.8125 
Q 48.578125 59.328125 45.03125 62.0625 
Q 41.5 64.796875 34.28125 64.796875 
z
M 9.8125 72.90625 
L 35.015625 72.90625 
Q 46.296875 72.90625 52.390625 68.21875 
Q 58.5 63.53125 58.5 54.890625 
Q 58.5 48.1875 55.375 44.234375 
Q 52.25 40.28125 46.1875 39.3125 
Q 53.46875 37.75 57.5 32.78125 
Q 61.53125 27.828125 61.53125 20.40625 
Q 61.53125 10.640625 54.890625 5.3125 
Q 48.25 0 35.984375 0 
L 9.8125 0 
z
" id="BitstreamVeraSans-Roman-42"/>
     <path d="M 34.1875 63.1875 
L 20.796875 26.90625 
L 47.609375 26.90625 
z
M 28.609375 72.90625 
L 39.796875 72.90625 
L 67.578125 0 
L 57.328125 0 
L 50.6875 18.703125 
L 17.828125 18.703125 
L 11.1875 0 
L 0.78125 0 
z
" id="BitstreamVeraSans-Roman-41"/>
     <path d="M 9.8125 72.90625 
L 19.671875 72.90625 
L 19.671875 8.296875 
L 55.171875 8.296875 
L 55.171875 0 
L 9.8125 0 
z
" id="BitstreamVeraSans-Roman-4c"/>
    </defs>
    <g transform="translate(288.69375 87.25125)scale(0.12 -0.12)">
     <use xlink:href="#BitstreamVeraSans-Roman-42"/>
     <use x="68.603515625" xlink:href="#BitstreamVeraSans-Roman-41"/>
     <use x="136.90234375" xlink:href="#BitstreamVeraSans-Roman-54"/>
     <use x="197.986328125" xlink:href="#BitstreamVeraSans-Roman-5f"/>
     <use x="247.986328125" xlink:href="#BitstreamVeraSans-Roman-43"/>
     <use x="317.810546875" xlink:href="#BitstreamVeraSans-Roman-45"/>
     <use x="380.994140625" xlink:href="#BitstreamVeraSans-Roman-4c"/>
     <use x="436.70703125" xlink:href="#BitstreamVeraSans-Roman-4c"/>
    </g>
   </g>
   <g id="text_9">
    <!-- BATTERY -->
    <defs>
     <path d="M -0.203125 72.90625 
L 10.40625 72.90625 
L 30.609375 42.921875 
L 50.6875 72.90625 
L 61.28125 72.90625 
L 35.5 34.71875 
L 35.5 0 
L 25.59375 0 
L 25.59375 34.71875 
z
" id="BitstreamVeraSans-Roman-59"/>
    </defs>
    <g transform="translate(420.6778125 87.585)scale(0.12 -0.12)">
     <use xlink:href="#BitstreamVeraSans-Roman-42"/>
     <use x="68.603515625" xlink:href="#BitstreamVeraSans-Roman-41"/>
     <use x="136.90234375" xlink:href="#BitstreamVeraSans-Roman-54"/>
     <use x="197.970703125" xlink:href="#BitstreamVeraSans-Roman-54"/>
     <use x="259.0546875" xlink:href="#BitstreamVeraSans-Roman-45"/>
     <use x="322.23828125" xlink:href="#BitstreamVeraSans-Roman-52"/>
     <use x="391.626953125" xlink:href="#BitstreamVeraSans-Roman-59"/>
    </g>
   </g>
   <g id="text_10">
    <!-- LAMP -->
    <defs>
     <path d="M 19.671875 64.796875 
L 19.671875 37.40625 
L 32.078125 37.40625 
Q 38.96875 37.40625 42.71875 40.96875 
Q 46.484375 44.53125 46.484375 51.125 
Q 46.484375 57.671875 42.71875 61.234375 
Q 38.96875 64.796875 32.078125 64.796875 
z
M 9.8125 72.90625 
L 32.078125 72.90625 
Q 44.34375 72.90625 50.609375 67.359375 
Q 56.890625 61.8125 56.890625 51.125 
Q 56.890625 40.328125 50.609375 34.8125 
Q 44.34375 29.296875 32.078125 29.296875 
L 19.671875 29.296875 
L 19.671875 0 
L 9.8125 0 
z
" id="BitstreamVeraSans-Roman-50"/>
     <path d="M 9.8125 72.90625 
L 24.515625 72.90625 
L 43.109375 23.296875 
L 61.8125 72.90625 
L 76.515625 72.90625 
L 76.515625 0 
L 66.890625 0 
L 66.890625 64.015625 
L 48.09375 14.015625 
L 38.1875 14.015625 
L 19.390625 64.015625 
L 19.390625 0 
L 9.8125 0 
z
" id="BitstreamVeraSans-Roman-4d"/>
    </defs>
    <g transform="translate(561.1959375 83.76)scale(0.12 -0.12)">
     <use xlink:href="#BitstreamVeraSans-Roman-4c"/>
     <use x="55.744140625" xlink:href="#BitstreamVeraSans-Roman-41"/>
     <use x="124.15234375" xlink:href="#BitstreamVeraSans-Roman-4d"/>
     <use x="210.431640625" xlink:href="#BitstreamVeraSans-Roman-50"/>
    </g>
   </g>
  </g>
 </g>
 <defs>
  <clipPath id="p27caeecdb8">
   <rect height="104.04" width="622.08" x="7.2" y="28.115625"/>
  </clipPath>
 </defs>
</svg>
