<?xml version="1.0" encoding="utf-8" standalone="no"?>
<!DOCTYPE svg PUBLIC "-//W3C//DTD SVG 1.1//EN"
  "http://www.w3.org/Graphics/SVG/1.1/DTD/svg11.dtd">
<!-- Created with matplotlib (https://matplotlib.org/) -->
<svg height="257.88025pt" version="1.1" viewBox="0 0 290.18225 257.88025" width="290.18225pt" xmlns="http://www.w3.org/2000/svg" xmlns:xlink="http://www.w3.org/1999/xlink">
 <defs>
  <style type="text/css">
*{stroke-linecap:butt;stroke-linejoin:round;white-space:pre;}
  </style>
 </defs>
 <g id="figure_1">
  <g id="patch_1">
   <path d="M 0 257.88025 
L 290.18225 257.88025 
L 290.18225 0 
L 0 0 
z
" style="fill:none;"/>
  </g>
  <g id="axes_1">
   <g id="patch_2">
    <path clip-path="url(#pf790a0d709)" d="M 48.188125 194.333875 
C 52.914044 194.333875 57.447038 192.717029 60.788768 189.839429 
C 64.130497 186.961828 66.008125 183.058417 66.008125 178.988875 
C 66.008125 174.919333 64.130497 171.015922 60.788768 168.138321 
C 57.447038 165.260721 52.914044 163.643875 48.188125 163.643875 
C 43.462206 163.643875 38.929212 165.260721 35.587482 168.138321 
C 32.245753 171.015922 30.368125 174.919333 30.368125 178.988875 
C 30.368125 183.058417 32.245753 186.961828 35.587482 189.839429 
C 38.929212 192.717029 43.462206 194.333875 48.188125 194.333875 
z
" style="fill:none;stroke:#000000;stroke-linejoin:miter;stroke-width:2;"/>
   </g>
   <g id="patch_3">
    <path clip-path="url(#pf790a0d709)" d="M 241.994125 194.333875 
C 246.720044 194.333875 251.253038 192.717029 254.594768 189.839429 
C 257.936497 186.961828 259.814125 183.058417 259.814125 178.988875 
C 259.814125 174.919333 257.936497 171.015922 254.594768 168.138321 
C 251.253038 165.260721 246.720044 163.643875 241.994125 163.643875 
C 237.268206 163.643875 232.735212 165.260721 229.393482 168.138321 
C 226.051753 171.015922 224.174125 174.919333 224.174125 178.988875 
C 224.174125 183.058417 226.051753 186.961828 229.393482 189.839429 
C 232.735212 192.717029 237.268206 194.333875 241.994125 194.333875 
z
" style="fill:none;stroke:#000000;stroke-linejoin:miter;stroke-width:2;"/>
   </g>
   <g id="patch_4">
    <path clip-path="url(#pf790a0d709)" d="M 41.654125 119.794375 
C 42.298569 119.794375 42.916704 119.573896 43.372394 119.181496 
C 43.828085 118.789096 44.084125 118.256812 44.084125 117.701875 
C 44.084125 117.146938 43.828085 116.614654 43.372394 116.222254 
C 42.916704 115.829854 42.298569 115.609375 41.654125 115.609375 
C 41.009681 115.609375 40.391546 115.829854 39.935856 116.222254 
C 39.480165 116.614654 39.224125 117.146938 39.224125 117.701875 
C 39.224125 118.256812 39.480165 118.789096 39.935856 119.181496 
C 40.391546 119.573896 41.009681 119.794375 41.654125 119.794375 
z
" style="stroke:#000000;stroke-linejoin:miter;stroke-width:2;"/>
   </g>
   <g id="patch_5">
    <path clip-path="url(#pf790a0d709)" d="M 114.554125 119.794375 
C 115.198569 119.794375 115.816704 119.573896 116.272394 119.181496 
C 116.728085 118.789096 116.984125 118.256812 116.984125 117.701875 
C 116.984125 117.146938 116.728085 116.614654 116.272394 116.222254 
C 115.816704 115.829854 115.198569 115.609375 114.554125 115.609375 
C 113.909681 115.609375 113.291546 115.829854 112.835856 116.222254 
C 112.380165 116.614654 112.124125 117.146938 112.124125 117.701875 
C 112.124125 118.256812 112.380165 118.789096 112.835856 119.181496 
C 113.291546 119.573896 113.909681 119.794375 114.554125 119.794375 
z
" style="stroke:#000000;stroke-linejoin:miter;stroke-width:2;"/>
   </g>
   <g id="patch_6">
    <path clip-path="url(#pf790a0d709)" d="M 248.528125 119.794375 
C 249.172569 119.794375 249.790704 119.573896 250.246394 119.181496 
C 250.702085 118.789096 250.958125 118.256812 250.958125 117.701875 
C 250.958125 117.146938 250.702085 116.614654 250.246394 116.222254 
C 249.790704 115.829854 249.172569 115.609375 248.528125 115.609375 
C 247.883681 115.609375 247.265546 115.829854 246.809856 116.222254 
C 246.354165 116.614654 246.098125 117.146938 246.098125 117.701875 
C 246.098125 118.256812 246.354165 118.789096 246.809856 119.181496 
C 247.265546 119.573896 247.883681 119.794375 248.528125 119.794375 
z
" style="stroke:#000000;stroke-linejoin:miter;stroke-width:2;"/>
   </g>
   <g id="patch_7">
    <path clip-path="url(#pf790a0d709)" d="M 175.628125 119.794375 
C 176.272569 119.794375 176.890704 119.573896 177.346394 119.181496 
C 177.802085 118.789096 178.058125 118.256812 178.058125 117.701875 
C 178.058125 117.146938 177.802085 116.614654 177.346394 116.222254 
C 176.890704 115.829854 176.272569 115.609375 175.628125 115.609375 
C 174.983681 115.609375 174.365546 115.829854 173.909856 116.222254 
C 173.454165 116.614654 173.198125 117.146938 173.198125 117.701875 
C 173.198125 118.256812 173.454165 118.789096 173.909856 119.181496 
C 174.365546 119.573896 174.983681 119.794375 175.628125 119.794375 
z
" style="stroke:#000000;stroke-linejoin:miter;stroke-width:2;"/>
   </g>
   <g id="patch_8">
    <path clip-path="url(#pf790a0d709)" d="M 145.091125 221.443375 
C 145.735569 221.443375 146.353704 221.222896 146.809394 220.830496 
C 147.265085 220.438096 147.521125 219.905812 147.521125 219.350875 
C 147.521125 218.795938 147.265085 218.263654 146.809394 217.871254 
C 146.353704 217.478854 145.735569 217.258375 145.091125 217.258375 
C 144.446681 217.258375 143.828546 217.478854 143.372856 217.871254 
C 142.917165 218.263654 142.661125 218.795938 142.661125 219.350875 
C 142.661125 219.905812 142.917165 220.438096 143.372856 220.830496 
C 143.828546 221.222896 144.446681 221.443375 145.091125 221.443375 
z
" style="stroke:#000000;stroke-linejoin:miter;stroke-width:2;"/>
   </g>
   <g id="patch_9">
    <path clip-path="url(#pf790a0d709)" d="M 145.091125 36.094375 
C 145.735569 36.094375 146.353704 35.873896 146.809394 35.481496 
C 147.265085 35.089096 147.521125 34.556812 147.521125 34.001875 
C 147.521125 33.446938 147.265085 32.914654 146.809394 32.522254 
C 146.353704 32.129854 145.735569 31.909375 145.091125 31.909375 
C 144.446681 31.909375 143.828546 32.129854 143.372856 32.522254 
C 142.917165 32.914654 142.661125 33.446938 142.661125 34.001875 
C 142.661125 34.556812 142.917165 35.089096 143.372856 35.481496 
C 143.828546 35.873896 144.446681 36.094375 145.091125 36.094375 
z
" style="stroke:#000000;stroke-linejoin:miter;stroke-width:2;"/>
   </g>
   <g id="patch_10">
    <path clip-path="url(#pf790a0d709)" d="M 41.654125 193.310875 
L 44.465544 187.561133 
L 46.563565 189.668868 
L 54.117582 184.093283 
L 54.138668 184.114467 
L 46.584651 189.690051 
L 48.682672 191.797785 
z
" style="stroke:#000000;stroke-linejoin:miter;stroke-width:2;"/>
   </g>
   <g id="patch_11">
    <path clip-path="url(#pf790a0d709)" d="M 248.528125 193.310875 
L 241.499578 191.797785 
L 243.597599 189.690051 
L 236.043582 184.114467 
L 236.064668 184.093283 
L 243.618685 189.668868 
L 245.716706 187.561133 
z
" style="stroke:#000000;stroke-linejoin:miter;stroke-width:2;"/>
   </g>
   <g id="line2d_1">
    <path clip-path="url(#pf790a0d709)" d="M 54.128125 178.988875 
L 66.008125 178.988875 
" style="fill:none;stroke:#000000;stroke-linecap:round;stroke-width:2;"/>
   </g>
   <g id="line2d_2">
    <path clip-path="url(#pf790a0d709)" d="M 54.128125 189.218875 
L 54.128125 168.758875 
" style="fill:none;stroke:#000000;stroke-linecap:round;stroke-width:2;"/>
   </g>
   <g id="line2d_3">
    <path clip-path="url(#pf790a0d709)" d="M 41.654125 159.551875 
L 41.654125 164.666875 
L 54.128125 173.873875 
" style="fill:none;stroke:#000000;stroke-linecap:round;stroke-width:2;"/>
   </g>
   <g id="line2d_4">
    <path clip-path="url(#pf790a0d709)" d="M 41.654125 198.425875 
L 41.654125 193.310875 
L 54.128125 184.103875 
" style="fill:none;stroke:#000000;stroke-linecap:round;stroke-width:2;"/>
   </g>
   <g id="line2d_5">
    <path clip-path="url(#pf790a0d709)" d="M 224.174125 178.988875 
L 236.054125 178.988875 
" style="fill:none;stroke:#000000;stroke-linecap:round;stroke-width:2;"/>
   </g>
   <g id="line2d_6">
    <path clip-path="url(#pf790a0d709)" d="M 236.054125 168.758875 
L 236.054125 189.218875 
" style="fill:none;stroke:#000000;stroke-linecap:round;stroke-width:2;"/>
   </g>
   <g id="line2d_7">
    <path clip-path="url(#pf790a0d709)" d="M 236.054125 173.873875 
L 248.528125 164.666875 
L 248.528125 159.551875 
" style="fill:none;stroke:#000000;stroke-linecap:round;stroke-width:2;"/>
   </g>
   <g id="line2d_8">
    <path clip-path="url(#pf790a0d709)" d="M 236.054125 184.103875 
L 248.528125 193.310875 
L 248.528125 198.425875 
" style="fill:none;stroke:#000000;stroke-linecap:round;stroke-width:2;"/>
   </g>
   <g id="line2d_9">
    <path clip-path="url(#pf790a0d709)" d="M 41.654125 159.551875 
L 41.654125 138.626875 
L 41.654125 117.701875 
" style="fill:none;stroke:#000000;stroke-linecap:round;stroke-width:2;"/>
   </g>
   <g id="line2d_10">
    <path clip-path="url(#pf790a0d709)" d="M 41.654125 117.701875 
L 41.654125 89.801875 
L 33.554125 87.476875 
L 49.754125 82.826875 
L 33.554125 78.176875 
L 49.754125 73.526875 
L 33.554125 68.876875 
L 49.754125 64.226875 
L 41.654125 61.901875 
L 41.654125 34.001875 
" style="fill:none;stroke:#000000;stroke-linecap:round;stroke-width:2;"/>
   </g>
   <g id="line2d_11">
    <path clip-path="url(#pf790a0d709)" d="M 41.654125 117.701875 
" style="fill:none;stroke:#000000;stroke-linecap:round;stroke-width:2;"/>
   </g>
   <g id="line2d_12">
    <path clip-path="url(#pf790a0d709)" d="M 41.654125 117.701875 
L 61.904125 117.701875 
L 64.604125 110.726875 
L 70.004125 124.676875 
L 75.404125 110.726875 
L 80.804125 124.676875 
L 86.204125 110.726875 
L 91.604125 124.676875 
L 94.304125 117.701875 
L 114.554125 117.701875 
" style="fill:none;stroke:#000000;stroke-linecap:round;stroke-width:2;"/>
   </g>
   <g id="line2d_13">
    <path clip-path="url(#pf790a0d709)" d="M 114.554125 117.701875 
" style="fill:none;stroke:#000000;stroke-linecap:round;stroke-width:2;"/>
   </g>
   <g id="line2d_14">
    <path clip-path="url(#pf790a0d709)" d="M 114.554125 117.701875 
L 114.554125 112.470625 
L 114.554125 107.239375 
" style="fill:none;stroke:#000000;stroke-linecap:round;stroke-width:2;"/>
   </g>
   <g id="line2d_15">
    <path clip-path="url(#pf790a0d709)" d="M 114.554125 107.239375 
" style="fill:none;stroke:#000000;stroke-linecap:round;stroke-width:2;"/>
   </g>
   <g id="line2d_16">
    <path clip-path="url(#pf790a0d709)" d="M 114.554125 117.701875 
L 169.364125 148.345375 
L 224.174125 178.988875 
" style="fill:none;stroke:#000000;stroke-linecap:round;stroke-width:2;"/>
   </g>
   <g id="line2d_17">
    <path clip-path="url(#pf790a0d709)" d="M 248.528125 159.551875 
L 248.528125 138.626875 
L 248.528125 117.701875 
" style="fill:none;stroke:#000000;stroke-linecap:round;stroke-width:2;"/>
   </g>
   <g id="line2d_18">
    <path clip-path="url(#pf790a0d709)" d="M 248.528125 117.701875 
" style="fill:none;stroke:#000000;stroke-linecap:round;stroke-width:2;"/>
   </g>
   <g id="line2d_19">
    <path clip-path="url(#pf790a0d709)" d="M 248.528125 117.701875 
L 248.528125 89.801875 
L 240.428125 87.476875 
L 256.628125 82.826875 
L 240.428125 78.176875 
L 256.628125 73.526875 
L 240.428125 68.876875 
L 256.628125 64.226875 
L 248.528125 61.901875 
L 248.528125 34.001875 
" style="fill:none;stroke:#000000;stroke-linecap:round;stroke-width:2;"/>
   </g>
   <g id="line2d_20">
    <path clip-path="url(#pf790a0d709)" d="M 248.528125 117.701875 
L 228.278125 117.701875 
L 225.578125 124.676875 
L 220.178125 110.726875 
L 214.778125 124.676875 
L 209.378125 110.726875 
L 203.978125 124.676875 
L 198.578125 110.726875 
L 195.878125 117.701875 
L 175.628125 117.701875 
" style="fill:none;stroke:#000000;stroke-linecap:round;stroke-width:2;"/>
   </g>
   <g id="line2d_21">
    <path clip-path="url(#pf790a0d709)" d="M 175.628125 117.701875 
" style="fill:none;stroke:#000000;stroke-linecap:round;stroke-width:2;"/>
   </g>
   <g id="line2d_22">
    <path clip-path="url(#pf790a0d709)" d="M 175.628125 117.701875 
L 175.628125 112.470625 
L 175.628125 107.239375 
" style="fill:none;stroke:#000000;stroke-linecap:round;stroke-width:2;"/>
   </g>
   <g id="line2d_23">
    <path clip-path="url(#pf790a0d709)" d="M 175.628125 107.239375 
" style="fill:none;stroke:#000000;stroke-linecap:round;stroke-width:2;"/>
   </g>
   <g id="line2d_24">
    <path clip-path="url(#pf790a0d709)" d="M 175.628125 117.701875 
L 120.818125 148.345375 
L 66.008125 178.988875 
" style="fill:none;stroke:#000000;stroke-linecap:round;stroke-width:2;"/>
   </g>
   <g id="line2d_25">
    <path clip-path="url(#pf790a0d709)" d="M 41.654125 198.425875 
L 41.654125 208.888375 
L 41.654125 219.350875 
" style="fill:none;stroke:#000000;stroke-linecap:round;stroke-width:2;"/>
   </g>
   <g id="line2d_26">
    <path clip-path="url(#pf790a0d709)" d="M 41.654125 219.350875 
L 145.091125 219.350875 
L 248.528125 219.350875 
" style="fill:none;stroke:#000000;stroke-linecap:round;stroke-width:2;"/>
   </g>
   <g id="line2d_27">
    <path clip-path="url(#pf790a0d709)" d="M 248.528125 219.350875 
L 248.528125 208.888375 
L 248.528125 198.425875 
" style="fill:none;stroke:#000000;stroke-linecap:round;stroke-width:2;"/>
   </g>
   <g id="line2d_28">
    <path clip-path="url(#pf790a0d709)" d="M 145.091125 219.350875 
" style="fill:none;stroke:#000000;stroke-linecap:round;stroke-width:2;"/>
   </g>
   <g id="line2d_29">
    <path clip-path="url(#pf790a0d709)" d="M 145.091125 219.350875 
L 145.091125 230.510875 
L 136.991125 230.510875 
L 153.191125 230.510875 
M 139.421125 233.858875 
L 150.761125 233.858875 
M 143.471125 237.206875 
L 146.711125 237.206875 
" style="fill:none;stroke:#000000;stroke-linecap:round;stroke-width:2;"/>
   </g>
   <g id="line2d_30">
    <path clip-path="url(#pf790a0d709)" d="M 41.654125 34.001875 
L 145.091125 34.001875 
L 248.528125 34.001875 
" style="fill:none;stroke:#000000;stroke-linecap:round;stroke-width:2;"/>
   </g>
   <g id="line2d_31">
    <path clip-path="url(#pf790a0d709)" d="M 145.091125 34.001875 
" style="fill:none;stroke:#000000;stroke-linecap:round;stroke-width:2;"/>
   </g>
   <g id="line2d_32">
    <path clip-path="url(#pf790a0d709)" d="M 145.091125 34.001875 
L 145.091125 28.770625 
L 145.091125 23.539375 
" style="fill:none;stroke:#000000;stroke-linecap:round;stroke-width:2;"/>
   </g>
   <g id="text_1">
    <!-- Q1 -->
    <defs>
     <path d="M 39.40625 66.21875 
Q 28.65625 66.21875 22.328125 58.203125 
Q 16.015625 50.203125 16.015625 36.375 
Q 16.015625 22.609375 22.328125 14.59375 
Q 28.65625 6.59375 39.40625 6.59375 
Q 50.140625 6.59375 56.421875 14.59375 
Q 62.703125 22.609375 62.703125 36.375 
Q 62.703125 50.203125 56.421875 58.203125 
Q 50.140625 66.21875 39.40625 66.21875 
z
M 53.21875 1.3125 
L 66.21875 -12.890625 
L 54.296875 -12.890625 
L 43.5 -1.21875 
Q 41.890625 -1.3125 41.03125 -1.359375 
Q 40.1875 -1.421875 39.40625 -1.421875 
Q 24.03125 -1.421875 14.8125 8.859375 
Q 5.609375 19.140625 5.609375 36.375 
Q 5.609375 53.65625 14.8125 63.9375 
Q 24.03125 74.21875 39.40625 74.21875 
Q 54.734375 74.21875 63.90625 63.9375 
Q 73.09375 53.65625 73.09375 36.375 
Q 73.09375 23.6875 67.984375 14.640625 
Q 62.890625 5.609375 53.21875 1.3125 
z
" id="DejaVuSans-81"/>
     <path d="M 12.40625 8.296875 
L 28.515625 8.296875 
L 28.515625 63.921875 
L 10.984375 60.40625 
L 10.984375 69.390625 
L 28.421875 72.90625 
L 38.28125 72.90625 
L 38.28125 8.296875 
L 54.390625 8.296875 
L 54.390625 0 
L 12.40625 0 
z
" id="DejaVuSans-49"/>
    </defs>
    <g transform="translate(7.2 182.852)scale(0.14 -0.14)">
     <use xlink:href="#DejaVuSans-81"/>
     <use x="78.710938" xlink:href="#DejaVuSans-49"/>
    </g>
   </g>
   <g id="text_2">
    <!-- Q2 -->
    <defs>
     <path d="M 19.1875 8.296875 
L 53.609375 8.296875 
L 53.609375 0 
L 7.328125 0 
L 7.328125 8.296875 
Q 12.9375 14.109375 22.625 23.890625 
Q 32.328125 33.6875 34.8125 36.53125 
Q 39.546875 41.84375 41.421875 45.53125 
Q 43.3125 49.21875 43.3125 52.78125 
Q 43.3125 58.59375 39.234375 62.25 
Q 35.15625 65.921875 28.609375 65.921875 
Q 23.96875 65.921875 18.8125 64.3125 
Q 13.671875 62.703125 7.8125 59.421875 
L 7.8125 69.390625 
Q 13.765625 71.78125 18.9375 73 
Q 24.125 74.21875 28.421875 74.21875 
Q 39.75 74.21875 46.484375 68.546875 
Q 53.21875 62.890625 53.21875 53.421875 
Q 53.21875 48.921875 51.53125 44.890625 
Q 49.859375 40.875 45.40625 35.40625 
Q 44.1875 33.984375 37.640625 27.21875 
Q 31.109375 20.453125 19.1875 8.296875 
z
" id="DejaVuSans-50"/>
    </defs>
    <g transform="translate(263.054125 182.852)scale(0.14 -0.14)">
     <use xlink:href="#DejaVuSans-81"/>
     <use x="78.710938" xlink:href="#DejaVuSans-50"/>
    </g>
   </g>
   <g id="text_3">
    <!-- R1 -->
    <defs>
     <path d="M 44.390625 34.1875 
Q 47.5625 33.109375 50.5625 29.59375 
Q 53.5625 26.078125 56.59375 19.921875 
L 66.609375 0 
L 56 0 
L 46.6875 18.703125 
Q 43.0625 26.03125 39.671875 28.421875 
Q 36.28125 30.8125 30.421875 30.8125 
L 19.671875 30.8125 
L 19.671875 0 
L 9.8125 0 
L 9.8125 72.90625 
L 32.078125 72.90625 
Q 44.578125 72.90625 50.734375 67.671875 
Q 56.890625 62.453125 56.890625 51.90625 
Q 56.890625 45.015625 53.6875 40.46875 
Q 50.484375 35.9375 44.390625 34.1875 
z
M 19.671875 64.796875 
L 19.671875 38.921875 
L 32.078125 38.921875 
Q 39.203125 38.921875 42.84375 42.21875 
Q 46.484375 45.515625 46.484375 51.90625 
Q 46.484375 58.296875 42.84375 61.546875 
Q 39.203125 64.796875 32.078125 64.796875 
z
" id="DejaVuSans-82"/>
    </defs>
    <g transform="translate(11.678813 79.715)scale(0.14 -0.14)">
     <use xlink:href="#DejaVuSans-82"/>
     <use x="69.482422" xlink:href="#DejaVuSans-49"/>
    </g>
   </g>
   <g id="text_4">
    <!-- V1 -->
    <defs>
     <path d="M 28.609375 0 
L 0.78125 72.90625 
L 11.078125 72.90625 
L 34.1875 11.53125 
L 57.328125 72.90625 
L 67.578125 72.90625 
L 39.796875 0 
z
" id="DejaVuSans-86"/>
    </defs>
    <g transform="translate(17.49975 121.565)scale(0.14 -0.14)">
     <use xlink:href="#DejaVuSans-86"/>
     <use x="68.408203" xlink:href="#DejaVuSans-49"/>
    </g>
   </g>
   <g id="text_5">
    <!-- R3 -->
    <defs>
     <path d="M 40.578125 39.3125 
Q 47.65625 37.796875 51.625 33 
Q 55.609375 28.21875 55.609375 21.1875 
Q 55.609375 10.40625 48.1875 4.484375 
Q 40.765625 -1.421875 27.09375 -1.421875 
Q 22.515625 -1.421875 17.65625 -0.515625 
Q 12.796875 0.390625 7.625 2.203125 
L 7.625 11.71875 
Q 11.71875 9.328125 16.59375 8.109375 
Q 21.484375 6.890625 26.8125 6.890625 
Q 36.078125 6.890625 40.9375 10.546875 
Q 45.796875 14.203125 45.796875 21.1875 
Q 45.796875 27.640625 41.28125 31.265625 
Q 36.765625 34.90625 28.71875 34.90625 
L 20.21875 34.90625 
L 20.21875 43.015625 
L 29.109375 43.015625 
Q 36.375 43.015625 40.234375 45.921875 
Q 44.09375 48.828125 44.09375 54.296875 
Q 44.09375 59.90625 40.109375 62.90625 
Q 36.140625 65.921875 28.71875 65.921875 
Q 24.65625 65.921875 20.015625 65.03125 
Q 15.375 64.15625 9.8125 62.3125 
L 9.8125 71.09375 
Q 15.4375 72.65625 20.34375 73.4375 
Q 25.25 74.21875 29.59375 74.21875 
Q 40.828125 74.21875 47.359375 69.109375 
Q 53.90625 64.015625 53.90625 55.328125 
Q 53.90625 49.265625 50.4375 45.09375 
Q 46.96875 40.921875 40.578125 39.3125 
z
" id="DejaVuSans-51"/>
    </defs>
    <g transform="translate(68.786469 138.104688)scale(0.14 -0.14)">
     <use xlink:href="#DejaVuSans-82"/>
     <use x="69.482422" xlink:href="#DejaVuSans-51"/>
    </g>
   </g>
   <g id="text_6">
    <!-- Set -->
    <defs>
     <path d="M 53.515625 70.515625 
L 53.515625 60.890625 
Q 47.90625 63.578125 42.921875 64.890625 
Q 37.9375 66.21875 33.296875 66.21875 
Q 25.25 66.21875 20.875 63.09375 
Q 16.5 59.96875 16.5 54.203125 
Q 16.5 49.359375 19.40625 46.890625 
Q 22.3125 44.4375 30.421875 42.921875 
L 36.375 41.703125 
Q 47.40625 39.59375 52.65625 34.296875 
Q 57.90625 29 57.90625 20.125 
Q 57.90625 9.515625 50.796875 4.046875 
Q 43.703125 -1.421875 29.984375 -1.421875 
Q 24.8125 -1.421875 18.96875 -0.25 
Q 13.140625 0.921875 6.890625 3.21875 
L 6.890625 13.375 
Q 12.890625 10.015625 18.65625 8.296875 
Q 24.421875 6.59375 29.984375 6.59375 
Q 38.421875 6.59375 43.015625 9.90625 
Q 47.609375 13.234375 47.609375 19.390625 
Q 47.609375 24.75 44.3125 27.78125 
Q 41.015625 30.8125 33.5 32.328125 
L 27.484375 33.5 
Q 16.453125 35.6875 11.515625 40.375 
Q 6.59375 45.0625 6.59375 53.421875 
Q 6.59375 63.09375 13.40625 68.65625 
Q 20.21875 74.21875 32.171875 74.21875 
Q 37.3125 74.21875 42.625 73.28125 
Q 47.953125 72.359375 53.515625 70.515625 
z
" id="DejaVuSans-83"/>
     <path d="M 56.203125 29.59375 
L 56.203125 25.203125 
L 14.890625 25.203125 
Q 15.484375 15.921875 20.484375 11.0625 
Q 25.484375 6.203125 34.421875 6.203125 
Q 39.59375 6.203125 44.453125 7.46875 
Q 49.3125 8.734375 54.109375 11.28125 
L 54.109375 2.78125 
Q 49.265625 0.734375 44.1875 -0.34375 
Q 39.109375 -1.421875 33.890625 -1.421875 
Q 20.796875 -1.421875 13.15625 6.1875 
Q 5.515625 13.8125 5.515625 26.8125 
Q 5.515625 40.234375 12.765625 48.109375 
Q 20.015625 56 32.328125 56 
Q 43.359375 56 49.78125 48.890625 
Q 56.203125 41.796875 56.203125 29.59375 
z
M 47.21875 32.234375 
Q 47.125 39.59375 43.09375 43.984375 
Q 39.0625 48.390625 32.421875 48.390625 
Q 24.90625 48.390625 20.390625 44.140625 
Q 15.875 39.890625 15.1875 32.171875 
z
" id="DejaVuSans-101"/>
     <path d="M 18.3125 70.21875 
L 18.3125 54.6875 
L 36.8125 54.6875 
L 36.8125 47.703125 
L 18.3125 47.703125 
L 18.3125 18.015625 
Q 18.3125 11.328125 20.140625 9.421875 
Q 21.96875 7.515625 27.59375 7.515625 
L 36.8125 7.515625 
L 36.8125 0 
L 27.59375 0 
Q 17.1875 0 13.234375 3.875 
Q 9.28125 7.765625 9.28125 18.015625 
L 9.28125 47.703125 
L 2.6875 47.703125 
L 2.6875 54.6875 
L 9.28125 54.6875 
L 9.28125 70.21875 
z
" id="DejaVuSans-116"/>
    </defs>
    <g transform="translate(103.058813 99.445312)scale(0.14 -0.14)">
     <use xlink:href="#DejaVuSans-83"/>
     <use x="63.476562" xlink:href="#DejaVuSans-101"/>
     <use x="125" xlink:href="#DejaVuSans-116"/>
    </g>
   </g>
   <g id="text_7">
    <!-- V2 -->
    <g transform="translate(254.198125 121.565)scale(0.14 -0.14)">
     <use xlink:href="#DejaVuSans-86"/>
     <use x="68.408203" xlink:href="#DejaVuSans-50"/>
    </g>
   </g>
   <g id="text_8">
    <!-- R2 -->
    <g transform="translate(259.868125 79.715)scale(0.14 -0.14)">
     <use xlink:href="#DejaVuSans-82"/>
     <use x="69.482422" xlink:href="#DejaVuSans-50"/>
    </g>
   </g>
   <g id="text_9">
    <!-- R4 -->
    <defs>
     <path d="M 37.796875 64.3125 
L 12.890625 25.390625 
L 37.796875 25.390625 
z
M 35.203125 72.90625 
L 47.609375 72.90625 
L 47.609375 25.390625 
L 58.015625 25.390625 
L 58.015625 17.1875 
L 47.609375 17.1875 
L 47.609375 0 
L 37.796875 0 
L 37.796875 17.1875 
L 4.890625 17.1875 
L 4.890625 26.703125 
z
" id="DejaVuSans-52"/>
    </defs>
    <g transform="translate(202.760469 138.104688)scale(0.14 -0.14)">
     <use xlink:href="#DejaVuSans-82"/>
     <use x="69.482422" xlink:href="#DejaVuSans-52"/>
    </g>
   </g>
   <g id="text_10">
    <!-- Reset -->
    <defs>
     <path d="M 44.28125 53.078125 
L 44.28125 44.578125 
Q 40.484375 46.53125 36.375 47.5 
Q 32.28125 48.484375 27.875 48.484375 
Q 21.1875 48.484375 17.84375 46.4375 
Q 14.5 44.390625 14.5 40.28125 
Q 14.5 37.15625 16.890625 35.375 
Q 19.28125 33.59375 26.515625 31.984375 
L 29.59375 31.296875 
Q 39.15625 29.25 43.1875 25.515625 
Q 47.21875 21.78125 47.21875 15.09375 
Q 47.21875 7.46875 41.1875 3.015625 
Q 35.15625 -1.421875 24.609375 -1.421875 
Q 20.21875 -1.421875 15.453125 -0.5625 
Q 10.6875 0.296875 5.421875 2 
L 5.421875 11.28125 
Q 10.40625 8.6875 15.234375 7.390625 
Q 20.0625 6.109375 24.8125 6.109375 
Q 31.15625 6.109375 34.5625 8.28125 
Q 37.984375 10.453125 37.984375 14.40625 
Q 37.984375 18.0625 35.515625 20.015625 
Q 33.0625 21.96875 24.703125 23.78125 
L 21.578125 24.515625 
Q 13.234375 26.265625 9.515625 29.90625 
Q 5.8125 33.546875 5.8125 39.890625 
Q 5.8125 47.609375 11.28125 51.796875 
Q 16.75 56 26.8125 56 
Q 31.78125 56 36.171875 55.265625 
Q 40.578125 54.546875 44.28125 53.078125 
z
" id="DejaVuSans-115"/>
    </defs>
    <g transform="translate(155.763438 99.445312)scale(0.14 -0.14)">
     <use xlink:href="#DejaVuSans-82"/>
     <use x="69.419922" xlink:href="#DejaVuSans-101"/>
     <use x="130.943359" xlink:href="#DejaVuSans-115"/>
     <use x="183.042969" xlink:href="#DejaVuSans-101"/>
     <use x="244.566406" xlink:href="#DejaVuSans-116"/>
    </g>
   </g>
   <g id="text_11">
    <!-- Vcc -->
    <defs>
     <path d="M 48.78125 52.59375 
L 48.78125 44.1875 
Q 44.96875 46.296875 41.140625 47.34375 
Q 37.3125 48.390625 33.40625 48.390625 
Q 24.65625 48.390625 19.8125 42.84375 
Q 14.984375 37.3125 14.984375 27.296875 
Q 14.984375 17.28125 19.8125 11.734375 
Q 24.65625 6.203125 33.40625 6.203125 
Q 37.3125 6.203125 41.140625 7.25 
Q 44.96875 8.296875 48.78125 10.40625 
L 48.78125 2.09375 
Q 45.015625 0.34375 40.984375 -0.53125 
Q 36.96875 -1.421875 32.421875 -1.421875 
Q 20.0625 -1.421875 12.78125 6.34375 
Q 5.515625 14.109375 5.515625 27.296875 
Q 5.515625 40.671875 12.859375 48.328125 
Q 20.21875 56 33.015625 56 
Q 37.15625 56 41.109375 55.140625 
Q 45.0625 54.296875 48.78125 52.59375 
z
" id="DejaVuSans-99"/>
    </defs>
    <g transform="translate(132.604875 17.837812)scale(0.14 -0.14)">
     <use xlink:href="#DejaVuSans-86"/>
     <use x="68.408203" xlink:href="#DejaVuSans-99"/>
     <use x="123.388672" xlink:href="#DejaVuSans-99"/>
    </g>
   </g>
   <g id="patch_12">
    <path clip-path="url(#pf790a0d709)" d="M 114.554125 109.331875 
C 115.198569 109.331875 115.816704 109.111396 116.272394 108.718996 
C 116.728085 108.326596 116.984125 107.794312 116.984125 107.239375 
C 116.984125 106.684438 116.728085 106.152154 116.272394 105.759754 
C 115.816704 105.367354 115.198569 105.146875 114.554125 105.146875 
C 113.909681 105.146875 113.291546 105.367354 112.835856 105.759754 
C 112.380165 106.152154 112.124125 106.684438 112.124125 107.239375 
C 112.124125 107.794312 112.380165 108.326596 112.835856 108.718996 
C 113.291546 109.111396 113.909681 109.331875 114.554125 109.331875 
z
" style="fill:#ffffff;stroke:#000000;stroke-linejoin:miter;stroke-width:2;"/>
   </g>
   <g id="patch_13">
    <path clip-path="url(#pf790a0d709)" d="M 175.628125 109.331875 
C 176.272569 109.331875 176.890704 109.111396 177.346394 108.718996 
C 177.802085 108.326596 178.058125 107.794312 178.058125 107.239375 
C 178.058125 106.684438 177.802085 106.152154 177.346394 105.759754 
C 176.890704 105.367354 176.272569 105.146875 175.628125 105.146875 
C 174.983681 105.146875 174.365546 105.367354 173.909856 105.759754 
C 173.454165 106.152154 173.198125 106.684438 173.198125 107.239375 
C 173.198125 107.794312 173.454165 108.326596 173.909856 108.718996 
C 174.365546 109.111396 174.983681 109.331875 175.628125 109.331875 
z
" style="fill:#ffffff;stroke:#000000;stroke-linejoin:miter;stroke-width:2;"/>
   </g>
  </g>
 </g>
 <defs>
  <clipPath id="pf790a0d709">
   <rect height="240.61425" width="258.8706" x="15.655825" y="10.066"/>
  </clipPath>
 </defs>
</svg>
