<?xml version="1.0" encoding="utf-8" standalone="no"?>
<!DOCTYPE svg PUBLIC "-//W3C//DTD SVG 1.1//EN"
  "http://www.w3.org/Graphics/SVG/1.1/DTD/svg11.dtd">
<!-- Created with matplotlib (http://matplotlib.org/) -->
<svg height="270pt" version="1.1" viewBox="0 0 302 270" width="302pt" xmlns="http://www.w3.org/2000/svg" xmlns:xlink="http://www.w3.org/1999/xlink">
 <defs>
  <style type="text/css">
*{stroke-linecap:butt;stroke-linejoin:round;}
  </style>
 </defs>
 <g id="figure_1">
  <g id="patch_1">
   <path d="
M0 270.35
L302.881 270.35
L302.881 0
L0 0
L0 270.35" style="fill:none;"/>
  </g>
  <g id="axes_1">
   <g id="patch_2">
    <path clip-path="url(#p038a37d955)" d="
M42.126 211.946
L45.9917 206.801
L47.0354 207.952
L54.5895 201.836
L54.6105 201.86
L47.0565 207.975
L48.1003 209.125
z
" style="stroke:#000000;stroke-linejoin:miter;stroke-width:1.5;"/>
   </g>
   <g id="patch_3">
    <path clip-path="url(#p038a37d955)" d="
M260.88 211.946
L254.906 209.125
L255.949 207.975
L248.395 201.86
L248.417 201.836
L255.971 207.952
L257.014 206.801
z
" style="stroke:#000000;stroke-linejoin:miter;stroke-width:1.5;"/>
   </g>
   <g id="line2d_1">
    <path clip-path="url(#p038a37d955)" d="
M54.6 201.848
L42.126 211.946
L42.126 217.556" style="fill:none;stroke:#000000;stroke-linecap:round;stroke-width:1.5;"/>
   </g>
   <g id="line2d_2">
    <path clip-path="url(#p038a37d955)" d="
M66.48 196.238
L54.6 196.238" style="fill:none;stroke:#000000;stroke-linecap:round;stroke-width:1.5;"/>
   </g>
   <g id="line2d_3">
    <path clip-path="url(#p038a37d955)" d="
M54.6 185.018
L54.6 207.458" style="fill:none;stroke:#000000;stroke-linecap:round;stroke-width:1.5;"/>
   </g>
   <g id="line2d_4">
    <path clip-path="url(#p038a37d955)" d="
M54.6 190.628
L42.126 180.53
L42.126 174.92" style="fill:none;stroke:#000000;stroke-linecap:round;stroke-width:1.5;"/>
   </g>
   <g id="line2d_5">
    <path clip-path="url(#p038a37d955)" d="
M248.406 201.848
L260.88 211.946
L260.88 217.556" style="fill:none;stroke:#000000;stroke-linecap:round;stroke-width:1.5;"/>
   </g>
   <g id="line2d_6">
    <path clip-path="url(#p038a37d955)" d="
M236.526 196.238
L248.406 196.238" style="fill:none;stroke:#000000;stroke-linecap:round;stroke-width:1.5;"/>
   </g>
   <g id="line2d_7">
    <path clip-path="url(#p038a37d955)" d="
M248.406 185.018
L248.406 207.458" style="fill:none;stroke:#000000;stroke-linecap:round;stroke-width:1.5;"/>
   </g>
   <g id="line2d_8">
    <path clip-path="url(#p038a37d955)" d="
M248.406 190.628
L260.88 180.53
L260.88 174.92" style="fill:none;stroke:#000000;stroke-linecap:round;stroke-width:1.5;"/>
   </g>
   <g id="line2d_9">
    <path clip-path="url(#p038a37d955)" d="
M42.126 174.92
L42.126 151.97
L42.126 129.02" style="fill:none;stroke:#000000;stroke-linecap:round;stroke-width:1.5;"/>
   </g>
   <g id="line2d_10">
    <path clip-path="url(#p038a37d955)" d="
M42.126 129.02
L42.126 98.42
L34.026 95.87
L50.226 90.77
L34.026 85.67
L50.226 80.57
L34.026 75.47
L50.226 70.37
L42.126 67.82
L42.126 37.22" style="fill:none;stroke:#000000;stroke-linecap:round;stroke-width:1.5;"/>
   </g>
   <g id="line2d_11">
    <path clip-path="url(#p038a37d955)" d="
M42.126 129.02" style="fill:none;stroke:#000000;stroke-linecap:round;stroke-width:1.5;"/>
   </g>
   <g id="line2d_12">
    <path clip-path="url(#p038a37d955)" d="
M42.126 129.02
L62.376 129.02
L65.076 121.37
L70.476 136.67
L75.876 121.37
L81.276 136.67
L86.676 121.37
L92.076 136.67
L94.776 129.02
L115.026 129.02" style="fill:none;stroke:#000000;stroke-linecap:round;stroke-width:1.5;"/>
   </g>
   <g id="line2d_13">
    <path clip-path="url(#p038a37d955)" d="
M115.026 129.02" style="fill:none;stroke:#000000;stroke-linecap:round;stroke-width:1.5;"/>
   </g>
   <g id="line2d_14">
    <path clip-path="url(#p038a37d955)" d="
M115.026 129.02
L115.026 123.282
L115.026 117.545" style="fill:none;stroke:#000000;stroke-linecap:round;stroke-width:1.5;"/>
   </g>
   <g id="line2d_15">
    <path clip-path="url(#p038a37d955)" d="
M115.026 117.545" style="fill:none;stroke:#000000;stroke-linecap:round;stroke-width:1.5;"/>
   </g>
   <g id="line2d_16">
    <path clip-path="url(#p038a37d955)" d="
M115.026 129.02
L175.776 162.629
L236.526 196.238" style="fill:none;stroke:#000000;stroke-linecap:round;stroke-width:1.5;"/>
   </g>
   <g id="line2d_17">
    <path clip-path="url(#p038a37d955)" d="
M260.88 174.92
L260.88 151.97
L260.88 129.02" style="fill:none;stroke:#000000;stroke-linecap:round;stroke-width:1.5;"/>
   </g>
   <g id="line2d_18">
    <path clip-path="url(#p038a37d955)" d="
M260.88 129.02" style="fill:none;stroke:#000000;stroke-linecap:round;stroke-width:1.5;"/>
   </g>
   <g id="line2d_19">
    <path clip-path="url(#p038a37d955)" d="
M260.88 129.02
L260.88 98.42
L252.78 95.87
L268.98 90.77
L252.78 85.67
L268.98 80.57
L252.78 75.47
L268.98 70.37
L260.88 67.82
L260.88 37.22" style="fill:none;stroke:#000000;stroke-linecap:round;stroke-width:1.5;"/>
   </g>
   <g id="line2d_20">
    <path clip-path="url(#p038a37d955)" d="
M260.88 129.02
L240.63 129.02
L237.93 136.67
L232.53 121.37
L227.13 136.67
L221.73 121.37
L216.33 136.67
L210.93 121.37
L208.23 129.02
L187.98 129.02" style="fill:none;stroke:#000000;stroke-linecap:round;stroke-width:1.5;"/>
   </g>
   <g id="line2d_21">
    <path clip-path="url(#p038a37d955)" d="
M187.98 129.02" style="fill:none;stroke:#000000;stroke-linecap:round;stroke-width:1.5;"/>
   </g>
   <g id="line2d_22">
    <path clip-path="url(#p038a37d955)" d="
M187.98 129.02
L187.98 123.282
L187.98 117.545" style="fill:none;stroke:#000000;stroke-linecap:round;stroke-width:1.5;"/>
   </g>
   <g id="line2d_23">
    <path clip-path="url(#p038a37d955)" d="
M187.98 117.545" style="fill:none;stroke:#000000;stroke-linecap:round;stroke-width:1.5;"/>
   </g>
   <g id="line2d_24">
    <path clip-path="url(#p038a37d955)" d="
M187.98 129.02
L127.23 162.629
L66.48 196.238" style="fill:none;stroke:#000000;stroke-linecap:round;stroke-width:1.5;"/>
   </g>
   <g id="line2d_25">
    <path clip-path="url(#p038a37d955)" d="
M42.126 217.556
L42.126 229.031
L42.126 240.506" style="fill:none;stroke:#000000;stroke-linecap:round;stroke-width:1.5;"/>
   </g>
   <g id="line2d_26">
    <path clip-path="url(#p038a37d955)" d="
M42.126 240.506
L151.503 240.506
L260.88 240.506" style="fill:none;stroke:#000000;stroke-linecap:round;stroke-width:1.5;"/>
   </g>
   <g id="line2d_27">
    <path clip-path="url(#p038a37d955)" d="
M260.88 240.506
L260.88 229.031
L260.88 217.556" style="fill:none;stroke:#000000;stroke-linecap:round;stroke-width:1.5;"/>
   </g>
   <g id="line2d_28">
    <path clip-path="url(#p038a37d955)" d="
M151.503 240.506" style="fill:none;stroke:#000000;stroke-linecap:round;stroke-width:1.5;"/>
   </g>
   <g id="line2d_29">
    <path clip-path="url(#p038a37d955)" d="
M151.503 240.506
L151.503 252.746
L143.403 252.746
L159.603 252.746
M145.833 256.418
L157.173 256.418
M149.883 260.09
L153.123 260.09" style="fill:none;stroke:#000000;stroke-linecap:round;stroke-width:1.5;"/>
   </g>
   <g id="line2d_30">
    <path clip-path="url(#p038a37d955)" d="
M42.126 37.22
L151.503 37.22
L260.88 37.22" style="fill:none;stroke:#000000;stroke-linecap:round;stroke-width:1.5;"/>
   </g>
   <g id="line2d_31">
    <path clip-path="url(#p038a37d955)" d="
M151.503 37.22" style="fill:none;stroke:#000000;stroke-linecap:round;stroke-width:1.5;"/>
   </g>
   <g id="line2d_32">
    <path clip-path="url(#p038a37d955)" d="
M151.503 37.22
L151.503 31.4825
L151.503 25.745" style="fill:none;stroke:#000000;stroke-linecap:round;stroke-width:1.5;"/>
   </g>
   <g id="patch_4">
    <path clip-path="url(#p038a37d955)" d="
M48.66 213.068
C53.3859 213.068 57.9189 211.295 61.2606 208.139
C64.6024 204.983 66.48 200.701 66.48 196.238
C66.48 191.775 64.6024 187.493 61.2606 184.337
C57.9189 181.181 53.3859 179.408 48.66 179.408
C43.9341 179.408 39.4011 181.181 36.0594 184.337
C32.7176 187.493 30.84 191.775 30.84 196.238
C30.84 200.701 32.7176 204.983 36.0594 208.139
C39.4011 211.295 43.9341 213.068 48.66 213.068
L48.66 213.068" style="fill:none;stroke:#000000;stroke-linejoin:miter;stroke-width:1.5;"/>
   </g>
   <g id="patch_5">
    <path clip-path="url(#p038a37d955)" d="
M254.346 213.068
C259.072 213.068 263.605 211.295 266.947 208.139
C270.288 204.983 272.166 200.701 272.166 196.238
C272.166 191.775 270.288 187.493 266.947 184.337
C263.605 181.181 259.072 179.408 254.346 179.408
C249.62 179.408 245.087 181.181 241.745 184.337
C238.404 187.493 236.526 191.775 236.526 196.238
C236.526 200.701 238.404 204.983 241.745 208.139
C245.087 211.295 249.62 213.068 254.346 213.068
L254.346 213.068" style="fill:none;stroke:#000000;stroke-linejoin:miter;stroke-width:1.5;"/>
   </g>
   <g id="patch_6">
    <path clip-path="url(#p038a37d955)" d="
M42.126 131.315
C42.7704 131.315 43.3886 131.073 43.8443 130.643
C44.3 130.212 44.556 129.629 44.556 129.02
C44.556 128.411 44.3 127.828 43.8443 127.397
C43.3886 126.967 42.7704 126.725 42.126 126.725
C41.4816 126.725 40.8634 126.967 40.4077 127.397
C39.952 127.828 39.696 128.411 39.696 129.02
C39.696 129.629 39.952 130.212 40.4077 130.643
C40.8634 131.073 41.4816 131.315 42.126 131.315
z
" style="stroke:#000000;stroke-linejoin:miter;stroke-width:1.5;"/>
   </g>
   <g id="patch_7">
    <path clip-path="url(#p038a37d955)" d="
M115.026 131.315
C115.67 131.315 116.289 131.073 116.744 130.643
C117.2 130.212 117.456 129.629 117.456 129.02
C117.456 128.411 117.2 127.828 116.744 127.397
C116.289 126.967 115.67 126.725 115.026 126.725
C114.382 126.725 113.763 126.967 113.308 127.397
C112.852 127.828 112.596 128.411 112.596 129.02
C112.596 129.629 112.852 130.212 113.308 130.643
C113.763 131.073 114.382 131.315 115.026 131.315
z
" style="stroke:#000000;stroke-linejoin:miter;stroke-width:1.5;"/>
   </g>
   <g id="patch_8">
    <path clip-path="url(#p038a37d955)" d="
M115.026 119.84
C115.67 119.84 116.289 119.598 116.744 119.168
C117.2 118.737 117.456 118.154 117.456 117.545
C117.456 116.936 117.2 116.353 116.744 115.922
C116.289 115.492 115.67 115.25 115.026 115.25
C114.382 115.25 113.763 115.492 113.308 115.922
C112.852 116.353 112.596 116.936 112.596 117.545
C112.596 118.154 112.852 118.737 113.308 119.168
C113.763 119.598 114.382 119.84 115.026 119.84
z
" style="fill:#ffffff;stroke:#000000;stroke-linejoin:miter;stroke-width:1.5;"/>
   </g>
   <g id="patch_9">
    <path clip-path="url(#p038a37d955)" d="
M260.88 131.315
C261.524 131.315 262.143 131.073 262.598 130.643
C263.054 130.212 263.31 129.629 263.31 129.02
C263.31 128.411 263.054 127.828 262.598 127.397
C262.143 126.967 261.524 126.725 260.88 126.725
C260.236 126.725 259.617 126.967 259.162 127.397
C258.706 127.828 258.45 128.411 258.45 129.02
C258.45 129.629 258.706 130.212 259.162 130.643
C259.617 131.073 260.236 131.315 260.88 131.315
z
" style="stroke:#000000;stroke-linejoin:miter;stroke-width:1.5;"/>
   </g>
   <g id="patch_10">
    <path clip-path="url(#p038a37d955)" d="
M187.98 131.315
C188.624 131.315 189.243 131.073 189.698 130.643
C190.154 130.212 190.41 129.629 190.41 129.02
C190.41 128.411 190.154 127.828 189.698 127.397
C189.243 126.967 188.624 126.725 187.98 126.725
C187.336 126.725 186.717 126.967 186.262 127.397
C185.806 127.828 185.55 128.411 185.55 129.02
C185.55 129.629 185.806 130.212 186.262 130.643
C186.717 131.073 187.336 131.315 187.98 131.315
z
" style="stroke:#000000;stroke-linejoin:miter;stroke-width:1.5;"/>
   </g>
   <g id="patch_11">
    <path clip-path="url(#p038a37d955)" d="
M187.98 119.84
C188.624 119.84 189.243 119.598 189.698 119.168
C190.154 118.737 190.41 118.154 190.41 117.545
C190.41 116.936 190.154 116.353 189.698 115.922
C189.243 115.492 188.624 115.25 187.98 115.25
C187.336 115.25 186.717 115.492 186.262 115.922
C185.806 116.353 185.55 116.936 185.55 117.545
C185.55 118.154 185.806 118.737 186.262 119.168
C186.717 119.598 187.336 119.84 187.98 119.84
z
" style="fill:#ffffff;stroke:#000000;stroke-linejoin:miter;stroke-width:1.5;"/>
   </g>
   <g id="patch_12">
    <path clip-path="url(#p038a37d955)" d="
M151.503 242.801
C152.147 242.801 152.766 242.559 153.221 242.129
C153.677 241.698 153.933 241.115 153.933 240.506
C153.933 239.897 153.677 239.314 153.221 238.883
C152.766 238.453 152.147 238.211 151.503 238.211
C150.859 238.211 150.24 238.453 149.785 238.883
C149.329 239.314 149.073 239.897 149.073 240.506
C149.073 241.115 149.329 241.698 149.785 242.129
C150.24 242.559 150.859 242.801 151.503 242.801
z
" style="stroke:#000000;stroke-linejoin:miter;stroke-width:1.5;"/>
   </g>
   <g id="patch_13">
    <path clip-path="url(#p038a37d955)" d="
M151.503 39.515
C152.147 39.515 152.766 39.2732 153.221 38.8428
C153.677 38.4124 153.933 37.8286 153.933 37.22
C153.933 36.6114 153.677 36.0276 153.221 35.5972
C152.766 35.1668 152.147 34.925 151.503 34.925
C150.859 34.925 150.24 35.1668 149.785 35.5972
C149.329 36.0276 149.073 36.6114 149.073 37.22
C149.073 37.8286 149.329 38.4124 149.785 38.8428
C150.24 39.2732 150.859 39.515 151.503 39.515
z
" style="stroke:#000000;stroke-linejoin:miter;stroke-width:1.5;"/>
   </g>
   <g id="text_1">
    <!-- Q1 -->
    <defs>
     <path d="
M12.4062 8.29688
L28.5156 8.29688
L28.5156 63.9219
L10.9844 60.4062
L10.9844 69.3906
L28.4219 72.9062
L38.2812 72.9062
L38.2812 8.29688
L54.3906 8.29688
L54.3906 0
L12.4062 0
z
" id="BitstreamVeraSans-Roman-31"/>
     <path d="
M39.4062 66.2188
Q28.6562 66.2188 22.3281 58.2031
Q16.0156 50.2031 16.0156 36.375
Q16.0156 22.6094 22.3281 14.5938
Q28.6562 6.59375 39.4062 6.59375
Q50.1406 6.59375 56.4219 14.5938
Q62.7031 22.6094 62.7031 36.375
Q62.7031 50.2031 56.4219 58.2031
Q50.1406 66.2188 39.4062 66.2188
M53.2188 1.3125
L66.2188 -12.8906
L54.2969 -12.8906
L43.5 -1.21875
Q41.8906 -1.3125 41.0312 -1.35938
Q40.1875 -1.42188 39.4062 -1.42188
Q24.0312 -1.42188 14.8125 8.85938
Q5.60938 19.1406 5.60938 36.375
Q5.60938 53.6562 14.8125 63.9375
Q24.0312 74.2188 39.4062 74.2188
Q54.7344 74.2188 63.9062 63.9375
Q73.0938 53.6562 73.0938 36.375
Q73.0938 23.6875 67.9844 14.6406
Q62.8906 5.60938 53.2188 1.3125" id="BitstreamVeraSans-Roman-51"/>
    </defs>
    <g transform="translate(7.2 200.653)scale(0.16 -0.16)">
     <use xlink:href="#BitstreamVeraSans-Roman-51"/>
     <use x="78.7109375" xlink:href="#BitstreamVeraSans-Roman-31"/>
    </g>
   </g>
   <g id="text_2">
    <!-- Q2 -->
    <defs>
     <path d="
M19.1875 8.29688
L53.6094 8.29688
L53.6094 0
L7.32812 0
L7.32812 8.29688
Q12.9375 14.1094 22.625 23.8906
Q32.3281 33.6875 34.8125 36.5312
Q39.5469 41.8438 41.4219 45.5312
Q43.3125 49.2188 43.3125 52.7812
Q43.3125 58.5938 39.2344 62.25
Q35.1562 65.9219 28.6094 65.9219
Q23.9688 65.9219 18.8125 64.3125
Q13.6719 62.7031 7.8125 59.4219
L7.8125 69.3906
Q13.7656 71.7812 18.9375 73
Q24.125 74.2188 28.4219 74.2188
Q39.75 74.2188 46.4844 68.5469
Q53.2188 62.8906 53.2188 53.4219
Q53.2188 48.9219 51.5312 44.8906
Q49.8594 40.875 45.4062 35.4062
Q44.1875 33.9844 37.6406 27.2188
Q31.1094 20.4531 19.1875 8.29688" id="BitstreamVeraSans-Roman-32"/>
    </defs>
    <g transform="translate(275.406 200.653)scale(0.16 -0.16)">
     <use xlink:href="#BitstreamVeraSans-Roman-51"/>
     <use x="78.7109375" xlink:href="#BitstreamVeraSans-Roman-32"/>
    </g>
   </g>
   <g id="text_3">
    <!-- R1 -->
    <defs>
     <path d="
M44.3906 34.1875
Q47.5625 33.1094 50.5625 29.5938
Q53.5625 26.0781 56.5938 19.9219
L66.6094 0
L56 0
L46.6875 18.7031
Q43.0625 26.0312 39.6719 28.4219
Q36.2812 30.8125 30.4219 30.8125
L19.6719 30.8125
L19.6719 0
L9.8125 0
L9.8125 72.9062
L32.0781 72.9062
Q44.5781 72.9062 50.7344 67.6719
Q56.8906 62.4531 56.8906 51.9062
Q56.8906 45.0156 53.6875 40.4688
Q50.4844 35.9375 44.3906 34.1875
M19.6719 64.7969
L19.6719 38.9219
L32.0781 38.9219
Q39.2031 38.9219 42.8438 42.2188
Q46.4844 45.5156 46.4844 51.9062
Q46.4844 58.2969 42.8438 61.5469
Q39.2031 64.7969 32.0781 64.7969
z
" id="BitstreamVeraSans-Roman-52"/>
    </defs>
    <g transform="translate(12.536 87.535)scale(0.16 -0.16)">
     <use xlink:href="#BitstreamVeraSans-Roman-52"/>
     <use x="69.482421875" xlink:href="#BitstreamVeraSans-Roman-31"/>
    </g>
   </g>
   <g id="text_4">
    <!-- V1 -->
    <defs>
     <path d="
M28.6094 0
L0.78125 72.9062
L11.0781 72.9062
L34.1875 11.5312
L57.3281 72.9062
L67.5781 72.9062
L39.7969 0
z
" id="BitstreamVeraSans-Roman-56"/>
    </defs>
    <g transform="translate(16.9335 133.435)scale(0.16 -0.16)">
     <use xlink:href="#BitstreamVeraSans-Roman-56"/>
     <use x="68.408203125" xlink:href="#BitstreamVeraSans-Roman-31"/>
    </g>
   </g>
   <g id="text_5">
    <!-- R3 -->
    <defs>
     <path d="
M40.5781 39.3125
Q47.6562 37.7969 51.625 33
Q55.6094 28.2188 55.6094 21.1875
Q55.6094 10.4062 48.1875 4.48438
Q40.7656 -1.42188 27.0938 -1.42188
Q22.5156 -1.42188 17.6562 -0.515625
Q12.7969 0.390625 7.625 2.20312
L7.625 11.7188
Q11.7188 9.32812 16.5938 8.10938
Q21.4844 6.89062 26.8125 6.89062
Q36.0781 6.89062 40.9375 10.5469
Q45.7969 14.2031 45.7969 21.1875
Q45.7969 27.6406 41.2812 31.2656
Q36.7656 34.9062 28.7188 34.9062
L20.2188 34.9062
L20.2188 43.0156
L29.1094 43.0156
Q36.375 43.0156 40.2344 45.9219
Q44.0938 48.8281 44.0938 54.2969
Q44.0938 59.9062 40.1094 62.9062
Q36.1406 65.9219 28.7188 65.9219
Q24.6562 65.9219 20.0156 65.0312
Q15.375 64.1562 9.8125 62.3125
L9.8125 71.0938
Q15.4375 72.6562 20.3438 73.4375
Q25.25 74.2188 29.5938 74.2188
Q40.8281 74.2188 47.3594 69.1094
Q53.9062 64.0156 53.9062 55.3281
Q53.9062 49.2656 50.4375 45.0938
Q46.9688 40.9219 40.5781 39.3125" id="BitstreamVeraSans-Roman-33"/>
    </defs>
    <g transform="translate(69.3535 151.8875)scale(0.16 -0.16)">
     <use xlink:href="#BitstreamVeraSans-Roman-52"/>
     <use x="69.482421875" xlink:href="#BitstreamVeraSans-Roman-33"/>
    </g>
   </g>
   <g id="text_6">
    <!-- Set -->
    <defs>
     <path d="
M53.5156 70.5156
L53.5156 60.8906
Q47.9062 63.5781 42.9219 64.8906
Q37.9375 66.2188 33.2969 66.2188
Q25.25 66.2188 20.875 63.0938
Q16.5 59.9688 16.5 54.2031
Q16.5 49.3594 19.4062 46.8906
Q22.3125 44.4375 30.4219 42.9219
L36.375 41.7031
Q47.4062 39.5938 52.6562 34.2969
Q57.9062 29 57.9062 20.125
Q57.9062 9.51562 50.7969 4.04688
Q43.7031 -1.42188 29.9844 -1.42188
Q24.8125 -1.42188 18.9688 -0.25
Q13.1406 0.921875 6.89062 3.21875
L6.89062 13.375
Q12.8906 10.0156 18.6562 8.29688
Q24.4219 6.59375 29.9844 6.59375
Q38.4219 6.59375 43.0156 9.90625
Q47.6094 13.2344 47.6094 19.3906
Q47.6094 24.75 44.3125 27.7812
Q41.0156 30.8125 33.5 32.3281
L27.4844 33.5
Q16.4531 35.6875 11.5156 40.375
Q6.59375 45.0625 6.59375 53.4219
Q6.59375 63.0938 13.4062 68.6562
Q20.2188 74.2188 32.1719 74.2188
Q37.3125 74.2188 42.625 73.2812
Q47.9531 72.3594 53.5156 70.5156" id="BitstreamVeraSans-Roman-53"/>
     <path d="
M56.2031 29.5938
L56.2031 25.2031
L14.8906 25.2031
Q15.4844 15.9219 20.4844 11.0625
Q25.4844 6.20312 34.4219 6.20312
Q39.5938 6.20312 44.4531 7.46875
Q49.3125 8.73438 54.1094 11.2812
L54.1094 2.78125
Q49.2656 0.734375 44.1875 -0.34375
Q39.1094 -1.42188 33.8906 -1.42188
Q20.7969 -1.42188 13.1562 6.1875
Q5.51562 13.8125 5.51562 26.8125
Q5.51562 40.2344 12.7656 48.1094
Q20.0156 56 32.3281 56
Q43.3594 56 49.7812 48.8906
Q56.2031 41.7969 56.2031 29.5938
M47.2188 32.2344
Q47.125 39.5938 43.0938 43.9844
Q39.0625 48.3906 32.4219 48.3906
Q24.9062 48.3906 20.3906 44.1406
Q15.875 39.8906 15.1875 32.1719
z
" id="BitstreamVeraSans-Roman-65"/>
     <path d="
M18.3125 70.2188
L18.3125 54.6875
L36.8125 54.6875
L36.8125 47.7031
L18.3125 47.7031
L18.3125 18.0156
Q18.3125 11.3281 20.1406 9.42188
Q21.9688 7.51562 27.5938 7.51562
L36.8125 7.51562
L36.8125 0
L27.5938 0
Q17.1875 0 13.2344 3.875
Q9.28125 7.76562 9.28125 18.0156
L9.28125 47.7031
L2.6875 47.7031
L2.6875 54.6875
L9.28125 54.6875
L9.28125 70.2188
z
" id="BitstreamVeraSans-Roman-74"/>
    </defs>
    <g transform="translate(102.60725 108.8625)scale(0.16 -0.16)">
     <use xlink:href="#BitstreamVeraSans-Roman-53"/>
     <use x="63.4765625" xlink:href="#BitstreamVeraSans-Roman-65"/>
     <use x="125.0" xlink:href="#BitstreamVeraSans-Roman-74"/>
    </g>
   </g>
   <g id="text_7">
    <!-- V2 -->
    <g transform="translate(266.55 133.435)scale(0.16 -0.16)">
     <use xlink:href="#BitstreamVeraSans-Roman-56"/>
     <use x="68.408203125" xlink:href="#BitstreamVeraSans-Roman-32"/>
    </g>
   </g>
   <g id="text_8">
    <!-- R2 -->
    <g transform="translate(272.22 87.535)scale(0.16 -0.16)">
     <use xlink:href="#BitstreamVeraSans-Roman-52"/>
     <use x="69.482421875" xlink:href="#BitstreamVeraSans-Roman-32"/>
    </g>
   </g>
   <g id="text_9">
    <!-- R4 -->
    <defs>
     <path d="
M37.7969 64.3125
L12.8906 25.3906
L37.7969 25.3906
z

M35.2031 72.9062
L47.6094 72.9062
L47.6094 25.3906
L58.0156 25.3906
L58.0156 17.1875
L47.6094 17.1875
L47.6094 0
L37.7969 0
L37.7969 17.1875
L4.89062 17.1875
L4.89062 26.7031
z
" id="BitstreamVeraSans-Roman-34"/>
    </defs>
    <g transform="translate(215.015 151.8875)scale(0.16 -0.16)">
     <use xlink:href="#BitstreamVeraSans-Roman-52"/>
     <use x="69.482421875" xlink:href="#BitstreamVeraSans-Roman-34"/>
    </g>
   </g>
   <g id="text_10">
    <!-- Reset -->
    <defs>
     <path d="
M44.2812 53.0781
L44.2812 44.5781
Q40.4844 46.5312 36.375 47.5
Q32.2812 48.4844 27.875 48.4844
Q21.1875 48.4844 17.8438 46.4375
Q14.5 44.3906 14.5 40.2812
Q14.5 37.1562 16.8906 35.375
Q19.2812 33.5938 26.5156 31.9844
L29.5938 31.2969
Q39.1562 29.25 43.1875 25.5156
Q47.2188 21.7812 47.2188 15.0938
Q47.2188 7.46875 41.1875 3.01562
Q35.1562 -1.42188 24.6094 -1.42188
Q20.2188 -1.42188 15.4531 -0.5625
Q10.6875 0.296875 5.42188 2
L5.42188 11.2812
Q10.4062 8.6875 15.2344 7.39062
Q20.0625 6.10938 24.8125 6.10938
Q31.1562 6.10938 34.5625 8.28125
Q37.9844 10.4531 37.9844 14.4062
Q37.9844 18.0625 35.5156 20.0156
Q33.0625 21.9688 24.7031 23.7812
L21.5781 24.5156
Q13.2344 26.2656 9.51562 29.9062
Q5.8125 33.5469 5.8125 39.8906
Q5.8125 47.6094 11.2812 51.7969
Q16.75 56 26.8125 56
Q31.7812 56 36.1719 55.2656
Q40.5781 54.5469 44.2812 53.0781" id="BitstreamVeraSans-Roman-73"/>
    </defs>
    <g transform="translate(166.60875 108.8625)scale(0.16 -0.16)">
     <use xlink:href="#BitstreamVeraSans-Roman-52"/>
     <use x="64.982421875" xlink:href="#BitstreamVeraSans-Roman-65"/>
     <use x="126.505859375" xlink:href="#BitstreamVeraSans-Roman-73"/>
     <use x="178.60546875" xlink:href="#BitstreamVeraSans-Roman-65"/>
     <use x="240.12890625" xlink:href="#BitstreamVeraSans-Roman-74"/>
    </g>
   </g>
   <g id="text_11">
    <!-- Vcc -->
    <defs>
     <path d="
M48.7812 52.5938
L48.7812 44.1875
Q44.9688 46.2969 41.1406 47.3438
Q37.3125 48.3906 33.4062 48.3906
Q24.6562 48.3906 19.8125 42.8438
Q14.9844 37.3125 14.9844 27.2969
Q14.9844 17.2812 19.8125 11.7344
Q24.6562 6.20312 33.4062 6.20312
Q37.3125 6.20312 41.1406 7.25
Q44.9688 8.29688 48.7812 10.4062
L48.7812 2.09375
Q45.0156 0.34375 40.9844 -0.53125
Q36.9688 -1.42188 32.4219 -1.42188
Q20.0625 -1.42188 12.7812 6.34375
Q5.51562 14.1094 5.51562 27.2969
Q5.51562 40.6719 12.8594 48.3281
Q20.2188 56 33.0156 56
Q37.1562 56 41.1094 55.1406
Q45.0625 54.2969 48.7812 52.5938" id="BitstreamVeraSans-Roman-63"/>
    </defs>
    <g transform="translate(137.79175 19.3575)scale(0.16 -0.16)">
     <use xlink:href="#BitstreamVeraSans-Roman-56"/>
     <use x="68.408203125" xlink:href="#BitstreamVeraSans-Roman-63"/>
     <use x="123.388671875" xlink:href="#BitstreamVeraSans-Roman-63"/>
    </g>
   </g>
  </g>
 </g>
 <defs>
  <clipPath id="p038a37d955">
   <rect height="240.465" width="247.806" x="27.6" y="22.685"/>
  </clipPath>
 </defs>
</svg>
