<?xml version="1.0" encoding="utf-8" standalone="no"?>
<!DOCTYPE svg PUBLIC "-//W3C//DTD SVG 1.1//EN"
  "http://www.w3.org/Graphics/SVG/1.1/DTD/svg11.dtd">
<!-- Created with matplotlib (https://matplotlib.org/) -->
<svg height="126.7812pt" version="1.1" viewBox="0 0 179.18 126.7812" width="179.18pt" xmlns="http://www.w3.org/2000/svg" xmlns:xlink="http://www.w3.org/1999/xlink">
 <defs>
  <style type="text/css">
*{stroke-linecap:butt;stroke-linejoin:round;}
  </style>
 </defs>
 <g id="figure_1">
  <g id="patch_1">
   <path d="M 0 126.7812 
L 179.18 126.7812 
L 179.18 0 
L 0 0 
z
" style="fill:none;"/>
  </g>
  <g id="axes_1">
   <g id="patch_2">
    <path clip-path="url(#pb0f0f3b0c9)" d="M 100.048 31.8636 
C 101.07911 31.8636 102.068127 31.510834 102.797231 30.882994 
C 103.526336 30.255153 103.936 29.4035 103.936 28.5156 
C 103.936 27.6277 103.526336 26.776047 102.797231 26.148206 
C 102.068127 25.520366 101.07911 25.1676 100.048 25.1676 
C 99.01689 25.1676 98.027873 25.520366 97.298769 26.148206 
C 96.569664 26.776047 96.16 27.6277 96.16 28.5156 
C 96.16 29.4035 96.569664 30.255153 97.298769 30.882994 
C 98.027873 31.510834 99.01689 31.8636 100.048 31.8636 
z
" style="fill:none;stroke:#000000;stroke-linejoin:miter;stroke-width:1.5;"/>
   </g>
   <g id="patch_3">
    <path clip-path="url(#pb0f0f3b0c9)" d="M 131.8 30.6081 
C 132.444444 30.6081 133.062579 30.387621 133.518269 29.995221 
C 133.97396 29.602821 134.23 29.070537 134.23 28.5156 
C 134.23 27.960663 133.97396 27.428379 133.518269 27.035979 
C 133.062579 26.643579 132.444444 26.4231 131.8 26.4231 
C 131.155556 26.4231 130.537421 26.643579 130.081731 27.035979 
C 129.62604 27.428379 129.37 27.960663 129.37 28.5156 
C 129.37 29.070537 129.62604 29.602821 130.081731 29.995221 
C 130.537421 30.387621 131.155556 30.6081 131.8 30.6081 
z
" style="stroke:#000000;stroke-linejoin:miter;stroke-width:1.5;"/>
   </g>
   <g id="patch_4">
    <path clip-path="url(#pb0f0f3b0c9)" d="M 100.048 101.6136 
C 101.07911 101.6136 102.068127 101.260834 102.797231 100.632994 
C 103.526336 100.005153 103.936 99.1535 103.936 98.2656 
C 103.936 97.3777 103.526336 96.526047 102.797231 95.898206 
C 102.068127 95.270366 101.07911 94.9176 100.048 94.9176 
C 99.01689 94.9176 98.027873 95.270366 97.298769 95.898206 
C 96.569664 96.526047 96.16 97.3777 96.16 98.2656 
C 96.16 99.1535 96.569664 100.005153 97.298769 100.632994 
C 98.027873 101.260834 99.01689 101.6136 100.048 101.6136 
z
" style="fill:none;stroke:#000000;stroke-linejoin:miter;stroke-width:1.5;"/>
   </g>
   <g id="patch_5">
    <path clip-path="url(#pb0f0f3b0c9)" d="M 131.8 100.3581 
C 132.444444 100.3581 133.062579 100.137621 133.518269 99.745221 
C 133.97396 99.352821 134.23 98.820537 134.23 98.2656 
C 134.23 97.710663 133.97396 97.178379 133.518269 96.785979 
C 133.062579 96.393579 132.444444 96.1731 131.8 96.1731 
C 131.155556 96.1731 130.537421 96.393579 130.081731 96.785979 
C 129.62604 97.178379 129.37 97.710663 129.37 98.2656 
C 129.37 98.820537 129.62604 99.352821 130.081731 99.745221 
C 130.537421 100.137621 131.155556 100.3581 131.8 100.3581 
z
" style="stroke:#000000;stroke-linejoin:miter;stroke-width:1.5;"/>
   </g>
   <g id="line2d_1">
    <path clip-path="url(#pb0f0f3b0c9)" d="M 21.64 21.5406 
L 33.79 21.5406 
L 45.94 21.5406 
" style="fill:none;stroke:#000000;stroke-linecap:round;stroke-width:1.5;"/>
   </g>
   <g id="line2d_2">
    <path clip-path="url(#pb0f0f3b0c9)" d="M 45.94 28.5156 
M 103.936 28.5156 
L 107.5 28.5156 
" style="fill:none;stroke:#000000;stroke-linecap:round;stroke-width:1.5;"/>
   </g>
   <g id="line2d_3">
    <path clip-path="url(#pb0f0f3b0c9)" d="M 57.28 42.1866 
L 75.331429 42.095498 
L 77.182857 41.822192 
L 79.034286 41.366682 
L 81.348571 40.541069 
L 83.662857 39.430763 
L 85.977143 38.035763 
L 88.291429 36.356069 
L 90.605714 34.391682 
L 92.92 32.1426 
L 95.234286 29.608824 
L 96.16 28.5156 
L 96.16 28.5156 
L 93.382857 25.37258 
L 91.068571 23.066559 
L 88.754286 21.045233 
L 86.44 19.3086 
L 84.125714 17.856661 
L 81.811429 16.689416 
L 79.497143 15.806865 
L 77.182857 15.209008 
L 75.331429 14.935702 
L 73.48 14.8446 
L 57.28 14.8446 
L 57.28 14.8446 
L 59.6128 17.0766 
L 61.09024 18.7506 
L 62.3344 20.4246 
L 63.34528 22.0986 
L 64.12288 23.7726 
L 64.6672 25.4466 
L 64.97824 27.1206 
L 65.056 28.7946 
L 64.90048 30.4686 
L 64.51168 32.1426 
L 63.8896 33.8166 
L 63.03424 35.4906 
L 61.9456 37.1646 
L 60.62368 38.8386 
L 59.06848 40.5126 
L 57.28 42.1866 
L 57.28 42.1866 
" style="fill:none;stroke:#000000;stroke-linecap:round;stroke-width:1.5;"/>
   </g>
   <g id="line2d_4">
    <path clip-path="url(#pb0f0f3b0c9)" d="M 45.94 35.4906 
L 63.03424 35.4906 
" style="fill:none;stroke:#000000;stroke-linecap:round;stroke-width:1.5;"/>
   </g>
   <g id="line2d_5">
    <path clip-path="url(#pb0f0f3b0c9)" d="M 45.94 21.5406 
L 63.03424 21.5406 
" style="fill:none;stroke:#000000;stroke-linecap:round;stroke-width:1.5;"/>
   </g>
   <g id="line2d_6">
    <path clip-path="url(#pb0f0f3b0c9)" d="M 107.5 28.5156 
L 119.65 28.5156 
L 131.8 28.5156 
" style="fill:none;stroke:#000000;stroke-linecap:round;stroke-width:1.5;"/>
   </g>
   <g id="line2d_7">
    <path clip-path="url(#pb0f0f3b0c9)" d="M 131.8 28.5156 
" style="fill:none;stroke:#000000;stroke-linecap:round;stroke-width:1.5;"/>
   </g>
   <g id="line2d_8">
    <path clip-path="url(#pb0f0f3b0c9)" d="M 131.8 28.5156 
L 143.95 28.5156 
L 156.1 28.5156 
" style="fill:none;stroke:#000000;stroke-linecap:round;stroke-width:1.5;"/>
   </g>
   <g id="line2d_9">
    <path clip-path="url(#pb0f0f3b0c9)" d="M 45.94 98.2656 
M 103.936 98.2656 
L 107.5 98.2656 
" style="fill:none;stroke:#000000;stroke-linecap:round;stroke-width:1.5;"/>
   </g>
   <g id="line2d_10">
    <path clip-path="url(#pb0f0f3b0c9)" d="M 57.28 111.9366 
L 75.331429 111.845498 
L 77.182857 111.572192 
L 79.034286 111.116682 
L 81.348571 110.291069 
L 83.662857 109.180763 
L 85.977143 107.785763 
L 88.291429 106.106069 
L 90.605714 104.141682 
L 92.92 101.8926 
L 95.234286 99.358824 
L 96.16 98.2656 
L 96.16 98.2656 
L 93.382857 95.12258 
L 91.068571 92.816559 
L 88.754286 90.795233 
L 86.44 89.0586 
L 84.125714 87.606661 
L 81.811429 86.439416 
L 79.497143 85.556865 
L 77.182857 84.959008 
L 75.331429 84.685702 
L 73.48 84.5946 
L 57.28 84.5946 
L 57.28 84.5946 
L 59.6128 86.8266 
L 61.09024 88.5006 
L 62.3344 90.1746 
L 63.34528 91.8486 
L 64.12288 93.5226 
L 64.6672 95.1966 
L 64.97824 96.8706 
L 65.056 98.5446 
L 64.90048 100.2186 
L 64.51168 101.8926 
L 63.8896 103.5666 
L 63.03424 105.2406 
L 61.9456 106.9146 
L 60.62368 108.5886 
L 59.06848 110.2626 
L 57.28 111.9366 
L 57.28 111.9366 
" style="fill:none;stroke:#000000;stroke-linecap:round;stroke-width:1.5;"/>
   </g>
   <g id="line2d_11">
    <path clip-path="url(#pb0f0f3b0c9)" d="M 45.94 105.2406 
L 63.03424 105.2406 
" style="fill:none;stroke:#000000;stroke-linecap:round;stroke-width:1.5;"/>
   </g>
   <g id="line2d_12">
    <path clip-path="url(#pb0f0f3b0c9)" d="M 45.94 91.2906 
L 63.03424 91.2906 
" style="fill:none;stroke:#000000;stroke-linecap:round;stroke-width:1.5;"/>
   </g>
   <g id="line2d_13">
    <path clip-path="url(#pb0f0f3b0c9)" d="M 107.5 98.2656 
L 119.65 98.2656 
L 131.8 98.2656 
" style="fill:none;stroke:#000000;stroke-linecap:round;stroke-width:1.5;"/>
   </g>
   <g id="line2d_14">
    <path clip-path="url(#pb0f0f3b0c9)" d="M 131.8 98.2656 
" style="fill:none;stroke:#000000;stroke-linecap:round;stroke-width:1.5;"/>
   </g>
   <g id="line2d_15">
    <path clip-path="url(#pb0f0f3b0c9)" d="M 131.8 98.2656 
L 143.95 98.2656 
L 156.1 98.2656 
" style="fill:none;stroke:#000000;stroke-linecap:round;stroke-width:1.5;"/>
   </g>
   <g id="line2d_16">
    <path clip-path="url(#pb0f0f3b0c9)" d="M 45.94 91.2906 
L 45.94 84.3156 
L 45.94 77.3406 
" style="fill:none;stroke:#000000;stroke-linecap:round;stroke-width:1.5;"/>
   </g>
   <g id="line2d_17">
    <path clip-path="url(#pb0f0f3b0c9)" d="M 131.8 28.5156 
L 131.8 35.4906 
L 131.8 42.4656 
" style="fill:none;stroke:#000000;stroke-linecap:round;stroke-width:1.5;"/>
   </g>
   <g id="line2d_18">
    <path clip-path="url(#pb0f0f3b0c9)" d="M 131.8 42.4656 
L 88.87 59.9031 
L 45.94 77.3406 
" style="fill:none;stroke:#000000;stroke-linecap:round;stroke-width:1.5;"/>
   </g>
   <g id="line2d_19">
    <path clip-path="url(#pb0f0f3b0c9)" d="M 45.94 35.4906 
L 45.94 42.4656 
L 45.94 49.4406 
" style="fill:none;stroke:#000000;stroke-linecap:round;stroke-width:1.5;"/>
   </g>
   <g id="line2d_20">
    <path clip-path="url(#pb0f0f3b0c9)" d="M 131.8 98.2656 
L 131.8 91.2906 
L 131.8 84.3156 
" style="fill:none;stroke:#000000;stroke-linecap:round;stroke-width:1.5;"/>
   </g>
   <g id="line2d_21">
    <path clip-path="url(#pb0f0f3b0c9)" d="M 131.8 84.3156 
L 88.87 66.8781 
L 45.94 49.4406 
" style="fill:none;stroke:#000000;stroke-linecap:round;stroke-width:1.5;"/>
   </g>
   <g id="line2d_22">
    <path clip-path="url(#pb0f0f3b0c9)" d="M 45.94 105.2406 
L 33.79 105.2406 
L 21.64 105.2406 
" style="fill:none;stroke:#000000;stroke-linecap:round;stroke-width:1.5;"/>
   </g>
   <g id="text_1">
    <!-- $R$ -->
    <defs>
     <path d="M 44.390625 34.1875 
Q 47.5625 33.109375 50.5625 29.59375 
Q 53.5625 26.078125 56.59375 19.921875 
L 66.609375 0 
L 56 0 
L 46.6875 18.703125 
Q 43.0625 26.03125 39.671875 28.421875 
Q 36.28125 30.8125 30.421875 30.8125 
L 19.671875 30.8125 
L 19.671875 0 
L 9.8125 0 
L 9.8125 72.90625 
L 32.078125 72.90625 
Q 44.578125 72.90625 50.734375 67.671875 
Q 56.890625 62.453125 56.890625 51.90625 
Q 56.890625 45.015625 53.6875 40.46875 
Q 50.484375 35.9375 44.390625 34.1875 
z
M 19.671875 64.796875 
L 19.671875 38.921875 
L 32.078125 38.921875 
Q 39.203125 38.921875 42.84375 42.21875 
Q 46.484375 45.515625 46.484375 51.90625 
Q 46.484375 58.296875 42.84375 61.546875 
Q 39.203125 64.796875 32.078125 64.796875 
z
" id="DejaVuSans-82"/>
    </defs>
    <g transform="translate(7.2 25.9556)scale(0.16 -0.16)">
     <use transform="translate(0 0.09375)" xlink:href="#DejaVuSans-82"/>
    </g>
   </g>
   <g id="text_2">
    <!-- $Q$ -->
    <defs>
     <path d="M 39.40625 66.21875 
Q 28.65625 66.21875 22.328125 58.203125 
Q 16.015625 50.203125 16.015625 36.375 
Q 16.015625 22.609375 22.328125 14.59375 
Q 28.65625 6.59375 39.40625 6.59375 
Q 50.140625 6.59375 56.421875 14.59375 
Q 62.703125 22.609375 62.703125 36.375 
Q 62.703125 50.203125 56.421875 58.203125 
Q 50.140625 66.21875 39.40625 66.21875 
z
M 53.21875 1.3125 
L 66.21875 -12.890625 
L 54.296875 -12.890625 
L 43.5 -1.21875 
Q 41.890625 -1.3125 41.03125 -1.359375 
Q 40.1875 -1.421875 39.40625 -1.421875 
Q 24.03125 -1.421875 14.8125 8.859375 
Q 5.609375 19.140625 5.609375 36.375 
Q 5.609375 53.65625 14.8125 63.9375 
Q 24.03125 74.21875 39.40625 74.21875 
Q 54.734375 74.21875 63.90625 63.9375 
Q 73.09375 53.65625 73.09375 36.375 
Q 73.09375 23.6875 67.984375 14.640625 
Q 62.890625 5.609375 53.21875 1.3125 
z
" id="DejaVuSans-81"/>
    </defs>
    <g transform="translate(159.34 32.9306)scale(0.16 -0.16)">
     <use transform="translate(0 0.78125)" xlink:href="#DejaVuSans-81"/>
    </g>
   </g>
   <g id="text_3">
    <!-- $\overline{Q}$ -->
    <g transform="translate(159.34 103.8981)scale(0.16 -0.16)">
     <use transform="translate(0 0.53125)" xlink:href="#DejaVuSans-81"/>
     <path d="M 0 86.5 
L 0 92.75 
L 78.710938 92.75 
L 78.710938 86.5 
L 0 86.5 
z
"/>
    </g>
   </g>
   <g id="text_4">
    <!-- $S$ -->
    <defs>
     <path d="M 53.515625 70.515625 
L 53.515625 60.890625 
Q 47.90625 63.578125 42.921875 64.890625 
Q 37.9375 66.21875 33.296875 66.21875 
Q 25.25 66.21875 20.875 63.09375 
Q 16.5 59.96875 16.5 54.203125 
Q 16.5 49.359375 19.40625 46.890625 
Q 22.3125 44.4375 30.421875 42.921875 
L 36.375 41.703125 
Q 47.40625 39.59375 52.65625 34.296875 
Q 57.90625 29 57.90625 20.125 
Q 57.90625 9.515625 50.796875 4.046875 
Q 43.703125 -1.421875 29.984375 -1.421875 
Q 24.8125 -1.421875 18.96875 -0.25 
Q 13.140625 0.921875 6.890625 3.21875 
L 6.890625 13.375 
Q 12.890625 10.015625 18.65625 8.296875 
Q 24.421875 6.59375 29.984375 6.59375 
Q 38.421875 6.59375 43.015625 9.90625 
Q 47.609375 13.234375 47.609375 19.390625 
Q 47.609375 24.75 44.3125 27.78125 
Q 41.015625 30.8125 33.5 32.328125 
L 27.484375 33.5 
Q 16.453125 35.6875 11.515625 40.375 
Q 6.59375 45.0625 6.59375 53.421875 
Q 6.59375 63.09375 13.40625 68.65625 
Q 20.21875 74.21875 32.171875 74.21875 
Q 37.3125 74.21875 42.625 73.28125 
Q 47.953125 72.359375 53.515625 70.515625 
z
" id="DejaVuSans-83"/>
    </defs>
    <g transform="translate(8.16 109.6556)scale(0.16 -0.16)">
     <use transform="translate(0 0.78125)" xlink:href="#DejaVuSans-83"/>
    </g>
   </g>
  </g>
 </g>
 <defs>
  <clipPath id="pb0f0f3b0c9">
   <rect height="112.3812" width="154.386" x="11.677" y="7.2"/>
  </clipPath>
 </defs>
</svg>
