<?xml version="1.0" encoding="utf-8" standalone="no"?>
<!DOCTYPE svg PUBLIC "-//W3C//DTD SVG 1.1//EN"
  "http://www.w3.org/Graphics/SVG/1.1/DTD/svg11.dtd">
<!-- Created with matplotlib (http://matplotlib.org/) -->
<svg height="133.7812pt" version="1.1" viewBox="0 0 179.18 133.7812" width="179.18pt" xmlns="http://www.w3.org/2000/svg" xmlns:xlink="http://www.w3.org/1999/xlink">
 <defs>
  <style type="text/css">
*{stroke-linecap:butt;stroke-linejoin:round;}
  </style>
 </defs>
 <g id="figure_1">
  <g id="patch_1">
   <path d="M 0 133.7812 
L 179.18 133.7812 
L 179.18 0 
L 0 0 
z
" style="fill:none;"/>
  </g>
  <g id="axes_1">
   <g id="line2d_1">
    <path clip-path="url(#pdeb71252c8)" d="M 21.64 25.0406 
L 33.79 25.0406 
L 45.94 25.0406 
" style="fill:none;stroke:#000000;stroke-linecap:round;stroke-width:1.5;"/>
   </g>
   <g id="line2d_2">
    <path clip-path="url(#pdeb71252c8)" d="M 45.94 32.0156 
M 103.936 32.0156 
L 107.5 32.0156 
" style="fill:none;stroke:#000000;stroke-linecap:round;stroke-width:1.5;"/>
   </g>
   <g id="line2d_3">
    <path clip-path="url(#pdeb71252c8)" d="M 57.28 45.6866 
L 73.48 45.6866 
L 73.942857 45.680906 
L 74.405714 45.663824 
L 74.868571 45.635355 
L 75.331429 45.595498 
L 75.794286 45.544253 
L 76.257143 45.48162 
L 76.72 45.4076 
L 77.182857 45.322192 
L 77.645714 45.225396 
L 78.108571 45.117212 
L 78.571429 44.997641 
L 79.034286 44.866682 
L 79.497143 44.724335 
L 79.96 44.5706 
L 80.422857 44.405478 
L 80.885714 44.228967 
L 81.348571 44.041069 
L 81.811429 43.841784 
L 82.274286 43.63111 
L 82.737143 43.409049 
L 83.2 43.1756 
L 83.662857 42.930763 
L 84.125714 42.674539 
L 84.588571 42.406927 
L 85.051429 42.127927 
L 85.514286 41.837539 
L 85.977143 41.535763 
L 86.44 41.2226 
L 86.902857 40.898049 
L 87.365714 40.56211 
L 87.828571 40.214784 
L 88.291429 39.856069 
L 88.754286 39.485967 
L 89.217143 39.104478 
L 89.68 38.7116 
L 90.142857 38.307335 
L 90.605714 37.891682 
L 91.068571 37.464641 
L 91.531429 37.026212 
L 91.994286 36.576396 
L 92.457143 36.115192 
L 92.92 35.6426 
L 93.382857 35.15862 
L 93.845714 34.663253 
L 94.308571 34.156498 
L 94.771429 33.638355 
L 95.234286 33.108824 
L 95.697143 32.567906 
L 96.16 32.0156 
" style="fill:none;stroke:#000000;stroke-linecap:round;stroke-width:1.5;"/>
   </g>
   <g id="line2d_4">
    <path clip-path="url(#pdeb71252c8)" d="M 57.28 18.3446 
L 73.48 18.3446 
L 73.942857 18.350294 
L 74.405714 18.367376 
L 74.868571 18.395845 
L 75.331429 18.435702 
L 75.794286 18.486947 
L 76.257143 18.54958 
L 76.72 18.6236 
L 77.182857 18.709008 
L 77.645714 18.805804 
L 78.108571 18.913988 
L 78.571429 19.033559 
L 79.034286 19.164518 
L 79.497143 19.306865 
L 79.96 19.4606 
L 80.422857 19.625722 
L 80.885714 19.802233 
L 81.348571 19.990131 
L 81.811429 20.189416 
L 82.274286 20.40009 
L 82.737143 20.622151 
L 83.2 20.8556 
L 83.662857 21.100437 
L 84.125714 21.356661 
L 84.588571 21.624273 
L 85.051429 21.903273 
L 85.514286 22.193661 
L 85.977143 22.495437 
L 86.44 22.8086 
L 86.902857 23.133151 
L 87.365714 23.46909 
L 87.828571 23.816416 
L 88.291429 24.175131 
L 88.754286 24.545233 
L 89.217143 24.926722 
L 89.68 25.3196 
L 90.142857 25.723865 
L 90.605714 26.139518 
L 91.068571 26.566559 
L 91.531429 27.004988 
L 91.994286 27.454804 
L 92.457143 27.916008 
L 92.92 28.3886 
L 93.382857 28.87258 
L 93.845714 29.367947 
L 94.308571 29.874702 
L 94.771429 30.392845 
L 95.234286 30.922376 
L 95.697143 31.463294 
L 96.16 32.0156 
" style="fill:none;stroke:#000000;stroke-linecap:round;stroke-width:1.5;"/>
   </g>
   <g id="line2d_5">
    <path clip-path="url(#pdeb71252c8)" d="M 57.28 45.6866 
L 57.90208 45.1286 
L 58.49824 44.5706 
L 59.06848 44.0126 
L 59.6128 43.4546 
L 60.1312 42.8966 
L 60.62368 42.3386 
L 61.09024 41.7806 
L 61.53088 41.2226 
L 61.9456 40.6646 
L 62.3344 40.1066 
L 62.69728 39.5486 
L 63.03424 38.9906 
L 63.34528 38.4326 
L 63.6304 37.8746 
L 63.8896 37.3166 
L 64.12288 36.7586 
L 64.33024 36.2006 
L 64.51168 35.6426 
L 64.6672 35.0846 
L 64.7968 34.5266 
L 64.90048 33.9686 
L 64.97824 33.4106 
L 65.03008 32.8526 
L 65.056 32.2946 
L 65.056 31.7366 
L 65.03008 31.1786 
L 64.97824 30.6206 
L 64.90048 30.0626 
L 64.7968 29.5046 
L 64.6672 28.9466 
L 64.51168 28.3886 
L 64.33024 27.8306 
L 64.12288 27.2726 
L 63.8896 26.7146 
L 63.6304 26.1566 
L 63.34528 25.5986 
L 63.03424 25.0406 
L 62.69728 24.4826 
L 62.3344 23.9246 
L 61.9456 23.3666 
L 61.53088 22.8086 
L 61.09024 22.2506 
L 60.62368 21.6926 
L 60.1312 21.1346 
L 59.6128 20.5766 
L 59.06848 20.0186 
L 58.49824 19.4606 
L 57.90208 18.9026 
L 57.28 18.3446 
" style="fill:none;stroke:#000000;stroke-linecap:round;stroke-width:1.5;"/>
   </g>
   <g id="line2d_6">
    <path clip-path="url(#pdeb71252c8)" d="M 45.94 38.9906 
L 63.03424 38.9906 
" style="fill:none;stroke:#000000;stroke-linecap:round;stroke-width:1.5;"/>
   </g>
   <g id="line2d_7">
    <path clip-path="url(#pdeb71252c8)" d="M 45.94 25.0406 
L 63.03424 25.0406 
" style="fill:none;stroke:#000000;stroke-linecap:round;stroke-width:1.5;"/>
   </g>
   <g id="line2d_8">
    <path clip-path="url(#pdeb71252c8)" d="M 107.5 32.0156 
L 119.65 32.0156 
L 131.8 32.0156 
" style="fill:none;stroke:#000000;stroke-linecap:round;stroke-width:1.5;"/>
   </g>
   <g id="line2d_9">
    <path clip-path="url(#pdeb71252c8)" d="M 131.8 32.0156 
" style="fill:none;stroke:#000000;stroke-linecap:round;stroke-width:1.5;"/>
   </g>
   <g id="line2d_10">
    <path clip-path="url(#pdeb71252c8)" d="M 131.8 32.0156 
L 143.95 32.0156 
L 156.1 32.0156 
" style="fill:none;stroke:#000000;stroke-linecap:round;stroke-width:1.5;"/>
   </g>
   <g id="line2d_11">
    <path clip-path="url(#pdeb71252c8)" d="M 45.94 101.7656 
M 103.936 101.7656 
L 107.5 101.7656 
" style="fill:none;stroke:#000000;stroke-linecap:round;stroke-width:1.5;"/>
   </g>
   <g id="line2d_12">
    <path clip-path="url(#pdeb71252c8)" d="M 57.28 115.4366 
L 73.48 115.4366 
L 73.942857 115.430906 
L 74.405714 115.413824 
L 74.868571 115.385355 
L 75.331429 115.345498 
L 75.794286 115.294253 
L 76.257143 115.23162 
L 76.72 115.1576 
L 77.182857 115.072192 
L 77.645714 114.975396 
L 78.108571 114.867212 
L 78.571429 114.747641 
L 79.034286 114.616682 
L 79.497143 114.474335 
L 79.96 114.3206 
L 80.422857 114.155478 
L 80.885714 113.978967 
L 81.348571 113.791069 
L 81.811429 113.591784 
L 82.274286 113.38111 
L 82.737143 113.159049 
L 83.2 112.9256 
L 83.662857 112.680763 
L 84.125714 112.424539 
L 84.588571 112.156927 
L 85.051429 111.877927 
L 85.514286 111.587539 
L 85.977143 111.285763 
L 86.44 110.9726 
L 86.902857 110.648049 
L 87.365714 110.31211 
L 87.828571 109.964784 
L 88.291429 109.606069 
L 88.754286 109.235967 
L 89.217143 108.854478 
L 89.68 108.4616 
L 90.142857 108.057335 
L 90.605714 107.641682 
L 91.068571 107.214641 
L 91.531429 106.776212 
L 91.994286 106.326396 
L 92.457143 105.865192 
L 92.92 105.3926 
L 93.382857 104.90862 
L 93.845714 104.413253 
L 94.308571 103.906498 
L 94.771429 103.388355 
L 95.234286 102.858824 
L 95.697143 102.317906 
L 96.16 101.7656 
" style="fill:none;stroke:#000000;stroke-linecap:round;stroke-width:1.5;"/>
   </g>
   <g id="line2d_13">
    <path clip-path="url(#pdeb71252c8)" d="M 57.28 88.0946 
L 73.48 88.0946 
L 73.942857 88.100294 
L 74.405714 88.117376 
L 74.868571 88.145845 
L 75.331429 88.185702 
L 75.794286 88.236947 
L 76.257143 88.29958 
L 76.72 88.3736 
L 77.182857 88.459008 
L 77.645714 88.555804 
L 78.108571 88.663988 
L 78.571429 88.783559 
L 79.034286 88.914518 
L 79.497143 89.056865 
L 79.96 89.2106 
L 80.422857 89.375722 
L 80.885714 89.552233 
L 81.348571 89.740131 
L 81.811429 89.939416 
L 82.274286 90.15009 
L 82.737143 90.372151 
L 83.2 90.6056 
L 83.662857 90.850437 
L 84.125714 91.106661 
L 84.588571 91.374273 
L 85.051429 91.653273 
L 85.514286 91.943661 
L 85.977143 92.245437 
L 86.44 92.5586 
L 86.902857 92.883151 
L 87.365714 93.21909 
L 87.828571 93.566416 
L 88.291429 93.925131 
L 88.754286 94.295233 
L 89.217143 94.676722 
L 89.68 95.0696 
L 90.142857 95.473865 
L 90.605714 95.889518 
L 91.068571 96.316559 
L 91.531429 96.754988 
L 91.994286 97.204804 
L 92.457143 97.666008 
L 92.92 98.1386 
L 93.382857 98.62258 
L 93.845714 99.117947 
L 94.308571 99.624702 
L 94.771429 100.142845 
L 95.234286 100.672376 
L 95.697143 101.213294 
L 96.16 101.7656 
" style="fill:none;stroke:#000000;stroke-linecap:round;stroke-width:1.5;"/>
   </g>
   <g id="line2d_14">
    <path clip-path="url(#pdeb71252c8)" d="M 57.28 115.4366 
L 57.90208 114.8786 
L 58.49824 114.3206 
L 59.06848 113.7626 
L 59.6128 113.2046 
L 60.1312 112.6466 
L 60.62368 112.0886 
L 61.09024 111.5306 
L 61.53088 110.9726 
L 61.9456 110.4146 
L 62.3344 109.8566 
L 62.69728 109.2986 
L 63.03424 108.7406 
L 63.34528 108.1826 
L 63.6304 107.6246 
L 63.8896 107.0666 
L 64.12288 106.5086 
L 64.33024 105.9506 
L 64.51168 105.3926 
L 64.6672 104.8346 
L 64.7968 104.2766 
L 64.90048 103.7186 
L 64.97824 103.1606 
L 65.03008 102.6026 
L 65.056 102.0446 
L 65.056 101.4866 
L 65.03008 100.9286 
L 64.97824 100.3706 
L 64.90048 99.8126 
L 64.7968 99.2546 
L 64.6672 98.6966 
L 64.51168 98.1386 
L 64.33024 97.5806 
L 64.12288 97.0226 
L 63.8896 96.4646 
L 63.6304 95.9066 
L 63.34528 95.3486 
L 63.03424 94.7906 
L 62.69728 94.2326 
L 62.3344 93.6746 
L 61.9456 93.1166 
L 61.53088 92.5586 
L 61.09024 92.0006 
L 60.62368 91.4426 
L 60.1312 90.8846 
L 59.6128 90.3266 
L 59.06848 89.7686 
L 58.49824 89.2106 
L 57.90208 88.6526 
L 57.28 88.0946 
" style="fill:none;stroke:#000000;stroke-linecap:round;stroke-width:1.5;"/>
   </g>
   <g id="line2d_15">
    <path clip-path="url(#pdeb71252c8)" d="M 45.94 108.7406 
L 63.03424 108.7406 
" style="fill:none;stroke:#000000;stroke-linecap:round;stroke-width:1.5;"/>
   </g>
   <g id="line2d_16">
    <path clip-path="url(#pdeb71252c8)" d="M 45.94 94.7906 
L 63.03424 94.7906 
" style="fill:none;stroke:#000000;stroke-linecap:round;stroke-width:1.5;"/>
   </g>
   <g id="line2d_17">
    <path clip-path="url(#pdeb71252c8)" d="M 107.5 101.7656 
L 119.65 101.7656 
L 131.8 101.7656 
" style="fill:none;stroke:#000000;stroke-linecap:round;stroke-width:1.5;"/>
   </g>
   <g id="line2d_18">
    <path clip-path="url(#pdeb71252c8)" d="M 131.8 101.7656 
" style="fill:none;stroke:#000000;stroke-linecap:round;stroke-width:1.5;"/>
   </g>
   <g id="line2d_19">
    <path clip-path="url(#pdeb71252c8)" d="M 131.8 101.7656 
L 143.95 101.7656 
L 156.1 101.7656 
" style="fill:none;stroke:#000000;stroke-linecap:round;stroke-width:1.5;"/>
   </g>
   <g id="line2d_20">
    <path clip-path="url(#pdeb71252c8)" d="M 45.94 94.7906 
L 45.94 87.8156 
L 45.94 80.8406 
" style="fill:none;stroke:#000000;stroke-linecap:round;stroke-width:1.5;"/>
   </g>
   <g id="line2d_21">
    <path clip-path="url(#pdeb71252c8)" d="M 131.8 32.0156 
L 131.8 38.9906 
L 131.8 45.9656 
" style="fill:none;stroke:#000000;stroke-linecap:round;stroke-width:1.5;"/>
   </g>
   <g id="line2d_22">
    <path clip-path="url(#pdeb71252c8)" d="M 131.8 45.9656 
L 88.87 63.4031 
L 45.94 80.8406 
" style="fill:none;stroke:#000000;stroke-linecap:round;stroke-width:1.5;"/>
   </g>
   <g id="line2d_23">
    <path clip-path="url(#pdeb71252c8)" d="M 45.94 38.9906 
L 45.94 45.9656 
L 45.94 52.9406 
" style="fill:none;stroke:#000000;stroke-linecap:round;stroke-width:1.5;"/>
   </g>
   <g id="line2d_24">
    <path clip-path="url(#pdeb71252c8)" d="M 131.8 101.7656 
L 131.8 94.7906 
L 131.8 87.8156 
" style="fill:none;stroke:#000000;stroke-linecap:round;stroke-width:1.5;"/>
   </g>
   <g id="line2d_25">
    <path clip-path="url(#pdeb71252c8)" d="M 131.8 87.8156 
L 88.87 70.3781 
L 45.94 52.9406 
" style="fill:none;stroke:#000000;stroke-linecap:round;stroke-width:1.5;"/>
   </g>
   <g id="line2d_26">
    <path clip-path="url(#pdeb71252c8)" d="M 45.94 108.7406 
L 33.79 108.7406 
L 21.64 108.7406 
" style="fill:none;stroke:#000000;stroke-linecap:round;stroke-width:1.5;"/>
   </g>
   <g id="patch_2">
    <path clip-path="url(#pdeb71252c8)" d="M 100.048 35.3636 
C 101.07911 35.3636 102.068127 35.010834 102.797231 34.382994 
C 103.526336 33.755153 103.936 32.9035 103.936 32.0156 
C 103.936 31.1277 103.526336 30.276047 102.797231 29.648206 
C 102.068127 29.020366 101.07911 28.6676 100.048 28.6676 
C 99.01689 28.6676 98.027873 29.020366 97.298769 29.648206 
C 96.569664 30.276047 96.16 31.1277 96.16 32.0156 
C 96.16 32.9035 96.569664 33.755153 97.298769 34.382994 
C 98.027873 35.010834 99.01689 35.3636 100.048 35.3636 
z
" style="fill:none;stroke:#000000;stroke-linejoin:miter;stroke-width:1.5;"/>
   </g>
   <g id="patch_3">
    <path clip-path="url(#pdeb71252c8)" d="M 131.8 34.1081 
C 132.444444 34.1081 133.062579 33.887621 133.518269 33.495221 
C 133.97396 33.102821 134.23 32.570537 134.23 32.0156 
C 134.23 31.460663 133.97396 30.928379 133.518269 30.535979 
C 133.062579 30.143579 132.444444 29.9231 131.8 29.9231 
C 131.155556 29.9231 130.537421 30.143579 130.081731 30.535979 
C 129.62604 30.928379 129.37 31.460663 129.37 32.0156 
C 129.37 32.570537 129.62604 33.102821 130.081731 33.495221 
C 130.537421 33.887621 131.155556 34.1081 131.8 34.1081 
z
" style="stroke:#000000;stroke-linejoin:miter;stroke-width:1.5;"/>
   </g>
   <g id="patch_4">
    <path clip-path="url(#pdeb71252c8)" d="M 100.048 105.1136 
C 101.07911 105.1136 102.068127 104.760834 102.797231 104.132994 
C 103.526336 103.505153 103.936 102.6535 103.936 101.7656 
C 103.936 100.8777 103.526336 100.026047 102.797231 99.398206 
C 102.068127 98.770366 101.07911 98.4176 100.048 98.4176 
C 99.01689 98.4176 98.027873 98.770366 97.298769 99.398206 
C 96.569664 100.026047 96.16 100.8777 96.16 101.7656 
C 96.16 102.6535 96.569664 103.505153 97.298769 104.132994 
C 98.027873 104.760834 99.01689 105.1136 100.048 105.1136 
z
" style="fill:none;stroke:#000000;stroke-linejoin:miter;stroke-width:1.5;"/>
   </g>
   <g id="patch_5">
    <path clip-path="url(#pdeb71252c8)" d="M 131.8 103.8581 
C 132.444444 103.8581 133.062579 103.637621 133.518269 103.245221 
C 133.97396 102.852821 134.23 102.320537 134.23 101.7656 
C 134.23 101.210663 133.97396 100.678379 133.518269 100.285979 
C 133.062579 99.893579 132.444444 99.6731 131.8 99.6731 
C 131.155556 99.6731 130.537421 99.893579 130.081731 100.285979 
C 129.62604 100.678379 129.37 101.210663 129.37 101.7656 
C 129.37 102.320537 129.62604 102.852821 130.081731 103.245221 
C 130.537421 103.637621 131.155556 103.8581 131.8 103.8581 
z
" style="stroke:#000000;stroke-linejoin:miter;stroke-width:1.5;"/>
   </g>
   <g id="text_1">
    <!-- $R$ -->
    <defs>
     <path d="M 44.390625 34.1875 
Q 47.5625 33.109375 50.5625 29.59375 
Q 53.5625 26.078125 56.59375 19.921875 
L 66.609375 0 
L 56 0 
L 46.6875 18.703125 
Q 43.0625 26.03125 39.671875 28.421875 
Q 36.28125 30.8125 30.421875 30.8125 
L 19.671875 30.8125 
L 19.671875 0 
L 9.8125 0 
L 9.8125 72.90625 
L 32.078125 72.90625 
Q 44.578125 72.90625 50.734375 67.671875 
Q 56.890625 62.453125 56.890625 51.90625 
Q 56.890625 45.015625 53.6875 40.46875 
Q 50.484375 35.9375 44.390625 34.1875 
z
M 19.671875 64.796875 
L 19.671875 38.921875 
L 32.078125 38.921875 
Q 39.203125 38.921875 42.84375 42.21875 
Q 46.484375 45.515625 46.484375 51.90625 
Q 46.484375 58.296875 42.84375 61.546875 
Q 39.203125 64.796875 32.078125 64.796875 
z
" id="DejaVuSans-52"/>
    </defs>
    <g transform="translate(7.2 29.4556)scale(0.16 -0.16)">
     <use transform="translate(0 0.09375)" xlink:href="#DejaVuSans-52"/>
    </g>
   </g>
   <g id="text_2">
    <!-- $Q$ -->
    <defs>
     <path d="M 39.40625 66.21875 
Q 28.65625 66.21875 22.328125 58.203125 
Q 16.015625 50.203125 16.015625 36.375 
Q 16.015625 22.609375 22.328125 14.59375 
Q 28.65625 6.59375 39.40625 6.59375 
Q 50.140625 6.59375 56.421875 14.59375 
Q 62.703125 22.609375 62.703125 36.375 
Q 62.703125 50.203125 56.421875 58.203125 
Q 50.140625 66.21875 39.40625 66.21875 
z
M 53.21875 1.3125 
L 66.21875 -12.890625 
L 54.296875 -12.890625 
L 43.5 -1.21875 
Q 41.890625 -1.3125 41.03125 -1.359375 
Q 40.1875 -1.421875 39.40625 -1.421875 
Q 24.03125 -1.421875 14.8125 8.859375 
Q 5.609375 19.140625 5.609375 36.375 
Q 5.609375 53.65625 14.8125 63.9375 
Q 24.03125 74.21875 39.40625 74.21875 
Q 54.734375 74.21875 63.90625 63.9375 
Q 73.09375 53.65625 73.09375 36.375 
Q 73.09375 23.6875 67.984375 14.640625 
Q 62.890625 5.609375 53.21875 1.3125 
z
" id="DejaVuSans-51"/>
    </defs>
    <g transform="translate(159.34 36.4306)scale(0.16 -0.16)">
     <use transform="translate(0 0.78125)" xlink:href="#DejaVuSans-51"/>
    </g>
   </g>
   <g id="text_3">
    <!-- $\overline{Q}$ -->
    <g transform="translate(159.34 107.3981)scale(0.16 -0.16)">
     <use transform="translate(0 0.53125)" xlink:href="#DejaVuSans-51"/>
     <path d="M 0 86.5 
L 0 92.75 
L 78.710938 92.75 
L 78.710938 86.5 
L 0 86.5 
z
"/>
    </g>
   </g>
   <g id="text_4">
    <!-- $S$ -->
    <defs>
     <path d="M 53.515625 70.515625 
L 53.515625 60.890625 
Q 47.90625 63.578125 42.921875 64.890625 
Q 37.9375 66.21875 33.296875 66.21875 
Q 25.25 66.21875 20.875 63.09375 
Q 16.5 59.96875 16.5 54.203125 
Q 16.5 49.359375 19.40625 46.890625 
Q 22.3125 44.4375 30.421875 42.921875 
L 36.375 41.703125 
Q 47.40625 39.59375 52.65625 34.296875 
Q 57.90625 29 57.90625 20.125 
Q 57.90625 9.515625 50.796875 4.046875 
Q 43.703125 -1.421875 29.984375 -1.421875 
Q 24.8125 -1.421875 18.96875 -0.25 
Q 13.140625 0.921875 6.890625 3.21875 
L 6.890625 13.375 
Q 12.890625 10.015625 18.65625 8.296875 
Q 24.421875 6.59375 29.984375 6.59375 
Q 38.421875 6.59375 43.015625 9.90625 
Q 47.609375 13.234375 47.609375 19.390625 
Q 47.609375 24.75 44.3125 27.78125 
Q 41.015625 30.8125 33.5 32.328125 
L 27.484375 33.5 
Q 16.453125 35.6875 11.515625 40.375 
Q 6.59375 45.0625 6.59375 53.421875 
Q 6.59375 63.09375 13.40625 68.65625 
Q 20.21875 74.21875 32.171875 74.21875 
Q 37.3125 74.21875 42.625 73.28125 
Q 47.953125 72.359375 53.515625 70.515625 
z
" id="DejaVuSans-53"/>
    </defs>
    <g transform="translate(8.16 113.1556)scale(0.16 -0.16)">
     <use transform="translate(0 0.78125)" xlink:href="#DejaVuSans-53"/>
    </g>
   </g>
  </g>
 </g>
 <defs>
  <clipPath id="pdeb71252c8">
   <rect height="112.3812" width="154.386" x="11.677" y="10.7"/>
  </clipPath>
 </defs>
</svg>
