<?xml version="1.0" encoding="utf-8" standalone="no"?>
<!DOCTYPE svg PUBLIC "-//W3C//DTD SVG 1.1//EN"
  "http://www.w3.org/Graphics/SVG/1.1/DTD/svg11.dtd">
<!-- Created with matplotlib (http://matplotlib.org/) -->
<svg height="127pt" version="1.1" viewBox="0 0 179 127" width="179pt" xmlns="http://www.w3.org/2000/svg" xmlns:xlink="http://www.w3.org/1999/xlink">
 <defs>
  <style type="text/css">
*{stroke-linecap:butt;stroke-linejoin:round;stroke-miterlimit:100000;}
  </style>
 </defs>
 <g id="figure_1">
  <g id="patch_1">
   <path d="M -0 127.008 
L 179.18 127.008 
L 179.18 0 
L -0 0 
z
" style="fill:none;"/>
  </g>
  <g id="axes_1">
   <g id="line2d_1">
    <path clip-path="url(#pcb0d43954c)" d="M 21.64 17.604 
L 33.79 17.604 
L 45.94 17.604 
" style="fill:none;stroke:#000000;stroke-linecap:round;stroke-width:1.5;"/>
   </g>
   <g id="line2d_2">
    <path clip-path="url(#pcb0d43954c)" d="M 103.936 25.254 
L 107.5 25.254 
" style="fill:none;stroke:#000000;stroke-linecap:round;stroke-width:1.5;"/>
   </g>
   <g id="line2d_3">
    <path clip-path="url(#pcb0d43954c)" d="M 57.28 40.248 
L 73.48 40.248 
L 73.942857 40.241755 
L 74.405714 40.22302 
L 74.868571 40.191796 
L 75.331429 40.148082 
L 75.794286 40.091878 
L 76.257143 40.023184 
L 76.72 39.942 
L 77.182857 39.848327 
L 77.645714 39.742163 
L 78.108571 39.62351 
L 78.571429 39.492367 
L 79.034286 39.348735 
L 79.497143 39.192612 
L 79.96 39.024 
L 80.422857 38.842898 
L 80.885714 38.649306 
L 81.348571 38.443224 
L 81.811429 38.224653 
L 82.274286 37.993592 
L 82.737143 37.750041 
L 83.2 37.494 
L 83.662857 37.225469 
L 84.125714 36.944449 
L 84.588571 36.650939 
L 85.051429 36.344939 
L 85.514286 36.026449 
L 85.977143 35.695469 
L 86.44 35.352 
L 86.902857 34.996041 
L 87.365714 34.627592 
L 87.828571 34.246653 
L 88.291429 33.853224 
L 88.754286 33.447306 
L 89.217143 33.028898 
L 89.68 32.598 
L 90.142857 32.154612 
L 90.605714 31.698735 
L 91.068571 31.230367 
L 91.531429 30.74951 
L 91.994286 30.256163 
L 92.457143 29.750327 
L 92.92 29.232 
L 93.382857 28.701184 
L 93.845714 28.157878 
L 94.308571 27.602082 
L 94.771429 27.033796 
L 95.234286 26.45302 
L 95.697143 25.859755 
L 96.16 25.254 
" style="fill:none;stroke:#000000;stroke-linecap:round;stroke-width:1.5;"/>
   </g>
   <g id="line2d_4">
    <path clip-path="url(#pcb0d43954c)" d="M 57.28 10.26 
L 73.48 10.26 
L 73.942857 10.266245 
L 74.405714 10.28498 
L 74.868571 10.316204 
L 75.331429 10.359918 
L 75.794286 10.416122 
L 76.257143 10.484816 
L 76.72 10.566 
L 77.182857 10.659673 
L 77.645714 10.765837 
L 78.108571 10.88449 
L 78.571429 11.015633 
L 79.034286 11.159265 
L 79.497143 11.315388 
L 79.96 11.484 
L 80.422857 11.665102 
L 80.885714 11.858694 
L 81.348571 12.064776 
L 81.811429 12.283347 
L 82.274286 12.514408 
L 82.737143 12.757959 
L 83.2 13.014 
L 83.662857 13.282531 
L 84.125714 13.563551 
L 84.588571 13.857061 
L 85.051429 14.163061 
L 85.514286 14.481551 
L 85.977143 14.812531 
L 86.44 15.156 
L 86.902857 15.511959 
L 87.365714 15.880408 
L 87.828571 16.261347 
L 88.291429 16.654776 
L 88.754286 17.060694 
L 89.217143 17.479102 
L 89.68 17.91 
L 90.142857 18.353388 
L 90.605714 18.809265 
L 91.068571 19.277633 
L 91.531429 19.75849 
L 91.994286 20.251837 
L 92.457143 20.757673 
L 92.92 21.276 
L 93.382857 21.806816 
L 93.845714 22.350122 
L 94.308571 22.905918 
L 94.771429 23.474204 
L 95.234286 24.05498 
L 95.697143 24.648245 
L 96.16 25.254 
" style="fill:none;stroke:#000000;stroke-linecap:round;stroke-width:1.5;"/>
   </g>
   <g id="line2d_5">
    <path clip-path="url(#pcb0d43954c)" d="M 57.28 40.248 
L 57.90208 39.636 
L 58.49824 39.024 
L 59.06848 38.412 
L 59.6128 37.8 
L 60.1312 37.188 
L 60.62368 36.576 
L 61.09024 35.964 
L 61.53088 35.352 
L 61.9456 34.74 
L 62.3344 34.128 
L 62.69728 33.516 
L 63.03424 32.904 
L 63.34528 32.292 
L 63.6304 31.68 
L 63.8896 31.068 
L 64.12288 30.456 
L 64.33024 29.844 
L 64.51168 29.232 
L 64.6672 28.62 
L 64.7968 28.008 
L 64.90048 27.396 
L 64.97824 26.784 
L 65.03008 26.172 
L 65.056 25.56 
L 65.056 24.948 
L 65.03008 24.336 
L 64.97824 23.724 
L 64.90048 23.112 
L 64.7968 22.5 
L 64.6672 21.888 
L 64.51168 21.276 
L 64.33024 20.664 
L 64.12288 20.052 
L 63.8896 19.44 
L 63.6304 18.828 
L 63.34528 18.216 
L 63.03424 17.604 
L 62.69728 16.992 
L 62.3344 16.38 
L 61.9456 15.768 
L 61.53088 15.156 
L 61.09024 14.544 
L 60.62368 13.932 
L 60.1312 13.32 
L 59.6128 12.708 
L 59.06848 12.096 
L 58.49824 11.484 
L 57.90208 10.872 
L 57.28 10.26 
" style="fill:none;stroke:#000000;stroke-linecap:round;stroke-width:1.5;"/>
   </g>
   <g id="line2d_6">
    <path clip-path="url(#pcb0d43954c)" d="M 45.94 32.904 
L 63.03424 32.904 
" style="fill:none;stroke:#000000;stroke-linecap:round;stroke-width:1.5;"/>
   </g>
   <g id="line2d_7">
    <path clip-path="url(#pcb0d43954c)" d="M 45.94 17.604 
L 63.03424 17.604 
" style="fill:none;stroke:#000000;stroke-linecap:round;stroke-width:1.5;"/>
   </g>
   <g id="line2d_8">
    <path clip-path="url(#pcb0d43954c)" d="M 107.5 25.254 
L 119.65 25.254 
L 131.8 25.254 
" style="fill:none;stroke:#000000;stroke-linecap:round;stroke-width:1.5;"/>
   </g>
   <g id="line2d_9">
    <path clip-path="url(#pcb0d43954c)" d="M 131.8 25.254 
" style="fill:none;stroke:#000000;stroke-linecap:round;stroke-width:1.5;"/>
   </g>
   <g id="line2d_10">
    <path clip-path="url(#pcb0d43954c)" d="M 131.8 25.254 
L 143.95 25.254 
L 156.1 25.254 
" style="fill:none;stroke:#000000;stroke-linecap:round;stroke-width:1.5;"/>
   </g>
   <g id="line2d_11">
    <path clip-path="url(#pcb0d43954c)" d="M 103.936 101.754 
L 107.5 101.754 
" style="fill:none;stroke:#000000;stroke-linecap:round;stroke-width:1.5;"/>
   </g>
   <g id="line2d_12">
    <path clip-path="url(#pcb0d43954c)" d="M 57.28 116.748 
L 73.48 116.748 
L 73.942857 116.741755 
L 74.405714 116.72302 
L 74.868571 116.691796 
L 75.331429 116.648082 
L 75.794286 116.591878 
L 76.257143 116.523184 
L 76.72 116.442 
L 77.182857 116.348327 
L 77.645714 116.242163 
L 78.108571 116.12351 
L 78.571429 115.992367 
L 79.034286 115.848735 
L 79.497143 115.692612 
L 79.96 115.524 
L 80.422857 115.342898 
L 80.885714 115.149306 
L 81.348571 114.943224 
L 81.811429 114.724653 
L 82.274286 114.493592 
L 82.737143 114.250041 
L 83.2 113.994 
L 83.662857 113.725469 
L 84.125714 113.444449 
L 84.588571 113.150939 
L 85.051429 112.844939 
L 85.514286 112.526449 
L 85.977143 112.195469 
L 86.44 111.852 
L 86.902857 111.496041 
L 87.365714 111.127592 
L 87.828571 110.746653 
L 88.291429 110.353224 
L 88.754286 109.947306 
L 89.217143 109.528898 
L 89.68 109.098 
L 90.142857 108.654612 
L 90.605714 108.198735 
L 91.068571 107.730367 
L 91.531429 107.24951 
L 91.994286 106.756163 
L 92.457143 106.250327 
L 92.92 105.732 
L 93.382857 105.201184 
L 93.845714 104.657878 
L 94.308571 104.102082 
L 94.771429 103.533796 
L 95.234286 102.95302 
L 95.697143 102.359755 
L 96.16 101.754 
" style="fill:none;stroke:#000000;stroke-linecap:round;stroke-width:1.5;"/>
   </g>
   <g id="line2d_13">
    <path clip-path="url(#pcb0d43954c)" d="M 57.28 86.76 
L 73.48 86.76 
L 73.942857 86.766245 
L 74.405714 86.78498 
L 74.868571 86.816204 
L 75.331429 86.859918 
L 75.794286 86.916122 
L 76.257143 86.984816 
L 76.72 87.066 
L 77.182857 87.159673 
L 77.645714 87.265837 
L 78.108571 87.38449 
L 78.571429 87.515633 
L 79.034286 87.659265 
L 79.497143 87.815388 
L 79.96 87.984 
L 80.422857 88.165102 
L 80.885714 88.358694 
L 81.348571 88.564776 
L 81.811429 88.783347 
L 82.274286 89.014408 
L 82.737143 89.257959 
L 83.2 89.514 
L 83.662857 89.782531 
L 84.125714 90.063551 
L 84.588571 90.357061 
L 85.051429 90.663061 
L 85.514286 90.981551 
L 85.977143 91.312531 
L 86.44 91.656 
L 86.902857 92.011959 
L 87.365714 92.380408 
L 87.828571 92.761347 
L 88.291429 93.154776 
L 88.754286 93.560694 
L 89.217143 93.979102 
L 89.68 94.41 
L 90.142857 94.853388 
L 90.605714 95.309265 
L 91.068571 95.777633 
L 91.531429 96.25849 
L 91.994286 96.751837 
L 92.457143 97.257673 
L 92.92 97.776 
L 93.382857 98.306816 
L 93.845714 98.850122 
L 94.308571 99.405918 
L 94.771429 99.974204 
L 95.234286 100.55498 
L 95.697143 101.148245 
L 96.16 101.754 
" style="fill:none;stroke:#000000;stroke-linecap:round;stroke-width:1.5;"/>
   </g>
   <g id="line2d_14">
    <path clip-path="url(#pcb0d43954c)" d="M 57.28 116.748 
L 57.90208 116.136 
L 58.49824 115.524 
L 59.06848 114.912 
L 59.6128 114.3 
L 60.1312 113.688 
L 60.62368 113.076 
L 61.09024 112.464 
L 61.53088 111.852 
L 61.9456 111.24 
L 62.3344 110.628 
L 62.69728 110.016 
L 63.03424 109.404 
L 63.34528 108.792 
L 63.6304 108.18 
L 63.8896 107.568 
L 64.12288 106.956 
L 64.33024 106.344 
L 64.51168 105.732 
L 64.6672 105.12 
L 64.7968 104.508 
L 64.90048 103.896 
L 64.97824 103.284 
L 65.03008 102.672 
L 65.056 102.06 
L 65.056 101.448 
L 65.03008 100.836 
L 64.97824 100.224 
L 64.90048 99.612 
L 64.7968 99 
L 64.6672 98.388 
L 64.51168 97.776 
L 64.33024 97.164 
L 64.12288 96.552 
L 63.8896 95.94 
L 63.6304 95.328 
L 63.34528 94.716 
L 63.03424 94.104 
L 62.69728 93.492 
L 62.3344 92.88 
L 61.9456 92.268 
L 61.53088 91.656 
L 61.09024 91.044 
L 60.62368 90.432 
L 60.1312 89.82 
L 59.6128 89.208 
L 59.06848 88.596 
L 58.49824 87.984 
L 57.90208 87.372 
L 57.28 86.76 
" style="fill:none;stroke:#000000;stroke-linecap:round;stroke-width:1.5;"/>
   </g>
   <g id="line2d_15">
    <path clip-path="url(#pcb0d43954c)" d="M 45.94 109.404 
L 63.03424 109.404 
" style="fill:none;stroke:#000000;stroke-linecap:round;stroke-width:1.5;"/>
   </g>
   <g id="line2d_16">
    <path clip-path="url(#pcb0d43954c)" d="M 45.94 94.104 
L 63.03424 94.104 
" style="fill:none;stroke:#000000;stroke-linecap:round;stroke-width:1.5;"/>
   </g>
   <g id="line2d_17">
    <path clip-path="url(#pcb0d43954c)" d="M 107.5 101.754 
L 119.65 101.754 
L 131.8 101.754 
" style="fill:none;stroke:#000000;stroke-linecap:round;stroke-width:1.5;"/>
   </g>
   <g id="line2d_18">
    <path clip-path="url(#pcb0d43954c)" d="M 131.8 101.754 
" style="fill:none;stroke:#000000;stroke-linecap:round;stroke-width:1.5;"/>
   </g>
   <g id="line2d_19">
    <path clip-path="url(#pcb0d43954c)" d="M 131.8 101.754 
L 143.95 101.754 
L 156.1 101.754 
" style="fill:none;stroke:#000000;stroke-linecap:round;stroke-width:1.5;"/>
   </g>
   <g id="line2d_20">
    <path clip-path="url(#pcb0d43954c)" d="M 45.94 94.104 
L 45.94 86.454 
L 45.94 78.804 
" style="fill:none;stroke:#000000;stroke-linecap:round;stroke-width:1.5;"/>
   </g>
   <g id="line2d_21">
    <path clip-path="url(#pcb0d43954c)" d="M 131.8 25.254 
L 131.8 32.904 
L 131.8 40.554 
" style="fill:none;stroke:#000000;stroke-linecap:round;stroke-width:1.5;"/>
   </g>
   <g id="line2d_22">
    <path clip-path="url(#pcb0d43954c)" d="M 131.8 40.554 
L 88.87 59.679 
L 45.94 78.804 
" style="fill:none;stroke:#000000;stroke-linecap:round;stroke-width:1.5;"/>
   </g>
   <g id="line2d_23">
    <path clip-path="url(#pcb0d43954c)" d="M 45.94 32.904 
L 45.94 40.554 
L 45.94 48.204 
" style="fill:none;stroke:#000000;stroke-linecap:round;stroke-width:1.5;"/>
   </g>
   <g id="line2d_24">
    <path clip-path="url(#pcb0d43954c)" d="M 131.8 101.754 
L 131.8 94.104 
L 131.8 86.454 
" style="fill:none;stroke:#000000;stroke-linecap:round;stroke-width:1.5;"/>
   </g>
   <g id="line2d_25">
    <path clip-path="url(#pcb0d43954c)" d="M 131.8 86.454 
L 88.87 67.329 
L 45.94 48.204 
" style="fill:none;stroke:#000000;stroke-linecap:round;stroke-width:1.5;"/>
   </g>
   <g id="line2d_26">
    <path clip-path="url(#pcb0d43954c)" d="M 45.94 109.404 
L 33.79 109.404 
L 21.64 109.404 
" style="fill:none;stroke:#000000;stroke-linecap:round;stroke-width:1.5;"/>
   </g>
   <g id="patch_2">
    <path clip-path="url(#pcb0d43954c)" d="M 100.048 28.926 
C 101.07911 28.926 102.068127 28.539095 102.797231 27.850496 
C 103.526336 27.161897 103.936 26.227826 103.936 25.254 
C 103.936 24.280174 103.526336 23.346103 102.797231 22.657504 
C 102.068127 21.968905 101.07911 21.582 100.048 21.582 
C 99.01689 21.582 98.027873 21.968905 97.298769 22.657504 
C 96.569664 23.346103 96.16 24.280174 96.16 25.254 
C 96.16 26.227826 96.569664 27.161897 97.298769 27.850496 
C 98.027873 28.539095 99.01689 28.926 100.048 28.926 
z
" style="fill:none;stroke:#000000;stroke-linejoin:miter;stroke-width:1.5;"/>
   </g>
   <g id="patch_3">
    <path clip-path="url(#pcb0d43954c)" d="M 131.8 27.549 
C 132.444444 27.549 133.062579 27.307184 133.518269 26.87681 
C 133.97396 26.446436 134.23 25.862641 134.23 25.254 
C 134.23 24.645359 133.97396 24.061564 133.518269 23.63119 
C 133.062579 23.200816 132.444444 22.959 131.8 22.959 
C 131.155556 22.959 130.537421 23.200816 130.081731 23.63119 
C 129.62604 24.061564 129.37 24.645359 129.37 25.254 
C 129.37 25.862641 129.62604 26.446436 130.081731 26.87681 
C 130.537421 27.307184 131.155556 27.549 131.8 27.549 
z
" style="stroke:#000000;stroke-linejoin:miter;stroke-width:1.5;"/>
   </g>
   <g id="patch_4">
    <path clip-path="url(#pcb0d43954c)" d="M 100.048 105.426 
C 101.07911 105.426 102.068127 105.039095 102.797231 104.350496 
C 103.526336 103.661897 103.936 102.727826 103.936 101.754 
C 103.936 100.780174 103.526336 99.846103 102.797231 99.157504 
C 102.068127 98.468905 101.07911 98.082 100.048 98.082 
C 99.01689 98.082 98.027873 98.468905 97.298769 99.157504 
C 96.569664 99.846103 96.16 100.780174 96.16 101.754 
C 96.16 102.727826 96.569664 103.661897 97.298769 104.350496 
C 98.027873 105.039095 99.01689 105.426 100.048 105.426 
z
" style="fill:none;stroke:#000000;stroke-linejoin:miter;stroke-width:1.5;"/>
   </g>
   <g id="patch_5">
    <path clip-path="url(#pcb0d43954c)" d="M 131.8 104.049 
C 132.444444 104.049 133.062579 103.807184 133.518269 103.37681 
C 133.97396 102.946436 134.23 102.362641 134.23 101.754 
C 134.23 101.145359 133.97396 100.561564 133.518269 100.13119 
C 133.062579 99.700816 132.444444 99.459 131.8 99.459 
C 131.155556 99.459 130.537421 99.700816 130.081731 100.13119 
C 129.62604 100.561564 129.37 101.145359 129.37 101.754 
C 129.37 102.362641 129.62604 102.946436 130.081731 103.37681 
C 130.537421 103.807184 131.155556 104.049 131.8 104.049 
z
" style="stroke:#000000;stroke-linejoin:miter;stroke-width:1.5;"/>
   </g>
   <g id="text_1">
    <!-- $R$ -->
    <defs>
     <path d="M 44.390625 34.1875 
Q 47.5625 33.109375 50.5625 29.59375 
Q 53.5625 26.078125 56.59375 19.921875 
L 66.609375 0 
L 56 0 
L 46.6875 18.703125 
Q 43.0625 26.03125 39.671875 28.421875 
Q 36.28125 30.8125 30.421875 30.8125 
L 19.671875 30.8125 
L 19.671875 0 
L 9.8125 0 
L 9.8125 72.90625 
L 32.078125 72.90625 
Q 44.578125 72.90625 50.734375 67.671875 
Q 56.890625 62.453125 56.890625 51.90625 
Q 56.890625 45.015625 53.6875 40.46875 
Q 50.484375 35.9375 44.390625 34.1875 
M 19.671875 64.796875 
L 19.671875 38.921875 
L 32.078125 38.921875 
Q 39.203125 38.921875 42.84375 42.21875 
Q 46.484375 45.515625 46.484375 51.90625 
Q 46.484375 58.296875 42.84375 61.546875 
Q 39.203125 64.796875 32.078125 64.796875 
z
" id="BitstreamVeraSans-Roman-52"/>
    </defs>
    <g transform="translate(7.2 22.019)scale(0.16 -0.16)">
     <use transform="translate(0.0 0.09375)" xlink:href="#BitstreamVeraSans-Roman-52"/>
    </g>
   </g>
   <g id="text_2">
    <!-- $Q$ -->
    <defs>
     <path d="M 39.40625 66.21875 
Q 28.65625 66.21875 22.328125 58.203125 
Q 16.015625 50.203125 16.015625 36.375 
Q 16.015625 22.609375 22.328125 14.59375 
Q 28.65625 6.59375 39.40625 6.59375 
Q 50.140625 6.59375 56.421875 14.59375 
Q 62.703125 22.609375 62.703125 36.375 
Q 62.703125 50.203125 56.421875 58.203125 
Q 50.140625 66.21875 39.40625 66.21875 
M 53.21875 1.3125 
L 66.21875 -12.890625 
L 54.296875 -12.890625 
L 43.5 -1.21875 
Q 41.890625 -1.3125 41.03125 -1.359375 
Q 40.1875 -1.421875 39.40625 -1.421875 
Q 24.03125 -1.421875 14.8125 8.859375 
Q 5.609375 19.140625 5.609375 36.375 
Q 5.609375 53.65625 14.8125 63.9375 
Q 24.03125 74.21875 39.40625 74.21875 
Q 54.734375 74.21875 63.90625 63.9375 
Q 73.09375 53.65625 73.09375 36.375 
Q 73.09375 23.6875 67.984375 14.640625 
Q 62.890625 5.609375 53.21875 1.3125 
" id="BitstreamVeraSans-Roman-51"/>
    </defs>
    <g transform="translate(159.34 29.669)scale(0.16 -0.16)">
     <use transform="translate(0.0 0.78125)" xlink:href="#BitstreamVeraSans-Roman-51"/>
    </g>
   </g>
   <g id="text_3">
    <!-- $\overline{Q}$ -->
    <g transform="translate(159.34 107.3865)scale(0.16 -0.16)">
     <use transform="translate(0.0 0.53125)" xlink:href="#BitstreamVeraSans-Roman-51"/>
     <path d="M 0 86.5 
L 0 92.75 
L 78.710938 92.75 
L 78.710938 86.5 
L 0 86.5 
z
"/>
    </g>
   </g>
   <g id="text_4">
    <!-- $S$ -->
    <defs>
     <path d="M 53.515625 70.515625 
L 53.515625 60.890625 
Q 47.90625 63.578125 42.921875 64.890625 
Q 37.9375 66.21875 33.296875 66.21875 
Q 25.25 66.21875 20.875 63.09375 
Q 16.5 59.96875 16.5 54.203125 
Q 16.5 49.359375 19.40625 46.890625 
Q 22.3125 44.4375 30.421875 42.921875 
L 36.375 41.703125 
Q 47.40625 39.59375 52.65625 34.296875 
Q 57.90625 29 57.90625 20.125 
Q 57.90625 9.515625 50.796875 4.046875 
Q 43.703125 -1.421875 29.984375 -1.421875 
Q 24.8125 -1.421875 18.96875 -0.25 
Q 13.140625 0.921875 6.890625 3.21875 
L 6.890625 13.375 
Q 12.890625 10.015625 18.65625 8.296875 
Q 24.421875 6.59375 29.984375 6.59375 
Q 38.421875 6.59375 43.015625 9.90625 
Q 47.609375 13.234375 47.609375 19.390625 
Q 47.609375 24.75 44.3125 27.78125 
Q 41.015625 30.8125 33.5 32.328125 
L 27.484375 33.5 
Q 16.453125 35.6875 11.515625 40.375 
Q 6.59375 45.0625 6.59375 53.421875 
Q 6.59375 63.09375 13.40625 68.65625 
Q 20.21875 74.21875 32.171875 74.21875 
Q 37.3125 74.21875 42.625 73.28125 
Q 47.953125 72.359375 53.515625 70.515625 
" id="BitstreamVeraSans-Roman-53"/>
    </defs>
    <g transform="translate(8.16 113.819)scale(0.16 -0.16)">
     <use transform="translate(0.0 0.78125)" xlink:href="#BitstreamVeraSans-Roman-53"/>
    </g>
   </g>
  </g>
 </g>
 <defs>
  <clipPath id="pcb0d43954c">
   <rect height="112.608" width="140.94" x="18.4" y="7.2"/>
  </clipPath>
 </defs>
</svg>
