<?xml version="1.0" encoding="utf-8" standalone="no"?>
<!DOCTYPE svg PUBLIC "-//W3C//DTD SVG 1.1//EN"
  "http://www.w3.org/Graphics/SVG/1.1/DTD/svg11.dtd">
<!-- Created with matplotlib (http://matplotlib.org/) -->
<svg height="144pt" version="1.1" viewBox="0 0 179 144" width="179pt" xmlns="http://www.w3.org/2000/svg" xmlns:xlink="http://www.w3.org/1999/xlink">
 <defs>
  <style type="text/css">
*{stroke-linecap:butt;stroke-linejoin:round;}
  </style>
 </defs>
 <g id="figure_1">
  <g id="patch_1">
   <path d="M 0 144.6568 
L 179.18 144.6568 
L 179.18 0 
L 0 0 
z
" style="fill:none;"/>
  </g>
  <g id="axes_1">
   <g id="line2d_1">
    <path clip-path="url(#p0add8d9942)" d="M 21.64 26.4284 
L 33.79 26.4284 
L 45.94 26.4284 
" style="fill:none;stroke:#000000;stroke-linecap:round;stroke-width:1.5;"/>
   </g>
   <g id="line2d_2">
    <path clip-path="url(#p0add8d9942)" d="M 45.94 34.0784 
M 103.936 34.0784 
L 107.5 34.0784 
" style="fill:none;stroke:#000000;stroke-linecap:round;stroke-width:1.5;"/>
   </g>
   <g id="line2d_3">
    <path clip-path="url(#p0add8d9942)" d="M 57.28 49.0724 
L 73.48 49.0724 
L 73.942857 49.066155 
L 74.405714 49.04742 
L 74.868571 49.016196 
L 75.331429 48.972482 
L 75.794286 48.916278 
L 76.257143 48.847584 
L 76.72 48.7664 
L 77.182857 48.672727 
L 77.645714 48.566563 
L 78.108571 48.44791 
L 78.571429 48.316767 
L 79.034286 48.173135 
L 79.497143 48.017012 
L 79.96 47.8484 
L 80.422857 47.667298 
L 80.885714 47.473706 
L 81.348571 47.267624 
L 81.811429 47.049053 
L 82.274286 46.817992 
L 82.737143 46.574441 
L 83.2 46.3184 
L 83.662857 46.049869 
L 84.125714 45.768849 
L 84.588571 45.475339 
L 85.051429 45.169339 
L 85.514286 44.850849 
L 85.977143 44.519869 
L 86.44 44.1764 
L 86.902857 43.820441 
L 87.365714 43.451992 
L 87.828571 43.071053 
L 88.291429 42.677624 
L 88.754286 42.271706 
L 89.217143 41.853298 
L 89.68 41.4224 
L 90.142857 40.979012 
L 90.605714 40.523135 
L 91.068571 40.054767 
L 91.531429 39.57391 
L 91.994286 39.080563 
L 92.457143 38.574727 
L 92.92 38.0564 
L 93.382857 37.525584 
L 93.845714 36.982278 
L 94.308571 36.426482 
L 94.771429 35.858196 
L 95.234286 35.27742 
L 95.697143 34.684155 
L 96.16 34.0784 
" style="fill:none;stroke:#000000;stroke-linecap:round;stroke-width:1.5;"/>
   </g>
   <g id="line2d_4">
    <path clip-path="url(#p0add8d9942)" d="M 57.28 19.0844 
L 73.48 19.0844 
L 73.942857 19.090645 
L 74.405714 19.10938 
L 74.868571 19.140604 
L 75.331429 19.184318 
L 75.794286 19.240522 
L 76.257143 19.309216 
L 76.72 19.3904 
L 77.182857 19.484073 
L 77.645714 19.590237 
L 78.108571 19.70889 
L 78.571429 19.840033 
L 79.034286 19.983665 
L 79.497143 20.139788 
L 79.96 20.3084 
L 80.422857 20.489502 
L 80.885714 20.683094 
L 81.348571 20.889176 
L 81.811429 21.107747 
L 82.274286 21.338808 
L 82.737143 21.582359 
L 83.2 21.8384 
L 83.662857 22.106931 
L 84.125714 22.387951 
L 84.588571 22.681461 
L 85.051429 22.987461 
L 85.514286 23.305951 
L 85.977143 23.636931 
L 86.44 23.9804 
L 86.902857 24.336359 
L 87.365714 24.704808 
L 87.828571 25.085747 
L 88.291429 25.479176 
L 88.754286 25.885094 
L 89.217143 26.303502 
L 89.68 26.7344 
L 90.142857 27.177788 
L 90.605714 27.633665 
L 91.068571 28.102033 
L 91.531429 28.58289 
L 91.994286 29.076237 
L 92.457143 29.582073 
L 92.92 30.1004 
L 93.382857 30.631216 
L 93.845714 31.174522 
L 94.308571 31.730318 
L 94.771429 32.298604 
L 95.234286 32.87938 
L 95.697143 33.472645 
L 96.16 34.0784 
" style="fill:none;stroke:#000000;stroke-linecap:round;stroke-width:1.5;"/>
   </g>
   <g id="line2d_5">
    <path clip-path="url(#p0add8d9942)" d="M 57.28 49.0724 
L 57.90208 48.4604 
L 58.49824 47.8484 
L 59.06848 47.2364 
L 59.6128 46.6244 
L 60.1312 46.0124 
L 60.62368 45.4004 
L 61.09024 44.7884 
L 61.53088 44.1764 
L 61.9456 43.5644 
L 62.3344 42.9524 
L 62.69728 42.3404 
L 63.03424 41.7284 
L 63.34528 41.1164 
L 63.6304 40.5044 
L 63.8896 39.8924 
L 64.12288 39.2804 
L 64.33024 38.6684 
L 64.51168 38.0564 
L 64.6672 37.4444 
L 64.7968 36.8324 
L 64.90048 36.2204 
L 64.97824 35.6084 
L 65.03008 34.9964 
L 65.056 34.3844 
L 65.056 33.7724 
L 65.03008 33.1604 
L 64.97824 32.5484 
L 64.90048 31.9364 
L 64.7968 31.3244 
L 64.6672 30.7124 
L 64.51168 30.1004 
L 64.33024 29.4884 
L 64.12288 28.8764 
L 63.8896 28.2644 
L 63.6304 27.6524 
L 63.34528 27.0404 
L 63.03424 26.4284 
L 62.69728 25.8164 
L 62.3344 25.2044 
L 61.9456 24.5924 
L 61.53088 23.9804 
L 61.09024 23.3684 
L 60.62368 22.7564 
L 60.1312 22.1444 
L 59.6128 21.5324 
L 59.06848 20.9204 
L 58.49824 20.3084 
L 57.90208 19.6964 
L 57.28 19.0844 
" style="fill:none;stroke:#000000;stroke-linecap:round;stroke-width:1.5;"/>
   </g>
   <g id="line2d_6">
    <path clip-path="url(#p0add8d9942)" d="M 45.94 41.7284 
L 63.03424 41.7284 
" style="fill:none;stroke:#000000;stroke-linecap:round;stroke-width:1.5;"/>
   </g>
   <g id="line2d_7">
    <path clip-path="url(#p0add8d9942)" d="M 45.94 26.4284 
L 63.03424 26.4284 
" style="fill:none;stroke:#000000;stroke-linecap:round;stroke-width:1.5;"/>
   </g>
   <g id="line2d_8">
    <path clip-path="url(#p0add8d9942)" d="M 107.5 34.0784 
L 119.65 34.0784 
L 131.8 34.0784 
" style="fill:none;stroke:#000000;stroke-linecap:round;stroke-width:1.5;"/>
   </g>
   <g id="line2d_9">
    <path clip-path="url(#p0add8d9942)" d="M 131.8 34.0784 
" style="fill:none;stroke:#000000;stroke-linecap:round;stroke-width:1.5;"/>
   </g>
   <g id="line2d_10">
    <path clip-path="url(#p0add8d9942)" d="M 131.8 34.0784 
L 143.95 34.0784 
L 156.1 34.0784 
" style="fill:none;stroke:#000000;stroke-linecap:round;stroke-width:1.5;"/>
   </g>
   <g id="line2d_11">
    <path clip-path="url(#p0add8d9942)" d="M 45.94 110.5784 
M 103.936 110.5784 
L 107.5 110.5784 
" style="fill:none;stroke:#000000;stroke-linecap:round;stroke-width:1.5;"/>
   </g>
   <g id="line2d_12">
    <path clip-path="url(#p0add8d9942)" d="M 57.28 125.5724 
L 73.48 125.5724 
L 73.942857 125.566155 
L 74.405714 125.54742 
L 74.868571 125.516196 
L 75.331429 125.472482 
L 75.794286 125.416278 
L 76.257143 125.347584 
L 76.72 125.2664 
L 77.182857 125.172727 
L 77.645714 125.066563 
L 78.108571 124.94791 
L 78.571429 124.816767 
L 79.034286 124.673135 
L 79.497143 124.517012 
L 79.96 124.3484 
L 80.422857 124.167298 
L 80.885714 123.973706 
L 81.348571 123.767624 
L 81.811429 123.549053 
L 82.274286 123.317992 
L 82.737143 123.074441 
L 83.2 122.8184 
L 83.662857 122.549869 
L 84.125714 122.268849 
L 84.588571 121.975339 
L 85.051429 121.669339 
L 85.514286 121.350849 
L 85.977143 121.019869 
L 86.44 120.6764 
L 86.902857 120.320441 
L 87.365714 119.951992 
L 87.828571 119.571053 
L 88.291429 119.177624 
L 88.754286 118.771706 
L 89.217143 118.353298 
L 89.68 117.9224 
L 90.142857 117.479012 
L 90.605714 117.023135 
L 91.068571 116.554767 
L 91.531429 116.07391 
L 91.994286 115.580563 
L 92.457143 115.074727 
L 92.92 114.5564 
L 93.382857 114.025584 
L 93.845714 113.482278 
L 94.308571 112.926482 
L 94.771429 112.358196 
L 95.234286 111.77742 
L 95.697143 111.184155 
L 96.16 110.5784 
" style="fill:none;stroke:#000000;stroke-linecap:round;stroke-width:1.5;"/>
   </g>
   <g id="line2d_13">
    <path clip-path="url(#p0add8d9942)" d="M 57.28 95.5844 
L 73.48 95.5844 
L 73.942857 95.590645 
L 74.405714 95.60938 
L 74.868571 95.640604 
L 75.331429 95.684318 
L 75.794286 95.740522 
L 76.257143 95.809216 
L 76.72 95.8904 
L 77.182857 95.984073 
L 77.645714 96.090237 
L 78.108571 96.20889 
L 78.571429 96.340033 
L 79.034286 96.483665 
L 79.497143 96.639788 
L 79.96 96.8084 
L 80.422857 96.989502 
L 80.885714 97.183094 
L 81.348571 97.389176 
L 81.811429 97.607747 
L 82.274286 97.838808 
L 82.737143 98.082359 
L 83.2 98.3384 
L 83.662857 98.606931 
L 84.125714 98.887951 
L 84.588571 99.181461 
L 85.051429 99.487461 
L 85.514286 99.805951 
L 85.977143 100.136931 
L 86.44 100.4804 
L 86.902857 100.836359 
L 87.365714 101.204808 
L 87.828571 101.585747 
L 88.291429 101.979176 
L 88.754286 102.385094 
L 89.217143 102.803502 
L 89.68 103.2344 
L 90.142857 103.677788 
L 90.605714 104.133665 
L 91.068571 104.602033 
L 91.531429 105.08289 
L 91.994286 105.576237 
L 92.457143 106.082073 
L 92.92 106.6004 
L 93.382857 107.131216 
L 93.845714 107.674522 
L 94.308571 108.230318 
L 94.771429 108.798604 
L 95.234286 109.37938 
L 95.697143 109.972645 
L 96.16 110.5784 
" style="fill:none;stroke:#000000;stroke-linecap:round;stroke-width:1.5;"/>
   </g>
   <g id="line2d_14">
    <path clip-path="url(#p0add8d9942)" d="M 57.28 125.5724 
L 57.90208 124.9604 
L 58.49824 124.3484 
L 59.06848 123.7364 
L 59.6128 123.1244 
L 60.1312 122.5124 
L 60.62368 121.9004 
L 61.09024 121.2884 
L 61.53088 120.6764 
L 61.9456 120.0644 
L 62.3344 119.4524 
L 62.69728 118.8404 
L 63.03424 118.2284 
L 63.34528 117.6164 
L 63.6304 117.0044 
L 63.8896 116.3924 
L 64.12288 115.7804 
L 64.33024 115.1684 
L 64.51168 114.5564 
L 64.6672 113.9444 
L 64.7968 113.3324 
L 64.90048 112.7204 
L 64.97824 112.1084 
L 65.03008 111.4964 
L 65.056 110.8844 
L 65.056 110.2724 
L 65.03008 109.6604 
L 64.97824 109.0484 
L 64.90048 108.4364 
L 64.7968 107.8244 
L 64.6672 107.2124 
L 64.51168 106.6004 
L 64.33024 105.9884 
L 64.12288 105.3764 
L 63.8896 104.7644 
L 63.6304 104.1524 
L 63.34528 103.5404 
L 63.03424 102.9284 
L 62.69728 102.3164 
L 62.3344 101.7044 
L 61.9456 101.0924 
L 61.53088 100.4804 
L 61.09024 99.8684 
L 60.62368 99.2564 
L 60.1312 98.6444 
L 59.6128 98.0324 
L 59.06848 97.4204 
L 58.49824 96.8084 
L 57.90208 96.1964 
L 57.28 95.5844 
" style="fill:none;stroke:#000000;stroke-linecap:round;stroke-width:1.5;"/>
   </g>
   <g id="line2d_15">
    <path clip-path="url(#p0add8d9942)" d="M 45.94 118.2284 
L 63.03424 118.2284 
" style="fill:none;stroke:#000000;stroke-linecap:round;stroke-width:1.5;"/>
   </g>
   <g id="line2d_16">
    <path clip-path="url(#p0add8d9942)" d="M 45.94 102.9284 
L 63.03424 102.9284 
" style="fill:none;stroke:#000000;stroke-linecap:round;stroke-width:1.5;"/>
   </g>
   <g id="line2d_17">
    <path clip-path="url(#p0add8d9942)" d="M 107.5 110.5784 
L 119.65 110.5784 
L 131.8 110.5784 
" style="fill:none;stroke:#000000;stroke-linecap:round;stroke-width:1.5;"/>
   </g>
   <g id="line2d_18">
    <path clip-path="url(#p0add8d9942)" d="M 131.8 110.5784 
" style="fill:none;stroke:#000000;stroke-linecap:round;stroke-width:1.5;"/>
   </g>
   <g id="line2d_19">
    <path clip-path="url(#p0add8d9942)" d="M 131.8 110.5784 
L 143.95 110.5784 
L 156.1 110.5784 
" style="fill:none;stroke:#000000;stroke-linecap:round;stroke-width:1.5;"/>
   </g>
   <g id="line2d_20">
    <path clip-path="url(#p0add8d9942)" d="M 45.94 102.9284 
L 45.94 95.2784 
L 45.94 87.6284 
" style="fill:none;stroke:#000000;stroke-linecap:round;stroke-width:1.5;"/>
   </g>
   <g id="line2d_21">
    <path clip-path="url(#p0add8d9942)" d="M 131.8 34.0784 
L 131.8 41.7284 
L 131.8 49.3784 
" style="fill:none;stroke:#000000;stroke-linecap:round;stroke-width:1.5;"/>
   </g>
   <g id="line2d_22">
    <path clip-path="url(#p0add8d9942)" d="M 131.8 49.3784 
L 88.87 68.5034 
L 45.94 87.6284 
" style="fill:none;stroke:#000000;stroke-linecap:round;stroke-width:1.5;"/>
   </g>
   <g id="line2d_23">
    <path clip-path="url(#p0add8d9942)" d="M 45.94 41.7284 
L 45.94 49.3784 
L 45.94 57.0284 
" style="fill:none;stroke:#000000;stroke-linecap:round;stroke-width:1.5;"/>
   </g>
   <g id="line2d_24">
    <path clip-path="url(#p0add8d9942)" d="M 131.8 110.5784 
L 131.8 102.9284 
L 131.8 95.2784 
" style="fill:none;stroke:#000000;stroke-linecap:round;stroke-width:1.5;"/>
   </g>
   <g id="line2d_25">
    <path clip-path="url(#p0add8d9942)" d="M 131.8 95.2784 
L 88.87 76.1534 
L 45.94 57.0284 
" style="fill:none;stroke:#000000;stroke-linecap:round;stroke-width:1.5;"/>
   </g>
   <g id="line2d_26">
    <path clip-path="url(#p0add8d9942)" d="M 45.94 118.2284 
L 33.79 118.2284 
L 21.64 118.2284 
" style="fill:none;stroke:#000000;stroke-linecap:round;stroke-width:1.5;"/>
   </g>
   <g id="patch_2">
    <path clip-path="url(#p0add8d9942)" d="M 100.048 37.7504 
C 101.07911 37.7504 102.068127 37.363495 102.797231 36.674896 
C 103.526336 35.986297 103.936 35.052226 103.936 34.0784 
C 103.936 33.104574 103.526336 32.170503 102.797231 31.481904 
C 102.068127 30.793305 101.07911 30.4064 100.048 30.4064 
C 99.01689 30.4064 98.027873 30.793305 97.298769 31.481904 
C 96.569664 32.170503 96.16 33.104574 96.16 34.0784 
C 96.16 35.052226 96.569664 35.986297 97.298769 36.674896 
C 98.027873 37.363495 99.01689 37.7504 100.048 37.7504 
z
" style="fill:none;stroke:#000000;stroke-linejoin:miter;stroke-width:1.5;"/>
   </g>
   <g id="patch_3">
    <path clip-path="url(#p0add8d9942)" d="M 131.8 36.3734 
C 132.444444 36.3734 133.062579 36.131584 133.518269 35.70121 
C 133.97396 35.270836 134.23 34.687041 134.23 34.0784 
C 134.23 33.469759 133.97396 32.885964 133.518269 32.45559 
C 133.062579 32.025216 132.444444 31.7834 131.8 31.7834 
C 131.155556 31.7834 130.537421 32.025216 130.081731 32.45559 
C 129.62604 32.885964 129.37 33.469759 129.37 34.0784 
C 129.37 34.687041 129.62604 35.270836 130.081731 35.70121 
C 130.537421 36.131584 131.155556 36.3734 131.8 36.3734 
z
" style="stroke:#000000;stroke-linejoin:miter;stroke-width:1.5;"/>
   </g>
   <g id="patch_4">
    <path clip-path="url(#p0add8d9942)" d="M 100.048 114.2504 
C 101.07911 114.2504 102.068127 113.863495 102.797231 113.174896 
C 103.526336 112.486297 103.936 111.552226 103.936 110.5784 
C 103.936 109.604574 103.526336 108.670503 102.797231 107.981904 
C 102.068127 107.293305 101.07911 106.9064 100.048 106.9064 
C 99.01689 106.9064 98.027873 107.293305 97.298769 107.981904 
C 96.569664 108.670503 96.16 109.604574 96.16 110.5784 
C 96.16 111.552226 96.569664 112.486297 97.298769 113.174896 
C 98.027873 113.863495 99.01689 114.2504 100.048 114.2504 
z
" style="fill:none;stroke:#000000;stroke-linejoin:miter;stroke-width:1.5;"/>
   </g>
   <g id="patch_5">
    <path clip-path="url(#p0add8d9942)" d="M 131.8 112.8734 
C 132.444444 112.8734 133.062579 112.631584 133.518269 112.20121 
C 133.97396 111.770836 134.23 111.187041 134.23 110.5784 
C 134.23 109.969759 133.97396 109.385964 133.518269 108.95559 
C 133.062579 108.525216 132.444444 108.2834 131.8 108.2834 
C 131.155556 108.2834 130.537421 108.525216 130.081731 108.95559 
C 129.62604 109.385964 129.37 109.969759 129.37 110.5784 
C 129.37 111.187041 129.62604 111.770836 130.081731 112.20121 
C 130.537421 112.631584 131.155556 112.8734 131.8 112.8734 
z
" style="stroke:#000000;stroke-linejoin:miter;stroke-width:1.5;"/>
   </g>
   <g id="text_1">
    <!-- $R$ -->
    <defs>
     <path d="M 44.390625 34.1875 
Q 47.5625 33.109375 50.5625 29.59375 
Q 53.5625 26.078125 56.59375 19.921875 
L 66.609375 0 
L 56 0 
L 46.6875 18.703125 
Q 43.0625 26.03125 39.671875 28.421875 
Q 36.28125 30.8125 30.421875 30.8125 
L 19.671875 30.8125 
L 19.671875 0 
L 9.8125 0 
L 9.8125 72.90625 
L 32.078125 72.90625 
Q 44.578125 72.90625 50.734375 67.671875 
Q 56.890625 62.453125 56.890625 51.90625 
Q 56.890625 45.015625 53.6875 40.46875 
Q 50.484375 35.9375 44.390625 34.1875 
z
M 19.671875 64.796875 
L 19.671875 38.921875 
L 32.078125 38.921875 
Q 39.203125 38.921875 42.84375 42.21875 
Q 46.484375 45.515625 46.484375 51.90625 
Q 46.484375 58.296875 42.84375 61.546875 
Q 39.203125 64.796875 32.078125 64.796875 
z
" id="DejaVuSans-52"/>
    </defs>
    <g transform="translate(7.2 30.8434)scale(0.16 -0.16)">
     <use transform="translate(0 0.09375)" xlink:href="#DejaVuSans-52"/>
    </g>
   </g>
   <g id="text_2">
    <!-- $Q$ -->
    <defs>
     <path d="M 39.40625 66.21875 
Q 28.65625 66.21875 22.328125 58.203125 
Q 16.015625 50.203125 16.015625 36.375 
Q 16.015625 22.609375 22.328125 14.59375 
Q 28.65625 6.59375 39.40625 6.59375 
Q 50.140625 6.59375 56.421875 14.59375 
Q 62.703125 22.609375 62.703125 36.375 
Q 62.703125 50.203125 56.421875 58.203125 
Q 50.140625 66.21875 39.40625 66.21875 
z
M 53.21875 1.3125 
L 66.21875 -12.890625 
L 54.296875 -12.890625 
L 43.5 -1.21875 
Q 41.890625 -1.3125 41.03125 -1.359375 
Q 40.1875 -1.421875 39.40625 -1.421875 
Q 24.03125 -1.421875 14.8125 8.859375 
Q 5.609375 19.140625 5.609375 36.375 
Q 5.609375 53.65625 14.8125 63.9375 
Q 24.03125 74.21875 39.40625 74.21875 
Q 54.734375 74.21875 63.90625 63.9375 
Q 73.09375 53.65625 73.09375 36.375 
Q 73.09375 23.6875 67.984375 14.640625 
Q 62.890625 5.609375 53.21875 1.3125 
z
" id="DejaVuSans-51"/>
    </defs>
    <g transform="translate(159.34 38.4934)scale(0.16 -0.16)">
     <use transform="translate(0 0.78125)" xlink:href="#DejaVuSans-51"/>
    </g>
   </g>
   <g id="text_3">
    <!-- $\overline{Q}$ -->
    <g transform="translate(159.34 116.2109)scale(0.16 -0.16)">
     <use transform="translate(0 0.53125)" xlink:href="#DejaVuSans-51"/>
     <path d="M 0 86.5 
L 0 92.75 
L 78.710938 92.75 
L 78.710938 86.5 
L 0 86.5 
z
"/>
    </g>
   </g>
   <g id="text_4">
    <!-- $S$ -->
    <defs>
     <path d="M 53.515625 70.515625 
L 53.515625 60.890625 
Q 47.90625 63.578125 42.921875 64.890625 
Q 37.9375 66.21875 33.296875 66.21875 
Q 25.25 66.21875 20.875 63.09375 
Q 16.5 59.96875 16.5 54.203125 
Q 16.5 49.359375 19.40625 46.890625 
Q 22.3125 44.4375 30.421875 42.921875 
L 36.375 41.703125 
Q 47.40625 39.59375 52.65625 34.296875 
Q 57.90625 29 57.90625 20.125 
Q 57.90625 9.515625 50.796875 4.046875 
Q 43.703125 -1.421875 29.984375 -1.421875 
Q 24.8125 -1.421875 18.96875 -0.25 
Q 13.140625 0.921875 6.890625 3.21875 
L 6.890625 13.375 
Q 12.890625 10.015625 18.65625 8.296875 
Q 24.421875 6.59375 29.984375 6.59375 
Q 38.421875 6.59375 43.015625 9.90625 
Q 47.609375 13.234375 47.609375 19.390625 
Q 47.609375 24.75 44.3125 27.78125 
Q 41.015625 30.8125 33.5 32.328125 
L 27.484375 33.5 
Q 16.453125 35.6875 11.515625 40.375 
Q 6.59375 45.0625 6.59375 53.421875 
Q 6.59375 63.09375 13.40625 68.65625 
Q 20.21875 74.21875 32.171875 74.21875 
Q 37.3125 74.21875 42.625 73.28125 
Q 47.953125 72.359375 53.515625 70.515625 
z
" id="DejaVuSans-53"/>
    </defs>
    <g transform="translate(8.16 122.6434)scale(0.16 -0.16)">
     <use transform="translate(0 0.78125)" xlink:href="#DejaVuSans-53"/>
    </g>
   </g>
  </g>
 </g>
 <defs>
  <clipPath id="p0add8d9942">
   <rect height="123.2568" width="154.386" x="11.677" y="10.7"/>
  </clipPath>
 </defs>
</svg>
