<?xml version="1.0" encoding="utf-8" standalone="no"?>
<!DOCTYPE svg PUBLIC "-//W3C//DTD SVG 1.1//EN"
  "http://www.w3.org/Graphics/SVG/1.1/DTD/svg11.dtd">
<!-- Created with matplotlib (http://matplotlib.org/) -->
<svg height="117pt" version="1.1" viewBox="0 0 179 117" width="179pt" xmlns="http://www.w3.org/2000/svg" xmlns:xlink="http://www.w3.org/1999/xlink">
 <defs>
  <style type="text/css">
*{stroke-linecap:butt;stroke-linejoin:round;}
  </style>
 </defs>
 <g id="figure_1">
  <g id="patch_1">
   <path d="
M-1.77636e-15 117.072
L179.18 117.072
L179.18 0
L-1.77636e-15 0
L-1.77636e-15 117.072" style="fill:none;"/>
  </g>
  <g id="axes_1">
   <g id="line2d_1">
    <path clip-path="url(#p79a69da83f)" d="
M21.64 16.686
L33.79 16.686
L45.94 16.686" style="fill:none;stroke:#000000;stroke-linecap:round;stroke-width:1.5;"/>
   </g>
   <g id="line2d_2">
    <path clip-path="url(#p79a69da83f)" d="
M45.94 23.661
M103.936 23.661
L107.5 23.661" style="fill:none;stroke:#000000;stroke-linecap:round;stroke-width:1.5;"/>
   </g>
   <g id="line2d_3">
    <path clip-path="url(#p79a69da83f)" d="
M57.28 37.332
L73.48 37.332
L73.9429 37.3263
L74.4057 37.3092
L74.8686 37.2808
L75.3314 37.2409
L75.7943 37.1897
L76.2571 37.127
L76.72 37.053
L77.1829 36.9676
L77.6457 36.8708
L78.1086 36.7626
L78.5714 36.643
L79.0343 36.5121
L79.4971 36.3697
L79.96 36.216
L80.4229 36.0509
L80.8857 35.8744
L81.3486 35.6865
L81.8114 35.4872
L82.2743 35.2765
L82.7371 35.0544
L83.2 34.821
L83.6629 34.5762
L84.1257 34.3199
L84.5886 34.0523
L85.0514 33.7733
L85.5143 33.4829
L85.9771 33.1812
L86.44 32.868
L86.9029 32.5434
L87.3657 32.2075
L87.8286 31.8602
L88.2914 31.5015
L88.7543 31.1314
L89.2171 30.7499
L89.68 30.357
L90.1429 29.9527
L90.6057 29.5371
L91.0686 29.11
L91.5314 28.6716
L91.9943 28.2218
L92.4571 27.7606
L92.92 27.288
L93.3829 26.804
L93.8457 26.3087
L94.3086 25.8019
L94.7714 25.2838
L95.2343 24.7542
L95.6971 24.2133
L96.16 23.661" style="fill:none;stroke:#000000;stroke-linecap:round;stroke-width:1.5;"/>
   </g>
   <g id="line2d_4">
    <path clip-path="url(#p79a69da83f)" d="
M57.28 9.99
L73.48 9.99
L73.9429 9.99569
L74.4057 10.0128
L74.8686 10.0412
L75.3314 10.0811
L75.7943 10.1323
L76.2571 10.195
L76.72 10.269
L77.1829 10.3544
L77.6457 10.4512
L78.1086 10.5594
L78.5714 10.679
L79.0343 10.8099
L79.4971 10.9523
L79.96 11.106
L80.4229 11.2711
L80.8857 11.4476
L81.3486 11.6355
L81.8114 11.8348
L82.2743 12.0455
L82.7371 12.2676
L83.2 12.501
L83.6629 12.7458
L84.1257 13.0021
L84.5886 13.2697
L85.0514 13.5487
L85.5143 13.8391
L85.9771 14.1408
L86.44 14.454
L86.9029 14.7786
L87.3657 15.1145
L87.8286 15.4618
L88.2914 15.8205
L88.7543 16.1906
L89.2171 16.5721
L89.68 16.965
L90.1429 17.3693
L90.6057 17.7849
L91.0686 18.212
L91.5314 18.6504
L91.9943 19.1002
L92.4571 19.5614
L92.92 20.034
L93.3829 20.518
L93.8457 21.0133
L94.3086 21.5201
L94.7714 22.0382
L95.2343 22.5678
L95.6971 23.1087
L96.16 23.661" style="fill:none;stroke:#000000;stroke-linecap:round;stroke-width:1.5;"/>
   </g>
   <g id="line2d_5">
    <path clip-path="url(#p79a69da83f)" d="
M57.28 37.332
L57.9021 36.774
L58.4982 36.216
L59.0685 35.658
L59.6128 35.1
L60.1312 34.542
L60.6237 33.984
L61.0902 33.426
L61.5309 32.868
L61.9456 32.31
L62.3344 31.752
L62.6973 31.194
L63.0342 30.636
L63.3453 30.078
L63.6304 29.52
L63.8896 28.962
L64.1229 28.404
L64.3302 27.846
L64.5117 27.288
L64.6672 26.73
L64.7968 26.172
L64.9005 25.614
L64.9782 25.056
L65.0301 24.498
L65.056 23.94
L65.056 23.382
L65.0301 22.824
L64.9782 22.266
L64.9005 21.708
L64.7968 21.15
L64.6672 20.592
L64.5117 20.034
L64.3302 19.476
L64.1229 18.918
L63.8896 18.36
L63.6304 17.802
L63.3453 17.244
L63.0342 16.686
L62.6973 16.128
L62.3344 15.57
L61.9456 15.012
L61.5309 14.454
L61.0902 13.896
L60.6237 13.338
L60.1312 12.78
L59.6128 12.222
L59.0685 11.664
L58.4982 11.106
L57.9021 10.548
L57.28 9.99" style="fill:none;stroke:#000000;stroke-linecap:round;stroke-width:1.5;"/>
   </g>
   <g id="line2d_6">
    <path clip-path="url(#p79a69da83f)" d="
M45.94 30.636
L63.0342 30.636" style="fill:none;stroke:#000000;stroke-linecap:round;stroke-width:1.5;"/>
   </g>
   <g id="line2d_7">
    <path clip-path="url(#p79a69da83f)" d="
M45.94 16.686
L63.0342 16.686" style="fill:none;stroke:#000000;stroke-linecap:round;stroke-width:1.5;"/>
   </g>
   <g id="line2d_8">
    <path clip-path="url(#p79a69da83f)" d="
M107.5 23.661
L119.65 23.661
L131.8 23.661" style="fill:none;stroke:#000000;stroke-linecap:round;stroke-width:1.5;"/>
   </g>
   <g id="line2d_9">
    <path clip-path="url(#p79a69da83f)" d="
M131.8 23.661" style="fill:none;stroke:#000000;stroke-linecap:round;stroke-width:1.5;"/>
   </g>
   <g id="line2d_10">
    <path clip-path="url(#p79a69da83f)" d="
M131.8 23.661
L143.95 23.661
L156.1 23.661" style="fill:none;stroke:#000000;stroke-linecap:round;stroke-width:1.5;"/>
   </g>
   <g id="line2d_11">
    <path clip-path="url(#p79a69da83f)" d="
M45.94 93.411
M103.936 93.411
L107.5 93.411" style="fill:none;stroke:#000000;stroke-linecap:round;stroke-width:1.5;"/>
   </g>
   <g id="line2d_12">
    <path clip-path="url(#p79a69da83f)" d="
M57.28 107.082
L73.48 107.082
L73.9429 107.076
L74.4057 107.059
L74.8686 107.031
L75.3314 106.991
L75.7943 106.94
L76.2571 106.877
L76.72 106.803
L77.1829 106.718
L77.6457 106.621
L78.1086 106.513
L78.5714 106.393
L79.0343 106.262
L79.4971 106.12
L79.96 105.966
L80.4229 105.801
L80.8857 105.624
L81.3486 105.436
L81.8114 105.237
L82.2743 105.027
L82.7371 104.804
L83.2 104.571
L83.6629 104.326
L84.1257 104.07
L84.5886 103.802
L85.0514 103.523
L85.5143 103.233
L85.9771 102.931
L86.44 102.618
L86.9029 102.293
L87.3657 101.958
L87.8286 101.61
L88.2914 101.251
L88.7543 100.881
L89.2171 100.5
L89.68 100.107
L90.1429 99.7027
L90.6057 99.2871
L91.0686 98.86
L91.5314 98.4216
L91.9943 97.9718
L92.4571 97.5106
L92.92 97.038
L93.3829 96.554
L93.8457 96.0587
L94.3086 95.5519
L94.7714 95.0338
L95.2343 94.5042
L95.6971 93.9633
L96.16 93.411" style="fill:none;stroke:#000000;stroke-linecap:round;stroke-width:1.5;"/>
   </g>
   <g id="line2d_13">
    <path clip-path="url(#p79a69da83f)" d="
M57.28 79.74
L73.48 79.74
L73.9429 79.7457
L74.4057 79.7628
L74.8686 79.7912
L75.3314 79.8311
L75.7943 79.8823
L76.2571 79.945
L76.72 80.019
L77.1829 80.1044
L77.6457 80.2012
L78.1086 80.3094
L78.5714 80.429
L79.0343 80.5599
L79.4971 80.7023
L79.96 80.856
L80.4229 81.0211
L80.8857 81.1976
L81.3486 81.3855
L81.8114 81.5848
L82.2743 81.7955
L82.7371 82.0176
L83.2 82.251
L83.6629 82.4958
L84.1257 82.7521
L84.5886 83.0197
L85.0514 83.2987
L85.5143 83.5891
L85.9771 83.8908
L86.44 84.204
L86.9029 84.5286
L87.3657 84.8645
L87.8286 85.2118
L88.2914 85.5705
L88.7543 85.9406
L89.2171 86.3221
L89.68 86.715
L90.1429 87.1193
L90.6057 87.5349
L91.0686 87.962
L91.5314 88.4004
L91.9943 88.8502
L92.4571 89.3114
L92.92 89.784
L93.3829 90.268
L93.8457 90.7633
L94.3086 91.2701
L94.7714 91.7882
L95.2343 92.3178
L95.6971 92.8587
L96.16 93.411" style="fill:none;stroke:#000000;stroke-linecap:round;stroke-width:1.5;"/>
   </g>
   <g id="line2d_14">
    <path clip-path="url(#p79a69da83f)" d="
M57.28 107.082
L57.9021 106.524
L58.4982 105.966
L59.0685 105.408
L59.6128 104.85
L60.1312 104.292
L60.6237 103.734
L61.0902 103.176
L61.5309 102.618
L61.9456 102.06
L62.3344 101.502
L62.6973 100.944
L63.0342 100.386
L63.3453 99.828
L63.6304 99.27
L63.8896 98.712
L64.1229 98.154
L64.3302 97.596
L64.5117 97.038
L64.6672 96.48
L64.7968 95.922
L64.9005 95.364
L64.9782 94.806
L65.0301 94.248
L65.056 93.69
L65.056 93.132
L65.0301 92.574
L64.9782 92.016
L64.9005 91.458
L64.7968 90.9
L64.6672 90.342
L64.5117 89.784
L64.3302 89.226
L64.1229 88.668
L63.8896 88.11
L63.6304 87.552
L63.3453 86.994
L63.0342 86.436
L62.6973 85.878
L62.3344 85.32
L61.9456 84.762
L61.5309 84.204
L61.0902 83.646
L60.6237 83.088
L60.1312 82.53
L59.6128 81.972
L59.0685 81.414
L58.4982 80.856
L57.9021 80.298
L57.28 79.74" style="fill:none;stroke:#000000;stroke-linecap:round;stroke-width:1.5;"/>
   </g>
   <g id="line2d_15">
    <path clip-path="url(#p79a69da83f)" d="
M45.94 100.386
L63.0342 100.386" style="fill:none;stroke:#000000;stroke-linecap:round;stroke-width:1.5;"/>
   </g>
   <g id="line2d_16">
    <path clip-path="url(#p79a69da83f)" d="
M45.94 86.436
L63.0342 86.436" style="fill:none;stroke:#000000;stroke-linecap:round;stroke-width:1.5;"/>
   </g>
   <g id="line2d_17">
    <path clip-path="url(#p79a69da83f)" d="
M107.5 93.411
L119.65 93.411
L131.8 93.411" style="fill:none;stroke:#000000;stroke-linecap:round;stroke-width:1.5;"/>
   </g>
   <g id="line2d_18">
    <path clip-path="url(#p79a69da83f)" d="
M131.8 93.411" style="fill:none;stroke:#000000;stroke-linecap:round;stroke-width:1.5;"/>
   </g>
   <g id="line2d_19">
    <path clip-path="url(#p79a69da83f)" d="
M131.8 93.411
L143.95 93.411
L156.1 93.411" style="fill:none;stroke:#000000;stroke-linecap:round;stroke-width:1.5;"/>
   </g>
   <g id="line2d_20">
    <path clip-path="url(#p79a69da83f)" d="
M45.94 86.436
L45.94 79.461
L45.94 72.486" style="fill:none;stroke:#000000;stroke-linecap:round;stroke-width:1.5;"/>
   </g>
   <g id="line2d_21">
    <path clip-path="url(#p79a69da83f)" d="
M131.8 23.661
L131.8 30.636
L131.8 37.611" style="fill:none;stroke:#000000;stroke-linecap:round;stroke-width:1.5;"/>
   </g>
   <g id="line2d_22">
    <path clip-path="url(#p79a69da83f)" d="
M131.8 37.611
L88.87 55.0485
L45.94 72.486" style="fill:none;stroke:#000000;stroke-linecap:round;stroke-width:1.5;"/>
   </g>
   <g id="line2d_23">
    <path clip-path="url(#p79a69da83f)" d="
M45.94 30.636
L45.94 37.611
L45.94 44.586" style="fill:none;stroke:#000000;stroke-linecap:round;stroke-width:1.5;"/>
   </g>
   <g id="line2d_24">
    <path clip-path="url(#p79a69da83f)" d="
M131.8 93.411
L131.8 86.436
L131.8 79.461" style="fill:none;stroke:#000000;stroke-linecap:round;stroke-width:1.5;"/>
   </g>
   <g id="line2d_25">
    <path clip-path="url(#p79a69da83f)" d="
M131.8 79.461
L88.87 62.0235
L45.94 44.586" style="fill:none;stroke:#000000;stroke-linecap:round;stroke-width:1.5;"/>
   </g>
   <g id="line2d_26">
    <path clip-path="url(#p79a69da83f)" d="
M45.94 100.386
L33.79 100.386
L21.64 100.386" style="fill:none;stroke:#000000;stroke-linecap:round;stroke-width:1.5;"/>
   </g>
   <g id="patch_2">
    <path clip-path="url(#p79a69da83f)" d="
M100.048 27.009
C101.079 27.009 102.068 26.6562 102.797 26.0284
C103.526 25.4006 103.936 24.5489 103.936 23.661
C103.936 22.7731 103.526 21.9214 102.797 21.2936
C102.068 20.6658 101.079 20.313 100.048 20.313
C99.0169 20.313 98.0279 20.6658 97.2988 21.2936
C96.5697 21.9214 96.16 22.7731 96.16 23.661
C96.16 24.5489 96.5697 25.4006 97.2988 26.0284
C98.0279 26.6562 99.0169 27.009 100.048 27.009
L100.048 27.009" style="fill:none;stroke:#000000;stroke-linejoin:miter;stroke-width:1.5;"/>
   </g>
   <g id="patch_3">
    <path clip-path="url(#p79a69da83f)" d="
M131.8 25.7535
C132.444 25.7535 133.063 25.533 133.518 25.1406
C133.974 24.7482 134.23 24.2159 134.23 23.661
C134.23 23.1061 133.974 22.5738 133.518 22.1814
C133.063 21.789 132.444 21.5685 131.8 21.5685
C131.156 21.5685 130.537 21.789 130.082 22.1814
C129.626 22.5738 129.37 23.1061 129.37 23.661
C129.37 24.2159 129.626 24.7482 130.082 25.1406
C130.537 25.533 131.156 25.7535 131.8 25.7535
z
" style="stroke:#000000;stroke-linejoin:miter;stroke-width:1.5;"/>
   </g>
   <g id="patch_4">
    <path clip-path="url(#p79a69da83f)" d="
M100.048 96.759
C101.079 96.759 102.068 96.4062 102.797 95.7784
C103.526 95.1506 103.936 94.2989 103.936 93.411
C103.936 92.5231 103.526 91.6714 102.797 91.0436
C102.068 90.4158 101.079 90.063 100.048 90.063
C99.0169 90.063 98.0279 90.4158 97.2988 91.0436
C96.5697 91.6714 96.16 92.5231 96.16 93.411
C96.16 94.2989 96.5697 95.1506 97.2988 95.7784
C98.0279 96.4062 99.0169 96.759 100.048 96.759
L100.048 96.759" style="fill:none;stroke:#000000;stroke-linejoin:miter;stroke-width:1.5;"/>
   </g>
   <g id="patch_5">
    <path clip-path="url(#p79a69da83f)" d="
M131.8 95.5035
C132.444 95.5035 133.063 95.283 133.518 94.8906
C133.974 94.4982 134.23 93.9659 134.23 93.411
C134.23 92.8561 133.974 92.3238 133.518 91.9314
C133.063 91.539 132.444 91.3185 131.8 91.3185
C131.156 91.3185 130.537 91.539 130.082 91.9314
C129.626 92.3238 129.37 92.8561 129.37 93.411
C129.37 93.9659 129.626 94.4982 130.082 94.8906
C130.537 95.283 131.156 95.5035 131.8 95.5035
z
" style="stroke:#000000;stroke-linejoin:miter;stroke-width:1.5;"/>
   </g>
   <g id="text_1">
    <!-- $R$ -->
    <defs>
     <path d="
M44.3906 34.1875
Q47.5625 33.1094 50.5625 29.5938
Q53.5625 26.0781 56.5938 19.9219
L66.6094 0
L56 0
L46.6875 18.7031
Q43.0625 26.0312 39.6719 28.4219
Q36.2812 30.8125 30.4219 30.8125
L19.6719 30.8125
L19.6719 0
L9.8125 0
L9.8125 72.9062
L32.0781 72.9062
Q44.5781 72.9062 50.7344 67.6719
Q56.8906 62.4531 56.8906 51.9062
Q56.8906 45.0156 53.6875 40.4688
Q50.4844 35.9375 44.3906 34.1875
M19.6719 64.7969
L19.6719 38.9219
L32.0781 38.9219
Q39.2031 38.9219 42.8438 42.2188
Q46.4844 45.5156 46.4844 51.9062
Q46.4844 58.2969 42.8438 61.5469
Q39.2031 64.7969 32.0781 64.7969
z
" id="BitstreamVeraSans-Roman-52"/>
    </defs>
    <g transform="translate(7.2 21.101)scale(0.16 -0.16)">
     <use transform="translate(0.0 0.09375)" xlink:href="#BitstreamVeraSans-Roman-52"/>
    </g>
   </g>
   <g id="text_2">
    <!-- $Q$ -->
    <defs>
     <path d="
M39.4062 66.2188
Q28.6562 66.2188 22.3281 58.2031
Q16.0156 50.2031 16.0156 36.375
Q16.0156 22.6094 22.3281 14.5938
Q28.6562 6.59375 39.4062 6.59375
Q50.1406 6.59375 56.4219 14.5938
Q62.7031 22.6094 62.7031 36.375
Q62.7031 50.2031 56.4219 58.2031
Q50.1406 66.2188 39.4062 66.2188
M53.2188 1.3125
L66.2188 -12.8906
L54.2969 -12.8906
L43.5 -1.21875
Q41.8906 -1.3125 41.0312 -1.35938
Q40.1875 -1.42188 39.4062 -1.42188
Q24.0312 -1.42188 14.8125 8.85938
Q5.60938 19.1406 5.60938 36.375
Q5.60938 53.6562 14.8125 63.9375
Q24.0312 74.2188 39.4062 74.2188
Q54.7344 74.2188 63.9062 63.9375
Q73.0938 53.6562 73.0938 36.375
Q73.0938 23.6875 67.9844 14.6406
Q62.8906 5.60938 53.2188 1.3125" id="BitstreamVeraSans-Roman-51"/>
    </defs>
    <g transform="translate(159.34 28.076)scale(0.16 -0.16)">
     <use transform="translate(0.0 0.78125)" xlink:href="#BitstreamVeraSans-Roman-51"/>
    </g>
   </g>
   <g id="text_3">
    <!-- $\overline{Q}$ -->
    <g transform="translate(159.34 99.0435)scale(0.16 -0.16)">
     <use transform="translate(0.0 0.53125)" xlink:href="#BitstreamVeraSans-Roman-51"/>
     <path d="
M0 86.5
L0 92.75
L78.7109 92.75
L78.7109 86.5
L0 86.5
z
"/>
    </g>
   </g>
   <g id="text_4">
    <!-- $S$ -->
    <defs>
     <path d="
M53.5156 70.5156
L53.5156 60.8906
Q47.9062 63.5781 42.9219 64.8906
Q37.9375 66.2188 33.2969 66.2188
Q25.25 66.2188 20.875 63.0938
Q16.5 59.9688 16.5 54.2031
Q16.5 49.3594 19.4062 46.8906
Q22.3125 44.4375 30.4219 42.9219
L36.375 41.7031
Q47.4062 39.5938 52.6562 34.2969
Q57.9062 29 57.9062 20.125
Q57.9062 9.51562 50.7969 4.04688
Q43.7031 -1.42188 29.9844 -1.42188
Q24.8125 -1.42188 18.9688 -0.25
Q13.1406 0.921875 6.89062 3.21875
L6.89062 13.375
Q12.8906 10.0156 18.6562 8.29688
Q24.4219 6.59375 29.9844 6.59375
Q38.4219 6.59375 43.0156 9.90625
Q47.6094 13.2344 47.6094 19.3906
Q47.6094 24.75 44.3125 27.7812
Q41.0156 30.8125 33.5 32.3281
L27.4844 33.5
Q16.4531 35.6875 11.5156 40.375
Q6.59375 45.0625 6.59375 53.4219
Q6.59375 63.0938 13.4062 68.6562
Q20.2188 74.2188 32.1719 74.2188
Q37.3125 74.2188 42.625 73.2812
Q47.9531 72.3594 53.5156 70.5156" id="BitstreamVeraSans-Roman-53"/>
    </defs>
    <g transform="translate(8.16 104.801)scale(0.16 -0.16)">
     <use transform="translate(0.0 0.78125)" xlink:href="#BitstreamVeraSans-Roman-53"/>
    </g>
   </g>
  </g>
 </g>
 <defs>
  <clipPath id="p79a69da83f">
   <rect height="102.672" width="140.94" x="18.4" y="7.2"/>
  </clipPath>
 </defs>
</svg>
