<?xml version="1.0" encoding="utf-8" standalone="no"?>
<!DOCTYPE svg PUBLIC "-//W3C//DTD SVG 1.1//EN"
  "http://www.w3.org/Graphics/SVG/1.1/DTD/svg11.dtd">
<!-- Created with matplotlib (http://matplotlib.org/) -->
<svg height="127pt" version="1.1" viewBox="0 0 179 127" width="179pt" xmlns="http://www.w3.org/2000/svg" xmlns:xlink="http://www.w3.org/1999/xlink">
 <defs>
  <style type="text/css">
*{stroke-linecap:butt;stroke-linejoin:round;}
  </style>
 </defs>
 <g id="figure_1">
  <g id="patch_1">
   <path d="
M-1.77636e-15 127.008
L179.18 127.008
L179.18 0
L-1.77636e-15 0
L-1.77636e-15 127.008" style="fill:none;"/>
  </g>
  <g id="axes_1">
   <g id="line2d_1">
    <path clip-path="url(#ped7c9059b9)" d="
M21.64 17.604
L33.79 17.604
L45.94 17.604" style="fill:none;stroke:#000000;stroke-linecap:round;stroke-width:1.5;"/>
   </g>
   <g id="line2d_2">
    <path clip-path="url(#ped7c9059b9)" d="
M45.94 25.254
M103.936 25.254
L107.5 25.254" style="fill:none;stroke:#000000;stroke-linecap:round;stroke-width:1.5;"/>
   </g>
   <g id="line2d_3">
    <path clip-path="url(#ped7c9059b9)" d="
M57.28 40.248
L73.48 40.248
L73.9429 40.2418
L74.4057 40.223
L74.8686 40.1918
L75.3314 40.1481
L75.7943 40.0919
L76.2571 40.0232
L76.72 39.942
L77.1829 39.8483
L77.6457 39.7422
L78.1086 39.6235
L78.5714 39.4924
L79.0343 39.3487
L79.4971 39.1926
L79.96 39.024
L80.4229 38.8429
L80.8857 38.6493
L81.3486 38.4432
L81.8114 38.2247
L82.2743 37.9936
L82.7371 37.75
L83.2 37.494
L83.6629 37.2255
L84.1257 36.9444
L84.5886 36.6509
L85.0514 36.3449
L85.5143 36.0264
L85.9771 35.6955
L86.44 35.352
L86.9029 34.996
L87.3657 34.6276
L87.8286 34.2467
L88.2914 33.8532
L88.7543 33.4473
L89.2171 33.0289
L89.68 32.598
L90.1429 32.1546
L90.6057 31.6987
L91.0686 31.2304
L91.5314 30.7495
L91.9943 30.2562
L92.4571 29.7503
L92.92 29.232
L93.3829 28.7012
L93.8457 28.1579
L94.3086 27.6021
L94.7714 27.0338
L95.2343 26.453
L95.6971 25.8598
L96.16 25.254" style="fill:none;stroke:#000000;stroke-linecap:round;stroke-width:1.5;"/>
   </g>
   <g id="line2d_4">
    <path clip-path="url(#ped7c9059b9)" d="
M57.28 10.26
L73.48 10.26
L73.9429 10.2662
L74.4057 10.285
L74.8686 10.3162
L75.3314 10.3599
L75.7943 10.4161
L76.2571 10.4848
L76.72 10.566
L77.1829 10.6597
L77.6457 10.7658
L78.1086 10.8845
L78.5714 11.0156
L79.0343 11.1593
L79.4971 11.3154
L79.96 11.484
L80.4229 11.6651
L80.8857 11.8587
L81.3486 12.0648
L81.8114 12.2833
L82.2743 12.5144
L82.7371 12.758
L83.2 13.014
L83.6629 13.2825
L84.1257 13.5636
L84.5886 13.8571
L85.0514 14.1631
L85.5143 14.4816
L85.9771 14.8125
L86.44 15.156
L86.9029 15.512
L87.3657 15.8804
L87.8286 16.2613
L88.2914 16.6548
L88.7543 17.0607
L89.2171 17.4791
L89.68 17.91
L90.1429 18.3534
L90.6057 18.8093
L91.0686 19.2776
L91.5314 19.7585
L91.9943 20.2518
L92.4571 20.7577
L92.92 21.276
L93.3829 21.8068
L93.8457 22.3501
L94.3086 22.9059
L94.7714 23.4742
L95.2343 24.055
L95.6971 24.6482
L96.16 25.254" style="fill:none;stroke:#000000;stroke-linecap:round;stroke-width:1.5;"/>
   </g>
   <g id="line2d_5">
    <path clip-path="url(#ped7c9059b9)" d="
M57.28 40.248
L57.9021 39.636
L58.4982 39.024
L59.0685 38.412
L59.6128 37.8
L60.1312 37.188
L60.6237 36.576
L61.0902 35.964
L61.5309 35.352
L61.9456 34.74
L62.3344 34.128
L62.6973 33.516
L63.0342 32.904
L63.3453 32.292
L63.6304 31.68
L63.8896 31.068
L64.1229 30.456
L64.3302 29.844
L64.5117 29.232
L64.6672 28.62
L64.7968 28.008
L64.9005 27.396
L64.9782 26.784
L65.0301 26.172
L65.056 25.56
L65.056 24.948
L65.0301 24.336
L64.9782 23.724
L64.9005 23.112
L64.7968 22.5
L64.6672 21.888
L64.5117 21.276
L64.3302 20.664
L64.1229 20.052
L63.8896 19.44
L63.6304 18.828
L63.3453 18.216
L63.0342 17.604
L62.6973 16.992
L62.3344 16.38
L61.9456 15.768
L61.5309 15.156
L61.0902 14.544
L60.6237 13.932
L60.1312 13.32
L59.6128 12.708
L59.0685 12.096
L58.4982 11.484
L57.9021 10.872
L57.28 10.26" style="fill:none;stroke:#000000;stroke-linecap:round;stroke-width:1.5;"/>
   </g>
   <g id="line2d_6">
    <path clip-path="url(#ped7c9059b9)" d="
M45.94 32.904
L63.0342 32.904" style="fill:none;stroke:#000000;stroke-linecap:round;stroke-width:1.5;"/>
   </g>
   <g id="line2d_7">
    <path clip-path="url(#ped7c9059b9)" d="
M45.94 17.604
L63.0342 17.604" style="fill:none;stroke:#000000;stroke-linecap:round;stroke-width:1.5;"/>
   </g>
   <g id="line2d_8">
    <path clip-path="url(#ped7c9059b9)" d="
M107.5 25.254
L119.65 25.254
L131.8 25.254" style="fill:none;stroke:#000000;stroke-linecap:round;stroke-width:1.5;"/>
   </g>
   <g id="line2d_9">
    <path clip-path="url(#ped7c9059b9)" d="
M131.8 25.254" style="fill:none;stroke:#000000;stroke-linecap:round;stroke-width:1.5;"/>
   </g>
   <g id="line2d_10">
    <path clip-path="url(#ped7c9059b9)" d="
M131.8 25.254
L143.95 25.254
L156.1 25.254" style="fill:none;stroke:#000000;stroke-linecap:round;stroke-width:1.5;"/>
   </g>
   <g id="line2d_11">
    <path clip-path="url(#ped7c9059b9)" d="
M45.94 101.754
M103.936 101.754
L107.5 101.754" style="fill:none;stroke:#000000;stroke-linecap:round;stroke-width:1.5;"/>
   </g>
   <g id="line2d_12">
    <path clip-path="url(#ped7c9059b9)" d="
M57.28 116.748
L73.48 116.748
L73.9429 116.742
L74.4057 116.723
L74.8686 116.692
L75.3314 116.648
L75.7943 116.592
L76.2571 116.523
L76.72 116.442
L77.1829 116.348
L77.6457 116.242
L78.1086 116.124
L78.5714 115.992
L79.0343 115.849
L79.4971 115.693
L79.96 115.524
L80.4229 115.343
L80.8857 115.149
L81.3486 114.943
L81.8114 114.725
L82.2743 114.494
L82.7371 114.25
L83.2 113.994
L83.6629 113.725
L84.1257 113.444
L84.5886 113.151
L85.0514 112.845
L85.5143 112.526
L85.9771 112.195
L86.44 111.852
L86.9029 111.496
L87.3657 111.128
L87.8286 110.747
L88.2914 110.353
L88.7543 109.947
L89.2171 109.529
L89.68 109.098
L90.1429 108.655
L90.6057 108.199
L91.0686 107.73
L91.5314 107.25
L91.9943 106.756
L92.4571 106.25
L92.92 105.732
L93.3829 105.201
L93.8457 104.658
L94.3086 104.102
L94.7714 103.534
L95.2343 102.953
L95.6971 102.36
L96.16 101.754" style="fill:none;stroke:#000000;stroke-linecap:round;stroke-width:1.5;"/>
   </g>
   <g id="line2d_13">
    <path clip-path="url(#ped7c9059b9)" d="
M57.28 86.76
L73.48 86.76
L73.9429 86.7662
L74.4057 86.785
L74.8686 86.8162
L75.3314 86.8599
L75.7943 86.9161
L76.2571 86.9848
L76.72 87.066
L77.1829 87.1597
L77.6457 87.2658
L78.1086 87.3845
L78.5714 87.5156
L79.0343 87.6593
L79.4971 87.8154
L79.96 87.984
L80.4229 88.1651
L80.8857 88.3587
L81.3486 88.5648
L81.8114 88.7833
L82.2743 89.0144
L82.7371 89.258
L83.2 89.514
L83.6629 89.7825
L84.1257 90.0636
L84.5886 90.3571
L85.0514 90.6631
L85.5143 90.9816
L85.9771 91.3125
L86.44 91.656
L86.9029 92.012
L87.3657 92.3804
L87.8286 92.7613
L88.2914 93.1548
L88.7543 93.5607
L89.2171 93.9791
L89.68 94.41
L90.1429 94.8534
L90.6057 95.3093
L91.0686 95.7776
L91.5314 96.2585
L91.9943 96.7518
L92.4571 97.2577
L92.92 97.776
L93.3829 98.3068
L93.8457 98.8501
L94.3086 99.4059
L94.7714 99.9742
L95.2343 100.555
L95.6971 101.148
L96.16 101.754" style="fill:none;stroke:#000000;stroke-linecap:round;stroke-width:1.5;"/>
   </g>
   <g id="line2d_14">
    <path clip-path="url(#ped7c9059b9)" d="
M57.28 116.748
L57.9021 116.136
L58.4982 115.524
L59.0685 114.912
L59.6128 114.3
L60.1312 113.688
L60.6237 113.076
L61.0902 112.464
L61.5309 111.852
L61.9456 111.24
L62.3344 110.628
L62.6973 110.016
L63.0342 109.404
L63.3453 108.792
L63.6304 108.18
L63.8896 107.568
L64.1229 106.956
L64.3302 106.344
L64.5117 105.732
L64.6672 105.12
L64.7968 104.508
L64.9005 103.896
L64.9782 103.284
L65.0301 102.672
L65.056 102.06
L65.056 101.448
L65.0301 100.836
L64.9782 100.224
L64.9005 99.612
L64.7968 99
L64.6672 98.388
L64.5117 97.776
L64.3302 97.164
L64.1229 96.552
L63.8896 95.94
L63.6304 95.328
L63.3453 94.716
L63.0342 94.104
L62.6973 93.492
L62.3344 92.88
L61.9456 92.268
L61.5309 91.656
L61.0902 91.044
L60.6237 90.432
L60.1312 89.82
L59.6128 89.208
L59.0685 88.596
L58.4982 87.984
L57.9021 87.372
L57.28 86.76" style="fill:none;stroke:#000000;stroke-linecap:round;stroke-width:1.5;"/>
   </g>
   <g id="line2d_15">
    <path clip-path="url(#ped7c9059b9)" d="
M45.94 109.404
L63.0342 109.404" style="fill:none;stroke:#000000;stroke-linecap:round;stroke-width:1.5;"/>
   </g>
   <g id="line2d_16">
    <path clip-path="url(#ped7c9059b9)" d="
M45.94 94.104
L63.0342 94.104" style="fill:none;stroke:#000000;stroke-linecap:round;stroke-width:1.5;"/>
   </g>
   <g id="line2d_17">
    <path clip-path="url(#ped7c9059b9)" d="
M107.5 101.754
L119.65 101.754
L131.8 101.754" style="fill:none;stroke:#000000;stroke-linecap:round;stroke-width:1.5;"/>
   </g>
   <g id="line2d_18">
    <path clip-path="url(#ped7c9059b9)" d="
M131.8 101.754" style="fill:none;stroke:#000000;stroke-linecap:round;stroke-width:1.5;"/>
   </g>
   <g id="line2d_19">
    <path clip-path="url(#ped7c9059b9)" d="
M131.8 101.754
L143.95 101.754
L156.1 101.754" style="fill:none;stroke:#000000;stroke-linecap:round;stroke-width:1.5;"/>
   </g>
   <g id="line2d_20">
    <path clip-path="url(#ped7c9059b9)" d="
M45.94 94.104
L45.94 86.454
L45.94 78.804" style="fill:none;stroke:#000000;stroke-linecap:round;stroke-width:1.5;"/>
   </g>
   <g id="line2d_21">
    <path clip-path="url(#ped7c9059b9)" d="
M131.8 25.254
L131.8 32.904
L131.8 40.554" style="fill:none;stroke:#000000;stroke-linecap:round;stroke-width:1.5;"/>
   </g>
   <g id="line2d_22">
    <path clip-path="url(#ped7c9059b9)" d="
M131.8 40.554
L88.87 59.679
L45.94 78.804" style="fill:none;stroke:#000000;stroke-linecap:round;stroke-width:1.5;"/>
   </g>
   <g id="line2d_23">
    <path clip-path="url(#ped7c9059b9)" d="
M45.94 32.904
L45.94 40.554
L45.94 48.204" style="fill:none;stroke:#000000;stroke-linecap:round;stroke-width:1.5;"/>
   </g>
   <g id="line2d_24">
    <path clip-path="url(#ped7c9059b9)" d="
M131.8 101.754
L131.8 94.104
L131.8 86.454" style="fill:none;stroke:#000000;stroke-linecap:round;stroke-width:1.5;"/>
   </g>
   <g id="line2d_25">
    <path clip-path="url(#ped7c9059b9)" d="
M131.8 86.454
L88.87 67.329
L45.94 48.204" style="fill:none;stroke:#000000;stroke-linecap:round;stroke-width:1.5;"/>
   </g>
   <g id="line2d_26">
    <path clip-path="url(#ped7c9059b9)" d="
M45.94 109.404
L33.79 109.404
L21.64 109.404" style="fill:none;stroke:#000000;stroke-linecap:round;stroke-width:1.5;"/>
   </g>
   <g id="patch_2">
    <path clip-path="url(#ped7c9059b9)" d="
M100.048 28.926
C101.079 28.926 102.068 28.5391 102.797 27.8505
C103.526 27.1619 103.936 26.2278 103.936 25.254
C103.936 24.2802 103.526 23.3461 102.797 22.6575
C102.068 21.9689 101.079 21.582 100.048 21.582
C99.0169 21.582 98.0279 21.9689 97.2988 22.6575
C96.5697 23.3461 96.16 24.2802 96.16 25.254
C96.16 26.2278 96.5697 27.1619 97.2988 27.8505
C98.0279 28.5391 99.0169 28.926 100.048 28.926
L100.048 28.926" style="fill:none;stroke:#000000;stroke-linejoin:miter;stroke-width:1.5;"/>
   </g>
   <g id="patch_3">
    <path clip-path="url(#ped7c9059b9)" d="
M131.8 27.549
C132.444 27.549 133.063 27.3072 133.518 26.8768
C133.974 26.4464 134.23 25.8626 134.23 25.254
C134.23 24.6454 133.974 24.0616 133.518 23.6312
C133.063 23.2008 132.444 22.959 131.8 22.959
C131.156 22.959 130.537 23.2008 130.082 23.6312
C129.626 24.0616 129.37 24.6454 129.37 25.254
C129.37 25.8626 129.626 26.4464 130.082 26.8768
C130.537 27.3072 131.156 27.549 131.8 27.549
z
" style="stroke:#000000;stroke-linejoin:miter;stroke-width:1.5;"/>
   </g>
   <g id="patch_4">
    <path clip-path="url(#ped7c9059b9)" d="
M100.048 105.426
C101.079 105.426 102.068 105.039 102.797 104.35
C103.526 103.662 103.936 102.728 103.936 101.754
C103.936 100.78 103.526 99.8461 102.797 99.1575
C102.068 98.4689 101.079 98.082 100.048 98.082
C99.0169 98.082 98.0279 98.4689 97.2988 99.1575
C96.5697 99.8461 96.16 100.78 96.16 101.754
C96.16 102.728 96.5697 103.662 97.2988 104.35
C98.0279 105.039 99.0169 105.426 100.048 105.426
L100.048 105.426" style="fill:none;stroke:#000000;stroke-linejoin:miter;stroke-width:1.5;"/>
   </g>
   <g id="patch_5">
    <path clip-path="url(#ped7c9059b9)" d="
M131.8 104.049
C132.444 104.049 133.063 103.807 133.518 103.377
C133.974 102.946 134.23 102.363 134.23 101.754
C134.23 101.145 133.974 100.562 133.518 100.131
C133.063 99.7008 132.444 99.459 131.8 99.459
C131.156 99.459 130.537 99.7008 130.082 100.131
C129.626 100.562 129.37 101.145 129.37 101.754
C129.37 102.363 129.626 102.946 130.082 103.377
C130.537 103.807 131.156 104.049 131.8 104.049
z
" style="stroke:#000000;stroke-linejoin:miter;stroke-width:1.5;"/>
   </g>
   <g id="text_1">
    <!-- $R$ -->
    <defs>
     <path d="
M44.3906 34.1875
Q47.5625 33.1094 50.5625 29.5938
Q53.5625 26.0781 56.5938 19.9219
L66.6094 0
L56 0
L46.6875 18.7031
Q43.0625 26.0312 39.6719 28.4219
Q36.2812 30.8125 30.4219 30.8125
L19.6719 30.8125
L19.6719 0
L9.8125 0
L9.8125 72.9062
L32.0781 72.9062
Q44.5781 72.9062 50.7344 67.6719
Q56.8906 62.4531 56.8906 51.9062
Q56.8906 45.0156 53.6875 40.4688
Q50.4844 35.9375 44.3906 34.1875
M19.6719 64.7969
L19.6719 38.9219
L32.0781 38.9219
Q39.2031 38.9219 42.8438 42.2188
Q46.4844 45.5156 46.4844 51.9062
Q46.4844 58.2969 42.8438 61.5469
Q39.2031 64.7969 32.0781 64.7969
z
" id="BitstreamVeraSans-Roman-52"/>
    </defs>
    <g transform="translate(7.2 22.019)scale(0.16 -0.16)">
     <use transform="translate(0.0 0.09375)" xlink:href="#BitstreamVeraSans-Roman-52"/>
    </g>
   </g>
   <g id="text_2">
    <!-- $Q$ -->
    <defs>
     <path d="
M39.4062 66.2188
Q28.6562 66.2188 22.3281 58.2031
Q16.0156 50.2031 16.0156 36.375
Q16.0156 22.6094 22.3281 14.5938
Q28.6562 6.59375 39.4062 6.59375
Q50.1406 6.59375 56.4219 14.5938
Q62.7031 22.6094 62.7031 36.375
Q62.7031 50.2031 56.4219 58.2031
Q50.1406 66.2188 39.4062 66.2188
M53.2188 1.3125
L66.2188 -12.8906
L54.2969 -12.8906
L43.5 -1.21875
Q41.8906 -1.3125 41.0312 -1.35938
Q40.1875 -1.42188 39.4062 -1.42188
Q24.0312 -1.42188 14.8125 8.85938
Q5.60938 19.1406 5.60938 36.375
Q5.60938 53.6562 14.8125 63.9375
Q24.0312 74.2188 39.4062 74.2188
Q54.7344 74.2188 63.9062 63.9375
Q73.0938 53.6562 73.0938 36.375
Q73.0938 23.6875 67.9844 14.6406
Q62.8906 5.60938 53.2188 1.3125" id="BitstreamVeraSans-Roman-51"/>
    </defs>
    <g transform="translate(159.34 29.669)scale(0.16 -0.16)">
     <use transform="translate(0.0 0.78125)" xlink:href="#BitstreamVeraSans-Roman-51"/>
    </g>
   </g>
   <g id="text_3">
    <!-- $\overline{Q}$ -->
    <g transform="translate(159.34 107.3865)scale(0.16 -0.16)">
     <use transform="translate(0.0 0.53125)" xlink:href="#BitstreamVeraSans-Roman-51"/>
     <path d="
M0 86.5
L0 92.75
L78.7109 92.75
L78.7109 86.5
L0 86.5
z
"/>
    </g>
   </g>
   <g id="text_4">
    <!-- $S$ -->
    <defs>
     <path d="
M53.5156 70.5156
L53.5156 60.8906
Q47.9062 63.5781 42.9219 64.8906
Q37.9375 66.2188 33.2969 66.2188
Q25.25 66.2188 20.875 63.0938
Q16.5 59.9688 16.5 54.2031
Q16.5 49.3594 19.4062 46.8906
Q22.3125 44.4375 30.4219 42.9219
L36.375 41.7031
Q47.4062 39.5938 52.6562 34.2969
Q57.9062 29 57.9062 20.125
Q57.9062 9.51562 50.7969 4.04688
Q43.7031 -1.42188 29.9844 -1.42188
Q24.8125 -1.42188 18.9688 -0.25
Q13.1406 0.921875 6.89062 3.21875
L6.89062 13.375
Q12.8906 10.0156 18.6562 8.29688
Q24.4219 6.59375 29.9844 6.59375
Q38.4219 6.59375 43.0156 9.90625
Q47.6094 13.2344 47.6094 19.3906
Q47.6094 24.75 44.3125 27.7812
Q41.0156 30.8125 33.5 32.3281
L27.4844 33.5
Q16.4531 35.6875 11.5156 40.375
Q6.59375 45.0625 6.59375 53.4219
Q6.59375 63.0938 13.4062 68.6562
Q20.2188 74.2188 32.1719 74.2188
Q37.3125 74.2188 42.625 73.2812
Q47.9531 72.3594 53.5156 70.5156" id="BitstreamVeraSans-Roman-53"/>
    </defs>
    <g transform="translate(8.16 113.819)scale(0.16 -0.16)">
     <use transform="translate(0.0 0.78125)" xlink:href="#BitstreamVeraSans-Roman-53"/>
    </g>
   </g>
  </g>
 </g>
 <defs>
  <clipPath id="ped7c9059b9">
   <rect height="112.608" width="140.94" x="18.4" y="7.2"/>
  </clipPath>
 </defs>
</svg>
