<?xml version="1.0" encoding="utf-8" standalone="no"?>
<!DOCTYPE svg PUBLIC "-//W3C//DTD SVG 1.1//EN"
  "http://www.w3.org/Graphics/SVG/1.1/DTD/svg11.dtd">
<!-- Created with matplotlib (https://matplotlib.org/) -->
<svg height="126.7812pt" version="1.1" viewBox="0 0 176.2 126.7812" width="176.2pt" xmlns="http://www.w3.org/2000/svg" xmlns:xlink="http://www.w3.org/1999/xlink">
 <defs>
  <style type="text/css">
*{stroke-linecap:butt;stroke-linejoin:round;white-space:pre;}
  </style>
 </defs>
 <g id="figure_1">
  <g id="patch_1">
   <path d="M -0 126.7812 
L 176.2 126.7812 
L 176.2 0 
L -0 0 
z
" style="fill:none;"/>
  </g>
  <g id="axes_1">
   <g id="patch_2">
    <path clip-path="url(#pad7cef9e23)" d="M 98.648 31.8636 
C 99.67911 31.8636 100.668127 31.510834 101.397231 30.882994 
C 102.126336 30.255153 102.536 29.4035 102.536 28.5156 
C 102.536 27.6277 102.126336 26.776047 101.397231 26.148206 
C 100.668127 25.520366 99.67911 25.1676 98.648 25.1676 
C 97.61689 25.1676 96.627873 25.520366 95.898769 26.148206 
C 95.169664 26.776047 94.76 27.6277 94.76 28.5156 
C 94.76 29.4035 95.169664 30.255153 95.898769 30.882994 
C 96.627873 31.510834 97.61689 31.8636 98.648 31.8636 
z
" style="fill:none;stroke:#000000;stroke-linejoin:miter;stroke-width:2;"/>
   </g>
   <g id="patch_3">
    <path clip-path="url(#pad7cef9e23)" d="M 130.4 30.6081 
C 131.044444 30.6081 131.662579 30.387621 132.118269 29.995221 
C 132.57396 29.602821 132.83 29.070537 132.83 28.5156 
C 132.83 27.960663 132.57396 27.428379 132.118269 27.035979 
C 131.662579 26.643579 131.044444 26.4231 130.4 26.4231 
C 129.755556 26.4231 129.137421 26.643579 128.681731 27.035979 
C 128.22604 27.428379 127.97 27.960663 127.97 28.5156 
C 127.97 29.070537 128.22604 29.602821 128.681731 29.995221 
C 129.137421 30.387621 129.755556 30.6081 130.4 30.6081 
z
" style="stroke:#000000;stroke-linejoin:miter;stroke-width:2;"/>
   </g>
   <g id="patch_4">
    <path clip-path="url(#pad7cef9e23)" d="M 98.648 101.6136 
C 99.67911 101.6136 100.668127 101.260834 101.397231 100.632994 
C 102.126336 100.005153 102.536 99.1535 102.536 98.2656 
C 102.536 97.3777 102.126336 96.526047 101.397231 95.898206 
C 100.668127 95.270366 99.67911 94.9176 98.648 94.9176 
C 97.61689 94.9176 96.627873 95.270366 95.898769 95.898206 
C 95.169664 96.526047 94.76 97.3777 94.76 98.2656 
C 94.76 99.1535 95.169664 100.005153 95.898769 100.632994 
C 96.627873 101.260834 97.61689 101.6136 98.648 101.6136 
z
" style="fill:none;stroke:#000000;stroke-linejoin:miter;stroke-width:2;"/>
   </g>
   <g id="patch_5">
    <path clip-path="url(#pad7cef9e23)" d="M 130.4 100.3581 
C 131.044444 100.3581 131.662579 100.137621 132.118269 99.745221 
C 132.57396 99.352821 132.83 98.820537 132.83 98.2656 
C 132.83 97.710663 132.57396 97.178379 132.118269 96.785979 
C 131.662579 96.393579 131.044444 96.1731 130.4 96.1731 
C 129.755556 96.1731 129.137421 96.393579 128.681731 96.785979 
C 128.22604 97.178379 127.97 97.710663 127.97 98.2656 
C 127.97 98.820537 128.22604 99.352821 128.681731 99.745221 
C 129.137421 100.137621 129.755556 100.3581 130.4 100.3581 
z
" style="stroke:#000000;stroke-linejoin:miter;stroke-width:2;"/>
   </g>
   <g id="line2d_1">
    <path clip-path="url(#pad7cef9e23)" d="M 20.24 21.5406 
L 32.39 21.5406 
L 44.54 21.5406 
" style="fill:none;stroke:#000000;stroke-linecap:round;stroke-width:2;"/>
   </g>
   <g id="line2d_2">
    <path clip-path="url(#pad7cef9e23)" d="M 55.88 42.1866 
L 73.931429 42.095498 
L 75.782857 41.822192 
L 77.634286 41.366682 
L 79.948571 40.541069 
L 82.262857 39.430763 
L 84.577143 38.035763 
L 86.891429 36.356069 
L 89.205714 34.391682 
L 91.52 32.1426 
L 93.834286 29.608824 
L 94.76 28.5156 
L 94.76 28.5156 
L 91.982857 25.37258 
L 89.668571 23.066559 
L 87.354286 21.045233 
L 85.04 19.3086 
L 82.725714 17.856661 
L 80.411429 16.689416 
L 78.097143 15.806865 
L 75.782857 15.209008 
L 73.931429 14.935702 
L 72.08 14.8446 
L 55.88 14.8446 
L 55.88 14.8446 
L 58.2128 17.0766 
L 59.69024 18.7506 
L 60.9344 20.4246 
L 61.94528 22.0986 
L 62.72288 23.7726 
L 63.2672 25.4466 
L 63.57824 27.1206 
L 63.656 28.7946 
L 63.50048 30.4686 
L 63.11168 32.1426 
L 62.4896 33.8166 
L 61.63424 35.4906 
L 60.5456 37.1646 
L 59.22368 38.8386 
L 57.66848 40.5126 
L 55.88 42.1866 
L 55.88 42.1866 
" style="fill:none;stroke:#000000;stroke-linecap:round;stroke-width:2;"/>
   </g>
   <g id="line2d_3">
    <path clip-path="url(#pad7cef9e23)" d="M 44.54 35.4906 
L 61.63424 35.4906 
" style="fill:none;stroke:#000000;stroke-linecap:round;stroke-width:2;"/>
   </g>
   <g id="line2d_4">
    <path clip-path="url(#pad7cef9e23)" d="M 44.54 21.5406 
L 61.63424 21.5406 
" style="fill:none;stroke:#000000;stroke-linecap:round;stroke-width:2;"/>
   </g>
   <g id="line2d_5">
    <path clip-path="url(#pad7cef9e23)" d="M 44.54 28.5156 
M 102.536 28.5156 
L 106.1 28.5156 
" style="fill:none;stroke:#000000;stroke-linecap:round;stroke-width:2;"/>
   </g>
   <g id="line2d_6">
    <path clip-path="url(#pad7cef9e23)" d="M 106.1 28.5156 
L 118.25 28.5156 
L 130.4 28.5156 
" style="fill:none;stroke:#000000;stroke-linecap:round;stroke-width:2;"/>
   </g>
   <g id="line2d_7">
    <path clip-path="url(#pad7cef9e23)" d="M 130.4 28.5156 
" style="fill:none;stroke:#000000;stroke-linecap:round;stroke-width:2;"/>
   </g>
   <g id="line2d_8">
    <path clip-path="url(#pad7cef9e23)" d="M 130.4 28.5156 
L 142.55 28.5156 
L 154.7 28.5156 
" style="fill:none;stroke:#000000;stroke-linecap:round;stroke-width:2;"/>
   </g>
   <g id="line2d_9">
    <path clip-path="url(#pad7cef9e23)" d="M 55.88 111.9366 
L 73.931429 111.845498 
L 75.782857 111.572192 
L 77.634286 111.116682 
L 79.948571 110.291069 
L 82.262857 109.180763 
L 84.577143 107.785763 
L 86.891429 106.106069 
L 89.205714 104.141682 
L 91.52 101.8926 
L 93.834286 99.358824 
L 94.76 98.2656 
L 94.76 98.2656 
L 91.982857 95.12258 
L 89.668571 92.816559 
L 87.354286 90.795233 
L 85.04 89.0586 
L 82.725714 87.606661 
L 80.411429 86.439416 
L 78.097143 85.556865 
L 75.782857 84.959008 
L 73.931429 84.685702 
L 72.08 84.5946 
L 55.88 84.5946 
L 55.88 84.5946 
L 58.2128 86.8266 
L 59.69024 88.5006 
L 60.9344 90.1746 
L 61.94528 91.8486 
L 62.72288 93.5226 
L 63.2672 95.1966 
L 63.57824 96.8706 
L 63.656 98.5446 
L 63.50048 100.2186 
L 63.11168 101.8926 
L 62.4896 103.5666 
L 61.63424 105.2406 
L 60.5456 106.9146 
L 59.22368 108.5886 
L 57.66848 110.2626 
L 55.88 111.9366 
L 55.88 111.9366 
" style="fill:none;stroke:#000000;stroke-linecap:round;stroke-width:2;"/>
   </g>
   <g id="line2d_10">
    <path clip-path="url(#pad7cef9e23)" d="M 44.54 105.2406 
L 61.63424 105.2406 
" style="fill:none;stroke:#000000;stroke-linecap:round;stroke-width:2;"/>
   </g>
   <g id="line2d_11">
    <path clip-path="url(#pad7cef9e23)" d="M 44.54 91.2906 
L 61.63424 91.2906 
" style="fill:none;stroke:#000000;stroke-linecap:round;stroke-width:2;"/>
   </g>
   <g id="line2d_12">
    <path clip-path="url(#pad7cef9e23)" d="M 44.54 98.2656 
M 102.536 98.2656 
L 106.1 98.2656 
" style="fill:none;stroke:#000000;stroke-linecap:round;stroke-width:2;"/>
   </g>
   <g id="line2d_13">
    <path clip-path="url(#pad7cef9e23)" d="M 106.1 98.2656 
L 118.25 98.2656 
L 130.4 98.2656 
" style="fill:none;stroke:#000000;stroke-linecap:round;stroke-width:2;"/>
   </g>
   <g id="line2d_14">
    <path clip-path="url(#pad7cef9e23)" d="M 130.4 98.2656 
" style="fill:none;stroke:#000000;stroke-linecap:round;stroke-width:2;"/>
   </g>
   <g id="line2d_15">
    <path clip-path="url(#pad7cef9e23)" d="M 130.4 98.2656 
L 142.55 98.2656 
L 154.7 98.2656 
" style="fill:none;stroke:#000000;stroke-linecap:round;stroke-width:2;"/>
   </g>
   <g id="line2d_16">
    <path clip-path="url(#pad7cef9e23)" d="M 44.54 91.2906 
L 44.54 84.3156 
L 44.54 77.3406 
" style="fill:none;stroke:#000000;stroke-linecap:round;stroke-width:2;"/>
   </g>
   <g id="line2d_17">
    <path clip-path="url(#pad7cef9e23)" d="M 130.4 28.5156 
L 130.4 35.4906 
L 130.4 42.4656 
" style="fill:none;stroke:#000000;stroke-linecap:round;stroke-width:2;"/>
   </g>
   <g id="line2d_18">
    <path clip-path="url(#pad7cef9e23)" d="M 130.4 42.4656 
L 87.47 59.9031 
L 44.54 77.3406 
" style="fill:none;stroke:#000000;stroke-linecap:round;stroke-width:2;"/>
   </g>
   <g id="line2d_19">
    <path clip-path="url(#pad7cef9e23)" d="M 44.54 35.4906 
L 44.54 42.4656 
L 44.54 49.4406 
" style="fill:none;stroke:#000000;stroke-linecap:round;stroke-width:2;"/>
   </g>
   <g id="line2d_20">
    <path clip-path="url(#pad7cef9e23)" d="M 130.4 98.2656 
L 130.4 91.2906 
L 130.4 84.3156 
" style="fill:none;stroke:#000000;stroke-linecap:round;stroke-width:2;"/>
   </g>
   <g id="line2d_21">
    <path clip-path="url(#pad7cef9e23)" d="M 130.4 84.3156 
L 87.47 66.8781 
L 44.54 49.4406 
" style="fill:none;stroke:#000000;stroke-linecap:round;stroke-width:2;"/>
   </g>
   <g id="line2d_22">
    <path clip-path="url(#pad7cef9e23)" d="M 44.54 105.2406 
L 32.39 105.2406 
L 20.24 105.2406 
" style="fill:none;stroke:#000000;stroke-linecap:round;stroke-width:2;"/>
   </g>
   <g id="text_1">
    <!-- $R$ -->
    <defs>
     <path d="M 44.390625 34.1875 
Q 47.5625 33.109375 50.5625 29.59375 
Q 53.5625 26.078125 56.59375 19.921875 
L 66.609375 0 
L 56 0 
L 46.6875 18.703125 
Q 43.0625 26.03125 39.671875 28.421875 
Q 36.28125 30.8125 30.421875 30.8125 
L 19.671875 30.8125 
L 19.671875 0 
L 9.8125 0 
L 9.8125 72.90625 
L 32.078125 72.90625 
Q 44.578125 72.90625 50.734375 67.671875 
Q 56.890625 62.453125 56.890625 51.90625 
Q 56.890625 45.015625 53.6875 40.46875 
Q 50.484375 35.9375 44.390625 34.1875 
z
M 19.671875 64.796875 
L 19.671875 38.921875 
L 32.078125 38.921875 
Q 39.203125 38.921875 42.84375 42.21875 
Q 46.484375 45.515625 46.484375 51.90625 
Q 46.484375 58.296875 42.84375 61.546875 
Q 39.203125 64.796875 32.078125 64.796875 
z
" id="DejaVuSans-82"/>
    </defs>
    <g transform="translate(7.2 25.403725)scale(0.14 -0.14)">
     <use transform="translate(0 0.09375)" xlink:href="#DejaVuSans-82"/>
    </g>
   </g>
   <g id="text_2">
    <!-- $Q$ -->
    <defs>
     <path d="M 39.40625 66.21875 
Q 28.65625 66.21875 22.328125 58.203125 
Q 16.015625 50.203125 16.015625 36.375 
Q 16.015625 22.609375 22.328125 14.59375 
Q 28.65625 6.59375 39.40625 6.59375 
Q 50.140625 6.59375 56.421875 14.59375 
Q 62.703125 22.609375 62.703125 36.375 
Q 62.703125 50.203125 56.421875 58.203125 
Q 50.140625 66.21875 39.40625 66.21875 
z
M 53.21875 1.3125 
L 66.21875 -12.890625 
L 54.296875 -12.890625 
L 43.5 -1.21875 
Q 41.890625 -1.3125 41.03125 -1.359375 
Q 40.1875 -1.421875 39.40625 -1.421875 
Q 24.03125 -1.421875 14.8125 8.859375 
Q 5.609375 19.140625 5.609375 36.375 
Q 5.609375 53.65625 14.8125 63.9375 
Q 24.03125 74.21875 39.40625 74.21875 
Q 54.734375 74.21875 63.90625 63.9375 
Q 73.09375 53.65625 73.09375 36.375 
Q 73.09375 23.6875 67.984375 14.640625 
Q 62.890625 5.609375 53.21875 1.3125 
z
" id="DejaVuSans-81"/>
    </defs>
    <g transform="translate(157.94 32.378725)scale(0.14 -0.14)">
     <use transform="translate(0 0.78125)" xlink:href="#DejaVuSans-81"/>
    </g>
   </g>
   <g id="text_3">
    <!-- $\overline{Q}$ -->
    <g transform="translate(157.94 103.194038)scale(0.14 -0.14)">
     <use transform="translate(0 0.53125)" xlink:href="#DejaVuSans-81"/>
     <path d="M 0 86.5 
L 0 92.75 
L 78.710938 92.75 
L 78.710938 86.5 
L 0 86.5 
z
"/>
    </g>
   </g>
   <g id="text_4">
    <!-- $S$ -->
    <defs>
     <path d="M 53.515625 70.515625 
L 53.515625 60.890625 
Q 47.90625 63.578125 42.921875 64.890625 
Q 37.9375 66.21875 33.296875 66.21875 
Q 25.25 66.21875 20.875 63.09375 
Q 16.5 59.96875 16.5 54.203125 
Q 16.5 49.359375 19.40625 46.890625 
Q 22.3125 44.4375 30.421875 42.921875 
L 36.375 41.703125 
Q 47.40625 39.59375 52.65625 34.296875 
Q 57.90625 29 57.90625 20.125 
Q 57.90625 9.515625 50.796875 4.046875 
Q 43.703125 -1.421875 29.984375 -1.421875 
Q 24.8125 -1.421875 18.96875 -0.25 
Q 13.140625 0.921875 6.890625 3.21875 
L 6.890625 13.375 
Q 12.890625 10.015625 18.65625 8.296875 
Q 24.421875 6.59375 29.984375 6.59375 
Q 38.421875 6.59375 43.015625 9.90625 
Q 47.609375 13.234375 47.609375 19.390625 
Q 47.609375 24.75 44.3125 27.78125 
Q 41.015625 30.8125 33.5 32.328125 
L 27.484375 33.5 
Q 16.453125 35.6875 11.515625 40.375 
Q 6.59375 45.0625 6.59375 53.421875 
Q 6.59375 63.09375 13.40625 68.65625 
Q 20.21875 74.21875 32.171875 74.21875 
Q 37.3125 74.21875 42.625 73.28125 
Q 47.953125 72.359375 53.515625 70.515625 
z
" id="DejaVuSans-83"/>
    </defs>
    <g transform="translate(8.04 109.103725)scale(0.14 -0.14)">
     <use transform="translate(0 0.78125)" xlink:href="#DejaVuSans-83"/>
    </g>
   </g>
  </g>
 </g>
 <defs>
  <clipPath id="pad7cef9e23">
   <rect height="112.3812" width="154.386" x="10.277" y="7.2"/>
  </clipPath>
 </defs>
</svg>
