<?xml version="1.0" encoding="utf-8" standalone="no"?>
<!DOCTYPE svg PUBLIC "-//W3C//DTD SVG 1.1//EN"
  "http://www.w3.org/Graphics/SVG/1.1/DTD/svg11.dtd">
<!-- Created with matplotlib (https://matplotlib.org/) -->
<svg height="244.228088pt" version="1.1" viewBox="0 0 476.4945 244.228088" width="476.4945pt" xmlns="http://www.w3.org/2000/svg" xmlns:xlink="http://www.w3.org/1999/xlink">
 <defs>
  <style type="text/css">
*{stroke-linecap:butt;stroke-linejoin:round;}
  </style>
 </defs>
 <g id="figure_1">
  <g id="patch_1">
   <path d="M 0 244.228088 
L 476.4945 244.228088 
L 476.4945 0 
L 0 0 
z
" style="fill:none;"/>
  </g>
  <g id="axes_1">
   <g id="patch_2">
    <path clip-path="url(#pfab5e75549)" d="M 246.327109 40.794283 
C 246.515727 38.721734 246.22004 36.622937 245.478256 34.769081 
C 244.736472 32.915224 243.581977 31.389749 242.163946 30.389764 
" style="fill:none;stroke:#000000;stroke-linejoin:miter;stroke-width:1.5;"/>
   </g>
   <g id="patch_3">
    <path clip-path="url(#pfab5e75549)" d="M 401.847109 36.609283 
C 402.035727 34.536734 401.74004 32.437937 400.998256 30.584081 
C 400.256472 28.730224 399.101977 27.204749 397.683946 26.204764 
" style="fill:none;stroke:#000000;stroke-linejoin:miter;stroke-width:1.5;"/>
   </g>
   <g id="patch_4">
    <path clip-path="url(#pfab5e75549)" d="M 213.927109 124.494283 
C 214.115727 122.421734 213.82004 120.322937 213.078256 118.469081 
C 212.336472 116.615224 211.181977 115.089749 209.763946 114.089764 
" style="fill:none;stroke:#000000;stroke-linejoin:miter;stroke-width:1.5;"/>
   </g>
   <g id="patch_5">
    <path clip-path="url(#pfab5e75549)" d="M 369.447109 120.309283 
C 369.635727 118.236734 369.34004 116.137937 368.598256 114.284081 
C 367.856472 112.430224 366.701977 110.904749 365.283946 109.904764 
" style="fill:none;stroke:#000000;stroke-linejoin:miter;stroke-width:1.5;"/>
   </g>
   <g id="patch_6">
    <path clip-path="url(#pfab5e75549)" d="M 212.307109 210.984283 
C 212.495727 208.911734 212.20004 206.812937 211.458256 204.959081 
C 210.716472 203.105224 209.561977 201.579749 208.143946 200.579764 
" style="fill:none;stroke:#000000;stroke-linejoin:miter;stroke-width:1.5;"/>
   </g>
   <g id="patch_7">
    <path clip-path="url(#pfab5e75549)" d="M 366.207109 208.194283 
C 366.395727 206.121734 366.10004 204.022937 365.358256 202.169081 
C 364.616472 200.315224 363.461977 198.789749 362.043946 197.789764 
" style="fill:none;stroke:#000000;stroke-linejoin:miter;stroke-width:1.5;"/>
   </g>
   <g id="patch_8">
    <path clip-path="url(#pfab5e75549)" d="M 234.770111 26.913714 
L 243.044002 28.41946 
L 241.887331 30.243826 
L 242.171709 30.37752 
L 242.156183 30.402008 
L 241.871805 30.268314 
L 240.715134 32.092679 
z
" style="stroke:#000000;stroke-linejoin:miter;"/>
   </g>
   <g id="patch_9">
    <path clip-path="url(#pfab5e75549)" d="M 400.863629 43.813677 
L 399.3959 36.642081 
L 401.793194 36.884746 
L 401.83102 36.607654 
L 401.863198 36.610911 
L 401.825372 36.888004 
L 404.222666 37.130669 
z
" style="stroke:#000000;stroke-linejoin:miter;"/>
   </g>
   <g id="patch_10">
    <path clip-path="url(#pfab5e75549)" d="M 202.370111 110.613714 
L 210.644002 112.11946 
L 209.487331 113.943826 
L 209.771709 114.07752 
L 209.756183 114.102008 
L 209.471805 113.968314 
L 208.315134 115.792679 
z
" style="stroke:#000000;stroke-linejoin:miter;"/>
   </g>
   <g id="patch_11">
    <path clip-path="url(#pfab5e75549)" d="M 368.463629 127.513677 
L 366.9959 120.342081 
L 369.393194 120.584746 
L 369.43102 120.307654 
L 369.463198 120.310911 
L 369.425372 120.588004 
L 371.822666 120.830669 
z
" style="stroke:#000000;stroke-linejoin:miter;"/>
   </g>
   <g id="patch_12">
    <path clip-path="url(#pfab5e75549)" d="M 200.750111 197.103714 
L 209.024002 198.60946 
L 207.867331 200.433826 
L 208.151709 200.56752 
L 208.136183 200.592008 
L 207.851805 200.458314 
L 206.695134 202.282679 
z
" style="stroke:#000000;stroke-linejoin:miter;"/>
   </g>
   <g id="patch_13">
    <path clip-path="url(#pfab5e75549)" d="M 365.223629 215.398677 
L 363.7559 208.227081 
L 366.153194 208.469746 
L 366.19102 208.192654 
L 366.223198 208.195911 
L 366.185372 208.473004 
L 368.582666 208.715669 
z
" style="stroke:#000000;stroke-linejoin:miter;"/>
   </g>
   <g id="line2d_1">
    <path clip-path="url(#pfab5e75549)" d="M 37.4025 42.362813 
L 69.8025 42.362813 
M 77.5785 39.572813 
L 95.7225 29.807813 
M 102.2025 42.362813 
L 134.6025 42.362813 
" style="fill:none;stroke:#000000;stroke-linecap:round;stroke-width:1.5;"/>
   </g>
   <g id="line2d_2">
    <path clip-path="url(#pfab5e75549)" d="M 192.9225 42.362813 
L 225.3225 42.362813 
M 233.0985 39.572813 
L 251.2425 29.807813 
M 257.7225 42.362813 
L 290.1225 42.362813 
" style="fill:none;stroke:#000000;stroke-linecap:round;stroke-width:1.5;"/>
   </g>
   <g id="line2d_3">
    <path clip-path="url(#pfab5e75549)" d="M 348.4425 42.362813 
L 380.8425 42.362813 
M 388.6185 39.572813 
L 406.7625 29.807813 
M 413.2425 42.362813 
L 445.6425 42.362813 
" style="fill:none;stroke:#000000;stroke-linecap:round;stroke-width:1.5;"/>
   </g>
   <g id="line2d_4">
    <path clip-path="url(#pfab5e75549)" d="M 37.4025 126.062813 
M 45.1785 123.272813 
L 63.3225 113.507813 
M 69.8025 126.062813 
" style="fill:none;stroke:#000000;stroke-linecap:round;stroke-width:1.5;"/>
   </g>
   <g id="line2d_5">
    <path clip-path="url(#pfab5e75549)" d="M 192.9225 126.062813 
M 200.6985 123.272813 
L 218.8425 113.507813 
M 225.3225 126.062813 
" style="fill:none;stroke:#000000;stroke-linecap:round;stroke-width:1.5;"/>
   </g>
   <g id="line2d_6">
    <path clip-path="url(#pfab5e75549)" d="M 348.4425 126.062813 
M 356.2185 123.272813 
L 374.3625 113.507813 
M 380.8425 126.062813 
" style="fill:none;stroke:#000000;stroke-linecap:round;stroke-width:1.5;"/>
   </g>
   <g id="line2d_7">
    <path clip-path="url(#pfab5e75549)" d="M 37.4025 209.762813 
M 45.1785 206.972813 
L 60.0825 202.787813 
M 69.8025 198.602813 
" style="fill:none;stroke:#000000;stroke-linecap:round;stroke-width:1.5;"/>
   </g>
   <g id="line2d_8">
    <path clip-path="url(#pfab5e75549)" d="M 192.9225 209.762813 
M 200.6985 206.972813 
L 215.6025 202.787813 
M 225.3225 198.602813 
" style="fill:none;stroke:#000000;stroke-linecap:round;stroke-width:1.5;"/>
   </g>
   <g id="line2d_9">
    <path clip-path="url(#pfab5e75549)" d="M 348.4425 209.762813 
M 356.2185 206.972813 
L 371.1225 202.787813 
M 380.8425 198.602813 
" style="fill:none;stroke:#000000;stroke-linecap:round;stroke-width:1.5;"/>
   </g>
   <g id="patch_14">
    <path clip-path="url(#pfab5e75549)" d="M 73.6905 45.710813 
C 74.72161 45.710813 75.710627 45.358046 76.439731 44.730206 
C 77.168836 44.102366 77.5785 43.250712 77.5785 42.362813 
C 77.5785 41.474913 77.168836 40.623259 76.439731 39.995419 
C 75.710627 39.367579 74.72161 39.014813 73.6905 39.014813 
C 72.65939 39.014813 71.670373 39.367579 70.941269 39.995419 
C 70.212164 40.623259 69.8025 41.474913 69.8025 42.362813 
C 69.8025 43.250712 70.212164 44.102366 70.941269 44.730206 
C 71.670373 45.358046 72.65939 45.710813 73.6905 45.710813 
z
" style="fill:none;stroke:#000000;stroke-linejoin:miter;stroke-width:1.5;"/>
   </g>
   <g id="patch_15">
    <path clip-path="url(#pfab5e75549)" d="M 98.3145 45.710813 
C 99.34561 45.710813 100.334627 45.358046 101.063731 44.730206 
C 101.792836 44.102366 102.2025 43.250712 102.2025 42.362813 
C 102.2025 41.474913 101.792836 40.623259 101.063731 39.995419 
C 100.334627 39.367579 99.34561 39.014813 98.3145 39.014813 
C 97.28339 39.014813 96.294373 39.367579 95.565269 39.995419 
C 94.836164 40.623259 94.4265 41.474913 94.4265 42.362813 
C 94.4265 43.250712 94.836164 44.102366 95.565269 44.730206 
C 96.294373 45.358046 97.28339 45.710813 98.3145 45.710813 
z
" style="fill:none;stroke:#000000;stroke-linejoin:miter;stroke-width:1.5;"/>
   </g>
   <g id="patch_16">
    <path clip-path="url(#pfab5e75549)" d="M 229.2105 45.710813 
C 230.24161 45.710813 231.230627 45.358046 231.959731 44.730206 
C 232.688836 44.102366 233.0985 43.250712 233.0985 42.362813 
C 233.0985 41.474913 232.688836 40.623259 231.959731 39.995419 
C 231.230627 39.367579 230.24161 39.014813 229.2105 39.014813 
C 228.17939 39.014813 227.190373 39.367579 226.461269 39.995419 
C 225.732164 40.623259 225.3225 41.474913 225.3225 42.362813 
C 225.3225 43.250712 225.732164 44.102366 226.461269 44.730206 
C 227.190373 45.358046 228.17939 45.710813 229.2105 45.710813 
z
" style="fill:none;stroke:#000000;stroke-linejoin:miter;stroke-width:1.5;"/>
   </g>
   <g id="patch_17">
    <path clip-path="url(#pfab5e75549)" d="M 253.8345 45.710813 
C 254.86561 45.710813 255.854627 45.358046 256.583731 44.730206 
C 257.312836 44.102366 257.7225 43.250712 257.7225 42.362813 
C 257.7225 41.474913 257.312836 40.623259 256.583731 39.995419 
C 255.854627 39.367579 254.86561 39.014813 253.8345 39.014813 
C 252.80339 39.014813 251.814373 39.367579 251.085269 39.995419 
C 250.356164 40.623259 249.9465 41.474913 249.9465 42.362813 
C 249.9465 43.250712 250.356164 44.102366 251.085269 44.730206 
C 251.814373 45.358046 252.80339 45.710813 253.8345 45.710813 
z
" style="fill:none;stroke:#000000;stroke-linejoin:miter;stroke-width:1.5;"/>
   </g>
   <g id="patch_18">
    <path clip-path="url(#pfab5e75549)" d="M 384.7305 45.710813 
C 385.76161 45.710813 386.750627 45.358046 387.479731 44.730206 
C 388.208836 44.102366 388.6185 43.250712 388.6185 42.362813 
C 388.6185 41.474913 388.208836 40.623259 387.479731 39.995419 
C 386.750627 39.367579 385.76161 39.014813 384.7305 39.014813 
C 383.69939 39.014813 382.710373 39.367579 381.981269 39.995419 
C 381.252164 40.623259 380.8425 41.474913 380.8425 42.362813 
C 380.8425 43.250712 381.252164 44.102366 381.981269 44.730206 
C 382.710373 45.358046 383.69939 45.710813 384.7305 45.710813 
z
" style="fill:none;stroke:#000000;stroke-linejoin:miter;stroke-width:1.5;"/>
   </g>
   <g id="patch_19">
    <path clip-path="url(#pfab5e75549)" d="M 409.3545 45.710813 
C 410.38561 45.710813 411.374627 45.358046 412.103731 44.730206 
C 412.832836 44.102366 413.2425 43.250712 413.2425 42.362813 
C 413.2425 41.474913 412.832836 40.623259 412.103731 39.995419 
C 411.374627 39.367579 410.38561 39.014813 409.3545 39.014813 
C 408.32339 39.014813 407.334373 39.367579 406.605269 39.995419 
C 405.876164 40.623259 405.4665 41.474913 405.4665 42.362813 
C 405.4665 43.250712 405.876164 44.102366 406.605269 44.730206 
C 407.334373 45.358046 408.32339 45.710813 409.3545 45.710813 
z
" style="fill:none;stroke:#000000;stroke-linejoin:miter;stroke-width:1.5;"/>
   </g>
   <g id="patch_20">
    <path clip-path="url(#pfab5e75549)" d="M 65.9145 109.880813 
C 66.94561 109.880813 67.934627 109.528046 68.663731 108.900206 
C 69.392836 108.272366 69.8025 107.420712 69.8025 106.532813 
C 69.8025 105.644913 69.392836 104.793259 68.663731 104.165419 
C 67.934627 103.537579 66.94561 103.184813 65.9145 103.184813 
C 64.88339 103.184813 63.894373 103.537579 63.165269 104.165419 
C 62.436164 104.793259 62.0265 105.644913 62.0265 106.532813 
C 62.0265 107.420712 62.436164 108.272366 63.165269 108.900206 
C 63.894373 109.528046 64.88339 109.880813 65.9145 109.880813 
z
" style="fill:none;stroke:#000000;stroke-linejoin:miter;stroke-width:1.5;"/>
   </g>
   <g id="patch_21">
    <path clip-path="url(#pfab5e75549)" d="M 41.2905 129.410813 
C 42.32161 129.410813 43.310627 129.058046 44.039731 128.430206 
C 44.768836 127.802366 45.1785 126.950712 45.1785 126.062813 
C 45.1785 125.174913 44.768836 124.323259 44.039731 123.695419 
C 43.310627 123.067579 42.32161 122.714813 41.2905 122.714813 
C 40.25939 122.714813 39.270373 123.067579 38.541269 123.695419 
C 37.812164 124.323259 37.4025 125.174913 37.4025 126.062813 
C 37.4025 126.950712 37.812164 127.802366 38.541269 128.430206 
C 39.270373 129.058046 40.25939 129.410813 41.2905 129.410813 
z
" style="fill:none;stroke:#000000;stroke-linejoin:miter;stroke-width:1.5;"/>
   </g>
   <g id="patch_22">
    <path clip-path="url(#pfab5e75549)" d="M 65.9145 129.410813 
C 66.94561 129.410813 67.934627 129.058046 68.663731 128.430206 
C 69.392836 127.802366 69.8025 126.950712 69.8025 126.062813 
C 69.8025 125.174913 69.392836 124.323259 68.663731 123.695419 
C 67.934627 123.067579 66.94561 122.714813 65.9145 122.714813 
C 64.88339 122.714813 63.894373 123.067579 63.165269 123.695419 
C 62.436164 124.323259 62.0265 125.174913 62.0265 126.062813 
C 62.0265 126.950712 62.436164 127.802366 63.165269 128.430206 
C 63.894373 129.058046 64.88339 129.410813 65.9145 129.410813 
z
" style="fill:none;stroke:#000000;stroke-linejoin:miter;stroke-width:1.5;"/>
   </g>
   <g id="patch_23">
    <path clip-path="url(#pfab5e75549)" d="M 221.4345 109.880813 
C 222.46561 109.880813 223.454627 109.528046 224.183731 108.900206 
C 224.912836 108.272366 225.3225 107.420712 225.3225 106.532813 
C 225.3225 105.644913 224.912836 104.793259 224.183731 104.165419 
C 223.454627 103.537579 222.46561 103.184813 221.4345 103.184813 
C 220.40339 103.184813 219.414373 103.537579 218.685269 104.165419 
C 217.956164 104.793259 217.5465 105.644913 217.5465 106.532813 
C 217.5465 107.420712 217.956164 108.272366 218.685269 108.900206 
C 219.414373 109.528046 220.40339 109.880813 221.4345 109.880813 
z
" style="fill:none;stroke:#000000;stroke-linejoin:miter;stroke-width:1.5;"/>
   </g>
   <g id="patch_24">
    <path clip-path="url(#pfab5e75549)" d="M 196.8105 129.410813 
C 197.84161 129.410813 198.830627 129.058046 199.559731 128.430206 
C 200.288836 127.802366 200.6985 126.950712 200.6985 126.062813 
C 200.6985 125.174913 200.288836 124.323259 199.559731 123.695419 
C 198.830627 123.067579 197.84161 122.714813 196.8105 122.714813 
C 195.77939 122.714813 194.790373 123.067579 194.061269 123.695419 
C 193.332164 124.323259 192.9225 125.174913 192.9225 126.062813 
C 192.9225 126.950712 193.332164 127.802366 194.061269 128.430206 
C 194.790373 129.058046 195.77939 129.410813 196.8105 129.410813 
z
" style="fill:none;stroke:#000000;stroke-linejoin:miter;stroke-width:1.5;"/>
   </g>
   <g id="patch_25">
    <path clip-path="url(#pfab5e75549)" d="M 221.4345 129.410813 
C 222.46561 129.410813 223.454627 129.058046 224.183731 128.430206 
C 224.912836 127.802366 225.3225 126.950712 225.3225 126.062813 
C 225.3225 125.174913 224.912836 124.323259 224.183731 123.695419 
C 223.454627 123.067579 222.46561 122.714813 221.4345 122.714813 
C 220.40339 122.714813 219.414373 123.067579 218.685269 123.695419 
C 217.956164 124.323259 217.5465 125.174913 217.5465 126.062813 
C 217.5465 126.950712 217.956164 127.802366 218.685269 128.430206 
C 219.414373 129.058046 220.40339 129.410813 221.4345 129.410813 
z
" style="fill:none;stroke:#000000;stroke-linejoin:miter;stroke-width:1.5;"/>
   </g>
   <g id="patch_26">
    <path clip-path="url(#pfab5e75549)" d="M 376.9545 109.880813 
C 377.98561 109.880813 378.974627 109.528046 379.703731 108.900206 
C 380.432836 108.272366 380.8425 107.420712 380.8425 106.532813 
C 380.8425 105.644913 380.432836 104.793259 379.703731 104.165419 
C 378.974627 103.537579 377.98561 103.184813 376.9545 103.184813 
C 375.92339 103.184813 374.934373 103.537579 374.205269 104.165419 
C 373.476164 104.793259 373.0665 105.644913 373.0665 106.532813 
C 373.0665 107.420712 373.476164 108.272366 374.205269 108.900206 
C 374.934373 109.528046 375.92339 109.880813 376.9545 109.880813 
z
" style="fill:none;stroke:#000000;stroke-linejoin:miter;stroke-width:1.5;"/>
   </g>
   <g id="patch_27">
    <path clip-path="url(#pfab5e75549)" d="M 352.3305 129.410813 
C 353.36161 129.410813 354.350627 129.058046 355.079731 128.430206 
C 355.808836 127.802366 356.2185 126.950712 356.2185 126.062813 
C 356.2185 125.174913 355.808836 124.323259 355.079731 123.695419 
C 354.350627 123.067579 353.36161 122.714813 352.3305 122.714813 
C 351.29939 122.714813 350.310373 123.067579 349.581269 123.695419 
C 348.852164 124.323259 348.4425 125.174913 348.4425 126.062813 
C 348.4425 126.950712 348.852164 127.802366 349.581269 128.430206 
C 350.310373 129.058046 351.29939 129.410813 352.3305 129.410813 
z
" style="fill:none;stroke:#000000;stroke-linejoin:miter;stroke-width:1.5;"/>
   </g>
   <g id="patch_28">
    <path clip-path="url(#pfab5e75549)" d="M 376.9545 129.410813 
C 377.98561 129.410813 378.974627 129.058046 379.703731 128.430206 
C 380.432836 127.802366 380.8425 126.950712 380.8425 126.062813 
C 380.8425 125.174913 380.432836 124.323259 379.703731 123.695419 
C 378.974627 123.067579 377.98561 122.714813 376.9545 122.714813 
C 375.92339 122.714813 374.934373 123.067579 374.205269 123.695419 
C 373.476164 124.323259 373.0665 125.174913 373.0665 126.062813 
C 373.0665 126.950712 373.476164 127.802366 374.205269 128.430206 
C 374.934373 129.058046 375.92339 129.410813 376.9545 129.410813 
z
" style="fill:none;stroke:#000000;stroke-linejoin:miter;stroke-width:1.5;"/>
   </g>
   <g id="patch_29">
    <path clip-path="url(#pfab5e75549)" d="M 41.2905 213.110813 
C 42.32161 213.110813 43.310627 212.758046 44.039731 212.130206 
C 44.768836 211.502366 45.1785 210.650712 45.1785 209.762813 
C 45.1785 208.874913 44.768836 208.023259 44.039731 207.395419 
C 43.310627 206.767579 42.32161 206.414813 41.2905 206.414813 
C 40.25939 206.414813 39.270373 206.767579 38.541269 207.395419 
C 37.812164 208.023259 37.4025 208.874913 37.4025 209.762813 
C 37.4025 210.650712 37.812164 211.502366 38.541269 212.130206 
C 39.270373 212.758046 40.25939 213.110813 41.2905 213.110813 
z
" style="fill:none;stroke:#000000;stroke-linejoin:miter;stroke-width:1.5;"/>
   </g>
   <g id="patch_30">
    <path clip-path="url(#pfab5e75549)" d="M 65.9145 224.270813 
C 66.94561 224.270813 67.934627 223.918046 68.663731 223.290206 
C 69.392836 222.662366 69.8025 221.810712 69.8025 220.922813 
C 69.8025 220.034913 69.392836 219.183259 68.663731 218.555419 
C 67.934627 217.927579 66.94561 217.574813 65.9145 217.574813 
C 64.88339 217.574813 63.894373 217.927579 63.165269 218.555419 
C 62.436164 219.183259 62.0265 220.034913 62.0265 220.922813 
C 62.0265 221.810712 62.436164 222.662366 63.165269 223.290206 
C 63.894373 223.918046 64.88339 224.270813 65.9145 224.270813 
z
" style="fill:none;stroke:#000000;stroke-linejoin:miter;stroke-width:1.5;"/>
   </g>
   <g id="patch_31">
    <path clip-path="url(#pfab5e75549)" d="M 65.9145 201.950813 
C 66.94561 201.950813 67.934627 201.598046 68.663731 200.970206 
C 69.392836 200.342366 69.8025 199.490712 69.8025 198.602813 
C 69.8025 197.714913 69.392836 196.863259 68.663731 196.235419 
C 67.934627 195.607579 66.94561 195.254813 65.9145 195.254813 
C 64.88339 195.254813 63.894373 195.607579 63.165269 196.235419 
C 62.436164 196.863259 62.0265 197.714913 62.0265 198.602813 
C 62.0265 199.490712 62.436164 200.342366 63.165269 200.970206 
C 63.894373 201.598046 64.88339 201.950813 65.9145 201.950813 
z
" style="fill:none;stroke:#000000;stroke-linejoin:miter;stroke-width:1.5;"/>
   </g>
   <g id="patch_32">
    <path clip-path="url(#pfab5e75549)" d="M 196.8105 213.110813 
C 197.84161 213.110813 198.830627 212.758046 199.559731 212.130206 
C 200.288836 211.502366 200.6985 210.650712 200.6985 209.762813 
C 200.6985 208.874913 200.288836 208.023259 199.559731 207.395419 
C 198.830627 206.767579 197.84161 206.414813 196.8105 206.414813 
C 195.77939 206.414813 194.790373 206.767579 194.061269 207.395419 
C 193.332164 208.023259 192.9225 208.874913 192.9225 209.762813 
C 192.9225 210.650712 193.332164 211.502366 194.061269 212.130206 
C 194.790373 212.758046 195.77939 213.110813 196.8105 213.110813 
z
" style="fill:none;stroke:#000000;stroke-linejoin:miter;stroke-width:1.5;"/>
   </g>
   <g id="patch_33">
    <path clip-path="url(#pfab5e75549)" d="M 221.4345 224.270813 
C 222.46561 224.270813 223.454627 223.918046 224.183731 223.290206 
C 224.912836 222.662366 225.3225 221.810712 225.3225 220.922813 
C 225.3225 220.034913 224.912836 219.183259 224.183731 218.555419 
C 223.454627 217.927579 222.46561 217.574813 221.4345 217.574813 
C 220.40339 217.574813 219.414373 217.927579 218.685269 218.555419 
C 217.956164 219.183259 217.5465 220.034913 217.5465 220.922813 
C 217.5465 221.810712 217.956164 222.662366 218.685269 223.290206 
C 219.414373 223.918046 220.40339 224.270813 221.4345 224.270813 
z
" style="fill:none;stroke:#000000;stroke-linejoin:miter;stroke-width:1.5;"/>
   </g>
   <g id="patch_34">
    <path clip-path="url(#pfab5e75549)" d="M 221.4345 201.950813 
C 222.46561 201.950813 223.454627 201.598046 224.183731 200.970206 
C 224.912836 200.342366 225.3225 199.490712 225.3225 198.602813 
C 225.3225 197.714913 224.912836 196.863259 224.183731 196.235419 
C 223.454627 195.607579 222.46561 195.254813 221.4345 195.254813 
C 220.40339 195.254813 219.414373 195.607579 218.685269 196.235419 
C 217.956164 196.863259 217.5465 197.714913 217.5465 198.602813 
C 217.5465 199.490712 217.956164 200.342366 218.685269 200.970206 
C 219.414373 201.598046 220.40339 201.950813 221.4345 201.950813 
z
" style="fill:none;stroke:#000000;stroke-linejoin:miter;stroke-width:1.5;"/>
   </g>
   <g id="patch_35">
    <path clip-path="url(#pfab5e75549)" d="M 352.3305 213.110813 
C 353.36161 213.110813 354.350627 212.758046 355.079731 212.130206 
C 355.808836 211.502366 356.2185 210.650712 356.2185 209.762813 
C 356.2185 208.874913 355.808836 208.023259 355.079731 207.395419 
C 354.350627 206.767579 353.36161 206.414813 352.3305 206.414813 
C 351.29939 206.414813 350.310373 206.767579 349.581269 207.395419 
C 348.852164 208.023259 348.4425 208.874913 348.4425 209.762813 
C 348.4425 210.650712 348.852164 211.502366 349.581269 212.130206 
C 350.310373 212.758046 351.29939 213.110813 352.3305 213.110813 
z
" style="fill:none;stroke:#000000;stroke-linejoin:miter;stroke-width:1.5;"/>
   </g>
   <g id="patch_36">
    <path clip-path="url(#pfab5e75549)" d="M 376.9545 224.270813 
C 377.98561 224.270813 378.974627 223.918046 379.703731 223.290206 
C 380.432836 222.662366 380.8425 221.810712 380.8425 220.922813 
C 380.8425 220.034913 380.432836 219.183259 379.703731 218.555419 
C 378.974627 217.927579 377.98561 217.574813 376.9545 217.574813 
C 375.92339 217.574813 374.934373 217.927579 374.205269 218.555419 
C 373.476164 219.183259 373.0665 220.034913 373.0665 220.922813 
C 373.0665 221.810712 373.476164 222.662366 374.205269 223.290206 
C 374.934373 223.918046 375.92339 224.270813 376.9545 224.270813 
z
" style="fill:none;stroke:#000000;stroke-linejoin:miter;stroke-width:1.5;"/>
   </g>
   <g id="patch_37">
    <path clip-path="url(#pfab5e75549)" d="M 376.9545 201.950813 
C 377.98561 201.950813 378.974627 201.598046 379.703731 200.970206 
C 380.432836 200.342366 380.8425 199.490712 380.8425 198.602813 
C 380.8425 197.714913 380.432836 196.863259 379.703731 196.235419 
C 378.974627 195.607579 377.98561 195.254813 376.9545 195.254813 
C 375.92339 195.254813 374.934373 195.607579 374.205269 196.235419 
C 373.476164 196.863259 373.0665 197.714913 373.0665 198.602813 
C 373.0665 199.490712 373.476164 200.342366 374.205269 200.970206 
C 374.934373 201.598046 375.92339 201.950813 376.9545 201.950813 
z
" style="fill:none;stroke:#000000;stroke-linejoin:miter;stroke-width:1.5;"/>
   </g>
   <g id="text_1">
    <!-- SWITCH_SPST -->
    <defs>
     <path d="M 53.515625 70.515625 
L 53.515625 60.890625 
Q 47.90625 63.578125 42.921875 64.890625 
Q 37.9375 66.21875 33.296875 66.21875 
Q 25.25 66.21875 20.875 63.09375 
Q 16.5 59.96875 16.5 54.203125 
Q 16.5 49.359375 19.40625 46.890625 
Q 22.3125 44.4375 30.421875 42.921875 
L 36.375 41.703125 
Q 47.40625 39.59375 52.65625 34.296875 
Q 57.90625 29 57.90625 20.125 
Q 57.90625 9.515625 50.796875 4.046875 
Q 43.703125 -1.421875 29.984375 -1.421875 
Q 24.8125 -1.421875 18.96875 -0.25 
Q 13.140625 0.921875 6.890625 3.21875 
L 6.890625 13.375 
Q 12.890625 10.015625 18.65625 8.296875 
Q 24.421875 6.59375 29.984375 6.59375 
Q 38.421875 6.59375 43.015625 9.90625 
Q 47.609375 13.234375 47.609375 19.390625 
Q 47.609375 24.75 44.3125 27.78125 
Q 41.015625 30.8125 33.5 32.328125 
L 27.484375 33.5 
Q 16.453125 35.6875 11.515625 40.375 
Q 6.59375 45.0625 6.59375 53.421875 
Q 6.59375 63.09375 13.40625 68.65625 
Q 20.21875 74.21875 32.171875 74.21875 
Q 37.3125 74.21875 42.625 73.28125 
Q 47.953125 72.359375 53.515625 70.515625 
z
" id="DejaVuSans-83"/>
     <path d="M 3.328125 72.90625 
L 13.28125 72.90625 
L 28.609375 11.28125 
L 43.890625 72.90625 
L 54.984375 72.90625 
L 70.3125 11.28125 
L 85.59375 72.90625 
L 95.609375 72.90625 
L 77.296875 0 
L 64.890625 0 
L 49.515625 63.28125 
L 33.984375 0 
L 21.578125 0 
z
" id="DejaVuSans-87"/>
     <path d="M 9.8125 72.90625 
L 19.671875 72.90625 
L 19.671875 0 
L 9.8125 0 
z
" id="DejaVuSans-73"/>
     <path d="M -0.296875 72.90625 
L 61.375 72.90625 
L 61.375 64.59375 
L 35.5 64.59375 
L 35.5 0 
L 25.59375 0 
L 25.59375 64.59375 
L -0.296875 64.59375 
z
" id="DejaVuSans-84"/>
     <path d="M 64.40625 67.28125 
L 64.40625 56.890625 
Q 59.421875 61.53125 53.78125 63.8125 
Q 48.140625 66.109375 41.796875 66.109375 
Q 29.296875 66.109375 22.65625 58.46875 
Q 16.015625 50.828125 16.015625 36.375 
Q 16.015625 21.96875 22.65625 14.328125 
Q 29.296875 6.6875 41.796875 6.6875 
Q 48.140625 6.6875 53.78125 8.984375 
Q 59.421875 11.28125 64.40625 15.921875 
L 64.40625 5.609375 
Q 59.234375 2.09375 53.4375 0.328125 
Q 47.65625 -1.421875 41.21875 -1.421875 
Q 24.65625 -1.421875 15.125 8.703125 
Q 5.609375 18.84375 5.609375 36.375 
Q 5.609375 53.953125 15.125 64.078125 
Q 24.65625 74.21875 41.21875 74.21875 
Q 47.75 74.21875 53.53125 72.484375 
Q 59.328125 70.75 64.40625 67.28125 
z
" id="DejaVuSans-67"/>
     <path d="M 9.8125 72.90625 
L 19.671875 72.90625 
L 19.671875 43.015625 
L 55.515625 43.015625 
L 55.515625 72.90625 
L 65.375 72.90625 
L 65.375 0 
L 55.515625 0 
L 55.515625 34.71875 
L 19.671875 34.71875 
L 19.671875 0 
L 9.8125 0 
z
" id="DejaVuSans-72"/>
     <path d="M 50.984375 -16.609375 
L 50.984375 -23.578125 
L -0.984375 -23.578125 
L -0.984375 -16.609375 
z
" id="DejaVuSans-95"/>
     <path d="M 19.671875 64.796875 
L 19.671875 37.40625 
L 32.078125 37.40625 
Q 38.96875 37.40625 42.71875 40.96875 
Q 46.484375 44.53125 46.484375 51.125 
Q 46.484375 57.671875 42.71875 61.234375 
Q 38.96875 64.796875 32.078125 64.796875 
z
M 9.8125 72.90625 
L 32.078125 72.90625 
Q 44.34375 72.90625 50.609375 67.359375 
Q 56.890625 61.8125 56.890625 51.125 
Q 56.890625 40.328125 50.609375 34.8125 
Q 44.34375 29.296875 32.078125 29.296875 
L 19.671875 29.296875 
L 19.671875 0 
L 9.8125 0 
z
" id="DejaVuSans-80"/>
    </defs>
    <g transform="translate(44.228437 18.47775)scale(0.12 -0.12)">
     <use xlink:href="#DejaVuSans-83"/>
     <use x="63.476562" xlink:href="#DejaVuSans-87"/>
     <use x="162.353516" xlink:href="#DejaVuSans-73"/>
     <use x="191.845703" xlink:href="#DejaVuSans-84"/>
     <use x="252.851562" xlink:href="#DejaVuSans-67"/>
     <use x="322.675781" xlink:href="#DejaVuSans-72"/>
     <use x="397.871094" xlink:href="#DejaVuSans-95"/>
     <use x="447.871094" xlink:href="#DejaVuSans-83"/>
     <use x="511.347656" xlink:href="#DejaVuSans-80"/>
     <use x="571.650391" xlink:href="#DejaVuSans-83"/>
     <use x="635.126953" xlink:href="#DejaVuSans-84"/>
    </g>
   </g>
   <g id="text_2">
    <!-- SWITCH_SPST_OPEN -->
    <defs>
     <path d="M 39.40625 66.21875 
Q 28.65625 66.21875 22.328125 58.203125 
Q 16.015625 50.203125 16.015625 36.375 
Q 16.015625 22.609375 22.328125 14.59375 
Q 28.65625 6.59375 39.40625 6.59375 
Q 50.140625 6.59375 56.421875 14.59375 
Q 62.703125 22.609375 62.703125 36.375 
Q 62.703125 50.203125 56.421875 58.203125 
Q 50.140625 66.21875 39.40625 66.21875 
z
M 39.40625 74.21875 
Q 54.734375 74.21875 63.90625 63.9375 
Q 73.09375 53.65625 73.09375 36.375 
Q 73.09375 19.140625 63.90625 8.859375 
Q 54.734375 -1.421875 39.40625 -1.421875 
Q 24.03125 -1.421875 14.8125 8.828125 
Q 5.609375 19.09375 5.609375 36.375 
Q 5.609375 53.65625 14.8125 63.9375 
Q 24.03125 74.21875 39.40625 74.21875 
z
" id="DejaVuSans-79"/>
     <path d="M 9.8125 72.90625 
L 55.90625 72.90625 
L 55.90625 64.59375 
L 19.671875 64.59375 
L 19.671875 43.015625 
L 54.390625 43.015625 
L 54.390625 34.71875 
L 19.671875 34.71875 
L 19.671875 8.296875 
L 56.78125 8.296875 
L 56.78125 0 
L 9.8125 0 
z
" id="DejaVuSans-69"/>
     <path d="M 9.8125 72.90625 
L 23.09375 72.90625 
L 55.421875 11.921875 
L 55.421875 72.90625 
L 64.984375 72.90625 
L 64.984375 0 
L 51.703125 0 
L 19.390625 60.984375 
L 19.390625 0 
L 9.8125 0 
z
" id="DejaVuSans-78"/>
    </defs>
    <g transform="translate(180.1275 20.29125)scale(0.12 -0.12)">
     <use xlink:href="#DejaVuSans-83"/>
     <use x="63.476562" xlink:href="#DejaVuSans-87"/>
     <use x="162.353516" xlink:href="#DejaVuSans-73"/>
     <use x="191.845703" xlink:href="#DejaVuSans-84"/>
     <use x="252.851562" xlink:href="#DejaVuSans-67"/>
     <use x="322.675781" xlink:href="#DejaVuSans-72"/>
     <use x="397.871094" xlink:href="#DejaVuSans-95"/>
     <use x="447.871094" xlink:href="#DejaVuSans-83"/>
     <use x="511.347656" xlink:href="#DejaVuSans-80"/>
     <use x="571.650391" xlink:href="#DejaVuSans-83"/>
     <use x="635.126953" xlink:href="#DejaVuSans-84"/>
     <use x="696.210938" xlink:href="#DejaVuSans-95"/>
     <use x="746.210938" xlink:href="#DejaVuSans-79"/>
     <use x="824.921875" xlink:href="#DejaVuSans-80"/>
     <use x="885.224609" xlink:href="#DejaVuSans-69"/>
     <use x="948.408203" xlink:href="#DejaVuSans-78"/>
    </g>
   </g>
   <g id="text_3">
    <!-- SWITCH_SPST_CLOSE -->
    <defs>
     <path d="M 9.8125 72.90625 
L 19.671875 72.90625 
L 19.671875 8.296875 
L 55.171875 8.296875 
L 55.171875 0 
L 9.8125 0 
z
" id="DejaVuSans-76"/>
    </defs>
    <g transform="translate(332.415 16.10625)scale(0.12 -0.12)">
     <use xlink:href="#DejaVuSans-83"/>
     <use x="63.476562" xlink:href="#DejaVuSans-87"/>
     <use x="162.353516" xlink:href="#DejaVuSans-73"/>
     <use x="191.845703" xlink:href="#DejaVuSans-84"/>
     <use x="252.851562" xlink:href="#DejaVuSans-67"/>
     <use x="322.675781" xlink:href="#DejaVuSans-72"/>
     <use x="397.871094" xlink:href="#DejaVuSans-95"/>
     <use x="447.871094" xlink:href="#DejaVuSans-83"/>
     <use x="511.347656" xlink:href="#DejaVuSans-80"/>
     <use x="571.650391" xlink:href="#DejaVuSans-83"/>
     <use x="635.126953" xlink:href="#DejaVuSans-84"/>
     <use x="696.210938" xlink:href="#DejaVuSans-95"/>
     <use x="746.210938" xlink:href="#DejaVuSans-67"/>
     <use x="816.035156" xlink:href="#DejaVuSans-76"/>
     <use x="871.701172" xlink:href="#DejaVuSans-79"/>
     <use x="950.412109" xlink:href="#DejaVuSans-83"/>
     <use x="1013.888672" xlink:href="#DejaVuSans-69"/>
    </g>
   </g>
   <g id="text_4">
    <!-- SWITCH_SPDT -->
    <defs>
     <path d="M 19.671875 64.796875 
L 19.671875 8.109375 
L 31.59375 8.109375 
Q 46.6875 8.109375 53.6875 14.9375 
Q 60.6875 21.78125 60.6875 36.53125 
Q 60.6875 51.171875 53.6875 57.984375 
Q 46.6875 64.796875 31.59375 64.796875 
z
M 9.8125 72.90625 
L 30.078125 72.90625 
Q 51.265625 72.90625 61.171875 64.09375 
Q 71.09375 55.28125 71.09375 36.53125 
Q 71.09375 17.671875 61.125 8.828125 
Q 51.171875 0 30.078125 0 
L 9.8125 0 
z
" id="DejaVuSans-68"/>
    </defs>
    <g transform="translate(11.0175 97.01625)scale(0.12 -0.12)">
     <use xlink:href="#DejaVuSans-83"/>
     <use x="63.476562" xlink:href="#DejaVuSans-87"/>
     <use x="162.353516" xlink:href="#DejaVuSans-73"/>
     <use x="191.845703" xlink:href="#DejaVuSans-84"/>
     <use x="252.851562" xlink:href="#DejaVuSans-67"/>
     <use x="322.675781" xlink:href="#DejaVuSans-72"/>
     <use x="397.871094" xlink:href="#DejaVuSans-95"/>
     <use x="447.871094" xlink:href="#DejaVuSans-83"/>
     <use x="511.347656" xlink:href="#DejaVuSans-80"/>
     <use x="571.650391" xlink:href="#DejaVuSans-68"/>
     <use x="648.652344" xlink:href="#DejaVuSans-84"/>
    </g>
   </g>
   <g id="text_5">
    <!-- SWITCH_SPDT_OPEN -->
    <g transform="translate(145.296562 103.99125)scale(0.12 -0.12)">
     <use xlink:href="#DejaVuSans-83"/>
     <use x="63.476562" xlink:href="#DejaVuSans-87"/>
     <use x="162.353516" xlink:href="#DejaVuSans-73"/>
     <use x="191.845703" xlink:href="#DejaVuSans-84"/>
     <use x="252.851562" xlink:href="#DejaVuSans-67"/>
     <use x="322.675781" xlink:href="#DejaVuSans-72"/>
     <use x="397.871094" xlink:href="#DejaVuSans-95"/>
     <use x="447.871094" xlink:href="#DejaVuSans-83"/>
     <use x="511.347656" xlink:href="#DejaVuSans-80"/>
     <use x="571.650391" xlink:href="#DejaVuSans-68"/>
     <use x="648.652344" xlink:href="#DejaVuSans-84"/>
     <use x="709.736328" xlink:href="#DejaVuSans-95"/>
     <use x="759.736328" xlink:href="#DejaVuSans-79"/>
     <use x="838.447266" xlink:href="#DejaVuSans-80"/>
     <use x="898.75" xlink:href="#DejaVuSans-69"/>
     <use x="961.933594" xlink:href="#DejaVuSans-78"/>
    </g>
   </g>
   <g id="text_6">
    <!-- SWITCH_SPDT_CLOSE -->
    <g transform="translate(297.584062 99.80625)scale(0.12 -0.12)">
     <use xlink:href="#DejaVuSans-83"/>
     <use x="63.476562" xlink:href="#DejaVuSans-87"/>
     <use x="162.353516" xlink:href="#DejaVuSans-73"/>
     <use x="191.845703" xlink:href="#DejaVuSans-84"/>
     <use x="252.851562" xlink:href="#DejaVuSans-67"/>
     <use x="322.675781" xlink:href="#DejaVuSans-72"/>
     <use x="397.871094" xlink:href="#DejaVuSans-95"/>
     <use x="447.871094" xlink:href="#DejaVuSans-83"/>
     <use x="511.347656" xlink:href="#DejaVuSans-80"/>
     <use x="571.650391" xlink:href="#DejaVuSans-68"/>
     <use x="648.652344" xlink:href="#DejaVuSans-84"/>
     <use x="709.736328" xlink:href="#DejaVuSans-95"/>
     <use x="759.736328" xlink:href="#DejaVuSans-67"/>
     <use x="829.560547" xlink:href="#DejaVuSans-76"/>
     <use x="885.226562" xlink:href="#DejaVuSans-79"/>
     <use x="963.9375" xlink:href="#DejaVuSans-83"/>
     <use x="1027.414062" xlink:href="#DejaVuSans-69"/>
    </g>
   </g>
   <g id="text_7">
    <!-- SWITCH_SPDT2 -->
    <defs>
     <path d="M 19.1875 8.296875 
L 53.609375 8.296875 
L 53.609375 0 
L 7.328125 0 
L 7.328125 8.296875 
Q 12.9375 14.109375 22.625 23.890625 
Q 32.328125 33.6875 34.8125 36.53125 
Q 39.546875 41.84375 41.421875 45.53125 
Q 43.3125 49.21875 43.3125 52.78125 
Q 43.3125 58.59375 39.234375 62.25 
Q 35.15625 65.921875 28.609375 65.921875 
Q 23.96875 65.921875 18.8125 64.3125 
Q 13.671875 62.703125 7.8125 59.421875 
L 7.8125 69.390625 
Q 13.765625 71.78125 18.9375 73 
Q 24.125 74.21875 28.421875 74.21875 
Q 39.75 74.21875 46.484375 68.546875 
Q 53.21875 62.890625 53.21875 53.421875 
Q 53.21875 48.921875 51.53125 44.890625 
Q 49.859375 40.875 45.40625 35.40625 
Q 44.1875 33.984375 37.640625 27.21875 
Q 31.109375 20.453125 19.1875 8.296875 
z
" id="DejaVuSans-50"/>
    </defs>
    <g transform="translate(7.2 190.48125)scale(0.12 -0.12)">
     <use xlink:href="#DejaVuSans-83"/>
     <use x="63.476562" xlink:href="#DejaVuSans-87"/>
     <use x="162.353516" xlink:href="#DejaVuSans-73"/>
     <use x="191.845703" xlink:href="#DejaVuSans-84"/>
     <use x="252.851562" xlink:href="#DejaVuSans-67"/>
     <use x="322.675781" xlink:href="#DejaVuSans-72"/>
     <use x="397.871094" xlink:href="#DejaVuSans-95"/>
     <use x="447.871094" xlink:href="#DejaVuSans-83"/>
     <use x="511.347656" xlink:href="#DejaVuSans-80"/>
     <use x="571.650391" xlink:href="#DejaVuSans-68"/>
     <use x="648.652344" xlink:href="#DejaVuSans-84"/>
     <use x="709.736328" xlink:href="#DejaVuSans-50"/>
    </g>
   </g>
   <g id="text_8">
    <!-- SWITCH_SPDT2_OPEN -->
    <g transform="translate(140.669062 190.48125)scale(0.12 -0.12)">
     <use xlink:href="#DejaVuSans-83"/>
     <use x="63.476562" xlink:href="#DejaVuSans-87"/>
     <use x="162.353516" xlink:href="#DejaVuSans-73"/>
     <use x="191.845703" xlink:href="#DejaVuSans-84"/>
     <use x="252.851562" xlink:href="#DejaVuSans-67"/>
     <use x="322.675781" xlink:href="#DejaVuSans-72"/>
     <use x="397.871094" xlink:href="#DejaVuSans-95"/>
     <use x="447.871094" xlink:href="#DejaVuSans-83"/>
     <use x="511.347656" xlink:href="#DejaVuSans-80"/>
     <use x="571.650391" xlink:href="#DejaVuSans-68"/>
     <use x="648.652344" xlink:href="#DejaVuSans-84"/>
     <use x="709.736328" xlink:href="#DejaVuSans-50"/>
     <use x="773.359375" xlink:href="#DejaVuSans-95"/>
     <use x="823.359375" xlink:href="#DejaVuSans-79"/>
     <use x="902.070312" xlink:href="#DejaVuSans-80"/>
     <use x="962.373047" xlink:href="#DejaVuSans-69"/>
     <use x="1025.556641" xlink:href="#DejaVuSans-78"/>
    </g>
   </g>
   <g id="text_9">
    <!-- SWITCH_SPDT2_CLOSE -->
    <g transform="translate(292.146562 187.69125)scale(0.12 -0.12)">
     <use xlink:href="#DejaVuSans-83"/>
     <use x="63.476562" xlink:href="#DejaVuSans-87"/>
     <use x="162.353516" xlink:href="#DejaVuSans-73"/>
     <use x="191.845703" xlink:href="#DejaVuSans-84"/>
     <use x="252.851562" xlink:href="#DejaVuSans-67"/>
     <use x="322.675781" xlink:href="#DejaVuSans-72"/>
     <use x="397.871094" xlink:href="#DejaVuSans-95"/>
     <use x="447.871094" xlink:href="#DejaVuSans-83"/>
     <use x="511.347656" xlink:href="#DejaVuSans-80"/>
     <use x="571.650391" xlink:href="#DejaVuSans-68"/>
     <use x="648.652344" xlink:href="#DejaVuSans-84"/>
     <use x="709.736328" xlink:href="#DejaVuSans-50"/>
     <use x="773.359375" xlink:href="#DejaVuSans-95"/>
     <use x="823.359375" xlink:href="#DejaVuSans-67"/>
     <use x="893.183594" xlink:href="#DejaVuSans-76"/>
     <use x="948.849609" xlink:href="#DejaVuSans-79"/>
     <use x="1027.560547" xlink:href="#DejaVuSans-83"/>
     <use x="1091.037109" xlink:href="#DejaVuSans-69"/>
    </g>
   </g>
  </g>
 </g>
 <defs>
  <clipPath id="pfab5e75549">
   <rect height="224.86005" width="455.544" x="13.7505" y="12.168038"/>
  </clipPath>
 </defs>
</svg>
