<?xml version="1.0" encoding="utf-8" standalone="no"?>
<!DOCTYPE svg PUBLIC "-//W3C//DTD SVG 1.1//EN"
  "http://www.w3.org/Graphics/SVG/1.1/DTD/svg11.dtd">
<!-- Created with matplotlib (http://matplotlib.org/) -->
<svg height="275pt" version="1.1" viewBox="0 0 479 275" width="479pt" xmlns="http://www.w3.org/2000/svg" xmlns:xlink="http://www.w3.org/1999/xlink">
 <defs>
  <style type="text/css">
*{stroke-linecap:butt;stroke-linejoin:round;}
  </style>
 </defs>
 <g id="figure_1">
  <g id="patch_1">
   <path d="M 0 275.234874 
L 479.9945 275.234874 
L 479.9945 0 
L 0 0 
z
" style="fill:none;"/>
  </g>
  <g id="axes_1">
   <g id="patch_2">
    <path clip-path="url(#p3ed27329d4)" d="M 246.259443 49.998238 
C 246.590048 47.342053 246.249245 44.603935 245.297306 42.268125 
C 244.345367 39.932315 242.841924 38.145136 241.052863 37.222652 
" style="fill:none;stroke:#000000;stroke-linejoin:miter;stroke-width:1.5;"/>
   </g>
   <g id="patch_3">
    <path clip-path="url(#p3ed27329d4)" d="M 401.779443 45.408238 
C 402.110048 42.752053 401.769245 40.013935 400.817306 37.678125 
C 399.865367 35.342315 398.361924 33.555136 396.572863 32.632652 
" style="fill:none;stroke:#000000;stroke-linejoin:miter;stroke-width:1.5;"/>
   </g>
   <g id="patch_4">
    <path clip-path="url(#p3ed27329d4)" d="M 213.859443 141.798238 
C 214.190048 139.142053 213.849245 136.403935 212.897306 134.068125 
C 211.945367 131.732315 210.441924 129.945136 208.652863 129.022652 
" style="fill:none;stroke:#000000;stroke-linejoin:miter;stroke-width:1.5;"/>
   </g>
   <g id="patch_5">
    <path clip-path="url(#p3ed27329d4)" d="M 369.379443 137.208238 
C 369.710048 134.552053 369.369245 131.813935 368.417306 129.478125 
C 367.465367 127.142315 365.961924 125.355136 364.172863 124.432652 
" style="fill:none;stroke:#000000;stroke-linejoin:miter;stroke-width:1.5;"/>
   </g>
   <g id="patch_6">
    <path clip-path="url(#p3ed27329d4)" d="M 212.239443 236.658238 
C 212.570048 234.002053 212.229245 231.263935 211.277306 228.928125 
C 210.325367 226.592315 208.821924 224.805136 207.032863 223.882652 
" style="fill:none;stroke:#000000;stroke-linejoin:miter;stroke-width:1.5;"/>
   </g>
   <g id="patch_7">
    <path clip-path="url(#p3ed27329d4)" d="M 366.139443 233.598238 
C 366.470048 230.942053 366.129245 228.203935 365.177306 225.868125 
C 364.225367 223.532315 362.721924 221.745136 360.932863 220.822652 
" style="fill:none;stroke:#000000;stroke-linejoin:miter;stroke-width:1.5;"/>
   </g>
   <g id="patch_8">
    <path clip-path="url(#p3ed27329d4)" d="M 233.136893 34.50154 
L 241.579512 34.961399 
L 240.753943 37.103617 
L 241.058404 37.208275 
L 241.047322 37.237029 
L 240.742862 37.132371 
L 239.917294 39.274589 
z
" style="stroke:#000000;stroke-linejoin:miter;"/>
   </g>
   <g id="patch_9">
    <path clip-path="url(#p3ed27329d4)" d="M 400.316631 53.243368 
L 399.330098 45.311066 
L 401.707227 45.706932 
L 401.763489 45.405581 
L 401.795397 45.410895 
L 401.739135 45.712246 
L 404.116264 46.108112 
z
" style="stroke:#000000;stroke-linejoin:miter;"/>
   </g>
   <g id="patch_10">
    <path clip-path="url(#p3ed27329d4)" d="M 200.736893 126.30154 
L 209.179512 126.761399 
L 208.353943 128.903617 
L 208.658404 129.008275 
L 208.647322 129.037029 
L 208.342862 128.932371 
L 207.517294 131.074589 
z
" style="stroke:#000000;stroke-linejoin:miter;"/>
   </g>
   <g id="patch_11">
    <path clip-path="url(#p3ed27329d4)" d="M 367.916631 145.043368 
L 366.930098 137.111066 
L 369.307227 137.506932 
L 369.363489 137.205581 
L 369.395397 137.210895 
L 369.339135 137.512246 
L 371.716264 137.908112 
z
" style="stroke:#000000;stroke-linejoin:miter;"/>
   </g>
   <g id="patch_12">
    <path clip-path="url(#p3ed27329d4)" d="M 199.116893 221.16154 
L 207.559512 221.621399 
L 206.733943 223.763617 
L 207.038404 223.868275 
L 207.027322 223.897029 
L 206.722862 223.792371 
L 205.897294 225.934589 
z
" style="stroke:#000000;stroke-linejoin:miter;"/>
   </g>
   <g id="patch_13">
    <path clip-path="url(#p3ed27329d4)" d="M 364.676631 241.433368 
L 363.690098 233.501066 
L 366.067227 233.896932 
L 366.123489 233.595581 
L 366.155397 233.600895 
L 366.099135 233.902246 
L 368.476264 234.298112 
z
" style="stroke:#000000;stroke-linejoin:miter;"/>
   </g>
   <g id="line2d_1">
    <path clip-path="url(#p3ed27329d4)" d="M 37.4025 51.065625 
L 69.8025 51.065625 
M 77.5785 48.005625 
L 95.7225 37.295625 
M 102.2025 51.065625 
L 134.6025 51.065625 
" style="fill:none;stroke:#000000;stroke-linecap:round;stroke-width:1.5;"/>
   </g>
   <g id="line2d_2">
    <path clip-path="url(#p3ed27329d4)" d="M 192.9225 51.065625 
L 225.3225 51.065625 
M 233.0985 48.005625 
L 251.2425 37.295625 
M 257.7225 51.065625 
L 290.1225 51.065625 
" style="fill:none;stroke:#000000;stroke-linecap:round;stroke-width:1.5;"/>
   </g>
   <g id="line2d_3">
    <path clip-path="url(#p3ed27329d4)" d="M 348.4425 51.065625 
L 380.8425 51.065625 
M 388.6185 48.005625 
L 406.7625 37.295625 
M 413.2425 51.065625 
L 445.6425 51.065625 
" style="fill:none;stroke:#000000;stroke-linecap:round;stroke-width:1.5;"/>
   </g>
   <g id="line2d_4">
    <path clip-path="url(#p3ed27329d4)" d="M 37.4025 142.865625 
M 45.1785 139.805625 
L 63.3225 129.095625 
M 69.8025 142.865625 
" style="fill:none;stroke:#000000;stroke-linecap:round;stroke-width:1.5;"/>
   </g>
   <g id="line2d_5">
    <path clip-path="url(#p3ed27329d4)" d="M 192.9225 142.865625 
M 200.6985 139.805625 
L 218.8425 129.095625 
M 225.3225 142.865625 
" style="fill:none;stroke:#000000;stroke-linecap:round;stroke-width:1.5;"/>
   </g>
   <g id="line2d_6">
    <path clip-path="url(#p3ed27329d4)" d="M 348.4425 142.865625 
M 356.2185 139.805625 
L 374.3625 129.095625 
M 380.8425 142.865625 
" style="fill:none;stroke:#000000;stroke-linecap:round;stroke-width:1.5;"/>
   </g>
   <g id="line2d_7">
    <path clip-path="url(#p3ed27329d4)" d="M 37.4025 234.665625 
M 45.1785 231.605625 
L 60.0825 227.015625 
M 69.8025 222.425625 
" style="fill:none;stroke:#000000;stroke-linecap:round;stroke-width:1.5;"/>
   </g>
   <g id="line2d_8">
    <path clip-path="url(#p3ed27329d4)" d="M 192.9225 234.665625 
M 200.6985 231.605625 
L 215.6025 227.015625 
M 225.3225 222.425625 
" style="fill:none;stroke:#000000;stroke-linecap:round;stroke-width:1.5;"/>
   </g>
   <g id="line2d_9">
    <path clip-path="url(#p3ed27329d4)" d="M 348.4425 234.665625 
M 356.2185 231.605625 
L 371.1225 227.015625 
M 380.8425 222.425625 
" style="fill:none;stroke:#000000;stroke-linecap:round;stroke-width:1.5;"/>
   </g>
   <g id="patch_14">
    <path clip-path="url(#p3ed27329d4)" d="M 73.6905 54.737625 
C 74.72161 54.737625 75.710627 54.35072 76.439731 53.662121 
C 77.168836 52.973522 77.5785 52.039451 77.5785 51.065625 
C 77.5785 50.091799 77.168836 49.157728 76.439731 48.469129 
C 75.710627 47.78053 74.72161 47.393625 73.6905 47.393625 
C 72.65939 47.393625 71.670373 47.78053 70.941269 48.469129 
C 70.212164 49.157728 69.8025 50.091799 69.8025 51.065625 
C 69.8025 52.039451 70.212164 52.973522 70.941269 53.662121 
C 71.670373 54.35072 72.65939 54.737625 73.6905 54.737625 
z
" style="fill:none;stroke:#000000;stroke-linejoin:miter;stroke-width:1.5;"/>
   </g>
   <g id="patch_15">
    <path clip-path="url(#p3ed27329d4)" d="M 98.3145 54.737625 
C 99.34561 54.737625 100.334627 54.35072 101.063731 53.662121 
C 101.792836 52.973522 102.2025 52.039451 102.2025 51.065625 
C 102.2025 50.091799 101.792836 49.157728 101.063731 48.469129 
C 100.334627 47.78053 99.34561 47.393625 98.3145 47.393625 
C 97.28339 47.393625 96.294373 47.78053 95.565269 48.469129 
C 94.836164 49.157728 94.4265 50.091799 94.4265 51.065625 
C 94.4265 52.039451 94.836164 52.973522 95.565269 53.662121 
C 96.294373 54.35072 97.28339 54.737625 98.3145 54.737625 
z
" style="fill:none;stroke:#000000;stroke-linejoin:miter;stroke-width:1.5;"/>
   </g>
   <g id="patch_16">
    <path clip-path="url(#p3ed27329d4)" d="M 229.2105 54.737625 
C 230.24161 54.737625 231.230627 54.35072 231.959731 53.662121 
C 232.688836 52.973522 233.0985 52.039451 233.0985 51.065625 
C 233.0985 50.091799 232.688836 49.157728 231.959731 48.469129 
C 231.230627 47.78053 230.24161 47.393625 229.2105 47.393625 
C 228.17939 47.393625 227.190373 47.78053 226.461269 48.469129 
C 225.732164 49.157728 225.3225 50.091799 225.3225 51.065625 
C 225.3225 52.039451 225.732164 52.973522 226.461269 53.662121 
C 227.190373 54.35072 228.17939 54.737625 229.2105 54.737625 
z
" style="fill:none;stroke:#000000;stroke-linejoin:miter;stroke-width:1.5;"/>
   </g>
   <g id="patch_17">
    <path clip-path="url(#p3ed27329d4)" d="M 253.8345 54.737625 
C 254.86561 54.737625 255.854627 54.35072 256.583731 53.662121 
C 257.312836 52.973522 257.7225 52.039451 257.7225 51.065625 
C 257.7225 50.091799 257.312836 49.157728 256.583731 48.469129 
C 255.854627 47.78053 254.86561 47.393625 253.8345 47.393625 
C 252.80339 47.393625 251.814373 47.78053 251.085269 48.469129 
C 250.356164 49.157728 249.9465 50.091799 249.9465 51.065625 
C 249.9465 52.039451 250.356164 52.973522 251.085269 53.662121 
C 251.814373 54.35072 252.80339 54.737625 253.8345 54.737625 
z
" style="fill:none;stroke:#000000;stroke-linejoin:miter;stroke-width:1.5;"/>
   </g>
   <g id="patch_18">
    <path clip-path="url(#p3ed27329d4)" d="M 384.7305 54.737625 
C 385.76161 54.737625 386.750627 54.35072 387.479731 53.662121 
C 388.208836 52.973522 388.6185 52.039451 388.6185 51.065625 
C 388.6185 50.091799 388.208836 49.157728 387.479731 48.469129 
C 386.750627 47.78053 385.76161 47.393625 384.7305 47.393625 
C 383.69939 47.393625 382.710373 47.78053 381.981269 48.469129 
C 381.252164 49.157728 380.8425 50.091799 380.8425 51.065625 
C 380.8425 52.039451 381.252164 52.973522 381.981269 53.662121 
C 382.710373 54.35072 383.69939 54.737625 384.7305 54.737625 
z
" style="fill:none;stroke:#000000;stroke-linejoin:miter;stroke-width:1.5;"/>
   </g>
   <g id="patch_19">
    <path clip-path="url(#p3ed27329d4)" d="M 409.3545 54.737625 
C 410.38561 54.737625 411.374627 54.35072 412.103731 53.662121 
C 412.832836 52.973522 413.2425 52.039451 413.2425 51.065625 
C 413.2425 50.091799 412.832836 49.157728 412.103731 48.469129 
C 411.374627 47.78053 410.38561 47.393625 409.3545 47.393625 
C 408.32339 47.393625 407.334373 47.78053 406.605269 48.469129 
C 405.876164 49.157728 405.4665 50.091799 405.4665 51.065625 
C 405.4665 52.039451 405.876164 52.973522 406.605269 53.662121 
C 407.334373 54.35072 408.32339 54.737625 409.3545 54.737625 
z
" style="fill:none;stroke:#000000;stroke-linejoin:miter;stroke-width:1.5;"/>
   </g>
   <g id="patch_20">
    <path clip-path="url(#p3ed27329d4)" d="M 65.9145 125.117625 
C 66.94561 125.117625 67.934627 124.73072 68.663731 124.042121 
C 69.392836 123.353522 69.8025 122.419451 69.8025 121.445625 
C 69.8025 120.471799 69.392836 119.537728 68.663731 118.849129 
C 67.934627 118.16053 66.94561 117.773625 65.9145 117.773625 
C 64.88339 117.773625 63.894373 118.16053 63.165269 118.849129 
C 62.436164 119.537728 62.0265 120.471799 62.0265 121.445625 
C 62.0265 122.419451 62.436164 123.353522 63.165269 124.042121 
C 63.894373 124.73072 64.88339 125.117625 65.9145 125.117625 
z
" style="fill:none;stroke:#000000;stroke-linejoin:miter;stroke-width:1.5;"/>
   </g>
   <g id="patch_21">
    <path clip-path="url(#p3ed27329d4)" d="M 41.2905 146.537625 
C 42.32161 146.537625 43.310627 146.15072 44.039731 145.462121 
C 44.768836 144.773522 45.1785 143.839451 45.1785 142.865625 
C 45.1785 141.891799 44.768836 140.957728 44.039731 140.269129 
C 43.310627 139.58053 42.32161 139.193625 41.2905 139.193625 
C 40.25939 139.193625 39.270373 139.58053 38.541269 140.269129 
C 37.812164 140.957728 37.4025 141.891799 37.4025 142.865625 
C 37.4025 143.839451 37.812164 144.773522 38.541269 145.462121 
C 39.270373 146.15072 40.25939 146.537625 41.2905 146.537625 
z
" style="fill:none;stroke:#000000;stroke-linejoin:miter;stroke-width:1.5;"/>
   </g>
   <g id="patch_22">
    <path clip-path="url(#p3ed27329d4)" d="M 65.9145 146.537625 
C 66.94561 146.537625 67.934627 146.15072 68.663731 145.462121 
C 69.392836 144.773522 69.8025 143.839451 69.8025 142.865625 
C 69.8025 141.891799 69.392836 140.957728 68.663731 140.269129 
C 67.934627 139.58053 66.94561 139.193625 65.9145 139.193625 
C 64.88339 139.193625 63.894373 139.58053 63.165269 140.269129 
C 62.436164 140.957728 62.0265 141.891799 62.0265 142.865625 
C 62.0265 143.839451 62.436164 144.773522 63.165269 145.462121 
C 63.894373 146.15072 64.88339 146.537625 65.9145 146.537625 
z
" style="fill:none;stroke:#000000;stroke-linejoin:miter;stroke-width:1.5;"/>
   </g>
   <g id="patch_23">
    <path clip-path="url(#p3ed27329d4)" d="M 221.4345 125.117625 
C 222.46561 125.117625 223.454627 124.73072 224.183731 124.042121 
C 224.912836 123.353522 225.3225 122.419451 225.3225 121.445625 
C 225.3225 120.471799 224.912836 119.537728 224.183731 118.849129 
C 223.454627 118.16053 222.46561 117.773625 221.4345 117.773625 
C 220.40339 117.773625 219.414373 118.16053 218.685269 118.849129 
C 217.956164 119.537728 217.5465 120.471799 217.5465 121.445625 
C 217.5465 122.419451 217.956164 123.353522 218.685269 124.042121 
C 219.414373 124.73072 220.40339 125.117625 221.4345 125.117625 
z
" style="fill:none;stroke:#000000;stroke-linejoin:miter;stroke-width:1.5;"/>
   </g>
   <g id="patch_24">
    <path clip-path="url(#p3ed27329d4)" d="M 196.8105 146.537625 
C 197.84161 146.537625 198.830627 146.15072 199.559731 145.462121 
C 200.288836 144.773522 200.6985 143.839451 200.6985 142.865625 
C 200.6985 141.891799 200.288836 140.957728 199.559731 140.269129 
C 198.830627 139.58053 197.84161 139.193625 196.8105 139.193625 
C 195.77939 139.193625 194.790373 139.58053 194.061269 140.269129 
C 193.332164 140.957728 192.9225 141.891799 192.9225 142.865625 
C 192.9225 143.839451 193.332164 144.773522 194.061269 145.462121 
C 194.790373 146.15072 195.77939 146.537625 196.8105 146.537625 
z
" style="fill:none;stroke:#000000;stroke-linejoin:miter;stroke-width:1.5;"/>
   </g>
   <g id="patch_25">
    <path clip-path="url(#p3ed27329d4)" d="M 221.4345 146.537625 
C 222.46561 146.537625 223.454627 146.15072 224.183731 145.462121 
C 224.912836 144.773522 225.3225 143.839451 225.3225 142.865625 
C 225.3225 141.891799 224.912836 140.957728 224.183731 140.269129 
C 223.454627 139.58053 222.46561 139.193625 221.4345 139.193625 
C 220.40339 139.193625 219.414373 139.58053 218.685269 140.269129 
C 217.956164 140.957728 217.5465 141.891799 217.5465 142.865625 
C 217.5465 143.839451 217.956164 144.773522 218.685269 145.462121 
C 219.414373 146.15072 220.40339 146.537625 221.4345 146.537625 
z
" style="fill:none;stroke:#000000;stroke-linejoin:miter;stroke-width:1.5;"/>
   </g>
   <g id="patch_26">
    <path clip-path="url(#p3ed27329d4)" d="M 376.9545 125.117625 
C 377.98561 125.117625 378.974627 124.73072 379.703731 124.042121 
C 380.432836 123.353522 380.8425 122.419451 380.8425 121.445625 
C 380.8425 120.471799 380.432836 119.537728 379.703731 118.849129 
C 378.974627 118.16053 377.98561 117.773625 376.9545 117.773625 
C 375.92339 117.773625 374.934373 118.16053 374.205269 118.849129 
C 373.476164 119.537728 373.0665 120.471799 373.0665 121.445625 
C 373.0665 122.419451 373.476164 123.353522 374.205269 124.042121 
C 374.934373 124.73072 375.92339 125.117625 376.9545 125.117625 
z
" style="fill:none;stroke:#000000;stroke-linejoin:miter;stroke-width:1.5;"/>
   </g>
   <g id="patch_27">
    <path clip-path="url(#p3ed27329d4)" d="M 352.3305 146.537625 
C 353.36161 146.537625 354.350627 146.15072 355.079731 145.462121 
C 355.808836 144.773522 356.2185 143.839451 356.2185 142.865625 
C 356.2185 141.891799 355.808836 140.957728 355.079731 140.269129 
C 354.350627 139.58053 353.36161 139.193625 352.3305 139.193625 
C 351.29939 139.193625 350.310373 139.58053 349.581269 140.269129 
C 348.852164 140.957728 348.4425 141.891799 348.4425 142.865625 
C 348.4425 143.839451 348.852164 144.773522 349.581269 145.462121 
C 350.310373 146.15072 351.29939 146.537625 352.3305 146.537625 
z
" style="fill:none;stroke:#000000;stroke-linejoin:miter;stroke-width:1.5;"/>
   </g>
   <g id="patch_28">
    <path clip-path="url(#p3ed27329d4)" d="M 376.9545 146.537625 
C 377.98561 146.537625 378.974627 146.15072 379.703731 145.462121 
C 380.432836 144.773522 380.8425 143.839451 380.8425 142.865625 
C 380.8425 141.891799 380.432836 140.957728 379.703731 140.269129 
C 378.974627 139.58053 377.98561 139.193625 376.9545 139.193625 
C 375.92339 139.193625 374.934373 139.58053 374.205269 140.269129 
C 373.476164 140.957728 373.0665 141.891799 373.0665 142.865625 
C 373.0665 143.839451 373.476164 144.773522 374.205269 145.462121 
C 374.934373 146.15072 375.92339 146.537625 376.9545 146.537625 
z
" style="fill:none;stroke:#000000;stroke-linejoin:miter;stroke-width:1.5;"/>
   </g>
   <g id="patch_29">
    <path clip-path="url(#p3ed27329d4)" d="M 41.2905 238.337625 
C 42.32161 238.337625 43.310627 237.95072 44.039731 237.262121 
C 44.768836 236.573522 45.1785 235.639451 45.1785 234.665625 
C 45.1785 233.691799 44.768836 232.757728 44.039731 232.069129 
C 43.310627 231.38053 42.32161 230.993625 41.2905 230.993625 
C 40.25939 230.993625 39.270373 231.38053 38.541269 232.069129 
C 37.812164 232.757728 37.4025 233.691799 37.4025 234.665625 
C 37.4025 235.639451 37.812164 236.573522 38.541269 237.262121 
C 39.270373 237.95072 40.25939 238.337625 41.2905 238.337625 
z
" style="fill:none;stroke:#000000;stroke-linejoin:miter;stroke-width:1.5;"/>
   </g>
   <g id="patch_30">
    <path clip-path="url(#p3ed27329d4)" d="M 65.9145 250.577625 
C 66.94561 250.577625 67.934627 250.19072 68.663731 249.502121 
C 69.392836 248.813522 69.8025 247.879451 69.8025 246.905625 
C 69.8025 245.931799 69.392836 244.997728 68.663731 244.309129 
C 67.934627 243.62053 66.94561 243.233625 65.9145 243.233625 
C 64.88339 243.233625 63.894373 243.62053 63.165269 244.309129 
C 62.436164 244.997728 62.0265 245.931799 62.0265 246.905625 
C 62.0265 247.879451 62.436164 248.813522 63.165269 249.502121 
C 63.894373 250.19072 64.88339 250.577625 65.9145 250.577625 
z
" style="fill:none;stroke:#000000;stroke-linejoin:miter;stroke-width:1.5;"/>
   </g>
   <g id="patch_31">
    <path clip-path="url(#p3ed27329d4)" d="M 65.9145 226.097625 
C 66.94561 226.097625 67.934627 225.71072 68.663731 225.022121 
C 69.392836 224.333522 69.8025 223.399451 69.8025 222.425625 
C 69.8025 221.451799 69.392836 220.517728 68.663731 219.829129 
C 67.934627 219.14053 66.94561 218.753625 65.9145 218.753625 
C 64.88339 218.753625 63.894373 219.14053 63.165269 219.829129 
C 62.436164 220.517728 62.0265 221.451799 62.0265 222.425625 
C 62.0265 223.399451 62.436164 224.333522 63.165269 225.022121 
C 63.894373 225.71072 64.88339 226.097625 65.9145 226.097625 
z
" style="fill:none;stroke:#000000;stroke-linejoin:miter;stroke-width:1.5;"/>
   </g>
   <g id="patch_32">
    <path clip-path="url(#p3ed27329d4)" d="M 196.8105 238.337625 
C 197.84161 238.337625 198.830627 237.95072 199.559731 237.262121 
C 200.288836 236.573522 200.6985 235.639451 200.6985 234.665625 
C 200.6985 233.691799 200.288836 232.757728 199.559731 232.069129 
C 198.830627 231.38053 197.84161 230.993625 196.8105 230.993625 
C 195.77939 230.993625 194.790373 231.38053 194.061269 232.069129 
C 193.332164 232.757728 192.9225 233.691799 192.9225 234.665625 
C 192.9225 235.639451 193.332164 236.573522 194.061269 237.262121 
C 194.790373 237.95072 195.77939 238.337625 196.8105 238.337625 
z
" style="fill:none;stroke:#000000;stroke-linejoin:miter;stroke-width:1.5;"/>
   </g>
   <g id="patch_33">
    <path clip-path="url(#p3ed27329d4)" d="M 221.4345 250.577625 
C 222.46561 250.577625 223.454627 250.19072 224.183731 249.502121 
C 224.912836 248.813522 225.3225 247.879451 225.3225 246.905625 
C 225.3225 245.931799 224.912836 244.997728 224.183731 244.309129 
C 223.454627 243.62053 222.46561 243.233625 221.4345 243.233625 
C 220.40339 243.233625 219.414373 243.62053 218.685269 244.309129 
C 217.956164 244.997728 217.5465 245.931799 217.5465 246.905625 
C 217.5465 247.879451 217.956164 248.813522 218.685269 249.502121 
C 219.414373 250.19072 220.40339 250.577625 221.4345 250.577625 
z
" style="fill:none;stroke:#000000;stroke-linejoin:miter;stroke-width:1.5;"/>
   </g>
   <g id="patch_34">
    <path clip-path="url(#p3ed27329d4)" d="M 221.4345 226.097625 
C 222.46561 226.097625 223.454627 225.71072 224.183731 225.022121 
C 224.912836 224.333522 225.3225 223.399451 225.3225 222.425625 
C 225.3225 221.451799 224.912836 220.517728 224.183731 219.829129 
C 223.454627 219.14053 222.46561 218.753625 221.4345 218.753625 
C 220.40339 218.753625 219.414373 219.14053 218.685269 219.829129 
C 217.956164 220.517728 217.5465 221.451799 217.5465 222.425625 
C 217.5465 223.399451 217.956164 224.333522 218.685269 225.022121 
C 219.414373 225.71072 220.40339 226.097625 221.4345 226.097625 
z
" style="fill:none;stroke:#000000;stroke-linejoin:miter;stroke-width:1.5;"/>
   </g>
   <g id="patch_35">
    <path clip-path="url(#p3ed27329d4)" d="M 352.3305 238.337625 
C 353.36161 238.337625 354.350627 237.95072 355.079731 237.262121 
C 355.808836 236.573522 356.2185 235.639451 356.2185 234.665625 
C 356.2185 233.691799 355.808836 232.757728 355.079731 232.069129 
C 354.350627 231.38053 353.36161 230.993625 352.3305 230.993625 
C 351.29939 230.993625 350.310373 231.38053 349.581269 232.069129 
C 348.852164 232.757728 348.4425 233.691799 348.4425 234.665625 
C 348.4425 235.639451 348.852164 236.573522 349.581269 237.262121 
C 350.310373 237.95072 351.29939 238.337625 352.3305 238.337625 
z
" style="fill:none;stroke:#000000;stroke-linejoin:miter;stroke-width:1.5;"/>
   </g>
   <g id="patch_36">
    <path clip-path="url(#p3ed27329d4)" d="M 376.9545 250.577625 
C 377.98561 250.577625 378.974627 250.19072 379.703731 249.502121 
C 380.432836 248.813522 380.8425 247.879451 380.8425 246.905625 
C 380.8425 245.931799 380.432836 244.997728 379.703731 244.309129 
C 378.974627 243.62053 377.98561 243.233625 376.9545 243.233625 
C 375.92339 243.233625 374.934373 243.62053 374.205269 244.309129 
C 373.476164 244.997728 373.0665 245.931799 373.0665 246.905625 
C 373.0665 247.879451 373.476164 248.813522 374.205269 249.502121 
C 374.934373 250.19072 375.92339 250.577625 376.9545 250.577625 
z
" style="fill:none;stroke:#000000;stroke-linejoin:miter;stroke-width:1.5;"/>
   </g>
   <g id="patch_37">
    <path clip-path="url(#p3ed27329d4)" d="M 376.9545 226.097625 
C 377.98561 226.097625 378.974627 225.71072 379.703731 225.022121 
C 380.432836 224.333522 380.8425 223.399451 380.8425 222.425625 
C 380.8425 221.451799 380.432836 220.517728 379.703731 219.829129 
C 378.974627 219.14053 377.98561 218.753625 376.9545 218.753625 
C 375.92339 218.753625 374.934373 219.14053 374.205269 219.829129 
C 373.476164 220.517728 373.0665 221.451799 373.0665 222.425625 
C 373.0665 223.399451 373.476164 224.333522 374.205269 225.022121 
C 374.934373 225.71072 375.92339 226.097625 376.9545 226.097625 
z
" style="fill:none;stroke:#000000;stroke-linejoin:miter;stroke-width:1.5;"/>
   </g>
   <g id="text_1">
    <!-- SWITCH_SPST -->
    <defs>
     <path d="M 53.515625 70.515625 
L 53.515625 60.890625 
Q 47.90625 63.578125 42.921875 64.890625 
Q 37.9375 66.21875 33.296875 66.21875 
Q 25.25 66.21875 20.875 63.09375 
Q 16.5 59.96875 16.5 54.203125 
Q 16.5 49.359375 19.40625 46.890625 
Q 22.3125 44.4375 30.421875 42.921875 
L 36.375 41.703125 
Q 47.40625 39.59375 52.65625 34.296875 
Q 57.90625 29 57.90625 20.125 
Q 57.90625 9.515625 50.796875 4.046875 
Q 43.703125 -1.421875 29.984375 -1.421875 
Q 24.8125 -1.421875 18.96875 -0.25 
Q 13.140625 0.921875 6.890625 3.21875 
L 6.890625 13.375 
Q 12.890625 10.015625 18.65625 8.296875 
Q 24.421875 6.59375 29.984375 6.59375 
Q 38.421875 6.59375 43.015625 9.90625 
Q 47.609375 13.234375 47.609375 19.390625 
Q 47.609375 24.75 44.3125 27.78125 
Q 41.015625 30.8125 33.5 32.328125 
L 27.484375 33.5 
Q 16.453125 35.6875 11.515625 40.375 
Q 6.59375 45.0625 6.59375 53.421875 
Q 6.59375 63.09375 13.40625 68.65625 
Q 20.21875 74.21875 32.171875 74.21875 
Q 37.3125 74.21875 42.625 73.28125 
Q 47.953125 72.359375 53.515625 70.515625 
z
" id="DejaVuSans-53"/>
     <path d="M 3.328125 72.90625 
L 13.28125 72.90625 
L 28.609375 11.28125 
L 43.890625 72.90625 
L 54.984375 72.90625 
L 70.3125 11.28125 
L 85.59375 72.90625 
L 95.609375 72.90625 
L 77.296875 0 
L 64.890625 0 
L 49.515625 63.28125 
L 33.984375 0 
L 21.578125 0 
z
" id="DejaVuSans-57"/>
     <path d="M 9.8125 72.90625 
L 19.671875 72.90625 
L 19.671875 0 
L 9.8125 0 
z
" id="DejaVuSans-49"/>
     <path d="M -0.296875 72.90625 
L 61.375 72.90625 
L 61.375 64.59375 
L 35.5 64.59375 
L 35.5 0 
L 25.59375 0 
L 25.59375 64.59375 
L -0.296875 64.59375 
z
" id="DejaVuSans-54"/>
     <path d="M 64.40625 67.28125 
L 64.40625 56.890625 
Q 59.421875 61.53125 53.78125 63.8125 
Q 48.140625 66.109375 41.796875 66.109375 
Q 29.296875 66.109375 22.65625 58.46875 
Q 16.015625 50.828125 16.015625 36.375 
Q 16.015625 21.96875 22.65625 14.328125 
Q 29.296875 6.6875 41.796875 6.6875 
Q 48.140625 6.6875 53.78125 8.984375 
Q 59.421875 11.28125 64.40625 15.921875 
L 64.40625 5.609375 
Q 59.234375 2.09375 53.4375 0.328125 
Q 47.65625 -1.421875 41.21875 -1.421875 
Q 24.65625 -1.421875 15.125 8.703125 
Q 5.609375 18.84375 5.609375 36.375 
Q 5.609375 53.953125 15.125 64.078125 
Q 24.65625 74.21875 41.21875 74.21875 
Q 47.75 74.21875 53.53125 72.484375 
Q 59.328125 70.75 64.40625 67.28125 
z
" id="DejaVuSans-43"/>
     <path d="M 9.8125 72.90625 
L 19.671875 72.90625 
L 19.671875 43.015625 
L 55.515625 43.015625 
L 55.515625 72.90625 
L 65.375 72.90625 
L 65.375 0 
L 55.515625 0 
L 55.515625 34.71875 
L 19.671875 34.71875 
L 19.671875 0 
L 9.8125 0 
z
" id="DejaVuSans-48"/>
     <path d="M 50.984375 -16.609375 
L 50.984375 -23.578125 
L -0.984375 -23.578125 
L -0.984375 -16.609375 
z
" id="DejaVuSans-5f"/>
     <path d="M 19.671875 64.796875 
L 19.671875 37.40625 
L 32.078125 37.40625 
Q 38.96875 37.40625 42.71875 40.96875 
Q 46.484375 44.53125 46.484375 51.125 
Q 46.484375 57.671875 42.71875 61.234375 
Q 38.96875 64.796875 32.078125 64.796875 
z
M 9.8125 72.90625 
L 32.078125 72.90625 
Q 44.34375 72.90625 50.609375 67.359375 
Q 56.890625 61.8125 56.890625 51.125 
Q 56.890625 40.328125 50.609375 34.8125 
Q 44.34375 29.296875 32.078125 29.296875 
L 19.671875 29.296875 
L 19.671875 0 
L 9.8125 0 
z
" id="DejaVuSans-50"/>
    </defs>
    <g transform="translate(44.228437 18.70725)scale(0.12 -0.12)">
     <use xlink:href="#DejaVuSans-53"/>
     <use x="63.476562" xlink:href="#DejaVuSans-57"/>
     <use x="162.353516" xlink:href="#DejaVuSans-49"/>
     <use x="191.845703" xlink:href="#DejaVuSans-54"/>
     <use x="252.851562" xlink:href="#DejaVuSans-43"/>
     <use x="322.675781" xlink:href="#DejaVuSans-48"/>
     <use x="397.871094" xlink:href="#DejaVuSans-5f"/>
     <use x="447.871094" xlink:href="#DejaVuSans-53"/>
     <use x="511.347656" xlink:href="#DejaVuSans-50"/>
     <use x="571.650391" xlink:href="#DejaVuSans-53"/>
     <use x="635.126953" xlink:href="#DejaVuSans-54"/>
    </g>
   </g>
   <g id="text_2">
    <!-- SWITCH_SPST_OPEN -->
    <defs>
     <path d="M 39.40625 66.21875 
Q 28.65625 66.21875 22.328125 58.203125 
Q 16.015625 50.203125 16.015625 36.375 
Q 16.015625 22.609375 22.328125 14.59375 
Q 28.65625 6.59375 39.40625 6.59375 
Q 50.140625 6.59375 56.421875 14.59375 
Q 62.703125 22.609375 62.703125 36.375 
Q 62.703125 50.203125 56.421875 58.203125 
Q 50.140625 66.21875 39.40625 66.21875 
z
M 39.40625 74.21875 
Q 54.734375 74.21875 63.90625 63.9375 
Q 73.09375 53.65625 73.09375 36.375 
Q 73.09375 19.140625 63.90625 8.859375 
Q 54.734375 -1.421875 39.40625 -1.421875 
Q 24.03125 -1.421875 14.8125 8.828125 
Q 5.609375 19.09375 5.609375 36.375 
Q 5.609375 53.65625 14.8125 63.9375 
Q 24.03125 74.21875 39.40625 74.21875 
z
" id="DejaVuSans-4f"/>
     <path d="M 9.8125 72.90625 
L 55.90625 72.90625 
L 55.90625 64.59375 
L 19.671875 64.59375 
L 19.671875 43.015625 
L 54.390625 43.015625 
L 54.390625 34.71875 
L 19.671875 34.71875 
L 19.671875 8.296875 
L 56.78125 8.296875 
L 56.78125 0 
L 9.8125 0 
z
" id="DejaVuSans-45"/>
     <path d="M 9.8125 72.90625 
L 23.09375 72.90625 
L 55.421875 11.921875 
L 55.421875 72.90625 
L 64.984375 72.90625 
L 64.984375 0 
L 51.703125 0 
L 19.390625 60.984375 
L 19.390625 0 
L 9.8125 0 
z
" id="DejaVuSans-4e"/>
    </defs>
    <g transform="translate(180.1275 20.69625)scale(0.12 -0.12)">
     <use xlink:href="#DejaVuSans-53"/>
     <use x="63.476562" xlink:href="#DejaVuSans-57"/>
     <use x="162.353516" xlink:href="#DejaVuSans-49"/>
     <use x="191.845703" xlink:href="#DejaVuSans-54"/>
     <use x="252.851562" xlink:href="#DejaVuSans-43"/>
     <use x="322.675781" xlink:href="#DejaVuSans-48"/>
     <use x="397.871094" xlink:href="#DejaVuSans-5f"/>
     <use x="447.871094" xlink:href="#DejaVuSans-53"/>
     <use x="511.347656" xlink:href="#DejaVuSans-50"/>
     <use x="571.650391" xlink:href="#DejaVuSans-53"/>
     <use x="635.126953" xlink:href="#DejaVuSans-54"/>
     <use x="696.210938" xlink:href="#DejaVuSans-5f"/>
     <use x="746.210938" xlink:href="#DejaVuSans-4f"/>
     <use x="824.921875" xlink:href="#DejaVuSans-50"/>
     <use x="885.224609" xlink:href="#DejaVuSans-45"/>
     <use x="948.408203" xlink:href="#DejaVuSans-4e"/>
    </g>
   </g>
   <g id="text_3">
    <!-- SWITCH_SPST_CLOSE -->
    <defs>
     <path d="M 9.8125 72.90625 
L 19.671875 72.90625 
L 19.671875 8.296875 
L 55.171875 8.296875 
L 55.171875 0 
L 9.8125 0 
z
" id="DejaVuSans-4c"/>
    </defs>
    <g transform="translate(332.415 16.10625)scale(0.12 -0.12)">
     <use xlink:href="#DejaVuSans-53"/>
     <use x="63.476562" xlink:href="#DejaVuSans-57"/>
     <use x="162.353516" xlink:href="#DejaVuSans-49"/>
     <use x="191.845703" xlink:href="#DejaVuSans-54"/>
     <use x="252.851562" xlink:href="#DejaVuSans-43"/>
     <use x="322.675781" xlink:href="#DejaVuSans-48"/>
     <use x="397.871094" xlink:href="#DejaVuSans-5f"/>
     <use x="447.871094" xlink:href="#DejaVuSans-53"/>
     <use x="511.347656" xlink:href="#DejaVuSans-50"/>
     <use x="571.650391" xlink:href="#DejaVuSans-53"/>
     <use x="635.126953" xlink:href="#DejaVuSans-54"/>
     <use x="696.210938" xlink:href="#DejaVuSans-5f"/>
     <use x="746.210938" xlink:href="#DejaVuSans-43"/>
     <use x="816.035156" xlink:href="#DejaVuSans-4c"/>
     <use x="871.701172" xlink:href="#DejaVuSans-4f"/>
     <use x="950.412109" xlink:href="#DejaVuSans-53"/>
     <use x="1013.888672" xlink:href="#DejaVuSans-45"/>
    </g>
   </g>
   <g id="text_4">
    <!-- SWITCH_SPDT -->
    <defs>
     <path d="M 19.671875 64.796875 
L 19.671875 8.109375 
L 31.59375 8.109375 
Q 46.6875 8.109375 53.6875 14.9375 
Q 60.6875 21.78125 60.6875 36.53125 
Q 60.6875 51.171875 53.6875 57.984375 
Q 46.6875 64.796875 31.59375 64.796875 
z
M 9.8125 72.90625 
L 30.078125 72.90625 
Q 51.265625 72.90625 61.171875 64.09375 
Q 71.09375 55.28125 71.09375 36.53125 
Q 71.09375 17.671875 61.125 8.828125 
Q 51.171875 0 30.078125 0 
L 9.8125 0 
z
" id="DejaVuSans-44"/>
    </defs>
    <g transform="translate(11.0175 104.84625)scale(0.12 -0.12)">
     <use xlink:href="#DejaVuSans-53"/>
     <use x="63.476562" xlink:href="#DejaVuSans-57"/>
     <use x="162.353516" xlink:href="#DejaVuSans-49"/>
     <use x="191.845703" xlink:href="#DejaVuSans-54"/>
     <use x="252.851562" xlink:href="#DejaVuSans-43"/>
     <use x="322.675781" xlink:href="#DejaVuSans-48"/>
     <use x="397.871094" xlink:href="#DejaVuSans-5f"/>
     <use x="447.871094" xlink:href="#DejaVuSans-53"/>
     <use x="511.347656" xlink:href="#DejaVuSans-50"/>
     <use x="571.650391" xlink:href="#DejaVuSans-44"/>
     <use x="648.652344" xlink:href="#DejaVuSans-54"/>
    </g>
   </g>
   <g id="text_5">
    <!-- SWITCH_SPDT_OPEN -->
    <g transform="translate(145.296562 112.49625)scale(0.12 -0.12)">
     <use xlink:href="#DejaVuSans-53"/>
     <use x="63.476562" xlink:href="#DejaVuSans-57"/>
     <use x="162.353516" xlink:href="#DejaVuSans-49"/>
     <use x="191.845703" xlink:href="#DejaVuSans-54"/>
     <use x="252.851562" xlink:href="#DejaVuSans-43"/>
     <use x="322.675781" xlink:href="#DejaVuSans-48"/>
     <use x="397.871094" xlink:href="#DejaVuSans-5f"/>
     <use x="447.871094" xlink:href="#DejaVuSans-53"/>
     <use x="511.347656" xlink:href="#DejaVuSans-50"/>
     <use x="571.650391" xlink:href="#DejaVuSans-44"/>
     <use x="648.652344" xlink:href="#DejaVuSans-54"/>
     <use x="709.736328" xlink:href="#DejaVuSans-5f"/>
     <use x="759.736328" xlink:href="#DejaVuSans-4f"/>
     <use x="838.447266" xlink:href="#DejaVuSans-50"/>
     <use x="898.75" xlink:href="#DejaVuSans-45"/>
     <use x="961.933594" xlink:href="#DejaVuSans-4e"/>
    </g>
   </g>
   <g id="text_6">
    <!-- SWITCH_SPDT_CLOSE -->
    <g transform="translate(297.584062 107.90625)scale(0.12 -0.12)">
     <use xlink:href="#DejaVuSans-53"/>
     <use x="63.476562" xlink:href="#DejaVuSans-57"/>
     <use x="162.353516" xlink:href="#DejaVuSans-49"/>
     <use x="191.845703" xlink:href="#DejaVuSans-54"/>
     <use x="252.851562" xlink:href="#DejaVuSans-43"/>
     <use x="322.675781" xlink:href="#DejaVuSans-48"/>
     <use x="397.871094" xlink:href="#DejaVuSans-5f"/>
     <use x="447.871094" xlink:href="#DejaVuSans-53"/>
     <use x="511.347656" xlink:href="#DejaVuSans-50"/>
     <use x="571.650391" xlink:href="#DejaVuSans-44"/>
     <use x="648.652344" xlink:href="#DejaVuSans-54"/>
     <use x="709.736328" xlink:href="#DejaVuSans-5f"/>
     <use x="759.736328" xlink:href="#DejaVuSans-43"/>
     <use x="829.560547" xlink:href="#DejaVuSans-4c"/>
     <use x="885.226562" xlink:href="#DejaVuSans-4f"/>
     <use x="963.9375" xlink:href="#DejaVuSans-53"/>
     <use x="1027.414062" xlink:href="#DejaVuSans-45"/>
    </g>
   </g>
   <g id="text_7">
    <!-- SWITCH_SPDT2 -->
    <defs>
     <path d="M 19.1875 8.296875 
L 53.609375 8.296875 
L 53.609375 0 
L 7.328125 0 
L 7.328125 8.296875 
Q 12.9375 14.109375 22.625 23.890625 
Q 32.328125 33.6875 34.8125 36.53125 
Q 39.546875 41.84375 41.421875 45.53125 
Q 43.3125 49.21875 43.3125 52.78125 
Q 43.3125 58.59375 39.234375 62.25 
Q 35.15625 65.921875 28.609375 65.921875 
Q 23.96875 65.921875 18.8125 64.3125 
Q 13.671875 62.703125 7.8125 59.421875 
L 7.8125 69.390625 
Q 13.765625 71.78125 18.9375 73 
Q 24.125 74.21875 28.421875 74.21875 
Q 39.75 74.21875 46.484375 68.546875 
Q 53.21875 62.890625 53.21875 53.421875 
Q 53.21875 48.921875 51.53125 44.890625 
Q 49.859375 40.875 45.40625 35.40625 
Q 44.1875 33.984375 37.640625 27.21875 
Q 31.109375 20.453125 19.1875 8.296875 
z
" id="DejaVuSans-32"/>
    </defs>
    <g transform="translate(7.2 207.35625)scale(0.12 -0.12)">
     <use xlink:href="#DejaVuSans-53"/>
     <use x="63.476562" xlink:href="#DejaVuSans-57"/>
     <use x="162.353516" xlink:href="#DejaVuSans-49"/>
     <use x="191.845703" xlink:href="#DejaVuSans-54"/>
     <use x="252.851562" xlink:href="#DejaVuSans-43"/>
     <use x="322.675781" xlink:href="#DejaVuSans-48"/>
     <use x="397.871094" xlink:href="#DejaVuSans-5f"/>
     <use x="447.871094" xlink:href="#DejaVuSans-53"/>
     <use x="511.347656" xlink:href="#DejaVuSans-50"/>
     <use x="571.650391" xlink:href="#DejaVuSans-44"/>
     <use x="648.652344" xlink:href="#DejaVuSans-54"/>
     <use x="709.736328" xlink:href="#DejaVuSans-32"/>
    </g>
   </g>
   <g id="text_8">
    <!-- SWITCH_SPDT2_OPEN -->
    <g transform="translate(140.669062 207.35625)scale(0.12 -0.12)">
     <use xlink:href="#DejaVuSans-53"/>
     <use x="63.476562" xlink:href="#DejaVuSans-57"/>
     <use x="162.353516" xlink:href="#DejaVuSans-49"/>
     <use x="191.845703" xlink:href="#DejaVuSans-54"/>
     <use x="252.851562" xlink:href="#DejaVuSans-43"/>
     <use x="322.675781" xlink:href="#DejaVuSans-48"/>
     <use x="397.871094" xlink:href="#DejaVuSans-5f"/>
     <use x="447.871094" xlink:href="#DejaVuSans-53"/>
     <use x="511.347656" xlink:href="#DejaVuSans-50"/>
     <use x="571.650391" xlink:href="#DejaVuSans-44"/>
     <use x="648.652344" xlink:href="#DejaVuSans-54"/>
     <use x="709.736328" xlink:href="#DejaVuSans-32"/>
     <use x="773.359375" xlink:href="#DejaVuSans-5f"/>
     <use x="823.359375" xlink:href="#DejaVuSans-4f"/>
     <use x="902.070312" xlink:href="#DejaVuSans-50"/>
     <use x="962.373047" xlink:href="#DejaVuSans-45"/>
     <use x="1025.556641" xlink:href="#DejaVuSans-4e"/>
    </g>
   </g>
   <g id="text_9">
    <!-- SWITCH_SPDT2_CLOSE -->
    <g transform="translate(292.146562 204.29625)scale(0.12 -0.12)">
     <use xlink:href="#DejaVuSans-53"/>
     <use x="63.476562" xlink:href="#DejaVuSans-57"/>
     <use x="162.353516" xlink:href="#DejaVuSans-49"/>
     <use x="191.845703" xlink:href="#DejaVuSans-54"/>
     <use x="252.851562" xlink:href="#DejaVuSans-43"/>
     <use x="322.675781" xlink:href="#DejaVuSans-48"/>
     <use x="397.871094" xlink:href="#DejaVuSans-5f"/>
     <use x="447.871094" xlink:href="#DejaVuSans-53"/>
     <use x="511.347656" xlink:href="#DejaVuSans-50"/>
     <use x="571.650391" xlink:href="#DejaVuSans-44"/>
     <use x="648.652344" xlink:href="#DejaVuSans-54"/>
     <use x="709.736328" xlink:href="#DejaVuSans-32"/>
     <use x="773.359375" xlink:href="#DejaVuSans-5f"/>
     <use x="823.359375" xlink:href="#DejaVuSans-43"/>
     <use x="893.183594" xlink:href="#DejaVuSans-4c"/>
     <use x="948.849609" xlink:href="#DejaVuSans-4f"/>
     <use x="1027.560547" xlink:href="#DejaVuSans-53"/>
     <use x="1091.037109" xlink:href="#DejaVuSans-45"/>
    </g>
   </g>
  </g>
 </g>
 <defs>
  <clipPath id="p3ed27329d4">
   <rect height="245.85947" width="455.544" x="13.7505" y="18.675404"/>
  </clipPath>
 </defs>
</svg>
