<?xml version="1.0" encoding="utf-8" standalone="no"?>
<!DOCTYPE svg PUBLIC "-//W3C//DTD SVG 1.1//EN"
  "http://www.w3.org/Graphics/SVG/1.1/DTD/svg11.dtd">
<!-- Created with matplotlib (http://matplotlib.org/) -->
<svg height="253.5959pt" version="1.1" viewBox="0 0 479.9945 253.5959" width="479.9945pt" xmlns="http://www.w3.org/2000/svg" xmlns:xlink="http://www.w3.org/1999/xlink">
 <defs>
  <style type="text/css">
*{stroke-linecap:butt;stroke-linejoin:round;}
  </style>
 </defs>
 <g id="figure_1">
  <g id="patch_1">
   <path d="M 0 253.5959 
L 479.9945 253.5959 
L 479.9945 0 
L 0 0 
z
" style="fill:none;"/>
  </g>
  <g id="axes_1">
   <g id="patch_2">
    <path clip-path="url(#pe35ebf719f)" d="M 246.327109 46.662095 
C 246.515727 44.589547 246.22004 42.49075 245.478256 40.636893 
C 244.736472 38.783036 243.581977 37.257561 242.163946 36.257577 
" style="fill:none;stroke:#000000;stroke-linejoin:miter;stroke-width:1.5;"/>
   </g>
   <g id="patch_3">
    <path clip-path="url(#pe35ebf719f)" d="M 401.847109 42.477095 
C 402.035727 40.404547 401.74004 38.30575 400.998256 36.451893 
C 400.256472 34.598036 399.101977 33.072561 397.683946 32.072577 
" style="fill:none;stroke:#000000;stroke-linejoin:miter;stroke-width:1.5;"/>
   </g>
   <g id="patch_4">
    <path clip-path="url(#pe35ebf719f)" d="M 213.927109 130.362095 
C 214.115727 128.289547 213.82004 126.19075 213.078256 124.336893 
C 212.336472 122.483036 211.181977 120.957561 209.763946 119.957577 
" style="fill:none;stroke:#000000;stroke-linejoin:miter;stroke-width:1.5;"/>
   </g>
   <g id="patch_5">
    <path clip-path="url(#pe35ebf719f)" d="M 369.447109 126.177095 
C 369.635727 124.104547 369.34004 122.00575 368.598256 120.151893 
C 367.856472 118.298036 366.701977 116.772561 365.283946 115.772577 
" style="fill:none;stroke:#000000;stroke-linejoin:miter;stroke-width:1.5;"/>
   </g>
   <g id="patch_6">
    <path clip-path="url(#pe35ebf719f)" d="M 212.307109 216.852095 
C 212.495727 214.779547 212.20004 212.68075 211.458256 210.826893 
C 210.716472 208.973036 209.561977 207.447561 208.143946 206.447577 
" style="fill:none;stroke:#000000;stroke-linejoin:miter;stroke-width:1.5;"/>
   </g>
   <g id="patch_7">
    <path clip-path="url(#pe35ebf719f)" d="M 366.207109 214.062095 
C 366.395727 211.989547 366.10004 209.89075 365.358256 208.036893 
C 364.616472 206.183036 363.461977 204.657561 362.043946 203.657577 
" style="fill:none;stroke:#000000;stroke-linejoin:miter;stroke-width:1.5;"/>
   </g>
   <g id="patch_8">
    <path clip-path="url(#pe35ebf719f)" d="M 233.136893 33.128077 
L 241.579512 33.547361 
L 240.753943 35.500559 
L 241.058404 35.595982 
L 241.047322 35.6222 
L 240.742862 35.526776 
L 239.917294 37.479974 
z
" style="stroke:#000000;stroke-linejoin:miter;"/>
   </g>
   <g id="patch_9">
    <path clip-path="url(#pe35ebf719f)" d="M 400.316631 50.216214 
L 399.330098 42.983822 
L 401.707227 43.344758 
L 401.763489 43.069997 
L 401.795397 43.074841 
L 401.739135 43.349603 
L 404.116264 43.710539 
z
" style="stroke:#000000;stroke-linejoin:miter;"/>
   </g>
   <g id="patch_10">
    <path clip-path="url(#pe35ebf719f)" d="M 200.736893 116.828077 
L 209.179512 117.247361 
L 208.353943 119.200559 
L 208.658404 119.295982 
L 208.647322 119.3222 
L 208.342862 119.226776 
L 207.517294 121.179974 
z
" style="stroke:#000000;stroke-linejoin:miter;"/>
   </g>
   <g id="patch_11">
    <path clip-path="url(#pe35ebf719f)" d="M 367.916631 133.916214 
L 366.930098 126.683822 
L 369.307227 127.044758 
L 369.363489 126.769997 
L 369.395397 126.774841 
L 369.339135 127.049603 
L 371.716264 127.410539 
z
" style="stroke:#000000;stroke-linejoin:miter;"/>
   </g>
   <g id="patch_12">
    <path clip-path="url(#pe35ebf719f)" d="M 199.116893 203.318077 
L 207.559512 203.737361 
L 206.733943 205.690559 
L 207.038404 205.785982 
L 207.027322 205.8122 
L 206.722862 205.716776 
L 205.897294 207.669974 
z
" style="stroke:#000000;stroke-linejoin:miter;"/>
   </g>
   <g id="patch_13">
    <path clip-path="url(#pe35ebf719f)" d="M 364.676631 221.801214 
L 363.690098 214.568822 
L 366.067227 214.929758 
L 366.123489 214.654997 
L 366.155397 214.659841 
L 366.099135 214.934603 
L 368.476264 215.295539 
z
" style="stroke:#000000;stroke-linejoin:miter;"/>
   </g>
   <g id="line2d_1">
    <path clip-path="url(#pe35ebf719f)" d="M 37.4025 48.230625 
L 69.8025 48.230625 
M 77.5785 45.440625 
L 95.7225 35.675625 
M 102.2025 48.230625 
L 134.6025 48.230625 
" style="fill:none;stroke:#000000;stroke-linecap:round;stroke-width:1.5;"/>
   </g>
   <g id="line2d_2">
    <path clip-path="url(#pe35ebf719f)" d="M 192.9225 48.230625 
L 225.3225 48.230625 
M 233.0985 45.440625 
L 251.2425 35.675625 
M 257.7225 48.230625 
L 290.1225 48.230625 
" style="fill:none;stroke:#000000;stroke-linecap:round;stroke-width:1.5;"/>
   </g>
   <g id="line2d_3">
    <path clip-path="url(#pe35ebf719f)" d="M 348.4425 48.230625 
L 380.8425 48.230625 
M 388.6185 45.440625 
L 406.7625 35.675625 
M 413.2425 48.230625 
L 445.6425 48.230625 
" style="fill:none;stroke:#000000;stroke-linecap:round;stroke-width:1.5;"/>
   </g>
   <g id="line2d_4">
    <path clip-path="url(#pe35ebf719f)" d="M 37.4025 131.930625 
M 45.1785 129.140625 
L 63.3225 119.375625 
M 69.8025 131.930625 
" style="fill:none;stroke:#000000;stroke-linecap:round;stroke-width:1.5;"/>
   </g>
   <g id="line2d_5">
    <path clip-path="url(#pe35ebf719f)" d="M 192.9225 131.930625 
M 200.6985 129.140625 
L 218.8425 119.375625 
M 225.3225 131.930625 
" style="fill:none;stroke:#000000;stroke-linecap:round;stroke-width:1.5;"/>
   </g>
   <g id="line2d_6">
    <path clip-path="url(#pe35ebf719f)" d="M 348.4425 131.930625 
M 356.2185 129.140625 
L 374.3625 119.375625 
M 380.8425 131.930625 
" style="fill:none;stroke:#000000;stroke-linecap:round;stroke-width:1.5;"/>
   </g>
   <g id="line2d_7">
    <path clip-path="url(#pe35ebf719f)" d="M 37.4025 215.630625 
M 45.1785 212.840625 
L 60.0825 208.655625 
M 69.8025 204.470625 
" style="fill:none;stroke:#000000;stroke-linecap:round;stroke-width:1.5;"/>
   </g>
   <g id="line2d_8">
    <path clip-path="url(#pe35ebf719f)" d="M 192.9225 215.630625 
M 200.6985 212.840625 
L 215.6025 208.655625 
M 225.3225 204.470625 
" style="fill:none;stroke:#000000;stroke-linecap:round;stroke-width:1.5;"/>
   </g>
   <g id="line2d_9">
    <path clip-path="url(#pe35ebf719f)" d="M 348.4425 215.630625 
M 356.2185 212.840625 
L 371.1225 208.655625 
M 380.8425 204.470625 
" style="fill:none;stroke:#000000;stroke-linecap:round;stroke-width:1.5;"/>
   </g>
   <g id="patch_14">
    <path clip-path="url(#pe35ebf719f)" d="M 73.6905 51.578625 
C 74.72161 51.578625 75.710627 51.225859 76.439731 50.598019 
C 77.168836 49.970178 77.5785 49.118525 77.5785 48.230625 
C 77.5785 47.342725 77.168836 46.491072 76.439731 45.863231 
C 75.710627 45.235391 74.72161 44.882625 73.6905 44.882625 
C 72.65939 44.882625 71.670373 45.235391 70.941269 45.863231 
C 70.212164 46.491072 69.8025 47.342725 69.8025 48.230625 
C 69.8025 49.118525 70.212164 49.970178 70.941269 50.598019 
C 71.670373 51.225859 72.65939 51.578625 73.6905 51.578625 
z
" style="fill:none;stroke:#000000;stroke-linejoin:miter;stroke-width:1.5;"/>
   </g>
   <g id="patch_15">
    <path clip-path="url(#pe35ebf719f)" d="M 98.3145 51.578625 
C 99.34561 51.578625 100.334627 51.225859 101.063731 50.598019 
C 101.792836 49.970178 102.2025 49.118525 102.2025 48.230625 
C 102.2025 47.342725 101.792836 46.491072 101.063731 45.863231 
C 100.334627 45.235391 99.34561 44.882625 98.3145 44.882625 
C 97.28339 44.882625 96.294373 45.235391 95.565269 45.863231 
C 94.836164 46.491072 94.4265 47.342725 94.4265 48.230625 
C 94.4265 49.118525 94.836164 49.970178 95.565269 50.598019 
C 96.294373 51.225859 97.28339 51.578625 98.3145 51.578625 
z
" style="fill:none;stroke:#000000;stroke-linejoin:miter;stroke-width:1.5;"/>
   </g>
   <g id="patch_16">
    <path clip-path="url(#pe35ebf719f)" d="M 229.2105 51.578625 
C 230.24161 51.578625 231.230627 51.225859 231.959731 50.598019 
C 232.688836 49.970178 233.0985 49.118525 233.0985 48.230625 
C 233.0985 47.342725 232.688836 46.491072 231.959731 45.863231 
C 231.230627 45.235391 230.24161 44.882625 229.2105 44.882625 
C 228.17939 44.882625 227.190373 45.235391 226.461269 45.863231 
C 225.732164 46.491072 225.3225 47.342725 225.3225 48.230625 
C 225.3225 49.118525 225.732164 49.970178 226.461269 50.598019 
C 227.190373 51.225859 228.17939 51.578625 229.2105 51.578625 
z
" style="fill:none;stroke:#000000;stroke-linejoin:miter;stroke-width:1.5;"/>
   </g>
   <g id="patch_17">
    <path clip-path="url(#pe35ebf719f)" d="M 253.8345 51.578625 
C 254.86561 51.578625 255.854627 51.225859 256.583731 50.598019 
C 257.312836 49.970178 257.7225 49.118525 257.7225 48.230625 
C 257.7225 47.342725 257.312836 46.491072 256.583731 45.863231 
C 255.854627 45.235391 254.86561 44.882625 253.8345 44.882625 
C 252.80339 44.882625 251.814373 45.235391 251.085269 45.863231 
C 250.356164 46.491072 249.9465 47.342725 249.9465 48.230625 
C 249.9465 49.118525 250.356164 49.970178 251.085269 50.598019 
C 251.814373 51.225859 252.80339 51.578625 253.8345 51.578625 
z
" style="fill:none;stroke:#000000;stroke-linejoin:miter;stroke-width:1.5;"/>
   </g>
   <g id="patch_18">
    <path clip-path="url(#pe35ebf719f)" d="M 384.7305 51.578625 
C 385.76161 51.578625 386.750627 51.225859 387.479731 50.598019 
C 388.208836 49.970178 388.6185 49.118525 388.6185 48.230625 
C 388.6185 47.342725 388.208836 46.491072 387.479731 45.863231 
C 386.750627 45.235391 385.76161 44.882625 384.7305 44.882625 
C 383.69939 44.882625 382.710373 45.235391 381.981269 45.863231 
C 381.252164 46.491072 380.8425 47.342725 380.8425 48.230625 
C 380.8425 49.118525 381.252164 49.970178 381.981269 50.598019 
C 382.710373 51.225859 383.69939 51.578625 384.7305 51.578625 
z
" style="fill:none;stroke:#000000;stroke-linejoin:miter;stroke-width:1.5;"/>
   </g>
   <g id="patch_19">
    <path clip-path="url(#pe35ebf719f)" d="M 409.3545 51.578625 
C 410.38561 51.578625 411.374627 51.225859 412.103731 50.598019 
C 412.832836 49.970178 413.2425 49.118525 413.2425 48.230625 
C 413.2425 47.342725 412.832836 46.491072 412.103731 45.863231 
C 411.374627 45.235391 410.38561 44.882625 409.3545 44.882625 
C 408.32339 44.882625 407.334373 45.235391 406.605269 45.863231 
C 405.876164 46.491072 405.4665 47.342725 405.4665 48.230625 
C 405.4665 49.118525 405.876164 49.970178 406.605269 50.598019 
C 407.334373 51.225859 408.32339 51.578625 409.3545 51.578625 
z
" style="fill:none;stroke:#000000;stroke-linejoin:miter;stroke-width:1.5;"/>
   </g>
   <g id="patch_20">
    <path clip-path="url(#pe35ebf719f)" d="M 65.9145 115.748625 
C 66.94561 115.748625 67.934627 115.395859 68.663731 114.768019 
C 69.392836 114.140178 69.8025 113.288525 69.8025 112.400625 
C 69.8025 111.512725 69.392836 110.661072 68.663731 110.033231 
C 67.934627 109.405391 66.94561 109.052625 65.9145 109.052625 
C 64.88339 109.052625 63.894373 109.405391 63.165269 110.033231 
C 62.436164 110.661072 62.0265 111.512725 62.0265 112.400625 
C 62.0265 113.288525 62.436164 114.140178 63.165269 114.768019 
C 63.894373 115.395859 64.88339 115.748625 65.9145 115.748625 
z
" style="fill:none;stroke:#000000;stroke-linejoin:miter;stroke-width:1.5;"/>
   </g>
   <g id="patch_21">
    <path clip-path="url(#pe35ebf719f)" d="M 41.2905 135.278625 
C 42.32161 135.278625 43.310627 134.925859 44.039731 134.298019 
C 44.768836 133.670178 45.1785 132.818525 45.1785 131.930625 
C 45.1785 131.042725 44.768836 130.191072 44.039731 129.563231 
C 43.310627 128.935391 42.32161 128.582625 41.2905 128.582625 
C 40.25939 128.582625 39.270373 128.935391 38.541269 129.563231 
C 37.812164 130.191072 37.4025 131.042725 37.4025 131.930625 
C 37.4025 132.818525 37.812164 133.670178 38.541269 134.298019 
C 39.270373 134.925859 40.25939 135.278625 41.2905 135.278625 
z
" style="fill:none;stroke:#000000;stroke-linejoin:miter;stroke-width:1.5;"/>
   </g>
   <g id="patch_22">
    <path clip-path="url(#pe35ebf719f)" d="M 65.9145 135.278625 
C 66.94561 135.278625 67.934627 134.925859 68.663731 134.298019 
C 69.392836 133.670178 69.8025 132.818525 69.8025 131.930625 
C 69.8025 131.042725 69.392836 130.191072 68.663731 129.563231 
C 67.934627 128.935391 66.94561 128.582625 65.9145 128.582625 
C 64.88339 128.582625 63.894373 128.935391 63.165269 129.563231 
C 62.436164 130.191072 62.0265 131.042725 62.0265 131.930625 
C 62.0265 132.818525 62.436164 133.670178 63.165269 134.298019 
C 63.894373 134.925859 64.88339 135.278625 65.9145 135.278625 
z
" style="fill:none;stroke:#000000;stroke-linejoin:miter;stroke-width:1.5;"/>
   </g>
   <g id="patch_23">
    <path clip-path="url(#pe35ebf719f)" d="M 221.4345 115.748625 
C 222.46561 115.748625 223.454627 115.395859 224.183731 114.768019 
C 224.912836 114.140178 225.3225 113.288525 225.3225 112.400625 
C 225.3225 111.512725 224.912836 110.661072 224.183731 110.033231 
C 223.454627 109.405391 222.46561 109.052625 221.4345 109.052625 
C 220.40339 109.052625 219.414373 109.405391 218.685269 110.033231 
C 217.956164 110.661072 217.5465 111.512725 217.5465 112.400625 
C 217.5465 113.288525 217.956164 114.140178 218.685269 114.768019 
C 219.414373 115.395859 220.40339 115.748625 221.4345 115.748625 
z
" style="fill:none;stroke:#000000;stroke-linejoin:miter;stroke-width:1.5;"/>
   </g>
   <g id="patch_24">
    <path clip-path="url(#pe35ebf719f)" d="M 196.8105 135.278625 
C 197.84161 135.278625 198.830627 134.925859 199.559731 134.298019 
C 200.288836 133.670178 200.6985 132.818525 200.6985 131.930625 
C 200.6985 131.042725 200.288836 130.191072 199.559731 129.563231 
C 198.830627 128.935391 197.84161 128.582625 196.8105 128.582625 
C 195.77939 128.582625 194.790373 128.935391 194.061269 129.563231 
C 193.332164 130.191072 192.9225 131.042725 192.9225 131.930625 
C 192.9225 132.818525 193.332164 133.670178 194.061269 134.298019 
C 194.790373 134.925859 195.77939 135.278625 196.8105 135.278625 
z
" style="fill:none;stroke:#000000;stroke-linejoin:miter;stroke-width:1.5;"/>
   </g>
   <g id="patch_25">
    <path clip-path="url(#pe35ebf719f)" d="M 221.4345 135.278625 
C 222.46561 135.278625 223.454627 134.925859 224.183731 134.298019 
C 224.912836 133.670178 225.3225 132.818525 225.3225 131.930625 
C 225.3225 131.042725 224.912836 130.191072 224.183731 129.563231 
C 223.454627 128.935391 222.46561 128.582625 221.4345 128.582625 
C 220.40339 128.582625 219.414373 128.935391 218.685269 129.563231 
C 217.956164 130.191072 217.5465 131.042725 217.5465 131.930625 
C 217.5465 132.818525 217.956164 133.670178 218.685269 134.298019 
C 219.414373 134.925859 220.40339 135.278625 221.4345 135.278625 
z
" style="fill:none;stroke:#000000;stroke-linejoin:miter;stroke-width:1.5;"/>
   </g>
   <g id="patch_26">
    <path clip-path="url(#pe35ebf719f)" d="M 376.9545 115.748625 
C 377.98561 115.748625 378.974627 115.395859 379.703731 114.768019 
C 380.432836 114.140178 380.8425 113.288525 380.8425 112.400625 
C 380.8425 111.512725 380.432836 110.661072 379.703731 110.033231 
C 378.974627 109.405391 377.98561 109.052625 376.9545 109.052625 
C 375.92339 109.052625 374.934373 109.405391 374.205269 110.033231 
C 373.476164 110.661072 373.0665 111.512725 373.0665 112.400625 
C 373.0665 113.288525 373.476164 114.140178 374.205269 114.768019 
C 374.934373 115.395859 375.92339 115.748625 376.9545 115.748625 
z
" style="fill:none;stroke:#000000;stroke-linejoin:miter;stroke-width:1.5;"/>
   </g>
   <g id="patch_27">
    <path clip-path="url(#pe35ebf719f)" d="M 352.3305 135.278625 
C 353.36161 135.278625 354.350627 134.925859 355.079731 134.298019 
C 355.808836 133.670178 356.2185 132.818525 356.2185 131.930625 
C 356.2185 131.042725 355.808836 130.191072 355.079731 129.563231 
C 354.350627 128.935391 353.36161 128.582625 352.3305 128.582625 
C 351.29939 128.582625 350.310373 128.935391 349.581269 129.563231 
C 348.852164 130.191072 348.4425 131.042725 348.4425 131.930625 
C 348.4425 132.818525 348.852164 133.670178 349.581269 134.298019 
C 350.310373 134.925859 351.29939 135.278625 352.3305 135.278625 
z
" style="fill:none;stroke:#000000;stroke-linejoin:miter;stroke-width:1.5;"/>
   </g>
   <g id="patch_28">
    <path clip-path="url(#pe35ebf719f)" d="M 376.9545 135.278625 
C 377.98561 135.278625 378.974627 134.925859 379.703731 134.298019 
C 380.432836 133.670178 380.8425 132.818525 380.8425 131.930625 
C 380.8425 131.042725 380.432836 130.191072 379.703731 129.563231 
C 378.974627 128.935391 377.98561 128.582625 376.9545 128.582625 
C 375.92339 128.582625 374.934373 128.935391 374.205269 129.563231 
C 373.476164 130.191072 373.0665 131.042725 373.0665 131.930625 
C 373.0665 132.818525 373.476164 133.670178 374.205269 134.298019 
C 374.934373 134.925859 375.92339 135.278625 376.9545 135.278625 
z
" style="fill:none;stroke:#000000;stroke-linejoin:miter;stroke-width:1.5;"/>
   </g>
   <g id="patch_29">
    <path clip-path="url(#pe35ebf719f)" d="M 41.2905 218.978625 
C 42.32161 218.978625 43.310627 218.625859 44.039731 217.998019 
C 44.768836 217.370178 45.1785 216.518525 45.1785 215.630625 
C 45.1785 214.742725 44.768836 213.891072 44.039731 213.263231 
C 43.310627 212.635391 42.32161 212.282625 41.2905 212.282625 
C 40.25939 212.282625 39.270373 212.635391 38.541269 213.263231 
C 37.812164 213.891072 37.4025 214.742725 37.4025 215.630625 
C 37.4025 216.518525 37.812164 217.370178 38.541269 217.998019 
C 39.270373 218.625859 40.25939 218.978625 41.2905 218.978625 
z
" style="fill:none;stroke:#000000;stroke-linejoin:miter;stroke-width:1.5;"/>
   </g>
   <g id="patch_30">
    <path clip-path="url(#pe35ebf719f)" d="M 65.9145 230.138625 
C 66.94561 230.138625 67.934627 229.785859 68.663731 229.158019 
C 69.392836 228.530178 69.8025 227.678525 69.8025 226.790625 
C 69.8025 225.902725 69.392836 225.051072 68.663731 224.423231 
C 67.934627 223.795391 66.94561 223.442625 65.9145 223.442625 
C 64.88339 223.442625 63.894373 223.795391 63.165269 224.423231 
C 62.436164 225.051072 62.0265 225.902725 62.0265 226.790625 
C 62.0265 227.678525 62.436164 228.530178 63.165269 229.158019 
C 63.894373 229.785859 64.88339 230.138625 65.9145 230.138625 
z
" style="fill:none;stroke:#000000;stroke-linejoin:miter;stroke-width:1.5;"/>
   </g>
   <g id="patch_31">
    <path clip-path="url(#pe35ebf719f)" d="M 65.9145 207.818625 
C 66.94561 207.818625 67.934627 207.465859 68.663731 206.838019 
C 69.392836 206.210178 69.8025 205.358525 69.8025 204.470625 
C 69.8025 203.582725 69.392836 202.731072 68.663731 202.103231 
C 67.934627 201.475391 66.94561 201.122625 65.9145 201.122625 
C 64.88339 201.122625 63.894373 201.475391 63.165269 202.103231 
C 62.436164 202.731072 62.0265 203.582725 62.0265 204.470625 
C 62.0265 205.358525 62.436164 206.210178 63.165269 206.838019 
C 63.894373 207.465859 64.88339 207.818625 65.9145 207.818625 
z
" style="fill:none;stroke:#000000;stroke-linejoin:miter;stroke-width:1.5;"/>
   </g>
   <g id="patch_32">
    <path clip-path="url(#pe35ebf719f)" d="M 196.8105 218.978625 
C 197.84161 218.978625 198.830627 218.625859 199.559731 217.998019 
C 200.288836 217.370178 200.6985 216.518525 200.6985 215.630625 
C 200.6985 214.742725 200.288836 213.891072 199.559731 213.263231 
C 198.830627 212.635391 197.84161 212.282625 196.8105 212.282625 
C 195.77939 212.282625 194.790373 212.635391 194.061269 213.263231 
C 193.332164 213.891072 192.9225 214.742725 192.9225 215.630625 
C 192.9225 216.518525 193.332164 217.370178 194.061269 217.998019 
C 194.790373 218.625859 195.77939 218.978625 196.8105 218.978625 
z
" style="fill:none;stroke:#000000;stroke-linejoin:miter;stroke-width:1.5;"/>
   </g>
   <g id="patch_33">
    <path clip-path="url(#pe35ebf719f)" d="M 221.4345 230.138625 
C 222.46561 230.138625 223.454627 229.785859 224.183731 229.158019 
C 224.912836 228.530178 225.3225 227.678525 225.3225 226.790625 
C 225.3225 225.902725 224.912836 225.051072 224.183731 224.423231 
C 223.454627 223.795391 222.46561 223.442625 221.4345 223.442625 
C 220.40339 223.442625 219.414373 223.795391 218.685269 224.423231 
C 217.956164 225.051072 217.5465 225.902725 217.5465 226.790625 
C 217.5465 227.678525 217.956164 228.530178 218.685269 229.158019 
C 219.414373 229.785859 220.40339 230.138625 221.4345 230.138625 
z
" style="fill:none;stroke:#000000;stroke-linejoin:miter;stroke-width:1.5;"/>
   </g>
   <g id="patch_34">
    <path clip-path="url(#pe35ebf719f)" d="M 221.4345 207.818625 
C 222.46561 207.818625 223.454627 207.465859 224.183731 206.838019 
C 224.912836 206.210178 225.3225 205.358525 225.3225 204.470625 
C 225.3225 203.582725 224.912836 202.731072 224.183731 202.103231 
C 223.454627 201.475391 222.46561 201.122625 221.4345 201.122625 
C 220.40339 201.122625 219.414373 201.475391 218.685269 202.103231 
C 217.956164 202.731072 217.5465 203.582725 217.5465 204.470625 
C 217.5465 205.358525 217.956164 206.210178 218.685269 206.838019 
C 219.414373 207.465859 220.40339 207.818625 221.4345 207.818625 
z
" style="fill:none;stroke:#000000;stroke-linejoin:miter;stroke-width:1.5;"/>
   </g>
   <g id="patch_35">
    <path clip-path="url(#pe35ebf719f)" d="M 352.3305 218.978625 
C 353.36161 218.978625 354.350627 218.625859 355.079731 217.998019 
C 355.808836 217.370178 356.2185 216.518525 356.2185 215.630625 
C 356.2185 214.742725 355.808836 213.891072 355.079731 213.263231 
C 354.350627 212.635391 353.36161 212.282625 352.3305 212.282625 
C 351.29939 212.282625 350.310373 212.635391 349.581269 213.263231 
C 348.852164 213.891072 348.4425 214.742725 348.4425 215.630625 
C 348.4425 216.518525 348.852164 217.370178 349.581269 217.998019 
C 350.310373 218.625859 351.29939 218.978625 352.3305 218.978625 
z
" style="fill:none;stroke:#000000;stroke-linejoin:miter;stroke-width:1.5;"/>
   </g>
   <g id="patch_36">
    <path clip-path="url(#pe35ebf719f)" d="M 376.9545 230.138625 
C 377.98561 230.138625 378.974627 229.785859 379.703731 229.158019 
C 380.432836 228.530178 380.8425 227.678525 380.8425 226.790625 
C 380.8425 225.902725 380.432836 225.051072 379.703731 224.423231 
C 378.974627 223.795391 377.98561 223.442625 376.9545 223.442625 
C 375.92339 223.442625 374.934373 223.795391 374.205269 224.423231 
C 373.476164 225.051072 373.0665 225.902725 373.0665 226.790625 
C 373.0665 227.678525 373.476164 228.530178 374.205269 229.158019 
C 374.934373 229.785859 375.92339 230.138625 376.9545 230.138625 
z
" style="fill:none;stroke:#000000;stroke-linejoin:miter;stroke-width:1.5;"/>
   </g>
   <g id="patch_37">
    <path clip-path="url(#pe35ebf719f)" d="M 376.9545 207.818625 
C 377.98561 207.818625 378.974627 207.465859 379.703731 206.838019 
C 380.432836 206.210178 380.8425 205.358525 380.8425 204.470625 
C 380.8425 203.582725 380.432836 202.731072 379.703731 202.103231 
C 378.974627 201.475391 377.98561 201.122625 376.9545 201.122625 
C 375.92339 201.122625 374.934373 201.475391 374.205269 202.103231 
C 373.476164 202.731072 373.0665 203.582725 373.0665 204.470625 
C 373.0665 205.358525 373.476164 206.210178 374.205269 206.838019 
C 374.934373 207.465859 375.92339 207.818625 376.9545 207.818625 
z
" style="fill:none;stroke:#000000;stroke-linejoin:miter;stroke-width:1.5;"/>
   </g>
   <g id="text_1">
    <!-- SWITCH_SPST -->
    <defs>
     <path d="M 53.515625 70.515625 
L 53.515625 60.890625 
Q 47.90625 63.578125 42.921875 64.890625 
Q 37.9375 66.21875 33.296875 66.21875 
Q 25.25 66.21875 20.875 63.09375 
Q 16.5 59.96875 16.5 54.203125 
Q 16.5 49.359375 19.40625 46.890625 
Q 22.3125 44.4375 30.421875 42.921875 
L 36.375 41.703125 
Q 47.40625 39.59375 52.65625 34.296875 
Q 57.90625 29 57.90625 20.125 
Q 57.90625 9.515625 50.796875 4.046875 
Q 43.703125 -1.421875 29.984375 -1.421875 
Q 24.8125 -1.421875 18.96875 -0.25 
Q 13.140625 0.921875 6.890625 3.21875 
L 6.890625 13.375 
Q 12.890625 10.015625 18.65625 8.296875 
Q 24.421875 6.59375 29.984375 6.59375 
Q 38.421875 6.59375 43.015625 9.90625 
Q 47.609375 13.234375 47.609375 19.390625 
Q 47.609375 24.75 44.3125 27.78125 
Q 41.015625 30.8125 33.5 32.328125 
L 27.484375 33.5 
Q 16.453125 35.6875 11.515625 40.375 
Q 6.59375 45.0625 6.59375 53.421875 
Q 6.59375 63.09375 13.40625 68.65625 
Q 20.21875 74.21875 32.171875 74.21875 
Q 37.3125 74.21875 42.625 73.28125 
Q 47.953125 72.359375 53.515625 70.515625 
z
" id="DejaVuSans-53"/>
     <path d="M 3.328125 72.90625 
L 13.28125 72.90625 
L 28.609375 11.28125 
L 43.890625 72.90625 
L 54.984375 72.90625 
L 70.3125 11.28125 
L 85.59375 72.90625 
L 95.609375 72.90625 
L 77.296875 0 
L 64.890625 0 
L 49.515625 63.28125 
L 33.984375 0 
L 21.578125 0 
z
" id="DejaVuSans-57"/>
     <path d="M 9.8125 72.90625 
L 19.671875 72.90625 
L 19.671875 0 
L 9.8125 0 
z
" id="DejaVuSans-49"/>
     <path d="M -0.296875 72.90625 
L 61.375 72.90625 
L 61.375 64.59375 
L 35.5 64.59375 
L 35.5 0 
L 25.59375 0 
L 25.59375 64.59375 
L -0.296875 64.59375 
z
" id="DejaVuSans-54"/>
     <path d="M 64.40625 67.28125 
L 64.40625 56.890625 
Q 59.421875 61.53125 53.78125 63.8125 
Q 48.140625 66.109375 41.796875 66.109375 
Q 29.296875 66.109375 22.65625 58.46875 
Q 16.015625 50.828125 16.015625 36.375 
Q 16.015625 21.96875 22.65625 14.328125 
Q 29.296875 6.6875 41.796875 6.6875 
Q 48.140625 6.6875 53.78125 8.984375 
Q 59.421875 11.28125 64.40625 15.921875 
L 64.40625 5.609375 
Q 59.234375 2.09375 53.4375 0.328125 
Q 47.65625 -1.421875 41.21875 -1.421875 
Q 24.65625 -1.421875 15.125 8.703125 
Q 5.609375 18.84375 5.609375 36.375 
Q 5.609375 53.953125 15.125 64.078125 
Q 24.65625 74.21875 41.21875 74.21875 
Q 47.75 74.21875 53.53125 72.484375 
Q 59.328125 70.75 64.40625 67.28125 
z
" id="DejaVuSans-43"/>
     <path d="M 9.8125 72.90625 
L 19.671875 72.90625 
L 19.671875 43.015625 
L 55.515625 43.015625 
L 55.515625 72.90625 
L 65.375 72.90625 
L 65.375 0 
L 55.515625 0 
L 55.515625 34.71875 
L 19.671875 34.71875 
L 19.671875 0 
L 9.8125 0 
z
" id="DejaVuSans-48"/>
     <path d="M 50.984375 -16.609375 
L 50.984375 -23.578125 
L -0.984375 -23.578125 
L -0.984375 -16.609375 
z
" id="DejaVuSans-5f"/>
     <path d="M 19.671875 64.796875 
L 19.671875 37.40625 
L 32.078125 37.40625 
Q 38.96875 37.40625 42.71875 40.96875 
Q 46.484375 44.53125 46.484375 51.125 
Q 46.484375 57.671875 42.71875 61.234375 
Q 38.96875 64.796875 32.078125 64.796875 
z
M 9.8125 72.90625 
L 32.078125 72.90625 
Q 44.34375 72.90625 50.609375 67.359375 
Q 56.890625 61.8125 56.890625 51.125 
Q 56.890625 40.328125 50.609375 34.8125 
Q 44.34375 29.296875 32.078125 29.296875 
L 19.671875 29.296875 
L 19.671875 0 
L 9.8125 0 
z
" id="DejaVuSans-50"/>
    </defs>
    <g transform="translate(44.228437 18.47775)scale(0.12 -0.12)">
     <use xlink:href="#DejaVuSans-53"/>
     <use x="63.476562" xlink:href="#DejaVuSans-57"/>
     <use x="162.353516" xlink:href="#DejaVuSans-49"/>
     <use x="191.845703" xlink:href="#DejaVuSans-54"/>
     <use x="252.851562" xlink:href="#DejaVuSans-43"/>
     <use x="322.675781" xlink:href="#DejaVuSans-48"/>
     <use x="397.871094" xlink:href="#DejaVuSans-5f"/>
     <use x="447.871094" xlink:href="#DejaVuSans-53"/>
     <use x="511.347656" xlink:href="#DejaVuSans-50"/>
     <use x="571.650391" xlink:href="#DejaVuSans-53"/>
     <use x="635.126953" xlink:href="#DejaVuSans-54"/>
    </g>
   </g>
   <g id="text_2">
    <!-- SWITCH_SPST_OPEN -->
    <defs>
     <path d="M 39.40625 66.21875 
Q 28.65625 66.21875 22.328125 58.203125 
Q 16.015625 50.203125 16.015625 36.375 
Q 16.015625 22.609375 22.328125 14.59375 
Q 28.65625 6.59375 39.40625 6.59375 
Q 50.140625 6.59375 56.421875 14.59375 
Q 62.703125 22.609375 62.703125 36.375 
Q 62.703125 50.203125 56.421875 58.203125 
Q 50.140625 66.21875 39.40625 66.21875 
z
M 39.40625 74.21875 
Q 54.734375 74.21875 63.90625 63.9375 
Q 73.09375 53.65625 73.09375 36.375 
Q 73.09375 19.140625 63.90625 8.859375 
Q 54.734375 -1.421875 39.40625 -1.421875 
Q 24.03125 -1.421875 14.8125 8.828125 
Q 5.609375 19.09375 5.609375 36.375 
Q 5.609375 53.65625 14.8125 63.9375 
Q 24.03125 74.21875 39.40625 74.21875 
z
" id="DejaVuSans-4f"/>
     <path d="M 9.8125 72.90625 
L 55.90625 72.90625 
L 55.90625 64.59375 
L 19.671875 64.59375 
L 19.671875 43.015625 
L 54.390625 43.015625 
L 54.390625 34.71875 
L 19.671875 34.71875 
L 19.671875 8.296875 
L 56.78125 8.296875 
L 56.78125 0 
L 9.8125 0 
z
" id="DejaVuSans-45"/>
     <path d="M 9.8125 72.90625 
L 23.09375 72.90625 
L 55.421875 11.921875 
L 55.421875 72.90625 
L 64.984375 72.90625 
L 64.984375 0 
L 51.703125 0 
L 19.390625 60.984375 
L 19.390625 0 
L 9.8125 0 
z
" id="DejaVuSans-4e"/>
    </defs>
    <g transform="translate(180.1275 20.29125)scale(0.12 -0.12)">
     <use xlink:href="#DejaVuSans-53"/>
     <use x="63.476562" xlink:href="#DejaVuSans-57"/>
     <use x="162.353516" xlink:href="#DejaVuSans-49"/>
     <use x="191.845703" xlink:href="#DejaVuSans-54"/>
     <use x="252.851562" xlink:href="#DejaVuSans-43"/>
     <use x="322.675781" xlink:href="#DejaVuSans-48"/>
     <use x="397.871094" xlink:href="#DejaVuSans-5f"/>
     <use x="447.871094" xlink:href="#DejaVuSans-53"/>
     <use x="511.347656" xlink:href="#DejaVuSans-50"/>
     <use x="571.650391" xlink:href="#DejaVuSans-53"/>
     <use x="635.126953" xlink:href="#DejaVuSans-54"/>
     <use x="696.210938" xlink:href="#DejaVuSans-5f"/>
     <use x="746.210938" xlink:href="#DejaVuSans-4f"/>
     <use x="824.921875" xlink:href="#DejaVuSans-50"/>
     <use x="885.224609" xlink:href="#DejaVuSans-45"/>
     <use x="948.408203" xlink:href="#DejaVuSans-4e"/>
    </g>
   </g>
   <g id="text_3">
    <!-- SWITCH_SPST_CLOSE -->
    <defs>
     <path d="M 9.8125 72.90625 
L 19.671875 72.90625 
L 19.671875 8.296875 
L 55.171875 8.296875 
L 55.171875 0 
L 9.8125 0 
z
" id="DejaVuSans-4c"/>
    </defs>
    <g transform="translate(332.415 16.10625)scale(0.12 -0.12)">
     <use xlink:href="#DejaVuSans-53"/>
     <use x="63.476562" xlink:href="#DejaVuSans-57"/>
     <use x="162.353516" xlink:href="#DejaVuSans-49"/>
     <use x="191.845703" xlink:href="#DejaVuSans-54"/>
     <use x="252.851562" xlink:href="#DejaVuSans-43"/>
     <use x="322.675781" xlink:href="#DejaVuSans-48"/>
     <use x="397.871094" xlink:href="#DejaVuSans-5f"/>
     <use x="447.871094" xlink:href="#DejaVuSans-53"/>
     <use x="511.347656" xlink:href="#DejaVuSans-50"/>
     <use x="571.650391" xlink:href="#DejaVuSans-53"/>
     <use x="635.126953" xlink:href="#DejaVuSans-54"/>
     <use x="696.210938" xlink:href="#DejaVuSans-5f"/>
     <use x="746.210938" xlink:href="#DejaVuSans-43"/>
     <use x="816.035156" xlink:href="#DejaVuSans-4c"/>
     <use x="871.701172" xlink:href="#DejaVuSans-4f"/>
     <use x="950.412109" xlink:href="#DejaVuSans-53"/>
     <use x="1013.888672" xlink:href="#DejaVuSans-45"/>
    </g>
   </g>
   <g id="text_4">
    <!-- SWITCH_SPDT -->
    <defs>
     <path d="M 19.671875 64.796875 
L 19.671875 8.109375 
L 31.59375 8.109375 
Q 46.6875 8.109375 53.6875 14.9375 
Q 60.6875 21.78125 60.6875 36.53125 
Q 60.6875 51.171875 53.6875 57.984375 
Q 46.6875 64.796875 31.59375 64.796875 
z
M 9.8125 72.90625 
L 30.078125 72.90625 
Q 51.265625 72.90625 61.171875 64.09375 
Q 71.09375 55.28125 71.09375 36.53125 
Q 71.09375 17.671875 61.125 8.828125 
Q 51.171875 0 30.078125 0 
L 9.8125 0 
z
" id="DejaVuSans-44"/>
    </defs>
    <g transform="translate(11.0175 97.01625)scale(0.12 -0.12)">
     <use xlink:href="#DejaVuSans-53"/>
     <use x="63.476562" xlink:href="#DejaVuSans-57"/>
     <use x="162.353516" xlink:href="#DejaVuSans-49"/>
     <use x="191.845703" xlink:href="#DejaVuSans-54"/>
     <use x="252.851562" xlink:href="#DejaVuSans-43"/>
     <use x="322.675781" xlink:href="#DejaVuSans-48"/>
     <use x="397.871094" xlink:href="#DejaVuSans-5f"/>
     <use x="447.871094" xlink:href="#DejaVuSans-53"/>
     <use x="511.347656" xlink:href="#DejaVuSans-50"/>
     <use x="571.650391" xlink:href="#DejaVuSans-44"/>
     <use x="648.652344" xlink:href="#DejaVuSans-54"/>
    </g>
   </g>
   <g id="text_5">
    <!-- SWITCH_SPDT_OPEN -->
    <g transform="translate(145.296562 103.99125)scale(0.12 -0.12)">
     <use xlink:href="#DejaVuSans-53"/>
     <use x="63.476562" xlink:href="#DejaVuSans-57"/>
     <use x="162.353516" xlink:href="#DejaVuSans-49"/>
     <use x="191.845703" xlink:href="#DejaVuSans-54"/>
     <use x="252.851562" xlink:href="#DejaVuSans-43"/>
     <use x="322.675781" xlink:href="#DejaVuSans-48"/>
     <use x="397.871094" xlink:href="#DejaVuSans-5f"/>
     <use x="447.871094" xlink:href="#DejaVuSans-53"/>
     <use x="511.347656" xlink:href="#DejaVuSans-50"/>
     <use x="571.650391" xlink:href="#DejaVuSans-44"/>
     <use x="648.652344" xlink:href="#DejaVuSans-54"/>
     <use x="709.736328" xlink:href="#DejaVuSans-5f"/>
     <use x="759.736328" xlink:href="#DejaVuSans-4f"/>
     <use x="838.447266" xlink:href="#DejaVuSans-50"/>
     <use x="898.75" xlink:href="#DejaVuSans-45"/>
     <use x="961.933594" xlink:href="#DejaVuSans-4e"/>
    </g>
   </g>
   <g id="text_6">
    <!-- SWITCH_SPDT_CLOSE -->
    <g transform="translate(297.584062 99.80625)scale(0.12 -0.12)">
     <use xlink:href="#DejaVuSans-53"/>
     <use x="63.476562" xlink:href="#DejaVuSans-57"/>
     <use x="162.353516" xlink:href="#DejaVuSans-49"/>
     <use x="191.845703" xlink:href="#DejaVuSans-54"/>
     <use x="252.851562" xlink:href="#DejaVuSans-43"/>
     <use x="322.675781" xlink:href="#DejaVuSans-48"/>
     <use x="397.871094" xlink:href="#DejaVuSans-5f"/>
     <use x="447.871094" xlink:href="#DejaVuSans-53"/>
     <use x="511.347656" xlink:href="#DejaVuSans-50"/>
     <use x="571.650391" xlink:href="#DejaVuSans-44"/>
     <use x="648.652344" xlink:href="#DejaVuSans-54"/>
     <use x="709.736328" xlink:href="#DejaVuSans-5f"/>
     <use x="759.736328" xlink:href="#DejaVuSans-43"/>
     <use x="829.560547" xlink:href="#DejaVuSans-4c"/>
     <use x="885.226562" xlink:href="#DejaVuSans-4f"/>
     <use x="963.9375" xlink:href="#DejaVuSans-53"/>
     <use x="1027.414062" xlink:href="#DejaVuSans-45"/>
    </g>
   </g>
   <g id="text_7">
    <!-- SWITCH_SPDT2 -->
    <defs>
     <path d="M 19.1875 8.296875 
L 53.609375 8.296875 
L 53.609375 0 
L 7.328125 0 
L 7.328125 8.296875 
Q 12.9375 14.109375 22.625 23.890625 
Q 32.328125 33.6875 34.8125 36.53125 
Q 39.546875 41.84375 41.421875 45.53125 
Q 43.3125 49.21875 43.3125 52.78125 
Q 43.3125 58.59375 39.234375 62.25 
Q 35.15625 65.921875 28.609375 65.921875 
Q 23.96875 65.921875 18.8125 64.3125 
Q 13.671875 62.703125 7.8125 59.421875 
L 7.8125 69.390625 
Q 13.765625 71.78125 18.9375 73 
Q 24.125 74.21875 28.421875 74.21875 
Q 39.75 74.21875 46.484375 68.546875 
Q 53.21875 62.890625 53.21875 53.421875 
Q 53.21875 48.921875 51.53125 44.890625 
Q 49.859375 40.875 45.40625 35.40625 
Q 44.1875 33.984375 37.640625 27.21875 
Q 31.109375 20.453125 19.1875 8.296875 
z
" id="DejaVuSans-32"/>
    </defs>
    <g transform="translate(7.2 190.48125)scale(0.12 -0.12)">
     <use xlink:href="#DejaVuSans-53"/>
     <use x="63.476562" xlink:href="#DejaVuSans-57"/>
     <use x="162.353516" xlink:href="#DejaVuSans-49"/>
     <use x="191.845703" xlink:href="#DejaVuSans-54"/>
     <use x="252.851562" xlink:href="#DejaVuSans-43"/>
     <use x="322.675781" xlink:href="#DejaVuSans-48"/>
     <use x="397.871094" xlink:href="#DejaVuSans-5f"/>
     <use x="447.871094" xlink:href="#DejaVuSans-53"/>
     <use x="511.347656" xlink:href="#DejaVuSans-50"/>
     <use x="571.650391" xlink:href="#DejaVuSans-44"/>
     <use x="648.652344" xlink:href="#DejaVuSans-54"/>
     <use x="709.736328" xlink:href="#DejaVuSans-32"/>
    </g>
   </g>
   <g id="text_8">
    <!-- SWITCH_SPDT2_OPEN -->
    <g transform="translate(140.669062 190.48125)scale(0.12 -0.12)">
     <use xlink:href="#DejaVuSans-53"/>
     <use x="63.476562" xlink:href="#DejaVuSans-57"/>
     <use x="162.353516" xlink:href="#DejaVuSans-49"/>
     <use x="191.845703" xlink:href="#DejaVuSans-54"/>
     <use x="252.851562" xlink:href="#DejaVuSans-43"/>
     <use x="322.675781" xlink:href="#DejaVuSans-48"/>
     <use x="397.871094" xlink:href="#DejaVuSans-5f"/>
     <use x="447.871094" xlink:href="#DejaVuSans-53"/>
     <use x="511.347656" xlink:href="#DejaVuSans-50"/>
     <use x="571.650391" xlink:href="#DejaVuSans-44"/>
     <use x="648.652344" xlink:href="#DejaVuSans-54"/>
     <use x="709.736328" xlink:href="#DejaVuSans-32"/>
     <use x="773.359375" xlink:href="#DejaVuSans-5f"/>
     <use x="823.359375" xlink:href="#DejaVuSans-4f"/>
     <use x="902.070312" xlink:href="#DejaVuSans-50"/>
     <use x="962.373047" xlink:href="#DejaVuSans-45"/>
     <use x="1025.556641" xlink:href="#DejaVuSans-4e"/>
    </g>
   </g>
   <g id="text_9">
    <!-- SWITCH_SPDT2_CLOSE -->
    <g transform="translate(292.146562 187.69125)scale(0.12 -0.12)">
     <use xlink:href="#DejaVuSans-53"/>
     <use x="63.476562" xlink:href="#DejaVuSans-57"/>
     <use x="162.353516" xlink:href="#DejaVuSans-49"/>
     <use x="191.845703" xlink:href="#DejaVuSans-54"/>
     <use x="252.851562" xlink:href="#DejaVuSans-43"/>
     <use x="322.675781" xlink:href="#DejaVuSans-48"/>
     <use x="397.871094" xlink:href="#DejaVuSans-5f"/>
     <use x="447.871094" xlink:href="#DejaVuSans-53"/>
     <use x="511.347656" xlink:href="#DejaVuSans-50"/>
     <use x="571.650391" xlink:href="#DejaVuSans-44"/>
     <use x="648.652344" xlink:href="#DejaVuSans-54"/>
     <use x="709.736328" xlink:href="#DejaVuSans-32"/>
     <use x="773.359375" xlink:href="#DejaVuSans-5f"/>
     <use x="823.359375" xlink:href="#DejaVuSans-43"/>
     <use x="893.183594" xlink:href="#DejaVuSans-4c"/>
     <use x="948.849609" xlink:href="#DejaVuSans-4f"/>
     <use x="1027.560547" xlink:href="#DejaVuSans-53"/>
     <use x="1091.037109" xlink:href="#DejaVuSans-45"/>
    </g>
   </g>
  </g>
 </g>
 <defs>
  <clipPath id="pe35ebf719f">
   <rect height="224.86005" width="455.544" x="13.7505" y="18.03585"/>
  </clipPath>
 </defs>
</svg>
