<?xml version="1.0" encoding="utf-8" standalone="no"?>
<!DOCTYPE svg PUBLIC "-//W3C//DTD SVG 1.1//EN"
  "http://www.w3.org/Graphics/SVG/1.1/DTD/svg11.dtd">
<!-- Created with matplotlib (http://matplotlib.org/) -->
<svg height="260pt" version="1.1" viewBox="0 0 466 260" width="466pt" xmlns="http://www.w3.org/2000/svg" xmlns:xlink="http://www.w3.org/1999/xlink">
 <defs>
  <style type="text/css">
*{stroke-linecap:butt;stroke-linejoin:round;}
  </style>
 </defs>
 <g id="figure_1">
  <g id="patch_1">
   <path d="
M0 260.838
L466.183 260.838
L466.183 5.68434e-14
L0 5.68434e-14
L0 260.838" style="fill:none;"/>
  </g>
  <g id="axes_1">
   <g id="patch_2">
    <path clip-path="url(#pb4b8f0cc8e)" d="
M244.915 49.9982
C245.246 47.3421 244.905 44.6039 243.953 42.2681
C243.001 39.9323 241.498 38.1451 239.708 37.2227" style="fill:none;stroke:#000000;stroke-linejoin:miter;stroke-width:1.5;"/>
   </g>
   <g id="patch_3">
    <path clip-path="url(#pb4b8f0cc8e)" d="
M400.435 45.4082
C400.766 42.7521 400.425 40.0139 399.473 37.6781
C398.521 35.3423 397.018 33.5551 395.228 32.6327" style="fill:none;stroke:#000000;stroke-linejoin:miter;stroke-width:1.5;"/>
   </g>
   <g id="patch_4">
    <path clip-path="url(#pb4b8f0cc8e)" d="
M212.515 141.798
C212.846 139.142 212.505 136.404 211.553 134.068
C210.601 131.732 209.098 129.945 207.308 129.023" style="fill:none;stroke:#000000;stroke-linejoin:miter;stroke-width:1.5;"/>
   </g>
   <g id="patch_5">
    <path clip-path="url(#pb4b8f0cc8e)" d="
M368.035 137.208
C368.366 134.552 368.025 131.814 367.073 129.478
C366.121 127.142 364.618 125.355 362.828 124.433" style="fill:none;stroke:#000000;stroke-linejoin:miter;stroke-width:1.5;"/>
   </g>
   <g id="patch_6">
    <path clip-path="url(#pb4b8f0cc8e)" d="
M210.895 236.658
C211.226 234.002 210.885 231.264 209.933 228.928
C208.981 226.592 207.478 224.805 205.688 223.883" style="fill:none;stroke:#000000;stroke-linejoin:miter;stroke-width:1.5;"/>
   </g>
   <g id="patch_7">
    <path clip-path="url(#pb4b8f0cc8e)" d="
M364.795 233.598
C365.126 230.942 364.785 228.204 363.833 225.868
C362.881 223.532 361.378 221.745 359.588 220.823" style="fill:none;stroke:#000000;stroke-linejoin:miter;stroke-width:1.5;"/>
   </g>
   <g id="patch_8">
    <path clip-path="url(#pb4b8f0cc8e)" d="
M231.793 34.5015
L240.235 34.9614
L239.41 37.1036
L239.714 37.2083
L239.703 37.237
L239.398 37.1324
L238.573 39.2746
z
" style="stroke:#000000;stroke-linejoin:miter;"/>
   </g>
   <g id="patch_9">
    <path clip-path="url(#pb4b8f0cc8e)" d="
M398.972 53.2434
L397.986 45.3111
L400.363 45.7069
L400.419 45.4056
L400.451 45.4109
L400.395 45.7122
L402.772 46.1081
z
" style="stroke:#000000;stroke-linejoin:miter;"/>
   </g>
   <g id="patch_10">
    <path clip-path="url(#pb4b8f0cc8e)" d="
M199.393 126.302
L207.835 126.761
L207.01 128.904
L207.314 129.008
L207.303 129.037
L206.998 128.932
L206.173 131.075
z
" style="stroke:#000000;stroke-linejoin:miter;"/>
   </g>
   <g id="patch_11">
    <path clip-path="url(#pb4b8f0cc8e)" d="
M366.572 145.043
L365.586 137.111
L367.963 137.507
L368.019 137.206
L368.051 137.211
L367.995 137.512
L370.372 137.908
z
" style="stroke:#000000;stroke-linejoin:miter;"/>
   </g>
   <g id="patch_12">
    <path clip-path="url(#pb4b8f0cc8e)" d="
M197.773 221.162
L206.215 221.621
L205.39 223.764
L205.694 223.868
L205.683 223.897
L205.378 223.792
L204.553 225.935
z
" style="stroke:#000000;stroke-linejoin:miter;"/>
   </g>
   <g id="patch_13">
    <path clip-path="url(#pb4b8f0cc8e)" d="
M363.332 241.433
L362.346 233.501
L364.723 233.897
L364.779 233.596
L364.811 233.601
L364.755 233.902
L367.132 234.298
z
" style="stroke:#000000;stroke-linejoin:miter;"/>
   </g>
   <g id="line2d_1">
    <path clip-path="url(#pb4b8f0cc8e)" d="
M36.0581 51.0656
L68.4581 51.0656
M76.2341 48.0056
L94.3781 37.2956
M100.858 51.0656
L133.258 51.0656" style="fill:none;stroke:#000000;stroke-linecap:round;stroke-width:1.5;"/>
   </g>
   <g id="line2d_2">
    <path clip-path="url(#pb4b8f0cc8e)" d="
M191.578 51.0656
L223.978 51.0656
M231.754 48.0056
L249.898 37.2956
M256.378 51.0656
L288.778 51.0656" style="fill:none;stroke:#000000;stroke-linecap:round;stroke-width:1.5;"/>
   </g>
   <g id="line2d_3">
    <path clip-path="url(#pb4b8f0cc8e)" d="
M347.098 51.0656
L379.498 51.0656
M387.274 48.0056
L405.418 37.2956
M411.898 51.0656
L444.298 51.0656" style="fill:none;stroke:#000000;stroke-linecap:round;stroke-width:1.5;"/>
   </g>
   <g id="line2d_4">
    <path clip-path="url(#pb4b8f0cc8e)" d="
M36.0581 142.866
M43.8341 139.806
L61.9781 129.096
M68.4581 142.866" style="fill:none;stroke:#000000;stroke-linecap:round;stroke-width:1.5;"/>
   </g>
   <g id="line2d_5">
    <path clip-path="url(#pb4b8f0cc8e)" d="
M191.578 142.866
M199.354 139.806
L217.498 129.096
M223.978 142.866" style="fill:none;stroke:#000000;stroke-linecap:round;stroke-width:1.5;"/>
   </g>
   <g id="line2d_6">
    <path clip-path="url(#pb4b8f0cc8e)" d="
M347.098 142.866
M354.874 139.806
L373.018 129.096
M379.498 142.866" style="fill:none;stroke:#000000;stroke-linecap:round;stroke-width:1.5;"/>
   </g>
   <g id="line2d_7">
    <path clip-path="url(#pb4b8f0cc8e)" d="
M36.0581 234.666
M43.8341 231.606
L58.7381 227.016
M68.4581 222.426" style="fill:none;stroke:#000000;stroke-linecap:round;stroke-width:1.5;"/>
   </g>
   <g id="line2d_8">
    <path clip-path="url(#pb4b8f0cc8e)" d="
M191.578 234.666
M199.354 231.606
L214.258 227.016
M223.978 222.426" style="fill:none;stroke:#000000;stroke-linecap:round;stroke-width:1.5;"/>
   </g>
   <g id="line2d_9">
    <path clip-path="url(#pb4b8f0cc8e)" d="
M347.098 234.666
M354.874 231.606
L369.778 227.016
M379.498 222.426" style="fill:none;stroke:#000000;stroke-linecap:round;stroke-width:1.5;"/>
   </g>
   <g id="patch_14">
    <path clip-path="url(#pb4b8f0cc8e)" d="
M72.3461 54.7376
C73.3772 54.7376 74.3663 54.3507 75.0954 53.6621
C75.8245 52.9735 76.2341 52.0395 76.2341 51.0656
C76.2341 50.0918 75.8245 49.1577 75.0954 48.4691
C74.3663 47.7805 73.3772 47.3936 72.3461 47.3936
C71.315 47.3936 70.326 47.7805 69.5969 48.4691
C68.8678 49.1577 68.4581 50.0918 68.4581 51.0656
C68.4581 52.0395 68.8678 52.9735 69.5969 53.6621
C70.326 54.3507 71.315 54.7376 72.3461 54.7376
L72.3461 54.7376" style="fill:none;stroke:#000000;stroke-linejoin:miter;stroke-width:1.5;"/>
   </g>
   <g id="patch_15">
    <path clip-path="url(#pb4b8f0cc8e)" d="
M96.9701 54.7376
C98.0012 54.7376 98.9903 54.3507 99.7194 53.6621
C100.448 52.9735 100.858 52.0395 100.858 51.0656
C100.858 50.0918 100.448 49.1577 99.7194 48.4691
C98.9903 47.7805 98.0012 47.3936 96.9701 47.3936
C95.939 47.3936 94.95 47.7805 94.2209 48.4691
C93.4918 49.1577 93.0821 50.0918 93.0821 51.0656
C93.0821 52.0395 93.4918 52.9735 94.2209 53.6621
C94.95 54.3507 95.939 54.7376 96.9701 54.7376
L96.9701 54.7376" style="fill:none;stroke:#000000;stroke-linejoin:miter;stroke-width:1.5;"/>
   </g>
   <g id="patch_16">
    <path clip-path="url(#pb4b8f0cc8e)" d="
M227.866 54.7376
C228.897 54.7376 229.886 54.3507 230.615 53.6621
C231.344 52.9735 231.754 52.0395 231.754 51.0656
C231.754 50.0918 231.344 49.1577 230.615 48.4691
C229.886 47.7805 228.897 47.3936 227.866 47.3936
C226.835 47.3936 225.846 47.7805 225.117 48.4691
C224.388 49.1577 223.978 50.0918 223.978 51.0656
C223.978 52.0395 224.388 52.9735 225.117 53.6621
C225.846 54.3507 226.835 54.7376 227.866 54.7376
L227.866 54.7376" style="fill:none;stroke:#000000;stroke-linejoin:miter;stroke-width:1.5;"/>
   </g>
   <g id="patch_17">
    <path clip-path="url(#pb4b8f0cc8e)" d="
M252.49 54.7376
C253.521 54.7376 254.51 54.3507 255.239 53.6621
C255.968 52.9735 256.378 52.0395 256.378 51.0656
C256.378 50.0918 255.968 49.1577 255.239 48.4691
C254.51 47.7805 253.521 47.3936 252.49 47.3936
C251.459 47.3936 250.47 47.7805 249.741 48.4691
C249.012 49.1577 248.602 50.0918 248.602 51.0656
C248.602 52.0395 249.012 52.9735 249.741 53.6621
C250.47 54.3507 251.459 54.7376 252.49 54.7376
L252.49 54.7376" style="fill:none;stroke:#000000;stroke-linejoin:miter;stroke-width:1.5;"/>
   </g>
   <g id="patch_18">
    <path clip-path="url(#pb4b8f0cc8e)" d="
M383.386 54.7376
C384.417 54.7376 385.406 54.3507 386.135 53.6621
C386.864 52.9735 387.274 52.0395 387.274 51.0656
C387.274 50.0918 386.864 49.1577 386.135 48.4691
C385.406 47.7805 384.417 47.3936 383.386 47.3936
C382.355 47.3936 381.366 47.7805 380.637 48.4691
C379.908 49.1577 379.498 50.0918 379.498 51.0656
C379.498 52.0395 379.908 52.9735 380.637 53.6621
C381.366 54.3507 382.355 54.7376 383.386 54.7376
L383.386 54.7376" style="fill:none;stroke:#000000;stroke-linejoin:miter;stroke-width:1.5;"/>
   </g>
   <g id="patch_19">
    <path clip-path="url(#pb4b8f0cc8e)" d="
M408.01 54.7376
C409.041 54.7376 410.03 54.3507 410.759 53.6621
C411.488 52.9735 411.898 52.0395 411.898 51.0656
C411.898 50.0918 411.488 49.1577 410.759 48.4691
C410.03 47.7805 409.041 47.3936 408.01 47.3936
C406.979 47.3936 405.99 47.7805 405.261 48.4691
C404.532 49.1577 404.122 50.0918 404.122 51.0656
C404.122 52.0395 404.532 52.9735 405.261 53.6621
C405.99 54.3507 406.979 54.7376 408.01 54.7376
L408.01 54.7376" style="fill:none;stroke:#000000;stroke-linejoin:miter;stroke-width:1.5;"/>
   </g>
   <g id="patch_20">
    <path clip-path="url(#pb4b8f0cc8e)" d="
M64.5701 125.118
C65.6012 125.118 66.5903 124.731 67.3194 124.042
C68.0485 123.354 68.4581 122.419 68.4581 121.446
C68.4581 120.472 68.0485 119.538 67.3194 118.849
C66.5903 118.161 65.6012 117.774 64.5701 117.774
C63.539 117.774 62.55 118.161 61.8209 118.849
C61.0918 119.538 60.6821 120.472 60.6821 121.446
C60.6821 122.419 61.0918 123.354 61.8209 124.042
C62.55 124.731 63.539 125.118 64.5701 125.118
L64.5701 125.118" style="fill:none;stroke:#000000;stroke-linejoin:miter;stroke-width:1.5;"/>
   </g>
   <g id="patch_21">
    <path clip-path="url(#pb4b8f0cc8e)" d="
M39.9461 146.538
C40.9772 146.538 41.9663 146.151 42.6954 145.462
C43.4245 144.774 43.8341 143.839 43.8341 142.866
C43.8341 141.892 43.4245 140.958 42.6954 140.269
C41.9663 139.581 40.9772 139.194 39.9461 139.194
C38.915 139.194 37.926 139.581 37.1969 140.269
C36.4678 140.958 36.0581 141.892 36.0581 142.866
C36.0581 143.839 36.4678 144.774 37.1969 145.462
C37.926 146.151 38.915 146.538 39.9461 146.538
L39.9461 146.538" style="fill:none;stroke:#000000;stroke-linejoin:miter;stroke-width:1.5;"/>
   </g>
   <g id="patch_22">
    <path clip-path="url(#pb4b8f0cc8e)" d="
M64.5701 146.538
C65.6012 146.538 66.5903 146.151 67.3194 145.462
C68.0485 144.774 68.4581 143.839 68.4581 142.866
C68.4581 141.892 68.0485 140.958 67.3194 140.269
C66.5903 139.581 65.6012 139.194 64.5701 139.194
C63.539 139.194 62.55 139.581 61.8209 140.269
C61.0918 140.958 60.6821 141.892 60.6821 142.866
C60.6821 143.839 61.0918 144.774 61.8209 145.462
C62.55 146.151 63.539 146.538 64.5701 146.538
L64.5701 146.538" style="fill:none;stroke:#000000;stroke-linejoin:miter;stroke-width:1.5;"/>
   </g>
   <g id="patch_23">
    <path clip-path="url(#pb4b8f0cc8e)" d="
M220.09 125.118
C221.121 125.118 222.11 124.731 222.839 124.042
C223.568 123.354 223.978 122.419 223.978 121.446
C223.978 120.472 223.568 119.538 222.839 118.849
C222.11 118.161 221.121 117.774 220.09 117.774
C219.059 117.774 218.07 118.161 217.341 118.849
C216.612 119.538 216.202 120.472 216.202 121.446
C216.202 122.419 216.612 123.354 217.341 124.042
C218.07 124.731 219.059 125.118 220.09 125.118
L220.09 125.118" style="fill:none;stroke:#000000;stroke-linejoin:miter;stroke-width:1.5;"/>
   </g>
   <g id="patch_24">
    <path clip-path="url(#pb4b8f0cc8e)" d="
M195.466 146.538
C196.497 146.538 197.486 146.151 198.215 145.462
C198.944 144.774 199.354 143.839 199.354 142.866
C199.354 141.892 198.944 140.958 198.215 140.269
C197.486 139.581 196.497 139.194 195.466 139.194
C194.435 139.194 193.446 139.581 192.717 140.269
C191.988 140.958 191.578 141.892 191.578 142.866
C191.578 143.839 191.988 144.774 192.717 145.462
C193.446 146.151 194.435 146.538 195.466 146.538
L195.466 146.538" style="fill:none;stroke:#000000;stroke-linejoin:miter;stroke-width:1.5;"/>
   </g>
   <g id="patch_25">
    <path clip-path="url(#pb4b8f0cc8e)" d="
M220.09 146.538
C221.121 146.538 222.11 146.151 222.839 145.462
C223.568 144.774 223.978 143.839 223.978 142.866
C223.978 141.892 223.568 140.958 222.839 140.269
C222.11 139.581 221.121 139.194 220.09 139.194
C219.059 139.194 218.07 139.581 217.341 140.269
C216.612 140.958 216.202 141.892 216.202 142.866
C216.202 143.839 216.612 144.774 217.341 145.462
C218.07 146.151 219.059 146.538 220.09 146.538
L220.09 146.538" style="fill:none;stroke:#000000;stroke-linejoin:miter;stroke-width:1.5;"/>
   </g>
   <g id="patch_26">
    <path clip-path="url(#pb4b8f0cc8e)" d="
M375.61 125.118
C376.641 125.118 377.63 124.731 378.359 124.042
C379.088 123.354 379.498 122.419 379.498 121.446
C379.498 120.472 379.088 119.538 378.359 118.849
C377.63 118.161 376.641 117.774 375.61 117.774
C374.579 117.774 373.59 118.161 372.861 118.849
C372.132 119.538 371.722 120.472 371.722 121.446
C371.722 122.419 372.132 123.354 372.861 124.042
C373.59 124.731 374.579 125.118 375.61 125.118
L375.61 125.118" style="fill:none;stroke:#000000;stroke-linejoin:miter;stroke-width:1.5;"/>
   </g>
   <g id="patch_27">
    <path clip-path="url(#pb4b8f0cc8e)" d="
M350.986 146.538
C352.017 146.538 353.006 146.151 353.735 145.462
C354.464 144.774 354.874 143.839 354.874 142.866
C354.874 141.892 354.464 140.958 353.735 140.269
C353.006 139.581 352.017 139.194 350.986 139.194
C349.955 139.194 348.966 139.581 348.237 140.269
C347.508 140.958 347.098 141.892 347.098 142.866
C347.098 143.839 347.508 144.774 348.237 145.462
C348.966 146.151 349.955 146.538 350.986 146.538
L350.986 146.538" style="fill:none;stroke:#000000;stroke-linejoin:miter;stroke-width:1.5;"/>
   </g>
   <g id="patch_28">
    <path clip-path="url(#pb4b8f0cc8e)" d="
M375.61 146.538
C376.641 146.538 377.63 146.151 378.359 145.462
C379.088 144.774 379.498 143.839 379.498 142.866
C379.498 141.892 379.088 140.958 378.359 140.269
C377.63 139.581 376.641 139.194 375.61 139.194
C374.579 139.194 373.59 139.581 372.861 140.269
C372.132 140.958 371.722 141.892 371.722 142.866
C371.722 143.839 372.132 144.774 372.861 145.462
C373.59 146.151 374.579 146.538 375.61 146.538
L375.61 146.538" style="fill:none;stroke:#000000;stroke-linejoin:miter;stroke-width:1.5;"/>
   </g>
   <g id="patch_29">
    <path clip-path="url(#pb4b8f0cc8e)" d="
M39.9461 238.338
C40.9772 238.338 41.9663 237.951 42.6954 237.262
C43.4245 236.574 43.8341 235.639 43.8341 234.666
C43.8341 233.692 43.4245 232.758 42.6954 232.069
C41.9663 231.381 40.9772 230.994 39.9461 230.994
C38.915 230.994 37.926 231.381 37.1969 232.069
C36.4678 232.758 36.0581 233.692 36.0581 234.666
C36.0581 235.639 36.4678 236.574 37.1969 237.262
C37.926 237.951 38.915 238.338 39.9461 238.338
L39.9461 238.338" style="fill:none;stroke:#000000;stroke-linejoin:miter;stroke-width:1.5;"/>
   </g>
   <g id="patch_30">
    <path clip-path="url(#pb4b8f0cc8e)" d="
M64.5701 250.578
C65.6012 250.578 66.5903 250.191 67.3194 249.502
C68.0485 248.814 68.4581 247.879 68.4581 246.906
C68.4581 245.932 68.0485 244.998 67.3194 244.309
C66.5903 243.621 65.6012 243.234 64.5701 243.234
C63.539 243.234 62.55 243.621 61.8209 244.309
C61.0918 244.998 60.6821 245.932 60.6821 246.906
C60.6821 247.879 61.0918 248.814 61.8209 249.502
C62.55 250.191 63.539 250.578 64.5701 250.578
L64.5701 250.578" style="fill:none;stroke:#000000;stroke-linejoin:miter;stroke-width:1.5;"/>
   </g>
   <g id="patch_31">
    <path clip-path="url(#pb4b8f0cc8e)" d="
M64.5701 226.098
C65.6012 226.098 66.5903 225.711 67.3194 225.022
C68.0485 224.334 68.4581 223.399 68.4581 222.426
C68.4581 221.452 68.0485 220.518 67.3194 219.829
C66.5903 219.141 65.6012 218.754 64.5701 218.754
C63.539 218.754 62.55 219.141 61.8209 219.829
C61.0918 220.518 60.6821 221.452 60.6821 222.426
C60.6821 223.399 61.0918 224.334 61.8209 225.022
C62.55 225.711 63.539 226.098 64.5701 226.098
L64.5701 226.098" style="fill:none;stroke:#000000;stroke-linejoin:miter;stroke-width:1.5;"/>
   </g>
   <g id="patch_32">
    <path clip-path="url(#pb4b8f0cc8e)" d="
M195.466 238.338
C196.497 238.338 197.486 237.951 198.215 237.262
C198.944 236.574 199.354 235.639 199.354 234.666
C199.354 233.692 198.944 232.758 198.215 232.069
C197.486 231.381 196.497 230.994 195.466 230.994
C194.435 230.994 193.446 231.381 192.717 232.069
C191.988 232.758 191.578 233.692 191.578 234.666
C191.578 235.639 191.988 236.574 192.717 237.262
C193.446 237.951 194.435 238.338 195.466 238.338
L195.466 238.338" style="fill:none;stroke:#000000;stroke-linejoin:miter;stroke-width:1.5;"/>
   </g>
   <g id="patch_33">
    <path clip-path="url(#pb4b8f0cc8e)" d="
M220.09 250.578
C221.121 250.578 222.11 250.191 222.839 249.502
C223.568 248.814 223.978 247.879 223.978 246.906
C223.978 245.932 223.568 244.998 222.839 244.309
C222.11 243.621 221.121 243.234 220.09 243.234
C219.059 243.234 218.07 243.621 217.341 244.309
C216.612 244.998 216.202 245.932 216.202 246.906
C216.202 247.879 216.612 248.814 217.341 249.502
C218.07 250.191 219.059 250.578 220.09 250.578
L220.09 250.578" style="fill:none;stroke:#000000;stroke-linejoin:miter;stroke-width:1.5;"/>
   </g>
   <g id="patch_34">
    <path clip-path="url(#pb4b8f0cc8e)" d="
M220.09 226.098
C221.121 226.098 222.11 225.711 222.839 225.022
C223.568 224.334 223.978 223.399 223.978 222.426
C223.978 221.452 223.568 220.518 222.839 219.829
C222.11 219.141 221.121 218.754 220.09 218.754
C219.059 218.754 218.07 219.141 217.341 219.829
C216.612 220.518 216.202 221.452 216.202 222.426
C216.202 223.399 216.612 224.334 217.341 225.022
C218.07 225.711 219.059 226.098 220.09 226.098
L220.09 226.098" style="fill:none;stroke:#000000;stroke-linejoin:miter;stroke-width:1.5;"/>
   </g>
   <g id="patch_35">
    <path clip-path="url(#pb4b8f0cc8e)" d="
M350.986 238.338
C352.017 238.338 353.006 237.951 353.735 237.262
C354.464 236.574 354.874 235.639 354.874 234.666
C354.874 233.692 354.464 232.758 353.735 232.069
C353.006 231.381 352.017 230.994 350.986 230.994
C349.955 230.994 348.966 231.381 348.237 232.069
C347.508 232.758 347.098 233.692 347.098 234.666
C347.098 235.639 347.508 236.574 348.237 237.262
C348.966 237.951 349.955 238.338 350.986 238.338
L350.986 238.338" style="fill:none;stroke:#000000;stroke-linejoin:miter;stroke-width:1.5;"/>
   </g>
   <g id="patch_36">
    <path clip-path="url(#pb4b8f0cc8e)" d="
M375.61 250.578
C376.641 250.578 377.63 250.191 378.359 249.502
C379.088 248.814 379.498 247.879 379.498 246.906
C379.498 245.932 379.088 244.998 378.359 244.309
C377.63 243.621 376.641 243.234 375.61 243.234
C374.579 243.234 373.59 243.621 372.861 244.309
C372.132 244.998 371.722 245.932 371.722 246.906
C371.722 247.879 372.132 248.814 372.861 249.502
C373.59 250.191 374.579 250.578 375.61 250.578
L375.61 250.578" style="fill:none;stroke:#000000;stroke-linejoin:miter;stroke-width:1.5;"/>
   </g>
   <g id="patch_37">
    <path clip-path="url(#pb4b8f0cc8e)" d="
M375.61 226.098
C376.641 226.098 377.63 225.711 378.359 225.022
C379.088 224.334 379.498 223.399 379.498 222.426
C379.498 221.452 379.088 220.518 378.359 219.829
C377.63 219.141 376.641 218.754 375.61 218.754
C374.579 218.754 373.59 219.141 372.861 219.829
C372.132 220.518 371.722 221.452 371.722 222.426
C371.722 223.399 372.132 224.334 372.861 225.022
C373.59 225.711 374.579 226.098 375.61 226.098
L375.61 226.098" style="fill:none;stroke:#000000;stroke-linejoin:miter;stroke-width:1.5;"/>
   </g>
   <g id="text_1">
    <!-- SWITCH_SPST -->
    <defs>
     <path d="
M19.6719 64.7969
L19.6719 37.4062
L32.0781 37.4062
Q38.9688 37.4062 42.7188 40.9688
Q46.4844 44.5312 46.4844 51.125
Q46.4844 57.6719 42.7188 61.2344
Q38.9688 64.7969 32.0781 64.7969
z

M9.8125 72.9062
L32.0781 72.9062
Q44.3438 72.9062 50.6094 67.3594
Q56.8906 61.8125 56.8906 51.125
Q56.8906 40.3281 50.6094 34.8125
Q44.3438 29.2969 32.0781 29.2969
L19.6719 29.2969
L19.6719 0
L9.8125 0
z
" id="BitstreamVeraSans-Roman-50"/>
     <path d="
M50.9844 -16.6094
L50.9844 -23.5781
L-0.984375 -23.5781
L-0.984375 -16.6094
z
" id="BitstreamVeraSans-Roman-5f"/>
     <path d="
M-0.296875 72.9062
L61.375 72.9062
L61.375 64.5938
L35.5 64.5938
L35.5 0
L25.5938 0
L25.5938 64.5938
L-0.296875 64.5938
z
" id="BitstreamVeraSans-Roman-54"/>
     <path d="
M3.32812 72.9062
L13.2812 72.9062
L28.6094 11.2812
L43.8906 72.9062
L54.9844 72.9062
L70.3125 11.2812
L85.5938 72.9062
L95.6094 72.9062
L77.2969 0
L64.8906 0
L49.5156 63.2812
L33.9844 0
L21.5781 0
z
" id="BitstreamVeraSans-Roman-57"/>
     <path d="
M9.8125 72.9062
L19.6719 72.9062
L19.6719 43.0156
L55.5156 43.0156
L55.5156 72.9062
L65.375 72.9062
L65.375 0
L55.5156 0
L55.5156 34.7188
L19.6719 34.7188
L19.6719 0
L9.8125 0
z
" id="BitstreamVeraSans-Roman-48"/>
     <path d="
M53.5156 70.5156
L53.5156 60.8906
Q47.9062 63.5781 42.9219 64.8906
Q37.9375 66.2188 33.2969 66.2188
Q25.25 66.2188 20.875 63.0938
Q16.5 59.9688 16.5 54.2031
Q16.5 49.3594 19.4062 46.8906
Q22.3125 44.4375 30.4219 42.9219
L36.375 41.7031
Q47.4062 39.5938 52.6562 34.2969
Q57.9062 29 57.9062 20.125
Q57.9062 9.51562 50.7969 4.04688
Q43.7031 -1.42188 29.9844 -1.42188
Q24.8125 -1.42188 18.9688 -0.25
Q13.1406 0.921875 6.89062 3.21875
L6.89062 13.375
Q12.8906 10.0156 18.6562 8.29688
Q24.4219 6.59375 29.9844 6.59375
Q38.4219 6.59375 43.0156 9.90625
Q47.6094 13.2344 47.6094 19.3906
Q47.6094 24.75 44.3125 27.7812
Q41.0156 30.8125 33.5 32.3281
L27.4844 33.5
Q16.4531 35.6875 11.5156 40.375
Q6.59375 45.0625 6.59375 53.4219
Q6.59375 63.0938 13.4062 68.6562
Q20.2188 74.2188 32.1719 74.2188
Q37.3125 74.2188 42.625 73.2812
Q47.9531 72.3594 53.5156 70.5156" id="BitstreamVeraSans-Roman-53"/>
     <path d="
M64.4062 67.2812
L64.4062 56.8906
Q59.4219 61.5312 53.7812 63.8125
Q48.1406 66.1094 41.7969 66.1094
Q29.2969 66.1094 22.6562 58.4688
Q16.0156 50.8281 16.0156 36.375
Q16.0156 21.9688 22.6562 14.3281
Q29.2969 6.6875 41.7969 6.6875
Q48.1406 6.6875 53.7812 8.98438
Q59.4219 11.2812 64.4062 15.9219
L64.4062 5.60938
Q59.2344 2.09375 53.4375 0.328125
Q47.6562 -1.42188 41.2188 -1.42188
Q24.6562 -1.42188 15.125 8.70312
Q5.60938 18.8438 5.60938 36.375
Q5.60938 53.9531 15.125 64.0781
Q24.6562 74.2188 41.2188 74.2188
Q47.75 74.2188 53.5312 72.4844
Q59.3281 70.75 64.4062 67.2812" id="BitstreamVeraSans-Roman-43"/>
     <path d="
M9.8125 72.9062
L19.6719 72.9062
L19.6719 0
L9.8125 0
z
" id="BitstreamVeraSans-Roman-49"/>
    </defs>
    <g transform="translate(43.6096875 18.70725)scale(0.12 -0.12)">
     <use xlink:href="#BitstreamVeraSans-Roman-53"/>
     <use x="63.4765625" xlink:href="#BitstreamVeraSans-Roman-57"/>
     <use x="162.353515625" xlink:href="#BitstreamVeraSans-Roman-49"/>
     <use x="191.845703125" xlink:href="#BitstreamVeraSans-Roman-54"/>
     <use x="247.0546875" xlink:href="#BitstreamVeraSans-Roman-43"/>
     <use x="316.87890625" xlink:href="#BitstreamVeraSans-Roman-48"/>
     <use x="392.07421875" xlink:href="#BitstreamVeraSans-Roman-5f"/>
     <use x="442.07421875" xlink:href="#BitstreamVeraSans-Roman-53"/>
     <use x="505.55078125" xlink:href="#BitstreamVeraSans-Roman-50"/>
     <use x="565.853515625" xlink:href="#BitstreamVeraSans-Roman-53"/>
     <use x="629.330078125" xlink:href="#BitstreamVeraSans-Roman-54"/>
    </g>
   </g>
   <g id="text_2">
    <!-- SWITCH_SPST_OPEN -->
    <defs>
     <path d="
M39.4062 66.2188
Q28.6562 66.2188 22.3281 58.2031
Q16.0156 50.2031 16.0156 36.375
Q16.0156 22.6094 22.3281 14.5938
Q28.6562 6.59375 39.4062 6.59375
Q50.1406 6.59375 56.4219 14.5938
Q62.7031 22.6094 62.7031 36.375
Q62.7031 50.2031 56.4219 58.2031
Q50.1406 66.2188 39.4062 66.2188
M39.4062 74.2188
Q54.7344 74.2188 63.9062 63.9375
Q73.0938 53.6562 73.0938 36.375
Q73.0938 19.1406 63.9062 8.85938
Q54.7344 -1.42188 39.4062 -1.42188
Q24.0312 -1.42188 14.8125 8.82812
Q5.60938 19.0938 5.60938 36.375
Q5.60938 53.6562 14.8125 63.9375
Q24.0312 74.2188 39.4062 74.2188" id="BitstreamVeraSans-Roman-4f"/>
     <path d="
M9.8125 72.9062
L23.0938 72.9062
L55.4219 11.9219
L55.4219 72.9062
L64.9844 72.9062
L64.9844 0
L51.7031 0
L19.3906 60.9844
L19.3906 0
L9.8125 0
z
" id="BitstreamVeraSans-Roman-4e"/>
     <path d="
M9.8125 72.9062
L55.9062 72.9062
L55.9062 64.5938
L19.6719 64.5938
L19.6719 43.0156
L54.3906 43.0156
L54.3906 34.7188
L19.6719 34.7188
L19.6719 8.29688
L56.7812 8.29688
L56.7812 0
L9.8125 0
z
" id="BitstreamVeraSans-Roman-45"/>
    </defs>
    <g transform="translate(180.11625 20.69625)scale(0.12 -0.12)">
     <use xlink:href="#BitstreamVeraSans-Roman-53"/>
     <use x="63.4765625" xlink:href="#BitstreamVeraSans-Roman-57"/>
     <use x="162.353515625" xlink:href="#BitstreamVeraSans-Roman-49"/>
     <use x="191.845703125" xlink:href="#BitstreamVeraSans-Roman-54"/>
     <use x="247.0546875" xlink:href="#BitstreamVeraSans-Roman-43"/>
     <use x="316.87890625" xlink:href="#BitstreamVeraSans-Roman-48"/>
     <use x="392.07421875" xlink:href="#BitstreamVeraSans-Roman-5f"/>
     <use x="442.07421875" xlink:href="#BitstreamVeraSans-Roman-53"/>
     <use x="505.55078125" xlink:href="#BitstreamVeraSans-Roman-50"/>
     <use x="565.853515625" xlink:href="#BitstreamVeraSans-Roman-53"/>
     <use x="629.330078125" xlink:href="#BitstreamVeraSans-Roman-54"/>
     <use x="690.4140625" xlink:href="#BitstreamVeraSans-Roman-5f"/>
     <use x="740.4140625" xlink:href="#BitstreamVeraSans-Roman-4f"/>
     <use x="819.125" xlink:href="#BitstreamVeraSans-Roman-50"/>
     <use x="879.427734375" xlink:href="#BitstreamVeraSans-Roman-45"/>
     <use x="942.611328125" xlink:href="#BitstreamVeraSans-Roman-4e"/>
    </g>
   </g>
   <g id="text_3">
    <!-- SWITCH_SPST_CLOSE -->
    <defs>
     <path d="
M9.8125 72.9062
L19.6719 72.9062
L19.6719 8.29688
L55.1719 8.29688
L55.1719 0
L9.8125 0
z
" id="BitstreamVeraSans-Roman-4c"/>
    </defs>
    <g transform="translate(332.413125 16.10625)scale(0.12 -0.12)">
     <use xlink:href="#BitstreamVeraSans-Roman-53"/>
     <use x="63.4765625" xlink:href="#BitstreamVeraSans-Roman-57"/>
     <use x="162.353515625" xlink:href="#BitstreamVeraSans-Roman-49"/>
     <use x="191.845703125" xlink:href="#BitstreamVeraSans-Roman-54"/>
     <use x="247.0546875" xlink:href="#BitstreamVeraSans-Roman-43"/>
     <use x="316.87890625" xlink:href="#BitstreamVeraSans-Roman-48"/>
     <use x="392.07421875" xlink:href="#BitstreamVeraSans-Roman-5f"/>
     <use x="442.07421875" xlink:href="#BitstreamVeraSans-Roman-53"/>
     <use x="505.55078125" xlink:href="#BitstreamVeraSans-Roman-50"/>
     <use x="565.853515625" xlink:href="#BitstreamVeraSans-Roman-53"/>
     <use x="629.330078125" xlink:href="#BitstreamVeraSans-Roman-54"/>
     <use x="690.4140625" xlink:href="#BitstreamVeraSans-Roman-5f"/>
     <use x="740.4140625" xlink:href="#BitstreamVeraSans-Roman-43"/>
     <use x="810.23828125" xlink:href="#BitstreamVeraSans-Roman-4c"/>
     <use x="862.326171875" xlink:href="#BitstreamVeraSans-Roman-4f"/>
     <use x="941.037109375" xlink:href="#BitstreamVeraSans-Roman-53"/>
     <use x="1004.513671875" xlink:href="#BitstreamVeraSans-Roman-45"/>
    </g>
   </g>
   <g id="text_4">
    <!-- SWITCH_SPDT -->
    <defs>
     <path d="
M19.6719 64.7969
L19.6719 8.10938
L31.5938 8.10938
Q46.6875 8.10938 53.6875 14.9375
Q60.6875 21.7812 60.6875 36.5312
Q60.6875 51.1719 53.6875 57.9844
Q46.6875 64.7969 31.5938 64.7969
z

M9.8125 72.9062
L30.0781 72.9062
Q51.2656 72.9062 61.1719 64.0938
Q71.0938 55.2812 71.0938 36.5312
Q71.0938 17.6719 61.125 8.82812
Q51.1719 0 30.0781 0
L9.8125 0
z
" id="BitstreamVeraSans-Roman-44"/>
    </defs>
    <g transform="translate(10.39875 104.84625)scale(0.12 -0.12)">
     <use xlink:href="#BitstreamVeraSans-Roman-53"/>
     <use x="63.4765625" xlink:href="#BitstreamVeraSans-Roman-57"/>
     <use x="162.353515625" xlink:href="#BitstreamVeraSans-Roman-49"/>
     <use x="191.845703125" xlink:href="#BitstreamVeraSans-Roman-54"/>
     <use x="247.0546875" xlink:href="#BitstreamVeraSans-Roman-43"/>
     <use x="316.87890625" xlink:href="#BitstreamVeraSans-Roman-48"/>
     <use x="392.07421875" xlink:href="#BitstreamVeraSans-Roman-5f"/>
     <use x="442.07421875" xlink:href="#BitstreamVeraSans-Roman-53"/>
     <use x="505.55078125" xlink:href="#BitstreamVeraSans-Roman-50"/>
     <use x="565.853515625" xlink:href="#BitstreamVeraSans-Roman-44"/>
     <use x="642.85546875" xlink:href="#BitstreamVeraSans-Roman-54"/>
    </g>
   </g>
   <g id="text_5">
    <!-- SWITCH_SPDT_OPEN -->
    <g transform="translate(145.2853125 112.49625)scale(0.12 -0.12)">
     <use xlink:href="#BitstreamVeraSans-Roman-53"/>
     <use x="63.4765625" xlink:href="#BitstreamVeraSans-Roman-57"/>
     <use x="162.353515625" xlink:href="#BitstreamVeraSans-Roman-49"/>
     <use x="191.845703125" xlink:href="#BitstreamVeraSans-Roman-54"/>
     <use x="247.0546875" xlink:href="#BitstreamVeraSans-Roman-43"/>
     <use x="316.87890625" xlink:href="#BitstreamVeraSans-Roman-48"/>
     <use x="392.07421875" xlink:href="#BitstreamVeraSans-Roman-5f"/>
     <use x="442.07421875" xlink:href="#BitstreamVeraSans-Roman-53"/>
     <use x="505.55078125" xlink:href="#BitstreamVeraSans-Roman-50"/>
     <use x="565.853515625" xlink:href="#BitstreamVeraSans-Roman-44"/>
     <use x="642.85546875" xlink:href="#BitstreamVeraSans-Roman-54"/>
     <use x="703.939453125" xlink:href="#BitstreamVeraSans-Roman-5f"/>
     <use x="753.939453125" xlink:href="#BitstreamVeraSans-Roman-4f"/>
     <use x="832.650390625" xlink:href="#BitstreamVeraSans-Roman-50"/>
     <use x="892.953125" xlink:href="#BitstreamVeraSans-Roman-45"/>
     <use x="956.13671875" xlink:href="#BitstreamVeraSans-Roman-4e"/>
    </g>
   </g>
   <g id="text_6">
    <!-- SWITCH_SPDT_CLOSE -->
    <g transform="translate(297.5821875 107.90625)scale(0.12 -0.12)">
     <use xlink:href="#BitstreamVeraSans-Roman-53"/>
     <use x="63.4765625" xlink:href="#BitstreamVeraSans-Roman-57"/>
     <use x="162.353515625" xlink:href="#BitstreamVeraSans-Roman-49"/>
     <use x="191.845703125" xlink:href="#BitstreamVeraSans-Roman-54"/>
     <use x="247.0546875" xlink:href="#BitstreamVeraSans-Roman-43"/>
     <use x="316.87890625" xlink:href="#BitstreamVeraSans-Roman-48"/>
     <use x="392.07421875" xlink:href="#BitstreamVeraSans-Roman-5f"/>
     <use x="442.07421875" xlink:href="#BitstreamVeraSans-Roman-53"/>
     <use x="505.55078125" xlink:href="#BitstreamVeraSans-Roman-50"/>
     <use x="565.853515625" xlink:href="#BitstreamVeraSans-Roman-44"/>
     <use x="642.85546875" xlink:href="#BitstreamVeraSans-Roman-54"/>
     <use x="703.939453125" xlink:href="#BitstreamVeraSans-Roman-5f"/>
     <use x="753.939453125" xlink:href="#BitstreamVeraSans-Roman-43"/>
     <use x="823.763671875" xlink:href="#BitstreamVeraSans-Roman-4c"/>
     <use x="875.8515625" xlink:href="#BitstreamVeraSans-Roman-4f"/>
     <use x="954.5625" xlink:href="#BitstreamVeraSans-Roman-53"/>
     <use x="1018.0390625" xlink:href="#BitstreamVeraSans-Roman-45"/>
    </g>
   </g>
   <g id="text_7">
    <!-- SWITCH_SPDT2 -->
    <defs>
     <path d="
M19.1875 8.29688
L53.6094 8.29688
L53.6094 0
L7.32812 0
L7.32812 8.29688
Q12.9375 14.1094 22.625 23.8906
Q32.3281 33.6875 34.8125 36.5312
Q39.5469 41.8438 41.4219 45.5312
Q43.3125 49.2188 43.3125 52.7812
Q43.3125 58.5938 39.2344 62.25
Q35.1562 65.9219 28.6094 65.9219
Q23.9688 65.9219 18.8125 64.3125
Q13.6719 62.7031 7.8125 59.4219
L7.8125 69.3906
Q13.7656 71.7812 18.9375 73
Q24.125 74.2188 28.4219 74.2188
Q39.75 74.2188 46.4844 68.5469
Q53.2188 62.8906 53.2188 53.4219
Q53.2188 48.9219 51.5312 44.8906
Q49.8594 40.875 45.4062 35.4062
Q44.1875 33.9844 37.6406 27.2188
Q31.1094 20.4531 19.1875 8.29688" id="BitstreamVeraSans-Roman-32"/>
    </defs>
    <g transform="translate(7.2 207.35625)scale(0.12 -0.12)">
     <use xlink:href="#BitstreamVeraSans-Roman-53"/>
     <use x="63.4765625" xlink:href="#BitstreamVeraSans-Roman-57"/>
     <use x="162.353515625" xlink:href="#BitstreamVeraSans-Roman-49"/>
     <use x="191.845703125" xlink:href="#BitstreamVeraSans-Roman-54"/>
     <use x="247.0546875" xlink:href="#BitstreamVeraSans-Roman-43"/>
     <use x="316.87890625" xlink:href="#BitstreamVeraSans-Roman-48"/>
     <use x="392.07421875" xlink:href="#BitstreamVeraSans-Roman-5f"/>
     <use x="442.07421875" xlink:href="#BitstreamVeraSans-Roman-53"/>
     <use x="505.55078125" xlink:href="#BitstreamVeraSans-Roman-50"/>
     <use x="565.853515625" xlink:href="#BitstreamVeraSans-Roman-44"/>
     <use x="642.85546875" xlink:href="#BitstreamVeraSans-Roman-54"/>
     <use x="703.939453125" xlink:href="#BitstreamVeraSans-Roman-32"/>
    </g>
   </g>
   <g id="text_8">
    <!-- SWITCH_SPDT2_OPEN -->
    <g transform="translate(140.6578125 207.35625)scale(0.12 -0.12)">
     <use xlink:href="#BitstreamVeraSans-Roman-53"/>
     <use x="63.4765625" xlink:href="#BitstreamVeraSans-Roman-57"/>
     <use x="162.353515625" xlink:href="#BitstreamVeraSans-Roman-49"/>
     <use x="191.845703125" xlink:href="#BitstreamVeraSans-Roman-54"/>
     <use x="247.0546875" xlink:href="#BitstreamVeraSans-Roman-43"/>
     <use x="316.87890625" xlink:href="#BitstreamVeraSans-Roman-48"/>
     <use x="392.07421875" xlink:href="#BitstreamVeraSans-Roman-5f"/>
     <use x="442.07421875" xlink:href="#BitstreamVeraSans-Roman-53"/>
     <use x="505.55078125" xlink:href="#BitstreamVeraSans-Roman-50"/>
     <use x="565.853515625" xlink:href="#BitstreamVeraSans-Roman-44"/>
     <use x="642.85546875" xlink:href="#BitstreamVeraSans-Roman-54"/>
     <use x="703.939453125" xlink:href="#BitstreamVeraSans-Roman-32"/>
     <use x="767.5625" xlink:href="#BitstreamVeraSans-Roman-5f"/>
     <use x="817.5625" xlink:href="#BitstreamVeraSans-Roman-4f"/>
     <use x="896.2734375" xlink:href="#BitstreamVeraSans-Roman-50"/>
     <use x="956.576171875" xlink:href="#BitstreamVeraSans-Roman-45"/>
     <use x="1019.759765625" xlink:href="#BitstreamVeraSans-Roman-4e"/>
    </g>
   </g>
   <g id="text_9">
    <!-- SWITCH_SPDT2_CLOSE -->
    <g transform="translate(292.1446875 204.29625)scale(0.12 -0.12)">
     <use xlink:href="#BitstreamVeraSans-Roman-53"/>
     <use x="63.4765625" xlink:href="#BitstreamVeraSans-Roman-57"/>
     <use x="162.353515625" xlink:href="#BitstreamVeraSans-Roman-49"/>
     <use x="191.845703125" xlink:href="#BitstreamVeraSans-Roman-54"/>
     <use x="247.0546875" xlink:href="#BitstreamVeraSans-Roman-43"/>
     <use x="316.87890625" xlink:href="#BitstreamVeraSans-Roman-48"/>
     <use x="392.07421875" xlink:href="#BitstreamVeraSans-Roman-5f"/>
     <use x="442.07421875" xlink:href="#BitstreamVeraSans-Roman-53"/>
     <use x="505.55078125" xlink:href="#BitstreamVeraSans-Roman-50"/>
     <use x="565.853515625" xlink:href="#BitstreamVeraSans-Roman-44"/>
     <use x="642.85546875" xlink:href="#BitstreamVeraSans-Roman-54"/>
     <use x="703.939453125" xlink:href="#BitstreamVeraSans-Roman-32"/>
     <use x="767.5625" xlink:href="#BitstreamVeraSans-Roman-5f"/>
     <use x="817.5625" xlink:href="#BitstreamVeraSans-Roman-43"/>
     <use x="887.38671875" xlink:href="#BitstreamVeraSans-Roman-4c"/>
     <use x="939.474609375" xlink:href="#BitstreamVeraSans-Roman-4f"/>
     <use x="1018.185546875" xlink:href="#BitstreamVeraSans-Roman-53"/>
     <use x="1081.662109375" xlink:href="#BitstreamVeraSans-Roman-45"/>
    </g>
   </g>
  </g>
 </g>
 <defs>
  <clipPath id="pb4b8f0cc8e">
   <rect height="224.064972824" width="414.72" x="32.818125" y="29.5726521765"/>
  </clipPath>
 </defs>
</svg>
