<?xml version="1.0" encoding="utf-8" standalone="no"?>
<!DOCTYPE svg PUBLIC "-//W3C//DTD SVG 1.1//EN"
  "http://www.w3.org/Graphics/SVG/1.1/DTD/svg11.dtd">
<!-- Created with matplotlib (https://matplotlib.org/) -->
<svg height="245.206056pt" version="1.1" viewBox="0 0 487.375 245.206056" width="487.375pt" xmlns="http://www.w3.org/2000/svg" xmlns:xlink="http://www.w3.org/1999/xlink">
 <defs>
  <style type="text/css">
*{stroke-linecap:butt;stroke-linejoin:round;white-space:pre;}
  </style>
 </defs>
 <g id="figure_1">
  <g id="patch_1">
   <path d="M 0 245.206056 
L 487.375 245.206056 
L 487.375 0 
L 0 0 
z
" style="fill:none;"/>
  </g>
  <g id="axes_1">
   <g id="patch_2">
    <path clip-path="url(#p68e48de130)" d="M 81.42425 46.688781 
C 82.45536 46.688781 83.444377 46.336015 84.173481 45.708175 
C 84.902586 45.080335 85.31225 44.228681 85.31225 43.340781 
C 85.31225 42.452881 84.902586 41.601228 84.173481 40.973388 
C 83.444377 40.345548 82.45536 39.992781 81.42425 39.992781 
C 80.39314 39.992781 79.404123 40.345548 78.675019 40.973388 
C 77.945914 41.601228 77.53625 42.452881 77.53625 43.340781 
C 77.53625 44.228681 77.945914 45.080335 78.675019 45.708175 
C 79.404123 46.336015 80.39314 46.688781 81.42425 46.688781 
z
" style="fill:none;stroke:#000000;stroke-linejoin:miter;stroke-width:2;"/>
   </g>
   <g id="patch_3">
    <path clip-path="url(#p68e48de130)" d="M 106.04825 46.688781 
C 107.07936 46.688781 108.068377 46.336015 108.797481 45.708175 
C 109.526586 45.080335 109.93625 44.228681 109.93625 43.340781 
C 109.93625 42.452881 109.526586 41.601228 108.797481 40.973388 
C 108.068377 40.345548 107.07936 39.992781 106.04825 39.992781 
C 105.01714 39.992781 104.028123 40.345548 103.299019 40.973388 
C 102.569914 41.601228 102.16025 42.452881 102.16025 43.340781 
C 102.16025 44.228681 102.569914 45.080335 103.299019 45.708175 
C 104.028123 46.336015 105.01714 46.688781 106.04825 46.688781 
z
" style="fill:none;stroke:#000000;stroke-linejoin:miter;stroke-width:2;"/>
   </g>
   <g id="patch_4">
    <path clip-path="url(#p68e48de130)" d="M 254.060859 41.772252 
C 254.249477 39.699703 253.95379 37.600906 253.212006 35.747049 
C 252.470222 33.893193 251.315727 32.367717 249.897696 31.367733 
" style="fill:none;stroke:#000000;stroke-linejoin:miter;stroke-width:2;"/>
   </g>
   <g id="patch_5">
    <path clip-path="url(#p68e48de130)" d="M 236.94425 46.688781 
C 237.97536 46.688781 238.964377 46.336015 239.693481 45.708175 
C 240.422586 45.080335 240.83225 44.228681 240.83225 43.340781 
C 240.83225 42.452881 240.422586 41.601228 239.693481 40.973388 
C 238.964377 40.345548 237.97536 39.992781 236.94425 39.992781 
C 235.91314 39.992781 234.924123 40.345548 234.195019 40.973388 
C 233.465914 41.601228 233.05625 42.452881 233.05625 43.340781 
C 233.05625 44.228681 233.465914 45.080335 234.195019 45.708175 
C 234.924123 46.336015 235.91314 46.688781 236.94425 46.688781 
z
" style="fill:none;stroke:#000000;stroke-linejoin:miter;stroke-width:2;"/>
   </g>
   <g id="patch_6">
    <path clip-path="url(#p68e48de130)" d="M 261.56825 46.688781 
C 262.59936 46.688781 263.588377 46.336015 264.317481 45.708175 
C 265.046586 45.080335 265.45625 44.228681 265.45625 43.340781 
C 265.45625 42.452881 265.046586 41.601228 264.317481 40.973388 
C 263.588377 40.345548 262.59936 39.992781 261.56825 39.992781 
C 260.53714 39.992781 259.548123 40.345548 258.819019 40.973388 
C 258.089914 41.601228 257.68025 42.452881 257.68025 43.340781 
C 257.68025 44.228681 258.089914 45.080335 258.819019 45.708175 
C 259.548123 46.336015 260.53714 46.688781 261.56825 46.688781 
z
" style="fill:none;stroke:#000000;stroke-linejoin:miter;stroke-width:2;"/>
   </g>
   <g id="patch_7">
    <path clip-path="url(#p68e48de130)" d="M 409.580859 37.587252 
C 409.769477 35.514703 409.47379 33.415906 408.732006 31.562049 
C 407.990222 29.708193 406.835727 28.182717 405.417696 27.182733 
" style="fill:none;stroke:#000000;stroke-linejoin:miter;stroke-width:2;"/>
   </g>
   <g id="patch_8">
    <path clip-path="url(#p68e48de130)" d="M 392.46425 46.688781 
C 393.49536 46.688781 394.484377 46.336015 395.213481 45.708175 
C 395.942586 45.080335 396.35225 44.228681 396.35225 43.340781 
C 396.35225 42.452881 395.942586 41.601228 395.213481 40.973388 
C 394.484377 40.345548 393.49536 39.992781 392.46425 39.992781 
C 391.43314 39.992781 390.444123 40.345548 389.715019 40.973388 
C 388.985914 41.601228 388.57625 42.452881 388.57625 43.340781 
C 388.57625 44.228681 388.985914 45.080335 389.715019 45.708175 
C 390.444123 46.336015 391.43314 46.688781 392.46425 46.688781 
z
" style="fill:none;stroke:#000000;stroke-linejoin:miter;stroke-width:2;"/>
   </g>
   <g id="patch_9">
    <path clip-path="url(#p68e48de130)" d="M 417.08825 46.688781 
C 418.11936 46.688781 419.108377 46.336015 419.837481 45.708175 
C 420.566586 45.080335 420.97625 44.228681 420.97625 43.340781 
C 420.97625 42.452881 420.566586 41.601228 419.837481 40.973388 
C 419.108377 40.345548 418.11936 39.992781 417.08825 39.992781 
C 416.05714 39.992781 415.068123 40.345548 414.339019 40.973388 
C 413.609914 41.601228 413.20025 42.452881 413.20025 43.340781 
C 413.20025 44.228681 413.609914 45.080335 414.339019 45.708175 
C 415.068123 46.336015 416.05714 46.688781 417.08825 46.688781 
z
" style="fill:none;stroke:#000000;stroke-linejoin:miter;stroke-width:2;"/>
   </g>
   <g id="patch_10">
    <path clip-path="url(#p68e48de130)" d="M 73.64825 110.858781 
C 74.67936 110.858781 75.668377 110.506015 76.397481 109.878175 
C 77.126586 109.250335 77.53625 108.398681 77.53625 107.510781 
C 77.53625 106.622881 77.126586 105.771228 76.397481 105.143388 
C 75.668377 104.515548 74.67936 104.162781 73.64825 104.162781 
C 72.61714 104.162781 71.628123 104.515548 70.899019 105.143388 
C 70.169914 105.771228 69.76025 106.622881 69.76025 107.510781 
C 69.76025 108.398681 70.169914 109.250335 70.899019 109.878175 
C 71.628123 110.506015 72.61714 110.858781 73.64825 110.858781 
z
" style="fill:none;stroke:#000000;stroke-linejoin:miter;stroke-width:2;"/>
   </g>
   <g id="patch_11">
    <path clip-path="url(#p68e48de130)" d="M 49.02425 130.388781 
C 50.05536 130.388781 51.044377 130.036015 51.773481 129.408175 
C 52.502586 128.780335 52.91225 127.928681 52.91225 127.040781 
C 52.91225 126.152881 52.502586 125.301228 51.773481 124.673388 
C 51.044377 124.045548 50.05536 123.692781 49.02425 123.692781 
C 47.99314 123.692781 47.004123 124.045548 46.275019 124.673388 
C 45.545914 125.301228 45.13625 126.152881 45.13625 127.040781 
C 45.13625 127.928681 45.545914 128.780335 46.275019 129.408175 
C 47.004123 130.036015 47.99314 130.388781 49.02425 130.388781 
z
" style="fill:none;stroke:#000000;stroke-linejoin:miter;stroke-width:2;"/>
   </g>
   <g id="patch_12">
    <path clip-path="url(#p68e48de130)" d="M 73.64825 130.388781 
C 74.67936 130.388781 75.668377 130.036015 76.397481 129.408175 
C 77.126586 128.780335 77.53625 127.928681 77.53625 127.040781 
C 77.53625 126.152881 77.126586 125.301228 76.397481 124.673388 
C 75.668377 124.045548 74.67936 123.692781 73.64825 123.692781 
C 72.61714 123.692781 71.628123 124.045548 70.899019 124.673388 
C 70.169914 125.301228 69.76025 126.152881 69.76025 127.040781 
C 69.76025 127.928681 70.169914 128.780335 70.899019 129.408175 
C 71.628123 130.036015 72.61714 130.388781 73.64825 130.388781 
z
" style="fill:none;stroke:#000000;stroke-linejoin:miter;stroke-width:2;"/>
   </g>
   <g id="patch_13">
    <path clip-path="url(#p68e48de130)" d="M 229.16825 110.858781 
C 230.19936 110.858781 231.188377 110.506015 231.917481 109.878175 
C 232.646586 109.250335 233.05625 108.398681 233.05625 107.510781 
C 233.05625 106.622881 232.646586 105.771228 231.917481 105.143388 
C 231.188377 104.515548 230.19936 104.162781 229.16825 104.162781 
C 228.13714 104.162781 227.148123 104.515548 226.419019 105.143388 
C 225.689914 105.771228 225.28025 106.622881 225.28025 107.510781 
C 225.28025 108.398681 225.689914 109.250335 226.419019 109.878175 
C 227.148123 110.506015 228.13714 110.858781 229.16825 110.858781 
z
" style="fill:none;stroke:#000000;stroke-linejoin:miter;stroke-width:2;"/>
   </g>
   <g id="patch_14">
    <path clip-path="url(#p68e48de130)" d="M 221.660859 125.472252 
C 221.849477 123.399703 221.55379 121.300906 220.812006 119.447049 
C 220.070222 117.593193 218.915727 116.067717 217.497696 115.067733 
" style="fill:none;stroke:#000000;stroke-linejoin:miter;stroke-width:2;"/>
   </g>
   <g id="patch_15">
    <path clip-path="url(#p68e48de130)" d="M 204.54425 130.388781 
C 205.57536 130.388781 206.564377 130.036015 207.293481 129.408175 
C 208.022586 128.780335 208.43225 127.928681 208.43225 127.040781 
C 208.43225 126.152881 208.022586 125.301228 207.293481 124.673388 
C 206.564377 124.045548 205.57536 123.692781 204.54425 123.692781 
C 203.51314 123.692781 202.524123 124.045548 201.795019 124.673388 
C 201.065914 125.301228 200.65625 126.152881 200.65625 127.040781 
C 200.65625 127.928681 201.065914 128.780335 201.795019 129.408175 
C 202.524123 130.036015 203.51314 130.388781 204.54425 130.388781 
z
" style="fill:none;stroke:#000000;stroke-linejoin:miter;stroke-width:2;"/>
   </g>
   <g id="patch_16">
    <path clip-path="url(#p68e48de130)" d="M 229.16825 130.388781 
C 230.19936 130.388781 231.188377 130.036015 231.917481 129.408175 
C 232.646586 128.780335 233.05625 127.928681 233.05625 127.040781 
C 233.05625 126.152881 232.646586 125.301228 231.917481 124.673388 
C 231.188377 124.045548 230.19936 123.692781 229.16825 123.692781 
C 228.13714 123.692781 227.148123 124.045548 226.419019 124.673388 
C 225.689914 125.301228 225.28025 126.152881 225.28025 127.040781 
C 225.28025 127.928681 225.689914 128.780335 226.419019 129.408175 
C 227.148123 130.036015 228.13714 130.388781 229.16825 130.388781 
z
" style="fill:none;stroke:#000000;stroke-linejoin:miter;stroke-width:2;"/>
   </g>
   <g id="patch_17">
    <path clip-path="url(#p68e48de130)" d="M 384.68825 110.858781 
C 385.71936 110.858781 386.708377 110.506015 387.437481 109.878175 
C 388.166586 109.250335 388.57625 108.398681 388.57625 107.510781 
C 388.57625 106.622881 388.166586 105.771228 387.437481 105.143388 
C 386.708377 104.515548 385.71936 104.162781 384.68825 104.162781 
C 383.65714 104.162781 382.668123 104.515548 381.939019 105.143388 
C 381.209914 105.771228 380.80025 106.622881 380.80025 107.510781 
C 380.80025 108.398681 381.209914 109.250335 381.939019 109.878175 
C 382.668123 110.506015 383.65714 110.858781 384.68825 110.858781 
z
" style="fill:none;stroke:#000000;stroke-linejoin:miter;stroke-width:2;"/>
   </g>
   <g id="patch_18">
    <path clip-path="url(#p68e48de130)" d="M 377.180859 121.287252 
C 377.369477 119.214703 377.07379 117.115906 376.332006 115.262049 
C 375.590222 113.408193 374.435727 111.882717 373.017696 110.882733 
" style="fill:none;stroke:#000000;stroke-linejoin:miter;stroke-width:2;"/>
   </g>
   <g id="patch_19">
    <path clip-path="url(#p68e48de130)" d="M 360.06425 130.388781 
C 361.09536 130.388781 362.084377 130.036015 362.813481 129.408175 
C 363.542586 128.780335 363.95225 127.928681 363.95225 127.040781 
C 363.95225 126.152881 363.542586 125.301228 362.813481 124.673388 
C 362.084377 124.045548 361.09536 123.692781 360.06425 123.692781 
C 359.03314 123.692781 358.044123 124.045548 357.315019 124.673388 
C 356.585914 125.301228 356.17625 126.152881 356.17625 127.040781 
C 356.17625 127.928681 356.585914 128.780335 357.315019 129.408175 
C 358.044123 130.036015 359.03314 130.388781 360.06425 130.388781 
z
" style="fill:none;stroke:#000000;stroke-linejoin:miter;stroke-width:2;"/>
   </g>
   <g id="patch_20">
    <path clip-path="url(#p68e48de130)" d="M 384.68825 130.388781 
C 385.71936 130.388781 386.708377 130.036015 387.437481 129.408175 
C 388.166586 128.780335 388.57625 127.928681 388.57625 127.040781 
C 388.57625 126.152881 388.166586 125.301228 387.437481 124.673388 
C 386.708377 124.045548 385.71936 123.692781 384.68825 123.692781 
C 383.65714 123.692781 382.668123 124.045548 381.939019 124.673388 
C 381.209914 125.301228 380.80025 126.152881 380.80025 127.040781 
C 380.80025 127.928681 381.209914 128.780335 381.939019 129.408175 
C 382.668123 130.036015 383.65714 130.388781 384.68825 130.388781 
z
" style="fill:none;stroke:#000000;stroke-linejoin:miter;stroke-width:2;"/>
   </g>
   <g id="patch_21">
    <path clip-path="url(#p68e48de130)" d="M 49.02425 214.088781 
C 50.05536 214.088781 51.044377 213.736015 51.773481 213.108175 
C 52.502586 212.480335 52.91225 211.628681 52.91225 210.740781 
C 52.91225 209.852881 52.502586 209.001228 51.773481 208.373388 
C 51.044377 207.745548 50.05536 207.392781 49.02425 207.392781 
C 47.99314 207.392781 47.004123 207.745548 46.275019 208.373388 
C 45.545914 209.001228 45.13625 209.852881 45.13625 210.740781 
C 45.13625 211.628681 45.545914 212.480335 46.275019 213.108175 
C 47.004123 213.736015 47.99314 214.088781 49.02425 214.088781 
z
" style="fill:none;stroke:#000000;stroke-linejoin:miter;stroke-width:2;"/>
   </g>
   <g id="patch_22">
    <path clip-path="url(#p68e48de130)" d="M 73.64825 225.248781 
C 74.67936 225.248781 75.668377 224.896015 76.397481 224.268175 
C 77.126586 223.640335 77.53625 222.788681 77.53625 221.900781 
C 77.53625 221.012881 77.126586 220.161228 76.397481 219.533388 
C 75.668377 218.905548 74.67936 218.552781 73.64825 218.552781 
C 72.61714 218.552781 71.628123 218.905548 70.899019 219.533388 
C 70.169914 220.161228 69.76025 221.012881 69.76025 221.900781 
C 69.76025 222.788681 70.169914 223.640335 70.899019 224.268175 
C 71.628123 224.896015 72.61714 225.248781 73.64825 225.248781 
z
" style="fill:none;stroke:#000000;stroke-linejoin:miter;stroke-width:2;"/>
   </g>
   <g id="patch_23">
    <path clip-path="url(#p68e48de130)" d="M 73.64825 202.928781 
C 74.67936 202.928781 75.668377 202.576015 76.397481 201.948175 
C 77.126586 201.320335 77.53625 200.468681 77.53625 199.580781 
C 77.53625 198.692881 77.126586 197.841228 76.397481 197.213388 
C 75.668377 196.585548 74.67936 196.232781 73.64825 196.232781 
C 72.61714 196.232781 71.628123 196.585548 70.899019 197.213388 
C 70.169914 197.841228 69.76025 198.692881 69.76025 199.580781 
C 69.76025 200.468681 70.169914 201.320335 70.899019 201.948175 
C 71.628123 202.576015 72.61714 202.928781 73.64825 202.928781 
z
" style="fill:none;stroke:#000000;stroke-linejoin:miter;stroke-width:2;"/>
   </g>
   <g id="patch_24">
    <path clip-path="url(#p68e48de130)" d="M 220.040859 211.962252 
C 220.229477 209.889703 219.93379 207.790906 219.192006 205.937049 
C 218.450222 204.083193 217.295727 202.557717 215.877696 201.557733 
" style="fill:none;stroke:#000000;stroke-linejoin:miter;stroke-width:2;"/>
   </g>
   <g id="patch_25">
    <path clip-path="url(#p68e48de130)" d="M 204.54425 214.088781 
C 205.57536 214.088781 206.564377 213.736015 207.293481 213.108175 
C 208.022586 212.480335 208.43225 211.628681 208.43225 210.740781 
C 208.43225 209.852881 208.022586 209.001228 207.293481 208.373388 
C 206.564377 207.745548 205.57536 207.392781 204.54425 207.392781 
C 203.51314 207.392781 202.524123 207.745548 201.795019 208.373388 
C 201.065914 209.001228 200.65625 209.852881 200.65625 210.740781 
C 200.65625 211.628681 201.065914 212.480335 201.795019 213.108175 
C 202.524123 213.736015 203.51314 214.088781 204.54425 214.088781 
z
" style="fill:none;stroke:#000000;stroke-linejoin:miter;stroke-width:2;"/>
   </g>
   <g id="patch_26">
    <path clip-path="url(#p68e48de130)" d="M 229.16825 225.248781 
C 230.19936 225.248781 231.188377 224.896015 231.917481 224.268175 
C 232.646586 223.640335 233.05625 222.788681 233.05625 221.900781 
C 233.05625 221.012881 232.646586 220.161228 231.917481 219.533388 
C 231.188377 218.905548 230.19936 218.552781 229.16825 218.552781 
C 228.13714 218.552781 227.148123 218.905548 226.419019 219.533388 
C 225.689914 220.161228 225.28025 221.012881 225.28025 221.900781 
C 225.28025 222.788681 225.689914 223.640335 226.419019 224.268175 
C 227.148123 224.896015 228.13714 225.248781 229.16825 225.248781 
z
" style="fill:none;stroke:#000000;stroke-linejoin:miter;stroke-width:2;"/>
   </g>
   <g id="patch_27">
    <path clip-path="url(#p68e48de130)" d="M 229.16825 202.928781 
C 230.19936 202.928781 231.188377 202.576015 231.917481 201.948175 
C 232.646586 201.320335 233.05625 200.468681 233.05625 199.580781 
C 233.05625 198.692881 232.646586 197.841228 231.917481 197.213388 
C 231.188377 196.585548 230.19936 196.232781 229.16825 196.232781 
C 228.13714 196.232781 227.148123 196.585548 226.419019 197.213388 
C 225.689914 197.841228 225.28025 198.692881 225.28025 199.580781 
C 225.28025 200.468681 225.689914 201.320335 226.419019 201.948175 
C 227.148123 202.576015 228.13714 202.928781 229.16825 202.928781 
z
" style="fill:none;stroke:#000000;stroke-linejoin:miter;stroke-width:2;"/>
   </g>
   <g id="patch_28">
    <path clip-path="url(#p68e48de130)" d="M 373.940859 209.172252 
C 374.129477 207.099703 373.83379 205.000906 373.092006 203.147049 
C 372.350222 201.293193 371.195727 199.767717 369.777696 198.767733 
" style="fill:none;stroke:#000000;stroke-linejoin:miter;stroke-width:2;"/>
   </g>
   <g id="patch_29">
    <path clip-path="url(#p68e48de130)" d="M 360.06425 214.088781 
C 361.09536 214.088781 362.084377 213.736015 362.813481 213.108175 
C 363.542586 212.480335 363.95225 211.628681 363.95225 210.740781 
C 363.95225 209.852881 363.542586 209.001228 362.813481 208.373388 
C 362.084377 207.745548 361.09536 207.392781 360.06425 207.392781 
C 359.03314 207.392781 358.044123 207.745548 357.315019 208.373388 
C 356.585914 209.001228 356.17625 209.852881 356.17625 210.740781 
C 356.17625 211.628681 356.585914 212.480335 357.315019 213.108175 
C 358.044123 213.736015 359.03314 214.088781 360.06425 214.088781 
z
" style="fill:none;stroke:#000000;stroke-linejoin:miter;stroke-width:2;"/>
   </g>
   <g id="patch_30">
    <path clip-path="url(#p68e48de130)" d="M 384.68825 225.248781 
C 385.71936 225.248781 386.708377 224.896015 387.437481 224.268175 
C 388.166586 223.640335 388.57625 222.788681 388.57625 221.900781 
C 388.57625 221.012881 388.166586 220.161228 387.437481 219.533388 
C 386.708377 218.905548 385.71936 218.552781 384.68825 218.552781 
C 383.65714 218.552781 382.668123 218.905548 381.939019 219.533388 
C 381.209914 220.161228 380.80025 221.012881 380.80025 221.900781 
C 380.80025 222.788681 381.209914 223.640335 381.939019 224.268175 
C 382.668123 224.896015 383.65714 225.248781 384.68825 225.248781 
z
" style="fill:none;stroke:#000000;stroke-linejoin:miter;stroke-width:2;"/>
   </g>
   <g id="patch_31">
    <path clip-path="url(#p68e48de130)" d="M 384.68825 202.928781 
C 385.71936 202.928781 386.708377 202.576015 387.437481 201.948175 
C 388.166586 201.320335 388.57625 200.468681 388.57625 199.580781 
C 388.57625 198.692881 388.166586 197.841228 387.437481 197.213388 
C 386.708377 196.585548 385.71936 196.232781 384.68825 196.232781 
C 383.65714 196.232781 382.668123 196.585548 381.939019 197.213388 
C 381.209914 197.841228 380.80025 198.692881 380.80025 199.580781 
C 380.80025 200.468681 381.209914 201.320335 381.939019 201.948175 
C 382.668123 202.576015 383.65714 202.928781 384.68825 202.928781 
z
" style="fill:none;stroke:#000000;stroke-linejoin:miter;stroke-width:2;"/>
   </g>
   <g id="patch_32">
    <path clip-path="url(#p68e48de130)" d="M 242.066081 28.739821 
L 250.495604 29.322606 
L 249.6192 31.259311 
L 249.903578 31.354735 
L 249.891814 31.380731 
L 249.607436 31.285307 
L 248.731031 33.222012 
z
" style="stroke:#000000;stroke-linejoin:miter;"/>
   </g>
   <g id="patch_33">
    <path clip-path="url(#p68e48de130)" d="M 408.597379 44.791646 
L 407.12965 37.62005 
L 409.526944 37.862715 
L 409.56477 37.585623 
L 409.596948 37.58888 
L 409.559122 37.865972 
L 411.956416 38.108638 
z
" style="stroke:#000000;stroke-linejoin:miter;"/>
   </g>
   <g id="patch_34">
    <path clip-path="url(#p68e48de130)" d="M 209.666081 112.439821 
L 218.095604 113.022606 
L 217.2192 114.959311 
L 217.503578 115.054735 
L 217.491814 115.080731 
L 217.207436 114.985307 
L 216.331031 116.922012 
z
" style="stroke:#000000;stroke-linejoin:miter;"/>
   </g>
   <g id="patch_35">
    <path clip-path="url(#p68e48de130)" d="M 376.197379 128.491646 
L 374.72965 121.32005 
L 377.126944 121.562715 
L 377.16477 121.285623 
L 377.196948 121.28888 
L 377.159122 121.565972 
L 379.556416 121.808638 
z
" style="stroke:#000000;stroke-linejoin:miter;"/>
   </g>
   <g id="patch_36">
    <path clip-path="url(#p68e48de130)" d="M 208.046081 198.929821 
L 216.475604 199.512606 
L 215.5992 201.449311 
L 215.883578 201.544735 
L 215.871814 201.570731 
L 215.587436 201.475307 
L 214.711031 203.412012 
z
" style="stroke:#000000;stroke-linejoin:miter;"/>
   </g>
   <g id="patch_37">
    <path clip-path="url(#p68e48de130)" d="M 372.957379 216.376646 
L 371.48965 209.20505 
L 373.886944 209.447715 
L 373.92477 209.170623 
L 373.956948 209.17388 
L 373.919122 209.450972 
L 376.316416 209.693638 
z
" style="stroke:#000000;stroke-linejoin:miter;"/>
   </g>
   <g id="line2d_1">
    <path clip-path="url(#p68e48de130)" d="M 45.13625 43.340781 
L 77.53625 43.340781 
M 85.31225 40.550781 
L 103.45625 30.785781 
M 109.93625 43.340781 
L 142.33625 43.340781 
" style="fill:none;stroke:#000000;stroke-linecap:round;stroke-width:2;"/>
   </g>
   <g id="line2d_2">
    <path clip-path="url(#p68e48de130)" d="M 200.65625 43.340781 
L 233.05625 43.340781 
M 240.83225 40.550781 
L 258.97625 30.785781 
M 265.45625 43.340781 
L 297.85625 43.340781 
" style="fill:none;stroke:#000000;stroke-linecap:round;stroke-width:2;"/>
   </g>
   <g id="line2d_3">
    <path clip-path="url(#p68e48de130)" d="M 356.17625 43.340781 
L 388.57625 43.340781 
M 396.35225 40.550781 
L 414.49625 30.785781 
M 420.97625 43.340781 
L 453.37625 43.340781 
" style="fill:none;stroke:#000000;stroke-linecap:round;stroke-width:2;"/>
   </g>
   <g id="line2d_4">
    <path clip-path="url(#p68e48de130)" d="M 45.13625 127.040781 
M 52.91225 124.250781 
L 71.05625 114.485781 
M 77.53625 127.040781 
" style="fill:none;stroke:#000000;stroke-linecap:round;stroke-width:2;"/>
   </g>
   <g id="line2d_5">
    <path clip-path="url(#p68e48de130)" d="M 200.65625 127.040781 
M 208.43225 124.250781 
L 226.57625 114.485781 
M 233.05625 127.040781 
" style="fill:none;stroke:#000000;stroke-linecap:round;stroke-width:2;"/>
   </g>
   <g id="line2d_6">
    <path clip-path="url(#p68e48de130)" d="M 356.17625 127.040781 
M 363.95225 124.250781 
L 382.09625 114.485781 
M 388.57625 127.040781 
" style="fill:none;stroke:#000000;stroke-linecap:round;stroke-width:2;"/>
   </g>
   <g id="line2d_7">
    <path clip-path="url(#p68e48de130)" d="M 45.13625 210.740781 
M 52.91225 207.950781 
L 67.81625 203.765781 
M 77.53625 199.580781 
" style="fill:none;stroke:#000000;stroke-linecap:round;stroke-width:2;"/>
   </g>
   <g id="line2d_8">
    <path clip-path="url(#p68e48de130)" d="M 200.65625 210.740781 
M 208.43225 207.950781 
L 223.33625 203.765781 
M 233.05625 199.580781 
" style="fill:none;stroke:#000000;stroke-linecap:round;stroke-width:2;"/>
   </g>
   <g id="line2d_9">
    <path clip-path="url(#p68e48de130)" d="M 356.17625 210.740781 
M 363.95225 207.950781 
L 378.85625 203.765781 
M 388.57625 199.580781 
" style="fill:none;stroke:#000000;stroke-linecap:round;stroke-width:2;"/>
   </g>
   <g id="text_1">
    <!-- SWITCH_SPST -->
    <defs>
     <path d="M 53.515625 70.515625 
L 53.515625 60.890625 
Q 47.90625 63.578125 42.921875 64.890625 
Q 37.9375 66.21875 33.296875 66.21875 
Q 25.25 66.21875 20.875 63.09375 
Q 16.5 59.96875 16.5 54.203125 
Q 16.5 49.359375 19.40625 46.890625 
Q 22.3125 44.4375 30.421875 42.921875 
L 36.375 41.703125 
Q 47.40625 39.59375 52.65625 34.296875 
Q 57.90625 29 57.90625 20.125 
Q 57.90625 9.515625 50.796875 4.046875 
Q 43.703125 -1.421875 29.984375 -1.421875 
Q 24.8125 -1.421875 18.96875 -0.25 
Q 13.140625 0.921875 6.890625 3.21875 
L 6.890625 13.375 
Q 12.890625 10.015625 18.65625 8.296875 
Q 24.421875 6.59375 29.984375 6.59375 
Q 38.421875 6.59375 43.015625 9.90625 
Q 47.609375 13.234375 47.609375 19.390625 
Q 47.609375 24.75 44.3125 27.78125 
Q 41.015625 30.8125 33.5 32.328125 
L 27.484375 33.5 
Q 16.453125 35.6875 11.515625 40.375 
Q 6.59375 45.0625 6.59375 53.421875 
Q 6.59375 63.09375 13.40625 68.65625 
Q 20.21875 74.21875 32.171875 74.21875 
Q 37.3125 74.21875 42.625 73.28125 
Q 47.953125 72.359375 53.515625 70.515625 
z
" id="DejaVuSans-83"/>
     <path d="M 3.328125 72.90625 
L 13.28125 72.90625 
L 28.609375 11.28125 
L 43.890625 72.90625 
L 54.984375 72.90625 
L 70.3125 11.28125 
L 85.59375 72.90625 
L 95.609375 72.90625 
L 77.296875 0 
L 64.890625 0 
L 49.515625 63.28125 
L 33.984375 0 
L 21.578125 0 
z
" id="DejaVuSans-87"/>
     <path d="M 9.8125 72.90625 
L 19.671875 72.90625 
L 19.671875 0 
L 9.8125 0 
z
" id="DejaVuSans-73"/>
     <path d="M -0.296875 72.90625 
L 61.375 72.90625 
L 61.375 64.59375 
L 35.5 64.59375 
L 35.5 0 
L 25.59375 0 
L 25.59375 64.59375 
L -0.296875 64.59375 
z
" id="DejaVuSans-84"/>
     <path d="M 64.40625 67.28125 
L 64.40625 56.890625 
Q 59.421875 61.53125 53.78125 63.8125 
Q 48.140625 66.109375 41.796875 66.109375 
Q 29.296875 66.109375 22.65625 58.46875 
Q 16.015625 50.828125 16.015625 36.375 
Q 16.015625 21.96875 22.65625 14.328125 
Q 29.296875 6.6875 41.796875 6.6875 
Q 48.140625 6.6875 53.78125 8.984375 
Q 59.421875 11.28125 64.40625 15.921875 
L 64.40625 5.609375 
Q 59.234375 2.09375 53.4375 0.328125 
Q 47.65625 -1.421875 41.21875 -1.421875 
Q 24.65625 -1.421875 15.125 8.703125 
Q 5.609375 18.84375 5.609375 36.375 
Q 5.609375 53.953125 15.125 64.078125 
Q 24.65625 74.21875 41.21875 74.21875 
Q 47.75 74.21875 53.53125 72.484375 
Q 59.328125 70.75 64.40625 67.28125 
z
" id="DejaVuSans-67"/>
     <path d="M 9.8125 72.90625 
L 19.671875 72.90625 
L 19.671875 43.015625 
L 55.515625 43.015625 
L 55.515625 72.90625 
L 65.375 72.90625 
L 65.375 0 
L 55.515625 0 
L 55.515625 34.71875 
L 19.671875 34.71875 
L 19.671875 0 
L 9.8125 0 
z
" id="DejaVuSans-72"/>
     <path d="M 50.984375 -16.609375 
L 50.984375 -23.578125 
L -0.984375 -23.578125 
L -0.984375 -16.609375 
z
" id="DejaVuSans-95"/>
     <path d="M 19.671875 64.796875 
L 19.671875 37.40625 
L 32.078125 37.40625 
Q 38.96875 37.40625 42.71875 40.96875 
Q 46.484375 44.53125 46.484375 51.125 
Q 46.484375 57.671875 42.71875 61.234375 
Q 38.96875 64.796875 32.078125 64.796875 
z
M 9.8125 72.90625 
L 32.078125 72.90625 
Q 44.34375 72.90625 50.609375 67.359375 
Q 56.890625 61.8125 56.890625 51.125 
Q 56.890625 40.328125 50.609375 34.8125 
Q 44.34375 29.296875 32.078125 29.296875 
L 19.671875 29.296875 
L 19.671875 0 
L 9.8125 0 
z
" id="DejaVuSans-80"/>
    </defs>
    <g transform="translate(44.999844 19.962125)scale(0.14 -0.14)">
     <use xlink:href="#DejaVuSans-83"/>
     <use x="63.476562" xlink:href="#DejaVuSans-87"/>
     <use x="162.353516" xlink:href="#DejaVuSans-73"/>
     <use x="191.845703" xlink:href="#DejaVuSans-84"/>
     <use x="252.851562" xlink:href="#DejaVuSans-67"/>
     <use x="322.675781" xlink:href="#DejaVuSans-72"/>
     <use x="397.871094" xlink:href="#DejaVuSans-95"/>
     <use x="447.871094" xlink:href="#DejaVuSans-83"/>
     <use x="511.347656" xlink:href="#DejaVuSans-80"/>
     <use x="571.650391" xlink:href="#DejaVuSans-83"/>
     <use x="635.126953" xlink:href="#DejaVuSans-84"/>
    </g>
   </g>
   <g id="text_2">
    <!-- SWITCH_SPST_OPEN -->
    <defs>
     <path d="M 39.40625 66.21875 
Q 28.65625 66.21875 22.328125 58.203125 
Q 16.015625 50.203125 16.015625 36.375 
Q 16.015625 22.609375 22.328125 14.59375 
Q 28.65625 6.59375 39.40625 6.59375 
Q 50.140625 6.59375 56.421875 14.59375 
Q 62.703125 22.609375 62.703125 36.375 
Q 62.703125 50.203125 56.421875 58.203125 
Q 50.140625 66.21875 39.40625 66.21875 
z
M 39.40625 74.21875 
Q 54.734375 74.21875 63.90625 63.9375 
Q 73.09375 53.65625 73.09375 36.375 
Q 73.09375 19.140625 63.90625 8.859375 
Q 54.734375 -1.421875 39.40625 -1.421875 
Q 24.03125 -1.421875 14.8125 8.828125 
Q 5.609375 19.09375 5.609375 36.375 
Q 5.609375 53.65625 14.8125 63.9375 
Q 24.03125 74.21875 39.40625 74.21875 
z
" id="DejaVuSans-79"/>
     <path d="M 9.8125 72.90625 
L 55.90625 72.90625 
L 55.90625 64.59375 
L 19.671875 64.59375 
L 19.671875 43.015625 
L 54.390625 43.015625 
L 54.390625 34.71875 
L 19.671875 34.71875 
L 19.671875 8.296875 
L 56.78125 8.296875 
L 56.78125 0 
L 9.8125 0 
z
" id="DejaVuSans-69"/>
     <path d="M 9.8125 72.90625 
L 23.09375 72.90625 
L 55.421875 11.921875 
L 55.421875 72.90625 
L 64.984375 72.90625 
L 64.984375 0 
L 51.703125 0 
L 19.390625 60.984375 
L 19.390625 0 
L 9.8125 0 
z
" id="DejaVuSans-78"/>
    </defs>
    <g transform="translate(177.62875 21.775625)scale(0.14 -0.14)">
     <use xlink:href="#DejaVuSans-83"/>
     <use x="63.476562" xlink:href="#DejaVuSans-87"/>
     <use x="162.353516" xlink:href="#DejaVuSans-73"/>
     <use x="191.845703" xlink:href="#DejaVuSans-84"/>
     <use x="252.851562" xlink:href="#DejaVuSans-67"/>
     <use x="322.675781" xlink:href="#DejaVuSans-72"/>
     <use x="397.871094" xlink:href="#DejaVuSans-95"/>
     <use x="447.871094" xlink:href="#DejaVuSans-83"/>
     <use x="511.347656" xlink:href="#DejaVuSans-80"/>
     <use x="571.650391" xlink:href="#DejaVuSans-83"/>
     <use x="635.126953" xlink:href="#DejaVuSans-84"/>
     <use x="696.210938" xlink:href="#DejaVuSans-95"/>
     <use x="746.210938" xlink:href="#DejaVuSans-79"/>
     <use x="824.921875" xlink:href="#DejaVuSans-80"/>
     <use x="885.224609" xlink:href="#DejaVuSans-69"/>
     <use x="948.408203" xlink:href="#DejaVuSans-78"/>
    </g>
   </g>
   <g id="text_3">
    <!-- SWITCH_SPST_CLOSE -->
    <defs>
     <path d="M 9.8125 72.90625 
L 19.671875 72.90625 
L 19.671875 8.296875 
L 55.171875 8.296875 
L 55.171875 0 
L 9.8125 0 
z
" id="DejaVuSans-76"/>
    </defs>
    <g transform="translate(329.3775 17.590625)scale(0.14 -0.14)">
     <use xlink:href="#DejaVuSans-83"/>
     <use x="63.476562" xlink:href="#DejaVuSans-87"/>
     <use x="162.353516" xlink:href="#DejaVuSans-73"/>
     <use x="191.845703" xlink:href="#DejaVuSans-84"/>
     <use x="252.851562" xlink:href="#DejaVuSans-67"/>
     <use x="322.675781" xlink:href="#DejaVuSans-72"/>
     <use x="397.871094" xlink:href="#DejaVuSans-95"/>
     <use x="447.871094" xlink:href="#DejaVuSans-83"/>
     <use x="511.347656" xlink:href="#DejaVuSans-80"/>
     <use x="571.650391" xlink:href="#DejaVuSans-83"/>
     <use x="635.126953" xlink:href="#DejaVuSans-84"/>
     <use x="696.210938" xlink:href="#DejaVuSans-95"/>
     <use x="746.210938" xlink:href="#DejaVuSans-67"/>
     <use x="816.035156" xlink:href="#DejaVuSans-76"/>
     <use x="871.701172" xlink:href="#DejaVuSans-79"/>
     <use x="950.412109" xlink:href="#DejaVuSans-83"/>
     <use x="1013.888672" xlink:href="#DejaVuSans-69"/>
    </g>
   </g>
   <g id="text_4">
    <!-- SWITCH_SPDT -->
    <defs>
     <path d="M 19.671875 64.796875 
L 19.671875 8.109375 
L 31.59375 8.109375 
Q 46.6875 8.109375 53.6875 14.9375 
Q 60.6875 21.78125 60.6875 36.53125 
Q 60.6875 51.171875 53.6875 57.984375 
Q 46.6875 64.796875 31.59375 64.796875 
z
M 9.8125 72.90625 
L 30.078125 72.90625 
Q 51.265625 72.90625 61.171875 64.09375 
Q 71.09375 55.28125 71.09375 36.53125 
Q 71.09375 17.671875 61.125 8.828125 
Q 51.171875 0 30.078125 0 
L 9.8125 0 
z
" id="DejaVuSans-68"/>
    </defs>
    <g transform="translate(11.65375 98.500625)scale(0.14 -0.14)">
     <use xlink:href="#DejaVuSans-83"/>
     <use x="63.476562" xlink:href="#DejaVuSans-87"/>
     <use x="162.353516" xlink:href="#DejaVuSans-73"/>
     <use x="191.845703" xlink:href="#DejaVuSans-84"/>
     <use x="252.851562" xlink:href="#DejaVuSans-67"/>
     <use x="322.675781" xlink:href="#DejaVuSans-72"/>
     <use x="397.871094" xlink:href="#DejaVuSans-95"/>
     <use x="447.871094" xlink:href="#DejaVuSans-83"/>
     <use x="511.347656" xlink:href="#DejaVuSans-80"/>
     <use x="571.650391" xlink:href="#DejaVuSans-68"/>
     <use x="648.652344" xlink:href="#DejaVuSans-84"/>
    </g>
   </g>
   <g id="text_5">
    <!-- SWITCH_SPDT_OPEN -->
    <g transform="translate(142.662656 105.475625)scale(0.14 -0.14)">
     <use xlink:href="#DejaVuSans-83"/>
     <use x="63.476562" xlink:href="#DejaVuSans-87"/>
     <use x="162.353516" xlink:href="#DejaVuSans-73"/>
     <use x="191.845703" xlink:href="#DejaVuSans-84"/>
     <use x="252.851562" xlink:href="#DejaVuSans-67"/>
     <use x="322.675781" xlink:href="#DejaVuSans-72"/>
     <use x="397.871094" xlink:href="#DejaVuSans-95"/>
     <use x="447.871094" xlink:href="#DejaVuSans-83"/>
     <use x="511.347656" xlink:href="#DejaVuSans-80"/>
     <use x="571.650391" xlink:href="#DejaVuSans-68"/>
     <use x="648.652344" xlink:href="#DejaVuSans-84"/>
     <use x="709.736328" xlink:href="#DejaVuSans-95"/>
     <use x="759.736328" xlink:href="#DejaVuSans-79"/>
     <use x="838.447266" xlink:href="#DejaVuSans-80"/>
     <use x="898.75" xlink:href="#DejaVuSans-69"/>
     <use x="961.933594" xlink:href="#DejaVuSans-78"/>
    </g>
   </g>
   <g id="text_6">
    <!-- SWITCH_SPDT_CLOSE -->
    <g transform="translate(294.411406 101.290625)scale(0.14 -0.14)">
     <use xlink:href="#DejaVuSans-83"/>
     <use x="63.476562" xlink:href="#DejaVuSans-87"/>
     <use x="162.353516" xlink:href="#DejaVuSans-73"/>
     <use x="191.845703" xlink:href="#DejaVuSans-84"/>
     <use x="252.851562" xlink:href="#DejaVuSans-67"/>
     <use x="322.675781" xlink:href="#DejaVuSans-72"/>
     <use x="397.871094" xlink:href="#DejaVuSans-95"/>
     <use x="447.871094" xlink:href="#DejaVuSans-83"/>
     <use x="511.347656" xlink:href="#DejaVuSans-80"/>
     <use x="571.650391" xlink:href="#DejaVuSans-68"/>
     <use x="648.652344" xlink:href="#DejaVuSans-84"/>
     <use x="709.736328" xlink:href="#DejaVuSans-95"/>
     <use x="759.736328" xlink:href="#DejaVuSans-67"/>
     <use x="829.560547" xlink:href="#DejaVuSans-76"/>
     <use x="885.226562" xlink:href="#DejaVuSans-79"/>
     <use x="963.9375" xlink:href="#DejaVuSans-83"/>
     <use x="1027.414062" xlink:href="#DejaVuSans-69"/>
    </g>
   </g>
   <g id="text_7">
    <!-- SWITCH_SPDT2 -->
    <defs>
     <path d="M 19.1875 8.296875 
L 53.609375 8.296875 
L 53.609375 0 
L 7.328125 0 
L 7.328125 8.296875 
Q 12.9375 14.109375 22.625 23.890625 
Q 32.328125 33.6875 34.8125 36.53125 
Q 39.546875 41.84375 41.421875 45.53125 
Q 43.3125 49.21875 43.3125 52.78125 
Q 43.3125 58.59375 39.234375 62.25 
Q 35.15625 65.921875 28.609375 65.921875 
Q 23.96875 65.921875 18.8125 64.3125 
Q 13.671875 62.703125 7.8125 59.421875 
L 7.8125 69.390625 
Q 13.765625 71.78125 18.9375 73 
Q 24.125 74.21875 28.421875 74.21875 
Q 39.75 74.21875 46.484375 68.546875 
Q 53.21875 62.890625 53.21875 53.421875 
Q 53.21875 48.921875 51.53125 44.890625 
Q 49.859375 40.875 45.40625 35.40625 
Q 44.1875 33.984375 37.640625 27.21875 
Q 31.109375 20.453125 19.1875 8.296875 
z
" id="DejaVuSans-50"/>
    </defs>
    <g transform="translate(7.2 191.965625)scale(0.14 -0.14)">
     <use xlink:href="#DejaVuSans-83"/>
     <use x="63.476562" xlink:href="#DejaVuSans-87"/>
     <use x="162.353516" xlink:href="#DejaVuSans-73"/>
     <use x="191.845703" xlink:href="#DejaVuSans-84"/>
     <use x="252.851562" xlink:href="#DejaVuSans-67"/>
     <use x="322.675781" xlink:href="#DejaVuSans-72"/>
     <use x="397.871094" xlink:href="#DejaVuSans-95"/>
     <use x="447.871094" xlink:href="#DejaVuSans-83"/>
     <use x="511.347656" xlink:href="#DejaVuSans-80"/>
     <use x="571.650391" xlink:href="#DejaVuSans-68"/>
     <use x="648.652344" xlink:href="#DejaVuSans-84"/>
     <use x="709.736328" xlink:href="#DejaVuSans-50"/>
    </g>
   </g>
   <g id="text_8">
    <!-- SWITCH_SPDT2_OPEN -->
    <g transform="translate(137.398906 191.965625)scale(0.14 -0.14)">
     <use xlink:href="#DejaVuSans-83"/>
     <use x="63.476562" xlink:href="#DejaVuSans-87"/>
     <use x="162.353516" xlink:href="#DejaVuSans-73"/>
     <use x="191.845703" xlink:href="#DejaVuSans-84"/>
     <use x="252.851562" xlink:href="#DejaVuSans-67"/>
     <use x="322.675781" xlink:href="#DejaVuSans-72"/>
     <use x="397.871094" xlink:href="#DejaVuSans-95"/>
     <use x="447.871094" xlink:href="#DejaVuSans-83"/>
     <use x="511.347656" xlink:href="#DejaVuSans-80"/>
     <use x="571.650391" xlink:href="#DejaVuSans-68"/>
     <use x="648.652344" xlink:href="#DejaVuSans-84"/>
     <use x="709.736328" xlink:href="#DejaVuSans-50"/>
     <use x="773.359375" xlink:href="#DejaVuSans-95"/>
     <use x="823.359375" xlink:href="#DejaVuSans-79"/>
     <use x="902.070312" xlink:href="#DejaVuSans-80"/>
     <use x="962.373047" xlink:href="#DejaVuSans-69"/>
     <use x="1025.556641" xlink:href="#DejaVuSans-78"/>
    </g>
   </g>
   <g id="text_9">
    <!-- SWITCH_SPDT2_CLOSE -->
    <g transform="translate(288.337656 189.175625)scale(0.14 -0.14)">
     <use xlink:href="#DejaVuSans-83"/>
     <use x="63.476562" xlink:href="#DejaVuSans-87"/>
     <use x="162.353516" xlink:href="#DejaVuSans-73"/>
     <use x="191.845703" xlink:href="#DejaVuSans-84"/>
     <use x="252.851562" xlink:href="#DejaVuSans-67"/>
     <use x="322.675781" xlink:href="#DejaVuSans-72"/>
     <use x="397.871094" xlink:href="#DejaVuSans-95"/>
     <use x="447.871094" xlink:href="#DejaVuSans-83"/>
     <use x="511.347656" xlink:href="#DejaVuSans-80"/>
     <use x="571.650391" xlink:href="#DejaVuSans-68"/>
     <use x="648.652344" xlink:href="#DejaVuSans-84"/>
     <use x="709.736328" xlink:href="#DejaVuSans-50"/>
     <use x="773.359375" xlink:href="#DejaVuSans-95"/>
     <use x="823.359375" xlink:href="#DejaVuSans-67"/>
     <use x="893.183594" xlink:href="#DejaVuSans-76"/>
     <use x="948.849609" xlink:href="#DejaVuSans-79"/>
     <use x="1027.560547" xlink:href="#DejaVuSans-83"/>
     <use x="1091.037109" xlink:href="#DejaVuSans-69"/>
    </g>
   </g>
  </g>
 </g>
 <defs>
  <clipPath id="p68e48de130">
   <rect height="224.86005" width="455.544" x="21.48425" y="13.146006"/>
  </clipPath>
 </defs>
</svg>
