<?xml version="1.0" encoding="utf-8" standalone="no"?>
<!DOCTYPE svg PUBLIC "-//W3C//DTD SVG 1.1//EN"
  "http://www.w3.org/Graphics/SVG/1.1/DTD/svg11.dtd">
<!-- Created with matplotlib (http://matplotlib.org/) -->
<svg height="155pt" version="1.1" viewBox="0 0 216 155" width="216pt" xmlns="http://www.w3.org/2000/svg" xmlns:xlink="http://www.w3.org/1999/xlink">
 <defs>
  <style type="text/css">
*{stroke-linecap:butt;stroke-linejoin:round;stroke-miterlimit:100000;}
  </style>
 </defs>
 <g id="figure_1">
  <g id="patch_1">
   <path d="M 0 155.039 
L 216.245 155.039 
L 216.245 0 
L 0 0 
z
" style="fill:none;"/>
  </g>
  <g id="axes_1">
   <g id="line2d_1">
    <path clip-path="url(#pe1a3d0555a)" d="M 57.945 125.195 
L 57.945 94.595 
L 57.945 94.595 
M 57.945 63.995 
L 57.945 63.995 
L 57.945 33.395 
" style="fill:none;stroke:#000000;stroke-linecap:round;stroke-width:1.5;"/>
   </g>
   <g id="line2d_2">
    <path clip-path="url(#pe1a3d0555a)" d="M 61.185 86.945 
L 54.705 86.945 
" style="fill:none;stroke:#000000;stroke-linecap:round;stroke-width:1.5;"/>
   </g>
   <g id="line2d_3">
    <path clip-path="url(#pe1a3d0555a)" d="M 57.945 74.705 
L 57.945 68.585 
" style="fill:none;stroke:#000000;stroke-linecap:round;stroke-width:1.5;"/>
   </g>
   <g id="line2d_4">
    <path clip-path="url(#pe1a3d0555a)" d="M 61.185 71.645 
L 54.705 71.645 
" style="fill:none;stroke:#000000;stroke-linecap:round;stroke-width:1.5;"/>
   </g>
   <g id="line2d_5">
    <path clip-path="url(#pe1a3d0555a)" d="M 57.945 33.395 
L 90.345 33.395 
L 93.045 25.745 
L 98.445 41.045 
L 103.845 25.745 
L 109.245 41.045 
L 114.645 25.745 
L 120.045 41.045 
L 122.745 33.395 
L 155.145 33.395 
" style="fill:none;stroke:#000000;stroke-linecap:round;stroke-width:1.5;"/>
   </g>
   <g id="line2d_6">
    <path clip-path="url(#pe1a3d0555a)" d="M 155.145 33.395 
L 155.145 76.541 
M 163.245 76.541 
L 147.045 76.541 
M 163.245 82.049 
L 147.045 82.049 
M 155.145 82.049 
L 155.145 125.195 
" style="fill:none;stroke:#000000;stroke-linecap:round;stroke-width:1.5;"/>
   </g>
   <g id="line2d_7">
    <path clip-path="url(#pe1a3d0555a)" d="M 155.145 125.195 
L 106.545 125.195 
L 57.945 125.195 
" style="fill:none;stroke:#000000;stroke-linecap:round;stroke-width:1.5;"/>
   </g>
   <g id="line2d_8">
    <path clip-path="url(#pe1a3d0555a)" d="M 57.945 125.195 
L 57.945 137.435 
L 49.845 137.435 
L 66.045 137.435 
M 52.275 141.107 
L 63.615 141.107 
M 56.325 144.779 
L 59.565 144.779 
" style="fill:none;stroke:#000000;stroke-linecap:round;stroke-width:1.5;"/>
   </g>
   <g id="patch_2">
    <path clip-path="url(#pe1a3d0555a)" d="M 57.945 94.595 
C 62.24129 94.595 66.362194 92.982895 69.40013 90.113734 
C 72.438066 87.244572 74.145 83.352607 74.145 79.295 
C 74.145 75.237393 72.438066 71.345428 69.40013 68.476266 
C 66.362194 65.607105 62.24129 63.995 57.945 63.995 
C 53.64871 63.995 49.527806 65.607105 46.48987 68.476266 
C 43.451934 71.345428 41.745 75.237393 41.745 79.295 
C 41.745 83.352607 43.451934 87.244572 46.48987 90.113734 
C 49.527806 92.982895 53.64871 94.595 57.945 94.595 
z
" style="fill:none;stroke:#000000;stroke-linejoin:miter;stroke-width:1.5;"/>
   </g>
   <g id="text_1">
    <!-- 10V -->
    <defs>
     <path d="M 28.609375 0 
L 0.78125 72.90625 
L 11.078125 72.90625 
L 34.1875 11.53125 
L 57.328125 72.90625 
L 67.578125 72.90625 
L 39.796875 0 
z
" id="BitstreamVeraSans-Roman-56"/>
     <path d="M 31.78125 66.40625 
Q 24.171875 66.40625 20.328125 58.90625 
Q 16.5 51.421875 16.5 36.375 
Q 16.5 21.390625 20.328125 13.890625 
Q 24.171875 6.390625 31.78125 6.390625 
Q 39.453125 6.390625 43.28125 13.890625 
Q 47.125 21.390625 47.125 36.375 
Q 47.125 51.421875 43.28125 58.90625 
Q 39.453125 66.40625 31.78125 66.40625 
M 31.78125 74.21875 
Q 44.046875 74.21875 50.515625 64.515625 
Q 56.984375 54.828125 56.984375 36.375 
Q 56.984375 17.96875 50.515625 8.265625 
Q 44.046875 -1.421875 31.78125 -1.421875 
Q 19.53125 -1.421875 13.0625 8.265625 
Q 6.59375 17.96875 6.59375 36.375 
Q 6.59375 54.828125 13.0625 64.515625 
Q 19.53125 74.21875 31.78125 74.21875 
" id="BitstreamVeraSans-Roman-30"/>
     <path d="M 12.40625 8.296875 
L 28.515625 8.296875 
L 28.515625 63.921875 
L 10.984375 60.40625 
L 10.984375 69.390625 
L 28.421875 72.90625 
L 38.28125 72.90625 
L 38.28125 8.296875 
L 54.390625 8.296875 
L 54.390625 0 
L 12.40625 0 
z
" id="BitstreamVeraSans-Roman-31"/>
    </defs>
    <g transform="translate(7.2 83.71)scale(0.16 -0.16)">
     <use xlink:href="#BitstreamVeraSans-Roman-31"/>
     <use x="63.623046875" xlink:href="#BitstreamVeraSans-Roman-30"/>
     <use x="127.24609375" xlink:href="#BitstreamVeraSans-Roman-56"/>
    </g>
   </g>
   <g id="text_2">
    <!-- 100K$\Omega$ -->
    <defs>
     <path d="M 9.8125 72.90625 
L 19.671875 72.90625 
L 19.671875 42.09375 
L 52.390625 72.90625 
L 65.09375 72.90625 
L 28.90625 38.921875 
L 67.671875 0 
L 54.6875 0 
L 19.671875 35.109375 
L 19.671875 0 
L 9.8125 0 
z
" id="BitstreamVeraSans-Roman-4b"/>
     <path d="M 72.609375 8.6875 
L 72.609375 0 
L 43.3125 0 
L 43.3125 8.6875 
Q 51.953125 13.421875 56.78125 21.53125 
Q 61.625 29.640625 61.625 39.5 
Q 61.625 51.21875 55.171875 58.296875 
Q 48.734375 65.375 38.1875 65.375 
Q 27.640625 65.375 21.171875 58.265625 
Q 14.703125 51.171875 14.703125 39.5 
Q 14.703125 29.640625 19.5625 21.53125 
Q 24.421875 13.421875 33.109375 8.6875 
L 33.109375 0 
L 3.8125 0 
L 3.8125 8.6875 
L 19.390625 8.6875 
Q 11.671875 15.484375 8.125 22.75 
Q 4.59375 30.03125 4.59375 39.015625 
Q 4.59375 54.546875 13.9375 64.15625 
Q 23.296875 73.78125 38.1875 73.78125 
Q 52.984375 73.78125 62.375 64.1875 
Q 71.78125 54.59375 71.78125 39.5 
Q 71.78125 30.03125 68.3125 22.796875 
Q 64.84375 15.578125 56.984375 8.6875 
z
" id="BitstreamVeraSans-Roman-3a9"/>
    </defs>
    <g transform="translate(79.905 19.3575)scale(0.16 -0.16)">
     <use transform="translate(0.0 0.78125)" xlink:href="#BitstreamVeraSans-Roman-31"/>
     <use transform="translate(63.623046875 0.78125)" xlink:href="#BitstreamVeraSans-Roman-30"/>
     <use transform="translate(127.24609375 0.78125)" xlink:href="#BitstreamVeraSans-Roman-30"/>
     <use transform="translate(190.869140625 0.78125)" xlink:href="#BitstreamVeraSans-Roman-4b"/>
     <use transform="translate(256.4453125 0.78125)" xlink:href="#BitstreamVeraSans-Roman-3a9"/>
    </g>
   </g>
   <g id="text_3">
    <!-- 0.1$\mu$F -->
    <defs>
     <path d="M 9.8125 72.90625 
L 51.703125 72.90625 
L 51.703125 64.59375 
L 19.671875 64.59375 
L 19.671875 43.109375 
L 48.578125 43.109375 
L 48.578125 34.8125 
L 19.671875 34.8125 
L 19.671875 0 
L 9.8125 0 
z
" id="BitstreamVeraSans-Roman-46"/>
     <path d="M 48.203125 4.703125 
L 45.90625 -1 
Q 36.5 -1 35.09375 6.40625 
L 21.90625 -1 
Q 16.296875 -1 13.796875 1.5 
L 13.796875 -12.59375 
Q 13.796875 -17.796875 12.203125 -21.5 
L 4.40625 -21.5 
Q 6.296875 -17.203125 6.296875 -12.703125 
L 6.296875 45.296875 
L 14.203125 45.296875 
L 14.203125 14.90625 
Q 14.203125 6.09375 22.40625 6.09375 
Q 25.203125 6.09375 29.09375 9.046875 
Q 33 12 34.5 16.09375 
L 34.5 45.296875 
L 42.40625 45.296875 
L 42.40625 12.796875 
Q 42.40625 9.59375 43.546875 7.84375 
Q 44.703125 6.09375 48.203125 6.09375 
z
" id="STIXNonUnicode-Regular-e1a1"/>
     <path d="M 10.6875 12.40625 
L 21 12.40625 
L 21 0 
L 10.6875 0 
z
" id="BitstreamVeraSans-Roman-2e"/>
    </defs>
    <g transform="translate(166.485 83.535)scale(0.16 -0.16)">
     <use transform="translate(0.0 0.78125)" xlink:href="#BitstreamVeraSans-Roman-30"/>
     <use transform="translate(63.623046875 0.78125)" xlink:href="#BitstreamVeraSans-Roman-2e"/>
     <use transform="translate(95.41015625 0.78125)" xlink:href="#BitstreamVeraSans-Roman-31"/>
     <use transform="translate(159.033203125 0.78125)" xlink:href="#STIXNonUnicode-Regular-e1a1"/>
     <use transform="translate(207.7332000732422 0.78125)" xlink:href="#BitstreamVeraSans-Roman-46"/>
    </g>
   </g>
  </g>
 </g>
 <defs>
  <clipPath id="pe1a3d0555a">
   <rect height="125.154" width="127.98" x="38.505" y="22.685"/>
  </clipPath>
 </defs>
</svg>
