<?xml version="1.0" encoding="utf-8" standalone="no"?>
<!DOCTYPE svg PUBLIC "-//W3C//DTD SVG 1.1//EN"
  "http://www.w3.org/Graphics/SVG/1.1/DTD/svg11.dtd">
<!-- Created with matplotlib (http://matplotlib.org/) -->
<svg height="127.873375pt" version="1.1" viewBox="0 0 553.57 127.873375" width="553.57pt" xmlns="http://www.w3.org/2000/svg" xmlns:xlink="http://www.w3.org/1999/xlink">
 <defs>
  <style type="text/css">
*{stroke-linecap:butt;stroke-linejoin:round;}
  </style>
 </defs>
 <g id="figure_1">
  <g id="patch_1">
   <path d="M 0 127.873375 
L 553.57 127.873375 
L 553.57 0 
L 0 0 
z
" style="fill:none;"/>
  </g>
  <g id="axes_1">
   <g id="line2d_1">
    <path clip-path="url(#p281a86c063)" d="M 135.035 108.751062 
L 86.435 108.751062 
L 37.835 108.751062 
" style="fill:none;stroke:#000000;stroke-linecap:round;stroke-width:1.5;"/>
   </g>
   <g id="line2d_2">
    <path clip-path="url(#p281a86c063)" d="M 37.835 25.051062 
L 70.235 25.051062 
L 72.935 18.076062 
L 78.335 32.026062 
L 83.735 18.076062 
L 89.135 32.026062 
L 94.535 18.076062 
L 99.935 32.026062 
L 102.635 25.051062 
L 135.035 25.051062 
" style="fill:none;stroke:#000000;stroke-linecap:round;stroke-width:1.5;"/>
   </g>
   <g id="line2d_3">
    <path clip-path="url(#p281a86c063)" d="M 135.035 25.051062 
L 135.035 64.390062 
M 143.135 64.390062 
L 126.935 64.390062 
M 143.135 69.412062 
L 126.935 69.412062 
M 135.035 69.412062 
L 135.035 108.751062 
" style="fill:none;stroke:#000000;stroke-linecap:round;stroke-width:1.5;"/>
   </g>
   <g id="line2d_4">
    <path clip-path="url(#p281a86c063)" d="M 232.235 108.751062 
L 183.635 108.751062 
L 135.035 108.751062 
" style="fill:none;stroke:#000000;stroke-linecap:round;stroke-width:1.5;"/>
   </g>
   <g id="line2d_5">
    <path clip-path="url(#p281a86c063)" d="M 135.035 25.051062 
L 167.435 25.051062 
L 170.135 18.076062 
L 175.535 32.026062 
L 180.935 18.076062 
L 186.335 32.026062 
L 191.735 18.076062 
L 197.135 32.026062 
L 199.835 25.051062 
L 232.235 25.051062 
" style="fill:none;stroke:#000000;stroke-linecap:round;stroke-width:1.5;"/>
   </g>
   <g id="line2d_6">
    <path clip-path="url(#p281a86c063)" d="M 232.235 25.051062 
L 232.235 64.390062 
M 240.335 64.390062 
L 224.135 64.390062 
M 240.335 69.412062 
L 224.135 69.412062 
M 232.235 69.412062 
L 232.235 108.751062 
" style="fill:none;stroke:#000000;stroke-linecap:round;stroke-width:1.5;"/>
   </g>
   <g id="line2d_7">
    <path clip-path="url(#p281a86c063)" d="M 329.435 108.751062 
L 280.835 108.751062 
L 232.235 108.751062 
" style="fill:none;stroke:#000000;stroke-linecap:round;stroke-width:1.5;"/>
   </g>
   <g id="line2d_8">
    <path clip-path="url(#p281a86c063)" d="M 232.235 25.051062 
L 264.635 25.051062 
L 267.335 18.076062 
L 272.735 32.026062 
L 278.135 18.076062 
L 283.535 32.026062 
L 288.935 18.076062 
L 294.335 32.026062 
L 297.035 25.051062 
L 329.435 25.051062 
" style="fill:none;stroke:#000000;stroke-linecap:round;stroke-width:1.5;"/>
   </g>
   <g id="line2d_9">
    <path clip-path="url(#p281a86c063)" d="M 329.435 25.051062 
L 329.435 64.390062 
M 337.535 64.390062 
L 321.335 64.390062 
M 337.535 69.412062 
L 321.335 69.412062 
M 329.435 69.412062 
L 329.435 108.751062 
" style="fill:none;stroke:#000000;stroke-linecap:round;stroke-width:1.5;"/>
   </g>
   <g id="line2d_10">
    <path clip-path="url(#p281a86c063)" d="M 329.435 25.051062 
L 337.535 25.051062 
L 345.635 25.051062 
" style="fill:none;stroke:#000000;stroke-linecap:round;stroke-width:1.5;"/>
   </g>
   <g id="line2d_11">
    <path clip-path="url(#p281a86c063)" d="M 507.635 108.751062 
L 459.035 108.751062 
L 410.435 108.751062 
" style="fill:none;stroke:#000000;stroke-linecap:round;stroke-width:1.5;"/>
   </g>
   <g id="line2d_12">
    <path clip-path="url(#p281a86c063)" d="M 410.435 25.051062 
L 442.835 25.051062 
L 445.535 18.076062 
L 450.935 32.026062 
L 456.335 18.076062 
L 461.735 32.026062 
L 467.135 18.076062 
L 472.535 32.026062 
L 475.235 25.051062 
L 507.635 25.051062 
" style="fill:none;stroke:#000000;stroke-linecap:round;stroke-width:1.5;"/>
   </g>
   <g id="line2d_13">
    <path clip-path="url(#p281a86c063)" d="M 507.635 25.051062 
L 507.635 64.390062 
M 515.735 64.390062 
L 499.535 64.390062 
M 515.735 69.412062 
L 499.535 69.412062 
M 507.635 69.412062 
L 507.635 108.751062 
" style="fill:none;stroke:#000000;stroke-linecap:round;stroke-width:1.5;"/>
   </g>
   <g id="line2d_14">
    <path clip-path="url(#p281a86c063)" d="M 329.435 108.751062 
L 337.535 108.751062 
L 345.635 108.751062 
" style="fill:none;stroke:#000000;stroke-linecap:round;stroke-width:1.5;"/>
   </g>
   <g id="patch_2">
    <path clip-path="url(#p281a86c063)" d="M 361.835 26.097312 
C 362.157222 26.097312 362.46629 25.987073 362.694135 25.790873 
C 362.92198 25.594673 363.05 25.328531 363.05 25.051062 
C 363.05 24.773594 362.92198 24.507452 362.694135 24.311252 
C 362.46629 24.115052 362.157222 24.004812 361.835 24.004812 
C 361.512778 24.004812 361.20371 24.115052 360.975865 24.311252 
C 360.74802 24.507452 360.62 24.773594 360.62 25.051062 
C 360.62 25.328531 360.74802 25.594673 360.975865 25.790873 
C 361.20371 25.987073 361.512778 26.097312 361.835 26.097312 
z
" style="stroke:#000000;stroke-linejoin:miter;stroke-width:1.5;"/>
   </g>
   <g id="patch_3">
    <path clip-path="url(#p281a86c063)" d="M 378.035 26.097312 
C 378.357222 26.097312 378.66629 25.987073 378.894135 25.790873 
C 379.12198 25.594673 379.25 25.328531 379.25 25.051062 
C 379.25 24.773594 379.12198 24.507452 378.894135 24.311252 
C 378.66629 24.115052 378.357222 24.004812 378.035 24.004812 
C 377.712778 24.004812 377.40371 24.115052 377.175865 24.311252 
C 376.94802 24.507452 376.82 24.773594 376.82 25.051062 
C 376.82 25.328531 376.94802 25.594673 377.175865 25.790873 
C 377.40371 25.987073 377.712778 26.097312 378.035 26.097312 
z
" style="stroke:#000000;stroke-linejoin:miter;stroke-width:1.5;"/>
   </g>
   <g id="patch_4">
    <path clip-path="url(#p281a86c063)" d="M 394.235 26.097312 
C 394.557222 26.097312 394.86629 25.987073 395.094135 25.790873 
C 395.32198 25.594673 395.45 25.328531 395.45 25.051062 
C 395.45 24.773594 395.32198 24.507452 395.094135 24.311252 
C 394.86629 24.115052 394.557222 24.004812 394.235 24.004812 
C 393.912778 24.004812 393.60371 24.115052 393.375865 24.311252 
C 393.14802 24.507452 393.02 24.773594 393.02 25.051062 
C 393.02 25.328531 393.14802 25.594673 393.375865 25.790873 
C 393.60371 25.987073 393.912778 26.097312 394.235 26.097312 
z
" style="stroke:#000000;stroke-linejoin:miter;stroke-width:1.5;"/>
   </g>
   <g id="patch_5">
    <path clip-path="url(#p281a86c063)" d="M 361.835 109.797312 
C 362.157222 109.797312 362.46629 109.687073 362.694135 109.490873 
C 362.92198 109.294673 363.05 109.028531 363.05 108.751062 
C 363.05 108.473594 362.92198 108.207452 362.694135 108.011252 
C 362.46629 107.815052 362.157222 107.704812 361.835 107.704812 
C 361.512778 107.704812 361.20371 107.815052 360.975865 108.011252 
C 360.74802 108.207452 360.62 108.473594 360.62 108.751062 
C 360.62 109.028531 360.74802 109.294673 360.975865 109.490873 
C 361.20371 109.687073 361.512778 109.797312 361.835 109.797312 
z
" style="stroke:#000000;stroke-linejoin:miter;stroke-width:1.5;"/>
   </g>
   <g id="patch_6">
    <path clip-path="url(#p281a86c063)" d="M 378.035 109.797312 
C 378.357222 109.797312 378.66629 109.687073 378.894135 109.490873 
C 379.12198 109.294673 379.25 109.028531 379.25 108.751062 
C 379.25 108.473594 379.12198 108.207452 378.894135 108.011252 
C 378.66629 107.815052 378.357222 107.704812 378.035 107.704812 
C 377.712778 107.704812 377.40371 107.815052 377.175865 108.011252 
C 376.94802 108.207452 376.82 108.473594 376.82 108.751062 
C 376.82 109.028531 376.94802 109.294673 377.175865 109.490873 
C 377.40371 109.687073 377.712778 109.797312 378.035 109.797312 
z
" style="stroke:#000000;stroke-linejoin:miter;stroke-width:1.5;"/>
   </g>
   <g id="patch_7">
    <path clip-path="url(#p281a86c063)" d="M 394.235 109.797312 
C 394.557222 109.797312 394.86629 109.687073 395.094135 109.490873 
C 395.32198 109.294673 395.45 109.028531 395.45 108.751062 
C 395.45 108.473594 395.32198 108.207452 395.094135 108.011252 
C 394.86629 107.815052 394.557222 107.704812 394.235 107.704812 
C 393.912778 107.704812 393.60371 107.815052 393.375865 108.011252 
C 393.14802 108.207452 393.02 108.473594 393.02 108.751062 
C 393.02 109.028531 393.14802 109.294673 393.375865 109.490873 
C 393.60371 109.687073 393.912778 109.797312 394.235 109.797312 
z
" style="stroke:#000000;stroke-linejoin:miter;stroke-width:1.5;"/>
   </g>
  </g>
 </g>
 <defs>
  <clipPath id="p281a86c063">
   <rect height="106.473375" width="532.17" x="10.7" y="10.7"/>
  </clipPath>
 </defs>
</svg>
