<?xml version="1.0" encoding="utf-8" standalone="no"?>
<!DOCTYPE svg PUBLIC "-//W3C//DTD SVG 1.1//EN"
  "http://www.w3.org/Graphics/SVG/1.1/DTD/svg11.dtd">
<!-- Created with matplotlib (http://matplotlib.org/) -->
<svg height="121pt" version="1.1" viewBox="0 0 498 121" width="498pt" xmlns="http://www.w3.org/2000/svg" xmlns:xlink="http://www.w3.org/1999/xlink">
 <defs>
  <style type="text/css">
*{stroke-linecap:butt;stroke-linejoin:round;stroke-miterlimit:100000;}
  </style>
 </defs>
 <g id="figure_1">
  <g id="patch_1">
   <path d="M 0 121.1175 
L 498.78 121.1175 
L 498.78 0 
L 0 0 
z
" style="fill:none;"/>
  </g>
  <g id="axes_1">
   <g id="line2d_1">
    <path clip-path="url(#pe4f8bbc9df)" d="M 107.64 109.71 
L 59.04 109.71 
L 10.44 109.71 
" style="fill:none;stroke:#000000;stroke-linecap:round;stroke-width:1.5;"/>
   </g>
   <g id="line2d_2">
    <path clip-path="url(#pe4f8bbc9df)" d="M 10.44 17.91 
L 42.84 17.91 
L 45.54 10.26 
L 50.94 25.56 
L 56.34 10.26 
L 61.74 25.56 
L 67.14 10.26 
L 72.54 25.56 
L 75.24 17.91 
L 107.64 17.91 
" style="fill:none;stroke:#000000;stroke-linecap:round;stroke-width:1.5;"/>
   </g>
   <g id="line2d_3">
    <path clip-path="url(#pe4f8bbc9df)" d="M 107.64 17.91 
L 107.64 61.056 
M 115.74 61.056 
L 99.54 61.056 
M 115.74 66.564 
L 99.54 66.564 
M 107.64 66.564 
L 107.64 109.71 
" style="fill:none;stroke:#000000;stroke-linecap:round;stroke-width:1.5;"/>
   </g>
   <g id="line2d_4">
    <path clip-path="url(#pe4f8bbc9df)" d="M 204.84 109.71 
L 156.24 109.71 
L 107.64 109.71 
" style="fill:none;stroke:#000000;stroke-linecap:round;stroke-width:1.5;"/>
   </g>
   <g id="line2d_5">
    <path clip-path="url(#pe4f8bbc9df)" d="M 107.64 17.91 
L 140.04 17.91 
L 142.74 10.26 
L 148.14 25.56 
L 153.54 10.26 
L 158.94 25.56 
L 164.34 10.26 
L 169.74 25.56 
L 172.44 17.91 
L 204.84 17.91 
" style="fill:none;stroke:#000000;stroke-linecap:round;stroke-width:1.5;"/>
   </g>
   <g id="line2d_6">
    <path clip-path="url(#pe4f8bbc9df)" d="M 204.84 17.91 
L 204.84 61.056 
M 212.94 61.056 
L 196.74 61.056 
M 212.94 66.564 
L 196.74 66.564 
M 204.84 66.564 
L 204.84 109.71 
" style="fill:none;stroke:#000000;stroke-linecap:round;stroke-width:1.5;"/>
   </g>
   <g id="line2d_7">
    <path clip-path="url(#pe4f8bbc9df)" d="M 302.04 109.71 
L 253.44 109.71 
L 204.84 109.71 
" style="fill:none;stroke:#000000;stroke-linecap:round;stroke-width:1.5;"/>
   </g>
   <g id="line2d_8">
    <path clip-path="url(#pe4f8bbc9df)" d="M 204.84 17.91 
L 237.24 17.91 
L 239.94 10.26 
L 245.34 25.56 
L 250.74 10.26 
L 256.14 25.56 
L 261.54 10.26 
L 266.94 25.56 
L 269.64 17.91 
L 302.04 17.91 
" style="fill:none;stroke:#000000;stroke-linecap:round;stroke-width:1.5;"/>
   </g>
   <g id="line2d_9">
    <path clip-path="url(#pe4f8bbc9df)" d="M 302.04 17.91 
L 302.04 61.056 
M 310.14 61.056 
L 293.94 61.056 
M 310.14 66.564 
L 293.94 66.564 
M 302.04 66.564 
L 302.04 109.71 
" style="fill:none;stroke:#000000;stroke-linecap:round;stroke-width:1.5;"/>
   </g>
   <g id="line2d_10">
    <path clip-path="url(#pe4f8bbc9df)" d="M 302.04 17.91 
L 310.14 17.91 
L 318.24 17.91 
" style="fill:none;stroke:#000000;stroke-linecap:round;stroke-width:1.5;"/>
   </g>
   <g id="line2d_11">
    <path clip-path="url(#pe4f8bbc9df)" d="M 480.24 109.71 
L 431.64 109.71 
L 383.04 109.71 
" style="fill:none;stroke:#000000;stroke-linecap:round;stroke-width:1.5;"/>
   </g>
   <g id="line2d_12">
    <path clip-path="url(#pe4f8bbc9df)" d="M 383.04 17.91 
L 415.44 17.91 
L 418.14 10.26 
L 423.54 25.56 
L 428.94 10.26 
L 434.34 25.56 
L 439.74 10.26 
L 445.14 25.56 
L 447.84 17.91 
L 480.24 17.91 
" style="fill:none;stroke:#000000;stroke-linecap:round;stroke-width:1.5;"/>
   </g>
   <g id="line2d_13">
    <path clip-path="url(#pe4f8bbc9df)" d="M 480.24 17.91 
L 480.24 61.056 
M 488.34 61.056 
L 472.14 61.056 
M 488.34 66.564 
L 472.14 66.564 
M 480.24 66.564 
L 480.24 109.71 
" style="fill:none;stroke:#000000;stroke-linecap:round;stroke-width:1.5;"/>
   </g>
   <g id="line2d_14">
    <path clip-path="url(#pe4f8bbc9df)" d="M 302.04 109.71 
L 310.14 109.71 
L 318.24 109.71 
" style="fill:none;stroke:#000000;stroke-linecap:round;stroke-width:1.5;"/>
   </g>
   <g id="patch_2">
    <path clip-path="url(#pe4f8bbc9df)" d="M 334.44 19.0575 
C 334.762222 19.0575 335.07129 18.936592 335.299135 18.721405 
C 335.52698 18.506218 335.655 18.214321 335.655 17.91 
C 335.655 17.605679 335.52698 17.313782 335.299135 17.098595 
C 335.07129 16.883408 334.762222 16.7625 334.44 16.7625 
C 334.117778 16.7625 333.80871 16.883408 333.580865 17.098595 
C 333.35302 17.313782 333.225 17.605679 333.225 17.91 
C 333.225 18.214321 333.35302 18.506218 333.580865 18.721405 
C 333.80871 18.936592 334.117778 19.0575 334.44 19.0575 
z
" style="stroke:#000000;stroke-linejoin:miter;stroke-width:1.5;"/>
   </g>
   <g id="patch_3">
    <path clip-path="url(#pe4f8bbc9df)" d="M 350.64 19.0575 
C 350.962222 19.0575 351.27129 18.936592 351.499135 18.721405 
C 351.72698 18.506218 351.855 18.214321 351.855 17.91 
C 351.855 17.605679 351.72698 17.313782 351.499135 17.098595 
C 351.27129 16.883408 350.962222 16.7625 350.64 16.7625 
C 350.317778 16.7625 350.00871 16.883408 349.780865 17.098595 
C 349.55302 17.313782 349.425 17.605679 349.425 17.91 
C 349.425 18.214321 349.55302 18.506218 349.780865 18.721405 
C 350.00871 18.936592 350.317778 19.0575 350.64 19.0575 
z
" style="stroke:#000000;stroke-linejoin:miter;stroke-width:1.5;"/>
   </g>
   <g id="patch_4">
    <path clip-path="url(#pe4f8bbc9df)" d="M 366.84 19.0575 
C 367.162222 19.0575 367.47129 18.936592 367.699135 18.721405 
C 367.92698 18.506218 368.055 18.214321 368.055 17.91 
C 368.055 17.605679 367.92698 17.313782 367.699135 17.098595 
C 367.47129 16.883408 367.162222 16.7625 366.84 16.7625 
C 366.517778 16.7625 366.20871 16.883408 365.980865 17.098595 
C 365.75302 17.313782 365.625 17.605679 365.625 17.91 
C 365.625 18.214321 365.75302 18.506218 365.980865 18.721405 
C 366.20871 18.936592 366.517778 19.0575 366.84 19.0575 
z
" style="stroke:#000000;stroke-linejoin:miter;stroke-width:1.5;"/>
   </g>
   <g id="patch_5">
    <path clip-path="url(#pe4f8bbc9df)" d="M 334.44 110.8575 
C 334.762222 110.8575 335.07129 110.736592 335.299135 110.521405 
C 335.52698 110.306218 335.655 110.014321 335.655 109.71 
C 335.655 109.405679 335.52698 109.113782 335.299135 108.898595 
C 335.07129 108.683408 334.762222 108.5625 334.44 108.5625 
C 334.117778 108.5625 333.80871 108.683408 333.580865 108.898595 
C 333.35302 109.113782 333.225 109.405679 333.225 109.71 
C 333.225 110.014321 333.35302 110.306218 333.580865 110.521405 
C 333.80871 110.736592 334.117778 110.8575 334.44 110.8575 
z
" style="stroke:#000000;stroke-linejoin:miter;stroke-width:1.5;"/>
   </g>
   <g id="patch_6">
    <path clip-path="url(#pe4f8bbc9df)" d="M 350.64 110.8575 
C 350.962222 110.8575 351.27129 110.736592 351.499135 110.521405 
C 351.72698 110.306218 351.855 110.014321 351.855 109.71 
C 351.855 109.405679 351.72698 109.113782 351.499135 108.898595 
C 351.27129 108.683408 350.962222 108.5625 350.64 108.5625 
C 350.317778 108.5625 350.00871 108.683408 349.780865 108.898595 
C 349.55302 109.113782 349.425 109.405679 349.425 109.71 
C 349.425 110.014321 349.55302 110.306218 349.780865 110.521405 
C 350.00871 110.736592 350.317778 110.8575 350.64 110.8575 
z
" style="stroke:#000000;stroke-linejoin:miter;stroke-width:1.5;"/>
   </g>
   <g id="patch_7">
    <path clip-path="url(#pe4f8bbc9df)" d="M 366.84 110.8575 
C 367.162222 110.8575 367.47129 110.736592 367.699135 110.521405 
C 367.92698 110.306218 368.055 110.014321 368.055 109.71 
C 368.055 109.405679 367.92698 109.113782 367.699135 108.898595 
C 367.47129 108.683408 367.162222 108.5625 366.84 108.5625 
C 366.517778 108.5625 366.20871 108.683408 365.980865 108.898595 
C 365.75302 109.113782 365.625 109.405679 365.625 109.71 
C 365.625 110.014321 365.75302 110.306218 365.980865 110.521405 
C 366.20871 110.736592 366.517778 110.8575 366.84 110.8575 
z
" style="stroke:#000000;stroke-linejoin:miter;stroke-width:1.5;"/>
   </g>
  </g>
 </g>
 <defs>
  <clipPath id="pe4f8bbc9df">
   <rect height="106.7175" width="484.38" x="7.2" y="7.2"/>
  </clipPath>
 </defs>
</svg>
