<?xml version="1.0" encoding="utf-8" standalone="no"?>
<!DOCTYPE svg PUBLIC "-//W3C//DTD SVG 1.1//EN"
  "http://www.w3.org/Graphics/SVG/1.1/DTD/svg11.dtd">
<!-- Created with matplotlib (http://matplotlib.org/) -->
<svg height="121pt" version="1.1" viewBox="0 0 498 121" width="498pt" xmlns="http://www.w3.org/2000/svg" xmlns:xlink="http://www.w3.org/1999/xlink">
 <defs>
  <style type="text/css">
*{stroke-linecap:butt;stroke-linejoin:round;}
  </style>
 </defs>
 <g id="figure_1">
  <g id="patch_1">
   <path d="
M0 121.118
L498.78 121.118
L498.78 0
L0 0
L0 121.118" style="fill:none;"/>
  </g>
  <g id="axes_1">
   <g id="line2d_1">
    <path clip-path="url(#pdd082c6da2)" d="
M107.64 109.71
L59.04 109.71
L10.44 109.71" style="fill:none;stroke:#000000;stroke-linecap:round;stroke-width:1.5;"/>
   </g>
   <g id="line2d_2">
    <path clip-path="url(#pdd082c6da2)" d="
M10.44 17.91
L42.84 17.91
L45.54 10.26
L50.94 25.56
L56.34 10.26
L61.74 25.56
L67.14 10.26
L72.54 25.56
L75.24 17.91
L107.64 17.91" style="fill:none;stroke:#000000;stroke-linecap:round;stroke-width:1.5;"/>
   </g>
   <g id="line2d_3">
    <path clip-path="url(#pdd082c6da2)" d="
M107.64 17.91
L107.64 61.056
M115.74 61.056
L99.54 61.056
M115.74 66.564
L99.54 66.564
M107.64 66.564
L107.64 109.71" style="fill:none;stroke:#000000;stroke-linecap:round;stroke-width:1.5;"/>
   </g>
   <g id="line2d_4">
    <path clip-path="url(#pdd082c6da2)" d="
M204.84 109.71
L156.24 109.71
L107.64 109.71" style="fill:none;stroke:#000000;stroke-linecap:round;stroke-width:1.5;"/>
   </g>
   <g id="line2d_5">
    <path clip-path="url(#pdd082c6da2)" d="
M107.64 17.91
L140.04 17.91
L142.74 10.26
L148.14 25.56
L153.54 10.26
L158.94 25.56
L164.34 10.26
L169.74 25.56
L172.44 17.91
L204.84 17.91" style="fill:none;stroke:#000000;stroke-linecap:round;stroke-width:1.5;"/>
   </g>
   <g id="line2d_6">
    <path clip-path="url(#pdd082c6da2)" d="
M204.84 17.91
L204.84 61.056
M212.94 61.056
L196.74 61.056
M212.94 66.564
L196.74 66.564
M204.84 66.564
L204.84 109.71" style="fill:none;stroke:#000000;stroke-linecap:round;stroke-width:1.5;"/>
   </g>
   <g id="line2d_7">
    <path clip-path="url(#pdd082c6da2)" d="
M302.04 109.71
L253.44 109.71
L204.84 109.71" style="fill:none;stroke:#000000;stroke-linecap:round;stroke-width:1.5;"/>
   </g>
   <g id="line2d_8">
    <path clip-path="url(#pdd082c6da2)" d="
M204.84 17.91
L237.24 17.91
L239.94 10.26
L245.34 25.56
L250.74 10.26
L256.14 25.56
L261.54 10.26
L266.94 25.56
L269.64 17.91
L302.04 17.91" style="fill:none;stroke:#000000;stroke-linecap:round;stroke-width:1.5;"/>
   </g>
   <g id="line2d_9">
    <path clip-path="url(#pdd082c6da2)" d="
M302.04 17.91
L302.04 61.056
M310.14 61.056
L293.94 61.056
M310.14 66.564
L293.94 66.564
M302.04 66.564
L302.04 109.71" style="fill:none;stroke:#000000;stroke-linecap:round;stroke-width:1.5;"/>
   </g>
   <g id="line2d_10">
    <path clip-path="url(#pdd082c6da2)" d="
M302.04 17.91
L310.14 17.91
L318.24 17.91" style="fill:none;stroke:#000000;stroke-linecap:round;stroke-width:1.5;"/>
   </g>
   <g id="line2d_11">
    <path clip-path="url(#pdd082c6da2)" d="
M480.24 109.71
L431.64 109.71
L383.04 109.71" style="fill:none;stroke:#000000;stroke-linecap:round;stroke-width:1.5;"/>
   </g>
   <g id="line2d_12">
    <path clip-path="url(#pdd082c6da2)" d="
M383.04 17.91
L415.44 17.91
L418.14 10.26
L423.54 25.56
L428.94 10.26
L434.34 25.56
L439.74 10.26
L445.14 25.56
L447.84 17.91
L480.24 17.91" style="fill:none;stroke:#000000;stroke-linecap:round;stroke-width:1.5;"/>
   </g>
   <g id="line2d_13">
    <path clip-path="url(#pdd082c6da2)" d="
M480.24 17.91
L480.24 61.056
M488.34 61.056
L472.14 61.056
M488.34 66.564
L472.14 66.564
M480.24 66.564
L480.24 109.71" style="fill:none;stroke:#000000;stroke-linecap:round;stroke-width:1.5;"/>
   </g>
   <g id="line2d_14">
    <path clip-path="url(#pdd082c6da2)" d="
M302.04 109.71
L310.14 109.71
L318.24 109.71" style="fill:none;stroke:#000000;stroke-linecap:round;stroke-width:1.5;"/>
   </g>
   <g id="patch_2">
    <path clip-path="url(#pdd082c6da2)" d="
M334.44 19.0575
C334.762 19.0575 335.071 18.9366 335.299 18.7214
C335.527 18.5062 335.655 18.2143 335.655 17.91
C335.655 17.6057 335.527 17.3138 335.299 17.0986
C335.071 16.8834 334.762 16.7625 334.44 16.7625
C334.118 16.7625 333.809 16.8834 333.581 17.0986
C333.353 17.3138 333.225 17.6057 333.225 17.91
C333.225 18.2143 333.353 18.5062 333.581 18.7214
C333.809 18.9366 334.118 19.0575 334.44 19.0575
z
" style="stroke:#000000;stroke-linejoin:miter;stroke-width:1.5;"/>
   </g>
   <g id="patch_3">
    <path clip-path="url(#pdd082c6da2)" d="
M350.64 19.0575
C350.962 19.0575 351.271 18.9366 351.499 18.7214
C351.727 18.5062 351.855 18.2143 351.855 17.91
C351.855 17.6057 351.727 17.3138 351.499 17.0986
C351.271 16.8834 350.962 16.7625 350.64 16.7625
C350.318 16.7625 350.009 16.8834 349.781 17.0986
C349.553 17.3138 349.425 17.6057 349.425 17.91
C349.425 18.2143 349.553 18.5062 349.781 18.7214
C350.009 18.9366 350.318 19.0575 350.64 19.0575
z
" style="stroke:#000000;stroke-linejoin:miter;stroke-width:1.5;"/>
   </g>
   <g id="patch_4">
    <path clip-path="url(#pdd082c6da2)" d="
M366.84 19.0575
C367.162 19.0575 367.471 18.9366 367.699 18.7214
C367.927 18.5062 368.055 18.2143 368.055 17.91
C368.055 17.6057 367.927 17.3138 367.699 17.0986
C367.471 16.8834 367.162 16.7625 366.84 16.7625
C366.518 16.7625 366.209 16.8834 365.981 17.0986
C365.753 17.3138 365.625 17.6057 365.625 17.91
C365.625 18.2143 365.753 18.5062 365.981 18.7214
C366.209 18.9366 366.518 19.0575 366.84 19.0575
z
" style="stroke:#000000;stroke-linejoin:miter;stroke-width:1.5;"/>
   </g>
   <g id="patch_5">
    <path clip-path="url(#pdd082c6da2)" d="
M334.44 110.857
C334.762 110.857 335.071 110.737 335.299 110.521
C335.527 110.306 335.655 110.014 335.655 109.71
C335.655 109.406 335.527 109.114 335.299 108.899
C335.071 108.683 334.762 108.562 334.44 108.562
C334.118 108.562 333.809 108.683 333.581 108.899
C333.353 109.114 333.225 109.406 333.225 109.71
C333.225 110.014 333.353 110.306 333.581 110.521
C333.809 110.737 334.118 110.857 334.44 110.857
z
" style="stroke:#000000;stroke-linejoin:miter;stroke-width:1.5;"/>
   </g>
   <g id="patch_6">
    <path clip-path="url(#pdd082c6da2)" d="
M350.64 110.857
C350.962 110.857 351.271 110.737 351.499 110.521
C351.727 110.306 351.855 110.014 351.855 109.71
C351.855 109.406 351.727 109.114 351.499 108.899
C351.271 108.683 350.962 108.562 350.64 108.562
C350.318 108.562 350.009 108.683 349.781 108.899
C349.553 109.114 349.425 109.406 349.425 109.71
C349.425 110.014 349.553 110.306 349.781 110.521
C350.009 110.737 350.318 110.857 350.64 110.857
z
" style="stroke:#000000;stroke-linejoin:miter;stroke-width:1.5;"/>
   </g>
   <g id="patch_7">
    <path clip-path="url(#pdd082c6da2)" d="
M366.84 110.857
C367.162 110.857 367.471 110.737 367.699 110.521
C367.927 110.306 368.055 110.014 368.055 109.71
C368.055 109.406 367.927 109.114 367.699 108.899
C367.471 108.683 367.162 108.562 366.84 108.562
C366.518 108.562 366.209 108.683 365.981 108.899
C365.753 109.114 365.625 109.406 365.625 109.71
C365.625 110.014 365.753 110.306 365.981 110.521
C366.209 110.737 366.518 110.857 366.84 110.857
z
" style="stroke:#000000;stroke-linejoin:miter;stroke-width:1.5;"/>
   </g>
  </g>
 </g>
 <defs>
  <clipPath id="pdd082c6da2">
   <rect height="106.7175" width="484.38" x="7.2" y="7.2"/>
  </clipPath>
 </defs>
</svg>
