<?xml version="1.0" encoding="utf-8" standalone="no"?>
<!DOCTYPE svg PUBLIC "-//W3C//DTD SVG 1.1//EN"
  "http://www.w3.org/Graphics/SVG/1.1/DTD/svg11.dtd">
<!-- Created with matplotlib (http://matplotlib.org/) -->
<svg height="138pt" version="1.1" viewBox="0 0 553 138" width="553pt" xmlns="http://www.w3.org/2000/svg" xmlns:xlink="http://www.w3.org/1999/xlink">
 <defs>
  <style type="text/css">
*{stroke-linecap:butt;stroke-linejoin:round;}
  </style>
 </defs>
 <g id="figure_1">
  <g id="patch_1">
   <path d="M 0 138.17725 
L 553.57 138.17725 
L 553.57 0 
L 0 0 
z
" style="fill:none;"/>
  </g>
  <g id="axes_1">
   <g id="line2d_1">
    <path clip-path="url(#p7c760028b6)" d="M 135.035 118.239875 
L 86.435 118.239875 
L 37.835 118.239875 
" style="fill:none;stroke:#000000;stroke-linecap:round;stroke-width:1.5;"/>
   </g>
   <g id="line2d_2">
    <path clip-path="url(#p7c760028b6)" d="M 37.835 26.439875 
L 70.235 26.439875 
L 72.935 18.789875 
L 78.335 34.089875 
L 83.735 18.789875 
L 89.135 34.089875 
L 94.535 18.789875 
L 99.935 34.089875 
L 102.635 26.439875 
L 135.035 26.439875 
" style="fill:none;stroke:#000000;stroke-linecap:round;stroke-width:1.5;"/>
   </g>
   <g id="line2d_3">
    <path clip-path="url(#p7c760028b6)" d="M 135.035 26.439875 
L 135.035 69.585875 
M 143.135 69.585875 
L 126.935 69.585875 
M 143.135 75.093875 
L 126.935 75.093875 
M 135.035 75.093875 
L 135.035 118.239875 
" style="fill:none;stroke:#000000;stroke-linecap:round;stroke-width:1.5;"/>
   </g>
   <g id="line2d_4">
    <path clip-path="url(#p7c760028b6)" d="M 232.235 118.239875 
L 183.635 118.239875 
L 135.035 118.239875 
" style="fill:none;stroke:#000000;stroke-linecap:round;stroke-width:1.5;"/>
   </g>
   <g id="line2d_5">
    <path clip-path="url(#p7c760028b6)" d="M 135.035 26.439875 
L 167.435 26.439875 
L 170.135 18.789875 
L 175.535 34.089875 
L 180.935 18.789875 
L 186.335 34.089875 
L 191.735 18.789875 
L 197.135 34.089875 
L 199.835 26.439875 
L 232.235 26.439875 
" style="fill:none;stroke:#000000;stroke-linecap:round;stroke-width:1.5;"/>
   </g>
   <g id="line2d_6">
    <path clip-path="url(#p7c760028b6)" d="M 232.235 26.439875 
L 232.235 69.585875 
M 240.335 69.585875 
L 224.135 69.585875 
M 240.335 75.093875 
L 224.135 75.093875 
M 232.235 75.093875 
L 232.235 118.239875 
" style="fill:none;stroke:#000000;stroke-linecap:round;stroke-width:1.5;"/>
   </g>
   <g id="line2d_7">
    <path clip-path="url(#p7c760028b6)" d="M 329.435 118.239875 
L 280.835 118.239875 
L 232.235 118.239875 
" style="fill:none;stroke:#000000;stroke-linecap:round;stroke-width:1.5;"/>
   </g>
   <g id="line2d_8">
    <path clip-path="url(#p7c760028b6)" d="M 232.235 26.439875 
L 264.635 26.439875 
L 267.335 18.789875 
L 272.735 34.089875 
L 278.135 18.789875 
L 283.535 34.089875 
L 288.935 18.789875 
L 294.335 34.089875 
L 297.035 26.439875 
L 329.435 26.439875 
" style="fill:none;stroke:#000000;stroke-linecap:round;stroke-width:1.5;"/>
   </g>
   <g id="line2d_9">
    <path clip-path="url(#p7c760028b6)" d="M 329.435 26.439875 
L 329.435 69.585875 
M 337.535 69.585875 
L 321.335 69.585875 
M 337.535 75.093875 
L 321.335 75.093875 
M 329.435 75.093875 
L 329.435 118.239875 
" style="fill:none;stroke:#000000;stroke-linecap:round;stroke-width:1.5;"/>
   </g>
   <g id="line2d_10">
    <path clip-path="url(#p7c760028b6)" d="M 329.435 26.439875 
L 337.535 26.439875 
L 345.635 26.439875 
" style="fill:none;stroke:#000000;stroke-linecap:round;stroke-width:1.5;"/>
   </g>
   <g id="line2d_11">
    <path clip-path="url(#p7c760028b6)" d="M 507.635 118.239875 
L 459.035 118.239875 
L 410.435 118.239875 
" style="fill:none;stroke:#000000;stroke-linecap:round;stroke-width:1.5;"/>
   </g>
   <g id="line2d_12">
    <path clip-path="url(#p7c760028b6)" d="M 410.435 26.439875 
L 442.835 26.439875 
L 445.535 18.789875 
L 450.935 34.089875 
L 456.335 18.789875 
L 461.735 34.089875 
L 467.135 18.789875 
L 472.535 34.089875 
L 475.235 26.439875 
L 507.635 26.439875 
" style="fill:none;stroke:#000000;stroke-linecap:round;stroke-width:1.5;"/>
   </g>
   <g id="line2d_13">
    <path clip-path="url(#p7c760028b6)" d="M 507.635 26.439875 
L 507.635 69.585875 
M 515.735 69.585875 
L 499.535 69.585875 
M 515.735 75.093875 
L 499.535 75.093875 
M 507.635 75.093875 
L 507.635 118.239875 
" style="fill:none;stroke:#000000;stroke-linecap:round;stroke-width:1.5;"/>
   </g>
   <g id="line2d_14">
    <path clip-path="url(#p7c760028b6)" d="M 329.435 118.239875 
L 337.535 118.239875 
L 345.635 118.239875 
" style="fill:none;stroke:#000000;stroke-linecap:round;stroke-width:1.5;"/>
   </g>
   <g id="patch_2">
    <path clip-path="url(#p7c760028b6)" d="M 361.835 27.587375 
C 362.157222 27.587375 362.46629 27.466467 362.694135 27.25128 
C 362.92198 27.036093 363.05 26.744196 363.05 26.439875 
C 363.05 26.135554 362.92198 25.843657 362.694135 25.62847 
C 362.46629 25.413283 362.157222 25.292375 361.835 25.292375 
C 361.512778 25.292375 361.20371 25.413283 360.975865 25.62847 
C 360.74802 25.843657 360.62 26.135554 360.62 26.439875 
C 360.62 26.744196 360.74802 27.036093 360.975865 27.25128 
C 361.20371 27.466467 361.512778 27.587375 361.835 27.587375 
z
" style="stroke:#000000;stroke-linejoin:miter;stroke-width:1.5;"/>
   </g>
   <g id="patch_3">
    <path clip-path="url(#p7c760028b6)" d="M 378.035 27.587375 
C 378.357222 27.587375 378.66629 27.466467 378.894135 27.25128 
C 379.12198 27.036093 379.25 26.744196 379.25 26.439875 
C 379.25 26.135554 379.12198 25.843657 378.894135 25.62847 
C 378.66629 25.413283 378.357222 25.292375 378.035 25.292375 
C 377.712778 25.292375 377.40371 25.413283 377.175865 25.62847 
C 376.94802 25.843657 376.82 26.135554 376.82 26.439875 
C 376.82 26.744196 376.94802 27.036093 377.175865 27.25128 
C 377.40371 27.466467 377.712778 27.587375 378.035 27.587375 
z
" style="stroke:#000000;stroke-linejoin:miter;stroke-width:1.5;"/>
   </g>
   <g id="patch_4">
    <path clip-path="url(#p7c760028b6)" d="M 394.235 27.587375 
C 394.557222 27.587375 394.86629 27.466467 395.094135 27.25128 
C 395.32198 27.036093 395.45 26.744196 395.45 26.439875 
C 395.45 26.135554 395.32198 25.843657 395.094135 25.62847 
C 394.86629 25.413283 394.557222 25.292375 394.235 25.292375 
C 393.912778 25.292375 393.60371 25.413283 393.375865 25.62847 
C 393.14802 25.843657 393.02 26.135554 393.02 26.439875 
C 393.02 26.744196 393.14802 27.036093 393.375865 27.25128 
C 393.60371 27.466467 393.912778 27.587375 394.235 27.587375 
z
" style="stroke:#000000;stroke-linejoin:miter;stroke-width:1.5;"/>
   </g>
   <g id="patch_5">
    <path clip-path="url(#p7c760028b6)" d="M 361.835 119.387375 
C 362.157222 119.387375 362.46629 119.266467 362.694135 119.05128 
C 362.92198 118.836093 363.05 118.544196 363.05 118.239875 
C 363.05 117.935554 362.92198 117.643657 362.694135 117.42847 
C 362.46629 117.213283 362.157222 117.092375 361.835 117.092375 
C 361.512778 117.092375 361.20371 117.213283 360.975865 117.42847 
C 360.74802 117.643657 360.62 117.935554 360.62 118.239875 
C 360.62 118.544196 360.74802 118.836093 360.975865 119.05128 
C 361.20371 119.266467 361.512778 119.387375 361.835 119.387375 
z
" style="stroke:#000000;stroke-linejoin:miter;stroke-width:1.5;"/>
   </g>
   <g id="patch_6">
    <path clip-path="url(#p7c760028b6)" d="M 378.035 119.387375 
C 378.357222 119.387375 378.66629 119.266467 378.894135 119.05128 
C 379.12198 118.836093 379.25 118.544196 379.25 118.239875 
C 379.25 117.935554 379.12198 117.643657 378.894135 117.42847 
C 378.66629 117.213283 378.357222 117.092375 378.035 117.092375 
C 377.712778 117.092375 377.40371 117.213283 377.175865 117.42847 
C 376.94802 117.643657 376.82 117.935554 376.82 118.239875 
C 376.82 118.544196 376.94802 118.836093 377.175865 119.05128 
C 377.40371 119.266467 377.712778 119.387375 378.035 119.387375 
z
" style="stroke:#000000;stroke-linejoin:miter;stroke-width:1.5;"/>
   </g>
   <g id="patch_7">
    <path clip-path="url(#p7c760028b6)" d="M 394.235 119.387375 
C 394.557222 119.387375 394.86629 119.266467 395.094135 119.05128 
C 395.32198 118.836093 395.45 118.544196 395.45 118.239875 
C 395.45 117.935554 395.32198 117.643657 395.094135 117.42847 
C 394.86629 117.213283 394.557222 117.092375 394.235 117.092375 
C 393.912778 117.092375 393.60371 117.213283 393.375865 117.42847 
C 393.14802 117.643657 393.02 117.935554 393.02 118.239875 
C 393.02 118.544196 393.14802 118.836093 393.375865 119.05128 
C 393.60371 119.266467 393.912778 119.387375 394.235 119.387375 
z
" style="stroke:#000000;stroke-linejoin:miter;stroke-width:1.5;"/>
   </g>
  </g>
 </g>
 <defs>
  <clipPath id="p7c760028b6">
   <rect height="116.77725" width="532.17" x="10.7" y="10.7"/>
  </clipPath>
 </defs>
</svg>
