<?xml version="1.0" encoding="utf-8" standalone="no"?>
<!DOCTYPE svg PUBLIC "-//W3C//DTD SVG 1.1//EN"
  "http://www.w3.org/Graphics/SVG/1.1/DTD/svg11.dtd">
<!-- Created with matplotlib (https://matplotlib.org/) -->
<svg height="107.432752pt" version="1.1" viewBox="0 0 257.886 107.432752" width="257.886pt" xmlns="http://www.w3.org/2000/svg" xmlns:xlink="http://www.w3.org/1999/xlink">
 <defs>
  <style type="text/css">
*{stroke-linecap:butt;stroke-linejoin:round;}
  </style>
 </defs>
 <g id="figure_1">
  <g id="patch_1">
   <path d="M 0 107.432752 
L 257.886 107.432752 
L 257.886 0 
L 0 0 
z
" style="fill:none;"/>
  </g>
  <g id="axes_1">
   <g id="patch_2">
    <path clip-path="url(#p4d7cbe7d15)" d="M 45.513 37.667627 
C 47.230944 37.667627 48.880282 37.079334 50.095052 36.033283 
C 51.309822 34.987231 51.993 33.566967 51.993 32.087627 
C 51.993 30.608286 51.309822 29.188022 50.095052 28.141971 
C 48.880282 27.095919 47.230944 26.507627 45.513 26.507627 
" style="fill:none;stroke:#000000;stroke-linejoin:miter;stroke-width:1.5;"/>
   </g>
   <g id="patch_3">
    <path clip-path="url(#p4d7cbe7d15)" d="M 45.513 48.827627 
C 47.230944 48.827627 48.880282 48.239334 50.095052 47.193283 
C 51.309822 46.147231 51.993 44.726967 51.993 43.247627 
C 51.993 41.768286 51.309822 40.348022 50.095052 39.301971 
C 48.880282 38.255919 47.230944 37.667627 45.513 37.667627 
" style="fill:none;stroke:#000000;stroke-linejoin:miter;stroke-width:1.5;"/>
   </g>
   <g id="patch_4">
    <path clip-path="url(#p4d7cbe7d15)" d="M 45.513 59.987627 
C 47.230944 59.987627 48.880282 59.399334 50.095052 58.353283 
C 51.309822 57.307231 51.993 55.886967 51.993 54.407627 
C 51.993 52.928286 51.309822 51.508022 50.095052 50.461971 
C 48.880282 49.415919 47.230944 48.827627 45.513 48.827627 
" style="fill:none;stroke:#000000;stroke-linejoin:miter;stroke-width:1.5;"/>
   </g>
   <g id="patch_5">
    <path clip-path="url(#p4d7cbe7d15)" d="M 45.513 71.147627 
C 47.230944 71.147627 48.880282 70.559334 50.095052 69.513283 
C 51.309822 68.467231 51.993 67.046967 51.993 65.567627 
C 51.993 64.088286 51.309822 62.668022 50.095052 61.621971 
C 48.880282 60.575919 47.230944 59.987627 45.513 59.987627 
" style="fill:none;stroke:#000000;stroke-linejoin:miter;stroke-width:1.5;"/>
   </g>
   <g id="patch_6">
    <path clip-path="url(#p4d7cbe7d15)" d="M 45.513 82.307627 
C 47.230944 82.307627 48.880282 81.719334 50.095052 80.673283 
C 51.309822 79.627231 51.993 78.206967 51.993 76.727627 
C 51.993 75.248286 51.309822 73.828022 50.095052 72.781971 
C 48.880282 71.735919 47.230944 71.147627 45.513 71.147627 
" style="fill:none;stroke:#000000;stroke-linejoin:miter;stroke-width:1.5;"/>
   </g>
   <g id="patch_7">
    <path clip-path="url(#p4d7cbe7d15)" d="M 45.513 93.467627 
C 47.230944 93.467627 48.880282 92.879334 50.095052 91.833283 
C 51.309822 90.787231 51.993 89.366967 51.993 87.887627 
C 51.993 86.408286 51.309822 84.988022 50.095052 83.941971 
C 48.880282 82.895919 47.230944 82.307627 45.513 82.307627 
" style="fill:none;stroke:#000000;stroke-linejoin:miter;stroke-width:1.5;"/>
   </g>
   <g id="patch_8">
    <path clip-path="url(#p4d7cbe7d15)" d="M 77.913 43.247627 
C 76.195056 43.247627 74.545718 43.835919 73.330948 44.881971 
C 72.116178 45.928022 71.433 47.348286 71.433 48.827627 
C 71.433 50.306967 72.116178 51.727231 73.330948 52.773283 
C 74.545718 53.819334 76.195056 54.407627 77.913 54.407627 
" style="fill:none;stroke:#000000;stroke-linejoin:miter;stroke-width:1.5;"/>
   </g>
   <g id="patch_9">
    <path clip-path="url(#p4d7cbe7d15)" d="M 77.913 54.407627 
C 76.195056 54.407627 74.545718 54.995919 73.330948 56.041971 
C 72.116178 57.088022 71.433 58.508286 71.433 59.987627 
C 71.433 61.466967 72.116178 62.887231 73.330948 63.933283 
C 74.545718 64.979334 76.195056 65.567627 77.913 65.567627 
" style="fill:none;stroke:#000000;stroke-linejoin:miter;stroke-width:1.5;"/>
   </g>
   <g id="patch_10">
    <path clip-path="url(#p4d7cbe7d15)" d="M 77.913 65.567627 
C 76.195056 65.567627 74.545718 66.155919 73.330948 67.201971 
C 72.116178 68.248022 71.433 69.668286 71.433 71.147627 
C 71.433 72.626967 72.116178 74.047231 73.330948 75.093283 
C 74.545718 76.139334 76.195056 76.727627 77.913 76.727627 
" style="fill:none;stroke:#000000;stroke-linejoin:miter;stroke-width:1.5;"/>
   </g>
   <g id="line2d_1">
    <path clip-path="url(#p4d7cbe7d15)" d="M 64.953 26.507627 
L 64.953 93.467627 
" style="fill:none;stroke:#000000;stroke-linecap:round;stroke-width:1.5;"/>
   </g>
   <g id="line2d_2">
    <path clip-path="url(#p4d7cbe7d15)" d="M 58.473 26.507627 
L 58.473 93.467627 
" style="fill:none;stroke:#000000;stroke-linecap:round;stroke-width:1.5;"/>
   </g>
   <g id="line2d_3">
    <path clip-path="url(#p4d7cbe7d15)" d="M 77.913 43.247627 
L 90.063 43.247627 
L 102.213 43.247627 
" style="fill:none;stroke:#000000;stroke-linecap:round;stroke-width:1.5;"/>
   </g>
   <g id="line2d_4">
    <path clip-path="url(#p4d7cbe7d15)" d="M 77.913 76.727627 
L 90.063 76.727627 
L 102.213 76.727627 
" style="fill:none;stroke:#000000;stroke-linecap:round;stroke-width:1.5;"/>
   </g>
   <g id="line2d_5">
    <path clip-path="url(#p4d7cbe7d15)" d="M 45.513 26.507627 
L 33.363 26.507627 
L 21.213 26.507627 
" style="fill:none;stroke:#000000;stroke-linecap:round;stroke-width:1.5;"/>
   </g>
   <g id="line2d_6">
    <path clip-path="url(#p4d7cbe7d15)" d="M 45.513 93.467627 
L 33.363 93.467627 
L 21.213 93.467627 
" style="fill:none;stroke:#000000;stroke-linecap:round;stroke-width:1.5;"/>
   </g>
   <g id="line2d_7">
    <path clip-path="url(#p4d7cbe7d15)" d="M 212.373 76.727627 
L 210.995913 76.668731 
L 209.582509 76.489498 
L 208.165339 76.188198 
L 206.777042 75.765914 
L 205.44959 75.226517 
L 204.213556 74.57657 
L 203.097407 73.825188 
L 202.126847 72.983818 
L 201.32423 72.065982 
L 200.70804 71.08696 
L 200.292467 70.063444 
L 200.087084 69.01315 
L 200.096621 67.95441 
L 200.320856 66.905752 
L 200.754627 65.88547 
L 201.387944 64.911205 
L 202.20622 63.999538 
L 203.19061 63.16561 
L 204.318444 62.422771 
L 205.563746 61.782271 
L 206.897837 61.253005 
L 208.289992 60.841306 
L 209.708148 60.5508 
L 211.119645 60.382321 
L 212.491976 60.333892 
L 213.793534 60.400772 
L 214.994344 60.575565 
L 216.066751 60.848388 
L 216.986057 61.207103 
L 217.73109 61.637591 
L 218.28469 62.124082 
L 218.634109 62.649514 
L 218.771299 63.195931 
L 218.6931 63.744892 
L 218.401313 64.277898 
L 217.90266 64.776817 
L 217.208622 65.224302 
L 216.335186 65.60419 
L 215.302466 65.901878 
L 214.134247 66.104651 
L 212.857433 66.201984 
L 211.50143 66.185779 
L 210.097467 66.050553 
L 208.677879 65.793563 
L 207.27536 65.414873 
L 205.92221 64.917346 
L 204.649592 64.306585 
L 203.486817 63.590799 
L 202.460664 62.780618 
L 201.594765 61.888843 
L 200.909062 60.930157 
L 200.419348 59.920782 
L 200.136901 58.878108 
L 200.068225 57.820292 
L 200.214903 56.76584 
L 200.573557 55.73318 
L 201.135926 54.740238 
L 201.889059 53.804026 
L 202.815611 52.94025 
L 203.894242 52.162945 
L 205.100112 51.484158 
L 206.405448 50.913664 
L 207.780187 50.458747 
L 209.19267 50.124026 
L 210.610365 49.911355 
L 212.000622 49.819774 
L 213.331424 49.845537 
L 214.57212 49.982194 
L 215.694137 50.220741 
L 216.671634 50.549827 
L 217.482099 50.956018 
L 218.106866 51.424103 
L 218.531547 51.937444 
L 218.746361 52.478363 
L 218.746361 53.028545 
L 218.531547 53.569464 
L 218.106866 54.082805 
L 217.482099 54.55089 
L 216.671634 54.957081 
L 215.694137 55.286168 
L 214.57212 55.524715 
L 213.331424 55.661371 
L 212.000622 55.687134 
L 210.610365 55.595554 
L 209.19267 55.382882 
L 207.780187 55.048162 
L 206.405448 54.593244 
L 205.100112 54.022751 
L 203.894242 53.343963 
L 202.815611 52.566659 
L 201.889059 51.702882 
L 201.135926 50.76667 
L 200.573557 49.773729 
L 200.214903 48.741069 
L 200.068225 47.686617 
L 200.136901 46.628801 
L 200.419348 45.586127 
L 200.909062 44.576751 
L 201.594765 43.618065 
L 202.460664 42.726291 
L 203.486817 41.916109 
L 204.649592 41.200324 
L 205.92221 40.589563 
L 207.27536 40.092036 
L 208.677879 39.713345 
L 210.097467 39.456355 
L 211.50143 39.321129 
L 212.857433 39.304924 
L 214.134247 39.402257 
L 215.302466 39.605031 
L 216.335186 39.902718 
L 217.208622 40.282607 
L 217.90266 40.730091 
L 218.401313 41.22901 
L 218.6931 41.762016 
L 218.771299 42.310977 
L 218.634109 42.857394 
L 218.28469 43.382827 
L 217.73109 43.869317 
L 216.986057 44.299805 
L 216.066751 44.65852 
L 214.994344 44.931344 
L 213.793534 45.106137 
L 212.491976 45.173017 
L 211.119645 45.124588 
L 209.708148 44.956108 
L 208.289992 44.665602 
L 206.897837 44.253903 
L 205.563746 43.724638 
L 204.318444 43.084138 
L 203.19061 42.341298 
L 202.20622 41.50737 
L 201.387944 40.595704 
L 200.754627 39.621439 
L 200.320856 38.601156 
L 200.096621 37.552498 
L 200.087084 36.493758 
L 200.292467 35.443464 
L 200.70804 34.419949 
L 201.32423 33.440927 
L 202.126847 32.52309 
L 203.097407 31.68172 
L 204.213556 30.930338 
L 205.44959 30.280392 
L 206.777042 29.740994 
L 208.165339 29.318711 
L 209.582509 29.017411 
L 210.995913 28.838177 
L 212.373 28.779282 
L 212.373 28.779282 
" style="fill:none;stroke:#000000;stroke-linecap:round;stroke-width:1.5;"/>
   </g>
   <g id="line2d_8">
    <path clip-path="url(#p4d7cbe7d15)" d="M 175.113 93.467627 
L 177.657768 93.269295 
L 180.233883 92.665813 
L 181.471785 92.214258 
L 182.644264 91.667812 
L 183.728787 91.032513 
L 184.704512 90.316107 
L 185.552687 89.527899 
L 186.257013 88.678572 
L 186.803953 87.779985 
L 187.182996 86.844945 
L 187.386858 85.886957 
L 187.411622 84.919969 
L 187.25681 83.9581 
L 186.925399 83.015373 
L 186.423758 82.105441 
L 185.761526 81.241328 
L 184.951431 80.435178 
L 184.009042 79.698018 
L 182.952468 79.039553 
L 181.802015 78.467974 
L 179.309289 77.609761 
L 176.721564 77.1535 
L 174.236806 77.098561 
L 172.045107 77.41361 
L 170.314136 78.03901 
L 169.664482 78.442799 
L 169.176317 78.891381 
L 168.859023 79.371672 
L 168.718696 79.869979 
L 168.758035 80.372262 
L 168.976283 80.864403 
L 169.369245 81.332483 
L 169.92937 81.763042 
L 170.645893 82.143343 
L 171.505045 82.461613 
L 173.582764 82.871136 
L 176.003578 82.924747 
L 178.582287 82.58281 
L 181.121614 81.835948 
L 182.315271 81.316239 
L 183.427294 80.705761 
L 184.436313 80.011782 
L 185.322937 79.243177 
L 186.070127 78.410252 
L 186.663522 77.524551 
L 187.09172 76.598633 
L 187.346491 75.645827 
L 187.422938 74.679983 
L 187.319594 73.715197 
L 187.038443 72.765548 
L 186.584889 71.844822 
L 185.967649 70.966252 
L 185.198584 70.142256 
L 184.292474 69.384209 
L 183.266733 68.702214 
L 182.141074 68.104915 
L 179.678036 67.190702 
L 177.091789 66.675976 
L 174.580186 66.564578 
L 172.335372 66.829495 
L 170.52908 67.414924 
L 169.835184 67.803531 
L 169.299497 68.240544 
L 168.932313 68.713101 
L 168.740688 69.207656 
L 168.728306 69.710243 
L 168.895404 70.20674 
L 169.238771 70.68314 
L 169.751808 71.125826 
L 170.424656 71.521826 
L 171.244384 71.859067 
L 173.258946 72.314833 
L 175.641374 72.42272 
L 178.209408 72.138941 
L 180.766585 71.449668 
L 181.979521 70.957154 
L 183.117277 70.372099 
L 184.157986 69.701282 
L 185.081648 68.953132 
L 185.870513 68.137565 
L 186.509421 67.265789 
L 186.986092 66.350095 
L 187.291366 65.403618 
L 187.419376 64.440084 
L 187.367663 63.473546 
L 187.137219 62.518116 
L 186.732475 61.587692 
L 186.161207 60.695691 
L 185.434395 59.854793 
L 184.566007 59.076694 
L 183.57273 58.371884 
L 182.473655 57.749445 
L 181.289902 57.216876 
L 178.760553 56.442595 
L 176.178184 56.072739 
L 173.740353 56.100069 
L 171.63356 56.486956 
L 170.018979 57.168269 
L 169.436621 57.592648 
L 169.020131 58.056349 
L 168.777513 58.545998 
L 168.713429 59.047721 
L 168.829112 59.547413 
L 169.122338 60.031007 
L 169.587472 60.484746 
L 170.215574 60.895446 
L 170.994574 61.250753 
L 172.942774 61.751298 
L 175.283029 61.912551 
L 177.836303 61.686642 
L 180.407264 61.055317 
L 181.637551 60.590411 
L 182.799229 60.031339 
L 183.869972 59.384382 
L 184.829204 58.657509 
L 185.658491 57.860226 
L 186.341894 57.003392 
L 186.86628 56.09901 
L 187.221572 55.159998 
L 187.400941 54.199937 
L 187.400941 53.232815 
L 187.221572 52.272754 
L 186.86628 51.333741 
L 186.341894 50.42936 
L 185.658491 49.572526 
L 184.829204 48.775243 
L 183.869972 48.04837 
L 182.799229 47.401413 
L 181.637551 46.842341 
L 179.132012 46.011166 
L 176.545036 45.582897 
L 174.074533 45.554762 
L 171.909502 45.893379 
L 170.215574 46.537305 
L 169.587472 46.948006 
L 169.122338 47.401745 
L 168.829112 47.885339 
L 168.713429 48.385031 
L 168.777513 48.886754 
L 169.020131 49.376403 
L 169.436621 49.840104 
L 170.018979 50.264483 
L 170.756013 50.63692 
L 172.634753 51.180709 
L 174.929112 51.394334 
L 177.463565 51.225915 
L 180.044222 50.652803 
L 182.473655 49.683307 
L 183.57273 49.060868 
L 184.566007 48.356058 
L 185.434395 47.577959 
L 186.161207 46.737061 
L 186.732475 45.84506 
L 187.137219 44.914636 
L 187.367663 43.959206 
L 187.419376 42.992668 
L 187.291366 42.029133 
L 186.986092 41.082656 
L 186.509421 40.166963 
L 185.870513 39.295187 
L 185.081648 38.479619 
L 184.157986 37.73147 
L 183.117277 37.060653 
L 181.979521 36.475598 
L 179.501778 35.588112 
L 176.91431 35.101372 
L 174.415064 35.01708 
L 172.195238 35.306148 
L 170.424656 35.910926 
L 169.751808 36.306926 
L 169.238771 36.749612 
L 168.895404 37.226012 
L 168.728306 37.722508 
L 168.740688 38.225095 
L 168.932313 38.719651 
L 169.299497 39.192208 
L 169.835184 39.629221 
L 170.52908 40.017828 
L 171.367849 40.346097 
L 173.413054 40.779902 
L 175.814337 40.861913 
L 178.387992 40.55032 
L 180.937129 39.833425 
L 182.141074 39.327837 
L 183.266733 38.730538 
L 184.292474 38.048543 
L 185.198584 37.290495 
L 185.967649 36.4665 
L 186.584889 35.587929 
L 187.038443 34.667204 
L 187.319594 33.717555 
L 187.422938 32.752769 
L 187.346491 31.786924 
L 187.09172 30.834119 
L 186.663522 29.908201 
L 186.070127 29.0225 
L 185.322937 28.189575 
L 184.436313 27.420969 
L 183.427294 26.726991 
L 182.315271 26.116513 
L 181.121614 25.596804 
L 178.582287 24.849942 
L 176.003578 24.508004 
L 173.582764 24.561616 
L 171.505045 24.971139 
L 169.92937 25.669709 
L 169.369245 26.100268 
L 168.976283 26.568348 
L 168.758035 27.06049 
L 168.718696 27.562773 
L 168.859023 28.061079 
L 169.176317 28.541371 
L 169.664482 28.989953 
L 170.314136 29.393742 
L 171.112794 29.740514 
L 173.093158 30.219808 
L 175.454073 30.355631 
L 178.014921 30.102057 
L 180.579792 29.442951 
L 181.802015 28.964778 
L 182.952468 28.393199 
L 184.009042 27.734734 
L 184.951431 26.997574 
L 185.761526 26.191423 
L 186.423758 25.32731 
L 186.925399 24.417379 
L 187.25681 23.474651 
L 187.411622 22.512783 
L 187.386858 21.545794 
L 187.182996 20.587807 
L 186.803953 19.652766 
L 186.257013 18.75418 
L 185.552687 17.904853 
L 184.704512 17.116644 
L 183.728787 16.400238 
L 182.644264 15.76494 
L 181.471785 15.218494 
L 178.954347 14.41449 
L 176.369064 14.0142 
L 175.113 13.965125 
L 175.113 13.965125 
" style="fill:none;stroke:#000000;stroke-linecap:round;stroke-width:1.5;"/>
   </g>
   <g id="line2d_9">
    <path clip-path="url(#p4d7cbe7d15)" d="M 212.373 28.779282 
L 224.523 28.779282 
L 236.673 28.779282 
" style="fill:none;stroke:#000000;stroke-linecap:round;stroke-width:1.5;"/>
   </g>
   <g id="line2d_10">
    <path clip-path="url(#p4d7cbe7d15)" d="M 212.373 76.727627 
L 224.523 76.727627 
L 236.673 76.727627 
" style="fill:none;stroke:#000000;stroke-linecap:round;stroke-width:1.5;"/>
   </g>
   <g id="line2d_11">
    <path clip-path="url(#p4d7cbe7d15)" d="M 175.113 13.965125 
L 162.963 13.965125 
L 150.813 13.965125 
" style="fill:none;stroke:#000000;stroke-linecap:round;stroke-width:1.5;"/>
   </g>
   <g id="line2d_12">
    <path clip-path="url(#p4d7cbe7d15)" d="M 175.113 93.467627 
L 162.963 93.467627 
L 150.813 93.467627 
" style="fill:none;stroke:#000000;stroke-linecap:round;stroke-width:1.5;"/>
   </g>
  </g>
 </g>
 <defs>
  <clipPath id="p4d7cbe7d15">
   <rect height="93.032752" width="243.486" x="7.2" y="7.2"/>
  </clipPath>
 </defs>
</svg>
