<?xml version="1.0" encoding="utf-8" standalone="no"?>
<!DOCTYPE svg PUBLIC "-//W3C//DTD SVG 1.1//EN"
  "http://www.w3.org/Graphics/SVG/1.1/DTD/svg11.dtd">
<!-- Created with matplotlib (http://matplotlib.org/) -->
<svg height="107pt" version="1.1" viewBox="0 0 236 107" width="236pt" xmlns="http://www.w3.org/2000/svg" xmlns:xlink="http://www.w3.org/1999/xlink">
 <defs>
  <style type="text/css">
*{stroke-linecap:butt;stroke-linejoin:round;stroke-miterlimit:100000;}
  </style>
 </defs>
 <g id="figure_1">
  <g id="patch_1">
   <path d="M 0 107.716292 
L 236.34 107.716292 
L 236.34 0 
L 0 0 
z
" style="fill:none;"/>
  </g>
  <g id="axes_1">
   <g id="patch_2">
    <path clip-path="url(#pdd81b8a2e3)" d="M 34.74 36.256292 
C 36.457944 36.256292 38.107282 35.611068 39.322052 34.463786 
C 40.536822 33.316503 41.22 31.758794 41.22 30.136292 
C 41.22 28.51379 40.536822 26.956081 39.322052 25.808799 
C 38.107282 24.661516 36.457944 24.016292 34.74 24.016292 
" style="fill:none;stroke:#000000;stroke-linejoin:miter;stroke-width:1.5;"/>
   </g>
   <g id="patch_3">
    <path clip-path="url(#pdd81b8a2e3)" d="M 34.74 48.496292 
C 36.457944 48.496292 38.107282 47.851068 39.322052 46.703786 
C 40.536822 45.556503 41.22 43.998794 41.22 42.376292 
C 41.22 40.75379 40.536822 39.196081 39.322052 38.048799 
C 38.107282 36.901516 36.457944 36.256292 34.74 36.256292 
" style="fill:none;stroke:#000000;stroke-linejoin:miter;stroke-width:1.5;"/>
   </g>
   <g id="patch_4">
    <path clip-path="url(#pdd81b8a2e3)" d="M 34.74 60.736292 
C 36.457944 60.736292 38.107282 60.091068 39.322052 58.943786 
C 40.536822 57.796503 41.22 56.238794 41.22 54.616292 
C 41.22 52.99379 40.536822 51.436081 39.322052 50.288799 
C 38.107282 49.141516 36.457944 48.496292 34.74 48.496292 
" style="fill:none;stroke:#000000;stroke-linejoin:miter;stroke-width:1.5;"/>
   </g>
   <g id="patch_5">
    <path clip-path="url(#pdd81b8a2e3)" d="M 34.74 72.976292 
C 36.457944 72.976292 38.107282 72.331068 39.322052 71.183786 
C 40.536822 70.036503 41.22 68.478794 41.22 66.856292 
C 41.22 65.23379 40.536822 63.676081 39.322052 62.528799 
C 38.107282 61.381516 36.457944 60.736292 34.74 60.736292 
" style="fill:none;stroke:#000000;stroke-linejoin:miter;stroke-width:1.5;"/>
   </g>
   <g id="patch_6">
    <path clip-path="url(#pdd81b8a2e3)" d="M 34.74 85.216292 
C 36.457944 85.216292 38.107282 84.571068 39.322052 83.423786 
C 40.536822 82.276503 41.22 80.718794 41.22 79.096292 
C 41.22 77.47379 40.536822 75.916081 39.322052 74.768799 
C 38.107282 73.621516 36.457944 72.976292 34.74 72.976292 
" style="fill:none;stroke:#000000;stroke-linejoin:miter;stroke-width:1.5;"/>
   </g>
   <g id="patch_7">
    <path clip-path="url(#pdd81b8a2e3)" d="M 34.74 97.456292 
C 36.457944 97.456292 38.107282 96.811068 39.322052 95.663786 
C 40.536822 94.516503 41.22 92.958794 41.22 91.336292 
C 41.22 89.71379 40.536822 88.156081 39.322052 87.008799 
C 38.107282 85.861516 36.457944 85.216292 34.74 85.216292 
" style="fill:none;stroke:#000000;stroke-linejoin:miter;stroke-width:1.5;"/>
   </g>
   <g id="patch_8">
    <path clip-path="url(#pdd81b8a2e3)" d="M 67.14 42.376292 
C 65.422056 42.376292 63.772718 43.021516 62.557948 44.168799 
C 61.343178 45.316081 60.66 46.87379 60.66 48.496292 
C 60.66 50.118794 61.343178 51.676503 62.557948 52.823786 
C 63.772718 53.971068 65.422056 54.616292 67.14 54.616292 
" style="fill:none;stroke:#000000;stroke-linejoin:miter;stroke-width:1.5;"/>
   </g>
   <g id="patch_9">
    <path clip-path="url(#pdd81b8a2e3)" d="M 67.14 54.616292 
C 65.422056 54.616292 63.772718 55.261516 62.557948 56.408799 
C 61.343178 57.556081 60.66 59.11379 60.66 60.736292 
C 60.66 62.358794 61.343178 63.916503 62.557948 65.063786 
C 63.772718 66.211068 65.422056 66.856292 67.14 66.856292 
" style="fill:none;stroke:#000000;stroke-linejoin:miter;stroke-width:1.5;"/>
   </g>
   <g id="patch_10">
    <path clip-path="url(#pdd81b8a2e3)" d="M 67.14 66.856292 
C 65.422056 66.856292 63.772718 67.501516 62.557948 68.648799 
C 61.343178 69.796081 60.66 71.35379 60.66 72.976292 
C 60.66 74.598794 61.343178 76.156503 62.557948 77.303786 
C 63.772718 78.451068 65.422056 79.096292 67.14 79.096292 
" style="fill:none;stroke:#000000;stroke-linejoin:miter;stroke-width:1.5;"/>
   </g>
   <g id="line2d_1">
    <path clip-path="url(#pdd81b8a2e3)" d="M 54.18 24.016292 
L 54.18 97.456292 
" style="fill:none;stroke:#000000;stroke-linecap:round;stroke-width:1.5;"/>
   </g>
   <g id="line2d_2">
    <path clip-path="url(#pdd81b8a2e3)" d="M 47.7 24.016292 
L 47.7 97.456292 
" style="fill:none;stroke:#000000;stroke-linecap:round;stroke-width:1.5;"/>
   </g>
   <g id="line2d_3">
    <path clip-path="url(#pdd81b8a2e3)" d="M 67.14 42.376292 
L 79.29 42.376292 
L 91.44 42.376292 
" style="fill:none;stroke:#000000;stroke-linecap:round;stroke-width:1.5;"/>
   </g>
   <g id="line2d_4">
    <path clip-path="url(#pdd81b8a2e3)" d="M 67.14 79.096292 
L 79.29 79.096292 
L 91.44 79.096292 
" style="fill:none;stroke:#000000;stroke-linecap:round;stroke-width:1.5;"/>
   </g>
   <g id="line2d_5">
    <path clip-path="url(#pdd81b8a2e3)" d="M 34.74 24.016292 
L 22.59 24.016292 
L 10.44 24.016292 
" style="fill:none;stroke:#000000;stroke-linecap:round;stroke-width:1.5;"/>
   </g>
   <g id="line2d_6">
    <path clip-path="url(#pdd81b8a2e3)" d="M 34.74 97.456292 
L 22.59 97.456292 
L 10.44 97.456292 
" style="fill:none;stroke:#000000;stroke-linecap:round;stroke-width:1.5;"/>
   </g>
   <g id="line2d_7">
    <path clip-path="url(#pdd81b8a2e3)" d="M 201.6 79.096292 
L 200.222913 79.031697 
L 198.809509 78.835118 
L 197.392339 78.50466 
L 196.004042 78.041511 
L 194.67659 77.449913 
L 193.440556 76.737069 
L 192.324407 75.912972 
L 191.353847 74.99018 
L 190.55123 73.98352 
L 189.93504 72.909754 
L 189.519467 71.787189 
L 189.314084 70.635253 
L 189.323621 69.474055 
L 189.547856 68.323913 
L 189.981627 67.204894 
L 190.614944 66.136345 
L 191.43322 65.136453 
L 192.41761 64.221823 
L 193.545444 63.407095 
L 194.790746 62.704611 
L 196.124837 62.124126 
L 197.516992 61.672586 
L 198.935148 61.353966 
L 200.346645 61.169182 
L 201.718976 61.116066 
L 203.020534 61.189419 
L 204.221344 61.381127 
L 205.293751 61.680353 
L 206.213057 62.073782 
L 206.95809 62.545931 
L 207.51169 63.079501 
L 207.861109 63.655782 
L 207.998299 64.255078 
L 207.9201 64.857164 
L 207.628313 65.441751 
L 207.12966 65.988952 
L 206.435622 66.479742 
L 205.562186 66.896394 
L 204.529466 67.22289 
L 203.361247 67.445287 
L 202.084433 67.552039 
L 200.72843 67.534266 
L 199.324467 67.385953 
L 197.904879 67.104094 
L 196.50236 66.688755 
L 195.14921 66.143081 
L 193.876592 65.473214 
L 192.713817 64.688159 
L 191.687664 63.799573 
L 190.821765 62.821497 
L 190.136062 61.770035 
L 189.646348 60.662978 
L 189.363901 59.5194 
L 189.295225 58.359215 
L 189.441903 57.202719 
L 189.800557 56.070124 
L 190.362926 54.981092 
L 191.116059 53.954279 
L 192.042611 53.006911 
L 193.121242 52.154383 
L 194.327112 51.409907 
L 195.632448 50.784204 
L 197.007187 50.285263 
L 198.41967 49.91815 
L 199.837365 49.684897 
L 201.227622 49.584454 
L 202.558424 49.61271 
L 203.79912 49.762591 
L 204.921137 50.024223 
L 205.898634 50.385157 
L 206.709099 50.830657 
L 207.333866 51.34404 
L 207.758547 51.90706 
L 207.973361 52.500325 
L 207.973361 53.103751 
L 207.758547 53.697017 
L 207.333866 54.260037 
L 206.709099 54.773419 
L 205.898634 55.218919 
L 204.921137 55.579853 
L 203.79912 55.841485 
L 202.558424 55.991367 
L 201.227622 56.019623 
L 199.837365 55.91918 
L 198.41967 55.685927 
L 197.007187 55.318814 
L 195.632448 54.819873 
L 194.327112 54.19417 
L 193.121242 53.449694 
L 192.042611 52.597166 
L 191.116059 51.649798 
L 190.362926 50.622985 
L 189.800557 49.533952 
L 189.441903 48.401358 
L 189.295225 47.244862 
L 189.363901 46.084676 
L 189.646348 44.941099 
L 190.136062 43.834042 
L 190.821765 42.78258 
L 191.687664 41.804504 
L 192.713817 40.915918 
L 193.876592 40.130863 
L 195.14921 39.460996 
L 196.50236 38.915321 
L 197.904879 38.499983 
L 199.324467 38.218123 
L 200.72843 38.069811 
L 202.084433 38.052038 
L 203.361247 38.15879 
L 204.529466 38.381187 
L 205.562186 38.707683 
L 206.435622 39.124335 
L 207.12966 39.615124 
L 207.628313 40.162326 
L 207.9201 40.746912 
L 207.998299 41.348999 
L 207.861109 41.948295 
L 207.51169 42.524576 
L 206.95809 43.058146 
L 206.213057 43.530294 
L 205.293751 43.923723 
L 204.221344 44.222949 
L 203.020534 44.414658 
L 201.718976 44.48801 
L 200.346645 44.434894 
L 198.935148 44.25011 
L 197.516992 43.931491 
L 196.124837 43.479951 
L 194.790746 42.899465 
L 193.545444 42.196981 
L 192.41761 41.382254 
L 191.43322 40.467624 
L 190.614944 39.467732 
L 189.981627 38.399183 
L 189.547856 37.280163 
L 189.323621 36.130022 
L 189.314084 34.968823 
L 189.519467 33.816888 
L 189.93504 32.694323 
L 190.55123 31.620557 
L 191.353847 30.613897 
L 192.324407 29.691104 
L 193.440556 28.867008 
L 194.67659 28.154163 
L 196.004042 27.562566 
L 197.392339 27.099416 
L 198.809509 26.768959 
L 200.222913 26.57238 
L 201.6 26.507785 
L 201.6 26.507785 
" style="fill:none;stroke:#000000;stroke-linecap:round;stroke-width:1.5;"/>
   </g>
   <g id="line2d_8">
    <path clip-path="url(#pdd81b8a2e3)" d="M 164.34 97.456292 
L 166.884768 97.238767 
L 168.181347 96.96344 
L 169.460883 96.576883 
L 170.698785 96.08163 
L 171.871264 95.482302 
L 172.955787 94.785523 
L 173.931512 93.999787 
L 174.779687 93.1353 
L 175.484013 92.20378 
L 176.030953 91.218234 
L 176.409996 90.192706 
L 176.613858 89.14201 
L 176.638622 88.081442 
L 176.48381 87.026489 
L 176.152399 85.99253 
L 175.650758 84.99454 
L 174.988526 84.046804 
L 174.178431 83.162638 
L 173.236042 82.354141 
L 172.179468 81.631953 
L 171.029015 81.00506 
L 169.806792 80.480612 
L 168.536289 80.063794 
L 165.948564 79.563379 
L 163.463806 79.503123 
L 161.272107 79.848661 
L 160.339794 80.154252 
L 159.541136 80.534583 
L 158.891482 80.977449 
L 158.403317 81.469442 
L 158.086023 81.996213 
L 157.945696 82.542743 
L 157.985035 83.093634 
L 158.203283 83.633402 
L 158.596245 84.14678 
L 159.15637 84.619006 
L 159.872893 85.03611 
L 160.732045 85.38518 
L 161.717314 85.654612 
L 163.988403 85.915997 
L 166.512417 85.761291 
L 167.809287 85.518106 
L 169.096263 85.163357 
L 170.348614 84.698967 
L 171.542271 84.128964 
L 172.654294 83.459407 
L 173.663313 82.698269 
L 174.549937 81.855283 
L 175.297127 80.941752 
L 175.890522 79.970338 
L 176.31872 78.954815 
L 176.573491 77.909803 
L 176.649938 76.850489 
L 176.546594 75.792337 
L 176.265443 74.750786 
L 175.811889 73.740958 
L 175.194649 72.777365 
L 174.425584 71.873628 
L 173.519474 71.042221 
L 172.493733 70.294227 
L 171.368074 69.639124 
L 170.164129 69.084608 
L 168.905036 68.63644 
L 166.318789 68.071901 
L 163.807186 67.949722 
L 161.562372 68.240276 
L 159.75608 68.88236 
L 159.062184 69.308574 
L 158.526497 69.787879 
L 158.159313 70.306167 
L 157.967688 70.848583 
L 157.955306 71.399807 
L 158.122404 71.944351 
L 158.465771 72.466855 
L 158.978808 72.952381 
L 159.651656 73.386704 
L 160.471384 73.756581 
L 161.422238 74.050009 
L 162.485946 74.256453 
L 164.868374 74.374782 
L 167.436408 74.06354 
L 168.728778 73.740758 
L 169.993585 73.307564 
L 171.206521 72.767387 
L 172.344277 72.125713 
L 173.384986 71.389978 
L 174.308648 70.569427 
L 175.097513 69.674934 
L 175.736421 68.718793 
L 176.213092 67.714484 
L 176.518366 66.676412 
L 176.646376 65.619633 
L 176.594663 64.559559 
L 176.364219 63.511668 
L 175.959475 62.491202 
L 175.388207 61.512879 
L 174.661395 60.590603 
L 173.793007 59.737204 
L 172.79973 58.964187 
L 171.700655 58.281512 
L 170.516902 57.697404 
L 169.271222 57.218193 
L 166.690565 56.589619 
L 164.156112 56.404902 
L 161.861753 56.6392 
L 159.983013 57.235613 
L 159.245979 57.644093 
L 158.663621 58.109541 
L 158.247131 58.618117 
L 158.004513 59.155151 
L 157.940429 59.705428 
L 158.056112 60.253477 
L 158.349338 60.78387 
L 158.814472 61.281519 
L 159.442574 61.731965 
L 160.221574 62.121656 
L 161.136502 62.438208 
L 162.169774 62.670641 
L 164.510029 62.8475 
L 167.063303 62.599728 
L 168.359012 62.309022 
L 169.634264 61.907308 
L 170.864551 61.397411 
L 172.026229 60.784235 
L 173.096972 60.074668 
L 174.056204 59.277453 
L 174.885491 58.403014 
L 175.568894 57.463261 
L 176.09328 56.471358 
L 176.448572 55.441473 
L 176.627941 54.388503 
L 176.627941 53.327789 
L 176.448572 52.274819 
L 176.09328 51.244934 
L 175.568894 50.253031 
L 174.885491 49.313278 
L 174.056204 48.438839 
L 173.096972 47.641624 
L 172.026229 46.932057 
L 170.864551 46.318882 
L 169.634264 45.808985 
L 168.359012 45.40727 
L 165.772036 44.937556 
L 163.301533 44.906699 
L 161.136502 45.278084 
L 160.221574 45.594636 
L 159.442574 45.984327 
L 158.814472 46.434773 
L 158.349338 46.932422 
L 158.056112 47.462815 
L 157.940429 48.010864 
L 158.004513 48.561141 
L 158.247131 49.098175 
L 158.663621 49.606751 
L 159.245979 50.072199 
L 159.983013 50.480679 
L 160.86056 50.819445 
L 161.861753 51.077092 
L 164.156112 51.31139 
L 166.690565 51.126673 
L 167.987553 50.868099 
L 169.271222 50.498099 
L 170.516902 50.018888 
L 171.700655 49.43478 
L 172.79973 48.752105 
L 173.793007 47.979088 
L 174.661395 47.125689 
L 175.388207 46.203413 
L 175.959475 45.22509 
L 176.364219 44.204624 
L 176.594663 43.156733 
L 176.646376 42.09666 
L 176.518366 41.03988 
L 176.213092 40.001809 
L 175.736421 38.9975 
L 175.097513 38.041358 
L 174.308648 37.146865 
L 173.384986 36.326314 
L 172.344277 35.590579 
L 171.206521 34.948905 
L 169.993585 34.408728 
L 168.728778 33.975534 
L 166.14131 33.441691 
L 163.642064 33.349241 
L 161.422238 33.666283 
L 160.471384 33.959711 
L 159.651656 34.329588 
L 158.978808 34.763911 
L 158.465771 35.249437 
L 158.122404 35.771941 
L 157.955306 36.316485 
L 157.967688 36.867709 
L 158.159313 37.410125 
L 158.526497 37.928413 
L 159.062184 38.407718 
L 159.75608 38.833932 
L 160.594849 39.193969 
L 161.562372 39.476016 
L 162.640054 39.669755 
L 165.041337 39.759703 
L 167.614992 39.417956 
L 168.905036 39.079852 
L 170.164129 38.631684 
L 171.368074 38.077168 
L 172.493733 37.422065 
L 173.519474 36.674071 
L 174.425584 35.842664 
L 175.194649 34.938927 
L 175.811889 33.975334 
L 176.265443 32.965506 
L 176.546594 31.923955 
L 176.649938 30.865803 
L 176.573491 29.80649 
L 176.31872 28.761477 
L 175.890522 27.745954 
L 175.297127 26.77454 
L 174.549937 25.861009 
L 173.663313 25.018023 
L 172.654294 24.256885 
L 171.542271 23.587329 
L 170.348614 23.017325 
L 169.096263 22.552935 
L 166.512417 21.955001 
L 163.988403 21.800295 
L 161.717314 22.06168 
L 159.872893 22.680182 
L 159.15637 23.097286 
L 158.596245 23.569512 
L 158.203283 24.08289 
L 157.985035 24.622659 
L 157.945696 25.173549 
L 158.086023 25.720079 
L 158.403317 26.24685 
L 158.891482 26.738843 
L 159.541136 27.181709 
L 160.339794 27.56204 
L 161.272107 27.867632 
L 162.320158 28.087716 
L 164.681073 28.236684 
L 167.241921 27.958571 
L 168.536289 27.652498 
L 169.806792 27.23568 
L 171.029015 26.711232 
L 172.179468 26.084339 
L 173.236042 25.362151 
L 174.178431 24.553654 
L 174.988526 23.669488 
L 175.650758 22.721752 
L 176.152399 21.723762 
L 176.48381 20.689803 
L 176.638622 19.63485 
L 176.613858 18.574283 
L 176.409996 17.523586 
L 176.030953 16.498058 
L 175.484013 15.512512 
L 174.779687 14.580992 
L 173.931512 13.716505 
L 172.955787 12.930769 
L 171.871264 12.23399 
L 170.698785 11.634662 
L 169.460883 11.139409 
L 168.181347 10.752852 
L 165.596064 10.313824 
L 164.34 10.26 
L 164.34 10.26 
" style="fill:none;stroke:#000000;stroke-linecap:round;stroke-width:1.5;"/>
   </g>
   <g id="line2d_9">
    <path clip-path="url(#pdd81b8a2e3)" d="M 201.6 26.507785 
L 213.75 26.507785 
L 225.9 26.507785 
" style="fill:none;stroke:#000000;stroke-linecap:round;stroke-width:1.5;"/>
   </g>
   <g id="line2d_10">
    <path clip-path="url(#pdd81b8a2e3)" d="M 201.6 79.096292 
L 213.75 79.096292 
L 225.9 79.096292 
" style="fill:none;stroke:#000000;stroke-linecap:round;stroke-width:1.5;"/>
   </g>
   <g id="line2d_11">
    <path clip-path="url(#pdd81b8a2e3)" d="M 164.34 10.26 
L 152.19 10.26 
L 140.04 10.26 
" style="fill:none;stroke:#000000;stroke-linecap:round;stroke-width:1.5;"/>
   </g>
   <g id="line2d_12">
    <path clip-path="url(#pdd81b8a2e3)" d="M 164.34 97.456292 
L 152.19 97.456292 
L 140.04 97.456292 
" style="fill:none;stroke:#000000;stroke-linecap:round;stroke-width:1.5;"/>
   </g>
  </g>
 </g>
 <defs>
  <clipPath id="pdd81b8a2e3">
   <rect height="93.3162920586" width="221.94" x="7.2" y="7.2"/>
  </clipPath>
 </defs>
</svg>
