<?xml version="1.0" encoding="utf-8" standalone="no"?>
<!DOCTYPE svg PUBLIC "-//W3C//DTD SVG 1.1//EN"
  "http://www.w3.org/Graphics/SVG/1.1/DTD/svg11.dtd">
<!-- Created with matplotlib (http://matplotlib.org/) -->
<svg height="123pt" version="1.1" viewBox="0 0 264 123" width="264pt" xmlns="http://www.w3.org/2000/svg" xmlns:xlink="http://www.w3.org/1999/xlink">
 <defs>
  <style type="text/css">
*{stroke-linecap:butt;stroke-linejoin:round;}
  </style>
 </defs>
 <g id="figure_1">
  <g id="patch_1">
   <path d="M 0 123.435921 
L 264.886 123.435921 
L 264.886 0 
L 0 0 
z
" style="fill:none;"/>
  </g>
  <g id="axes_1">
   <g id="patch_2">
    <path clip-path="url(#pb9250a7471)" d="M 49.013 44.116107 
C 50.730944 44.116107 52.380282 43.470883 53.595052 42.3236 
C 54.809822 41.176318 55.493 39.618609 55.493 37.996107 
C 55.493 36.373604 54.809822 34.815896 53.595052 33.668613 
C 52.380282 32.521331 50.730944 31.876107 49.013 31.876107 
" style="fill:none;stroke:#000000;stroke-linejoin:miter;stroke-width:1.5;"/>
   </g>
   <g id="patch_3">
    <path clip-path="url(#pb9250a7471)" d="M 49.013 56.356107 
C 50.730944 56.356107 52.380282 55.710883 53.595052 54.5636 
C 54.809822 53.416318 55.493 51.858609 55.493 50.236107 
C 55.493 48.613604 54.809822 47.055896 53.595052 45.908613 
C 52.380282 44.761331 50.730944 44.116107 49.013 44.116107 
" style="fill:none;stroke:#000000;stroke-linejoin:miter;stroke-width:1.5;"/>
   </g>
   <g id="patch_4">
    <path clip-path="url(#pb9250a7471)" d="M 49.013 68.596107 
C 50.730944 68.596107 52.380282 67.950883 53.595052 66.8036 
C 54.809822 65.656318 55.493 64.098609 55.493 62.476107 
C 55.493 60.853604 54.809822 59.295896 53.595052 58.148613 
C 52.380282 57.001331 50.730944 56.356107 49.013 56.356107 
" style="fill:none;stroke:#000000;stroke-linejoin:miter;stroke-width:1.5;"/>
   </g>
   <g id="patch_5">
    <path clip-path="url(#pb9250a7471)" d="M 49.013 80.836107 
C 50.730944 80.836107 52.380282 80.190883 53.595052 79.0436 
C 54.809822 77.896318 55.493 76.338609 55.493 74.716107 
C 55.493 73.093604 54.809822 71.535896 53.595052 70.388613 
C 52.380282 69.241331 50.730944 68.596107 49.013 68.596107 
" style="fill:none;stroke:#000000;stroke-linejoin:miter;stroke-width:1.5;"/>
   </g>
   <g id="patch_6">
    <path clip-path="url(#pb9250a7471)" d="M 49.013 93.076107 
C 50.730944 93.076107 52.380282 92.430883 53.595052 91.2836 
C 54.809822 90.136318 55.493 88.578609 55.493 86.956107 
C 55.493 85.333604 54.809822 83.775896 53.595052 82.628613 
C 52.380282 81.481331 50.730944 80.836107 49.013 80.836107 
" style="fill:none;stroke:#000000;stroke-linejoin:miter;stroke-width:1.5;"/>
   </g>
   <g id="patch_7">
    <path clip-path="url(#pb9250a7471)" d="M 49.013 105.316107 
C 50.730944 105.316107 52.380282 104.670883 53.595052 103.5236 
C 54.809822 102.376318 55.493 100.818609 55.493 99.196107 
C 55.493 97.573604 54.809822 96.015896 53.595052 94.868613 
C 52.380282 93.721331 50.730944 93.076107 49.013 93.076107 
" style="fill:none;stroke:#000000;stroke-linejoin:miter;stroke-width:1.5;"/>
   </g>
   <g id="patch_8">
    <path clip-path="url(#pb9250a7471)" d="M 81.413 50.236107 
C 79.695056 50.236107 78.045718 50.881331 76.830948 52.028613 
C 75.616178 53.175896 74.933 54.733604 74.933 56.356107 
C 74.933 57.978609 75.616178 59.536318 76.830948 60.6836 
C 78.045718 61.830883 79.695056 62.476107 81.413 62.476107 
" style="fill:none;stroke:#000000;stroke-linejoin:miter;stroke-width:1.5;"/>
   </g>
   <g id="patch_9">
    <path clip-path="url(#pb9250a7471)" d="M 81.413 62.476107 
C 79.695056 62.476107 78.045718 63.121331 76.830948 64.268613 
C 75.616178 65.415896 74.933 66.973604 74.933 68.596107 
C 74.933 70.218609 75.616178 71.776318 76.830948 72.9236 
C 78.045718 74.070883 79.695056 74.716107 81.413 74.716107 
" style="fill:none;stroke:#000000;stroke-linejoin:miter;stroke-width:1.5;"/>
   </g>
   <g id="patch_10">
    <path clip-path="url(#pb9250a7471)" d="M 81.413 74.716107 
C 79.695056 74.716107 78.045718 75.361331 76.830948 76.508613 
C 75.616178 77.655896 74.933 79.213604 74.933 80.836107 
C 74.933 82.458609 75.616178 84.016318 76.830948 85.1636 
C 78.045718 86.310883 79.695056 86.956107 81.413 86.956107 
" style="fill:none;stroke:#000000;stroke-linejoin:miter;stroke-width:1.5;"/>
   </g>
   <g id="line2d_1">
    <path clip-path="url(#pb9250a7471)" d="M 68.453 31.876107 
L 68.453 105.316107 
" style="fill:none;stroke:#000000;stroke-linecap:round;stroke-width:1.5;"/>
   </g>
   <g id="line2d_2">
    <path clip-path="url(#pb9250a7471)" d="M 61.973 31.876107 
L 61.973 105.316107 
" style="fill:none;stroke:#000000;stroke-linecap:round;stroke-width:1.5;"/>
   </g>
   <g id="line2d_3">
    <path clip-path="url(#pb9250a7471)" d="M 81.413 50.236107 
L 93.563 50.236107 
L 105.713 50.236107 
" style="fill:none;stroke:#000000;stroke-linecap:round;stroke-width:1.5;"/>
   </g>
   <g id="line2d_4">
    <path clip-path="url(#pb9250a7471)" d="M 81.413 86.956107 
L 93.563 86.956107 
L 105.713 86.956107 
" style="fill:none;stroke:#000000;stroke-linecap:round;stroke-width:1.5;"/>
   </g>
   <g id="line2d_5">
    <path clip-path="url(#pb9250a7471)" d="M 49.013 31.876107 
L 36.863 31.876107 
L 24.713 31.876107 
" style="fill:none;stroke:#000000;stroke-linecap:round;stroke-width:1.5;"/>
   </g>
   <g id="line2d_6">
    <path clip-path="url(#pb9250a7471)" d="M 49.013 105.316107 
L 36.863 105.316107 
L 24.713 105.316107 
" style="fill:none;stroke:#000000;stroke-linecap:round;stroke-width:1.5;"/>
   </g>
   <g id="line2d_7">
    <path clip-path="url(#pb9250a7471)" d="M 215.873 86.956107 
L 214.495913 86.891511 
L 213.082509 86.694933 
L 211.665339 86.364475 
L 210.277042 85.901326 
L 208.94959 85.309728 
L 207.713556 84.596884 
L 206.597407 83.772787 
L 205.626847 82.849994 
L 204.82423 81.843335 
L 204.20804 80.769569 
L 203.792467 79.647003 
L 203.587084 78.495068 
L 203.596621 77.33387 
L 203.820856 76.183728 
L 204.254627 75.064709 
L 204.887944 73.99616 
L 205.70622 72.996268 
L 206.69061 72.081637 
L 207.818444 71.26691 
L 209.063746 70.564426 
L 210.397837 69.983941 
L 211.789992 69.5324 
L 213.208148 69.213781 
L 214.619645 69.028997 
L 215.991976 68.975881 
L 217.293534 69.049234 
L 218.494344 69.240942 
L 219.566751 69.540168 
L 220.486057 69.933597 
L 221.23109 70.405745 
L 221.78469 70.939315 
L 222.134109 71.515596 
L 222.271299 72.114892 
L 222.1931 72.716979 
L 221.901313 73.301566 
L 221.40266 73.848767 
L 220.708622 74.339557 
L 219.835186 74.756209 
L 218.802466 75.082704 
L 217.634247 75.305101 
L 216.357433 75.411854 
L 215.00143 75.394081 
L 213.597467 75.245768 
L 212.177879 74.963908 
L 210.77536 74.54857 
L 209.42221 74.002895 
L 208.149592 73.333028 
L 206.986817 72.547973 
L 205.960664 71.659387 
L 205.094765 70.681312 
L 204.409062 69.629849 
L 203.919348 68.522793 
L 203.636901 67.379215 
L 203.568225 66.21903 
L 203.714903 65.062534 
L 204.073557 63.929939 
L 204.635926 62.840906 
L 205.389059 61.814093 
L 206.315611 60.866725 
L 207.394242 60.014198 
L 208.600112 59.269721 
L 209.905448 58.644019 
L 211.280187 58.145077 
L 212.69267 57.777964 
L 214.110365 57.544712 
L 215.500622 57.444268 
L 216.831424 57.472524 
L 218.07212 57.622406 
L 219.194137 57.884038 
L 220.171634 58.244972 
L 220.982099 58.690472 
L 221.606866 59.203855 
L 222.031547 59.766874 
L 222.246361 60.36014 
L 222.246361 60.963566 
L 222.031547 61.556832 
L 221.606866 62.119851 
L 220.982099 62.633234 
L 220.171634 63.078734 
L 219.194137 63.439668 
L 218.07212 63.7013 
L 216.831424 63.851181 
L 215.500622 63.879438 
L 214.110365 63.778994 
L 212.69267 63.545742 
L 211.280187 63.178629 
L 209.905448 62.679687 
L 208.600112 62.053985 
L 207.394242 61.309508 
L 206.315611 60.45698 
L 205.389059 59.509613 
L 204.635926 58.4828 
L 204.073557 57.393767 
L 203.714903 56.261172 
L 203.568225 55.104676 
L 203.636901 53.944491 
L 203.919348 52.800913 
L 204.409062 51.693856 
L 205.094765 50.642394 
L 205.960664 49.664319 
L 206.986817 48.775733 
L 208.149592 47.990678 
L 209.42221 47.320811 
L 210.77536 46.775136 
L 212.177879 46.359798 
L 213.597467 46.077938 
L 215.00143 45.929625 
L 216.357433 45.911852 
L 217.634247 46.018605 
L 218.802466 46.241001 
L 219.835186 46.567497 
L 220.708622 46.984149 
L 221.40266 47.474939 
L 221.901313 48.02214 
L 222.1931 48.606727 
L 222.271299 49.208813 
L 222.134109 49.80811 
L 221.78469 50.384391 
L 221.23109 50.917961 
L 220.486057 51.390109 
L 219.566751 51.783538 
L 218.494344 52.082764 
L 217.293534 52.274472 
L 215.991976 52.347825 
L 214.619645 52.294709 
L 213.208148 52.109925 
L 211.789992 51.791306 
L 210.397837 51.339765 
L 209.063746 50.75928 
L 207.818444 50.056796 
L 206.69061 49.242069 
L 205.70622 48.327438 
L 204.887944 47.327546 
L 204.254627 46.258997 
L 203.820856 45.139978 
L 203.596621 43.989836 
L 203.587084 42.828638 
L 203.792467 41.676703 
L 204.20804 40.554137 
L 204.82423 39.480371 
L 205.626847 38.473712 
L 206.597407 37.550919 
L 207.713556 36.726822 
L 208.94959 36.013978 
L 210.277042 35.42238 
L 211.665339 34.959231 
L 213.082509 34.628773 
L 214.495913 34.432195 
L 215.873 34.367599 
L 215.873 34.367599 
" style="fill:none;stroke:#000000;stroke-linecap:round;stroke-width:1.5;"/>
   </g>
   <g id="line2d_8">
    <path clip-path="url(#pb9250a7471)" d="M 178.613 105.316107 
L 181.157768 105.098582 
L 182.454347 104.823255 
L 183.733883 104.436698 
L 184.971785 103.941444 
L 186.144264 103.342117 
L 187.228787 102.645337 
L 188.204512 101.859602 
L 189.052687 100.995115 
L 189.757013 100.063595 
L 190.303953 99.078048 
L 190.682996 98.05252 
L 190.886858 97.001824 
L 190.911622 95.941256 
L 190.75681 94.886304 
L 190.425399 93.852345 
L 189.923758 92.854355 
L 189.261526 91.906618 
L 188.451431 91.022453 
L 187.509042 90.213955 
L 186.452468 89.491768 
L 185.302015 88.864874 
L 184.079792 88.340427 
L 182.809289 87.923609 
L 180.221564 87.423194 
L 177.736806 87.362937 
L 175.545107 87.708475 
L 174.612794 88.014067 
L 173.814136 88.394398 
L 173.164482 88.837263 
L 172.676317 89.329257 
L 172.359023 89.856028 
L 172.218696 90.402558 
L 172.258035 90.953448 
L 172.476283 91.493217 
L 172.869245 92.006595 
L 173.42937 92.478821 
L 174.145893 92.895924 
L 175.005045 93.244994 
L 175.990314 93.514427 
L 178.261403 93.775811 
L 180.785417 93.621106 
L 182.082287 93.377921 
L 183.369263 93.023172 
L 184.621614 92.558781 
L 185.815271 91.988778 
L 186.927294 91.319222 
L 187.936313 90.558084 
L 188.822937 89.715097 
L 189.570127 88.801567 
L 190.163522 87.830153 
L 190.59172 86.814629 
L 190.846491 85.769617 
L 190.922938 84.710304 
L 190.819594 83.652152 
L 190.538443 82.610601 
L 190.084889 81.600773 
L 189.467649 80.637179 
L 188.698584 79.733443 
L 187.792474 78.902036 
L 186.766733 78.154041 
L 185.641074 77.498939 
L 184.437129 76.944423 
L 183.178036 76.496254 
L 180.591789 75.931716 
L 178.080186 75.809537 
L 175.835372 76.100091 
L 174.02908 76.742175 
L 173.335184 77.168389 
L 172.799497 77.647693 
L 172.432313 78.165981 
L 172.240688 78.708397 
L 172.228306 79.259622 
L 172.395404 79.804166 
L 172.738771 80.32667 
L 173.251808 80.812196 
L 173.924656 81.246519 
L 174.744384 81.616396 
L 175.695238 81.909824 
L 176.758946 82.116268 
L 179.141374 82.234597 
L 181.709408 81.923355 
L 183.001778 81.600573 
L 184.266585 81.167378 
L 185.479521 80.627201 
L 186.617277 79.985527 
L 187.657986 79.249793 
L 188.581648 78.429242 
L 189.370513 77.534748 
L 190.009421 76.578607 
L 190.486092 75.574298 
L 190.791366 74.536227 
L 190.919376 73.479447 
L 190.867663 72.419373 
L 190.637219 71.371482 
L 190.232475 70.351017 
L 189.661207 69.372693 
L 188.934395 68.450418 
L 188.066007 67.597019 
L 187.07273 66.824002 
L 185.973655 66.141327 
L 184.789902 65.557219 
L 183.544222 65.078008 
L 180.963565 64.449433 
L 178.429112 64.264717 
L 176.134753 64.499015 
L 174.256013 65.095428 
L 173.518979 65.503908 
L 172.936621 65.969356 
L 172.520131 66.477931 
L 172.277513 67.014966 
L 172.213429 67.565242 
L 172.329112 68.113291 
L 172.622338 68.643685 
L 173.087472 69.141334 
L 173.715574 69.59178 
L 174.494574 69.981471 
L 175.409502 70.298022 
L 176.442774 70.530455 
L 178.783029 70.707314 
L 181.336303 70.459543 
L 182.632012 70.168836 
L 183.907264 69.767122 
L 185.137551 69.257225 
L 186.299229 68.644049 
L 187.369972 67.934483 
L 188.329204 67.137268 
L 189.158491 66.262828 
L 189.841894 65.323075 
L 190.36628 64.331173 
L 190.721572 63.301288 
L 190.900941 62.248318 
L 190.900941 61.187603 
L 190.721572 60.134633 
L 190.36628 59.104748 
L 189.841894 58.112846 
L 189.158491 57.173093 
L 188.329204 56.298654 
L 187.369972 55.501438 
L 186.299229 54.791872 
L 185.137551 54.178696 
L 183.907264 53.668799 
L 182.632012 53.267085 
L 180.045036 52.797371 
L 177.574533 52.766513 
L 175.409502 53.137899 
L 174.494574 53.45445 
L 173.715574 53.844141 
L 173.087472 54.294587 
L 172.622338 54.792237 
L 172.329112 55.32263 
L 172.213429 55.870679 
L 172.277513 56.420956 
L 172.520131 56.95799 
L 172.936621 57.466565 
L 173.518979 57.932013 
L 174.256013 58.340493 
L 175.13356 58.67926 
L 176.134753 58.936907 
L 178.429112 59.171205 
L 180.963565 58.986488 
L 182.260553 58.727914 
L 183.544222 58.357913 
L 184.789902 57.878702 
L 185.973655 57.294594 
L 187.07273 56.61192 
L 188.066007 55.838903 
L 188.934395 54.985503 
L 189.661207 54.063228 
L 190.232475 53.084904 
L 190.637219 52.064439 
L 190.867663 51.016548 
L 190.919376 49.956474 
L 190.791366 48.899695 
L 190.486092 47.861623 
L 190.009421 46.857314 
L 189.370513 45.901173 
L 188.581648 45.006679 
L 187.657986 44.186128 
L 186.617277 43.450394 
L 185.479521 42.80872 
L 184.266585 42.268543 
L 183.001778 41.835349 
L 180.41431 41.301505 
L 177.915064 41.209055 
L 175.695238 41.526097 
L 174.744384 41.819525 
L 173.924656 42.189403 
L 173.251808 42.623725 
L 172.738771 43.109252 
L 172.395404 43.631755 
L 172.228306 44.1763 
L 172.240688 44.727524 
L 172.432313 45.26994 
L 172.799497 45.788228 
L 173.335184 46.267532 
L 174.02908 46.693746 
L 174.867849 47.053784 
L 175.835372 47.33583 
L 176.913054 47.52957 
L 179.314337 47.619517 
L 181.887992 47.27777 
L 183.178036 46.939667 
L 184.437129 46.491499 
L 185.641074 45.936983 
L 186.766733 45.28188 
L 187.792474 44.533886 
L 188.698584 43.702479 
L 189.467649 42.798742 
L 190.084889 41.835148 
L 190.538443 40.82532 
L 190.819594 39.78377 
L 190.922938 38.725618 
L 190.846491 37.666304 
L 190.59172 36.621292 
L 190.163522 35.605768 
L 189.570127 34.634355 
L 188.822937 33.720824 
L 187.936313 32.877837 
L 186.927294 32.1167 
L 185.815271 31.447143 
L 184.621614 30.87714 
L 183.369263 30.412749 
L 180.785417 29.814815 
L 178.261403 29.66011 
L 175.990314 29.921494 
L 174.145893 30.539997 
L 173.42937 30.957101 
L 172.869245 31.429327 
L 172.476283 31.942705 
L 172.258035 32.482473 
L 172.218696 33.033364 
L 172.359023 33.579894 
L 172.676317 34.106665 
L 173.164482 34.598658 
L 173.814136 35.041523 
L 174.612794 35.421854 
L 175.545107 35.727446 
L 176.593158 35.947531 
L 178.954073 36.096498 
L 181.514921 35.818386 
L 182.809289 35.512312 
L 184.079792 35.095494 
L 185.302015 34.571047 
L 186.452468 33.944153 
L 187.509042 33.221966 
L 188.451431 32.413468 
L 189.261526 31.529303 
L 189.923758 30.581566 
L 190.425399 29.583577 
L 190.75681 28.549618 
L 190.911622 27.494665 
L 190.886858 26.434097 
L 190.682996 25.383401 
L 190.303953 24.357873 
L 189.757013 23.372326 
L 189.052687 22.440806 
L 188.204512 21.57632 
L 187.228787 20.790584 
L 186.144264 20.093805 
L 184.971785 19.494477 
L 183.733883 18.999224 
L 182.454347 18.612667 
L 179.869064 18.173639 
L 178.613 18.119815 
L 178.613 18.119815 
" style="fill:none;stroke:#000000;stroke-linecap:round;stroke-width:1.5;"/>
   </g>
   <g id="line2d_9">
    <path clip-path="url(#pb9250a7471)" d="M 215.873 34.367599 
L 228.023 34.367599 
L 240.173 34.367599 
" style="fill:none;stroke:#000000;stroke-linecap:round;stroke-width:1.5;"/>
   </g>
   <g id="line2d_10">
    <path clip-path="url(#pb9250a7471)" d="M 215.873 86.956107 
L 228.023 86.956107 
L 240.173 86.956107 
" style="fill:none;stroke:#000000;stroke-linecap:round;stroke-width:1.5;"/>
   </g>
   <g id="line2d_11">
    <path clip-path="url(#pb9250a7471)" d="M 178.613 18.119815 
L 166.463 18.119815 
L 154.313 18.119815 
" style="fill:none;stroke:#000000;stroke-linecap:round;stroke-width:1.5;"/>
   </g>
   <g id="line2d_12">
    <path clip-path="url(#pb9250a7471)" d="M 178.613 105.316107 
L 166.463 105.316107 
L 154.313 105.316107 
" style="fill:none;stroke:#000000;stroke-linecap:round;stroke-width:1.5;"/>
   </g>
  </g>
 </g>
 <defs>
  <clipPath id="pb9250a7471">
   <rect height="102.035921" width="243.486" x="10.7" y="10.7"/>
  </clipPath>
 </defs>
</svg>
