<?xml version="1.0" encoding="utf-8" standalone="no"?>
<!DOCTYPE svg PUBLIC "-//W3C//DTD SVG 1.1//EN"
  "http://www.w3.org/Graphics/SVG/1.1/DTD/svg11.dtd">
<!-- Created with matplotlib (http://matplotlib.org/) -->
<svg height="114.432752pt" version="1.1" viewBox="0 0 264.886 114.432752" width="264.886pt" xmlns="http://www.w3.org/2000/svg" xmlns:xlink="http://www.w3.org/1999/xlink">
 <defs>
  <style type="text/css">
*{stroke-linecap:butt;stroke-linejoin:round;}
  </style>
 </defs>
 <g id="figure_1">
  <g id="patch_1">
   <path d="M 0 114.432752 
L 264.886 114.432752 
L 264.886 -0 
L 0 -0 
z
" style="fill:none;"/>
  </g>
  <g id="axes_1">
   <g id="patch_2">
    <path clip-path="url(#p4be76d5e21)" d="M 49.013 41.167627 
C 50.730944 41.167627 52.380282 40.579334 53.595052 39.533283 
C 54.809822 38.487231 55.493 37.066967 55.493 35.587627 
C 55.493 34.108286 54.809822 32.688022 53.595052 31.641971 
C 52.380282 30.595919 50.730944 30.007627 49.013 30.007627 
" style="fill:none;stroke:#000000;stroke-linejoin:miter;stroke-width:1.5;"/>
   </g>
   <g id="patch_3">
    <path clip-path="url(#p4be76d5e21)" d="M 49.013 52.327627 
C 50.730944 52.327627 52.380282 51.739334 53.595052 50.693283 
C 54.809822 49.647231 55.493 48.226967 55.493 46.747627 
C 55.493 45.268286 54.809822 43.848022 53.595052 42.801971 
C 52.380282 41.755919 50.730944 41.167627 49.013 41.167627 
" style="fill:none;stroke:#000000;stroke-linejoin:miter;stroke-width:1.5;"/>
   </g>
   <g id="patch_4">
    <path clip-path="url(#p4be76d5e21)" d="M 49.013 63.487627 
C 50.730944 63.487627 52.380282 62.899334 53.595052 61.853283 
C 54.809822 60.807231 55.493 59.386967 55.493 57.907627 
C 55.493 56.428286 54.809822 55.008022 53.595052 53.961971 
C 52.380282 52.915919 50.730944 52.327627 49.013 52.327627 
" style="fill:none;stroke:#000000;stroke-linejoin:miter;stroke-width:1.5;"/>
   </g>
   <g id="patch_5">
    <path clip-path="url(#p4be76d5e21)" d="M 49.013 74.647627 
C 50.730944 74.647627 52.380282 74.059334 53.595052 73.013283 
C 54.809822 71.967231 55.493 70.546967 55.493 69.067627 
C 55.493 67.588286 54.809822 66.168022 53.595052 65.121971 
C 52.380282 64.075919 50.730944 63.487627 49.013 63.487627 
" style="fill:none;stroke:#000000;stroke-linejoin:miter;stroke-width:1.5;"/>
   </g>
   <g id="patch_6">
    <path clip-path="url(#p4be76d5e21)" d="M 49.013 85.807627 
C 50.730944 85.807627 52.380282 85.219334 53.595052 84.173283 
C 54.809822 83.127231 55.493 81.706967 55.493 80.227627 
C 55.493 78.748286 54.809822 77.328022 53.595052 76.281971 
C 52.380282 75.235919 50.730944 74.647627 49.013 74.647627 
" style="fill:none;stroke:#000000;stroke-linejoin:miter;stroke-width:1.5;"/>
   </g>
   <g id="patch_7">
    <path clip-path="url(#p4be76d5e21)" d="M 49.013 96.967627 
C 50.730944 96.967627 52.380282 96.379334 53.595052 95.333283 
C 54.809822 94.287231 55.493 92.866967 55.493 91.387627 
C 55.493 89.908286 54.809822 88.488022 53.595052 87.441971 
C 52.380282 86.395919 50.730944 85.807627 49.013 85.807627 
" style="fill:none;stroke:#000000;stroke-linejoin:miter;stroke-width:1.5;"/>
   </g>
   <g id="patch_8">
    <path clip-path="url(#p4be76d5e21)" d="M 81.413 46.747627 
C 79.695056 46.747627 78.045718 47.335919 76.830948 48.381971 
C 75.616178 49.428022 74.933 50.848286 74.933 52.327627 
C 74.933 53.806967 75.616178 55.227231 76.830948 56.273283 
C 78.045718 57.319334 79.695056 57.907627 81.413 57.907627 
" style="fill:none;stroke:#000000;stroke-linejoin:miter;stroke-width:1.5;"/>
   </g>
   <g id="patch_9">
    <path clip-path="url(#p4be76d5e21)" d="M 81.413 57.907627 
C 79.695056 57.907627 78.045718 58.495919 76.830948 59.541971 
C 75.616178 60.588022 74.933 62.008286 74.933 63.487627 
C 74.933 64.966967 75.616178 66.387231 76.830948 67.433283 
C 78.045718 68.479334 79.695056 69.067627 81.413 69.067627 
" style="fill:none;stroke:#000000;stroke-linejoin:miter;stroke-width:1.5;"/>
   </g>
   <g id="patch_10">
    <path clip-path="url(#p4be76d5e21)" d="M 81.413 69.067627 
C 79.695056 69.067627 78.045718 69.655919 76.830948 70.701971 
C 75.616178 71.748022 74.933 73.168286 74.933 74.647627 
C 74.933 76.126967 75.616178 77.547231 76.830948 78.593283 
C 78.045718 79.639334 79.695056 80.227627 81.413 80.227627 
" style="fill:none;stroke:#000000;stroke-linejoin:miter;stroke-width:1.5;"/>
   </g>
   <g id="line2d_1">
    <path clip-path="url(#p4be76d5e21)" d="M 68.453 30.007627 
L 68.453 96.967627 
" style="fill:none;stroke:#000000;stroke-linecap:round;stroke-width:1.5;"/>
   </g>
   <g id="line2d_2">
    <path clip-path="url(#p4be76d5e21)" d="M 61.973 30.007627 
L 61.973 96.967627 
" style="fill:none;stroke:#000000;stroke-linecap:round;stroke-width:1.5;"/>
   </g>
   <g id="line2d_3">
    <path clip-path="url(#p4be76d5e21)" d="M 81.413 46.747627 
L 93.563 46.747627 
L 105.713 46.747627 
" style="fill:none;stroke:#000000;stroke-linecap:round;stroke-width:1.5;"/>
   </g>
   <g id="line2d_4">
    <path clip-path="url(#p4be76d5e21)" d="M 81.413 80.227627 
L 93.563 80.227627 
L 105.713 80.227627 
" style="fill:none;stroke:#000000;stroke-linecap:round;stroke-width:1.5;"/>
   </g>
   <g id="line2d_5">
    <path clip-path="url(#p4be76d5e21)" d="M 49.013 30.007627 
L 36.863 30.007627 
L 24.713 30.007627 
" style="fill:none;stroke:#000000;stroke-linecap:round;stroke-width:1.5;"/>
   </g>
   <g id="line2d_6">
    <path clip-path="url(#p4be76d5e21)" d="M 49.013 96.967627 
L 36.863 96.967627 
L 24.713 96.967627 
" style="fill:none;stroke:#000000;stroke-linecap:round;stroke-width:1.5;"/>
   </g>
   <g id="line2d_7">
    <path clip-path="url(#p4be76d5e21)" d="M 215.873 80.227627 
L 214.495913 80.168731 
L 213.082509 79.989498 
L 211.665339 79.688198 
L 210.277042 79.265914 
L 208.94959 78.726517 
L 207.713556 78.07657 
L 206.597407 77.325188 
L 205.626847 76.483818 
L 204.82423 75.565982 
L 204.20804 74.58696 
L 203.792467 73.563444 
L 203.587084 72.51315 
L 203.596621 71.45441 
L 203.820856 70.405752 
L 204.254627 69.38547 
L 204.887944 68.411205 
L 205.70622 67.499538 
L 206.69061 66.66561 
L 207.818444 65.922771 
L 209.063746 65.282271 
L 210.397837 64.753005 
L 211.789992 64.341306 
L 213.208148 64.0508 
L 214.619645 63.882321 
L 215.991976 63.833892 
L 217.293534 63.900772 
L 218.494344 64.075565 
L 219.566751 64.348388 
L 220.486057 64.707103 
L 221.23109 65.137591 
L 221.78469 65.624082 
L 222.134109 66.149514 
L 222.271299 66.695931 
L 222.1931 67.244892 
L 221.901313 67.777898 
L 221.40266 68.276817 
L 220.708622 68.724302 
L 219.835186 69.10419 
L 218.802466 69.401878 
L 217.634247 69.604651 
L 216.357433 69.701984 
L 215.00143 69.685779 
L 213.597467 69.550553 
L 212.177879 69.293563 
L 210.77536 68.914873 
L 209.42221 68.417346 
L 208.149592 67.806585 
L 206.986817 67.090799 
L 205.960664 66.280618 
L 205.094765 65.388843 
L 204.409062 64.430157 
L 203.919348 63.420782 
L 203.636901 62.378108 
L 203.568225 61.320292 
L 203.714903 60.26584 
L 204.073557 59.23318 
L 204.635926 58.240238 
L 205.389059 57.304026 
L 206.315611 56.44025 
L 207.394242 55.662945 
L 208.600112 54.984158 
L 209.905448 54.413664 
L 211.280187 53.958747 
L 212.69267 53.624026 
L 214.110365 53.411355 
L 215.500622 53.319774 
L 216.831424 53.345537 
L 218.07212 53.482194 
L 219.194137 53.720741 
L 220.171634 54.049827 
L 220.982099 54.456018 
L 221.606866 54.924103 
L 222.031547 55.437444 
L 222.246361 55.978363 
L 222.246361 56.528545 
L 222.031547 57.069464 
L 221.606866 57.582805 
L 220.982099 58.05089 
L 220.171634 58.457081 
L 219.194137 58.786168 
L 218.07212 59.024715 
L 216.831424 59.161371 
L 215.500622 59.187134 
L 214.110365 59.095554 
L 212.69267 58.882882 
L 211.280187 58.548162 
L 209.905448 58.093244 
L 208.600112 57.522751 
L 207.394242 56.843963 
L 206.315611 56.066659 
L 205.389059 55.202882 
L 204.635926 54.26667 
L 204.073557 53.273729 
L 203.714903 52.241069 
L 203.568225 51.186617 
L 203.636901 50.128801 
L 203.919348 49.086127 
L 204.409062 48.076751 
L 205.094765 47.118065 
L 205.960664 46.226291 
L 206.986817 45.416109 
L 208.149592 44.700324 
L 209.42221 44.089563 
L 210.77536 43.592036 
L 212.177879 43.213345 
L 213.597467 42.956355 
L 215.00143 42.821129 
L 216.357433 42.804924 
L 217.634247 42.902257 
L 218.802466 43.105031 
L 219.835186 43.402718 
L 220.708622 43.782607 
L 221.40266 44.230091 
L 221.901313 44.72901 
L 222.1931 45.262016 
L 222.271299 45.810977 
L 222.134109 46.357394 
L 221.78469 46.882827 
L 221.23109 47.369317 
L 220.486057 47.799805 
L 219.566751 48.15852 
L 218.494344 48.431344 
L 217.293534 48.606137 
L 215.991976 48.673017 
L 214.619645 48.624588 
L 213.208148 48.456108 
L 211.789992 48.165602 
L 210.397837 47.753903 
L 209.063746 47.224638 
L 207.818444 46.584138 
L 206.69061 45.841298 
L 205.70622 45.00737 
L 204.887944 44.095704 
L 204.254627 43.121439 
L 203.820856 42.101156 
L 203.596621 41.052498 
L 203.587084 39.993758 
L 203.792467 38.943464 
L 204.20804 37.919949 
L 204.82423 36.940927 
L 205.626847 36.02309 
L 206.597407 35.18172 
L 207.713556 34.430338 
L 208.94959 33.780392 
L 210.277042 33.240994 
L 211.665339 32.818711 
L 213.082509 32.517411 
L 214.495913 32.338177 
L 215.873 32.279282 
L 215.873 32.279282 
" style="fill:none;stroke:#000000;stroke-linecap:round;stroke-width:1.5;"/>
   </g>
   <g id="line2d_8">
    <path clip-path="url(#p4be76d5e21)" d="M 178.613 96.967627 
L 181.157768 96.769295 
L 183.733883 96.165813 
L 184.971785 95.714258 
L 186.144264 95.167812 
L 187.228787 94.532513 
L 188.204512 93.816107 
L 189.052687 93.027899 
L 189.757013 92.178572 
L 190.303953 91.279985 
L 190.682996 90.344945 
L 190.886858 89.386957 
L 190.911622 88.419969 
L 190.75681 87.4581 
L 190.425399 86.515373 
L 189.923758 85.605441 
L 189.261526 84.741328 
L 188.451431 83.935178 
L 187.509042 83.198018 
L 186.452468 82.539553 
L 185.302015 81.967974 
L 182.809289 81.109761 
L 180.221564 80.6535 
L 177.736806 80.598561 
L 175.545107 80.91361 
L 173.814136 81.53901 
L 173.164482 81.942799 
L 172.676317 82.391381 
L 172.359023 82.871672 
L 172.218696 83.369979 
L 172.258035 83.872262 
L 172.476283 84.364403 
L 172.869245 84.832483 
L 173.42937 85.263042 
L 174.145893 85.643343 
L 175.005045 85.961613 
L 177.082764 86.371136 
L 179.503578 86.424747 
L 182.082287 86.08281 
L 184.621614 85.335948 
L 185.815271 84.816239 
L 186.927294 84.205761 
L 187.936313 83.511782 
L 188.822937 82.743177 
L 189.570127 81.910252 
L 190.163522 81.024551 
L 190.59172 80.098633 
L 190.846491 79.145827 
L 190.922938 78.179983 
L 190.819594 77.215197 
L 190.538443 76.265548 
L 190.084889 75.344822 
L 189.467649 74.466252 
L 188.698584 73.642256 
L 187.792474 72.884209 
L 186.766733 72.202214 
L 185.641074 71.604915 
L 183.178036 70.690702 
L 180.591789 70.175976 
L 178.080186 70.064578 
L 175.835372 70.329495 
L 174.02908 70.914924 
L 173.335184 71.303531 
L 172.799497 71.740544 
L 172.432313 72.213101 
L 172.240688 72.707656 
L 172.228306 73.210243 
L 172.395404 73.70674 
L 172.738771 74.18314 
L 173.251808 74.625826 
L 173.924656 75.021826 
L 174.744384 75.359067 
L 176.758946 75.814833 
L 179.141374 75.92272 
L 181.709408 75.638941 
L 184.266585 74.949668 
L 185.479521 74.457154 
L 186.617277 73.872099 
L 187.657986 73.201282 
L 188.581648 72.453132 
L 189.370513 71.637565 
L 190.009421 70.765789 
L 190.486092 69.850095 
L 190.791366 68.903618 
L 190.919376 67.940084 
L 190.867663 66.973546 
L 190.637219 66.018116 
L 190.232475 65.087692 
L 189.661207 64.195691 
L 188.934395 63.354793 
L 188.066007 62.576694 
L 187.07273 61.871884 
L 185.973655 61.249445 
L 184.789902 60.716876 
L 182.260553 59.942595 
L 179.678184 59.572739 
L 177.240353 59.600069 
L 175.13356 59.986956 
L 173.518979 60.668269 
L 172.936621 61.092648 
L 172.520131 61.556349 
L 172.277513 62.045998 
L 172.213429 62.547721 
L 172.329112 63.047413 
L 172.622338 63.531007 
L 173.087472 63.984746 
L 173.715574 64.395446 
L 174.494574 64.750753 
L 176.442774 65.251298 
L 178.783029 65.412551 
L 181.336303 65.186642 
L 183.907264 64.555317 
L 185.137551 64.090411 
L 186.299229 63.531339 
L 187.369972 62.884382 
L 188.329204 62.157509 
L 189.158491 61.360226 
L 189.841894 60.503392 
L 190.36628 59.59901 
L 190.721572 58.659998 
L 190.900941 57.699937 
L 190.900941 56.732815 
L 190.721572 55.772754 
L 190.36628 54.833741 
L 189.841894 53.92936 
L 189.158491 53.072526 
L 188.329204 52.275243 
L 187.369972 51.54837 
L 186.299229 50.901413 
L 185.137551 50.342341 
L 182.632012 49.511166 
L 180.045036 49.082897 
L 177.574533 49.054762 
L 175.409502 49.393379 
L 173.715574 50.037305 
L 173.087472 50.448006 
L 172.622338 50.901745 
L 172.329112 51.385339 
L 172.213429 51.885031 
L 172.277513 52.386754 
L 172.520131 52.876403 
L 172.936621 53.340104 
L 173.518979 53.764483 
L 174.256013 54.13692 
L 176.134753 54.680709 
L 178.429112 54.894334 
L 180.963565 54.725915 
L 183.544222 54.152803 
L 185.973655 53.183307 
L 187.07273 52.560868 
L 188.066007 51.856058 
L 188.934395 51.077959 
L 189.661207 50.237061 
L 190.232475 49.34506 
L 190.637219 48.414636 
L 190.867663 47.459206 
L 190.919376 46.492668 
L 190.791366 45.529133 
L 190.486092 44.582656 
L 190.009421 43.666963 
L 189.370513 42.795187 
L 188.581648 41.979619 
L 187.657986 41.23147 
L 186.617277 40.560653 
L 185.479521 39.975598 
L 183.001778 39.088112 
L 180.41431 38.601372 
L 177.915064 38.51708 
L 175.695238 38.806148 
L 173.924656 39.410926 
L 173.251808 39.806926 
L 172.738771 40.249612 
L 172.395404 40.726012 
L 172.228306 41.222508 
L 172.240688 41.725095 
L 172.432313 42.219651 
L 172.799497 42.692208 
L 173.335184 43.129221 
L 174.02908 43.517828 
L 174.867849 43.846097 
L 176.913054 44.279902 
L 179.314337 44.361913 
L 181.887992 44.05032 
L 184.437129 43.333425 
L 185.641074 42.827837 
L 186.766733 42.230538 
L 187.792474 41.548543 
L 188.698584 40.790495 
L 189.467649 39.9665 
L 190.084889 39.087929 
L 190.538443 38.167204 
L 190.819594 37.217555 
L 190.922938 36.252769 
L 190.846491 35.286924 
L 190.59172 34.334119 
L 190.163522 33.408201 
L 189.570127 32.5225 
L 188.822937 31.689575 
L 187.936313 30.920969 
L 186.927294 30.226991 
L 185.815271 29.616513 
L 184.621614 29.096804 
L 182.082287 28.349942 
L 179.503578 28.008004 
L 177.082764 28.061616 
L 175.005045 28.471139 
L 173.42937 29.169709 
L 172.869245 29.600268 
L 172.476283 30.068348 
L 172.258035 30.56049 
L 172.218696 31.062773 
L 172.359023 31.561079 
L 172.676317 32.041371 
L 173.164482 32.489953 
L 173.814136 32.893742 
L 174.612794 33.240514 
L 176.593158 33.719808 
L 178.954073 33.855631 
L 181.514921 33.602057 
L 184.079792 32.942951 
L 185.302015 32.464778 
L 186.452468 31.893199 
L 187.509042 31.234734 
L 188.451431 30.497574 
L 189.261526 29.691423 
L 189.923758 28.82731 
L 190.425399 27.917379 
L 190.75681 26.974651 
L 190.911622 26.012783 
L 190.886858 25.045794 
L 190.682996 24.087807 
L 190.303953 23.152766 
L 189.757013 22.25418 
L 189.052687 21.404853 
L 188.204512 20.616644 
L 187.228787 19.900238 
L 186.144264 19.26494 
L 184.971785 18.718494 
L 182.454347 17.91449 
L 179.869064 17.5142 
L 178.613 17.465125 
L 178.613 17.465125 
" style="fill:none;stroke:#000000;stroke-linecap:round;stroke-width:1.5;"/>
   </g>
   <g id="line2d_9">
    <path clip-path="url(#p4be76d5e21)" d="M 215.873 32.279282 
L 228.023 32.279282 
L 240.173 32.279282 
" style="fill:none;stroke:#000000;stroke-linecap:round;stroke-width:1.5;"/>
   </g>
   <g id="line2d_10">
    <path clip-path="url(#p4be76d5e21)" d="M 215.873 80.227627 
L 228.023 80.227627 
L 240.173 80.227627 
" style="fill:none;stroke:#000000;stroke-linecap:round;stroke-width:1.5;"/>
   </g>
   <g id="line2d_11">
    <path clip-path="url(#p4be76d5e21)" d="M 178.613 17.465125 
L 166.463 17.465125 
L 154.313 17.465125 
" style="fill:none;stroke:#000000;stroke-linecap:round;stroke-width:1.5;"/>
   </g>
   <g id="line2d_12">
    <path clip-path="url(#p4be76d5e21)" d="M 178.613 96.967627 
L 166.463 96.967627 
L 154.313 96.967627 
" style="fill:none;stroke:#000000;stroke-linecap:round;stroke-width:1.5;"/>
   </g>
  </g>
 </g>
 <defs>
  <clipPath id="p4be76d5e21">
   <rect height="93.032752" width="243.486" x="10.7" y="10.7"/>
  </clipPath>
 </defs>
</svg>
