<?xml version="1.0" encoding="utf-8" standalone="no"?>
<!DOCTYPE svg PUBLIC "-//W3C//DTD SVG 1.1//EN"
  "http://www.w3.org/Graphics/SVG/1.1/DTD/svg11.dtd">
<!-- Created with matplotlib (https://matplotlib.org/) -->
<svg height="87.359pt" version="1.1" viewBox="0 0 134.928 87.359" width="134.928pt" xmlns="http://www.w3.org/2000/svg" xmlns:xlink="http://www.w3.org/1999/xlink">
 <defs>
  <style type="text/css">
*{stroke-linecap:butt;stroke-linejoin:round;}
  </style>
 </defs>
 <g id="figure_1">
  <g id="patch_1">
   <path d="M 0 87.359 
L 134.928 87.359 
L 134.928 0 
L 0 0 
z
" style="fill:none;"/>
  </g>
  <g id="axes_1">
   <g id="patch_2">
    <path clip-path="url(#p1a965240b5)" d="M 39.924 58.955 
C 39.924 57.855862 39.798287 56.767411 39.554055 55.75194 
C 39.309822 54.736468 38.951821 53.813724 38.500539 53.036516 
C 38.049257 52.259308 37.51347 51.64275 36.923841 51.222128 
C 36.334213 50.801506 35.702209 50.585 35.064 50.585 
C 34.425791 50.585 33.793787 50.801506 33.204159 51.222128 
C 32.61453 51.64275 32.078743 52.259308 31.627461 53.036516 
C 31.176179 53.813724 30.818178 54.736468 30.573945 55.75194 
C 30.329713 56.767411 30.204 57.855862 30.204 58.955 
C 30.204 60.054138 30.329713 61.142589 30.573945 62.15806 
C 30.818178 63.173532 31.176179 64.096276 31.627461 64.873484 
C 32.078743 65.650692 32.61453 66.26725 33.204159 66.687872 
C 33.793787 67.108494 34.425791 67.325 35.064 67.325 
C 35.702209 67.325 36.334213 67.108494 36.923841 66.687872 
C 37.51347 66.26725 38.049257 65.650692 38.500539 64.873484 
C 38.951821 64.096276 39.309822 63.173532 39.554055 62.15806 
C 39.798287 61.142589 39.924 60.054138 39.924 58.955 
" style="fill:none;stroke:#000000;stroke-linejoin:miter;stroke-width:1.5;"/>
   </g>
   <g id="patch_3">
    <path clip-path="url(#p1a965240b5)" d="M 99.864 67.325 
C 100.502209 67.325 101.134213 67.108494 101.723841 66.687872 
C 102.31347 66.26725 102.849257 65.650692 103.300539 64.873484 
C 103.751821 64.096276 104.109822 63.173532 104.354055 62.15806 
C 104.598287 61.142589 104.724 60.054138 104.724 58.955 
C 104.724 57.855862 104.598287 56.767411 104.354055 55.75194 
C 104.109822 54.736468 103.751821 53.813724 103.300539 53.036516 
C 102.849257 52.259308 102.31347 51.64275 101.723841 51.222128 
C 101.134213 50.801506 100.502209 50.585 99.864 50.585 
" style="fill:none;stroke:#000000;stroke-linejoin:miter;stroke-width:1.5;"/>
   </g>
   <g id="patch_4">
    <path clip-path="url(#p1a965240b5)" d="M 36.434018 67.524021 
C 36.975099 69.087871 37.660696 70.489293 38.463759 71.672997 
C 39.266823 72.856701 40.176651 73.806912 41.157347 74.48614 
C 42.138043 75.165368 43.176538 75.564561 44.231859 75.66797 
C 45.287181 75.771379 46.345265 75.577626 47.364366 75.094355 
C 48.383467 74.611084 49.350004 73.844736 50.225844 72.825545 
C 51.101684 71.806354 51.875154 70.547903 52.515738 69.099842 
C 53.156323 67.651782 53.655485 66.03341 53.99353 64.308577 
C 54.331576 62.583745 54.504 60.775437 54.504 58.955 
C 54.504 57.134563 54.331576 55.326255 53.99353 53.601423 
C 53.655485 51.87659 53.156323 50.258218 52.515738 48.810158 
C 51.875154 47.362097 51.101684 46.103646 50.225844 45.084455 
C 49.350004 44.065264 48.383467 43.298916 47.364366 42.815645 
C 46.345265 42.332374 45.287181 42.138621 44.231859 42.24203 
C 43.176538 42.345439 42.138043 42.744632 41.157347 43.42386 
C 40.176651 44.103088 39.266823 45.053299 38.463759 46.237003 
C 37.660696 47.420707 36.975099 48.822129 36.434018 50.385979 
" style="fill:none;stroke:#000000;stroke-linejoin:miter;stroke-width:1.5;"/>
   </g>
   <g id="patch_5">
    <path clip-path="url(#p1a965240b5)" d="M 83.664 75.695 
C 84.940419 75.695 86.204426 75.261987 87.383683 74.420743 
C 88.56294 73.579499 89.634514 72.346384 90.537078 70.791968 
C 91.439642 69.237551 92.155645 67.392063 92.644109 65.361121 
C 93.132573 63.330178 93.384 61.153277 93.384 58.955 
C 93.384 56.756723 93.132573 54.579822 92.644109 52.548879 
C 92.155645 50.517937 91.439642 48.672449 90.537078 47.118032 
C 89.634514 45.563616 88.56294 44.330501 87.383683 43.489257 
C 86.204426 42.648013 84.940419 42.215 83.664 42.215 
" style="fill:none;stroke:#000000;stroke-linejoin:miter;stroke-width:1.5;"/>
   </g>
   <g id="line2d_1">
    <path clip-path="url(#p1a965240b5)" d="M 44.784 75.695 
L 83.664 75.695 
" style="fill:none;stroke:#000000;stroke-linecap:round;stroke-width:1.5;"/>
   </g>
   <g id="line2d_2">
    <path clip-path="url(#p1a965240b5)" d="M 15.624 58.955 
L 35.064 58.955 
" style="fill:none;stroke:#000000;stroke-linecap:round;stroke-width:1.5;"/>
   </g>
   <g id="line2d_3">
    <path clip-path="url(#p1a965240b5)" d="M 35.064 50.585 
L 53.208 50.585 
" style="fill:none;stroke:#000000;stroke-linecap:round;stroke-width:1.5;"/>
   </g>
   <g id="line2d_4">
    <path clip-path="url(#p1a965240b5)" d="M 92.088 50.585 
L 99.864 50.585 
" style="fill:none;stroke:#000000;stroke-linecap:round;stroke-width:1.5;"/>
   </g>
   <g id="line2d_5">
    <path clip-path="url(#p1a965240b5)" d="M 35.064 67.325 
L 53.208 67.325 
" style="fill:none;stroke:#000000;stroke-linecap:round;stroke-width:1.5;"/>
   </g>
   <g id="line2d_6">
    <path clip-path="url(#p1a965240b5)" d="M 92.088 67.325 
L 99.864 67.325 
" style="fill:none;stroke:#000000;stroke-linecap:round;stroke-width:1.5;"/>
   </g>
   <g id="line2d_7">
    <path clip-path="url(#p1a965240b5)" d="M 104.724 58.955 
L 119.304 58.955 
" style="fill:none;stroke:#000000;stroke-linecap:round;stroke-width:1.5;"/>
   </g>
   <g id="line2d_8">
    <path clip-path="url(#p1a965240b5)" d="M 44.784 42.215 
L 83.664 42.215 
" style="fill:none;stroke:#000000;stroke-linecap:round;stroke-width:1.5;"/>
   </g>
   <g id="text_1">
    <!-- $Z_o$ -->
    <defs>
     <path d="M 5.609375 72.90625 
L 62.890625 72.90625 
L 62.890625 65.375 
L 16.796875 8.296875 
L 64.015625 8.296875 
L 64.015625 0 
L 4.5 0 
L 4.5 7.515625 
L 50.59375 64.59375 
L 5.609375 64.59375 
z
" id="DejaVuSans-90"/>
     <path d="M 30.609375 48.390625 
Q 23.390625 48.390625 19.1875 42.75 
Q 14.984375 37.109375 14.984375 27.296875 
Q 14.984375 17.484375 19.15625 11.84375 
Q 23.34375 6.203125 30.609375 6.203125 
Q 37.796875 6.203125 41.984375 11.859375 
Q 46.1875 17.53125 46.1875 27.296875 
Q 46.1875 37.015625 41.984375 42.703125 
Q 37.796875 48.390625 30.609375 48.390625 
z
M 30.609375 56 
Q 42.328125 56 49.015625 48.375 
Q 55.71875 40.765625 55.71875 27.296875 
Q 55.71875 13.875 49.015625 6.21875 
Q 42.328125 -1.421875 30.609375 -1.421875 
Q 18.84375 -1.421875 12.171875 6.21875 
Q 5.515625 13.875 5.515625 27.296875 
Q 5.515625 40.765625 12.171875 48.375 
Q 18.84375 56 30.609375 56 
z
" id="DejaVuSans-111"/>
    </defs>
    <g transform="translate(58.184 19.3575)scale(0.16 -0.16)">
     <use transform="translate(0 0.09375)" xlink:href="#DejaVuSans-90"/>
     <use transform="translate(69.462891 -16.3125)scale(0.7)" xlink:href="#DejaVuSans-111"/>
    </g>
   </g>
  </g>
 </g>
 <defs>
  <clipPath id="p1a965240b5">
   <rect height="42.408" width="120.528" x="7.2" y="37.751"/>
  </clipPath>
 </defs>
</svg>
