<?xml version="1.0" encoding="utf-8" standalone="no"?>
<!DOCTYPE svg PUBLIC "-//W3C//DTD SVG 1.1//EN"
  "http://www.w3.org/Graphics/SVG/1.1/DTD/svg11.dtd">
<!-- Created with matplotlib (https://matplotlib.org/) -->
<svg height="98.344625pt" version="1.1" viewBox="0 0 140.274 98.344625" width="140.274pt" xmlns="http://www.w3.org/2000/svg" xmlns:xlink="http://www.w3.org/1999/xlink">
 <defs>
  <style type="text/css">
*{stroke-linecap:butt;stroke-linejoin:round;}
  </style>
 </defs>
 <g id="figure_1">
  <g id="patch_1">
   <path d="M 0 98.344625 
L 140.274 98.344625 
L 140.274 0 
L 0 0 
z
" style="fill:none;"/>
  </g>
  <g id="axes_1">
   <g id="patch_2">
    <path clip-path="url(#p1cdc18009e)" d="M 18.297 61.0475 
C 18.941444 61.0475 19.559579 60.827021 20.015269 60.434621 
C 20.47096 60.042221 20.727 59.509937 20.727 58.955 
C 20.727 58.400063 20.47096 57.867779 20.015269 57.475379 
C 19.559579 57.082979 18.941444 56.8625 18.297 56.8625 
C 17.652556 56.8625 17.034421 57.082979 16.578731 57.475379 
C 16.12304 57.867779 15.867 58.400063 15.867 58.955 
C 15.867 59.509937 16.12304 60.042221 16.578731 60.434621 
C 17.034421 60.827021 17.652556 61.0475 18.297 61.0475 
z
" style="fill:#ffffff;stroke:#000000;stroke-linejoin:miter;stroke-width:1.5;"/>
   </g>
   <g id="patch_3">
    <path clip-path="url(#p1cdc18009e)" d="M 121.977 61.0475 
C 122.621444 61.0475 123.239579 60.827021 123.695269 60.434621 
C 124.15096 60.042221 124.407 59.509937 124.407 58.955 
C 124.407 58.400063 124.15096 57.867779 123.695269 57.475379 
C 123.239579 57.082979 122.621444 56.8625 121.977 56.8625 
C 121.332556 56.8625 120.714421 57.082979 120.258731 57.475379 
C 119.80304 57.867779 119.547 58.400063 119.547 58.955 
C 119.547 59.509937 119.80304 60.042221 120.258731 60.434621 
C 120.714421 60.827021 121.332556 61.0475 121.977 61.0475 
z
" style="fill:#ffffff;stroke:#000000;stroke-linejoin:miter;stroke-width:1.5;"/>
   </g>
   <g id="patch_4">
    <path clip-path="url(#p1cdc18009e)" d="M 18.297 77.7875 
C 18.941444 77.7875 19.559579 77.567021 20.015269 77.174621 
C 20.47096 76.782221 20.727 76.249937 20.727 75.695 
C 20.727 75.140063 20.47096 74.607779 20.015269 74.215379 
C 19.559579 73.822979 18.941444 73.6025 18.297 73.6025 
C 17.652556 73.6025 17.034421 73.822979 16.578731 74.215379 
C 16.12304 74.607779 15.867 75.140063 15.867 75.695 
C 15.867 76.249937 16.12304 76.782221 16.578731 77.174621 
C 17.034421 77.567021 17.652556 77.7875 18.297 77.7875 
z
" style="fill:#ffffff;stroke:#000000;stroke-linejoin:miter;stroke-width:1.5;"/>
   </g>
   <g id="patch_5">
    <path clip-path="url(#p1cdc18009e)" d="M 121.977 77.7875 
C 122.621444 77.7875 123.239579 77.567021 123.695269 77.174621 
C 124.15096 76.782221 124.407 76.249937 124.407 75.695 
C 124.407 75.140063 124.15096 74.607779 123.695269 74.215379 
C 123.239579 73.822979 122.621444 73.6025 121.977 73.6025 
C 121.332556 73.6025 120.714421 73.822979 120.258731 74.215379 
C 119.80304 74.607779 119.547 75.140063 119.547 75.695 
C 119.547 76.249937 119.80304 76.782221 120.258731 77.174621 
C 120.714421 77.567021 121.332556 77.7875 121.977 77.7875 
z
" style="fill:#ffffff;stroke:#000000;stroke-linejoin:miter;stroke-width:1.5;"/>
   </g>
   <g id="patch_6">
    <path clip-path="url(#p1cdc18009e)" d="M 28.017 86.1575 
C 28.661444 86.1575 29.279579 85.937021 29.735269 85.544621 
C 30.19096 85.152221 30.447 84.619937 30.447 84.065 
C 30.447 83.510063 30.19096 82.977779 29.735269 82.585379 
C 29.279579 82.192979 28.661444 81.9725 28.017 81.9725 
C 27.372556 81.9725 26.754421 82.192979 26.298731 82.585379 
C 25.84304 82.977779 25.587 83.510063 25.587 84.065 
C 25.587 84.619937 25.84304 85.152221 26.298731 85.544621 
C 26.754421 85.937021 27.372556 86.1575 28.017 86.1575 
z
" style="fill:#ffffff;stroke:#000000;stroke-linejoin:miter;stroke-width:1.5;"/>
   </g>
   <g id="patch_7">
    <path clip-path="url(#p1cdc18009e)" d="M 105.777 86.1575 
C 106.421444 86.1575 107.039579 85.937021 107.495269 85.544621 
C 107.95096 85.152221 108.207 84.619937 108.207 84.065 
C 108.207 83.510063 107.95096 82.977779 107.495269 82.585379 
C 107.039579 82.192979 106.421444 81.9725 105.777 81.9725 
C 105.132556 81.9725 104.514421 82.192979 104.058731 82.585379 
C 103.60304 82.977779 103.347 83.510063 103.347 84.065 
C 103.347 84.619937 103.60304 85.152221 104.058731 85.544621 
C 104.514421 85.937021 105.132556 86.1575 105.777 86.1575 
z
" style="fill:#ffffff;stroke:#000000;stroke-linejoin:miter;stroke-width:1.5;"/>
   </g>
   <g id="patch_8">
    <path clip-path="url(#p1cdc18009e)" d="M 42.597 58.955 
C 42.597 57.855862 42.471287 56.767411 42.227055 55.75194 
C 41.982822 54.736468 41.624821 53.813724 41.173539 53.036516 
C 40.722257 52.259308 40.18647 51.64275 39.596841 51.222128 
C 39.007213 50.801506 38.375209 50.585 37.737 50.585 
C 37.098791 50.585 36.466787 50.801506 35.877159 51.222128 
C 35.28753 51.64275 34.751743 52.259308 34.300461 53.036516 
C 33.849179 53.813724 33.491178 54.736468 33.246945 55.75194 
C 33.002713 56.767411 32.877 57.855862 32.877 58.955 
C 32.877 60.054138 33.002713 61.142589 33.246945 62.15806 
C 33.491178 63.173532 33.849179 64.096276 34.300461 64.873484 
C 34.751743 65.650692 35.28753 66.26725 35.877159 66.687872 
C 36.466787 67.108494 37.098791 67.325 37.737 67.325 
C 38.375209 67.325 39.007213 67.108494 39.596841 66.687872 
C 40.18647 66.26725 40.722257 65.650692 41.173539 64.873484 
C 41.624821 64.096276 41.982822 63.173532 42.227055 62.15806 
C 42.471287 61.142589 42.597 60.054138 42.597 58.955 
" style="fill:none;stroke:#000000;stroke-linejoin:miter;stroke-width:1.5;"/>
   </g>
   <g id="patch_9">
    <path clip-path="url(#p1cdc18009e)" d="M 102.537 67.325 
C 103.175209 67.325 103.807213 67.108494 104.396841 66.687872 
C 104.98647 66.26725 105.522257 65.650692 105.973539 64.873484 
C 106.424821 64.096276 106.782822 63.173532 107.027055 62.15806 
C 107.271287 61.142589 107.397 60.054138 107.397 58.955 
C 107.397 57.855862 107.271287 56.767411 107.027055 55.75194 
C 106.782822 54.736468 106.424821 53.813724 105.973539 53.036516 
C 105.522257 52.259308 104.98647 51.64275 104.396841 51.222128 
C 103.807213 50.801506 103.175209 50.585 102.537 50.585 
" style="fill:none;stroke:#000000;stroke-linejoin:miter;stroke-width:1.5;"/>
   </g>
   <g id="patch_10">
    <path clip-path="url(#p1cdc18009e)" d="M 39.107018 67.524021 
C 39.648099 69.087871 40.333696 70.489293 41.136759 71.672997 
C 41.939823 72.856701 42.849651 73.806912 43.830347 74.48614 
C 44.811043 75.165368 45.849538 75.564561 46.904859 75.66797 
C 47.960181 75.771379 49.018265 75.577626 50.037366 75.094355 
C 51.056467 74.611084 52.023004 73.844736 52.898844 72.825545 
C 53.774684 71.806354 54.548154 70.547903 55.188738 69.099842 
C 55.829323 67.651782 56.328485 66.03341 56.66653 64.308577 
C 57.004576 62.583745 57.177 60.775437 57.177 58.955 
C 57.177 57.134563 57.004576 55.326255 56.66653 53.601423 
C 56.328485 51.87659 55.829323 50.258218 55.188738 48.810158 
C 54.548154 47.362097 53.774684 46.103646 52.898844 45.084455 
C 52.023004 44.065264 51.056467 43.298916 50.037366 42.815645 
C 49.018265 42.332374 47.960181 42.138621 46.904859 42.24203 
C 45.849538 42.345439 44.811043 42.744632 43.830347 43.42386 
C 42.849651 44.103088 41.939823 45.053299 41.136759 46.237003 
C 40.333696 47.420707 39.648099 48.822129 39.107018 50.385979 
" style="fill:none;stroke:#000000;stroke-linejoin:miter;stroke-width:1.5;"/>
   </g>
   <g id="patch_11">
    <path clip-path="url(#p1cdc18009e)" d="M 86.337 75.695 
C 87.613419 75.695 88.877426 75.261987 90.056683 74.420743 
C 91.23594 73.579499 92.307514 72.346384 93.210078 70.791968 
C 94.112642 69.237551 94.828645 67.392063 95.317109 65.361121 
C 95.805573 63.330178 96.057 61.153277 96.057 58.955 
C 96.057 56.756723 95.805573 54.579822 95.317109 52.548879 
C 94.828645 50.517937 94.112642 48.672449 93.210078 47.118032 
C 92.307514 45.563616 91.23594 44.330501 90.056683 43.489257 
C 88.877426 42.648013 87.613419 42.215 86.337 42.215 
" style="fill:none;stroke:#000000;stroke-linejoin:miter;stroke-width:1.5;"/>
   </g>
   <g id="line2d_1">
    <path clip-path="url(#p1cdc18009e)" d="M 18.297 58.955 
" style="fill:none;stroke:#000000;stroke-linecap:round;stroke-width:1.5;"/>
   </g>
   <g id="line2d_2">
    <path clip-path="url(#p1cdc18009e)" d="M 107.397 58.955 
L 121.977 58.955 
" style="fill:none;stroke:#000000;stroke-linecap:round;stroke-width:1.5;"/>
   </g>
   <g id="line2d_3">
    <path clip-path="url(#p1cdc18009e)" d="M 18.297 58.955 
L 37.737 58.955 
" style="fill:none;stroke:#000000;stroke-linecap:round;stroke-width:1.5;"/>
   </g>
   <g id="line2d_4">
    <path clip-path="url(#p1cdc18009e)" d="M 37.737 50.585 
L 55.881 50.585 
" style="fill:none;stroke:#000000;stroke-linecap:round;stroke-width:1.5;"/>
   </g>
   <g id="line2d_5">
    <path clip-path="url(#p1cdc18009e)" d="M 94.761 50.585 
L 102.537 50.585 
" style="fill:none;stroke:#000000;stroke-linecap:round;stroke-width:1.5;"/>
   </g>
   <g id="line2d_6">
    <path clip-path="url(#p1cdc18009e)" d="M 37.737 67.325 
L 55.881 67.325 
" style="fill:none;stroke:#000000;stroke-linecap:round;stroke-width:1.5;"/>
   </g>
   <g id="line2d_7">
    <path clip-path="url(#p1cdc18009e)" d="M 94.761 67.325 
L 102.537 67.325 
" style="fill:none;stroke:#000000;stroke-linecap:round;stroke-width:1.5;"/>
   </g>
   <g id="line2d_8">
    <path clip-path="url(#p1cdc18009e)" d="M 47.457 42.215 
L 86.337 42.215 
" style="fill:none;stroke:#000000;stroke-linecap:round;stroke-width:1.5;"/>
   </g>
   <g id="line2d_9">
    <path clip-path="url(#p1cdc18009e)" d="M 47.457 75.695 
L 86.337 75.695 
" style="fill:none;stroke:#000000;stroke-linecap:round;stroke-width:1.5;"/>
   </g>
   <g id="line2d_10">
    <path clip-path="url(#p1cdc18009e)" d="M 121.977 58.955 
" style="fill:none;stroke:#000000;stroke-linecap:round;stroke-width:1.5;"/>
   </g>
   <g id="line2d_11">
    <path clip-path="url(#p1cdc18009e)" d="M 37.737 67.325 
L 37.737 71.51 
L 37.737 75.695 
" style="fill:none;stroke:#000000;stroke-linecap:round;stroke-width:1.5;"/>
   </g>
   <g id="line2d_12">
    <path clip-path="url(#p1cdc18009e)" d="M 37.737 75.695 
L 28.017 75.695 
L 18.297 75.695 
" style="fill:none;stroke:#000000;stroke-linecap:round;stroke-width:1.5;"/>
   </g>
   <g id="line2d_13">
    <path clip-path="url(#p1cdc18009e)" d="M 18.297 75.695 
" style="fill:none;stroke:#000000;stroke-linecap:round;stroke-width:1.5;"/>
   </g>
   <g id="line2d_14">
    <path clip-path="url(#p1cdc18009e)" d="M 102.537 67.325 
L 102.537 71.51 
L 102.537 75.695 
" style="fill:none;stroke:#000000;stroke-linecap:round;stroke-width:1.5;"/>
   </g>
   <g id="line2d_15">
    <path clip-path="url(#p1cdc18009e)" d="M 102.537 75.695 
L 112.257 75.695 
L 121.977 75.695 
" style="fill:none;stroke:#000000;stroke-linecap:round;stroke-width:1.5;"/>
   </g>
   <g id="line2d_16">
    <path clip-path="url(#p1cdc18009e)" d="M 121.977 75.695 
" style="fill:none;stroke:#000000;stroke-linecap:round;stroke-width:1.5;"/>
   </g>
   <g id="line2d_17">
    <path clip-path="url(#p1cdc18009e)" d="M 47.457 75.695 
L 47.457 79.88 
L 47.457 84.065 
" style="fill:none;stroke:#000000;stroke-linecap:round;stroke-width:1.5;"/>
   </g>
   <g id="line2d_18">
    <path clip-path="url(#p1cdc18009e)" d="M 47.457 84.065 
L 37.737 84.065 
L 28.017 84.065 
" style="fill:none;stroke:#000000;stroke-linecap:round;stroke-width:1.5;"/>
   </g>
   <g id="line2d_19">
    <path clip-path="url(#p1cdc18009e)" d="M 28.017 84.065 
" style="fill:none;stroke:#000000;stroke-linecap:round;stroke-width:1.5;"/>
   </g>
   <g id="line2d_20">
    <path clip-path="url(#p1cdc18009e)" d="M 86.337 75.695 
L 86.337 79.88 
L 86.337 84.065 
" style="fill:none;stroke:#000000;stroke-linecap:round;stroke-width:1.5;"/>
   </g>
   <g id="line2d_21">
    <path clip-path="url(#p1cdc18009e)" d="M 86.337 84.065 
L 96.057 84.065 
L 105.777 84.065 
" style="fill:none;stroke:#000000;stroke-linecap:round;stroke-width:1.5;"/>
   </g>
   <g id="line2d_22">
    <path clip-path="url(#p1cdc18009e)" d="M 105.777 84.065 
" style="fill:none;stroke:#000000;stroke-linecap:round;stroke-width:1.5;"/>
   </g>
   <g id="text_1">
    <!-- $Z_o$ -->
    <defs>
     <path d="M 5.609375 72.90625 
L 62.890625 72.90625 
L 62.890625 65.375 
L 16.796875 8.296875 
L 64.015625 8.296875 
L 64.015625 0 
L 4.5 0 
L 4.5 7.515625 
L 50.59375 64.59375 
L 5.609375 64.59375 
z
" id="DejaVuSans-90"/>
     <path d="M 30.609375 48.390625 
Q 23.390625 48.390625 19.1875 42.75 
Q 14.984375 37.109375 14.984375 27.296875 
Q 14.984375 17.484375 19.15625 11.84375 
Q 23.34375 6.203125 30.609375 6.203125 
Q 37.796875 6.203125 41.984375 11.859375 
Q 46.1875 17.53125 46.1875 27.296875 
Q 46.1875 37.015625 41.984375 42.703125 
Q 37.796875 48.390625 30.609375 48.390625 
z
M 30.609375 56 
Q 42.328125 56 49.015625 48.375 
Q 55.71875 40.765625 55.71875 27.296875 
Q 55.71875 13.875 49.015625 6.21875 
Q 42.328125 -1.421875 30.609375 -1.421875 
Q 18.84375 -1.421875 12.171875 6.21875 
Q 5.515625 13.875 5.515625 27.296875 
Q 5.515625 40.765625 12.171875 48.375 
Q 18.84375 56 30.609375 56 
z
" id="DejaVuSans-111"/>
    </defs>
    <g transform="translate(60.857 19.3575)scale(0.16 -0.16)">
     <use transform="translate(0 0.09375)" xlink:href="#DejaVuSans-90"/>
     <use transform="translate(69.462891 -16.3125)scale(0.7)" xlink:href="#DejaVuSans-111"/>
    </g>
   </g>
  </g>
 </g>
 <defs>
  <clipPath id="p1cdc18009e">
   <rect height="53.91675" width="125.874" x="7.2" y="37.227875"/>
  </clipPath>
 </defs>
</svg>
