<?xml version="1.0" encoding="utf-8" standalone="no"?>
<!DOCTYPE svg PUBLIC "-//W3C//DTD SVG 1.1//EN"
  "http://www.w3.org/Graphics/SVG/1.1/DTD/svg11.dtd">
<!-- Created with matplotlib (https://matplotlib.org/) -->
<svg height="118.188pt" version="1.1" viewBox="0 0 142.4225 118.188" width="142.4225pt" xmlns="http://www.w3.org/2000/svg" xmlns:xlink="http://www.w3.org/1999/xlink">
 <defs>
  <style type="text/css">
*{stroke-linecap:butt;stroke-linejoin:round;}
  </style>
 </defs>
 <g id="figure_1">
  <g id="patch_1">
   <path d="M 0 118.188 
L 142.4225 118.188 
L 142.4225 0 
L 0 0 
z
" style="fill:none;"/>
  </g>
  <g id="axes_1">
   <g id="patch_2">
    <path clip-path="url(#p1799fad6b1)" d="M 40.005 47.934 
C 41.722944 47.934 43.372282 47.345707 44.587052 46.299656 
C 45.801822 45.253604 46.485 43.83334 46.485 42.354 
C 46.485 40.87466 45.801822 39.454396 44.587052 38.408344 
C 43.372282 37.362293 41.722944 36.774 40.005 36.774 
" style="fill:none;stroke:#000000;stroke-linejoin:miter;stroke-width:1.5;"/>
   </g>
   <g id="patch_3">
    <path clip-path="url(#p1799fad6b1)" d="M 40.005 59.094 
C 41.722944 59.094 43.372282 58.505707 44.587052 57.459656 
C 45.801822 56.413604 46.485 54.99334 46.485 53.514 
C 46.485 52.03466 45.801822 50.614396 44.587052 49.568344 
C 43.372282 48.522293 41.722944 47.934 40.005 47.934 
" style="fill:none;stroke:#000000;stroke-linejoin:miter;stroke-width:1.5;"/>
   </g>
   <g id="patch_4">
    <path clip-path="url(#p1799fad6b1)" d="M 40.005 70.254 
C 41.722944 70.254 43.372282 69.665707 44.587052 68.619656 
C 45.801822 67.573604 46.485 66.15334 46.485 64.674 
C 46.485 63.19466 45.801822 61.774396 44.587052 60.728344 
C 43.372282 59.682293 41.722944 59.094 40.005 59.094 
" style="fill:none;stroke:#000000;stroke-linejoin:miter;stroke-width:1.5;"/>
   </g>
   <g id="patch_5">
    <path clip-path="url(#p1799fad6b1)" d="M 40.005 81.414 
C 41.722944 81.414 43.372282 80.825707 44.587052 79.779656 
C 45.801822 78.733604 46.485 77.31334 46.485 75.834 
C 46.485 74.35466 45.801822 72.934396 44.587052 71.888344 
C 43.372282 70.842293 41.722944 70.254 40.005 70.254 
" style="fill:none;stroke:#000000;stroke-linejoin:miter;stroke-width:1.5;"/>
   </g>
   <g id="patch_6">
    <path clip-path="url(#p1799fad6b1)" d="M 72.405 14.454 
C 70.687056 14.454 69.037718 15.042293 67.822948 16.088344 
C 66.608178 17.134396 65.925 18.55466 65.925 20.034 
C 65.925 21.51334 66.608178 22.933604 67.822948 23.979656 
C 69.037718 25.025707 70.687056 25.614 72.405 25.614 
" style="fill:none;stroke:#000000;stroke-linejoin:miter;stroke-width:1.5;"/>
   </g>
   <g id="patch_7">
    <path clip-path="url(#p1799fad6b1)" d="M 72.405 25.614 
C 70.687056 25.614 69.037718 26.202293 67.822948 27.248344 
C 66.608178 28.294396 65.925 29.71466 65.925 31.194 
C 65.925 32.67334 66.608178 34.093604 67.822948 35.139656 
C 69.037718 36.185707 70.687056 36.774 72.405 36.774 
" style="fill:none;stroke:#000000;stroke-linejoin:miter;stroke-width:1.5;"/>
   </g>
   <g id="patch_8">
    <path clip-path="url(#p1799fad6b1)" d="M 72.405 36.774 
C 70.687056 36.774 69.037718 37.362293 67.822948 38.408344 
C 66.608178 39.454396 65.925 40.87466 65.925 42.354 
C 65.925 43.83334 66.608178 45.253604 67.822948 46.299656 
C 69.037718 47.345707 70.687056 47.934 72.405 47.934 
" style="fill:none;stroke:#000000;stroke-linejoin:miter;stroke-width:1.5;"/>
   </g>
   <g id="patch_9">
    <path clip-path="url(#p1799fad6b1)" d="M 72.405 47.934 
C 70.687056 47.934 69.037718 48.522293 67.822948 49.568344 
C 66.608178 50.614396 65.925 52.03466 65.925 53.514 
C 65.925 54.99334 66.608178 56.413604 67.822948 57.459656 
C 69.037718 58.505707 70.687056 59.094 72.405 59.094 
" style="fill:none;stroke:#000000;stroke-linejoin:miter;stroke-width:1.5;"/>
   </g>
   <g id="patch_10">
    <path clip-path="url(#p1799fad6b1)" d="M 72.405 59.094 
C 70.687056 59.094 69.037718 59.682293 67.822948 60.728344 
C 66.608178 61.774396 65.925 63.19466 65.925 64.674 
C 65.925 66.15334 66.608178 67.573604 67.822948 68.619656 
C 69.037718 69.665707 70.687056 70.254 72.405 70.254 
" style="fill:none;stroke:#000000;stroke-linejoin:miter;stroke-width:1.5;"/>
   </g>
   <g id="patch_11">
    <path clip-path="url(#p1799fad6b1)" d="M 72.405 70.254 
C 70.687056 70.254 69.037718 70.842293 67.822948 71.888344 
C 66.608178 72.934396 65.925 74.35466 65.925 75.834 
C 65.925 77.31334 66.608178 78.733604 67.822948 79.779656 
C 69.037718 80.825707 70.687056 81.414 72.405 81.414 
" style="fill:none;stroke:#000000;stroke-linejoin:miter;stroke-width:1.5;"/>
   </g>
   <g id="patch_12">
    <path clip-path="url(#p1799fad6b1)" d="M 72.405 81.414 
C 70.687056 81.414 69.037718 82.002293 67.822948 83.048344 
C 66.608178 84.094396 65.925 85.51466 65.925 86.994 
C 65.925 88.47334 66.608178 89.893604 67.822948 90.939656 
C 69.037718 91.985707 70.687056 92.574 72.405 92.574 
" style="fill:none;stroke:#000000;stroke-linejoin:miter;stroke-width:1.5;"/>
   </g>
   <g id="patch_13">
    <path clip-path="url(#p1799fad6b1)" d="M 72.405 92.574 
C 70.687056 92.574 69.037718 93.162293 67.822948 94.208344 
C 66.608178 95.254396 65.925 96.67466 65.925 98.154 
C 65.925 99.63334 66.608178 101.053604 67.822948 102.099656 
C 69.037718 103.145707 70.687056 103.734 72.405 103.734 
" style="fill:none;stroke:#000000;stroke-linejoin:miter;stroke-width:1.5;"/>
   </g>
   <g id="line2d_1">
    <path clip-path="url(#p1799fad6b1)" d="M 59.445 14.454 
L 59.445 103.734 
" style="fill:none;stroke:#000000;stroke-linecap:round;stroke-width:1.5;"/>
   </g>
   <g id="line2d_2">
    <path clip-path="url(#p1799fad6b1)" d="M 52.965 14.454 
L 52.965 103.734 
" style="fill:none;stroke:#000000;stroke-linecap:round;stroke-width:1.5;"/>
   </g>
   <g id="line2d_3">
    <path clip-path="url(#p1799fad6b1)" d="M 72.405 14.454 
L 84.555 14.454 
L 96.705 14.454 
" style="fill:none;stroke:#000000;stroke-linecap:round;stroke-width:1.5;"/>
   </g>
   <g id="line2d_4">
    <path clip-path="url(#p1799fad6b1)" d="M 72.405 103.734 
L 84.555 103.734 
L 96.705 103.734 
" style="fill:none;stroke:#000000;stroke-linecap:round;stroke-width:1.5;"/>
   </g>
   <g id="line2d_5">
    <path clip-path="url(#p1799fad6b1)" d="M 40.005 36.774 
L 27.855 36.774 
L 15.705 36.774 
" style="fill:none;stroke:#000000;stroke-linecap:round;stroke-width:1.5;"/>
   </g>
   <g id="line2d_6">
    <path clip-path="url(#p1799fad6b1)" d="M 40.005 81.414 
L 27.855 81.414 
L 15.705 81.414 
" style="fill:none;stroke:#000000;stroke-linecap:round;stroke-width:1.5;"/>
   </g>
   <g id="line2d_7">
    <path clip-path="url(#p1799fad6b1)" d="M 72.405 47.934 
L 96.705 47.934 
L 121.005 47.934 
" style="fill:none;stroke:#000000;stroke-linecap:round;stroke-width:1.5;"/>
   </g>
   <g id="text_1">
    <!-- B -->
    <defs>
     <path d="M 19.671875 34.8125 
L 19.671875 8.109375 
L 35.5 8.109375 
Q 43.453125 8.109375 47.28125 11.40625 
Q 51.125 14.703125 51.125 21.484375 
Q 51.125 28.328125 47.28125 31.5625 
Q 43.453125 34.8125 35.5 34.8125 
z
M 19.671875 64.796875 
L 19.671875 42.828125 
L 34.28125 42.828125 
Q 41.5 42.828125 45.03125 45.53125 
Q 48.578125 48.25 48.578125 53.8125 
Q 48.578125 59.328125 45.03125 62.0625 
Q 41.5 64.796875 34.28125 64.796875 
z
M 9.8125 72.90625 
L 35.015625 72.90625 
Q 46.296875 72.90625 52.390625 68.21875 
Q 58.5 63.53125 58.5 54.890625 
Q 58.5 48.1875 55.375 44.234375 
Q 52.25 40.28125 46.1875 39.3125 
Q 53.46875 37.75 57.5 32.78125 
Q 61.53125 27.828125 61.53125 20.40625 
Q 61.53125 10.640625 54.890625 5.3125 
Q 48.25 0 35.984375 0 
L 9.8125 0 
z
" id="DejaVuSans-66"/>
    </defs>
    <g transform="translate(124.245 52.349)scale(0.16 -0.16)">
     <use xlink:href="#DejaVuSans-66"/>
    </g>
   </g>
  </g>
 </g>
 <defs>
  <clipPath id="p1799fad6b1">
   <rect height="103.788" width="122.31" x="7.2" y="7.2"/>
  </clipPath>
 </defs>
</svg>
