<?xml version="1.0" encoding="utf-8" standalone="no"?>
<!DOCTYPE svg PUBLIC "-//W3C//DTD SVG 1.1//EN"
  "http://www.w3.org/Graphics/SVG/1.1/DTD/svg11.dtd">
<!-- Created with matplotlib (http://matplotlib.org/) -->
<svg height="135pt" version="1.1" viewBox="0 0 145 135" width="145pt" xmlns="http://www.w3.org/2000/svg" xmlns:xlink="http://www.w3.org/1999/xlink">
 <defs>
  <style type="text/css">
*{stroke-linecap:butt;stroke-linejoin:round;}
  </style>
 </defs>
 <g id="figure_1">
  <g id="patch_1">
   <path d="M 0 135.232 
L 145.9225 135.232 
L 145.9225 0 
L 0 0 
z
" style="fill:none;"/>
  </g>
  <g id="axes_1">
   <g id="patch_2">
    <path clip-path="url(#p2942d07297)" d="M 43.505 55.376 
C 45.222944 55.376 46.872282 54.730776 48.087052 53.583494 
C 49.301822 52.436211 49.985 50.878502 49.985 49.256 
C 49.985 47.633498 49.301822 46.075789 48.087052 44.928506 
C 46.872282 43.781224 45.222944 43.136 43.505 43.136 
" style="fill:none;stroke:#000000;stroke-linejoin:miter;stroke-width:1.5;"/>
   </g>
   <g id="patch_3">
    <path clip-path="url(#p2942d07297)" d="M 43.505 67.616 
C 45.222944 67.616 46.872282 66.970776 48.087052 65.823494 
C 49.301822 64.676211 49.985 63.118502 49.985 61.496 
C 49.985 59.873498 49.301822 58.315789 48.087052 57.168506 
C 46.872282 56.021224 45.222944 55.376 43.505 55.376 
" style="fill:none;stroke:#000000;stroke-linejoin:miter;stroke-width:1.5;"/>
   </g>
   <g id="patch_4">
    <path clip-path="url(#p2942d07297)" d="M 43.505 79.856 
C 45.222944 79.856 46.872282 79.210776 48.087052 78.063494 
C 49.301822 76.916211 49.985 75.358502 49.985 73.736 
C 49.985 72.113498 49.301822 70.555789 48.087052 69.408506 
C 46.872282 68.261224 45.222944 67.616 43.505 67.616 
" style="fill:none;stroke:#000000;stroke-linejoin:miter;stroke-width:1.5;"/>
   </g>
   <g id="patch_5">
    <path clip-path="url(#p2942d07297)" d="M 43.505 92.096 
C 45.222944 92.096 46.872282 91.450776 48.087052 90.303494 
C 49.301822 89.156211 49.985 87.598502 49.985 85.976 
C 49.985 84.353498 49.301822 82.795789 48.087052 81.648506 
C 46.872282 80.501224 45.222944 79.856 43.505 79.856 
" style="fill:none;stroke:#000000;stroke-linejoin:miter;stroke-width:1.5;"/>
   </g>
   <g id="patch_6">
    <path clip-path="url(#p2942d07297)" d="M 75.905 18.656 
C 74.187056 18.656 72.537718 19.301224 71.322948 20.448506 
C 70.108178 21.595789 69.425 23.153498 69.425 24.776 
C 69.425 26.398502 70.108178 27.956211 71.322948 29.103494 
C 72.537718 30.250776 74.187056 30.896 75.905 30.896 
" style="fill:none;stroke:#000000;stroke-linejoin:miter;stroke-width:1.5;"/>
   </g>
   <g id="patch_7">
    <path clip-path="url(#p2942d07297)" d="M 75.905 30.896 
C 74.187056 30.896 72.537718 31.541224 71.322948 32.688506 
C 70.108178 33.835789 69.425 35.393498 69.425 37.016 
C 69.425 38.638502 70.108178 40.196211 71.322948 41.343494 
C 72.537718 42.490776 74.187056 43.136 75.905 43.136 
" style="fill:none;stroke:#000000;stroke-linejoin:miter;stroke-width:1.5;"/>
   </g>
   <g id="patch_8">
    <path clip-path="url(#p2942d07297)" d="M 75.905 43.136 
C 74.187056 43.136 72.537718 43.781224 71.322948 44.928506 
C 70.108178 46.075789 69.425 47.633498 69.425 49.256 
C 69.425 50.878502 70.108178 52.436211 71.322948 53.583494 
C 72.537718 54.730776 74.187056 55.376 75.905 55.376 
" style="fill:none;stroke:#000000;stroke-linejoin:miter;stroke-width:1.5;"/>
   </g>
   <g id="patch_9">
    <path clip-path="url(#p2942d07297)" d="M 75.905 55.376 
C 74.187056 55.376 72.537718 56.021224 71.322948 57.168506 
C 70.108178 58.315789 69.425 59.873498 69.425 61.496 
C 69.425 63.118502 70.108178 64.676211 71.322948 65.823494 
C 72.537718 66.970776 74.187056 67.616 75.905 67.616 
" style="fill:none;stroke:#000000;stroke-linejoin:miter;stroke-width:1.5;"/>
   </g>
   <g id="patch_10">
    <path clip-path="url(#p2942d07297)" d="M 75.905 67.616 
C 74.187056 67.616 72.537718 68.261224 71.322948 69.408506 
C 70.108178 70.555789 69.425 72.113498 69.425 73.736 
C 69.425 75.358502 70.108178 76.916211 71.322948 78.063494 
C 72.537718 79.210776 74.187056 79.856 75.905 79.856 
" style="fill:none;stroke:#000000;stroke-linejoin:miter;stroke-width:1.5;"/>
   </g>
   <g id="patch_11">
    <path clip-path="url(#p2942d07297)" d="M 75.905 79.856 
C 74.187056 79.856 72.537718 80.501224 71.322948 81.648506 
C 70.108178 82.795789 69.425 84.353498 69.425 85.976 
C 69.425 87.598502 70.108178 89.156211 71.322948 90.303494 
C 72.537718 91.450776 74.187056 92.096 75.905 92.096 
" style="fill:none;stroke:#000000;stroke-linejoin:miter;stroke-width:1.5;"/>
   </g>
   <g id="patch_12">
    <path clip-path="url(#p2942d07297)" d="M 75.905 92.096 
C 74.187056 92.096 72.537718 92.741224 71.322948 93.888506 
C 70.108178 95.035789 69.425 96.593498 69.425 98.216 
C 69.425 99.838502 70.108178 101.396211 71.322948 102.543494 
C 72.537718 103.690776 74.187056 104.336 75.905 104.336 
" style="fill:none;stroke:#000000;stroke-linejoin:miter;stroke-width:1.5;"/>
   </g>
   <g id="patch_13">
    <path clip-path="url(#p2942d07297)" d="M 75.905 104.336 
C 74.187056 104.336 72.537718 104.981224 71.322948 106.128506 
C 70.108178 107.275789 69.425 108.833498 69.425 110.456 
C 69.425 112.078502 70.108178 113.636211 71.322948 114.783494 
C 72.537718 115.930776 74.187056 116.576 75.905 116.576 
" style="fill:none;stroke:#000000;stroke-linejoin:miter;stroke-width:1.5;"/>
   </g>
   <g id="line2d_1">
    <path clip-path="url(#p2942d07297)" d="M 62.945 18.656 
L 62.945 116.576 
" style="fill:none;stroke:#000000;stroke-linecap:round;stroke-width:1.5;"/>
   </g>
   <g id="line2d_2">
    <path clip-path="url(#p2942d07297)" d="M 56.465 18.656 
L 56.465 116.576 
" style="fill:none;stroke:#000000;stroke-linecap:round;stroke-width:1.5;"/>
   </g>
   <g id="line2d_3">
    <path clip-path="url(#p2942d07297)" d="M 75.905 18.656 
L 88.055 18.656 
L 100.205 18.656 
" style="fill:none;stroke:#000000;stroke-linecap:round;stroke-width:1.5;"/>
   </g>
   <g id="line2d_4">
    <path clip-path="url(#p2942d07297)" d="M 75.905 116.576 
L 88.055 116.576 
L 100.205 116.576 
" style="fill:none;stroke:#000000;stroke-linecap:round;stroke-width:1.5;"/>
   </g>
   <g id="line2d_5">
    <path clip-path="url(#p2942d07297)" d="M 43.505 43.136 
L 31.355 43.136 
L 19.205 43.136 
" style="fill:none;stroke:#000000;stroke-linecap:round;stroke-width:1.5;"/>
   </g>
   <g id="line2d_6">
    <path clip-path="url(#p2942d07297)" d="M 43.505 92.096 
L 31.355 92.096 
L 19.205 92.096 
" style="fill:none;stroke:#000000;stroke-linecap:round;stroke-width:1.5;"/>
   </g>
   <g id="line2d_7">
    <path clip-path="url(#p2942d07297)" d="M 75.905 55.376 
L 100.205 55.376 
L 124.505 55.376 
" style="fill:none;stroke:#000000;stroke-linecap:round;stroke-width:1.5;"/>
   </g>
   <g id="text_1">
    <!-- B -->
    <defs>
     <path d="M 19.671875 34.8125 
L 19.671875 8.109375 
L 35.5 8.109375 
Q 43.453125 8.109375 47.28125 11.40625 
Q 51.125 14.703125 51.125 21.484375 
Q 51.125 28.328125 47.28125 31.5625 
Q 43.453125 34.8125 35.5 34.8125 
z
M 19.671875 64.796875 
L 19.671875 42.828125 
L 34.28125 42.828125 
Q 41.5 42.828125 45.03125 45.53125 
Q 48.578125 48.25 48.578125 53.8125 
Q 48.578125 59.328125 45.03125 62.0625 
Q 41.5 64.796875 34.28125 64.796875 
z
M 9.8125 72.90625 
L 35.015625 72.90625 
Q 46.296875 72.90625 52.390625 68.21875 
Q 58.5 63.53125 58.5 54.890625 
Q 58.5 48.1875 55.375 44.234375 
Q 52.25 40.28125 46.1875 39.3125 
Q 53.46875 37.75 57.5 32.78125 
Q 61.53125 27.828125 61.53125 20.40625 
Q 61.53125 10.640625 54.890625 5.3125 
Q 48.25 0 35.984375 0 
L 9.8125 0 
z
" id="DejaVuSans-42"/>
    </defs>
    <g transform="translate(127.745 59.791)scale(0.16 -0.16)">
     <use xlink:href="#DejaVuSans-42"/>
    </g>
   </g>
  </g>
 </g>
 <defs>
  <clipPath id="p2942d07297">
   <rect height="113.832" width="122.31" x="10.7" y="10.7"/>
  </clipPath>
 </defs>
</svg>
