<?xml version="1.0" encoding="utf-8" standalone="no"?>
<!DOCTYPE svg PUBLIC "-//W3C//DTD SVG 1.1//EN"
  "http://www.w3.org/Graphics/SVG/1.1/DTD/svg11.dtd">
<!-- Created with matplotlib (http://matplotlib.org/) -->
<svg height="125.188pt" version="1.1" viewBox="0 0 145.9225 125.188" width="145.9225pt" xmlns="http://www.w3.org/2000/svg" xmlns:xlink="http://www.w3.org/1999/xlink">
 <defs>
  <style type="text/css">
*{stroke-linecap:butt;stroke-linejoin:round;}
  </style>
 </defs>
 <g id="figure_1">
  <g id="patch_1">
   <path d="M 0 125.188 
L 145.9225 125.188 
L 145.9225 0 
L 0 0 
z
" style="fill:none;"/>
  </g>
  <g id="axes_1">
   <g id="patch_2">
    <path clip-path="url(#p6ab1e453d4)" d="M 43.505 51.434 
C 45.222944 51.434 46.872282 50.845707 48.087052 49.799656 
C 49.301822 48.753604 49.985 47.33334 49.985 45.854 
C 49.985 44.37466 49.301822 42.954396 48.087052 41.908344 
C 46.872282 40.862293 45.222944 40.274 43.505 40.274 
" style="fill:none;stroke:#000000;stroke-linejoin:miter;stroke-width:1.5;"/>
   </g>
   <g id="patch_3">
    <path clip-path="url(#p6ab1e453d4)" d="M 43.505 62.594 
C 45.222944 62.594 46.872282 62.005707 48.087052 60.959656 
C 49.301822 59.913604 49.985 58.49334 49.985 57.014 
C 49.985 55.53466 49.301822 54.114396 48.087052 53.068344 
C 46.872282 52.022293 45.222944 51.434 43.505 51.434 
" style="fill:none;stroke:#000000;stroke-linejoin:miter;stroke-width:1.5;"/>
   </g>
   <g id="patch_4">
    <path clip-path="url(#p6ab1e453d4)" d="M 43.505 73.754 
C 45.222944 73.754 46.872282 73.165707 48.087052 72.119656 
C 49.301822 71.073604 49.985 69.65334 49.985 68.174 
C 49.985 66.69466 49.301822 65.274396 48.087052 64.228344 
C 46.872282 63.182293 45.222944 62.594 43.505 62.594 
" style="fill:none;stroke:#000000;stroke-linejoin:miter;stroke-width:1.5;"/>
   </g>
   <g id="patch_5">
    <path clip-path="url(#p6ab1e453d4)" d="M 43.505 84.914 
C 45.222944 84.914 46.872282 84.325707 48.087052 83.279656 
C 49.301822 82.233604 49.985 80.81334 49.985 79.334 
C 49.985 77.85466 49.301822 76.434396 48.087052 75.388344 
C 46.872282 74.342293 45.222944 73.754 43.505 73.754 
" style="fill:none;stroke:#000000;stroke-linejoin:miter;stroke-width:1.5;"/>
   </g>
   <g id="patch_6">
    <path clip-path="url(#p6ab1e453d4)" d="M 75.905 17.954 
C 74.187056 17.954 72.537718 18.542293 71.322948 19.588344 
C 70.108178 20.634396 69.425 22.05466 69.425 23.534 
C 69.425 25.01334 70.108178 26.433604 71.322948 27.479656 
C 72.537718 28.525707 74.187056 29.114 75.905 29.114 
" style="fill:none;stroke:#000000;stroke-linejoin:miter;stroke-width:1.5;"/>
   </g>
   <g id="patch_7">
    <path clip-path="url(#p6ab1e453d4)" d="M 75.905 29.114 
C 74.187056 29.114 72.537718 29.702293 71.322948 30.748344 
C 70.108178 31.794396 69.425 33.21466 69.425 34.694 
C 69.425 36.17334 70.108178 37.593604 71.322948 38.639656 
C 72.537718 39.685707 74.187056 40.274 75.905 40.274 
" style="fill:none;stroke:#000000;stroke-linejoin:miter;stroke-width:1.5;"/>
   </g>
   <g id="patch_8">
    <path clip-path="url(#p6ab1e453d4)" d="M 75.905 40.274 
C 74.187056 40.274 72.537718 40.862293 71.322948 41.908344 
C 70.108178 42.954396 69.425 44.37466 69.425 45.854 
C 69.425 47.33334 70.108178 48.753604 71.322948 49.799656 
C 72.537718 50.845707 74.187056 51.434 75.905 51.434 
" style="fill:none;stroke:#000000;stroke-linejoin:miter;stroke-width:1.5;"/>
   </g>
   <g id="patch_9">
    <path clip-path="url(#p6ab1e453d4)" d="M 75.905 51.434 
C 74.187056 51.434 72.537718 52.022293 71.322948 53.068344 
C 70.108178 54.114396 69.425 55.53466 69.425 57.014 
C 69.425 58.49334 70.108178 59.913604 71.322948 60.959656 
C 72.537718 62.005707 74.187056 62.594 75.905 62.594 
" style="fill:none;stroke:#000000;stroke-linejoin:miter;stroke-width:1.5;"/>
   </g>
   <g id="patch_10">
    <path clip-path="url(#p6ab1e453d4)" d="M 75.905 62.594 
C 74.187056 62.594 72.537718 63.182293 71.322948 64.228344 
C 70.108178 65.274396 69.425 66.69466 69.425 68.174 
C 69.425 69.65334 70.108178 71.073604 71.322948 72.119656 
C 72.537718 73.165707 74.187056 73.754 75.905 73.754 
" style="fill:none;stroke:#000000;stroke-linejoin:miter;stroke-width:1.5;"/>
   </g>
   <g id="patch_11">
    <path clip-path="url(#p6ab1e453d4)" d="M 75.905 73.754 
C 74.187056 73.754 72.537718 74.342293 71.322948 75.388344 
C 70.108178 76.434396 69.425 77.85466 69.425 79.334 
C 69.425 80.81334 70.108178 82.233604 71.322948 83.279656 
C 72.537718 84.325707 74.187056 84.914 75.905 84.914 
" style="fill:none;stroke:#000000;stroke-linejoin:miter;stroke-width:1.5;"/>
   </g>
   <g id="patch_12">
    <path clip-path="url(#p6ab1e453d4)" d="M 75.905 84.914 
C 74.187056 84.914 72.537718 85.502293 71.322948 86.548344 
C 70.108178 87.594396 69.425 89.01466 69.425 90.494 
C 69.425 91.97334 70.108178 93.393604 71.322948 94.439656 
C 72.537718 95.485707 74.187056 96.074 75.905 96.074 
" style="fill:none;stroke:#000000;stroke-linejoin:miter;stroke-width:1.5;"/>
   </g>
   <g id="patch_13">
    <path clip-path="url(#p6ab1e453d4)" d="M 75.905 96.074 
C 74.187056 96.074 72.537718 96.662293 71.322948 97.708344 
C 70.108178 98.754396 69.425 100.17466 69.425 101.654 
C 69.425 103.13334 70.108178 104.553604 71.322948 105.599656 
C 72.537718 106.645707 74.187056 107.234 75.905 107.234 
" style="fill:none;stroke:#000000;stroke-linejoin:miter;stroke-width:1.5;"/>
   </g>
   <g id="line2d_1">
    <path clip-path="url(#p6ab1e453d4)" d="M 62.945 17.954 
L 62.945 107.234 
" style="fill:none;stroke:#000000;stroke-linecap:round;stroke-width:1.5;"/>
   </g>
   <g id="line2d_2">
    <path clip-path="url(#p6ab1e453d4)" d="M 56.465 17.954 
L 56.465 107.234 
" style="fill:none;stroke:#000000;stroke-linecap:round;stroke-width:1.5;"/>
   </g>
   <g id="line2d_3">
    <path clip-path="url(#p6ab1e453d4)" d="M 75.905 17.954 
L 88.055 17.954 
L 100.205 17.954 
" style="fill:none;stroke:#000000;stroke-linecap:round;stroke-width:1.5;"/>
   </g>
   <g id="line2d_4">
    <path clip-path="url(#p6ab1e453d4)" d="M 75.905 107.234 
L 88.055 107.234 
L 100.205 107.234 
" style="fill:none;stroke:#000000;stroke-linecap:round;stroke-width:1.5;"/>
   </g>
   <g id="line2d_5">
    <path clip-path="url(#p6ab1e453d4)" d="M 43.505 40.274 
L 31.355 40.274 
L 19.205 40.274 
" style="fill:none;stroke:#000000;stroke-linecap:round;stroke-width:1.5;"/>
   </g>
   <g id="line2d_6">
    <path clip-path="url(#p6ab1e453d4)" d="M 43.505 84.914 
L 31.355 84.914 
L 19.205 84.914 
" style="fill:none;stroke:#000000;stroke-linecap:round;stroke-width:1.5;"/>
   </g>
   <g id="line2d_7">
    <path clip-path="url(#p6ab1e453d4)" d="M 75.905 51.434 
L 100.205 51.434 
L 124.505 51.434 
" style="fill:none;stroke:#000000;stroke-linecap:round;stroke-width:1.5;"/>
   </g>
   <g id="text_1">
    <!-- B -->
    <defs>
     <path d="M 19.671875 34.8125 
L 19.671875 8.109375 
L 35.5 8.109375 
Q 43.453125 8.109375 47.28125 11.40625 
Q 51.125 14.703125 51.125 21.484375 
Q 51.125 28.328125 47.28125 31.5625 
Q 43.453125 34.8125 35.5 34.8125 
z
M 19.671875 64.796875 
L 19.671875 42.828125 
L 34.28125 42.828125 
Q 41.5 42.828125 45.03125 45.53125 
Q 48.578125 48.25 48.578125 53.8125 
Q 48.578125 59.328125 45.03125 62.0625 
Q 41.5 64.796875 34.28125 64.796875 
z
M 9.8125 72.90625 
L 35.015625 72.90625 
Q 46.296875 72.90625 52.390625 68.21875 
Q 58.5 63.53125 58.5 54.890625 
Q 58.5 48.1875 55.375 44.234375 
Q 52.25 40.28125 46.1875 39.3125 
Q 53.46875 37.75 57.5 32.78125 
Q 61.53125 27.828125 61.53125 20.40625 
Q 61.53125 10.640625 54.890625 5.3125 
Q 48.25 0 35.984375 0 
L 9.8125 0 
z
" id="DejaVuSans-42"/>
    </defs>
    <g transform="translate(127.745 55.849)scale(0.16 -0.16)">
     <use xlink:href="#DejaVuSans-42"/>
    </g>
   </g>
  </g>
 </g>
 <defs>
  <clipPath id="p6ab1e453d4">
   <rect height="103.788" width="122.31" x="10.7" y="10.7"/>
  </clipPath>
 </defs>
</svg>
