<?xml version="1.0" encoding="utf-8" standalone="no"?>
<!DOCTYPE svg PUBLIC "-//W3C//DTD SVG 1.1//EN"
  "http://www.w3.org/Graphics/SVG/1.1/DTD/svg11.dtd">
<!-- Created with matplotlib (https://matplotlib.org/) -->
<svg height="132.869125pt" version="1.1" viewBox="0 0 250.224375 132.869125" width="250.224375pt" xmlns="http://www.w3.org/2000/svg" xmlns:xlink="http://www.w3.org/1999/xlink">
 <defs>
  <style type="text/css">
*{stroke-linecap:butt;stroke-linejoin:round;white-space:pre;}
  </style>
 </defs>
 <g id="figure_1">
  <g id="patch_1">
   <path d="M 0 132.869125 
L 250.224375 132.869125 
L 250.224375 0 
L 0 0 
z
" style="fill:none;"/>
  </g>
  <g id="axes_1">
   <g id="patch_2">
    <path clip-path="url(#p77d66c12a9)" d="M 45.124375 85.009375 
C 49.420665 85.009375 53.541569 83.39727 56.579505 80.528109 
C 59.617441 77.658947 61.324375 73.766982 61.324375 69.709375 
C 61.324375 65.651768 59.617441 61.759803 56.579505 58.890641 
C 53.541569 56.02148 49.420665 54.409375 45.124375 54.409375 
C 40.828085 54.409375 36.707181 56.02148 33.669245 58.890641 
C 30.631309 61.759803 28.924375 65.651768 28.924375 69.709375 
C 28.924375 73.766982 30.631309 77.658947 33.669245 80.528109 
C 36.707181 83.39727 40.828085 85.009375 45.124375 85.009375 
z
" style="fill:none;stroke:#000000;stroke-linejoin:miter;stroke-width:2;"/>
   </g>
   <g id="patch_3">
    <path clip-path="url(#p77d66c12a9)" d="M 129.162857 37.631689 
C 126.756026 37.45355 124.318713 37.732809 122.165848 38.433383 
C 120.012982 39.133957 118.241462 40.224313 117.08019 41.563565 
" style="fill:none;stroke:#000000;stroke-linejoin:miter;stroke-width:2;"/>
   </g>
   <g id="patch_4">
    <path clip-path="url(#p77d66c12a9)" d="M 130.984375 54.409375 
C 132.015485 54.409375 133.004502 54.02247 133.733606 53.333871 
C 134.462711 52.645272 134.872375 51.711201 134.872375 50.737375 
C 134.872375 49.763549 134.462711 48.829478 133.733606 48.140879 
C 133.004502 47.45228 132.015485 47.065375 130.984375 47.065375 
C 129.953265 47.065375 128.964248 47.45228 128.235144 48.140879 
C 127.506039 48.829478 127.096375 49.763549 127.096375 50.737375 
C 127.096375 51.711201 127.506039 52.645272 128.235144 53.333871 
C 128.964248 54.02247 129.953265 54.409375 130.984375 54.409375 
z
" style="fill:none;stroke:#000000;stroke-linejoin:miter;stroke-width:2;"/>
   </g>
   <g id="patch_5">
    <path clip-path="url(#p77d66c12a9)" d="M 143.944375 31.153375 
C 144.975485 31.153375 145.964502 30.76647 146.693606 30.077871 
C 147.422711 29.389272 147.832375 28.455201 147.832375 27.481375 
C 147.832375 26.507549 147.422711 25.573478 146.693606 24.884879 
C 145.964502 24.19628 144.975485 23.809375 143.944375 23.809375 
C 142.913265 23.809375 141.924248 24.19628 141.195144 24.884879 
C 140.466039 25.573478 140.056375 26.507549 140.056375 27.481375 
C 140.056375 28.455201 140.466039 29.389272 141.195144 30.077871 
C 141.924248 30.76647 142.913265 31.153375 143.944375 31.153375 
z
" style="fill:none;stroke:#000000;stroke-linejoin:miter;stroke-width:2;"/>
   </g>
   <g id="patch_6">
    <path clip-path="url(#p77d66c12a9)" d="M 118.024375 31.153375 
C 119.055485 31.153375 120.044502 30.76647 120.773606 30.077871 
C 121.502711 29.389272 121.912375 28.455201 121.912375 27.481375 
C 121.912375 26.507549 121.502711 25.573478 120.773606 24.884879 
C 120.044502 24.19628 119.055485 23.809375 118.024375 23.809375 
C 116.993265 23.809375 116.004248 24.19628 115.275144 24.884879 
C 114.546039 25.573478 114.136375 26.507549 114.136375 27.481375 
C 114.136375 28.455201 114.546039 29.389272 115.275144 30.077871 
C 116.004248 30.76647 116.993265 31.153375 118.024375 31.153375 
z
" style="fill:none;stroke:#000000;stroke-linejoin:miter;stroke-width:2;"/>
   </g>
   <g id="patch_7">
    <path clip-path="url(#p77d66c12a9)" d="M 130.984375 117.904375 
C 131.628819 117.904375 132.246954 117.662559 132.702644 117.232185 
C 133.158335 116.801811 133.414375 116.218016 133.414375 115.609375 
C 133.414375 115.000734 133.158335 114.416939 132.702644 113.986565 
C 132.246954 113.556191 131.628819 113.314375 130.984375 113.314375 
C 130.339931 113.314375 129.721796 113.556191 129.266106 113.986565 
C 128.810415 114.416939 128.554375 115.000734 128.554375 115.609375 
C 128.554375 116.218016 128.810415 116.801811 129.266106 117.232185 
C 129.721796 117.662559 130.339931 117.904375 130.984375 117.904375 
z
" style="stroke:#000000;stroke-linejoin:miter;stroke-width:2;"/>
   </g>
   <g id="patch_8">
    <path clip-path="url(#p77d66c12a9)" d="M 137.52925 38.560531 
L 129.200945 39.946719 
L 129.48275 37.682609 
L 129.160965 37.646884 
L 129.164748 37.616493 
L 129.486532 37.652218 
L 129.768337 35.388107 
z
" style="stroke:#000000;stroke-linejoin:miter;"/>
   </g>
   <g id="line2d_1">
    <path clip-path="url(#p77d66c12a9)" d="M 48.364375 77.359375 
L 41.884375 77.359375 
" style="fill:none;stroke:#000000;stroke-linecap:round;stroke-width:2;"/>
   </g>
   <g id="line2d_2">
    <path clip-path="url(#p77d66c12a9)" d="M 45.124375 65.119375 
L 45.124375 58.999375 
" style="fill:none;stroke:#000000;stroke-linecap:round;stroke-width:2;"/>
   </g>
   <g id="line2d_3">
    <path clip-path="url(#p77d66c12a9)" d="M 48.364375 62.059375 
L 41.884375 62.059375 
" style="fill:none;stroke:#000000;stroke-linecap:round;stroke-width:2;"/>
   </g>
   <g id="line2d_4">
    <path clip-path="url(#p77d66c12a9)" d="M 45.124375 115.609375 
L 45.124375 85.009375 
L 45.124375 85.009375 
M 45.124375 54.409375 
L 45.124375 54.409375 
L 45.124375 23.809375 
" style="fill:none;stroke:#000000;stroke-linecap:round;stroke-width:2;"/>
   </g>
   <g id="line2d_5">
    <path clip-path="url(#p77d66c12a9)" d="M 45.124375 23.809375 
L 81.574375 23.809375 
L 118.024375 23.809375 
" style="fill:none;stroke:#000000;stroke-linecap:round;stroke-width:2;"/>
   </g>
   <g id="line2d_6">
    <path clip-path="url(#p77d66c12a9)" d="M 130.984375 54.409375 
M 127.744375 47.065375 
L 122.884375 32.989375 
M 118.024375 23.809375 
" style="fill:none;stroke:#000000;stroke-linecap:round;stroke-width:2;"/>
   </g>
   <g id="line2d_7">
    <path clip-path="url(#p77d66c12a9)" d="M 143.944375 23.809375 
L 180.394375 23.809375 
L 216.844375 23.809375 
" style="fill:none;stroke:#000000;stroke-linecap:round;stroke-width:2;"/>
   </g>
   <g id="line2d_8">
    <path clip-path="url(#p77d66c12a9)" d="M 216.844375 23.809375 
L 216.844375 54.409375 
L 224.944375 56.959375 
L 208.744375 62.059375 
L 224.944375 67.159375 
L 208.744375 72.259375 
L 224.944375 77.359375 
L 208.744375 82.459375 
L 216.844375 85.009375 
L 216.844375 115.609375 
" style="fill:none;stroke:#000000;stroke-linecap:round;stroke-width:2;"/>
   </g>
   <g id="line2d_9">
    <path clip-path="url(#p77d66c12a9)" d="M 216.844375 115.609375 
L 130.984375 115.609375 
L 45.124375 115.609375 
" style="fill:none;stroke:#000000;stroke-linecap:round;stroke-width:2;"/>
   </g>
   <g id="line2d_10">
    <path clip-path="url(#p77d66c12a9)" d="M 130.984375 54.409375 
L 130.984375 82.255375 
M 139.084375 82.255375 
L 122.884375 82.255375 
M 139.084375 87.763375 
L 122.884375 87.763375 
M 130.984375 87.763375 
L 130.984375 115.609375 
" style="fill:none;stroke:#000000;stroke-linecap:round;stroke-width:2;"/>
   </g>
   <g id="line2d_11">
    <path clip-path="url(#p77d66c12a9)" d="M 130.984375 115.609375 
" style="fill:none;stroke:#000000;stroke-linecap:round;stroke-width:2;"/>
   </g>
   <g id="text_1">
    <!-- 5V -->
    <defs>
     <path d="M 10.796875 72.90625 
L 49.515625 72.90625 
L 49.515625 64.59375 
L 19.828125 64.59375 
L 19.828125 46.734375 
Q 21.96875 47.46875 24.109375 47.828125 
Q 26.265625 48.1875 28.421875 48.1875 
Q 40.625 48.1875 47.75 41.5 
Q 54.890625 34.8125 54.890625 23.390625 
Q 54.890625 11.625 47.5625 5.09375 
Q 40.234375 -1.421875 26.90625 -1.421875 
Q 22.3125 -1.421875 17.546875 -0.640625 
Q 12.796875 0.140625 7.71875 1.703125 
L 7.71875 11.625 
Q 12.109375 9.234375 16.796875 8.0625 
Q 21.484375 6.890625 26.703125 6.890625 
Q 35.15625 6.890625 40.078125 11.328125 
Q 45.015625 15.765625 45.015625 23.390625 
Q 45.015625 31 40.078125 35.4375 
Q 35.15625 39.890625 26.703125 39.890625 
Q 22.75 39.890625 18.8125 39.015625 
Q 14.890625 38.140625 10.796875 36.28125 
z
" id="DejaVuSans-53"/>
     <path d="M 28.609375 0 
L 0.78125 72.90625 
L 11.078125 72.90625 
L 34.1875 11.53125 
L 57.328125 72.90625 
L 67.578125 72.90625 
L 39.796875 0 
z
" id="DejaVuSans-86"/>
    </defs>
    <g transform="translate(7.2 73.5725)scale(0.14 -0.14)">
     <use xlink:href="#DejaVuSans-53"/>
     <use x="63.623047" xlink:href="#DejaVuSans-86"/>
    </g>
   </g>
   <g id="text_2">
    <!-- $t=0$ -->
    <defs>
     <path d="M 18.3125 70.21875 
L 18.3125 54.6875 
L 36.8125 54.6875 
L 36.8125 47.703125 
L 18.3125 47.703125 
L 18.3125 18.015625 
Q 18.3125 11.328125 20.140625 9.421875 
Q 21.96875 7.515625 27.59375 7.515625 
L 36.8125 7.515625 
L 36.8125 0 
L 27.59375 0 
Q 17.1875 0 13.234375 3.875 
Q 9.28125 7.765625 9.28125 18.015625 
L 9.28125 47.703125 
L 2.6875 47.703125 
L 2.6875 54.6875 
L 9.28125 54.6875 
L 9.28125 70.21875 
z
" id="DejaVuSans-116"/>
     <path d="M 10.59375 45.40625 
L 73.1875 45.40625 
L 73.1875 37.203125 
L 10.59375 37.203125 
z
M 10.59375 25.484375 
L 73.1875 25.484375 
L 73.1875 17.1875 
L 10.59375 17.1875 
z
" id="DejaVuSans-61"/>
     <path d="M 31.78125 66.40625 
Q 24.171875 66.40625 20.328125 58.90625 
Q 16.5 51.421875 16.5 36.375 
Q 16.5 21.390625 20.328125 13.890625 
Q 24.171875 6.390625 31.78125 6.390625 
Q 39.453125 6.390625 43.28125 13.890625 
Q 47.125 21.390625 47.125 36.375 
Q 47.125 51.421875 43.28125 58.90625 
Q 39.453125 66.40625 31.78125 66.40625 
z
M 31.78125 74.21875 
Q 44.046875 74.21875 50.515625 64.515625 
Q 56.984375 54.828125 56.984375 36.375 
Q 56.984375 17.96875 50.515625 8.265625 
Q 44.046875 -1.421875 31.78125 -1.421875 
Q 19.53125 -1.421875 13.0625 8.265625 
Q 6.59375 17.96875 6.59375 36.375 
Q 6.59375 54.828125 13.0625 64.515625 
Q 19.53125 74.21875 31.78125 74.21875 
z
" id="DejaVuSans-48"/>
    </defs>
    <g transform="translate(111.924375 17.837812)scale(0.14 -0.14)">
     <use transform="translate(0 0.78125)" xlink:href="#DejaVuSans-116"/>
     <use transform="translate(58.691406 0.78125)" xlink:href="#DejaVuSans-61"/>
     <use transform="translate(161.962891 0.78125)" xlink:href="#DejaVuSans-48"/>
    </g>
   </g>
   <g id="text_3">
    <!-- $100\Omega$ -->
    <defs>
     <path d="M 12.40625 8.296875 
L 28.515625 8.296875 
L 28.515625 63.921875 
L 10.984375 60.40625 
L 10.984375 69.390625 
L 28.421875 72.90625 
L 38.28125 72.90625 
L 38.28125 8.296875 
L 54.390625 8.296875 
L 54.390625 0 
L 12.40625 0 
z
" id="DejaVuSans-49"/>
     <path d="M 72.609375 8.6875 
L 72.609375 0 
L 43.3125 0 
L 43.3125 8.6875 
Q 51.953125 13.421875 56.78125 21.53125 
Q 61.625 29.640625 61.625 39.5 
Q 61.625 51.21875 55.171875 58.296875 
Q 48.734375 65.375 38.1875 65.375 
Q 27.640625 65.375 21.171875 58.265625 
Q 14.703125 51.171875 14.703125 39.5 
Q 14.703125 29.640625 19.53125 21.53125 
Q 24.421875 13.421875 33.109375 8.6875 
L 33.109375 0 
L 3.8125 0 
L 3.8125 8.6875 
L 19.390625 8.6875 
Q 11.671875 15.484375 8.109375 22.75 
Q 4.59375 30.03125 4.59375 39.015625 
Q 4.59375 54.546875 13.96875 64.15625 
Q 23.296875 73.78125 38.1875 73.78125 
Q 52.984375 73.78125 62.40625 64.15625 
Q 71.78125 54.59375 71.78125 39.5 
Q 71.78125 30.03125 68.3125 22.796875 
Q 64.84375 15.578125 56.984375 8.6875 
z
" id="DejaVuSans-937"/>
    </defs>
    <g transform="translate(167.984375 73.5725)scale(0.14 -0.14)">
     <use transform="translate(0 0.78125)" xlink:href="#DejaVuSans-49"/>
     <use transform="translate(63.623047 0.78125)" xlink:href="#DejaVuSans-48"/>
     <use transform="translate(127.246094 0.78125)" xlink:href="#DejaVuSans-48"/>
     <use transform="translate(190.869141 0.78125)" xlink:href="#DejaVuSans-937"/>
    </g>
   </g>
   <g id="text_4">
    <!-- + -->
    <defs>
     <path d="M 46 62.703125 
L 46 35.5 
L 73.1875 35.5 
L 73.1875 27.203125 
L 46 27.203125 
L 46 0 
L 37.796875 0 
L 37.796875 27.203125 
L 10.59375 27.203125 
L 10.59375 35.5 
L 37.796875 35.5 
L 37.796875 62.703125 
z
" id="DejaVuSans-43"/>
    </defs>
    <g transform="translate(228.184375 50.6225)scale(0.14 -0.14)">
     <use xlink:href="#DejaVuSans-43"/>
    </g>
   </g>
   <g id="text_5">
    <!-- $v_o$ -->
    <defs>
     <path d="M 2.984375 54.6875 
L 12.5 54.6875 
L 29.59375 8.796875 
L 46.6875 54.6875 
L 56.203125 54.6875 
L 35.6875 0 
L 23.484375 0 
z
" id="DejaVuSans-118"/>
     <path d="M 30.609375 48.390625 
Q 23.390625 48.390625 19.1875 42.75 
Q 14.984375 37.109375 14.984375 27.296875 
Q 14.984375 17.484375 19.15625 11.84375 
Q 23.34375 6.203125 30.609375 6.203125 
Q 37.796875 6.203125 41.984375 11.859375 
Q 46.1875 17.53125 46.1875 27.296875 
Q 46.1875 37.015625 41.984375 42.703125 
Q 37.796875 48.390625 30.609375 48.390625 
z
M 30.609375 56 
Q 42.328125 56 49.015625 48.375 
Q 55.71875 40.765625 55.71875 27.296875 
Q 55.71875 13.875 49.015625 6.21875 
Q 42.328125 -1.421875 30.609375 -1.421875 
Q 18.84375 -1.421875 12.171875 6.21875 
Q 5.515625 13.875 5.515625 27.296875 
Q 5.515625 40.765625 12.171875 48.375 
Q 18.84375 56 30.609375 56 
z
" id="DejaVuSans-111"/>
    </defs>
    <g transform="translate(228.184375 73.5725)scale(0.14 -0.14)">
     <use transform="translate(0 0.3125)" xlink:href="#DejaVuSans-118"/>
     <use transform="translate(60.136719 -16.09375)scale(0.7)" xlink:href="#DejaVuSans-111"/>
    </g>
   </g>
   <g id="text_6">
    <!-- - -->
    <defs>
     <path d="M 4.890625 31.390625 
L 31.203125 31.390625 
L 31.203125 23.390625 
L 4.890625 23.390625 
z
" id="DejaVuSans-45"/>
    </defs>
    <g transform="translate(228.184375 96.5225)scale(0.14 -0.14)">
     <use xlink:href="#DejaVuSans-45"/>
    </g>
   </g>
   <g id="text_7">
    <!-- 1$\mu$F -->
    <defs>
     <path d="M 8.5 -20.796875 
L 8.5 54.6875 
L 17.484375 54.6875 
L 17.484375 20.703125 
Q 17.484375 13.625 20.84375 10 
Q 24.21875 6.390625 30.8125 6.390625 
Q 38.03125 6.390625 41.671875 10.484375 
Q 45.3125 14.59375 45.3125 22.796875 
L 45.3125 54.6875 
L 54.296875 54.6875 
L 54.296875 12.59375 
Q 54.296875 9.671875 55.140625 8.28125 
Q 56 6.890625 57.8125 6.890625 
Q 58.25 6.890625 59.03125 7.15625 
Q 59.8125 7.421875 61.1875 8.015625 
L 61.1875 0.78125 
Q 59.1875 -0.34375 57.390625 -0.875 
Q 55.609375 -1.421875 53.90625 -1.421875 
Q 50.53125 -1.421875 48.53125 0.484375 
Q 46.53125 2.390625 45.796875 6.296875 
Q 43.359375 2.4375 39.8125 0.5 
Q 36.28125 -1.421875 31.5 -1.421875 
Q 26.515625 -1.421875 23.015625 0.484375 
Q 19.53125 2.390625 17.484375 6.203125 
L 17.484375 -20.796875 
z
" id="DejaVuSans-956"/>
     <path d="M 9.8125 72.90625 
L 51.703125 72.90625 
L 51.703125 64.59375 
L 19.671875 64.59375 
L 19.671875 43.109375 
L 48.578125 43.109375 
L 48.578125 34.8125 
L 19.671875 34.8125 
L 19.671875 0 
L 9.8125 0 
z
" id="DejaVuSans-70"/>
    </defs>
    <g transform="translate(93.744375 88.844062)scale(0.14 -0.14)">
     <use transform="translate(0 0.09375)" xlink:href="#DejaVuSans-49"/>
     <use transform="translate(63.623047 0.09375)" xlink:href="#DejaVuSans-956"/>
     <use transform="translate(127.246094 0.09375)" xlink:href="#DejaVuSans-70"/>
    </g>
   </g>
  </g>
 </g>
 <defs>
  <clipPath id="p77d66c12a9">
   <rect height="109.6245" width="222.102" x="15.883375" y="16.044625"/>
  </clipPath>
 </defs>
</svg>
