<?xml version="1.0" encoding="utf-8" standalone="no"?>
<!DOCTYPE svg PUBLIC "-//W3C//DTD SVG 1.1//EN"
  "http://www.w3.org/Graphics/SVG/1.1/DTD/svg11.dtd">
<!-- Created with matplotlib (https://matplotlib.org/) -->
<svg height="172.2362pt" version="1.1" viewBox="0 0 269.248058 172.2362" width="269.248058pt" xmlns="http://www.w3.org/2000/svg" xmlns:xlink="http://www.w3.org/1999/xlink">
 <defs>
  <style type="text/css">
*{stroke-linecap:butt;stroke-linejoin:round;}
  </style>
 </defs>
 <g id="figure_1">
  <g id="patch_1">
   <path d="M 0 172.2362 
L 1 172.267636 
L 2 172.304577 
L 3 172.402323 
L 4 172.434845 
L 5 172.50847 
L 6 172.547035 
L 7 172.582448 
L 8 172.640088 
L 9 172.710474 
L 10 172.762439 
L 11 172.821528 
L 12 172.909849 
L 13 172.955994 
L 14 172.998405 
L 15 173.028897 
L 16 173.054942 
L 17 173.076142 
L 18 173.130443 
L 19 173.158381 
L 20 173.188105 
L 21 173.2135 
L 22 173.2247 
L 23 173.234824 
L 24 173.23462 
L 25 173.22511 
L 26 173.213456 
L 27 173.182427 
L 28 173.171259 
L 29 173.141142 
L 30 173.081365 
L 31 173.044173 
L 32 173.005077 
L 33 172.962637 
L 34 172.929872 
L 35 172.862446 
L 36 172.82332 
L 37 172.780645 
L 38 172.710065 
L 39 172.673674 
L 40 172.615271 
L 41 172.504318 
L 42 172.43366 
L 43 172.32072 
L 44 172.274947 
L 45 172.213664 
L 46 172.165165 
L 47 172.084342 
L 48 171.965823 
L 49 171.895612 
L 50 171.81235 
L 51 171.779208 
L 52 171.727971 
L 53 171.659572 
L 54 171.593357 
L 55 171.51644 
L 56 171.489124 
L 57 171.462647 
L 58 171.439996 
L 59 171.420465 
L 60 171.394071 
L 61 171.3443 
L 62 171.309227 
L 63 171.273361 
L 64 171.257994 
L 65 171.242225 
L 66 171.238812 
L 67 171.236395 
L 68 171.236881 
L 69 171.23881 
L 70 171.252067 
L 71 171.260458 
L 72 171.281994 
L 73 171.305027 
L 74 171.32226 
L 75 171.340723 
L 76 171.361175 
L 77 171.377775 
L 78 171.440554 
L 79 171.515819 
L 80 171.548458 
L 81 171.616022 
L 82 171.670069 
L 83 171.703773 
L 84 171.793899 
L 85 171.822434 
L 86 171.85392 
L 87 171.884931 
L 88 171.939739 
L 89 172.004326 
L 90 172.042522 
L 91 172.138456 
L 92 172.187714 
L 93 172.231783 
L 94 172.271907 
L 95 172.380274 
L 96 172.421902 
L 97 172.484044 
L 98 172.554006 
L 99 172.65851 
L 100 172.695498 
L 101 172.741375 
L 102 172.80987 
L 103 172.858616 
L 104 172.936213 
L 105 172.966754 
L 106 173.036268 
L 107 173.060241 
L 108 173.088863 
L 109 173.130656 
L 110 173.152232 
L 111 173.16618 
L 112 173.192902 
L 113 173.202212 
L 114 173.214659 
L 115 173.225714 
L 116 173.231378 
L 117 173.236142 
L 118 173.230594 
L 119 173.217306 
L 120 173.209789 
L 121 173.185004 
L 122 173.161435 
L 123 173.125255 
L 124 173.099293 
L 125 173.076971 
L 126 173.008211 
L 127 172.933676 
L 128 172.839697 
L 129 172.788645 
L 130 172.734711 
L 131 172.69946 
L 132 172.593372 
L 133 172.541108 
L 134 172.504201 
L 135 172.47317 
L 136 172.412015 
L 137 172.344595 
L 138 172.295689 
L 139 172.230497 
L 140 172.192309 
L 141 172.150313 
L 142 172.108296 
L 143 172.04878 
L 144 171.93562 
L 145 171.883369 
L 146 171.843951 
L 147 171.79685 
L 148 171.74007 
L 149 171.707407 
L 150 171.671229 
L 151 171.639139 
L 152 171.604859 
L 153 171.546481 
L 154 171.501296 
L 155 171.471672 
L 156 171.421286 
L 157 171.396089 
L 158 171.375038 
L 159 171.34007 
L 160 171.31578 
L 161 171.301713 
L 162 171.282771 
L 163 171.26711 
L 164 171.254558 
L 165 171.248722 
L 166 171.24184 
L 167 171.236666 
L 168 171.238449 
L 169 171.241174 
L 170 171.252328 
L 171 171.280563 
L 172 171.324351 
L 173 171.34504 
L 174 171.386013 
L 175 171.426088 
L 176 171.445198 
L 177 171.467707 
L 178 171.534358 
L 179 171.584068 
L 180 171.657774 
L 181 171.689088 
L 182 171.76571 
L 183 171.804008 
L 184 171.878125 
L 185 171.982183 
L 186 172.052014 
L 187 172.157248 
L 188 172.212263 
L 189 172.335738 
L 190 172.406297 
L 191 172.522136 
L 192 172.572317 
L 193 172.607921 
L 194 172.699328 
L 195 172.752836 
L 196 172.840744 
L 197 172.909929 
L 198 172.956693 
L 199 173.028737 
L 200 173.078879 
L 201 173.096269 
L 202 173.123272 
L 203 173.142699 
L 204 173.162037 
L 205 173.200286 
L 206 173.216719 
L 207 173.225088 
L 208 173.229407 
L 209 173.235962 
L 210 173.233416 
L 211 173.227957 
L 212 173.211529 
L 213 173.179594 
L 214 173.141614 
L 215 173.10681 
L 216 173.043738 
L 217 173.022311 
L 218 172.971693 
L 219 172.946736 
L 220 172.891102 
L 221 172.859873 
L 222 172.809729 
L 223 172.777236 
L 224 172.696824 
L 225 172.627898 
L 226 172.512201 
L 227 172.436722 
L 228 172.321197 
L 229 172.241713 
L 230 172.133272 
L 231 172.093904 
L 232 171.991036 
L 233 171.891238 
L 234 171.845741 
L 235 171.811419 
L 236 171.759463 
L 237 171.719816 
L 238 171.684302 
L 239 171.616657 
L 240 171.577575 
L 241 171.527094 
L 242 171.477788 
L 243 171.426718 
L 244 171.382479 
L 245 171.360459 
L 246 171.344903 
L 247 171.302456 
L 248 171.287588 
L 249 171.26486 
L 250 171.244544 
L 251 171.238747 
L 252 171.236265 
L 253 171.239322 
L 254 171.250918 
L 255 171.267838 
L 256 171.299499 
L 257 171.313582 
L 258 171.366254 
L 259 171.415343 
L 260 171.470044 
L 261 171.514392 
L 262 171.584384 
L 263 171.634767 
L 264 171.688674 
L 265 171.758113 
L 266 171.815501 
L 267 171.865666 
L 268 171.942828 
L 269.248058 172.001018 
L 269.073514 171.2362 
L 269.110715 170.2362 
L 269.175807 169.2362 
L 269.280937 168.2362 
L 269.341238 167.2362 
L 269.43756 166.2362 
L 269.469563 165.2362 
L 269.520581 164.2362 
L 269.637373 163.2362 
L 269.672819 162.2362 
L 269.7287 161.2362 
L 269.759075 160.2362 
L 269.847462 159.2362 
L 269.892226 158.2362 
L 269.973114 157.2362 
L 270.03326 156.2362 
L 270.096346 155.2362 
L 270.119294 154.2362 
L 270.135464 153.2362 
L 270.164393 152.2362 
L 270.194744 151.2362 
L 270.207319 150.2362 
L 270.232198 149.2362 
L 270.244282 148.2362 
L 270.248044 147.2362 
L 270.243608 146.2362 
L 270.231269 145.2362 
L 270.216856 144.2362 
L 270.200783 143.2362 
L 270.165262 142.2362 
L 270.145328 141.2362 
L 270.088738 140.2362 
L 270.021545 139.2362 
L 269.994174 138.2362 
L 269.960027 137.2362 
L 269.911346 136.2362 
L 269.863062 135.2362 
L 269.803984 134.2362 
L 269.70838 133.2362 
L 269.66524 132.2362 
L 269.615392 131.2362 
L 269.556857 130.2362 
L 269.509272 129.2362 
L 269.448144 128.2362 
L 269.392059 127.2362 
L 269.317888 126.2362 
L 269.20065 125.2362 
L 269.144926 124.2362 
L 269.0367 123.2362 
L 268.93055 122.2362 
L 268.822977 121.2362 
L 268.78847 120.2362 
L 268.685162 119.2362 
L 268.609439 118.2362 
L 268.570004 117.2362 
L 268.53062 116.2362 
L 268.508137 115.2362 
L 268.452324 114.2362 
L 268.426273 113.2362 
L 268.396038 112.2362 
L 268.345266 111.2362 
L 268.326615 110.2362 
L 268.304907 109.2362 
L 268.292261 108.2362 
L 268.273268 107.2362 
L 268.255878 106.2362 
L 268.248839 105.2362 
L 268.249864 104.2362 
L 268.256868 103.2362 
L 268.266238 102.2362 
L 268.289635 101.2362 
L 268.314719 100.2362 
L 268.327117 99.2362 
L 268.36021 98.2362 
L 268.376578 97.2362 
L 268.394983 96.2362 
L 268.44412 95.2362 
L 268.487933 94.2362 
L 268.531018 93.2362 
L 268.553959 92.2362 
L 268.594222 91.2362 
L 268.679081 90.2362 
L 268.721474 89.2362 
L 268.78586 88.2362 
L 268.830149 87.2362 
L 268.937995 86.2362 
L 269.014935 85.2362 
L 269.051376 84.2362 
L 269.106264 83.2362 
L 269.181364 82.2362 
L 269.23996 81.2362 
L 269.276535 80.2362 
L 269.388582 79.2362 
L 269.450267 78.2362 
L 269.500786 77.2362 
L 269.599571 76.2362 
L 269.637594 75.2362 
L 269.673041 74.2362 
L 269.764676 73.2362 
L 269.807948 72.2362 
L 269.861276 71.2362 
L 269.894141 70.2362 
L 269.957035 69.2362 
L 270.01089 68.2362 
L 270.068016 67.2362 
L 270.090106 66.2362 
L 270.133845 65.2362 
L 270.180939 64.2362 
L 270.197786 63.2362 
L 270.225859 62.2362 
L 270.236855 61.2362 
L 270.241425 60.2362 
L 270.247073 59.2362 
L 270.247124 58.2362 
L 270.244034 57.2362 
L 270.240521 56.2362 
L 270.234699 55.2362 
L 270.221847 54.2362 
L 270.198222 53.2362 
L 270.183337 52.2362 
L 270.159766 51.2362 
L 270.123447 50.2362 
L 270.091863 49.2362 
L 270.061971 48.2362 
L 269.983278 47.2362 
L 269.946728 46.2362 
L 269.921004 45.2362 
L 269.850332 44.2362 
L 269.75923 43.2362 
L 269.697273 42.2362 
L 269.66366 41.2362 
L 269.629159 40.2362 
L 269.53172 39.2362 
L 269.48413 38.2362 
L 269.452624 37.2362 
L 269.408939 36.2362 
L 269.33877 35.2362 
L 269.288903 34.2362 
L 269.254226 33.2362 
L 269.144577 32.2362 
L 269.111106 31.2362 
L 269.073764 30.2362 
L 268.99352 29.2362 
L 268.955026 28.2362 
L 268.913249 27.2362 
L 268.870824 26.2362 
L 268.761096 25.2362 
L 268.672811 24.2362 
L 268.598165 23.2362 
L 268.509707 22.2362 
L 268.435646 21.2362 
L 268.38648 20.2362 
L 268.330863 19.2362 
L 268.296164 18.2362 
L 268.284292 17.2362 
L 268.262069 16.2362 
L 268.250091 15.2362 
L 268.248339 14.2362 
L 268.253756 13.2362 
L 268.269954 12.2362 
L 268.286453 11.2362 
L 268.317637 10.2362 
L 268.331002 9.2362 
L 268.360644 8.2362 
L 268.423668 7.2362 
L 268.472989 6.2362 
L 268.519077 5.2362 
L 268.601305 4.2362 
L 268.647208 3.2362 
L 268.681533 2.2362 
L 268.735072 1.2362 
L 268.823958 0 
L 268.248058 0.392961 
L 267.248058 0.284912 
L 266.248058 0.17284 
L 265.248058 0.137402 
L 264.248058 0.052616 
L 263.248058 -0.012991 
L 262.248058 -0.115045 
L 261.248058 -0.23126 
L 260.248058 -0.271951 
L 259.248058 -0.31304 
L 258.248058 -0.349681 
L 257.248058 -0.390677 
L 256.248058 -0.466746 
L 255.248058 -0.542812 
L 254.248058 -0.5735 
L 253.248058 -0.599991 
L 252.248058 -0.656572 
L 251.248058 -0.701088 
L 250.248058 -0.731106 
L 249.248058 -0.758162 
L 248.248058 -0.800727 
L 247.248058 -0.853592 
L 246.248058 -0.884513 
L 245.248058 -0.910788 
L 244.248058 -0.925721 
L 243.248058 -0.95601 
L 242.248058 -0.977339 
L 241.248058 -0.994228 
L 240.248058 -0.998943 
L 239.248058 -0.999553 
L 238.248058 -0.997507 
L 237.248058 -0.991646 
L 236.248058 -0.972999 
L 235.248058 -0.940942 
L 234.248058 -0.894502 
L 233.248058 -0.852556 
L 232.248058 -0.785851 
L 231.248058 -0.716785 
L 230.248058 -0.66941 
L 229.248058 -0.617891 
L 228.248058 -0.578191 
L 227.248058 -0.508771 
L 226.248058 -0.44224 
L 225.248058 -0.333331 
L 224.248058 -0.268083 
L 223.248058 -0.159875 
L 222.248058 -0.098871 
L 221.248058 -0.050186 
L 220.248058 0.026048 
L 219.248058 0.085579 
L 218.248058 0.160207 
L 217.248058 0.279034 
L 216.248058 0.376979 
L 215.248058 0.456027 
L 214.248058 0.501774 
L 213.248058 0.529046 
L 212.248058 0.572708 
L 211.248058 0.621292 
L 210.248058 0.653026 
L 209.248058 0.733256 
L 208.248058 0.799749 
L 207.248058 0.823774 
L 206.248058 0.884273 
L 205.248058 0.906505 
L 204.248058 0.925105 
L 203.248058 0.954431 
L 202.248058 0.970132 
L 201.248058 0.978431 
L 200.248058 0.988667 
L 199.248058 0.99901 
L 198.248058 0.998332 
L 197.248058 0.994552 
L 196.248058 0.978111 
L 195.248058 0.965977 
L 194.248058 0.955382 
L 193.248058 0.924005 
L 192.248058 0.898232 
L 191.248058 0.866823 
L 190.248058 0.844014 
L 189.248058 0.82642 
L 188.248058 0.776608 
L 187.248058 0.728948 
L 186.248058 0.657239 
L 185.248058 0.601476 
L 184.248058 0.575278 
L 183.248058 0.54451 
L 182.248058 0.454752 
L 181.248058 0.369958 
L 180.248058 0.304364 
L 179.248058 0.258539 
L 178.248058 0.215542 
L 177.248058 0.154029 
L 176.248058 0.054204 
L 175.248058 0.009774 
L 174.248058 -0.040276 
L 173.248058 -0.162117 
L 172.248058 -0.22181 
L 171.248058 -0.253376 
L 170.248058 -0.285719 
L 169.248058 -0.340279 
L 168.248058 -0.382779 
L 167.248058 -0.434251 
L 166.248058 -0.522636 
L 165.248058 -0.556833 
L 164.248058 -0.600767 
L 163.248058 -0.66448 
L 162.248058 -0.739677 
L 161.248058 -0.768491 
L 160.248058 -0.810695 
L 159.248058 -0.85328 
L 158.248058 -0.870172 
L 157.248058 -0.892653 
L 156.248058 -0.93499 
L 155.248058 -0.96495 
L 154.248058 -0.983583 
L 153.248058 -0.993375 
L 152.248058 -0.997138 
L 151.248058 -0.999976 
L 150.248058 -0.998227 
L 149.248058 -0.988871 
L 148.248058 -0.978174 
L 147.248058 -0.968304 
L 146.248058 -0.949446 
L 145.248058 -0.919107 
L 144.248058 -0.880716 
L 143.248058 -0.82123 
L 142.248058 -0.777941 
L 141.248058 -0.717203 
L 140.248058 -0.633129 
L 139.248058 -0.584836 
L 138.248058 -0.541259 
L 137.248058 -0.514378 
L 136.248058 -0.482448 
L 135.248058 -0.415256 
L 134.248058 -0.334435 
L 133.248058 -0.25889 
L 132.248058 -0.21516 
L 131.248058 -0.135265 
L 130.248058 -0.073786 
L 129.248058 -0.010161 
L 128.248058 0.097088 
L 127.248058 0.215798 
L 126.248058 0.257704 
L 125.248058 0.300658 
L 124.248058 0.362857 
L 123.248058 0.392994 
L 122.248058 0.425512 
L 121.248058 0.477447 
L 120.248058 0.582997 
L 119.248058 0.631443 
L 118.248058 0.677767 
L 117.248058 0.711583 
L 116.248058 0.75946 
L 115.248058 0.814338 
L 114.248058 0.838249 
L 113.248058 0.864286 
L 112.248058 0.920403 
L 111.248058 0.934277 
L 110.248058 0.960311 
L 109.248058 0.987057 
L 108.248058 0.994803 
L 107.248058 0.999956 
L 106.248058 0.993758 
L 105.248058 0.987451 
L 104.248058 0.97987 
L 103.248058 0.952364 
L 102.248058 0.908131 
L 101.248058 0.878593 
L 100.248058 0.836746 
L 99.248058 0.777572 
L 98.248058 0.754862 
L 97.248058 0.71823 
L 96.248058 0.661442 
L 95.248058 0.636272 
L 94.248058 0.553576 
L 93.248058 0.466644 
L 92.248058 0.41596 
L 91.248058 0.378566 
L 90.248058 0.294186 
L 89.248058 0.259675 
L 88.248058 0.167684 
L 87.248058 0.080659 
L 86.248058 -0.042481 
L 85.248058 -0.08035 
L 84.248058 -0.127825 
L 83.248058 -0.233351 
L 82.248058 -0.330812 
L 81.248058 -0.407449 
L 80.248058 -0.439376 
L 79.248058 -0.493616 
L 78.248058 -0.532467 
L 77.248058 -0.606172 
L 76.248058 -0.638168 
L 75.248058 -0.694707 
L 74.248058 -0.730823 
L 73.248058 -0.799425 
L 72.248058 -0.830841 
L 71.248058 -0.885508 
L 70.248058 -0.904279 
L 69.248058 -0.949908 
L 68.248058 -0.972811 
L 67.248058 -0.981352 
L 66.248058 -0.988693 
L 65.248058 -0.994988 
L 64.248058 -0.998165 
L 63.248058 -0.999751 
L 62.248058 -0.998288 
L 61.248058 -0.985334 
L 60.248058 -0.970712 
L 59.248058 -0.958856 
L 58.248058 -0.940831 
L 57.248058 -0.920453 
L 56.248058 -0.897054 
L 55.248058 -0.882145 
L 54.248058 -0.827431 
L 53.248058 -0.793834 
L 52.248058 -0.731138 
L 51.248058 -0.703763 
L 50.248058 -0.659783 
L 49.248058 -0.580836 
L 48.248058 -0.523308 
L 47.248058 -0.473329 
L 46.248058 -0.401345 
L 45.248058 -0.364813 
L 44.248058 -0.2965 
L 43.248058 -0.208294 
L 42.248058 -0.086947 
L 41.248058 -0.021266 
L 40.248058 0.012352 
L 39.248058 0.076629 
L 38.248058 0.1226 
L 37.248058 0.194757 
L 36.248058 0.234583 
L 35.248058 0.277213 
L 34.248058 0.383172 
L 33.248058 0.435957 
L 32.248058 0.515234 
L 31.248058 0.557638 
L 30.248058 0.589904 
L 29.248058 0.62477 
L 28.248058 0.667428 
L 27.248058 0.699001 
L 26.248058 0.76658 
L 25.248058 0.803465 
L 24.248058 0.831421 
L 23.248058 0.852269 
L 22.248058 0.877882 
L 21.248058 0.9155 
L 20.248058 0.930342 
L 19.248058 0.955072 
L 18.248058 0.973302 
L 17.248058 0.984709 
L 16.248058 0.990344 
L 15.248058 0.995098 
L 14.248058 0.999707 
L 13.248058 0.998034 
L 12.248058 0.992252 
L 11.248058 0.972256 
L 10.248058 0.960604 
L 9.248058 0.949615 
L 8.248058 0.936648 
L 7.248058 0.886234 
L 6.248058 0.865412 
L 5.248058 0.837465 
L 4.248058 0.78072 
L 3.248058 0.758076 
L 2.248058 0.706673 
L 1.248058 0.665537 
L 0 0.582768 
L 0.534308 1 
L 0.482881 2 
L 0.431721 3 
L 0.364422 4 
L 0.331268 5 
L 0.26521 6 
L 0.209025 7 
L 0.147746 8 
L 0.107763 9 
L 0.01134 10 
L -0.10042 11 
L -0.139339 12 
L -0.237188 13 
L -0.271842 14 
L -0.355524 15 
L -0.40603 16 
L -0.475073 17 
L -0.576176 18 
L -0.628622 19 
L -0.71793 20 
L -0.782938 21 
L -0.824483 22 
L -0.866823 23 
L -0.888843 24 
L -0.92633 25 
L -0.943582 26 
L -0.96699 27 
L -0.975557 28 
L -0.984646 29 
L -0.991714 30 
L -0.998741 31 
L -0.999849 32 
L -0.999863 33 
L -0.997189 34 
L -0.994163 35 
L -0.988696 36 
L -0.968701 37 
L -0.95673 38 
L -0.929611 39 
L -0.902599 40 
L -0.875433 41 
L -0.820958 42 
L -0.791342 43 
L -0.749586 44 
L -0.676477 45 
L -0.633039 46 
L -0.562348 47 
L -0.523941 48 
L -0.463602 49 
L -0.432847 50 
L -0.402349 51 
L -0.343439 52 
L -0.300262 53 
L -0.25865 54 
L -0.209535 55 
L -0.144448 56 
L -0.078053 57 
L 0.04671 58 
L 0.090525 59 
L 0.144853 60 
L 0.251557 61 
L 0.294057 62 
L 0.331551 63 
L 0.421047 64 
L 0.47827 65 
L 0.547913 66 
L 0.596932 67 
L 0.652877 68 
L 0.700002 69 
L 0.73889 70 
L 0.792582 71 
L 0.838153 72 
L 0.87509 73 
L 0.897166 74 
L 0.930049 75 
L 0.959769 76 
L 0.972319 77 
L 0.984218 78 
L 0.989336 79 
L 0.997225 80 
L 0.999856 81 
L 0.999058 82 
L 0.995817 83 
L 0.980679 84 
L 0.973742 85 
L 0.957365 86 
L 0.938952 87 
L 0.90936 88 
L 0.887278 89 
L 0.829584 90 
L 0.804393 91 
L 0.73608 92 
L 0.688954 93 
L 0.651606 94 
L 0.596397 95 
L 0.506966 96 
L 0.403856 97 
L 0.349882 98 
L 0.319162 99 
L 0.263621 100 
L 0.225886 101 
L 0.157632 102 
L 0.121803 103 
L 0.052019 104 
L -0.007275 105 
L -0.045882 106 
L -0.079878 107 
L -0.122458 108 
L -0.169107 109 
L -0.223673 110 
L -0.309574 111 
L -0.35625 112 
L -0.413565 113 
L -0.443979 114 
L -0.52903 115 
L -0.562705 116 
L -0.650629 117 
L -0.705614 118 
L -0.744303 119 
L -0.814334 120 
L -0.84478 121 
L -0.902505 122 
L -0.919649 123 
L -0.944384 124 
L -0.959884 125 
L -0.983336 126 
L -0.99015 127 
L -0.994083 128 
L -0.997815 129 
L -0.999848 130 
L -0.991462 131 
L -0.975076 132 
L -0.948806 133 
L -0.935477 134 
L -0.905523 135 
L -0.871272 136 
L -0.850602 137 
L -0.80959 138 
L -0.736272 139 
L -0.713054 140 
L -0.672688 141 
L -0.645437 142 
L -0.564899 143 
L -0.511421 144 
L -0.43285 145 
L -0.384382 146 
L -0.270352 147 
L -0.169667 148 
L -0.085243 149 
L 0.006297 150 
L 0.10871 151 
L 0.149518 152 
L 0.192661 153 
L 0.231962 154 
L 0.265385 155 
L 0.308493 156 
L 0.414072 157 
L 0.469773 158 
L 0.5751 159 
L 0.672097 160 
L 0.695117 161 
L 0.722104 162 
L 0.752205 163 
L 0.825447 164 
L 0.862839 165 
L 0.897798 166 
L 0.916374 167 
L 0.94688 168 
L 0.959092 169 
L 0.968868 170 
L 0.978437 171 
L 0.986646 172.2362 
z
" style="fill:none;stroke:#ffffff;stroke-linejoin:miter;stroke-width:4;"/>
   <path d="M 0 172.2362 
L 1 172.267636 
L 2 172.304577 
L 3 172.402323 
L 4 172.434845 
L 5 172.50847 
L 6 172.547035 
L 7 172.582448 
L 8 172.640088 
L 9 172.710474 
L 10 172.762439 
L 11 172.821528 
L 12 172.909849 
L 13 172.955994 
L 14 172.998405 
L 15 173.028897 
L 16 173.054942 
L 17 173.076142 
L 18 173.130443 
L 19 173.158381 
L 20 173.188105 
L 21 173.2135 
L 22 173.2247 
L 23 173.234824 
L 24 173.23462 
L 25 173.22511 
L 26 173.213456 
L 27 173.182427 
L 28 173.171259 
L 29 173.141142 
L 30 173.081365 
L 31 173.044173 
L 32 173.005077 
L 33 172.962637 
L 34 172.929872 
L 35 172.862446 
L 36 172.82332 
L 37 172.780645 
L 38 172.710065 
L 39 172.673674 
L 40 172.615271 
L 41 172.504318 
L 42 172.43366 
L 43 172.32072 
L 44 172.274947 
L 45 172.213664 
L 46 172.165165 
L 47 172.084342 
L 48 171.965823 
L 49 171.895612 
L 50 171.81235 
L 51 171.779208 
L 52 171.727971 
L 53 171.659572 
L 54 171.593357 
L 55 171.51644 
L 56 171.489124 
L 57 171.462647 
L 58 171.439996 
L 59 171.420465 
L 60 171.394071 
L 61 171.3443 
L 62 171.309227 
L 63 171.273361 
L 64 171.257994 
L 65 171.242225 
L 66 171.238812 
L 67 171.236395 
L 68 171.236881 
L 69 171.23881 
L 70 171.252067 
L 71 171.260458 
L 72 171.281994 
L 73 171.305027 
L 74 171.32226 
L 75 171.340723 
L 76 171.361175 
L 77 171.377775 
L 78 171.440554 
L 79 171.515819 
L 80 171.548458 
L 81 171.616022 
L 82 171.670069 
L 83 171.703773 
L 84 171.793899 
L 85 171.822434 
L 86 171.85392 
L 87 171.884931 
L 88 171.939739 
L 89 172.004326 
L 90 172.042522 
L 91 172.138456 
L 92 172.187714 
L 93 172.231783 
L 94 172.271907 
L 95 172.380274 
L 96 172.421902 
L 97 172.484044 
L 98 172.554006 
L 99 172.65851 
L 100 172.695498 
L 101 172.741375 
L 102 172.80987 
L 103 172.858616 
L 104 172.936213 
L 105 172.966754 
L 106 173.036268 
L 107 173.060241 
L 108 173.088863 
L 109 173.130656 
L 110 173.152232 
L 111 173.16618 
L 112 173.192902 
L 113 173.202212 
L 114 173.214659 
L 115 173.225714 
L 116 173.231378 
L 117 173.236142 
L 118 173.230594 
L 119 173.217306 
L 120 173.209789 
L 121 173.185004 
L 122 173.161435 
L 123 173.125255 
L 124 173.099293 
L 125 173.076971 
L 126 173.008211 
L 127 172.933676 
L 128 172.839697 
L 129 172.788645 
L 130 172.734711 
L 131 172.69946 
L 132 172.593372 
L 133 172.541108 
L 134 172.504201 
L 135 172.47317 
L 136 172.412015 
L 137 172.344595 
L 138 172.295689 
L 139 172.230497 
L 140 172.192309 
L 141 172.150313 
L 142 172.108296 
L 143 172.04878 
L 144 171.93562 
L 145 171.883369 
L 146 171.843951 
L 147 171.79685 
L 148 171.74007 
L 149 171.707407 
L 150 171.671229 
L 151 171.639139 
L 152 171.604859 
L 153 171.546481 
L 154 171.501296 
L 155 171.471672 
L 156 171.421286 
L 157 171.396089 
L 158 171.375038 
L 159 171.34007 
L 160 171.31578 
L 161 171.301713 
L 162 171.282771 
L 163 171.26711 
L 164 171.254558 
L 165 171.248722 
L 166 171.24184 
L 167 171.236666 
L 168 171.238449 
L 169 171.241174 
L 170 171.252328 
L 171 171.280563 
L 172 171.324351 
L 173 171.34504 
L 174 171.386013 
L 175 171.426088 
L 176 171.445198 
L 177 171.467707 
L 178 171.534358 
L 179 171.584068 
L 180 171.657774 
L 181 171.689088 
L 182 171.76571 
L 183 171.804008 
L 184 171.878125 
L 185 171.982183 
L 186 172.052014 
L 187 172.157248 
L 188 172.212263 
L 189 172.335738 
L 190 172.406297 
L 191 172.522136 
L 192 172.572317 
L 193 172.607921 
L 194 172.699328 
L 195 172.752836 
L 196 172.840744 
L 197 172.909929 
L 198 172.956693 
L 199 173.028737 
L 200 173.078879 
L 201 173.096269 
L 202 173.123272 
L 203 173.142699 
L 204 173.162037 
L 205 173.200286 
L 206 173.216719 
L 207 173.225088 
L 208 173.229407 
L 209 173.235962 
L 210 173.233416 
L 211 173.227957 
L 212 173.211529 
L 213 173.179594 
L 214 173.141614 
L 215 173.10681 
L 216 173.043738 
L 217 173.022311 
L 218 172.971693 
L 219 172.946736 
L 220 172.891102 
L 221 172.859873 
L 222 172.809729 
L 223 172.777236 
L 224 172.696824 
L 225 172.627898 
L 226 172.512201 
L 227 172.436722 
L 228 172.321197 
L 229 172.241713 
L 230 172.133272 
L 231 172.093904 
L 232 171.991036 
L 233 171.891238 
L 234 171.845741 
L 235 171.811419 
L 236 171.759463 
L 237 171.719816 
L 238 171.684302 
L 239 171.616657 
L 240 171.577575 
L 241 171.527094 
L 242 171.477788 
L 243 171.426718 
L 244 171.382479 
L 245 171.360459 
L 246 171.344903 
L 247 171.302456 
L 248 171.287588 
L 249 171.26486 
L 250 171.244544 
L 251 171.238747 
L 252 171.236265 
L 253 171.239322 
L 254 171.250918 
L 255 171.267838 
L 256 171.299499 
L 257 171.313582 
L 258 171.366254 
L 259 171.415343 
L 260 171.470044 
L 261 171.514392 
L 262 171.584384 
L 263 171.634767 
L 264 171.688674 
L 265 171.758113 
L 266 171.815501 
L 267 171.865666 
L 268 171.942828 
L 269.248058 172.001018 
L 269.073514 171.2362 
L 269.110715 170.2362 
L 269.175807 169.2362 
L 269.280937 168.2362 
L 269.341238 167.2362 
L 269.43756 166.2362 
L 269.469563 165.2362 
L 269.520581 164.2362 
L 269.637373 163.2362 
L 269.672819 162.2362 
L 269.7287 161.2362 
L 269.759075 160.2362 
L 269.847462 159.2362 
L 269.892226 158.2362 
L 269.973114 157.2362 
L 270.03326 156.2362 
L 270.096346 155.2362 
L 270.119294 154.2362 
L 270.135464 153.2362 
L 270.164393 152.2362 
L 270.194744 151.2362 
L 270.207319 150.2362 
L 270.232198 149.2362 
L 270.244282 148.2362 
L 270.248044 147.2362 
L 270.243608 146.2362 
L 270.231269 145.2362 
L 270.216856 144.2362 
L 270.200783 143.2362 
L 270.165262 142.2362 
L 270.145328 141.2362 
L 270.088738 140.2362 
L 270.021545 139.2362 
L 269.994174 138.2362 
L 269.960027 137.2362 
L 269.911346 136.2362 
L 269.863062 135.2362 
L 269.803984 134.2362 
L 269.70838 133.2362 
L 269.66524 132.2362 
L 269.615392 131.2362 
L 269.556857 130.2362 
L 269.509272 129.2362 
L 269.448144 128.2362 
L 269.392059 127.2362 
L 269.317888 126.2362 
L 269.20065 125.2362 
L 269.144926 124.2362 
L 269.0367 123.2362 
L 268.93055 122.2362 
L 268.822977 121.2362 
L 268.78847 120.2362 
L 268.685162 119.2362 
L 268.609439 118.2362 
L 268.570004 117.2362 
L 268.53062 116.2362 
L 268.508137 115.2362 
L 268.452324 114.2362 
L 268.426273 113.2362 
L 268.396038 112.2362 
L 268.345266 111.2362 
L 268.326615 110.2362 
L 268.304907 109.2362 
L 268.292261 108.2362 
L 268.273268 107.2362 
L 268.255878 106.2362 
L 268.248839 105.2362 
L 268.249864 104.2362 
L 268.256868 103.2362 
L 268.266238 102.2362 
L 268.289635 101.2362 
L 268.314719 100.2362 
L 268.327117 99.2362 
L 268.36021 98.2362 
L 268.376578 97.2362 
L 268.394983 96.2362 
L 268.44412 95.2362 
L 268.487933 94.2362 
L 268.531018 93.2362 
L 268.553959 92.2362 
L 268.594222 91.2362 
L 268.679081 90.2362 
L 268.721474 89.2362 
L 268.78586 88.2362 
L 268.830149 87.2362 
L 268.937995 86.2362 
L 269.014935 85.2362 
L 269.051376 84.2362 
L 269.106264 83.2362 
L 269.181364 82.2362 
L 269.23996 81.2362 
L 269.276535 80.2362 
L 269.388582 79.2362 
L 269.450267 78.2362 
L 269.500786 77.2362 
L 269.599571 76.2362 
L 269.637594 75.2362 
L 269.673041 74.2362 
L 269.764676 73.2362 
L 269.807948 72.2362 
L 269.861276 71.2362 
L 269.894141 70.2362 
L 269.957035 69.2362 
L 270.01089 68.2362 
L 270.068016 67.2362 
L 270.090106 66.2362 
L 270.133845 65.2362 
L 270.180939 64.2362 
L 270.197786 63.2362 
L 270.225859 62.2362 
L 270.236855 61.2362 
L 270.241425 60.2362 
L 270.247073 59.2362 
L 270.247124 58.2362 
L 270.244034 57.2362 
L 270.240521 56.2362 
L 270.234699 55.2362 
L 270.221847 54.2362 
L 270.198222 53.2362 
L 270.183337 52.2362 
L 270.159766 51.2362 
L 270.123447 50.2362 
L 270.091863 49.2362 
L 270.061971 48.2362 
L 269.983278 47.2362 
L 269.946728 46.2362 
L 269.921004 45.2362 
L 269.850332 44.2362 
L 269.75923 43.2362 
L 269.697273 42.2362 
L 269.66366 41.2362 
L 269.629159 40.2362 
L 269.53172 39.2362 
L 269.48413 38.2362 
L 269.452624 37.2362 
L 269.408939 36.2362 
L 269.33877 35.2362 
L 269.288903 34.2362 
L 269.254226 33.2362 
L 269.144577 32.2362 
L 269.111106 31.2362 
L 269.073764 30.2362 
L 268.99352 29.2362 
L 268.955026 28.2362 
L 268.913249 27.2362 
L 268.870824 26.2362 
L 268.761096 25.2362 
L 268.672811 24.2362 
L 268.598165 23.2362 
L 268.509707 22.2362 
L 268.435646 21.2362 
L 268.38648 20.2362 
L 268.330863 19.2362 
L 268.296164 18.2362 
L 268.284292 17.2362 
L 268.262069 16.2362 
L 268.250091 15.2362 
L 268.248339 14.2362 
L 268.253756 13.2362 
L 268.269954 12.2362 
L 268.286453 11.2362 
L 268.317637 10.2362 
L 268.331002 9.2362 
L 268.360644 8.2362 
L 268.423668 7.2362 
L 268.472989 6.2362 
L 268.519077 5.2362 
L 268.601305 4.2362 
L 268.647208 3.2362 
L 268.681533 2.2362 
L 268.735072 1.2362 
L 268.823958 0 
L 268.248058 0.392961 
L 267.248058 0.284912 
L 266.248058 0.17284 
L 265.248058 0.137402 
L 264.248058 0.052616 
L 263.248058 -0.012991 
L 262.248058 -0.115045 
L 261.248058 -0.23126 
L 260.248058 -0.271951 
L 259.248058 -0.31304 
L 258.248058 -0.349681 
L 257.248058 -0.390677 
L 256.248058 -0.466746 
L 255.248058 -0.542812 
L 254.248058 -0.5735 
L 253.248058 -0.599991 
L 252.248058 -0.656572 
L 251.248058 -0.701088 
L 250.248058 -0.731106 
L 249.248058 -0.758162 
L 248.248058 -0.800727 
L 247.248058 -0.853592 
L 246.248058 -0.884513 
L 245.248058 -0.910788 
L 244.248058 -0.925721 
L 243.248058 -0.95601 
L 242.248058 -0.977339 
L 241.248058 -0.994228 
L 240.248058 -0.998943 
L 239.248058 -0.999553 
L 238.248058 -0.997507 
L 237.248058 -0.991646 
L 236.248058 -0.972999 
L 235.248058 -0.940942 
L 234.248058 -0.894502 
L 233.248058 -0.852556 
L 232.248058 -0.785851 
L 231.248058 -0.716785 
L 230.248058 -0.66941 
L 229.248058 -0.617891 
L 228.248058 -0.578191 
L 227.248058 -0.508771 
L 226.248058 -0.44224 
L 225.248058 -0.333331 
L 224.248058 -0.268083 
L 223.248058 -0.159875 
L 222.248058 -0.098871 
L 221.248058 -0.050186 
L 220.248058 0.026048 
L 219.248058 0.085579 
L 218.248058 0.160207 
L 217.248058 0.279034 
L 216.248058 0.376979 
L 215.248058 0.456027 
L 214.248058 0.501774 
L 213.248058 0.529046 
L 212.248058 0.572708 
L 211.248058 0.621292 
L 210.248058 0.653026 
L 209.248058 0.733256 
L 208.248058 0.799749 
L 207.248058 0.823774 
L 206.248058 0.884273 
L 205.248058 0.906505 
L 204.248058 0.925105 
L 203.248058 0.954431 
L 202.248058 0.970132 
L 201.248058 0.978431 
L 200.248058 0.988667 
L 199.248058 0.99901 
L 198.248058 0.998332 
L 197.248058 0.994552 
L 196.248058 0.978111 
L 195.248058 0.965977 
L 194.248058 0.955382 
L 193.248058 0.924005 
L 192.248058 0.898232 
L 191.248058 0.866823 
L 190.248058 0.844014 
L 189.248058 0.82642 
L 188.248058 0.776608 
L 187.248058 0.728948 
L 186.248058 0.657239 
L 185.248058 0.601476 
L 184.248058 0.575278 
L 183.248058 0.54451 
L 182.248058 0.454752 
L 181.248058 0.369958 
L 180.248058 0.304364 
L 179.248058 0.258539 
L 178.248058 0.215542 
L 177.248058 0.154029 
L 176.248058 0.054204 
L 175.248058 0.009774 
L 174.248058 -0.040276 
L 173.248058 -0.162117 
L 172.248058 -0.22181 
L 171.248058 -0.253376 
L 170.248058 -0.285719 
L 169.248058 -0.340279 
L 168.248058 -0.382779 
L 167.248058 -0.434251 
L 166.248058 -0.522636 
L 165.248058 -0.556833 
L 164.248058 -0.600767 
L 163.248058 -0.66448 
L 162.248058 -0.739677 
L 161.248058 -0.768491 
L 160.248058 -0.810695 
L 159.248058 -0.85328 
L 158.248058 -0.870172 
L 157.248058 -0.892653 
L 156.248058 -0.93499 
L 155.248058 -0.96495 
L 154.248058 -0.983583 
L 153.248058 -0.993375 
L 152.248058 -0.997138 
L 151.248058 -0.999976 
L 150.248058 -0.998227 
L 149.248058 -0.988871 
L 148.248058 -0.978174 
L 147.248058 -0.968304 
L 146.248058 -0.949446 
L 145.248058 -0.919107 
L 144.248058 -0.880716 
L 143.248058 -0.82123 
L 142.248058 -0.777941 
L 141.248058 -0.717203 
L 140.248058 -0.633129 
L 139.248058 -0.584836 
L 138.248058 -0.541259 
L 137.248058 -0.514378 
L 136.248058 -0.482448 
L 135.248058 -0.415256 
L 134.248058 -0.334435 
L 133.248058 -0.25889 
L 132.248058 -0.21516 
L 131.248058 -0.135265 
L 130.248058 -0.073786 
L 129.248058 -0.010161 
L 128.248058 0.097088 
L 127.248058 0.215798 
L 126.248058 0.257704 
L 125.248058 0.300658 
L 124.248058 0.362857 
L 123.248058 0.392994 
L 122.248058 0.425512 
L 121.248058 0.477447 
L 120.248058 0.582997 
L 119.248058 0.631443 
L 118.248058 0.677767 
L 117.248058 0.711583 
L 116.248058 0.75946 
L 115.248058 0.814338 
L 114.248058 0.838249 
L 113.248058 0.864286 
L 112.248058 0.920403 
L 111.248058 0.934277 
L 110.248058 0.960311 
L 109.248058 0.987057 
L 108.248058 0.994803 
L 107.248058 0.999956 
L 106.248058 0.993758 
L 105.248058 0.987451 
L 104.248058 0.97987 
L 103.248058 0.952364 
L 102.248058 0.908131 
L 101.248058 0.878593 
L 100.248058 0.836746 
L 99.248058 0.777572 
L 98.248058 0.754862 
L 97.248058 0.71823 
L 96.248058 0.661442 
L 95.248058 0.636272 
L 94.248058 0.553576 
L 93.248058 0.466644 
L 92.248058 0.41596 
L 91.248058 0.378566 
L 90.248058 0.294186 
L 89.248058 0.259675 
L 88.248058 0.167684 
L 87.248058 0.080659 
L 86.248058 -0.042481 
L 85.248058 -0.08035 
L 84.248058 -0.127825 
L 83.248058 -0.233351 
L 82.248058 -0.330812 
L 81.248058 -0.407449 
L 80.248058 -0.439376 
L 79.248058 -0.493616 
L 78.248058 -0.532467 
L 77.248058 -0.606172 
L 76.248058 -0.638168 
L 75.248058 -0.694707 
L 74.248058 -0.730823 
L 73.248058 -0.799425 
L 72.248058 -0.830841 
L 71.248058 -0.885508 
L 70.248058 -0.904279 
L 69.248058 -0.949908 
L 68.248058 -0.972811 
L 67.248058 -0.981352 
L 66.248058 -0.988693 
L 65.248058 -0.994988 
L 64.248058 -0.998165 
L 63.248058 -0.999751 
L 62.248058 -0.998288 
L 61.248058 -0.985334 
L 60.248058 -0.970712 
L 59.248058 -0.958856 
L 58.248058 -0.940831 
L 57.248058 -0.920453 
L 56.248058 -0.897054 
L 55.248058 -0.882145 
L 54.248058 -0.827431 
L 53.248058 -0.793834 
L 52.248058 -0.731138 
L 51.248058 -0.703763 
L 50.248058 -0.659783 
L 49.248058 -0.580836 
L 48.248058 -0.523308 
L 47.248058 -0.473329 
L 46.248058 -0.401345 
L 45.248058 -0.364813 
L 44.248058 -0.2965 
L 43.248058 -0.208294 
L 42.248058 -0.086947 
L 41.248058 -0.021266 
L 40.248058 0.012352 
L 39.248058 0.076629 
L 38.248058 0.1226 
L 37.248058 0.194757 
L 36.248058 0.234583 
L 35.248058 0.277213 
L 34.248058 0.383172 
L 33.248058 0.435957 
L 32.248058 0.515234 
L 31.248058 0.557638 
L 30.248058 0.589904 
L 29.248058 0.62477 
L 28.248058 0.667428 
L 27.248058 0.699001 
L 26.248058 0.76658 
L 25.248058 0.803465 
L 24.248058 0.831421 
L 23.248058 0.852269 
L 22.248058 0.877882 
L 21.248058 0.9155 
L 20.248058 0.930342 
L 19.248058 0.955072 
L 18.248058 0.973302 
L 17.248058 0.984709 
L 16.248058 0.990344 
L 15.248058 0.995098 
L 14.248058 0.999707 
L 13.248058 0.998034 
L 12.248058 0.992252 
L 11.248058 0.972256 
L 10.248058 0.960604 
L 9.248058 0.949615 
L 8.248058 0.936648 
L 7.248058 0.886234 
L 6.248058 0.865412 
L 5.248058 0.837465 
L 4.248058 0.78072 
L 3.248058 0.758076 
L 2.248058 0.706673 
L 1.248058 0.665537 
L 0 0.582768 
L 0.534308 1 
L 0.482881 2 
L 0.431721 3 
L 0.364422 4 
L 0.331268 5 
L 0.26521 6 
L 0.209025 7 
L 0.147746 8 
L 0.107763 9 
L 0.01134 10 
L -0.10042 11 
L -0.139339 12 
L -0.237188 13 
L -0.271842 14 
L -0.355524 15 
L -0.40603 16 
L -0.475073 17 
L -0.576176 18 
L -0.628622 19 
L -0.71793 20 
L -0.782938 21 
L -0.824483 22 
L -0.866823 23 
L -0.888843 24 
L -0.92633 25 
L -0.943582 26 
L -0.96699 27 
L -0.975557 28 
L -0.984646 29 
L -0.991714 30 
L -0.998741 31 
L -0.999849 32 
L -0.999863 33 
L -0.997189 34 
L -0.994163 35 
L -0.988696 36 
L -0.968701 37 
L -0.95673 38 
L -0.929611 39 
L -0.902599 40 
L -0.875433 41 
L -0.820958 42 
L -0.791342 43 
L -0.749586 44 
L -0.676477 45 
L -0.633039 46 
L -0.562348 47 
L -0.523941 48 
L -0.463602 49 
L -0.432847 50 
L -0.402349 51 
L -0.343439 52 
L -0.300262 53 
L -0.25865 54 
L -0.209535 55 
L -0.144448 56 
L -0.078053 57 
L 0.04671 58 
L 0.090525 59 
L 0.144853 60 
L 0.251557 61 
L 0.294057 62 
L 0.331551 63 
L 0.421047 64 
L 0.47827 65 
L 0.547913 66 
L 0.596932 67 
L 0.652877 68 
L 0.700002 69 
L 0.73889 70 
L 0.792582 71 
L 0.838153 72 
L 0.87509 73 
L 0.897166 74 
L 0.930049 75 
L 0.959769 76 
L 0.972319 77 
L 0.984218 78 
L 0.989336 79 
L 0.997225 80 
L 0.999856 81 
L 0.999058 82 
L 0.995817 83 
L 0.980679 84 
L 0.973742 85 
L 0.957365 86 
L 0.938952 87 
L 0.90936 88 
L 0.887278 89 
L 0.829584 90 
L 0.804393 91 
L 0.73608 92 
L 0.688954 93 
L 0.651606 94 
L 0.596397 95 
L 0.506966 96 
L 0.403856 97 
L 0.349882 98 
L 0.319162 99 
L 0.263621 100 
L 0.225886 101 
L 0.157632 102 
L 0.121803 103 
L 0.052019 104 
L -0.007275 105 
L -0.045882 106 
L -0.079878 107 
L -0.122458 108 
L -0.169107 109 
L -0.223673 110 
L -0.309574 111 
L -0.35625 112 
L -0.413565 113 
L -0.443979 114 
L -0.52903 115 
L -0.562705 116 
L -0.650629 117 
L -0.705614 118 
L -0.744303 119 
L -0.814334 120 
L -0.84478 121 
L -0.902505 122 
L -0.919649 123 
L -0.944384 124 
L -0.959884 125 
L -0.983336 126 
L -0.99015 127 
L -0.994083 128 
L -0.997815 129 
L -0.999848 130 
L -0.991462 131 
L -0.975076 132 
L -0.948806 133 
L -0.935477 134 
L -0.905523 135 
L -0.871272 136 
L -0.850602 137 
L -0.80959 138 
L -0.736272 139 
L -0.713054 140 
L -0.672688 141 
L -0.645437 142 
L -0.564899 143 
L -0.511421 144 
L -0.43285 145 
L -0.384382 146 
L -0.270352 147 
L -0.169667 148 
L -0.085243 149 
L 0.006297 150 
L 0.10871 151 
L 0.149518 152 
L 0.192661 153 
L 0.231962 154 
L 0.265385 155 
L 0.308493 156 
L 0.414072 157 
L 0.469773 158 
L 0.5751 159 
L 0.672097 160 
L 0.695117 161 
L 0.722104 162 
L 0.752205 163 
L 0.825447 164 
L 0.862839 165 
L 0.897798 166 
L 0.916374 167 
L 0.94688 168 
L 0.959092 169 
L 0.968868 170 
L 0.978437 171 
L 0.986646 172.2362 
z
" style="fill:none;"/>
   <g id="axes_1">
    <g id="patch_2">
     <path clip-path="url(#pc18128e90a)" d="M 131.2 81.59 
L 132.157466 81.500279 
L 132.958254 80.973278 
L 133.631185 80.299956 
L 133.826668 79.322958 
L 133.771539 78.356141 
L 133.160026 77.476812 
L 132.355985 76.84003 
L 131.250807 76.59932 
L 130.186827 76.650401 
L 129.174006 77.245303 
L 128.442773 78.026549 
L 128.103056 79.200188 
L 128.185391 80.296845 
L 128.888916 81.396899 
L 129.782949 82.112132 
L 131.097006 82.402238 
L 131.2 81.59 
z
" style="stroke:#ffffff;stroke-linejoin:miter;stroke-width:4;"/>
     <path clip-path="url(#pc18128e90a)" d="M 131.2 81.59 
L 132.157466 81.500279 
L 132.958254 80.973278 
L 133.631185 80.299956 
L 133.826668 79.322958 
L 133.771539 78.356141 
L 133.160026 77.476812 
L 132.355985 76.84003 
L 131.250807 76.59932 
L 130.186827 76.650401 
L 129.174006 77.245303 
L 128.442773 78.026549 
L 128.103056 79.200188 
L 128.185391 80.296845 
L 128.888916 81.396899 
L 129.782949 82.112132 
L 131.097006 82.402238 
L 131.2 81.59 
z
" style="stroke:#000000;stroke-linejoin:miter;stroke-width:1.5;"/>
     <g id="patch_3">
      <path clip-path="url(#pc18128e90a)" d="M 228.4 100.715 
L 229.357466 100.625279 
L 230.158254 100.098278 
L 230.831185 99.424956 
L 231.026668 98.447958 
L 230.971539 97.481141 
L 230.360026 96.601812 
L 229.555985 95.96503 
L 228.450807 95.72432 
L 227.386827 95.775401 
L 226.374006 96.370303 
L 225.642773 97.151549 
L 225.303056 98.325188 
L 225.385391 99.421845 
L 226.088916 100.521899 
L 226.982949 101.237132 
L 228.297006 101.527238 
L 228.4 100.715 
z
" style="stroke:#ffffff;stroke-linejoin:miter;stroke-width:4;"/>
      <path clip-path="url(#pc18128e90a)" d="M 228.4 100.715 
L 229.357466 100.625279 
L 230.158254 100.098278 
L 230.831185 99.424956 
L 231.026668 98.447958 
L 230.971539 97.481141 
L 230.360026 96.601812 
L 229.555985 95.96503 
L 228.450807 95.72432 
L 227.386827 95.775401 
L 226.374006 96.370303 
L 225.642773 97.151549 
L 225.303056 98.325188 
L 225.385391 99.421845 
L 226.088916 100.521899 
L 226.982949 101.237132 
L 228.297006 101.527238 
L 228.4 100.715 
z
" style="stroke:#000000;stroke-linejoin:miter;stroke-width:1.5;"/>
      <path clip-path="url(#pc18128e90a)" d="M 156.168507 120.605 
L 156.199944 119.605 
L 156.236884 118.605 
L 156.334631 117.605 
L 156.367152 116.605 
L 156.440777 115.605 
L 156.479342 114.485 
" style="fill:none;stroke:#ffffff;stroke-linecap:round;stroke-width:4;"/>
      <path clip-path="url(#pc18128e90a)" d="M 156.168507 120.605 
L 156.199944 119.605 
L 156.236884 118.605 
L 156.334631 117.605 
L 156.367152 116.605 
L 156.440777 115.605 
L 156.479342 114.485 
" style="fill:none;stroke:#000000;stroke-linecap:round;stroke-width:1.5;"/>
      <path clip-path="url(#pc18128e90a)" d="M 147.4 98.42 
L 147.431436 97.42 
L 147.468377 96.42 
L 147.566123 95.42 
L 147.598645 94.42 
L 147.67227 93.42 
L 147.710835 92.42 
L 147.746248 91.42 
L 147.803888 90.42 
L 147.874274 89.42 
L 147.926239 88.42 
L 147.985328 87.42 
L 148.073649 86.42 
L 148.119794 85.42 
L 148.162205 84.42 
L 148.192697 83.42 
L 148.218742 82.42 
L 148.239942 81.42 
L 148.294243 80.42 
L 148.322181 79.42 
L 148.351905 78.42 
L 148.3773 77.42 
L 148.3885 76.42 
L 148.398624 75.42 
L 148.39842 74.42 
L 148.38891 73.42 
L 148.377256 72.42 
L 148.346227 71.42 
L 148.335059 70.42 
L 148.304942 69.42 
L 148.245165 68.42 
L 148.207973 67.42 
L 148.168877 66.42 
L 148.126437 65.42 
L 148.093672 64.42 
L 148.026246 63.42 
L 147.98712 62.42 
L 147.944445 61.42 
L 147.873865 60.17 
L 148.068529 61.032816 
L 148.974451 61.460271 
L 149.905529 61.84159 
L 150.817317 62.258285 
L 151.749346 62.637859 
L 152.649221 63.076403 
L 153.556521 63.50133 
L 154.457701 63.93748 
L 155.374355 64.345252 
L 156.309055 64.719927 
L 157.220629 65.137016 
L 158.138451 65.542646 
L 159.032279 65.992279 
L 159.934769 66.426026 
L 160.845475 66.844705 
L 161.755137 67.265301 
L 162.669921 67.676502 
L 163.560959 68.131251 
L 164.451597 68.586735 
L 165.340402 69.04558 
L 166.227714 69.507163 
L 167.118311 69.962721 
L 168.0201 70.397755 
L 168.914852 70.845693 
L 169.809984 71.292935 
L 170.695302 71.758174 
L 171.580813 72.22306 
L 172.460409 72.698795 
L 173.339528 73.175403 
L 174.217257 73.65456 
L 175.094295 74.134985 
L 175.96591 74.625355 
L 176.839855 75.111452 
L 177.707507 75.609092 
L 178.574442 76.108044 
L 179.444154 76.601905 
L 180.313277 77.096845 
L 181.181447 77.593533 
L 182.051462 78.086837 
L 182.89937 78.620685 
L 183.7413 79.165496 
L 184.603636 79.672883 
L 185.449253 80.210932 
L 186.301341 80.737114 
L 187.163167 81.245436 
L 187.997983 81.803294 
L 188.862284 82.307077 
L 189.725173 82.813452 
L 190.588288 83.319409 
L 191.440012 83.846259 
L 192.287054 84.381695 
L 193.14673 84.89396 
L 193.978765 85.456917 
L 194.833146 85.978895 
L 195.69001 86.496317 
L 196.548763 87.010275 
L 197.374846 87.584148 
L 198.232879 88.099426 
L 199.081092 88.632715 
L 199.925561 89.17287 
L 200.753493 89.743352 
L 201.613748 90.254556 
L 202.469746 90.773566 
L 203.314918 91.312432 
L 204.169543 91.83396 
L 205.010357 92.380818 
L 205.873698 92.886362 
L 206.718381 93.426124 
L 207.584866 93.925903 
L 208.449126 94.429762 
L 209.30708 94.945186 
L 210.174712 95.442859 
L 211.045997 95.933836 
L 211.911166 96.436028 
L 212.784671 96.922932 
L 213.656674 97.412591 
L 214.529343 97.901027 
L 215.404593 98.384732 
L 217.069355 99.297911 
L 216.194049 98.02569 
L 215.322448 98.516088 
L 214.448086 99.001419 
L 213.581989 99.50191 
L 212.71531 100.001333 
L 211.854669 100.511829 
L 210.989136 101.013353 
L 210.121861 101.511681 
L 209.276816 102.050781 
L 208.434537 102.594951 
L 207.601566 103.156192 
L 206.748045 103.679744 
L 205.895903 104.205827 
L 205.034816 104.715507 
L 204.207642 105.287379 
L 203.354701 105.811995 
L 202.494408 106.323129 
L 201.631301 106.829104 
L 200.782617 107.361527 
L 199.936931 107.89945 
L 199.082382 108.421118 
L 198.23563 108.957085 
L 197.37595 109.469343 
L 196.518093 109.984945 
L 195.660246 110.500565 
L 194.810776 111.031549 
L 193.986988 111.60963 
L 193.13404 112.134235 
L 192.274949 112.647573 
L 191.419536 113.167657 
L 190.568756 113.696238 
L 189.706431 114.203646 
L 188.845789 114.714139 
L 187.98319 115.221045 
L 187.121639 115.729872 
L 186.271625 116.259856 
L 185.415295 116.778257 
L 184.551515 117.282997 
L 183.697674 117.805964 
L 182.831775 118.306818 
L 181.963891 118.804031 
L 181.10267 119.313462 
L 180.236336 119.813518 
L 179.365109 120.304599 
L 178.496215 120.79996 
L 177.625751 121.292442 
L 176.753798 121.782192 
L 175.87863 122.266047 
L 175.003964 122.75082 
L 174.128479 123.234093 
L 173.249663 123.711259 
L 172.370397 124.187597 
L 171.487096 124.656535 
L 170.595617 125.110476 
L 169.696693 125.550763 
L 168.808826 126.01133 
L 167.911249 126.454087 
L 167.014102 126.897634 
L 166.126992 127.359587 
L 165.238255 127.818556 
L 164.328385 128.238769 
L 163.426626 128.673858 
L 162.513378 129.087876 
L 161.620426 129.539115 
L 160.705783 129.950575 
L 159.809487 130.395681 
L 158.896043 130.80934 
L 157.968265 131.196712 
L 157.056873 131.614134 
L 156.128533 132.000474 
L 155.224234 132.430903 
L 154.287161 132.801228 
L 153.37542 133.21801 
L 152.442003 133.595039 
L 151.540018 134.029713 
L 150.645011 134.477184 
L 149.72329 134.875664 
L 148.819713 135.307417 
L 147.110586 136.139233 
L 148.073729 135.67 
L 148.120493 134.67 
L 148.192537 133.67 
L 148.242679 132.67 
L 148.260069 131.67 
L 148.287072 130.67 
L 148.306499 129.67 
L 148.325837 128.67 
L 148.364086 127.67 
L 148.380519 126.67 
L 148.388888 125.67 
L 148.393207 124.67 
L 148.399762 123.67 
L 148.397216 122.67 
L 148.391757 121.67 
L 148.375329 120.67 
L 148.343394 119.67 
L 148.305414 118.67 
L 148.27061 117.67 
L 148.207538 116.67 
L 148.186111 115.67 
L 148.135493 114.67 
L 148.110536 113.67 
L 148.054902 112.67 
L 148.023673 111.67 
L 147.973529 110.67 
L 147.941036 109.67 
L 147.860624 108.67 
L 147.791698 107.67 
L 147.676001 106.67 
L 147.600522 105.67 
L 147.484997 104.67 
L 147.405513 103.67 
L 147.297072 102.67 
L 147.257704 101.67 
L 147.154836 100.67 
L 147.055038 99.67 
L 147.009541 98.42 
M 217.548058 98.42 
" style="fill:none;stroke:#ffffff;stroke-linecap:round;stroke-width:4;"/>
      <path clip-path="url(#pc18128e90a)" d="M 147.4 98.42 
L 147.431436 97.42 
L 147.468377 96.42 
L 147.566123 95.42 
L 147.598645 94.42 
L 147.67227 93.42 
L 147.710835 92.42 
L 147.746248 91.42 
L 147.803888 90.42 
L 147.874274 89.42 
L 147.926239 88.42 
L 147.985328 87.42 
L 148.073649 86.42 
L 148.119794 85.42 
L 148.162205 84.42 
L 148.192697 83.42 
L 148.218742 82.42 
L 148.239942 81.42 
L 148.294243 80.42 
L 148.322181 79.42 
L 148.351905 78.42 
L 148.3773 77.42 
L 148.3885 76.42 
L 148.398624 75.42 
L 148.39842 74.42 
L 148.38891 73.42 
L 148.377256 72.42 
L 148.346227 71.42 
L 148.335059 70.42 
L 148.304942 69.42 
L 148.245165 68.42 
L 148.207973 67.42 
L 148.168877 66.42 
L 148.126437 65.42 
L 148.093672 64.42 
L 148.026246 63.42 
L 147.98712 62.42 
L 147.944445 61.42 
L 147.873865 60.17 
L 148.068529 61.032816 
L 148.974451 61.460271 
L 149.905529 61.84159 
L 150.817317 62.258285 
L 151.749346 62.637859 
L 152.649221 63.076403 
L 153.556521 63.50133 
L 154.457701 63.93748 
L 155.374355 64.345252 
L 156.309055 64.719927 
L 157.220629 65.137016 
L 158.138451 65.542646 
L 159.032279 65.992279 
L 159.934769 66.426026 
L 160.845475 66.844705 
L 161.755137 67.265301 
L 162.669921 67.676502 
L 163.560959 68.131251 
L 164.451597 68.586735 
L 165.340402 69.04558 
L 166.227714 69.507163 
L 167.118311 69.962721 
L 168.0201 70.397755 
L 168.914852 70.845693 
L 169.809984 71.292935 
L 170.695302 71.758174 
L 171.580813 72.22306 
L 172.460409 72.698795 
L 173.339528 73.175403 
L 174.217257 73.65456 
L 175.094295 74.134985 
L 175.96591 74.625355 
L 176.839855 75.111452 
L 177.707507 75.609092 
L 178.574442 76.108044 
L 179.444154 76.601905 
L 180.313277 77.096845 
L 181.181447 77.593533 
L 182.051462 78.086837 
L 182.89937 78.620685 
L 183.7413 79.165496 
L 184.603636 79.672883 
L 185.449253 80.210932 
L 186.301341 80.737114 
L 187.163167 81.245436 
L 187.997983 81.803294 
L 188.862284 82.307077 
L 189.725173 82.813452 
L 190.588288 83.319409 
L 191.440012 83.846259 
L 192.287054 84.381695 
L 193.14673 84.89396 
L 193.978765 85.456917 
L 194.833146 85.978895 
L 195.69001 86.496317 
L 196.548763 87.010275 
L 197.374846 87.584148 
L 198.232879 88.099426 
L 199.081092 88.632715 
L 199.925561 89.17287 
L 200.753493 89.743352 
L 201.613748 90.254556 
L 202.469746 90.773566 
L 203.314918 91.312432 
L 204.169543 91.83396 
L 205.010357 92.380818 
L 205.873698 92.886362 
L 206.718381 93.426124 
L 207.584866 93.925903 
L 208.449126 94.429762 
L 209.30708 94.945186 
L 210.174712 95.442859 
L 211.045997 95.933836 
L 211.911166 96.436028 
L 212.784671 96.922932 
L 213.656674 97.412591 
L 214.529343 97.901027 
L 215.404593 98.384732 
L 217.069355 99.297911 
L 216.194049 98.02569 
L 215.322448 98.516088 
L 214.448086 99.001419 
L 213.581989 99.50191 
L 212.71531 100.001333 
L 211.854669 100.511829 
L 210.989136 101.013353 
L 210.121861 101.511681 
L 209.276816 102.050781 
L 208.434537 102.594951 
L 207.601566 103.156192 
L 206.748045 103.679744 
L 205.895903 104.205827 
L 205.034816 104.715507 
L 204.207642 105.287379 
L 203.354701 105.811995 
L 202.494408 106.323129 
L 201.631301 106.829104 
L 200.782617 107.361527 
L 199.936931 107.89945 
L 199.082382 108.421118 
L 198.23563 108.957085 
L 197.37595 109.469343 
L 196.518093 109.984945 
L 195.660246 110.500565 
L 194.810776 111.031549 
L 193.986988 111.60963 
L 193.13404 112.134235 
L 192.274949 112.647573 
L 191.419536 113.167657 
L 190.568756 113.696238 
L 189.706431 114.203646 
L 188.845789 114.714139 
L 187.98319 115.221045 
L 187.121639 115.729872 
L 186.271625 116.259856 
L 185.415295 116.778257 
L 184.551515 117.282997 
L 183.697674 117.805964 
L 182.831775 118.306818 
L 181.963891 118.804031 
L 181.10267 119.313462 
L 180.236336 119.813518 
L 179.365109 120.304599 
L 178.496215 120.79996 
L 177.625751 121.292442 
L 176.753798 121.782192 
L 175.87863 122.266047 
L 175.003964 122.75082 
L 174.128479 123.234093 
L 173.249663 123.711259 
L 172.370397 124.187597 
L 171.487096 124.656535 
L 170.595617 125.110476 
L 169.696693 125.550763 
L 168.808826 126.01133 
L 167.911249 126.454087 
L 167.014102 126.897634 
L 166.126992 127.359587 
L 165.238255 127.818556 
L 164.328385 128.238769 
L 163.426626 128.673858 
L 162.513378 129.087876 
L 161.620426 129.539115 
L 160.705783 129.950575 
L 159.809487 130.395681 
L 158.896043 130.80934 
L 157.968265 131.196712 
L 157.056873 131.614134 
L 156.128533 132.000474 
L 155.224234 132.430903 
L 154.287161 132.801228 
L 153.37542 133.21801 
L 152.442003 133.595039 
L 151.540018 134.029713 
L 150.645011 134.477184 
L 149.72329 134.875664 
L 148.819713 135.307417 
L 147.110586 136.139233 
L 148.073729 135.67 
L 148.120493 134.67 
L 148.192537 133.67 
L 148.242679 132.67 
L 148.260069 131.67 
L 148.287072 130.67 
L 148.306499 129.67 
L 148.325837 128.67 
L 148.364086 127.67 
L 148.380519 126.67 
L 148.388888 125.67 
L 148.393207 124.67 
L 148.399762 123.67 
L 148.397216 122.67 
L 148.391757 121.67 
L 148.375329 120.67 
L 148.343394 119.67 
L 148.305414 118.67 
L 148.27061 117.67 
L 148.207538 116.67 
L 148.186111 115.67 
L 148.135493 114.67 
L 148.110536 113.67 
L 148.054902 112.67 
L 148.023673 111.67 
L 147.973529 110.67 
L 147.941036 109.67 
L 147.860624 108.67 
L 147.791698 107.67 
L 147.676001 106.67 
L 147.600522 105.67 
L 147.484997 104.67 
L 147.405513 103.67 
L 147.297072 102.67 
L 147.257704 101.67 
L 147.154836 100.67 
L 147.055038 99.67 
L 147.009541 98.42 
M 217.548058 98.42 
" style="fill:none;stroke:#000000;stroke-linecap:round;stroke-width:1.5;"/>
      <path clip-path="url(#pc18128e90a)" d="M 152.928507 79.295 
L 153.928507 79.326436 
L 154.928507 79.363377 
L 155.928507 79.461123 
L 156.928507 79.493645 
L 157.928507 79.56727 
L 159.408507 79.605835 
" style="fill:none;stroke:#ffffff;stroke-linecap:round;stroke-width:4;"/>
      <path clip-path="url(#pc18128e90a)" d="M 152.928507 79.295 
L 153.928507 79.326436 
L 154.928507 79.363377 
L 155.928507 79.461123 
L 156.928507 79.493645 
L 157.928507 79.56727 
L 159.408507 79.605835 
" style="fill:none;stroke:#000000;stroke-linecap:round;stroke-width:1.5;"/>
      <path clip-path="url(#pc18128e90a)" d="M 152.928507 117.545 
L 153.928507 117.576436 
L 154.928507 117.613377 
L 155.928507 117.711123 
L 156.928507 117.743645 
L 157.928507 117.81727 
L 159.408507 117.855835 
" style="fill:none;stroke:#ffffff;stroke-linecap:round;stroke-width:4;"/>
      <path clip-path="url(#pc18128e90a)" d="M 152.928507 117.545 
L 153.928507 117.576436 
L 154.928507 117.613377 
L 155.928507 117.711123 
L 156.928507 117.743645 
L 157.928507 117.81727 
L 159.408507 117.855835 
" style="fill:none;stroke:#000000;stroke-linecap:round;stroke-width:1.5;"/>
      <path clip-path="url(#pc18128e90a)" d="M 147.4 117.545 
L 146.4 117.513564 
L 145.4 117.476623 
L 144.4 117.378877 
L 143.4 117.346355 
L 142.4 117.27273 
L 141.4 117.234165 
L 140.4 117.198752 
L 139.4 117.141112 
L 138.4 117.070726 
L 137.4 117.018761 
L 136.4 116.959672 
L 135.25 116.871351 
L 134.25 116.825206 
L 133.25 116.782795 
L 132.25 116.752303 
L 131.25 116.726258 
L 130.25 116.705058 
L 129.25 116.650757 
L 128.25 116.622819 
L 127.25 116.593095 
L 126.25 116.5677 
L 125.25 116.5565 
L 124.25 116.546376 
L 123.1 116.54658 
" style="fill:none;stroke:#ffffff;stroke-linecap:round;stroke-width:4;"/>
      <path clip-path="url(#pc18128e90a)" d="M 147.4 117.545 
L 146.4 117.513564 
L 145.4 117.476623 
L 144.4 117.378877 
L 143.4 117.346355 
L 142.4 117.27273 
L 141.4 117.234165 
L 140.4 117.198752 
L 139.4 117.141112 
L 138.4 117.070726 
L 137.4 117.018761 
L 136.4 116.959672 
L 135.25 116.871351 
L 134.25 116.825206 
L 133.25 116.782795 
L 132.25 116.752303 
L 131.25 116.726258 
L 130.25 116.705058 
L 129.25 116.650757 
L 128.25 116.622819 
L 127.25 116.593095 
L 126.25 116.5677 
L 125.25 116.5565 
L 124.25 116.546376 
L 123.1 116.54658 
" style="fill:none;stroke:#000000;stroke-linecap:round;stroke-width:1.5;"/>
      <path clip-path="url(#pc18128e90a)" d="M 123.1 117.545 
L 123.068564 118.545 
L 123.031623 119.545 
L 122.933877 120.545 
L 122.901355 121.545 
L 122.82773 122.545 
L 122.789165 123.545 
L 122.753752 124.545 
L 122.696112 125.545 
L 122.625726 126.725 
L 122.573761 127.725 
L 122.514672 128.725 
L 122.426351 129.725 
L 122.380206 130.725 
L 122.337795 131.725 
L 122.307303 132.725 
L 122.281258 133.725 
L 122.260058 134.725 
L 122.205757 135.905 
" style="fill:none;stroke:#ffffff;stroke-linecap:round;stroke-width:4;"/>
      <path clip-path="url(#pc18128e90a)" d="M 123.1 117.545 
L 123.068564 118.545 
L 123.031623 119.545 
L 122.933877 120.545 
L 122.901355 121.545 
L 122.82773 122.545 
L 122.789165 123.545 
L 122.753752 124.545 
L 122.696112 125.545 
L 122.625726 126.725 
L 122.573761 127.725 
L 122.514672 128.725 
L 122.426351 129.725 
L 122.380206 130.725 
L 122.337795 131.725 
L 122.307303 132.725 
L 122.281258 133.725 
L 122.260058 134.725 
L 122.205757 135.905 
" style="fill:none;stroke:#000000;stroke-linecap:round;stroke-width:1.5;"/>
      <path clip-path="url(#pc18128e90a)" d="M 123.1 135.905 
L 123.068564 136.905 
L 123.031623 137.905 
L 122.933877 138.905 
L 122.901355 139.905 
L 122.82773 140.905 
L 122.789165 141.905 
L 122.753752 142.905 
L 122.696112 143.905 
L 122.625726 144.905 
L 122.573761 145.905 
L 122.514672 146.905 
L 122.426351 148.145 
L 122.1 147.425206 
L 121.1 147.382795 
L 120.1 147.352303 
L 119.1 147.326258 
L 118.1 147.305058 
L 117.1 147.250757 
L 116.1 147.222819 
L 115 147.193095 
L 116 149.1223 
L 117 149.1335 
L 118 149.143624 
L 119 149.14342 
L 120 149.13391 
L 121 149.122256 
L 122 149.091227 
L 123 149.080059 
L 124 149.049942 
L 125 148.990165 
L 126 148.952973 
L 127 148.913877 
L 128 148.871437 
L 129 148.838672 
L 130 148.771246 
L 131.2 148.73212 
M 117.43 151.817 
L 118.43 151.868745 
L 119.43 151.950423 
L 120.43 151.990821 
L 121.43 152.053444 
L 122.43 152.165581 
L 123.43 152.232716 
L 124.43 152.3336 
L 125.43 152.372313 
L 126.43 152.422214 
L 127.43 152.46014 
L 128.77 152.52024 
M 121.48 155.489 
L 122.48 155.610039 
L 123.48 155.682859 
L 124.72 155.770392 
" style="fill:none;stroke:#ffffff;stroke-linecap:round;stroke-width:4;"/>
      <path clip-path="url(#pc18128e90a)" d="M 123.1 135.905 
L 123.068564 136.905 
L 123.031623 137.905 
L 122.933877 138.905 
L 122.901355 139.905 
L 122.82773 140.905 
L 122.789165 141.905 
L 122.753752 142.905 
L 122.696112 143.905 
L 122.625726 144.905 
L 122.573761 145.905 
L 122.514672 146.905 
L 122.426351 148.145 
L 122.1 147.425206 
L 121.1 147.382795 
L 120.1 147.352303 
L 119.1 147.326258 
L 118.1 147.305058 
L 117.1 147.250757 
L 116.1 147.222819 
L 115 147.193095 
L 116 149.1223 
L 117 149.1335 
L 118 149.143624 
L 119 149.14342 
L 120 149.13391 
L 121 149.122256 
L 122 149.091227 
L 123 149.080059 
L 124 149.049942 
L 125 148.990165 
L 126 148.952973 
L 127 148.913877 
L 128 148.871437 
L 129 148.838672 
L 130 148.771246 
L 131.2 148.73212 
M 117.43 151.817 
L 118.43 151.868745 
L 119.43 151.950423 
L 120.43 151.990821 
L 121.43 152.053444 
L 122.43 152.165581 
L 123.43 152.232716 
L 124.43 152.3336 
L 125.43 152.372313 
L 126.43 152.422214 
L 127.43 152.46014 
L 128.77 152.52024 
M 121.48 155.489 
L 122.48 155.610039 
L 123.48 155.682859 
L 124.72 155.770392 
" style="fill:none;stroke:#000000;stroke-linecap:round;stroke-width:1.5;"/>
      <path clip-path="url(#pc18128e90a)" d="M 147.4 79.295 
L 146.4 79.263564 
L 145.4 79.226623 
L 144.4 79.128877 
L 143.4 79.096355 
L 142.4 79.02273 
L 141.4 78.984165 
L 140.4 78.948752 
L 139.3 78.891112 
L 138.3 78.820726 
L 137.3 78.768761 
L 136.3 78.709672 
L 135.3 78.621351 
L 134.3 78.575206 
L 133.3 78.532795 
L 132.3 78.502303 
L 131.2 78.476258 
" style="fill:none;stroke:#ffffff;stroke-linecap:round;stroke-width:4;"/>
      <path clip-path="url(#pc18128e90a)" d="M 147.4 79.295 
L 146.4 79.263564 
L 145.4 79.226623 
L 144.4 79.128877 
L 143.4 79.096355 
L 142.4 79.02273 
L 141.4 78.984165 
L 140.4 78.948752 
L 139.3 78.891112 
L 138.3 78.820726 
L 137.3 78.768761 
L 136.3 78.709672 
L 135.3 78.621351 
L 134.3 78.575206 
L 133.3 78.532795 
L 132.3 78.502303 
L 131.2 78.476258 
" style="fill:none;stroke:#000000;stroke-linecap:round;stroke-width:1.5;"/>
      <path clip-path="url(#pc18128e90a)" d="M 131.2 79.295 
" style="fill:none;stroke:#ffffff;stroke-linecap:round;stroke-width:4;"/>
      <path clip-path="url(#pc18128e90a)" d="M 131.2 79.295 
" style="fill:none;stroke:#000000;stroke-linecap:round;stroke-width:1.5;"/>
      <path clip-path="url(#pc18128e90a)" d="M 127.96 79.295 
L 126.96 79.263564 
L 125.96 79.226623 
L 124.96 79.128877 
L 123.96 79.096355 
L 122.96 79.02273 
L 121.96 78.984165 
L 120.96 78.948752 
L 119.96 78.891112 
L 118.96 78.820726 
L 117.96 78.768761 
L 116.96 78.709672 
L 115.96 78.621351 
L 114.96 78.575206 
L 113.96 78.532795 
L 112.96 78.502303 
L 111.96 78.476258 
L 110.96 78.455058 
L 109.96 78.400757 
L 108.96 78.372819 
L 107.96 78.343095 
L 106.96 78.3177 
L 105.96 78.3065 
L 104.96 78.296376 
L 103.96 78.29658 
L 102.96 78.30609 
L 101.96 78.317744 
L 100.96 78.348773 
L 99.96 78.359941 
L 98.96 78.390058 
L 97.96 78.449835 
L 96.96 78.487027 
L 95.56 78.526123 
L 94.542156 79.996217 
L 94.240233 80.950113 
L 93.970996 81.915544 
L 93.675071 82.871556 
L 93.382493 83.828749 
L 93.116229 84.79523 
L 92.817725 85.750332 
L 92.50254 86.818838 
L 92.780013 85.912775 
L 92.380563 84.993301 
L 91.941241 84.087899 
L 91.565258 83.160143 
L 91.174648 82.237549 
L 90.796094 81.3107 
L 90.387058 80.394609 
L 89.942476 79.491064 
L 89.543448 78.571441 
L 89.132112 77.656163 
L 88.76804 76.724202 
L 88.386903 75.798265 
L 87.989584 74.878039 
L 87.594324 73.957086 
L 87.188971 73.039696 
L 86.755515 71.893642 
L 87.856633 72.845444 
L 87.545172 73.795973 
L 87.23077 74.745464 
L 86.922839 75.697239 
L 86.636952 76.656794 
L 86.337206 77.611457 
L 86.038207 78.566384 
L 85.719878 79.514489 
L 85.401928 80.462728 
L 85.072326 81.406854 
L 84.741786 82.350649 
L 84.408507 83.293478 
L 84.073867 84.235826 
L 83.728546 85.174404 
L 83.387814 86.114602 
L 82.959807 87.262579 
L 80.849092 86.311923 
L 80.532523 85.363197 
L 80.217113 84.414062 
L 79.90358 83.464264 
L 79.586413 82.515749 
L 79.312793 81.551865 
L 79.050947 80.583825 
L 78.748905 79.629972 
L 78.479797 78.664495 
L 78.197942 77.703517 
L 77.896905 76.749309 
L 77.649073 75.776323 
L 77.343161 74.823835 
L 77.040032 73.870366 
L 76.736455 72.917054 
L 76.38044 71.743668 
L 76.545834 72.665163 
L 76.176997 73.595441 
L 75.753711 74.506502 
L 75.374441 75.433098 
L 75.000064 76.361422 
L 74.629408 77.291058 
L 74.194399 78.197982 
L 73.822324 79.127117 
L 73.430905 80.049426 
L 73.032111 80.969131 
L 72.600744 81.87734 
L 72.233045 82.80802 
L 71.856963 83.735742 
L 71.459553 84.655936 
L 71.080766 85.582703 
L 70.599894 86.712022 
L 71.616085 85.758867 
L 71.348816 84.792741 
L 71.038603 83.841771 
L 70.732772 82.889255 
L 70.439363 81.932355 
L 70.126888 80.982184 
L 69.807221 80.034552 
L 69.4996 79.082668 
L 69.175559 78.136579 
L 68.854476 77.189446 
L 68.53208 76.242776 
L 68.204602 75.297901 
L 67.876274 74.353325 
L 67.538223 73.412181 
L 67.192872 72.473613 
L 66.778085 71.32097 
L 64.632467 72.272209 
L 64.321872 73.223044 
L 64.02317 74.178076 
L 63.714831 75.129707 
L 63.40306 76.080126 
L 63.13508 77.046001 
L 62.872546 78.013798 
L 62.590908 79.094144 
L 62.16 78.742555 
L 61.16 78.796489 
L 60.16 78.83174 
L 59.16 78.937828 
L 58.16 78.990092 
L 57.16 79.026999 
L 56.16 79.05803 
L 55.16 79.119185 
L 54.16 79.186605 
L 53.16 79.235511 
L 52.16 79.300703 
L 51.16 79.338891 
L 50.16 79.380887 
L 49.16 79.422904 
L 48.16 79.48242 
L 47.16 79.59558 
L 46.16 79.647831 
L 45.16 79.687249 
L 44.16 79.73435 
L 43.16 79.79113 
L 42.16 79.823793 
L 41.16 79.859971 
L 40.16 79.892061 
L 39.16 79.926341 
L 38.16 79.984719 
L 37.16 80.029904 
L 36.16 80.059528 
L 35.16 80.109914 
L 34.16 80.135111 
L 33.16 80.156162 
L 32.16 80.19113 
L 30.76 80.21542 
" style="fill:none;stroke:#ffffff;stroke-linecap:round;stroke-width:4;"/>
      <path clip-path="url(#pc18128e90a)" d="M 127.96 79.295 
L 126.96 79.263564 
L 125.96 79.226623 
L 124.96 79.128877 
L 123.96 79.096355 
L 122.96 79.02273 
L 121.96 78.984165 
L 120.96 78.948752 
L 119.96 78.891112 
L 118.96 78.820726 
L 117.96 78.768761 
L 116.96 78.709672 
L 115.96 78.621351 
L 114.96 78.575206 
L 113.96 78.532795 
L 112.96 78.502303 
L 111.96 78.476258 
L 110.96 78.455058 
L 109.96 78.400757 
L 108.96 78.372819 
L 107.96 78.343095 
L 106.96 78.3177 
L 105.96 78.3065 
L 104.96 78.296376 
L 103.96 78.29658 
L 102.96 78.30609 
L 101.96 78.317744 
L 100.96 78.348773 
L 99.96 78.359941 
L 98.96 78.390058 
L 97.96 78.449835 
L 96.96 78.487027 
L 95.56 78.526123 
L 94.542156 79.996217 
L 94.240233 80.950113 
L 93.970996 81.915544 
L 93.675071 82.871556 
L 93.382493 83.828749 
L 93.116229 84.79523 
L 92.817725 85.750332 
L 92.50254 86.818838 
L 92.780013 85.912775 
L 92.380563 84.993301 
L 91.941241 84.087899 
L 91.565258 83.160143 
L 91.174648 82.237549 
L 90.796094 81.3107 
L 90.387058 80.394609 
L 89.942476 79.491064 
L 89.543448 78.571441 
L 89.132112 77.656163 
L 88.76804 76.724202 
L 88.386903 75.798265 
L 87.989584 74.878039 
L 87.594324 73.957086 
L 87.188971 73.039696 
L 86.755515 71.893642 
L 87.856633 72.845444 
L 87.545172 73.795973 
L 87.23077 74.745464 
L 86.922839 75.697239 
L 86.636952 76.656794 
L 86.337206 77.611457 
L 86.038207 78.566384 
L 85.719878 79.514489 
L 85.401928 80.462728 
L 85.072326 81.406854 
L 84.741786 82.350649 
L 84.408507 83.293478 
L 84.073867 84.235826 
L 83.728546 85.174404 
L 83.387814 86.114602 
L 82.959807 87.262579 
L 80.849092 86.311923 
L 80.532523 85.363197 
L 80.217113 84.414062 
L 79.90358 83.464264 
L 79.586413 82.515749 
L 79.312793 81.551865 
L 79.050947 80.583825 
L 78.748905 79.629972 
L 78.479797 78.664495 
L 78.197942 77.703517 
L 77.896905 76.749309 
L 77.649073 75.776323 
L 77.343161 74.823835 
L 77.040032 73.870366 
L 76.736455 72.917054 
L 76.38044 71.743668 
L 76.545834 72.665163 
L 76.176997 73.595441 
L 75.753711 74.506502 
L 75.374441 75.433098 
L 75.000064 76.361422 
L 74.629408 77.291058 
L 74.194399 78.197982 
L 73.822324 79.127117 
L 73.430905 80.049426 
L 73.032111 80.969131 
L 72.600744 81.87734 
L 72.233045 82.80802 
L 71.856963 83.735742 
L 71.459553 84.655936 
L 71.080766 85.582703 
L 70.599894 86.712022 
L 71.616085 85.758867 
L 71.348816 84.792741 
L 71.038603 83.841771 
L 70.732772 82.889255 
L 70.439363 81.932355 
L 70.126888 80.982184 
L 69.807221 80.034552 
L 69.4996 79.082668 
L 69.175559 78.136579 
L 68.854476 77.189446 
L 68.53208 76.242776 
L 68.204602 75.297901 
L 67.876274 74.353325 
L 67.538223 73.412181 
L 67.192872 72.473613 
L 66.778085 71.32097 
L 64.632467 72.272209 
L 64.321872 73.223044 
L 64.02317 74.178076 
L 63.714831 75.129707 
L 63.40306 76.080126 
L 63.13508 77.046001 
L 62.872546 78.013798 
L 62.590908 79.094144 
L 62.16 78.742555 
L 61.16 78.796489 
L 60.16 78.83174 
L 59.16 78.937828 
L 58.16 78.990092 
L 57.16 79.026999 
L 56.16 79.05803 
L 55.16 79.119185 
L 54.16 79.186605 
L 53.16 79.235511 
L 52.16 79.300703 
L 51.16 79.338891 
L 50.16 79.380887 
L 49.16 79.422904 
L 48.16 79.48242 
L 47.16 79.59558 
L 46.16 79.647831 
L 45.16 79.687249 
L 44.16 79.73435 
L 43.16 79.79113 
L 42.16 79.823793 
L 41.16 79.859971 
L 40.16 79.892061 
L 39.16 79.926341 
L 38.16 79.984719 
L 37.16 80.029904 
L 36.16 80.059528 
L 35.16 80.109914 
L 34.16 80.135111 
L 33.16 80.156162 
L 32.16 80.19113 
L 30.76 80.21542 
" style="fill:none;stroke:#000000;stroke-linecap:round;stroke-width:1.5;"/>
      <path clip-path="url(#pc18128e90a)" d="M 131.2 79.295 
L 131.231436 78.295 
L 131.268377 77.295 
L 131.366123 76.295 
L 131.398645 75.295 
L 131.47227 74.295 
L 131.510835 73.295 
L 131.546248 72.295 
L 131.603888 71.295 
L 131.674274 70.295 
L 131.726239 69.295 
L 131.785328 68.295 
L 131.873649 67.295 
L 131.919794 66.295 
L 131.962205 65.295 
L 131.992697 64.295 
L 132.018742 63.295 
L 132.039942 62.295 
L 132.094243 61.295 
L 132.122181 60.295 
L 132.151905 59.295 
L 132.1773 58.295 
L 132.1885 56.345 
L 132.198624 55.345 
L 132.19842 54.345 
L 132.18891 53.345 
L 132.177256 52.345 
L 132.146227 51.345 
L 132.135059 50.345 
L 132.104942 49.345 
L 132.045165 48.345 
L 132.007973 47.345 
L 131.968877 46.345 
L 131.926437 45.345 
L 131.893672 44.345 
L 131.826246 43.345 
L 131.78712 42.345 
L 131.744445 41.345 
L 131.673865 40.345 
L 131.637474 39.345 
L 131.579071 38.345 
L 131.468118 37.345 
L 131.39746 36.345 
L 131.28452 35.345 
L 131.238747 33.395 
" style="fill:none;stroke:#ffffff;stroke-linecap:round;stroke-width:4;"/>
      <path clip-path="url(#pc18128e90a)" d="M 131.2 79.295 
L 131.231436 78.295 
L 131.268377 77.295 
L 131.366123 76.295 
L 131.398645 75.295 
L 131.47227 74.295 
L 131.510835 73.295 
L 131.546248 72.295 
L 131.603888 71.295 
L 131.674274 70.295 
L 131.726239 69.295 
L 131.785328 68.295 
L 131.873649 67.295 
L 131.919794 66.295 
L 131.962205 65.295 
L 131.992697 64.295 
L 132.018742 63.295 
L 132.039942 62.295 
L 132.094243 61.295 
L 132.122181 60.295 
L 132.151905 59.295 
L 132.1773 58.295 
L 132.1885 56.345 
L 132.198624 55.345 
L 132.19842 54.345 
L 132.18891 53.345 
L 132.177256 52.345 
L 132.146227 51.345 
L 132.135059 50.345 
L 132.104942 49.345 
L 132.045165 48.345 
L 132.007973 47.345 
L 131.968877 46.345 
L 131.926437 45.345 
L 131.893672 44.345 
L 131.826246 43.345 
L 131.78712 42.345 
L 131.744445 41.345 
L 131.673865 40.345 
L 131.637474 39.345 
L 131.579071 38.345 
L 131.468118 37.345 
L 131.39746 36.345 
L 131.28452 35.345 
L 131.238747 33.395 
" style="fill:none;stroke:#000000;stroke-linecap:round;stroke-width:1.5;"/>
      <path clip-path="url(#pc18128e90a)" d="M 131.2 33.395 
L 132.2 33.426436 
L 133.2 33.463377 
L 134.2 33.561123 
L 135.2 33.593645 
L 136.2 33.66727 
L 137.2 33.705835 
L 138.2 33.741248 
L 139.2 33.798888 
L 140.2 33.869274 
L 141.2 33.921239 
L 142.2 33.980328 
L 143.2 34.068649 
L 144.2 34.114794 
L 145.2 34.157205 
L 146.2 34.187697 
L 147.2 34.213742 
L 148.2 34.234942 
L 149.2 34.289243 
L 150.2 34.317181 
L 151.2 34.346905 
L 152.2 34.3723 
L 153.2 34.3835 
L 154.2 34.393624 
L 155.2 34.39342 
L 156.2 34.38391 
L 157.2 34.372256 
L 158.2 34.341227 
L 159.2 34.330059 
L 160.2 34.299942 
L 161.2 34.240165 
L 162.2 34.202973 
L 163.6 34.163877 
L 164.617844 32.693783 
L 164.919767 31.739887 
L 165.189004 30.774456 
L 165.484929 29.818444 
L 165.777507 28.861251 
L 166.043771 27.89477 
L 166.342275 26.939668 
L 166.65746 25.871162 
L 166.379987 26.777225 
L 166.779437 27.696699 
L 167.218759 28.602101 
L 167.594742 29.529857 
L 167.985352 30.452451 
L 168.363906 31.3793 
L 168.772942 32.295391 
L 169.217524 33.198936 
L 169.616552 34.118559 
L 170.027888 35.033837 
L 170.39196 35.965798 
L 170.773097 36.891735 
L 171.170416 37.811961 
L 171.565676 38.732914 
L 171.971029 39.650304 
L 172.404485 40.796358 
L 171.303367 39.844556 
L 171.614828 38.894027 
L 171.92923 37.944536 
L 172.237161 36.992761 
L 172.523048 36.033206 
L 172.822794 35.078543 
L 173.121793 34.123616 
L 173.440122 33.175511 
L 173.758072 32.227272 
L 174.087674 31.283146 
L 174.418214 30.339351 
L 174.751493 29.396522 
L 175.086133 28.454174 
L 175.431454 27.515596 
L 175.772186 26.575398 
L 176.200193 25.427421 
L 178.310908 26.378077 
L 178.627477 27.326803 
L 178.942887 28.275938 
L 179.25642 29.225736 
L 179.573587 30.174251 
L 179.847207 31.138135 
L 180.109053 32.106175 
L 180.411095 33.060028 
L 180.680203 34.025505 
L 180.962058 34.986483 
L 181.263095 35.940691 
L 181.510927 36.913677 
L 181.816839 37.866165 
L 182.119968 38.819634 
L 182.423545 39.772946 
L 182.77956 40.946332 
L 182.614166 40.024837 
L 182.983003 39.094559 
L 183.406289 38.183498 
L 183.785559 37.256902 
L 184.159936 36.328578 
L 184.530592 35.398942 
L 184.965601 34.492018 
L 185.337676 33.562883 
L 185.729095 32.640574 
L 186.127889 31.720869 
L 186.559256 30.81266 
L 186.926955 29.88198 
L 187.303037 28.954258 
L 187.700447 28.034064 
L 188.079234 27.107297 
L 188.560106 25.977978 
L 187.543915 26.931133 
L 187.811184 27.897259 
L 188.121397 28.848229 
L 188.427228 29.800745 
L 188.720637 30.757645 
L 189.033112 31.707816 
L 189.352779 32.655448 
L 189.6604 33.607332 
L 189.984441 34.553421 
L 190.305524 35.500554 
L 190.62792 36.447224 
L 190.955398 37.392099 
L 191.283726 38.336675 
L 191.621777 39.277819 
L 191.967128 40.216387 
L 192.381915 41.36903 
L 194.527533 40.417791 
L 194.838128 39.466956 
L 195.13683 38.511924 
L 195.445169 37.560293 
L 195.75694 36.609874 
L 196.02492 35.643999 
L 196.287454 34.676202 
L 196.569092 33.595856 
L 197 33.947445 
L 198 33.893511 
L 199 33.85826 
L 200 33.752172 
L 201 33.699908 
L 202 33.663001 
L 203 33.63197 
L 204 33.570815 
L 205 33.503395 
L 206 33.454489 
L 207 33.389297 
L 208 33.351109 
L 209 33.309113 
L 210 33.267096 
L 211 33.20758 
L 212 33.09442 
L 213 33.042169 
L 214 33.002751 
L 215 32.95565 
L 216 32.89887 
L 217 32.866207 
L 218 32.830029 
L 219 32.797939 
L 220 32.763659 
L 221 32.705281 
L 222 32.660096 
L 223 32.630472 
L 224 32.580086 
L 225 32.554889 
L 226 32.533838 
L 227 32.49887 
L 228.4 32.47458 
" style="fill:none;stroke:#ffffff;stroke-linecap:round;stroke-width:4;"/>
      <path clip-path="url(#pc18128e90a)" d="M 131.2 33.395 
L 132.2 33.426436 
L 133.2 33.463377 
L 134.2 33.561123 
L 135.2 33.593645 
L 136.2 33.66727 
L 137.2 33.705835 
L 138.2 33.741248 
L 139.2 33.798888 
L 140.2 33.869274 
L 141.2 33.921239 
L 142.2 33.980328 
L 143.2 34.068649 
L 144.2 34.114794 
L 145.2 34.157205 
L 146.2 34.187697 
L 147.2 34.213742 
L 148.2 34.234942 
L 149.2 34.289243 
L 150.2 34.317181 
L 151.2 34.346905 
L 152.2 34.3723 
L 153.2 34.3835 
L 154.2 34.393624 
L 155.2 34.39342 
L 156.2 34.38391 
L 157.2 34.372256 
L 158.2 34.341227 
L 159.2 34.330059 
L 160.2 34.299942 
L 161.2 34.240165 
L 162.2 34.202973 
L 163.6 34.163877 
L 164.617844 32.693783 
L 164.919767 31.739887 
L 165.189004 30.774456 
L 165.484929 29.818444 
L 165.777507 28.861251 
L 166.043771 27.89477 
L 166.342275 26.939668 
L 166.65746 25.871162 
L 166.379987 26.777225 
L 166.779437 27.696699 
L 167.218759 28.602101 
L 167.594742 29.529857 
L 167.985352 30.452451 
L 168.363906 31.3793 
L 168.772942 32.295391 
L 169.217524 33.198936 
L 169.616552 34.118559 
L 170.027888 35.033837 
L 170.39196 35.965798 
L 170.773097 36.891735 
L 171.170416 37.811961 
L 171.565676 38.732914 
L 171.971029 39.650304 
L 172.404485 40.796358 
L 171.303367 39.844556 
L 171.614828 38.894027 
L 171.92923 37.944536 
L 172.237161 36.992761 
L 172.523048 36.033206 
L 172.822794 35.078543 
L 173.121793 34.123616 
L 173.440122 33.175511 
L 173.758072 32.227272 
L 174.087674 31.283146 
L 174.418214 30.339351 
L 174.751493 29.396522 
L 175.086133 28.454174 
L 175.431454 27.515596 
L 175.772186 26.575398 
L 176.200193 25.427421 
L 178.310908 26.378077 
L 178.627477 27.326803 
L 178.942887 28.275938 
L 179.25642 29.225736 
L 179.573587 30.174251 
L 179.847207 31.138135 
L 180.109053 32.106175 
L 180.411095 33.060028 
L 180.680203 34.025505 
L 180.962058 34.986483 
L 181.263095 35.940691 
L 181.510927 36.913677 
L 181.816839 37.866165 
L 182.119968 38.819634 
L 182.423545 39.772946 
L 182.77956 40.946332 
L 182.614166 40.024837 
L 182.983003 39.094559 
L 183.406289 38.183498 
L 183.785559 37.256902 
L 184.159936 36.328578 
L 184.530592 35.398942 
L 184.965601 34.492018 
L 185.337676 33.562883 
L 185.729095 32.640574 
L 186.127889 31.720869 
L 186.559256 30.81266 
L 186.926955 29.88198 
L 187.303037 28.954258 
L 187.700447 28.034064 
L 188.079234 27.107297 
L 188.560106 25.977978 
L 187.543915 26.931133 
L 187.811184 27.897259 
L 188.121397 28.848229 
L 188.427228 29.800745 
L 188.720637 30.757645 
L 189.033112 31.707816 
L 189.352779 32.655448 
L 189.6604 33.607332 
L 189.984441 34.553421 
L 190.305524 35.500554 
L 190.62792 36.447224 
L 190.955398 37.392099 
L 191.283726 38.336675 
L 191.621777 39.277819 
L 191.967128 40.216387 
L 192.381915 41.36903 
L 194.527533 40.417791 
L 194.838128 39.466956 
L 195.13683 38.511924 
L 195.445169 37.560293 
L 195.75694 36.609874 
L 196.02492 35.643999 
L 196.287454 34.676202 
L 196.569092 33.595856 
L 197 33.947445 
L 198 33.893511 
L 199 33.85826 
L 200 33.752172 
L 201 33.699908 
L 202 33.663001 
L 203 33.63197 
L 204 33.570815 
L 205 33.503395 
L 206 33.454489 
L 207 33.389297 
L 208 33.351109 
L 209 33.309113 
L 210 33.267096 
L 211 33.20758 
L 212 33.09442 
L 213 33.042169 
L 214 33.002751 
L 215 32.95565 
L 216 32.89887 
L 217 32.866207 
L 218 32.830029 
L 219 32.797939 
L 220 32.763659 
L 221 32.705281 
L 222 32.660096 
L 223 32.630472 
L 224 32.580086 
L 225 32.554889 
L 226 32.533838 
L 227 32.49887 
L 228.4 32.47458 
" style="fill:none;stroke:#000000;stroke-linecap:round;stroke-width:1.5;"/>
      <path clip-path="url(#pc18128e90a)" d="M 228.4 33.395 
L 228.368564 34.395 
L 228.331623 35.395 
L 228.233877 36.395 
L 228.201355 37.395 
L 228.12773 38.395 
L 228.089165 39.395 
L 228.053752 40.395 
L 227.996112 41.395 
L 227.925726 42.395 
L 227.873761 43.395 
L 227.814672 44.395 
L 227.726351 45.395 
L 227.680206 46.395 
L 227.637795 47.395 
L 227.607303 48.395 
L 227.581258 49.395 
L 227.560058 50.395 
L 227.505757 51.395 
L 227.477819 52.395 
L 227.448095 53.395 
L 227.4227 54.395 
L 227.4115 55.395 
L 227.401376 56.395 
L 227.40158 57.395 
L 227.41109 58.395 
L 227.422744 59.395 
L 227.453773 60.395 
L 227.464941 61.395 
L 227.495058 62.395 
L 227.554835 63.395 
L 227.592027 64.395 
L 227.631123 65.9075 
L 227.673563 66.9075 
L 227.706328 67.9075 
L 227.773754 68.9075 
L 227.81288 69.9075 
L 227.855555 70.9075 
L 227.926135 71.9075 
L 227.962526 72.9075 
L 228.020929 73.9075 
L 228.131882 74.9075 
L 228.20254 75.9075 
L 228.31548 76.9075 
L 228.361253 77.9075 
L 228.422536 78.9075 
L 228.471035 79.9075 
L 228.551858 80.9075 
L 228.670377 81.9075 
L 228.740588 82.9075 
L 228.82385 83.9075 
L 228.856992 84.9075 
L 228.908229 85.9075 
L 228.976628 86.9075 
L 229.042843 87.9075 
L 229.11976 88.9075 
L 229.147076 89.9075 
L 229.173553 90.9075 
L 229.196204 91.9075 
L 229.215735 92.9075 
L 229.242129 93.9075 
L 229.2919 94.9075 
L 229.326973 95.9075 
L 229.362839 96.9075 
L 229.378206 98.42 
" style="fill:none;stroke:#ffffff;stroke-linecap:round;stroke-width:4;"/>
      <path clip-path="url(#pc18128e90a)" d="M 228.4 33.395 
L 228.368564 34.395 
L 228.331623 35.395 
L 228.233877 36.395 
L 228.201355 37.395 
L 228.12773 38.395 
L 228.089165 39.395 
L 228.053752 40.395 
L 227.996112 41.395 
L 227.925726 42.395 
L 227.873761 43.395 
L 227.814672 44.395 
L 227.726351 45.395 
L 227.680206 46.395 
L 227.637795 47.395 
L 227.607303 48.395 
L 227.581258 49.395 
L 227.560058 50.395 
L 227.505757 51.395 
L 227.477819 52.395 
L 227.448095 53.395 
L 227.4227 54.395 
L 227.4115 55.395 
L 227.401376 56.395 
L 227.40158 57.395 
L 227.41109 58.395 
L 227.422744 59.395 
L 227.453773 60.395 
L 227.464941 61.395 
L 227.495058 62.395 
L 227.554835 63.395 
L 227.592027 64.395 
L 227.631123 65.9075 
L 227.673563 66.9075 
L 227.706328 67.9075 
L 227.773754 68.9075 
L 227.81288 69.9075 
L 227.855555 70.9075 
L 227.926135 71.9075 
L 227.962526 72.9075 
L 228.020929 73.9075 
L 228.131882 74.9075 
L 228.20254 75.9075 
L 228.31548 76.9075 
L 228.361253 77.9075 
L 228.422536 78.9075 
L 228.471035 79.9075 
L 228.551858 80.9075 
L 228.670377 81.9075 
L 228.740588 82.9075 
L 228.82385 83.9075 
L 228.856992 84.9075 
L 228.908229 85.9075 
L 228.976628 86.9075 
L 229.042843 87.9075 
L 229.11976 88.9075 
L 229.147076 89.9075 
L 229.173553 90.9075 
L 229.196204 91.9075 
L 229.215735 92.9075 
L 229.242129 93.9075 
L 229.2919 94.9075 
L 229.326973 95.9075 
L 229.362839 96.9075 
L 229.378206 98.42 
" style="fill:none;stroke:#000000;stroke-linecap:round;stroke-width:1.5;"/>
      <path clip-path="url(#pc18128e90a)" d="M 228.4 98.42 
" style="fill:none;stroke:#ffffff;stroke-linecap:round;stroke-width:4;"/>
      <path clip-path="url(#pc18128e90a)" d="M 228.4 98.42 
" style="fill:none;stroke:#000000;stroke-linecap:round;stroke-width:1.5;"/>
      <path clip-path="url(#pc18128e90a)" d="M 228.4 98.42 
L 227.4 98.388564 
L 226.4 98.351623 
L 225.4 98.253877 
L 224.4 98.221355 
L 222.974029 98.14773 
L 221.974029 98.109165 
L 220.974029 98.073752 
L 219.974029 98.016112 
L 218.974029 97.945726 
L 217.548058 97.893761 
" style="fill:none;stroke:#ffffff;stroke-linecap:round;stroke-width:4;"/>
      <path clip-path="url(#pc18128e90a)" d="M 228.4 98.42 
L 227.4 98.388564 
L 226.4 98.351623 
L 225.4 98.253877 
L 224.4 98.221355 
L 222.974029 98.14773 
L 221.974029 98.109165 
L 220.974029 98.073752 
L 219.974029 98.016112 
L 218.974029 97.945726 
L 217.548058 97.893761 
" style="fill:none;stroke:#000000;stroke-linecap:round;stroke-width:1.5;"/>
      <path clip-path="url(#pc18128e90a)" d="M 217.548058 98.42 
L 218.548058 98.451436 
L 219.548058 98.488377 
L 220.548058 98.586123 
L 221.548058 98.618645 
L 222.548058 98.69227 
L 223.548058 98.730835 
L 224.548058 98.766248 
L 225.548058 98.823888 
L 226.548058 98.894274 
L 227.548058 98.946239 
L 228.548058 99.005328 
L 229.698058 99.093649 
L 230.698058 99.139794 
L 231.698058 99.182205 
L 232.698058 99.212697 
L 233.698058 99.238742 
L 234.698058 99.259942 
L 235.698058 99.314243 
L 236.698058 99.342181 
L 237.698058 99.371905 
L 238.698058 99.3973 
L 239.698058 99.4085 
L 240.698058 99.418624 
L 241.848058 99.41842 
" style="fill:none;stroke:#ffffff;stroke-linecap:round;stroke-width:4;"/>
      <path clip-path="url(#pc18128e90a)" d="M 217.548058 98.42 
L 218.548058 98.451436 
L 219.548058 98.488377 
L 220.548058 98.586123 
L 221.548058 98.618645 
L 222.548058 98.69227 
L 223.548058 98.730835 
L 224.548058 98.766248 
L 225.548058 98.823888 
L 226.548058 98.894274 
L 227.548058 98.946239 
L 228.548058 99.005328 
L 229.698058 99.093649 
L 230.698058 99.139794 
L 231.698058 99.182205 
L 232.698058 99.212697 
L 233.698058 99.238742 
L 234.698058 99.259942 
L 235.698058 99.314243 
L 236.698058 99.342181 
L 237.698058 99.371905 
L 238.698058 99.3973 
L 239.698058 99.4085 
L 240.698058 99.418624 
L 241.848058 99.41842 
" style="fill:none;stroke:#000000;stroke-linecap:round;stroke-width:1.5;"/>
      <g id="text_1">
       <path d="M 75.5025 96.6775 
Q 76.01 96.85 76.49 97.4125 
Q 76.97 97.975 77.455 98.96 
L 79.0575 102.1475 
L 77.36 102.1475 
L 75.87 99.155 
Q 75.29 97.9825 74.7475 97.6 
Q 74.205 97.2175 73.2675 97.2175 
L 71.5475 97.2175 
L 71.5475 102.1475 
L 69.97 102.1475 
L 69.97 90.4825 
L 73.5325 90.4825 
Q 75.5325 90.4825 76.5175 91.32 
Q 77.5025 92.155 77.5025 93.8425 
Q 77.5025 94.945 76.99 95.6725 
Q 76.4775 96.3975 75.5025 96.6775 
z
M 71.5475 91.78 
L 71.5475 95.92 
L 73.5325 95.92 
Q 74.6725 95.92 75.255 95.3925 
Q 75.8375 94.865 75.8375 93.8425 
Q 75.8375 92.82 75.255 92.3 
Q 74.6725 91.78 73.5325 91.78 
z
M 80.725563 98.6475 
L 81.731813 98.6475 
L 81.731813 104.7725 
L 80.725563 104.7725 
z
M 80.725563 96.26225 
L 81.731813 96.26225 
L 81.731813 97.538 
L 80.725563 97.538 
z
M 88.929781 101.07475 
L 88.929781 104.7725 
L 87.923531 104.7725 
L 87.923531 101.108 
Q 87.923531 100.23825 87.584031 99.80775 
Q 87.244531 99.3755 86.567281 99.3755 
Q 85.751781 99.3755 85.281031 99.89525 
Q 84.810281 100.41325 84.810281 101.311 
L 84.810281 104.7725 
L 83.798781 104.7725 
L 83.798781 98.6475 
L 84.810281 98.6475 
L 84.810281 99.5995 
Q 85.172531 99.0465 85.660781 98.7735 
Q 86.150781 98.5005 86.791281 98.5005 
Q 87.846531 98.5005 88.387281 99.15325 
Q 88.929781 99.806 88.929781 101.07475 
z
" style="stroke:#ffffff;stroke-width:4;"/>
       <path d="M 75.5025 96.6775 
Q 76.01 96.85 76.49 97.4125 
Q 76.97 97.975 77.455 98.96 
L 79.0575 102.1475 
L 77.36 102.1475 
L 75.87 99.155 
Q 75.29 97.9825 74.7475 97.6 
Q 74.205 97.2175 73.2675 97.2175 
L 71.5475 97.2175 
L 71.5475 102.1475 
L 69.97 102.1475 
L 69.97 90.4825 
L 73.5325 90.4825 
Q 75.5325 90.4825 76.5175 91.32 
Q 77.5025 92.155 77.5025 93.8425 
Q 77.5025 94.945 76.99 95.6725 
Q 76.4775 96.3975 75.5025 96.6775 
z
M 71.5475 91.78 
L 71.5475 95.92 
L 73.5325 95.92 
Q 74.6725 95.92 75.255 95.3925 
Q 75.8375 94.865 75.8375 93.8425 
Q 75.8375 92.82 75.255 92.3 
Q 74.6725 91.78 73.5325 91.78 
z
M 80.725563 98.6475 
L 81.731813 98.6475 
L 81.731813 104.7725 
L 80.725563 104.7725 
z
M 80.725563 96.26225 
L 81.731813 96.26225 
L 81.731813 97.538 
L 80.725563 97.538 
z
M 88.929781 101.07475 
L 88.929781 104.7725 
L 87.923531 104.7725 
L 87.923531 101.108 
Q 87.923531 100.23825 87.584031 99.80775 
Q 87.244531 99.3755 86.567281 99.3755 
Q 85.751781 99.3755 85.281031 99.89525 
Q 84.810281 100.41325 84.810281 101.311 
L 84.810281 104.7725 
L 83.798781 104.7725 
L 83.798781 98.6475 
L 84.810281 98.6475 
L 84.810281 99.5995 
Q 85.172531 99.0465 85.660781 98.7735 
Q 86.150781 98.5005 86.791281 98.5005 
Q 87.846531 98.5005 88.387281 99.15325 
Q 88.929781 99.806 88.929781 101.07475 
z
"/>
      </g>
      <g id="text_2">
       <path d="M 7.6775 74.91 
L 9.2 74.91 
L 11.935 82.2525 
L 14.67 74.91 
L 16.1925 74.91 
L 12.91 83.66 
L 10.9575 83.66 
z
M 17.877125 80.16 
L 18.883375 80.16 
L 18.883375 86.285 
L 17.877125 86.285 
z
M 17.877125 77.77475 
L 18.883375 77.77475 
L 18.883375 79.0505 
L 17.877125 79.0505 
z
M 26.081344 82.58725 
L 26.081344 86.285 
L 25.075094 86.285 
L 25.075094 82.6205 
Q 25.075094 81.75075 24.735594 81.32025 
Q 24.396094 80.888 23.718844 80.888 
Q 22.903344 80.888 22.432594 81.40775 
Q 21.961844 81.92575 21.961844 82.8235 
L 21.961844 86.285 
L 20.950344 86.285 
L 20.950344 80.16 
L 21.961844 80.16 
L 21.961844 81.112 
Q 22.324094 80.559 22.812344 80.286 
Q 23.302344 80.013 23.942844 80.013 
Q 24.998094 80.013 25.538844 80.66575 
Q 26.081344 81.3185 26.081344 82.58725 
z
" style="stroke:#ffffff;stroke-width:4;"/>
       <path d="M 7.6775 74.91 
L 9.2 74.91 
L 11.935 82.2525 
L 14.67 74.91 
L 16.1925 74.91 
L 12.91 83.66 
L 10.9575 83.66 
z
M 17.877125 80.16 
L 18.883375 80.16 
L 18.883375 86.285 
L 17.877125 86.285 
z
M 17.877125 77.77475 
L 18.883375 77.77475 
L 18.883375 79.0505 
L 17.877125 79.0505 
z
M 26.081344 82.58725 
L 26.081344 86.285 
L 25.075094 86.285 
L 25.075094 82.6205 
Q 25.075094 81.75075 24.735594 81.32025 
Q 24.396094 80.888 23.718844 80.888 
Q 22.903344 80.888 22.432594 81.40775 
Q 21.961844 81.92575 21.961844 82.8235 
L 21.961844 86.285 
L 20.950344 86.285 
L 20.950344 80.16 
L 21.961844 80.16 
L 21.961844 81.112 
Q 22.324094 80.559 22.812344 80.286 
Q 23.302344 80.013 23.942844 80.013 
Q 24.998094 80.013 25.538844 80.66575 
Q 26.081344 81.3185 26.081344 82.58725 
z
"/>
      </g>
      <g id="text_3">
       <path d="M 179.0625 13.8725 
Q 179.57 14.045 180.05 14.6075 
Q 180.53 15.17 181.015 16.155 
L 182.6175 19.3425 
L 180.92 19.3425 
L 179.43 16.35 
Q 178.85 15.1775 178.3075 14.795 
Q 177.765 14.4125 176.8275 14.4125 
L 175.1075 14.4125 
L 175.1075 19.3425 
L 173.53 19.3425 
L 173.53 7.6775 
L 177.0925 7.6775 
Q 179.0925 7.6775 180.0775 8.515 
Q 181.0625 9.35 181.0625 11.0375 
Q 181.0625 12.14 180.55 12.8675 
Q 180.0375 13.5925 179.0625 13.8725 
z
M 175.1075 8.975 
L 175.1075 13.115 
L 177.0925 13.115 
Q 178.2325 13.115 178.815 12.5875 
Q 179.3975 12.06 179.3975 11.0375 
Q 179.3975 10.015 178.815 9.495 
Q 178.2325 8.975 177.0925 8.975 
z
M 187.386562 13.45725 
L 187.386562 14.2955 
L 186.424063 14.2955 
Q 185.883313 14.2955 185.671562 14.51425 
Q 185.461563 14.733 185.461563 15.30175 
L 185.461563 15.8425 
L 187.118813 15.8425 
L 187.118813 16.62475 
L 185.461563 16.62475 
L 185.461563 21.9675 
L 184.450063 21.9675 
L 184.450063 16.62475 
L 183.487562 16.62475 
L 183.487562 15.8425 
L 184.450063 15.8425 
L 184.450063 15.4155 
Q 184.450063 14.3935 184.926063 13.92625 
Q 185.402062 13.45725 186.434562 13.45725 
z
" style="stroke:#ffffff;stroke-width:4;"/>
       <path d="M 179.0625 13.8725 
Q 179.57 14.045 180.05 14.6075 
Q 180.53 15.17 181.015 16.155 
L 182.6175 19.3425 
L 180.92 19.3425 
L 179.43 16.35 
Q 178.85 15.1775 178.3075 14.795 
Q 177.765 14.4125 176.8275 14.4125 
L 175.1075 14.4125 
L 175.1075 19.3425 
L 173.53 19.3425 
L 173.53 7.6775 
L 177.0925 7.6775 
Q 179.0925 7.6775 180.0775 8.515 
Q 181.0625 9.35 181.0625 11.0375 
Q 181.0625 12.14 180.55 12.8675 
Q 180.0375 13.5925 179.0625 13.8725 
z
M 175.1075 8.975 
L 175.1075 13.115 
L 177.0925 13.115 
Q 178.2325 13.115 178.815 12.5875 
Q 179.3975 12.06 179.3975 11.0375 
Q 179.3975 10.015 178.815 9.495 
Q 178.2325 8.975 177.0925 8.975 
z
M 187.386562 13.45725 
L 187.386562 14.2955 
L 186.424063 14.2955 
Q 185.883313 14.2955 185.671562 14.51425 
Q 185.461563 14.733 185.461563 15.30175 
L 185.461563 15.8425 
L 187.118813 15.8425 
L 187.118813 16.62475 
L 185.461563 16.62475 
L 185.461563 21.9675 
L 184.450063 21.9675 
L 184.450063 16.62475 
L 183.487562 16.62475 
L 183.487562 15.8425 
L 184.450063 15.8425 
L 184.450063 15.4155 
Q 184.450063 14.3935 184.926063 13.92625 
Q 185.402062 13.45725 186.434562 13.45725 
z
"/>
      </g>
      <g id="text_4">
       <path d="M 245.565558 94.035 
L 247.088058 94.035 
L 249.823058 101.3775 
L 252.558058 94.035 
L 254.080558 94.035 
L 250.798058 102.785 
L 248.845558 102.785 
z
M 258.138183 99.99025 
Q 257.329683 99.99025 256.858933 100.622 
Q 256.388183 101.25375 256.388183 102.35275 
Q 256.388183 103.45175 256.855433 104.0835 
Q 257.324433 104.71525 258.138183 104.71525 
Q 258.943183 104.71525 259.412183 104.08175 
Q 259.882933 103.4465 259.882933 102.35275 
Q 259.882933 101.26425 259.412183 100.62725 
Q 258.943183 99.99025 258.138183 99.99025 
z
M 258.138183 99.138 
Q 259.450683 99.138 260.199683 99.992 
Q 260.950433 100.84425 260.950433 102.35275 
Q 260.950433 103.856 260.199683 104.7135 
Q 259.450683 105.56925 258.138183 105.56925 
Q 256.820433 105.56925 256.073183 104.7135 
Q 255.327683 103.856 255.327683 102.35275 
Q 255.327683 100.84425 256.073183 99.992 
Q 256.820433 99.138 258.138183 99.138 
z
" style="stroke:#ffffff;stroke-width:4;"/>
       <path d="M 245.565558 94.035 
L 247.088058 94.035 
L 249.823058 101.3775 
L 252.558058 94.035 
L 254.080558 94.035 
L 250.798058 102.785 
L 248.845558 102.785 
z
M 258.138183 99.99025 
Q 257.329683 99.99025 256.858933 100.622 
Q 256.388183 101.25375 256.388183 102.35275 
Q 256.388183 103.45175 256.855433 104.0835 
Q 257.324433 104.71525 258.138183 104.71525 
Q 258.943183 104.71525 259.412183 104.08175 
Q 259.882933 103.4465 259.882933 102.35275 
Q 259.882933 101.26425 259.412183 100.62725 
Q 258.943183 99.99025 258.138183 99.99025 
z
M 258.138183 99.138 
Q 259.450683 99.138 260.199683 99.992 
Q 260.950433 100.84425 260.950433 102.35275 
Q 260.950433 103.856 260.199683 104.7135 
Q 259.450683 105.56925 258.138183 105.56925 
Q 256.820433 105.56925 256.073183 104.7135 
Q 255.327683 103.856 255.327683 102.35275 
Q 255.327683 100.84425 256.073183 99.992 
Q 256.820433 99.138 258.138183 99.138 
z
"/>
      </g>
     </g>
    </g>
    <defs>
     <clipPath id="pc18128e90a">
      <rect height="148.8384" width="238.676863" x="16.965597" y="16.1978"/>
     </clipPath>
    </defs>
   </g>
  </g>
 </g>
</svg>
