<?xml version="1.0" encoding="utf-8" standalone="no"?>
<!DOCTYPE svg PUBLIC "-//W3C//DTD SVG 1.1//EN"
  "http://www.w3.org/Graphics/SVG/1.1/DTD/svg11.dtd">
<!-- Created with matplotlib (http://matplotlib.org/) -->
<svg height="180pt" version="1.1" viewBox="0 0 270 180" width="270pt" xmlns="http://www.w3.org/2000/svg" xmlns:xlink="http://www.w3.org/1999/xlink">
 <defs>
  <style type="text/css">
*{stroke-linecap:butt;stroke-linejoin:round;}
  </style>
 </defs>
 <g id="figure_1">
  <g id="patch_1">
   <path d="M 0 180.2362 
L 1 180.267636 
L 2 180.304577 
L 3 180.402323 
L 4 180.434845 
L 5 180.50847 
L 6 180.547035 
L 7 180.582448 
L 8 180.640088 
L 9 180.710474 
L 10 180.762439 
L 11 180.821528 
L 12 180.909849 
L 13 180.955994 
L 14 180.998405 
L 15 181.028897 
L 16 181.054942 
L 17 181.076142 
L 18 181.130443 
L 19 181.158381 
L 20 181.188105 
L 21 181.2135 
L 22 181.2247 
L 23 181.234824 
L 24 181.23462 
L 25 181.22511 
L 26 181.213456 
L 27 181.182427 
L 28 181.171259 
L 29 181.141142 
L 30 181.081365 
L 31 181.044173 
L 32 181.005077 
L 33 180.962637 
L 34 180.929872 
L 35 180.862446 
L 36 180.82332 
L 37 180.780645 
L 38 180.710065 
L 39 180.673674 
L 40 180.615271 
L 41 180.504318 
L 42 180.43366 
L 43 180.32072 
L 44 180.274947 
L 45 180.213664 
L 46 180.165165 
L 47 180.084342 
L 48 179.965823 
L 49 179.895612 
L 50 179.81235 
L 51 179.779208 
L 52 179.727971 
L 53 179.659572 
L 54 179.593357 
L 55 179.51644 
L 56 179.489124 
L 57 179.462647 
L 58 179.439996 
L 59 179.420465 
L 60 179.394071 
L 61 179.3443 
L 62 179.309227 
L 63 179.273361 
L 64 179.257994 
L 65 179.242225 
L 66 179.238812 
L 67 179.236395 
L 68 179.236881 
L 69 179.23881 
L 70 179.252067 
L 71 179.260458 
L 72 179.281994 
L 73 179.305027 
L 74 179.32226 
L 75 179.340723 
L 76 179.361175 
L 77 179.377775 
L 78 179.440554 
L 79 179.515819 
L 80 179.548458 
L 81 179.616022 
L 82 179.670069 
L 83 179.703773 
L 84 179.793899 
L 85 179.822434 
L 86 179.85392 
L 87 179.884931 
L 88 179.939739 
L 89 180.004326 
L 90 180.042522 
L 91 180.138456 
L 92 180.187714 
L 93 180.231783 
L 94 180.271907 
L 95 180.380274 
L 96 180.421902 
L 97 180.484044 
L 98 180.554006 
L 99 180.65851 
L 100 180.695498 
L 101 180.741375 
L 102 180.80987 
L 103 180.858616 
L 104 180.936213 
L 105 180.966754 
L 106 181.036268 
L 107 181.060241 
L 108 181.088863 
L 109 181.130656 
L 110 181.152232 
L 111 181.16618 
L 112 181.192902 
L 113 181.202212 
L 114 181.214659 
L 115 181.225714 
L 116 181.231378 
L 117 181.236142 
L 118 181.230594 
L 119 181.217306 
L 120 181.209789 
L 121 181.185004 
L 122 181.161435 
L 123 181.125255 
L 124 181.099293 
L 125 181.076971 
L 126 181.008211 
L 127 180.933676 
L 128 180.839697 
L 129 180.788645 
L 130 180.734711 
L 131 180.69946 
L 132 180.593372 
L 133 180.541108 
L 134 180.504201 
L 135 180.47317 
L 136 180.412015 
L 137 180.344595 
L 138 180.295689 
L 139 180.230497 
L 140 180.192309 
L 141 180.150313 
L 142 180.108296 
L 143 180.04878 
L 144 179.93562 
L 145 179.883369 
L 146 179.843951 
L 147 179.79685 
L 148 179.74007 
L 149 179.707407 
L 150 179.671229 
L 151 179.639139 
L 152 179.604859 
L 153 179.546481 
L 154 179.501296 
L 155 179.471672 
L 156 179.421286 
L 157 179.396089 
L 158 179.375038 
L 159 179.34007 
L 160 179.31578 
L 161 179.301713 
L 162 179.282771 
L 163 179.26711 
L 164 179.254558 
L 165 179.248722 
L 166 179.24184 
L 167 179.236666 
L 168 179.238449 
L 169 179.241174 
L 170 179.252328 
L 171 179.280563 
L 172 179.324351 
L 173 179.34504 
L 174 179.386013 
L 175 179.426088 
L 176 179.445198 
L 177 179.467707 
L 178 179.534358 
L 179 179.584068 
L 180 179.657774 
L 181 179.689088 
L 182 179.76571 
L 183 179.804008 
L 184 179.878125 
L 185 179.982183 
L 186 180.052014 
L 187 180.157248 
L 188 180.212263 
L 189 180.335738 
L 190 180.406297 
L 191 180.522136 
L 192 180.572317 
L 193 180.607921 
L 194 180.699328 
L 195 180.752836 
L 196 180.840744 
L 197 180.909929 
L 198 180.956693 
L 199 181.028737 
L 200 181.078879 
L 201 181.096269 
L 202 181.123272 
L 203 181.142699 
L 204 181.162037 
L 205 181.200286 
L 206 181.216719 
L 207 181.225088 
L 208 181.229407 
L 209 181.235962 
L 210 181.233416 
L 211 181.227957 
L 212 181.211529 
L 213 181.179594 
L 214 181.141614 
L 215 181.10681 
L 216 181.043738 
L 217 181.022311 
L 218 180.971693 
L 219 180.946736 
L 220 180.891102 
L 221 180.859873 
L 222 180.809729 
L 223 180.777236 
L 224 180.696824 
L 225 180.627898 
L 226 180.512201 
L 227 180.436722 
L 228 180.321197 
L 229 180.241713 
L 230 180.133272 
L 231 180.093904 
L 232 179.991036 
L 233 179.891238 
L 234 179.845741 
L 235 179.811419 
L 236 179.759463 
L 237 179.719816 
L 238 179.684302 
L 239 179.616657 
L 240 179.577575 
L 241 179.527094 
L 242 179.477788 
L 243 179.426718 
L 244 179.382479 
L 245 179.360459 
L 246 179.344903 
L 247 179.302456 
L 248 179.287588 
L 249 179.26486 
L 250 179.244544 
L 251 179.238747 
L 252 179.236265 
L 253 179.239322 
L 254 179.250918 
L 255 179.267838 
L 256 179.299499 
L 257 179.313582 
L 258 179.366254 
L 259 179.415343 
L 260 179.470044 
L 261 179.514392 
L 262 179.584384 
L 263 179.634767 
L 264 179.688674 
L 265 179.758113 
L 266 179.815501 
L 267 179.865666 
L 268 179.942828 
L 269 180.001018 
L 270.842461 180.061656 
L 270.705118 179.2362 
L 270.770209 178.2362 
L 270.875339 177.2362 
L 270.935641 176.2362 
L 271.031963 175.2362 
L 271.063966 174.2362 
L 271.114984 173.2362 
L 271.231776 172.2362 
L 271.267222 171.2362 
L 271.323103 170.2362 
L 271.353478 169.2362 
L 271.441864 168.2362 
L 271.486629 167.2362 
L 271.567517 166.2362 
L 271.627663 165.2362 
L 271.690749 164.2362 
L 271.713697 163.2362 
L 271.729867 162.2362 
L 271.758796 161.2362 
L 271.789147 160.2362 
L 271.801722 159.2362 
L 271.826601 158.2362 
L 271.838685 157.2362 
L 271.842447 156.2362 
L 271.838011 155.2362 
L 271.825672 154.2362 
L 271.811259 153.2362 
L 271.795186 152.2362 
L 271.759664 151.2362 
L 271.73973 150.2362 
L 271.683141 149.2362 
L 271.615948 148.2362 
L 271.588577 147.2362 
L 271.55443 146.2362 
L 271.505749 145.2362 
L 271.457465 144.2362 
L 271.398387 143.2362 
L 271.302783 142.2362 
L 271.259642 141.2362 
L 271.209795 140.2362 
L 271.15126 139.2362 
L 271.103674 138.2362 
L 271.042547 137.2362 
L 270.986461 136.2362 
L 270.912291 135.2362 
L 270.795053 134.2362 
L 270.739329 133.2362 
L 270.631103 132.2362 
L 270.524953 131.2362 
L 270.41738 130.2362 
L 270.382873 129.2362 
L 270.279565 128.2362 
L 270.203841 127.2362 
L 270.164406 126.2362 
L 270.125023 125.2362 
L 270.10254 124.2362 
L 270.046727 123.2362 
L 270.020676 122.2362 
L 269.990441 121.2362 
L 269.939669 120.2362 
L 269.921018 119.2362 
L 269.89931 118.2362 
L 269.886664 117.2362 
L 269.867671 116.2362 
L 269.850281 115.2362 
L 269.843242 114.2362 
L 269.844267 113.2362 
L 269.851271 112.2362 
L 269.860641 111.2362 
L 269.884038 110.2362 
L 269.909122 109.2362 
L 269.92152 108.2362 
L 269.954613 107.2362 
L 269.970981 106.2362 
L 269.989386 105.2362 
L 270.038523 104.2362 
L 270.082336 103.2362 
L 270.125421 102.2362 
L 270.148362 101.2362 
L 270.188624 100.2362 
L 270.273484 99.2362 
L 270.315876 98.2362 
L 270.380262 97.2362 
L 270.424552 96.2362 
L 270.532398 95.2362 
L 270.609338 94.2362 
L 270.645779 93.2362 
L 270.700667 92.2362 
L 270.775767 91.2362 
L 270.834363 90.2362 
L 270.870938 89.2362 
L 270.982985 88.2362 
L 271.044669 87.2362 
L 271.095189 86.2362 
L 271.193974 85.2362 
L 271.231997 84.2362 
L 271.267444 83.2362 
L 271.359079 82.2362 
L 271.402351 81.2362 
L 271.455679 80.2362 
L 271.488544 79.2362 
L 271.551438 78.2362 
L 271.605293 77.2362 
L 271.662418 76.2362 
L 271.684509 75.2362 
L 271.728248 74.2362 
L 271.775342 73.2362 
L 271.792189 72.2362 
L 271.820262 71.2362 
L 271.831258 70.2362 
L 271.835828 69.2362 
L 271.841476 68.2362 
L 271.841527 67.2362 
L 271.838437 66.2362 
L 271.834924 65.2362 
L 271.829102 64.2362 
L 271.81625 63.2362 
L 271.792625 62.2362 
L 271.77774 61.2362 
L 271.754169 60.2362 
L 271.71785 59.2362 
L 271.686266 58.2362 
L 271.656374 57.2362 
L 271.577681 56.2362 
L 271.541131 55.2362 
L 271.515407 54.2362 
L 271.444735 53.2362 
L 271.353632 52.2362 
L 271.291675 51.2362 
L 271.258062 50.2362 
L 271.223562 49.2362 
L 271.126123 48.2362 
L 271.078533 47.2362 
L 271.047027 46.2362 
L 271.003342 45.2362 
L 270.933173 44.2362 
L 270.883306 43.2362 
L 270.848629 42.2362 
L 270.73898 41.2362 
L 270.705509 40.2362 
L 270.668167 39.2362 
L 270.587923 38.2362 
L 270.549429 37.2362 
L 270.507652 36.2362 
L 270.465227 35.2362 
L 270.355499 34.2362 
L 270.267214 33.2362 
L 270.192567 32.2362 
L 270.10411 31.2362 
L 270.030049 30.2362 
L 269.980883 29.2362 
L 269.925266 28.2362 
L 269.890567 27.2362 
L 269.878695 26.2362 
L 269.856472 25.2362 
L 269.844493 24.2362 
L 269.842742 23.2362 
L 269.848159 22.2362 
L 269.864357 21.2362 
L 269.880856 20.2362 
L 269.91204 19.2362 
L 269.925405 18.2362 
L 269.955047 17.2362 
L 270.018071 16.2362 
L 270.067392 15.2362 
L 270.11348 14.2362 
L 270.195708 13.2362 
L 270.24161 12.2362 
L 270.275936 11.2362 
L 270.329474 10.2362 
L 270.418361 9.2362 
L 270.4495 8.2362 
L 270.557548 7.2362 
L 270.669621 6.2362 
L 270.705058 5.2362 
L 270.789845 4.2362 
L 270.855452 3.2362 
L 270.957506 2.2362 
L 271.07372 1.2362 
L 271.114412 -0 
L 269.842461 -0.31304 
L 268.842461 -0.349681 
L 267.842461 -0.390677 
L 266.842461 -0.466746 
L 265.842461 -0.542812 
L 264.842461 -0.5735 
L 263.842461 -0.599991 
L 262.842461 -0.656572 
L 261.842461 -0.701088 
L 260.842461 -0.731106 
L 259.842461 -0.758162 
L 258.842461 -0.800727 
L 257.842461 -0.853592 
L 256.842461 -0.884513 
L 255.842461 -0.910788 
L 254.842461 -0.925721 
L 253.842461 -0.95601 
L 252.842461 -0.977339 
L 251.842461 -0.994228 
L 250.842461 -0.998943 
L 249.842461 -0.999553 
L 248.842461 -0.997507 
L 247.842461 -0.991646 
L 246.842461 -0.972999 
L 245.842461 -0.940942 
L 244.842461 -0.894502 
L 243.842461 -0.852556 
L 242.842461 -0.785851 
L 241.842461 -0.716785 
L 240.842461 -0.66941 
L 239.842461 -0.617891 
L 238.842461 -0.578191 
L 237.842461 -0.508771 
L 236.842461 -0.44224 
L 235.842461 -0.333331 
L 234.842461 -0.268083 
L 233.842461 -0.159875 
L 232.842461 -0.098871 
L 231.842461 -0.050186 
L 230.842461 0.026048 
L 229.842461 0.085579 
L 228.842461 0.160207 
L 227.842461 0.279034 
L 226.842461 0.376979 
L 225.842461 0.456027 
L 224.842461 0.501774 
L 223.842461 0.529046 
L 222.842461 0.572708 
L 221.842461 0.621292 
L 220.842461 0.653026 
L 219.842461 0.733256 
L 218.842461 0.799749 
L 217.842461 0.823774 
L 216.842461 0.884273 
L 215.842461 0.906505 
L 214.842461 0.925105 
L 213.842461 0.954431 
L 212.842461 0.970132 
L 211.842461 0.978431 
L 210.842461 0.988667 
L 209.842461 0.99901 
L 208.842461 0.998332 
L 207.842461 0.994552 
L 206.842461 0.978111 
L 205.842461 0.965977 
L 204.842461 0.955382 
L 203.842461 0.924005 
L 202.842461 0.898232 
L 201.842461 0.866823 
L 200.842461 0.844014 
L 199.842461 0.82642 
L 198.842461 0.776608 
L 197.842461 0.728948 
L 196.842461 0.657239 
L 195.842461 0.601476 
L 194.842461 0.575278 
L 193.842461 0.54451 
L 192.842461 0.454752 
L 191.842461 0.369958 
L 190.842461 0.304364 
L 189.842461 0.258539 
L 188.842461 0.215542 
L 187.842461 0.154029 
L 186.842461 0.054204 
L 185.842461 0.009774 
L 184.842461 -0.040276 
L 183.842461 -0.162117 
L 182.842461 -0.22181 
L 181.842461 -0.253376 
L 180.842461 -0.285719 
L 179.842461 -0.340279 
L 178.842461 -0.382779 
L 177.842461 -0.434251 
L 176.842461 -0.522636 
L 175.842461 -0.556833 
L 174.842461 -0.600767 
L 173.842461 -0.66448 
L 172.842461 -0.739677 
L 171.842461 -0.768491 
L 170.842461 -0.810695 
L 169.842461 -0.85328 
L 168.842461 -0.870172 
L 167.842461 -0.892653 
L 166.842461 -0.93499 
L 165.842461 -0.96495 
L 164.842461 -0.983583 
L 163.842461 -0.993375 
L 162.842461 -0.997138 
L 161.842461 -0.999976 
L 160.842461 -0.998227 
L 159.842461 -0.988871 
L 158.842461 -0.978174 
L 157.842461 -0.968304 
L 156.842461 -0.949446 
L 155.842461 -0.919107 
L 154.842461 -0.880716 
L 153.842461 -0.82123 
L 152.842461 -0.777941 
L 151.842461 -0.717203 
L 150.842461 -0.633129 
L 149.842461 -0.584836 
L 148.842461 -0.541259 
L 147.842461 -0.514378 
L 146.842461 -0.482448 
L 145.842461 -0.415256 
L 144.842461 -0.334435 
L 143.842461 -0.25889 
L 142.842461 -0.21516 
L 141.842461 -0.135265 
L 140.842461 -0.073786 
L 139.842461 -0.010161 
L 138.842461 0.097088 
L 137.842461 0.215798 
L 136.842461 0.257704 
L 135.842461 0.300658 
L 134.842461 0.362857 
L 133.842461 0.392994 
L 132.842461 0.425512 
L 131.842461 0.477447 
L 130.842461 0.582997 
L 129.842461 0.631443 
L 128.842461 0.677767 
L 127.842461 0.711583 
L 126.842461 0.75946 
L 125.842461 0.814338 
L 124.842461 0.838249 
L 123.842461 0.864286 
L 122.842461 0.920403 
L 121.842461 0.934277 
L 120.842461 0.960311 
L 119.842461 0.987057 
L 118.842461 0.994803 
L 117.842461 0.999956 
L 116.842461 0.993758 
L 115.842461 0.987451 
L 114.842461 0.97987 
L 113.842461 0.952364 
L 112.842461 0.908131 
L 111.842461 0.878593 
L 110.842461 0.836746 
L 109.842461 0.777572 
L 108.842461 0.754862 
L 107.842461 0.71823 
L 106.842461 0.661442 
L 105.842461 0.636272 
L 104.842461 0.553576 
L 103.842461 0.466644 
L 102.842461 0.41596 
L 101.842461 0.378566 
L 100.842461 0.294186 
L 99.842461 0.259675 
L 98.842461 0.167684 
L 97.842461 0.080659 
L 96.842461 -0.042481 
L 95.842461 -0.08035 
L 94.842461 -0.127825 
L 93.842461 -0.233351 
L 92.842461 -0.330812 
L 91.842461 -0.407449 
L 90.842461 -0.439376 
L 89.842461 -0.493616 
L 88.842461 -0.532467 
L 87.842461 -0.606172 
L 86.842461 -0.638168 
L 85.842461 -0.694707 
L 84.842461 -0.730823 
L 83.842461 -0.799425 
L 82.842461 -0.830841 
L 81.842461 -0.885508 
L 80.842461 -0.904279 
L 79.842461 -0.949908 
L 78.842461 -0.972811 
L 77.842461 -0.981352 
L 76.842461 -0.988693 
L 75.842461 -0.994988 
L 74.842461 -0.998165 
L 73.842461 -0.999751 
L 72.842461 -0.998288 
L 71.842461 -0.985334 
L 70.842461 -0.970712 
L 69.842461 -0.958856 
L 68.842461 -0.940831 
L 67.842461 -0.920453 
L 66.842461 -0.897054 
L 65.842461 -0.882145 
L 64.842461 -0.827431 
L 63.842461 -0.793834 
L 62.842461 -0.731138 
L 61.842461 -0.703763 
L 60.842461 -0.659783 
L 59.842461 -0.580836 
L 58.842461 -0.523308 
L 57.842461 -0.473329 
L 56.842461 -0.401345 
L 55.842461 -0.364813 
L 54.842461 -0.2965 
L 53.842461 -0.208294 
L 52.842461 -0.086947 
L 51.842461 -0.021266 
L 50.842461 0.012352 
L 49.842461 0.076629 
L 48.842461 0.1226 
L 47.842461 0.194757 
L 46.842461 0.234583 
L 45.842461 0.277213 
L 44.842461 0.383172 
L 43.842461 0.435957 
L 42.842461 0.515234 
L 41.842461 0.557638 
L 40.842461 0.589904 
L 39.842461 0.62477 
L 38.842461 0.667428 
L 37.842461 0.699001 
L 36.842461 0.76658 
L 35.842461 0.803465 
L 34.842461 0.831421 
L 33.842461 0.852269 
L 32.842461 0.877882 
L 31.842461 0.9155 
L 30.842461 0.930342 
L 29.842461 0.955072 
L 28.842461 0.973302 
L 27.842461 0.984709 
L 26.842461 0.990344 
L 25.842461 0.995098 
L 24.842461 0.999707 
L 23.842461 0.998034 
L 22.842461 0.992252 
L 21.842461 0.972256 
L 20.842461 0.960604 
L 19.842461 0.949615 
L 18.842461 0.936648 
L 17.842461 0.886234 
L 16.842461 0.865412 
L 15.842461 0.837465 
L 14.842461 0.78072 
L 13.842461 0.758076 
L 12.842461 0.706673 
L 11.842461 0.665537 
L 10.842461 0.582768 
L 9.842461 0.534308 
L 8.842461 0.482881 
L 7.842461 0.431721 
L 6.842461 0.364422 
L 5.842461 0.331268 
L 4.842461 0.26521 
L 3.842461 0.209025 
L 2.842461 0.147746 
L 1.842461 0.107763 
L 0 0.01134 
L -0.10042 1 
L -0.139339 2 
L -0.237188 3 
L -0.271842 4 
L -0.355524 5 
L -0.40603 6 
L -0.475073 7 
L -0.576176 8 
L -0.628622 9 
L -0.71793 10 
L -0.782938 11 
L -0.824483 12 
L -0.866823 13 
L -0.888843 14 
L -0.92633 15 
L -0.943582 16 
L -0.96699 17 
L -0.975557 18 
L -0.984646 19 
L -0.991714 20 
L -0.998741 21 
L -0.999849 22 
L -0.999863 23 
L -0.997189 24 
L -0.994163 25 
L -0.988696 26 
L -0.968701 27 
L -0.95673 28 
L -0.929611 29 
L -0.902599 30 
L -0.875433 31 
L -0.820958 32 
L -0.791342 33 
L -0.749586 34 
L -0.676477 35 
L -0.633039 36 
L -0.562348 37 
L -0.523941 38 
L -0.463602 39 
L -0.432847 40 
L -0.402349 41 
L -0.343439 42 
L -0.300262 43 
L -0.25865 44 
L -0.209535 45 
L -0.144448 46 
L -0.078053 47 
L 0.04671 48 
L 0.090525 49 
L 0.144853 50 
L 0.251557 51 
L 0.294057 52 
L 0.331551 53 
L 0.421047 54 
L 0.47827 55 
L 0.547913 56 
L 0.596932 57 
L 0.652877 58 
L 0.700002 59 
L 0.73889 60 
L 0.792582 61 
L 0.838153 62 
L 0.87509 63 
L 0.897166 64 
L 0.930049 65 
L 0.959769 66 
L 0.972319 67 
L 0.984218 68 
L 0.989336 69 
L 0.997225 70 
L 0.999856 71 
L 0.999058 72 
L 0.995817 73 
L 0.980679 74 
L 0.973742 75 
L 0.957365 76 
L 0.938952 77 
L 0.90936 78 
L 0.887278 79 
L 0.829584 80 
L 0.804393 81 
L 0.73608 82 
L 0.688954 83 
L 0.651606 84 
L 0.596397 85 
L 0.506966 86 
L 0.403856 87 
L 0.349882 88 
L 0.319162 89 
L 0.263621 90 
L 0.225886 91 
L 0.157632 92 
L 0.121803 93 
L 0.052019 94 
L -0.007275 95 
L -0.045882 96 
L -0.079878 97 
L -0.122458 98 
L -0.169107 99 
L -0.223673 100 
L -0.309574 101 
L -0.35625 102 
L -0.413565 103 
L -0.443979 104 
L -0.52903 105 
L -0.562705 106 
L -0.650629 107 
L -0.705614 108 
L -0.744303 109 
L -0.814334 110 
L -0.84478 111 
L -0.902505 112 
L -0.919649 113 
L -0.944384 114 
L -0.959884 115 
L -0.983336 116 
L -0.99015 117 
L -0.994083 118 
L -0.997815 119 
L -0.999848 120 
L -0.991462 121 
L -0.975076 122 
L -0.948806 123 
L -0.935477 124 
L -0.905523 125 
L -0.871272 126 
L -0.850602 127 
L -0.80959 128 
L -0.736272 129 
L -0.713054 130 
L -0.672688 131 
L -0.645437 132 
L -0.564899 133 
L -0.511421 134 
L -0.43285 135 
L -0.384382 136 
L -0.270352 137 
L -0.169667 138 
L -0.085243 139 
L 0.006297 140 
L 0.10871 141 
L 0.149518 142 
L 0.192661 143 
L 0.231962 144 
L 0.265385 145 
L 0.308493 146 
L 0.414072 147 
L 0.469773 148 
L 0.5751 149 
L 0.672097 150 
L 0.695117 151 
L 0.722104 152 
L 0.752205 153 
L 0.825447 154 
L 0.862839 155 
L 0.897798 156 
L 0.916374 157 
L 0.94688 158 
L 0.959092 159 
L 0.968868 160 
L 0.978437 161 
L 0.986646 162 
L 0.997922 163 
L 0.999784 164 
L 0.993482 165 
L 0.987469 166 
L 0.982012 167 
L 0.96182 168 
L 0.951931 169 
L 0.924178 170 
L 0.905171 171 
L 0.889772 172 
L 0.860507 173 
L 0.796703 174 
L 0.74765 175 
L 0.677461 176 
L 0.648352 177 
L 0.588782 178 
L 0.541833 179 
L 0.490711 180.2362 
z
" style="fill:none;stroke:#ffffff;stroke-linejoin:miter;stroke-width:4;"/>
   <path d="M 0 180.2362 
L 1 180.267636 
L 2 180.304577 
L 3 180.402323 
L 4 180.434845 
L 5 180.50847 
L 6 180.547035 
L 7 180.582448 
L 8 180.640088 
L 9 180.710474 
L 10 180.762439 
L 11 180.821528 
L 12 180.909849 
L 13 180.955994 
L 14 180.998405 
L 15 181.028897 
L 16 181.054942 
L 17 181.076142 
L 18 181.130443 
L 19 181.158381 
L 20 181.188105 
L 21 181.2135 
L 22 181.2247 
L 23 181.234824 
L 24 181.23462 
L 25 181.22511 
L 26 181.213456 
L 27 181.182427 
L 28 181.171259 
L 29 181.141142 
L 30 181.081365 
L 31 181.044173 
L 32 181.005077 
L 33 180.962637 
L 34 180.929872 
L 35 180.862446 
L 36 180.82332 
L 37 180.780645 
L 38 180.710065 
L 39 180.673674 
L 40 180.615271 
L 41 180.504318 
L 42 180.43366 
L 43 180.32072 
L 44 180.274947 
L 45 180.213664 
L 46 180.165165 
L 47 180.084342 
L 48 179.965823 
L 49 179.895612 
L 50 179.81235 
L 51 179.779208 
L 52 179.727971 
L 53 179.659572 
L 54 179.593357 
L 55 179.51644 
L 56 179.489124 
L 57 179.462647 
L 58 179.439996 
L 59 179.420465 
L 60 179.394071 
L 61 179.3443 
L 62 179.309227 
L 63 179.273361 
L 64 179.257994 
L 65 179.242225 
L 66 179.238812 
L 67 179.236395 
L 68 179.236881 
L 69 179.23881 
L 70 179.252067 
L 71 179.260458 
L 72 179.281994 
L 73 179.305027 
L 74 179.32226 
L 75 179.340723 
L 76 179.361175 
L 77 179.377775 
L 78 179.440554 
L 79 179.515819 
L 80 179.548458 
L 81 179.616022 
L 82 179.670069 
L 83 179.703773 
L 84 179.793899 
L 85 179.822434 
L 86 179.85392 
L 87 179.884931 
L 88 179.939739 
L 89 180.004326 
L 90 180.042522 
L 91 180.138456 
L 92 180.187714 
L 93 180.231783 
L 94 180.271907 
L 95 180.380274 
L 96 180.421902 
L 97 180.484044 
L 98 180.554006 
L 99 180.65851 
L 100 180.695498 
L 101 180.741375 
L 102 180.80987 
L 103 180.858616 
L 104 180.936213 
L 105 180.966754 
L 106 181.036268 
L 107 181.060241 
L 108 181.088863 
L 109 181.130656 
L 110 181.152232 
L 111 181.16618 
L 112 181.192902 
L 113 181.202212 
L 114 181.214659 
L 115 181.225714 
L 116 181.231378 
L 117 181.236142 
L 118 181.230594 
L 119 181.217306 
L 120 181.209789 
L 121 181.185004 
L 122 181.161435 
L 123 181.125255 
L 124 181.099293 
L 125 181.076971 
L 126 181.008211 
L 127 180.933676 
L 128 180.839697 
L 129 180.788645 
L 130 180.734711 
L 131 180.69946 
L 132 180.593372 
L 133 180.541108 
L 134 180.504201 
L 135 180.47317 
L 136 180.412015 
L 137 180.344595 
L 138 180.295689 
L 139 180.230497 
L 140 180.192309 
L 141 180.150313 
L 142 180.108296 
L 143 180.04878 
L 144 179.93562 
L 145 179.883369 
L 146 179.843951 
L 147 179.79685 
L 148 179.74007 
L 149 179.707407 
L 150 179.671229 
L 151 179.639139 
L 152 179.604859 
L 153 179.546481 
L 154 179.501296 
L 155 179.471672 
L 156 179.421286 
L 157 179.396089 
L 158 179.375038 
L 159 179.34007 
L 160 179.31578 
L 161 179.301713 
L 162 179.282771 
L 163 179.26711 
L 164 179.254558 
L 165 179.248722 
L 166 179.24184 
L 167 179.236666 
L 168 179.238449 
L 169 179.241174 
L 170 179.252328 
L 171 179.280563 
L 172 179.324351 
L 173 179.34504 
L 174 179.386013 
L 175 179.426088 
L 176 179.445198 
L 177 179.467707 
L 178 179.534358 
L 179 179.584068 
L 180 179.657774 
L 181 179.689088 
L 182 179.76571 
L 183 179.804008 
L 184 179.878125 
L 185 179.982183 
L 186 180.052014 
L 187 180.157248 
L 188 180.212263 
L 189 180.335738 
L 190 180.406297 
L 191 180.522136 
L 192 180.572317 
L 193 180.607921 
L 194 180.699328 
L 195 180.752836 
L 196 180.840744 
L 197 180.909929 
L 198 180.956693 
L 199 181.028737 
L 200 181.078879 
L 201 181.096269 
L 202 181.123272 
L 203 181.142699 
L 204 181.162037 
L 205 181.200286 
L 206 181.216719 
L 207 181.225088 
L 208 181.229407 
L 209 181.235962 
L 210 181.233416 
L 211 181.227957 
L 212 181.211529 
L 213 181.179594 
L 214 181.141614 
L 215 181.10681 
L 216 181.043738 
L 217 181.022311 
L 218 180.971693 
L 219 180.946736 
L 220 180.891102 
L 221 180.859873 
L 222 180.809729 
L 223 180.777236 
L 224 180.696824 
L 225 180.627898 
L 226 180.512201 
L 227 180.436722 
L 228 180.321197 
L 229 180.241713 
L 230 180.133272 
L 231 180.093904 
L 232 179.991036 
L 233 179.891238 
L 234 179.845741 
L 235 179.811419 
L 236 179.759463 
L 237 179.719816 
L 238 179.684302 
L 239 179.616657 
L 240 179.577575 
L 241 179.527094 
L 242 179.477788 
L 243 179.426718 
L 244 179.382479 
L 245 179.360459 
L 246 179.344903 
L 247 179.302456 
L 248 179.287588 
L 249 179.26486 
L 250 179.244544 
L 251 179.238747 
L 252 179.236265 
L 253 179.239322 
L 254 179.250918 
L 255 179.267838 
L 256 179.299499 
L 257 179.313582 
L 258 179.366254 
L 259 179.415343 
L 260 179.470044 
L 261 179.514392 
L 262 179.584384 
L 263 179.634767 
L 264 179.688674 
L 265 179.758113 
L 266 179.815501 
L 267 179.865666 
L 268 179.942828 
L 269 180.001018 
L 270.842461 180.061656 
L 270.705118 179.2362 
L 270.770209 178.2362 
L 270.875339 177.2362 
L 270.935641 176.2362 
L 271.031963 175.2362 
L 271.063966 174.2362 
L 271.114984 173.2362 
L 271.231776 172.2362 
L 271.267222 171.2362 
L 271.323103 170.2362 
L 271.353478 169.2362 
L 271.441864 168.2362 
L 271.486629 167.2362 
L 271.567517 166.2362 
L 271.627663 165.2362 
L 271.690749 164.2362 
L 271.713697 163.2362 
L 271.729867 162.2362 
L 271.758796 161.2362 
L 271.789147 160.2362 
L 271.801722 159.2362 
L 271.826601 158.2362 
L 271.838685 157.2362 
L 271.842447 156.2362 
L 271.838011 155.2362 
L 271.825672 154.2362 
L 271.811259 153.2362 
L 271.795186 152.2362 
L 271.759664 151.2362 
L 271.73973 150.2362 
L 271.683141 149.2362 
L 271.615948 148.2362 
L 271.588577 147.2362 
L 271.55443 146.2362 
L 271.505749 145.2362 
L 271.457465 144.2362 
L 271.398387 143.2362 
L 271.302783 142.2362 
L 271.259642 141.2362 
L 271.209795 140.2362 
L 271.15126 139.2362 
L 271.103674 138.2362 
L 271.042547 137.2362 
L 270.986461 136.2362 
L 270.912291 135.2362 
L 270.795053 134.2362 
L 270.739329 133.2362 
L 270.631103 132.2362 
L 270.524953 131.2362 
L 270.41738 130.2362 
L 270.382873 129.2362 
L 270.279565 128.2362 
L 270.203841 127.2362 
L 270.164406 126.2362 
L 270.125023 125.2362 
L 270.10254 124.2362 
L 270.046727 123.2362 
L 270.020676 122.2362 
L 269.990441 121.2362 
L 269.939669 120.2362 
L 269.921018 119.2362 
L 269.89931 118.2362 
L 269.886664 117.2362 
L 269.867671 116.2362 
L 269.850281 115.2362 
L 269.843242 114.2362 
L 269.844267 113.2362 
L 269.851271 112.2362 
L 269.860641 111.2362 
L 269.884038 110.2362 
L 269.909122 109.2362 
L 269.92152 108.2362 
L 269.954613 107.2362 
L 269.970981 106.2362 
L 269.989386 105.2362 
L 270.038523 104.2362 
L 270.082336 103.2362 
L 270.125421 102.2362 
L 270.148362 101.2362 
L 270.188624 100.2362 
L 270.273484 99.2362 
L 270.315876 98.2362 
L 270.380262 97.2362 
L 270.424552 96.2362 
L 270.532398 95.2362 
L 270.609338 94.2362 
L 270.645779 93.2362 
L 270.700667 92.2362 
L 270.775767 91.2362 
L 270.834363 90.2362 
L 270.870938 89.2362 
L 270.982985 88.2362 
L 271.044669 87.2362 
L 271.095189 86.2362 
L 271.193974 85.2362 
L 271.231997 84.2362 
L 271.267444 83.2362 
L 271.359079 82.2362 
L 271.402351 81.2362 
L 271.455679 80.2362 
L 271.488544 79.2362 
L 271.551438 78.2362 
L 271.605293 77.2362 
L 271.662418 76.2362 
L 271.684509 75.2362 
L 271.728248 74.2362 
L 271.775342 73.2362 
L 271.792189 72.2362 
L 271.820262 71.2362 
L 271.831258 70.2362 
L 271.835828 69.2362 
L 271.841476 68.2362 
L 271.841527 67.2362 
L 271.838437 66.2362 
L 271.834924 65.2362 
L 271.829102 64.2362 
L 271.81625 63.2362 
L 271.792625 62.2362 
L 271.77774 61.2362 
L 271.754169 60.2362 
L 271.71785 59.2362 
L 271.686266 58.2362 
L 271.656374 57.2362 
L 271.577681 56.2362 
L 271.541131 55.2362 
L 271.515407 54.2362 
L 271.444735 53.2362 
L 271.353632 52.2362 
L 271.291675 51.2362 
L 271.258062 50.2362 
L 271.223562 49.2362 
L 271.126123 48.2362 
L 271.078533 47.2362 
L 271.047027 46.2362 
L 271.003342 45.2362 
L 270.933173 44.2362 
L 270.883306 43.2362 
L 270.848629 42.2362 
L 270.73898 41.2362 
L 270.705509 40.2362 
L 270.668167 39.2362 
L 270.587923 38.2362 
L 270.549429 37.2362 
L 270.507652 36.2362 
L 270.465227 35.2362 
L 270.355499 34.2362 
L 270.267214 33.2362 
L 270.192567 32.2362 
L 270.10411 31.2362 
L 270.030049 30.2362 
L 269.980883 29.2362 
L 269.925266 28.2362 
L 269.890567 27.2362 
L 269.878695 26.2362 
L 269.856472 25.2362 
L 269.844493 24.2362 
L 269.842742 23.2362 
L 269.848159 22.2362 
L 269.864357 21.2362 
L 269.880856 20.2362 
L 269.91204 19.2362 
L 269.925405 18.2362 
L 269.955047 17.2362 
L 270.018071 16.2362 
L 270.067392 15.2362 
L 270.11348 14.2362 
L 270.195708 13.2362 
L 270.24161 12.2362 
L 270.275936 11.2362 
L 270.329474 10.2362 
L 270.418361 9.2362 
L 270.4495 8.2362 
L 270.557548 7.2362 
L 270.669621 6.2362 
L 270.705058 5.2362 
L 270.789845 4.2362 
L 270.855452 3.2362 
L 270.957506 2.2362 
L 271.07372 1.2362 
L 271.114412 -0 
L 269.842461 -0.31304 
L 268.842461 -0.349681 
L 267.842461 -0.390677 
L 266.842461 -0.466746 
L 265.842461 -0.542812 
L 264.842461 -0.5735 
L 263.842461 -0.599991 
L 262.842461 -0.656572 
L 261.842461 -0.701088 
L 260.842461 -0.731106 
L 259.842461 -0.758162 
L 258.842461 -0.800727 
L 257.842461 -0.853592 
L 256.842461 -0.884513 
L 255.842461 -0.910788 
L 254.842461 -0.925721 
L 253.842461 -0.95601 
L 252.842461 -0.977339 
L 251.842461 -0.994228 
L 250.842461 -0.998943 
L 249.842461 -0.999553 
L 248.842461 -0.997507 
L 247.842461 -0.991646 
L 246.842461 -0.972999 
L 245.842461 -0.940942 
L 244.842461 -0.894502 
L 243.842461 -0.852556 
L 242.842461 -0.785851 
L 241.842461 -0.716785 
L 240.842461 -0.66941 
L 239.842461 -0.617891 
L 238.842461 -0.578191 
L 237.842461 -0.508771 
L 236.842461 -0.44224 
L 235.842461 -0.333331 
L 234.842461 -0.268083 
L 233.842461 -0.159875 
L 232.842461 -0.098871 
L 231.842461 -0.050186 
L 230.842461 0.026048 
L 229.842461 0.085579 
L 228.842461 0.160207 
L 227.842461 0.279034 
L 226.842461 0.376979 
L 225.842461 0.456027 
L 224.842461 0.501774 
L 223.842461 0.529046 
L 222.842461 0.572708 
L 221.842461 0.621292 
L 220.842461 0.653026 
L 219.842461 0.733256 
L 218.842461 0.799749 
L 217.842461 0.823774 
L 216.842461 0.884273 
L 215.842461 0.906505 
L 214.842461 0.925105 
L 213.842461 0.954431 
L 212.842461 0.970132 
L 211.842461 0.978431 
L 210.842461 0.988667 
L 209.842461 0.99901 
L 208.842461 0.998332 
L 207.842461 0.994552 
L 206.842461 0.978111 
L 205.842461 0.965977 
L 204.842461 0.955382 
L 203.842461 0.924005 
L 202.842461 0.898232 
L 201.842461 0.866823 
L 200.842461 0.844014 
L 199.842461 0.82642 
L 198.842461 0.776608 
L 197.842461 0.728948 
L 196.842461 0.657239 
L 195.842461 0.601476 
L 194.842461 0.575278 
L 193.842461 0.54451 
L 192.842461 0.454752 
L 191.842461 0.369958 
L 190.842461 0.304364 
L 189.842461 0.258539 
L 188.842461 0.215542 
L 187.842461 0.154029 
L 186.842461 0.054204 
L 185.842461 0.009774 
L 184.842461 -0.040276 
L 183.842461 -0.162117 
L 182.842461 -0.22181 
L 181.842461 -0.253376 
L 180.842461 -0.285719 
L 179.842461 -0.340279 
L 178.842461 -0.382779 
L 177.842461 -0.434251 
L 176.842461 -0.522636 
L 175.842461 -0.556833 
L 174.842461 -0.600767 
L 173.842461 -0.66448 
L 172.842461 -0.739677 
L 171.842461 -0.768491 
L 170.842461 -0.810695 
L 169.842461 -0.85328 
L 168.842461 -0.870172 
L 167.842461 -0.892653 
L 166.842461 -0.93499 
L 165.842461 -0.96495 
L 164.842461 -0.983583 
L 163.842461 -0.993375 
L 162.842461 -0.997138 
L 161.842461 -0.999976 
L 160.842461 -0.998227 
L 159.842461 -0.988871 
L 158.842461 -0.978174 
L 157.842461 -0.968304 
L 156.842461 -0.949446 
L 155.842461 -0.919107 
L 154.842461 -0.880716 
L 153.842461 -0.82123 
L 152.842461 -0.777941 
L 151.842461 -0.717203 
L 150.842461 -0.633129 
L 149.842461 -0.584836 
L 148.842461 -0.541259 
L 147.842461 -0.514378 
L 146.842461 -0.482448 
L 145.842461 -0.415256 
L 144.842461 -0.334435 
L 143.842461 -0.25889 
L 142.842461 -0.21516 
L 141.842461 -0.135265 
L 140.842461 -0.073786 
L 139.842461 -0.010161 
L 138.842461 0.097088 
L 137.842461 0.215798 
L 136.842461 0.257704 
L 135.842461 0.300658 
L 134.842461 0.362857 
L 133.842461 0.392994 
L 132.842461 0.425512 
L 131.842461 0.477447 
L 130.842461 0.582997 
L 129.842461 0.631443 
L 128.842461 0.677767 
L 127.842461 0.711583 
L 126.842461 0.75946 
L 125.842461 0.814338 
L 124.842461 0.838249 
L 123.842461 0.864286 
L 122.842461 0.920403 
L 121.842461 0.934277 
L 120.842461 0.960311 
L 119.842461 0.987057 
L 118.842461 0.994803 
L 117.842461 0.999956 
L 116.842461 0.993758 
L 115.842461 0.987451 
L 114.842461 0.97987 
L 113.842461 0.952364 
L 112.842461 0.908131 
L 111.842461 0.878593 
L 110.842461 0.836746 
L 109.842461 0.777572 
L 108.842461 0.754862 
L 107.842461 0.71823 
L 106.842461 0.661442 
L 105.842461 0.636272 
L 104.842461 0.553576 
L 103.842461 0.466644 
L 102.842461 0.41596 
L 101.842461 0.378566 
L 100.842461 0.294186 
L 99.842461 0.259675 
L 98.842461 0.167684 
L 97.842461 0.080659 
L 96.842461 -0.042481 
L 95.842461 -0.08035 
L 94.842461 -0.127825 
L 93.842461 -0.233351 
L 92.842461 -0.330812 
L 91.842461 -0.407449 
L 90.842461 -0.439376 
L 89.842461 -0.493616 
L 88.842461 -0.532467 
L 87.842461 -0.606172 
L 86.842461 -0.638168 
L 85.842461 -0.694707 
L 84.842461 -0.730823 
L 83.842461 -0.799425 
L 82.842461 -0.830841 
L 81.842461 -0.885508 
L 80.842461 -0.904279 
L 79.842461 -0.949908 
L 78.842461 -0.972811 
L 77.842461 -0.981352 
L 76.842461 -0.988693 
L 75.842461 -0.994988 
L 74.842461 -0.998165 
L 73.842461 -0.999751 
L 72.842461 -0.998288 
L 71.842461 -0.985334 
L 70.842461 -0.970712 
L 69.842461 -0.958856 
L 68.842461 -0.940831 
L 67.842461 -0.920453 
L 66.842461 -0.897054 
L 65.842461 -0.882145 
L 64.842461 -0.827431 
L 63.842461 -0.793834 
L 62.842461 -0.731138 
L 61.842461 -0.703763 
L 60.842461 -0.659783 
L 59.842461 -0.580836 
L 58.842461 -0.523308 
L 57.842461 -0.473329 
L 56.842461 -0.401345 
L 55.842461 -0.364813 
L 54.842461 -0.2965 
L 53.842461 -0.208294 
L 52.842461 -0.086947 
L 51.842461 -0.021266 
L 50.842461 0.012352 
L 49.842461 0.076629 
L 48.842461 0.1226 
L 47.842461 0.194757 
L 46.842461 0.234583 
L 45.842461 0.277213 
L 44.842461 0.383172 
L 43.842461 0.435957 
L 42.842461 0.515234 
L 41.842461 0.557638 
L 40.842461 0.589904 
L 39.842461 0.62477 
L 38.842461 0.667428 
L 37.842461 0.699001 
L 36.842461 0.76658 
L 35.842461 0.803465 
L 34.842461 0.831421 
L 33.842461 0.852269 
L 32.842461 0.877882 
L 31.842461 0.9155 
L 30.842461 0.930342 
L 29.842461 0.955072 
L 28.842461 0.973302 
L 27.842461 0.984709 
L 26.842461 0.990344 
L 25.842461 0.995098 
L 24.842461 0.999707 
L 23.842461 0.998034 
L 22.842461 0.992252 
L 21.842461 0.972256 
L 20.842461 0.960604 
L 19.842461 0.949615 
L 18.842461 0.936648 
L 17.842461 0.886234 
L 16.842461 0.865412 
L 15.842461 0.837465 
L 14.842461 0.78072 
L 13.842461 0.758076 
L 12.842461 0.706673 
L 11.842461 0.665537 
L 10.842461 0.582768 
L 9.842461 0.534308 
L 8.842461 0.482881 
L 7.842461 0.431721 
L 6.842461 0.364422 
L 5.842461 0.331268 
L 4.842461 0.26521 
L 3.842461 0.209025 
L 2.842461 0.147746 
L 1.842461 0.107763 
L 0 0.01134 
L -0.10042 1 
L -0.139339 2 
L -0.237188 3 
L -0.271842 4 
L -0.355524 5 
L -0.40603 6 
L -0.475073 7 
L -0.576176 8 
L -0.628622 9 
L -0.71793 10 
L -0.782938 11 
L -0.824483 12 
L -0.866823 13 
L -0.888843 14 
L -0.92633 15 
L -0.943582 16 
L -0.96699 17 
L -0.975557 18 
L -0.984646 19 
L -0.991714 20 
L -0.998741 21 
L -0.999849 22 
L -0.999863 23 
L -0.997189 24 
L -0.994163 25 
L -0.988696 26 
L -0.968701 27 
L -0.95673 28 
L -0.929611 29 
L -0.902599 30 
L -0.875433 31 
L -0.820958 32 
L -0.791342 33 
L -0.749586 34 
L -0.676477 35 
L -0.633039 36 
L -0.562348 37 
L -0.523941 38 
L -0.463602 39 
L -0.432847 40 
L -0.402349 41 
L -0.343439 42 
L -0.300262 43 
L -0.25865 44 
L -0.209535 45 
L -0.144448 46 
L -0.078053 47 
L 0.04671 48 
L 0.090525 49 
L 0.144853 50 
L 0.251557 51 
L 0.294057 52 
L 0.331551 53 
L 0.421047 54 
L 0.47827 55 
L 0.547913 56 
L 0.596932 57 
L 0.652877 58 
L 0.700002 59 
L 0.73889 60 
L 0.792582 61 
L 0.838153 62 
L 0.87509 63 
L 0.897166 64 
L 0.930049 65 
L 0.959769 66 
L 0.972319 67 
L 0.984218 68 
L 0.989336 69 
L 0.997225 70 
L 0.999856 71 
L 0.999058 72 
L 0.995817 73 
L 0.980679 74 
L 0.973742 75 
L 0.957365 76 
L 0.938952 77 
L 0.90936 78 
L 0.887278 79 
L 0.829584 80 
L 0.804393 81 
L 0.73608 82 
L 0.688954 83 
L 0.651606 84 
L 0.596397 85 
L 0.506966 86 
L 0.403856 87 
L 0.349882 88 
L 0.319162 89 
L 0.263621 90 
L 0.225886 91 
L 0.157632 92 
L 0.121803 93 
L 0.052019 94 
L -0.007275 95 
L -0.045882 96 
L -0.079878 97 
L -0.122458 98 
L -0.169107 99 
L -0.223673 100 
L -0.309574 101 
L -0.35625 102 
L -0.413565 103 
L -0.443979 104 
L -0.52903 105 
L -0.562705 106 
L -0.650629 107 
L -0.705614 108 
L -0.744303 109 
L -0.814334 110 
L -0.84478 111 
L -0.902505 112 
L -0.919649 113 
L -0.944384 114 
L -0.959884 115 
L -0.983336 116 
L -0.99015 117 
L -0.994083 118 
L -0.997815 119 
L -0.999848 120 
L -0.991462 121 
L -0.975076 122 
L -0.948806 123 
L -0.935477 124 
L -0.905523 125 
L -0.871272 126 
L -0.850602 127 
L -0.80959 128 
L -0.736272 129 
L -0.713054 130 
L -0.672688 131 
L -0.645437 132 
L -0.564899 133 
L -0.511421 134 
L -0.43285 135 
L -0.384382 136 
L -0.270352 137 
L -0.169667 138 
L -0.085243 139 
L 0.006297 140 
L 0.10871 141 
L 0.149518 142 
L 0.192661 143 
L 0.231962 144 
L 0.265385 145 
L 0.308493 146 
L 0.414072 147 
L 0.469773 148 
L 0.5751 149 
L 0.672097 150 
L 0.695117 151 
L 0.722104 152 
L 0.752205 153 
L 0.825447 154 
L 0.862839 155 
L 0.897798 156 
L 0.916374 157 
L 0.94688 158 
L 0.959092 159 
L 0.968868 160 
L 0.978437 161 
L 0.986646 162 
L 0.997922 163 
L 0.999784 164 
L 0.993482 165 
L 0.987469 166 
L 0.982012 167 
L 0.96182 168 
L 0.951931 169 
L 0.924178 170 
L 0.905171 171 
L 0.889772 172 
L 0.860507 173 
L 0.796703 174 
L 0.74765 175 
L 0.677461 176 
L 0.648352 177 
L 0.588782 178 
L 0.541833 179 
L 0.490711 180.2362 
z
" style="fill:none;"/>
   <g id="axes_1">
    <path clip-path="url(#p5990599568)" d="M 156.168507 120.605 
L 156.199944 119.605 
L 156.236884 118.605 
L 156.334631 117.605 
L 156.367152 116.605 
L 156.440777 115.605 
L 156.479342 114.485 
" style="fill:none;stroke:#ffffff;stroke-linecap:round;stroke-width:4;"/>
    <path clip-path="url(#p5990599568)" d="M 156.168507 120.605 
L 156.199944 119.605 
L 156.236884 118.605 
L 156.334631 117.605 
L 156.367152 116.605 
L 156.440777 115.605 
L 156.479342 114.485 
" style="fill:none;stroke:#000000;stroke-linecap:round;stroke-width:1.5;"/>
    <path clip-path="url(#p5990599568)" d="M 147.4 98.42 
L 147.431436 97.42 
L 147.468377 96.42 
L 147.566123 95.42 
L 147.598645 94.42 
L 147.67227 93.42 
L 147.710835 92.42 
L 147.746248 91.42 
L 147.803888 90.42 
L 147.874274 89.42 
L 147.926239 88.42 
L 147.985328 87.42 
L 148.073649 86.42 
L 148.119794 85.42 
L 148.162205 84.42 
L 148.192697 83.42 
L 148.218742 82.42 
L 148.239942 81.42 
L 148.294243 80.42 
L 148.322181 79.42 
L 148.351905 78.42 
L 148.3773 77.42 
L 148.3885 76.42 
L 148.398624 75.42 
L 148.39842 74.42 
L 148.38891 73.42 
L 148.377256 72.42 
L 148.346227 71.42 
L 148.335059 70.42 
L 148.304942 69.42 
L 148.245165 68.42 
L 148.207973 67.42 
L 148.168877 66.42 
L 148.126437 65.42 
L 148.093672 64.42 
L 148.026246 63.42 
L 147.98712 62.42 
L 147.944445 61.42 
L 147.873865 60.17 
L 148.068529 61.032816 
L 148.974451 61.460271 
L 149.905529 61.84159 
L 150.817317 62.258285 
L 151.749346 62.637859 
L 152.649221 63.076403 
L 153.556521 63.50133 
L 154.457701 63.93748 
L 155.374355 64.345252 
L 156.309055 64.719927 
L 157.220629 65.137016 
L 158.138451 65.542646 
L 159.032279 65.992279 
L 159.934769 66.426026 
L 160.845475 66.844705 
L 161.755137 67.265301 
L 162.669921 67.676502 
L 163.560959 68.131251 
L 164.451597 68.586735 
L 165.340402 69.04558 
L 166.227714 69.507163 
L 167.118311 69.962721 
L 168.0201 70.397755 
L 168.914852 70.845693 
L 169.809984 71.292935 
L 170.695302 71.758174 
L 171.580813 72.22306 
L 172.460409 72.698795 
L 173.339528 73.175403 
L 174.217257 73.65456 
L 175.094295 74.134985 
L 175.96591 74.625355 
L 176.839855 75.111452 
L 177.707507 75.609092 
L 178.574442 76.108044 
L 179.444154 76.601905 
L 180.313277 77.096845 
L 181.181447 77.593533 
L 182.051462 78.086837 
L 182.89937 78.620685 
L 183.7413 79.165496 
L 184.603636 79.672883 
L 185.449253 80.210932 
L 186.301341 80.737114 
L 187.163167 81.245436 
L 187.997983 81.803294 
L 188.862284 82.307077 
L 189.725173 82.813452 
L 190.588288 83.319409 
L 191.440012 83.846259 
L 192.287054 84.381695 
L 193.14673 84.89396 
L 193.978765 85.456917 
L 194.833146 85.978895 
L 195.69001 86.496317 
L 196.548763 87.010275 
L 197.374846 87.584148 
L 198.232879 88.099426 
L 199.081092 88.632715 
L 199.925561 89.17287 
L 200.753493 89.743352 
L 201.613748 90.254556 
L 202.469746 90.773566 
L 203.314918 91.312432 
L 204.169543 91.83396 
L 205.010357 92.380818 
L 205.873698 92.886362 
L 206.718381 93.426124 
L 207.584866 93.925903 
L 208.449126 94.429762 
L 209.30708 94.945186 
L 210.174712 95.442859 
L 211.045997 95.933836 
L 211.911166 96.436028 
L 212.784671 96.922932 
L 213.656674 97.412591 
L 214.529343 97.901027 
L 215.404593 98.384732 
L 217.069355 99.297911 
L 216.194049 98.02569 
L 215.322448 98.516088 
L 214.448086 99.001419 
L 213.581989 99.50191 
L 212.71531 100.001333 
L 211.854669 100.511829 
L 210.989136 101.013353 
L 210.121861 101.511681 
L 209.276816 102.050781 
L 208.434537 102.594951 
L 207.601566 103.156192 
L 206.748045 103.679744 
L 205.895903 104.205827 
L 205.034816 104.715507 
L 204.207642 105.287379 
L 203.354701 105.811995 
L 202.494408 106.323129 
L 201.631301 106.829104 
L 200.782617 107.361527 
L 199.936931 107.89945 
L 199.082382 108.421118 
L 198.23563 108.957085 
L 197.37595 109.469343 
L 196.518093 109.984945 
L 195.660246 110.500565 
L 194.810776 111.031549 
L 193.986988 111.60963 
L 193.13404 112.134235 
L 192.274949 112.647573 
L 191.419536 113.167657 
L 190.568756 113.696238 
L 189.706431 114.203646 
L 188.845789 114.714139 
L 187.98319 115.221045 
L 187.121639 115.729872 
L 186.271625 116.259856 
L 185.415295 116.778257 
L 184.551515 117.282997 
L 183.697674 117.805964 
L 182.831775 118.306818 
L 181.963891 118.804031 
L 181.10267 119.313462 
L 180.236336 119.813518 
L 179.365109 120.304599 
L 178.496215 120.79996 
L 177.625751 121.292442 
L 176.753798 121.782192 
L 175.87863 122.266047 
L 175.003964 122.75082 
L 174.128479 123.234093 
L 173.249663 123.711259 
L 172.370397 124.187597 
L 171.487096 124.656535 
L 170.595617 125.110476 
L 169.696693 125.550763 
L 168.808826 126.01133 
L 167.911249 126.454087 
L 167.014102 126.897634 
L 166.126992 127.359587 
L 165.238255 127.818556 
L 164.328385 128.238769 
L 163.426626 128.673858 
L 162.513378 129.087876 
L 161.620426 129.539115 
L 160.705783 129.950575 
L 159.809487 130.395681 
L 158.896043 130.80934 
L 157.968265 131.196712 
L 157.056873 131.614134 
L 156.128533 132.000474 
L 155.224234 132.430903 
L 154.287161 132.801228 
L 153.37542 133.21801 
L 152.442003 133.595039 
L 151.540018 134.029713 
L 150.645011 134.477184 
L 149.72329 134.875664 
L 148.819713 135.307417 
L 147.110586 136.139233 
L 148.073729 135.67 
L 148.120493 134.67 
L 148.192537 133.67 
L 148.242679 132.67 
L 148.260069 131.67 
L 148.287072 130.67 
L 148.306499 129.67 
L 148.325837 128.67 
L 148.364086 127.67 
L 148.380519 126.67 
L 148.388888 125.67 
L 148.393207 124.67 
L 148.399762 123.67 
L 148.397216 122.67 
L 148.391757 121.67 
L 148.375329 120.67 
L 148.343394 119.67 
L 148.305414 118.67 
L 148.27061 117.67 
L 148.207538 116.67 
L 148.186111 115.67 
L 148.135493 114.67 
L 148.110536 113.67 
L 148.054902 112.67 
L 148.023673 111.67 
L 147.973529 110.67 
L 147.941036 109.67 
L 147.860624 108.67 
L 147.791698 107.67 
L 147.676001 106.67 
L 147.600522 105.67 
L 147.484997 104.67 
L 147.405513 103.67 
L 147.297072 102.67 
L 147.257704 101.67 
L 147.154836 100.67 
L 147.055038 99.67 
L 147.009541 98.42 
M 217.548058 98.42 
" style="fill:none;stroke:#ffffff;stroke-linecap:round;stroke-width:4;"/>
    <path clip-path="url(#p5990599568)" d="M 147.4 98.42 
L 147.431436 97.42 
L 147.468377 96.42 
L 147.566123 95.42 
L 147.598645 94.42 
L 147.67227 93.42 
L 147.710835 92.42 
L 147.746248 91.42 
L 147.803888 90.42 
L 147.874274 89.42 
L 147.926239 88.42 
L 147.985328 87.42 
L 148.073649 86.42 
L 148.119794 85.42 
L 148.162205 84.42 
L 148.192697 83.42 
L 148.218742 82.42 
L 148.239942 81.42 
L 148.294243 80.42 
L 148.322181 79.42 
L 148.351905 78.42 
L 148.3773 77.42 
L 148.3885 76.42 
L 148.398624 75.42 
L 148.39842 74.42 
L 148.38891 73.42 
L 148.377256 72.42 
L 148.346227 71.42 
L 148.335059 70.42 
L 148.304942 69.42 
L 148.245165 68.42 
L 148.207973 67.42 
L 148.168877 66.42 
L 148.126437 65.42 
L 148.093672 64.42 
L 148.026246 63.42 
L 147.98712 62.42 
L 147.944445 61.42 
L 147.873865 60.17 
L 148.068529 61.032816 
L 148.974451 61.460271 
L 149.905529 61.84159 
L 150.817317 62.258285 
L 151.749346 62.637859 
L 152.649221 63.076403 
L 153.556521 63.50133 
L 154.457701 63.93748 
L 155.374355 64.345252 
L 156.309055 64.719927 
L 157.220629 65.137016 
L 158.138451 65.542646 
L 159.032279 65.992279 
L 159.934769 66.426026 
L 160.845475 66.844705 
L 161.755137 67.265301 
L 162.669921 67.676502 
L 163.560959 68.131251 
L 164.451597 68.586735 
L 165.340402 69.04558 
L 166.227714 69.507163 
L 167.118311 69.962721 
L 168.0201 70.397755 
L 168.914852 70.845693 
L 169.809984 71.292935 
L 170.695302 71.758174 
L 171.580813 72.22306 
L 172.460409 72.698795 
L 173.339528 73.175403 
L 174.217257 73.65456 
L 175.094295 74.134985 
L 175.96591 74.625355 
L 176.839855 75.111452 
L 177.707507 75.609092 
L 178.574442 76.108044 
L 179.444154 76.601905 
L 180.313277 77.096845 
L 181.181447 77.593533 
L 182.051462 78.086837 
L 182.89937 78.620685 
L 183.7413 79.165496 
L 184.603636 79.672883 
L 185.449253 80.210932 
L 186.301341 80.737114 
L 187.163167 81.245436 
L 187.997983 81.803294 
L 188.862284 82.307077 
L 189.725173 82.813452 
L 190.588288 83.319409 
L 191.440012 83.846259 
L 192.287054 84.381695 
L 193.14673 84.89396 
L 193.978765 85.456917 
L 194.833146 85.978895 
L 195.69001 86.496317 
L 196.548763 87.010275 
L 197.374846 87.584148 
L 198.232879 88.099426 
L 199.081092 88.632715 
L 199.925561 89.17287 
L 200.753493 89.743352 
L 201.613748 90.254556 
L 202.469746 90.773566 
L 203.314918 91.312432 
L 204.169543 91.83396 
L 205.010357 92.380818 
L 205.873698 92.886362 
L 206.718381 93.426124 
L 207.584866 93.925903 
L 208.449126 94.429762 
L 209.30708 94.945186 
L 210.174712 95.442859 
L 211.045997 95.933836 
L 211.911166 96.436028 
L 212.784671 96.922932 
L 213.656674 97.412591 
L 214.529343 97.901027 
L 215.404593 98.384732 
L 217.069355 99.297911 
L 216.194049 98.02569 
L 215.322448 98.516088 
L 214.448086 99.001419 
L 213.581989 99.50191 
L 212.71531 100.001333 
L 211.854669 100.511829 
L 210.989136 101.013353 
L 210.121861 101.511681 
L 209.276816 102.050781 
L 208.434537 102.594951 
L 207.601566 103.156192 
L 206.748045 103.679744 
L 205.895903 104.205827 
L 205.034816 104.715507 
L 204.207642 105.287379 
L 203.354701 105.811995 
L 202.494408 106.323129 
L 201.631301 106.829104 
L 200.782617 107.361527 
L 199.936931 107.89945 
L 199.082382 108.421118 
L 198.23563 108.957085 
L 197.37595 109.469343 
L 196.518093 109.984945 
L 195.660246 110.500565 
L 194.810776 111.031549 
L 193.986988 111.60963 
L 193.13404 112.134235 
L 192.274949 112.647573 
L 191.419536 113.167657 
L 190.568756 113.696238 
L 189.706431 114.203646 
L 188.845789 114.714139 
L 187.98319 115.221045 
L 187.121639 115.729872 
L 186.271625 116.259856 
L 185.415295 116.778257 
L 184.551515 117.282997 
L 183.697674 117.805964 
L 182.831775 118.306818 
L 181.963891 118.804031 
L 181.10267 119.313462 
L 180.236336 119.813518 
L 179.365109 120.304599 
L 178.496215 120.79996 
L 177.625751 121.292442 
L 176.753798 121.782192 
L 175.87863 122.266047 
L 175.003964 122.75082 
L 174.128479 123.234093 
L 173.249663 123.711259 
L 172.370397 124.187597 
L 171.487096 124.656535 
L 170.595617 125.110476 
L 169.696693 125.550763 
L 168.808826 126.01133 
L 167.911249 126.454087 
L 167.014102 126.897634 
L 166.126992 127.359587 
L 165.238255 127.818556 
L 164.328385 128.238769 
L 163.426626 128.673858 
L 162.513378 129.087876 
L 161.620426 129.539115 
L 160.705783 129.950575 
L 159.809487 130.395681 
L 158.896043 130.80934 
L 157.968265 131.196712 
L 157.056873 131.614134 
L 156.128533 132.000474 
L 155.224234 132.430903 
L 154.287161 132.801228 
L 153.37542 133.21801 
L 152.442003 133.595039 
L 151.540018 134.029713 
L 150.645011 134.477184 
L 149.72329 134.875664 
L 148.819713 135.307417 
L 147.110586 136.139233 
L 148.073729 135.67 
L 148.120493 134.67 
L 148.192537 133.67 
L 148.242679 132.67 
L 148.260069 131.67 
L 148.287072 130.67 
L 148.306499 129.67 
L 148.325837 128.67 
L 148.364086 127.67 
L 148.380519 126.67 
L 148.388888 125.67 
L 148.393207 124.67 
L 148.399762 123.67 
L 148.397216 122.67 
L 148.391757 121.67 
L 148.375329 120.67 
L 148.343394 119.67 
L 148.305414 118.67 
L 148.27061 117.67 
L 148.207538 116.67 
L 148.186111 115.67 
L 148.135493 114.67 
L 148.110536 113.67 
L 148.054902 112.67 
L 148.023673 111.67 
L 147.973529 110.67 
L 147.941036 109.67 
L 147.860624 108.67 
L 147.791698 107.67 
L 147.676001 106.67 
L 147.600522 105.67 
L 147.484997 104.67 
L 147.405513 103.67 
L 147.297072 102.67 
L 147.257704 101.67 
L 147.154836 100.67 
L 147.055038 99.67 
L 147.009541 98.42 
M 217.548058 98.42 
" style="fill:none;stroke:#000000;stroke-linecap:round;stroke-width:1.5;"/>
    <path clip-path="url(#p5990599568)" d="M 152.928507 79.295 
L 153.928507 79.326436 
L 154.928507 79.363377 
L 155.928507 79.461123 
L 156.928507 79.493645 
L 157.928507 79.56727 
L 159.408507 79.605835 
" style="fill:none;stroke:#ffffff;stroke-linecap:round;stroke-width:4;"/>
    <path clip-path="url(#p5990599568)" d="M 152.928507 79.295 
L 153.928507 79.326436 
L 154.928507 79.363377 
L 155.928507 79.461123 
L 156.928507 79.493645 
L 157.928507 79.56727 
L 159.408507 79.605835 
" style="fill:none;stroke:#000000;stroke-linecap:round;stroke-width:1.5;"/>
    <path clip-path="url(#p5990599568)" d="M 152.928507 117.545 
L 153.928507 117.576436 
L 154.928507 117.613377 
L 155.928507 117.711123 
L 156.928507 117.743645 
L 157.928507 117.81727 
L 159.408507 117.855835 
" style="fill:none;stroke:#ffffff;stroke-linecap:round;stroke-width:4;"/>
    <path clip-path="url(#p5990599568)" d="M 152.928507 117.545 
L 153.928507 117.576436 
L 154.928507 117.613377 
L 155.928507 117.711123 
L 156.928507 117.743645 
L 157.928507 117.81727 
L 159.408507 117.855835 
" style="fill:none;stroke:#000000;stroke-linecap:round;stroke-width:1.5;"/>
    <path clip-path="url(#p5990599568)" d="M 147.4 117.545 
L 146.4 117.513564 
L 145.4 117.476623 
L 144.4 117.378877 
L 143.4 117.346355 
L 142.4 117.27273 
L 141.4 117.234165 
L 140.4 117.198752 
L 139.4 117.141112 
L 138.4 117.070726 
L 137.4 117.018761 
L 136.4 116.959672 
L 135.25 116.871351 
L 134.25 116.825206 
L 133.25 116.782795 
L 132.25 116.752303 
L 131.25 116.726258 
L 130.25 116.705058 
L 129.25 116.650757 
L 128.25 116.622819 
L 127.25 116.593095 
L 126.25 116.5677 
L 125.25 116.5565 
L 124.25 116.546376 
L 123.1 116.54658 
" style="fill:none;stroke:#ffffff;stroke-linecap:round;stroke-width:4;"/>
    <path clip-path="url(#p5990599568)" d="M 147.4 117.545 
L 146.4 117.513564 
L 145.4 117.476623 
L 144.4 117.378877 
L 143.4 117.346355 
L 142.4 117.27273 
L 141.4 117.234165 
L 140.4 117.198752 
L 139.4 117.141112 
L 138.4 117.070726 
L 137.4 117.018761 
L 136.4 116.959672 
L 135.25 116.871351 
L 134.25 116.825206 
L 133.25 116.782795 
L 132.25 116.752303 
L 131.25 116.726258 
L 130.25 116.705058 
L 129.25 116.650757 
L 128.25 116.622819 
L 127.25 116.593095 
L 126.25 116.5677 
L 125.25 116.5565 
L 124.25 116.546376 
L 123.1 116.54658 
" style="fill:none;stroke:#000000;stroke-linecap:round;stroke-width:1.5;"/>
    <path clip-path="url(#p5990599568)" d="M 123.1 117.545 
L 123.068564 118.545 
L 123.031623 119.545 
L 122.933877 120.545 
L 122.901355 121.545 
L 122.82773 122.545 
L 122.789165 123.545 
L 122.753752 124.545 
L 122.696112 125.545 
L 122.625726 126.725 
L 122.573761 127.725 
L 122.514672 128.725 
L 122.426351 129.725 
L 122.380206 130.725 
L 122.337795 131.725 
L 122.307303 132.725 
L 122.281258 133.725 
L 122.260058 134.725 
L 122.205757 135.905 
" style="fill:none;stroke:#ffffff;stroke-linecap:round;stroke-width:4;"/>
    <path clip-path="url(#p5990599568)" d="M 123.1 117.545 
L 123.068564 118.545 
L 123.031623 119.545 
L 122.933877 120.545 
L 122.901355 121.545 
L 122.82773 122.545 
L 122.789165 123.545 
L 122.753752 124.545 
L 122.696112 125.545 
L 122.625726 126.725 
L 122.573761 127.725 
L 122.514672 128.725 
L 122.426351 129.725 
L 122.380206 130.725 
L 122.337795 131.725 
L 122.307303 132.725 
L 122.281258 133.725 
L 122.260058 134.725 
L 122.205757 135.905 
" style="fill:none;stroke:#000000;stroke-linecap:round;stroke-width:1.5;"/>
    <path clip-path="url(#p5990599568)" d="M 123.1 135.905 
L 123.068564 136.905 
L 123.031623 137.905 
L 122.933877 138.905 
L 122.901355 139.905 
L 122.82773 140.905 
L 122.789165 141.905 
L 122.753752 142.905 
L 122.696112 143.905 
L 122.625726 144.905 
L 122.573761 145.905 
L 122.514672 146.905 
L 122.426351 148.145 
L 122.1 147.425206 
L 121.1 147.382795 
L 120.1 147.352303 
L 119.1 147.326258 
L 118.1 147.305058 
L 117.1 147.250757 
L 116.1 147.222819 
L 115 147.193095 
L 116 149.1223 
L 117 149.1335 
L 118 149.143624 
L 119 149.14342 
L 120 149.13391 
L 121 149.122256 
L 122 149.091227 
L 123 149.080059 
L 124 149.049942 
L 125 148.990165 
L 126 148.952973 
L 127 148.913877 
L 128 148.871437 
L 129 148.838672 
L 130 148.771246 
L 131.2 148.73212 
M 117.43 151.817 
L 118.43 151.868745 
L 119.43 151.950423 
L 120.43 151.990821 
L 121.43 152.053444 
L 122.43 152.165581 
L 123.43 152.232716 
L 124.43 152.3336 
L 125.43 152.372313 
L 126.43 152.422214 
L 127.43 152.46014 
L 128.77 152.52024 
M 121.48 155.489 
L 122.48 155.610039 
L 123.48 155.682859 
L 124.72 155.770392 
" style="fill:none;stroke:#ffffff;stroke-linecap:round;stroke-width:4;"/>
    <path clip-path="url(#p5990599568)" d="M 123.1 135.905 
L 123.068564 136.905 
L 123.031623 137.905 
L 122.933877 138.905 
L 122.901355 139.905 
L 122.82773 140.905 
L 122.789165 141.905 
L 122.753752 142.905 
L 122.696112 143.905 
L 122.625726 144.905 
L 122.573761 145.905 
L 122.514672 146.905 
L 122.426351 148.145 
L 122.1 147.425206 
L 121.1 147.382795 
L 120.1 147.352303 
L 119.1 147.326258 
L 118.1 147.305058 
L 117.1 147.250757 
L 116.1 147.222819 
L 115 147.193095 
L 116 149.1223 
L 117 149.1335 
L 118 149.143624 
L 119 149.14342 
L 120 149.13391 
L 121 149.122256 
L 122 149.091227 
L 123 149.080059 
L 124 149.049942 
L 125 148.990165 
L 126 148.952973 
L 127 148.913877 
L 128 148.871437 
L 129 148.838672 
L 130 148.771246 
L 131.2 148.73212 
M 117.43 151.817 
L 118.43 151.868745 
L 119.43 151.950423 
L 120.43 151.990821 
L 121.43 152.053444 
L 122.43 152.165581 
L 123.43 152.232716 
L 124.43 152.3336 
L 125.43 152.372313 
L 126.43 152.422214 
L 127.43 152.46014 
L 128.77 152.52024 
M 121.48 155.489 
L 122.48 155.610039 
L 123.48 155.682859 
L 124.72 155.770392 
" style="fill:none;stroke:#000000;stroke-linecap:round;stroke-width:1.5;"/>
    <path clip-path="url(#p5990599568)" d="M 147.4 79.295 
L 146.4 79.263564 
L 145.4 79.226623 
L 144.4 79.128877 
L 143.4 79.096355 
L 142.4 79.02273 
L 141.4 78.984165 
L 140.4 78.948752 
L 139.3 78.891112 
L 138.3 78.820726 
L 137.3 78.768761 
L 136.3 78.709672 
L 135.3 78.621351 
L 134.3 78.575206 
L 133.3 78.532795 
L 132.3 78.502303 
L 131.2 78.476258 
" style="fill:none;stroke:#ffffff;stroke-linecap:round;stroke-width:4;"/>
    <path clip-path="url(#p5990599568)" d="M 147.4 79.295 
L 146.4 79.263564 
L 145.4 79.226623 
L 144.4 79.128877 
L 143.4 79.096355 
L 142.4 79.02273 
L 141.4 78.984165 
L 140.4 78.948752 
L 139.3 78.891112 
L 138.3 78.820726 
L 137.3 78.768761 
L 136.3 78.709672 
L 135.3 78.621351 
L 134.3 78.575206 
L 133.3 78.532795 
L 132.3 78.502303 
L 131.2 78.476258 
" style="fill:none;stroke:#000000;stroke-linecap:round;stroke-width:1.5;"/>
    <path clip-path="url(#p5990599568)" d="M 131.2 79.295 
" style="fill:none;stroke:#ffffff;stroke-linecap:round;stroke-width:4;"/>
    <path clip-path="url(#p5990599568)" d="M 131.2 79.295 
" style="fill:none;stroke:#000000;stroke-linecap:round;stroke-width:1.5;"/>
    <path clip-path="url(#p5990599568)" d="M 127.96 79.295 
L 126.96 79.263564 
L 125.96 79.226623 
L 124.96 79.128877 
L 123.96 79.096355 
L 122.96 79.02273 
L 121.96 78.984165 
L 120.96 78.948752 
L 119.96 78.891112 
L 118.96 78.820726 
L 117.96 78.768761 
L 116.96 78.709672 
L 115.96 78.621351 
L 114.96 78.575206 
L 113.96 78.532795 
L 112.96 78.502303 
L 111.96 78.476258 
L 110.96 78.455058 
L 109.96 78.400757 
L 108.96 78.372819 
L 107.96 78.343095 
L 106.96 78.3177 
L 105.96 78.3065 
L 104.96 78.296376 
L 103.96 78.29658 
L 102.96 78.30609 
L 101.96 78.317744 
L 100.96 78.348773 
L 99.96 78.359941 
L 98.96 78.390058 
L 97.96 78.449835 
L 96.96 78.487027 
L 95.56 78.526123 
L 94.542156 79.996217 
L 94.240233 80.950113 
L 93.970996 81.915544 
L 93.675071 82.871556 
L 93.382493 83.828749 
L 93.116229 84.79523 
L 92.817725 85.750332 
L 92.50254 86.818838 
L 92.780013 85.912775 
L 92.380563 84.993301 
L 91.941241 84.087899 
L 91.565258 83.160143 
L 91.174648 82.237549 
L 90.796094 81.3107 
L 90.387058 80.394609 
L 89.942476 79.491064 
L 89.543448 78.571441 
L 89.132112 77.656163 
L 88.76804 76.724202 
L 88.386903 75.798265 
L 87.989584 74.878039 
L 87.594324 73.957086 
L 87.188971 73.039696 
L 86.755515 71.893642 
L 87.856633 72.845444 
L 87.545172 73.795973 
L 87.23077 74.745464 
L 86.922839 75.697239 
L 86.636952 76.656794 
L 86.337206 77.611457 
L 86.038207 78.566384 
L 85.719878 79.514489 
L 85.401928 80.462728 
L 85.072326 81.406854 
L 84.741786 82.350649 
L 84.408507 83.293478 
L 84.073867 84.235826 
L 83.728546 85.174404 
L 83.387814 86.114602 
L 82.959807 87.262579 
L 80.849092 86.311923 
L 80.532523 85.363197 
L 80.217113 84.414062 
L 79.90358 83.464264 
L 79.586413 82.515749 
L 79.312793 81.551865 
L 79.050947 80.583825 
L 78.748905 79.629972 
L 78.479797 78.664495 
L 78.197942 77.703517 
L 77.896905 76.749309 
L 77.649073 75.776323 
L 77.343161 74.823835 
L 77.040032 73.870366 
L 76.736455 72.917054 
L 76.38044 71.743668 
L 76.545834 72.665163 
L 76.176997 73.595441 
L 75.753711 74.506502 
L 75.374441 75.433098 
L 75.000064 76.361422 
L 74.629408 77.291058 
L 74.194399 78.197982 
L 73.822324 79.127117 
L 73.430905 80.049426 
L 73.032111 80.969131 
L 72.600744 81.87734 
L 72.233045 82.80802 
L 71.856963 83.735742 
L 71.459553 84.655936 
L 71.080766 85.582703 
L 70.599894 86.712022 
L 71.616085 85.758867 
L 71.348816 84.792741 
L 71.038603 83.841771 
L 70.732772 82.889255 
L 70.439363 81.932355 
L 70.126888 80.982184 
L 69.807221 80.034552 
L 69.4996 79.082668 
L 69.175559 78.136579 
L 68.854476 77.189446 
L 68.53208 76.242776 
L 68.204602 75.297901 
L 67.876274 74.353325 
L 67.538223 73.412181 
L 67.192872 72.473613 
L 66.778085 71.32097 
L 64.632467 72.272209 
L 64.321872 73.223044 
L 64.02317 74.178076 
L 63.714831 75.129707 
L 63.40306 76.080126 
L 63.13508 77.046001 
L 62.872546 78.013798 
L 62.590908 79.094144 
L 62.16 78.742555 
L 61.16 78.796489 
L 60.16 78.83174 
L 59.16 78.937828 
L 58.16 78.990092 
L 57.16 79.026999 
L 56.16 79.05803 
L 55.16 79.119185 
L 54.16 79.186605 
L 53.16 79.235511 
L 52.16 79.300703 
L 51.16 79.338891 
L 50.16 79.380887 
L 49.16 79.422904 
L 48.16 79.48242 
L 47.16 79.59558 
L 46.16 79.647831 
L 45.16 79.687249 
L 44.16 79.73435 
L 43.16 79.79113 
L 42.16 79.823793 
L 41.16 79.859971 
L 40.16 79.892061 
L 39.16 79.926341 
L 38.16 79.984719 
L 37.16 80.029904 
L 36.16 80.059528 
L 35.16 80.109914 
L 34.16 80.135111 
L 33.16 80.156162 
L 32.16 80.19113 
L 30.76 80.21542 
" style="fill:none;stroke:#ffffff;stroke-linecap:round;stroke-width:4;"/>
    <path clip-path="url(#p5990599568)" d="M 127.96 79.295 
L 126.96 79.263564 
L 125.96 79.226623 
L 124.96 79.128877 
L 123.96 79.096355 
L 122.96 79.02273 
L 121.96 78.984165 
L 120.96 78.948752 
L 119.96 78.891112 
L 118.96 78.820726 
L 117.96 78.768761 
L 116.96 78.709672 
L 115.96 78.621351 
L 114.96 78.575206 
L 113.96 78.532795 
L 112.96 78.502303 
L 111.96 78.476258 
L 110.96 78.455058 
L 109.96 78.400757 
L 108.96 78.372819 
L 107.96 78.343095 
L 106.96 78.3177 
L 105.96 78.3065 
L 104.96 78.296376 
L 103.96 78.29658 
L 102.96 78.30609 
L 101.96 78.317744 
L 100.96 78.348773 
L 99.96 78.359941 
L 98.96 78.390058 
L 97.96 78.449835 
L 96.96 78.487027 
L 95.56 78.526123 
L 94.542156 79.996217 
L 94.240233 80.950113 
L 93.970996 81.915544 
L 93.675071 82.871556 
L 93.382493 83.828749 
L 93.116229 84.79523 
L 92.817725 85.750332 
L 92.50254 86.818838 
L 92.780013 85.912775 
L 92.380563 84.993301 
L 91.941241 84.087899 
L 91.565258 83.160143 
L 91.174648 82.237549 
L 90.796094 81.3107 
L 90.387058 80.394609 
L 89.942476 79.491064 
L 89.543448 78.571441 
L 89.132112 77.656163 
L 88.76804 76.724202 
L 88.386903 75.798265 
L 87.989584 74.878039 
L 87.594324 73.957086 
L 87.188971 73.039696 
L 86.755515 71.893642 
L 87.856633 72.845444 
L 87.545172 73.795973 
L 87.23077 74.745464 
L 86.922839 75.697239 
L 86.636952 76.656794 
L 86.337206 77.611457 
L 86.038207 78.566384 
L 85.719878 79.514489 
L 85.401928 80.462728 
L 85.072326 81.406854 
L 84.741786 82.350649 
L 84.408507 83.293478 
L 84.073867 84.235826 
L 83.728546 85.174404 
L 83.387814 86.114602 
L 82.959807 87.262579 
L 80.849092 86.311923 
L 80.532523 85.363197 
L 80.217113 84.414062 
L 79.90358 83.464264 
L 79.586413 82.515749 
L 79.312793 81.551865 
L 79.050947 80.583825 
L 78.748905 79.629972 
L 78.479797 78.664495 
L 78.197942 77.703517 
L 77.896905 76.749309 
L 77.649073 75.776323 
L 77.343161 74.823835 
L 77.040032 73.870366 
L 76.736455 72.917054 
L 76.38044 71.743668 
L 76.545834 72.665163 
L 76.176997 73.595441 
L 75.753711 74.506502 
L 75.374441 75.433098 
L 75.000064 76.361422 
L 74.629408 77.291058 
L 74.194399 78.197982 
L 73.822324 79.127117 
L 73.430905 80.049426 
L 73.032111 80.969131 
L 72.600744 81.87734 
L 72.233045 82.80802 
L 71.856963 83.735742 
L 71.459553 84.655936 
L 71.080766 85.582703 
L 70.599894 86.712022 
L 71.616085 85.758867 
L 71.348816 84.792741 
L 71.038603 83.841771 
L 70.732772 82.889255 
L 70.439363 81.932355 
L 70.126888 80.982184 
L 69.807221 80.034552 
L 69.4996 79.082668 
L 69.175559 78.136579 
L 68.854476 77.189446 
L 68.53208 76.242776 
L 68.204602 75.297901 
L 67.876274 74.353325 
L 67.538223 73.412181 
L 67.192872 72.473613 
L 66.778085 71.32097 
L 64.632467 72.272209 
L 64.321872 73.223044 
L 64.02317 74.178076 
L 63.714831 75.129707 
L 63.40306 76.080126 
L 63.13508 77.046001 
L 62.872546 78.013798 
L 62.590908 79.094144 
L 62.16 78.742555 
L 61.16 78.796489 
L 60.16 78.83174 
L 59.16 78.937828 
L 58.16 78.990092 
L 57.16 79.026999 
L 56.16 79.05803 
L 55.16 79.119185 
L 54.16 79.186605 
L 53.16 79.235511 
L 52.16 79.300703 
L 51.16 79.338891 
L 50.16 79.380887 
L 49.16 79.422904 
L 48.16 79.48242 
L 47.16 79.59558 
L 46.16 79.647831 
L 45.16 79.687249 
L 44.16 79.73435 
L 43.16 79.79113 
L 42.16 79.823793 
L 41.16 79.859971 
L 40.16 79.892061 
L 39.16 79.926341 
L 38.16 79.984719 
L 37.16 80.029904 
L 36.16 80.059528 
L 35.16 80.109914 
L 34.16 80.135111 
L 33.16 80.156162 
L 32.16 80.19113 
L 30.76 80.21542 
" style="fill:none;stroke:#000000;stroke-linecap:round;stroke-width:1.5;"/>
    <path clip-path="url(#p5990599568)" d="M 131.2 79.295 
L 131.231436 78.295 
L 131.268377 77.295 
L 131.366123 76.295 
L 131.398645 75.295 
L 131.47227 74.295 
L 131.510835 73.295 
L 131.546248 72.295 
L 131.603888 71.295 
L 131.674274 70.295 
L 131.726239 69.295 
L 131.785328 68.295 
L 131.873649 67.295 
L 131.919794 66.295 
L 131.962205 65.295 
L 131.992697 64.295 
L 132.018742 63.295 
L 132.039942 62.295 
L 132.094243 61.295 
L 132.122181 60.295 
L 132.151905 59.295 
L 132.1773 58.295 
L 132.1885 56.345 
L 132.198624 55.345 
L 132.19842 54.345 
L 132.18891 53.345 
L 132.177256 52.345 
L 132.146227 51.345 
L 132.135059 50.345 
L 132.104942 49.345 
L 132.045165 48.345 
L 132.007973 47.345 
L 131.968877 46.345 
L 131.926437 45.345 
L 131.893672 44.345 
L 131.826246 43.345 
L 131.78712 42.345 
L 131.744445 41.345 
L 131.673865 40.345 
L 131.637474 39.345 
L 131.579071 38.345 
L 131.468118 37.345 
L 131.39746 36.345 
L 131.28452 35.345 
L 131.238747 33.395 
" style="fill:none;stroke:#ffffff;stroke-linecap:round;stroke-width:4;"/>
    <path clip-path="url(#p5990599568)" d="M 131.2 79.295 
L 131.231436 78.295 
L 131.268377 77.295 
L 131.366123 76.295 
L 131.398645 75.295 
L 131.47227 74.295 
L 131.510835 73.295 
L 131.546248 72.295 
L 131.603888 71.295 
L 131.674274 70.295 
L 131.726239 69.295 
L 131.785328 68.295 
L 131.873649 67.295 
L 131.919794 66.295 
L 131.962205 65.295 
L 131.992697 64.295 
L 132.018742 63.295 
L 132.039942 62.295 
L 132.094243 61.295 
L 132.122181 60.295 
L 132.151905 59.295 
L 132.1773 58.295 
L 132.1885 56.345 
L 132.198624 55.345 
L 132.19842 54.345 
L 132.18891 53.345 
L 132.177256 52.345 
L 132.146227 51.345 
L 132.135059 50.345 
L 132.104942 49.345 
L 132.045165 48.345 
L 132.007973 47.345 
L 131.968877 46.345 
L 131.926437 45.345 
L 131.893672 44.345 
L 131.826246 43.345 
L 131.78712 42.345 
L 131.744445 41.345 
L 131.673865 40.345 
L 131.637474 39.345 
L 131.579071 38.345 
L 131.468118 37.345 
L 131.39746 36.345 
L 131.28452 35.345 
L 131.238747 33.395 
" style="fill:none;stroke:#000000;stroke-linecap:round;stroke-width:1.5;"/>
    <path clip-path="url(#p5990599568)" d="M 131.2 33.395 
L 132.2 33.426436 
L 133.2 33.463377 
L 134.2 33.561123 
L 135.2 33.593645 
L 136.2 33.66727 
L 137.2 33.705835 
L 138.2 33.741248 
L 139.2 33.798888 
L 140.2 33.869274 
L 141.2 33.921239 
L 142.2 33.980328 
L 143.2 34.068649 
L 144.2 34.114794 
L 145.2 34.157205 
L 146.2 34.187697 
L 147.2 34.213742 
L 148.2 34.234942 
L 149.2 34.289243 
L 150.2 34.317181 
L 151.2 34.346905 
L 152.2 34.3723 
L 153.2 34.3835 
L 154.2 34.393624 
L 155.2 34.39342 
L 156.2 34.38391 
L 157.2 34.372256 
L 158.2 34.341227 
L 159.2 34.330059 
L 160.2 34.299942 
L 161.2 34.240165 
L 162.2 34.202973 
L 163.6 34.163877 
L 164.617844 32.693783 
L 164.919767 31.739887 
L 165.189004 30.774456 
L 165.484929 29.818444 
L 165.777507 28.861251 
L 166.043771 27.89477 
L 166.342275 26.939668 
L 166.65746 25.871162 
L 166.379987 26.777225 
L 166.779437 27.696699 
L 167.218759 28.602101 
L 167.594742 29.529857 
L 167.985352 30.452451 
L 168.363906 31.3793 
L 168.772942 32.295391 
L 169.217524 33.198936 
L 169.616552 34.118559 
L 170.027888 35.033837 
L 170.39196 35.965798 
L 170.773097 36.891735 
L 171.170416 37.811961 
L 171.565676 38.732914 
L 171.971029 39.650304 
L 172.404485 40.796358 
L 171.303367 39.844556 
L 171.614828 38.894027 
L 171.92923 37.944536 
L 172.237161 36.992761 
L 172.523048 36.033206 
L 172.822794 35.078543 
L 173.121793 34.123616 
L 173.440122 33.175511 
L 173.758072 32.227272 
L 174.087674 31.283146 
L 174.418214 30.339351 
L 174.751493 29.396522 
L 175.086133 28.454174 
L 175.431454 27.515596 
L 175.772186 26.575398 
L 176.200193 25.427421 
L 178.310908 26.378077 
L 178.627477 27.326803 
L 178.942887 28.275938 
L 179.25642 29.225736 
L 179.573587 30.174251 
L 179.847207 31.138135 
L 180.109053 32.106175 
L 180.411095 33.060028 
L 180.680203 34.025505 
L 180.962058 34.986483 
L 181.263095 35.940691 
L 181.510927 36.913677 
L 181.816839 37.866165 
L 182.119968 38.819634 
L 182.423545 39.772946 
L 182.77956 40.946332 
L 182.614166 40.024837 
L 182.983003 39.094559 
L 183.406289 38.183498 
L 183.785559 37.256902 
L 184.159936 36.328578 
L 184.530592 35.398942 
L 184.965601 34.492018 
L 185.337676 33.562883 
L 185.729095 32.640574 
L 186.127889 31.720869 
L 186.559256 30.81266 
L 186.926955 29.88198 
L 187.303037 28.954258 
L 187.700447 28.034064 
L 188.079234 27.107297 
L 188.560106 25.977978 
L 187.543915 26.931133 
L 187.811184 27.897259 
L 188.121397 28.848229 
L 188.427228 29.800745 
L 188.720637 30.757645 
L 189.033112 31.707816 
L 189.352779 32.655448 
L 189.6604 33.607332 
L 189.984441 34.553421 
L 190.305524 35.500554 
L 190.62792 36.447224 
L 190.955398 37.392099 
L 191.283726 38.336675 
L 191.621777 39.277819 
L 191.967128 40.216387 
L 192.381915 41.36903 
L 194.527533 40.417791 
L 194.838128 39.466956 
L 195.13683 38.511924 
L 195.445169 37.560293 
L 195.75694 36.609874 
L 196.02492 35.643999 
L 196.287454 34.676202 
L 196.569092 33.595856 
L 197 33.947445 
L 198 33.893511 
L 199 33.85826 
L 200 33.752172 
L 201 33.699908 
L 202 33.663001 
L 203 33.63197 
L 204 33.570815 
L 205 33.503395 
L 206 33.454489 
L 207 33.389297 
L 208 33.351109 
L 209 33.309113 
L 210 33.267096 
L 211 33.20758 
L 212 33.09442 
L 213 33.042169 
L 214 33.002751 
L 215 32.95565 
L 216 32.89887 
L 217 32.866207 
L 218 32.830029 
L 219 32.797939 
L 220 32.763659 
L 221 32.705281 
L 222 32.660096 
L 223 32.630472 
L 224 32.580086 
L 225 32.554889 
L 226 32.533838 
L 227 32.49887 
L 228.4 32.47458 
" style="fill:none;stroke:#ffffff;stroke-linecap:round;stroke-width:4;"/>
    <path clip-path="url(#p5990599568)" d="M 131.2 33.395 
L 132.2 33.426436 
L 133.2 33.463377 
L 134.2 33.561123 
L 135.2 33.593645 
L 136.2 33.66727 
L 137.2 33.705835 
L 138.2 33.741248 
L 139.2 33.798888 
L 140.2 33.869274 
L 141.2 33.921239 
L 142.2 33.980328 
L 143.2 34.068649 
L 144.2 34.114794 
L 145.2 34.157205 
L 146.2 34.187697 
L 147.2 34.213742 
L 148.2 34.234942 
L 149.2 34.289243 
L 150.2 34.317181 
L 151.2 34.346905 
L 152.2 34.3723 
L 153.2 34.3835 
L 154.2 34.393624 
L 155.2 34.39342 
L 156.2 34.38391 
L 157.2 34.372256 
L 158.2 34.341227 
L 159.2 34.330059 
L 160.2 34.299942 
L 161.2 34.240165 
L 162.2 34.202973 
L 163.6 34.163877 
L 164.617844 32.693783 
L 164.919767 31.739887 
L 165.189004 30.774456 
L 165.484929 29.818444 
L 165.777507 28.861251 
L 166.043771 27.89477 
L 166.342275 26.939668 
L 166.65746 25.871162 
L 166.379987 26.777225 
L 166.779437 27.696699 
L 167.218759 28.602101 
L 167.594742 29.529857 
L 167.985352 30.452451 
L 168.363906 31.3793 
L 168.772942 32.295391 
L 169.217524 33.198936 
L 169.616552 34.118559 
L 170.027888 35.033837 
L 170.39196 35.965798 
L 170.773097 36.891735 
L 171.170416 37.811961 
L 171.565676 38.732914 
L 171.971029 39.650304 
L 172.404485 40.796358 
L 171.303367 39.844556 
L 171.614828 38.894027 
L 171.92923 37.944536 
L 172.237161 36.992761 
L 172.523048 36.033206 
L 172.822794 35.078543 
L 173.121793 34.123616 
L 173.440122 33.175511 
L 173.758072 32.227272 
L 174.087674 31.283146 
L 174.418214 30.339351 
L 174.751493 29.396522 
L 175.086133 28.454174 
L 175.431454 27.515596 
L 175.772186 26.575398 
L 176.200193 25.427421 
L 178.310908 26.378077 
L 178.627477 27.326803 
L 178.942887 28.275938 
L 179.25642 29.225736 
L 179.573587 30.174251 
L 179.847207 31.138135 
L 180.109053 32.106175 
L 180.411095 33.060028 
L 180.680203 34.025505 
L 180.962058 34.986483 
L 181.263095 35.940691 
L 181.510927 36.913677 
L 181.816839 37.866165 
L 182.119968 38.819634 
L 182.423545 39.772946 
L 182.77956 40.946332 
L 182.614166 40.024837 
L 182.983003 39.094559 
L 183.406289 38.183498 
L 183.785559 37.256902 
L 184.159936 36.328578 
L 184.530592 35.398942 
L 184.965601 34.492018 
L 185.337676 33.562883 
L 185.729095 32.640574 
L 186.127889 31.720869 
L 186.559256 30.81266 
L 186.926955 29.88198 
L 187.303037 28.954258 
L 187.700447 28.034064 
L 188.079234 27.107297 
L 188.560106 25.977978 
L 187.543915 26.931133 
L 187.811184 27.897259 
L 188.121397 28.848229 
L 188.427228 29.800745 
L 188.720637 30.757645 
L 189.033112 31.707816 
L 189.352779 32.655448 
L 189.6604 33.607332 
L 189.984441 34.553421 
L 190.305524 35.500554 
L 190.62792 36.447224 
L 190.955398 37.392099 
L 191.283726 38.336675 
L 191.621777 39.277819 
L 191.967128 40.216387 
L 192.381915 41.36903 
L 194.527533 40.417791 
L 194.838128 39.466956 
L 195.13683 38.511924 
L 195.445169 37.560293 
L 195.75694 36.609874 
L 196.02492 35.643999 
L 196.287454 34.676202 
L 196.569092 33.595856 
L 197 33.947445 
L 198 33.893511 
L 199 33.85826 
L 200 33.752172 
L 201 33.699908 
L 202 33.663001 
L 203 33.63197 
L 204 33.570815 
L 205 33.503395 
L 206 33.454489 
L 207 33.389297 
L 208 33.351109 
L 209 33.309113 
L 210 33.267096 
L 211 33.20758 
L 212 33.09442 
L 213 33.042169 
L 214 33.002751 
L 215 32.95565 
L 216 32.89887 
L 217 32.866207 
L 218 32.830029 
L 219 32.797939 
L 220 32.763659 
L 221 32.705281 
L 222 32.660096 
L 223 32.630472 
L 224 32.580086 
L 225 32.554889 
L 226 32.533838 
L 227 32.49887 
L 228.4 32.47458 
" style="fill:none;stroke:#000000;stroke-linecap:round;stroke-width:1.5;"/>
    <path clip-path="url(#p5990599568)" d="M 228.4 33.395 
L 228.368564 34.395 
L 228.331623 35.395 
L 228.233877 36.395 
L 228.201355 37.395 
L 228.12773 38.395 
L 228.089165 39.395 
L 228.053752 40.395 
L 227.996112 41.395 
L 227.925726 42.395 
L 227.873761 43.395 
L 227.814672 44.395 
L 227.726351 45.395 
L 227.680206 46.395 
L 227.637795 47.395 
L 227.607303 48.395 
L 227.581258 49.395 
L 227.560058 50.395 
L 227.505757 51.395 
L 227.477819 52.395 
L 227.448095 53.395 
L 227.4227 54.395 
L 227.4115 55.395 
L 227.401376 56.395 
L 227.40158 57.395 
L 227.41109 58.395 
L 227.422744 59.395 
L 227.453773 60.395 
L 227.464941 61.395 
L 227.495058 62.395 
L 227.554835 63.395 
L 227.592027 64.395 
L 227.631123 65.9075 
L 227.673563 66.9075 
L 227.706328 67.9075 
L 227.773754 68.9075 
L 227.81288 69.9075 
L 227.855555 70.9075 
L 227.926135 71.9075 
L 227.962526 72.9075 
L 228.020929 73.9075 
L 228.131882 74.9075 
L 228.20254 75.9075 
L 228.31548 76.9075 
L 228.361253 77.9075 
L 228.422536 78.9075 
L 228.471035 79.9075 
L 228.551858 80.9075 
L 228.670377 81.9075 
L 228.740588 82.9075 
L 228.82385 83.9075 
L 228.856992 84.9075 
L 228.908229 85.9075 
L 228.976628 86.9075 
L 229.042843 87.9075 
L 229.11976 88.9075 
L 229.147076 89.9075 
L 229.173553 90.9075 
L 229.196204 91.9075 
L 229.215735 92.9075 
L 229.242129 93.9075 
L 229.2919 94.9075 
L 229.326973 95.9075 
L 229.362839 96.9075 
L 229.378206 98.42 
" style="fill:none;stroke:#ffffff;stroke-linecap:round;stroke-width:4;"/>
    <path clip-path="url(#p5990599568)" d="M 228.4 33.395 
L 228.368564 34.395 
L 228.331623 35.395 
L 228.233877 36.395 
L 228.201355 37.395 
L 228.12773 38.395 
L 228.089165 39.395 
L 228.053752 40.395 
L 227.996112 41.395 
L 227.925726 42.395 
L 227.873761 43.395 
L 227.814672 44.395 
L 227.726351 45.395 
L 227.680206 46.395 
L 227.637795 47.395 
L 227.607303 48.395 
L 227.581258 49.395 
L 227.560058 50.395 
L 227.505757 51.395 
L 227.477819 52.395 
L 227.448095 53.395 
L 227.4227 54.395 
L 227.4115 55.395 
L 227.401376 56.395 
L 227.40158 57.395 
L 227.41109 58.395 
L 227.422744 59.395 
L 227.453773 60.395 
L 227.464941 61.395 
L 227.495058 62.395 
L 227.554835 63.395 
L 227.592027 64.395 
L 227.631123 65.9075 
L 227.673563 66.9075 
L 227.706328 67.9075 
L 227.773754 68.9075 
L 227.81288 69.9075 
L 227.855555 70.9075 
L 227.926135 71.9075 
L 227.962526 72.9075 
L 228.020929 73.9075 
L 228.131882 74.9075 
L 228.20254 75.9075 
L 228.31548 76.9075 
L 228.361253 77.9075 
L 228.422536 78.9075 
L 228.471035 79.9075 
L 228.551858 80.9075 
L 228.670377 81.9075 
L 228.740588 82.9075 
L 228.82385 83.9075 
L 228.856992 84.9075 
L 228.908229 85.9075 
L 228.976628 86.9075 
L 229.042843 87.9075 
L 229.11976 88.9075 
L 229.147076 89.9075 
L 229.173553 90.9075 
L 229.196204 91.9075 
L 229.215735 92.9075 
L 229.242129 93.9075 
L 229.2919 94.9075 
L 229.326973 95.9075 
L 229.362839 96.9075 
L 229.378206 98.42 
" style="fill:none;stroke:#000000;stroke-linecap:round;stroke-width:1.5;"/>
    <path clip-path="url(#p5990599568)" d="M 228.4 98.42 
" style="fill:none;stroke:#ffffff;stroke-linecap:round;stroke-width:4;"/>
    <path clip-path="url(#p5990599568)" d="M 228.4 98.42 
" style="fill:none;stroke:#000000;stroke-linecap:round;stroke-width:1.5;"/>
    <path clip-path="url(#p5990599568)" d="M 228.4 98.42 
L 227.4 98.388564 
L 226.4 98.351623 
L 225.4 98.253877 
L 224.4 98.221355 
L 222.974029 98.14773 
L 221.974029 98.109165 
L 220.974029 98.073752 
L 219.974029 98.016112 
L 218.974029 97.945726 
L 217.548058 97.893761 
" style="fill:none;stroke:#ffffff;stroke-linecap:round;stroke-width:4;"/>
    <path clip-path="url(#p5990599568)" d="M 228.4 98.42 
L 227.4 98.388564 
L 226.4 98.351623 
L 225.4 98.253877 
L 224.4 98.221355 
L 222.974029 98.14773 
L 221.974029 98.109165 
L 220.974029 98.073752 
L 219.974029 98.016112 
L 218.974029 97.945726 
L 217.548058 97.893761 
" style="fill:none;stroke:#000000;stroke-linecap:round;stroke-width:1.5;"/>
    <path clip-path="url(#p5990599568)" d="M 217.548058 98.42 
L 218.548058 98.451436 
L 219.548058 98.488377 
L 220.548058 98.586123 
L 221.548058 98.618645 
L 222.548058 98.69227 
L 223.548058 98.730835 
L 224.548058 98.766248 
L 225.548058 98.823888 
L 226.548058 98.894274 
L 227.548058 98.946239 
L 228.548058 99.005328 
L 229.698058 99.093649 
L 230.698058 99.139794 
L 231.698058 99.182205 
L 232.698058 99.212697 
L 233.698058 99.238742 
L 234.698058 99.259942 
L 235.698058 99.314243 
L 236.698058 99.342181 
L 237.698058 99.371905 
L 238.698058 99.3973 
L 239.698058 99.4085 
L 240.698058 99.418624 
L 241.848058 99.41842 
" style="fill:none;stroke:#ffffff;stroke-linecap:round;stroke-width:4;"/>
    <path clip-path="url(#p5990599568)" d="M 217.548058 98.42 
L 218.548058 98.451436 
L 219.548058 98.488377 
L 220.548058 98.586123 
L 221.548058 98.618645 
L 222.548058 98.69227 
L 223.548058 98.730835 
L 224.548058 98.766248 
L 225.548058 98.823888 
L 226.548058 98.894274 
L 227.548058 98.946239 
L 228.548058 99.005328 
L 229.698058 99.093649 
L 230.698058 99.139794 
L 231.698058 99.182205 
L 232.698058 99.212697 
L 233.698058 99.238742 
L 234.698058 99.259942 
L 235.698058 99.314243 
L 236.698058 99.342181 
L 237.698058 99.371905 
L 238.698058 99.3973 
L 239.698058 99.4085 
L 240.698058 99.418624 
L 241.848058 99.41842 
" style="fill:none;stroke:#000000;stroke-linecap:round;stroke-width:1.5;"/>
    <g id="patch_2">
     <path clip-path="url(#p5990599568)" d="M 131.2 81.59 
L 132.157466 81.500279 
L 132.958254 80.973278 
L 133.631185 80.299956 
L 133.826668 79.322958 
L 133.771539 78.356141 
L 133.160026 77.476812 
L 132.355985 76.84003 
L 131.250807 76.59932 
L 130.186827 76.650401 
L 129.174006 77.245303 
L 128.442773 78.026549 
L 128.103056 79.200188 
L 128.185391 80.296845 
L 128.888916 81.396899 
L 129.782949 82.112132 
L 131.097006 82.402238 
L 131.2 81.59 
z
" style="stroke:#ffffff;stroke-linejoin:miter;stroke-width:4;"/>
     <path clip-path="url(#p5990599568)" d="M 131.2 81.59 
L 132.157466 81.500279 
L 132.958254 80.973278 
L 133.631185 80.299956 
L 133.826668 79.322958 
L 133.771539 78.356141 
L 133.160026 77.476812 
L 132.355985 76.84003 
L 131.250807 76.59932 
L 130.186827 76.650401 
L 129.174006 77.245303 
L 128.442773 78.026549 
L 128.103056 79.200188 
L 128.185391 80.296845 
L 128.888916 81.396899 
L 129.782949 82.112132 
L 131.097006 82.402238 
L 131.2 81.59 
z
" style="stroke:#000000;stroke-linejoin:miter;stroke-width:1.5;"/>
     <g id="patch_3">
      <path clip-path="url(#p5990599568)" d="M 228.4 100.715 
L 229.357466 100.625279 
L 230.158254 100.098278 
L 230.831185 99.424956 
L 231.026668 98.447958 
L 230.971539 97.481141 
L 230.360026 96.601812 
L 229.555985 95.96503 
L 228.450807 95.72432 
L 227.386827 95.775401 
L 226.374006 96.370303 
L 225.642773 97.151549 
L 225.303056 98.325188 
L 225.385391 99.421845 
L 226.088916 100.521899 
L 226.982949 101.237132 
L 228.297006 101.527238 
L 228.4 100.715 
z
" style="stroke:#ffffff;stroke-linejoin:miter;stroke-width:4;"/>
      <path clip-path="url(#p5990599568)" d="M 228.4 100.715 
L 229.357466 100.625279 
L 230.158254 100.098278 
L 230.831185 99.424956 
L 231.026668 98.447958 
L 230.971539 97.481141 
L 230.360026 96.601812 
L 229.555985 95.96503 
L 228.450807 95.72432 
L 227.386827 95.775401 
L 226.374006 96.370303 
L 225.642773 97.151549 
L 225.303056 98.325188 
L 225.385391 99.421845 
L 226.088916 100.521899 
L 226.982949 101.237132 
L 228.297006 101.527238 
L 228.4 100.715 
z
" style="stroke:#000000;stroke-linejoin:miter;stroke-width:1.5;"/>
      <g id="text_1">
       <path d="M 75.5025 96.6775 
Q 76.01 96.85 76.49 97.4125 
Q 76.97 97.975 77.455 98.96 
L 79.0575 102.1475 
L 77.36 102.1475 
L 75.87 99.155 
Q 75.29 97.9825 74.7475 97.6 
Q 74.205 97.2175 73.2675 97.2175 
L 71.5475 97.2175 
L 71.5475 102.1475 
L 69.97 102.1475 
L 69.97 90.4825 
L 73.5325 90.4825 
Q 75.5325 90.4825 76.5175 91.32 
Q 77.5025 92.155 77.5025 93.8425 
Q 77.5025 94.945 76.99 95.6725 
Q 76.4775 96.3975 75.5025 96.6775 
z
M 71.5475 91.78 
L 71.5475 95.92 
L 73.5325 95.92 
Q 74.6725 95.92 75.255 95.3925 
Q 75.8375 94.865 75.8375 93.8425 
Q 75.8375 92.82 75.255 92.3 
Q 74.6725 91.78 73.5325 91.78 
z
M 80.725563 98.6475 
L 81.731813 98.6475 
L 81.731813 104.7725 
L 80.725563 104.7725 
z
M 80.725563 96.26225 
L 81.731813 96.26225 
L 81.731813 97.538 
L 80.725563 97.538 
z
M 88.929781 101.07475 
L 88.929781 104.7725 
L 87.923531 104.7725 
L 87.923531 101.108 
Q 87.923531 100.23825 87.584031 99.80775 
Q 87.244531 99.3755 86.567281 99.3755 
Q 85.751781 99.3755 85.281031 99.89525 
Q 84.810281 100.41325 84.810281 101.311 
L 84.810281 104.7725 
L 83.798781 104.7725 
L 83.798781 98.6475 
L 84.810281 98.6475 
L 84.810281 99.5995 
Q 85.172531 99.0465 85.660781 98.7735 
Q 86.150781 98.5005 86.791281 98.5005 
Q 87.846531 98.5005 88.387281 99.15325 
Q 88.929781 99.806 88.929781 101.07475 
z
" style="stroke:#ffffff;stroke-width:4;"/>
       <path d="M 75.5025 96.6775 
Q 76.01 96.85 76.49 97.4125 
Q 76.97 97.975 77.455 98.96 
L 79.0575 102.1475 
L 77.36 102.1475 
L 75.87 99.155 
Q 75.29 97.9825 74.7475 97.6 
Q 74.205 97.2175 73.2675 97.2175 
L 71.5475 97.2175 
L 71.5475 102.1475 
L 69.97 102.1475 
L 69.97 90.4825 
L 73.5325 90.4825 
Q 75.5325 90.4825 76.5175 91.32 
Q 77.5025 92.155 77.5025 93.8425 
Q 77.5025 94.945 76.99 95.6725 
Q 76.4775 96.3975 75.5025 96.6775 
z
M 71.5475 91.78 
L 71.5475 95.92 
L 73.5325 95.92 
Q 74.6725 95.92 75.255 95.3925 
Q 75.8375 94.865 75.8375 93.8425 
Q 75.8375 92.82 75.255 92.3 
Q 74.6725 91.78 73.5325 91.78 
z
M 80.725563 98.6475 
L 81.731813 98.6475 
L 81.731813 104.7725 
L 80.725563 104.7725 
z
M 80.725563 96.26225 
L 81.731813 96.26225 
L 81.731813 97.538 
L 80.725563 97.538 
z
M 88.929781 101.07475 
L 88.929781 104.7725 
L 87.923531 104.7725 
L 87.923531 101.108 
Q 87.923531 100.23825 87.584031 99.80775 
Q 87.244531 99.3755 86.567281 99.3755 
Q 85.751781 99.3755 85.281031 99.89525 
Q 84.810281 100.41325 84.810281 101.311 
L 84.810281 104.7725 
L 83.798781 104.7725 
L 83.798781 98.6475 
L 84.810281 98.6475 
L 84.810281 99.5995 
Q 85.172531 99.0465 85.660781 98.7735 
Q 86.150781 98.5005 86.791281 98.5005 
Q 87.846531 98.5005 88.387281 99.15325 
Q 88.929781 99.806 88.929781 101.07475 
z
"/>
      </g>
      <g id="text_2">
       <path d="M 7.6775 74.91 
L 9.2 74.91 
L 11.935 82.2525 
L 14.67 74.91 
L 16.1925 74.91 
L 12.91 83.66 
L 10.9575 83.66 
z
M 17.877125 80.16 
L 18.883375 80.16 
L 18.883375 86.285 
L 17.877125 86.285 
z
M 17.877125 77.77475 
L 18.883375 77.77475 
L 18.883375 79.0505 
L 17.877125 79.0505 
z
M 26.081344 82.58725 
L 26.081344 86.285 
L 25.075094 86.285 
L 25.075094 82.6205 
Q 25.075094 81.75075 24.735594 81.32025 
Q 24.396094 80.888 23.718844 80.888 
Q 22.903344 80.888 22.432594 81.40775 
Q 21.961844 81.92575 21.961844 82.8235 
L 21.961844 86.285 
L 20.950344 86.285 
L 20.950344 80.16 
L 21.961844 80.16 
L 21.961844 81.112 
Q 22.324094 80.559 22.812344 80.286 
Q 23.302344 80.013 23.942844 80.013 
Q 24.998094 80.013 25.538844 80.66575 
Q 26.081344 81.3185 26.081344 82.58725 
z
" style="stroke:#ffffff;stroke-width:4;"/>
       <path d="M 7.6775 74.91 
L 9.2 74.91 
L 11.935 82.2525 
L 14.67 74.91 
L 16.1925 74.91 
L 12.91 83.66 
L 10.9575 83.66 
z
M 17.877125 80.16 
L 18.883375 80.16 
L 18.883375 86.285 
L 17.877125 86.285 
z
M 17.877125 77.77475 
L 18.883375 77.77475 
L 18.883375 79.0505 
L 17.877125 79.0505 
z
M 26.081344 82.58725 
L 26.081344 86.285 
L 25.075094 86.285 
L 25.075094 82.6205 
Q 25.075094 81.75075 24.735594 81.32025 
Q 24.396094 80.888 23.718844 80.888 
Q 22.903344 80.888 22.432594 81.40775 
Q 21.961844 81.92575 21.961844 82.8235 
L 21.961844 86.285 
L 20.950344 86.285 
L 20.950344 80.16 
L 21.961844 80.16 
L 21.961844 81.112 
Q 22.324094 80.559 22.812344 80.286 
Q 23.302344 80.013 23.942844 80.013 
Q 24.998094 80.013 25.538844 80.66575 
Q 26.081344 81.3185 26.081344 82.58725 
z
"/>
      </g>
      <g id="text_3">
       <path d="M 179.0625 13.8725 
Q 179.57 14.045 180.05 14.6075 
Q 180.53 15.17 181.015 16.155 
L 182.6175 19.3425 
L 180.92 19.3425 
L 179.43 16.35 
Q 178.85 15.1775 178.3075 14.795 
Q 177.765 14.4125 176.8275 14.4125 
L 175.1075 14.4125 
L 175.1075 19.3425 
L 173.53 19.3425 
L 173.53 7.6775 
L 177.0925 7.6775 
Q 179.0925 7.6775 180.0775 8.515 
Q 181.0625 9.35 181.0625 11.0375 
Q 181.0625 12.14 180.55 12.8675 
Q 180.0375 13.5925 179.0625 13.8725 
z
M 175.1075 8.975 
L 175.1075 13.115 
L 177.0925 13.115 
Q 178.2325 13.115 178.815 12.5875 
Q 179.3975 12.06 179.3975 11.0375 
Q 179.3975 10.015 178.815 9.495 
Q 178.2325 8.975 177.0925 8.975 
z
M 187.386562 13.45725 
L 187.386562 14.2955 
L 186.424063 14.2955 
Q 185.883313 14.2955 185.671562 14.51425 
Q 185.461563 14.733 185.461563 15.30175 
L 185.461563 15.8425 
L 187.118813 15.8425 
L 187.118813 16.62475 
L 185.461563 16.62475 
L 185.461563 21.9675 
L 184.450063 21.9675 
L 184.450063 16.62475 
L 183.487562 16.62475 
L 183.487562 15.8425 
L 184.450063 15.8425 
L 184.450063 15.4155 
Q 184.450063 14.3935 184.926063 13.92625 
Q 185.402062 13.45725 186.434562 13.45725 
z
" style="stroke:#ffffff;stroke-width:4;"/>
       <path d="M 179.0625 13.8725 
Q 179.57 14.045 180.05 14.6075 
Q 180.53 15.17 181.015 16.155 
L 182.6175 19.3425 
L 180.92 19.3425 
L 179.43 16.35 
Q 178.85 15.1775 178.3075 14.795 
Q 177.765 14.4125 176.8275 14.4125 
L 175.1075 14.4125 
L 175.1075 19.3425 
L 173.53 19.3425 
L 173.53 7.6775 
L 177.0925 7.6775 
Q 179.0925 7.6775 180.0775 8.515 
Q 181.0625 9.35 181.0625 11.0375 
Q 181.0625 12.14 180.55 12.8675 
Q 180.0375 13.5925 179.0625 13.8725 
z
M 175.1075 8.975 
L 175.1075 13.115 
L 177.0925 13.115 
Q 178.2325 13.115 178.815 12.5875 
Q 179.3975 12.06 179.3975 11.0375 
Q 179.3975 10.015 178.815 9.495 
Q 178.2325 8.975 177.0925 8.975 
z
M 187.386562 13.45725 
L 187.386562 14.2955 
L 186.424063 14.2955 
Q 185.883313 14.2955 185.671562 14.51425 
Q 185.461563 14.733 185.461563 15.30175 
L 185.461563 15.8425 
L 187.118813 15.8425 
L 187.118813 16.62475 
L 185.461563 16.62475 
L 185.461563 21.9675 
L 184.450063 21.9675 
L 184.450063 16.62475 
L 183.487562 16.62475 
L 183.487562 15.8425 
L 184.450063 15.8425 
L 184.450063 15.4155 
Q 184.450063 14.3935 184.926063 13.92625 
Q 185.402062 13.45725 186.434562 13.45725 
z
"/>
      </g>
      <g id="text_4">
       <path d="M 245.565558 94.035 
L 247.088058 94.035 
L 249.823058 101.3775 
L 252.558058 94.035 
L 254.080558 94.035 
L 250.798058 102.785 
L 248.845558 102.785 
z
M 258.138183 99.99025 
Q 257.329683 99.99025 256.858933 100.622 
Q 256.388183 101.25375 256.388183 102.35275 
Q 256.388183 103.45175 256.855433 104.0835 
Q 257.324433 104.71525 258.138183 104.71525 
Q 258.943183 104.71525 259.412183 104.08175 
Q 259.882933 103.4465 259.882933 102.35275 
Q 259.882933 101.26425 259.412183 100.62725 
Q 258.943183 99.99025 258.138183 99.99025 
z
M 258.138183 99.138 
Q 259.450683 99.138 260.199683 99.992 
Q 260.950433 100.84425 260.950433 102.35275 
Q 260.950433 103.856 260.199683 104.7135 
Q 259.450683 105.56925 258.138183 105.56925 
Q 256.820433 105.56925 256.073183 104.7135 
Q 255.327683 103.856 255.327683 102.35275 
Q 255.327683 100.84425 256.073183 99.992 
Q 256.820433 99.138 258.138183 99.138 
z
" style="stroke:#ffffff;stroke-width:4;"/>
       <path d="M 245.565558 94.035 
L 247.088058 94.035 
L 249.823058 101.3775 
L 252.558058 94.035 
L 254.080558 94.035 
L 250.798058 102.785 
L 248.845558 102.785 
z
M 258.138183 99.99025 
Q 257.329683 99.99025 256.858933 100.622 
Q 256.388183 101.25375 256.388183 102.35275 
Q 256.388183 103.45175 256.855433 104.0835 
Q 257.324433 104.71525 258.138183 104.71525 
Q 258.943183 104.71525 259.412183 104.08175 
Q 259.882933 103.4465 259.882933 102.35275 
Q 259.882933 101.26425 259.412183 100.62725 
Q 258.943183 99.99025 258.138183 99.99025 
z
M 258.138183 99.138 
Q 259.450683 99.138 260.199683 99.992 
Q 260.950433 100.84425 260.950433 102.35275 
Q 260.950433 103.856 260.199683 104.7135 
Q 259.450683 105.56925 258.138183 105.56925 
Q 256.820433 105.56925 256.073183 104.7135 
Q 255.327683 103.856 255.327683 102.35275 
Q 255.327683 100.84425 256.073183 99.992 
Q 256.820433 99.138 258.138183 99.138 
z
"/>
      </g>
     </g>
    </g>
    <defs>
     <clipPath id="p5990599568">
      <rect height="148.8384" width="238.676863" x="16.965597" y="16.1978"/>
     </clipPath>
    </defs>
   </g>
  </g>
 </g>
</svg>
