<?xml version="1.0" encoding="utf-8" standalone="no"?>
<!DOCTYPE svg PUBLIC "-//W3C//DTD SVG 1.1//EN"
  "http://www.w3.org/Graphics/SVG/1.1/DTD/svg11.dtd">
<!-- Created with matplotlib (http://matplotlib.org/) -->
<svg height="167pt" version="1.1" viewBox="0 0 270 167" width="270pt" xmlns="http://www.w3.org/2000/svg" xmlns:xlink="http://www.w3.org/1999/xlink">
 <defs>
  <style type="text/css">
*{stroke-linecap:butt;stroke-linejoin:round;stroke-miterlimit:100000;}
  </style>
 </defs>
 <g id="figure_1">
  <g id="patch_1">
   <path d="M 0 167.064 
L 1 167.095436 
L 2 167.132377 
L 3 167.230123 
L 4 167.262645 
L 5 167.33627 
L 6 167.374835 
L 7 167.410248 
L 8 167.467888 
L 9 167.538274 
L 10 167.590239 
L 11 167.649328 
L 12 167.737649 
L 13 167.783794 
L 14 167.826205 
L 15 167.856697 
L 16 167.882742 
L 17 167.903942 
L 18 167.958243 
L 19 167.986181 
L 20 168.015905 
L 21 168.0413 
L 22 168.0525 
L 23 168.062624 
L 24 168.06242 
L 25 168.05291 
L 26 168.041256 
L 27 168.010227 
L 28 167.999059 
L 29 167.968942 
L 30 167.909165 
L 31 167.871973 
L 32 167.832877 
L 33 167.790437 
L 34 167.757672 
L 35 167.690246 
L 36 167.65112 
L 37 167.608445 
L 38 167.537865 
L 39 167.501474 
L 40 167.443071 
L 41 167.332118 
L 42 167.26146 
L 43 167.14852 
L 44 167.102747 
L 45 167.041464 
L 46 166.992965 
L 47 166.912142 
L 48 166.793623 
L 49 166.723412 
L 50 166.64015 
L 51 166.607008 
L 52 166.555771 
L 53 166.487372 
L 54 166.421157 
L 55 166.34424 
L 56 166.316924 
L 57 166.290447 
L 58 166.267796 
L 59 166.248265 
L 60 166.221871 
L 61 166.1721 
L 62 166.137027 
L 63 166.101161 
L 64 166.085794 
L 65 166.070025 
L 66 166.066612 
L 67 166.064195 
L 68 166.064681 
L 69 166.06661 
L 70 166.079867 
L 71 166.088258 
L 72 166.109794 
L 73 166.132827 
L 74 166.15006 
L 75 166.168523 
L 76 166.188975 
L 77 166.205575 
L 78 166.268354 
L 79 166.343619 
L 80 166.376258 
L 81 166.443822 
L 82 166.497869 
L 83 166.531573 
L 84 166.621699 
L 85 166.650234 
L 86 166.68172 
L 87 166.712731 
L 88 166.767539 
L 89 166.832126 
L 90 166.870322 
L 91 166.966256 
L 92 167.015514 
L 93 167.059583 
L 94 167.099707 
L 95 167.208074 
L 96 167.249702 
L 97 167.311844 
L 98 167.381806 
L 99 167.48631 
L 100 167.523298 
L 101 167.569175 
L 102 167.63767 
L 103 167.686416 
L 104 167.764013 
L 105 167.794554 
L 106 167.864068 
L 107 167.888041 
L 108 167.916663 
L 109 167.958456 
L 110 167.980032 
L 111 167.99398 
L 112 168.020702 
L 113 168.030012 
L 114 168.042459 
L 115 168.053514 
L 116 168.059178 
L 117 168.063942 
L 118 168.058394 
L 119 168.045106 
L 120 168.037589 
L 121 168.012804 
L 122 167.989235 
L 123 167.953055 
L 124 167.927093 
L 125 167.904771 
L 126 167.836011 
L 127 167.761476 
L 128 167.667497 
L 129 167.616445 
L 130 167.562511 
L 131 167.52726 
L 132 167.421172 
L 133 167.368908 
L 134 167.332001 
L 135 167.30097 
L 136 167.239815 
L 137 167.172395 
L 138 167.123489 
L 139 167.058297 
L 140 167.020109 
L 141 166.978113 
L 142 166.936096 
L 143 166.87658 
L 144 166.76342 
L 145 166.711169 
L 146 166.671751 
L 147 166.62465 
L 148 166.56787 
L 149 166.535207 
L 150 166.499029 
L 151 166.466939 
L 152 166.432659 
L 153 166.374281 
L 154 166.329096 
L 155 166.299472 
L 156 166.249086 
L 157 166.223889 
L 158 166.202838 
L 159 166.16787 
L 160 166.14358 
L 161 166.129513 
L 162 166.110571 
L 163 166.09491 
L 164 166.082358 
L 165 166.076522 
L 166 166.06964 
L 167 166.064466 
L 168 166.066249 
L 169 166.068974 
L 170 166.080128 
L 171 166.108363 
L 172 166.152151 
L 173 166.17284 
L 174 166.213813 
L 175 166.253888 
L 176 166.272998 
L 177 166.295507 
L 178 166.362158 
L 179 166.411868 
L 180 166.485574 
L 181 166.516888 
L 182 166.59351 
L 183 166.631808 
L 184 166.705925 
L 185 166.809983 
L 186 166.879814 
L 187 166.985048 
L 188 167.040063 
L 189 167.163538 
L 190 167.234097 
L 191 167.349936 
L 192 167.400117 
L 193 167.435721 
L 194 167.527128 
L 195 167.580636 
L 196 167.668544 
L 197 167.737729 
L 198 167.784493 
L 199 167.856537 
L 200 167.906679 
L 201 167.924069 
L 202 167.951072 
L 203 167.970499 
L 204 167.989837 
L 205 168.028086 
L 206 168.044519 
L 207 168.052888 
L 208 168.057207 
L 209 168.063762 
L 210 168.061216 
L 211 168.055757 
L 212 168.039329 
L 213 168.007394 
L 214 167.969414 
L 215 167.93461 
L 216 167.871538 
L 217 167.850111 
L 218 167.799493 
L 219 167.774536 
L 220 167.718902 
L 221 167.687673 
L 222 167.637529 
L 223 167.605036 
L 224 167.524624 
L 225 167.455698 
L 226 167.340001 
L 227 167.264522 
L 228 167.148997 
L 229 167.069513 
L 230 166.961072 
L 231 166.921704 
L 232 166.818836 
L 233 166.719038 
L 234 166.673541 
L 235 166.639219 
L 236 166.587263 
L 237 166.547616 
L 238 166.512102 
L 239 166.444457 
L 240 166.405375 
L 241 166.354894 
L 242 166.305588 
L 243 166.254518 
L 244 166.210279 
L 245 166.188259 
L 246 166.172703 
L 247 166.130256 
L 248 166.115388 
L 249 166.09266 
L 250 166.072344 
L 251 166.066547 
L 252 166.064065 
L 253 166.067122 
L 254 166.078718 
L 255 166.095638 
L 256 166.127299 
L 257 166.141382 
L 258 166.194054 
L 259 166.243143 
L 260 166.297844 
L 261 166.342192 
L 262 166.412184 
L 263 166.462567 
L 264 166.516474 
L 265 166.585913 
L 266 166.643301 
L 267 166.693466 
L 268 166.770628 
L 269 166.828818 
L 270.528058 166.889456 
L 270.390715 166.064 
L 270.455807 165.064 
L 270.560937 164.064 
L 270.621238 163.064 
L 270.71756 162.064 
L 270.749563 161.064 
L 270.800581 160.064 
L 270.917373 159.064 
L 270.952819 158.064 
L 271.0087 157.064 
L 271.039075 156.064 
L 271.127462 155.064 
L 271.172226 154.064 
L 271.253114 153.064 
L 271.31326 152.064 
L 271.376346 151.064 
L 271.399294 150.064 
L 271.415464 149.064 
L 271.444393 148.064 
L 271.474744 147.064 
L 271.487319 146.064 
L 271.512198 145.064 
L 271.524282 144.064 
L 271.528044 143.064 
L 271.523608 142.064 
L 271.511269 141.064 
L 271.496856 140.064 
L 271.480783 139.064 
L 271.445262 138.064 
L 271.425328 137.064 
L 271.368738 136.064 
L 271.301545 135.064 
L 271.274174 134.064 
L 271.240027 133.064 
L 271.191346 132.064 
L 271.143062 131.064 
L 271.083984 130.064 
L 270.98838 129.064 
L 270.94524 128.064 
L 270.895392 127.064 
L 270.836857 126.064 
L 270.789272 125.064 
L 270.728144 124.064 
L 270.672059 123.064 
L 270.597888 122.064 
L 270.48065 121.064 
L 270.424926 120.064 
L 270.3167 119.064 
L 270.21055 118.064 
L 270.102977 117.064 
L 270.06847 116.064 
L 269.965162 115.064 
L 269.889439 114.064 
L 269.850004 113.064 
L 269.81062 112.064 
L 269.788137 111.064 
L 269.732324 110.064 
L 269.706273 109.064 
L 269.676038 108.064 
L 269.625266 107.064 
L 269.606615 106.064 
L 269.584907 105.064 
L 269.572261 104.064 
L 269.553268 103.064 
L 269.535878 102.064 
L 269.528839 101.064 
L 269.529864 100.064 
L 269.536868 99.064 
L 269.546238 98.064 
L 269.569635 97.064 
L 269.594719 96.064 
L 269.607117 95.064 
L 269.64021 94.064 
L 269.656578 93.064 
L 269.674983 92.064 
L 269.72412 91.064 
L 269.767933 90.064 
L 269.811018 89.064 
L 269.833959 88.064 
L 269.874222 87.064 
L 269.959081 86.064 
L 270.001474 85.064 
L 270.06586 84.064 
L 270.110149 83.064 
L 270.217995 82.064 
L 270.294935 81.064 
L 270.331376 80.064 
L 270.386264 79.064 
L 270.461364 78.064 
L 270.51996 77.064 
L 270.556535 76.064 
L 270.668582 75.064 
L 270.730267 74.064 
L 270.780786 73.064 
L 270.879571 72.064 
L 270.917594 71.064 
L 270.953041 70.064 
L 271.044676 69.064 
L 271.087948 68.064 
L 271.141276 67.064 
L 271.174141 66.064 
L 271.237035 65.064 
L 271.29089 64.064 
L 271.348016 63.064 
L 271.370106 62.064 
L 271.413845 61.064 
L 271.460939 60.064 
L 271.477786 59.064 
L 271.505859 58.064 
L 271.516855 57.064 
L 271.521425 56.064 
L 271.527073 55.064 
L 271.527124 54.064 
L 271.524034 53.064 
L 271.520521 52.064 
L 271.514699 51.064 
L 271.501847 50.064 
L 271.478222 49.064 
L 271.463337 48.064 
L 271.439766 47.064 
L 271.403447 46.064 
L 271.371863 45.064 
L 271.341971 44.064 
L 271.263278 43.064 
L 271.226728 42.064 
L 271.201004 41.064 
L 271.130332 40.064 
L 271.03923 39.064 
L 270.977273 38.064 
L 270.94366 37.064 
L 270.909159 36.064 
L 270.81172 35.064 
L 270.76413 34.064 
L 270.732624 33.064 
L 270.688939 32.064 
L 270.61877 31.064 
L 270.568903 30.064 
L 270.534226 29.064 
L 270.424577 28.064 
L 270.391106 27.064 
L 270.353764 26.064 
L 270.27352 25.064 
L 270.235026 24.064 
L 270.193249 23.064 
L 270.150824 22.064 
L 270.041096 21.064 
L 269.952811 20.064 
L 269.878165 19.064 
L 269.789707 18.064 
L 269.715646 17.064 
L 269.66648 16.064 
L 269.610863 15.064 
L 269.576164 14.064 
L 269.564292 13.064 
L 269.542069 12.064 
L 269.530091 11.064 
L 269.528339 10.064 
L 269.533756 9.064 
L 269.549954 8.064 
L 269.566453 7.064 
L 269.597637 6.064 
L 269.611002 5.064 
L 269.640644 4.064 
L 269.703668 3.064 
L 269.752989 2.064 
L 269.799077 1.064 
L 269.881305 0 
L 269.528058 0.60085 
L 268.528058 0.566525 
L 267.528058 0.512986 
L 266.528058 0.424099 
L 265.528058 0.392961 
L 264.528058 0.284912 
L 263.528058 0.17284 
L 262.528058 0.137402 
L 261.528058 0.052616 
L 260.528058 -0.012991 
L 259.528058 -0.115045 
L 258.528058 -0.23126 
L 257.528058 -0.271951 
L 256.528058 -0.31304 
L 255.528058 -0.349681 
L 254.528058 -0.390677 
L 253.528058 -0.466746 
L 252.528058 -0.542812 
L 251.528058 -0.5735 
L 250.528058 -0.599991 
L 249.528058 -0.656572 
L 248.528058 -0.701088 
L 247.528058 -0.731106 
L 246.528058 -0.758162 
L 245.528058 -0.800727 
L 244.528058 -0.853592 
L 243.528058 -0.884513 
L 242.528058 -0.910788 
L 241.528058 -0.925721 
L 240.528058 -0.95601 
L 239.528058 -0.977339 
L 238.528058 -0.994228 
L 237.528058 -0.998943 
L 236.528058 -0.999553 
L 235.528058 -0.997507 
L 234.528058 -0.991646 
L 233.528058 -0.972999 
L 232.528058 -0.940942 
L 231.528058 -0.894502 
L 230.528058 -0.852556 
L 229.528058 -0.785851 
L 228.528058 -0.716785 
L 227.528058 -0.66941 
L 226.528058 -0.617891 
L 225.528058 -0.578191 
L 224.528058 -0.508771 
L 223.528058 -0.44224 
L 222.528058 -0.333331 
L 221.528058 -0.268083 
L 220.528058 -0.159875 
L 219.528058 -0.098871 
L 218.528058 -0.050186 
L 217.528058 0.026048 
L 216.528058 0.085579 
L 215.528058 0.160207 
L 214.528058 0.279034 
L 213.528058 0.376979 
L 212.528058 0.456027 
L 211.528058 0.501774 
L 210.528058 0.529046 
L 209.528058 0.572708 
L 208.528058 0.621292 
L 207.528058 0.653026 
L 206.528058 0.733256 
L 205.528058 0.799749 
L 204.528058 0.823774 
L 203.528058 0.884273 
L 202.528058 0.906505 
L 201.528058 0.925105 
L 200.528058 0.954431 
L 199.528058 0.970132 
L 198.528058 0.978431 
L 197.528058 0.988667 
L 196.528058 0.99901 
L 195.528058 0.998332 
L 194.528058 0.994552 
L 193.528058 0.978111 
L 192.528058 0.965977 
L 191.528058 0.955382 
L 190.528058 0.924005 
L 189.528058 0.898232 
L 188.528058 0.866823 
L 187.528058 0.844014 
L 186.528058 0.82642 
L 185.528058 0.776608 
L 184.528058 0.728948 
L 183.528058 0.657239 
L 182.528058 0.601476 
L 181.528058 0.575278 
L 180.528058 0.54451 
L 179.528058 0.454752 
L 178.528058 0.369958 
L 177.528058 0.304364 
L 176.528058 0.258539 
L 175.528058 0.215542 
L 174.528058 0.154029 
L 173.528058 0.054204 
L 172.528058 0.009774 
L 171.528058 -0.040276 
L 170.528058 -0.162117 
L 169.528058 -0.22181 
L 168.528058 -0.253376 
L 167.528058 -0.285719 
L 166.528058 -0.340279 
L 165.528058 -0.382779 
L 164.528058 -0.434251 
L 163.528058 -0.522636 
L 162.528058 -0.556833 
L 161.528058 -0.600767 
L 160.528058 -0.66448 
L 159.528058 -0.739677 
L 158.528058 -0.768491 
L 157.528058 -0.810695 
L 156.528058 -0.85328 
L 155.528058 -0.870172 
L 154.528058 -0.892653 
L 153.528058 -0.93499 
L 152.528058 -0.96495 
L 151.528058 -0.983583 
L 150.528058 -0.993375 
L 149.528058 -0.997138 
L 148.528058 -0.999976 
L 147.528058 -0.998227 
L 146.528058 -0.988871 
L 145.528058 -0.978174 
L 144.528058 -0.968304 
L 143.528058 -0.949446 
L 142.528058 -0.919107 
L 141.528058 -0.880716 
L 140.528058 -0.82123 
L 139.528058 -0.777941 
L 138.528058 -0.717203 
L 137.528058 -0.633129 
L 136.528058 -0.584836 
L 135.528058 -0.541259 
L 134.528058 -0.514378 
L 133.528058 -0.482448 
L 132.528058 -0.415256 
L 131.528058 -0.334435 
L 130.528058 -0.25889 
L 129.528058 -0.21516 
L 128.528058 -0.135265 
L 127.528058 -0.073786 
L 126.528058 -0.010161 
L 125.528058 0.097088 
L 124.528058 0.215798 
L 123.528058 0.257704 
L 122.528058 0.300658 
L 121.528058 0.362857 
L 120.528058 0.392994 
L 119.528058 0.425512 
L 118.528058 0.477447 
L 117.528058 0.582997 
L 116.528058 0.631443 
L 115.528058 0.677767 
L 114.528058 0.711583 
L 113.528058 0.75946 
L 112.528058 0.814338 
L 111.528058 0.838249 
L 110.528058 0.864286 
L 109.528058 0.920403 
L 108.528058 0.934277 
L 107.528058 0.960311 
L 106.528058 0.987057 
L 105.528058 0.994803 
L 104.528058 0.999956 
L 103.528058 0.993758 
L 102.528058 0.987451 
L 101.528058 0.97987 
L 100.528058 0.952364 
L 99.528058 0.908131 
L 98.528058 0.878593 
L 97.528058 0.836746 
L 96.528058 0.777572 
L 95.528058 0.754862 
L 94.528058 0.71823 
L 93.528058 0.661442 
L 92.528058 0.636272 
L 91.528058 0.553576 
L 90.528058 0.466644 
L 89.528058 0.41596 
L 88.528058 0.378566 
L 87.528058 0.294186 
L 86.528058 0.259675 
L 85.528058 0.167684 
L 84.528058 0.080659 
L 83.528058 -0.042481 
L 82.528058 -0.08035 
L 81.528058 -0.127825 
L 80.528058 -0.233351 
L 79.528058 -0.330812 
L 78.528058 -0.407449 
L 77.528058 -0.439376 
L 76.528058 -0.493616 
L 75.528058 -0.532467 
L 74.528058 -0.606172 
L 73.528058 -0.638168 
L 72.528058 -0.694707 
L 71.528058 -0.730823 
L 70.528058 -0.799425 
L 69.528058 -0.830841 
L 68.528058 -0.885508 
L 67.528058 -0.904279 
L 66.528058 -0.949908 
L 65.528058 -0.972811 
L 64.528058 -0.981352 
L 63.528058 -0.988693 
L 62.528058 -0.994988 
L 61.528058 -0.998165 
L 60.528058 -0.999751 
L 59.528058 -0.998288 
L 58.528058 -0.985334 
L 57.528058 -0.970712 
L 56.528058 -0.958856 
L 55.528058 -0.940831 
L 54.528058 -0.920453 
L 53.528058 -0.897054 
L 52.528058 -0.882145 
L 51.528058 -0.827431 
L 50.528058 -0.793834 
L 49.528058 -0.731138 
L 48.528058 -0.703763 
L 47.528058 -0.659783 
L 46.528058 -0.580836 
L 45.528058 -0.523308 
L 44.528058 -0.473329 
L 43.528058 -0.401345 
L 42.528058 -0.364813 
L 41.528058 -0.2965 
L 40.528058 -0.208294 
L 39.528058 -0.086947 
L 38.528058 -0.021266 
L 37.528058 0.012352 
L 36.528058 0.076629 
L 35.528058 0.1226 
L 34.528058 0.194757 
L 33.528058 0.234583 
L 32.528058 0.277213 
L 31.528058 0.383172 
L 30.528058 0.435957 
L 29.528058 0.515234 
L 28.528058 0.557638 
L 27.528058 0.589904 
L 26.528058 0.62477 
L 25.528058 0.667428 
L 24.528058 0.699001 
L 23.528058 0.76658 
L 22.528058 0.803465 
L 21.528058 0.831421 
L 20.528058 0.852269 
L 19.528058 0.877882 
L 18.528058 0.9155 
L 17.528058 0.930342 
L 16.528058 0.955072 
L 15.528058 0.973302 
L 14.528058 0.984709 
L 13.528058 0.990344 
L 12.528058 0.995098 
L 11.528058 0.999707 
L 10.528058 0.998034 
L 9.528058 0.992252 
L 8.528058 0.972256 
L 7.528058 0.960604 
L 6.528058 0.949615 
L 5.528058 0.936648 
L 4.528058 0.886234 
L 3.528058 0.865412 
L 2.528058 0.837465 
L 1.528058 0.78072 
L 0 0.758076 
L 0.706673 1 
L 0.665537 2 
L 0.582768 3 
L 0.534308 4 
L 0.482881 5 
L 0.431721 6 
L 0.364422 7 
L 0.331268 8 
L 0.26521 9 
L 0.209025 10 
L 0.147746 11 
L 0.107763 12 
L 0.01134 13 
L -0.10042 14 
L -0.139339 15 
L -0.237188 16 
L -0.271842 17 
L -0.355524 18 
L -0.40603 19 
L -0.475073 20 
L -0.576176 21 
L -0.628622 22 
L -0.71793 23 
L -0.782938 24 
L -0.824483 25 
L -0.866823 26 
L -0.888843 27 
L -0.92633 28 
L -0.943582 29 
L -0.96699 30 
L -0.975557 31 
L -0.984646 32 
L -0.991714 33 
L -0.998741 34 
L -0.999849 35 
L -0.999863 36 
L -0.997189 37 
L -0.994163 38 
L -0.988696 39 
L -0.968701 40 
L -0.95673 41 
L -0.929611 42 
L -0.902599 43 
L -0.875433 44 
L -0.820958 45 
L -0.791342 46 
L -0.749586 47 
L -0.676477 48 
L -0.633039 49 
L -0.562348 50 
L -0.523941 51 
L -0.463602 52 
L -0.432847 53 
L -0.402349 54 
L -0.343439 55 
L -0.300262 56 
L -0.25865 57 
L -0.209535 58 
L -0.144448 59 
L -0.078053 60 
L 0.04671 61 
L 0.090525 62 
L 0.144853 63 
L 0.251557 64 
L 0.294057 65 
L 0.331551 66 
L 0.421047 67 
L 0.47827 68 
L 0.547913 69 
L 0.596932 70 
L 0.652877 71 
L 0.700002 72 
L 0.73889 73 
L 0.792582 74 
L 0.838153 75 
L 0.87509 76 
L 0.897166 77 
L 0.930049 78 
L 0.959769 79 
L 0.972319 80 
L 0.984218 81 
L 0.989336 82 
L 0.997225 83 
L 0.999856 84 
L 0.999058 85 
L 0.995817 86 
L 0.980679 87 
L 0.973742 88 
L 0.957365 89 
L 0.938952 90 
L 0.90936 91 
L 0.887278 92 
L 0.829584 93 
L 0.804393 94 
L 0.73608 95 
L 0.688954 96 
L 0.651606 97 
L 0.596397 98 
L 0.506966 99 
L 0.403856 100 
L 0.349882 101 
L 0.319162 102 
L 0.263621 103 
L 0.225886 104 
L 0.157632 105 
L 0.121803 106 
L 0.052019 107 
L -0.007275 108 
L -0.045882 109 
L -0.079878 110 
L -0.122458 111 
L -0.169107 112 
L -0.223673 113 
L -0.309574 114 
L -0.35625 115 
L -0.413565 116 
L -0.443979 117 
L -0.52903 118 
L -0.562705 119 
L -0.650629 120 
L -0.705614 121 
L -0.744303 122 
L -0.814334 123 
L -0.84478 124 
L -0.902505 125 
L -0.919649 126 
L -0.944384 127 
L -0.959884 128 
L -0.983336 129 
L -0.99015 130 
L -0.994083 131 
L -0.997815 132 
L -0.999848 133 
L -0.991462 134 
L -0.975076 135 
L -0.948806 136 
L -0.935477 137 
L -0.905523 138 
L -0.871272 139 
L -0.850602 140 
L -0.80959 141 
L -0.736272 142 
L -0.713054 143 
L -0.672688 144 
L -0.645437 145 
L -0.564899 146 
L -0.511421 147 
L -0.43285 148 
L -0.384382 149 
L -0.270352 150 
L -0.169667 151 
L -0.085243 152 
L 0.006297 153 
L 0.10871 154 
L 0.149518 155 
L 0.192661 156 
L 0.231962 157 
L 0.265385 158 
L 0.308493 159 
L 0.414072 160 
L 0.469773 161 
L 0.5751 162 
L 0.672097 163 
L 0.695117 164 
L 0.722104 165 
L 0.752205 166 
L 0.825447 167.064 
z
" style="fill:none;stroke:#ffffff;stroke-linejoin:miter;stroke-width:4.0;"/>
   <path d="M 0 167.064 
L 1 167.095436 
L 2 167.132377 
L 3 167.230123 
L 4 167.262645 
L 5 167.33627 
L 6 167.374835 
L 7 167.410248 
L 8 167.467888 
L 9 167.538274 
L 10 167.590239 
L 11 167.649328 
L 12 167.737649 
L 13 167.783794 
L 14 167.826205 
L 15 167.856697 
L 16 167.882742 
L 17 167.903942 
L 18 167.958243 
L 19 167.986181 
L 20 168.015905 
L 21 168.0413 
L 22 168.0525 
L 23 168.062624 
L 24 168.06242 
L 25 168.05291 
L 26 168.041256 
L 27 168.010227 
L 28 167.999059 
L 29 167.968942 
L 30 167.909165 
L 31 167.871973 
L 32 167.832877 
L 33 167.790437 
L 34 167.757672 
L 35 167.690246 
L 36 167.65112 
L 37 167.608445 
L 38 167.537865 
L 39 167.501474 
L 40 167.443071 
L 41 167.332118 
L 42 167.26146 
L 43 167.14852 
L 44 167.102747 
L 45 167.041464 
L 46 166.992965 
L 47 166.912142 
L 48 166.793623 
L 49 166.723412 
L 50 166.64015 
L 51 166.607008 
L 52 166.555771 
L 53 166.487372 
L 54 166.421157 
L 55 166.34424 
L 56 166.316924 
L 57 166.290447 
L 58 166.267796 
L 59 166.248265 
L 60 166.221871 
L 61 166.1721 
L 62 166.137027 
L 63 166.101161 
L 64 166.085794 
L 65 166.070025 
L 66 166.066612 
L 67 166.064195 
L 68 166.064681 
L 69 166.06661 
L 70 166.079867 
L 71 166.088258 
L 72 166.109794 
L 73 166.132827 
L 74 166.15006 
L 75 166.168523 
L 76 166.188975 
L 77 166.205575 
L 78 166.268354 
L 79 166.343619 
L 80 166.376258 
L 81 166.443822 
L 82 166.497869 
L 83 166.531573 
L 84 166.621699 
L 85 166.650234 
L 86 166.68172 
L 87 166.712731 
L 88 166.767539 
L 89 166.832126 
L 90 166.870322 
L 91 166.966256 
L 92 167.015514 
L 93 167.059583 
L 94 167.099707 
L 95 167.208074 
L 96 167.249702 
L 97 167.311844 
L 98 167.381806 
L 99 167.48631 
L 100 167.523298 
L 101 167.569175 
L 102 167.63767 
L 103 167.686416 
L 104 167.764013 
L 105 167.794554 
L 106 167.864068 
L 107 167.888041 
L 108 167.916663 
L 109 167.958456 
L 110 167.980032 
L 111 167.99398 
L 112 168.020702 
L 113 168.030012 
L 114 168.042459 
L 115 168.053514 
L 116 168.059178 
L 117 168.063942 
L 118 168.058394 
L 119 168.045106 
L 120 168.037589 
L 121 168.012804 
L 122 167.989235 
L 123 167.953055 
L 124 167.927093 
L 125 167.904771 
L 126 167.836011 
L 127 167.761476 
L 128 167.667497 
L 129 167.616445 
L 130 167.562511 
L 131 167.52726 
L 132 167.421172 
L 133 167.368908 
L 134 167.332001 
L 135 167.30097 
L 136 167.239815 
L 137 167.172395 
L 138 167.123489 
L 139 167.058297 
L 140 167.020109 
L 141 166.978113 
L 142 166.936096 
L 143 166.87658 
L 144 166.76342 
L 145 166.711169 
L 146 166.671751 
L 147 166.62465 
L 148 166.56787 
L 149 166.535207 
L 150 166.499029 
L 151 166.466939 
L 152 166.432659 
L 153 166.374281 
L 154 166.329096 
L 155 166.299472 
L 156 166.249086 
L 157 166.223889 
L 158 166.202838 
L 159 166.16787 
L 160 166.14358 
L 161 166.129513 
L 162 166.110571 
L 163 166.09491 
L 164 166.082358 
L 165 166.076522 
L 166 166.06964 
L 167 166.064466 
L 168 166.066249 
L 169 166.068974 
L 170 166.080128 
L 171 166.108363 
L 172 166.152151 
L 173 166.17284 
L 174 166.213813 
L 175 166.253888 
L 176 166.272998 
L 177 166.295507 
L 178 166.362158 
L 179 166.411868 
L 180 166.485574 
L 181 166.516888 
L 182 166.59351 
L 183 166.631808 
L 184 166.705925 
L 185 166.809983 
L 186 166.879814 
L 187 166.985048 
L 188 167.040063 
L 189 167.163538 
L 190 167.234097 
L 191 167.349936 
L 192 167.400117 
L 193 167.435721 
L 194 167.527128 
L 195 167.580636 
L 196 167.668544 
L 197 167.737729 
L 198 167.784493 
L 199 167.856537 
L 200 167.906679 
L 201 167.924069 
L 202 167.951072 
L 203 167.970499 
L 204 167.989837 
L 205 168.028086 
L 206 168.044519 
L 207 168.052888 
L 208 168.057207 
L 209 168.063762 
L 210 168.061216 
L 211 168.055757 
L 212 168.039329 
L 213 168.007394 
L 214 167.969414 
L 215 167.93461 
L 216 167.871538 
L 217 167.850111 
L 218 167.799493 
L 219 167.774536 
L 220 167.718902 
L 221 167.687673 
L 222 167.637529 
L 223 167.605036 
L 224 167.524624 
L 225 167.455698 
L 226 167.340001 
L 227 167.264522 
L 228 167.148997 
L 229 167.069513 
L 230 166.961072 
L 231 166.921704 
L 232 166.818836 
L 233 166.719038 
L 234 166.673541 
L 235 166.639219 
L 236 166.587263 
L 237 166.547616 
L 238 166.512102 
L 239 166.444457 
L 240 166.405375 
L 241 166.354894 
L 242 166.305588 
L 243 166.254518 
L 244 166.210279 
L 245 166.188259 
L 246 166.172703 
L 247 166.130256 
L 248 166.115388 
L 249 166.09266 
L 250 166.072344 
L 251 166.066547 
L 252 166.064065 
L 253 166.067122 
L 254 166.078718 
L 255 166.095638 
L 256 166.127299 
L 257 166.141382 
L 258 166.194054 
L 259 166.243143 
L 260 166.297844 
L 261 166.342192 
L 262 166.412184 
L 263 166.462567 
L 264 166.516474 
L 265 166.585913 
L 266 166.643301 
L 267 166.693466 
L 268 166.770628 
L 269 166.828818 
L 270.528058 166.889456 
L 270.390715 166.064 
L 270.455807 165.064 
L 270.560937 164.064 
L 270.621238 163.064 
L 270.71756 162.064 
L 270.749563 161.064 
L 270.800581 160.064 
L 270.917373 159.064 
L 270.952819 158.064 
L 271.0087 157.064 
L 271.039075 156.064 
L 271.127462 155.064 
L 271.172226 154.064 
L 271.253114 153.064 
L 271.31326 152.064 
L 271.376346 151.064 
L 271.399294 150.064 
L 271.415464 149.064 
L 271.444393 148.064 
L 271.474744 147.064 
L 271.487319 146.064 
L 271.512198 145.064 
L 271.524282 144.064 
L 271.528044 143.064 
L 271.523608 142.064 
L 271.511269 141.064 
L 271.496856 140.064 
L 271.480783 139.064 
L 271.445262 138.064 
L 271.425328 137.064 
L 271.368738 136.064 
L 271.301545 135.064 
L 271.274174 134.064 
L 271.240027 133.064 
L 271.191346 132.064 
L 271.143062 131.064 
L 271.083984 130.064 
L 270.98838 129.064 
L 270.94524 128.064 
L 270.895392 127.064 
L 270.836857 126.064 
L 270.789272 125.064 
L 270.728144 124.064 
L 270.672059 123.064 
L 270.597888 122.064 
L 270.48065 121.064 
L 270.424926 120.064 
L 270.3167 119.064 
L 270.21055 118.064 
L 270.102977 117.064 
L 270.06847 116.064 
L 269.965162 115.064 
L 269.889439 114.064 
L 269.850004 113.064 
L 269.81062 112.064 
L 269.788137 111.064 
L 269.732324 110.064 
L 269.706273 109.064 
L 269.676038 108.064 
L 269.625266 107.064 
L 269.606615 106.064 
L 269.584907 105.064 
L 269.572261 104.064 
L 269.553268 103.064 
L 269.535878 102.064 
L 269.528839 101.064 
L 269.529864 100.064 
L 269.536868 99.064 
L 269.546238 98.064 
L 269.569635 97.064 
L 269.594719 96.064 
L 269.607117 95.064 
L 269.64021 94.064 
L 269.656578 93.064 
L 269.674983 92.064 
L 269.72412 91.064 
L 269.767933 90.064 
L 269.811018 89.064 
L 269.833959 88.064 
L 269.874222 87.064 
L 269.959081 86.064 
L 270.001474 85.064 
L 270.06586 84.064 
L 270.110149 83.064 
L 270.217995 82.064 
L 270.294935 81.064 
L 270.331376 80.064 
L 270.386264 79.064 
L 270.461364 78.064 
L 270.51996 77.064 
L 270.556535 76.064 
L 270.668582 75.064 
L 270.730267 74.064 
L 270.780786 73.064 
L 270.879571 72.064 
L 270.917594 71.064 
L 270.953041 70.064 
L 271.044676 69.064 
L 271.087948 68.064 
L 271.141276 67.064 
L 271.174141 66.064 
L 271.237035 65.064 
L 271.29089 64.064 
L 271.348016 63.064 
L 271.370106 62.064 
L 271.413845 61.064 
L 271.460939 60.064 
L 271.477786 59.064 
L 271.505859 58.064 
L 271.516855 57.064 
L 271.521425 56.064 
L 271.527073 55.064 
L 271.527124 54.064 
L 271.524034 53.064 
L 271.520521 52.064 
L 271.514699 51.064 
L 271.501847 50.064 
L 271.478222 49.064 
L 271.463337 48.064 
L 271.439766 47.064 
L 271.403447 46.064 
L 271.371863 45.064 
L 271.341971 44.064 
L 271.263278 43.064 
L 271.226728 42.064 
L 271.201004 41.064 
L 271.130332 40.064 
L 271.03923 39.064 
L 270.977273 38.064 
L 270.94366 37.064 
L 270.909159 36.064 
L 270.81172 35.064 
L 270.76413 34.064 
L 270.732624 33.064 
L 270.688939 32.064 
L 270.61877 31.064 
L 270.568903 30.064 
L 270.534226 29.064 
L 270.424577 28.064 
L 270.391106 27.064 
L 270.353764 26.064 
L 270.27352 25.064 
L 270.235026 24.064 
L 270.193249 23.064 
L 270.150824 22.064 
L 270.041096 21.064 
L 269.952811 20.064 
L 269.878165 19.064 
L 269.789707 18.064 
L 269.715646 17.064 
L 269.66648 16.064 
L 269.610863 15.064 
L 269.576164 14.064 
L 269.564292 13.064 
L 269.542069 12.064 
L 269.530091 11.064 
L 269.528339 10.064 
L 269.533756 9.064 
L 269.549954 8.064 
L 269.566453 7.064 
L 269.597637 6.064 
L 269.611002 5.064 
L 269.640644 4.064 
L 269.703668 3.064 
L 269.752989 2.064 
L 269.799077 1.064 
L 269.881305 0 
L 269.528058 0.60085 
L 268.528058 0.566525 
L 267.528058 0.512986 
L 266.528058 0.424099 
L 265.528058 0.392961 
L 264.528058 0.284912 
L 263.528058 0.17284 
L 262.528058 0.137402 
L 261.528058 0.052616 
L 260.528058 -0.012991 
L 259.528058 -0.115045 
L 258.528058 -0.23126 
L 257.528058 -0.271951 
L 256.528058 -0.31304 
L 255.528058 -0.349681 
L 254.528058 -0.390677 
L 253.528058 -0.466746 
L 252.528058 -0.542812 
L 251.528058 -0.5735 
L 250.528058 -0.599991 
L 249.528058 -0.656572 
L 248.528058 -0.701088 
L 247.528058 -0.731106 
L 246.528058 -0.758162 
L 245.528058 -0.800727 
L 244.528058 -0.853592 
L 243.528058 -0.884513 
L 242.528058 -0.910788 
L 241.528058 -0.925721 
L 240.528058 -0.95601 
L 239.528058 -0.977339 
L 238.528058 -0.994228 
L 237.528058 -0.998943 
L 236.528058 -0.999553 
L 235.528058 -0.997507 
L 234.528058 -0.991646 
L 233.528058 -0.972999 
L 232.528058 -0.940942 
L 231.528058 -0.894502 
L 230.528058 -0.852556 
L 229.528058 -0.785851 
L 228.528058 -0.716785 
L 227.528058 -0.66941 
L 226.528058 -0.617891 
L 225.528058 -0.578191 
L 224.528058 -0.508771 
L 223.528058 -0.44224 
L 222.528058 -0.333331 
L 221.528058 -0.268083 
L 220.528058 -0.159875 
L 219.528058 -0.098871 
L 218.528058 -0.050186 
L 217.528058 0.026048 
L 216.528058 0.085579 
L 215.528058 0.160207 
L 214.528058 0.279034 
L 213.528058 0.376979 
L 212.528058 0.456027 
L 211.528058 0.501774 
L 210.528058 0.529046 
L 209.528058 0.572708 
L 208.528058 0.621292 
L 207.528058 0.653026 
L 206.528058 0.733256 
L 205.528058 0.799749 
L 204.528058 0.823774 
L 203.528058 0.884273 
L 202.528058 0.906505 
L 201.528058 0.925105 
L 200.528058 0.954431 
L 199.528058 0.970132 
L 198.528058 0.978431 
L 197.528058 0.988667 
L 196.528058 0.99901 
L 195.528058 0.998332 
L 194.528058 0.994552 
L 193.528058 0.978111 
L 192.528058 0.965977 
L 191.528058 0.955382 
L 190.528058 0.924005 
L 189.528058 0.898232 
L 188.528058 0.866823 
L 187.528058 0.844014 
L 186.528058 0.82642 
L 185.528058 0.776608 
L 184.528058 0.728948 
L 183.528058 0.657239 
L 182.528058 0.601476 
L 181.528058 0.575278 
L 180.528058 0.54451 
L 179.528058 0.454752 
L 178.528058 0.369958 
L 177.528058 0.304364 
L 176.528058 0.258539 
L 175.528058 0.215542 
L 174.528058 0.154029 
L 173.528058 0.054204 
L 172.528058 0.009774 
L 171.528058 -0.040276 
L 170.528058 -0.162117 
L 169.528058 -0.22181 
L 168.528058 -0.253376 
L 167.528058 -0.285719 
L 166.528058 -0.340279 
L 165.528058 -0.382779 
L 164.528058 -0.434251 
L 163.528058 -0.522636 
L 162.528058 -0.556833 
L 161.528058 -0.600767 
L 160.528058 -0.66448 
L 159.528058 -0.739677 
L 158.528058 -0.768491 
L 157.528058 -0.810695 
L 156.528058 -0.85328 
L 155.528058 -0.870172 
L 154.528058 -0.892653 
L 153.528058 -0.93499 
L 152.528058 -0.96495 
L 151.528058 -0.983583 
L 150.528058 -0.993375 
L 149.528058 -0.997138 
L 148.528058 -0.999976 
L 147.528058 -0.998227 
L 146.528058 -0.988871 
L 145.528058 -0.978174 
L 144.528058 -0.968304 
L 143.528058 -0.949446 
L 142.528058 -0.919107 
L 141.528058 -0.880716 
L 140.528058 -0.82123 
L 139.528058 -0.777941 
L 138.528058 -0.717203 
L 137.528058 -0.633129 
L 136.528058 -0.584836 
L 135.528058 -0.541259 
L 134.528058 -0.514378 
L 133.528058 -0.482448 
L 132.528058 -0.415256 
L 131.528058 -0.334435 
L 130.528058 -0.25889 
L 129.528058 -0.21516 
L 128.528058 -0.135265 
L 127.528058 -0.073786 
L 126.528058 -0.010161 
L 125.528058 0.097088 
L 124.528058 0.215798 
L 123.528058 0.257704 
L 122.528058 0.300658 
L 121.528058 0.362857 
L 120.528058 0.392994 
L 119.528058 0.425512 
L 118.528058 0.477447 
L 117.528058 0.582997 
L 116.528058 0.631443 
L 115.528058 0.677767 
L 114.528058 0.711583 
L 113.528058 0.75946 
L 112.528058 0.814338 
L 111.528058 0.838249 
L 110.528058 0.864286 
L 109.528058 0.920403 
L 108.528058 0.934277 
L 107.528058 0.960311 
L 106.528058 0.987057 
L 105.528058 0.994803 
L 104.528058 0.999956 
L 103.528058 0.993758 
L 102.528058 0.987451 
L 101.528058 0.97987 
L 100.528058 0.952364 
L 99.528058 0.908131 
L 98.528058 0.878593 
L 97.528058 0.836746 
L 96.528058 0.777572 
L 95.528058 0.754862 
L 94.528058 0.71823 
L 93.528058 0.661442 
L 92.528058 0.636272 
L 91.528058 0.553576 
L 90.528058 0.466644 
L 89.528058 0.41596 
L 88.528058 0.378566 
L 87.528058 0.294186 
L 86.528058 0.259675 
L 85.528058 0.167684 
L 84.528058 0.080659 
L 83.528058 -0.042481 
L 82.528058 -0.08035 
L 81.528058 -0.127825 
L 80.528058 -0.233351 
L 79.528058 -0.330812 
L 78.528058 -0.407449 
L 77.528058 -0.439376 
L 76.528058 -0.493616 
L 75.528058 -0.532467 
L 74.528058 -0.606172 
L 73.528058 -0.638168 
L 72.528058 -0.694707 
L 71.528058 -0.730823 
L 70.528058 -0.799425 
L 69.528058 -0.830841 
L 68.528058 -0.885508 
L 67.528058 -0.904279 
L 66.528058 -0.949908 
L 65.528058 -0.972811 
L 64.528058 -0.981352 
L 63.528058 -0.988693 
L 62.528058 -0.994988 
L 61.528058 -0.998165 
L 60.528058 -0.999751 
L 59.528058 -0.998288 
L 58.528058 -0.985334 
L 57.528058 -0.970712 
L 56.528058 -0.958856 
L 55.528058 -0.940831 
L 54.528058 -0.920453 
L 53.528058 -0.897054 
L 52.528058 -0.882145 
L 51.528058 -0.827431 
L 50.528058 -0.793834 
L 49.528058 -0.731138 
L 48.528058 -0.703763 
L 47.528058 -0.659783 
L 46.528058 -0.580836 
L 45.528058 -0.523308 
L 44.528058 -0.473329 
L 43.528058 -0.401345 
L 42.528058 -0.364813 
L 41.528058 -0.2965 
L 40.528058 -0.208294 
L 39.528058 -0.086947 
L 38.528058 -0.021266 
L 37.528058 0.012352 
L 36.528058 0.076629 
L 35.528058 0.1226 
L 34.528058 0.194757 
L 33.528058 0.234583 
L 32.528058 0.277213 
L 31.528058 0.383172 
L 30.528058 0.435957 
L 29.528058 0.515234 
L 28.528058 0.557638 
L 27.528058 0.589904 
L 26.528058 0.62477 
L 25.528058 0.667428 
L 24.528058 0.699001 
L 23.528058 0.76658 
L 22.528058 0.803465 
L 21.528058 0.831421 
L 20.528058 0.852269 
L 19.528058 0.877882 
L 18.528058 0.9155 
L 17.528058 0.930342 
L 16.528058 0.955072 
L 15.528058 0.973302 
L 14.528058 0.984709 
L 13.528058 0.990344 
L 12.528058 0.995098 
L 11.528058 0.999707 
L 10.528058 0.998034 
L 9.528058 0.992252 
L 8.528058 0.972256 
L 7.528058 0.960604 
L 6.528058 0.949615 
L 5.528058 0.936648 
L 4.528058 0.886234 
L 3.528058 0.865412 
L 2.528058 0.837465 
L 1.528058 0.78072 
L 0 0.758076 
L 0.706673 1 
L 0.665537 2 
L 0.582768 3 
L 0.534308 4 
L 0.482881 5 
L 0.431721 6 
L 0.364422 7 
L 0.331268 8 
L 0.26521 9 
L 0.209025 10 
L 0.147746 11 
L 0.107763 12 
L 0.01134 13 
L -0.10042 14 
L -0.139339 15 
L -0.237188 16 
L -0.271842 17 
L -0.355524 18 
L -0.40603 19 
L -0.475073 20 
L -0.576176 21 
L -0.628622 22 
L -0.71793 23 
L -0.782938 24 
L -0.824483 25 
L -0.866823 26 
L -0.888843 27 
L -0.92633 28 
L -0.943582 29 
L -0.96699 30 
L -0.975557 31 
L -0.984646 32 
L -0.991714 33 
L -0.998741 34 
L -0.999849 35 
L -0.999863 36 
L -0.997189 37 
L -0.994163 38 
L -0.988696 39 
L -0.968701 40 
L -0.95673 41 
L -0.929611 42 
L -0.902599 43 
L -0.875433 44 
L -0.820958 45 
L -0.791342 46 
L -0.749586 47 
L -0.676477 48 
L -0.633039 49 
L -0.562348 50 
L -0.523941 51 
L -0.463602 52 
L -0.432847 53 
L -0.402349 54 
L -0.343439 55 
L -0.300262 56 
L -0.25865 57 
L -0.209535 58 
L -0.144448 59 
L -0.078053 60 
L 0.04671 61 
L 0.090525 62 
L 0.144853 63 
L 0.251557 64 
L 0.294057 65 
L 0.331551 66 
L 0.421047 67 
L 0.47827 68 
L 0.547913 69 
L 0.596932 70 
L 0.652877 71 
L 0.700002 72 
L 0.73889 73 
L 0.792582 74 
L 0.838153 75 
L 0.87509 76 
L 0.897166 77 
L 0.930049 78 
L 0.959769 79 
L 0.972319 80 
L 0.984218 81 
L 0.989336 82 
L 0.997225 83 
L 0.999856 84 
L 0.999058 85 
L 0.995817 86 
L 0.980679 87 
L 0.973742 88 
L 0.957365 89 
L 0.938952 90 
L 0.90936 91 
L 0.887278 92 
L 0.829584 93 
L 0.804393 94 
L 0.73608 95 
L 0.688954 96 
L 0.651606 97 
L 0.596397 98 
L 0.506966 99 
L 0.403856 100 
L 0.349882 101 
L 0.319162 102 
L 0.263621 103 
L 0.225886 104 
L 0.157632 105 
L 0.121803 106 
L 0.052019 107 
L -0.007275 108 
L -0.045882 109 
L -0.079878 110 
L -0.122458 111 
L -0.169107 112 
L -0.223673 113 
L -0.309574 114 
L -0.35625 115 
L -0.413565 116 
L -0.443979 117 
L -0.52903 118 
L -0.562705 119 
L -0.650629 120 
L -0.705614 121 
L -0.744303 122 
L -0.814334 123 
L -0.84478 124 
L -0.902505 125 
L -0.919649 126 
L -0.944384 127 
L -0.959884 128 
L -0.983336 129 
L -0.99015 130 
L -0.994083 131 
L -0.997815 132 
L -0.999848 133 
L -0.991462 134 
L -0.975076 135 
L -0.948806 136 
L -0.935477 137 
L -0.905523 138 
L -0.871272 139 
L -0.850602 140 
L -0.80959 141 
L -0.736272 142 
L -0.713054 143 
L -0.672688 144 
L -0.645437 145 
L -0.564899 146 
L -0.511421 147 
L -0.43285 148 
L -0.384382 149 
L -0.270352 150 
L -0.169667 151 
L -0.085243 152 
L 0.006297 153 
L 0.10871 154 
L 0.149518 155 
L 0.192661 156 
L 0.231962 157 
L 0.265385 158 
L 0.308493 159 
L 0.414072 160 
L 0.469773 161 
L 0.5751 162 
L 0.672097 163 
L 0.695117 164 
L 0.722104 165 
L 0.752205 166 
L 0.825447 167.064 
z
" style="fill:none;"/>
   <g id="axes_1">
    <path clip-path="url(#p98c0b91b48)" d="M 156.808507 121.92 
L 156.839944 120.92 
L 156.876884 119.92 
L 156.974631 118.92 
L 157.007152 117.92 
L 157.080777 116.92 
L 157.119342 115.8 
" style="fill:none;stroke:#ffffff;stroke-linecap:round;stroke-width:4.0;"/>
    <path clip-path="url(#p98c0b91b48)" d="M 156.808507 121.92 
L 156.839944 120.92 
L 156.876884 119.92 
L 156.974631 118.92 
L 157.007152 117.92 
L 157.080777 116.92 
L 157.119342 115.8 
" style="fill:none;stroke:#000000;stroke-linecap:round;stroke-width:1.5;"/>
    <path clip-path="url(#p98c0b91b48)" d="M 148.04 99.735 
L 148.071436 98.735 
L 148.108377 97.735 
L 148.206123 96.735 
L 148.238645 95.735 
L 148.31227 94.735 
L 148.350835 93.735 
L 148.386248 92.735 
L 148.443888 91.735 
L 148.514274 90.735 
L 148.566239 89.735 
L 148.625328 88.735 
L 148.713649 87.735 
L 148.759794 86.735 
L 148.802205 85.735 
L 148.832697 84.735 
L 148.858742 83.735 
L 148.879942 82.735 
L 148.934243 81.735 
L 148.962181 80.735 
L 148.991905 79.735 
L 149.0173 78.735 
L 149.0285 77.735 
L 149.038624 76.735 
L 149.03842 75.735 
L 149.02891 74.735 
L 149.017256 73.735 
L 148.986227 72.735 
L 148.975059 71.735 
L 148.944942 70.735 
L 148.885165 69.735 
L 148.847973 68.735 
L 148.808877 67.735 
L 148.766437 66.735 
L 148.733672 65.735 
L 148.666246 64.735 
L 148.62712 63.735 
L 148.584445 62.735 
L 148.513865 61.485 
L 148.708529 62.347816 
L 149.614451 62.775271 
L 150.545529 63.15659 
L 151.457317 63.573285 
L 152.389346 63.952859 
L 153.289221 64.391403 
L 154.196521 64.81633 
L 155.097701 65.25248 
L 156.014355 65.660252 
L 156.949055 66.034927 
L 157.860629 66.452016 
L 158.778451 66.857646 
L 159.672279 67.307279 
L 160.574769 67.741026 
L 161.485475 68.159705 
L 162.395137 68.580301 
L 163.309921 68.991502 
L 164.200959 69.446251 
L 165.091597 69.901735 
L 165.980402 70.36058 
L 166.867714 70.822163 
L 167.758311 71.277721 
L 168.6601 71.712755 
L 169.554852 72.160693 
L 170.449984 72.607935 
L 171.335302 73.073174 
L 172.220813 73.53806 
L 173.100409 74.013795 
L 173.979528 74.490403 
L 174.857257 74.96956 
L 175.734295 75.449985 
L 176.60591 75.940355 
L 177.479855 76.426452 
L 178.347507 76.924092 
L 179.214442 77.423044 
L 180.084154 77.916905 
L 180.953277 78.411845 
L 181.821447 78.908533 
L 182.691462 79.401837 
L 183.53937 79.935685 
L 184.3813 80.480496 
L 185.243636 80.987883 
L 186.089253 81.525932 
L 186.941341 82.052114 
L 187.803167 82.560436 
L 188.637983 83.118294 
L 189.502284 83.622077 
L 190.365173 84.128452 
L 191.228288 84.634409 
L 192.080012 85.161259 
L 192.927054 85.696695 
L 193.78673 86.20896 
L 194.618765 86.771917 
L 195.473146 87.293895 
L 196.33001 87.811317 
L 197.188763 88.325275 
L 198.014846 88.899148 
L 198.872879 89.414426 
L 199.721092 89.947715 
L 200.565561 90.48787 
L 201.393493 91.058352 
L 202.253748 91.569556 
L 203.109746 92.088566 
L 203.954918 92.627432 
L 204.809543 93.14896 
L 205.650357 93.695818 
L 206.513698 94.201362 
L 207.358381 94.741124 
L 208.224866 95.240903 
L 209.089126 95.744762 
L 209.94708 96.260186 
L 210.814712 96.757859 
L 211.685997 97.248836 
L 212.551166 97.751028 
L 213.424671 98.237932 
L 214.296674 98.727591 
L 215.169343 99.216027 
L 216.044593 99.699732 
L 217.709355 100.612911 
L 216.834049 99.34069 
L 215.962448 99.831088 
L 215.088086 100.316419 
L 214.221989 100.81691 
L 213.35531 101.316333 
L 212.494669 101.826829 
L 211.629136 102.328353 
L 210.761861 102.826681 
L 209.916816 103.365781 
L 209.074537 103.909951 
L 208.241566 104.471192 
L 207.388045 104.994744 
L 206.535903 105.520827 
L 205.674816 106.030507 
L 204.847642 106.602379 
L 203.994701 107.126995 
L 203.134408 107.638129 
L 202.271301 108.144104 
L 201.422617 108.676527 
L 200.576931 109.21445 
L 199.722382 109.736118 
L 198.87563 110.272085 
L 198.01595 110.784343 
L 197.158093 111.299945 
L 196.300246 111.815565 
L 195.450776 112.346549 
L 194.626988 112.92463 
L 193.77404 113.449235 
L 192.914949 113.962573 
L 192.059536 114.482657 
L 191.208756 115.011238 
L 190.346431 115.518646 
L 189.485789 116.029139 
L 188.62319 116.536045 
L 187.761639 117.044872 
L 186.911625 117.574856 
L 186.055295 118.093257 
L 185.191515 118.597997 
L 184.337674 119.120964 
L 183.471775 119.621818 
L 182.603891 120.119031 
L 181.74267 120.628462 
L 180.876336 121.128518 
L 180.005109 121.619599 
L 179.136215 122.11496 
L 178.265751 122.607442 
L 177.393798 123.097192 
L 176.51863 123.581047 
L 175.643964 124.06582 
L 174.768479 124.549093 
L 173.889663 125.026259 
L 173.010397 125.502597 
L 172.127096 125.971535 
L 171.235617 126.425476 
L 170.336693 126.865763 
L 169.448826 127.32633 
L 168.551249 127.769087 
L 167.654102 128.212634 
L 166.766992 128.674587 
L 165.878255 129.133556 
L 164.968385 129.553769 
L 164.066626 129.988858 
L 163.153378 130.402876 
L 162.260426 130.854115 
L 161.345783 131.265575 
L 160.449487 131.710681 
L 159.536043 132.12434 
L 158.608265 132.511712 
L 157.696873 132.929134 
L 156.768533 133.315474 
L 155.864234 133.745903 
L 154.927161 134.116228 
L 154.01542 134.53301 
L 153.082003 134.910039 
L 152.180018 135.344713 
L 151.285011 135.792184 
L 150.36329 136.190664 
L 149.459713 136.622417 
L 147.750586 137.454233 
L 148.713729 136.985 
L 148.760493 135.985 
L 148.832537 134.985 
L 148.882679 133.985 
L 148.900069 132.985 
L 148.927072 131.985 
L 148.946499 130.985 
L 148.965837 129.985 
L 149.004086 128.985 
L 149.020519 127.985 
L 149.028888 126.985 
L 149.033207 125.985 
L 149.039762 124.985 
L 149.037216 123.985 
L 149.031757 122.985 
L 149.015329 121.985 
L 148.983394 120.985 
L 148.945414 119.985 
L 148.91061 118.985 
L 148.847538 117.985 
L 148.826111 116.985 
L 148.775493 115.985 
L 148.750536 114.985 
L 148.694902 113.985 
L 148.663673 112.985 
L 148.613529 111.985 
L 148.581036 110.985 
L 148.500624 109.985 
L 148.431698 108.985 
L 148.316001 107.985 
L 148.240522 106.985 
L 148.124997 105.985 
L 148.045513 104.985 
L 147.937072 103.985 
L 147.897704 102.985 
L 147.794836 101.985 
L 147.695038 100.985 
L 147.649541 99.735 
M 218.188058 99.735 
" style="fill:none;stroke:#ffffff;stroke-linecap:round;stroke-width:4.0;"/>
    <path clip-path="url(#p98c0b91b48)" d="M 148.04 99.735 
L 148.071436 98.735 
L 148.108377 97.735 
L 148.206123 96.735 
L 148.238645 95.735 
L 148.31227 94.735 
L 148.350835 93.735 
L 148.386248 92.735 
L 148.443888 91.735 
L 148.514274 90.735 
L 148.566239 89.735 
L 148.625328 88.735 
L 148.713649 87.735 
L 148.759794 86.735 
L 148.802205 85.735 
L 148.832697 84.735 
L 148.858742 83.735 
L 148.879942 82.735 
L 148.934243 81.735 
L 148.962181 80.735 
L 148.991905 79.735 
L 149.0173 78.735 
L 149.0285 77.735 
L 149.038624 76.735 
L 149.03842 75.735 
L 149.02891 74.735 
L 149.017256 73.735 
L 148.986227 72.735 
L 148.975059 71.735 
L 148.944942 70.735 
L 148.885165 69.735 
L 148.847973 68.735 
L 148.808877 67.735 
L 148.766437 66.735 
L 148.733672 65.735 
L 148.666246 64.735 
L 148.62712 63.735 
L 148.584445 62.735 
L 148.513865 61.485 
L 148.708529 62.347816 
L 149.614451 62.775271 
L 150.545529 63.15659 
L 151.457317 63.573285 
L 152.389346 63.952859 
L 153.289221 64.391403 
L 154.196521 64.81633 
L 155.097701 65.25248 
L 156.014355 65.660252 
L 156.949055 66.034927 
L 157.860629 66.452016 
L 158.778451 66.857646 
L 159.672279 67.307279 
L 160.574769 67.741026 
L 161.485475 68.159705 
L 162.395137 68.580301 
L 163.309921 68.991502 
L 164.200959 69.446251 
L 165.091597 69.901735 
L 165.980402 70.36058 
L 166.867714 70.822163 
L 167.758311 71.277721 
L 168.6601 71.712755 
L 169.554852 72.160693 
L 170.449984 72.607935 
L 171.335302 73.073174 
L 172.220813 73.53806 
L 173.100409 74.013795 
L 173.979528 74.490403 
L 174.857257 74.96956 
L 175.734295 75.449985 
L 176.60591 75.940355 
L 177.479855 76.426452 
L 178.347507 76.924092 
L 179.214442 77.423044 
L 180.084154 77.916905 
L 180.953277 78.411845 
L 181.821447 78.908533 
L 182.691462 79.401837 
L 183.53937 79.935685 
L 184.3813 80.480496 
L 185.243636 80.987883 
L 186.089253 81.525932 
L 186.941341 82.052114 
L 187.803167 82.560436 
L 188.637983 83.118294 
L 189.502284 83.622077 
L 190.365173 84.128452 
L 191.228288 84.634409 
L 192.080012 85.161259 
L 192.927054 85.696695 
L 193.78673 86.20896 
L 194.618765 86.771917 
L 195.473146 87.293895 
L 196.33001 87.811317 
L 197.188763 88.325275 
L 198.014846 88.899148 
L 198.872879 89.414426 
L 199.721092 89.947715 
L 200.565561 90.48787 
L 201.393493 91.058352 
L 202.253748 91.569556 
L 203.109746 92.088566 
L 203.954918 92.627432 
L 204.809543 93.14896 
L 205.650357 93.695818 
L 206.513698 94.201362 
L 207.358381 94.741124 
L 208.224866 95.240903 
L 209.089126 95.744762 
L 209.94708 96.260186 
L 210.814712 96.757859 
L 211.685997 97.248836 
L 212.551166 97.751028 
L 213.424671 98.237932 
L 214.296674 98.727591 
L 215.169343 99.216027 
L 216.044593 99.699732 
L 217.709355 100.612911 
L 216.834049 99.34069 
L 215.962448 99.831088 
L 215.088086 100.316419 
L 214.221989 100.81691 
L 213.35531 101.316333 
L 212.494669 101.826829 
L 211.629136 102.328353 
L 210.761861 102.826681 
L 209.916816 103.365781 
L 209.074537 103.909951 
L 208.241566 104.471192 
L 207.388045 104.994744 
L 206.535903 105.520827 
L 205.674816 106.030507 
L 204.847642 106.602379 
L 203.994701 107.126995 
L 203.134408 107.638129 
L 202.271301 108.144104 
L 201.422617 108.676527 
L 200.576931 109.21445 
L 199.722382 109.736118 
L 198.87563 110.272085 
L 198.01595 110.784343 
L 197.158093 111.299945 
L 196.300246 111.815565 
L 195.450776 112.346549 
L 194.626988 112.92463 
L 193.77404 113.449235 
L 192.914949 113.962573 
L 192.059536 114.482657 
L 191.208756 115.011238 
L 190.346431 115.518646 
L 189.485789 116.029139 
L 188.62319 116.536045 
L 187.761639 117.044872 
L 186.911625 117.574856 
L 186.055295 118.093257 
L 185.191515 118.597997 
L 184.337674 119.120964 
L 183.471775 119.621818 
L 182.603891 120.119031 
L 181.74267 120.628462 
L 180.876336 121.128518 
L 180.005109 121.619599 
L 179.136215 122.11496 
L 178.265751 122.607442 
L 177.393798 123.097192 
L 176.51863 123.581047 
L 175.643964 124.06582 
L 174.768479 124.549093 
L 173.889663 125.026259 
L 173.010397 125.502597 
L 172.127096 125.971535 
L 171.235617 126.425476 
L 170.336693 126.865763 
L 169.448826 127.32633 
L 168.551249 127.769087 
L 167.654102 128.212634 
L 166.766992 128.674587 
L 165.878255 129.133556 
L 164.968385 129.553769 
L 164.066626 129.988858 
L 163.153378 130.402876 
L 162.260426 130.854115 
L 161.345783 131.265575 
L 160.449487 131.710681 
L 159.536043 132.12434 
L 158.608265 132.511712 
L 157.696873 132.929134 
L 156.768533 133.315474 
L 155.864234 133.745903 
L 154.927161 134.116228 
L 154.01542 134.53301 
L 153.082003 134.910039 
L 152.180018 135.344713 
L 151.285011 135.792184 
L 150.36329 136.190664 
L 149.459713 136.622417 
L 147.750586 137.454233 
L 148.713729 136.985 
L 148.760493 135.985 
L 148.832537 134.985 
L 148.882679 133.985 
L 148.900069 132.985 
L 148.927072 131.985 
L 148.946499 130.985 
L 148.965837 129.985 
L 149.004086 128.985 
L 149.020519 127.985 
L 149.028888 126.985 
L 149.033207 125.985 
L 149.039762 124.985 
L 149.037216 123.985 
L 149.031757 122.985 
L 149.015329 121.985 
L 148.983394 120.985 
L 148.945414 119.985 
L 148.91061 118.985 
L 148.847538 117.985 
L 148.826111 116.985 
L 148.775493 115.985 
L 148.750536 114.985 
L 148.694902 113.985 
L 148.663673 112.985 
L 148.613529 111.985 
L 148.581036 110.985 
L 148.500624 109.985 
L 148.431698 108.985 
L 148.316001 107.985 
L 148.240522 106.985 
L 148.124997 105.985 
L 148.045513 104.985 
L 147.937072 103.985 
L 147.897704 102.985 
L 147.794836 101.985 
L 147.695038 100.985 
L 147.649541 99.735 
M 218.188058 99.735 
" style="fill:none;stroke:#000000;stroke-linecap:round;stroke-width:1.5;"/>
    <path clip-path="url(#p98c0b91b48)" d="M 153.568507 80.61 
L 154.568507 80.641436 
L 155.568507 80.678377 
L 156.568507 80.776123 
L 157.568507 80.808645 
L 158.568507 80.88227 
L 160.048507 80.920835 
" style="fill:none;stroke:#ffffff;stroke-linecap:round;stroke-width:4.0;"/>
    <path clip-path="url(#p98c0b91b48)" d="M 153.568507 80.61 
L 154.568507 80.641436 
L 155.568507 80.678377 
L 156.568507 80.776123 
L 157.568507 80.808645 
L 158.568507 80.88227 
L 160.048507 80.920835 
" style="fill:none;stroke:#000000;stroke-linecap:round;stroke-width:1.5;"/>
    <path clip-path="url(#p98c0b91b48)" d="M 153.568507 118.86 
L 154.568507 118.891436 
L 155.568507 118.928377 
L 156.568507 119.026123 
L 157.568507 119.058645 
L 158.568507 119.13227 
L 160.048507 119.170835 
" style="fill:none;stroke:#ffffff;stroke-linecap:round;stroke-width:4.0;"/>
    <path clip-path="url(#p98c0b91b48)" d="M 153.568507 118.86 
L 154.568507 118.891436 
L 155.568507 118.928377 
L 156.568507 119.026123 
L 157.568507 119.058645 
L 158.568507 119.13227 
L 160.048507 119.170835 
" style="fill:none;stroke:#000000;stroke-linecap:round;stroke-width:1.5;"/>
    <path clip-path="url(#p98c0b91b48)" d="M 148.04 118.86 
L 147.04 118.828564 
L 146.04 118.791623 
L 145.04 118.693877 
L 144.04 118.661355 
L 143.04 118.58773 
L 142.04 118.549165 
L 141.04 118.513752 
L 140.04 118.456112 
L 139.04 118.385726 
L 138.04 118.333761 
L 137.04 118.274672 
L 135.89 118.186351 
L 134.89 118.140206 
L 133.89 118.097795 
L 132.89 118.067303 
L 131.89 118.041258 
L 130.89 118.020058 
L 129.89 117.965757 
L 128.89 117.937819 
L 127.89 117.908095 
L 126.89 117.8827 
L 125.89 117.8715 
L 124.89 117.861376 
L 123.74 117.86158 
" style="fill:none;stroke:#ffffff;stroke-linecap:round;stroke-width:4.0;"/>
    <path clip-path="url(#p98c0b91b48)" d="M 148.04 118.86 
L 147.04 118.828564 
L 146.04 118.791623 
L 145.04 118.693877 
L 144.04 118.661355 
L 143.04 118.58773 
L 142.04 118.549165 
L 141.04 118.513752 
L 140.04 118.456112 
L 139.04 118.385726 
L 138.04 118.333761 
L 137.04 118.274672 
L 135.89 118.186351 
L 134.89 118.140206 
L 133.89 118.097795 
L 132.89 118.067303 
L 131.89 118.041258 
L 130.89 118.020058 
L 129.89 117.965757 
L 128.89 117.937819 
L 127.89 117.908095 
L 126.89 117.8827 
L 125.89 117.8715 
L 124.89 117.861376 
L 123.74 117.86158 
" style="fill:none;stroke:#000000;stroke-linecap:round;stroke-width:1.5;"/>
    <path clip-path="url(#p98c0b91b48)" d="M 123.74 118.86 
L 123.708564 119.86 
L 123.671623 120.86 
L 123.573877 121.86 
L 123.541355 122.86 
L 123.46773 123.86 
L 123.429165 124.86 
L 123.393752 125.86 
L 123.336112 126.86 
L 123.265726 128.04 
L 123.213761 129.04 
L 123.154672 130.04 
L 123.066351 131.04 
L 123.020206 132.04 
L 122.977795 133.04 
L 122.947303 134.04 
L 122.921258 135.04 
L 122.900058 136.04 
L 122.845757 137.22 
" style="fill:none;stroke:#ffffff;stroke-linecap:round;stroke-width:4.0;"/>
    <path clip-path="url(#p98c0b91b48)" d="M 123.74 118.86 
L 123.708564 119.86 
L 123.671623 120.86 
L 123.573877 121.86 
L 123.541355 122.86 
L 123.46773 123.86 
L 123.429165 124.86 
L 123.393752 125.86 
L 123.336112 126.86 
L 123.265726 128.04 
L 123.213761 129.04 
L 123.154672 130.04 
L 123.066351 131.04 
L 123.020206 132.04 
L 122.977795 133.04 
L 122.947303 134.04 
L 122.921258 135.04 
L 122.900058 136.04 
L 122.845757 137.22 
" style="fill:none;stroke:#000000;stroke-linecap:round;stroke-width:1.5;"/>
    <path clip-path="url(#p98c0b91b48)" d="M 123.74 137.22 
L 123.708564 138.22 
L 123.671623 139.22 
L 123.573877 140.22 
L 123.541355 141.22 
L 123.46773 142.22 
L 123.429165 143.22 
L 123.393752 144.22 
L 123.336112 145.22 
L 123.265726 146.22 
L 123.213761 147.22 
L 123.154672 148.22 
L 123.066351 149.46 
L 122.74 148.740206 
L 121.74 148.697795 
L 120.74 148.667303 
L 119.74 148.641258 
L 118.74 148.620058 
L 117.74 148.565757 
L 116.74 148.537819 
L 115.64 148.508095 
L 116.64 150.4373 
L 117.64 150.4485 
L 118.64 150.458624 
L 119.64 150.45842 
L 120.64 150.44891 
L 121.64 150.437256 
L 122.64 150.406227 
L 123.64 150.395059 
L 124.64 150.364942 
L 125.64 150.305165 
L 126.64 150.267973 
L 127.64 150.228877 
L 128.64 150.186437 
L 129.64 150.153672 
L 130.64 150.086246 
L 131.84 150.04712 
M 118.07 153.132 
L 119.07 153.183745 
L 120.07 153.265423 
L 121.07 153.305821 
L 122.07 153.368444 
L 123.07 153.480581 
L 124.07 153.547716 
L 125.07 153.6486 
L 126.07 153.687313 
L 127.07 153.737214 
L 128.07 153.77514 
L 129.41 153.83524 
M 122.12 156.804 
L 123.12 156.925039 
L 124.12 156.997859 
L 125.36 157.085392 
" style="fill:none;stroke:#ffffff;stroke-linecap:round;stroke-width:4.0;"/>
    <path clip-path="url(#p98c0b91b48)" d="M 123.74 137.22 
L 123.708564 138.22 
L 123.671623 139.22 
L 123.573877 140.22 
L 123.541355 141.22 
L 123.46773 142.22 
L 123.429165 143.22 
L 123.393752 144.22 
L 123.336112 145.22 
L 123.265726 146.22 
L 123.213761 147.22 
L 123.154672 148.22 
L 123.066351 149.46 
L 122.74 148.740206 
L 121.74 148.697795 
L 120.74 148.667303 
L 119.74 148.641258 
L 118.74 148.620058 
L 117.74 148.565757 
L 116.74 148.537819 
L 115.64 148.508095 
L 116.64 150.4373 
L 117.64 150.4485 
L 118.64 150.458624 
L 119.64 150.45842 
L 120.64 150.44891 
L 121.64 150.437256 
L 122.64 150.406227 
L 123.64 150.395059 
L 124.64 150.364942 
L 125.64 150.305165 
L 126.64 150.267973 
L 127.64 150.228877 
L 128.64 150.186437 
L 129.64 150.153672 
L 130.64 150.086246 
L 131.84 150.04712 
M 118.07 153.132 
L 119.07 153.183745 
L 120.07 153.265423 
L 121.07 153.305821 
L 122.07 153.368444 
L 123.07 153.480581 
L 124.07 153.547716 
L 125.07 153.6486 
L 126.07 153.687313 
L 127.07 153.737214 
L 128.07 153.77514 
L 129.41 153.83524 
M 122.12 156.804 
L 123.12 156.925039 
L 124.12 156.997859 
L 125.36 157.085392 
" style="fill:none;stroke:#000000;stroke-linecap:round;stroke-width:1.5;"/>
    <path clip-path="url(#p98c0b91b48)" d="M 148.04 80.61 
L 147.04 80.578564 
L 146.04 80.541623 
L 145.04 80.443877 
L 144.04 80.411355 
L 143.04 80.33773 
L 142.04 80.299165 
L 141.04 80.263752 
L 139.94 80.206112 
L 138.94 80.135726 
L 137.94 80.083761 
L 136.94 80.024672 
L 135.94 79.936351 
L 134.94 79.890206 
L 133.94 79.847795 
L 132.94 79.817303 
L 131.84 79.791258 
" style="fill:none;stroke:#ffffff;stroke-linecap:round;stroke-width:4.0;"/>
    <path clip-path="url(#p98c0b91b48)" d="M 148.04 80.61 
L 147.04 80.578564 
L 146.04 80.541623 
L 145.04 80.443877 
L 144.04 80.411355 
L 143.04 80.33773 
L 142.04 80.299165 
L 141.04 80.263752 
L 139.94 80.206112 
L 138.94 80.135726 
L 137.94 80.083761 
L 136.94 80.024672 
L 135.94 79.936351 
L 134.94 79.890206 
L 133.94 79.847795 
L 132.94 79.817303 
L 131.84 79.791258 
" style="fill:none;stroke:#000000;stroke-linecap:round;stroke-width:1.5;"/>
    <path clip-path="url(#p98c0b91b48)" d="M 131.84 80.61 
" style="fill:none;stroke:#ffffff;stroke-linecap:round;stroke-width:4.0;"/>
    <path clip-path="url(#p98c0b91b48)" d="M 131.84 80.61 
" style="fill:none;stroke:#000000;stroke-linecap:round;stroke-width:1.5;"/>
    <path clip-path="url(#p98c0b91b48)" d="M 128.6 80.61 
L 127.6 80.578564 
L 126.6 80.541623 
L 125.6 80.443877 
L 124.6 80.411355 
L 123.6 80.33773 
L 122.6 80.299165 
L 121.6 80.263752 
L 120.6 80.206112 
L 119.6 80.135726 
L 118.6 80.083761 
L 117.6 80.024672 
L 116.6 79.936351 
L 115.6 79.890206 
L 114.6 79.847795 
L 113.6 79.817303 
L 112.6 79.791258 
L 111.6 79.770058 
L 110.6 79.715757 
L 109.6 79.687819 
L 108.6 79.658095 
L 107.6 79.6327 
L 106.6 79.6215 
L 105.6 79.611376 
L 104.6 79.61158 
L 103.6 79.62109 
L 102.6 79.632744 
L 101.6 79.663773 
L 100.6 79.674941 
L 99.6 79.705058 
L 98.6 79.764835 
L 97.6 79.802027 
L 96.2 79.841123 
L 95.182156 81.311217 
L 94.880233 82.265113 
L 94.610996 83.230544 
L 94.315071 84.186556 
L 94.022493 85.143749 
L 93.756229 86.11023 
L 93.457725 87.065332 
L 93.14254 88.133838 
L 93.420013 87.227775 
L 93.020563 86.308301 
L 92.581241 85.402899 
L 92.205258 84.475143 
L 91.814648 83.552549 
L 91.436094 82.6257 
L 91.027058 81.709609 
L 90.582476 80.806064 
L 90.183448 79.886441 
L 89.772112 78.971163 
L 89.40804 78.039202 
L 89.026903 77.113265 
L 88.629584 76.193039 
L 88.234324 75.272086 
L 87.828971 74.354696 
L 87.395515 73.208642 
L 88.496633 74.160444 
L 88.185172 75.110973 
L 87.87077 76.060464 
L 87.562839 77.012239 
L 87.276952 77.971794 
L 86.977206 78.926457 
L 86.678207 79.881384 
L 86.359878 80.829489 
L 86.041928 81.777728 
L 85.712326 82.721854 
L 85.381786 83.665649 
L 85.048507 84.608478 
L 84.713867 85.550826 
L 84.368546 86.489404 
L 84.027814 87.429602 
L 83.599807 88.577579 
L 81.489092 87.626923 
L 81.172523 86.678197 
L 80.857113 85.729062 
L 80.54358 84.779264 
L 80.226413 83.830749 
L 79.952793 82.866865 
L 79.690947 81.898825 
L 79.388905 80.944972 
L 79.119797 79.979495 
L 78.837942 79.018517 
L 78.536905 78.064309 
L 78.289073 77.091323 
L 77.983161 76.138835 
L 77.680032 75.185366 
L 77.376455 74.232054 
L 77.02044 73.058668 
L 77.185834 73.980163 
L 76.816997 74.910441 
L 76.393711 75.821502 
L 76.014441 76.748098 
L 75.640064 77.676422 
L 75.269408 78.606058 
L 74.834399 79.512982 
L 74.462324 80.442117 
L 74.070905 81.364426 
L 73.672111 82.284131 
L 73.240744 83.19234 
L 72.873045 84.12302 
L 72.496963 85.050742 
L 72.099553 85.970936 
L 71.720766 86.897703 
L 71.239894 88.027022 
L 72.256085 87.073867 
L 71.988816 86.107741 
L 71.678603 85.156771 
L 71.372772 84.204255 
L 71.079363 83.247355 
L 70.766888 82.297184 
L 70.447221 81.349552 
L 70.1396 80.397668 
L 69.815559 79.451579 
L 69.494476 78.504446 
L 69.17208 77.557776 
L 68.844602 76.612901 
L 68.516274 75.668325 
L 68.178223 74.727181 
L 67.832872 73.788613 
L 67.418085 72.63597 
L 65.272467 73.587209 
L 64.961872 74.538044 
L 64.66317 75.493076 
L 64.354831 76.444707 
L 64.04306 77.395126 
L 63.77508 78.361001 
L 63.512546 79.328798 
L 63.230908 80.409144 
L 62.8 80.057555 
L 61.8 80.111489 
L 60.8 80.14674 
L 59.8 80.252828 
L 58.8 80.305092 
L 57.8 80.341999 
L 56.8 80.37303 
L 55.8 80.434185 
L 54.8 80.501605 
L 53.8 80.550511 
L 52.8 80.615703 
L 51.8 80.653891 
L 50.8 80.695887 
L 49.8 80.737904 
L 48.8 80.79742 
L 47.8 80.91058 
L 46.8 80.962831 
L 45.8 81.002249 
L 44.8 81.04935 
L 43.8 81.10613 
L 42.8 81.138793 
L 41.8 81.174971 
L 40.8 81.207061 
L 39.8 81.241341 
L 38.8 81.299719 
L 37.8 81.344904 
L 36.8 81.374528 
L 35.8 81.424914 
L 34.8 81.450111 
L 33.8 81.471162 
L 32.8 81.50613 
L 31.4 81.53042 
" style="fill:none;stroke:#ffffff;stroke-linecap:round;stroke-width:4.0;"/>
    <path clip-path="url(#p98c0b91b48)" d="M 128.6 80.61 
L 127.6 80.578564 
L 126.6 80.541623 
L 125.6 80.443877 
L 124.6 80.411355 
L 123.6 80.33773 
L 122.6 80.299165 
L 121.6 80.263752 
L 120.6 80.206112 
L 119.6 80.135726 
L 118.6 80.083761 
L 117.6 80.024672 
L 116.6 79.936351 
L 115.6 79.890206 
L 114.6 79.847795 
L 113.6 79.817303 
L 112.6 79.791258 
L 111.6 79.770058 
L 110.6 79.715757 
L 109.6 79.687819 
L 108.6 79.658095 
L 107.6 79.6327 
L 106.6 79.6215 
L 105.6 79.611376 
L 104.6 79.61158 
L 103.6 79.62109 
L 102.6 79.632744 
L 101.6 79.663773 
L 100.6 79.674941 
L 99.6 79.705058 
L 98.6 79.764835 
L 97.6 79.802027 
L 96.2 79.841123 
L 95.182156 81.311217 
L 94.880233 82.265113 
L 94.610996 83.230544 
L 94.315071 84.186556 
L 94.022493 85.143749 
L 93.756229 86.11023 
L 93.457725 87.065332 
L 93.14254 88.133838 
L 93.420013 87.227775 
L 93.020563 86.308301 
L 92.581241 85.402899 
L 92.205258 84.475143 
L 91.814648 83.552549 
L 91.436094 82.6257 
L 91.027058 81.709609 
L 90.582476 80.806064 
L 90.183448 79.886441 
L 89.772112 78.971163 
L 89.40804 78.039202 
L 89.026903 77.113265 
L 88.629584 76.193039 
L 88.234324 75.272086 
L 87.828971 74.354696 
L 87.395515 73.208642 
L 88.496633 74.160444 
L 88.185172 75.110973 
L 87.87077 76.060464 
L 87.562839 77.012239 
L 87.276952 77.971794 
L 86.977206 78.926457 
L 86.678207 79.881384 
L 86.359878 80.829489 
L 86.041928 81.777728 
L 85.712326 82.721854 
L 85.381786 83.665649 
L 85.048507 84.608478 
L 84.713867 85.550826 
L 84.368546 86.489404 
L 84.027814 87.429602 
L 83.599807 88.577579 
L 81.489092 87.626923 
L 81.172523 86.678197 
L 80.857113 85.729062 
L 80.54358 84.779264 
L 80.226413 83.830749 
L 79.952793 82.866865 
L 79.690947 81.898825 
L 79.388905 80.944972 
L 79.119797 79.979495 
L 78.837942 79.018517 
L 78.536905 78.064309 
L 78.289073 77.091323 
L 77.983161 76.138835 
L 77.680032 75.185366 
L 77.376455 74.232054 
L 77.02044 73.058668 
L 77.185834 73.980163 
L 76.816997 74.910441 
L 76.393711 75.821502 
L 76.014441 76.748098 
L 75.640064 77.676422 
L 75.269408 78.606058 
L 74.834399 79.512982 
L 74.462324 80.442117 
L 74.070905 81.364426 
L 73.672111 82.284131 
L 73.240744 83.19234 
L 72.873045 84.12302 
L 72.496963 85.050742 
L 72.099553 85.970936 
L 71.720766 86.897703 
L 71.239894 88.027022 
L 72.256085 87.073867 
L 71.988816 86.107741 
L 71.678603 85.156771 
L 71.372772 84.204255 
L 71.079363 83.247355 
L 70.766888 82.297184 
L 70.447221 81.349552 
L 70.1396 80.397668 
L 69.815559 79.451579 
L 69.494476 78.504446 
L 69.17208 77.557776 
L 68.844602 76.612901 
L 68.516274 75.668325 
L 68.178223 74.727181 
L 67.832872 73.788613 
L 67.418085 72.63597 
L 65.272467 73.587209 
L 64.961872 74.538044 
L 64.66317 75.493076 
L 64.354831 76.444707 
L 64.04306 77.395126 
L 63.77508 78.361001 
L 63.512546 79.328798 
L 63.230908 80.409144 
L 62.8 80.057555 
L 61.8 80.111489 
L 60.8 80.14674 
L 59.8 80.252828 
L 58.8 80.305092 
L 57.8 80.341999 
L 56.8 80.37303 
L 55.8 80.434185 
L 54.8 80.501605 
L 53.8 80.550511 
L 52.8 80.615703 
L 51.8 80.653891 
L 50.8 80.695887 
L 49.8 80.737904 
L 48.8 80.79742 
L 47.8 80.91058 
L 46.8 80.962831 
L 45.8 81.002249 
L 44.8 81.04935 
L 43.8 81.10613 
L 42.8 81.138793 
L 41.8 81.174971 
L 40.8 81.207061 
L 39.8 81.241341 
L 38.8 81.299719 
L 37.8 81.344904 
L 36.8 81.374528 
L 35.8 81.424914 
L 34.8 81.450111 
L 33.8 81.471162 
L 32.8 81.50613 
L 31.4 81.53042 
" style="fill:none;stroke:#000000;stroke-linecap:round;stroke-width:1.5;"/>
    <path clip-path="url(#p98c0b91b48)" d="M 131.84 80.61 
L 131.871436 79.61 
L 131.908377 78.61 
L 132.006123 77.61 
L 132.038645 76.61 
L 132.11227 75.61 
L 132.150835 74.61 
L 132.186248 73.61 
L 132.243888 72.61 
L 132.314274 71.61 
L 132.366239 70.61 
L 132.425328 69.61 
L 132.513649 68.61 
L 132.559794 67.61 
L 132.602205 66.61 
L 132.632697 65.61 
L 132.658742 64.61 
L 132.679942 63.61 
L 132.734243 62.61 
L 132.762181 61.61 
L 132.791905 60.61 
L 132.8173 59.61 
L 132.8285 57.66 
L 132.838624 56.66 
L 132.83842 55.66 
L 132.82891 54.66 
L 132.817256 53.66 
L 132.786227 52.66 
L 132.775059 51.66 
L 132.744942 50.66 
L 132.685165 49.66 
L 132.647973 48.66 
L 132.608877 47.66 
L 132.566437 46.66 
L 132.533672 45.66 
L 132.466246 44.66 
L 132.42712 43.66 
L 132.384445 42.66 
L 132.313865 41.66 
L 132.277474 40.66 
L 132.219071 39.66 
L 132.108118 38.66 
L 132.03746 37.66 
L 131.92452 36.66 
L 131.878747 34.71 
" style="fill:none;stroke:#ffffff;stroke-linecap:round;stroke-width:4.0;"/>
    <path clip-path="url(#p98c0b91b48)" d="M 131.84 80.61 
L 131.871436 79.61 
L 131.908377 78.61 
L 132.006123 77.61 
L 132.038645 76.61 
L 132.11227 75.61 
L 132.150835 74.61 
L 132.186248 73.61 
L 132.243888 72.61 
L 132.314274 71.61 
L 132.366239 70.61 
L 132.425328 69.61 
L 132.513649 68.61 
L 132.559794 67.61 
L 132.602205 66.61 
L 132.632697 65.61 
L 132.658742 64.61 
L 132.679942 63.61 
L 132.734243 62.61 
L 132.762181 61.61 
L 132.791905 60.61 
L 132.8173 59.61 
L 132.8285 57.66 
L 132.838624 56.66 
L 132.83842 55.66 
L 132.82891 54.66 
L 132.817256 53.66 
L 132.786227 52.66 
L 132.775059 51.66 
L 132.744942 50.66 
L 132.685165 49.66 
L 132.647973 48.66 
L 132.608877 47.66 
L 132.566437 46.66 
L 132.533672 45.66 
L 132.466246 44.66 
L 132.42712 43.66 
L 132.384445 42.66 
L 132.313865 41.66 
L 132.277474 40.66 
L 132.219071 39.66 
L 132.108118 38.66 
L 132.03746 37.66 
L 131.92452 36.66 
L 131.878747 34.71 
" style="fill:none;stroke:#000000;stroke-linecap:round;stroke-width:1.5;"/>
    <path clip-path="url(#p98c0b91b48)" d="M 131.84 34.71 
L 132.84 34.741436 
L 133.84 34.778377 
L 134.84 34.876123 
L 135.84 34.908645 
L 136.84 34.98227 
L 137.84 35.020835 
L 138.84 35.056248 
L 139.84 35.113888 
L 140.84 35.184274 
L 141.84 35.236239 
L 142.84 35.295328 
L 143.84 35.383649 
L 144.84 35.429794 
L 145.84 35.472205 
L 146.84 35.502697 
L 147.84 35.528742 
L 148.84 35.549942 
L 149.84 35.604243 
L 150.84 35.632181 
L 151.84 35.661905 
L 152.84 35.6873 
L 153.84 35.6985 
L 154.84 35.708624 
L 155.84 35.70842 
L 156.84 35.69891 
L 157.84 35.687256 
L 158.84 35.656227 
L 159.84 35.645059 
L 160.84 35.614942 
L 161.84 35.555165 
L 162.84 35.517973 
L 164.24 35.478877 
L 165.257844 34.008783 
L 165.559767 33.054887 
L 165.829004 32.089456 
L 166.124929 31.133444 
L 166.417507 30.176251 
L 166.683771 29.20977 
L 166.982275 28.254668 
L 167.29746 27.186162 
L 167.019987 28.092225 
L 167.419437 29.011699 
L 167.858759 29.917101 
L 168.234742 30.844857 
L 168.625352 31.767451 
L 169.003906 32.6943 
L 169.412942 33.610391 
L 169.857524 34.513936 
L 170.256552 35.433559 
L 170.667888 36.348837 
L 171.03196 37.280798 
L 171.413097 38.206735 
L 171.810416 39.126961 
L 172.205676 40.047914 
L 172.611029 40.965304 
L 173.044485 42.111358 
L 171.943367 41.159556 
L 172.254828 40.209027 
L 172.56923 39.259536 
L 172.877161 38.307761 
L 173.163048 37.348206 
L 173.462794 36.393543 
L 173.761793 35.438616 
L 174.080122 34.490511 
L 174.398072 33.542272 
L 174.727674 32.598146 
L 175.058214 31.654351 
L 175.391493 30.711522 
L 175.726133 29.769174 
L 176.071454 28.830596 
L 176.412186 27.890398 
L 176.840193 26.742421 
L 178.950908 27.693077 
L 179.267477 28.641803 
L 179.582887 29.590938 
L 179.89642 30.540736 
L 180.213587 31.489251 
L 180.487207 32.453135 
L 180.749053 33.421175 
L 181.051095 34.375028 
L 181.320203 35.340505 
L 181.602058 36.301483 
L 181.903095 37.255691 
L 182.150927 38.228677 
L 182.456839 39.181165 
L 182.759968 40.134634 
L 183.063545 41.087946 
L 183.41956 42.261332 
L 183.254166 41.339837 
L 183.623003 40.409559 
L 184.046289 39.498498 
L 184.425559 38.571902 
L 184.799936 37.643578 
L 185.170592 36.713942 
L 185.605601 35.807018 
L 185.977676 34.877883 
L 186.369095 33.955574 
L 186.767889 33.035869 
L 187.199256 32.12766 
L 187.566955 31.19698 
L 187.943037 30.269258 
L 188.340447 29.349064 
L 188.719234 28.422297 
L 189.200106 27.292978 
L 188.183915 28.246133 
L 188.451184 29.212259 
L 188.761397 30.163229 
L 189.067228 31.115745 
L 189.360637 32.072645 
L 189.673112 33.022816 
L 189.992779 33.970448 
L 190.3004 34.922332 
L 190.624441 35.868421 
L 190.945524 36.815554 
L 191.26792 37.762224 
L 191.595398 38.707099 
L 191.923726 39.651675 
L 192.261777 40.592819 
L 192.607128 41.531387 
L 193.021915 42.68403 
L 195.167533 41.732791 
L 195.478128 40.781956 
L 195.77683 39.826924 
L 196.085169 38.875293 
L 196.39694 37.924874 
L 196.66492 36.958999 
L 196.927454 35.991202 
L 197.209092 34.910856 
L 197.64 35.262445 
L 198.64 35.208511 
L 199.64 35.17326 
L 200.64 35.067172 
L 201.64 35.014908 
L 202.64 34.978001 
L 203.64 34.94697 
L 204.64 34.885815 
L 205.64 34.818395 
L 206.64 34.769489 
L 207.64 34.704297 
L 208.64 34.666109 
L 209.64 34.624113 
L 210.64 34.582096 
L 211.64 34.52258 
L 212.64 34.40942 
L 213.64 34.357169 
L 214.64 34.317751 
L 215.64 34.27065 
L 216.64 34.21387 
L 217.64 34.181207 
L 218.64 34.145029 
L 219.64 34.112939 
L 220.64 34.078659 
L 221.64 34.020281 
L 222.64 33.975096 
L 223.64 33.945472 
L 224.64 33.895086 
L 225.64 33.869889 
L 226.64 33.848838 
L 227.64 33.81387 
L 229.04 33.78958 
" style="fill:none;stroke:#ffffff;stroke-linecap:round;stroke-width:4.0;"/>
    <path clip-path="url(#p98c0b91b48)" d="M 131.84 34.71 
L 132.84 34.741436 
L 133.84 34.778377 
L 134.84 34.876123 
L 135.84 34.908645 
L 136.84 34.98227 
L 137.84 35.020835 
L 138.84 35.056248 
L 139.84 35.113888 
L 140.84 35.184274 
L 141.84 35.236239 
L 142.84 35.295328 
L 143.84 35.383649 
L 144.84 35.429794 
L 145.84 35.472205 
L 146.84 35.502697 
L 147.84 35.528742 
L 148.84 35.549942 
L 149.84 35.604243 
L 150.84 35.632181 
L 151.84 35.661905 
L 152.84 35.6873 
L 153.84 35.6985 
L 154.84 35.708624 
L 155.84 35.70842 
L 156.84 35.69891 
L 157.84 35.687256 
L 158.84 35.656227 
L 159.84 35.645059 
L 160.84 35.614942 
L 161.84 35.555165 
L 162.84 35.517973 
L 164.24 35.478877 
L 165.257844 34.008783 
L 165.559767 33.054887 
L 165.829004 32.089456 
L 166.124929 31.133444 
L 166.417507 30.176251 
L 166.683771 29.20977 
L 166.982275 28.254668 
L 167.29746 27.186162 
L 167.019987 28.092225 
L 167.419437 29.011699 
L 167.858759 29.917101 
L 168.234742 30.844857 
L 168.625352 31.767451 
L 169.003906 32.6943 
L 169.412942 33.610391 
L 169.857524 34.513936 
L 170.256552 35.433559 
L 170.667888 36.348837 
L 171.03196 37.280798 
L 171.413097 38.206735 
L 171.810416 39.126961 
L 172.205676 40.047914 
L 172.611029 40.965304 
L 173.044485 42.111358 
L 171.943367 41.159556 
L 172.254828 40.209027 
L 172.56923 39.259536 
L 172.877161 38.307761 
L 173.163048 37.348206 
L 173.462794 36.393543 
L 173.761793 35.438616 
L 174.080122 34.490511 
L 174.398072 33.542272 
L 174.727674 32.598146 
L 175.058214 31.654351 
L 175.391493 30.711522 
L 175.726133 29.769174 
L 176.071454 28.830596 
L 176.412186 27.890398 
L 176.840193 26.742421 
L 178.950908 27.693077 
L 179.267477 28.641803 
L 179.582887 29.590938 
L 179.89642 30.540736 
L 180.213587 31.489251 
L 180.487207 32.453135 
L 180.749053 33.421175 
L 181.051095 34.375028 
L 181.320203 35.340505 
L 181.602058 36.301483 
L 181.903095 37.255691 
L 182.150927 38.228677 
L 182.456839 39.181165 
L 182.759968 40.134634 
L 183.063545 41.087946 
L 183.41956 42.261332 
L 183.254166 41.339837 
L 183.623003 40.409559 
L 184.046289 39.498498 
L 184.425559 38.571902 
L 184.799936 37.643578 
L 185.170592 36.713942 
L 185.605601 35.807018 
L 185.977676 34.877883 
L 186.369095 33.955574 
L 186.767889 33.035869 
L 187.199256 32.12766 
L 187.566955 31.19698 
L 187.943037 30.269258 
L 188.340447 29.349064 
L 188.719234 28.422297 
L 189.200106 27.292978 
L 188.183915 28.246133 
L 188.451184 29.212259 
L 188.761397 30.163229 
L 189.067228 31.115745 
L 189.360637 32.072645 
L 189.673112 33.022816 
L 189.992779 33.970448 
L 190.3004 34.922332 
L 190.624441 35.868421 
L 190.945524 36.815554 
L 191.26792 37.762224 
L 191.595398 38.707099 
L 191.923726 39.651675 
L 192.261777 40.592819 
L 192.607128 41.531387 
L 193.021915 42.68403 
L 195.167533 41.732791 
L 195.478128 40.781956 
L 195.77683 39.826924 
L 196.085169 38.875293 
L 196.39694 37.924874 
L 196.66492 36.958999 
L 196.927454 35.991202 
L 197.209092 34.910856 
L 197.64 35.262445 
L 198.64 35.208511 
L 199.64 35.17326 
L 200.64 35.067172 
L 201.64 35.014908 
L 202.64 34.978001 
L 203.64 34.94697 
L 204.64 34.885815 
L 205.64 34.818395 
L 206.64 34.769489 
L 207.64 34.704297 
L 208.64 34.666109 
L 209.64 34.624113 
L 210.64 34.582096 
L 211.64 34.52258 
L 212.64 34.40942 
L 213.64 34.357169 
L 214.64 34.317751 
L 215.64 34.27065 
L 216.64 34.21387 
L 217.64 34.181207 
L 218.64 34.145029 
L 219.64 34.112939 
L 220.64 34.078659 
L 221.64 34.020281 
L 222.64 33.975096 
L 223.64 33.945472 
L 224.64 33.895086 
L 225.64 33.869889 
L 226.64 33.848838 
L 227.64 33.81387 
L 229.04 33.78958 
" style="fill:none;stroke:#000000;stroke-linecap:round;stroke-width:1.5;"/>
    <path clip-path="url(#p98c0b91b48)" d="M 229.04 34.71 
L 229.008564 35.71 
L 228.971623 36.71 
L 228.873877 37.71 
L 228.841355 38.71 
L 228.76773 39.71 
L 228.729165 40.71 
L 228.693752 41.71 
L 228.636112 42.71 
L 228.565726 43.71 
L 228.513761 44.71 
L 228.454672 45.71 
L 228.366351 46.71 
L 228.320206 47.71 
L 228.277795 48.71 
L 228.247303 49.71 
L 228.221258 50.71 
L 228.200058 51.71 
L 228.145757 52.71 
L 228.117819 53.71 
L 228.088095 54.71 
L 228.0627 55.71 
L 228.0515 56.71 
L 228.041376 57.71 
L 228.04158 58.71 
L 228.05109 59.71 
L 228.062744 60.71 
L 228.093773 61.71 
L 228.104941 62.71 
L 228.135058 63.71 
L 228.194835 64.71 
L 228.232027 65.71 
L 228.271123 67.2225 
L 228.313563 68.2225 
L 228.346328 69.2225 
L 228.413754 70.2225 
L 228.45288 71.2225 
L 228.495555 72.2225 
L 228.566135 73.2225 
L 228.602526 74.2225 
L 228.660929 75.2225 
L 228.771882 76.2225 
L 228.84254 77.2225 
L 228.95548 78.2225 
L 229.001253 79.2225 
L 229.062536 80.2225 
L 229.111035 81.2225 
L 229.191858 82.2225 
L 229.310377 83.2225 
L 229.380588 84.2225 
L 229.46385 85.2225 
L 229.496992 86.2225 
L 229.548229 87.2225 
L 229.616628 88.2225 
L 229.682843 89.2225 
L 229.75976 90.2225 
L 229.787076 91.2225 
L 229.813553 92.2225 
L 229.836204 93.2225 
L 229.855735 94.2225 
L 229.882129 95.2225 
L 229.9319 96.2225 
L 229.966973 97.2225 
L 230.002839 98.2225 
L 230.018206 99.735 
" style="fill:none;stroke:#ffffff;stroke-linecap:round;stroke-width:4.0;"/>
    <path clip-path="url(#p98c0b91b48)" d="M 229.04 34.71 
L 229.008564 35.71 
L 228.971623 36.71 
L 228.873877 37.71 
L 228.841355 38.71 
L 228.76773 39.71 
L 228.729165 40.71 
L 228.693752 41.71 
L 228.636112 42.71 
L 228.565726 43.71 
L 228.513761 44.71 
L 228.454672 45.71 
L 228.366351 46.71 
L 228.320206 47.71 
L 228.277795 48.71 
L 228.247303 49.71 
L 228.221258 50.71 
L 228.200058 51.71 
L 228.145757 52.71 
L 228.117819 53.71 
L 228.088095 54.71 
L 228.0627 55.71 
L 228.0515 56.71 
L 228.041376 57.71 
L 228.04158 58.71 
L 228.05109 59.71 
L 228.062744 60.71 
L 228.093773 61.71 
L 228.104941 62.71 
L 228.135058 63.71 
L 228.194835 64.71 
L 228.232027 65.71 
L 228.271123 67.2225 
L 228.313563 68.2225 
L 228.346328 69.2225 
L 228.413754 70.2225 
L 228.45288 71.2225 
L 228.495555 72.2225 
L 228.566135 73.2225 
L 228.602526 74.2225 
L 228.660929 75.2225 
L 228.771882 76.2225 
L 228.84254 77.2225 
L 228.95548 78.2225 
L 229.001253 79.2225 
L 229.062536 80.2225 
L 229.111035 81.2225 
L 229.191858 82.2225 
L 229.310377 83.2225 
L 229.380588 84.2225 
L 229.46385 85.2225 
L 229.496992 86.2225 
L 229.548229 87.2225 
L 229.616628 88.2225 
L 229.682843 89.2225 
L 229.75976 90.2225 
L 229.787076 91.2225 
L 229.813553 92.2225 
L 229.836204 93.2225 
L 229.855735 94.2225 
L 229.882129 95.2225 
L 229.9319 96.2225 
L 229.966973 97.2225 
L 230.002839 98.2225 
L 230.018206 99.735 
" style="fill:none;stroke:#000000;stroke-linecap:round;stroke-width:1.5;"/>
    <path clip-path="url(#p98c0b91b48)" d="M 229.04 99.735 
" style="fill:none;stroke:#ffffff;stroke-linecap:round;stroke-width:4.0;"/>
    <path clip-path="url(#p98c0b91b48)" d="M 229.04 99.735 
" style="fill:none;stroke:#000000;stroke-linecap:round;stroke-width:1.5;"/>
    <path clip-path="url(#p98c0b91b48)" d="M 229.04 99.735 
L 228.04 99.703564 
L 227.04 99.666623 
L 226.04 99.568877 
L 225.04 99.536355 
L 223.614029 99.46273 
L 222.614029 99.424165 
L 221.614029 99.388752 
L 220.614029 99.331112 
L 219.614029 99.260726 
L 218.188058 99.208761 
" style="fill:none;stroke:#ffffff;stroke-linecap:round;stroke-width:4.0;"/>
    <path clip-path="url(#p98c0b91b48)" d="M 229.04 99.735 
L 228.04 99.703564 
L 227.04 99.666623 
L 226.04 99.568877 
L 225.04 99.536355 
L 223.614029 99.46273 
L 222.614029 99.424165 
L 221.614029 99.388752 
L 220.614029 99.331112 
L 219.614029 99.260726 
L 218.188058 99.208761 
" style="fill:none;stroke:#000000;stroke-linecap:round;stroke-width:1.5;"/>
    <path clip-path="url(#p98c0b91b48)" d="M 218.188058 99.735 
L 219.188058 99.766436 
L 220.188058 99.803377 
L 221.188058 99.901123 
L 222.188058 99.933645 
L 223.188058 100.00727 
L 224.188058 100.045835 
L 225.188058 100.081248 
L 226.188058 100.138888 
L 227.188058 100.209274 
L 228.188058 100.261239 
L 229.188058 100.320328 
L 230.338058 100.408649 
L 231.338058 100.454794 
L 232.338058 100.497205 
L 233.338058 100.527697 
L 234.338058 100.553742 
L 235.338058 100.574942 
L 236.338058 100.629243 
L 237.338058 100.657181 
L 238.338058 100.686905 
L 239.338058 100.7123 
L 240.338058 100.7235 
L 241.338058 100.733624 
L 242.488058 100.73342 
" style="fill:none;stroke:#ffffff;stroke-linecap:round;stroke-width:4.0;"/>
    <path clip-path="url(#p98c0b91b48)" d="M 218.188058 99.735 
L 219.188058 99.766436 
L 220.188058 99.803377 
L 221.188058 99.901123 
L 222.188058 99.933645 
L 223.188058 100.00727 
L 224.188058 100.045835 
L 225.188058 100.081248 
L 226.188058 100.138888 
L 227.188058 100.209274 
L 228.188058 100.261239 
L 229.188058 100.320328 
L 230.338058 100.408649 
L 231.338058 100.454794 
L 232.338058 100.497205 
L 233.338058 100.527697 
L 234.338058 100.553742 
L 235.338058 100.574942 
L 236.338058 100.629243 
L 237.338058 100.657181 
L 238.338058 100.686905 
L 239.338058 100.7123 
L 240.338058 100.7235 
L 241.338058 100.733624 
L 242.488058 100.73342 
" style="fill:none;stroke:#000000;stroke-linecap:round;stroke-width:1.5;"/>
    <g id="patch_2">
     <path clip-path="url(#p98c0b91b48)" d="M 131.84 82.905 
L 132.797466 82.815279 
L 133.598254 82.288278 
L 134.271185 81.614956 
L 134.466668 80.637958 
L 134.411539 79.671141 
L 133.800026 78.791812 
L 132.995985 78.15503 
L 131.890807 77.91432 
L 130.826827 77.965401 
L 129.814006 78.560303 
L 129.082773 79.341549 
L 128.743056 80.515188 
L 128.825391 81.611845 
L 129.528916 82.711899 
L 130.422949 83.427132 
L 131.737006 83.717238 
L 131.84 82.905 
z
" style="stroke:#ffffff;stroke-linejoin:miter;stroke-width:4.0;"/>
     <path clip-path="url(#p98c0b91b48)" d="M 131.84 82.905 
L 132.797466 82.815279 
L 133.598254 82.288278 
L 134.271185 81.614956 
L 134.466668 80.637958 
L 134.411539 79.671141 
L 133.800026 78.791812 
L 132.995985 78.15503 
L 131.890807 77.91432 
L 130.826827 77.965401 
L 129.814006 78.560303 
L 129.082773 79.341549 
L 128.743056 80.515188 
L 128.825391 81.611845 
L 129.528916 82.711899 
L 130.422949 83.427132 
L 131.737006 83.717238 
L 131.84 82.905 
z
" style="stroke:#000000;stroke-linejoin:miter;stroke-width:1.5;"/>
     <g id="patch_3">
      <path clip-path="url(#p98c0b91b48)" d="M 229.04 102.03 
L 229.997466 101.940279 
L 230.798254 101.413278 
L 231.471185 100.739956 
L 231.666668 99.762958 
L 231.611539 98.796141 
L 231.000026 97.916812 
L 230.195985 97.28003 
L 229.090807 97.03932 
L 228.026827 97.090401 
L 227.014006 97.685303 
L 226.282773 98.466549 
L 225.943056 99.640188 
L 226.025391 100.736845 
L 226.728916 101.836899 
L 227.622949 102.552132 
L 228.937006 102.842238 
L 229.04 102.03 
z
" style="stroke:#ffffff;stroke-linejoin:miter;stroke-width:4.0;"/>
      <path clip-path="url(#p98c0b91b48)" d="M 229.04 102.03 
L 229.997466 101.940279 
L 230.798254 101.413278 
L 231.471185 100.739956 
L 231.666668 99.762958 
L 231.611539 98.796141 
L 231.000026 97.916812 
L 230.195985 97.28003 
L 229.090807 97.03932 
L 228.026827 97.090401 
L 227.014006 97.685303 
L 226.282773 98.466549 
L 225.943056 99.640188 
L 226.025391 100.736845 
L 226.728916 101.836899 
L 227.622949 102.552132 
L 228.937006 102.842238 
L 229.04 102.03 
z
" style="stroke:#000000;stroke-linejoin:miter;stroke-width:1.5;"/>
      <g id="text_1">
       <path d="M 75.8225 97.515 
Q 76.33 97.6875 76.81 98.25 
Q 77.29 98.8125 77.775 99.7975 
L 79.3775 102.985 
L 77.68 102.985 
L 76.19 99.9925 
Q 75.61 98.82 75.0675 98.4375 
Q 74.525 98.055 73.5875 98.055 
L 71.8675 98.055 
L 71.8675 102.985 
L 70.29 102.985 
L 70.29 91.32 
L 73.8525 91.32 
Q 75.8525 91.32 76.8375 92.1575 
Q 77.8225 92.9925 77.8225 94.68 
Q 77.8225 95.7825 77.31 96.51 
Q 76.7975 97.235 75.8225 97.515 
M 71.8675 92.6175 
L 71.8675 96.7575 
L 73.8525 96.7575 
Q 74.9925 96.7575 75.575 96.23 
Q 76.1575 95.7025 76.1575 94.68 
Q 76.1575 93.6575 75.575 93.1375 
Q 74.9925 92.6175 73.8525 92.6175 
z
M 81.186437 101.9 
L 82.192687 101.9 
L 82.192687 108.025 
L 81.186437 108.025 
z
M 81.186437 99.51475 
L 82.192687 99.51475 
L 82.192687 100.7905 
L 81.186437 100.7905 
z
M 89.390656 104.32725 
L 89.390656 108.025 
L 88.384406 108.025 
L 88.384406 104.3605 
Q 88.384406 103.49075 88.044906 103.06025 
Q 87.705406 102.628 87.028156 102.628 
Q 86.212656 102.628 85.741906 103.14775 
Q 85.271156 103.66575 85.271156 104.5635 
L 85.271156 108.025 
L 84.259656 108.025 
L 84.259656 101.9 
L 85.271156 101.9 
L 85.271156 102.852 
Q 85.633406 102.299 86.121656 102.026 
Q 86.611656 101.753 87.252156 101.753 
Q 88.307406 101.753 88.848156 102.40575 
Q 89.390656 103.0585 89.390656 104.32725 
" style="stroke:#ffffff;stroke-width:4.0;"/>
       <path d="M 75.8225 97.515 
Q 76.33 97.6875 76.81 98.25 
Q 77.29 98.8125 77.775 99.7975 
L 79.3775 102.985 
L 77.68 102.985 
L 76.19 99.9925 
Q 75.61 98.82 75.0675 98.4375 
Q 74.525 98.055 73.5875 98.055 
L 71.8675 98.055 
L 71.8675 102.985 
L 70.29 102.985 
L 70.29 91.32 
L 73.8525 91.32 
Q 75.8525 91.32 76.8375 92.1575 
Q 77.8225 92.9925 77.8225 94.68 
Q 77.8225 95.7825 77.31 96.51 
Q 76.7975 97.235 75.8225 97.515 
M 71.8675 92.6175 
L 71.8675 96.7575 
L 73.8525 96.7575 
Q 74.9925 96.7575 75.575 96.23 
Q 76.1575 95.7025 76.1575 94.68 
Q 76.1575 93.6575 75.575 93.1375 
Q 74.9925 92.6175 73.8525 92.6175 
z
M 81.186437 101.9 
L 82.192687 101.9 
L 82.192687 108.025 
L 81.186437 108.025 
z
M 81.186437 99.51475 
L 82.192687 99.51475 
L 82.192687 100.7905 
L 81.186437 100.7905 
z
M 89.390656 104.32725 
L 89.390656 108.025 
L 88.384406 108.025 
L 88.384406 104.3605 
Q 88.384406 103.49075 88.044906 103.06025 
Q 87.705406 102.628 87.028156 102.628 
Q 86.212656 102.628 85.741906 103.14775 
Q 85.271156 103.66575 85.271156 104.5635 
L 85.271156 108.025 
L 84.259656 108.025 
L 84.259656 101.9 
L 85.271156 101.9 
L 85.271156 102.852 
Q 85.633406 102.299 86.121656 102.026 
Q 86.611656 101.753 87.252156 101.753 
Q 88.307406 101.753 88.848156 102.40575 
Q 89.390656 103.0585 89.390656 104.32725 
"/>
      </g>
      <g id="text_2">
       <path d="M 7.6775 74.4325 
L 9.2 74.4325 
L 11.935 81.775 
L 14.67 74.4325 
L 16.1925 74.4325 
L 12.91 83.1825 
L 10.9575 83.1825 
z
M 18.018 82.0975 
L 19.02425 82.0975 
L 19.02425 88.2225 
L 18.018 88.2225 
z
M 18.018 79.71225 
L 19.02425 79.71225 
L 19.02425 80.988 
L 18.018 80.988 
z
M 26.222219 84.52475 
L 26.222219 88.2225 
L 25.215969 88.2225 
L 25.215969 84.558 
Q 25.215969 83.68825 24.876469 83.25775 
Q 24.536969 82.8255 23.859719 82.8255 
Q 23.044219 82.8255 22.573469 83.34525 
Q 22.102719 83.86325 22.102719 84.761 
L 22.102719 88.2225 
L 21.091219 88.2225 
L 21.091219 82.0975 
L 22.102719 82.0975 
L 22.102719 83.0495 
Q 22.464969 82.4965 22.953219 82.2235 
Q 23.443219 81.9505 24.083719 81.9505 
Q 25.138969 81.9505 25.679719 82.60325 
Q 26.222219 83.256 26.222219 84.52475 
" style="stroke:#ffffff;stroke-width:4.0;"/>
       <path d="M 7.6775 74.4325 
L 9.2 74.4325 
L 11.935 81.775 
L 14.67 74.4325 
L 16.1925 74.4325 
L 12.91 83.1825 
L 10.9575 83.1825 
z
M 18.018 82.0975 
L 19.02425 82.0975 
L 19.02425 88.2225 
L 18.018 88.2225 
z
M 18.018 79.71225 
L 19.02425 79.71225 
L 19.02425 80.988 
L 18.018 80.988 
z
M 26.222219 84.52475 
L 26.222219 88.2225 
L 25.215969 88.2225 
L 25.215969 84.558 
Q 25.215969 83.68825 24.876469 83.25775 
Q 24.536969 82.8255 23.859719 82.8255 
Q 23.044219 82.8255 22.573469 83.34525 
Q 22.102719 83.86325 22.102719 84.761 
L 22.102719 88.2225 
L 21.091219 88.2225 
L 21.091219 82.0975 
L 22.102719 82.0975 
L 22.102719 83.0495 
Q 22.464969 82.4965 22.953219 82.2235 
Q 23.443219 81.9505 24.083719 81.9505 
Q 25.138969 81.9505 25.679719 82.60325 
Q 26.222219 83.256 26.222219 84.52475 
"/>
      </g>
      <g id="text_3">
       <path d="M 179.3825 13.395 
Q 179.89 13.5675 180.37 14.13 
Q 180.85 14.6925 181.335 15.6775 
L 182.9375 18.865 
L 181.24 18.865 
L 179.75 15.8725 
Q 179.17 14.7 178.6275 14.3175 
Q 178.085 13.935 177.1475 13.935 
L 175.4275 13.935 
L 175.4275 18.865 
L 173.85 18.865 
L 173.85 7.2 
L 177.4125 7.2 
Q 179.4125 7.2 180.3975 8.0375 
Q 181.3825 8.8725 181.3825 10.56 
Q 181.3825 11.6625 180.87 12.39 
Q 180.3575 13.115 179.3825 13.395 
M 175.4275 8.4975 
L 175.4275 12.6375 
L 177.4125 12.6375 
Q 178.5525 12.6375 179.135 12.11 
Q 179.7175 11.5825 179.7175 10.56 
Q 179.7175 9.5375 179.135 9.0175 
Q 178.5525 8.4975 177.4125 8.4975 
z
M 187.847438 15.39475 
L 187.847438 16.233 
L 186.884938 16.233 
Q 186.344188 16.233 186.132438 16.45175 
Q 185.922438 16.6705 185.922438 17.23925 
L 185.922438 17.78 
L 187.579688 17.78 
L 187.579688 18.56225 
L 185.922438 18.56225 
L 185.922438 23.905 
L 184.910937 23.905 
L 184.910937 18.56225 
L 183.948438 18.56225 
L 183.948438 17.78 
L 184.910937 17.78 
L 184.910937 17.353 
Q 184.910937 16.331 185.386937 15.86375 
Q 185.862937 15.39475 186.895438 15.39475 
z
" style="stroke:#ffffff;stroke-width:4.0;"/>
       <path d="M 179.3825 13.395 
Q 179.89 13.5675 180.37 14.13 
Q 180.85 14.6925 181.335 15.6775 
L 182.9375 18.865 
L 181.24 18.865 
L 179.75 15.8725 
Q 179.17 14.7 178.6275 14.3175 
Q 178.085 13.935 177.1475 13.935 
L 175.4275 13.935 
L 175.4275 18.865 
L 173.85 18.865 
L 173.85 7.2 
L 177.4125 7.2 
Q 179.4125 7.2 180.3975 8.0375 
Q 181.3825 8.8725 181.3825 10.56 
Q 181.3825 11.6625 180.87 12.39 
Q 180.3575 13.115 179.3825 13.395 
M 175.4275 8.4975 
L 175.4275 12.6375 
L 177.4125 12.6375 
Q 178.5525 12.6375 179.135 12.11 
Q 179.7175 11.5825 179.7175 10.56 
Q 179.7175 9.5375 179.135 9.0175 
Q 178.5525 8.4975 177.4125 8.4975 
z
M 187.847438 15.39475 
L 187.847438 16.233 
L 186.884938 16.233 
Q 186.344188 16.233 186.132438 16.45175 
Q 185.922438 16.6705 185.922438 17.23925 
L 185.922438 17.78 
L 187.579688 17.78 
L 187.579688 18.56225 
L 185.922438 18.56225 
L 185.922438 23.905 
L 184.910937 23.905 
L 184.910937 18.56225 
L 183.948438 18.56225 
L 183.948438 17.78 
L 184.910937 17.78 
L 184.910937 17.353 
Q 184.910937 16.331 185.386937 15.86375 
Q 185.862937 15.39475 186.895438 15.39475 
z
"/>
      </g>
      <g id="text_4">
       <path d="M 246.205558 93.3975 
L 247.728058 93.3975 
L 250.463058 100.74 
L 253.198058 93.3975 
L 254.720558 93.3975 
L 251.438058 102.1475 
L 249.485558 102.1475 
z
M 258.919058 101.76775 
Q 258.110558 101.76775 257.639808 102.3995 
Q 257.169058 103.03125 257.169058 104.13025 
Q 257.169058 105.22925 257.636308 105.861 
Q 258.105308 106.49275 258.919058 106.49275 
Q 259.724058 106.49275 260.193058 105.85925 
Q 260.663808 105.224 260.663808 104.13025 
Q 260.663808 103.04175 260.193058 102.40475 
Q 259.724058 101.76775 258.919058 101.76775 
M 258.919058 100.9155 
Q 260.231558 100.9155 260.980558 101.7695 
Q 261.731308 102.62175 261.731308 104.13025 
Q 261.731308 105.6335 260.980558 106.491 
Q 260.231558 107.34675 258.919058 107.34675 
Q 257.601308 107.34675 256.854058 106.491 
Q 256.108558 105.6335 256.108558 104.13025 
Q 256.108558 102.62175 256.854058 101.7695 
Q 257.601308 100.9155 258.919058 100.9155 
" style="stroke:#ffffff;stroke-width:4.0;"/>
       <path d="M 246.205558 93.3975 
L 247.728058 93.3975 
L 250.463058 100.74 
L 253.198058 93.3975 
L 254.720558 93.3975 
L 251.438058 102.1475 
L 249.485558 102.1475 
z
M 258.919058 101.76775 
Q 258.110558 101.76775 257.639808 102.3995 
Q 257.169058 103.03125 257.169058 104.13025 
Q 257.169058 105.22925 257.636308 105.861 
Q 258.105308 106.49275 258.919058 106.49275 
Q 259.724058 106.49275 260.193058 105.85925 
Q 260.663808 105.224 260.663808 104.13025 
Q 260.663808 103.04175 260.193058 102.40475 
Q 259.724058 101.76775 258.919058 101.76775 
M 258.919058 100.9155 
Q 260.231558 100.9155 260.980558 101.7695 
Q 261.731308 102.62175 261.731308 104.13025 
Q 261.731308 105.6335 260.980558 106.491 
Q 260.231558 107.34675 258.919058 107.34675 
Q 257.601308 107.34675 256.854058 106.491 
Q 256.108558 105.6335 256.108558 104.13025 
Q 256.108558 102.62175 256.854058 101.7695 
Q 257.601308 100.9155 258.919058 100.9155 
"/>
      </g>
     </g>
    </g>
    <defs>
     <clipPath id="p98c0b91b48">
      <rect height="135.864" width="217.568057707" x="28.16" y="24.0"/>
     </clipPath>
    </defs>
   </g>
  </g>
 </g>
</svg>
