<?xml version="1.0" encoding="utf-8" standalone="no"?>
<!DOCTYPE svg PUBLIC "-//W3C//DTD SVG 1.1//EN"
  "http://www.w3.org/Graphics/SVG/1.1/DTD/svg11.dtd">
<!-- Created with matplotlib (https://matplotlib.org/) -->
<svg height="170.300575pt" version="1.1" viewBox="0 0 264.588058 170.300575" width="264.588058pt" xmlns="http://www.w3.org/2000/svg" xmlns:xlink="http://www.w3.org/1999/xlink">
 <defs>
  <style type="text/css">
*{stroke-linecap:butt;stroke-linejoin:round;white-space:pre;}
  </style>
 </defs>
 <g id="figure_1">
  <g id="patch_1">
   <path d="M 0 170.300575 
L 1 170.332011 
L 2 170.368952 
L 3 170.466698 
L 4 170.49922 
L 5 170.572845 
L 6 170.61141 
L 7 170.646823 
L 8 170.704463 
L 9 170.774849 
L 10 170.826814 
L 11 170.885903 
L 12 170.974224 
L 13 171.020369 
L 14 171.06278 
L 15 171.093272 
L 16 171.119317 
L 17 171.140517 
L 18 171.194818 
L 19 171.222756 
L 20 171.25248 
L 21 171.277875 
L 22 171.289075 
L 23 171.299199 
L 24 171.298995 
L 25 171.289485 
L 26 171.277831 
L 27 171.246802 
L 28 171.235634 
L 29 171.205517 
L 30 171.14574 
L 31 171.108548 
L 32 171.069452 
L 33 171.027012 
L 34 170.994247 
L 35 170.926821 
L 36 170.887695 
L 37 170.84502 
L 38 170.77444 
L 39 170.738049 
L 40 170.679646 
L 41 170.568693 
L 42 170.498035 
L 43 170.385095 
L 44 170.339322 
L 45 170.278039 
L 46 170.22954 
L 47 170.148717 
L 48 170.030198 
L 49 169.959987 
L 50 169.876725 
L 51 169.843583 
L 52 169.792346 
L 53 169.723947 
L 54 169.657732 
L 55 169.580815 
L 56 169.553499 
L 57 169.527022 
L 58 169.504371 
L 59 169.48484 
L 60 169.458446 
L 61 169.408675 
L 62 169.373602 
L 63 169.337736 
L 64 169.322369 
L 65 169.3066 
L 66 169.303187 
L 67 169.30077 
L 68 169.301256 
L 69 169.303185 
L 70 169.316442 
L 71 169.324833 
L 72 169.346369 
L 73 169.369402 
L 74 169.386635 
L 75 169.405098 
L 76 169.42555 
L 77 169.44215 
L 78 169.504929 
L 79 169.580194 
L 80 169.612833 
L 81 169.680397 
L 82 169.734444 
L 83 169.768148 
L 84 169.858274 
L 85 169.886809 
L 86 169.918295 
L 87 169.949306 
L 88 170.004114 
L 89 170.068701 
L 90 170.106897 
L 91 170.202831 
L 92 170.252089 
L 93 170.296158 
L 94 170.336282 
L 95 170.444649 
L 96 170.486277 
L 97 170.548419 
L 98 170.618381 
L 99 170.722885 
L 100 170.759873 
L 101 170.80575 
L 102 170.874245 
L 103 170.922991 
L 104 171.000588 
L 105 171.031129 
L 106 171.100643 
L 107 171.124616 
L 108 171.153238 
L 109 171.195031 
L 110 171.216607 
L 111 171.230555 
L 112 171.257277 
L 113 171.266587 
L 114 171.279034 
L 115 171.290089 
L 116 171.295753 
L 117 171.300517 
L 118 171.294969 
L 119 171.281681 
L 120 171.274164 
L 121 171.249379 
L 122 171.22581 
L 123 171.18963 
L 124 171.163668 
L 125 171.141346 
L 126 171.072586 
L 127 170.998051 
L 128 170.904072 
L 129 170.85302 
L 130 170.799086 
L 131 170.763835 
L 132 170.657747 
L 133 170.605483 
L 134 170.568576 
L 135 170.537545 
L 136 170.47639 
L 137 170.40897 
L 138 170.360064 
L 139 170.294872 
L 140 170.256684 
L 141 170.214688 
L 142 170.172671 
L 143 170.113155 
L 144 169.999995 
L 145 169.947744 
L 146 169.908326 
L 147 169.861225 
L 148 169.804445 
L 149 169.771782 
L 150 169.735604 
L 151 169.703514 
L 152 169.669234 
L 153 169.610856 
L 154 169.565671 
L 155 169.536047 
L 156 169.485661 
L 157 169.460464 
L 158 169.439413 
L 159 169.404445 
L 160 169.380155 
L 161 169.366088 
L 162 169.347146 
L 163 169.331485 
L 164 169.318933 
L 165 169.313097 
L 166 169.306215 
L 167 169.301041 
L 168 169.302824 
L 169 169.305549 
L 170 169.316703 
L 171 169.344938 
L 172 169.388726 
L 173 169.409415 
L 174 169.450388 
L 175 169.490463 
L 176 169.509573 
L 177 169.532082 
L 178 169.598733 
L 179 169.648443 
L 180 169.722149 
L 181 169.753463 
L 182 169.830085 
L 183 169.868383 
L 184 169.9425 
L 185 170.046558 
L 186 170.116389 
L 187 170.221623 
L 188 170.276638 
L 189 170.400113 
L 190 170.470672 
L 191 170.586511 
L 192 170.636692 
L 193 170.672296 
L 194 170.763703 
L 195 170.817211 
L 196 170.905119 
L 197 170.974304 
L 198 171.021068 
L 199 171.093112 
L 200 171.143254 
L 201 171.160644 
L 202 171.187647 
L 203 171.207074 
L 204 171.226412 
L 205 171.264661 
L 206 171.281094 
L 207 171.289463 
L 208 171.293782 
L 209 171.300337 
L 210 171.297791 
L 211 171.292332 
L 212 171.275904 
L 213 171.243969 
L 214 171.205989 
L 215 171.171185 
L 216 171.108113 
L 217 171.086686 
L 218 171.036068 
L 219 171.011111 
L 220 170.955477 
L 221 170.924248 
L 222 170.874104 
L 223 170.841611 
L 224 170.761199 
L 225 170.692273 
L 226 170.576576 
L 227 170.501097 
L 228 170.385572 
L 229 170.306088 
L 230 170.197647 
L 231 170.158279 
L 232 170.055411 
L 233 169.955613 
L 234 169.910116 
L 235 169.875794 
L 236 169.823838 
L 237 169.784191 
L 238 169.748677 
L 239 169.681032 
L 240 169.64195 
L 241 169.591469 
L 242 169.542163 
L 243 169.491093 
L 244 169.446854 
L 245 169.424834 
L 246 169.409278 
L 247 169.366831 
L 248 169.351963 
L 249 169.329235 
L 250 169.308919 
L 251 169.303122 
L 252 169.30064 
L 253 169.303697 
L 254 169.315293 
L 255 169.332213 
L 256 169.363874 
L 257 169.377957 
L 258 169.430629 
L 259 169.479718 
L 260 169.534419 
L 261 169.578767 
L 262 169.648759 
L 263 169.699142 
L 264.588058 169.753049 
L 264.109971 169.300575 
L 264.167358 168.300575 
L 264.217524 167.300575 
L 264.294686 166.300575 
L 264.352876 165.300575 
L 264.413514 164.300575 
L 264.450715 163.300575 
L 264.515807 162.300575 
L 264.620937 161.300575 
L 264.681238 160.300575 
L 264.77756 159.300575 
L 264.809563 158.300575 
L 264.860581 157.300575 
L 264.977373 156.300575 
L 265.012819 155.300575 
L 265.0687 154.300575 
L 265.099075 153.300575 
L 265.187462 152.300575 
L 265.232226 151.300575 
L 265.313114 150.300575 
L 265.37326 149.300575 
L 265.436346 148.300575 
L 265.459294 147.300575 
L 265.475464 146.300575 
L 265.504393 145.300575 
L 265.534744 144.300575 
L 265.547319 143.300575 
L 265.572198 142.300575 
L 265.584282 141.300575 
L 265.588044 140.300575 
L 265.583608 139.300575 
L 265.571269 138.300575 
L 265.556856 137.300575 
L 265.540783 136.300575 
L 265.505262 135.300575 
L 265.485328 134.300575 
L 265.428738 133.300575 
L 265.361545 132.300575 
L 265.334174 131.300575 
L 265.300027 130.300575 
L 265.251346 129.300575 
L 265.203062 128.300575 
L 265.143984 127.300575 
L 265.04838 126.300575 
L 265.00524 125.300575 
L 264.955392 124.300575 
L 264.896857 123.300575 
L 264.849272 122.300575 
L 264.788144 121.300575 
L 264.732059 120.300575 
L 264.657888 119.300575 
L 264.54065 118.300575 
L 264.484926 117.300575 
L 264.3767 116.300575 
L 264.27055 115.300575 
L 264.162977 114.300575 
L 264.12847 113.300575 
L 264.025162 112.300575 
L 263.949439 111.300575 
L 263.910004 110.300575 
L 263.87062 109.300575 
L 263.848137 108.300575 
L 263.792324 107.300575 
L 263.766273 106.300575 
L 263.736038 105.300575 
L 263.685266 104.300575 
L 263.666615 103.300575 
L 263.644907 102.300575 
L 263.632261 101.300575 
L 263.613268 100.300575 
L 263.595878 99.300575 
L 263.588839 98.300575 
L 263.589864 97.300575 
L 263.596868 96.300575 
L 263.606238 95.300575 
L 263.629635 94.300575 
L 263.654719 93.300575 
L 263.667117 92.300575 
L 263.70021 91.300575 
L 263.716578 90.300575 
L 263.734983 89.300575 
L 263.78412 88.300575 
L 263.827933 87.300575 
L 263.871018 86.300575 
L 263.893959 85.300575 
L 263.934222 84.300575 
L 264.019081 83.300575 
L 264.061474 82.300575 
L 264.12586 81.300575 
L 264.170149 80.300575 
L 264.277995 79.300575 
L 264.354935 78.300575 
L 264.391376 77.300575 
L 264.446264 76.300575 
L 264.521364 75.300575 
L 264.57996 74.300575 
L 264.616535 73.300575 
L 264.728582 72.300575 
L 264.790267 71.300575 
L 264.840786 70.300575 
L 264.939571 69.300575 
L 264.977594 68.300575 
L 265.013041 67.300575 
L 265.104676 66.300575 
L 265.147948 65.300575 
L 265.201276 64.300575 
L 265.234141 63.300575 
L 265.297035 62.300575 
L 265.35089 61.300575 
L 265.408016 60.300575 
L 265.430106 59.300575 
L 265.473845 58.300575 
L 265.520939 57.300575 
L 265.537786 56.300575 
L 265.565859 55.300575 
L 265.576855 54.300575 
L 265.581425 53.300575 
L 265.587073 52.300575 
L 265.587124 51.300575 
L 265.584034 50.300575 
L 265.580521 49.300575 
L 265.574699 48.300575 
L 265.561847 47.300575 
L 265.538222 46.300575 
L 265.523337 45.300575 
L 265.499766 44.300575 
L 265.463447 43.300575 
L 265.431863 42.300575 
L 265.401971 41.300575 
L 265.323278 40.300575 
L 265.286728 39.300575 
L 265.261004 38.300575 
L 265.190332 37.300575 
L 265.09923 36.300575 
L 265.037273 35.300575 
L 265.00366 34.300575 
L 264.969159 33.300575 
L 264.87172 32.300575 
L 264.82413 31.300575 
L 264.792624 30.300575 
L 264.748939 29.300575 
L 264.67877 28.300575 
L 264.628903 27.300575 
L 264.594226 26.300575 
L 264.484577 25.300575 
L 264.451106 24.300575 
L 264.413764 23.300575 
L 264.33352 22.300575 
L 264.295026 21.300575 
L 264.253249 20.300575 
L 264.210824 19.300575 
L 264.101096 18.300575 
L 264.012811 17.300575 
L 263.938165 16.300575 
L 263.849707 15.300575 
L 263.775646 14.300575 
L 263.72648 13.300575 
L 263.670863 12.300575 
L 263.636164 11.300575 
L 263.624292 10.300575 
L 263.602069 9.300575 
L 263.590091 8.300575 
L 263.588339 7.300575 
L 263.593756 6.300575 
L 263.609954 5.300575 
L 263.626453 4.300575 
L 263.657637 3.300575 
L 263.671002 2.300575 
L 263.700644 1.300575 
L 263.763668 0 
L 263.588058 0.775069 
L 262.588058 0.72898 
L 261.588058 0.646753 
L 260.588058 0.60085 
L 259.588058 0.566525 
L 258.588058 0.512986 
L 257.588058 0.424099 
L 256.588058 0.392961 
L 255.588058 0.284912 
L 254.588058 0.17284 
L 253.588058 0.137402 
L 252.588058 0.052616 
L 251.588058 -0.012991 
L 250.588058 -0.115045 
L 249.588058 -0.23126 
L 248.588058 -0.271951 
L 247.588058 -0.31304 
L 246.588058 -0.349681 
L 245.588058 -0.390677 
L 244.588058 -0.466746 
L 243.588058 -0.542812 
L 242.588058 -0.5735 
L 241.588058 -0.599991 
L 240.588058 -0.656572 
L 239.588058 -0.701088 
L 238.588058 -0.731106 
L 237.588058 -0.758162 
L 236.588058 -0.800727 
L 235.588058 -0.853592 
L 234.588058 -0.884513 
L 233.588058 -0.910788 
L 232.588058 -0.925721 
L 231.588058 -0.95601 
L 230.588058 -0.977339 
L 229.588058 -0.994228 
L 228.588058 -0.998943 
L 227.588058 -0.999553 
L 226.588058 -0.997507 
L 225.588058 -0.991646 
L 224.588058 -0.972999 
L 223.588058 -0.940942 
L 222.588058 -0.894502 
L 221.588058 -0.852556 
L 220.588058 -0.785851 
L 219.588058 -0.716785 
L 218.588058 -0.66941 
L 217.588058 -0.617891 
L 216.588058 -0.578191 
L 215.588058 -0.508771 
L 214.588058 -0.44224 
L 213.588058 -0.333331 
L 212.588058 -0.268083 
L 211.588058 -0.159875 
L 210.588058 -0.098871 
L 209.588058 -0.050186 
L 208.588058 0.026048 
L 207.588058 0.085579 
L 206.588058 0.160207 
L 205.588058 0.279034 
L 204.588058 0.376979 
L 203.588058 0.456027 
L 202.588058 0.501774 
L 201.588058 0.529046 
L 200.588058 0.572708 
L 199.588058 0.621292 
L 198.588058 0.653026 
L 197.588058 0.733256 
L 196.588058 0.799749 
L 195.588058 0.823774 
L 194.588058 0.884273 
L 193.588058 0.906505 
L 192.588058 0.925105 
L 191.588058 0.954431 
L 190.588058 0.970132 
L 189.588058 0.978431 
L 188.588058 0.988667 
L 187.588058 0.99901 
L 186.588058 0.998332 
L 185.588058 0.994552 
L 184.588058 0.978111 
L 183.588058 0.965977 
L 182.588058 0.955382 
L 181.588058 0.924005 
L 180.588058 0.898232 
L 179.588058 0.866823 
L 178.588058 0.844014 
L 177.588058 0.82642 
L 176.588058 0.776608 
L 175.588058 0.728948 
L 174.588058 0.657239 
L 173.588058 0.601476 
L 172.588058 0.575278 
L 171.588058 0.54451 
L 170.588058 0.454752 
L 169.588058 0.369958 
L 168.588058 0.304364 
L 167.588058 0.258539 
L 166.588058 0.215542 
L 165.588058 0.154029 
L 164.588058 0.054204 
L 163.588058 0.009774 
L 162.588058 -0.040276 
L 161.588058 -0.162117 
L 160.588058 -0.22181 
L 159.588058 -0.253376 
L 158.588058 -0.285719 
L 157.588058 -0.340279 
L 156.588058 -0.382779 
L 155.588058 -0.434251 
L 154.588058 -0.522636 
L 153.588058 -0.556833 
L 152.588058 -0.600767 
L 151.588058 -0.66448 
L 150.588058 -0.739677 
L 149.588058 -0.768491 
L 148.588058 -0.810695 
L 147.588058 -0.85328 
L 146.588058 -0.870172 
L 145.588058 -0.892653 
L 144.588058 -0.93499 
L 143.588058 -0.96495 
L 142.588058 -0.983583 
L 141.588058 -0.993375 
L 140.588058 -0.997138 
L 139.588058 -0.999976 
L 138.588058 -0.998227 
L 137.588058 -0.988871 
L 136.588058 -0.978174 
L 135.588058 -0.968304 
L 134.588058 -0.949446 
L 133.588058 -0.919107 
L 132.588058 -0.880716 
L 131.588058 -0.82123 
L 130.588058 -0.777941 
L 129.588058 -0.717203 
L 128.588058 -0.633129 
L 127.588058 -0.584836 
L 126.588058 -0.541259 
L 125.588058 -0.514378 
L 124.588058 -0.482448 
L 123.588058 -0.415256 
L 122.588058 -0.334435 
L 121.588058 -0.25889 
L 120.588058 -0.21516 
L 119.588058 -0.135265 
L 118.588058 -0.073786 
L 117.588058 -0.010161 
L 116.588058 0.097088 
L 115.588058 0.215798 
L 114.588058 0.257704 
L 113.588058 0.300658 
L 112.588058 0.362857 
L 111.588058 0.392994 
L 110.588058 0.425512 
L 109.588058 0.477447 
L 108.588058 0.582997 
L 107.588058 0.631443 
L 106.588058 0.677767 
L 105.588058 0.711583 
L 104.588058 0.75946 
L 103.588058 0.814338 
L 102.588058 0.838249 
L 101.588058 0.864286 
L 100.588058 0.920403 
L 99.588058 0.934277 
L 98.588058 0.960311 
L 97.588058 0.987057 
L 96.588058 0.994803 
L 95.588058 0.999956 
L 94.588058 0.993758 
L 93.588058 0.987451 
L 92.588058 0.97987 
L 91.588058 0.952364 
L 90.588058 0.908131 
L 89.588058 0.878593 
L 88.588058 0.836746 
L 87.588058 0.777572 
L 86.588058 0.754862 
L 85.588058 0.71823 
L 84.588058 0.661442 
L 83.588058 0.636272 
L 82.588058 0.553576 
L 81.588058 0.466644 
L 80.588058 0.41596 
L 79.588058 0.378566 
L 78.588058 0.294186 
L 77.588058 0.259675 
L 76.588058 0.167684 
L 75.588058 0.080659 
L 74.588058 -0.042481 
L 73.588058 -0.08035 
L 72.588058 -0.127825 
L 71.588058 -0.233351 
L 70.588058 -0.330812 
L 69.588058 -0.407449 
L 68.588058 -0.439376 
L 67.588058 -0.493616 
L 66.588058 -0.532467 
L 65.588058 -0.606172 
L 64.588058 -0.638168 
L 63.588058 -0.694707 
L 62.588058 -0.730823 
L 61.588058 -0.799425 
L 60.588058 -0.830841 
L 59.588058 -0.885508 
L 58.588058 -0.904279 
L 57.588058 -0.949908 
L 56.588058 -0.972811 
L 55.588058 -0.981352 
L 54.588058 -0.988693 
L 53.588058 -0.994988 
L 52.588058 -0.998165 
L 51.588058 -0.999751 
L 50.588058 -0.998288 
L 49.588058 -0.985334 
L 48.588058 -0.970712 
L 47.588058 -0.958856 
L 46.588058 -0.940831 
L 45.588058 -0.920453 
L 44.588058 -0.897054 
L 43.588058 -0.882145 
L 42.588058 -0.827431 
L 41.588058 -0.793834 
L 40.588058 -0.731138 
L 39.588058 -0.703763 
L 38.588058 -0.659783 
L 37.588058 -0.580836 
L 36.588058 -0.523308 
L 35.588058 -0.473329 
L 34.588058 -0.401345 
L 33.588058 -0.364813 
L 32.588058 -0.2965 
L 31.588058 -0.208294 
L 30.588058 -0.086947 
L 29.588058 -0.021266 
L 28.588058 0.012352 
L 27.588058 0.076629 
L 26.588058 0.1226 
L 25.588058 0.194757 
L 24.588058 0.234583 
L 23.588058 0.277213 
L 22.588058 0.383172 
L 21.588058 0.435957 
L 20.588058 0.515234 
L 19.588058 0.557638 
L 18.588058 0.589904 
L 17.588058 0.62477 
L 16.588058 0.667428 
L 15.588058 0.699001 
L 14.588058 0.76658 
L 13.588058 0.803465 
L 12.588058 0.831421 
L 11.588058 0.852269 
L 10.588058 0.877882 
L 9.588058 0.9155 
L 8.588058 0.930342 
L 7.588058 0.955072 
L 6.588058 0.973302 
L 5.588058 0.984709 
L 4.588058 0.990344 
L 3.588058 0.995098 
L 2.588058 0.999707 
L 1.588058 0.998034 
L 0 0.992252 
L 0.972256 1 
L 0.960604 2 
L 0.949615 3 
L 0.936648 4 
L 0.886234 5 
L 0.865412 6 
L 0.837465 7 
L 0.78072 8 
L 0.758076 9 
L 0.706673 10 
L 0.665537 11 
L 0.582768 12 
L 0.534308 13 
L 0.482881 14 
L 0.431721 15 
L 0.364422 16 
L 0.331268 17 
L 0.26521 18 
L 0.209025 19 
L 0.147746 20 
L 0.107763 21 
L 0.01134 22 
L -0.10042 23 
L -0.139339 24 
L -0.237188 25 
L -0.271842 26 
L -0.355524 27 
L -0.40603 28 
L -0.475073 29 
L -0.576176 30 
L -0.628622 31 
L -0.71793 32 
L -0.782938 33 
L -0.824483 34 
L -0.866823 35 
L -0.888843 36 
L -0.92633 37 
L -0.943582 38 
L -0.96699 39 
L -0.975557 40 
L -0.984646 41 
L -0.991714 42 
L -0.998741 43 
L -0.999849 44 
L -0.999863 45 
L -0.997189 46 
L -0.994163 47 
L -0.988696 48 
L -0.968701 49 
L -0.95673 50 
L -0.929611 51 
L -0.902599 52 
L -0.875433 53 
L -0.820958 54 
L -0.791342 55 
L -0.749586 56 
L -0.676477 57 
L -0.633039 58 
L -0.562348 59 
L -0.523941 60 
L -0.463602 61 
L -0.432847 62 
L -0.402349 63 
L -0.343439 64 
L -0.300262 65 
L -0.25865 66 
L -0.209535 67 
L -0.144448 68 
L -0.078053 69 
L 0.04671 70 
L 0.090525 71 
L 0.144853 72 
L 0.251557 73 
L 0.294057 74 
L 0.331551 75 
L 0.421047 76 
L 0.47827 77 
L 0.547913 78 
L 0.596932 79 
L 0.652877 80 
L 0.700002 81 
L 0.73889 82 
L 0.792582 83 
L 0.838153 84 
L 0.87509 85 
L 0.897166 86 
L 0.930049 87 
L 0.959769 88 
L 0.972319 89 
L 0.984218 90 
L 0.989336 91 
L 0.997225 92 
L 0.999856 93 
L 0.999058 94 
L 0.995817 95 
L 0.980679 96 
L 0.973742 97 
L 0.957365 98 
L 0.938952 99 
L 0.90936 100 
L 0.887278 101 
L 0.829584 102 
L 0.804393 103 
L 0.73608 104 
L 0.688954 105 
L 0.651606 106 
L 0.596397 107 
L 0.506966 108 
L 0.403856 109 
L 0.349882 110 
L 0.319162 111 
L 0.263621 112 
L 0.225886 113 
L 0.157632 114 
L 0.121803 115 
L 0.052019 116 
L -0.007275 117 
L -0.045882 118 
L -0.079878 119 
L -0.122458 120 
L -0.169107 121 
L -0.223673 122 
L -0.309574 123 
L -0.35625 124 
L -0.413565 125 
L -0.443979 126 
L -0.52903 127 
L -0.562705 128 
L -0.650629 129 
L -0.705614 130 
L -0.744303 131 
L -0.814334 132 
L -0.84478 133 
L -0.902505 134 
L -0.919649 135 
L -0.944384 136 
L -0.959884 137 
L -0.983336 138 
L -0.99015 139 
L -0.994083 140 
L -0.997815 141 
L -0.999848 142 
L -0.991462 143 
L -0.975076 144 
L -0.948806 145 
L -0.935477 146 
L -0.905523 147 
L -0.871272 148 
L -0.850602 149 
L -0.80959 150 
L -0.736272 151 
L -0.713054 152 
L -0.672688 153 
L -0.645437 154 
L -0.564899 155 
L -0.511421 156 
L -0.43285 157 
L -0.384382 158 
L -0.270352 159 
L -0.169667 160 
L -0.085243 161 
L 0.006297 162 
L 0.10871 163 
L 0.149518 164 
L 0.192661 165 
L 0.231962 166 
L 0.265385 167 
L 0.308493 168 
L 0.414072 169 
L 0.469773 170.300575 
z
" style="fill:none;stroke:#ffffff;stroke-linejoin:miter;stroke-width:4;"/>
   <path d="M 0 170.300575 
L 1 170.332011 
L 2 170.368952 
L 3 170.466698 
L 4 170.49922 
L 5 170.572845 
L 6 170.61141 
L 7 170.646823 
L 8 170.704463 
L 9 170.774849 
L 10 170.826814 
L 11 170.885903 
L 12 170.974224 
L 13 171.020369 
L 14 171.06278 
L 15 171.093272 
L 16 171.119317 
L 17 171.140517 
L 18 171.194818 
L 19 171.222756 
L 20 171.25248 
L 21 171.277875 
L 22 171.289075 
L 23 171.299199 
L 24 171.298995 
L 25 171.289485 
L 26 171.277831 
L 27 171.246802 
L 28 171.235634 
L 29 171.205517 
L 30 171.14574 
L 31 171.108548 
L 32 171.069452 
L 33 171.027012 
L 34 170.994247 
L 35 170.926821 
L 36 170.887695 
L 37 170.84502 
L 38 170.77444 
L 39 170.738049 
L 40 170.679646 
L 41 170.568693 
L 42 170.498035 
L 43 170.385095 
L 44 170.339322 
L 45 170.278039 
L 46 170.22954 
L 47 170.148717 
L 48 170.030198 
L 49 169.959987 
L 50 169.876725 
L 51 169.843583 
L 52 169.792346 
L 53 169.723947 
L 54 169.657732 
L 55 169.580815 
L 56 169.553499 
L 57 169.527022 
L 58 169.504371 
L 59 169.48484 
L 60 169.458446 
L 61 169.408675 
L 62 169.373602 
L 63 169.337736 
L 64 169.322369 
L 65 169.3066 
L 66 169.303187 
L 67 169.30077 
L 68 169.301256 
L 69 169.303185 
L 70 169.316442 
L 71 169.324833 
L 72 169.346369 
L 73 169.369402 
L 74 169.386635 
L 75 169.405098 
L 76 169.42555 
L 77 169.44215 
L 78 169.504929 
L 79 169.580194 
L 80 169.612833 
L 81 169.680397 
L 82 169.734444 
L 83 169.768148 
L 84 169.858274 
L 85 169.886809 
L 86 169.918295 
L 87 169.949306 
L 88 170.004114 
L 89 170.068701 
L 90 170.106897 
L 91 170.202831 
L 92 170.252089 
L 93 170.296158 
L 94 170.336282 
L 95 170.444649 
L 96 170.486277 
L 97 170.548419 
L 98 170.618381 
L 99 170.722885 
L 100 170.759873 
L 101 170.80575 
L 102 170.874245 
L 103 170.922991 
L 104 171.000588 
L 105 171.031129 
L 106 171.100643 
L 107 171.124616 
L 108 171.153238 
L 109 171.195031 
L 110 171.216607 
L 111 171.230555 
L 112 171.257277 
L 113 171.266587 
L 114 171.279034 
L 115 171.290089 
L 116 171.295753 
L 117 171.300517 
L 118 171.294969 
L 119 171.281681 
L 120 171.274164 
L 121 171.249379 
L 122 171.22581 
L 123 171.18963 
L 124 171.163668 
L 125 171.141346 
L 126 171.072586 
L 127 170.998051 
L 128 170.904072 
L 129 170.85302 
L 130 170.799086 
L 131 170.763835 
L 132 170.657747 
L 133 170.605483 
L 134 170.568576 
L 135 170.537545 
L 136 170.47639 
L 137 170.40897 
L 138 170.360064 
L 139 170.294872 
L 140 170.256684 
L 141 170.214688 
L 142 170.172671 
L 143 170.113155 
L 144 169.999995 
L 145 169.947744 
L 146 169.908326 
L 147 169.861225 
L 148 169.804445 
L 149 169.771782 
L 150 169.735604 
L 151 169.703514 
L 152 169.669234 
L 153 169.610856 
L 154 169.565671 
L 155 169.536047 
L 156 169.485661 
L 157 169.460464 
L 158 169.439413 
L 159 169.404445 
L 160 169.380155 
L 161 169.366088 
L 162 169.347146 
L 163 169.331485 
L 164 169.318933 
L 165 169.313097 
L 166 169.306215 
L 167 169.301041 
L 168 169.302824 
L 169 169.305549 
L 170 169.316703 
L 171 169.344938 
L 172 169.388726 
L 173 169.409415 
L 174 169.450388 
L 175 169.490463 
L 176 169.509573 
L 177 169.532082 
L 178 169.598733 
L 179 169.648443 
L 180 169.722149 
L 181 169.753463 
L 182 169.830085 
L 183 169.868383 
L 184 169.9425 
L 185 170.046558 
L 186 170.116389 
L 187 170.221623 
L 188 170.276638 
L 189 170.400113 
L 190 170.470672 
L 191 170.586511 
L 192 170.636692 
L 193 170.672296 
L 194 170.763703 
L 195 170.817211 
L 196 170.905119 
L 197 170.974304 
L 198 171.021068 
L 199 171.093112 
L 200 171.143254 
L 201 171.160644 
L 202 171.187647 
L 203 171.207074 
L 204 171.226412 
L 205 171.264661 
L 206 171.281094 
L 207 171.289463 
L 208 171.293782 
L 209 171.300337 
L 210 171.297791 
L 211 171.292332 
L 212 171.275904 
L 213 171.243969 
L 214 171.205989 
L 215 171.171185 
L 216 171.108113 
L 217 171.086686 
L 218 171.036068 
L 219 171.011111 
L 220 170.955477 
L 221 170.924248 
L 222 170.874104 
L 223 170.841611 
L 224 170.761199 
L 225 170.692273 
L 226 170.576576 
L 227 170.501097 
L 228 170.385572 
L 229 170.306088 
L 230 170.197647 
L 231 170.158279 
L 232 170.055411 
L 233 169.955613 
L 234 169.910116 
L 235 169.875794 
L 236 169.823838 
L 237 169.784191 
L 238 169.748677 
L 239 169.681032 
L 240 169.64195 
L 241 169.591469 
L 242 169.542163 
L 243 169.491093 
L 244 169.446854 
L 245 169.424834 
L 246 169.409278 
L 247 169.366831 
L 248 169.351963 
L 249 169.329235 
L 250 169.308919 
L 251 169.303122 
L 252 169.30064 
L 253 169.303697 
L 254 169.315293 
L 255 169.332213 
L 256 169.363874 
L 257 169.377957 
L 258 169.430629 
L 259 169.479718 
L 260 169.534419 
L 261 169.578767 
L 262 169.648759 
L 263 169.699142 
L 264.588058 169.753049 
L 264.109971 169.300575 
L 264.167358 168.300575 
L 264.217524 167.300575 
L 264.294686 166.300575 
L 264.352876 165.300575 
L 264.413514 164.300575 
L 264.450715 163.300575 
L 264.515807 162.300575 
L 264.620937 161.300575 
L 264.681238 160.300575 
L 264.77756 159.300575 
L 264.809563 158.300575 
L 264.860581 157.300575 
L 264.977373 156.300575 
L 265.012819 155.300575 
L 265.0687 154.300575 
L 265.099075 153.300575 
L 265.187462 152.300575 
L 265.232226 151.300575 
L 265.313114 150.300575 
L 265.37326 149.300575 
L 265.436346 148.300575 
L 265.459294 147.300575 
L 265.475464 146.300575 
L 265.504393 145.300575 
L 265.534744 144.300575 
L 265.547319 143.300575 
L 265.572198 142.300575 
L 265.584282 141.300575 
L 265.588044 140.300575 
L 265.583608 139.300575 
L 265.571269 138.300575 
L 265.556856 137.300575 
L 265.540783 136.300575 
L 265.505262 135.300575 
L 265.485328 134.300575 
L 265.428738 133.300575 
L 265.361545 132.300575 
L 265.334174 131.300575 
L 265.300027 130.300575 
L 265.251346 129.300575 
L 265.203062 128.300575 
L 265.143984 127.300575 
L 265.04838 126.300575 
L 265.00524 125.300575 
L 264.955392 124.300575 
L 264.896857 123.300575 
L 264.849272 122.300575 
L 264.788144 121.300575 
L 264.732059 120.300575 
L 264.657888 119.300575 
L 264.54065 118.300575 
L 264.484926 117.300575 
L 264.3767 116.300575 
L 264.27055 115.300575 
L 264.162977 114.300575 
L 264.12847 113.300575 
L 264.025162 112.300575 
L 263.949439 111.300575 
L 263.910004 110.300575 
L 263.87062 109.300575 
L 263.848137 108.300575 
L 263.792324 107.300575 
L 263.766273 106.300575 
L 263.736038 105.300575 
L 263.685266 104.300575 
L 263.666615 103.300575 
L 263.644907 102.300575 
L 263.632261 101.300575 
L 263.613268 100.300575 
L 263.595878 99.300575 
L 263.588839 98.300575 
L 263.589864 97.300575 
L 263.596868 96.300575 
L 263.606238 95.300575 
L 263.629635 94.300575 
L 263.654719 93.300575 
L 263.667117 92.300575 
L 263.70021 91.300575 
L 263.716578 90.300575 
L 263.734983 89.300575 
L 263.78412 88.300575 
L 263.827933 87.300575 
L 263.871018 86.300575 
L 263.893959 85.300575 
L 263.934222 84.300575 
L 264.019081 83.300575 
L 264.061474 82.300575 
L 264.12586 81.300575 
L 264.170149 80.300575 
L 264.277995 79.300575 
L 264.354935 78.300575 
L 264.391376 77.300575 
L 264.446264 76.300575 
L 264.521364 75.300575 
L 264.57996 74.300575 
L 264.616535 73.300575 
L 264.728582 72.300575 
L 264.790267 71.300575 
L 264.840786 70.300575 
L 264.939571 69.300575 
L 264.977594 68.300575 
L 265.013041 67.300575 
L 265.104676 66.300575 
L 265.147948 65.300575 
L 265.201276 64.300575 
L 265.234141 63.300575 
L 265.297035 62.300575 
L 265.35089 61.300575 
L 265.408016 60.300575 
L 265.430106 59.300575 
L 265.473845 58.300575 
L 265.520939 57.300575 
L 265.537786 56.300575 
L 265.565859 55.300575 
L 265.576855 54.300575 
L 265.581425 53.300575 
L 265.587073 52.300575 
L 265.587124 51.300575 
L 265.584034 50.300575 
L 265.580521 49.300575 
L 265.574699 48.300575 
L 265.561847 47.300575 
L 265.538222 46.300575 
L 265.523337 45.300575 
L 265.499766 44.300575 
L 265.463447 43.300575 
L 265.431863 42.300575 
L 265.401971 41.300575 
L 265.323278 40.300575 
L 265.286728 39.300575 
L 265.261004 38.300575 
L 265.190332 37.300575 
L 265.09923 36.300575 
L 265.037273 35.300575 
L 265.00366 34.300575 
L 264.969159 33.300575 
L 264.87172 32.300575 
L 264.82413 31.300575 
L 264.792624 30.300575 
L 264.748939 29.300575 
L 264.67877 28.300575 
L 264.628903 27.300575 
L 264.594226 26.300575 
L 264.484577 25.300575 
L 264.451106 24.300575 
L 264.413764 23.300575 
L 264.33352 22.300575 
L 264.295026 21.300575 
L 264.253249 20.300575 
L 264.210824 19.300575 
L 264.101096 18.300575 
L 264.012811 17.300575 
L 263.938165 16.300575 
L 263.849707 15.300575 
L 263.775646 14.300575 
L 263.72648 13.300575 
L 263.670863 12.300575 
L 263.636164 11.300575 
L 263.624292 10.300575 
L 263.602069 9.300575 
L 263.590091 8.300575 
L 263.588339 7.300575 
L 263.593756 6.300575 
L 263.609954 5.300575 
L 263.626453 4.300575 
L 263.657637 3.300575 
L 263.671002 2.300575 
L 263.700644 1.300575 
L 263.763668 0 
L 263.588058 0.775069 
L 262.588058 0.72898 
L 261.588058 0.646753 
L 260.588058 0.60085 
L 259.588058 0.566525 
L 258.588058 0.512986 
L 257.588058 0.424099 
L 256.588058 0.392961 
L 255.588058 0.284912 
L 254.588058 0.17284 
L 253.588058 0.137402 
L 252.588058 0.052616 
L 251.588058 -0.012991 
L 250.588058 -0.115045 
L 249.588058 -0.23126 
L 248.588058 -0.271951 
L 247.588058 -0.31304 
L 246.588058 -0.349681 
L 245.588058 -0.390677 
L 244.588058 -0.466746 
L 243.588058 -0.542812 
L 242.588058 -0.5735 
L 241.588058 -0.599991 
L 240.588058 -0.656572 
L 239.588058 -0.701088 
L 238.588058 -0.731106 
L 237.588058 -0.758162 
L 236.588058 -0.800727 
L 235.588058 -0.853592 
L 234.588058 -0.884513 
L 233.588058 -0.910788 
L 232.588058 -0.925721 
L 231.588058 -0.95601 
L 230.588058 -0.977339 
L 229.588058 -0.994228 
L 228.588058 -0.998943 
L 227.588058 -0.999553 
L 226.588058 -0.997507 
L 225.588058 -0.991646 
L 224.588058 -0.972999 
L 223.588058 -0.940942 
L 222.588058 -0.894502 
L 221.588058 -0.852556 
L 220.588058 -0.785851 
L 219.588058 -0.716785 
L 218.588058 -0.66941 
L 217.588058 -0.617891 
L 216.588058 -0.578191 
L 215.588058 -0.508771 
L 214.588058 -0.44224 
L 213.588058 -0.333331 
L 212.588058 -0.268083 
L 211.588058 -0.159875 
L 210.588058 -0.098871 
L 209.588058 -0.050186 
L 208.588058 0.026048 
L 207.588058 0.085579 
L 206.588058 0.160207 
L 205.588058 0.279034 
L 204.588058 0.376979 
L 203.588058 0.456027 
L 202.588058 0.501774 
L 201.588058 0.529046 
L 200.588058 0.572708 
L 199.588058 0.621292 
L 198.588058 0.653026 
L 197.588058 0.733256 
L 196.588058 0.799749 
L 195.588058 0.823774 
L 194.588058 0.884273 
L 193.588058 0.906505 
L 192.588058 0.925105 
L 191.588058 0.954431 
L 190.588058 0.970132 
L 189.588058 0.978431 
L 188.588058 0.988667 
L 187.588058 0.99901 
L 186.588058 0.998332 
L 185.588058 0.994552 
L 184.588058 0.978111 
L 183.588058 0.965977 
L 182.588058 0.955382 
L 181.588058 0.924005 
L 180.588058 0.898232 
L 179.588058 0.866823 
L 178.588058 0.844014 
L 177.588058 0.82642 
L 176.588058 0.776608 
L 175.588058 0.728948 
L 174.588058 0.657239 
L 173.588058 0.601476 
L 172.588058 0.575278 
L 171.588058 0.54451 
L 170.588058 0.454752 
L 169.588058 0.369958 
L 168.588058 0.304364 
L 167.588058 0.258539 
L 166.588058 0.215542 
L 165.588058 0.154029 
L 164.588058 0.054204 
L 163.588058 0.009774 
L 162.588058 -0.040276 
L 161.588058 -0.162117 
L 160.588058 -0.22181 
L 159.588058 -0.253376 
L 158.588058 -0.285719 
L 157.588058 -0.340279 
L 156.588058 -0.382779 
L 155.588058 -0.434251 
L 154.588058 -0.522636 
L 153.588058 -0.556833 
L 152.588058 -0.600767 
L 151.588058 -0.66448 
L 150.588058 -0.739677 
L 149.588058 -0.768491 
L 148.588058 -0.810695 
L 147.588058 -0.85328 
L 146.588058 -0.870172 
L 145.588058 -0.892653 
L 144.588058 -0.93499 
L 143.588058 -0.96495 
L 142.588058 -0.983583 
L 141.588058 -0.993375 
L 140.588058 -0.997138 
L 139.588058 -0.999976 
L 138.588058 -0.998227 
L 137.588058 -0.988871 
L 136.588058 -0.978174 
L 135.588058 -0.968304 
L 134.588058 -0.949446 
L 133.588058 -0.919107 
L 132.588058 -0.880716 
L 131.588058 -0.82123 
L 130.588058 -0.777941 
L 129.588058 -0.717203 
L 128.588058 -0.633129 
L 127.588058 -0.584836 
L 126.588058 -0.541259 
L 125.588058 -0.514378 
L 124.588058 -0.482448 
L 123.588058 -0.415256 
L 122.588058 -0.334435 
L 121.588058 -0.25889 
L 120.588058 -0.21516 
L 119.588058 -0.135265 
L 118.588058 -0.073786 
L 117.588058 -0.010161 
L 116.588058 0.097088 
L 115.588058 0.215798 
L 114.588058 0.257704 
L 113.588058 0.300658 
L 112.588058 0.362857 
L 111.588058 0.392994 
L 110.588058 0.425512 
L 109.588058 0.477447 
L 108.588058 0.582997 
L 107.588058 0.631443 
L 106.588058 0.677767 
L 105.588058 0.711583 
L 104.588058 0.75946 
L 103.588058 0.814338 
L 102.588058 0.838249 
L 101.588058 0.864286 
L 100.588058 0.920403 
L 99.588058 0.934277 
L 98.588058 0.960311 
L 97.588058 0.987057 
L 96.588058 0.994803 
L 95.588058 0.999956 
L 94.588058 0.993758 
L 93.588058 0.987451 
L 92.588058 0.97987 
L 91.588058 0.952364 
L 90.588058 0.908131 
L 89.588058 0.878593 
L 88.588058 0.836746 
L 87.588058 0.777572 
L 86.588058 0.754862 
L 85.588058 0.71823 
L 84.588058 0.661442 
L 83.588058 0.636272 
L 82.588058 0.553576 
L 81.588058 0.466644 
L 80.588058 0.41596 
L 79.588058 0.378566 
L 78.588058 0.294186 
L 77.588058 0.259675 
L 76.588058 0.167684 
L 75.588058 0.080659 
L 74.588058 -0.042481 
L 73.588058 -0.08035 
L 72.588058 -0.127825 
L 71.588058 -0.233351 
L 70.588058 -0.330812 
L 69.588058 -0.407449 
L 68.588058 -0.439376 
L 67.588058 -0.493616 
L 66.588058 -0.532467 
L 65.588058 -0.606172 
L 64.588058 -0.638168 
L 63.588058 -0.694707 
L 62.588058 -0.730823 
L 61.588058 -0.799425 
L 60.588058 -0.830841 
L 59.588058 -0.885508 
L 58.588058 -0.904279 
L 57.588058 -0.949908 
L 56.588058 -0.972811 
L 55.588058 -0.981352 
L 54.588058 -0.988693 
L 53.588058 -0.994988 
L 52.588058 -0.998165 
L 51.588058 -0.999751 
L 50.588058 -0.998288 
L 49.588058 -0.985334 
L 48.588058 -0.970712 
L 47.588058 -0.958856 
L 46.588058 -0.940831 
L 45.588058 -0.920453 
L 44.588058 -0.897054 
L 43.588058 -0.882145 
L 42.588058 -0.827431 
L 41.588058 -0.793834 
L 40.588058 -0.731138 
L 39.588058 -0.703763 
L 38.588058 -0.659783 
L 37.588058 -0.580836 
L 36.588058 -0.523308 
L 35.588058 -0.473329 
L 34.588058 -0.401345 
L 33.588058 -0.364813 
L 32.588058 -0.2965 
L 31.588058 -0.208294 
L 30.588058 -0.086947 
L 29.588058 -0.021266 
L 28.588058 0.012352 
L 27.588058 0.076629 
L 26.588058 0.1226 
L 25.588058 0.194757 
L 24.588058 0.234583 
L 23.588058 0.277213 
L 22.588058 0.383172 
L 21.588058 0.435957 
L 20.588058 0.515234 
L 19.588058 0.557638 
L 18.588058 0.589904 
L 17.588058 0.62477 
L 16.588058 0.667428 
L 15.588058 0.699001 
L 14.588058 0.76658 
L 13.588058 0.803465 
L 12.588058 0.831421 
L 11.588058 0.852269 
L 10.588058 0.877882 
L 9.588058 0.9155 
L 8.588058 0.930342 
L 7.588058 0.955072 
L 6.588058 0.973302 
L 5.588058 0.984709 
L 4.588058 0.990344 
L 3.588058 0.995098 
L 2.588058 0.999707 
L 1.588058 0.998034 
L 0 0.992252 
L 0.972256 1 
L 0.960604 2 
L 0.949615 3 
L 0.936648 4 
L 0.886234 5 
L 0.865412 6 
L 0.837465 7 
L 0.78072 8 
L 0.758076 9 
L 0.706673 10 
L 0.665537 11 
L 0.582768 12 
L 0.534308 13 
L 0.482881 14 
L 0.431721 15 
L 0.364422 16 
L 0.331268 17 
L 0.26521 18 
L 0.209025 19 
L 0.147746 20 
L 0.107763 21 
L 0.01134 22 
L -0.10042 23 
L -0.139339 24 
L -0.237188 25 
L -0.271842 26 
L -0.355524 27 
L -0.40603 28 
L -0.475073 29 
L -0.576176 30 
L -0.628622 31 
L -0.71793 32 
L -0.782938 33 
L -0.824483 34 
L -0.866823 35 
L -0.888843 36 
L -0.92633 37 
L -0.943582 38 
L -0.96699 39 
L -0.975557 40 
L -0.984646 41 
L -0.991714 42 
L -0.998741 43 
L -0.999849 44 
L -0.999863 45 
L -0.997189 46 
L -0.994163 47 
L -0.988696 48 
L -0.968701 49 
L -0.95673 50 
L -0.929611 51 
L -0.902599 52 
L -0.875433 53 
L -0.820958 54 
L -0.791342 55 
L -0.749586 56 
L -0.676477 57 
L -0.633039 58 
L -0.562348 59 
L -0.523941 60 
L -0.463602 61 
L -0.432847 62 
L -0.402349 63 
L -0.343439 64 
L -0.300262 65 
L -0.25865 66 
L -0.209535 67 
L -0.144448 68 
L -0.078053 69 
L 0.04671 70 
L 0.090525 71 
L 0.144853 72 
L 0.251557 73 
L 0.294057 74 
L 0.331551 75 
L 0.421047 76 
L 0.47827 77 
L 0.547913 78 
L 0.596932 79 
L 0.652877 80 
L 0.700002 81 
L 0.73889 82 
L 0.792582 83 
L 0.838153 84 
L 0.87509 85 
L 0.897166 86 
L 0.930049 87 
L 0.959769 88 
L 0.972319 89 
L 0.984218 90 
L 0.989336 91 
L 0.997225 92 
L 0.999856 93 
L 0.999058 94 
L 0.995817 95 
L 0.980679 96 
L 0.973742 97 
L 0.957365 98 
L 0.938952 99 
L 0.90936 100 
L 0.887278 101 
L 0.829584 102 
L 0.804393 103 
L 0.73608 104 
L 0.688954 105 
L 0.651606 106 
L 0.596397 107 
L 0.506966 108 
L 0.403856 109 
L 0.349882 110 
L 0.319162 111 
L 0.263621 112 
L 0.225886 113 
L 0.157632 114 
L 0.121803 115 
L 0.052019 116 
L -0.007275 117 
L -0.045882 118 
L -0.079878 119 
L -0.122458 120 
L -0.169107 121 
L -0.223673 122 
L -0.309574 123 
L -0.35625 124 
L -0.413565 125 
L -0.443979 126 
L -0.52903 127 
L -0.562705 128 
L -0.650629 129 
L -0.705614 130 
L -0.744303 131 
L -0.814334 132 
L -0.84478 133 
L -0.902505 134 
L -0.919649 135 
L -0.944384 136 
L -0.959884 137 
L -0.983336 138 
L -0.99015 139 
L -0.994083 140 
L -0.997815 141 
L -0.999848 142 
L -0.991462 143 
L -0.975076 144 
L -0.948806 145 
L -0.935477 146 
L -0.905523 147 
L -0.871272 148 
L -0.850602 149 
L -0.80959 150 
L -0.736272 151 
L -0.713054 152 
L -0.672688 153 
L -0.645437 154 
L -0.564899 155 
L -0.511421 156 
L -0.43285 157 
L -0.384382 158 
L -0.270352 159 
L -0.169667 160 
L -0.085243 161 
L 0.006297 162 
L 0.10871 163 
L 0.149518 164 
L 0.192661 165 
L 0.231962 166 
L 0.265385 167 
L 0.308493 168 
L 0.414072 169 
L 0.469773 170.300575 
z
" style="fill:none;"/>
   <g id="axes_1">
    <g id="patch_2">
     <path clip-path="url(#p03e8ff33ab)" d="M 128.66 79.654375 
L 129.617466 79.564654 
L 130.418254 79.037653 
L 131.091185 78.364331 
L 131.286668 77.387333 
L 131.231539 76.420516 
L 130.620026 75.541187 
L 129.815985 74.904405 
L 128.710807 74.663695 
L 127.646827 74.714776 
L 126.634006 75.309678 
L 125.902773 76.090924 
L 125.563056 77.264563 
L 125.645391 78.36122 
L 126.348916 79.461274 
L 127.242949 80.176507 
L 128.557006 80.466613 
L 128.66 79.654375 
z
" style="stroke:#ffffff;stroke-linejoin:miter;stroke-width:4;"/>
     <path clip-path="url(#p03e8ff33ab)" d="M 128.66 79.654375 
L 129.617466 79.564654 
L 130.418254 79.037653 
L 131.091185 78.364331 
L 131.286668 77.387333 
L 131.231539 76.420516 
L 130.620026 75.541187 
L 129.815985 74.904405 
L 128.710807 74.663695 
L 127.646827 74.714776 
L 126.634006 75.309678 
L 125.902773 76.090924 
L 125.563056 77.264563 
L 125.645391 78.36122 
L 126.348916 79.461274 
L 127.242949 80.176507 
L 128.557006 80.466613 
L 128.66 79.654375 
z
" style="stroke:#000000;stroke-linejoin:miter;stroke-width:2;"/>
     <g id="patch_3">
      <path clip-path="url(#p03e8ff33ab)" d="M 225.86 98.779375 
L 226.817466 98.689654 
L 227.618254 98.162653 
L 228.291185 97.489331 
L 228.486668 96.512333 
L 228.431539 95.545516 
L 227.820026 94.666187 
L 227.015985 94.029405 
L 225.910807 93.788695 
L 224.846827 93.839776 
L 223.834006 94.434678 
L 223.102773 95.215924 
L 222.763056 96.389563 
L 222.845391 97.48622 
L 223.548916 98.586274 
L 224.442949 99.301507 
L 225.757006 99.591613 
L 225.86 98.779375 
z
" style="stroke:#ffffff;stroke-linejoin:miter;stroke-width:4;"/>
      <path clip-path="url(#p03e8ff33ab)" d="M 225.86 98.779375 
L 226.817466 98.689654 
L 227.618254 98.162653 
L 228.291185 97.489331 
L 228.486668 96.512333 
L 228.431539 95.545516 
L 227.820026 94.666187 
L 227.015985 94.029405 
L 225.910807 93.788695 
L 224.846827 93.839776 
L 223.834006 94.434678 
L 223.102773 95.215924 
L 222.763056 96.389563 
L 222.845391 97.48622 
L 223.548916 98.586274 
L 224.442949 99.301507 
L 225.757006 99.591613 
L 225.86 98.779375 
z
" style="stroke:#000000;stroke-linejoin:miter;stroke-width:2;"/>
      <path clip-path="url(#p03e8ff33ab)" d="M 144.86 96.484375 
L 144.891436 95.484375 
L 144.928377 94.484375 
L 145.026123 93.484375 
L 145.058645 92.484375 
L 145.13227 91.484375 
L 145.170835 90.484375 
L 145.206248 89.484375 
L 145.263888 88.484375 
L 145.334274 87.484375 
L 145.386239 86.484375 
L 145.445328 85.484375 
L 145.533649 84.484375 
L 145.579794 83.484375 
L 145.622205 82.484375 
L 145.652697 81.484375 
L 145.678742 80.484375 
L 145.699942 79.484375 
L 145.754243 78.484375 
L 145.782181 77.484375 
L 145.811905 76.484375 
L 145.8373 75.484375 
L 145.8485 74.484375 
L 145.858624 73.484375 
L 145.85842 72.484375 
L 145.84891 71.484375 
L 145.837256 70.484375 
L 145.806227 69.484375 
L 145.795059 68.484375 
L 145.764942 67.484375 
L 145.705165 66.484375 
L 145.667973 65.484375 
L 145.628877 64.484375 
L 145.586437 63.484375 
L 145.553672 62.484375 
L 145.486246 61.484375 
L 145.44712 60.484375 
L 145.404445 59.484375 
L 145.333865 58.234375 
L 145.528529 59.097191 
L 146.434451 59.524646 
L 147.365529 59.905965 
L 148.277317 60.32266 
L 149.209346 60.702234 
L 150.109221 61.140778 
L 151.016521 61.565705 
L 151.917701 62.001855 
L 152.834355 62.409627 
L 153.769055 62.784302 
L 154.680629 63.201391 
L 155.598451 63.607021 
L 156.492279 64.056654 
L 157.394769 64.490401 
L 158.305475 64.90908 
L 159.215137 65.329676 
L 160.129921 65.740877 
L 161.020959 66.195626 
L 161.911597 66.65111 
L 162.800402 67.109955 
L 163.687714 67.571538 
L 164.578311 68.027096 
L 165.4801 68.46213 
L 166.374852 68.910068 
L 167.269984 69.35731 
L 168.155302 69.822549 
L 169.040813 70.287435 
L 169.920409 70.76317 
L 170.799528 71.239778 
L 171.677257 71.718935 
L 172.554295 72.19936 
L 173.42591 72.68973 
L 174.299855 73.175827 
L 175.167507 73.673467 
L 176.034442 74.172419 
L 176.904154 74.66628 
L 177.773277 75.16122 
L 178.641447 75.657908 
L 179.511462 76.151212 
L 180.35937 76.68506 
L 181.2013 77.229871 
L 182.063636 77.737258 
L 182.909253 78.275307 
L 183.761341 78.801489 
L 184.623167 79.309811 
L 185.457983 79.867669 
L 186.322284 80.371452 
L 187.185173 80.877827 
L 188.048288 81.383784 
L 188.900012 81.910634 
L 189.747054 82.44607 
L 190.60673 82.958335 
L 191.438765 83.521292 
L 192.293146 84.04327 
L 193.15001 84.560692 
L 194.008763 85.07465 
L 194.834846 85.648523 
L 195.692879 86.163801 
L 196.541092 86.69709 
L 197.385561 87.237245 
L 198.213493 87.807727 
L 199.073748 88.318931 
L 199.929746 88.837941 
L 200.774918 89.376807 
L 201.629543 89.898335 
L 202.470357 90.445193 
L 203.333698 90.950737 
L 204.178381 91.490499 
L 205.044866 91.990278 
L 205.909126 92.494137 
L 206.76708 93.009561 
L 207.634712 93.507234 
L 208.505997 93.998211 
L 209.371166 94.500403 
L 210.244671 94.987307 
L 211.116674 95.476966 
L 211.989343 95.965402 
L 212.864593 96.449107 
L 214.529355 97.362286 
L 213.654049 96.090065 
L 212.782448 96.580463 
L 211.908086 97.065794 
L 211.041989 97.566285 
L 210.17531 98.065708 
L 209.314669 98.576204 
L 208.449136 99.077728 
L 207.581861 99.576056 
L 206.736816 100.115156 
L 205.894537 100.659326 
L 205.061566 101.220567 
L 204.208045 101.744119 
L 203.355903 102.270202 
L 202.494816 102.779882 
L 201.667642 103.351754 
L 200.814701 103.87637 
L 199.954408 104.387504 
L 199.091301 104.893479 
L 198.242617 105.425902 
L 197.396931 105.963825 
L 196.542382 106.485493 
L 195.69563 107.02146 
L 194.83595 107.533718 
L 193.978093 108.04932 
L 193.120246 108.56494 
L 192.270776 109.095924 
L 191.446988 109.674005 
L 190.59404 110.19861 
L 189.734949 110.711948 
L 188.879536 111.232032 
L 188.028756 111.760613 
L 187.166431 112.268021 
L 186.305789 112.778514 
L 185.44319 113.28542 
L 184.581639 113.794247 
L 183.731625 114.324231 
L 182.875295 114.842632 
L 182.011515 115.347372 
L 181.157674 115.870339 
L 180.291775 116.371193 
L 179.423891 116.868406 
L 178.56267 117.377837 
L 177.696336 117.877893 
L 176.825109 118.368974 
L 175.956215 118.864335 
L 175.085751 119.356817 
L 174.213798 119.846567 
L 173.33863 120.330422 
L 172.463964 120.815195 
L 171.588479 121.298468 
L 170.709663 121.775634 
L 169.830397 122.251972 
L 168.947096 122.72091 
L 168.055617 123.174851 
L 167.156693 123.615138 
L 166.268826 124.075705 
L 165.371249 124.518462 
L 164.474102 124.962009 
L 163.586992 125.423962 
L 162.698255 125.882931 
L 161.788385 126.303144 
L 160.886626 126.738233 
L 159.973378 127.152251 
L 159.080426 127.60349 
L 158.165783 128.01495 
L 157.269487 128.460056 
L 156.356043 128.873715 
L 155.428265 129.261087 
L 154.516873 129.678509 
L 153.588533 130.064849 
L 152.684234 130.495278 
L 151.747161 130.865603 
L 150.83542 131.282385 
L 149.902003 131.659414 
L 149.000018 132.094088 
L 148.105011 132.541559 
L 147.18329 132.940039 
L 146.279713 133.371792 
L 144.570586 134.203608 
L 145.533729 133.734375 
L 145.580493 132.734375 
L 145.652537 131.734375 
L 145.702679 130.734375 
L 145.720069 129.734375 
L 145.747072 128.734375 
L 145.766499 127.734375 
L 145.785837 126.734375 
L 145.824086 125.734375 
L 145.840519 124.734375 
L 145.848888 123.734375 
L 145.853207 122.734375 
L 145.859762 121.734375 
L 145.857216 120.734375 
L 145.851757 119.734375 
L 145.835329 118.734375 
L 145.803394 117.734375 
L 145.765414 116.734375 
L 145.73061 115.734375 
L 145.667538 114.734375 
L 145.646111 113.734375 
L 145.595493 112.734375 
L 145.570536 111.734375 
L 145.514902 110.734375 
L 145.483673 109.734375 
L 145.433529 108.734375 
L 145.401036 107.734375 
L 145.320624 106.734375 
L 145.251698 105.734375 
L 145.136001 104.734375 
L 145.060522 103.734375 
L 144.944997 102.734375 
L 144.865513 101.734375 
L 144.757072 100.734375 
L 144.717704 99.734375 
L 144.614836 98.734375 
L 144.515038 97.734375 
L 144.469541 96.484375 
M 215.008058 96.484375 
" style="fill:none;stroke:#ffffff;stroke-linecap:round;stroke-width:4;"/>
      <path clip-path="url(#p03e8ff33ab)" d="M 144.86 96.484375 
L 144.891436 95.484375 
L 144.928377 94.484375 
L 145.026123 93.484375 
L 145.058645 92.484375 
L 145.13227 91.484375 
L 145.170835 90.484375 
L 145.206248 89.484375 
L 145.263888 88.484375 
L 145.334274 87.484375 
L 145.386239 86.484375 
L 145.445328 85.484375 
L 145.533649 84.484375 
L 145.579794 83.484375 
L 145.622205 82.484375 
L 145.652697 81.484375 
L 145.678742 80.484375 
L 145.699942 79.484375 
L 145.754243 78.484375 
L 145.782181 77.484375 
L 145.811905 76.484375 
L 145.8373 75.484375 
L 145.8485 74.484375 
L 145.858624 73.484375 
L 145.85842 72.484375 
L 145.84891 71.484375 
L 145.837256 70.484375 
L 145.806227 69.484375 
L 145.795059 68.484375 
L 145.764942 67.484375 
L 145.705165 66.484375 
L 145.667973 65.484375 
L 145.628877 64.484375 
L 145.586437 63.484375 
L 145.553672 62.484375 
L 145.486246 61.484375 
L 145.44712 60.484375 
L 145.404445 59.484375 
L 145.333865 58.234375 
L 145.528529 59.097191 
L 146.434451 59.524646 
L 147.365529 59.905965 
L 148.277317 60.32266 
L 149.209346 60.702234 
L 150.109221 61.140778 
L 151.016521 61.565705 
L 151.917701 62.001855 
L 152.834355 62.409627 
L 153.769055 62.784302 
L 154.680629 63.201391 
L 155.598451 63.607021 
L 156.492279 64.056654 
L 157.394769 64.490401 
L 158.305475 64.90908 
L 159.215137 65.329676 
L 160.129921 65.740877 
L 161.020959 66.195626 
L 161.911597 66.65111 
L 162.800402 67.109955 
L 163.687714 67.571538 
L 164.578311 68.027096 
L 165.4801 68.46213 
L 166.374852 68.910068 
L 167.269984 69.35731 
L 168.155302 69.822549 
L 169.040813 70.287435 
L 169.920409 70.76317 
L 170.799528 71.239778 
L 171.677257 71.718935 
L 172.554295 72.19936 
L 173.42591 72.68973 
L 174.299855 73.175827 
L 175.167507 73.673467 
L 176.034442 74.172419 
L 176.904154 74.66628 
L 177.773277 75.16122 
L 178.641447 75.657908 
L 179.511462 76.151212 
L 180.35937 76.68506 
L 181.2013 77.229871 
L 182.063636 77.737258 
L 182.909253 78.275307 
L 183.761341 78.801489 
L 184.623167 79.309811 
L 185.457983 79.867669 
L 186.322284 80.371452 
L 187.185173 80.877827 
L 188.048288 81.383784 
L 188.900012 81.910634 
L 189.747054 82.44607 
L 190.60673 82.958335 
L 191.438765 83.521292 
L 192.293146 84.04327 
L 193.15001 84.560692 
L 194.008763 85.07465 
L 194.834846 85.648523 
L 195.692879 86.163801 
L 196.541092 86.69709 
L 197.385561 87.237245 
L 198.213493 87.807727 
L 199.073748 88.318931 
L 199.929746 88.837941 
L 200.774918 89.376807 
L 201.629543 89.898335 
L 202.470357 90.445193 
L 203.333698 90.950737 
L 204.178381 91.490499 
L 205.044866 91.990278 
L 205.909126 92.494137 
L 206.76708 93.009561 
L 207.634712 93.507234 
L 208.505997 93.998211 
L 209.371166 94.500403 
L 210.244671 94.987307 
L 211.116674 95.476966 
L 211.989343 95.965402 
L 212.864593 96.449107 
L 214.529355 97.362286 
L 213.654049 96.090065 
L 212.782448 96.580463 
L 211.908086 97.065794 
L 211.041989 97.566285 
L 210.17531 98.065708 
L 209.314669 98.576204 
L 208.449136 99.077728 
L 207.581861 99.576056 
L 206.736816 100.115156 
L 205.894537 100.659326 
L 205.061566 101.220567 
L 204.208045 101.744119 
L 203.355903 102.270202 
L 202.494816 102.779882 
L 201.667642 103.351754 
L 200.814701 103.87637 
L 199.954408 104.387504 
L 199.091301 104.893479 
L 198.242617 105.425902 
L 197.396931 105.963825 
L 196.542382 106.485493 
L 195.69563 107.02146 
L 194.83595 107.533718 
L 193.978093 108.04932 
L 193.120246 108.56494 
L 192.270776 109.095924 
L 191.446988 109.674005 
L 190.59404 110.19861 
L 189.734949 110.711948 
L 188.879536 111.232032 
L 188.028756 111.760613 
L 187.166431 112.268021 
L 186.305789 112.778514 
L 185.44319 113.28542 
L 184.581639 113.794247 
L 183.731625 114.324231 
L 182.875295 114.842632 
L 182.011515 115.347372 
L 181.157674 115.870339 
L 180.291775 116.371193 
L 179.423891 116.868406 
L 178.56267 117.377837 
L 177.696336 117.877893 
L 176.825109 118.368974 
L 175.956215 118.864335 
L 175.085751 119.356817 
L 174.213798 119.846567 
L 173.33863 120.330422 
L 172.463964 120.815195 
L 171.588479 121.298468 
L 170.709663 121.775634 
L 169.830397 122.251972 
L 168.947096 122.72091 
L 168.055617 123.174851 
L 167.156693 123.615138 
L 166.268826 124.075705 
L 165.371249 124.518462 
L 164.474102 124.962009 
L 163.586992 125.423962 
L 162.698255 125.882931 
L 161.788385 126.303144 
L 160.886626 126.738233 
L 159.973378 127.152251 
L 159.080426 127.60349 
L 158.165783 128.01495 
L 157.269487 128.460056 
L 156.356043 128.873715 
L 155.428265 129.261087 
L 154.516873 129.678509 
L 153.588533 130.064849 
L 152.684234 130.495278 
L 151.747161 130.865603 
L 150.83542 131.282385 
L 149.902003 131.659414 
L 149.000018 132.094088 
L 148.105011 132.541559 
L 147.18329 132.940039 
L 146.279713 133.371792 
L 144.570586 134.203608 
L 145.533729 133.734375 
L 145.580493 132.734375 
L 145.652537 131.734375 
L 145.702679 130.734375 
L 145.720069 129.734375 
L 145.747072 128.734375 
L 145.766499 127.734375 
L 145.785837 126.734375 
L 145.824086 125.734375 
L 145.840519 124.734375 
L 145.848888 123.734375 
L 145.853207 122.734375 
L 145.859762 121.734375 
L 145.857216 120.734375 
L 145.851757 119.734375 
L 145.835329 118.734375 
L 145.803394 117.734375 
L 145.765414 116.734375 
L 145.73061 115.734375 
L 145.667538 114.734375 
L 145.646111 113.734375 
L 145.595493 112.734375 
L 145.570536 111.734375 
L 145.514902 110.734375 
L 145.483673 109.734375 
L 145.433529 108.734375 
L 145.401036 107.734375 
L 145.320624 106.734375 
L 145.251698 105.734375 
L 145.136001 104.734375 
L 145.060522 103.734375 
L 144.944997 102.734375 
L 144.865513 101.734375 
L 144.757072 100.734375 
L 144.717704 99.734375 
L 144.614836 98.734375 
L 144.515038 97.734375 
L 144.469541 96.484375 
M 215.008058 96.484375 
" style="fill:none;stroke:#000000;stroke-linecap:round;stroke-width:2;"/>
      <path clip-path="url(#p03e8ff33ab)" d="M 150.388507 77.359375 
L 151.388507 77.390811 
L 152.388507 77.427752 
L 153.388507 77.525498 
L 154.388507 77.55802 
L 155.388507 77.631645 
L 156.868507 77.67021 
" style="fill:none;stroke:#ffffff;stroke-linecap:round;stroke-width:4;"/>
      <path clip-path="url(#p03e8ff33ab)" d="M 150.388507 77.359375 
L 151.388507 77.390811 
L 152.388507 77.427752 
L 153.388507 77.525498 
L 154.388507 77.55802 
L 155.388507 77.631645 
L 156.868507 77.67021 
" style="fill:none;stroke:#000000;stroke-linecap:round;stroke-width:2;"/>
      <path clip-path="url(#p03e8ff33ab)" d="M 150.388507 115.609375 
L 151.388507 115.640811 
L 152.388507 115.677752 
L 153.388507 115.775498 
L 154.388507 115.80802 
L 155.388507 115.881645 
L 156.868507 115.92021 
" style="fill:none;stroke:#ffffff;stroke-linecap:round;stroke-width:4;"/>
      <path clip-path="url(#p03e8ff33ab)" d="M 150.388507 115.609375 
L 151.388507 115.640811 
L 152.388507 115.677752 
L 153.388507 115.775498 
L 154.388507 115.80802 
L 155.388507 115.881645 
L 156.868507 115.92021 
" style="fill:none;stroke:#000000;stroke-linecap:round;stroke-width:2;"/>
      <path clip-path="url(#p03e8ff33ab)" d="M 153.628507 118.669375 
L 153.659944 117.669375 
L 153.696884 116.669375 
L 153.794631 115.669375 
L 153.827152 114.669375 
L 153.900777 113.669375 
L 153.939342 112.549375 
" style="fill:none;stroke:#ffffff;stroke-linecap:round;stroke-width:4;"/>
      <path clip-path="url(#p03e8ff33ab)" d="M 153.628507 118.669375 
L 153.659944 117.669375 
L 153.696884 116.669375 
L 153.794631 115.669375 
L 153.827152 114.669375 
L 153.900777 113.669375 
L 153.939342 112.549375 
" style="fill:none;stroke:#000000;stroke-linecap:round;stroke-width:2;"/>
      <path clip-path="url(#p03e8ff33ab)" d="M 144.86 115.609375 
L 143.86 115.577939 
L 142.86 115.540998 
L 141.86 115.443252 
L 140.86 115.41073 
L 139.86 115.337105 
L 138.86 115.29854 
L 137.86 115.263127 
L 136.86 115.205487 
L 135.86 115.135101 
L 134.86 115.083136 
L 133.86 115.024047 
L 132.71 114.935726 
L 131.71 114.889581 
L 130.71 114.84717 
L 129.71 114.816678 
L 128.71 114.790633 
L 127.71 114.769433 
L 126.71 114.715132 
L 125.71 114.687194 
L 124.71 114.65747 
L 123.71 114.632075 
L 122.71 114.620875 
L 121.71 114.610751 
L 120.56 114.610955 
" style="fill:none;stroke:#ffffff;stroke-linecap:round;stroke-width:4;"/>
      <path clip-path="url(#p03e8ff33ab)" d="M 144.86 115.609375 
L 143.86 115.577939 
L 142.86 115.540998 
L 141.86 115.443252 
L 140.86 115.41073 
L 139.86 115.337105 
L 138.86 115.29854 
L 137.86 115.263127 
L 136.86 115.205487 
L 135.86 115.135101 
L 134.86 115.083136 
L 133.86 115.024047 
L 132.71 114.935726 
L 131.71 114.889581 
L 130.71 114.84717 
L 129.71 114.816678 
L 128.71 114.790633 
L 127.71 114.769433 
L 126.71 114.715132 
L 125.71 114.687194 
L 124.71 114.65747 
L 123.71 114.632075 
L 122.71 114.620875 
L 121.71 114.610751 
L 120.56 114.610955 
" style="fill:none;stroke:#000000;stroke-linecap:round;stroke-width:2;"/>
      <path clip-path="url(#p03e8ff33ab)" d="M 120.56 115.609375 
L 120.528564 116.609375 
L 120.491623 117.609375 
L 120.393877 118.609375 
L 120.361355 119.609375 
L 120.28773 120.609375 
L 120.249165 121.609375 
L 120.213752 122.609375 
L 120.156112 123.609375 
L 120.085726 124.789375 
L 120.033761 125.789375 
L 119.974672 126.789375 
L 119.886351 127.789375 
L 119.840206 128.789375 
L 119.797795 129.789375 
L 119.767303 130.789375 
L 119.741258 131.789375 
L 119.720058 132.789375 
L 119.665757 133.969375 
" style="fill:none;stroke:#ffffff;stroke-linecap:round;stroke-width:4;"/>
      <path clip-path="url(#p03e8ff33ab)" d="M 120.56 115.609375 
L 120.528564 116.609375 
L 120.491623 117.609375 
L 120.393877 118.609375 
L 120.361355 119.609375 
L 120.28773 120.609375 
L 120.249165 121.609375 
L 120.213752 122.609375 
L 120.156112 123.609375 
L 120.085726 124.789375 
L 120.033761 125.789375 
L 119.974672 126.789375 
L 119.886351 127.789375 
L 119.840206 128.789375 
L 119.797795 129.789375 
L 119.767303 130.789375 
L 119.741258 131.789375 
L 119.720058 132.789375 
L 119.665757 133.969375 
" style="fill:none;stroke:#000000;stroke-linecap:round;stroke-width:2;"/>
      <path clip-path="url(#p03e8ff33ab)" d="M 120.56 133.969375 
L 120.528564 134.969375 
L 120.491623 135.969375 
L 120.393877 136.969375 
L 120.361355 137.969375 
L 120.28773 138.969375 
L 120.249165 139.969375 
L 120.213752 140.969375 
L 120.156112 141.969375 
L 120.085726 142.969375 
L 120.033761 143.969375 
L 119.974672 144.969375 
L 119.886351 146.209375 
L 119.56 145.489581 
L 118.56 145.44717 
L 117.56 145.416678 
L 116.56 145.390633 
L 115.56 145.369433 
L 114.56 145.315132 
L 113.56 145.287194 
L 112.46 145.25747 
L 113.46 147.186675 
L 114.46 147.197875 
L 115.46 147.207999 
L 116.46 147.207795 
L 117.46 147.198285 
L 118.46 147.186631 
L 119.46 147.155602 
L 120.46 147.144434 
L 121.46 147.114317 
L 122.46 147.05454 
L 123.46 147.017348 
L 124.46 146.978252 
L 125.46 146.935812 
L 126.46 146.903047 
L 127.46 146.835621 
L 128.66 146.796495 
M 114.89 149.881375 
L 115.89 149.93312 
L 116.89 150.014798 
L 117.89 150.055196 
L 118.89 150.117819 
L 119.89 150.229956 
L 120.89 150.297091 
L 121.89 150.397975 
L 122.89 150.436688 
L 123.89 150.486589 
L 124.89 150.524515 
L 126.23 150.584615 
M 118.94 153.553375 
L 119.94 153.674414 
L 120.94 153.747234 
L 122.18 153.834767 
" style="fill:none;stroke:#ffffff;stroke-linecap:round;stroke-width:4;"/>
      <path clip-path="url(#p03e8ff33ab)" d="M 120.56 133.969375 
L 120.528564 134.969375 
L 120.491623 135.969375 
L 120.393877 136.969375 
L 120.361355 137.969375 
L 120.28773 138.969375 
L 120.249165 139.969375 
L 120.213752 140.969375 
L 120.156112 141.969375 
L 120.085726 142.969375 
L 120.033761 143.969375 
L 119.974672 144.969375 
L 119.886351 146.209375 
L 119.56 145.489581 
L 118.56 145.44717 
L 117.56 145.416678 
L 116.56 145.390633 
L 115.56 145.369433 
L 114.56 145.315132 
L 113.56 145.287194 
L 112.46 145.25747 
L 113.46 147.186675 
L 114.46 147.197875 
L 115.46 147.207999 
L 116.46 147.207795 
L 117.46 147.198285 
L 118.46 147.186631 
L 119.46 147.155602 
L 120.46 147.144434 
L 121.46 147.114317 
L 122.46 147.05454 
L 123.46 147.017348 
L 124.46 146.978252 
L 125.46 146.935812 
L 126.46 146.903047 
L 127.46 146.835621 
L 128.66 146.796495 
M 114.89 149.881375 
L 115.89 149.93312 
L 116.89 150.014798 
L 117.89 150.055196 
L 118.89 150.117819 
L 119.89 150.229956 
L 120.89 150.297091 
L 121.89 150.397975 
L 122.89 150.436688 
L 123.89 150.486589 
L 124.89 150.524515 
L 126.23 150.584615 
M 118.94 153.553375 
L 119.94 153.674414 
L 120.94 153.747234 
L 122.18 153.834767 
" style="fill:none;stroke:#000000;stroke-linecap:round;stroke-width:2;"/>
      <path clip-path="url(#p03e8ff33ab)" d="M 144.86 77.359375 
L 143.86 77.327939 
L 142.86 77.290998 
L 141.86 77.193252 
L 140.86 77.16073 
L 139.86 77.087105 
L 138.86 77.04854 
L 137.86 77.013127 
L 136.76 76.955487 
L 135.76 76.885101 
L 134.76 76.833136 
L 133.76 76.774047 
L 132.76 76.685726 
L 131.76 76.639581 
L 130.76 76.59717 
L 129.76 76.566678 
L 128.66 76.540633 
" style="fill:none;stroke:#ffffff;stroke-linecap:round;stroke-width:4;"/>
      <path clip-path="url(#p03e8ff33ab)" d="M 144.86 77.359375 
L 143.86 77.327939 
L 142.86 77.290998 
L 141.86 77.193252 
L 140.86 77.16073 
L 139.86 77.087105 
L 138.86 77.04854 
L 137.86 77.013127 
L 136.76 76.955487 
L 135.76 76.885101 
L 134.76 76.833136 
L 133.76 76.774047 
L 132.76 76.685726 
L 131.76 76.639581 
L 130.76 76.59717 
L 129.76 76.566678 
L 128.66 76.540633 
" style="fill:none;stroke:#000000;stroke-linecap:round;stroke-width:2;"/>
      <path clip-path="url(#p03e8ff33ab)" d="M 128.66 77.359375 
" style="fill:none;stroke:#ffffff;stroke-linecap:round;stroke-width:4;"/>
      <path clip-path="url(#p03e8ff33ab)" d="M 128.66 77.359375 
" style="fill:none;stroke:#000000;stroke-linecap:round;stroke-width:2;"/>
      <path clip-path="url(#p03e8ff33ab)" d="M 125.42 77.359375 
L 124.42 77.327939 
L 123.42 77.290998 
L 122.42 77.193252 
L 121.42 77.16073 
L 120.42 77.087105 
L 119.42 77.04854 
L 118.42 77.013127 
L 117.42 76.955487 
L 116.42 76.885101 
L 115.42 76.833136 
L 114.42 76.774047 
L 113.42 76.685726 
L 112.42 76.639581 
L 111.42 76.59717 
L 110.42 76.566678 
L 109.42 76.540633 
L 108.42 76.519433 
L 107.42 76.465132 
L 106.42 76.437194 
L 105.42 76.40747 
L 104.42 76.382075 
L 103.42 76.370875 
L 102.42 76.360751 
L 101.42 76.360955 
L 100.42 76.370465 
L 99.42 76.382119 
L 98.42 76.413148 
L 97.42 76.424316 
L 96.42 76.454433 
L 95.42 76.51421 
L 94.42 76.551402 
L 93.02 76.590498 
L 92.002156 78.060592 
L 91.700233 79.014488 
L 91.430996 79.979919 
L 91.135071 80.935931 
L 90.842493 81.893124 
L 90.576229 82.859605 
L 90.277725 83.814707 
L 89.96254 84.883213 
L 90.240013 83.97715 
L 89.840563 83.057676 
L 89.401241 82.152274 
L 89.025258 81.224518 
L 88.634648 80.301924 
L 88.256094 79.375075 
L 87.847058 78.458984 
L 87.402476 77.555439 
L 87.003448 76.635816 
L 86.592112 75.720538 
L 86.22804 74.788577 
L 85.846903 73.86264 
L 85.449584 72.942414 
L 85.054324 72.021461 
L 84.648971 71.104071 
L 84.215515 69.958017 
L 85.316633 70.909819 
L 85.005172 71.860348 
L 84.69077 72.809839 
L 84.382839 73.761614 
L 84.096952 74.721169 
L 83.797206 75.675832 
L 83.498207 76.630759 
L 83.179878 77.578864 
L 82.861928 78.527103 
L 82.532326 79.471229 
L 82.201786 80.415024 
L 81.868507 81.357853 
L 81.533867 82.300201 
L 81.188546 83.238779 
L 80.847814 84.178977 
L 80.419807 85.326954 
L 78.309092 84.376298 
L 77.992523 83.427572 
L 77.677113 82.478437 
L 77.36358 81.528639 
L 77.046413 80.580124 
L 76.772793 79.61624 
L 76.510947 78.6482 
L 76.208905 77.694347 
L 75.939797 76.72887 
L 75.657942 75.767892 
L 75.356905 74.813684 
L 75.109073 73.840698 
L 74.803161 72.88821 
L 74.500032 71.934741 
L 74.196455 70.981429 
L 73.84044 69.808043 
L 74.005834 70.729538 
L 73.636997 71.659816 
L 73.213711 72.570877 
L 72.834441 73.497473 
L 72.460064 74.425797 
L 72.089408 75.355433 
L 71.654399 76.262357 
L 71.282324 77.191492 
L 70.890905 78.113801 
L 70.492111 79.033506 
L 70.060744 79.941715 
L 69.693045 80.872395 
L 69.316963 81.800117 
L 68.919553 82.720311 
L 68.540766 83.647078 
L 68.059894 84.776397 
L 69.076085 83.823242 
L 68.808816 82.857116 
L 68.498603 81.906146 
L 68.192772 80.95363 
L 67.899363 79.99673 
L 67.586888 79.046559 
L 67.267221 78.098927 
L 66.9596 77.147043 
L 66.635559 76.200954 
L 66.314476 75.253821 
L 65.99208 74.307151 
L 65.664602 73.362276 
L 65.336274 72.4177 
L 64.998223 71.476556 
L 64.652872 70.537988 
L 64.238085 69.385345 
L 62.092467 70.336584 
L 61.781872 71.287419 
L 61.48317 72.242451 
L 61.174831 73.194082 
L 60.86306 74.144501 
L 60.59508 75.110376 
L 60.332546 76.078173 
L 60.050908 77.158519 
L 59.62 76.80693 
L 58.62 76.860864 
L 57.62 76.896115 
L 56.62 77.002203 
L 55.62 77.054467 
L 54.62 77.091374 
L 53.62 77.122405 
L 52.62 77.18356 
L 51.62 77.25098 
L 50.62 77.299886 
L 49.62 77.365078 
L 48.62 77.403266 
L 47.62 77.445262 
L 46.62 77.487279 
L 45.62 77.546795 
L 44.62 77.659955 
L 43.62 77.712206 
L 42.62 77.751624 
L 41.62 77.798725 
L 40.62 77.855505 
L 39.62 77.888168 
L 38.62 77.924346 
L 37.62 77.956436 
L 36.62 77.990716 
L 35.62 78.049094 
L 34.62 78.094279 
L 33.62 78.123903 
L 32.62 78.174289 
L 31.62 78.199486 
L 30.62 78.220537 
L 29.62 78.255505 
L 28.22 78.279795 
" style="fill:none;stroke:#ffffff;stroke-linecap:round;stroke-width:4;"/>
      <path clip-path="url(#p03e8ff33ab)" d="M 125.42 77.359375 
L 124.42 77.327939 
L 123.42 77.290998 
L 122.42 77.193252 
L 121.42 77.16073 
L 120.42 77.087105 
L 119.42 77.04854 
L 118.42 77.013127 
L 117.42 76.955487 
L 116.42 76.885101 
L 115.42 76.833136 
L 114.42 76.774047 
L 113.42 76.685726 
L 112.42 76.639581 
L 111.42 76.59717 
L 110.42 76.566678 
L 109.42 76.540633 
L 108.42 76.519433 
L 107.42 76.465132 
L 106.42 76.437194 
L 105.42 76.40747 
L 104.42 76.382075 
L 103.42 76.370875 
L 102.42 76.360751 
L 101.42 76.360955 
L 100.42 76.370465 
L 99.42 76.382119 
L 98.42 76.413148 
L 97.42 76.424316 
L 96.42 76.454433 
L 95.42 76.51421 
L 94.42 76.551402 
L 93.02 76.590498 
L 92.002156 78.060592 
L 91.700233 79.014488 
L 91.430996 79.979919 
L 91.135071 80.935931 
L 90.842493 81.893124 
L 90.576229 82.859605 
L 90.277725 83.814707 
L 89.96254 84.883213 
L 90.240013 83.97715 
L 89.840563 83.057676 
L 89.401241 82.152274 
L 89.025258 81.224518 
L 88.634648 80.301924 
L 88.256094 79.375075 
L 87.847058 78.458984 
L 87.402476 77.555439 
L 87.003448 76.635816 
L 86.592112 75.720538 
L 86.22804 74.788577 
L 85.846903 73.86264 
L 85.449584 72.942414 
L 85.054324 72.021461 
L 84.648971 71.104071 
L 84.215515 69.958017 
L 85.316633 70.909819 
L 85.005172 71.860348 
L 84.69077 72.809839 
L 84.382839 73.761614 
L 84.096952 74.721169 
L 83.797206 75.675832 
L 83.498207 76.630759 
L 83.179878 77.578864 
L 82.861928 78.527103 
L 82.532326 79.471229 
L 82.201786 80.415024 
L 81.868507 81.357853 
L 81.533867 82.300201 
L 81.188546 83.238779 
L 80.847814 84.178977 
L 80.419807 85.326954 
L 78.309092 84.376298 
L 77.992523 83.427572 
L 77.677113 82.478437 
L 77.36358 81.528639 
L 77.046413 80.580124 
L 76.772793 79.61624 
L 76.510947 78.6482 
L 76.208905 77.694347 
L 75.939797 76.72887 
L 75.657942 75.767892 
L 75.356905 74.813684 
L 75.109073 73.840698 
L 74.803161 72.88821 
L 74.500032 71.934741 
L 74.196455 70.981429 
L 73.84044 69.808043 
L 74.005834 70.729538 
L 73.636997 71.659816 
L 73.213711 72.570877 
L 72.834441 73.497473 
L 72.460064 74.425797 
L 72.089408 75.355433 
L 71.654399 76.262357 
L 71.282324 77.191492 
L 70.890905 78.113801 
L 70.492111 79.033506 
L 70.060744 79.941715 
L 69.693045 80.872395 
L 69.316963 81.800117 
L 68.919553 82.720311 
L 68.540766 83.647078 
L 68.059894 84.776397 
L 69.076085 83.823242 
L 68.808816 82.857116 
L 68.498603 81.906146 
L 68.192772 80.95363 
L 67.899363 79.99673 
L 67.586888 79.046559 
L 67.267221 78.098927 
L 66.9596 77.147043 
L 66.635559 76.200954 
L 66.314476 75.253821 
L 65.99208 74.307151 
L 65.664602 73.362276 
L 65.336274 72.4177 
L 64.998223 71.476556 
L 64.652872 70.537988 
L 64.238085 69.385345 
L 62.092467 70.336584 
L 61.781872 71.287419 
L 61.48317 72.242451 
L 61.174831 73.194082 
L 60.86306 74.144501 
L 60.59508 75.110376 
L 60.332546 76.078173 
L 60.050908 77.158519 
L 59.62 76.80693 
L 58.62 76.860864 
L 57.62 76.896115 
L 56.62 77.002203 
L 55.62 77.054467 
L 54.62 77.091374 
L 53.62 77.122405 
L 52.62 77.18356 
L 51.62 77.25098 
L 50.62 77.299886 
L 49.62 77.365078 
L 48.62 77.403266 
L 47.62 77.445262 
L 46.62 77.487279 
L 45.62 77.546795 
L 44.62 77.659955 
L 43.62 77.712206 
L 42.62 77.751624 
L 41.62 77.798725 
L 40.62 77.855505 
L 39.62 77.888168 
L 38.62 77.924346 
L 37.62 77.956436 
L 36.62 77.990716 
L 35.62 78.049094 
L 34.62 78.094279 
L 33.62 78.123903 
L 32.62 78.174289 
L 31.62 78.199486 
L 30.62 78.220537 
L 29.62 78.255505 
L 28.22 78.279795 
" style="fill:none;stroke:#000000;stroke-linecap:round;stroke-width:2;"/>
      <path clip-path="url(#p03e8ff33ab)" d="M 128.66 77.359375 
L 128.691436 76.359375 
L 128.728377 75.359375 
L 128.826123 74.359375 
L 128.858645 73.359375 
L 128.93227 72.359375 
L 128.970835 71.359375 
L 129.006248 70.359375 
L 129.063888 69.359375 
L 129.134274 68.359375 
L 129.186239 67.359375 
L 129.245328 66.359375 
L 129.333649 65.359375 
L 129.379794 64.359375 
L 129.422205 63.359375 
L 129.452697 62.359375 
L 129.478742 61.359375 
L 129.499942 60.359375 
L 129.554243 59.359375 
L 129.582181 58.359375 
L 129.611905 57.359375 
L 129.6373 56.359375 
L 129.6485 54.409375 
L 129.658624 53.409375 
L 129.65842 52.409375 
L 129.64891 51.409375 
L 129.637256 50.409375 
L 129.606227 49.409375 
L 129.595059 48.409375 
L 129.564942 47.409375 
L 129.505165 46.409375 
L 129.467973 45.409375 
L 129.428877 44.409375 
L 129.386437 43.409375 
L 129.353672 42.409375 
L 129.286246 41.409375 
L 129.24712 40.409375 
L 129.204445 39.409375 
L 129.133865 38.409375 
L 129.097474 37.409375 
L 129.039071 36.409375 
L 128.928118 35.409375 
L 128.85746 34.409375 
L 128.74452 33.409375 
L 128.698747 31.459375 
" style="fill:none;stroke:#ffffff;stroke-linecap:round;stroke-width:4;"/>
      <path clip-path="url(#p03e8ff33ab)" d="M 128.66 77.359375 
L 128.691436 76.359375 
L 128.728377 75.359375 
L 128.826123 74.359375 
L 128.858645 73.359375 
L 128.93227 72.359375 
L 128.970835 71.359375 
L 129.006248 70.359375 
L 129.063888 69.359375 
L 129.134274 68.359375 
L 129.186239 67.359375 
L 129.245328 66.359375 
L 129.333649 65.359375 
L 129.379794 64.359375 
L 129.422205 63.359375 
L 129.452697 62.359375 
L 129.478742 61.359375 
L 129.499942 60.359375 
L 129.554243 59.359375 
L 129.582181 58.359375 
L 129.611905 57.359375 
L 129.6373 56.359375 
L 129.6485 54.409375 
L 129.658624 53.409375 
L 129.65842 52.409375 
L 129.64891 51.409375 
L 129.637256 50.409375 
L 129.606227 49.409375 
L 129.595059 48.409375 
L 129.564942 47.409375 
L 129.505165 46.409375 
L 129.467973 45.409375 
L 129.428877 44.409375 
L 129.386437 43.409375 
L 129.353672 42.409375 
L 129.286246 41.409375 
L 129.24712 40.409375 
L 129.204445 39.409375 
L 129.133865 38.409375 
L 129.097474 37.409375 
L 129.039071 36.409375 
L 128.928118 35.409375 
L 128.85746 34.409375 
L 128.74452 33.409375 
L 128.698747 31.459375 
" style="fill:none;stroke:#000000;stroke-linecap:round;stroke-width:2;"/>
      <path clip-path="url(#p03e8ff33ab)" d="M 128.66 31.459375 
L 129.66 31.490811 
L 130.66 31.527752 
L 131.66 31.625498 
L 132.66 31.65802 
L 133.66 31.731645 
L 134.66 31.77021 
L 135.66 31.805623 
L 136.66 31.863263 
L 137.66 31.933649 
L 138.66 31.985614 
L 139.66 32.044703 
L 140.66 32.133024 
L 141.66 32.179169 
L 142.66 32.22158 
L 143.66 32.252072 
L 144.66 32.278117 
L 145.66 32.299317 
L 146.66 32.353618 
L 147.66 32.381556 
L 148.66 32.41128 
L 149.66 32.436675 
L 150.66 32.447875 
L 151.66 32.457999 
L 152.66 32.457795 
L 153.66 32.448285 
L 154.66 32.436631 
L 155.66 32.405602 
L 156.66 32.394434 
L 157.66 32.364317 
L 158.66 32.30454 
L 159.66 32.267348 
L 161.06 32.228252 
L 162.077844 30.758158 
L 162.379767 29.804262 
L 162.649004 28.838831 
L 162.944929 27.882819 
L 163.237507 26.925626 
L 163.503771 25.959145 
L 163.802275 25.004043 
L 164.11746 23.935537 
L 163.839987 24.8416 
L 164.239437 25.761074 
L 164.678759 26.666476 
L 165.054742 27.594232 
L 165.445352 28.516826 
L 165.823906 29.443675 
L 166.232942 30.359766 
L 166.677524 31.263311 
L 167.076552 32.182934 
L 167.487888 33.098212 
L 167.85196 34.030173 
L 168.233097 34.95611 
L 168.630416 35.876336 
L 169.025676 36.797289 
L 169.431029 37.714679 
L 169.864485 38.860733 
L 168.763367 37.908931 
L 169.074828 36.958402 
L 169.38923 36.008911 
L 169.697161 35.057136 
L 169.983048 34.097581 
L 170.282794 33.142918 
L 170.581793 32.187991 
L 170.900122 31.239886 
L 171.218072 30.291647 
L 171.547674 29.347521 
L 171.878214 28.403726 
L 172.211493 27.460897 
L 172.546133 26.518549 
L 172.891454 25.579971 
L 173.232186 24.639773 
L 173.660193 23.491796 
L 175.770908 24.442452 
L 176.087477 25.391178 
L 176.402887 26.340313 
L 176.71642 27.290111 
L 177.033587 28.238626 
L 177.307207 29.20251 
L 177.569053 30.17055 
L 177.871095 31.124403 
L 178.140203 32.08988 
L 178.422058 33.050858 
L 178.723095 34.005066 
L 178.970927 34.978052 
L 179.276839 35.93054 
L 179.579968 36.884009 
L 179.883545 37.837321 
L 180.23956 39.010707 
L 180.074166 38.089212 
L 180.443003 37.158934 
L 180.866289 36.247873 
L 181.245559 35.321277 
L 181.619936 34.392953 
L 181.990592 33.463317 
L 182.425601 32.556393 
L 182.797676 31.627258 
L 183.189095 30.704949 
L 183.587889 29.785244 
L 184.019256 28.877035 
L 184.386955 27.946355 
L 184.763037 27.018633 
L 185.160447 26.098439 
L 185.539234 25.171672 
L 186.020106 24.042353 
L 185.003915 24.995508 
L 185.271184 25.961634 
L 185.581397 26.912604 
L 185.887228 27.86512 
L 186.180637 28.82202 
L 186.493112 29.772191 
L 186.812779 30.719823 
L 187.1204 31.671707 
L 187.444441 32.617796 
L 187.765524 33.564929 
L 188.08792 34.511599 
L 188.415398 35.456474 
L 188.743726 36.40105 
L 189.081777 37.342194 
L 189.427128 38.280762 
L 189.841915 39.433405 
L 191.987533 38.482166 
L 192.298128 37.531331 
L 192.59683 36.576299 
L 192.905169 35.624668 
L 193.21694 34.674249 
L 193.48492 33.708374 
L 193.747454 32.740577 
L 194.029092 31.660231 
L 194.46 32.01182 
L 195.46 31.957886 
L 196.46 31.922635 
L 197.46 31.816547 
L 198.46 31.764283 
L 199.46 31.727376 
L 200.46 31.696345 
L 201.46 31.63519 
L 202.46 31.56777 
L 203.46 31.518864 
L 204.46 31.453672 
L 205.46 31.415484 
L 206.46 31.373488 
L 207.46 31.331471 
L 208.46 31.271955 
L 209.46 31.158795 
L 210.46 31.106544 
L 211.46 31.067126 
L 212.46 31.020025 
L 213.46 30.963245 
L 214.46 30.930582 
L 215.46 30.894404 
L 216.46 30.862314 
L 217.46 30.828034 
L 218.46 30.769656 
L 219.46 30.724471 
L 220.46 30.694847 
L 221.46 30.644461 
L 222.46 30.619264 
L 223.46 30.598213 
L 224.46 30.563245 
L 225.86 30.538955 
" style="fill:none;stroke:#ffffff;stroke-linecap:round;stroke-width:4;"/>
      <path clip-path="url(#p03e8ff33ab)" d="M 128.66 31.459375 
L 129.66 31.490811 
L 130.66 31.527752 
L 131.66 31.625498 
L 132.66 31.65802 
L 133.66 31.731645 
L 134.66 31.77021 
L 135.66 31.805623 
L 136.66 31.863263 
L 137.66 31.933649 
L 138.66 31.985614 
L 139.66 32.044703 
L 140.66 32.133024 
L 141.66 32.179169 
L 142.66 32.22158 
L 143.66 32.252072 
L 144.66 32.278117 
L 145.66 32.299317 
L 146.66 32.353618 
L 147.66 32.381556 
L 148.66 32.41128 
L 149.66 32.436675 
L 150.66 32.447875 
L 151.66 32.457999 
L 152.66 32.457795 
L 153.66 32.448285 
L 154.66 32.436631 
L 155.66 32.405602 
L 156.66 32.394434 
L 157.66 32.364317 
L 158.66 32.30454 
L 159.66 32.267348 
L 161.06 32.228252 
L 162.077844 30.758158 
L 162.379767 29.804262 
L 162.649004 28.838831 
L 162.944929 27.882819 
L 163.237507 26.925626 
L 163.503771 25.959145 
L 163.802275 25.004043 
L 164.11746 23.935537 
L 163.839987 24.8416 
L 164.239437 25.761074 
L 164.678759 26.666476 
L 165.054742 27.594232 
L 165.445352 28.516826 
L 165.823906 29.443675 
L 166.232942 30.359766 
L 166.677524 31.263311 
L 167.076552 32.182934 
L 167.487888 33.098212 
L 167.85196 34.030173 
L 168.233097 34.95611 
L 168.630416 35.876336 
L 169.025676 36.797289 
L 169.431029 37.714679 
L 169.864485 38.860733 
L 168.763367 37.908931 
L 169.074828 36.958402 
L 169.38923 36.008911 
L 169.697161 35.057136 
L 169.983048 34.097581 
L 170.282794 33.142918 
L 170.581793 32.187991 
L 170.900122 31.239886 
L 171.218072 30.291647 
L 171.547674 29.347521 
L 171.878214 28.403726 
L 172.211493 27.460897 
L 172.546133 26.518549 
L 172.891454 25.579971 
L 173.232186 24.639773 
L 173.660193 23.491796 
L 175.770908 24.442452 
L 176.087477 25.391178 
L 176.402887 26.340313 
L 176.71642 27.290111 
L 177.033587 28.238626 
L 177.307207 29.20251 
L 177.569053 30.17055 
L 177.871095 31.124403 
L 178.140203 32.08988 
L 178.422058 33.050858 
L 178.723095 34.005066 
L 178.970927 34.978052 
L 179.276839 35.93054 
L 179.579968 36.884009 
L 179.883545 37.837321 
L 180.23956 39.010707 
L 180.074166 38.089212 
L 180.443003 37.158934 
L 180.866289 36.247873 
L 181.245559 35.321277 
L 181.619936 34.392953 
L 181.990592 33.463317 
L 182.425601 32.556393 
L 182.797676 31.627258 
L 183.189095 30.704949 
L 183.587889 29.785244 
L 184.019256 28.877035 
L 184.386955 27.946355 
L 184.763037 27.018633 
L 185.160447 26.098439 
L 185.539234 25.171672 
L 186.020106 24.042353 
L 185.003915 24.995508 
L 185.271184 25.961634 
L 185.581397 26.912604 
L 185.887228 27.86512 
L 186.180637 28.82202 
L 186.493112 29.772191 
L 186.812779 30.719823 
L 187.1204 31.671707 
L 187.444441 32.617796 
L 187.765524 33.564929 
L 188.08792 34.511599 
L 188.415398 35.456474 
L 188.743726 36.40105 
L 189.081777 37.342194 
L 189.427128 38.280762 
L 189.841915 39.433405 
L 191.987533 38.482166 
L 192.298128 37.531331 
L 192.59683 36.576299 
L 192.905169 35.624668 
L 193.21694 34.674249 
L 193.48492 33.708374 
L 193.747454 32.740577 
L 194.029092 31.660231 
L 194.46 32.01182 
L 195.46 31.957886 
L 196.46 31.922635 
L 197.46 31.816547 
L 198.46 31.764283 
L 199.46 31.727376 
L 200.46 31.696345 
L 201.46 31.63519 
L 202.46 31.56777 
L 203.46 31.518864 
L 204.46 31.453672 
L 205.46 31.415484 
L 206.46 31.373488 
L 207.46 31.331471 
L 208.46 31.271955 
L 209.46 31.158795 
L 210.46 31.106544 
L 211.46 31.067126 
L 212.46 31.020025 
L 213.46 30.963245 
L 214.46 30.930582 
L 215.46 30.894404 
L 216.46 30.862314 
L 217.46 30.828034 
L 218.46 30.769656 
L 219.46 30.724471 
L 220.46 30.694847 
L 221.46 30.644461 
L 222.46 30.619264 
L 223.46 30.598213 
L 224.46 30.563245 
L 225.86 30.538955 
" style="fill:none;stroke:#000000;stroke-linecap:round;stroke-width:2;"/>
      <path clip-path="url(#p03e8ff33ab)" d="M 225.86 31.459375 
L 225.828564 32.459375 
L 225.791623 33.459375 
L 225.693877 34.459375 
L 225.661355 35.459375 
L 225.58773 36.459375 
L 225.549165 37.459375 
L 225.513752 38.459375 
L 225.456112 39.459375 
L 225.385726 40.459375 
L 225.333761 41.459375 
L 225.274672 42.459375 
L 225.186351 43.459375 
L 225.140206 44.459375 
L 225.097795 45.459375 
L 225.067303 46.459375 
L 225.041258 47.459375 
L 225.020058 48.459375 
L 224.965757 49.459375 
L 224.937819 50.459375 
L 224.908095 51.459375 
L 224.8827 52.459375 
L 224.8715 53.459375 
L 224.861376 54.459375 
L 224.86158 55.459375 
L 224.87109 56.459375 
L 224.882744 57.459375 
L 224.913773 58.459375 
L 224.924941 59.459375 
L 224.955058 60.459375 
L 225.014835 61.459375 
L 225.052027 62.459375 
L 225.091123 63.971875 
L 225.133563 64.971875 
L 225.166328 65.971875 
L 225.233754 66.971875 
L 225.27288 67.971875 
L 225.315555 68.971875 
L 225.386135 69.971875 
L 225.422526 70.971875 
L 225.480929 71.971875 
L 225.591882 72.971875 
L 225.66254 73.971875 
L 225.77548 74.971875 
L 225.821253 75.971875 
L 225.882536 76.971875 
L 225.931035 77.971875 
L 226.011858 78.971875 
L 226.130377 79.971875 
L 226.200588 80.971875 
L 226.28385 81.971875 
L 226.316992 82.971875 
L 226.368229 83.971875 
L 226.436628 84.971875 
L 226.502843 85.971875 
L 226.57976 86.971875 
L 226.607076 87.971875 
L 226.633553 88.971875 
L 226.656204 89.971875 
L 226.675735 90.971875 
L 226.702129 91.971875 
L 226.7519 92.971875 
L 226.786973 93.971875 
L 226.822839 94.971875 
L 226.838206 96.484375 
" style="fill:none;stroke:#ffffff;stroke-linecap:round;stroke-width:4;"/>
      <path clip-path="url(#p03e8ff33ab)" d="M 225.86 31.459375 
L 225.828564 32.459375 
L 225.791623 33.459375 
L 225.693877 34.459375 
L 225.661355 35.459375 
L 225.58773 36.459375 
L 225.549165 37.459375 
L 225.513752 38.459375 
L 225.456112 39.459375 
L 225.385726 40.459375 
L 225.333761 41.459375 
L 225.274672 42.459375 
L 225.186351 43.459375 
L 225.140206 44.459375 
L 225.097795 45.459375 
L 225.067303 46.459375 
L 225.041258 47.459375 
L 225.020058 48.459375 
L 224.965757 49.459375 
L 224.937819 50.459375 
L 224.908095 51.459375 
L 224.8827 52.459375 
L 224.8715 53.459375 
L 224.861376 54.459375 
L 224.86158 55.459375 
L 224.87109 56.459375 
L 224.882744 57.459375 
L 224.913773 58.459375 
L 224.924941 59.459375 
L 224.955058 60.459375 
L 225.014835 61.459375 
L 225.052027 62.459375 
L 225.091123 63.971875 
L 225.133563 64.971875 
L 225.166328 65.971875 
L 225.233754 66.971875 
L 225.27288 67.971875 
L 225.315555 68.971875 
L 225.386135 69.971875 
L 225.422526 70.971875 
L 225.480929 71.971875 
L 225.591882 72.971875 
L 225.66254 73.971875 
L 225.77548 74.971875 
L 225.821253 75.971875 
L 225.882536 76.971875 
L 225.931035 77.971875 
L 226.011858 78.971875 
L 226.130377 79.971875 
L 226.200588 80.971875 
L 226.28385 81.971875 
L 226.316992 82.971875 
L 226.368229 83.971875 
L 226.436628 84.971875 
L 226.502843 85.971875 
L 226.57976 86.971875 
L 226.607076 87.971875 
L 226.633553 88.971875 
L 226.656204 89.971875 
L 226.675735 90.971875 
L 226.702129 91.971875 
L 226.7519 92.971875 
L 226.786973 93.971875 
L 226.822839 94.971875 
L 226.838206 96.484375 
" style="fill:none;stroke:#000000;stroke-linecap:round;stroke-width:2;"/>
      <path clip-path="url(#p03e8ff33ab)" d="M 225.86 96.484375 
" style="fill:none;stroke:#ffffff;stroke-linecap:round;stroke-width:4;"/>
      <path clip-path="url(#p03e8ff33ab)" d="M 225.86 96.484375 
" style="fill:none;stroke:#000000;stroke-linecap:round;stroke-width:2;"/>
      <path clip-path="url(#p03e8ff33ab)" d="M 225.86 96.484375 
L 224.86 96.452939 
L 223.86 96.415998 
L 222.86 96.318252 
L 221.86 96.28573 
L 220.434029 96.212105 
L 219.434029 96.17354 
L 218.434029 96.138127 
L 217.434029 96.080487 
L 216.434029 96.010101 
L 215.008058 95.958136 
" style="fill:none;stroke:#ffffff;stroke-linecap:round;stroke-width:4;"/>
      <path clip-path="url(#p03e8ff33ab)" d="M 225.86 96.484375 
L 224.86 96.452939 
L 223.86 96.415998 
L 222.86 96.318252 
L 221.86 96.28573 
L 220.434029 96.212105 
L 219.434029 96.17354 
L 218.434029 96.138127 
L 217.434029 96.080487 
L 216.434029 96.010101 
L 215.008058 95.958136 
" style="fill:none;stroke:#000000;stroke-linecap:round;stroke-width:2;"/>
      <path clip-path="url(#p03e8ff33ab)" d="M 215.008058 96.484375 
L 216.008058 96.515811 
L 217.008058 96.552752 
L 218.008058 96.650498 
L 219.008058 96.68302 
L 220.008058 96.756645 
L 221.008058 96.79521 
L 222.008058 96.830623 
L 223.008058 96.888263 
L 224.008058 96.958649 
L 225.008058 97.010614 
L 226.008058 97.069703 
L 227.158058 97.158024 
L 228.158058 97.204169 
L 229.158058 97.24658 
L 230.158058 97.277072 
L 231.158058 97.303117 
L 232.158058 97.324317 
L 233.158058 97.378618 
L 234.158058 97.406556 
L 235.158058 97.43628 
L 236.158058 97.461675 
L 237.158058 97.472875 
L 238.158058 97.482999 
L 239.308058 97.482795 
" style="fill:none;stroke:#ffffff;stroke-linecap:round;stroke-width:4;"/>
      <path clip-path="url(#p03e8ff33ab)" d="M 215.008058 96.484375 
L 216.008058 96.515811 
L 217.008058 96.552752 
L 218.008058 96.650498 
L 219.008058 96.68302 
L 220.008058 96.756645 
L 221.008058 96.79521 
L 222.008058 96.830623 
L 223.008058 96.888263 
L 224.008058 96.958649 
L 225.008058 97.010614 
L 226.008058 97.069703 
L 227.158058 97.158024 
L 228.158058 97.204169 
L 229.158058 97.24658 
L 230.158058 97.277072 
L 231.158058 97.303117 
L 232.158058 97.324317 
L 233.158058 97.378618 
L 234.158058 97.406556 
L 235.158058 97.43628 
L 236.158058 97.461675 
L 237.158058 97.472875 
L 238.158058 97.482999 
L 239.308058 97.482795 
" style="fill:none;stroke:#000000;stroke-linecap:round;stroke-width:2;"/>
      <g id="text_1">
       <path d="M 73.444688 93.907812 
Q 73.88875 94.05875 74.30875 94.550937 
Q 74.72875 95.043125 75.153125 95.905 
L 76.555313 98.694062 
L 75.07 98.694062 
L 73.76625 96.075625 
Q 73.25875 95.049687 72.784063 94.715 
Q 72.309375 94.380312 71.489063 94.380312 
L 69.984063 94.380312 
L 69.984063 98.694062 
L 68.60375 98.694062 
L 68.60375 88.487187 
L 71.720938 88.487187 
Q 73.470938 88.487187 74.332813 89.22 
Q 75.194688 89.950625 75.194688 91.427187 
Q 75.194688 92.391875 74.74625 93.028437 
Q 74.297813 93.662812 73.444688 93.907812 
z
M 69.984063 89.6225 
L 69.984063 93.245 
L 71.720938 93.245 
Q 72.718438 93.245 73.228125 92.783437 
Q 73.737813 92.321875 73.737813 91.427187 
Q 73.737813 90.5325 73.228125 90.0775 
Q 72.718438 89.6225 71.720938 89.6225 
z
M 78.014867 95.631562 
L 78.895336 95.631562 
L 78.895336 100.990937 
L 78.014867 100.990937 
z
M 78.014867 93.544469 
L 78.895336 93.544469 
L 78.895336 94.66075 
L 78.014867 94.66075 
z
M 85.193559 97.755406 
L 85.193559 100.990937 
L 84.31309 100.990937 
L 84.31309 97.7845 
Q 84.31309 97.023469 84.016027 96.646781 
Q 83.718965 96.268562 83.126371 96.268562 
Q 82.412809 96.268562 82.000902 96.723344 
Q 81.588996 97.176594 81.588996 97.962125 
L 81.588996 100.990937 
L 80.703934 100.990937 
L 80.703934 95.631562 
L 81.588996 95.631562 
L 81.588996 96.464562 
Q 81.905965 95.980687 82.333184 95.741812 
Q 82.761934 95.502937 83.322371 95.502937 
Q 84.245715 95.502937 84.718871 96.074094 
Q 85.193559 96.64525 85.193559 97.755406 
z
" style="stroke:#ffffff;stroke-width:4;"/>
       <path d="M 73.444688 93.907812 
Q 73.88875 94.05875 74.30875 94.550937 
Q 74.72875 95.043125 75.153125 95.905 
L 76.555313 98.694062 
L 75.07 98.694062 
L 73.76625 96.075625 
Q 73.25875 95.049687 72.784063 94.715 
Q 72.309375 94.380312 71.489063 94.380312 
L 69.984063 94.380312 
L 69.984063 98.694062 
L 68.60375 98.694062 
L 68.60375 88.487187 
L 71.720938 88.487187 
Q 73.470938 88.487187 74.332813 89.22 
Q 75.194688 89.950625 75.194688 91.427187 
Q 75.194688 92.391875 74.74625 93.028437 
Q 74.297813 93.662812 73.444688 93.907812 
z
M 69.984063 89.6225 
L 69.984063 93.245 
L 71.720938 93.245 
Q 72.718438 93.245 73.228125 92.783437 
Q 73.737813 92.321875 73.737813 91.427187 
Q 73.737813 90.5325 73.228125 90.0775 
Q 72.718438 89.6225 71.720938 89.6225 
z
M 78.014867 95.631562 
L 78.895336 95.631562 
L 78.895336 100.990937 
L 78.014867 100.990937 
z
M 78.014867 93.544469 
L 78.895336 93.544469 
L 78.895336 94.66075 
L 78.014867 94.66075 
z
M 85.193559 97.755406 
L 85.193559 100.990937 
L 84.31309 100.990937 
L 84.31309 97.7845 
Q 84.31309 97.023469 84.016027 96.646781 
Q 83.718965 96.268562 83.126371 96.268562 
Q 82.412809 96.268562 82.000902 96.723344 
Q 81.588996 97.176594 81.588996 97.962125 
L 81.588996 100.990937 
L 80.703934 100.990937 
L 80.703934 95.631562 
L 81.588996 95.631562 
L 81.588996 96.464562 
Q 81.905965 95.980687 82.333184 95.741812 
Q 82.761934 95.502937 83.322371 95.502937 
Q 84.245715 95.502937 84.718871 96.074094 
Q 85.193559 96.64525 85.193559 97.755406 
z
"/>
      </g>
      <g id="text_2">
       <path d="M 7.617813 73.5225 
L 8.95 73.5225 
L 11.343125 79.947187 
L 13.73625 73.5225 
L 15.068438 73.5225 
L 12.19625 81.17875 
L 10.487813 81.17875 
z
M 16.542484 78.11625 
L 17.422953 78.11625 
L 17.422953 83.475625 
L 16.542484 83.475625 
z
M 16.542484 76.029156 
L 17.422953 76.029156 
L 17.422953 77.145437 
L 16.542484 77.145437 
z
M 23.721176 80.240094 
L 23.721176 83.475625 
L 22.840707 83.475625 
L 22.840707 80.269187 
Q 22.840707 79.508156 22.543645 79.131469 
Q 22.246582 78.75325 21.653988 78.75325 
Q 20.940426 78.75325 20.52852 79.208031 
Q 20.116613 79.661281 20.116613 80.446812 
L 20.116613 83.475625 
L 19.231551 83.475625 
L 19.231551 78.11625 
L 20.116613 78.11625 
L 20.116613 78.94925 
Q 20.433582 78.465375 20.860801 78.2265 
Q 21.289551 77.987625 21.849988 77.987625 
Q 22.773332 77.987625 23.246488 78.558781 
Q 23.721176 79.129937 23.721176 80.240094 
z
" style="stroke:#ffffff;stroke-width:4;"/>
       <path d="M 7.617813 73.5225 
L 8.95 73.5225 
L 11.343125 79.947187 
L 13.73625 73.5225 
L 15.068438 73.5225 
L 12.19625 81.17875 
L 10.487813 81.17875 
z
M 16.542484 78.11625 
L 17.422953 78.11625 
L 17.422953 83.475625 
L 16.542484 83.475625 
z
M 16.542484 76.029156 
L 17.422953 76.029156 
L 17.422953 77.145437 
L 16.542484 77.145437 
z
M 23.721176 80.240094 
L 23.721176 83.475625 
L 22.840707 83.475625 
L 22.840707 80.269187 
Q 22.840707 79.508156 22.543645 79.131469 
Q 22.246582 78.75325 21.653988 78.75325 
Q 20.940426 78.75325 20.52852 79.208031 
Q 20.116613 79.661281 20.116613 80.446812 
L 20.116613 83.475625 
L 19.231551 83.475625 
L 19.231551 78.11625 
L 20.116613 78.11625 
L 20.116613 78.94925 
Q 20.433582 78.465375 20.860801 78.2265 
Q 21.289551 77.987625 21.849988 77.987625 
Q 22.773332 77.987625 23.246488 78.558781 
Q 23.721176 79.129937 23.721176 80.240094 
z
"/>
      </g>
      <g id="text_3">
       <path d="M 176.614687 13.038437 
Q 177.05875 13.189375 177.47875 13.681562 
Q 177.89875 14.17375 178.323125 15.035625 
L 179.725312 17.824687 
L 178.24 17.824687 
L 176.93625 15.20625 
Q 176.42875 14.180312 175.954062 13.845625 
Q 175.479375 13.510937 174.659062 13.510937 
L 173.154062 13.510937 
L 173.154062 17.824687 
L 171.77375 17.824687 
L 171.77375 7.617812 
L 174.890937 7.617812 
Q 176.640937 7.617812 177.502812 8.350625 
Q 178.364687 9.08125 178.364687 10.557812 
Q 178.364687 11.5225 177.91625 12.159062 
Q 177.467812 12.793437 176.614687 13.038437 
z
M 173.154062 8.753125 
L 173.154062 12.375625 
L 174.890937 12.375625 
Q 175.888437 12.375625 176.398125 11.914062 
Q 176.907812 11.4525 176.907812 10.557812 
Q 176.907812 9.663125 176.398125 9.208125 
Q 175.888437 8.753125 174.890937 8.753125 
z
M 183.898242 12.675094 
L 183.898242 13.408562 
L 183.056055 13.408562 
Q 182.582898 13.408562 182.397617 13.599969 
Q 182.213867 13.791375 182.213867 14.289031 
L 182.213867 14.762187 
L 183.663961 14.762187 
L 183.663961 15.446656 
L 182.213867 15.446656 
L 182.213867 20.121562 
L 181.328805 20.121562 
L 181.328805 15.446656 
L 180.486617 15.446656 
L 180.486617 14.762187 
L 181.328805 14.762187 
L 181.328805 14.388562 
Q 181.328805 13.494312 181.745305 13.085469 
Q 182.161805 12.675094 183.065242 12.675094 
z
" style="stroke:#ffffff;stroke-width:4;"/>
       <path d="M 176.614687 13.038437 
Q 177.05875 13.189375 177.47875 13.681562 
Q 177.89875 14.17375 178.323125 15.035625 
L 179.725312 17.824687 
L 178.24 17.824687 
L 176.93625 15.20625 
Q 176.42875 14.180312 175.954062 13.845625 
Q 175.479375 13.510937 174.659062 13.510937 
L 173.154062 13.510937 
L 173.154062 17.824687 
L 171.77375 17.824687 
L 171.77375 7.617812 
L 174.890937 7.617812 
Q 176.640937 7.617812 177.502812 8.350625 
Q 178.364687 9.08125 178.364687 10.557812 
Q 178.364687 11.5225 177.91625 12.159062 
Q 177.467812 12.793437 176.614687 13.038437 
z
M 173.154062 8.753125 
L 173.154062 12.375625 
L 174.890937 12.375625 
Q 175.888437 12.375625 176.398125 11.914062 
Q 176.907812 11.4525 176.907812 10.557812 
Q 176.907812 9.663125 176.398125 9.208125 
Q 175.888437 8.753125 174.890937 8.753125 
z
M 183.898242 12.675094 
L 183.898242 13.408562 
L 183.056055 13.408562 
Q 182.582898 13.408562 182.397617 13.599969 
Q 182.213867 13.791375 182.213867 14.289031 
L 182.213867 14.762187 
L 183.663961 14.762187 
L 183.663961 15.446656 
L 182.213867 15.446656 
L 182.213867 20.121562 
L 181.328805 20.121562 
L 181.328805 15.446656 
L 180.486617 15.446656 
L 180.486617 14.762187 
L 181.328805 14.762187 
L 181.328805 14.388562 
Q 181.328805 13.494312 181.745305 13.085469 
Q 182.161805 12.675094 183.065242 12.675094 
z
"/>
      </g>
      <g id="text_4">
       <path d="M 242.96587 92.6475 
L 244.298058 92.6475 
L 246.691183 99.072187 
L 249.084308 92.6475 
L 250.416495 92.6475 
L 247.544308 100.30375 
L 245.83587 100.30375 
z
M 253.966917 97.858344 
Q 253.25948 97.858344 252.847573 98.411125 
Q 252.435667 98.963906 252.435667 99.925531 
Q 252.435667 100.887156 252.844511 101.439937 
Q 253.254886 101.992719 253.966917 101.992719 
Q 254.671292 101.992719 255.081667 101.438406 
Q 255.493573 100.882562 255.493573 99.925531 
Q 255.493573 98.973094 255.081667 98.415719 
Q 254.671292 97.858344 253.966917 97.858344 
z
M 253.966917 97.112625 
Q 255.115355 97.112625 255.77073 97.859875 
Q 256.427636 98.605594 256.427636 99.925531 
Q 256.427636 101.240875 255.77073 101.991187 
Q 255.115355 102.739969 253.966917 102.739969 
Q 252.813886 102.739969 252.160042 101.991187 
Q 251.50773 101.240875 251.50773 99.925531 
Q 251.50773 98.605594 252.160042 97.859875 
Q 252.813886 97.112625 253.966917 97.112625 
z
" style="stroke:#ffffff;stroke-width:4;"/>
       <path d="M 242.96587 92.6475 
L 244.298058 92.6475 
L 246.691183 99.072187 
L 249.084308 92.6475 
L 250.416495 92.6475 
L 247.544308 100.30375 
L 245.83587 100.30375 
z
M 253.966917 97.858344 
Q 253.25948 97.858344 252.847573 98.411125 
Q 252.435667 98.963906 252.435667 99.925531 
Q 252.435667 100.887156 252.844511 101.439937 
Q 253.254886 101.992719 253.966917 101.992719 
Q 254.671292 101.992719 255.081667 101.438406 
Q 255.493573 100.882562 255.493573 99.925531 
Q 255.493573 98.973094 255.081667 98.415719 
Q 254.671292 97.858344 253.966917 97.858344 
z
M 253.966917 97.112625 
Q 255.115355 97.112625 255.77073 97.859875 
Q 256.427636 98.605594 256.427636 99.925531 
Q 256.427636 101.240875 255.77073 101.991187 
Q 255.115355 102.739969 253.966917 102.739969 
Q 252.813886 102.739969 252.160042 101.991187 
Q 251.50773 101.240875 251.50773 99.925531 
Q 251.50773 98.605594 252.160042 97.859875 
Q 252.813886 97.112625 253.966917 97.112625 
z
"/>
      </g>
     </g>
    </g>
    <defs>
     <clipPath id="p03e8ff33ab">
      <rect height="148.8384" width="238.676863" x="14.425597" y="14.262175"/>
     </clipPath>
    </defs>
   </g>
  </g>
 </g>
</svg>
