<?xml version="1.0" encoding="utf-8" standalone="no"?>
<!DOCTYPE svg PUBLIC "-//W3C//DTD SVG 1.1//EN"
  "http://www.w3.org/Graphics/SVG/1.1/DTD/svg11.dtd">
<!-- Created with matplotlib (https://matplotlib.org/) -->
<svg height="205.161625pt" version="1.1" viewBox="0 0 423.204375 205.161625" width="423.204375pt" xmlns="http://www.w3.org/2000/svg" xmlns:xlink="http://www.w3.org/1999/xlink">
 <defs>
  <style type="text/css">
*{stroke-linecap:butt;stroke-linejoin:round;white-space:pre;}
  </style>
 </defs>
 <g id="figure_1">
  <g id="patch_1">
   <path d="M 0 205.161625 
L 423.204375 205.161625 
L 423.204375 0 
L 0 0 
z
" style="fill:none;"/>
  </g>
  <g id="axes_1">
   <g id="patch_2">
    <path clip-path="url(#p9d33da04ce)" d="M 54.08 123.259375 
C 58.37629 123.259375 62.497194 121.64727 65.53513 118.778109 
C 68.573066 115.908947 70.28 112.016982 70.28 107.959375 
C 70.28 103.901768 68.573066 100.009803 65.53513 97.140641 
C 62.497194 94.27148 58.37629 92.659375 54.08 92.659375 
C 49.78371 92.659375 45.662806 94.27148 42.62487 97.140641 
C 39.586934 100.009803 37.88 103.901768 37.88 107.959375 
C 37.88 112.016982 39.586934 115.908947 42.62487 118.778109 
C 45.662806 121.64727 49.78371 123.259375 54.08 123.259375 
z
" style="fill:none;stroke:#000000;stroke-linejoin:miter;stroke-width:2;"/>
   </g>
   <g id="patch_3">
    <path clip-path="url(#p9d33da04ce)" d="M 216.08 33.754375 
C 216.724444 33.754375 217.342579 33.512559 217.798269 33.082185 
C 218.25396 32.651811 218.51 32.068016 218.51 31.459375 
C 218.51 30.850734 218.25396 30.266939 217.798269 29.836565 
C 217.342579 29.406191 216.724444 29.164375 216.08 29.164375 
C 215.435556 29.164375 214.817421 29.406191 214.361731 29.836565 
C 213.90604 30.266939 213.65 30.850734 213.65 31.459375 
C 213.65 32.068016 213.90604 32.651811 214.361731 33.082185 
C 214.817421 33.512559 215.435556 33.754375 216.08 33.754375 
z
" style="stroke:#000000;stroke-linejoin:miter;stroke-width:2;"/>
   </g>
   <g id="patch_4">
    <path clip-path="url(#p9d33da04ce)" d="M 216.08 186.754375 
C 216.724444 186.754375 217.342579 186.512559 217.798269 186.082185 
C 218.25396 185.651811 218.51 185.068016 218.51 184.459375 
C 218.51 183.850734 218.25396 183.266939 217.798269 182.836565 
C 217.342579 182.406191 216.724444 182.164375 216.08 182.164375 
C 215.435556 182.164375 214.817421 182.406191 214.361731 182.836565 
C 213.90604 183.266939 213.65 183.850734 213.65 184.459375 
C 213.65 185.068016 213.90604 185.651811 214.361731 186.082185 
C 214.817421 186.512559 215.435556 186.754375 216.08 186.754375 
z
" style="stroke:#000000;stroke-linejoin:miter;stroke-width:2;"/>
   </g>
   <g id="patch_5">
    <path clip-path="url(#p9d33da04ce)" d="M 378.08 123.259375 
C 382.37629 123.259375 386.497194 121.64727 389.53513 118.778109 
C 392.573066 115.908947 394.28 112.016982 394.28 107.959375 
C 394.28 103.901768 392.573066 100.009803 389.53513 97.140641 
C 386.497194 94.27148 382.37629 92.659375 378.08 92.659375 
C 373.78371 92.659375 369.662806 94.27148 366.62487 97.140641 
C 363.586934 100.009803 361.88 103.901768 361.88 107.959375 
C 361.88 112.016982 363.586934 115.908947 366.62487 118.778109 
C 369.662806 121.64727 373.78371 123.259375 378.08 123.259375 
z
" style="fill:none;stroke:#000000;stroke-linejoin:miter;stroke-width:2;"/>
   </g>
   <g id="patch_6">
    <path clip-path="url(#p9d33da04ce)" d="M 164.027217 95.319668 
C 162.530683 91.982907 160.589486 88.9699 158.28249 86.403055 
C 155.975494 83.83621 153.33437 81.750764 150.466414 80.231442 
C 147.598459 78.712119 144.543045 77.779776 141.424301 77.47229 
C 138.305557 77.164804 135.166298 77.486397 132.134058 78.424004 
C 129.101819 79.36161 126.218226 80.902359 123.600429 82.983655 
C 120.982632 85.064951 118.666568 87.658222 116.746329 90.658115 
C 114.82609 93.658007 113.328038 97.023338 112.313032 100.617388 
C 111.298026 104.211437 110.78 107.984866 110.78 111.784375 
C 110.78 115.583884 111.298026 119.357313 112.313032 122.951362 
C 113.328038 126.545412 114.82609 129.910743 116.746329 132.910635 
C 118.666568 135.910528 120.982632 138.503799 123.600429 140.585095 
C 126.218226 142.666391 129.101819 144.20714 132.134058 145.144746 
C 135.166298 146.082353 138.305557 146.403946 141.424301 146.09646 
C 144.543045 145.788974 147.598459 144.856631 150.466414 143.337308 
C 153.33437 141.817986 155.975494 139.73254 158.28249 137.165695 
C 160.589486 134.59885 162.530683 131.585843 164.027217 128.249082 
" style="fill:none;stroke:#000000;stroke-linejoin:miter;stroke-width:2;"/>
   </g>
   <g id="patch_7">
    <path clip-path="url(#p9d33da04ce)" d="M 317.927217 95.319668 
C 316.430683 91.982907 314.489486 88.9699 312.18249 86.403055 
C 309.875494 83.83621 307.23437 81.750764 304.366414 80.231442 
C 301.498459 78.712119 298.443045 77.779776 295.324301 77.47229 
C 292.205557 77.164804 289.066298 77.486397 286.034058 78.424004 
C 283.001819 79.36161 280.118226 80.902359 277.500429 82.983655 
C 274.882632 85.064951 272.566568 87.658222 270.646329 90.658115 
C 268.72609 93.658007 267.228038 97.023338 266.213032 100.617388 
C 265.198026 104.211437 264.68 107.984866 264.68 111.784375 
C 264.68 115.583884 265.198026 119.357313 266.213032 122.951362 
C 267.228038 126.545412 268.72609 129.910743 270.646329 132.910635 
C 272.566568 135.910528 274.882632 138.503799 277.500429 140.585095 
C 280.118226 142.666391 283.001819 144.20714 286.034058 145.144746 
C 289.066298 146.082353 292.205557 146.403946 295.324301 146.09646 
C 298.443045 145.788974 301.498459 144.856631 304.366414 143.337308 
C 307.23437 141.817986 309.875494 139.73254 312.18249 137.165695 
C 314.489486 134.59885 316.430683 131.585843 317.927217 128.249082 
" style="fill:none;stroke:#000000;stroke-linejoin:miter;stroke-width:2;"/>
   </g>
   <g id="patch_8">
    <path clip-path="url(#p9d33da04ce)" d="M 378.08 115.609375 
L 376.46 109.489375 
L 378.0638 109.489375 
L 378.0638 100.309375 
L 378.0962 100.309375 
L 378.0962 109.489375 
L 379.7 109.489375 
z
" style="stroke:#000000;stroke-linejoin:miter;stroke-width:2;"/>
   </g>
   <g id="patch_9">
    <path clip-path="url(#p9d33da04ce)" d="M 168.056227 102.306697 
L 162.048132 96.686047 
L 164.167952 95.595718 
L 164.01299 95.326986 
L 164.041444 95.312351 
L 164.196406 95.581083 
L 166.316226 94.490753 
z
" style="stroke:#000000;stroke-linejoin:miter;"/>
   </g>
   <g id="patch_10">
    <path clip-path="url(#p9d33da04ce)" d="M 321.956227 102.306697 
L 315.948132 96.686047 
L 318.067952 95.595718 
L 317.91299 95.326986 
L 317.941444 95.312351 
L 318.096406 95.581083 
L 320.216226 94.490753 
z
" style="stroke:#000000;stroke-linejoin:miter;"/>
   </g>
   <g id="line2d_1">
    <path clip-path="url(#p9d33da04ce)" d="M 57.32 115.609375 
L 50.84 115.609375 
" style="fill:none;stroke:#000000;stroke-linecap:round;stroke-width:2;"/>
   </g>
   <g id="line2d_2">
    <path clip-path="url(#p9d33da04ce)" d="M 54.08 103.369375 
L 54.08 97.249375 
" style="fill:none;stroke:#000000;stroke-linecap:round;stroke-width:2;"/>
   </g>
   <g id="line2d_3">
    <path clip-path="url(#p9d33da04ce)" d="M 57.32 100.309375 
L 50.84 100.309375 
" style="fill:none;stroke:#000000;stroke-linecap:round;stroke-width:2;"/>
   </g>
   <g id="line2d_4">
    <path clip-path="url(#p9d33da04ce)" d="M 54.08 184.459375 
L 54.08 123.259375 
L 54.08 123.259375 
M 54.08 92.659375 
L 54.08 92.659375 
L 54.08 31.459375 
" style="fill:none;stroke:#000000;stroke-linecap:round;stroke-width:2;"/>
   </g>
   <g id="line2d_5">
    <path clip-path="url(#p9d33da04ce)" d="M 54.08 31.459375 
L 118.88 31.459375 
L 121.58 23.809375 
L 126.98 39.109375 
L 132.38 23.809375 
L 137.78 39.109375 
L 143.18 23.809375 
L 148.58 39.109375 
L 151.28 31.459375 
L 216.08 31.459375 
" style="fill:none;stroke:#000000;stroke-linecap:round;stroke-width:2;"/>
   </g>
   <g id="line2d_6">
    <path clip-path="url(#p9d33da04ce)" d="M 216.08 31.459375 
" style="fill:none;stroke:#000000;stroke-linecap:round;stroke-width:2;"/>
   </g>
   <g id="line2d_7">
    <path clip-path="url(#p9d33da04ce)" d="M 216.08 31.459375 
L 216.08 92.659375 
L 224.18 95.209375 
L 207.98 100.309375 
L 224.18 105.409375 
L 207.98 110.509375 
L 224.18 115.609375 
L 207.98 120.709375 
L 216.08 123.259375 
L 216.08 184.459375 
" style="fill:none;stroke:#000000;stroke-linecap:round;stroke-width:2;"/>
   </g>
   <g id="line2d_8">
    <path clip-path="url(#p9d33da04ce)" d="M 216.08 184.459375 
" style="fill:none;stroke:#000000;stroke-linecap:round;stroke-width:2;"/>
   </g>
   <g id="line2d_9">
    <path clip-path="url(#p9d33da04ce)" d="M 216.08 31.459375 
L 297.08 31.459375 
L 378.08 31.459375 
" style="fill:none;stroke:#000000;stroke-linecap:round;stroke-width:2;"/>
   </g>
   <g id="line2d_10">
    <path clip-path="url(#p9d33da04ce)" d="M 378.08 31.459375 
L 378.08 92.659375 
L 378.08 92.659375 
M 378.08 123.259375 
L 378.08 123.259375 
L 378.08 184.459375 
" style="fill:none;stroke:#000000;stroke-linecap:round;stroke-width:2;"/>
   </g>
   <g id="line2d_11">
    <path clip-path="url(#p9d33da04ce)" d="M 378.08 184.459375 
L 216.08 184.459375 
L 54.08 184.459375 
" style="fill:none;stroke:#000000;stroke-linecap:round;stroke-width:2;"/>
   </g>
   <g id="text_1">
    <!-- $20V$ -->
    <defs>
     <path d="M 19.1875 8.296875 
L 53.609375 8.296875 
L 53.609375 0 
L 7.328125 0 
L 7.328125 8.296875 
Q 12.9375 14.109375 22.625 23.890625 
Q 32.328125 33.6875 34.8125 36.53125 
Q 39.546875 41.84375 41.421875 45.53125 
Q 43.3125 49.21875 43.3125 52.78125 
Q 43.3125 58.59375 39.234375 62.25 
Q 35.15625 65.921875 28.609375 65.921875 
Q 23.96875 65.921875 18.8125 64.3125 
Q 13.671875 62.703125 7.8125 59.421875 
L 7.8125 69.390625 
Q 13.765625 71.78125 18.9375 73 
Q 24.125 74.21875 28.421875 74.21875 
Q 39.75 74.21875 46.484375 68.546875 
Q 53.21875 62.890625 53.21875 53.421875 
Q 53.21875 48.921875 51.53125 44.890625 
Q 49.859375 40.875 45.40625 35.40625 
Q 44.1875 33.984375 37.640625 27.21875 
Q 31.109375 20.453125 19.1875 8.296875 
z
" id="DejaVuSans-50"/>
     <path d="M 31.78125 66.40625 
Q 24.171875 66.40625 20.328125 58.90625 
Q 16.5 51.421875 16.5 36.375 
Q 16.5 21.390625 20.328125 13.890625 
Q 24.171875 6.390625 31.78125 6.390625 
Q 39.453125 6.390625 43.28125 13.890625 
Q 47.125 21.390625 47.125 36.375 
Q 47.125 51.421875 43.28125 58.90625 
Q 39.453125 66.40625 31.78125 66.40625 
z
M 31.78125 74.21875 
Q 44.046875 74.21875 50.515625 64.515625 
Q 56.984375 54.828125 56.984375 36.375 
Q 56.984375 17.96875 50.515625 8.265625 
Q 44.046875 -1.421875 31.78125 -1.421875 
Q 19.53125 -1.421875 13.0625 8.265625 
Q 6.59375 17.96875 6.59375 36.375 
Q 6.59375 54.828125 13.0625 64.515625 
Q 19.53125 74.21875 31.78125 74.21875 
z
" id="DejaVuSans-48"/>
     <path d="M 28.609375 0 
L 0.78125 72.90625 
L 11.078125 72.90625 
L 34.1875 11.53125 
L 57.328125 72.90625 
L 67.578125 72.90625 
L 39.796875 0 
z
" id="DejaVuSans-86"/>
    </defs>
    <g transform="translate(7.2 111.8225)scale(0.14 -0.14)">
     <use transform="translate(0 0.78125)" xlink:href="#DejaVuSans-50"/>
     <use transform="translate(63.623047 0.78125)" xlink:href="#DejaVuSans-48"/>
     <use transform="translate(127.246094 0.78125)" xlink:href="#DejaVuSans-86"/>
    </g>
   </g>
   <g id="text_2">
    <!-- 400$\Omega$ -->
    <defs>
     <path d="M 37.796875 64.3125 
L 12.890625 25.390625 
L 37.796875 25.390625 
z
M 35.203125 72.90625 
L 47.609375 72.90625 
L 47.609375 25.390625 
L 58.015625 25.390625 
L 58.015625 17.1875 
L 47.609375 17.1875 
L 47.609375 0 
L 37.796875 0 
L 37.796875 17.1875 
L 4.890625 17.1875 
L 4.890625 26.703125 
z
" id="DejaVuSans-52"/>
     <path d="M 72.609375 8.6875 
L 72.609375 0 
L 43.3125 0 
L 43.3125 8.6875 
Q 51.953125 13.421875 56.78125 21.53125 
Q 61.625 29.640625 61.625 39.5 
Q 61.625 51.21875 55.171875 58.296875 
Q 48.734375 65.375 38.1875 65.375 
Q 27.640625 65.375 21.171875 58.265625 
Q 14.703125 51.171875 14.703125 39.5 
Q 14.703125 29.640625 19.53125 21.53125 
Q 24.421875 13.421875 33.109375 8.6875 
L 33.109375 0 
L 3.8125 0 
L 3.8125 8.6875 
L 19.390625 8.6875 
Q 11.671875 15.484375 8.109375 22.75 
Q 4.59375 30.03125 4.59375 39.015625 
Q 4.59375 54.546875 13.96875 64.15625 
Q 23.296875 73.78125 38.1875 73.78125 
Q 52.984375 73.78125 62.40625 64.15625 
Q 71.78125 54.59375 71.78125 39.5 
Q 71.78125 30.03125 68.3125 22.796875 
Q 64.84375 15.578125 56.984375 8.6875 
z
" id="DejaVuSans-937"/>
    </defs>
    <g transform="translate(116.32 17.837812)scale(0.14 -0.14)">
     <use transform="translate(0 0.78125)" xlink:href="#DejaVuSans-52"/>
     <use transform="translate(63.623047 0.78125)" xlink:href="#DejaVuSans-48"/>
     <use transform="translate(127.246094 0.78125)" xlink:href="#DejaVuSans-48"/>
     <use transform="translate(190.869141 0.78125)" xlink:href="#DejaVuSans-937"/>
    </g>
   </g>
   <g id="text_3">
    <!-- 100$\Omega$ -->
    <defs>
     <path d="M 12.40625 8.296875 
L 28.515625 8.296875 
L 28.515625 63.921875 
L 10.984375 60.40625 
L 10.984375 69.390625 
L 28.421875 72.90625 
L 38.28125 72.90625 
L 38.28125 8.296875 
L 54.390625 8.296875 
L 54.390625 0 
L 12.40625 0 
z
" id="DejaVuSans-49"/>
    </defs>
    <g transform="translate(224.86 84.2825)scale(0.14 -0.14)">
     <use transform="translate(0 0.78125)" xlink:href="#DejaVuSans-49"/>
     <use transform="translate(63.623047 0.78125)" xlink:href="#DejaVuSans-48"/>
     <use transform="translate(127.246094 0.78125)" xlink:href="#DejaVuSans-48"/>
     <use transform="translate(190.869141 0.78125)" xlink:href="#DejaVuSans-937"/>
    </g>
   </g>
   <g id="text_4">
    <!-- 1A -->
    <defs>
     <path d="M 34.1875 63.1875 
L 20.796875 26.90625 
L 47.609375 26.90625 
z
M 28.609375 72.90625 
L 39.796875 72.90625 
L 67.578125 0 
L 57.328125 0 
L 50.6875 18.703125 
L 17.828125 18.703125 
L 11.1875 0 
L 0.78125 0 
z
" id="DejaVuSans-65"/>
    </defs>
    <g transform="translate(397.52 111.8225)scale(0.14 -0.14)">
     <use xlink:href="#DejaVuSans-49"/>
     <use x="63.623047" xlink:href="#DejaVuSans-65"/>
    </g>
   </g>
   <g id="text_5">
    <!-- $I_1$ -->
    <defs>
     <path d="M 9.8125 72.90625 
L 19.671875 72.90625 
L 19.671875 0 
L 9.8125 0 
z
" id="DejaVuSans-73"/>
    </defs>
    <g transform="translate(133.67 115.6475)scale(0.14 -0.14)">
     <use transform="translate(0 0.09375)" xlink:href="#DejaVuSans-73"/>
     <use transform="translate(30.449219 -16.3125)scale(0.7)" xlink:href="#DejaVuSans-49"/>
    </g>
   </g>
   <g id="text_6">
    <!-- $I_2$ -->
    <g transform="translate(287.57 115.6475)scale(0.14 -0.14)">
     <use transform="translate(0 0.09375)" xlink:href="#DejaVuSans-73"/>
     <use transform="translate(30.449219 -16.3125)scale(0.7)" xlink:href="#DejaVuSans-50"/>
    </g>
   </g>
  </g>
 </g>
 <defs>
  <clipPath id="p9d33da04ce">
   <rect height="185.3595" width="398.52" x="16.82" y="12.602125"/>
  </clipPath>
 </defs>
</svg>
