<?xml version="1.0" encoding="utf-8" standalone="no"?>
<!DOCTYPE svg PUBLIC "-//W3C//DTD SVG 1.1//EN"
  "http://www.w3.org/Graphics/SVG/1.1/DTD/svg11.dtd">
<!-- Created with matplotlib (http://matplotlib.org/) -->
<svg height="210pt" version="1.1" viewBox="0 0 429 210" width="429pt" xmlns="http://www.w3.org/2000/svg" xmlns:xlink="http://www.w3.org/1999/xlink">
 <defs>
  <style type="text/css">
*{stroke-linecap:butt;stroke-linejoin:round;}
  </style>
 </defs>
 <g id="figure_1">
  <g id="patch_1">
   <path d="M 0 210.59725 
L 429.96 210.59725 
L 429.96 0 
L 0 0 
z
" style="fill:none;"/>
  </g>
  <g id="axes_1">
   <g id="patch_2">
    <path clip-path="url(#p293dc452f2)" d="M 167.947217 97.255293 
C 166.450683 93.918532 164.509486 90.905525 162.20249 88.33868 
C 159.895494 85.771835 157.25437 83.686389 154.386414 82.167067 
C 151.518459 80.647744 148.463045 79.715401 145.344301 79.407915 
C 142.225557 79.100429 139.086298 79.422022 136.054058 80.359629 
C 133.021819 81.297235 130.138226 82.837984 127.520429 84.91928 
C 124.902632 87.000576 122.586568 89.593847 120.666329 92.59374 
C 118.74609 95.593632 117.248038 98.958963 116.233032 102.553013 
C 115.218026 106.147062 114.7 109.920491 114.7 113.72 
C 114.7 117.519509 115.218026 121.292938 116.233032 124.886987 
C 117.248038 128.481037 118.74609 131.846368 120.666329 134.84626 
C 122.586568 137.846153 124.902632 140.439424 127.520429 142.52072 
C 130.138226 144.602016 133.021819 146.142765 136.054058 147.080371 
C 139.086298 148.017978 142.225557 148.339571 145.344301 148.032085 
C 148.463045 147.724599 151.518459 146.792256 154.386414 145.272933 
C 157.25437 143.753611 159.895494 141.668165 162.20249 139.10132 
C 164.509486 136.534475 166.450683 133.521468 167.947217 130.184707 
" style="fill:none;stroke:#000000;stroke-linejoin:miter;stroke-width:1.5;"/>
   </g>
   <g id="patch_3">
    <path clip-path="url(#p293dc452f2)" d="M 321.847217 97.255293 
C 320.350683 93.918532 318.409486 90.905525 316.10249 88.33868 
C 313.795494 85.771835 311.15437 83.686389 308.286414 82.167067 
C 305.418459 80.647744 302.363045 79.715401 299.244301 79.407915 
C 296.125557 79.100429 292.986298 79.422022 289.954058 80.359629 
C 286.921819 81.297235 284.038226 82.837984 281.420429 84.91928 
C 278.802632 87.000576 276.486568 89.593847 274.566329 92.59374 
C 272.64609 95.593632 271.148038 98.958963 270.133032 102.553013 
C 269.118026 106.147062 268.6 109.920491 268.6 113.72 
C 268.6 117.519509 269.118026 121.292938 270.133032 124.886987 
C 271.148038 128.481037 272.64609 131.846368 274.566329 134.84626 
C 276.486568 137.846153 278.802632 140.439424 281.420429 142.52072 
C 284.038226 144.602016 286.921819 146.142765 289.954058 147.080371 
C 292.986298 148.017978 296.125557 148.339571 299.244301 148.032085 
C 302.363045 147.724599 305.418459 146.792256 308.286414 145.272933 
C 311.15437 143.753611 313.795494 141.668165 316.10249 139.10132 
C 318.409486 136.534475 320.350683 133.521468 321.847217 130.184707 
" style="fill:none;stroke:#000000;stroke-linejoin:miter;stroke-width:1.5;"/>
   </g>
   <g id="patch_4">
    <path clip-path="url(#p293dc452f2)" d="M 382 102.245 
L 383.62 108.365 
L 382.0162 108.365 
L 382.0162 117.545 
L 381.9838 117.545 
L 381.9838 108.365 
L 380.38 108.365 
z
" style="stroke:#000000;stroke-linejoin:miter;stroke-width:1.5;"/>
   </g>
   <g id="patch_5">
    <path clip-path="url(#p293dc452f2)" d="M 171.104768 100.491805 
L 164.46826 95.54165 
L 166.445529 94.234067 
L 166.25969 93.983407 
L 166.286231 93.965855 
L 166.472069 94.216516 
L 168.449339 92.908934 
z
" style="stroke:#000000;stroke-linejoin:miter;"/>
   </g>
   <g id="patch_6">
    <path clip-path="url(#p293dc452f2)" d="M 325.004768 100.491805 
L 318.36826 95.54165 
L 320.345529 94.234067 
L 320.15969 93.983407 
L 320.186231 93.965855 
L 320.372069 94.216516 
L 322.349339 92.908934 
z
" style="stroke:#000000;stroke-linejoin:miter;"/>
   </g>
   <g id="line2d_1">
    <path clip-path="url(#p293dc452f2)" d="M 58 186.395 
L 58 125.195 
L 58 125.195 
M 58 94.595 
L 58 94.595 
L 58 33.395 
" style="fill:none;stroke:#000000;stroke-linecap:round;stroke-width:1.5;"/>
   </g>
   <g id="line2d_2">
    <path clip-path="url(#p293dc452f2)" d="M 61.24 117.545 
L 54.76 117.545 
" style="fill:none;stroke:#000000;stroke-linecap:round;stroke-width:1.5;"/>
   </g>
   <g id="line2d_3">
    <path clip-path="url(#p293dc452f2)" d="M 58 105.305 
L 58 99.185 
" style="fill:none;stroke:#000000;stroke-linecap:round;stroke-width:1.5;"/>
   </g>
   <g id="line2d_4">
    <path clip-path="url(#p293dc452f2)" d="M 61.24 102.245 
L 54.76 102.245 
" style="fill:none;stroke:#000000;stroke-linecap:round;stroke-width:1.5;"/>
   </g>
   <g id="line2d_5">
    <path clip-path="url(#p293dc452f2)" d="M 58 33.395 
L 122.8 33.395 
L 125.5 25.745 
L 130.9 41.045 
L 136.3 25.745 
L 141.7 41.045 
L 147.1 25.745 
L 152.5 41.045 
L 155.2 33.395 
L 220 33.395 
" style="fill:none;stroke:#000000;stroke-linecap:round;stroke-width:1.5;"/>
   </g>
   <g id="line2d_6">
    <path clip-path="url(#p293dc452f2)" d="M 220 33.395 
" style="fill:none;stroke:#000000;stroke-linecap:round;stroke-width:1.5;"/>
   </g>
   <g id="line2d_7">
    <path clip-path="url(#p293dc452f2)" d="M 220 33.395 
L 220 94.595 
L 228.1 97.145 
L 211.9 102.245 
L 228.1 107.345 
L 211.9 112.445 
L 228.1 117.545 
L 211.9 122.645 
L 220 125.195 
L 220 186.395 
" style="fill:none;stroke:#000000;stroke-linecap:round;stroke-width:1.5;"/>
   </g>
   <g id="line2d_8">
    <path clip-path="url(#p293dc452f2)" d="M 220 186.395 
" style="fill:none;stroke:#000000;stroke-linecap:round;stroke-width:1.5;"/>
   </g>
   <g id="line2d_9">
    <path clip-path="url(#p293dc452f2)" d="M 220 33.395 
L 301 33.395 
L 382 33.395 
" style="fill:none;stroke:#000000;stroke-linecap:round;stroke-width:1.5;"/>
   </g>
   <g id="line2d_10">
    <path clip-path="url(#p293dc452f2)" d="M 382 33.395 
L 382 94.595 
L 382 94.595 
M 382 125.195 
L 382 125.195 
L 382 186.395 
" style="fill:none;stroke:#000000;stroke-linecap:round;stroke-width:1.5;"/>
   </g>
   <g id="line2d_11">
    <path clip-path="url(#p293dc452f2)" d="M 382 186.395 
L 220 186.395 
L 58 186.395 
" style="fill:none;stroke:#000000;stroke-linecap:round;stroke-width:1.5;"/>
   </g>
   <g id="patch_7">
    <path clip-path="url(#p293dc452f2)" d="M 58 125.195 
C 62.29629 125.195 66.417194 123.582895 69.45513 120.713734 
C 72.493066 117.844572 74.2 113.952607 74.2 109.895 
C 74.2 105.837393 72.493066 101.945428 69.45513 99.076266 
C 66.417194 96.207105 62.29629 94.595 58 94.595 
C 53.70371 94.595 49.582806 96.207105 46.54487 99.076266 
C 43.506934 101.945428 41.8 105.837393 41.8 109.895 
C 41.8 113.952607 43.506934 117.844572 46.54487 120.713734 
C 49.582806 123.582895 53.70371 125.195 58 125.195 
z
" style="fill:none;stroke:#000000;stroke-linejoin:miter;stroke-width:1.5;"/>
   </g>
   <g id="patch_8">
    <path clip-path="url(#p293dc452f2)" d="M 220 35.69 
C 220.644444 35.69 221.262579 35.448184 221.718269 35.01781 
C 222.17396 34.587436 222.43 34.003641 222.43 33.395 
C 222.43 32.786359 222.17396 32.202564 221.718269 31.77219 
C 221.262579 31.341816 220.644444 31.1 220 31.1 
C 219.355556 31.1 218.737421 31.341816 218.281731 31.77219 
C 217.82604 32.202564 217.57 32.786359 217.57 33.395 
C 217.57 34.003641 217.82604 34.587436 218.281731 35.01781 
C 218.737421 35.448184 219.355556 35.69 220 35.69 
z
" style="stroke:#000000;stroke-linejoin:miter;stroke-width:1.5;"/>
   </g>
   <g id="patch_9">
    <path clip-path="url(#p293dc452f2)" d="M 220 188.69 
C 220.644444 188.69 221.262579 188.448184 221.718269 188.01781 
C 222.17396 187.587436 222.43 187.003641 222.43 186.395 
C 222.43 185.786359 222.17396 185.202564 221.718269 184.77219 
C 221.262579 184.341816 220.644444 184.1 220 184.1 
C 219.355556 184.1 218.737421 184.341816 218.281731 184.77219 
C 217.82604 185.202564 217.57 185.786359 217.57 186.395 
C 217.57 187.003641 217.82604 187.587436 218.281731 188.01781 
C 218.737421 188.448184 219.355556 188.69 220 188.69 
z
" style="stroke:#000000;stroke-linejoin:miter;stroke-width:1.5;"/>
   </g>
   <g id="patch_10">
    <path clip-path="url(#p293dc452f2)" d="M 382 125.195 
C 386.29629 125.195 390.417194 123.582895 393.45513 120.713734 
C 396.493066 117.844572 398.2 113.952607 398.2 109.895 
C 398.2 105.837393 396.493066 101.945428 393.45513 99.076266 
C 390.417194 96.207105 386.29629 94.595 382 94.595 
C 377.70371 94.595 373.582806 96.207105 370.54487 99.076266 
C 367.506934 101.945428 365.8 105.837393 365.8 109.895 
C 365.8 113.952607 367.506934 117.844572 370.54487 120.713734 
C 373.582806 123.582895 377.70371 125.195 382 125.195 
z
" style="fill:none;stroke:#000000;stroke-linejoin:miter;stroke-width:1.5;"/>
   </g>
   <g id="text_1">
    <!-- $20V$ -->
    <defs>
     <path d="M 19.1875 8.296875 
L 53.609375 8.296875 
L 53.609375 0 
L 7.328125 0 
L 7.328125 8.296875 
Q 12.9375 14.109375 22.625 23.890625 
Q 32.328125 33.6875 34.8125 36.53125 
Q 39.546875 41.84375 41.421875 45.53125 
Q 43.3125 49.21875 43.3125 52.78125 
Q 43.3125 58.59375 39.234375 62.25 
Q 35.15625 65.921875 28.609375 65.921875 
Q 23.96875 65.921875 18.8125 64.3125 
Q 13.671875 62.703125 7.8125 59.421875 
L 7.8125 69.390625 
Q 13.765625 71.78125 18.9375 73 
Q 24.125 74.21875 28.421875 74.21875 
Q 39.75 74.21875 46.484375 68.546875 
Q 53.21875 62.890625 53.21875 53.421875 
Q 53.21875 48.921875 51.53125 44.890625 
Q 49.859375 40.875 45.40625 35.40625 
Q 44.1875 33.984375 37.640625 27.21875 
Q 31.109375 20.453125 19.1875 8.296875 
z
" id="DejaVuSans-32"/>
     <path d="M 31.78125 66.40625 
Q 24.171875 66.40625 20.328125 58.90625 
Q 16.5 51.421875 16.5 36.375 
Q 16.5 21.390625 20.328125 13.890625 
Q 24.171875 6.390625 31.78125 6.390625 
Q 39.453125 6.390625 43.28125 13.890625 
Q 47.125 21.390625 47.125 36.375 
Q 47.125 51.421875 43.28125 58.90625 
Q 39.453125 66.40625 31.78125 66.40625 
z
M 31.78125 74.21875 
Q 44.046875 74.21875 50.515625 64.515625 
Q 56.984375 54.828125 56.984375 36.375 
Q 56.984375 17.96875 50.515625 8.265625 
Q 44.046875 -1.421875 31.78125 -1.421875 
Q 19.53125 -1.421875 13.0625 8.265625 
Q 6.59375 17.96875 6.59375 36.375 
Q 6.59375 54.828125 13.0625 64.515625 
Q 19.53125 74.21875 31.78125 74.21875 
z
" id="DejaVuSans-30"/>
     <path d="M 28.609375 0 
L 0.78125 72.90625 
L 11.078125 72.90625 
L 34.1875 11.53125 
L 57.328125 72.90625 
L 67.578125 72.90625 
L 39.796875 0 
z
" id="DejaVuSans-56"/>
    </defs>
    <g transform="translate(7.2 114.31)scale(0.16 -0.16)">
     <use transform="translate(0 0.78125)" xlink:href="#DejaVuSans-32"/>
     <use transform="translate(63.623047 0.78125)" xlink:href="#DejaVuSans-30"/>
     <use transform="translate(127.246094 0.78125)" xlink:href="#DejaVuSans-56"/>
    </g>
   </g>
   <g id="text_2">
    <!-- 400$\Omega$ -->
    <defs>
     <path d="M 37.796875 64.3125 
L 12.890625 25.390625 
L 37.796875 25.390625 
z
M 35.203125 72.90625 
L 47.609375 72.90625 
L 47.609375 25.390625 
L 58.015625 25.390625 
L 58.015625 17.1875 
L 47.609375 17.1875 
L 47.609375 0 
L 37.796875 0 
L 37.796875 17.1875 
L 4.890625 17.1875 
L 4.890625 26.703125 
z
" id="DejaVuSans-34"/>
     <path d="M 72.609375 8.6875 
L 72.609375 0 
L 43.3125 0 
L 43.3125 8.6875 
Q 51.953125 13.421875 56.78125 21.53125 
Q 61.625 29.640625 61.625 39.5 
Q 61.625 51.21875 55.171875 58.296875 
Q 48.734375 65.375 38.1875 65.375 
Q 27.640625 65.375 21.171875 58.265625 
Q 14.703125 51.171875 14.703125 39.5 
Q 14.703125 29.640625 19.53125 21.53125 
Q 24.421875 13.421875 33.109375 8.6875 
L 33.109375 0 
L 3.8125 0 
L 3.8125 8.6875 
L 19.390625 8.6875 
Q 11.671875 15.484375 8.109375 22.75 
Q 4.59375 30.03125 4.59375 39.015625 
Q 4.59375 54.546875 13.96875 64.15625 
Q 23.296875 73.78125 38.1875 73.78125 
Q 52.984375 73.78125 62.40625 64.15625 
Q 71.78125 54.59375 71.78125 39.5 
Q 71.78125 30.03125 68.3125 22.796875 
Q 64.84375 15.578125 56.984375 8.6875 
z
" id="DejaVuSans-3a9"/>
    </defs>
    <g transform="translate(117.56 19.3575)scale(0.16 -0.16)">
     <use transform="translate(0 0.78125)" xlink:href="#DejaVuSans-34"/>
     <use transform="translate(63.623047 0.78125)" xlink:href="#DejaVuSans-30"/>
     <use transform="translate(127.246094 0.78125)" xlink:href="#DejaVuSans-30"/>
     <use transform="translate(190.869141 0.78125)" xlink:href="#DejaVuSans-3a9"/>
    </g>
   </g>
   <g id="text_3">
    <!-- 100$\Omega$ -->
    <defs>
     <path d="M 12.40625 8.296875 
L 28.515625 8.296875 
L 28.515625 63.921875 
L 10.984375 60.40625 
L 10.984375 69.390625 
L 28.421875 72.90625 
L 38.28125 72.90625 
L 38.28125 8.296875 
L 54.390625 8.296875 
L 54.390625 0 
L 12.40625 0 
z
" id="DejaVuSans-31"/>
    </defs>
    <g transform="translate(221.62 86.77)scale(0.16 -0.16)">
     <use transform="translate(0 0.78125)" xlink:href="#DejaVuSans-31"/>
     <use transform="translate(63.623047 0.78125)" xlink:href="#DejaVuSans-30"/>
     <use transform="translate(127.246094 0.78125)" xlink:href="#DejaVuSans-30"/>
     <use transform="translate(190.869141 0.78125)" xlink:href="#DejaVuSans-3a9"/>
    </g>
   </g>
   <g id="text_4">
    <!-- 1A -->
    <defs>
     <path d="M 34.1875 63.1875 
L 20.796875 26.90625 
L 47.609375 26.90625 
z
M 28.609375 72.90625 
L 39.796875 72.90625 
L 67.578125 0 
L 57.328125 0 
L 50.6875 18.703125 
L 17.828125 18.703125 
L 11.1875 0 
L 0.78125 0 
z
" id="DejaVuSans-41"/>
    </defs>
    <g transform="translate(401.44 114.31)scale(0.16 -0.16)">
     <use xlink:href="#DejaVuSans-31"/>
     <use x="63.623047" xlink:href="#DejaVuSans-41"/>
    </g>
   </g>
   <g id="text_5">
    <!-- $I_1$ -->
    <defs>
     <path d="M 9.8125 72.90625 
L 19.671875 72.90625 
L 19.671875 0 
L 9.8125 0 
z
" id="DejaVuSans-49"/>
    </defs>
    <g transform="translate(136.81 118.135)scale(0.16 -0.16)">
     <use transform="translate(0 0.09375)" xlink:href="#DejaVuSans-49"/>
     <use transform="translate(30.449219 -16.3125)scale(0.7)" xlink:href="#DejaVuSans-31"/>
    </g>
   </g>
   <g id="text_6">
    <!-- $I_2$ -->
    <g transform="translate(290.71 118.135)scale(0.16 -0.16)">
     <use transform="translate(0 0.09375)" xlink:href="#DejaVuSans-49"/>
     <use transform="translate(30.449219 -16.3125)scale(0.7)" xlink:href="#DejaVuSans-32"/>
    </g>
   </g>
  </g>
 </g>
 <defs>
  <clipPath id="p293dc452f2">
   <rect height="185.3595" width="398.52" x="20.74" y="14.53775"/>
  </clipPath>
 </defs>
</svg>
