<?xml version="1.0" encoding="utf-8" standalone="no"?>
<!DOCTYPE svg PUBLIC "-//W3C//DTD SVG 1.1//EN"
  "http://www.w3.org/Graphics/SVG/1.1/DTD/svg11.dtd">
<!-- Created with matplotlib (https://matplotlib.org/) -->
<svg height="247.412575pt" version="1.1" viewBox="0 0 282.415461 247.412575" width="282.415461pt" xmlns="http://www.w3.org/2000/svg" xmlns:xlink="http://www.w3.org/1999/xlink">
 <defs>
  <style type="text/css">
*{stroke-linecap:butt;stroke-linejoin:round;white-space:pre;}
  </style>
 </defs>
 <g id="figure_1">
  <g id="patch_1">
   <path d="M 0 247.412575 
L 282.415461 247.412575 
L 282.415461 0 
L 0 0 
z
" style="fill:none;"/>
  </g>
  <g id="axes_1">
   <g id="patch_2">
    <path clip-path="url(#pf972eeb45b)" d="M 141.62 33.754375 
C 142.264444 33.754375 142.882579 33.512559 143.338269 33.082185 
C 143.79396 32.651811 144.05 32.068016 144.05 31.459375 
C 144.05 30.850734 143.79396 30.266939 143.338269 29.836565 
C 142.882579 29.406191 142.264444 29.164375 141.62 29.164375 
C 140.975556 29.164375 140.357421 29.406191 139.901731 29.836565 
C 139.44604 30.266939 139.19 30.850734 139.19 31.459375 
C 139.19 32.068016 139.44604 32.651811 139.901731 33.082185 
C 140.357421 33.512559 140.975556 33.754375 141.62 33.754375 
z
" style="stroke:#000000;stroke-linejoin:miter;stroke-width:2;"/>
   </g>
   <g id="patch_3">
    <path clip-path="url(#pf972eeb45b)" d="M 252.268058 98.779375 
C 252.912501 98.779375 253.530637 98.537559 253.986327 98.107185 
C 254.442018 97.676811 254.698058 97.093016 254.698058 96.484375 
C 254.698058 95.875734 254.442018 95.291939 253.986327 94.861565 
C 253.530637 94.431191 252.912501 94.189375 252.268058 94.189375 
C 251.623614 94.189375 251.005479 94.431191 250.549788 94.861565 
C 250.094098 95.291939 249.838058 95.875734 249.838058 96.484375 
C 249.838058 97.093016 250.094098 97.676811 250.549788 98.107185 
C 251.005479 98.537559 251.623614 98.779375 252.268058 98.779375 
z
" style="stroke:#000000;stroke-linejoin:miter;stroke-width:2;"/>
   </g>
   <g id="patch_4">
    <path clip-path="url(#pf972eeb45b)" d="M 141.62 117.904375 
C 142.264444 117.904375 142.882579 117.662559 143.338269 117.232185 
C 143.79396 116.801811 144.05 116.218016 144.05 115.609375 
C 144.05 115.000734 143.79396 114.416939 143.338269 113.986565 
C 142.882579 113.556191 142.264444 113.314375 141.62 113.314375 
C 140.975556 113.314375 140.357421 113.556191 139.901731 113.986565 
C 139.44604 114.416939 139.19 115.000734 139.19 115.609375 
C 139.19 116.218016 139.44604 116.801811 139.901731 117.232185 
C 140.357421 117.662559 140.975556 117.904375 141.62 117.904375 
z
" style="stroke:#000000;stroke-linejoin:miter;stroke-width:2;"/>
   </g>
   <g id="patch_5">
    <path clip-path="url(#pf972eeb45b)" d="M 141.62 209.704375 
C 142.264444 209.704375 142.882579 209.462559 143.338269 209.032185 
C 143.79396 208.601811 144.05 208.018016 144.05 207.409375 
C 144.05 206.800734 143.79396 206.216939 143.338269 205.786565 
C 142.882579 205.356191 142.264444 205.114375 141.62 205.114375 
C 140.975556 205.114375 140.357421 205.356191 139.901731 205.786565 
C 139.44604 206.216939 139.19 206.800734 139.19 207.409375 
C 139.19 208.018016 139.44604 208.601811 139.901731 209.032185 
C 140.357421 209.462559 140.975556 209.704375 141.62 209.704375 
z
" style="stroke:#000000;stroke-linejoin:miter;stroke-width:2;"/>
   </g>
   <g id="patch_6">
    <path clip-path="url(#pf972eeb45b)" d="M 44.42 176.809375 
C 48.71629 176.809375 52.837194 175.19727 55.87513 172.328109 
C 58.913066 169.458947 60.62 165.566982 60.62 161.509375 
C 60.62 157.451768 58.913066 153.559803 55.87513 150.690641 
C 52.837194 147.82148 48.71629 146.209375 44.42 146.209375 
C 40.12371 146.209375 36.002806 147.82148 32.96487 150.690641 
C 29.926934 153.559803 28.22 157.451768 28.22 161.509375 
C 28.22 165.566982 29.926934 169.458947 32.96487 172.328109 
C 36.002806 175.19727 40.12371 176.809375 44.42 176.809375 
z
" style="fill:none;stroke:#000000;stroke-linejoin:miter;stroke-width:2;"/>
   </g>
   <g id="line2d_1">
    <path clip-path="url(#pf972eeb45b)" d="M 165.92 96.484375 
L 165.92 58.234375 
L 236.068058 96.484375 
L 165.92 134.734375 
L 165.92 96.484375 
M 236.068058 96.484375 
" style="fill:none;stroke:#000000;stroke-linecap:round;stroke-width:2;"/>
   </g>
   <g id="line2d_2">
    <path clip-path="url(#pf972eeb45b)" d="M 171.448507 77.359375 
L 177.928507 77.359375 
" style="fill:none;stroke:#000000;stroke-linecap:round;stroke-width:2;"/>
   </g>
   <g id="line2d_3">
    <path clip-path="url(#pf972eeb45b)" d="M 171.448507 115.609375 
L 177.928507 115.609375 
" style="fill:none;stroke:#000000;stroke-linecap:round;stroke-width:2;"/>
   </g>
   <g id="line2d_4">
    <path clip-path="url(#pf972eeb45b)" d="M 174.688507 118.669375 
L 174.688507 112.549375 
" style="fill:none;stroke:#000000;stroke-linecap:round;stroke-width:2;"/>
   </g>
   <g id="line2d_5">
    <path clip-path="url(#pf972eeb45b)" d="M 236.068058 96.484375 
L 248.218058 96.484375 
L 260.368058 96.484375 
" style="fill:none;stroke:#000000;stroke-linecap:round;stroke-width:2;"/>
   </g>
   <g id="line2d_6">
    <path clip-path="url(#pf972eeb45b)" d="M 165.92 77.359375 
L 153.77 77.359375 
L 141.62 77.359375 
" style="fill:none;stroke:#000000;stroke-linecap:round;stroke-width:2;"/>
   </g>
   <g id="line2d_7">
    <path clip-path="url(#pf972eeb45b)" d="M 141.62 77.359375 
L 141.62 54.409375 
L 141.62 31.459375 
" style="fill:none;stroke:#000000;stroke-linecap:round;stroke-width:2;"/>
   </g>
   <g id="line2d_8">
    <path clip-path="url(#pf972eeb45b)" d="M 141.62 31.459375 
" style="fill:none;stroke:#000000;stroke-linecap:round;stroke-width:2;"/>
   </g>
   <g id="line2d_9">
    <path clip-path="url(#pf972eeb45b)" d="M 141.62 31.459375 
L 109.22 31.459375 
L 106.52 39.109375 
L 101.12 23.809375 
L 95.72 39.109375 
L 90.32 23.809375 
L 84.92 39.109375 
L 79.52 23.809375 
L 76.82 31.459375 
L 44.42 31.459375 
" style="fill:none;stroke:#000000;stroke-linecap:round;stroke-width:2;"/>
   </g>
   <g id="line2d_10">
    <path clip-path="url(#pf972eeb45b)" d="M 44.42 31.459375 
L 44.42 43.699375 
L 36.32 43.699375 
L 52.52 43.699375 
M 38.75 47.371375 
L 50.09 47.371375 
M 42.8 51.043375 
L 46.04 51.043375 
" style="fill:none;stroke:#000000;stroke-linecap:round;stroke-width:2;"/>
   </g>
   <g id="line2d_11">
    <path clip-path="url(#pf972eeb45b)" d="M 141.62 31.459375 
L 180.744029 31.459375 
L 183.444029 23.809375 
L 188.844029 39.109375 
L 194.244029 23.809375 
L 199.644029 39.109375 
L 205.044029 23.809375 
L 210.444029 39.109375 
L 213.144029 31.459375 
L 252.268058 31.459375 
" style="fill:none;stroke:#000000;stroke-linecap:round;stroke-width:2;"/>
   </g>
   <g id="line2d_12">
    <path clip-path="url(#pf972eeb45b)" d="M 252.268058 31.459375 
L 252.268058 63.971875 
L 252.268058 96.484375 
" style="fill:none;stroke:#000000;stroke-linecap:round;stroke-width:2;"/>
   </g>
   <g id="line2d_13">
    <path clip-path="url(#pf972eeb45b)" d="M 252.268058 96.484375 
" style="fill:none;stroke:#000000;stroke-linecap:round;stroke-width:2;"/>
   </g>
   <g id="line2d_14">
    <path clip-path="url(#pf972eeb45b)" d="M 165.92 115.609375 
L 153.77 115.609375 
L 141.62 115.609375 
" style="fill:none;stroke:#000000;stroke-linecap:round;stroke-width:2;"/>
   </g>
   <g id="line2d_15">
    <path clip-path="url(#pf972eeb45b)" d="M 141.62 115.609375 
" style="fill:none;stroke:#000000;stroke-linecap:round;stroke-width:2;"/>
   </g>
   <g id="line2d_16">
    <path clip-path="url(#pf972eeb45b)" d="M 141.62 115.609375 
L 141.62 146.209375 
L 149.72 148.759375 
L 133.52 153.859375 
L 149.72 158.959375 
L 133.52 164.059375 
L 149.72 169.159375 
L 133.52 174.259375 
L 141.62 176.809375 
L 141.62 207.409375 
" style="fill:none;stroke:#000000;stroke-linecap:round;stroke-width:2;"/>
   </g>
   <g id="line2d_17">
    <path clip-path="url(#pf972eeb45b)" d="M 141.62 207.409375 
" style="fill:none;stroke:#000000;stroke-linecap:round;stroke-width:2;"/>
   </g>
   <g id="line2d_18">
    <path clip-path="url(#pf972eeb45b)" d="M 141.62 207.409375 
L 141.62 219.649375 
L 133.52 219.649375 
L 149.72 219.649375 
M 135.95 223.321375 
L 147.29 223.321375 
M 140 226.993375 
L 143.24 226.993375 
" style="fill:none;stroke:#000000;stroke-linecap:round;stroke-width:2;"/>
   </g>
   <g id="line2d_19">
    <path clip-path="url(#pf972eeb45b)" d="M 141.62 115.609375 
L 109.22 115.609375 
L 106.52 123.259375 
L 101.12 107.959375 
L 95.72 123.259375 
L 90.32 107.959375 
L 84.92 123.259375 
L 79.52 107.959375 
L 76.82 115.609375 
L 44.42 115.609375 
" style="fill:none;stroke:#000000;stroke-linecap:round;stroke-width:2;"/>
   </g>
   <g id="line2d_20">
    <path clip-path="url(#pf972eeb45b)" d="M 47.66 169.159375 
L 41.18 169.159375 
" style="fill:none;stroke:#000000;stroke-linecap:round;stroke-width:2;"/>
   </g>
   <g id="line2d_21">
    <path clip-path="url(#pf972eeb45b)" d="M 44.42 150.799375 
L 44.42 156.919375 
" style="fill:none;stroke:#000000;stroke-linecap:round;stroke-width:2;"/>
   </g>
   <g id="line2d_22">
    <path clip-path="url(#pf972eeb45b)" d="M 47.66 153.859375 
L 41.18 153.859375 
" style="fill:none;stroke:#000000;stroke-linecap:round;stroke-width:2;"/>
   </g>
   <g id="line2d_23">
    <path clip-path="url(#pf972eeb45b)" d="M 44.42 115.609375 
L 44.42 146.209375 
L 44.42 146.209375 
M 44.42 176.809375 
L 44.42 176.809375 
L 44.42 207.409375 
" style="fill:none;stroke:#000000;stroke-linecap:round;stroke-width:2;"/>
   </g>
   <g id="line2d_24">
    <path clip-path="url(#pf972eeb45b)" d="M 44.42 207.409375 
L 148.344029 207.409375 
L 252.268058 207.409375 
" style="fill:none;stroke:#000000;stroke-linecap:round;stroke-width:2;"/>
   </g>
   <g id="line2d_25">
    <path clip-path="url(#pf972eeb45b)" d="M 252.268058 96.484375 
L 252.268058 136.646875 
M 252.268058 167.246875 
L 252.268058 207.409375 
" style="fill:none;stroke:#ffffff;stroke-linecap:round;stroke-width:2;"/>
   </g>
   <g id="text_1">
    <!-- $R_1$ -->
    <defs>
     <path d="M 44.390625 34.1875 
Q 47.5625 33.109375 50.5625 29.59375 
Q 53.5625 26.078125 56.59375 19.921875 
L 66.609375 0 
L 56 0 
L 46.6875 18.703125 
Q 43.0625 26.03125 39.671875 28.421875 
Q 36.28125 30.8125 30.421875 30.8125 
L 19.671875 30.8125 
L 19.671875 0 
L 9.8125 0 
L 9.8125 72.90625 
L 32.078125 72.90625 
Q 44.578125 72.90625 50.734375 67.671875 
Q 56.890625 62.453125 56.890625 51.90625 
Q 56.890625 45.015625 53.6875 40.46875 
Q 50.484375 35.9375 44.390625 34.1875 
z
M 19.671875 64.796875 
L 19.671875 38.921875 
L 32.078125 38.921875 
Q 39.203125 38.921875 42.84375 42.21875 
Q 46.484375 45.515625 46.484375 51.90625 
Q 46.484375 58.296875 42.84375 61.546875 
Q 39.203125 64.796875 32.078125 64.796875 
z
" id="DejaVuSans-82"/>
     <path d="M 12.40625 8.296875 
L 28.515625 8.296875 
L 28.515625 63.921875 
L 10.984375 60.40625 
L 10.984375 69.390625 
L 28.421875 72.90625 
L 38.28125 72.90625 
L 38.28125 8.296875 
L 54.390625 8.296875 
L 54.390625 0 
L 12.40625 0 
z
" id="DejaVuSans-49"/>
    </defs>
    <g transform="translate(84.76 17.837813)scale(0.14 -0.14)">
     <use transform="translate(0 0.09375)" xlink:href="#DejaVuSans-82"/>
     <use transform="translate(70.439453 -16.3125)scale(0.7)" xlink:href="#DejaVuSans-49"/>
    </g>
   </g>
   <g id="text_2">
    <!-- $R_f$ -->
    <defs>
     <path d="M 37.109375 75.984375 
L 37.109375 68.5 
L 28.515625 68.5 
Q 23.6875 68.5 21.796875 66.546875 
Q 19.921875 64.59375 19.921875 59.515625 
L 19.921875 54.6875 
L 34.71875 54.6875 
L 34.71875 47.703125 
L 19.921875 47.703125 
L 19.921875 0 
L 10.890625 0 
L 10.890625 47.703125 
L 2.296875 47.703125 
L 2.296875 54.6875 
L 10.890625 54.6875 
L 10.890625 58.5 
Q 10.890625 67.625 15.140625 71.796875 
Q 19.390625 75.984375 28.609375 75.984375 
z
" id="DejaVuSans-102"/>
    </defs>
    <g transform="translate(190.084029 17.837813)scale(0.14 -0.14)">
     <use transform="translate(0 0.09375)" xlink:href="#DejaVuSans-82"/>
     <use transform="translate(70.439453 -16.3125)scale(0.7)" xlink:href="#DejaVuSans-102"/>
    </g>
   </g>
   <g id="text_3">
    <!-- $R_3$ -->
    <defs>
     <path d="M 40.578125 39.3125 
Q 47.65625 37.796875 51.625 33 
Q 55.609375 28.21875 55.609375 21.1875 
Q 55.609375 10.40625 48.1875 4.484375 
Q 40.765625 -1.421875 27.09375 -1.421875 
Q 22.515625 -1.421875 17.65625 -0.515625 
Q 12.796875 0.390625 7.625 2.203125 
L 7.625 11.71875 
Q 11.71875 9.328125 16.59375 8.109375 
Q 21.484375 6.890625 26.8125 6.890625 
Q 36.078125 6.890625 40.9375 10.546875 
Q 45.796875 14.203125 45.796875 21.1875 
Q 45.796875 27.640625 41.28125 31.265625 
Q 36.765625 34.90625 28.71875 34.90625 
L 20.21875 34.90625 
L 20.21875 43.015625 
L 29.109375 43.015625 
Q 36.375 43.015625 40.234375 45.921875 
Q 44.09375 48.828125 44.09375 54.296875 
Q 44.09375 59.90625 40.109375 62.90625 
Q 36.140625 65.921875 28.71875 65.921875 
Q 24.65625 65.921875 20.015625 65.03125 
Q 15.375 64.15625 9.8125 62.3125 
L 9.8125 71.09375 
Q 15.4375 72.65625 20.34375 73.4375 
Q 25.25 74.21875 29.59375 74.21875 
Q 40.828125 74.21875 47.359375 69.109375 
Q 53.90625 64.015625 53.90625 55.328125 
Q 53.90625 49.265625 50.4375 45.09375 
Q 46.96875 40.921875 40.578125 39.3125 
z
" id="DejaVuSans-51"/>
    </defs>
    <g transform="translate(113.76 165.3725)scale(0.14 -0.14)">
     <use transform="translate(0 0.09375)" xlink:href="#DejaVuSans-82"/>
     <use transform="translate(70.439453 -16.3125)scale(0.7)" xlink:href="#DejaVuSans-51"/>
    </g>
   </g>
   <g id="text_4">
    <!-- $R_2$ -->
    <defs>
     <path d="M 19.1875 8.296875 
L 53.609375 8.296875 
L 53.609375 0 
L 7.328125 0 
L 7.328125 8.296875 
Q 12.9375 14.109375 22.625 23.890625 
Q 32.328125 33.6875 34.8125 36.53125 
Q 39.546875 41.84375 41.421875 45.53125 
Q 43.3125 49.21875 43.3125 52.78125 
Q 43.3125 58.59375 39.234375 62.25 
Q 35.15625 65.921875 28.609375 65.921875 
Q 23.96875 65.921875 18.8125 64.3125 
Q 13.671875 62.703125 7.8125 59.421875 
L 7.8125 69.390625 
Q 13.765625 71.78125 18.9375 73 
Q 24.125 74.21875 28.421875 74.21875 
Q 39.75 74.21875 46.484375 68.546875 
Q 53.21875 62.890625 53.21875 53.421875 
Q 53.21875 48.921875 51.53125 44.890625 
Q 49.859375 40.875 45.40625 35.40625 
Q 44.1875 33.984375 37.640625 27.21875 
Q 31.109375 20.453125 19.1875 8.296875 
z
" id="DejaVuSans-50"/>
    </defs>
    <g transform="translate(84.76 101.987812)scale(0.14 -0.14)">
     <use transform="translate(0 0.09375)" xlink:href="#DejaVuSans-82"/>
     <use transform="translate(70.439453 -16.3125)scale(0.7)" xlink:href="#DejaVuSans-50"/>
    </g>
   </g>
   <g id="text_5">
    <!-- $v_{in}$ -->
    <defs>
     <path d="M 2.984375 54.6875 
L 12.5 54.6875 
L 29.59375 8.796875 
L 46.6875 54.6875 
L 56.203125 54.6875 
L 35.6875 0 
L 23.484375 0 
z
" id="DejaVuSans-118"/>
     <path d="M 9.421875 54.6875 
L 18.40625 54.6875 
L 18.40625 0 
L 9.421875 0 
z
M 9.421875 75.984375 
L 18.40625 75.984375 
L 18.40625 64.59375 
L 9.421875 64.59375 
z
" id="DejaVuSans-105"/>
     <path d="M 54.890625 33.015625 
L 54.890625 0 
L 45.90625 0 
L 45.90625 32.71875 
Q 45.90625 40.484375 42.875 44.328125 
Q 39.84375 48.1875 33.796875 48.1875 
Q 26.515625 48.1875 22.3125 43.546875 
Q 18.109375 38.921875 18.109375 30.90625 
L 18.109375 0 
L 9.078125 0 
L 9.078125 54.6875 
L 18.109375 54.6875 
L 18.109375 46.1875 
Q 21.34375 51.125 25.703125 53.5625 
Q 30.078125 56 35.796875 56 
Q 45.21875 56 50.046875 50.171875 
Q 54.890625 44.34375 54.890625 33.015625 
z
" id="DejaVuSans-110"/>
    </defs>
    <g transform="translate(7.2 165.3725)scale(0.14 -0.14)">
     <use transform="translate(0 0.3125)" xlink:href="#DejaVuSans-118"/>
     <use transform="translate(60.136719 -16.09375)scale(0.7)" xlink:href="#DejaVuSans-105"/>
     <use transform="translate(79.584961 -16.09375)scale(0.7)" xlink:href="#DejaVuSans-110"/>
    </g>
   </g>
   <g id="text_6">
    <!-- + -->
    <defs>
     <path d="M 46 62.703125 
L 46 35.5 
L 73.1875 35.5 
L 73.1875 27.203125 
L 46 27.203125 
L 46 0 
L 37.796875 0 
L 37.796875 27.203125 
L 10.59375 27.203125 
L 10.59375 35.5 
L 37.796875 35.5 
L 37.796875 62.703125 
z
" id="DejaVuSans-43"/>
    </defs>
    <g transform="translate(246.402276 128.07875)scale(0.14 -0.14)">
     <use xlink:href="#DejaVuSans-43"/>
    </g>
   </g>
   <g id="text_7">
    <!-- $v_o$ -->
    <defs>
     <path d="M 30.609375 48.390625 
Q 23.390625 48.390625 19.1875 42.75 
Q 14.984375 37.109375 14.984375 27.296875 
Q 14.984375 17.484375 19.15625 11.84375 
Q 23.34375 6.203125 30.609375 6.203125 
Q 37.796875 6.203125 41.984375 11.859375 
Q 46.1875 17.53125 46.1875 27.296875 
Q 46.1875 37.015625 41.984375 42.703125 
Q 37.796875 48.390625 30.609375 48.390625 
z
M 30.609375 56 
Q 42.328125 56 49.015625 48.375 
Q 55.71875 40.765625 55.71875 27.296875 
Q 55.71875 13.875 49.015625 6.21875 
Q 42.328125 -1.421875 30.609375 -1.421875 
Q 18.84375 -1.421875 12.171875 6.21875 
Q 5.515625 13.875 5.515625 27.296875 
Q 5.515625 40.765625 12.171875 48.375 
Q 18.84375 56 30.609375 56 
z
" id="DejaVuSans-111"/>
    </defs>
    <g transform="translate(244.848058 155.81)scale(0.14 -0.14)">
     <use transform="translate(0 0.3125)" xlink:href="#DejaVuSans-118"/>
     <use transform="translate(60.136719 -16.09375)scale(0.7)" xlink:href="#DejaVuSans-111"/>
    </g>
   </g>
   <g id="text_8">
    <!-- $-$ -->
    <defs>
     <path d="M 10.59375 35.5 
L 73.1875 35.5 
L 73.1875 27.203125 
L 10.59375 27.203125 
z
" id="DejaVuSans-8722"/>
    </defs>
    <g transform="translate(246.388058 183.54125)scale(0.14 -0.14)">
     <use transform="translate(0 0.5)" xlink:href="#DejaVuSans-8722"/>
    </g>
   </g>
  </g>
 </g>
 <defs>
  <clipPath id="pf972eeb45b">
   <rect height="229.6224" width="261.842863" x="13.372597" y="10.590175"/>
  </clipPath>
 </defs>
</svg>
