<?xml version="1.0" encoding="utf-8" standalone="no"?>
<!DOCTYPE svg PUBLIC "-//W3C//DTD SVG 1.1//EN"
  "http://www.w3.org/Graphics/SVG/1.1/DTD/svg11.dtd">
<!-- Created with matplotlib (http://matplotlib.org/) -->
<svg height="240pt" version="1.1" viewBox="0 0 280 240" width="280pt" xmlns="http://www.w3.org/2000/svg" xmlns:xlink="http://www.w3.org/1999/xlink">
 <defs>
  <style type="text/css">
*{stroke-linecap:butt;stroke-linejoin:round;stroke-miterlimit:100000;}
  </style>
 </defs>
 <g id="figure_1">
  <g id="patch_1">
   <path d="M 0 240.504 
L 280.248058 240.504 
L 280.248058 0 
L 0 0 
z
" style="fill:none;"/>
  </g>
  <g id="axes_1">
   <g id="line2d_1">
    <path clip-path="url(#p16ff2aee80)" d="M 177.868507 121.92 
L 177.868507 115.8 
" style="fill:none;stroke:#000000;stroke-linecap:round;stroke-width:1.5;"/>
   </g>
   <g id="line2d_2">
    <path clip-path="url(#p16ff2aee80)" d="M 169.1 99.735 
L 169.1 61.485 
L 239.248058 99.735 
L 169.1 137.985 
L 169.1 99.735 
M 239.248058 99.735 
" style="fill:none;stroke:#000000;stroke-linecap:round;stroke-width:1.5;"/>
   </g>
   <g id="line2d_3">
    <path clip-path="url(#p16ff2aee80)" d="M 174.628507 80.61 
L 181.108507 80.61 
" style="fill:none;stroke:#000000;stroke-linecap:round;stroke-width:1.5;"/>
   </g>
   <g id="line2d_4">
    <path clip-path="url(#p16ff2aee80)" d="M 174.628507 118.86 
L 181.108507 118.86 
" style="fill:none;stroke:#000000;stroke-linecap:round;stroke-width:1.5;"/>
   </g>
   <g id="line2d_5">
    <path clip-path="url(#p16ff2aee80)" d="M 239.248058 99.735 
L 251.398058 99.735 
L 263.548058 99.735 
" style="fill:none;stroke:#000000;stroke-linecap:round;stroke-width:1.5;"/>
   </g>
   <g id="line2d_6">
    <path clip-path="url(#p16ff2aee80)" d="M 169.1 80.61 
L 156.95 80.61 
L 144.8 80.61 
" style="fill:none;stroke:#000000;stroke-linecap:round;stroke-width:1.5;"/>
   </g>
   <g id="line2d_7">
    <path clip-path="url(#p16ff2aee80)" d="M 144.8 80.61 
L 144.8 57.66 
L 144.8 34.71 
" style="fill:none;stroke:#000000;stroke-linecap:round;stroke-width:1.5;"/>
   </g>
   <g id="line2d_8">
    <path clip-path="url(#p16ff2aee80)" d="M 144.8 34.71 
" style="fill:none;stroke:#000000;stroke-linecap:round;stroke-width:1.5;"/>
   </g>
   <g id="line2d_9">
    <path clip-path="url(#p16ff2aee80)" d="M 144.8 34.71 
L 112.4 34.71 
L 109.7 42.36 
L 104.3 27.06 
L 98.9 42.36 
L 93.5 27.06 
L 88.1 42.36 
L 82.7 27.06 
L 80 34.71 
L 47.6 34.71 
" style="fill:none;stroke:#000000;stroke-linecap:round;stroke-width:1.5;"/>
   </g>
   <g id="line2d_10">
    <path clip-path="url(#p16ff2aee80)" d="M 47.6 34.71 
L 47.6 46.95 
L 39.5 46.95 
L 55.7 46.95 
M 41.93 50.622 
L 53.27 50.622 
M 45.98 54.294 
L 49.22 54.294 
" style="fill:none;stroke:#000000;stroke-linecap:round;stroke-width:1.5;"/>
   </g>
   <g id="line2d_11">
    <path clip-path="url(#p16ff2aee80)" d="M 144.8 34.71 
L 183.924029 34.71 
L 186.624029 27.06 
L 192.024029 42.36 
L 197.424029 27.06 
L 202.824029 42.36 
L 208.224029 27.06 
L 213.624029 42.36 
L 216.324029 34.71 
L 255.448058 34.71 
" style="fill:none;stroke:#000000;stroke-linecap:round;stroke-width:1.5;"/>
   </g>
   <g id="line2d_12">
    <path clip-path="url(#p16ff2aee80)" d="M 255.448058 34.71 
L 255.448058 67.2225 
L 255.448058 99.735 
" style="fill:none;stroke:#000000;stroke-linecap:round;stroke-width:1.5;"/>
   </g>
   <g id="line2d_13">
    <path clip-path="url(#p16ff2aee80)" d="M 255.448058 99.735 
" style="fill:none;stroke:#000000;stroke-linecap:round;stroke-width:1.5;"/>
   </g>
   <g id="line2d_14">
    <path clip-path="url(#p16ff2aee80)" d="M 169.1 118.86 
L 156.95 118.86 
L 144.8 118.86 
" style="fill:none;stroke:#000000;stroke-linecap:round;stroke-width:1.5;"/>
   </g>
   <g id="line2d_15">
    <path clip-path="url(#p16ff2aee80)" d="M 144.8 118.86 
" style="fill:none;stroke:#000000;stroke-linecap:round;stroke-width:1.5;"/>
   </g>
   <g id="line2d_16">
    <path clip-path="url(#p16ff2aee80)" d="M 144.8 118.86 
L 144.8 149.46 
L 152.9 152.01 
L 136.7 157.11 
L 152.9 162.21 
L 136.7 167.31 
L 152.9 172.41 
L 136.7 177.51 
L 144.8 180.06 
L 144.8 210.66 
" style="fill:none;stroke:#000000;stroke-linecap:round;stroke-width:1.5;"/>
   </g>
   <g id="line2d_17">
    <path clip-path="url(#p16ff2aee80)" d="M 144.8 210.66 
" style="fill:none;stroke:#000000;stroke-linecap:round;stroke-width:1.5;"/>
   </g>
   <g id="line2d_18">
    <path clip-path="url(#p16ff2aee80)" d="M 144.8 210.66 
L 144.8 222.9 
L 136.7 222.9 
L 152.9 222.9 
M 139.13 226.572 
L 150.47 226.572 
M 143.18 230.244 
L 146.42 230.244 
" style="fill:none;stroke:#000000;stroke-linecap:round;stroke-width:1.5;"/>
   </g>
   <g id="line2d_19">
    <path clip-path="url(#p16ff2aee80)" d="M 144.8 118.86 
L 112.4 118.86 
L 109.7 126.51 
L 104.3 111.21 
L 98.9 126.51 
L 93.5 111.21 
L 88.1 126.51 
L 82.7 111.21 
L 80 118.86 
L 47.6 118.86 
" style="fill:none;stroke:#000000;stroke-linecap:round;stroke-width:1.5;"/>
   </g>
   <g id="line2d_20">
    <path clip-path="url(#p16ff2aee80)" d="M 47.6 210.66 
L 47.6 180.06 
L 47.6 180.06 
M 47.6 149.46 
L 47.6 149.46 
L 47.6 118.86 
" style="fill:none;stroke:#000000;stroke-linecap:round;stroke-width:1.5;"/>
   </g>
   <g id="line2d_21">
    <path clip-path="url(#p16ff2aee80)" d="M 44.36 172.41 
L 50.84 172.41 
" style="fill:none;stroke:#000000;stroke-linecap:round;stroke-width:1.5;"/>
   </g>
   <g id="line2d_22">
    <path clip-path="url(#p16ff2aee80)" d="M 47.6 160.17 
L 47.6 154.05 
" style="fill:none;stroke:#000000;stroke-linecap:round;stroke-width:1.5;"/>
   </g>
   <g id="line2d_23">
    <path clip-path="url(#p16ff2aee80)" d="M 44.36 157.11 
L 50.84 157.11 
" style="fill:none;stroke:#000000;stroke-linecap:round;stroke-width:1.5;"/>
   </g>
   <g id="line2d_24">
    <path clip-path="url(#p16ff2aee80)" d="M 47.6 210.66 
L 151.524029 210.66 
L 255.448058 210.66 
" style="fill:none;stroke:#000000;stroke-linecap:round;stroke-width:1.5;"/>
   </g>
   <g id="line2d_25">
    <path clip-path="url(#p16ff2aee80)" d="M 255.448058 99.735 
L 255.448058 139.8975 
M 255.448058 170.4975 
L 255.448058 210.66 
" style="fill:none;stroke:#ffffff;stroke-linecap:round;stroke-width:1.5;"/>
   </g>
   <g id="patch_2">
    <path clip-path="url(#p16ff2aee80)" d="M 144.8 37.005 
C 145.444444 37.005 146.062579 36.763184 146.518269 36.33281 
C 146.97396 35.902436 147.23 35.318641 147.23 34.71 
C 147.23 34.101359 146.97396 33.517564 146.518269 33.08719 
C 146.062579 32.656816 145.444444 32.415 144.8 32.415 
C 144.155556 32.415 143.537421 32.656816 143.081731 33.08719 
C 142.62604 33.517564 142.37 34.101359 142.37 34.71 
C 142.37 35.318641 142.62604 35.902436 143.081731 36.33281 
C 143.537421 36.763184 144.155556 37.005 144.8 37.005 
z
" style="stroke:#000000;stroke-linejoin:miter;stroke-width:1.5;"/>
   </g>
   <g id="patch_3">
    <path clip-path="url(#p16ff2aee80)" d="M 255.448058 102.03 
C 256.092501 102.03 256.710637 101.788184 257.166327 101.35781 
C 257.622018 100.927436 257.878058 100.343641 257.878058 99.735 
C 257.878058 99.126359 257.622018 98.542564 257.166327 98.11219 
C 256.710637 97.681816 256.092501 97.44 255.448058 97.44 
C 254.803614 97.44 254.185479 97.681816 253.729788 98.11219 
C 253.274098 98.542564 253.018058 99.126359 253.018058 99.735 
C 253.018058 100.343641 253.274098 100.927436 253.729788 101.35781 
C 254.185479 101.788184 254.803614 102.03 255.448058 102.03 
z
" style="stroke:#000000;stroke-linejoin:miter;stroke-width:1.5;"/>
   </g>
   <g id="patch_4">
    <path clip-path="url(#p16ff2aee80)" d="M 144.8 121.155 
C 145.444444 121.155 146.062579 120.913184 146.518269 120.48281 
C 146.97396 120.052436 147.23 119.468641 147.23 118.86 
C 147.23 118.251359 146.97396 117.667564 146.518269 117.23719 
C 146.062579 116.806816 145.444444 116.565 144.8 116.565 
C 144.155556 116.565 143.537421 116.806816 143.081731 117.23719 
C 142.62604 117.667564 142.37 118.251359 142.37 118.86 
C 142.37 119.468641 142.62604 120.052436 143.081731 120.48281 
C 143.537421 120.913184 144.155556 121.155 144.8 121.155 
z
" style="stroke:#000000;stroke-linejoin:miter;stroke-width:1.5;"/>
   </g>
   <g id="patch_5">
    <path clip-path="url(#p16ff2aee80)" d="M 144.8 212.955 
C 145.444444 212.955 146.062579 212.713184 146.518269 212.28281 
C 146.97396 211.852436 147.23 211.268641 147.23 210.66 
C 147.23 210.051359 146.97396 209.467564 146.518269 209.03719 
C 146.062579 208.606816 145.444444 208.365 144.8 208.365 
C 144.155556 208.365 143.537421 208.606816 143.081731 209.03719 
C 142.62604 209.467564 142.37 210.051359 142.37 210.66 
C 142.37 211.268641 142.62604 211.852436 143.081731 212.28281 
C 143.537421 212.713184 144.155556 212.955 144.8 212.955 
z
" style="stroke:#000000;stroke-linejoin:miter;stroke-width:1.5;"/>
   </g>
   <g id="patch_6">
    <path clip-path="url(#p16ff2aee80)" d="M 47.6 180.06 
C 51.89629 180.06 56.017194 178.447895 59.05513 175.578734 
C 62.093066 172.709572 63.8 168.817607 63.8 164.76 
C 63.8 160.702393 62.093066 156.810428 59.05513 153.941266 
C 56.017194 151.072105 51.89629 149.46 47.6 149.46 
C 43.30371 149.46 39.182806 151.072105 36.14487 153.941266 
C 33.106934 156.810428 31.4 160.702393 31.4 164.76 
C 31.4 168.817607 33.106934 172.709572 36.14487 175.578734 
C 39.182806 178.447895 43.30371 180.06 47.6 180.06 
z
" style="fill:none;stroke:#000000;stroke-linejoin:miter;stroke-width:1.5;"/>
   </g>
   <g id="text_1">
    <!-- $R_1$ -->
    <defs>
     <path d="M 12.40625 8.296875 
L 28.515625 8.296875 
L 28.515625 63.921875 
L 10.984375 60.40625 
L 10.984375 69.390625 
L 28.421875 72.90625 
L 38.28125 72.90625 
L 38.28125 8.296875 
L 54.390625 8.296875 
L 54.390625 0 
L 12.40625 0 
z
" id="BitstreamVeraSans-Roman-31"/>
     <path d="M 44.390625 34.1875 
Q 47.5625 33.109375 50.5625 29.59375 
Q 53.5625 26.078125 56.59375 19.921875 
L 66.609375 0 
L 56 0 
L 46.6875 18.703125 
Q 43.0625 26.03125 39.671875 28.421875 
Q 36.28125 30.8125 30.421875 30.8125 
L 19.671875 30.8125 
L 19.671875 0 
L 9.8125 0 
L 9.8125 72.90625 
L 32.078125 72.90625 
Q 44.578125 72.90625 50.734375 67.671875 
Q 56.890625 62.453125 56.890625 51.90625 
Q 56.890625 45.015625 53.6875 40.46875 
Q 50.484375 35.9375 44.390625 34.1875 
M 19.671875 64.796875 
L 19.671875 38.921875 
L 32.078125 38.921875 
Q 39.203125 38.921875 42.84375 42.21875 
Q 46.484375 45.515625 46.484375 51.90625 
Q 46.484375 58.296875 42.84375 61.546875 
Q 39.203125 64.796875 32.078125 64.796875 
z
" id="BitstreamVeraSans-Roman-52"/>
    </defs>
    <g transform="translate(86.44 18.88)scale(0.16 -0.16)">
     <use transform="translate(0.0 0.09375)" xlink:href="#BitstreamVeraSans-Roman-52"/>
     <use transform="translate(71.319921875 -31.40625)scale(0.7)" xlink:href="#BitstreamVeraSans-Roman-31"/>
    </g>
   </g>
   <g id="text_2">
    <!-- $R_f$ -->
    <defs>
     <path d="M 37.109375 75.984375 
L 37.109375 68.5 
L 28.515625 68.5 
Q 23.6875 68.5 21.796875 66.546875 
Q 19.921875 64.59375 19.921875 59.515625 
L 19.921875 54.6875 
L 34.71875 54.6875 
L 34.71875 47.703125 
L 19.921875 47.703125 
L 19.921875 0 
L 10.890625 0 
L 10.890625 47.703125 
L 2.296875 47.703125 
L 2.296875 54.6875 
L 10.890625 54.6875 
L 10.890625 58.5 
Q 10.890625 67.625 15.140625 71.796875 
Q 19.390625 75.984375 28.609375 75.984375 
z
" id="BitstreamVeraSans-Roman-66"/>
    </defs>
    <g transform="translate(191.964028853 18.88)scale(0.16 -0.16)">
     <use transform="translate(0.0 0.09375)" xlink:href="#BitstreamVeraSans-Roman-52"/>
     <use transform="translate(71.319921875 -31.40625)scale(0.7)" xlink:href="#BitstreamVeraSans-Roman-66"/>
    </g>
   </g>
   <g id="text_3">
    <!-- $R_3$ -->
    <defs>
     <path d="M 40.578125 39.3125 
Q 47.65625 37.796875 51.625 33 
Q 55.609375 28.21875 55.609375 21.1875 
Q 55.609375 10.40625 48.1875 4.484375 
Q 40.765625 -1.421875 27.09375 -1.421875 
Q 22.515625 -1.421875 17.65625 -0.515625 
Q 12.796875 0.390625 7.625 2.203125 
L 7.625 11.71875 
Q 11.71875 9.328125 16.59375 8.109375 
Q 21.484375 6.890625 26.8125 6.890625 
Q 36.078125 6.890625 40.9375 10.546875 
Q 45.796875 14.203125 45.796875 21.1875 
Q 45.796875 27.640625 41.28125 31.265625 
Q 36.765625 34.90625 28.71875 34.90625 
L 20.21875 34.90625 
L 20.21875 43.015625 
L 29.109375 43.015625 
Q 36.375 43.015625 40.234375 45.921875 
Q 44.09375 48.828125 44.09375 54.296875 
Q 44.09375 59.90625 40.109375 62.90625 
Q 36.140625 65.921875 28.71875 65.921875 
Q 24.65625 65.921875 20.015625 65.03125 
Q 15.375 64.15625 9.8125 62.3125 
L 9.8125 71.09375 
Q 15.4375 72.65625 20.34375 73.4375 
Q 25.25 74.21875 29.59375 74.21875 
Q 40.828125 74.21875 47.359375 69.109375 
Q 53.90625 64.015625 53.90625 55.328125 
Q 53.90625 49.265625 50.4375 45.09375 
Q 46.96875 40.921875 40.578125 39.3125 
" id="BitstreamVeraSans-Roman-33"/>
    </defs>
    <g transform="translate(113.94 167.96)scale(0.16 -0.16)">
     <use transform="translate(0.0 0.09375)" xlink:href="#BitstreamVeraSans-Roman-52"/>
     <use transform="translate(71.319921875 -31.40625)scale(0.7)" xlink:href="#BitstreamVeraSans-Roman-33"/>
    </g>
   </g>
   <g id="text_4">
    <!-- $R_2$ -->
    <defs>
     <path d="M 19.1875 8.296875 
L 53.609375 8.296875 
L 53.609375 0 
L 7.328125 0 
L 7.328125 8.296875 
Q 12.9375 14.109375 22.625 23.890625 
Q 32.328125 33.6875 34.8125 36.53125 
Q 39.546875 41.84375 41.421875 45.53125 
Q 43.3125 49.21875 43.3125 52.78125 
Q 43.3125 58.59375 39.234375 62.25 
Q 35.15625 65.921875 28.609375 65.921875 
Q 23.96875 65.921875 18.8125 64.3125 
Q 13.671875 62.703125 7.8125 59.421875 
L 7.8125 69.390625 
Q 13.765625 71.78125 18.9375 73 
Q 24.125 74.21875 28.421875 74.21875 
Q 39.75 74.21875 46.484375 68.546875 
Q 53.21875 62.890625 53.21875 53.421875 
Q 53.21875 48.921875 51.53125 44.890625 
Q 49.859375 40.875 45.40625 35.40625 
Q 44.1875 33.984375 37.640625 27.21875 
Q 31.109375 20.453125 19.1875 8.296875 
" id="BitstreamVeraSans-Roman-32"/>
    </defs>
    <g transform="translate(86.44 103.03)scale(0.16 -0.16)">
     <use transform="translate(0.0 0.09375)" xlink:href="#BitstreamVeraSans-Roman-52"/>
     <use transform="translate(71.319921875 -31.40625)scale(0.7)" xlink:href="#BitstreamVeraSans-Roman-32"/>
    </g>
   </g>
   <g id="text_5">
    <!-- $v_{in}$ -->
    <defs>
     <path d="M 54.890625 33.015625 
L 54.890625 0 
L 45.90625 0 
L 45.90625 32.71875 
Q 45.90625 40.484375 42.875 44.328125 
Q 39.84375 48.1875 33.796875 48.1875 
Q 26.515625 48.1875 22.3125 43.546875 
Q 18.109375 38.921875 18.109375 30.90625 
L 18.109375 0 
L 9.078125 0 
L 9.078125 54.6875 
L 18.109375 54.6875 
L 18.109375 46.1875 
Q 21.34375 51.125 25.703125 53.5625 
Q 30.078125 56 35.796875 56 
Q 45.21875 56 50.046875 50.171875 
Q 54.890625 44.34375 54.890625 33.015625 
" id="BitstreamVeraSans-Roman-6e"/>
     <path d="M 9.421875 54.6875 
L 18.40625 54.6875 
L 18.40625 0 
L 9.421875 0 
z
M 9.421875 75.984375 
L 18.40625 75.984375 
L 18.40625 64.59375 
L 9.421875 64.59375 
z
" id="BitstreamVeraSans-Roman-69"/>
     <path d="M 2.984375 54.6875 
L 12.5 54.6875 
L 29.59375 8.796875 
L 46.6875 54.6875 
L 56.203125 54.6875 
L 35.6875 0 
L 23.484375 0 
z
" id="BitstreamVeraSans-Roman-76"/>
    </defs>
    <g transform="translate(7.2 167.3825)scale(0.16 -0.16)">
     <use transform="translate(0.0 0.3125)" xlink:href="#BitstreamVeraSans-Roman-76"/>
     <use transform="translate(61.0171875 -31.1875)scale(0.7)" xlink:href="#BitstreamVeraSans-Roman-69"/>
     <use transform="translate(80.4654296875 -31.1875)scale(0.7)" xlink:href="#BitstreamVeraSans-Roman-6e"/>
    </g>
   </g>
   <g id="text_6">
    <!-- + -->
    <defs>
     <path d="M 46 62.703125 
L 46 35.5 
L 73.1875 35.5 
L 73.1875 27.203125 
L 46 27.203125 
L 46 0 
L 37.796875 0 
L 37.796875 27.203125 
L 10.59375 27.203125 
L 10.59375 35.5 
L 37.796875 35.5 
L 37.796875 62.703125 
z
" id="BitstreamVeraSans-Roman-2b"/>
    </defs>
    <g transform="translate(255.448057707 131.88125)scale(0.16 -0.16)">
     <use xlink:href="#BitstreamVeraSans-Roman-2b"/>
    </g>
   </g>
   <g id="text_7">
    <!-- $v_o$ -->
    <defs>
     <path d="M 30.609375 48.390625 
Q 23.390625 48.390625 19.1875 42.75 
Q 14.984375 37.109375 14.984375 27.296875 
Q 14.984375 17.484375 19.15625 11.84375 
Q 23.34375 6.203125 30.609375 6.203125 
Q 37.796875 6.203125 41.984375 11.859375 
Q 46.1875 17.53125 46.1875 27.296875 
Q 46.1875 37.015625 41.984375 42.703125 
Q 37.796875 48.390625 30.609375 48.390625 
M 30.609375 56 
Q 42.328125 56 49.015625 48.375 
Q 55.71875 40.765625 55.71875 27.296875 
Q 55.71875 13.875 49.015625 6.21875 
Q 42.328125 -1.421875 30.609375 -1.421875 
Q 18.84375 -1.421875 12.171875 6.21875 
Q 5.515625 13.875 5.515625 27.296875 
Q 5.515625 40.765625 12.171875 48.375 
Q 18.84375 56 30.609375 56 
" id="BitstreamVeraSans-Roman-6f"/>
    </defs>
    <g transform="translate(255.448057707 157.66)scale(0.16 -0.16)">
     <use transform="translate(0.0 0.3125)" xlink:href="#BitstreamVeraSans-Roman-76"/>
     <use transform="translate(61.0171875 -31.1875)scale(0.7)" xlink:href="#BitstreamVeraSans-Roman-6f"/>
    </g>
   </g>
   <g id="text_8">
    <!-- $-$ -->
    <defs>
     <path d="M 10.59375 35.5 
L 73.1875 35.5 
L 73.1875 27.203125 
L 10.59375 27.203125 
z
" id="BitstreamVeraSans-Roman-2212"/>
    </defs>
    <g transform="translate(255.448057707 187.34375)scale(0.16 -0.16)">
     <use transform="translate(0.0 0.5)" xlink:href="#BitstreamVeraSans-Roman-2212"/>
    </g>
   </g>
  </g>
 </g>
 <defs>
  <clipPath id="p16ff2aee80">
   <rect height="209.304" width="238.628057707" x="28.16" y="24.0"/>
  </clipPath>
 </defs>
</svg>
