<?xml version="1.0" encoding="utf-8" standalone="no"?>
<!DOCTYPE svg PUBLIC "-//W3C//DTD SVG 1.1//EN"
  "http://www.w3.org/Graphics/SVG/1.1/DTD/svg11.dtd">
<!-- Created with matplotlib (https://matplotlib.org/) -->
<svg height="439.956386pt" version="1.1" viewBox="0 0 928.559057 439.956386" width="928.559057pt" xmlns="http://www.w3.org/2000/svg" xmlns:xlink="http://www.w3.org/1999/xlink">
 <defs>
  <style type="text/css">
*{stroke-linecap:butt;stroke-linejoin:round;white-space:pre;}
  </style>
 </defs>
 <g id="figure_1">
  <g id="patch_1">
   <path d="M 0 439.956386 
L 928.559057 439.956386 
L 928.559057 0 
L 0 0 
z
" style="fill:none;"/>
  </g>
  <g id="axes_1">
   <g id="patch_2">
    <path clip-path="url(#p586064b6d7)" d="M 304.742577 54.880568 
L 307.033603 67.863048 
L 293.287447 65.699302 
z
" style="fill:none;stroke:#000000;stroke-linejoin:miter;stroke-width:2;"/>
   </g>
   <g id="patch_3">
    <path clip-path="url(#p586064b6d7)" d="M 337.389697 98.827693 
C 338.034141 98.827693 338.652276 98.585877 339.107967 98.155503 
C 339.563657 97.725129 339.819697 97.141334 339.819697 96.532693 
C 339.819697 95.924052 339.563657 95.340257 339.107967 94.909883 
C 338.652276 94.479508 338.034141 94.237693 337.389697 94.237693 
C 336.745254 94.237693 336.127118 94.479508 335.671428 94.909883 
C 335.215737 95.340257 334.959697 95.924052 334.959697 96.532693 
C 334.959697 97.141334 335.215737 97.725129 335.671428 98.155503 
C 336.127118 98.585877 336.745254 98.827693 337.389697 98.827693 
z
" style="stroke:#000000;stroke-linejoin:miter;stroke-width:2;"/>
   </g>
   <g id="patch_4">
    <path clip-path="url(#p586064b6d7)" d="M 304.742577 138.184818 
L 307.033603 125.202337 
L 293.287447 127.366084 
z
" style="fill:none;stroke:#000000;stroke-linejoin:miter;stroke-width:2;"/>
   </g>
   <g id="patch_5">
    <path clip-path="url(#p586064b6d7)" d="M 268.658918 163.740095 
C 269.303362 163.740095 269.921497 163.49828 270.377188 163.067905 
C 270.832878 162.637531 271.088918 162.053736 271.088918 161.445095 
C 271.088918 160.836454 270.832878 160.252659 270.377188 159.822285 
C 269.921497 159.391911 269.303362 159.150095 268.658918 159.150095 
C 268.014475 159.150095 267.396339 159.391911 266.940649 159.822285 
C 266.484958 160.252659 266.228918 160.836454 266.228918 161.445095 
C 266.228918 162.053736 266.484958 162.637531 266.940649 163.067905 
C 267.396339 163.49828 268.014475 163.740095 268.658918 163.740095 
z
" style="stroke:#000000;stroke-linejoin:miter;stroke-width:2;"/>
   </g>
   <g id="patch_6">
    <path clip-path="url(#p586064b6d7)" d="M 224.556668 130.611704 
L 238.302824 132.775451 
L 236.011798 119.79297 
z
" style="fill:none;stroke:#000000;stroke-linejoin:miter;stroke-width:2;"/>
   </g>
   <g id="patch_7">
    <path clip-path="url(#p586064b6d7)" d="M 199.928139 98.827693 
C 200.572582 98.827693 201.190718 98.585877 201.646408 98.155503 
C 202.102099 97.725129 202.358139 97.141334 202.358139 96.532693 
C 202.358139 95.924052 202.102099 95.340257 201.646408 94.909883 
C 201.190718 94.479508 200.572582 94.237693 199.928139 94.237693 
C 199.283695 94.237693 198.66556 94.479508 198.209869 94.909883 
C 197.754179 95.340257 197.498139 95.924052 197.498139 96.532693 
C 197.498139 97.141334 197.754179 97.725129 198.209869 98.155503 
C 198.66556 98.585877 199.283695 98.827693 199.928139 98.827693 
z
" style="stroke:#000000;stroke-linejoin:miter;stroke-width:2;"/>
   </g>
   <g id="patch_8">
    <path clip-path="url(#p586064b6d7)" d="M 224.556668 62.453681 
L 238.302824 60.289935 
L 236.011798 73.272415 
z
" style="fill:none;stroke:#000000;stroke-linejoin:miter;stroke-width:2;"/>
   </g>
   <g id="patch_9">
    <path clip-path="url(#p586064b6d7)" d="M 268.658918 33.91529 
C 269.303362 33.91529 269.921497 33.673475 270.377188 33.2431 
C 270.832878 32.812726 271.088918 32.228931 271.088918 31.62029 
C 271.088918 31.011649 270.832878 30.427854 270.377188 29.99748 
C 269.921497 29.567106 269.303362 29.32529 268.658918 29.32529 
C 268.014475 29.32529 267.396339 29.567106 266.940649 29.99748 
C 266.484958 30.427854 266.228918 31.011649 266.228918 31.62029 
C 266.228918 32.228931 266.484958 32.812726 266.940649 33.2431 
C 267.396339 33.673475 268.014475 33.91529 268.658918 33.91529 
z
" style="stroke:#000000;stroke-linejoin:miter;stroke-width:2;"/>
   </g>
   <g id="patch_10">
    <path clip-path="url(#p586064b6d7)" d="M 582.830918 184.446095 
C 587.556837 184.446095 592.089831 182.67278 595.431561 179.516702 
C 598.77329 176.360625 600.650918 172.079463 600.650918 167.616095 
C 600.650918 163.152727 598.77329 158.871566 595.431561 155.715488 
C 592.089831 152.55941 587.556837 150.786095 582.830918 150.786095 
C 578.104999 150.786095 573.572005 152.55941 570.230275 155.715488 
C 566.888546 158.871566 565.010918 163.152727 565.010918 167.616095 
C 565.010918 172.079463 566.888546 176.360625 570.230275 179.516702 
C 573.572005 182.67278 578.104999 184.446095 582.830918 184.446095 
z
" style="fill:none;stroke:#000000;stroke-linejoin:miter;stroke-width:2;"/>
   </g>
   <g id="patch_11">
    <path clip-path="url(#p586064b6d7)" d="M 582.830918 232.641095 
C 583.475362 232.641095 584.093497 232.39928 584.549188 231.968905 
C 585.004878 231.538531 585.260918 230.954736 585.260918 230.346095 
C 585.260918 229.737454 585.004878 229.153659 584.549188 228.723285 
C 584.093497 228.292911 583.475362 228.051095 582.830918 228.051095 
C 582.186475 228.051095 581.568339 228.292911 581.112649 228.723285 
C 580.656958 229.153659 580.400918 229.737454 580.400918 230.346095 
C 580.400918 230.954736 580.656958 231.538531 581.112649 231.968905 
C 581.568339 232.39928 582.186475 232.641095 582.830918 232.641095 
z
" style="stroke:#000000;stroke-linejoin:miter;stroke-width:2;"/>
   </g>
   <g id="patch_12">
    <path clip-path="url(#p586064b6d7)" d="M 527.858918 253.347095 
C 532.584837 253.347095 537.117831 251.57378 540.459561 248.417702 
C 543.80129 245.261625 545.678918 240.980463 545.678918 236.517095 
C 545.678918 232.053727 543.80129 227.772566 540.459561 224.616488 
C 537.117831 221.46041 532.584837 219.687095 527.858918 219.687095 
C 523.132999 219.687095 518.600005 221.46041 515.258275 224.616488 
C 511.916546 227.772566 510.038918 232.053727 510.038918 236.517095 
C 510.038918 240.980463 511.916546 245.261625 515.258275 248.417702 
C 518.600005 251.57378 523.132999 253.347095 527.858918 253.347095 
z
" style="fill:none;stroke:#000000;stroke-linejoin:miter;stroke-width:2;"/>
   </g>
   <g id="patch_13">
    <path clip-path="url(#p586064b6d7)" d="M 505.286918 163.740095 
C 505.931362 163.740095 506.549497 163.49828 507.005188 163.067905 
C 507.460878 162.637531 507.716918 162.053736 507.716918 161.445095 
C 507.716918 160.836454 507.460878 160.252659 507.005188 159.822285 
C 506.549497 159.391911 505.931362 159.150095 505.286918 159.150095 
C 504.642475 159.150095 504.024339 159.391911 503.568649 159.822285 
C 503.112958 160.252659 502.856918 160.836454 502.856918 161.445095 
C 502.856918 162.053736 503.112958 162.637531 503.568649 163.067905 
C 504.024339 163.49828 504.642475 163.740095 505.286918 163.740095 
z
" style="stroke:#000000;stroke-linejoin:miter;stroke-width:2;"/>
   </g>
   <g id="patch_14">
    <path clip-path="url(#p586064b6d7)" d="M 527.858918 301.542095 
C 528.503362 301.542095 529.121497 301.30028 529.577188 300.869905 
C 530.032878 300.439531 530.288918 299.855736 530.288918 299.247095 
C 530.288918 298.638454 530.032878 298.054659 529.577188 297.624285 
C 529.121497 297.193911 528.503362 296.952095 527.858918 296.952095 
C 527.214475 296.952095 526.596339 297.193911 526.140649 297.624285 
C 525.684958 298.054659 525.428918 298.638454 525.428918 299.247095 
C 525.428918 299.855736 525.684958 300.439531 526.140649 300.869905 
C 526.596339 301.30028 527.214475 301.542095 527.858918 301.542095 
z
" style="stroke:#000000;stroke-linejoin:miter;stroke-width:2;"/>
   </g>
   <g id="patch_15">
    <path clip-path="url(#p586064b6d7)" d="M 535.958918 350.502095 
L 527.858918 339.792095 
L 519.758918 350.502095 
z
" style="fill:none;stroke:#000000;stroke-linejoin:miter;stroke-width:2;"/>
   </g>
   <g id="patch_16">
    <path clip-path="url(#p586064b6d7)" d="M 527.858918 393.342095 
C 528.503362 393.342095 529.121497 393.10028 529.577188 392.669905 
C 530.032878 392.239531 530.288918 391.655736 530.288918 391.047095 
C 530.288918 390.438454 530.032878 389.854659 529.577188 389.424285 
C 529.121497 388.993911 528.503362 388.752095 527.858918 388.752095 
C 527.214475 388.752095 526.596339 388.993911 526.140649 389.424285 
C 525.684958 389.854659 525.428918 390.438454 525.428918 391.047095 
C 525.428918 391.655736 525.684958 392.239531 526.140649 392.669905 
C 526.596339 393.10028 527.214475 393.342095 527.858918 393.342095 
z
" style="stroke:#000000;stroke-linejoin:miter;stroke-width:2;"/>
   </g>
   <g id="patch_17">
    <path clip-path="url(#p586064b6d7)" d="M 430.658918 393.342095 
C 431.303362 393.342095 431.921497 393.10028 432.377188 392.669905 
C 432.832878 392.239531 433.088918 391.655736 433.088918 391.047095 
C 433.088918 390.438454 432.832878 389.854659 432.377188 389.424285 
C 431.921497 388.993911 431.303362 388.752095 430.658918 388.752095 
C 430.014475 388.752095 429.396339 388.993911 428.940649 389.424285 
C 428.484958 389.854659 428.228918 390.438454 428.228918 391.047095 
C 428.228918 391.655736 428.484958 392.239531 428.940649 392.669905 
C 429.396339 393.10028 430.014475 393.342095 430.658918 393.342095 
z
" style="stroke:#000000;stroke-linejoin:miter;stroke-width:2;"/>
   </g>
   <g id="patch_18">
    <path clip-path="url(#p586064b6d7)" d="M 430.658918 301.542095 
C 431.303362 301.542095 431.921497 301.30028 432.377188 300.869905 
C 432.832878 300.439531 433.088918 299.855736 433.088918 299.247095 
C 433.088918 298.638454 432.832878 298.054659 432.377188 297.624285 
C 431.921497 297.193911 431.303362 296.952095 430.658918 296.952095 
C 430.014475 296.952095 429.396339 297.193911 428.940649 297.624285 
C 428.484958 298.054659 428.228918 298.638454 428.228918 299.247095 
C 428.228918 299.855736 428.484958 300.439531 428.940649 300.869905 
C 429.396339 301.30028 430.014475 301.542095 430.658918 301.542095 
z
" style="stroke:#000000;stroke-linejoin:miter;stroke-width:2;"/>
   </g>
   <g id="patch_19">
    <path clip-path="url(#p586064b6d7)" d="M 430.658918 163.740095 
C 431.303362 163.740095 431.921497 163.49828 432.377188 163.067905 
C 432.832878 162.637531 433.088918 162.053736 433.088918 161.445095 
C 433.088918 160.836454 432.832878 160.252659 432.377188 159.822285 
C 431.921497 159.391911 431.303362 159.150095 430.658918 159.150095 
C 430.014475 159.150095 429.396339 159.391911 428.940649 159.822285 
C 428.484958 160.252659 428.228918 160.836454 428.228918 161.445095 
C 428.228918 162.053736 428.484958 162.637531 428.940649 163.067905 
C 429.396339 163.49828 430.014475 163.740095 430.658918 163.740095 
z
" style="stroke:#000000;stroke-linejoin:miter;stroke-width:2;"/>
   </g>
   <g id="patch_20">
    <path clip-path="url(#p586064b6d7)" d="M 333.458918 163.740095 
C 334.103362 163.740095 334.721497 163.49828 335.177188 163.067905 
C 335.632878 162.637531 335.888918 162.053736 335.888918 161.445095 
C 335.888918 160.836454 335.632878 160.252659 335.177188 159.822285 
C 334.721497 159.391911 334.103362 159.150095 333.458918 159.150095 
C 332.814475 159.150095 332.196339 159.391911 331.740649 159.822285 
C 331.284958 160.252659 331.028918 160.836454 331.028918 161.445095 
C 331.028918 162.053736 331.284958 162.637531 331.740649 163.067905 
C 332.196339 163.49828 332.814475 163.740095 333.458918 163.740095 
z
" style="stroke:#000000;stroke-linejoin:miter;stroke-width:2;"/>
   </g>
   <g id="patch_21">
    <path clip-path="url(#p586064b6d7)" d="M 333.458918 393.342095 
C 334.103362 393.342095 334.721497 393.10028 335.177188 392.669905 
C 335.632878 392.239531 335.888918 391.655736 335.888918 391.047095 
C 335.888918 390.438454 335.632878 389.854659 335.177188 389.424285 
C 334.721497 388.993911 334.103362 388.752095 333.458918 388.752095 
C 332.814475 388.752095 332.196339 388.993911 331.740649 389.424285 
C 331.284958 389.854659 331.028918 390.438454 331.028918 391.047095 
C 331.028918 391.655736 331.284958 392.239531 331.740649 392.669905 
C 332.196339 393.10028 332.814475 393.342095 333.458918 393.342095 
z
" style="stroke:#000000;stroke-linejoin:miter;stroke-width:2;"/>
   </g>
   <g id="patch_22">
    <path clip-path="url(#p586064b6d7)" d="M 680.030918 232.641095 
C 680.675362 232.641095 681.293497 232.39928 681.749188 231.968905 
C 682.204878 231.538531 682.460918 230.954736 682.460918 230.346095 
C 682.460918 229.737454 682.204878 229.153659 681.749188 228.723285 
C 681.293497 228.292911 680.675362 228.051095 680.030918 228.051095 
C 679.386475 228.051095 678.768339 228.292911 678.312649 228.723285 
C 677.856958 229.153659 677.600918 229.737454 677.600918 230.346095 
C 677.600918 230.954736 677.856958 231.538531 678.312649 231.968905 
C 678.768339 232.39928 679.386475 232.641095 680.030918 232.641095 
z
" style="stroke:#000000;stroke-linejoin:miter;stroke-width:2;"/>
   </g>
   <g id="patch_23">
    <path clip-path="url(#p586064b6d7)" d="M 680.030918 163.740095 
C 680.675362 163.740095 681.293497 163.49828 681.749188 163.067905 
C 682.204878 162.637531 682.460918 162.053736 682.460918 161.445095 
C 682.460918 160.836454 682.204878 160.252659 681.749188 159.822285 
C 681.293497 159.391911 680.675362 159.150095 680.030918 159.150095 
C 679.386475 159.150095 678.768339 159.391911 678.312649 159.822285 
C 677.856958 160.252659 677.600918 160.836454 677.600918 161.445095 
C 677.600918 162.053736 677.856958 162.637531 678.312649 163.067905 
C 678.768339 163.49828 679.386475 163.740095 680.030918 163.740095 
z
" style="stroke:#000000;stroke-linejoin:miter;stroke-width:2;"/>
   </g>
   <g id="patch_24">
    <path clip-path="url(#p586064b6d7)" d="M 680.030918 393.342095 
C 680.675362 393.342095 681.293497 393.10028 681.749188 392.669905 
C 682.204878 392.239531 682.460918 391.655736 682.460918 391.047095 
C 682.460918 390.438454 682.204878 389.854659 681.749188 389.424285 
C 681.293497 388.993911 680.675362 388.752095 680.030918 388.752095 
C 679.386475 388.752095 678.768339 388.993911 678.312649 389.424285 
C 677.856958 389.854659 677.600918 390.438454 677.600918 391.047095 
C 677.600918 391.655736 677.856958 392.239531 678.312649 392.669905 
C 678.768339 393.10028 679.386475 393.342095 680.030918 393.342095 
z
" style="stroke:#000000;stroke-linejoin:miter;stroke-width:2;"/>
   </g>
   <g id="patch_25">
    <path clip-path="url(#p586064b6d7)" d="M 777.230918 393.342095 
C 777.875362 393.342095 778.493497 393.10028 778.949188 392.669905 
C 779.404878 392.239531 779.660918 391.655736 779.660918 391.047095 
C 779.660918 390.438454 779.404878 389.854659 778.949188 389.424285 
C 778.493497 388.993911 777.875362 388.752095 777.230918 388.752095 
C 776.586475 388.752095 775.968339 388.993911 775.512649 389.424285 
C 775.056958 389.854659 774.800918 390.438454 774.800918 391.047095 
C 774.800918 391.655736 775.056958 392.239531 775.512649 392.669905 
C 775.968339 393.10028 776.586475 393.342095 777.230918 393.342095 
z
" style="stroke:#000000;stroke-linejoin:miter;stroke-width:2;"/>
   </g>
   <g id="patch_26">
    <path clip-path="url(#p586064b6d7)" d="M 777.230918 163.740095 
C 777.875362 163.740095 778.493497 163.49828 778.949188 163.067905 
C 779.404878 162.637531 779.660918 162.053736 779.660918 161.445095 
C 779.660918 160.836454 779.404878 160.252659 778.949188 159.822285 
C 778.493497 159.391911 777.875362 159.150095 777.230918 159.150095 
C 776.586475 159.150095 775.968339 159.391911 775.512649 159.822285 
C 775.056958 160.252659 774.800918 160.836454 774.800918 161.445095 
C 774.800918 162.053736 775.056958 162.637531 775.512649 163.067905 
C 775.968339 163.49828 776.586475 163.740095 777.230918 163.740095 
z
" style="stroke:#000000;stroke-linejoin:miter;stroke-width:2;"/>
   </g>
   <g id="patch_27">
    <path clip-path="url(#p586064b6d7)" d="M 599.462918 161.445095 
L 597.705781 168.083167 
L 595.25809 166.101703 
L 588.783218 173.236052 
L 588.758618 173.216138 
L 595.23349 166.081789 
L 592.785799 164.100324 
z
" style="stroke:#000000;stroke-linejoin:miter;stroke-width:2;"/>
   </g>
   <g id="patch_28">
    <path clip-path="url(#p586064b6d7)" d="M 544.490918 230.346095 
L 542.733781 236.984167 
L 540.28609 235.002703 
L 533.811218 242.137052 
L 533.786618 242.117138 
L 540.26149 234.982789 
L 537.813799 233.001324 
z
" style="stroke:#000000;stroke-linejoin:miter;stroke-width:2;"/>
   </g>
   <g id="line2d_1">
    <path clip-path="url(#p586064b6d7)" d="M 268.658918 31.62029 
L 299.015012 60.289935 
M 312.761168 62.453681 
L 301.306038 73.272415 
M 307.033603 67.863048 
L 337.389697 96.532693 
" style="fill:none;stroke:#000000;stroke-linecap:round;stroke-width:2;"/>
   </g>
   <g id="line2d_2">
    <path clip-path="url(#p586064b6d7)" d="M 337.389697 96.532693 
" style="fill:none;stroke:#000000;stroke-linecap:round;stroke-width:2;"/>
   </g>
   <g id="line2d_3">
    <path clip-path="url(#p586064b6d7)" d="M 337.389697 96.532693 
L 307.033603 125.202337 
M 301.306038 119.79297 
L 312.761168 130.611704 
M 299.015012 132.775451 
L 268.658918 161.445095 
" style="fill:none;stroke:#000000;stroke-linecap:round;stroke-width:2;"/>
   </g>
   <g id="line2d_4">
    <path clip-path="url(#p586064b6d7)" d="M 268.658918 161.445095 
" style="fill:none;stroke:#000000;stroke-linecap:round;stroke-width:2;"/>
   </g>
   <g id="line2d_5">
    <path clip-path="url(#p586064b6d7)" d="M 268.658918 161.445095 
L 238.302824 132.775451 
M 244.030389 127.366084 
L 232.575259 138.184818 
M 230.284233 125.202337 
L 199.928139 96.532693 
" style="fill:none;stroke:#000000;stroke-linecap:round;stroke-width:2;"/>
   </g>
   <g id="line2d_6">
    <path clip-path="url(#p586064b6d7)" d="M 199.928139 96.532693 
" style="fill:none;stroke:#000000;stroke-linecap:round;stroke-width:2;"/>
   </g>
   <g id="line2d_7">
    <path clip-path="url(#p586064b6d7)" d="M 199.928139 96.532693 
L 230.284233 67.863048 
M 232.575259 54.880568 
L 244.030389 65.699302 
M 238.302824 60.289935 
L 268.658918 31.62029 
" style="fill:none;stroke:#000000;stroke-linecap:round;stroke-width:2;"/>
   </g>
   <g id="line2d_8">
    <path clip-path="url(#p586064b6d7)" d="M 268.658918 31.62029 
" style="fill:none;stroke:#000000;stroke-linecap:round;stroke-width:2;"/>
   </g>
   <g id="line2d_9">
    <path clip-path="url(#p586064b6d7)" d="M 199.928139 96.532693 
L 127.028139 96.532693 
L 54.128139 96.532693 
" style="fill:none;stroke:#000000;stroke-linecap:round;stroke-width:2;"/>
   </g>
   <g id="line2d_10">
    <path clip-path="url(#p586064b6d7)" d="M 54.128139 96.532693 
" style="fill:none;stroke:#000000;stroke-linecap:round;stroke-width:2;"/>
   </g>
   <g id="line2d_11">
    <path clip-path="url(#p586064b6d7)" d="M 54.128139 96.532693 
L 54.128139 79.376492 
M 54.128139 48.776492 
L 54.128139 31.62029 
" style="fill:none;stroke:#ffffff;stroke-linecap:round;stroke-width:2;"/>
   </g>
   <g id="line2d_12">
    <path clip-path="url(#p586064b6d7)" d="M 268.658918 31.62029 
L 195.758918 31.62029 
L 122.858918 31.62029 
" style="fill:none;stroke:#000000;stroke-linecap:round;stroke-width:2;"/>
   </g>
   <g id="line2d_13">
    <path clip-path="url(#p586064b6d7)" d="M 122.858918 31.62029 
" style="fill:none;stroke:#000000;stroke-linecap:round;stroke-width:2;"/>
   </g>
   <g id="line2d_14">
    <path clip-path="url(#p586064b6d7)" d="M 268.658918 161.445095 
L 414.458918 161.445095 
L 560.258918 161.445095 
" style="fill:none;stroke:#000000;stroke-linecap:round;stroke-width:2;"/>
   </g>
   <g id="line2d_15">
    <path clip-path="url(#p586064b6d7)" d="M 582.830918 184.446095 
L 582.830918 173.226095 
" style="fill:none;stroke:#000000;stroke-linecap:round;stroke-width:2;"/>
   </g>
   <g id="line2d_16">
    <path clip-path="url(#p586064b6d7)" d="M 570.950918 173.226095 
L 594.710918 173.226095 
" style="fill:none;stroke:#000000;stroke-linecap:round;stroke-width:2;"/>
   </g>
   <g id="line2d_17">
    <path clip-path="url(#p586064b6d7)" d="M 576.890918 173.226095 
L 566.198918 161.445095 
L 560.258918 161.445095 
" style="fill:none;stroke:#000000;stroke-linecap:round;stroke-width:2;"/>
   </g>
   <g id="line2d_18">
    <path clip-path="url(#p586064b6d7)" d="M 588.770918 173.226095 
L 599.462918 161.445095 
L 605.402918 161.445095 
" style="fill:none;stroke:#000000;stroke-linecap:round;stroke-width:2;"/>
   </g>
   <g id="line2d_19">
    <path clip-path="url(#p586064b6d7)" d="M 582.830918 184.446095 
L 582.830918 207.396095 
L 582.830918 230.346095 
" style="fill:none;stroke:#000000;stroke-linecap:round;stroke-width:2;"/>
   </g>
   <g id="line2d_20">
    <path clip-path="url(#p586064b6d7)" d="M 582.830918 230.346095 
" style="fill:none;stroke:#000000;stroke-linecap:round;stroke-width:2;"/>
   </g>
   <g id="line2d_21">
    <path clip-path="url(#p586064b6d7)" d="M 582.830918 230.346095 
L 566.630918 230.346095 
L 550.430918 230.346095 
" style="fill:none;stroke:#000000;stroke-linecap:round;stroke-width:2;"/>
   </g>
   <g id="line2d_22">
    <path clip-path="url(#p586064b6d7)" d="M 527.858918 253.347095 
L 527.858918 242.127095 
" style="fill:none;stroke:#000000;stroke-linecap:round;stroke-width:2;"/>
   </g>
   <g id="line2d_23">
    <path clip-path="url(#p586064b6d7)" d="M 515.978918 242.127095 
L 539.738918 242.127095 
" style="fill:none;stroke:#000000;stroke-linecap:round;stroke-width:2;"/>
   </g>
   <g id="line2d_24">
    <path clip-path="url(#p586064b6d7)" d="M 521.918918 242.127095 
L 511.226918 230.346095 
L 505.286918 230.346095 
" style="fill:none;stroke:#000000;stroke-linecap:round;stroke-width:2;"/>
   </g>
   <g id="line2d_25">
    <path clip-path="url(#p586064b6d7)" d="M 533.798918 242.127095 
L 544.490918 230.346095 
L 550.430918 230.346095 
" style="fill:none;stroke:#000000;stroke-linecap:round;stroke-width:2;"/>
   </g>
   <g id="line2d_26">
    <path clip-path="url(#p586064b6d7)" d="M 505.286918 230.346095 
L 505.286918 195.895595 
L 505.286918 161.445095 
" style="fill:none;stroke:#000000;stroke-linecap:round;stroke-width:2;"/>
   </g>
   <g id="line2d_27">
    <path clip-path="url(#p586064b6d7)" d="M 505.286918 161.445095 
" style="fill:none;stroke:#000000;stroke-linecap:round;stroke-width:2;"/>
   </g>
   <g id="line2d_28">
    <path clip-path="url(#p586064b6d7)" d="M 527.858918 253.347095 
L 527.858918 276.297095 
L 527.858918 299.247095 
" style="fill:none;stroke:#000000;stroke-linecap:round;stroke-width:2;"/>
   </g>
   <g id="line2d_29">
    <path clip-path="url(#p586064b6d7)" d="M 527.858918 299.247095 
" style="fill:none;stroke:#000000;stroke-linecap:round;stroke-width:2;"/>
   </g>
   <g id="line2d_30">
    <path clip-path="url(#p586064b6d7)" d="M 539.198918 336.732095 
L 535.958918 339.792095 
" style="fill:none;stroke:#000000;stroke-linecap:round;stroke-width:2;"/>
   </g>
   <g id="line2d_31">
    <path clip-path="url(#p586064b6d7)" d="M 516.518918 342.852095 
L 519.758918 339.792095 
" style="fill:none;stroke:#000000;stroke-linecap:round;stroke-width:2;"/>
   </g>
   <g id="line2d_32">
    <path clip-path="url(#p586064b6d7)" d="M 527.858918 299.247095 
L 527.858918 339.792095 
M 519.758918 339.792095 
L 535.958918 339.792095 
M 527.858918 350.502095 
L 527.858918 391.047095 
" style="fill:none;stroke:#000000;stroke-linecap:round;stroke-width:2;"/>
   </g>
   <g id="line2d_33">
    <path clip-path="url(#p586064b6d7)" d="M 527.858918 391.047095 
" style="fill:none;stroke:#000000;stroke-linecap:round;stroke-width:2;"/>
   </g>
   <g id="line2d_34">
    <path clip-path="url(#p586064b6d7)" d="M 527.858918 391.047095 
L 527.858918 403.287095 
L 519.758918 403.287095 
L 535.958918 403.287095 
M 522.188918 406.959095 
L 533.528918 406.959095 
M 526.238918 410.631095 
L 529.478918 410.631095 
" style="fill:none;stroke:#000000;stroke-linecap:round;stroke-width:2;"/>
   </g>
   <g id="line2d_35">
    <path clip-path="url(#p586064b6d7)" d="M 527.858918 391.047095 
L 479.258918 391.047095 
L 430.658918 391.047095 
" style="fill:none;stroke:#000000;stroke-linecap:round;stroke-width:2;"/>
   </g>
   <g id="line2d_36">
    <path clip-path="url(#p586064b6d7)" d="M 430.658918 391.047095 
" style="fill:none;stroke:#000000;stroke-linecap:round;stroke-width:2;"/>
   </g>
   <g id="line2d_37">
    <path clip-path="url(#p586064b6d7)" d="M 430.658918 391.047095 
L 430.658918 347.901095 
M 438.758918 347.901095 
L 422.558918 347.901095 
M 438.758918 342.393095 
L 422.558918 342.393095 
M 430.658918 342.393095 
L 430.658918 299.247095 
" style="fill:none;stroke:#000000;stroke-linecap:round;stroke-width:2;"/>
   </g>
   <g id="line2d_38">
    <path clip-path="url(#p586064b6d7)" d="M 430.658918 299.247095 
" style="fill:none;stroke:#000000;stroke-linecap:round;stroke-width:2;"/>
   </g>
   <g id="line2d_39">
    <path clip-path="url(#p586064b6d7)" d="M 430.658918 299.247095 
L 479.258918 299.247095 
L 527.858918 299.247095 
" style="fill:none;stroke:#000000;stroke-linecap:round;stroke-width:2;"/>
   </g>
   <g id="line2d_40">
    <path clip-path="url(#p586064b6d7)" d="M 430.658918 299.247095 
L 430.658918 245.646095 
L 422.558918 243.096095 
L 438.758918 237.996095 
L 422.558918 232.896095 
L 438.758918 227.796095 
L 422.558918 222.696095 
L 438.758918 217.596095 
L 430.658918 215.046095 
L 430.658918 161.445095 
" style="fill:none;stroke:#000000;stroke-linecap:round;stroke-width:2;"/>
   </g>
   <g id="line2d_41">
    <path clip-path="url(#p586064b6d7)" d="M 430.658918 161.445095 
" style="fill:none;stroke:#000000;stroke-linecap:round;stroke-width:2;"/>
   </g>
   <g id="line2d_42">
    <path clip-path="url(#p586064b6d7)" d="M 333.458918 161.445095 
" style="fill:none;stroke:#000000;stroke-linecap:round;stroke-width:2;"/>
   </g>
   <g id="line2d_43">
    <path clip-path="url(#p586064b6d7)" d="M 333.458918 161.445095 
L 333.458918 273.492095 
M 325.358918 273.492095 
L 341.558918 273.492095 
M 325.358918 279.000095 
L 341.558918 279.000095 
M 333.458918 279.000095 
L 333.458918 391.047095 
" style="fill:none;stroke:#000000;stroke-linecap:round;stroke-width:2;"/>
   </g>
   <g id="line2d_44">
    <path clip-path="url(#p586064b6d7)" d="M 333.458918 391.047095 
" style="fill:none;stroke:#000000;stroke-linecap:round;stroke-width:2;"/>
   </g>
   <g id="line2d_45">
    <path clip-path="url(#p586064b6d7)" d="M 527.858918 391.047095 
L 363.893529 391.047095 
L 199.928139 391.047095 
" style="fill:none;stroke:#000000;stroke-linecap:round;stroke-width:2;"/>
   </g>
   <g id="line2d_46">
    <path clip-path="url(#p586064b6d7)" d="M 199.928139 391.047095 
L 199.928139 243.789894 
L 199.928139 96.532693 
" style="fill:none;stroke:#000000;stroke-linecap:round;stroke-width:2;"/>
   </g>
   <g id="line2d_47">
    <path clip-path="url(#p586064b6d7)" d="M 582.830918 230.346095 
L 615.230918 230.346095 
L 617.930918 222.696095 
L 623.330918 237.996095 
L 628.730918 222.696095 
L 634.130918 237.996095 
L 639.530918 222.696095 
L 644.930918 237.996095 
L 647.630918 230.346095 
L 680.030918 230.346095 
" style="fill:none;stroke:#000000;stroke-linecap:round;stroke-width:2;"/>
   </g>
   <g id="line2d_48">
    <path clip-path="url(#p586064b6d7)" d="M 680.030918 230.346095 
" style="fill:none;stroke:#000000;stroke-linecap:round;stroke-width:2;"/>
   </g>
   <g id="line2d_49">
    <path clip-path="url(#p586064b6d7)" d="M 680.030918 230.346095 
L 680.030918 195.895595 
L 680.030918 161.445095 
" style="fill:none;stroke:#000000;stroke-linecap:round;stroke-width:2;"/>
   </g>
   <g id="line2d_50">
    <path clip-path="url(#p586064b6d7)" d="M 680.030918 161.445095 
" style="fill:none;stroke:#000000;stroke-linecap:round;stroke-width:2;"/>
   </g>
   <g id="line2d_51">
    <path clip-path="url(#p586064b6d7)" d="M 680.030918 161.445095 
L 642.716918 161.445095 
L 605.402918 161.445095 
" style="fill:none;stroke:#000000;stroke-linecap:round;stroke-width:2;"/>
   </g>
   <g id="line2d_52">
    <path clip-path="url(#p586064b6d7)" d="M 680.030918 230.346095 
L 680.030918 307.942595 
M 688.130918 307.942595 
L 671.930918 307.942595 
M 688.130918 313.450595 
L 671.930918 313.450595 
M 680.030918 313.450595 
L 680.030918 391.047095 
" style="fill:none;stroke:#000000;stroke-linecap:round;stroke-width:2;"/>
   </g>
   <g id="line2d_53">
    <path clip-path="url(#p586064b6d7)" d="M 680.030918 391.047095 
" style="fill:none;stroke:#000000;stroke-linecap:round;stroke-width:2;"/>
   </g>
   <g id="line2d_54">
    <path clip-path="url(#p586064b6d7)" d="M 680.030918 391.047095 
L 603.944918 391.047095 
L 527.858918 391.047095 
" style="fill:none;stroke:#000000;stroke-linecap:round;stroke-width:2;"/>
   </g>
   <g id="line2d_55">
    <path clip-path="url(#p586064b6d7)" d="M 680.030918 391.047095 
L 728.630918 391.047095 
L 777.230918 391.047095 
" style="fill:none;stroke:#000000;stroke-linecap:round;stroke-width:2;"/>
   </g>
   <g id="line2d_56">
    <path clip-path="url(#p586064b6d7)" d="M 777.230918 391.047095 
" style="fill:none;stroke:#000000;stroke-linecap:round;stroke-width:2;"/>
   </g>
   <g id="line2d_57">
    <path clip-path="url(#p586064b6d7)" d="M 777.230918 391.047095 
L 777.230918 291.546095 
L 769.130918 288.996095 
L 785.330918 283.896095 
L 769.130918 278.796095 
L 785.330918 273.696095 
L 769.130918 268.596095 
L 785.330918 263.496095 
L 777.230918 260.946095 
L 777.230918 161.445095 
" style="fill:none;stroke:#000000;stroke-linecap:round;stroke-width:2;"/>
   </g>
   <g id="line2d_58">
    <path clip-path="url(#p586064b6d7)" d="M 777.230918 161.445095 
" style="fill:none;stroke:#000000;stroke-linecap:round;stroke-width:2;"/>
   </g>
   <g id="line2d_59">
    <path clip-path="url(#p586064b6d7)" d="M 777.230918 161.445095 
L 728.630918 161.445095 
L 680.030918 161.445095 
" style="fill:none;stroke:#000000;stroke-linecap:round;stroke-width:2;"/>
   </g>
   <g id="line2d_60">
    <path clip-path="url(#p586064b6d7)" d="M 777.230918 161.445095 
L 825.830918 161.445095 
L 874.430918 161.445095 
" style="fill:none;stroke:#000000;stroke-linecap:round;stroke-width:2;"/>
   </g>
   <g id="line2d_61">
    <path clip-path="url(#p586064b6d7)" d="M 874.430918 161.445095 
" style="fill:none;stroke:#000000;stroke-linecap:round;stroke-width:2;"/>
   </g>
   <g id="line2d_62">
    <path clip-path="url(#p586064b6d7)" d="M 874.430918 161.445095 
L 874.430918 260.946095 
M 874.430918 291.546095 
L 874.430918 391.047095 
" style="fill:none;stroke:#ffffff;stroke-linecap:round;stroke-width:2;"/>
   </g>
   <g id="line2d_63">
    <path clip-path="url(#p586064b6d7)" d="M 874.430918 391.047095 
" style="fill:none;stroke:#000000;stroke-linecap:round;stroke-width:2;"/>
   </g>
   <g id="line2d_64">
    <path clip-path="url(#p586064b6d7)" d="M 874.430918 391.047095 
L 825.830918 391.047095 
L 777.230918 391.047095 
" style="fill:none;stroke:#000000;stroke-linecap:round;stroke-width:2;"/>
   </g>
   <g id="text_1">
    <!-- AC IN -->
    <defs>
     <path d="M 34.1875 63.1875 
L 20.796875 26.90625 
L 47.609375 26.90625 
z
M 28.609375 72.90625 
L 39.796875 72.90625 
L 67.578125 0 
L 57.328125 0 
L 50.6875 18.703125 
L 17.828125 18.703125 
L 11.1875 0 
L 0.78125 0 
z
" id="DejaVuSans-65"/>
     <path d="M 64.40625 67.28125 
L 64.40625 56.890625 
Q 59.421875 61.53125 53.78125 63.8125 
Q 48.140625 66.109375 41.796875 66.109375 
Q 29.296875 66.109375 22.65625 58.46875 
Q 16.015625 50.828125 16.015625 36.375 
Q 16.015625 21.96875 22.65625 14.328125 
Q 29.296875 6.6875 41.796875 6.6875 
Q 48.140625 6.6875 53.78125 8.984375 
Q 59.421875 11.28125 64.40625 15.921875 
L 64.40625 5.609375 
Q 59.234375 2.09375 53.4375 0.328125 
Q 47.65625 -1.421875 41.21875 -1.421875 
Q 24.65625 -1.421875 15.125 8.703125 
Q 5.609375 18.84375 5.609375 36.375 
Q 5.609375 53.953125 15.125 64.078125 
Q 24.65625 74.21875 41.21875 74.21875 
Q 47.75 74.21875 53.53125 72.484375 
Q 59.328125 70.75 64.40625 67.28125 
z
" id="DejaVuSans-67"/>
     <path id="DejaVuSans-32"/>
     <path d="M 9.8125 72.90625 
L 19.671875 72.90625 
L 19.671875 0 
L 9.8125 0 
z
" id="DejaVuSans-73"/>
     <path d="M 9.8125 72.90625 
L 23.09375 72.90625 
L 55.421875 11.921875 
L 55.421875 72.90625 
L 64.984375 72.90625 
L 64.984375 0 
L 51.703125 0 
L 19.390625 60.984375 
L 19.390625 0 
L 9.8125 0 
z
" id="DejaVuSans-78"/>
    </defs>
    <g transform="translate(34.926264 67.939617)scale(0.14 -0.14)">
     <use xlink:href="#DejaVuSans-65"/>
     <use x="68.392578" xlink:href="#DejaVuSans-67"/>
     <use x="138.216797" xlink:href="#DejaVuSans-32"/>
     <use x="170.003906" xlink:href="#DejaVuSans-73"/>
     <use x="199.496094" xlink:href="#DejaVuSans-78"/>
    </g>
   </g>
   <g id="text_2">
    <!-- Q2 -->
    <defs>
     <path d="M 39.40625 66.21875 
Q 28.65625 66.21875 22.328125 58.203125 
Q 16.015625 50.203125 16.015625 36.375 
Q 16.015625 22.609375 22.328125 14.59375 
Q 28.65625 6.59375 39.40625 6.59375 
Q 50.140625 6.59375 56.421875 14.59375 
Q 62.703125 22.609375 62.703125 36.375 
Q 62.703125 50.203125 56.421875 58.203125 
Q 50.140625 66.21875 39.40625 66.21875 
z
M 53.21875 1.3125 
L 66.21875 -12.890625 
L 54.296875 -12.890625 
L 43.5 -1.21875 
Q 41.890625 -1.3125 41.03125 -1.359375 
Q 40.1875 -1.421875 39.40625 -1.421875 
Q 24.03125 -1.421875 14.8125 8.859375 
Q 5.609375 19.140625 5.609375 36.375 
Q 5.609375 53.65625 14.8125 63.9375 
Q 24.03125 74.21875 39.40625 74.21875 
Q 54.734375 74.21875 63.90625 63.9375 
Q 73.09375 53.65625 73.09375 36.375 
Q 73.09375 23.6875 67.984375 14.640625 
Q 62.890625 5.609375 53.21875 1.3125 
z
" id="DejaVuSans-81"/>
     <path d="M 19.1875 8.296875 
L 53.609375 8.296875 
L 53.609375 0 
L 7.328125 0 
L 7.328125 8.296875 
Q 12.9375 14.109375 22.625 23.890625 
Q 32.328125 33.6875 34.8125 36.53125 
Q 39.546875 41.84375 41.421875 45.53125 
Q 43.3125 49.21875 43.3125 52.78125 
Q 43.3125 58.59375 39.234375 62.25 
Q 35.15625 65.921875 28.609375 65.921875 
Q 23.96875 65.921875 18.8125 64.3125 
Q 13.671875 62.703125 7.8125 59.421875 
L 7.8125 69.390625 
Q 13.765625 71.78125 18.9375 73 
Q 24.125 74.21875 28.421875 74.21875 
Q 39.75 74.21875 46.484375 68.546875 
Q 53.21875 62.890625 53.21875 53.421875 
Q 53.21875 48.921875 51.53125 44.890625 
Q 49.859375 40.875 45.40625 35.40625 
Q 44.1875 33.984375 37.640625 27.21875 
Q 31.109375 20.453125 19.1875 8.296875 
z
" id="DejaVuSans-50"/>
    </defs>
    <g transform="translate(572.866856 129.137595)scale(0.14 -0.14)">
     <use xlink:href="#DejaVuSans-81"/>
     <use x="78.710938" xlink:href="#DejaVuSans-50"/>
    </g>
    <!-- 2n3055 -->
    <defs>
     <path d="M 54.890625 33.015625 
L 54.890625 0 
L 45.90625 0 
L 45.90625 32.71875 
Q 45.90625 40.484375 42.875 44.328125 
Q 39.84375 48.1875 33.796875 48.1875 
Q 26.515625 48.1875 22.3125 43.546875 
Q 18.109375 38.921875 18.109375 30.90625 
L 18.109375 0 
L 9.078125 0 
L 9.078125 54.6875 
L 18.109375 54.6875 
L 18.109375 46.1875 
Q 21.34375 51.125 25.703125 53.5625 
Q 30.078125 56 35.796875 56 
Q 45.21875 56 50.046875 50.171875 
Q 54.890625 44.34375 54.890625 33.015625 
z
" id="DejaVuSans-110"/>
     <path d="M 40.578125 39.3125 
Q 47.65625 37.796875 51.625 33 
Q 55.609375 28.21875 55.609375 21.1875 
Q 55.609375 10.40625 48.1875 4.484375 
Q 40.765625 -1.421875 27.09375 -1.421875 
Q 22.515625 -1.421875 17.65625 -0.515625 
Q 12.796875 0.390625 7.625 2.203125 
L 7.625 11.71875 
Q 11.71875 9.328125 16.59375 8.109375 
Q 21.484375 6.890625 26.8125 6.890625 
Q 36.078125 6.890625 40.9375 10.546875 
Q 45.796875 14.203125 45.796875 21.1875 
Q 45.796875 27.640625 41.28125 31.265625 
Q 36.765625 34.90625 28.71875 34.90625 
L 20.21875 34.90625 
L 20.21875 43.015625 
L 29.109375 43.015625 
Q 36.375 43.015625 40.234375 45.921875 
Q 44.09375 48.828125 44.09375 54.296875 
Q 44.09375 59.90625 40.109375 62.90625 
Q 36.140625 65.921875 28.71875 65.921875 
Q 24.65625 65.921875 20.015625 65.03125 
Q 15.375 64.15625 9.8125 62.3125 
L 9.8125 71.09375 
Q 15.4375 72.65625 20.34375 73.4375 
Q 25.25 74.21875 29.59375 74.21875 
Q 40.828125 74.21875 47.359375 69.109375 
Q 53.90625 64.015625 53.90625 55.328125 
Q 53.90625 49.265625 50.4375 45.09375 
Q 46.96875 40.921875 40.578125 39.3125 
z
" id="DejaVuSans-51"/>
     <path d="M 31.78125 66.40625 
Q 24.171875 66.40625 20.328125 58.90625 
Q 16.5 51.421875 16.5 36.375 
Q 16.5 21.390625 20.328125 13.890625 
Q 24.171875 6.390625 31.78125 6.390625 
Q 39.453125 6.390625 43.28125 13.890625 
Q 47.125 21.390625 47.125 36.375 
Q 47.125 51.421875 43.28125 58.90625 
Q 39.453125 66.40625 31.78125 66.40625 
z
M 31.78125 74.21875 
Q 44.046875 74.21875 50.515625 64.515625 
Q 56.984375 54.828125 56.984375 36.375 
Q 56.984375 17.96875 50.515625 8.265625 
Q 44.046875 -1.421875 31.78125 -1.421875 
Q 19.53125 -1.421875 13.0625 8.265625 
Q 6.59375 17.96875 6.59375 36.375 
Q 6.59375 54.828125 13.0625 64.515625 
Q 19.53125 74.21875 31.78125 74.21875 
z
" id="DejaVuSans-48"/>
     <path d="M 10.796875 72.90625 
L 49.515625 72.90625 
L 49.515625 64.59375 
L 19.828125 64.59375 
L 19.828125 46.734375 
Q 21.96875 47.46875 24.109375 47.828125 
Q 26.265625 48.1875 28.421875 48.1875 
Q 40.625 48.1875 47.75 41.5 
Q 54.890625 34.8125 54.890625 23.390625 
Q 54.890625 11.625 47.5625 5.09375 
Q 40.234375 -1.421875 26.90625 -1.421875 
Q 22.3125 -1.421875 17.546875 -0.640625 
Q 12.796875 0.140625 7.71875 1.703125 
L 7.71875 11.625 
Q 12.109375 9.234375 16.796875 8.0625 
Q 21.484375 6.890625 26.703125 6.890625 
Q 35.15625 6.890625 40.078125 11.328125 
Q 45.015625 15.765625 45.015625 23.390625 
Q 45.015625 31 40.078125 35.4375 
Q 35.15625 39.890625 26.703125 39.890625 
Q 22.75 39.890625 18.8125 39.015625 
Q 14.890625 38.140625 10.796875 36.28125 
z
" id="DejaVuSans-53"/>
    </defs>
    <g transform="translate(556.125918 144.814533)scale(0.14 -0.14)">
     <use xlink:href="#DejaVuSans-50"/>
     <use x="63.623047" xlink:href="#DejaVuSans-110"/>
     <use x="127.001953" xlink:href="#DejaVuSans-51"/>
     <use x="190.625" xlink:href="#DejaVuSans-48"/>
     <use x="254.248047" xlink:href="#DejaVuSans-53"/>
     <use x="317.871094" xlink:href="#DejaVuSans-53"/>
    </g>
   </g>
   <g id="text_3">
    <!-- Q1 -->
    <defs>
     <path d="M 12.40625 8.296875 
L 28.515625 8.296875 
L 28.515625 63.921875 
L 10.984375 60.40625 
L 10.984375 69.390625 
L 28.421875 72.90625 
L 38.28125 72.90625 
L 38.28125 8.296875 
L 54.390625 8.296875 
L 54.390625 0 
L 12.40625 0 
z
" id="DejaVuSans-49"/>
    </defs>
    <g transform="translate(517.894856 198.038595)scale(0.14 -0.14)">
     <use xlink:href="#DejaVuSans-81"/>
     <use x="78.710938" xlink:href="#DejaVuSans-49"/>
    </g>
    <!--     2n3054 -->
    <defs>
     <path d="M 37.796875 64.3125 
L 12.890625 25.390625 
L 37.796875 25.390625 
z
M 35.203125 72.90625 
L 47.609375 72.90625 
L 47.609375 25.390625 
L 58.015625 25.390625 
L 58.015625 17.1875 
L 47.609375 17.1875 
L 47.609375 0 
L 37.796875 0 
L 37.796875 17.1875 
L 4.890625 17.1875 
L 4.890625 26.703125 
z
" id="DejaVuSans-52"/>
    </defs>
    <g transform="translate(492.255168 213.715533)scale(0.14 -0.14)">
     <use xlink:href="#DejaVuSans-32"/>
     <use x="31.787109" xlink:href="#DejaVuSans-32"/>
     <use x="63.574219" xlink:href="#DejaVuSans-32"/>
     <use x="95.361328" xlink:href="#DejaVuSans-32"/>
     <use x="127.148438" xlink:href="#DejaVuSans-50"/>
     <use x="190.771484" xlink:href="#DejaVuSans-110"/>
     <use x="254.150391" xlink:href="#DejaVuSans-51"/>
     <use x="317.773438" xlink:href="#DejaVuSans-48"/>
     <use x="381.396484" xlink:href="#DejaVuSans-53"/>
     <use x="445.019531" xlink:href="#DejaVuSans-52"/>
    </g>
   </g>
   <g id="text_4">
    <!-- D2 -->
    <defs>
     <path d="M 19.671875 64.796875 
L 19.671875 8.109375 
L 31.59375 8.109375 
Q 46.6875 8.109375 53.6875 14.9375 
Q 60.6875 21.78125 60.6875 36.53125 
Q 60.6875 51.171875 53.6875 57.984375 
Q 46.6875 64.796875 31.59375 64.796875 
z
M 9.8125 72.90625 
L 30.078125 72.90625 
Q 51.265625 72.90625 61.171875 64.09375 
Q 71.09375 55.28125 71.09375 36.53125 
Q 71.09375 17.671875 61.125 8.828125 
Q 51.171875 0 30.078125 0 
L 9.8125 0 
z
" id="DejaVuSans-68"/>
    </defs>
    <g transform="translate(542.438918 341.171752)scale(0.14 -0.14)">
     <use xlink:href="#DejaVuSans-68"/>
     <use x="77.001953" xlink:href="#DejaVuSans-50"/>
    </g>
    <!-- 500mA -->
    <defs>
     <path d="M 52 44.1875 
Q 55.375 50.25 60.0625 53.125 
Q 64.75 56 71.09375 56 
Q 79.640625 56 84.28125 50.015625 
Q 88.921875 44.046875 88.921875 33.015625 
L 88.921875 0 
L 79.890625 0 
L 79.890625 32.71875 
Q 79.890625 40.578125 77.09375 44.375 
Q 74.3125 48.1875 68.609375 48.1875 
Q 61.625 48.1875 57.5625 43.546875 
Q 53.515625 38.921875 53.515625 30.90625 
L 53.515625 0 
L 44.484375 0 
L 44.484375 32.71875 
Q 44.484375 40.625 41.703125 44.40625 
Q 38.921875 48.1875 33.109375 48.1875 
Q 26.21875 48.1875 22.15625 43.53125 
Q 18.109375 38.875 18.109375 30.90625 
L 18.109375 0 
L 9.078125 0 
L 9.078125 54.6875 
L 18.109375 54.6875 
L 18.109375 46.1875 
Q 21.1875 51.21875 25.484375 53.609375 
Q 29.78125 56 35.6875 56 
Q 41.65625 56 45.828125 52.96875 
Q 50 49.953125 52 44.1875 
z
" id="DejaVuSans-109"/>
    </defs>
    <g transform="translate(542.438918 356.848689)scale(0.14 -0.14)">
     <use xlink:href="#DejaVuSans-53"/>
     <use x="63.623047" xlink:href="#DejaVuSans-48"/>
     <use x="127.246094" xlink:href="#DejaVuSans-48"/>
     <use x="190.869141" xlink:href="#DejaVuSans-109"/>
     <use x="288.28125" xlink:href="#DejaVuSans-65"/>
    </g>
   </g>
   <g id="text_5">
    <!-- + -->
    <defs>
     <path d="M 46 62.703125 
L 46 35.5 
L 73.1875 35.5 
L 73.1875 27.203125 
L 46 27.203125 
L 46 0 
L 37.796875 0 
L 37.796875 27.203125 
L 10.59375 27.203125 
L 10.59375 35.5 
L 37.796875 35.5 
L 37.796875 62.703125 
z
" id="DejaVuSans-43"/>
    </defs>
    <g transform="translate(418.961137 339.64662)scale(0.14 -0.14)">
     <use xlink:href="#DejaVuSans-43"/>
    </g>
   </g>
   <g id="text_6">
    <!-- C2 -->
    <g transform="translate(441.998918 333.319064)scale(0.14 -0.14)">
     <use xlink:href="#DejaVuSans-67"/>
     <use x="69.824219" xlink:href="#DejaVuSans-50"/>
    </g>
    <!-- 100$\mu$F -->
    <defs>
     <path d="M 8.5 -20.796875 
L 8.5 54.6875 
L 17.484375 54.6875 
L 17.484375 20.703125 
Q 17.484375 13.625 20.84375 10 
Q 24.21875 6.390625 30.8125 6.390625 
Q 38.03125 6.390625 41.671875 10.484375 
Q 45.3125 14.59375 45.3125 22.796875 
L 45.3125 54.6875 
L 54.296875 54.6875 
L 54.296875 12.59375 
Q 54.296875 9.671875 55.140625 8.28125 
Q 56 6.890625 57.8125 6.890625 
Q 58.25 6.890625 59.03125 7.15625 
Q 59.8125 7.421875 61.1875 8.015625 
L 61.1875 0.78125 
Q 59.1875 -0.34375 57.390625 -0.875 
Q 55.609375 -1.421875 53.90625 -1.421875 
Q 50.53125 -1.421875 48.53125 0.484375 
Q 46.53125 2.390625 45.796875 6.296875 
Q 43.359375 2.4375 39.8125 0.5 
Q 36.28125 -1.421875 31.5 -1.421875 
Q 26.515625 -1.421875 23.015625 0.484375 
Q 19.53125 2.390625 17.484375 6.203125 
L 17.484375 -20.796875 
z
" id="DejaVuSans-956"/>
     <path d="M 9.8125 72.90625 
L 51.703125 72.90625 
L 51.703125 64.59375 
L 19.671875 64.59375 
L 19.671875 43.109375 
L 48.578125 43.109375 
L 48.578125 34.8125 
L 19.671875 34.8125 
L 19.671875 0 
L 9.8125 0 
z
" id="DejaVuSans-70"/>
    </defs>
    <g transform="translate(441.998918 348.996002)scale(0.14 -0.14)">
     <use transform="translate(0 0.78125)" xlink:href="#DejaVuSans-49"/>
     <use transform="translate(63.623047 0.78125)" xlink:href="#DejaVuSans-48"/>
     <use transform="translate(127.246094 0.78125)" xlink:href="#DejaVuSans-48"/>
     <use transform="translate(190.869141 0.78125)" xlink:href="#DejaVuSans-956"/>
     <use transform="translate(254.492188 0.78125)" xlink:href="#DejaVuSans-70"/>
    </g>
    <!-- 50V -->
    <defs>
     <path d="M 28.609375 0 
L 0.78125 72.90625 
L 11.078125 72.90625 
L 34.1875 11.53125 
L 57.328125 72.90625 
L 67.578125 72.90625 
L 39.796875 0 
z
" id="DejaVuSans-86"/>
    </defs>
    <g transform="translate(441.998918 364.701377)scale(0.14 -0.14)">
     <use xlink:href="#DejaVuSans-53"/>
     <use x="63.623047" xlink:href="#DejaVuSans-48"/>
     <use x="127.246094" xlink:href="#DejaVuSans-86"/>
    </g>
   </g>
   <g id="text_7">
    <!-- R1 -->
    <defs>
     <path d="M 44.390625 34.1875 
Q 47.5625 33.109375 50.5625 29.59375 
Q 53.5625 26.078125 56.59375 19.921875 
L 66.609375 0 
L 56 0 
L 46.6875 18.703125 
Q 43.0625 26.03125 39.671875 28.421875 
Q 36.28125 30.8125 30.421875 30.8125 
L 19.671875 30.8125 
L 19.671875 0 
L 9.8125 0 
L 9.8125 72.90625 
L 32.078125 72.90625 
Q 44.578125 72.90625 50.734375 67.671875 
Q 56.890625 62.453125 56.890625 51.90625 
Q 56.890625 45.015625 53.6875 40.46875 
Q 50.484375 35.9375 44.390625 34.1875 
z
M 19.671875 64.796875 
L 19.671875 38.921875 
L 32.078125 38.921875 
Q 39.203125 38.921875 42.84375 42.21875 
Q 46.484375 45.515625 46.484375 51.90625 
Q 46.484375 58.296875 42.84375 61.546875 
Q 39.203125 64.796875 32.078125 64.796875 
z
" id="DejaVuSans-82"/>
    </defs>
    <g transform="translate(441.998918 218.532283)scale(0.14 -0.14)">
     <use xlink:href="#DejaVuSans-82"/>
     <use x="69.482422" xlink:href="#DejaVuSans-49"/>
    </g>
    <!-- 2.2K -->
    <defs>
     <path d="M 10.6875 12.40625 
L 21 12.40625 
L 21 0 
L 10.6875 0 
z
" id="DejaVuSans-46"/>
     <path d="M 9.8125 72.90625 
L 19.671875 72.90625 
L 19.671875 42.09375 
L 52.390625 72.90625 
L 65.09375 72.90625 
L 28.90625 38.921875 
L 67.671875 0 
L 54.6875 0 
L 19.671875 35.109375 
L 19.671875 0 
L 9.8125 0 
z
" id="DejaVuSans-75"/>
    </defs>
    <g transform="translate(441.998918 234.20922)scale(0.14 -0.14)">
     <use xlink:href="#DejaVuSans-50"/>
     <use x="63.623047" xlink:href="#DejaVuSans-46"/>
     <use x="95.410156" xlink:href="#DejaVuSans-50"/>
     <use x="159.033203" xlink:href="#DejaVuSans-75"/>
    </g>
    <!-- 50V -->
    <g transform="translate(441.998918 249.886158)scale(0.14 -0.14)">
     <use xlink:href="#DejaVuSans-53"/>
     <use x="63.623047" xlink:href="#DejaVuSans-48"/>
     <use x="127.246094" xlink:href="#DejaVuSans-86"/>
    </g>
   </g>
   <g id="text_8">
    <!-- + -->
    <g transform="translate(321.761137 270.74562)scale(0.14 -0.14)">
     <use xlink:href="#DejaVuSans-43"/>
    </g>
   </g>
   <g id="text_9">
    <!-- C1 -->
    <g transform="translate(303.435481 264.418064)scale(0.14 -0.14)">
     <use xlink:href="#DejaVuSans-67"/>
     <use x="69.824219" xlink:href="#DejaVuSans-49"/>
    </g>
    <!--  1000$\mu$F -->
    <g transform="translate(264.998918 280.095002)scale(0.14 -0.14)">
     <use transform="translate(0 0.78125)" xlink:href="#DejaVuSans-32"/>
     <use transform="translate(31.787109 0.78125)" xlink:href="#DejaVuSans-49"/>
     <use transform="translate(95.410156 0.78125)" xlink:href="#DejaVuSans-48"/>
     <use transform="translate(159.033203 0.78125)" xlink:href="#DejaVuSans-48"/>
     <use transform="translate(222.65625 0.78125)" xlink:href="#DejaVuSans-48"/>
     <use transform="translate(286.279297 0.78125)" xlink:href="#DejaVuSans-956"/>
     <use transform="translate(349.902344 0.78125)" xlink:href="#DejaVuSans-70"/>
    </g>
    <!-- 50V -->
    <g transform="translate(294.727043 295.800377)scale(0.14 -0.14)">
     <use xlink:href="#DejaVuSans-53"/>
     <use x="63.623047" xlink:href="#DejaVuSans-48"/>
     <use x="127.246094" xlink:href="#DejaVuSans-86"/>
    </g>
   </g>
   <g id="text_10">
    <!-- R2 -->
    <g transform="translate(622.113262 216.724533)scale(0.14 -0.14)">
     <use xlink:href="#DejaVuSans-82"/>
     <use x="69.482422" xlink:href="#DejaVuSans-50"/>
    </g>
   </g>
   <g id="text_11">
    <!-- 56$\Omega$ 1W -->
    <defs>
     <path d="M 33.015625 40.375 
Q 26.375 40.375 22.484375 35.828125 
Q 18.609375 31.296875 18.609375 23.390625 
Q 18.609375 15.53125 22.484375 10.953125 
Q 26.375 6.390625 33.015625 6.390625 
Q 39.65625 6.390625 43.53125 10.953125 
Q 47.40625 15.53125 47.40625 23.390625 
Q 47.40625 31.296875 43.53125 35.828125 
Q 39.65625 40.375 33.015625 40.375 
z
M 52.59375 71.296875 
L 52.59375 62.3125 
Q 48.875 64.0625 45.09375 64.984375 
Q 41.3125 65.921875 37.59375 65.921875 
Q 27.828125 65.921875 22.671875 59.328125 
Q 17.53125 52.734375 16.796875 39.40625 
Q 19.671875 43.65625 24.015625 45.921875 
Q 28.375 48.1875 33.59375 48.1875 
Q 44.578125 48.1875 50.953125 41.515625 
Q 57.328125 34.859375 57.328125 23.390625 
Q 57.328125 12.15625 50.6875 5.359375 
Q 44.046875 -1.421875 33.015625 -1.421875 
Q 20.359375 -1.421875 13.671875 8.265625 
Q 6.984375 17.96875 6.984375 36.375 
Q 6.984375 53.65625 15.1875 63.9375 
Q 23.390625 74.21875 37.203125 74.21875 
Q 40.921875 74.21875 44.703125 73.484375 
Q 48.484375 72.75 52.59375 71.296875 
z
" id="DejaVuSans-54"/>
     <path d="M 72.609375 8.6875 
L 72.609375 0 
L 43.3125 0 
L 43.3125 8.6875 
Q 51.953125 13.421875 56.78125 21.53125 
Q 61.625 29.640625 61.625 39.5 
Q 61.625 51.21875 55.171875 58.296875 
Q 48.734375 65.375 38.1875 65.375 
Q 27.640625 65.375 21.171875 58.265625 
Q 14.703125 51.171875 14.703125 39.5 
Q 14.703125 29.640625 19.53125 21.53125 
Q 24.421875 13.421875 33.109375 8.6875 
L 33.109375 0 
L 3.8125 0 
L 3.8125 8.6875 
L 19.390625 8.6875 
Q 11.671875 15.484375 8.109375 22.75 
Q 4.59375 30.03125 4.59375 39.015625 
Q 4.59375 54.546875 13.96875 64.15625 
Q 23.296875 73.78125 38.1875 73.78125 
Q 52.984375 73.78125 62.40625 64.15625 
Q 71.78125 54.59375 71.78125 39.5 
Q 71.78125 30.03125 68.3125 22.796875 
Q 64.84375 15.578125 56.984375 8.6875 
z
" id="DejaVuSans-937"/>
     <path d="M 3.328125 72.90625 
L 13.28125 72.90625 
L 28.609375 11.28125 
L 43.890625 72.90625 
L 54.984375 72.90625 
L 70.3125 11.28125 
L 85.59375 72.90625 
L 95.609375 72.90625 
L 77.296875 0 
L 64.890625 0 
L 49.515625 63.28125 
L 33.984375 0 
L 21.578125 0 
z
" id="DejaVuSans-87"/>
    </defs>
    <g transform="translate(603.570918 251.693908)scale(0.14 -0.14)">
     <use transform="translate(0 0.78125)" xlink:href="#DejaVuSans-53"/>
     <use transform="translate(63.623047 0.78125)" xlink:href="#DejaVuSans-54"/>
     <use transform="translate(127.246094 0.78125)" xlink:href="#DejaVuSans-937"/>
     <use transform="translate(203.662109 0.78125)" xlink:href="#DejaVuSans-32"/>
     <use transform="translate(235.449219 0.78125)" xlink:href="#DejaVuSans-49"/>
     <use transform="translate(299.072266 0.78125)" xlink:href="#DejaVuSans-87"/>
    </g>
   </g>
   <g id="text_12">
    <!-- + -->
    <g transform="translate(679.997137 305.19612)scale(0.14 -0.14)">
     <use xlink:href="#DejaVuSans-43"/>
    </g>
   </g>
   <g id="text_13">
    <!-- C3 -->
    <g transform="translate(691.370918 298.868564)scale(0.14 -0.14)">
     <use xlink:href="#DejaVuSans-67"/>
     <use x="69.824219" xlink:href="#DejaVuSans-51"/>
    </g>
    <!-- 470$\mu$F -->
    <defs>
     <path d="M 8.203125 72.90625 
L 55.078125 72.90625 
L 55.078125 68.703125 
L 28.609375 0 
L 18.3125 0 
L 43.21875 64.59375 
L 8.203125 64.59375 
z
" id="DejaVuSans-55"/>
    </defs>
    <g transform="translate(691.370918 314.545502)scale(0.14 -0.14)">
     <use transform="translate(0 0.78125)" xlink:href="#DejaVuSans-52"/>
     <use transform="translate(63.623047 0.78125)" xlink:href="#DejaVuSans-55"/>
     <use transform="translate(127.246094 0.78125)" xlink:href="#DejaVuSans-48"/>
     <use transform="translate(190.869141 0.78125)" xlink:href="#DejaVuSans-956"/>
     <use transform="translate(254.492188 0.78125)" xlink:href="#DejaVuSans-70"/>
    </g>
    <!-- 50V -->
    <g transform="translate(691.370918 330.250877)scale(0.14 -0.14)">
     <use xlink:href="#DejaVuSans-53"/>
     <use x="63.623047" xlink:href="#DejaVuSans-48"/>
     <use x="127.246094" xlink:href="#DejaVuSans-86"/>
    </g>
   </g>
   <g id="text_14">
    <!-- R3 -->
    <g transform="translate(788.570918 264.432283)scale(0.14 -0.14)">
     <use xlink:href="#DejaVuSans-82"/>
     <use x="69.482422" xlink:href="#DejaVuSans-51"/>
    </g>
    <!-- 10K -->
    <g transform="translate(788.570918 280.10922)scale(0.14 -0.14)">
     <use xlink:href="#DejaVuSans-49"/>
     <use x="63.623047" xlink:href="#DejaVuSans-48"/>
     <use x="127.246094" xlink:href="#DejaVuSans-75"/>
    </g>
    <!-- 1W -->
    <g transform="translate(788.570918 295.786158)scale(0.14 -0.14)">
     <use xlink:href="#DejaVuSans-49"/>
     <use x="63.623047" xlink:href="#DejaVuSans-87"/>
    </g>
   </g>
   <g id="text_15">
    <!-- $V_{out}$ -->
    <defs>
     <path d="M 30.609375 48.390625 
Q 23.390625 48.390625 19.1875 42.75 
Q 14.984375 37.109375 14.984375 27.296875 
Q 14.984375 17.484375 19.15625 11.84375 
Q 23.34375 6.203125 30.609375 6.203125 
Q 37.796875 6.203125 41.984375 11.859375 
Q 46.1875 17.53125 46.1875 27.296875 
Q 46.1875 37.015625 41.984375 42.703125 
Q 37.796875 48.390625 30.609375 48.390625 
z
M 30.609375 56 
Q 42.328125 56 49.015625 48.375 
Q 55.71875 40.765625 55.71875 27.296875 
Q 55.71875 13.875 49.015625 6.21875 
Q 42.328125 -1.421875 30.609375 -1.421875 
Q 18.84375 -1.421875 12.171875 6.21875 
Q 5.515625 13.875 5.515625 27.296875 
Q 5.515625 40.765625 12.171875 48.375 
Q 18.84375 56 30.609375 56 
z
" id="DejaVuSans-111"/>
     <path d="M 8.5 21.578125 
L 8.5 54.6875 
L 17.484375 54.6875 
L 17.484375 21.921875 
Q 17.484375 14.15625 20.5 10.265625 
Q 23.53125 6.390625 29.59375 6.390625 
Q 36.859375 6.390625 41.078125 11.03125 
Q 45.3125 15.671875 45.3125 23.6875 
L 45.3125 54.6875 
L 54.296875 54.6875 
L 54.296875 0 
L 45.3125 0 
L 45.3125 8.40625 
Q 42.046875 3.421875 37.71875 1 
Q 33.40625 -1.421875 27.6875 -1.421875 
Q 18.265625 -1.421875 13.375 4.4375 
Q 8.5 10.296875 8.5 21.578125 
z
M 31.109375 56 
z
" id="DejaVuSans-117"/>
     <path d="M 18.3125 70.21875 
L 18.3125 54.6875 
L 36.8125 54.6875 
L 36.8125 47.703125 
L 18.3125 47.703125 
L 18.3125 18.015625 
Q 18.3125 11.328125 20.140625 9.421875 
Q 21.96875 7.515625 27.59375 7.515625 
L 36.8125 7.515625 
L 36.8125 0 
L 27.59375 0 
Q 17.1875 0 13.234375 3.875 
Q 9.28125 7.765625 9.28125 18.015625 
L 9.28125 47.703125 
L 2.6875 47.703125 
L 2.6875 54.6875 
L 9.28125 54.6875 
L 9.28125 70.21875 
z
" id="DejaVuSans-116"/>
    </defs>
    <g transform="translate(861.340918 280.10922)scale(0.14 -0.14)">
     <use transform="translate(0 0.09375)" xlink:href="#DejaVuSans-86"/>
     <use transform="translate(69.365234 -16.3125)scale(0.7)" xlink:href="#DejaVuSans-111"/>
     <use transform="translate(112.192383 -16.3125)scale(0.7)" xlink:href="#DejaVuSans-117"/>
     <use transform="translate(156.557617 -16.3125)scale(0.7)" xlink:href="#DejaVuSans-116"/>
    </g>
   </g>
   <g id="patch_29">
    <path clip-path="url(#p586064b6d7)" d="M 54.128139 98.827693 
C 54.772582 98.827693 55.390718 98.585877 55.846408 98.155503 
C 56.302099 97.725129 56.558139 97.141334 56.558139 96.532693 
C 56.558139 95.924052 56.302099 95.340257 55.846408 94.909883 
C 55.390718 94.479508 54.772582 94.237693 54.128139 94.237693 
C 53.483695 94.237693 52.86556 94.479508 52.409869 94.909883 
C 51.954179 95.340257 51.698139 95.924052 51.698139 96.532693 
C 51.698139 97.141334 51.954179 97.725129 52.409869 98.155503 
C 52.86556 98.585877 53.483695 98.827693 54.128139 98.827693 
z
" style="fill:#ffffff;stroke:#000000;stroke-linejoin:miter;stroke-width:2;"/>
   </g>
   <g id="patch_30">
    <path clip-path="url(#p586064b6d7)" d="M 122.858918 33.91529 
C 123.503362 33.91529 124.121497 33.673475 124.577188 33.2431 
C 125.032878 32.812726 125.288918 32.228931 125.288918 31.62029 
C 125.288918 31.011649 125.032878 30.427854 124.577188 29.99748 
C 124.121497 29.567106 123.503362 29.32529 122.858918 29.32529 
C 122.214475 29.32529 121.596339 29.567106 121.140649 29.99748 
C 120.684958 30.427854 120.428918 31.011649 120.428918 31.62029 
C 120.428918 32.228931 120.684958 32.812726 121.140649 33.2431 
C 121.596339 33.673475 122.214475 33.91529 122.858918 33.91529 
z
" style="fill:#ffffff;stroke:#000000;stroke-linejoin:miter;stroke-width:2;"/>
   </g>
   <g id="patch_31">
    <path clip-path="url(#p586064b6d7)" d="M 874.430918 163.740095 
C 875.075362 163.740095 875.693497 163.49828 876.149188 163.067905 
C 876.604878 162.637531 876.860918 162.053736 876.860918 161.445095 
C 876.860918 160.836454 876.604878 160.252659 876.149188 159.822285 
C 875.693497 159.391911 875.075362 159.150095 874.430918 159.150095 
C 873.786475 159.150095 873.168339 159.391911 872.712649 159.822285 
C 872.256958 160.252659 872.000918 160.836454 872.000918 161.445095 
C 872.000918 162.053736 872.256958 162.637531 872.712649 163.067905 
C 873.168339 163.49828 873.786475 163.740095 874.430918 163.740095 
z
" style="fill:#ffffff;stroke:#000000;stroke-linejoin:miter;stroke-width:2;"/>
   </g>
   <g id="patch_32">
    <path clip-path="url(#p586064b6d7)" d="M 874.430918 393.342095 
C 875.075362 393.342095 875.693497 393.10028 876.149188 392.669905 
C 876.604878 392.239531 876.860918 391.655736 876.860918 391.047095 
C 876.860918 390.438454 876.604878 389.854659 876.149188 389.424285 
C 875.693497 388.993911 875.075362 388.752095 874.430918 388.752095 
C 873.786475 388.752095 873.168339 388.993911 872.712649 389.424285 
C 872.256958 389.854659 872.000918 390.438454 872.000918 391.047095 
C 872.000918 391.655736 872.256958 392.239531 872.712649 392.669905 
C 873.168339 393.10028 873.786475 393.342095 874.430918 393.342095 
z
" style="fill:#ffffff;stroke:#000000;stroke-linejoin:miter;stroke-width:2;"/>
   </g>
  </g>
 </g>
 <defs>
  <clipPath id="p586064b6d7">
   <rect height="425.556386" width="914.159057" x="7.2" y="7.2"/>
  </clipPath>
 </defs>
</svg>
