<?xml version="1.0" encoding="utf-8" standalone="no"?>
<!DOCTYPE svg PUBLIC "-//W3C//DTD SVG 1.1//EN"
  "http://www.w3.org/Graphics/SVG/1.1/DTD/svg11.dtd">
<!-- Created with matplotlib (https://matplotlib.org/) -->
<svg height="368.552743pt" version="1.1" viewBox="0 0 928.559057 368.552743" width="928.559057pt" xmlns="http://www.w3.org/2000/svg" xmlns:xlink="http://www.w3.org/1999/xlink">
 <defs>
  <style type="text/css">
*{stroke-linecap:butt;stroke-linejoin:round;}
  </style>
 </defs>
 <g id="figure_1">
  <g id="patch_1">
   <path d="M 0 368.552743 
L 928.559057 368.552743 
L 928.559057 0 
L 0 0 
z
" style="fill:none;"/>
  </g>
  <g id="axes_1">
   <g id="patch_2">
    <path clip-path="url(#pe3b93f18ae)" d="M 236.011798 51.634948 
L 238.302824 64.617428 
L 224.556668 62.453681 
z
" style="fill:none;stroke:#000000;stroke-linejoin:miter;stroke-width:1.5;"/>
   </g>
   <g id="patch_3">
    <path clip-path="url(#pe3b93f18ae)" d="M 268.658918 95.582073 
C 269.303362 95.582073 269.921497 95.340257 270.377188 94.909883 
C 270.832878 94.479508 271.088918 93.895714 271.088918 93.287073 
C 271.088918 92.678432 270.832878 92.094637 270.377188 91.664263 
C 269.921497 91.233888 269.303362 90.992073 268.658918 90.992073 
C 268.014475 90.992073 267.396339 91.233888 266.940649 91.664263 
C 266.484958 92.094637 266.228918 92.678432 266.228918 93.287073 
C 266.228918 93.895714 266.484958 94.479508 266.940649 94.909883 
C 267.396339 95.340257 268.014475 95.582073 268.658918 95.582073 
z
" style="stroke:#000000;stroke-linejoin:miter;stroke-width:1.5;"/>
   </g>
   <g id="patch_4">
    <path clip-path="url(#pe3b93f18ae)" d="M 236.011798 134.939198 
L 238.302824 121.956717 
L 224.556668 124.120464 
z
" style="fill:none;stroke:#000000;stroke-linejoin:miter;stroke-width:1.5;"/>
   </g>
   <g id="patch_5">
    <path clip-path="url(#pe3b93f18ae)" d="M 199.928139 160.494475 
C 200.572582 160.494475 201.190718 160.252659 201.646408 159.822285 
C 202.102099 159.391911 202.358139 158.808116 202.358139 158.199475 
C 202.358139 157.590834 202.102099 157.007039 201.646408 156.576665 
C 201.190718 156.146291 200.572582 155.904475 199.928139 155.904475 
C 199.283695 155.904475 198.66556 156.146291 198.209869 156.576665 
C 197.754179 157.007039 197.498139 157.590834 197.498139 158.199475 
C 197.498139 158.808116 197.754179 159.391911 198.209869 159.822285 
C 198.66556 160.252659 199.283695 160.494475 199.928139 160.494475 
z
" style="stroke:#000000;stroke-linejoin:miter;stroke-width:1.5;"/>
   </g>
   <g id="patch_6">
    <path clip-path="url(#pe3b93f18ae)" d="M 155.825889 127.366084 
L 169.572045 129.529831 
L 167.281019 116.54735 
z
" style="fill:none;stroke:#000000;stroke-linejoin:miter;stroke-width:1.5;"/>
   </g>
   <g id="patch_7">
    <path clip-path="url(#pe3b93f18ae)" d="M 131.19736 95.582073 
C 131.841803 95.582073 132.459939 95.340257 132.915629 94.909883 
C 133.37132 94.479508 133.62736 93.895714 133.62736 93.287073 
C 133.62736 92.678432 133.37132 92.094637 132.915629 91.664263 
C 132.459939 91.233888 131.841803 90.992073 131.19736 90.992073 
C 130.552916 90.992073 129.934781 91.233888 129.47909 91.664263 
C 129.0234 92.094637 128.76736 92.678432 128.76736 93.287073 
C 128.76736 93.895714 129.0234 94.479508 129.47909 94.909883 
C 129.934781 95.340257 130.552916 95.582073 131.19736 95.582073 
z
" style="stroke:#000000;stroke-linejoin:miter;stroke-width:1.5;"/>
   </g>
   <g id="patch_8">
    <path clip-path="url(#pe3b93f18ae)" d="M 155.825889 59.208061 
L 169.572045 57.044315 
L 167.281019 70.026795 
z
" style="fill:none;stroke:#000000;stroke-linejoin:miter;stroke-width:1.5;"/>
   </g>
   <g id="patch_9">
    <path clip-path="url(#pe3b93f18ae)" d="M 199.928139 30.66967 
C 200.572582 30.66967 201.190718 30.427854 201.646408 29.99748 
C 202.102099 29.567106 202.358139 28.983311 202.358139 28.37467 
C 202.358139 27.766029 202.102099 27.182234 201.646408 26.75186 
C 201.190718 26.321486 200.572582 26.07967 199.928139 26.07967 
C 199.283695 26.07967 198.66556 26.321486 198.209869 26.75186 
C 197.754179 27.182234 197.498139 27.766029 197.498139 28.37467 
C 197.498139 28.983311 197.754179 29.567106 198.209869 29.99748 
C 198.66556 30.427854 199.283695 30.66967 199.928139 30.66967 
z
" style="stroke:#000000;stroke-linejoin:miter;stroke-width:1.5;"/>
   </g>
   <g id="patch_10">
    <path clip-path="url(#pe3b93f18ae)" d="M 54.128139 160.494475 
C 54.772582 160.494475 55.390718 160.252659 55.846408 159.822285 
C 56.302099 159.391911 56.558139 158.808116 56.558139 158.199475 
C 56.558139 157.590834 56.302099 157.007039 55.846408 156.576665 
C 55.390718 156.146291 54.772582 155.904475 54.128139 155.904475 
C 53.483695 155.904475 52.86556 156.146291 52.409869 156.576665 
C 51.954179 157.007039 51.698139 157.590834 51.698139 158.199475 
C 51.698139 158.808116 51.954179 159.391911 52.409869 159.822285 
C 52.86556 160.252659 53.483695 160.494475 54.128139 160.494475 
z
" style="fill:#ffffff;stroke:#000000;stroke-linejoin:miter;stroke-width:1.5;"/>
   </g>
   <g id="patch_11">
    <path clip-path="url(#pe3b93f18ae)" d="M 54.128139 30.66967 
C 54.772582 30.66967 55.390718 30.427854 55.846408 29.99748 
C 56.302099 29.567106 56.558139 28.983311 56.558139 28.37467 
C 56.558139 27.766029 56.302099 27.182234 55.846408 26.75186 
C 55.390718 26.321486 54.772582 26.07967 54.128139 26.07967 
C 53.483695 26.07967 52.86556 26.321486 52.409869 26.75186 
C 51.954179 27.182234 51.698139 27.766029 51.698139 28.37467 
C 51.698139 28.983311 51.954179 29.567106 52.409869 29.99748 
C 52.86556 30.427854 53.483695 30.66967 54.128139 30.66967 
z
" style="fill:#ffffff;stroke:#000000;stroke-linejoin:miter;stroke-width:1.5;"/>
   </g>
   <g id="patch_12">
    <path clip-path="url(#pe3b93f18ae)" d="M 582.830918 116.288073 
C 587.556837 116.288073 592.089831 114.514758 595.431561 111.35868 
C 598.77329 108.202602 600.650918 103.921441 600.650918 99.458073 
C 600.650918 94.994704 598.77329 90.713543 595.431561 87.557466 
C 592.089831 84.401388 587.556837 82.628073 582.830918 82.628073 
C 578.104999 82.628073 573.572005 84.401388 570.230275 87.557466 
C 566.888546 90.713543 565.010918 94.994704 565.010918 99.458073 
C 565.010918 103.921441 566.888546 108.202602 570.230275 111.35868 
C 573.572005 114.514758 578.104999 116.288073 582.830918 116.288073 
z
" style="fill:none;stroke:#000000;stroke-linejoin:miter;stroke-width:1.5;"/>
   </g>
   <g id="patch_13">
    <path clip-path="url(#pe3b93f18ae)" d="M 582.830918 164.483073 
C 583.475362 164.483073 584.093497 164.241257 584.549188 163.810883 
C 585.004878 163.380508 585.260918 162.796714 585.260918 162.188073 
C 585.260918 161.579432 585.004878 160.995637 584.549188 160.565263 
C 584.093497 160.134888 583.475362 159.893073 582.830918 159.893073 
C 582.186475 159.893073 581.568339 160.134888 581.112649 160.565263 
C 580.656958 160.995637 580.400918 161.579432 580.400918 162.188073 
C 580.400918 162.796714 580.656958 163.380508 581.112649 163.810883 
C 581.568339 164.241257 582.186475 164.483073 582.830918 164.483073 
z
" style="stroke:#000000;stroke-linejoin:miter;stroke-width:1.5;"/>
   </g>
   <g id="patch_14">
    <path clip-path="url(#pe3b93f18ae)" d="M 527.858918 185.189073 
C 532.584837 185.189073 537.117831 183.415758 540.459561 180.25968 
C 543.80129 177.103602 545.678918 172.822441 545.678918 168.359073 
C 545.678918 163.895704 543.80129 159.614543 540.459561 156.458466 
C 537.117831 153.302388 532.584837 151.529073 527.858918 151.529073 
C 523.132999 151.529073 518.600005 153.302388 515.258275 156.458466 
C 511.916546 159.614543 510.038918 163.895704 510.038918 168.359073 
C 510.038918 172.822441 511.916546 177.103602 515.258275 180.25968 
C 518.600005 183.415758 523.132999 185.189073 527.858918 185.189073 
z
" style="fill:none;stroke:#000000;stroke-linejoin:miter;stroke-width:1.5;"/>
   </g>
   <g id="patch_15">
    <path clip-path="url(#pe3b93f18ae)" d="M 505.286918 95.582073 
C 505.931362 95.582073 506.549497 95.340257 507.005188 94.909883 
C 507.460878 94.479508 507.716918 93.895714 507.716918 93.287073 
C 507.716918 92.678432 507.460878 92.094637 507.005188 91.664263 
C 506.549497 91.233888 505.931362 90.992073 505.286918 90.992073 
C 504.642475 90.992073 504.024339 91.233888 503.568649 91.664263 
C 503.112958 92.094637 502.856918 92.678432 502.856918 93.287073 
C 502.856918 93.895714 503.112958 94.479508 503.568649 94.909883 
C 504.024339 95.340257 504.642475 95.582073 505.286918 95.582073 
z
" style="stroke:#000000;stroke-linejoin:miter;stroke-width:1.5;"/>
   </g>
   <g id="patch_16">
    <path clip-path="url(#pe3b93f18ae)" d="M 527.858918 233.384073 
C 528.503362 233.384073 529.121497 233.142257 529.577188 232.711883 
C 530.032878 232.281508 530.288918 231.697714 530.288918 231.089073 
C 530.288918 230.480432 530.032878 229.896637 529.577188 229.466263 
C 529.121497 229.035888 528.503362 228.794073 527.858918 228.794073 
C 527.214475 228.794073 526.596339 229.035888 526.140649 229.466263 
C 525.684958 229.896637 525.428918 230.480432 525.428918 231.089073 
C 525.428918 231.697714 525.684958 232.281508 526.140649 232.711883 
C 526.596339 233.142257 527.214475 233.384073 527.858918 233.384073 
z
" style="stroke:#000000;stroke-linejoin:miter;stroke-width:1.5;"/>
   </g>
   <g id="patch_17">
    <path clip-path="url(#pe3b93f18ae)" d="M 535.958918 282.344073 
L 527.858918 271.634073 
L 519.758918 282.344073 
z
" style="fill:none;stroke:#000000;stroke-linejoin:miter;stroke-width:1.5;"/>
   </g>
   <g id="patch_18">
    <path clip-path="url(#pe3b93f18ae)" d="M 527.858918 325.184073 
C 528.503362 325.184073 529.121497 324.942257 529.577188 324.511883 
C 530.032878 324.081508 530.288918 323.497714 530.288918 322.889073 
C 530.288918 322.280432 530.032878 321.696637 529.577188 321.266263 
C 529.121497 320.835888 528.503362 320.594073 527.858918 320.594073 
C 527.214475 320.594073 526.596339 320.835888 526.140649 321.266263 
C 525.684958 321.696637 525.428918 322.280432 525.428918 322.889073 
C 525.428918 323.497714 525.684958 324.081508 526.140649 324.511883 
C 526.596339 324.942257 527.214475 325.184073 527.858918 325.184073 
z
" style="stroke:#000000;stroke-linejoin:miter;stroke-width:1.5;"/>
   </g>
   <g id="patch_19">
    <path clip-path="url(#pe3b93f18ae)" d="M 430.658918 325.184073 
C 431.303362 325.184073 431.921497 324.942257 432.377188 324.511883 
C 432.832878 324.081508 433.088918 323.497714 433.088918 322.889073 
C 433.088918 322.280432 432.832878 321.696637 432.377188 321.266263 
C 431.921497 320.835888 431.303362 320.594073 430.658918 320.594073 
C 430.014475 320.594073 429.396339 320.835888 428.940649 321.266263 
C 428.484958 321.696637 428.228918 322.280432 428.228918 322.889073 
C 428.228918 323.497714 428.484958 324.081508 428.940649 324.511883 
C 429.396339 324.942257 430.014475 325.184073 430.658918 325.184073 
z
" style="stroke:#000000;stroke-linejoin:miter;stroke-width:1.5;"/>
   </g>
   <g id="patch_20">
    <path clip-path="url(#pe3b93f18ae)" d="M 430.658918 233.384073 
C 431.303362 233.384073 431.921497 233.142257 432.377188 232.711883 
C 432.832878 232.281508 433.088918 231.697714 433.088918 231.089073 
C 433.088918 230.480432 432.832878 229.896637 432.377188 229.466263 
C 431.921497 229.035888 431.303362 228.794073 430.658918 228.794073 
C 430.014475 228.794073 429.396339 229.035888 428.940649 229.466263 
C 428.484958 229.896637 428.228918 230.480432 428.228918 231.089073 
C 428.228918 231.697714 428.484958 232.281508 428.940649 232.711883 
C 429.396339 233.142257 430.014475 233.384073 430.658918 233.384073 
z
" style="stroke:#000000;stroke-linejoin:miter;stroke-width:1.5;"/>
   </g>
   <g id="patch_21">
    <path clip-path="url(#pe3b93f18ae)" d="M 430.658918 95.582073 
C 431.303362 95.582073 431.921497 95.340257 432.377188 94.909883 
C 432.832878 94.479508 433.088918 93.895714 433.088918 93.287073 
C 433.088918 92.678432 432.832878 92.094637 432.377188 91.664263 
C 431.921497 91.233888 431.303362 90.992073 430.658918 90.992073 
C 430.014475 90.992073 429.396339 91.233888 428.940649 91.664263 
C 428.484958 92.094637 428.228918 92.678432 428.228918 93.287073 
C 428.228918 93.895714 428.484958 94.479508 428.940649 94.909883 
C 429.396339 95.340257 430.014475 95.582073 430.658918 95.582073 
z
" style="stroke:#000000;stroke-linejoin:miter;stroke-width:1.5;"/>
   </g>
   <g id="patch_22">
    <path clip-path="url(#pe3b93f18ae)" d="M 333.458918 95.582073 
C 334.103362 95.582073 334.721497 95.340257 335.177188 94.909883 
C 335.632878 94.479508 335.888918 93.895714 335.888918 93.287073 
C 335.888918 92.678432 335.632878 92.094637 335.177188 91.664263 
C 334.721497 91.233888 334.103362 90.992073 333.458918 90.992073 
C 332.814475 90.992073 332.196339 91.233888 331.740649 91.664263 
C 331.284958 92.094637 331.028918 92.678432 331.028918 93.287073 
C 331.028918 93.895714 331.284958 94.479508 331.740649 94.909883 
C 332.196339 95.340257 332.814475 95.582073 333.458918 95.582073 
z
" style="stroke:#000000;stroke-linejoin:miter;stroke-width:1.5;"/>
   </g>
   <g id="patch_23">
    <path clip-path="url(#pe3b93f18ae)" d="M 333.458918 325.184073 
C 334.103362 325.184073 334.721497 324.942257 335.177188 324.511883 
C 335.632878 324.081508 335.888918 323.497714 335.888918 322.889073 
C 335.888918 322.280432 335.632878 321.696637 335.177188 321.266263 
C 334.721497 320.835888 334.103362 320.594073 333.458918 320.594073 
C 332.814475 320.594073 332.196339 320.835888 331.740649 321.266263 
C 331.284958 321.696637 331.028918 322.280432 331.028918 322.889073 
C 331.028918 323.497714 331.284958 324.081508 331.740649 324.511883 
C 332.196339 324.942257 332.814475 325.184073 333.458918 325.184073 
z
" style="stroke:#000000;stroke-linejoin:miter;stroke-width:1.5;"/>
   </g>
   <g id="patch_24">
    <path clip-path="url(#pe3b93f18ae)" d="M 680.030918 164.483073 
C 680.675362 164.483073 681.293497 164.241257 681.749188 163.810883 
C 682.204878 163.380508 682.460918 162.796714 682.460918 162.188073 
C 682.460918 161.579432 682.204878 160.995637 681.749188 160.565263 
C 681.293497 160.134888 680.675362 159.893073 680.030918 159.893073 
C 679.386475 159.893073 678.768339 160.134888 678.312649 160.565263 
C 677.856958 160.995637 677.600918 161.579432 677.600918 162.188073 
C 677.600918 162.796714 677.856958 163.380508 678.312649 163.810883 
C 678.768339 164.241257 679.386475 164.483073 680.030918 164.483073 
z
" style="stroke:#000000;stroke-linejoin:miter;stroke-width:1.5;"/>
   </g>
   <g id="patch_25">
    <path clip-path="url(#pe3b93f18ae)" d="M 680.030918 95.582073 
C 680.675362 95.582073 681.293497 95.340257 681.749188 94.909883 
C 682.204878 94.479508 682.460918 93.895714 682.460918 93.287073 
C 682.460918 92.678432 682.204878 92.094637 681.749188 91.664263 
C 681.293497 91.233888 680.675362 90.992073 680.030918 90.992073 
C 679.386475 90.992073 678.768339 91.233888 678.312649 91.664263 
C 677.856958 92.094637 677.600918 92.678432 677.600918 93.287073 
C 677.600918 93.895714 677.856958 94.479508 678.312649 94.909883 
C 678.768339 95.340257 679.386475 95.582073 680.030918 95.582073 
z
" style="stroke:#000000;stroke-linejoin:miter;stroke-width:1.5;"/>
   </g>
   <g id="patch_26">
    <path clip-path="url(#pe3b93f18ae)" d="M 680.030918 325.184073 
C 680.675362 325.184073 681.293497 324.942257 681.749188 324.511883 
C 682.204878 324.081508 682.460918 323.497714 682.460918 322.889073 
C 682.460918 322.280432 682.204878 321.696637 681.749188 321.266263 
C 681.293497 320.835888 680.675362 320.594073 680.030918 320.594073 
C 679.386475 320.594073 678.768339 320.835888 678.312649 321.266263 
C 677.856958 321.696637 677.600918 322.280432 677.600918 322.889073 
C 677.600918 323.497714 677.856958 324.081508 678.312649 324.511883 
C 678.768339 324.942257 679.386475 325.184073 680.030918 325.184073 
z
" style="stroke:#000000;stroke-linejoin:miter;stroke-width:1.5;"/>
   </g>
   <g id="patch_27">
    <path clip-path="url(#pe3b93f18ae)" d="M 777.230918 325.184073 
C 777.875362 325.184073 778.493497 324.942257 778.949188 324.511883 
C 779.404878 324.081508 779.660918 323.497714 779.660918 322.889073 
C 779.660918 322.280432 779.404878 321.696637 778.949188 321.266263 
C 778.493497 320.835888 777.875362 320.594073 777.230918 320.594073 
C 776.586475 320.594073 775.968339 320.835888 775.512649 321.266263 
C 775.056958 321.696637 774.800918 322.280432 774.800918 322.889073 
C 774.800918 323.497714 775.056958 324.081508 775.512649 324.511883 
C 775.968339 324.942257 776.586475 325.184073 777.230918 325.184073 
z
" style="stroke:#000000;stroke-linejoin:miter;stroke-width:1.5;"/>
   </g>
   <g id="patch_28">
    <path clip-path="url(#pe3b93f18ae)" d="M 777.230918 95.582073 
C 777.875362 95.582073 778.493497 95.340257 778.949188 94.909883 
C 779.404878 94.479508 779.660918 93.895714 779.660918 93.287073 
C 779.660918 92.678432 779.404878 92.094637 778.949188 91.664263 
C 778.493497 91.233888 777.875362 90.992073 777.230918 90.992073 
C 776.586475 90.992073 775.968339 91.233888 775.512649 91.664263 
C 775.056958 92.094637 774.800918 92.678432 774.800918 93.287073 
C 774.800918 93.895714 775.056958 94.479508 775.512649 94.909883 
C 775.968339 95.340257 776.586475 95.582073 777.230918 95.582073 
z
" style="stroke:#000000;stroke-linejoin:miter;stroke-width:1.5;"/>
   </g>
   <g id="patch_29">
    <path clip-path="url(#pe3b93f18ae)" d="M 874.430918 95.582073 
C 875.075362 95.582073 875.693497 95.340257 876.149188 94.909883 
C 876.604878 94.479508 876.860918 93.895714 876.860918 93.287073 
C 876.860918 92.678432 876.604878 92.094637 876.149188 91.664263 
C 875.693497 91.233888 875.075362 90.992073 874.430918 90.992073 
C 873.786475 90.992073 873.168339 91.233888 872.712649 91.664263 
C 872.256958 92.094637 872.000918 92.678432 872.000918 93.287073 
C 872.000918 93.895714 872.256958 94.479508 872.712649 94.909883 
C 873.168339 95.340257 873.786475 95.582073 874.430918 95.582073 
z
" style="fill:#ffffff;stroke:#000000;stroke-linejoin:miter;stroke-width:1.5;"/>
   </g>
   <g id="patch_30">
    <path clip-path="url(#pe3b93f18ae)" d="M 874.430918 325.184073 
C 875.075362 325.184073 875.693497 324.942257 876.149188 324.511883 
C 876.604878 324.081508 876.860918 323.497714 876.860918 322.889073 
C 876.860918 322.280432 876.604878 321.696637 876.149188 321.266263 
C 875.693497 320.835888 875.075362 320.594073 874.430918 320.594073 
C 873.786475 320.594073 873.168339 320.835888 872.712649 321.266263 
C 872.256958 321.696637 872.000918 322.280432 872.000918 322.889073 
C 872.000918 323.497714 872.256958 324.081508 872.712649 324.511883 
C 873.168339 324.942257 873.786475 325.184073 874.430918 325.184073 
z
" style="fill:#ffffff;stroke:#000000;stroke-linejoin:miter;stroke-width:1.5;"/>
   </g>
   <g id="patch_31">
    <path clip-path="url(#pe3b93f18ae)" d="M 599.462918 93.287073 
L 597.705781 99.925145 
L 595.25809 97.94368 
L 588.783218 105.07803 
L 588.758618 105.058116 
L 595.23349 97.923766 
L 592.785799 95.942301 
z
" style="stroke:#000000;stroke-linejoin:miter;stroke-width:1.5;"/>
   </g>
   <g id="patch_32">
    <path clip-path="url(#pe3b93f18ae)" d="M 544.490918 162.188073 
L 542.733781 168.826145 
L 540.28609 166.84468 
L 533.811218 173.97903 
L 533.786618 173.959116 
L 540.26149 166.824766 
L 537.813799 164.843301 
z
" style="stroke:#000000;stroke-linejoin:miter;stroke-width:1.5;"/>
   </g>
   <g id="line2d_1">
    <path clip-path="url(#pe3b93f18ae)" d="M 199.928139 28.37467 
L 230.284233 57.044315 
M 244.030389 59.208061 
L 232.575259 70.026795 
M 238.302824 64.617428 
L 268.658918 93.287073 
" style="fill:none;stroke:#000000;stroke-linecap:round;stroke-width:1.5;"/>
   </g>
   <g id="line2d_2">
    <path clip-path="url(#pe3b93f18ae)" d="M 268.658918 93.287073 
" style="fill:none;stroke:#000000;stroke-linecap:round;stroke-width:1.5;"/>
   </g>
   <g id="line2d_3">
    <path clip-path="url(#pe3b93f18ae)" d="M 199.928139 158.199475 
L 230.284233 129.529831 
M 244.030389 127.366084 
L 232.575259 116.54735 
M 238.302824 121.956717 
L 268.658918 93.287073 
" style="fill:none;stroke:#000000;stroke-linecap:round;stroke-width:1.5;"/>
   </g>
   <g id="line2d_4">
    <path clip-path="url(#pe3b93f18ae)" d="M 199.928139 158.199475 
" style="fill:none;stroke:#000000;stroke-linecap:round;stroke-width:1.5;"/>
   </g>
   <g id="line2d_5">
    <path clip-path="url(#pe3b93f18ae)" d="M 131.19736 93.287073 
L 161.553454 121.956717 
M 163.84448 134.939198 
L 175.29961 124.120464 
M 169.572045 129.529831 
L 199.928139 158.199475 
" style="fill:none;stroke:#000000;stroke-linecap:round;stroke-width:1.5;"/>
   </g>
   <g id="line2d_6">
    <path clip-path="url(#pe3b93f18ae)" d="M 131.19736 93.287073 
" style="fill:none;stroke:#000000;stroke-linecap:round;stroke-width:1.5;"/>
   </g>
   <g id="line2d_7">
    <path clip-path="url(#pe3b93f18ae)" d="M 131.19736 93.287073 
L 161.553454 64.617428 
M 163.84448 51.634948 
L 175.29961 62.453681 
M 169.572045 57.044315 
L 199.928139 28.37467 
" style="fill:none;stroke:#000000;stroke-linecap:round;stroke-width:1.5;"/>
   </g>
   <g id="line2d_8">
    <path clip-path="url(#pe3b93f18ae)" d="M 199.928139 28.37467 
" style="fill:none;stroke:#000000;stroke-linecap:round;stroke-width:1.5;"/>
   </g>
   <g id="line2d_9">
    <path clip-path="url(#pe3b93f18ae)" d="M 199.928139 158.199475 
L 127.028139 158.199475 
L 54.128139 158.199475 
" style="fill:none;stroke:#000000;stroke-linecap:round;stroke-width:1.5;"/>
   </g>
   <g id="line2d_10">
    <path clip-path="url(#pe3b93f18ae)" d="M 54.128139 158.199475 
" style="fill:none;stroke:#000000;stroke-linecap:round;stroke-width:1.5;"/>
   </g>
   <g id="line2d_11">
    <path clip-path="url(#pe3b93f18ae)" d="M 54.128139 158.199475 
L 54.128139 108.587073 
M 54.128139 77.987073 
L 54.128139 28.37467 
" style="fill:none;stroke:#ffffff;stroke-linecap:round;stroke-width:1.5;"/>
   </g>
   <g id="line2d_12">
    <path clip-path="url(#pe3b93f18ae)" d="M 199.928139 28.37467 
L 127.028139 28.37467 
L 54.128139 28.37467 
" style="fill:none;stroke:#000000;stroke-linecap:round;stroke-width:1.5;"/>
   </g>
   <g id="line2d_13">
    <path clip-path="url(#pe3b93f18ae)" d="M 54.128139 28.37467 
" style="fill:none;stroke:#000000;stroke-linecap:round;stroke-width:1.5;"/>
   </g>
   <g id="line2d_14">
    <path clip-path="url(#pe3b93f18ae)" d="M 268.658918 93.287073 
L 414.458918 93.287073 
L 560.258918 93.287073 
" style="fill:none;stroke:#000000;stroke-linecap:round;stroke-width:1.5;"/>
   </g>
   <g id="line2d_15">
    <path clip-path="url(#pe3b93f18ae)" d="M 588.770918 105.068073 
L 599.462918 93.287073 
L 605.402918 93.287073 
" style="fill:none;stroke:#000000;stroke-linecap:round;stroke-width:1.5;"/>
   </g>
   <g id="line2d_16">
    <path clip-path="url(#pe3b93f18ae)" d="M 582.830918 116.288073 
L 582.830918 105.068073 
" style="fill:none;stroke:#000000;stroke-linecap:round;stroke-width:1.5;"/>
   </g>
   <g id="line2d_17">
    <path clip-path="url(#pe3b93f18ae)" d="M 570.950918 105.068073 
L 594.710918 105.068073 
" style="fill:none;stroke:#000000;stroke-linecap:round;stroke-width:1.5;"/>
   </g>
   <g id="line2d_18">
    <path clip-path="url(#pe3b93f18ae)" d="M 576.890918 105.068073 
L 566.198918 93.287073 
L 560.258918 93.287073 
" style="fill:none;stroke:#000000;stroke-linecap:round;stroke-width:1.5;"/>
   </g>
   <g id="line2d_19">
    <path clip-path="url(#pe3b93f18ae)" d="M 582.830918 116.288073 
L 582.830918 139.238073 
L 582.830918 162.188073 
" style="fill:none;stroke:#000000;stroke-linecap:round;stroke-width:1.5;"/>
   </g>
   <g id="line2d_20">
    <path clip-path="url(#pe3b93f18ae)" d="M 582.830918 162.188073 
" style="fill:none;stroke:#000000;stroke-linecap:round;stroke-width:1.5;"/>
   </g>
   <g id="line2d_21">
    <path clip-path="url(#pe3b93f18ae)" d="M 582.830918 162.188073 
L 566.630918 162.188073 
L 550.430918 162.188073 
" style="fill:none;stroke:#000000;stroke-linecap:round;stroke-width:1.5;"/>
   </g>
   <g id="line2d_22">
    <path clip-path="url(#pe3b93f18ae)" d="M 533.798918 173.969073 
L 544.490918 162.188073 
L 550.430918 162.188073 
" style="fill:none;stroke:#000000;stroke-linecap:round;stroke-width:1.5;"/>
   </g>
   <g id="line2d_23">
    <path clip-path="url(#pe3b93f18ae)" d="M 527.858918 185.189073 
L 527.858918 173.969073 
" style="fill:none;stroke:#000000;stroke-linecap:round;stroke-width:1.5;"/>
   </g>
   <g id="line2d_24">
    <path clip-path="url(#pe3b93f18ae)" d="M 515.978918 173.969073 
L 539.738918 173.969073 
" style="fill:none;stroke:#000000;stroke-linecap:round;stroke-width:1.5;"/>
   </g>
   <g id="line2d_25">
    <path clip-path="url(#pe3b93f18ae)" d="M 521.918918 173.969073 
L 511.226918 162.188073 
L 505.286918 162.188073 
" style="fill:none;stroke:#000000;stroke-linecap:round;stroke-width:1.5;"/>
   </g>
   <g id="line2d_26">
    <path clip-path="url(#pe3b93f18ae)" d="M 505.286918 162.188073 
L 505.286918 127.737573 
L 505.286918 93.287073 
" style="fill:none;stroke:#000000;stroke-linecap:round;stroke-width:1.5;"/>
   </g>
   <g id="line2d_27">
    <path clip-path="url(#pe3b93f18ae)" d="M 505.286918 93.287073 
" style="fill:none;stroke:#000000;stroke-linecap:round;stroke-width:1.5;"/>
   </g>
   <g id="line2d_28">
    <path clip-path="url(#pe3b93f18ae)" d="M 527.858918 185.189073 
L 527.858918 208.139073 
L 527.858918 231.089073 
" style="fill:none;stroke:#000000;stroke-linecap:round;stroke-width:1.5;"/>
   </g>
   <g id="line2d_29">
    <path clip-path="url(#pe3b93f18ae)" d="M 527.858918 231.089073 
" style="fill:none;stroke:#000000;stroke-linecap:round;stroke-width:1.5;"/>
   </g>
   <g id="line2d_30">
    <path clip-path="url(#pe3b93f18ae)" d="M 527.858918 322.889073 
L 527.858918 282.344073 
M 535.958918 271.634073 
L 519.758918 271.634073 
M 527.858918 271.634073 
L 527.858918 231.089073 
" style="fill:none;stroke:#000000;stroke-linecap:round;stroke-width:1.5;"/>
   </g>
   <g id="line2d_31">
    <path clip-path="url(#pe3b93f18ae)" d="M 535.958918 271.634073 
L 539.198918 268.574073 
" style="fill:none;stroke:#000000;stroke-linecap:round;stroke-width:1.5;"/>
   </g>
   <g id="line2d_32">
    <path clip-path="url(#pe3b93f18ae)" d="M 519.758918 271.634073 
L 516.518918 274.694073 
" style="fill:none;stroke:#000000;stroke-linecap:round;stroke-width:1.5;"/>
   </g>
   <g id="line2d_33">
    <path clip-path="url(#pe3b93f18ae)" d="M 527.858918 322.889073 
" style="fill:none;stroke:#000000;stroke-linecap:round;stroke-width:1.5;"/>
   </g>
   <g id="line2d_34">
    <path clip-path="url(#pe3b93f18ae)" d="M 527.858918 322.889073 
L 527.858918 335.129073 
L 519.758918 335.129073 
L 535.958918 335.129073 
M 522.188918 338.801073 
L 533.528918 338.801073 
M 526.238918 342.473073 
L 529.478918 342.473073 
" style="fill:none;stroke:#000000;stroke-linecap:round;stroke-width:1.5;"/>
   </g>
   <g id="line2d_35">
    <path clip-path="url(#pe3b93f18ae)" d="M 527.858918 322.889073 
L 479.258918 322.889073 
L 430.658918 322.889073 
" style="fill:none;stroke:#000000;stroke-linecap:round;stroke-width:1.5;"/>
   </g>
   <g id="line2d_36">
    <path clip-path="url(#pe3b93f18ae)" d="M 430.658918 322.889073 
" style="fill:none;stroke:#000000;stroke-linecap:round;stroke-width:1.5;"/>
   </g>
   <g id="line2d_37">
    <path clip-path="url(#pe3b93f18ae)" d="M 430.658918 231.089073 
L 430.658918 274.235073 
M 422.558918 274.235073 
L 438.758918 274.235073 
M 422.558918 279.743073 
L 438.758918 279.743073 
M 430.658918 279.743073 
L 430.658918 322.889073 
" style="fill:none;stroke:#000000;stroke-linecap:round;stroke-width:1.5;"/>
   </g>
   <g id="line2d_38">
    <path clip-path="url(#pe3b93f18ae)" d="M 430.658918 231.089073 
" style="fill:none;stroke:#000000;stroke-linecap:round;stroke-width:1.5;"/>
   </g>
   <g id="line2d_39">
    <path clip-path="url(#pe3b93f18ae)" d="M 430.658918 231.089073 
L 479.258918 231.089073 
L 527.858918 231.089073 
" style="fill:none;stroke:#000000;stroke-linecap:round;stroke-width:1.5;"/>
   </g>
   <g id="line2d_40">
    <path clip-path="url(#pe3b93f18ae)" d="M 430.658918 231.089073 
L 430.658918 177.488073 
L 422.558918 174.938073 
L 438.758918 169.838073 
L 422.558918 164.738073 
L 438.758918 159.638073 
L 422.558918 154.538073 
L 438.758918 149.438073 
L 430.658918 146.888073 
L 430.658918 93.287073 
" style="fill:none;stroke:#000000;stroke-linecap:round;stroke-width:1.5;"/>
   </g>
   <g id="line2d_41">
    <path clip-path="url(#pe3b93f18ae)" d="M 430.658918 93.287073 
" style="fill:none;stroke:#000000;stroke-linecap:round;stroke-width:1.5;"/>
   </g>
   <g id="line2d_42">
    <path clip-path="url(#pe3b93f18ae)" d="M 333.458918 93.287073 
" style="fill:none;stroke:#000000;stroke-linecap:round;stroke-width:1.5;"/>
   </g>
   <g id="line2d_43">
    <path clip-path="url(#pe3b93f18ae)" d="M 333.458918 93.287073 
L 333.458918 205.334073 
M 325.358918 205.334073 
L 341.558918 205.334073 
M 325.358918 210.842073 
L 341.558918 210.842073 
M 333.458918 210.842073 
L 333.458918 322.889073 
" style="fill:none;stroke:#000000;stroke-linecap:round;stroke-width:1.5;"/>
   </g>
   <g id="line2d_44">
    <path clip-path="url(#pe3b93f18ae)" d="M 333.458918 322.889073 
" style="fill:none;stroke:#000000;stroke-linecap:round;stroke-width:1.5;"/>
   </g>
   <g id="line2d_45">
    <path clip-path="url(#pe3b93f18ae)" d="M 527.858918 322.889073 
L 329.528139 322.889073 
L 131.19736 322.889073 
" style="fill:none;stroke:#000000;stroke-linecap:round;stroke-width:1.5;"/>
   </g>
   <g id="line2d_46">
    <path clip-path="url(#pe3b93f18ae)" d="M 131.19736 322.889073 
L 131.19736 208.088073 
L 131.19736 93.287073 
" style="fill:none;stroke:#000000;stroke-linecap:round;stroke-width:1.5;"/>
   </g>
   <g id="line2d_47">
    <path clip-path="url(#pe3b93f18ae)" d="M 582.830918 162.188073 
L 615.230918 162.188073 
L 617.930918 154.538073 
L 623.330918 169.838073 
L 628.730918 154.538073 
L 634.130918 169.838073 
L 639.530918 154.538073 
L 644.930918 169.838073 
L 647.630918 162.188073 
L 680.030918 162.188073 
" style="fill:none;stroke:#000000;stroke-linecap:round;stroke-width:1.5;"/>
   </g>
   <g id="line2d_48">
    <path clip-path="url(#pe3b93f18ae)" d="M 680.030918 162.188073 
" style="fill:none;stroke:#000000;stroke-linecap:round;stroke-width:1.5;"/>
   </g>
   <g id="line2d_49">
    <path clip-path="url(#pe3b93f18ae)" d="M 680.030918 162.188073 
L 680.030918 127.737573 
L 680.030918 93.287073 
" style="fill:none;stroke:#000000;stroke-linecap:round;stroke-width:1.5;"/>
   </g>
   <g id="line2d_50">
    <path clip-path="url(#pe3b93f18ae)" d="M 680.030918 93.287073 
" style="fill:none;stroke:#000000;stroke-linecap:round;stroke-width:1.5;"/>
   </g>
   <g id="line2d_51">
    <path clip-path="url(#pe3b93f18ae)" d="M 680.030918 93.287073 
L 642.716918 93.287073 
L 605.402918 93.287073 
" style="fill:none;stroke:#000000;stroke-linecap:round;stroke-width:1.5;"/>
   </g>
   <g id="line2d_52">
    <path clip-path="url(#pe3b93f18ae)" d="M 680.030918 162.188073 
L 680.030918 239.784573 
M 688.130918 239.784573 
L 671.930918 239.784573 
M 688.130918 245.292573 
L 671.930918 245.292573 
M 680.030918 245.292573 
L 680.030918 322.889073 
" style="fill:none;stroke:#000000;stroke-linecap:round;stroke-width:1.5;"/>
   </g>
   <g id="line2d_53">
    <path clip-path="url(#pe3b93f18ae)" d="M 680.030918 322.889073 
" style="fill:none;stroke:#000000;stroke-linecap:round;stroke-width:1.5;"/>
   </g>
   <g id="line2d_54">
    <path clip-path="url(#pe3b93f18ae)" d="M 680.030918 322.889073 
L 603.944918 322.889073 
L 527.858918 322.889073 
" style="fill:none;stroke:#000000;stroke-linecap:round;stroke-width:1.5;"/>
   </g>
   <g id="line2d_55">
    <path clip-path="url(#pe3b93f18ae)" d="M 680.030918 322.889073 
L 728.630918 322.889073 
L 777.230918 322.889073 
" style="fill:none;stroke:#000000;stroke-linecap:round;stroke-width:1.5;"/>
   </g>
   <g id="line2d_56">
    <path clip-path="url(#pe3b93f18ae)" d="M 777.230918 322.889073 
" style="fill:none;stroke:#000000;stroke-linecap:round;stroke-width:1.5;"/>
   </g>
   <g id="line2d_57">
    <path clip-path="url(#pe3b93f18ae)" d="M 777.230918 322.889073 
L 777.230918 223.388073 
L 769.130918 220.838073 
L 785.330918 215.738073 
L 769.130918 210.638073 
L 785.330918 205.538073 
L 769.130918 200.438073 
L 785.330918 195.338073 
L 777.230918 192.788073 
L 777.230918 93.287073 
" style="fill:none;stroke:#000000;stroke-linecap:round;stroke-width:1.5;"/>
   </g>
   <g id="line2d_58">
    <path clip-path="url(#pe3b93f18ae)" d="M 777.230918 93.287073 
" style="fill:none;stroke:#000000;stroke-linecap:round;stroke-width:1.5;"/>
   </g>
   <g id="line2d_59">
    <path clip-path="url(#pe3b93f18ae)" d="M 777.230918 93.287073 
L 728.630918 93.287073 
L 680.030918 93.287073 
" style="fill:none;stroke:#000000;stroke-linecap:round;stroke-width:1.5;"/>
   </g>
   <g id="line2d_60">
    <path clip-path="url(#pe3b93f18ae)" d="M 777.230918 93.287073 
L 825.830918 93.287073 
L 874.430918 93.287073 
" style="fill:none;stroke:#000000;stroke-linecap:round;stroke-width:1.5;"/>
   </g>
   <g id="line2d_61">
    <path clip-path="url(#pe3b93f18ae)" d="M 874.430918 93.287073 
" style="fill:none;stroke:#000000;stroke-linecap:round;stroke-width:1.5;"/>
   </g>
   <g id="line2d_62">
    <path clip-path="url(#pe3b93f18ae)" d="M 874.430918 93.287073 
L 874.430918 192.788073 
M 874.430918 223.388073 
L 874.430918 322.889073 
" style="fill:none;stroke:#ffffff;stroke-linecap:round;stroke-width:1.5;"/>
   </g>
   <g id="line2d_63">
    <path clip-path="url(#pe3b93f18ae)" d="M 874.430918 322.889073 
" style="fill:none;stroke:#000000;stroke-linecap:round;stroke-width:1.5;"/>
   </g>
   <g id="line2d_64">
    <path clip-path="url(#pe3b93f18ae)" d="M 874.430918 322.889073 
L 825.830918 322.889073 
L 777.230918 322.889073 
" style="fill:none;stroke:#000000;stroke-linecap:round;stroke-width:1.5;"/>
   </g>
   <g id="text_1">
    <!-- AC IN -->
    <defs>
     <path d="M 34.1875 63.1875 
L 20.796875 26.90625 
L 47.609375 26.90625 
z
M 28.609375 72.90625 
L 39.796875 72.90625 
L 67.578125 0 
L 57.328125 0 
L 50.6875 18.703125 
L 17.828125 18.703125 
L 11.1875 0 
L 0.78125 0 
z
" id="DejaVuSans-65"/>
     <path d="M 64.40625 67.28125 
L 64.40625 56.890625 
Q 59.421875 61.53125 53.78125 63.8125 
Q 48.140625 66.109375 41.796875 66.109375 
Q 29.296875 66.109375 22.65625 58.46875 
Q 16.015625 50.828125 16.015625 36.375 
Q 16.015625 21.96875 22.65625 14.328125 
Q 29.296875 6.6875 41.796875 6.6875 
Q 48.140625 6.6875 53.78125 8.984375 
Q 59.421875 11.28125 64.40625 15.921875 
L 64.40625 5.609375 
Q 59.234375 2.09375 53.4375 0.328125 
Q 47.65625 -1.421875 41.21875 -1.421875 
Q 24.65625 -1.421875 15.125 8.703125 
Q 5.609375 18.84375 5.609375 36.375 
Q 5.609375 53.953125 15.125 64.078125 
Q 24.65625 74.21875 41.21875 74.21875 
Q 47.75 74.21875 53.53125 72.484375 
Q 59.328125 70.75 64.40625 67.28125 
z
" id="DejaVuSans-67"/>
     <path id="DejaVuSans-32"/>
     <path d="M 9.8125 72.90625 
L 19.671875 72.90625 
L 19.671875 0 
L 9.8125 0 
z
" id="DejaVuSans-73"/>
     <path d="M 9.8125 72.90625 
L 23.09375 72.90625 
L 55.421875 11.921875 
L 55.421875 72.90625 
L 64.984375 72.90625 
L 64.984375 0 
L 51.703125 0 
L 19.390625 60.984375 
L 19.390625 0 
L 9.8125 0 
z
" id="DejaVuSans-78"/>
    </defs>
    <g transform="translate(32.183139 97.702073)scale(0.16 -0.16)">
     <use xlink:href="#DejaVuSans-65"/>
     <use x="68.392578" xlink:href="#DejaVuSans-67"/>
     <use x="138.216797" xlink:href="#DejaVuSans-32"/>
     <use x="170.003906" xlink:href="#DejaVuSans-73"/>
     <use x="199.496094" xlink:href="#DejaVuSans-78"/>
    </g>
   </g>
   <g id="text_2">
    <!-- Q2 -->
    <defs>
     <path d="M 39.40625 66.21875 
Q 28.65625 66.21875 22.328125 58.203125 
Q 16.015625 50.203125 16.015625 36.375 
Q 16.015625 22.609375 22.328125 14.59375 
Q 28.65625 6.59375 39.40625 6.59375 
Q 50.140625 6.59375 56.421875 14.59375 
Q 62.703125 22.609375 62.703125 36.375 
Q 62.703125 50.203125 56.421875 58.203125 
Q 50.140625 66.21875 39.40625 66.21875 
z
M 53.21875 1.3125 
L 66.21875 -12.890625 
L 54.296875 -12.890625 
L 43.5 -1.21875 
Q 41.890625 -1.3125 41.03125 -1.359375 
Q 40.1875 -1.421875 39.40625 -1.421875 
Q 24.03125 -1.421875 14.8125 8.859375 
Q 5.609375 19.140625 5.609375 36.375 
Q 5.609375 53.65625 14.8125 63.9375 
Q 24.03125 74.21875 39.40625 74.21875 
Q 54.734375 74.21875 63.90625 63.9375 
Q 73.09375 53.65625 73.09375 36.375 
Q 73.09375 23.6875 67.984375 14.640625 
Q 62.890625 5.609375 53.21875 1.3125 
z
" id="DejaVuSans-81"/>
     <path d="M 19.1875 8.296875 
L 53.609375 8.296875 
L 53.609375 0 
L 7.328125 0 
L 7.328125 8.296875 
Q 12.9375 14.109375 22.625 23.890625 
Q 32.328125 33.6875 34.8125 36.53125 
Q 39.546875 41.84375 41.421875 45.53125 
Q 43.3125 49.21875 43.3125 52.78125 
Q 43.3125 58.59375 39.234375 62.25 
Q 35.15625 65.921875 28.609375 65.921875 
Q 23.96875 65.921875 18.8125 64.3125 
Q 13.671875 62.703125 7.8125 59.421875 
L 7.8125 69.390625 
Q 13.765625 71.78125 18.9375 73 
Q 24.125 74.21875 28.421875 74.21875 
Q 39.75 74.21875 46.484375 68.546875 
Q 53.21875 62.890625 53.21875 53.421875 
Q 53.21875 48.921875 51.53125 44.890625 
Q 49.859375 40.875 45.40625 35.40625 
Q 44.1875 33.984375 37.640625 27.21875 
Q 31.109375 20.453125 19.1875 8.296875 
z
" id="DejaVuSans-50"/>
    </defs>
    <g transform="translate(571.443418 58.324073)scale(0.16 -0.16)">
     <use xlink:href="#DejaVuSans-81"/>
     <use x="78.710938" xlink:href="#DejaVuSans-50"/>
    </g>
    <!-- 2n3055 -->
    <defs>
     <path d="M 54.890625 33.015625 
L 54.890625 0 
L 45.90625 0 
L 45.90625 32.71875 
Q 45.90625 40.484375 42.875 44.328125 
Q 39.84375 48.1875 33.796875 48.1875 
Q 26.515625 48.1875 22.3125 43.546875 
Q 18.109375 38.921875 18.109375 30.90625 
L 18.109375 0 
L 9.078125 0 
L 9.078125 54.6875 
L 18.109375 54.6875 
L 18.109375 46.1875 
Q 21.34375 51.125 25.703125 53.5625 
Q 30.078125 56 35.796875 56 
Q 45.21875 56 50.046875 50.171875 
Q 54.890625 44.34375 54.890625 33.015625 
z
" id="DejaVuSans-110"/>
     <path d="M 40.578125 39.3125 
Q 47.65625 37.796875 51.625 33 
Q 55.609375 28.21875 55.609375 21.1875 
Q 55.609375 10.40625 48.1875 4.484375 
Q 40.765625 -1.421875 27.09375 -1.421875 
Q 22.515625 -1.421875 17.65625 -0.515625 
Q 12.796875 0.390625 7.625 2.203125 
L 7.625 11.71875 
Q 11.71875 9.328125 16.59375 8.109375 
Q 21.484375 6.890625 26.8125 6.890625 
Q 36.078125 6.890625 40.9375 10.546875 
Q 45.796875 14.203125 45.796875 21.1875 
Q 45.796875 27.640625 41.28125 31.265625 
Q 36.765625 34.90625 28.71875 34.90625 
L 20.21875 34.90625 
L 20.21875 43.015625 
L 29.109375 43.015625 
Q 36.375 43.015625 40.234375 45.921875 
Q 44.09375 48.828125 44.09375 54.296875 
Q 44.09375 59.90625 40.109375 62.90625 
Q 36.140625 65.921875 28.71875 65.921875 
Q 24.65625 65.921875 20.015625 65.03125 
Q 15.375 64.15625 9.8125 62.3125 
L 9.8125 71.09375 
Q 15.4375 72.65625 20.34375 73.4375 
Q 25.25 74.21875 29.59375 74.21875 
Q 40.828125 74.21875 47.359375 69.109375 
Q 53.90625 64.015625 53.90625 55.328125 
Q 53.90625 49.265625 50.4375 45.09375 
Q 46.96875 40.921875 40.578125 39.3125 
z
" id="DejaVuSans-51"/>
     <path d="M 31.78125 66.40625 
Q 24.171875 66.40625 20.328125 58.90625 
Q 16.5 51.421875 16.5 36.375 
Q 16.5 21.390625 20.328125 13.890625 
Q 24.171875 6.390625 31.78125 6.390625 
Q 39.453125 6.390625 43.28125 13.890625 
Q 47.125 21.390625 47.125 36.375 
Q 47.125 51.421875 43.28125 58.90625 
Q 39.453125 66.40625 31.78125 66.40625 
z
M 31.78125 74.21875 
Q 44.046875 74.21875 50.515625 64.515625 
Q 56.984375 54.828125 56.984375 36.375 
Q 56.984375 17.96875 50.515625 8.265625 
Q 44.046875 -1.421875 31.78125 -1.421875 
Q 19.53125 -1.421875 13.0625 8.265625 
Q 6.59375 17.96875 6.59375 36.375 
Q 6.59375 54.828125 13.0625 64.515625 
Q 19.53125 74.21875 31.78125 74.21875 
z
" id="DejaVuSans-48"/>
     <path d="M 10.796875 72.90625 
L 49.515625 72.90625 
L 49.515625 64.59375 
L 19.828125 64.59375 
L 19.828125 46.734375 
Q 21.96875 47.46875 24.109375 47.828125 
Q 26.265625 48.1875 28.421875 48.1875 
Q 40.625 48.1875 47.75 41.5 
Q 54.890625 34.8125 54.890625 23.390625 
Q 54.890625 11.625 47.5625 5.09375 
Q 40.234375 -1.421875 26.90625 -1.421875 
Q 22.3125 -1.421875 17.546875 -0.640625 
Q 12.796875 0.140625 7.71875 1.703125 
L 7.71875 11.625 
Q 12.109375 9.234375 16.796875 8.0625 
Q 21.484375 6.890625 26.703125 6.890625 
Q 35.15625 6.890625 40.078125 11.328125 
Q 45.015625 15.765625 45.015625 23.390625 
Q 45.015625 31 40.078125 35.4375 
Q 35.15625 39.890625 26.703125 39.890625 
Q 22.75 39.890625 18.8125 39.015625 
Q 14.890625 38.140625 10.796875 36.28125 
z
" id="DejaVuSans-53"/>
    </defs>
    <g transform="translate(552.310918 76.240573)scale(0.16 -0.16)">
     <use xlink:href="#DejaVuSans-50"/>
     <use x="63.623047" xlink:href="#DejaVuSans-110"/>
     <use x="127.001953" xlink:href="#DejaVuSans-51"/>
     <use x="190.625" xlink:href="#DejaVuSans-48"/>
     <use x="254.248047" xlink:href="#DejaVuSans-53"/>
     <use x="317.871094" xlink:href="#DejaVuSans-53"/>
    </g>
   </g>
   <g id="text_3">
    <!-- Q1 -->
    <defs>
     <path d="M 12.40625 8.296875 
L 28.515625 8.296875 
L 28.515625 63.921875 
L 10.984375 60.40625 
L 10.984375 69.390625 
L 28.421875 72.90625 
L 38.28125 72.90625 
L 38.28125 8.296875 
L 54.390625 8.296875 
L 54.390625 0 
L 12.40625 0 
z
" id="DejaVuSans-49"/>
    </defs>
    <g transform="translate(516.471418 127.225073)scale(0.16 -0.16)">
     <use xlink:href="#DejaVuSans-81"/>
     <use x="78.710938" xlink:href="#DejaVuSans-49"/>
    </g>
    <!--     2n3054 -->
    <defs>
     <path d="M 37.796875 64.3125 
L 12.890625 25.390625 
L 37.796875 25.390625 
z
M 35.203125 72.90625 
L 47.609375 72.90625 
L 47.609375 25.390625 
L 58.015625 25.390625 
L 58.015625 17.1875 
L 47.609375 17.1875 
L 47.609375 0 
L 37.796875 0 
L 37.796875 17.1875 
L 4.890625 17.1875 
L 4.890625 26.703125 
z
" id="DejaVuSans-52"/>
    </defs>
    <g transform="translate(487.168918 145.141573)scale(0.16 -0.16)">
     <use xlink:href="#DejaVuSans-32"/>
     <use x="31.787109" xlink:href="#DejaVuSans-32"/>
     <use x="63.574219" xlink:href="#DejaVuSans-32"/>
     <use x="95.361328" xlink:href="#DejaVuSans-32"/>
     <use x="127.148438" xlink:href="#DejaVuSans-50"/>
     <use x="190.771484" xlink:href="#DejaVuSans-110"/>
     <use x="254.150391" xlink:href="#DejaVuSans-51"/>
     <use x="317.773438" xlink:href="#DejaVuSans-48"/>
     <use x="381.396484" xlink:href="#DejaVuSans-53"/>
     <use x="445.019531" xlink:href="#DejaVuSans-52"/>
    </g>
   </g>
   <g id="text_4">
    <!-- D2 -->
    <defs>
     <path d="M 19.671875 64.796875 
L 19.671875 8.109375 
L 31.59375 8.109375 
Q 46.6875 8.109375 53.6875 14.9375 
Q 60.6875 21.78125 60.6875 36.53125 
Q 60.6875 51.171875 53.6875 57.984375 
Q 46.6875 64.796875 31.59375 64.796875 
z
M 9.8125 72.90625 
L 30.078125 72.90625 
Q 51.265625 72.90625 61.171875 64.09375 
Q 71.09375 55.28125 71.09375 36.53125 
Q 71.09375 17.671875 61.125 8.828125 
Q 51.171875 0 30.078125 0 
L 9.8125 0 
z
" id="DejaVuSans-68"/>
    </defs>
    <g transform="translate(542.438918 272.445823)scale(0.16 -0.16)">
     <use xlink:href="#DejaVuSans-68"/>
     <use x="77.001953" xlink:href="#DejaVuSans-50"/>
    </g>
    <!-- 500mA -->
    <defs>
     <path d="M 52 44.1875 
Q 55.375 50.25 60.0625 53.125 
Q 64.75 56 71.09375 56 
Q 79.640625 56 84.28125 50.015625 
Q 88.921875 44.046875 88.921875 33.015625 
L 88.921875 0 
L 79.890625 0 
L 79.890625 32.71875 
Q 79.890625 40.578125 77.09375 44.375 
Q 74.3125 48.1875 68.609375 48.1875 
Q 61.625 48.1875 57.5625 43.546875 
Q 53.515625 38.921875 53.515625 30.90625 
L 53.515625 0 
L 44.484375 0 
L 44.484375 32.71875 
Q 44.484375 40.625 41.703125 44.40625 
Q 38.921875 48.1875 33.109375 48.1875 
Q 26.21875 48.1875 22.15625 43.53125 
Q 18.109375 38.875 18.109375 30.90625 
L 18.109375 0 
L 9.078125 0 
L 9.078125 54.6875 
L 18.109375 54.6875 
L 18.109375 46.1875 
Q 21.1875 51.21875 25.484375 53.609375 
Q 29.78125 56 35.6875 56 
Q 41.65625 56 45.828125 52.96875 
Q 50 49.953125 52 44.1875 
z
" id="DejaVuSans-109"/>
    </defs>
    <g transform="translate(542.438918 290.362323)scale(0.16 -0.16)">
     <use xlink:href="#DejaVuSans-53"/>
     <use x="63.623047" xlink:href="#DejaVuSans-48"/>
     <use x="127.246094" xlink:href="#DejaVuSans-48"/>
     <use x="190.869141" xlink:href="#DejaVuSans-109"/>
     <use x="288.28125" xlink:href="#DejaVuSans-65"/>
    </g>
   </g>
   <g id="text_5">
    <!-- C2 -->
    <g transform="translate(441.998918 263.471323)scale(0.16 -0.16)">
     <use xlink:href="#DejaVuSans-67"/>
     <use x="69.824219" xlink:href="#DejaVuSans-50"/>
    </g>
    <!-- 100$\mu$F -->
    <defs>
     <path d="M 8.5 -20.796875 
L 8.5 54.6875 
L 17.484375 54.6875 
L 17.484375 20.703125 
Q 17.484375 13.625 20.84375 10 
Q 24.21875 6.390625 30.8125 6.390625 
Q 38.03125 6.390625 41.671875 10.484375 
Q 45.3125 14.59375 45.3125 22.796875 
L 45.3125 54.6875 
L 54.296875 54.6875 
L 54.296875 12.59375 
Q 54.296875 9.671875 55.140625 8.28125 
Q 56 6.890625 57.8125 6.890625 
Q 58.25 6.890625 59.03125 7.15625 
Q 59.8125 7.421875 61.1875 8.015625 
L 61.1875 0.78125 
Q 59.1875 -0.34375 57.390625 -0.875 
Q 55.609375 -1.421875 53.90625 -1.421875 
Q 50.53125 -1.421875 48.53125 0.484375 
Q 46.53125 2.390625 45.796875 6.296875 
Q 43.359375 2.4375 39.8125 0.5 
Q 36.28125 -1.421875 31.5 -1.421875 
Q 26.515625 -1.421875 23.015625 0.484375 
Q 19.53125 2.390625 17.484375 6.203125 
L 17.484375 -20.796875 
z
" id="DejaVuSans-956"/>
     <path d="M 9.8125 72.90625 
L 51.703125 72.90625 
L 51.703125 64.59375 
L 19.671875 64.59375 
L 19.671875 43.109375 
L 48.578125 43.109375 
L 48.578125 34.8125 
L 19.671875 34.8125 
L 19.671875 0 
L 9.8125 0 
z
" id="DejaVuSans-70"/>
    </defs>
    <g transform="translate(441.998918 281.387823)scale(0.16 -0.16)">
     <use transform="translate(0 0.78125)" xlink:href="#DejaVuSans-49"/>
     <use transform="translate(63.623047 0.78125)" xlink:href="#DejaVuSans-48"/>
     <use transform="translate(127.246094 0.78125)" xlink:href="#DejaVuSans-48"/>
     <use transform="translate(190.869141 0.78125)" xlink:href="#DejaVuSans-956"/>
     <use transform="translate(254.492188 0.78125)" xlink:href="#DejaVuSans-70"/>
    </g>
    <!-- 50V -->
    <defs>
     <path d="M 28.609375 0 
L 0.78125 72.90625 
L 11.078125 72.90625 
L 34.1875 11.53125 
L 57.328125 72.90625 
L 67.578125 72.90625 
L 39.796875 0 
z
" id="DejaVuSans-86"/>
    </defs>
    <g transform="translate(441.998918 299.336823)scale(0.16 -0.16)">
     <use xlink:href="#DejaVuSans-53"/>
     <use x="63.623047" xlink:href="#DejaVuSans-48"/>
     <use x="127.246094" xlink:href="#DejaVuSans-86"/>
    </g>
   </g>
   <g id="text_6">
    <!-- + -->
    <defs>
     <path d="M 46 62.703125 
L 46 35.5 
L 73.1875 35.5 
L 73.1875 27.203125 
L 46 27.203125 
L 46 0 
L 37.796875 0 
L 37.796875 27.203125 
L 10.59375 27.203125 
L 10.59375 35.5 
L 37.796875 35.5 
L 37.796875 62.703125 
z
" id="DejaVuSans-43"/>
    </defs>
    <g transform="translate(418.123168 272.040473)scale(0.16 -0.16)">
     <use xlink:href="#DejaVuSans-43"/>
    </g>
   </g>
   <g id="text_7">
    <!-- R1 -->
    <defs>
     <path d="M 44.390625 34.1875 
Q 47.5625 33.109375 50.5625 29.59375 
Q 53.5625 26.078125 56.59375 19.921875 
L 66.609375 0 
L 56 0 
L 46.6875 18.703125 
Q 43.0625 26.03125 39.671875 28.421875 
Q 36.28125 30.8125 30.421875 30.8125 
L 19.671875 30.8125 
L 19.671875 0 
L 9.8125 0 
L 9.8125 72.90625 
L 32.078125 72.90625 
Q 44.578125 72.90625 50.734375 67.671875 
Q 56.890625 62.453125 56.890625 51.90625 
Q 56.890625 45.015625 53.6875 40.46875 
Q 50.484375 35.9375 44.390625 34.1875 
z
M 19.671875 64.796875 
L 19.671875 38.921875 
L 32.078125 38.921875 
Q 39.203125 38.921875 42.84375 42.21875 
Q 46.484375 45.515625 46.484375 51.90625 
Q 46.484375 58.296875 42.84375 61.546875 
Q 39.203125 64.796875 32.078125 64.796875 
z
" id="DejaVuSans-82"/>
    </defs>
    <g transform="translate(441.998918 148.686573)scale(0.16 -0.16)">
     <use xlink:href="#DejaVuSans-82"/>
     <use x="69.482422" xlink:href="#DejaVuSans-49"/>
    </g>
    <!-- 2.2K -->
    <defs>
     <path d="M 10.6875 12.40625 
L 21 12.40625 
L 21 0 
L 10.6875 0 
z
" id="DejaVuSans-46"/>
     <path d="M 9.8125 72.90625 
L 19.671875 72.90625 
L 19.671875 42.09375 
L 52.390625 72.90625 
L 65.09375 72.90625 
L 28.90625 38.921875 
L 67.671875 0 
L 54.6875 0 
L 19.671875 35.109375 
L 19.671875 0 
L 9.8125 0 
z
" id="DejaVuSans-75"/>
    </defs>
    <g transform="translate(441.998918 166.603073)scale(0.16 -0.16)">
     <use xlink:href="#DejaVuSans-50"/>
     <use x="63.623047" xlink:href="#DejaVuSans-46"/>
     <use x="95.410156" xlink:href="#DejaVuSans-50"/>
     <use x="159.033203" xlink:href="#DejaVuSans-75"/>
    </g>
    <!-- 50V -->
    <g transform="translate(441.998918 184.519573)scale(0.16 -0.16)">
     <use xlink:href="#DejaVuSans-53"/>
     <use x="63.623047" xlink:href="#DejaVuSans-48"/>
     <use x="127.246094" xlink:href="#DejaVuSans-86"/>
    </g>
   </g>
   <g id="text_8">
    <!-- C1 -->
    <g transform="translate(300.766418 194.570323)scale(0.16 -0.16)">
     <use xlink:href="#DejaVuSans-67"/>
     <use x="69.824219" xlink:href="#DejaVuSans-49"/>
    </g>
    <!--  1000$\mu$F -->
    <g transform="translate(256.838918 212.486823)scale(0.16 -0.16)">
     <use transform="translate(0 0.78125)" xlink:href="#DejaVuSans-32"/>
     <use transform="translate(31.787109 0.78125)" xlink:href="#DejaVuSans-49"/>
     <use transform="translate(95.410156 0.78125)" xlink:href="#DejaVuSans-48"/>
     <use transform="translate(159.033203 0.78125)" xlink:href="#DejaVuSans-48"/>
     <use transform="translate(222.65625 0.78125)" xlink:href="#DejaVuSans-48"/>
     <use transform="translate(286.279297 0.78125)" xlink:href="#DejaVuSans-956"/>
     <use transform="translate(349.902344 0.78125)" xlink:href="#DejaVuSans-70"/>
    </g>
    <!-- 50V -->
    <g transform="translate(290.813918 230.435823)scale(0.16 -0.16)">
     <use xlink:href="#DejaVuSans-53"/>
     <use x="63.623047" xlink:href="#DejaVuSans-48"/>
     <use x="127.246094" xlink:href="#DejaVuSans-86"/>
    </g>
   </g>
   <g id="text_9">
    <!-- + -->
    <g transform="translate(320.923168 203.139473)scale(0.16 -0.16)">
     <use xlink:href="#DejaVuSans-43"/>
    </g>
   </g>
   <g id="text_10">
    <!-- R2 -->
    <g transform="translate(620.782168 148.150573)scale(0.16 -0.16)">
     <use xlink:href="#DejaVuSans-82"/>
     <use x="69.482422" xlink:href="#DejaVuSans-50"/>
    </g>
   </g>
   <g id="text_11">
    <!-- 56$\Omega$ 1W -->
    <defs>
     <path d="M 33.015625 40.375 
Q 26.375 40.375 22.484375 35.828125 
Q 18.609375 31.296875 18.609375 23.390625 
Q 18.609375 15.53125 22.484375 10.953125 
Q 26.375 6.390625 33.015625 6.390625 
Q 39.65625 6.390625 43.53125 10.953125 
Q 47.40625 15.53125 47.40625 23.390625 
Q 47.40625 31.296875 43.53125 35.828125 
Q 39.65625 40.375 33.015625 40.375 
z
M 52.59375 71.296875 
L 52.59375 62.3125 
Q 48.875 64.0625 45.09375 64.984375 
Q 41.3125 65.921875 37.59375 65.921875 
Q 27.828125 65.921875 22.671875 59.328125 
Q 17.53125 52.734375 16.796875 39.40625 
Q 19.671875 43.65625 24.015625 45.921875 
Q 28.375 48.1875 33.59375 48.1875 
Q 44.578125 48.1875 50.953125 41.515625 
Q 57.328125 34.859375 57.328125 23.390625 
Q 57.328125 12.15625 50.6875 5.359375 
Q 44.046875 -1.421875 33.015625 -1.421875 
Q 20.359375 -1.421875 13.671875 8.265625 
Q 6.984375 17.96875 6.984375 36.375 
Q 6.984375 53.65625 15.1875 63.9375 
Q 23.390625 74.21875 37.203125 74.21875 
Q 40.921875 74.21875 44.703125 73.484375 
Q 48.484375 72.75 52.59375 71.296875 
z
" id="DejaVuSans-54"/>
     <path d="M 72.609375 8.6875 
L 72.609375 0 
L 43.3125 0 
L 43.3125 8.6875 
Q 51.953125 13.421875 56.78125 21.53125 
Q 61.625 29.640625 61.625 39.5 
Q 61.625 51.21875 55.171875 58.296875 
Q 48.734375 65.375 38.1875 65.375 
Q 27.640625 65.375 21.171875 58.265625 
Q 14.703125 51.171875 14.703125 39.5 
Q 14.703125 29.640625 19.53125 21.53125 
Q 24.421875 13.421875 33.109375 8.6875 
L 33.109375 0 
L 3.8125 0 
L 3.8125 8.6875 
L 19.390625 8.6875 
Q 11.671875 15.484375 8.109375 22.75 
Q 4.59375 30.03125 4.59375 39.015625 
Q 4.59375 54.546875 13.96875 64.15625 
Q 23.296875 73.78125 38.1875 73.78125 
Q 52.984375 73.78125 62.40625 64.15625 
Q 71.78125 54.59375 71.78125 39.5 
Q 71.78125 30.03125 68.3125 22.796875 
Q 64.84375 15.578125 56.984375 8.6875 
z
" id="DejaVuSans-937"/>
     <path d="M 3.328125 72.90625 
L 13.28125 72.90625 
L 28.609375 11.28125 
L 43.890625 72.90625 
L 54.984375 72.90625 
L 70.3125 11.28125 
L 85.59375 72.90625 
L 95.609375 72.90625 
L 77.296875 0 
L 64.890625 0 
L 49.515625 63.28125 
L 33.984375 0 
L 21.578125 0 
z
" id="DejaVuSans-87"/>
    </defs>
    <g transform="translate(599.590918 185.055573)scale(0.16 -0.16)">
     <use transform="translate(0 0.78125)" xlink:href="#DejaVuSans-53"/>
     <use transform="translate(63.623047 0.78125)" xlink:href="#DejaVuSans-54"/>
     <use transform="translate(127.246094 0.78125)" xlink:href="#DejaVuSans-937"/>
     <use transform="translate(203.662109 0.78125)" xlink:href="#DejaVuSans-32"/>
     <use transform="translate(235.449219 0.78125)" xlink:href="#DejaVuSans-49"/>
     <use transform="translate(299.072266 0.78125)" xlink:href="#DejaVuSans-87"/>
    </g>
   </g>
   <g id="text_12">
    <!-- C3 -->
    <g transform="translate(691.370918 229.020823)scale(0.16 -0.16)">
     <use xlink:href="#DejaVuSans-67"/>
     <use x="69.824219" xlink:href="#DejaVuSans-51"/>
    </g>
    <!-- 470$\mu$F -->
    <defs>
     <path d="M 8.203125 72.90625 
L 55.078125 72.90625 
L 55.078125 68.703125 
L 28.609375 0 
L 18.3125 0 
L 43.21875 64.59375 
L 8.203125 64.59375 
z
" id="DejaVuSans-55"/>
    </defs>
    <g transform="translate(691.370918 246.937323)scale(0.16 -0.16)">
     <use transform="translate(0 0.78125)" xlink:href="#DejaVuSans-52"/>
     <use transform="translate(63.623047 0.78125)" xlink:href="#DejaVuSans-55"/>
     <use transform="translate(127.246094 0.78125)" xlink:href="#DejaVuSans-48"/>
     <use transform="translate(190.869141 0.78125)" xlink:href="#DejaVuSans-956"/>
     <use transform="translate(254.492188 0.78125)" xlink:href="#DejaVuSans-70"/>
    </g>
    <!-- 50V -->
    <g transform="translate(691.370918 264.886323)scale(0.16 -0.16)">
     <use xlink:href="#DejaVuSans-53"/>
     <use x="63.623047" xlink:href="#DejaVuSans-48"/>
     <use x="127.246094" xlink:href="#DejaVuSans-86"/>
    </g>
   </g>
   <g id="text_13">
    <!-- + -->
    <g transform="translate(679.159168 237.589973)scale(0.16 -0.16)">
     <use xlink:href="#DejaVuSans-43"/>
    </g>
   </g>
   <g id="text_14">
    <!-- R3 -->
    <g transform="translate(788.570918 194.586573)scale(0.16 -0.16)">
     <use xlink:href="#DejaVuSans-82"/>
     <use x="69.482422" xlink:href="#DejaVuSans-51"/>
    </g>
    <!-- 10K -->
    <g transform="translate(788.570918 212.503073)scale(0.16 -0.16)">
     <use xlink:href="#DejaVuSans-49"/>
     <use x="63.623047" xlink:href="#DejaVuSans-48"/>
     <use x="127.246094" xlink:href="#DejaVuSans-75"/>
    </g>
    <!-- 1W -->
    <g transform="translate(788.570918 230.419573)scale(0.16 -0.16)">
     <use xlink:href="#DejaVuSans-49"/>
     <use x="63.623047" xlink:href="#DejaVuSans-87"/>
    </g>
   </g>
   <g id="text_15">
    <!-- $V_{out}$ -->
    <defs>
     <path d="M 30.609375 48.390625 
Q 23.390625 48.390625 19.1875 42.75 
Q 14.984375 37.109375 14.984375 27.296875 
Q 14.984375 17.484375 19.15625 11.84375 
Q 23.34375 6.203125 30.609375 6.203125 
Q 37.796875 6.203125 41.984375 11.859375 
Q 46.1875 17.53125 46.1875 27.296875 
Q 46.1875 37.015625 41.984375 42.703125 
Q 37.796875 48.390625 30.609375 48.390625 
z
M 30.609375 56 
Q 42.328125 56 49.015625 48.375 
Q 55.71875 40.765625 55.71875 27.296875 
Q 55.71875 13.875 49.015625 6.21875 
Q 42.328125 -1.421875 30.609375 -1.421875 
Q 18.84375 -1.421875 12.171875 6.21875 
Q 5.515625 13.875 5.515625 27.296875 
Q 5.515625 40.765625 12.171875 48.375 
Q 18.84375 56 30.609375 56 
z
" id="DejaVuSans-111"/>
     <path d="M 8.5 21.578125 
L 8.5 54.6875 
L 17.484375 54.6875 
L 17.484375 21.921875 
Q 17.484375 14.15625 20.5 10.265625 
Q 23.53125 6.390625 29.59375 6.390625 
Q 36.859375 6.390625 41.078125 11.03125 
Q 45.3125 15.671875 45.3125 23.6875 
L 45.3125 54.6875 
L 54.296875 54.6875 
L 54.296875 0 
L 45.3125 0 
L 45.3125 8.40625 
Q 42.046875 3.421875 37.71875 1 
Q 33.40625 -1.421875 27.6875 -1.421875 
Q 18.265625 -1.421875 13.375 4.4375 
Q 8.5 10.296875 8.5 21.578125 
z
M 31.109375 56 
z
" id="DejaVuSans-117"/>
     <path d="M 18.3125 70.21875 
L 18.3125 54.6875 
L 36.8125 54.6875 
L 36.8125 47.703125 
L 18.3125 47.703125 
L 18.3125 18.015625 
Q 18.3125 11.328125 20.140625 9.421875 
Q 21.96875 7.515625 27.59375 7.515625 
L 36.8125 7.515625 
L 36.8125 0 
L 27.59375 0 
Q 17.1875 0 13.234375 3.875 
Q 9.28125 7.765625 9.28125 18.015625 
L 9.28125 47.703125 
L 2.6875 47.703125 
L 2.6875 54.6875 
L 9.28125 54.6875 
L 9.28125 70.21875 
z
" id="DejaVuSans-116"/>
    </defs>
    <g transform="translate(859.470918 212.503073)scale(0.16 -0.16)">
     <use transform="translate(0 0.09375)" xlink:href="#DejaVuSans-86"/>
     <use transform="translate(69.365234 -16.3125)scale(0.7)" xlink:href="#DejaVuSans-111"/>
     <use transform="translate(112.192383 -16.3125)scale(0.7)" xlink:href="#DejaVuSans-117"/>
     <use transform="translate(156.557617 -16.3125)scale(0.7)" xlink:href="#DejaVuSans-116"/>
    </g>
   </g>
  </g>
 </g>
 <defs>
  <clipPath id="pe3b93f18ae">
   <rect height="354.152743" width="914.159057" x="7.2" y="7.2"/>
  </clipPath>
 </defs>
</svg>
