<?xml version="1.0" encoding="utf-8" standalone="no"?>
<!DOCTYPE svg PUBLIC "-//W3C//DTD SVG 1.1//EN"
  "http://www.w3.org/Graphics/SVG/1.1/DTD/svg11.dtd">
<!-- Created with matplotlib (http://matplotlib.org/) -->
<svg height="336pt" version="1.1" viewBox="0 0 909 336" width="909pt" xmlns="http://www.w3.org/2000/svg" xmlns:xlink="http://www.w3.org/1999/xlink">
 <defs>
  <style type="text/css">
*{stroke-linecap:butt;stroke-linejoin:round;stroke-miterlimit:100000;}
  </style>
 </defs>
 <g id="figure_1">
  <g id="patch_1">
   <path d="M 0 336.913403 
L 909.152779 336.913403 
L 909.152779 0 
L 0 0 
z
" style="fill:none;"/>
  </g>
  <g id="axes_1">
   <g id="patch_2">
    <path clip-path="url(#p747e10f9bb)" d="M 596.424779 77.467403 
L 594.667642 84.105475 
L 592.219951 82.12401 
L 585.745079 89.25836 
L 585.720479 89.238445 
L 592.195351 82.104096 
L 589.74766 80.122631 
z
" style="stroke:#000000;stroke-linejoin:miter;stroke-width:1.5;"/>
   </g>
   <g id="patch_3">
    <path clip-path="url(#p747e10f9bb)" d="M 541.452779 146.368403 
L 539.695642 153.006475 
L 537.247951 151.02501 
L 530.773079 158.15936 
L 530.748479 158.139445 
L 537.223351 151.005096 
L 534.77566 149.023631 
z
" style="stroke:#000000;stroke-linejoin:miter;stroke-width:1.5;"/>
   </g>
   <g id="line2d_1">
    <path clip-path="url(#p747e10f9bb)" d="M 196.89 12.555 
L 227.246094 41.224644 
M 240.99225 43.388391 
L 229.53712 54.207125 
M 235.264685 48.797758 
L 265.620779 77.467403 
" style="fill:none;stroke:#000000;stroke-linecap:round;stroke-width:1.5;"/>
   </g>
   <g id="line2d_2">
    <path clip-path="url(#p747e10f9bb)" d="M 265.620779 77.467403 
" style="fill:none;stroke:#000000;stroke-linecap:round;stroke-width:1.5;"/>
   </g>
   <g id="line2d_3">
    <path clip-path="url(#p747e10f9bb)" d="M 196.89 142.379805 
L 227.246094 113.710161 
M 240.99225 111.546414 
L 229.53712 100.72768 
M 235.264685 106.137047 
L 265.620779 77.467403 
" style="fill:none;stroke:#000000;stroke-linecap:round;stroke-width:1.5;"/>
   </g>
   <g id="line2d_4">
    <path clip-path="url(#p747e10f9bb)" d="M 196.89 142.379805 
" style="fill:none;stroke:#000000;stroke-linecap:round;stroke-width:1.5;"/>
   </g>
   <g id="line2d_5">
    <path clip-path="url(#p747e10f9bb)" d="M 128.159221 77.467403 
L 158.515315 106.137047 
M 160.806341 119.119527 
L 172.261471 108.300794 
M 166.533906 113.710161 
L 196.89 142.379805 
" style="fill:none;stroke:#000000;stroke-linecap:round;stroke-width:1.5;"/>
   </g>
   <g id="line2d_6">
    <path clip-path="url(#p747e10f9bb)" d="M 128.159221 77.467403 
" style="fill:none;stroke:#000000;stroke-linecap:round;stroke-width:1.5;"/>
   </g>
   <g id="line2d_7">
    <path clip-path="url(#p747e10f9bb)" d="M 128.159221 77.467403 
L 158.515315 48.797758 
M 160.806341 35.815278 
L 172.261471 46.634011 
M 166.533906 41.224644 
L 196.89 12.555 
" style="fill:none;stroke:#000000;stroke-linecap:round;stroke-width:1.5;"/>
   </g>
   <g id="line2d_8">
    <path clip-path="url(#p747e10f9bb)" d="M 196.89 12.555 
" style="fill:none;stroke:#000000;stroke-linecap:round;stroke-width:1.5;"/>
   </g>
   <g id="line2d_9">
    <path clip-path="url(#p747e10f9bb)" d="M 196.89 142.379805 
L 123.99 142.379805 
L 51.09 142.379805 
" style="fill:none;stroke:#000000;stroke-linecap:round;stroke-width:1.5;"/>
   </g>
   <g id="line2d_10">
    <path clip-path="url(#p747e10f9bb)" d="M 51.09 142.379805 
" style="fill:none;stroke:#000000;stroke-linecap:round;stroke-width:1.5;"/>
   </g>
   <g id="line2d_11">
    <path clip-path="url(#p747e10f9bb)" d="M 51.09 142.379805 
L 51.09 92.767403 
M 51.09 62.167403 
L 51.09 12.555 
" style="fill:none;stroke:#ffffff;stroke-linecap:round;stroke-width:1.5;"/>
   </g>
   <g id="line2d_12">
    <path clip-path="url(#p747e10f9bb)" d="M 196.89 12.555 
L 123.99 12.555 
L 51.09 12.555 
" style="fill:none;stroke:#000000;stroke-linecap:round;stroke-width:1.5;"/>
   </g>
   <g id="line2d_13">
    <path clip-path="url(#p747e10f9bb)" d="M 51.09 12.555 
" style="fill:none;stroke:#000000;stroke-linecap:round;stroke-width:1.5;"/>
   </g>
   <g id="line2d_14">
    <path clip-path="url(#p747e10f9bb)" d="M 265.620779 77.467403 
L 411.420779 77.467403 
L 557.220779 77.467403 
" style="fill:none;stroke:#000000;stroke-linecap:round;stroke-width:1.5;"/>
   </g>
   <g id="line2d_15">
    <path clip-path="url(#p747e10f9bb)" d="M 585.732779 89.248403 
L 596.424779 77.467403 
L 602.364779 77.467403 
" style="fill:none;stroke:#000000;stroke-linecap:round;stroke-width:1.5;"/>
   </g>
   <g id="line2d_16">
    <path clip-path="url(#p747e10f9bb)" d="M 579.792779 100.468403 
L 579.792779 89.248403 
" style="fill:none;stroke:#000000;stroke-linecap:round;stroke-width:1.5;"/>
   </g>
   <g id="line2d_17">
    <path clip-path="url(#p747e10f9bb)" d="M 567.912779 89.248403 
L 591.672779 89.248403 
" style="fill:none;stroke:#000000;stroke-linecap:round;stroke-width:1.5;"/>
   </g>
   <g id="line2d_18">
    <path clip-path="url(#p747e10f9bb)" d="M 573.852779 89.248403 
L 563.160779 77.467403 
L 557.220779 77.467403 
" style="fill:none;stroke:#000000;stroke-linecap:round;stroke-width:1.5;"/>
   </g>
   <g id="line2d_19">
    <path clip-path="url(#p747e10f9bb)" d="M 579.792779 100.468403 
L 579.792779 123.418403 
L 579.792779 146.368403 
" style="fill:none;stroke:#000000;stroke-linecap:round;stroke-width:1.5;"/>
   </g>
   <g id="line2d_20">
    <path clip-path="url(#p747e10f9bb)" d="M 579.792779 146.368403 
" style="fill:none;stroke:#000000;stroke-linecap:round;stroke-width:1.5;"/>
   </g>
   <g id="line2d_21">
    <path clip-path="url(#p747e10f9bb)" d="M 579.792779 146.368403 
L 563.592779 146.368403 
L 547.392779 146.368403 
" style="fill:none;stroke:#000000;stroke-linecap:round;stroke-width:1.5;"/>
   </g>
   <g id="line2d_22">
    <path clip-path="url(#p747e10f9bb)" d="M 530.760779 158.149403 
L 541.452779 146.368403 
L 547.392779 146.368403 
" style="fill:none;stroke:#000000;stroke-linecap:round;stroke-width:1.5;"/>
   </g>
   <g id="line2d_23">
    <path clip-path="url(#p747e10f9bb)" d="M 524.820779 169.369403 
L 524.820779 158.149403 
" style="fill:none;stroke:#000000;stroke-linecap:round;stroke-width:1.5;"/>
   </g>
   <g id="line2d_24">
    <path clip-path="url(#p747e10f9bb)" d="M 512.940779 158.149403 
L 536.700779 158.149403 
" style="fill:none;stroke:#000000;stroke-linecap:round;stroke-width:1.5;"/>
   </g>
   <g id="line2d_25">
    <path clip-path="url(#p747e10f9bb)" d="M 518.880779 158.149403 
L 508.188779 146.368403 
L 502.248779 146.368403 
" style="fill:none;stroke:#000000;stroke-linecap:round;stroke-width:1.5;"/>
   </g>
   <g id="line2d_26">
    <path clip-path="url(#p747e10f9bb)" d="M 502.248779 146.368403 
L 502.248779 111.917903 
L 502.248779 77.467403 
" style="fill:none;stroke:#000000;stroke-linecap:round;stroke-width:1.5;"/>
   </g>
   <g id="line2d_27">
    <path clip-path="url(#p747e10f9bb)" d="M 502.248779 77.467403 
" style="fill:none;stroke:#000000;stroke-linecap:round;stroke-width:1.5;"/>
   </g>
   <g id="line2d_28">
    <path clip-path="url(#p747e10f9bb)" d="M 524.820779 169.369403 
L 524.820779 192.319403 
L 524.820779 215.269403 
" style="fill:none;stroke:#000000;stroke-linecap:round;stroke-width:1.5;"/>
   </g>
   <g id="line2d_29">
    <path clip-path="url(#p747e10f9bb)" d="M 524.820779 215.269403 
" style="fill:none;stroke:#000000;stroke-linecap:round;stroke-width:1.5;"/>
   </g>
   <g id="line2d_30">
    <path clip-path="url(#p747e10f9bb)" d="M 524.820779 307.069403 
L 524.820779 266.524403 
M 532.920779 255.814403 
L 516.720779 255.814403 
M 524.820779 255.814403 
L 524.820779 215.269403 
" style="fill:none;stroke:#000000;stroke-linecap:round;stroke-width:1.5;"/>
   </g>
   <g id="line2d_31">
    <path clip-path="url(#p747e10f9bb)" d="M 532.920779 255.814403 
L 536.160779 252.754403 
" style="fill:none;stroke:#000000;stroke-linecap:round;stroke-width:1.5;"/>
   </g>
   <g id="line2d_32">
    <path clip-path="url(#p747e10f9bb)" d="M 516.720779 255.814403 
L 513.480779 258.874403 
" style="fill:none;stroke:#000000;stroke-linecap:round;stroke-width:1.5;"/>
   </g>
   <g id="line2d_33">
    <path clip-path="url(#p747e10f9bb)" d="M 524.820779 307.069403 
" style="fill:none;stroke:#000000;stroke-linecap:round;stroke-width:1.5;"/>
   </g>
   <g id="line2d_34">
    <path clip-path="url(#p747e10f9bb)" d="M 524.820779 307.069403 
L 524.820779 319.309403 
L 516.720779 319.309403 
L 532.920779 319.309403 
M 519.150779 322.981403 
L 530.490779 322.981403 
M 523.200779 326.653403 
L 526.440779 326.653403 
" style="fill:none;stroke:#000000;stroke-linecap:round;stroke-width:1.5;"/>
   </g>
   <g id="line2d_35">
    <path clip-path="url(#p747e10f9bb)" d="M 524.820779 307.069403 
L 476.220779 307.069403 
L 427.620779 307.069403 
" style="fill:none;stroke:#000000;stroke-linecap:round;stroke-width:1.5;"/>
   </g>
   <g id="line2d_36">
    <path clip-path="url(#p747e10f9bb)" d="M 427.620779 307.069403 
" style="fill:none;stroke:#000000;stroke-linecap:round;stroke-width:1.5;"/>
   </g>
   <g id="line2d_37">
    <path clip-path="url(#p747e10f9bb)" d="M 427.620779 215.269403 
L 427.620779 258.415403 
M 419.520779 258.415403 
L 435.720779 258.415403 
M 419.520779 263.923403 
L 435.720779 263.923403 
M 427.620779 263.923403 
L 427.620779 307.069403 
" style="fill:none;stroke:#000000;stroke-linecap:round;stroke-width:1.5;"/>
   </g>
   <g id="line2d_38">
    <path clip-path="url(#p747e10f9bb)" d="M 427.620779 215.269403 
" style="fill:none;stroke:#000000;stroke-linecap:round;stroke-width:1.5;"/>
   </g>
   <g id="line2d_39">
    <path clip-path="url(#p747e10f9bb)" d="M 427.620779 215.269403 
L 476.220779 215.269403 
L 524.820779 215.269403 
" style="fill:none;stroke:#000000;stroke-linecap:round;stroke-width:1.5;"/>
   </g>
   <g id="line2d_40">
    <path clip-path="url(#p747e10f9bb)" d="M 427.620779 215.269403 
L 427.620779 161.668403 
L 419.520779 159.118403 
L 435.720779 154.018403 
L 419.520779 148.918403 
L 435.720779 143.818403 
L 419.520779 138.718403 
L 435.720779 133.618403 
L 427.620779 131.068403 
L 427.620779 77.467403 
" style="fill:none;stroke:#000000;stroke-linecap:round;stroke-width:1.5;"/>
   </g>
   <g id="line2d_41">
    <path clip-path="url(#p747e10f9bb)" d="M 427.620779 77.467403 
" style="fill:none;stroke:#000000;stroke-linecap:round;stroke-width:1.5;"/>
   </g>
   <g id="line2d_42">
    <path clip-path="url(#p747e10f9bb)" d="M 330.420779 77.467403 
" style="fill:none;stroke:#000000;stroke-linecap:round;stroke-width:1.5;"/>
   </g>
   <g id="line2d_43">
    <path clip-path="url(#p747e10f9bb)" d="M 330.420779 77.467403 
L 330.420779 189.514403 
M 322.320779 189.514403 
L 338.520779 189.514403 
M 322.320779 195.022403 
L 338.520779 195.022403 
M 330.420779 195.022403 
L 330.420779 307.069403 
" style="fill:none;stroke:#000000;stroke-linecap:round;stroke-width:1.5;"/>
   </g>
   <g id="line2d_44">
    <path clip-path="url(#p747e10f9bb)" d="M 330.420779 307.069403 
" style="fill:none;stroke:#000000;stroke-linecap:round;stroke-width:1.5;"/>
   </g>
   <g id="line2d_45">
    <path clip-path="url(#p747e10f9bb)" d="M 524.820779 307.069403 
L 326.49 307.069403 
L 128.159221 307.069403 
" style="fill:none;stroke:#000000;stroke-linecap:round;stroke-width:1.5;"/>
   </g>
   <g id="line2d_46">
    <path clip-path="url(#p747e10f9bb)" d="M 128.159221 307.069403 
L 128.159221 192.268403 
L 128.159221 77.467403 
" style="fill:none;stroke:#000000;stroke-linecap:round;stroke-width:1.5;"/>
   </g>
   <g id="line2d_47">
    <path clip-path="url(#p747e10f9bb)" d="M 579.792779 146.368403 
L 612.192779 146.368403 
L 614.892779 138.718403 
L 620.292779 154.018403 
L 625.692779 138.718403 
L 631.092779 154.018403 
L 636.492779 138.718403 
L 641.892779 154.018403 
L 644.592779 146.368403 
L 676.992779 146.368403 
" style="fill:none;stroke:#000000;stroke-linecap:round;stroke-width:1.5;"/>
   </g>
   <g id="line2d_48">
    <path clip-path="url(#p747e10f9bb)" d="M 676.992779 146.368403 
" style="fill:none;stroke:#000000;stroke-linecap:round;stroke-width:1.5;"/>
   </g>
   <g id="line2d_49">
    <path clip-path="url(#p747e10f9bb)" d="M 676.992779 146.368403 
L 676.992779 111.917903 
L 676.992779 77.467403 
" style="fill:none;stroke:#000000;stroke-linecap:round;stroke-width:1.5;"/>
   </g>
   <g id="line2d_50">
    <path clip-path="url(#p747e10f9bb)" d="M 676.992779 77.467403 
" style="fill:none;stroke:#000000;stroke-linecap:round;stroke-width:1.5;"/>
   </g>
   <g id="line2d_51">
    <path clip-path="url(#p747e10f9bb)" d="M 676.992779 77.467403 
L 639.678779 77.467403 
L 602.364779 77.467403 
" style="fill:none;stroke:#000000;stroke-linecap:round;stroke-width:1.5;"/>
   </g>
   <g id="line2d_52">
    <path clip-path="url(#p747e10f9bb)" d="M 676.992779 146.368403 
L 676.992779 223.964903 
M 685.092779 223.964903 
L 668.892779 223.964903 
M 685.092779 229.472903 
L 668.892779 229.472903 
M 676.992779 229.472903 
L 676.992779 307.069403 
" style="fill:none;stroke:#000000;stroke-linecap:round;stroke-width:1.5;"/>
   </g>
   <g id="line2d_53">
    <path clip-path="url(#p747e10f9bb)" d="M 676.992779 307.069403 
" style="fill:none;stroke:#000000;stroke-linecap:round;stroke-width:1.5;"/>
   </g>
   <g id="line2d_54">
    <path clip-path="url(#p747e10f9bb)" d="M 676.992779 307.069403 
L 600.906779 307.069403 
L 524.820779 307.069403 
" style="fill:none;stroke:#000000;stroke-linecap:round;stroke-width:1.5;"/>
   </g>
   <g id="line2d_55">
    <path clip-path="url(#p747e10f9bb)" d="M 676.992779 307.069403 
L 725.592779 307.069403 
L 774.192779 307.069403 
" style="fill:none;stroke:#000000;stroke-linecap:round;stroke-width:1.5;"/>
   </g>
   <g id="line2d_56">
    <path clip-path="url(#p747e10f9bb)" d="M 774.192779 307.069403 
" style="fill:none;stroke:#000000;stroke-linecap:round;stroke-width:1.5;"/>
   </g>
   <g id="line2d_57">
    <path clip-path="url(#p747e10f9bb)" d="M 774.192779 307.069403 
L 774.192779 207.568403 
L 766.092779 205.018403 
L 782.292779 199.918403 
L 766.092779 194.818403 
L 782.292779 189.718403 
L 766.092779 184.618403 
L 782.292779 179.518403 
L 774.192779 176.968403 
L 774.192779 77.467403 
" style="fill:none;stroke:#000000;stroke-linecap:round;stroke-width:1.5;"/>
   </g>
   <g id="line2d_58">
    <path clip-path="url(#p747e10f9bb)" d="M 774.192779 77.467403 
" style="fill:none;stroke:#000000;stroke-linecap:round;stroke-width:1.5;"/>
   </g>
   <g id="line2d_59">
    <path clip-path="url(#p747e10f9bb)" d="M 774.192779 77.467403 
L 725.592779 77.467403 
L 676.992779 77.467403 
" style="fill:none;stroke:#000000;stroke-linecap:round;stroke-width:1.5;"/>
   </g>
   <g id="line2d_60">
    <path clip-path="url(#p747e10f9bb)" d="M 774.192779 77.467403 
L 822.792779 77.467403 
L 871.392779 77.467403 
" style="fill:none;stroke:#000000;stroke-linecap:round;stroke-width:1.5;"/>
   </g>
   <g id="line2d_61">
    <path clip-path="url(#p747e10f9bb)" d="M 871.392779 77.467403 
" style="fill:none;stroke:#000000;stroke-linecap:round;stroke-width:1.5;"/>
   </g>
   <g id="line2d_62">
    <path clip-path="url(#p747e10f9bb)" d="M 871.392779 77.467403 
L 871.392779 176.968403 
M 871.392779 207.568403 
L 871.392779 307.069403 
" style="fill:none;stroke:#ffffff;stroke-linecap:round;stroke-width:1.5;"/>
   </g>
   <g id="line2d_63">
    <path clip-path="url(#p747e10f9bb)" d="M 871.392779 307.069403 
" style="fill:none;stroke:#000000;stroke-linecap:round;stroke-width:1.5;"/>
   </g>
   <g id="line2d_64">
    <path clip-path="url(#p747e10f9bb)" d="M 871.392779 307.069403 
L 822.792779 307.069403 
L 774.192779 307.069403 
" style="fill:none;stroke:#000000;stroke-linecap:round;stroke-width:1.5;"/>
   </g>
   <g id="patch_4">
    <path clip-path="url(#p747e10f9bb)" d="M 232.973659 35.815278 
L 235.264685 48.797758 
L 221.518529 46.634011 
z
" style="fill:none;stroke:#000000;stroke-linejoin:miter;stroke-width:1.5;"/>
   </g>
   <g id="patch_5">
    <path clip-path="url(#p747e10f9bb)" d="M 265.620779 79.762403 
C 266.265223 79.762403 266.883358 79.520587 267.339049 79.090213 
C 267.794739 78.659838 268.050779 78.076044 268.050779 77.467403 
C 268.050779 76.858761 267.794739 76.274967 267.339049 75.844592 
C 266.883358 75.414218 266.265223 75.172403 265.620779 75.172403 
C 264.976336 75.172403 264.3582 75.414218 263.90251 75.844592 
C 263.446819 76.274967 263.190779 76.858761 263.190779 77.467403 
C 263.190779 78.076044 263.446819 78.659838 263.90251 79.090213 
C 264.3582 79.520587 264.976336 79.762403 265.620779 79.762403 
z
" style="stroke:#000000;stroke-linejoin:miter;stroke-width:1.5;"/>
   </g>
   <g id="patch_6">
    <path clip-path="url(#p747e10f9bb)" d="M 232.973659 119.119527 
L 235.264685 106.137047 
L 221.518529 108.300794 
z
" style="fill:none;stroke:#000000;stroke-linejoin:miter;stroke-width:1.5;"/>
   </g>
   <g id="patch_7">
    <path clip-path="url(#p747e10f9bb)" d="M 196.89 144.674805 
C 197.534444 144.674805 198.152579 144.432989 198.608269 144.002615 
C 199.06396 143.572241 199.32 142.988446 199.32 142.379805 
C 199.32 141.771164 199.06396 141.187369 198.608269 140.756995 
C 198.152579 140.326621 197.534444 140.084805 196.89 140.084805 
C 196.245556 140.084805 195.627421 140.326621 195.171731 140.756995 
C 194.71604 141.187369 194.46 141.771164 194.46 142.379805 
C 194.46 142.988446 194.71604 143.572241 195.171731 144.002615 
C 195.627421 144.432989 196.245556 144.674805 196.89 144.674805 
z
" style="stroke:#000000;stroke-linejoin:miter;stroke-width:1.5;"/>
   </g>
   <g id="patch_8">
    <path clip-path="url(#p747e10f9bb)" d="M 152.78775 111.546414 
L 166.533906 113.710161 
L 164.24288 100.72768 
z
" style="fill:none;stroke:#000000;stroke-linejoin:miter;stroke-width:1.5;"/>
   </g>
   <g id="patch_9">
    <path clip-path="url(#p747e10f9bb)" d="M 128.159221 79.762403 
C 128.803664 79.762403 129.4218 79.520587 129.87749 79.090213 
C 130.333181 78.659838 130.589221 78.076044 130.589221 77.467403 
C 130.589221 76.858761 130.333181 76.274967 129.87749 75.844592 
C 129.4218 75.414218 128.803664 75.172403 128.159221 75.172403 
C 127.514777 75.172403 126.896642 75.414218 126.440951 75.844592 
C 125.985261 76.274967 125.729221 76.858761 125.729221 77.467403 
C 125.729221 78.076044 125.985261 78.659838 126.440951 79.090213 
C 126.896642 79.520587 127.514777 79.762403 128.159221 79.762403 
z
" style="stroke:#000000;stroke-linejoin:miter;stroke-width:1.5;"/>
   </g>
   <g id="patch_10">
    <path clip-path="url(#p747e10f9bb)" d="M 152.78775 43.388391 
L 166.533906 41.224644 
L 164.24288 54.207125 
z
" style="fill:none;stroke:#000000;stroke-linejoin:miter;stroke-width:1.5;"/>
   </g>
   <g id="patch_11">
    <path clip-path="url(#p747e10f9bb)" d="M 196.89 14.85 
C 197.534444 14.85 198.152579 14.608184 198.608269 14.17781 
C 199.06396 13.747436 199.32 13.163641 199.32 12.555 
C 199.32 11.946359 199.06396 11.362564 198.608269 10.93219 
C 198.152579 10.501816 197.534444 10.26 196.89 10.26 
C 196.245556 10.26 195.627421 10.501816 195.171731 10.93219 
C 194.71604 11.362564 194.46 11.946359 194.46 12.555 
C 194.46 13.163641 194.71604 13.747436 195.171731 14.17781 
C 195.627421 14.608184 196.245556 14.85 196.89 14.85 
z
" style="stroke:#000000;stroke-linejoin:miter;stroke-width:1.5;"/>
   </g>
   <g id="patch_12">
    <path clip-path="url(#p747e10f9bb)" d="M 51.09 144.674805 
C 51.734444 144.674805 52.352579 144.432989 52.808269 144.002615 
C 53.26396 143.572241 53.52 142.988446 53.52 142.379805 
C 53.52 141.771164 53.26396 141.187369 52.808269 140.756995 
C 52.352579 140.326621 51.734444 140.084805 51.09 140.084805 
C 50.445556 140.084805 49.827421 140.326621 49.371731 140.756995 
C 48.91604 141.187369 48.66 141.771164 48.66 142.379805 
C 48.66 142.988446 48.91604 143.572241 49.371731 144.002615 
C 49.827421 144.432989 50.445556 144.674805 51.09 144.674805 
z
" style="fill:#ffffff;stroke:#000000;stroke-linejoin:miter;stroke-width:1.5;"/>
   </g>
   <g id="patch_13">
    <path clip-path="url(#p747e10f9bb)" d="M 51.09 14.85 
C 51.734444 14.85 52.352579 14.608184 52.808269 14.17781 
C 53.26396 13.747436 53.52 13.163641 53.52 12.555 
C 53.52 11.946359 53.26396 11.362564 52.808269 10.93219 
C 52.352579 10.501816 51.734444 10.26 51.09 10.26 
C 50.445556 10.26 49.827421 10.501816 49.371731 10.93219 
C 48.91604 11.362564 48.66 11.946359 48.66 12.555 
C 48.66 13.163641 48.91604 13.747436 49.371731 14.17781 
C 49.827421 14.608184 50.445556 14.85 51.09 14.85 
z
" style="fill:#ffffff;stroke:#000000;stroke-linejoin:miter;stroke-width:1.5;"/>
   </g>
   <g id="patch_14">
    <path clip-path="url(#p747e10f9bb)" d="M 579.792779 100.468403 
C 584.518698 100.468403 589.051692 98.695088 592.393422 95.53901 
C 595.735152 92.382932 597.612779 88.101771 597.612779 83.638403 
C 597.612779 79.175034 595.735152 74.893873 592.393422 71.737795 
C 589.051692 68.581717 584.518698 66.808403 579.792779 66.808403 
C 575.06686 66.808403 570.533866 68.581717 567.192136 71.737795 
C 563.850407 74.893873 561.972779 79.175034 561.972779 83.638403 
C 561.972779 88.101771 563.850407 92.382932 567.192136 95.53901 
C 570.533866 98.695088 575.06686 100.468403 579.792779 100.468403 
z
" style="fill:none;stroke:#000000;stroke-linejoin:miter;stroke-width:1.5;"/>
   </g>
   <g id="patch_15">
    <path clip-path="url(#p747e10f9bb)" d="M 579.792779 148.663403 
C 580.437223 148.663403 581.055358 148.421587 581.511049 147.991213 
C 581.966739 147.560838 582.222779 146.977044 582.222779 146.368403 
C 582.222779 145.759761 581.966739 145.175967 581.511049 144.745592 
C 581.055358 144.315218 580.437223 144.073403 579.792779 144.073403 
C 579.148336 144.073403 578.5302 144.315218 578.07451 144.745592 
C 577.618819 145.175967 577.362779 145.759761 577.362779 146.368403 
C 577.362779 146.977044 577.618819 147.560838 578.07451 147.991213 
C 578.5302 148.421587 579.148336 148.663403 579.792779 148.663403 
z
" style="stroke:#000000;stroke-linejoin:miter;stroke-width:1.5;"/>
   </g>
   <g id="patch_16">
    <path clip-path="url(#p747e10f9bb)" d="M 524.820779 169.369403 
C 529.546698 169.369403 534.079692 167.596088 537.421422 164.44001 
C 540.763152 161.283932 542.640779 157.002771 542.640779 152.539403 
C 542.640779 148.076034 540.763152 143.794873 537.421422 140.638795 
C 534.079692 137.482717 529.546698 135.709403 524.820779 135.709403 
C 520.09486 135.709403 515.561866 137.482717 512.220136 140.638795 
C 508.878407 143.794873 507.000779 148.076034 507.000779 152.539403 
C 507.000779 157.002771 508.878407 161.283932 512.220136 164.44001 
C 515.561866 167.596088 520.09486 169.369403 524.820779 169.369403 
z
" style="fill:none;stroke:#000000;stroke-linejoin:miter;stroke-width:1.5;"/>
   </g>
   <g id="patch_17">
    <path clip-path="url(#p747e10f9bb)" d="M 502.248779 79.762403 
C 502.893223 79.762403 503.511358 79.520587 503.967049 79.090213 
C 504.422739 78.659838 504.678779 78.076044 504.678779 77.467403 
C 504.678779 76.858761 504.422739 76.274967 503.967049 75.844592 
C 503.511358 75.414218 502.893223 75.172403 502.248779 75.172403 
C 501.604336 75.172403 500.9862 75.414218 500.53051 75.844592 
C 500.074819 76.274967 499.818779 76.858761 499.818779 77.467403 
C 499.818779 78.076044 500.074819 78.659838 500.53051 79.090213 
C 500.9862 79.520587 501.604336 79.762403 502.248779 79.762403 
z
" style="stroke:#000000;stroke-linejoin:miter;stroke-width:1.5;"/>
   </g>
   <g id="patch_18">
    <path clip-path="url(#p747e10f9bb)" d="M 524.820779 217.564403 
C 525.465223 217.564403 526.083358 217.322587 526.539049 216.892213 
C 526.994739 216.461838 527.250779 215.878044 527.250779 215.269403 
C 527.250779 214.660761 526.994739 214.076967 526.539049 213.646592 
C 526.083358 213.216218 525.465223 212.974403 524.820779 212.974403 
C 524.176336 212.974403 523.5582 213.216218 523.10251 213.646592 
C 522.646819 214.076967 522.390779 214.660761 522.390779 215.269403 
C 522.390779 215.878044 522.646819 216.461838 523.10251 216.892213 
C 523.5582 217.322587 524.176336 217.564403 524.820779 217.564403 
z
" style="stroke:#000000;stroke-linejoin:miter;stroke-width:1.5;"/>
   </g>
   <g id="patch_19">
    <path clip-path="url(#p747e10f9bb)" d="M 532.920779 266.524403 
L 524.820779 255.814403 
L 516.720779 266.524403 
z
" style="fill:none;stroke:#000000;stroke-linejoin:miter;stroke-width:1.5;"/>
   </g>
   <g id="patch_20">
    <path clip-path="url(#p747e10f9bb)" d="M 524.820779 309.364403 
C 525.465223 309.364403 526.083358 309.122587 526.539049 308.692213 
C 526.994739 308.261838 527.250779 307.678044 527.250779 307.069403 
C 527.250779 306.460761 526.994739 305.876967 526.539049 305.446592 
C 526.083358 305.016218 525.465223 304.774403 524.820779 304.774403 
C 524.176336 304.774403 523.5582 305.016218 523.10251 305.446592 
C 522.646819 305.876967 522.390779 306.460761 522.390779 307.069403 
C 522.390779 307.678044 522.646819 308.261838 523.10251 308.692213 
C 523.5582 309.122587 524.176336 309.364403 524.820779 309.364403 
z
" style="stroke:#000000;stroke-linejoin:miter;stroke-width:1.5;"/>
   </g>
   <g id="patch_21">
    <path clip-path="url(#p747e10f9bb)" d="M 427.620779 309.364403 
C 428.265223 309.364403 428.883358 309.122587 429.339049 308.692213 
C 429.794739 308.261838 430.050779 307.678044 430.050779 307.069403 
C 430.050779 306.460761 429.794739 305.876967 429.339049 305.446592 
C 428.883358 305.016218 428.265223 304.774403 427.620779 304.774403 
C 426.976336 304.774403 426.3582 305.016218 425.90251 305.446592 
C 425.446819 305.876967 425.190779 306.460761 425.190779 307.069403 
C 425.190779 307.678044 425.446819 308.261838 425.90251 308.692213 
C 426.3582 309.122587 426.976336 309.364403 427.620779 309.364403 
z
" style="stroke:#000000;stroke-linejoin:miter;stroke-width:1.5;"/>
   </g>
   <g id="patch_22">
    <path clip-path="url(#p747e10f9bb)" d="M 427.620779 217.564403 
C 428.265223 217.564403 428.883358 217.322587 429.339049 216.892213 
C 429.794739 216.461838 430.050779 215.878044 430.050779 215.269403 
C 430.050779 214.660761 429.794739 214.076967 429.339049 213.646592 
C 428.883358 213.216218 428.265223 212.974403 427.620779 212.974403 
C 426.976336 212.974403 426.3582 213.216218 425.90251 213.646592 
C 425.446819 214.076967 425.190779 214.660761 425.190779 215.269403 
C 425.190779 215.878044 425.446819 216.461838 425.90251 216.892213 
C 426.3582 217.322587 426.976336 217.564403 427.620779 217.564403 
z
" style="stroke:#000000;stroke-linejoin:miter;stroke-width:1.5;"/>
   </g>
   <g id="patch_23">
    <path clip-path="url(#p747e10f9bb)" d="M 427.620779 79.762403 
C 428.265223 79.762403 428.883358 79.520587 429.339049 79.090213 
C 429.794739 78.659838 430.050779 78.076044 430.050779 77.467403 
C 430.050779 76.858761 429.794739 76.274967 429.339049 75.844592 
C 428.883358 75.414218 428.265223 75.172403 427.620779 75.172403 
C 426.976336 75.172403 426.3582 75.414218 425.90251 75.844592 
C 425.446819 76.274967 425.190779 76.858761 425.190779 77.467403 
C 425.190779 78.076044 425.446819 78.659838 425.90251 79.090213 
C 426.3582 79.520587 426.976336 79.762403 427.620779 79.762403 
z
" style="stroke:#000000;stroke-linejoin:miter;stroke-width:1.5;"/>
   </g>
   <g id="patch_24">
    <path clip-path="url(#p747e10f9bb)" d="M 330.420779 79.762403 
C 331.065223 79.762403 331.683358 79.520587 332.139049 79.090213 
C 332.594739 78.659838 332.850779 78.076044 332.850779 77.467403 
C 332.850779 76.858761 332.594739 76.274967 332.139049 75.844592 
C 331.683358 75.414218 331.065223 75.172403 330.420779 75.172403 
C 329.776336 75.172403 329.1582 75.414218 328.70251 75.844592 
C 328.246819 76.274967 327.990779 76.858761 327.990779 77.467403 
C 327.990779 78.076044 328.246819 78.659838 328.70251 79.090213 
C 329.1582 79.520587 329.776336 79.762403 330.420779 79.762403 
z
" style="stroke:#000000;stroke-linejoin:miter;stroke-width:1.5;"/>
   </g>
   <g id="patch_25">
    <path clip-path="url(#p747e10f9bb)" d="M 330.420779 309.364403 
C 331.065223 309.364403 331.683358 309.122587 332.139049 308.692213 
C 332.594739 308.261838 332.850779 307.678044 332.850779 307.069403 
C 332.850779 306.460761 332.594739 305.876967 332.139049 305.446592 
C 331.683358 305.016218 331.065223 304.774403 330.420779 304.774403 
C 329.776336 304.774403 329.1582 305.016218 328.70251 305.446592 
C 328.246819 305.876967 327.990779 306.460761 327.990779 307.069403 
C 327.990779 307.678044 328.246819 308.261838 328.70251 308.692213 
C 329.1582 309.122587 329.776336 309.364403 330.420779 309.364403 
z
" style="stroke:#000000;stroke-linejoin:miter;stroke-width:1.5;"/>
   </g>
   <g id="patch_26">
    <path clip-path="url(#p747e10f9bb)" d="M 676.992779 148.663403 
C 677.637223 148.663403 678.255358 148.421587 678.711049 147.991213 
C 679.166739 147.560838 679.422779 146.977044 679.422779 146.368403 
C 679.422779 145.759761 679.166739 145.175967 678.711049 144.745592 
C 678.255358 144.315218 677.637223 144.073403 676.992779 144.073403 
C 676.348336 144.073403 675.7302 144.315218 675.27451 144.745592 
C 674.818819 145.175967 674.562779 145.759761 674.562779 146.368403 
C 674.562779 146.977044 674.818819 147.560838 675.27451 147.991213 
C 675.7302 148.421587 676.348336 148.663403 676.992779 148.663403 
z
" style="stroke:#000000;stroke-linejoin:miter;stroke-width:1.5;"/>
   </g>
   <g id="patch_27">
    <path clip-path="url(#p747e10f9bb)" d="M 676.992779 79.762403 
C 677.637223 79.762403 678.255358 79.520587 678.711049 79.090213 
C 679.166739 78.659838 679.422779 78.076044 679.422779 77.467403 
C 679.422779 76.858761 679.166739 76.274967 678.711049 75.844592 
C 678.255358 75.414218 677.637223 75.172403 676.992779 75.172403 
C 676.348336 75.172403 675.7302 75.414218 675.27451 75.844592 
C 674.818819 76.274967 674.562779 76.858761 674.562779 77.467403 
C 674.562779 78.076044 674.818819 78.659838 675.27451 79.090213 
C 675.7302 79.520587 676.348336 79.762403 676.992779 79.762403 
z
" style="stroke:#000000;stroke-linejoin:miter;stroke-width:1.5;"/>
   </g>
   <g id="patch_28">
    <path clip-path="url(#p747e10f9bb)" d="M 676.992779 309.364403 
C 677.637223 309.364403 678.255358 309.122587 678.711049 308.692213 
C 679.166739 308.261838 679.422779 307.678044 679.422779 307.069403 
C 679.422779 306.460761 679.166739 305.876967 678.711049 305.446592 
C 678.255358 305.016218 677.637223 304.774403 676.992779 304.774403 
C 676.348336 304.774403 675.7302 305.016218 675.27451 305.446592 
C 674.818819 305.876967 674.562779 306.460761 674.562779 307.069403 
C 674.562779 307.678044 674.818819 308.261838 675.27451 308.692213 
C 675.7302 309.122587 676.348336 309.364403 676.992779 309.364403 
z
" style="stroke:#000000;stroke-linejoin:miter;stroke-width:1.5;"/>
   </g>
   <g id="patch_29">
    <path clip-path="url(#p747e10f9bb)" d="M 774.192779 309.364403 
C 774.837223 309.364403 775.455358 309.122587 775.911049 308.692213 
C 776.366739 308.261838 776.622779 307.678044 776.622779 307.069403 
C 776.622779 306.460761 776.366739 305.876967 775.911049 305.446592 
C 775.455358 305.016218 774.837223 304.774403 774.192779 304.774403 
C 773.548336 304.774403 772.9302 305.016218 772.47451 305.446592 
C 772.018819 305.876967 771.762779 306.460761 771.762779 307.069403 
C 771.762779 307.678044 772.018819 308.261838 772.47451 308.692213 
C 772.9302 309.122587 773.548336 309.364403 774.192779 309.364403 
z
" style="stroke:#000000;stroke-linejoin:miter;stroke-width:1.5;"/>
   </g>
   <g id="patch_30">
    <path clip-path="url(#p747e10f9bb)" d="M 774.192779 79.762403 
C 774.837223 79.762403 775.455358 79.520587 775.911049 79.090213 
C 776.366739 78.659838 776.622779 78.076044 776.622779 77.467403 
C 776.622779 76.858761 776.366739 76.274967 775.911049 75.844592 
C 775.455358 75.414218 774.837223 75.172403 774.192779 75.172403 
C 773.548336 75.172403 772.9302 75.414218 772.47451 75.844592 
C 772.018819 76.274967 771.762779 76.858761 771.762779 77.467403 
C 771.762779 78.076044 772.018819 78.659838 772.47451 79.090213 
C 772.9302 79.520587 773.548336 79.762403 774.192779 79.762403 
z
" style="stroke:#000000;stroke-linejoin:miter;stroke-width:1.5;"/>
   </g>
   <g id="patch_31">
    <path clip-path="url(#p747e10f9bb)" d="M 871.392779 79.762403 
C 872.037223 79.762403 872.655358 79.520587 873.111049 79.090213 
C 873.566739 78.659838 873.822779 78.076044 873.822779 77.467403 
C 873.822779 76.858761 873.566739 76.274967 873.111049 75.844592 
C 872.655358 75.414218 872.037223 75.172403 871.392779 75.172403 
C 870.748336 75.172403 870.1302 75.414218 869.67451 75.844592 
C 869.218819 76.274967 868.962779 76.858761 868.962779 77.467403 
C 868.962779 78.076044 869.218819 78.659838 869.67451 79.090213 
C 870.1302 79.520587 870.748336 79.762403 871.392779 79.762403 
z
" style="fill:#ffffff;stroke:#000000;stroke-linejoin:miter;stroke-width:1.5;"/>
   </g>
   <g id="patch_32">
    <path clip-path="url(#p747e10f9bb)" d="M 871.392779 309.364403 
C 872.037223 309.364403 872.655358 309.122587 873.111049 308.692213 
C 873.566739 308.261838 873.822779 307.678044 873.822779 307.069403 
C 873.822779 306.460761 873.566739 305.876967 873.111049 305.446592 
C 872.655358 305.016218 872.037223 304.774403 871.392779 304.774403 
C 870.748336 304.774403 870.1302 305.016218 869.67451 305.446592 
C 869.218819 305.876967 868.962779 306.460761 868.962779 307.069403 
C 868.962779 307.678044 869.218819 308.261838 869.67451 308.692213 
C 870.1302 309.122587 870.748336 309.364403 871.392779 309.364403 
z
" style="fill:#ffffff;stroke:#000000;stroke-linejoin:miter;stroke-width:1.5;"/>
   </g>
   <g id="text_1">
    <!-- AC IN -->
    <defs>
     <path d="M 9.8125 72.90625 
L 19.671875 72.90625 
L 19.671875 0 
L 9.8125 0 
z
" id="BitstreamVeraSans-Roman-49"/>
     <path d="M 9.8125 72.90625 
L 23.09375 72.90625 
L 55.421875 11.921875 
L 55.421875 72.90625 
L 64.984375 72.90625 
L 64.984375 0 
L 51.703125 0 
L 19.390625 60.984375 
L 19.390625 0 
L 9.8125 0 
z
" id="BitstreamVeraSans-Roman-4e"/>
     <path d="M 34.1875 63.1875 
L 20.796875 26.90625 
L 47.609375 26.90625 
z
M 28.609375 72.90625 
L 39.796875 72.90625 
L 67.578125 0 
L 57.328125 0 
L 50.6875 18.703125 
L 17.828125 18.703125 
L 11.1875 0 
L 0.78125 0 
z
" id="BitstreamVeraSans-Roman-41"/>
     <path d="M 64.40625 67.28125 
L 64.40625 56.890625 
Q 59.421875 61.53125 53.78125 63.8125 
Q 48.140625 66.109375 41.796875 66.109375 
Q 29.296875 66.109375 22.65625 58.46875 
Q 16.015625 50.828125 16.015625 36.375 
Q 16.015625 21.96875 22.65625 14.328125 
Q 29.296875 6.6875 41.796875 6.6875 
Q 48.140625 6.6875 53.78125 8.984375 
Q 59.421875 11.28125 64.40625 15.921875 
L 64.40625 5.609375 
Q 59.234375 2.09375 53.4375 0.328125 
Q 47.65625 -1.421875 41.21875 -1.421875 
Q 24.65625 -1.421875 15.125 8.703125 
Q 5.609375 18.84375 5.609375 36.375 
Q 5.609375 53.953125 15.125 64.078125 
Q 24.65625 74.21875 41.21875 74.21875 
Q 47.75 74.21875 53.53125 72.484375 
Q 59.328125 70.75 64.40625 67.28125 
" id="BitstreamVeraSans-Roman-43"/>
     <path id="BitstreamVeraSans-Roman-20"/>
    </defs>
    <g transform="translate(7.2 81.8824025129)scale(0.16 -0.16)">
     <use xlink:href="#BitstreamVeraSans-Roman-41"/>
     <use x="68.392578125" xlink:href="#BitstreamVeraSans-Roman-43"/>
     <use x="138.216796875" xlink:href="#BitstreamVeraSans-Roman-20"/>
     <use x="170.00390625" xlink:href="#BitstreamVeraSans-Roman-49"/>
     <use x="199.49609375" xlink:href="#BitstreamVeraSans-Roman-4e"/>
    </g>
   </g>
   <g id="text_2">
    <!-- Q2 -->
    <defs>
     <path d="M 19.1875 8.296875 
L 53.609375 8.296875 
L 53.609375 0 
L 7.328125 0 
L 7.328125 8.296875 
Q 12.9375 14.109375 22.625 23.890625 
Q 32.328125 33.6875 34.8125 36.53125 
Q 39.546875 41.84375 41.421875 45.53125 
Q 43.3125 49.21875 43.3125 52.78125 
Q 43.3125 58.59375 39.234375 62.25 
Q 35.15625 65.921875 28.609375 65.921875 
Q 23.96875 65.921875 18.8125 64.3125 
Q 13.671875 62.703125 7.8125 59.421875 
L 7.8125 69.390625 
Q 13.765625 71.78125 18.9375 73 
Q 24.125 74.21875 28.421875 74.21875 
Q 39.75 74.21875 46.484375 68.546875 
Q 53.21875 62.890625 53.21875 53.421875 
Q 53.21875 48.921875 51.53125 44.890625 
Q 49.859375 40.875 45.40625 35.40625 
Q 44.1875 33.984375 37.640625 27.21875 
Q 31.109375 20.453125 19.1875 8.296875 
" id="BitstreamVeraSans-Roman-32"/>
     <path d="M 39.40625 66.21875 
Q 28.65625 66.21875 22.328125 58.203125 
Q 16.015625 50.203125 16.015625 36.375 
Q 16.015625 22.609375 22.328125 14.59375 
Q 28.65625 6.59375 39.40625 6.59375 
Q 50.140625 6.59375 56.421875 14.59375 
Q 62.703125 22.609375 62.703125 36.375 
Q 62.703125 50.203125 56.421875 58.203125 
Q 50.140625 66.21875 39.40625 66.21875 
M 53.21875 1.3125 
L 66.21875 -12.890625 
L 54.296875 -12.890625 
L 43.5 -1.21875 
Q 41.890625 -1.3125 41.03125 -1.359375 
Q 40.1875 -1.421875 39.40625 -1.421875 
Q 24.03125 -1.421875 14.8125 8.859375 
Q 5.609375 19.140625 5.609375 36.375 
Q 5.609375 53.65625 14.8125 63.9375 
Q 24.03125 74.21875 39.40625 74.21875 
Q 54.734375 74.21875 63.90625 63.9375 
Q 73.09375 53.65625 73.09375 36.375 
Q 73.09375 23.6875 67.984375 14.640625 
Q 62.890625 5.609375 53.21875 1.3125 
" id="BitstreamVeraSans-Roman-51"/>
    </defs>
    <g transform="translate(568.405279131 42.5044025129)scale(0.16 -0.16)">
     <use xlink:href="#BitstreamVeraSans-Roman-51"/>
     <use x="78.7109375" xlink:href="#BitstreamVeraSans-Roman-32"/>
    </g>
    <!-- 2n3055 -->
    <defs>
     <path d="M 40.578125 39.3125 
Q 47.65625 37.796875 51.625 33 
Q 55.609375 28.21875 55.609375 21.1875 
Q 55.609375 10.40625 48.1875 4.484375 
Q 40.765625 -1.421875 27.09375 -1.421875 
Q 22.515625 -1.421875 17.65625 -0.515625 
Q 12.796875 0.390625 7.625 2.203125 
L 7.625 11.71875 
Q 11.71875 9.328125 16.59375 8.109375 
Q 21.484375 6.890625 26.8125 6.890625 
Q 36.078125 6.890625 40.9375 10.546875 
Q 45.796875 14.203125 45.796875 21.1875 
Q 45.796875 27.640625 41.28125 31.265625 
Q 36.765625 34.90625 28.71875 34.90625 
L 20.21875 34.90625 
L 20.21875 43.015625 
L 29.109375 43.015625 
Q 36.375 43.015625 40.234375 45.921875 
Q 44.09375 48.828125 44.09375 54.296875 
Q 44.09375 59.90625 40.109375 62.90625 
Q 36.140625 65.921875 28.71875 65.921875 
Q 24.65625 65.921875 20.015625 65.03125 
Q 15.375 64.15625 9.8125 62.3125 
L 9.8125 71.09375 
Q 15.4375 72.65625 20.34375 73.4375 
Q 25.25 74.21875 29.59375 74.21875 
Q 40.828125 74.21875 47.359375 69.109375 
Q 53.90625 64.015625 53.90625 55.328125 
Q 53.90625 49.265625 50.4375 45.09375 
Q 46.96875 40.921875 40.578125 39.3125 
" id="BitstreamVeraSans-Roman-33"/>
     <path d="M 10.796875 72.90625 
L 49.515625 72.90625 
L 49.515625 64.59375 
L 19.828125 64.59375 
L 19.828125 46.734375 
Q 21.96875 47.46875 24.109375 47.828125 
Q 26.265625 48.1875 28.421875 48.1875 
Q 40.625 48.1875 47.75 41.5 
Q 54.890625 34.8125 54.890625 23.390625 
Q 54.890625 11.625 47.5625 5.09375 
Q 40.234375 -1.421875 26.90625 -1.421875 
Q 22.3125 -1.421875 17.546875 -0.640625 
Q 12.796875 0.140625 7.71875 1.703125 
L 7.71875 11.625 
Q 12.109375 9.234375 16.796875 8.0625 
Q 21.484375 6.890625 26.703125 6.890625 
Q 35.15625 6.890625 40.078125 11.328125 
Q 45.015625 15.765625 45.015625 23.390625 
Q 45.015625 31 40.078125 35.4375 
Q 35.15625 39.890625 26.703125 39.890625 
Q 22.75 39.890625 18.8125 39.015625 
Q 14.890625 38.140625 10.796875 36.28125 
z
" id="BitstreamVeraSans-Roman-35"/>
     <path d="M 54.890625 33.015625 
L 54.890625 0 
L 45.90625 0 
L 45.90625 32.71875 
Q 45.90625 40.484375 42.875 44.328125 
Q 39.84375 48.1875 33.796875 48.1875 
Q 26.515625 48.1875 22.3125 43.546875 
Q 18.109375 38.921875 18.109375 30.90625 
L 18.109375 0 
L 9.078125 0 
L 9.078125 54.6875 
L 18.109375 54.6875 
L 18.109375 46.1875 
Q 21.34375 51.125 25.703125 53.5625 
Q 30.078125 56 35.796875 56 
Q 45.21875 56 50.046875 50.171875 
Q 54.890625 44.34375 54.890625 33.015625 
" id="BitstreamVeraSans-Roman-6e"/>
     <path d="M 31.78125 66.40625 
Q 24.171875 66.40625 20.328125 58.90625 
Q 16.5 51.421875 16.5 36.375 
Q 16.5 21.390625 20.328125 13.890625 
Q 24.171875 6.390625 31.78125 6.390625 
Q 39.453125 6.390625 43.28125 13.890625 
Q 47.125 21.390625 47.125 36.375 
Q 47.125 51.421875 43.28125 58.90625 
Q 39.453125 66.40625 31.78125 66.40625 
M 31.78125 74.21875 
Q 44.046875 74.21875 50.515625 64.515625 
Q 56.984375 54.828125 56.984375 36.375 
Q 56.984375 17.96875 50.515625 8.265625 
Q 44.046875 -1.421875 31.78125 -1.421875 
Q 19.53125 -1.421875 13.0625 8.265625 
Q 6.59375 17.96875 6.59375 36.375 
Q 6.59375 54.828125 13.0625 64.515625 
Q 19.53125 74.21875 31.78125 74.21875 
" id="BitstreamVeraSans-Roman-30"/>
    </defs>
    <g transform="translate(549.272779131 60.4209025129)scale(0.16 -0.16)">
     <use xlink:href="#BitstreamVeraSans-Roman-32"/>
     <use x="63.623046875" xlink:href="#BitstreamVeraSans-Roman-6e"/>
     <use x="127.001953125" xlink:href="#BitstreamVeraSans-Roman-33"/>
     <use x="190.625" xlink:href="#BitstreamVeraSans-Roman-30"/>
     <use x="254.248046875" xlink:href="#BitstreamVeraSans-Roman-35"/>
     <use x="317.87109375" xlink:href="#BitstreamVeraSans-Roman-35"/>
    </g>
   </g>
   <g id="text_3">
    <!-- Q1 -->
    <defs>
     <path d="M 12.40625 8.296875 
L 28.515625 8.296875 
L 28.515625 63.921875 
L 10.984375 60.40625 
L 10.984375 69.390625 
L 28.421875 72.90625 
L 38.28125 72.90625 
L 38.28125 8.296875 
L 54.390625 8.296875 
L 54.390625 0 
L 12.40625 0 
z
" id="BitstreamVeraSans-Roman-31"/>
    </defs>
    <g transform="translate(513.433279131 111.405402513)scale(0.16 -0.16)">
     <use xlink:href="#BitstreamVeraSans-Roman-51"/>
     <use x="78.7109375" xlink:href="#BitstreamVeraSans-Roman-31"/>
    </g>
    <!--     2n3054 -->
    <defs>
     <path d="M 37.796875 64.3125 
L 12.890625 25.390625 
L 37.796875 25.390625 
z
M 35.203125 72.90625 
L 47.609375 72.90625 
L 47.609375 25.390625 
L 58.015625 25.390625 
L 58.015625 17.1875 
L 47.609375 17.1875 
L 47.609375 0 
L 37.796875 0 
L 37.796875 17.1875 
L 4.890625 17.1875 
L 4.890625 26.703125 
z
" id="BitstreamVeraSans-Roman-34"/>
    </defs>
    <g transform="translate(484.130779131 129.321902513)scale(0.16 -0.16)">
     <use xlink:href="#BitstreamVeraSans-Roman-20"/>
     <use x="31.787109375" xlink:href="#BitstreamVeraSans-Roman-20"/>
     <use x="63.57421875" xlink:href="#BitstreamVeraSans-Roman-20"/>
     <use x="95.361328125" xlink:href="#BitstreamVeraSans-Roman-20"/>
     <use x="127.1484375" xlink:href="#BitstreamVeraSans-Roman-32"/>
     <use x="190.771484375" xlink:href="#BitstreamVeraSans-Roman-6e"/>
     <use x="254.150390625" xlink:href="#BitstreamVeraSans-Roman-33"/>
     <use x="317.7734375" xlink:href="#BitstreamVeraSans-Roman-30"/>
     <use x="381.396484375" xlink:href="#BitstreamVeraSans-Roman-35"/>
     <use x="445.01953125" xlink:href="#BitstreamVeraSans-Roman-34"/>
    </g>
   </g>
   <g id="text_4">
    <!-- D2 -->
    <defs>
     <path d="M 19.671875 64.796875 
L 19.671875 8.109375 
L 31.59375 8.109375 
Q 46.6875 8.109375 53.6875 14.9375 
Q 60.6875 21.78125 60.6875 36.53125 
Q 60.6875 51.171875 53.6875 57.984375 
Q 46.6875 64.796875 31.59375 64.796875 
z
M 9.8125 72.90625 
L 30.078125 72.90625 
Q 51.265625 72.90625 61.171875 64.09375 
Q 71.09375 55.28125 71.09375 36.53125 
Q 71.09375 17.671875 61.125 8.828125 
Q 51.171875 0 30.078125 0 
L 9.8125 0 
z
" id="BitstreamVeraSans-Roman-44"/>
    </defs>
    <g transform="translate(539.400779131 256.626152513)scale(0.16 -0.16)">
     <use xlink:href="#BitstreamVeraSans-Roman-44"/>
     <use x="77.001953125" xlink:href="#BitstreamVeraSans-Roman-32"/>
    </g>
    <!-- 500mA -->
    <defs>
     <path d="M 52 44.1875 
Q 55.375 50.25 60.0625 53.125 
Q 64.75 56 71.09375 56 
Q 79.640625 56 84.28125 50.015625 
Q 88.921875 44.046875 88.921875 33.015625 
L 88.921875 0 
L 79.890625 0 
L 79.890625 32.71875 
Q 79.890625 40.578125 77.09375 44.375 
Q 74.3125 48.1875 68.609375 48.1875 
Q 61.625 48.1875 57.5625 43.546875 
Q 53.515625 38.921875 53.515625 30.90625 
L 53.515625 0 
L 44.484375 0 
L 44.484375 32.71875 
Q 44.484375 40.625 41.703125 44.40625 
Q 38.921875 48.1875 33.109375 48.1875 
Q 26.21875 48.1875 22.15625 43.53125 
Q 18.109375 38.875 18.109375 30.90625 
L 18.109375 0 
L 9.078125 0 
L 9.078125 54.6875 
L 18.109375 54.6875 
L 18.109375 46.1875 
Q 21.1875 51.21875 25.484375 53.609375 
Q 29.78125 56 35.6875 56 
Q 41.65625 56 45.828125 52.96875 
Q 50 49.953125 52 44.1875 
" id="BitstreamVeraSans-Roman-6d"/>
    </defs>
    <g transform="translate(539.400779131 274.542652513)scale(0.16 -0.16)">
     <use xlink:href="#BitstreamVeraSans-Roman-35"/>
     <use x="63.623046875" xlink:href="#BitstreamVeraSans-Roman-30"/>
     <use x="127.24609375" xlink:href="#BitstreamVeraSans-Roman-30"/>
     <use x="190.869140625" xlink:href="#BitstreamVeraSans-Roman-6d"/>
     <use x="288.28125" xlink:href="#BitstreamVeraSans-Roman-41"/>
    </g>
   </g>
   <g id="text_5">
    <!-- C2 -->
    <g transform="translate(438.960779131 247.571652513)scale(0.16 -0.16)">
     <use xlink:href="#BitstreamVeraSans-Roman-43"/>
     <use x="69.82421875" xlink:href="#BitstreamVeraSans-Roman-32"/>
    </g>
    <!-- 100$\mu$F -->
    <defs>
     <path d="M 48.203125 4.703125 
L 45.90625 -1 
Q 36.5 -1 35.09375 6.40625 
L 21.90625 -1 
Q 16.296875 -1 13.796875 1.5 
L 13.796875 -12.59375 
Q 13.796875 -17.796875 12.203125 -21.5 
L 4.40625 -21.5 
Q 6.296875 -17.203125 6.296875 -12.703125 
L 6.296875 45.296875 
L 14.203125 45.296875 
L 14.203125 14.90625 
Q 14.203125 6.09375 22.40625 6.09375 
Q 25.203125 6.09375 29.09375 9.046875 
Q 33 12 34.5 16.09375 
L 34.5 45.296875 
L 42.40625 45.296875 
L 42.40625 12.796875 
Q 42.40625 9.59375 43.546875 7.84375 
Q 44.703125 6.09375 48.203125 6.09375 
z
" id="STIXNonUnicode-Regular-e1a1"/>
     <path d="M 9.8125 72.90625 
L 51.703125 72.90625 
L 51.703125 64.59375 
L 19.671875 64.59375 
L 19.671875 43.109375 
L 48.578125 43.109375 
L 48.578125 34.8125 
L 19.671875 34.8125 
L 19.671875 0 
L 9.8125 0 
z
" id="BitstreamVeraSans-Roman-46"/>
    </defs>
    <g transform="translate(438.960779131 265.488152513)scale(0.16 -0.16)">
     <use transform="translate(0.0 0.78125)" xlink:href="#BitstreamVeraSans-Roman-31"/>
     <use transform="translate(63.623046875 0.78125)" xlink:href="#BitstreamVeraSans-Roman-30"/>
     <use transform="translate(127.24609375 0.78125)" xlink:href="#BitstreamVeraSans-Roman-30"/>
     <use transform="translate(190.869140625 0.78125)" xlink:href="#STIXNonUnicode-Regular-e1a1"/>
     <use transform="translate(239.5691375732422 0.78125)" xlink:href="#BitstreamVeraSans-Roman-46"/>
    </g>
    <!-- 50V -->
    <defs>
     <path d="M 28.609375 0 
L 0.78125 72.90625 
L 11.078125 72.90625 
L 34.1875 11.53125 
L 57.328125 72.90625 
L 67.578125 72.90625 
L 39.796875 0 
z
" id="BitstreamVeraSans-Roman-56"/>
    </defs>
    <g transform="translate(438.960779131 283.597152513)scale(0.16 -0.16)">
     <use xlink:href="#BitstreamVeraSans-Roman-35"/>
     <use x="63.623046875" xlink:href="#BitstreamVeraSans-Roman-30"/>
     <use x="127.24609375" xlink:href="#BitstreamVeraSans-Roman-56"/>
    </g>
   </g>
   <g id="text_6">
    <!-- + -->
    <defs>
     <path d="M 46 62.703125 
L 46 35.5 
L 73.1875 35.5 
L 73.1875 27.203125 
L 46 27.203125 
L 46 0 
L 37.796875 0 
L 37.796875 27.203125 
L 10.59375 27.203125 
L 10.59375 35.5 
L 37.796875 35.5 
L 37.796875 62.703125 
z
" id="BitstreamVeraSans-Roman-2b"/>
    </defs>
    <g transform="translate(415.085029131 256.220802513)scale(0.16 -0.16)">
     <use xlink:href="#BitstreamVeraSans-Roman-2b"/>
    </g>
   </g>
   <g id="text_7">
    <!-- R1 -->
    <defs>
     <path d="M 44.390625 34.1875 
Q 47.5625 33.109375 50.5625 29.59375 
Q 53.5625 26.078125 56.59375 19.921875 
L 66.609375 0 
L 56 0 
L 46.6875 18.703125 
Q 43.0625 26.03125 39.671875 28.421875 
Q 36.28125 30.8125 30.421875 30.8125 
L 19.671875 30.8125 
L 19.671875 0 
L 9.8125 0 
L 9.8125 72.90625 
L 32.078125 72.90625 
Q 44.578125 72.90625 50.734375 67.671875 
Q 56.890625 62.453125 56.890625 51.90625 
Q 56.890625 45.015625 53.6875 40.46875 
Q 50.484375 35.9375 44.390625 34.1875 
M 19.671875 64.796875 
L 19.671875 38.921875 
L 32.078125 38.921875 
Q 39.203125 38.921875 42.84375 42.21875 
Q 46.484375 45.515625 46.484375 51.90625 
Q 46.484375 58.296875 42.84375 61.546875 
Q 39.203125 64.796875 32.078125 64.796875 
z
" id="BitstreamVeraSans-Roman-52"/>
    </defs>
    <g transform="translate(438.960779131 132.866902513)scale(0.16 -0.16)">
     <use xlink:href="#BitstreamVeraSans-Roman-52"/>
     <use x="69.482421875" xlink:href="#BitstreamVeraSans-Roman-31"/>
    </g>
    <!-- 2.2K -->
    <defs>
     <path d="M 9.8125 72.90625 
L 19.671875 72.90625 
L 19.671875 42.09375 
L 52.390625 72.90625 
L 65.09375 72.90625 
L 28.90625 38.921875 
L 67.671875 0 
L 54.6875 0 
L 19.671875 35.109375 
L 19.671875 0 
L 9.8125 0 
z
" id="BitstreamVeraSans-Roman-4b"/>
     <path d="M 10.6875 12.40625 
L 21 12.40625 
L 21 0 
L 10.6875 0 
z
" id="BitstreamVeraSans-Roman-2e"/>
    </defs>
    <g transform="translate(438.960779131 150.783402513)scale(0.16 -0.16)">
     <use xlink:href="#BitstreamVeraSans-Roman-32"/>
     <use x="63.623046875" xlink:href="#BitstreamVeraSans-Roman-2e"/>
     <use x="95.41015625" xlink:href="#BitstreamVeraSans-Roman-32"/>
     <use x="159.033203125" xlink:href="#BitstreamVeraSans-Roman-4b"/>
    </g>
    <!-- 50V -->
    <g transform="translate(438.960779131 168.699902513)scale(0.16 -0.16)">
     <use xlink:href="#BitstreamVeraSans-Roman-35"/>
     <use x="63.623046875" xlink:href="#BitstreamVeraSans-Roman-30"/>
     <use x="127.24609375" xlink:href="#BitstreamVeraSans-Roman-56"/>
    </g>
   </g>
   <g id="text_8">
    <!-- C1 -->
    <g transform="translate(297.728279131 178.670652513)scale(0.16 -0.16)">
     <use xlink:href="#BitstreamVeraSans-Roman-43"/>
     <use x="69.82421875" xlink:href="#BitstreamVeraSans-Roman-31"/>
    </g>
    <!--  1000$\mu$F -->
    <g transform="translate(256.200779131 196.587152513)scale(0.16 -0.16)">
     <use transform="translate(0.0 0.78125)" xlink:href="#BitstreamVeraSans-Roman-20"/>
     <use transform="translate(31.787109375 0.78125)" xlink:href="#BitstreamVeraSans-Roman-31"/>
     <use transform="translate(95.41015625 0.78125)" xlink:href="#BitstreamVeraSans-Roman-30"/>
     <use transform="translate(159.033203125 0.78125)" xlink:href="#BitstreamVeraSans-Roman-30"/>
     <use transform="translate(222.65625 0.78125)" xlink:href="#BitstreamVeraSans-Roman-30"/>
     <use transform="translate(286.279296875 0.78125)" xlink:href="#STIXNonUnicode-Regular-e1a1"/>
     <use transform="translate(334.9792938232422 0.78125)" xlink:href="#BitstreamVeraSans-Roman-46"/>
    </g>
    <!-- 50V -->
    <g transform="translate(287.775779131 214.696152513)scale(0.16 -0.16)">
     <use xlink:href="#BitstreamVeraSans-Roman-35"/>
     <use x="63.623046875" xlink:href="#BitstreamVeraSans-Roman-30"/>
     <use x="127.24609375" xlink:href="#BitstreamVeraSans-Roman-56"/>
    </g>
   </g>
   <g id="text_9">
    <!-- + -->
    <g transform="translate(317.885029131 187.319802513)scale(0.16 -0.16)">
     <use xlink:href="#BitstreamVeraSans-Roman-2b"/>
    </g>
   </g>
   <g id="text_10">
    <!-- R2 -->
    <g transform="translate(617.744029131 132.330902513)scale(0.16 -0.16)">
     <use xlink:href="#BitstreamVeraSans-Roman-52"/>
     <use x="69.482421875" xlink:href="#BitstreamVeraSans-Roman-32"/>
    </g>
   </g>
   <g id="text_11">
    <!-- 56$\Omega$ 1W -->
    <defs>
     <path d="M 3.328125 72.90625 
L 13.28125 72.90625 
L 28.609375 11.28125 
L 43.890625 72.90625 
L 54.984375 72.90625 
L 70.3125 11.28125 
L 85.59375 72.90625 
L 95.609375 72.90625 
L 77.296875 0 
L 64.890625 0 
L 49.515625 63.28125 
L 33.984375 0 
L 21.578125 0 
z
" id="BitstreamVeraSans-Roman-57"/>
     <path d="M 72.609375 8.6875 
L 72.609375 0 
L 43.3125 0 
L 43.3125 8.6875 
Q 51.953125 13.421875 56.78125 21.53125 
Q 61.625 29.640625 61.625 39.5 
Q 61.625 51.21875 55.171875 58.296875 
Q 48.734375 65.375 38.1875 65.375 
Q 27.640625 65.375 21.171875 58.265625 
Q 14.703125 51.171875 14.703125 39.5 
Q 14.703125 29.640625 19.5625 21.53125 
Q 24.421875 13.421875 33.109375 8.6875 
L 33.109375 0 
L 3.8125 0 
L 3.8125 8.6875 
L 19.390625 8.6875 
Q 11.671875 15.484375 8.125 22.75 
Q 4.59375 30.03125 4.59375 39.015625 
Q 4.59375 54.546875 13.9375 64.15625 
Q 23.296875 73.78125 38.1875 73.78125 
Q 52.984375 73.78125 62.375 64.1875 
Q 71.78125 54.59375 71.78125 39.5 
Q 71.78125 30.03125 68.3125 22.796875 
Q 64.84375 15.578125 56.984375 8.6875 
z
" id="BitstreamVeraSans-Roman-3a9"/>
     <path d="M 33.015625 40.375 
Q 26.375 40.375 22.484375 35.828125 
Q 18.609375 31.296875 18.609375 23.390625 
Q 18.609375 15.53125 22.484375 10.953125 
Q 26.375 6.390625 33.015625 6.390625 
Q 39.65625 6.390625 43.53125 10.953125 
Q 47.40625 15.53125 47.40625 23.390625 
Q 47.40625 31.296875 43.53125 35.828125 
Q 39.65625 40.375 33.015625 40.375 
M 52.59375 71.296875 
L 52.59375 62.3125 
Q 48.875 64.0625 45.09375 64.984375 
Q 41.3125 65.921875 37.59375 65.921875 
Q 27.828125 65.921875 22.671875 59.328125 
Q 17.53125 52.734375 16.796875 39.40625 
Q 19.671875 43.65625 24.015625 45.921875 
Q 28.375 48.1875 33.59375 48.1875 
Q 44.578125 48.1875 50.953125 41.515625 
Q 57.328125 34.859375 57.328125 23.390625 
Q 57.328125 12.15625 50.6875 5.359375 
Q 44.046875 -1.421875 33.015625 -1.421875 
Q 20.359375 -1.421875 13.671875 8.265625 
Q 6.984375 17.96875 6.984375 36.375 
Q 6.984375 53.65625 15.1875 63.9375 
Q 23.390625 74.21875 37.203125 74.21875 
Q 40.921875 74.21875 44.703125 73.484375 
Q 48.484375 72.75 52.59375 71.296875 
" id="BitstreamVeraSans-Roman-36"/>
    </defs>
    <g transform="translate(596.552779131 169.235902513)scale(0.16 -0.16)">
     <use transform="translate(0.0 0.78125)" xlink:href="#BitstreamVeraSans-Roman-35"/>
     <use transform="translate(63.623046875 0.78125)" xlink:href="#BitstreamVeraSans-Roman-36"/>
     <use transform="translate(127.24609375 0.78125)" xlink:href="#BitstreamVeraSans-Roman-3a9"/>
     <use transform="translate(203.662109375 0.78125)" xlink:href="#BitstreamVeraSans-Roman-20"/>
     <use transform="translate(235.44921875 0.78125)" xlink:href="#BitstreamVeraSans-Roman-31"/>
     <use transform="translate(299.072265625 0.78125)" xlink:href="#BitstreamVeraSans-Roman-57"/>
    </g>
   </g>
   <g id="text_12">
    <!-- C3 -->
    <g transform="translate(688.332779131 213.121152513)scale(0.16 -0.16)">
     <use xlink:href="#BitstreamVeraSans-Roman-43"/>
     <use x="69.82421875" xlink:href="#BitstreamVeraSans-Roman-33"/>
    </g>
    <!-- 470$\mu$F -->
    <defs>
     <path d="M 8.203125 72.90625 
L 55.078125 72.90625 
L 55.078125 68.703125 
L 28.609375 0 
L 18.3125 0 
L 43.21875 64.59375 
L 8.203125 64.59375 
z
" id="BitstreamVeraSans-Roman-37"/>
    </defs>
    <g transform="translate(688.332779131 231.037652513)scale(0.16 -0.16)">
     <use transform="translate(0.0 0.78125)" xlink:href="#BitstreamVeraSans-Roman-34"/>
     <use transform="translate(63.623046875 0.78125)" xlink:href="#BitstreamVeraSans-Roman-37"/>
     <use transform="translate(127.24609375 0.78125)" xlink:href="#BitstreamVeraSans-Roman-30"/>
     <use transform="translate(190.869140625 0.78125)" xlink:href="#STIXNonUnicode-Regular-e1a1"/>
     <use transform="translate(239.5691375732422 0.78125)" xlink:href="#BitstreamVeraSans-Roman-46"/>
    </g>
    <!-- 50V -->
    <g transform="translate(688.332779131 249.146652513)scale(0.16 -0.16)">
     <use xlink:href="#BitstreamVeraSans-Roman-35"/>
     <use x="63.623046875" xlink:href="#BitstreamVeraSans-Roman-30"/>
     <use x="127.24609375" xlink:href="#BitstreamVeraSans-Roman-56"/>
    </g>
   </g>
   <g id="text_13">
    <!-- + -->
    <g transform="translate(676.121029131 221.770302513)scale(0.16 -0.16)">
     <use xlink:href="#BitstreamVeraSans-Roman-2b"/>
    </g>
   </g>
   <g id="text_14">
    <!-- R3 -->
    <g transform="translate(785.532779131 178.766902513)scale(0.16 -0.16)">
     <use xlink:href="#BitstreamVeraSans-Roman-52"/>
     <use x="69.482421875" xlink:href="#BitstreamVeraSans-Roman-33"/>
    </g>
    <!-- 10K -->
    <g transform="translate(785.532779131 196.683402513)scale(0.16 -0.16)">
     <use xlink:href="#BitstreamVeraSans-Roman-31"/>
     <use x="63.623046875" xlink:href="#BitstreamVeraSans-Roman-30"/>
     <use x="127.24609375" xlink:href="#BitstreamVeraSans-Roman-4b"/>
    </g>
    <!-- 1W -->
    <g transform="translate(785.532779131 214.599902513)scale(0.16 -0.16)">
     <use xlink:href="#BitstreamVeraSans-Roman-31"/>
     <use x="63.623046875" xlink:href="#BitstreamVeraSans-Roman-57"/>
    </g>
   </g>
   <g id="text_15">
    <!-- $V_{out}$ -->
    <defs>
     <path d="M 30.609375 48.390625 
Q 23.390625 48.390625 19.1875 42.75 
Q 14.984375 37.109375 14.984375 27.296875 
Q 14.984375 17.484375 19.15625 11.84375 
Q 23.34375 6.203125 30.609375 6.203125 
Q 37.796875 6.203125 41.984375 11.859375 
Q 46.1875 17.53125 46.1875 27.296875 
Q 46.1875 37.015625 41.984375 42.703125 
Q 37.796875 48.390625 30.609375 48.390625 
M 30.609375 56 
Q 42.328125 56 49.015625 48.375 
Q 55.71875 40.765625 55.71875 27.296875 
Q 55.71875 13.875 49.015625 6.21875 
Q 42.328125 -1.421875 30.609375 -1.421875 
Q 18.84375 -1.421875 12.171875 6.21875 
Q 5.515625 13.875 5.515625 27.296875 
Q 5.515625 40.765625 12.171875 48.375 
Q 18.84375 56 30.609375 56 
" id="BitstreamVeraSans-Roman-6f"/>
     <path d="M 18.3125 70.21875 
L 18.3125 54.6875 
L 36.8125 54.6875 
L 36.8125 47.703125 
L 18.3125 47.703125 
L 18.3125 18.015625 
Q 18.3125 11.328125 20.140625 9.421875 
Q 21.96875 7.515625 27.59375 7.515625 
L 36.8125 7.515625 
L 36.8125 0 
L 27.59375 0 
Q 17.1875 0 13.234375 3.875 
Q 9.28125 7.765625 9.28125 18.015625 
L 9.28125 47.703125 
L 2.6875 47.703125 
L 2.6875 54.6875 
L 9.28125 54.6875 
L 9.28125 70.21875 
z
" id="BitstreamVeraSans-Roman-74"/>
     <path d="M 8.5 21.578125 
L 8.5 54.6875 
L 17.484375 54.6875 
L 17.484375 21.921875 
Q 17.484375 14.15625 20.5 10.265625 
Q 23.53125 6.390625 29.59375 6.390625 
Q 36.859375 6.390625 41.078125 11.03125 
Q 45.3125 15.671875 45.3125 23.6875 
L 45.3125 54.6875 
L 54.296875 54.6875 
L 54.296875 0 
L 45.3125 0 
L 45.3125 8.40625 
Q 42.046875 3.421875 37.71875 1 
Q 33.40625 -1.421875 27.6875 -1.421875 
Q 18.265625 -1.421875 13.375 4.4375 
Q 8.5 10.296875 8.5 21.578125 
" id="BitstreamVeraSans-Roman-75"/>
    </defs>
    <g transform="translate(871.392779131 195.468402513)scale(0.16 -0.16)">
     <use transform="translate(0.0 0.09375)" xlink:href="#BitstreamVeraSans-Roman-56"/>
     <use transform="translate(70.245703125 -31.40625)scale(0.7)" xlink:href="#BitstreamVeraSans-Roman-6f"/>
     <use transform="translate(113.0728515625 -31.40625)scale(0.7)" xlink:href="#BitstreamVeraSans-Roman-75"/>
     <use transform="translate(157.43808593749998 -31.40625)scale(0.7)" xlink:href="#BitstreamVeraSans-Roman-74"/>
    </g>
   </g>
  </g>
 </g>
 <defs>
  <clipPath id="p747e10f9bb">
   <rect height="322.513402513" width="831.642779131" x="45.42" y="7.2"/>
  </clipPath>
 </defs>
</svg>
