<?xml version="1.0" encoding="utf-8" standalone="no"?>
<!DOCTYPE svg PUBLIC "-//W3C//DTD SVG 1.1//EN"
  "http://www.w3.org/Graphics/SVG/1.1/DTD/svg11.dtd">
<!-- Created with matplotlib (http://matplotlib.org/) -->
<svg height="375pt" version="1.1" viewBox="0 0 935 375" width="935pt" xmlns="http://www.w3.org/2000/svg" xmlns:xlink="http://www.w3.org/1999/xlink">
 <defs>
  <style type="text/css">
*{stroke-linecap:butt;stroke-linejoin:round;}
  </style>
 </defs>
 <g id="figure_1">
  <g id="patch_1">
   <path d="M 0 375.552743 
L 935.559057 375.552743 
L 935.559057 0 
L 0 0 
z
" style="fill:none;"/>
  </g>
  <g id="axes_1">
   <g id="patch_2">
    <path clip-path="url(#p633ea0da02)" d="M 602.962918 96.787073 
L 601.205781 103.425145 
L 598.75809 101.44368 
L 592.283218 108.57803 
L 592.258618 108.558116 
L 598.73349 101.423766 
L 596.285799 99.442301 
z
" style="stroke:#000000;stroke-linejoin:miter;stroke-width:1.5;"/>
   </g>
   <g id="patch_3">
    <path clip-path="url(#p633ea0da02)" d="M 547.990918 165.688073 
L 546.233781 172.326145 
L 543.78609 170.34468 
L 537.311218 177.47903 
L 537.286618 177.459116 
L 543.76149 170.324766 
L 541.313799 168.343301 
z
" style="stroke:#000000;stroke-linejoin:miter;stroke-width:1.5;"/>
   </g>
   <g id="line2d_1">
    <path clip-path="url(#p633ea0da02)" d="M 203.428139 31.87467 
L 233.784233 60.544315 
M 247.530389 62.708061 
L 236.075259 73.526795 
M 241.802824 68.117428 
L 272.158918 96.787073 
" style="fill:none;stroke:#000000;stroke-linecap:round;stroke-width:1.5;"/>
   </g>
   <g id="line2d_2">
    <path clip-path="url(#p633ea0da02)" d="M 272.158918 96.787073 
" style="fill:none;stroke:#000000;stroke-linecap:round;stroke-width:1.5;"/>
   </g>
   <g id="line2d_3">
    <path clip-path="url(#p633ea0da02)" d="M 203.428139 161.699475 
L 233.784233 133.029831 
M 247.530389 130.866084 
L 236.075259 120.04735 
M 241.802824 125.456717 
L 272.158918 96.787073 
" style="fill:none;stroke:#000000;stroke-linecap:round;stroke-width:1.5;"/>
   </g>
   <g id="line2d_4">
    <path clip-path="url(#p633ea0da02)" d="M 203.428139 161.699475 
" style="fill:none;stroke:#000000;stroke-linecap:round;stroke-width:1.5;"/>
   </g>
   <g id="line2d_5">
    <path clip-path="url(#p633ea0da02)" d="M 134.69736 96.787073 
L 165.053454 125.456717 
M 167.34448 138.439198 
L 178.79961 127.620464 
M 173.072045 133.029831 
L 203.428139 161.699475 
" style="fill:none;stroke:#000000;stroke-linecap:round;stroke-width:1.5;"/>
   </g>
   <g id="line2d_6">
    <path clip-path="url(#p633ea0da02)" d="M 134.69736 96.787073 
" style="fill:none;stroke:#000000;stroke-linecap:round;stroke-width:1.5;"/>
   </g>
   <g id="line2d_7">
    <path clip-path="url(#p633ea0da02)" d="M 134.69736 96.787073 
L 165.053454 68.117428 
M 167.34448 55.134948 
L 178.79961 65.953681 
M 173.072045 60.544315 
L 203.428139 31.87467 
" style="fill:none;stroke:#000000;stroke-linecap:round;stroke-width:1.5;"/>
   </g>
   <g id="line2d_8">
    <path clip-path="url(#p633ea0da02)" d="M 203.428139 31.87467 
" style="fill:none;stroke:#000000;stroke-linecap:round;stroke-width:1.5;"/>
   </g>
   <g id="line2d_9">
    <path clip-path="url(#p633ea0da02)" d="M 203.428139 161.699475 
L 130.528139 161.699475 
L 57.628139 161.699475 
" style="fill:none;stroke:#000000;stroke-linecap:round;stroke-width:1.5;"/>
   </g>
   <g id="line2d_10">
    <path clip-path="url(#p633ea0da02)" d="M 57.628139 161.699475 
" style="fill:none;stroke:#000000;stroke-linecap:round;stroke-width:1.5;"/>
   </g>
   <g id="line2d_11">
    <path clip-path="url(#p633ea0da02)" d="M 57.628139 161.699475 
L 57.628139 112.087073 
M 57.628139 81.487073 
L 57.628139 31.87467 
" style="fill:none;stroke:#ffffff;stroke-linecap:round;stroke-width:1.5;"/>
   </g>
   <g id="line2d_12">
    <path clip-path="url(#p633ea0da02)" d="M 203.428139 31.87467 
L 130.528139 31.87467 
L 57.628139 31.87467 
" style="fill:none;stroke:#000000;stroke-linecap:round;stroke-width:1.5;"/>
   </g>
   <g id="line2d_13">
    <path clip-path="url(#p633ea0da02)" d="M 57.628139 31.87467 
" style="fill:none;stroke:#000000;stroke-linecap:round;stroke-width:1.5;"/>
   </g>
   <g id="line2d_14">
    <path clip-path="url(#p633ea0da02)" d="M 272.158918 96.787073 
L 417.958918 96.787073 
L 563.758918 96.787073 
" style="fill:none;stroke:#000000;stroke-linecap:round;stroke-width:1.5;"/>
   </g>
   <g id="line2d_15">
    <path clip-path="url(#p633ea0da02)" d="M 592.270918 108.568073 
L 602.962918 96.787073 
L 608.902918 96.787073 
" style="fill:none;stroke:#000000;stroke-linecap:round;stroke-width:1.5;"/>
   </g>
   <g id="line2d_16">
    <path clip-path="url(#p633ea0da02)" d="M 586.330918 119.788073 
L 586.330918 108.568073 
" style="fill:none;stroke:#000000;stroke-linecap:round;stroke-width:1.5;"/>
   </g>
   <g id="line2d_17">
    <path clip-path="url(#p633ea0da02)" d="M 574.450918 108.568073 
L 598.210918 108.568073 
" style="fill:none;stroke:#000000;stroke-linecap:round;stroke-width:1.5;"/>
   </g>
   <g id="line2d_18">
    <path clip-path="url(#p633ea0da02)" d="M 580.390918 108.568073 
L 569.698918 96.787073 
L 563.758918 96.787073 
" style="fill:none;stroke:#000000;stroke-linecap:round;stroke-width:1.5;"/>
   </g>
   <g id="line2d_19">
    <path clip-path="url(#p633ea0da02)" d="M 586.330918 119.788073 
L 586.330918 142.738073 
L 586.330918 165.688073 
" style="fill:none;stroke:#000000;stroke-linecap:round;stroke-width:1.5;"/>
   </g>
   <g id="line2d_20">
    <path clip-path="url(#p633ea0da02)" d="M 586.330918 165.688073 
" style="fill:none;stroke:#000000;stroke-linecap:round;stroke-width:1.5;"/>
   </g>
   <g id="line2d_21">
    <path clip-path="url(#p633ea0da02)" d="M 586.330918 165.688073 
L 570.130918 165.688073 
L 553.930918 165.688073 
" style="fill:none;stroke:#000000;stroke-linecap:round;stroke-width:1.5;"/>
   </g>
   <g id="line2d_22">
    <path clip-path="url(#p633ea0da02)" d="M 537.298918 177.469073 
L 547.990918 165.688073 
L 553.930918 165.688073 
" style="fill:none;stroke:#000000;stroke-linecap:round;stroke-width:1.5;"/>
   </g>
   <g id="line2d_23">
    <path clip-path="url(#p633ea0da02)" d="M 531.358918 188.689073 
L 531.358918 177.469073 
" style="fill:none;stroke:#000000;stroke-linecap:round;stroke-width:1.5;"/>
   </g>
   <g id="line2d_24">
    <path clip-path="url(#p633ea0da02)" d="M 519.478918 177.469073 
L 543.238918 177.469073 
" style="fill:none;stroke:#000000;stroke-linecap:round;stroke-width:1.5;"/>
   </g>
   <g id="line2d_25">
    <path clip-path="url(#p633ea0da02)" d="M 525.418918 177.469073 
L 514.726918 165.688073 
L 508.786918 165.688073 
" style="fill:none;stroke:#000000;stroke-linecap:round;stroke-width:1.5;"/>
   </g>
   <g id="line2d_26">
    <path clip-path="url(#p633ea0da02)" d="M 508.786918 165.688073 
L 508.786918 131.237573 
L 508.786918 96.787073 
" style="fill:none;stroke:#000000;stroke-linecap:round;stroke-width:1.5;"/>
   </g>
   <g id="line2d_27">
    <path clip-path="url(#p633ea0da02)" d="M 508.786918 96.787073 
" style="fill:none;stroke:#000000;stroke-linecap:round;stroke-width:1.5;"/>
   </g>
   <g id="line2d_28">
    <path clip-path="url(#p633ea0da02)" d="M 531.358918 188.689073 
L 531.358918 211.639073 
L 531.358918 234.589073 
" style="fill:none;stroke:#000000;stroke-linecap:round;stroke-width:1.5;"/>
   </g>
   <g id="line2d_29">
    <path clip-path="url(#p633ea0da02)" d="M 531.358918 234.589073 
" style="fill:none;stroke:#000000;stroke-linecap:round;stroke-width:1.5;"/>
   </g>
   <g id="line2d_30">
    <path clip-path="url(#p633ea0da02)" d="M 531.358918 326.389073 
L 531.358918 285.844073 
M 539.458918 275.134073 
L 523.258918 275.134073 
M 531.358918 275.134073 
L 531.358918 234.589073 
" style="fill:none;stroke:#000000;stroke-linecap:round;stroke-width:1.5;"/>
   </g>
   <g id="line2d_31">
    <path clip-path="url(#p633ea0da02)" d="M 539.458918 275.134073 
L 542.698918 272.074073 
" style="fill:none;stroke:#000000;stroke-linecap:round;stroke-width:1.5;"/>
   </g>
   <g id="line2d_32">
    <path clip-path="url(#p633ea0da02)" d="M 523.258918 275.134073 
L 520.018918 278.194073 
" style="fill:none;stroke:#000000;stroke-linecap:round;stroke-width:1.5;"/>
   </g>
   <g id="line2d_33">
    <path clip-path="url(#p633ea0da02)" d="M 531.358918 326.389073 
" style="fill:none;stroke:#000000;stroke-linecap:round;stroke-width:1.5;"/>
   </g>
   <g id="line2d_34">
    <path clip-path="url(#p633ea0da02)" d="M 531.358918 326.389073 
L 531.358918 338.629073 
L 523.258918 338.629073 
L 539.458918 338.629073 
M 525.688918 342.301073 
L 537.028918 342.301073 
M 529.738918 345.973073 
L 532.978918 345.973073 
" style="fill:none;stroke:#000000;stroke-linecap:round;stroke-width:1.5;"/>
   </g>
   <g id="line2d_35">
    <path clip-path="url(#p633ea0da02)" d="M 531.358918 326.389073 
L 482.758918 326.389073 
L 434.158918 326.389073 
" style="fill:none;stroke:#000000;stroke-linecap:round;stroke-width:1.5;"/>
   </g>
   <g id="line2d_36">
    <path clip-path="url(#p633ea0da02)" d="M 434.158918 326.389073 
" style="fill:none;stroke:#000000;stroke-linecap:round;stroke-width:1.5;"/>
   </g>
   <g id="line2d_37">
    <path clip-path="url(#p633ea0da02)" d="M 434.158918 234.589073 
L 434.158918 277.735073 
M 426.058918 277.735073 
L 442.258918 277.735073 
M 426.058918 283.243073 
L 442.258918 283.243073 
M 434.158918 283.243073 
L 434.158918 326.389073 
" style="fill:none;stroke:#000000;stroke-linecap:round;stroke-width:1.5;"/>
   </g>
   <g id="line2d_38">
    <path clip-path="url(#p633ea0da02)" d="M 434.158918 234.589073 
" style="fill:none;stroke:#000000;stroke-linecap:round;stroke-width:1.5;"/>
   </g>
   <g id="line2d_39">
    <path clip-path="url(#p633ea0da02)" d="M 434.158918 234.589073 
L 482.758918 234.589073 
L 531.358918 234.589073 
" style="fill:none;stroke:#000000;stroke-linecap:round;stroke-width:1.5;"/>
   </g>
   <g id="line2d_40">
    <path clip-path="url(#p633ea0da02)" d="M 434.158918 234.589073 
L 434.158918 180.988073 
L 426.058918 178.438073 
L 442.258918 173.338073 
L 426.058918 168.238073 
L 442.258918 163.138073 
L 426.058918 158.038073 
L 442.258918 152.938073 
L 434.158918 150.388073 
L 434.158918 96.787073 
" style="fill:none;stroke:#000000;stroke-linecap:round;stroke-width:1.5;"/>
   </g>
   <g id="line2d_41">
    <path clip-path="url(#p633ea0da02)" d="M 434.158918 96.787073 
" style="fill:none;stroke:#000000;stroke-linecap:round;stroke-width:1.5;"/>
   </g>
   <g id="line2d_42">
    <path clip-path="url(#p633ea0da02)" d="M 336.958918 96.787073 
" style="fill:none;stroke:#000000;stroke-linecap:round;stroke-width:1.5;"/>
   </g>
   <g id="line2d_43">
    <path clip-path="url(#p633ea0da02)" d="M 336.958918 96.787073 
L 336.958918 208.834073 
M 328.858918 208.834073 
L 345.058918 208.834073 
M 328.858918 214.342073 
L 345.058918 214.342073 
M 336.958918 214.342073 
L 336.958918 326.389073 
" style="fill:none;stroke:#000000;stroke-linecap:round;stroke-width:1.5;"/>
   </g>
   <g id="line2d_44">
    <path clip-path="url(#p633ea0da02)" d="M 336.958918 326.389073 
" style="fill:none;stroke:#000000;stroke-linecap:round;stroke-width:1.5;"/>
   </g>
   <g id="line2d_45">
    <path clip-path="url(#p633ea0da02)" d="M 531.358918 326.389073 
L 333.028139 326.389073 
L 134.69736 326.389073 
" style="fill:none;stroke:#000000;stroke-linecap:round;stroke-width:1.5;"/>
   </g>
   <g id="line2d_46">
    <path clip-path="url(#p633ea0da02)" d="M 134.69736 326.389073 
L 134.69736 211.588073 
L 134.69736 96.787073 
" style="fill:none;stroke:#000000;stroke-linecap:round;stroke-width:1.5;"/>
   </g>
   <g id="line2d_47">
    <path clip-path="url(#p633ea0da02)" d="M 586.330918 165.688073 
L 618.730918 165.688073 
L 621.430918 158.038073 
L 626.830918 173.338073 
L 632.230918 158.038073 
L 637.630918 173.338073 
L 643.030918 158.038073 
L 648.430918 173.338073 
L 651.130918 165.688073 
L 683.530918 165.688073 
" style="fill:none;stroke:#000000;stroke-linecap:round;stroke-width:1.5;"/>
   </g>
   <g id="line2d_48">
    <path clip-path="url(#p633ea0da02)" d="M 683.530918 165.688073 
" style="fill:none;stroke:#000000;stroke-linecap:round;stroke-width:1.5;"/>
   </g>
   <g id="line2d_49">
    <path clip-path="url(#p633ea0da02)" d="M 683.530918 165.688073 
L 683.530918 131.237573 
L 683.530918 96.787073 
" style="fill:none;stroke:#000000;stroke-linecap:round;stroke-width:1.5;"/>
   </g>
   <g id="line2d_50">
    <path clip-path="url(#p633ea0da02)" d="M 683.530918 96.787073 
" style="fill:none;stroke:#000000;stroke-linecap:round;stroke-width:1.5;"/>
   </g>
   <g id="line2d_51">
    <path clip-path="url(#p633ea0da02)" d="M 683.530918 96.787073 
L 646.216918 96.787073 
L 608.902918 96.787073 
" style="fill:none;stroke:#000000;stroke-linecap:round;stroke-width:1.5;"/>
   </g>
   <g id="line2d_52">
    <path clip-path="url(#p633ea0da02)" d="M 683.530918 165.688073 
L 683.530918 243.284573 
M 691.630918 243.284573 
L 675.430918 243.284573 
M 691.630918 248.792573 
L 675.430918 248.792573 
M 683.530918 248.792573 
L 683.530918 326.389073 
" style="fill:none;stroke:#000000;stroke-linecap:round;stroke-width:1.5;"/>
   </g>
   <g id="line2d_53">
    <path clip-path="url(#p633ea0da02)" d="M 683.530918 326.389073 
" style="fill:none;stroke:#000000;stroke-linecap:round;stroke-width:1.5;"/>
   </g>
   <g id="line2d_54">
    <path clip-path="url(#p633ea0da02)" d="M 683.530918 326.389073 
L 607.444918 326.389073 
L 531.358918 326.389073 
" style="fill:none;stroke:#000000;stroke-linecap:round;stroke-width:1.5;"/>
   </g>
   <g id="line2d_55">
    <path clip-path="url(#p633ea0da02)" d="M 683.530918 326.389073 
L 732.130918 326.389073 
L 780.730918 326.389073 
" style="fill:none;stroke:#000000;stroke-linecap:round;stroke-width:1.5;"/>
   </g>
   <g id="line2d_56">
    <path clip-path="url(#p633ea0da02)" d="M 780.730918 326.389073 
" style="fill:none;stroke:#000000;stroke-linecap:round;stroke-width:1.5;"/>
   </g>
   <g id="line2d_57">
    <path clip-path="url(#p633ea0da02)" d="M 780.730918 326.389073 
L 780.730918 226.888073 
L 772.630918 224.338073 
L 788.830918 219.238073 
L 772.630918 214.138073 
L 788.830918 209.038073 
L 772.630918 203.938073 
L 788.830918 198.838073 
L 780.730918 196.288073 
L 780.730918 96.787073 
" style="fill:none;stroke:#000000;stroke-linecap:round;stroke-width:1.5;"/>
   </g>
   <g id="line2d_58">
    <path clip-path="url(#p633ea0da02)" d="M 780.730918 96.787073 
" style="fill:none;stroke:#000000;stroke-linecap:round;stroke-width:1.5;"/>
   </g>
   <g id="line2d_59">
    <path clip-path="url(#p633ea0da02)" d="M 780.730918 96.787073 
L 732.130918 96.787073 
L 683.530918 96.787073 
" style="fill:none;stroke:#000000;stroke-linecap:round;stroke-width:1.5;"/>
   </g>
   <g id="line2d_60">
    <path clip-path="url(#p633ea0da02)" d="M 780.730918 96.787073 
L 829.330918 96.787073 
L 877.930918 96.787073 
" style="fill:none;stroke:#000000;stroke-linecap:round;stroke-width:1.5;"/>
   </g>
   <g id="line2d_61">
    <path clip-path="url(#p633ea0da02)" d="M 877.930918 96.787073 
" style="fill:none;stroke:#000000;stroke-linecap:round;stroke-width:1.5;"/>
   </g>
   <g id="line2d_62">
    <path clip-path="url(#p633ea0da02)" d="M 877.930918 96.787073 
L 877.930918 196.288073 
M 877.930918 226.888073 
L 877.930918 326.389073 
" style="fill:none;stroke:#ffffff;stroke-linecap:round;stroke-width:1.5;"/>
   </g>
   <g id="line2d_63">
    <path clip-path="url(#p633ea0da02)" d="M 877.930918 326.389073 
" style="fill:none;stroke:#000000;stroke-linecap:round;stroke-width:1.5;"/>
   </g>
   <g id="line2d_64">
    <path clip-path="url(#p633ea0da02)" d="M 877.930918 326.389073 
L 829.330918 326.389073 
L 780.730918 326.389073 
" style="fill:none;stroke:#000000;stroke-linecap:round;stroke-width:1.5;"/>
   </g>
   <g id="patch_4">
    <path clip-path="url(#p633ea0da02)" d="M 239.511798 55.134948 
L 241.802824 68.117428 
L 228.056668 65.953681 
z
" style="fill:none;stroke:#000000;stroke-linejoin:miter;stroke-width:1.5;"/>
   </g>
   <g id="patch_5">
    <path clip-path="url(#p633ea0da02)" d="M 272.158918 99.082073 
C 272.803362 99.082073 273.421497 98.840257 273.877188 98.409883 
C 274.332878 97.979508 274.588918 97.395714 274.588918 96.787073 
C 274.588918 96.178432 274.332878 95.594637 273.877188 95.164263 
C 273.421497 94.733888 272.803362 94.492073 272.158918 94.492073 
C 271.514475 94.492073 270.896339 94.733888 270.440649 95.164263 
C 269.984958 95.594637 269.728918 96.178432 269.728918 96.787073 
C 269.728918 97.395714 269.984958 97.979508 270.440649 98.409883 
C 270.896339 98.840257 271.514475 99.082073 272.158918 99.082073 
z
" style="stroke:#000000;stroke-linejoin:miter;stroke-width:1.5;"/>
   </g>
   <g id="patch_6">
    <path clip-path="url(#p633ea0da02)" d="M 239.511798 138.439198 
L 241.802824 125.456717 
L 228.056668 127.620464 
z
" style="fill:none;stroke:#000000;stroke-linejoin:miter;stroke-width:1.5;"/>
   </g>
   <g id="patch_7">
    <path clip-path="url(#p633ea0da02)" d="M 203.428139 163.994475 
C 204.072582 163.994475 204.690718 163.752659 205.146408 163.322285 
C 205.602099 162.891911 205.858139 162.308116 205.858139 161.699475 
C 205.858139 161.090834 205.602099 160.507039 205.146408 160.076665 
C 204.690718 159.646291 204.072582 159.404475 203.428139 159.404475 
C 202.783695 159.404475 202.16556 159.646291 201.709869 160.076665 
C 201.254179 160.507039 200.998139 161.090834 200.998139 161.699475 
C 200.998139 162.308116 201.254179 162.891911 201.709869 163.322285 
C 202.16556 163.752659 202.783695 163.994475 203.428139 163.994475 
z
" style="stroke:#000000;stroke-linejoin:miter;stroke-width:1.5;"/>
   </g>
   <g id="patch_8">
    <path clip-path="url(#p633ea0da02)" d="M 159.325889 130.866084 
L 173.072045 133.029831 
L 170.781019 120.04735 
z
" style="fill:none;stroke:#000000;stroke-linejoin:miter;stroke-width:1.5;"/>
   </g>
   <g id="patch_9">
    <path clip-path="url(#p633ea0da02)" d="M 134.69736 99.082073 
C 135.341803 99.082073 135.959939 98.840257 136.415629 98.409883 
C 136.87132 97.979508 137.12736 97.395714 137.12736 96.787073 
C 137.12736 96.178432 136.87132 95.594637 136.415629 95.164263 
C 135.959939 94.733888 135.341803 94.492073 134.69736 94.492073 
C 134.052916 94.492073 133.434781 94.733888 132.97909 95.164263 
C 132.5234 95.594637 132.26736 96.178432 132.26736 96.787073 
C 132.26736 97.395714 132.5234 97.979508 132.97909 98.409883 
C 133.434781 98.840257 134.052916 99.082073 134.69736 99.082073 
z
" style="stroke:#000000;stroke-linejoin:miter;stroke-width:1.5;"/>
   </g>
   <g id="patch_10">
    <path clip-path="url(#p633ea0da02)" d="M 159.325889 62.708061 
L 173.072045 60.544315 
L 170.781019 73.526795 
z
" style="fill:none;stroke:#000000;stroke-linejoin:miter;stroke-width:1.5;"/>
   </g>
   <g id="patch_11">
    <path clip-path="url(#p633ea0da02)" d="M 203.428139 34.16967 
C 204.072582 34.16967 204.690718 33.927854 205.146408 33.49748 
C 205.602099 33.067106 205.858139 32.483311 205.858139 31.87467 
C 205.858139 31.266029 205.602099 30.682234 205.146408 30.25186 
C 204.690718 29.821486 204.072582 29.57967 203.428139 29.57967 
C 202.783695 29.57967 202.16556 29.821486 201.709869 30.25186 
C 201.254179 30.682234 200.998139 31.266029 200.998139 31.87467 
C 200.998139 32.483311 201.254179 33.067106 201.709869 33.49748 
C 202.16556 33.927854 202.783695 34.16967 203.428139 34.16967 
z
" style="stroke:#000000;stroke-linejoin:miter;stroke-width:1.5;"/>
   </g>
   <g id="patch_12">
    <path clip-path="url(#p633ea0da02)" d="M 57.628139 163.994475 
C 58.272582 163.994475 58.890718 163.752659 59.346408 163.322285 
C 59.802099 162.891911 60.058139 162.308116 60.058139 161.699475 
C 60.058139 161.090834 59.802099 160.507039 59.346408 160.076665 
C 58.890718 159.646291 58.272582 159.404475 57.628139 159.404475 
C 56.983695 159.404475 56.36556 159.646291 55.909869 160.076665 
C 55.454179 160.507039 55.198139 161.090834 55.198139 161.699475 
C 55.198139 162.308116 55.454179 162.891911 55.909869 163.322285 
C 56.36556 163.752659 56.983695 163.994475 57.628139 163.994475 
z
" style="fill:#ffffff;stroke:#000000;stroke-linejoin:miter;stroke-width:1.5;"/>
   </g>
   <g id="patch_13">
    <path clip-path="url(#p633ea0da02)" d="M 57.628139 34.16967 
C 58.272582 34.16967 58.890718 33.927854 59.346408 33.49748 
C 59.802099 33.067106 60.058139 32.483311 60.058139 31.87467 
C 60.058139 31.266029 59.802099 30.682234 59.346408 30.25186 
C 58.890718 29.821486 58.272582 29.57967 57.628139 29.57967 
C 56.983695 29.57967 56.36556 29.821486 55.909869 30.25186 
C 55.454179 30.682234 55.198139 31.266029 55.198139 31.87467 
C 55.198139 32.483311 55.454179 33.067106 55.909869 33.49748 
C 56.36556 33.927854 56.983695 34.16967 57.628139 34.16967 
z
" style="fill:#ffffff;stroke:#000000;stroke-linejoin:miter;stroke-width:1.5;"/>
   </g>
   <g id="patch_14">
    <path clip-path="url(#p633ea0da02)" d="M 586.330918 119.788073 
C 591.056837 119.788073 595.589831 118.014758 598.931561 114.85868 
C 602.27329 111.702602 604.150918 107.421441 604.150918 102.958073 
C 604.150918 98.494704 602.27329 94.213543 598.931561 91.057466 
C 595.589831 87.901388 591.056837 86.128073 586.330918 86.128073 
C 581.604999 86.128073 577.072005 87.901388 573.730275 91.057466 
C 570.388546 94.213543 568.510918 98.494704 568.510918 102.958073 
C 568.510918 107.421441 570.388546 111.702602 573.730275 114.85868 
C 577.072005 118.014758 581.604999 119.788073 586.330918 119.788073 
z
" style="fill:none;stroke:#000000;stroke-linejoin:miter;stroke-width:1.5;"/>
   </g>
   <g id="patch_15">
    <path clip-path="url(#p633ea0da02)" d="M 586.330918 167.983073 
C 586.975362 167.983073 587.593497 167.741257 588.049188 167.310883 
C 588.504878 166.880508 588.760918 166.296714 588.760918 165.688073 
C 588.760918 165.079432 588.504878 164.495637 588.049188 164.065263 
C 587.593497 163.634888 586.975362 163.393073 586.330918 163.393073 
C 585.686475 163.393073 585.068339 163.634888 584.612649 164.065263 
C 584.156958 164.495637 583.900918 165.079432 583.900918 165.688073 
C 583.900918 166.296714 584.156958 166.880508 584.612649 167.310883 
C 585.068339 167.741257 585.686475 167.983073 586.330918 167.983073 
z
" style="stroke:#000000;stroke-linejoin:miter;stroke-width:1.5;"/>
   </g>
   <g id="patch_16">
    <path clip-path="url(#p633ea0da02)" d="M 531.358918 188.689073 
C 536.084837 188.689073 540.617831 186.915758 543.959561 183.75968 
C 547.30129 180.603602 549.178918 176.322441 549.178918 171.859073 
C 549.178918 167.395704 547.30129 163.114543 543.959561 159.958466 
C 540.617831 156.802388 536.084837 155.029073 531.358918 155.029073 
C 526.632999 155.029073 522.100005 156.802388 518.758275 159.958466 
C 515.416546 163.114543 513.538918 167.395704 513.538918 171.859073 
C 513.538918 176.322441 515.416546 180.603602 518.758275 183.75968 
C 522.100005 186.915758 526.632999 188.689073 531.358918 188.689073 
z
" style="fill:none;stroke:#000000;stroke-linejoin:miter;stroke-width:1.5;"/>
   </g>
   <g id="patch_17">
    <path clip-path="url(#p633ea0da02)" d="M 508.786918 99.082073 
C 509.431362 99.082073 510.049497 98.840257 510.505188 98.409883 
C 510.960878 97.979508 511.216918 97.395714 511.216918 96.787073 
C 511.216918 96.178432 510.960878 95.594637 510.505188 95.164263 
C 510.049497 94.733888 509.431362 94.492073 508.786918 94.492073 
C 508.142475 94.492073 507.524339 94.733888 507.068649 95.164263 
C 506.612958 95.594637 506.356918 96.178432 506.356918 96.787073 
C 506.356918 97.395714 506.612958 97.979508 507.068649 98.409883 
C 507.524339 98.840257 508.142475 99.082073 508.786918 99.082073 
z
" style="stroke:#000000;stroke-linejoin:miter;stroke-width:1.5;"/>
   </g>
   <g id="patch_18">
    <path clip-path="url(#p633ea0da02)" d="M 531.358918 236.884073 
C 532.003362 236.884073 532.621497 236.642257 533.077188 236.211883 
C 533.532878 235.781508 533.788918 235.197714 533.788918 234.589073 
C 533.788918 233.980432 533.532878 233.396637 533.077188 232.966263 
C 532.621497 232.535888 532.003362 232.294073 531.358918 232.294073 
C 530.714475 232.294073 530.096339 232.535888 529.640649 232.966263 
C 529.184958 233.396637 528.928918 233.980432 528.928918 234.589073 
C 528.928918 235.197714 529.184958 235.781508 529.640649 236.211883 
C 530.096339 236.642257 530.714475 236.884073 531.358918 236.884073 
z
" style="stroke:#000000;stroke-linejoin:miter;stroke-width:1.5;"/>
   </g>
   <g id="patch_19">
    <path clip-path="url(#p633ea0da02)" d="M 539.458918 285.844073 
L 531.358918 275.134073 
L 523.258918 285.844073 
z
" style="fill:none;stroke:#000000;stroke-linejoin:miter;stroke-width:1.5;"/>
   </g>
   <g id="patch_20">
    <path clip-path="url(#p633ea0da02)" d="M 531.358918 328.684073 
C 532.003362 328.684073 532.621497 328.442257 533.077188 328.011883 
C 533.532878 327.581508 533.788918 326.997714 533.788918 326.389073 
C 533.788918 325.780432 533.532878 325.196637 533.077188 324.766263 
C 532.621497 324.335888 532.003362 324.094073 531.358918 324.094073 
C 530.714475 324.094073 530.096339 324.335888 529.640649 324.766263 
C 529.184958 325.196637 528.928918 325.780432 528.928918 326.389073 
C 528.928918 326.997714 529.184958 327.581508 529.640649 328.011883 
C 530.096339 328.442257 530.714475 328.684073 531.358918 328.684073 
z
" style="stroke:#000000;stroke-linejoin:miter;stroke-width:1.5;"/>
   </g>
   <g id="patch_21">
    <path clip-path="url(#p633ea0da02)" d="M 434.158918 328.684073 
C 434.803362 328.684073 435.421497 328.442257 435.877188 328.011883 
C 436.332878 327.581508 436.588918 326.997714 436.588918 326.389073 
C 436.588918 325.780432 436.332878 325.196637 435.877188 324.766263 
C 435.421497 324.335888 434.803362 324.094073 434.158918 324.094073 
C 433.514475 324.094073 432.896339 324.335888 432.440649 324.766263 
C 431.984958 325.196637 431.728918 325.780432 431.728918 326.389073 
C 431.728918 326.997714 431.984958 327.581508 432.440649 328.011883 
C 432.896339 328.442257 433.514475 328.684073 434.158918 328.684073 
z
" style="stroke:#000000;stroke-linejoin:miter;stroke-width:1.5;"/>
   </g>
   <g id="patch_22">
    <path clip-path="url(#p633ea0da02)" d="M 434.158918 236.884073 
C 434.803362 236.884073 435.421497 236.642257 435.877188 236.211883 
C 436.332878 235.781508 436.588918 235.197714 436.588918 234.589073 
C 436.588918 233.980432 436.332878 233.396637 435.877188 232.966263 
C 435.421497 232.535888 434.803362 232.294073 434.158918 232.294073 
C 433.514475 232.294073 432.896339 232.535888 432.440649 232.966263 
C 431.984958 233.396637 431.728918 233.980432 431.728918 234.589073 
C 431.728918 235.197714 431.984958 235.781508 432.440649 236.211883 
C 432.896339 236.642257 433.514475 236.884073 434.158918 236.884073 
z
" style="stroke:#000000;stroke-linejoin:miter;stroke-width:1.5;"/>
   </g>
   <g id="patch_23">
    <path clip-path="url(#p633ea0da02)" d="M 434.158918 99.082073 
C 434.803362 99.082073 435.421497 98.840257 435.877188 98.409883 
C 436.332878 97.979508 436.588918 97.395714 436.588918 96.787073 
C 436.588918 96.178432 436.332878 95.594637 435.877188 95.164263 
C 435.421497 94.733888 434.803362 94.492073 434.158918 94.492073 
C 433.514475 94.492073 432.896339 94.733888 432.440649 95.164263 
C 431.984958 95.594637 431.728918 96.178432 431.728918 96.787073 
C 431.728918 97.395714 431.984958 97.979508 432.440649 98.409883 
C 432.896339 98.840257 433.514475 99.082073 434.158918 99.082073 
z
" style="stroke:#000000;stroke-linejoin:miter;stroke-width:1.5;"/>
   </g>
   <g id="patch_24">
    <path clip-path="url(#p633ea0da02)" d="M 336.958918 99.082073 
C 337.603362 99.082073 338.221497 98.840257 338.677188 98.409883 
C 339.132878 97.979508 339.388918 97.395714 339.388918 96.787073 
C 339.388918 96.178432 339.132878 95.594637 338.677188 95.164263 
C 338.221497 94.733888 337.603362 94.492073 336.958918 94.492073 
C 336.314475 94.492073 335.696339 94.733888 335.240649 95.164263 
C 334.784958 95.594637 334.528918 96.178432 334.528918 96.787073 
C 334.528918 97.395714 334.784958 97.979508 335.240649 98.409883 
C 335.696339 98.840257 336.314475 99.082073 336.958918 99.082073 
z
" style="stroke:#000000;stroke-linejoin:miter;stroke-width:1.5;"/>
   </g>
   <g id="patch_25">
    <path clip-path="url(#p633ea0da02)" d="M 336.958918 328.684073 
C 337.603362 328.684073 338.221497 328.442257 338.677188 328.011883 
C 339.132878 327.581508 339.388918 326.997714 339.388918 326.389073 
C 339.388918 325.780432 339.132878 325.196637 338.677188 324.766263 
C 338.221497 324.335888 337.603362 324.094073 336.958918 324.094073 
C 336.314475 324.094073 335.696339 324.335888 335.240649 324.766263 
C 334.784958 325.196637 334.528918 325.780432 334.528918 326.389073 
C 334.528918 326.997714 334.784958 327.581508 335.240649 328.011883 
C 335.696339 328.442257 336.314475 328.684073 336.958918 328.684073 
z
" style="stroke:#000000;stroke-linejoin:miter;stroke-width:1.5;"/>
   </g>
   <g id="patch_26">
    <path clip-path="url(#p633ea0da02)" d="M 683.530918 167.983073 
C 684.175362 167.983073 684.793497 167.741257 685.249188 167.310883 
C 685.704878 166.880508 685.960918 166.296714 685.960918 165.688073 
C 685.960918 165.079432 685.704878 164.495637 685.249188 164.065263 
C 684.793497 163.634888 684.175362 163.393073 683.530918 163.393073 
C 682.886475 163.393073 682.268339 163.634888 681.812649 164.065263 
C 681.356958 164.495637 681.100918 165.079432 681.100918 165.688073 
C 681.100918 166.296714 681.356958 166.880508 681.812649 167.310883 
C 682.268339 167.741257 682.886475 167.983073 683.530918 167.983073 
z
" style="stroke:#000000;stroke-linejoin:miter;stroke-width:1.5;"/>
   </g>
   <g id="patch_27">
    <path clip-path="url(#p633ea0da02)" d="M 683.530918 99.082073 
C 684.175362 99.082073 684.793497 98.840257 685.249188 98.409883 
C 685.704878 97.979508 685.960918 97.395714 685.960918 96.787073 
C 685.960918 96.178432 685.704878 95.594637 685.249188 95.164263 
C 684.793497 94.733888 684.175362 94.492073 683.530918 94.492073 
C 682.886475 94.492073 682.268339 94.733888 681.812649 95.164263 
C 681.356958 95.594637 681.100918 96.178432 681.100918 96.787073 
C 681.100918 97.395714 681.356958 97.979508 681.812649 98.409883 
C 682.268339 98.840257 682.886475 99.082073 683.530918 99.082073 
z
" style="stroke:#000000;stroke-linejoin:miter;stroke-width:1.5;"/>
   </g>
   <g id="patch_28">
    <path clip-path="url(#p633ea0da02)" d="M 683.530918 328.684073 
C 684.175362 328.684073 684.793497 328.442257 685.249188 328.011883 
C 685.704878 327.581508 685.960918 326.997714 685.960918 326.389073 
C 685.960918 325.780432 685.704878 325.196637 685.249188 324.766263 
C 684.793497 324.335888 684.175362 324.094073 683.530918 324.094073 
C 682.886475 324.094073 682.268339 324.335888 681.812649 324.766263 
C 681.356958 325.196637 681.100918 325.780432 681.100918 326.389073 
C 681.100918 326.997714 681.356958 327.581508 681.812649 328.011883 
C 682.268339 328.442257 682.886475 328.684073 683.530918 328.684073 
z
" style="stroke:#000000;stroke-linejoin:miter;stroke-width:1.5;"/>
   </g>
   <g id="patch_29">
    <path clip-path="url(#p633ea0da02)" d="M 780.730918 328.684073 
C 781.375362 328.684073 781.993497 328.442257 782.449188 328.011883 
C 782.904878 327.581508 783.160918 326.997714 783.160918 326.389073 
C 783.160918 325.780432 782.904878 325.196637 782.449188 324.766263 
C 781.993497 324.335888 781.375362 324.094073 780.730918 324.094073 
C 780.086475 324.094073 779.468339 324.335888 779.012649 324.766263 
C 778.556958 325.196637 778.300918 325.780432 778.300918 326.389073 
C 778.300918 326.997714 778.556958 327.581508 779.012649 328.011883 
C 779.468339 328.442257 780.086475 328.684073 780.730918 328.684073 
z
" style="stroke:#000000;stroke-linejoin:miter;stroke-width:1.5;"/>
   </g>
   <g id="patch_30">
    <path clip-path="url(#p633ea0da02)" d="M 780.730918 99.082073 
C 781.375362 99.082073 781.993497 98.840257 782.449188 98.409883 
C 782.904878 97.979508 783.160918 97.395714 783.160918 96.787073 
C 783.160918 96.178432 782.904878 95.594637 782.449188 95.164263 
C 781.993497 94.733888 781.375362 94.492073 780.730918 94.492073 
C 780.086475 94.492073 779.468339 94.733888 779.012649 95.164263 
C 778.556958 95.594637 778.300918 96.178432 778.300918 96.787073 
C 778.300918 97.395714 778.556958 97.979508 779.012649 98.409883 
C 779.468339 98.840257 780.086475 99.082073 780.730918 99.082073 
z
" style="stroke:#000000;stroke-linejoin:miter;stroke-width:1.5;"/>
   </g>
   <g id="patch_31">
    <path clip-path="url(#p633ea0da02)" d="M 877.930918 99.082073 
C 878.575362 99.082073 879.193497 98.840257 879.649188 98.409883 
C 880.104878 97.979508 880.360918 97.395714 880.360918 96.787073 
C 880.360918 96.178432 880.104878 95.594637 879.649188 95.164263 
C 879.193497 94.733888 878.575362 94.492073 877.930918 94.492073 
C 877.286475 94.492073 876.668339 94.733888 876.212649 95.164263 
C 875.756958 95.594637 875.500918 96.178432 875.500918 96.787073 
C 875.500918 97.395714 875.756958 97.979508 876.212649 98.409883 
C 876.668339 98.840257 877.286475 99.082073 877.930918 99.082073 
z
" style="fill:#ffffff;stroke:#000000;stroke-linejoin:miter;stroke-width:1.5;"/>
   </g>
   <g id="patch_32">
    <path clip-path="url(#p633ea0da02)" d="M 877.930918 328.684073 
C 878.575362 328.684073 879.193497 328.442257 879.649188 328.011883 
C 880.104878 327.581508 880.360918 326.997714 880.360918 326.389073 
C 880.360918 325.780432 880.104878 325.196637 879.649188 324.766263 
C 879.193497 324.335888 878.575362 324.094073 877.930918 324.094073 
C 877.286475 324.094073 876.668339 324.335888 876.212649 324.766263 
C 875.756958 325.196637 875.500918 325.780432 875.500918 326.389073 
C 875.500918 326.997714 875.756958 327.581508 876.212649 328.011883 
C 876.668339 328.442257 877.286475 328.684073 877.930918 328.684073 
z
" style="fill:#ffffff;stroke:#000000;stroke-linejoin:miter;stroke-width:1.5;"/>
   </g>
   <g id="text_1">
    <!-- AC IN -->
    <defs>
     <path d="M 34.1875 63.1875 
L 20.796875 26.90625 
L 47.609375 26.90625 
z
M 28.609375 72.90625 
L 39.796875 72.90625 
L 67.578125 0 
L 57.328125 0 
L 50.6875 18.703125 
L 17.828125 18.703125 
L 11.1875 0 
L 0.78125 0 
z
" id="DejaVuSans-41"/>
     <path d="M 64.40625 67.28125 
L 64.40625 56.890625 
Q 59.421875 61.53125 53.78125 63.8125 
Q 48.140625 66.109375 41.796875 66.109375 
Q 29.296875 66.109375 22.65625 58.46875 
Q 16.015625 50.828125 16.015625 36.375 
Q 16.015625 21.96875 22.65625 14.328125 
Q 29.296875 6.6875 41.796875 6.6875 
Q 48.140625 6.6875 53.78125 8.984375 
Q 59.421875 11.28125 64.40625 15.921875 
L 64.40625 5.609375 
Q 59.234375 2.09375 53.4375 0.328125 
Q 47.65625 -1.421875 41.21875 -1.421875 
Q 24.65625 -1.421875 15.125 8.703125 
Q 5.609375 18.84375 5.609375 36.375 
Q 5.609375 53.953125 15.125 64.078125 
Q 24.65625 74.21875 41.21875 74.21875 
Q 47.75 74.21875 53.53125 72.484375 
Q 59.328125 70.75 64.40625 67.28125 
z
" id="DejaVuSans-43"/>
     <path id="DejaVuSans-20"/>
     <path d="M 9.8125 72.90625 
L 19.671875 72.90625 
L 19.671875 0 
L 9.8125 0 
z
" id="DejaVuSans-49"/>
     <path d="M 9.8125 72.90625 
L 23.09375 72.90625 
L 55.421875 11.921875 
L 55.421875 72.90625 
L 64.984375 72.90625 
L 64.984375 0 
L 51.703125 0 
L 19.390625 60.984375 
L 19.390625 0 
L 9.8125 0 
z
" id="DejaVuSans-4e"/>
    </defs>
    <g transform="translate(13.738139 101.202073)scale(0.16 -0.16)">
     <use xlink:href="#DejaVuSans-41"/>
     <use x="68.392578" xlink:href="#DejaVuSans-43"/>
     <use x="138.216797" xlink:href="#DejaVuSans-20"/>
     <use x="170.003906" xlink:href="#DejaVuSans-49"/>
     <use x="199.496094" xlink:href="#DejaVuSans-4e"/>
    </g>
   </g>
   <g id="text_2">
    <!-- Q2 -->
    <defs>
     <path d="M 39.40625 66.21875 
Q 28.65625 66.21875 22.328125 58.203125 
Q 16.015625 50.203125 16.015625 36.375 
Q 16.015625 22.609375 22.328125 14.59375 
Q 28.65625 6.59375 39.40625 6.59375 
Q 50.140625 6.59375 56.421875 14.59375 
Q 62.703125 22.609375 62.703125 36.375 
Q 62.703125 50.203125 56.421875 58.203125 
Q 50.140625 66.21875 39.40625 66.21875 
z
M 53.21875 1.3125 
L 66.21875 -12.890625 
L 54.296875 -12.890625 
L 43.5 -1.21875 
Q 41.890625 -1.3125 41.03125 -1.359375 
Q 40.1875 -1.421875 39.40625 -1.421875 
Q 24.03125 -1.421875 14.8125 8.859375 
Q 5.609375 19.140625 5.609375 36.375 
Q 5.609375 53.65625 14.8125 63.9375 
Q 24.03125 74.21875 39.40625 74.21875 
Q 54.734375 74.21875 63.90625 63.9375 
Q 73.09375 53.65625 73.09375 36.375 
Q 73.09375 23.6875 67.984375 14.640625 
Q 62.890625 5.609375 53.21875 1.3125 
z
" id="DejaVuSans-51"/>
     <path d="M 19.1875 8.296875 
L 53.609375 8.296875 
L 53.609375 0 
L 7.328125 0 
L 7.328125 8.296875 
Q 12.9375 14.109375 22.625 23.890625 
Q 32.328125 33.6875 34.8125 36.53125 
Q 39.546875 41.84375 41.421875 45.53125 
Q 43.3125 49.21875 43.3125 52.78125 
Q 43.3125 58.59375 39.234375 62.25 
Q 35.15625 65.921875 28.609375 65.921875 
Q 23.96875 65.921875 18.8125 64.3125 
Q 13.671875 62.703125 7.8125 59.421875 
L 7.8125 69.390625 
Q 13.765625 71.78125 18.9375 73 
Q 24.125 74.21875 28.421875 74.21875 
Q 39.75 74.21875 46.484375 68.546875 
Q 53.21875 62.890625 53.21875 53.421875 
Q 53.21875 48.921875 51.53125 44.890625 
Q 49.859375 40.875 45.40625 35.40625 
Q 44.1875 33.984375 37.640625 27.21875 
Q 31.109375 20.453125 19.1875 8.296875 
z
" id="DejaVuSans-32"/>
    </defs>
    <g transform="translate(574.943418 61.824073)scale(0.16 -0.16)">
     <use xlink:href="#DejaVuSans-51"/>
     <use x="78.710938" xlink:href="#DejaVuSans-32"/>
    </g>
    <!-- 2n3055 -->
    <defs>
     <path d="M 54.890625 33.015625 
L 54.890625 0 
L 45.90625 0 
L 45.90625 32.71875 
Q 45.90625 40.484375 42.875 44.328125 
Q 39.84375 48.1875 33.796875 48.1875 
Q 26.515625 48.1875 22.3125 43.546875 
Q 18.109375 38.921875 18.109375 30.90625 
L 18.109375 0 
L 9.078125 0 
L 9.078125 54.6875 
L 18.109375 54.6875 
L 18.109375 46.1875 
Q 21.34375 51.125 25.703125 53.5625 
Q 30.078125 56 35.796875 56 
Q 45.21875 56 50.046875 50.171875 
Q 54.890625 44.34375 54.890625 33.015625 
z
" id="DejaVuSans-6e"/>
     <path d="M 40.578125 39.3125 
Q 47.65625 37.796875 51.625 33 
Q 55.609375 28.21875 55.609375 21.1875 
Q 55.609375 10.40625 48.1875 4.484375 
Q 40.765625 -1.421875 27.09375 -1.421875 
Q 22.515625 -1.421875 17.65625 -0.515625 
Q 12.796875 0.390625 7.625 2.203125 
L 7.625 11.71875 
Q 11.71875 9.328125 16.59375 8.109375 
Q 21.484375 6.890625 26.8125 6.890625 
Q 36.078125 6.890625 40.9375 10.546875 
Q 45.796875 14.203125 45.796875 21.1875 
Q 45.796875 27.640625 41.28125 31.265625 
Q 36.765625 34.90625 28.71875 34.90625 
L 20.21875 34.90625 
L 20.21875 43.015625 
L 29.109375 43.015625 
Q 36.375 43.015625 40.234375 45.921875 
Q 44.09375 48.828125 44.09375 54.296875 
Q 44.09375 59.90625 40.109375 62.90625 
Q 36.140625 65.921875 28.71875 65.921875 
Q 24.65625 65.921875 20.015625 65.03125 
Q 15.375 64.15625 9.8125 62.3125 
L 9.8125 71.09375 
Q 15.4375 72.65625 20.34375 73.4375 
Q 25.25 74.21875 29.59375 74.21875 
Q 40.828125 74.21875 47.359375 69.109375 
Q 53.90625 64.015625 53.90625 55.328125 
Q 53.90625 49.265625 50.4375 45.09375 
Q 46.96875 40.921875 40.578125 39.3125 
z
" id="DejaVuSans-33"/>
     <path d="M 31.78125 66.40625 
Q 24.171875 66.40625 20.328125 58.90625 
Q 16.5 51.421875 16.5 36.375 
Q 16.5 21.390625 20.328125 13.890625 
Q 24.171875 6.390625 31.78125 6.390625 
Q 39.453125 6.390625 43.28125 13.890625 
Q 47.125 21.390625 47.125 36.375 
Q 47.125 51.421875 43.28125 58.90625 
Q 39.453125 66.40625 31.78125 66.40625 
z
M 31.78125 74.21875 
Q 44.046875 74.21875 50.515625 64.515625 
Q 56.984375 54.828125 56.984375 36.375 
Q 56.984375 17.96875 50.515625 8.265625 
Q 44.046875 -1.421875 31.78125 -1.421875 
Q 19.53125 -1.421875 13.0625 8.265625 
Q 6.59375 17.96875 6.59375 36.375 
Q 6.59375 54.828125 13.0625 64.515625 
Q 19.53125 74.21875 31.78125 74.21875 
z
" id="DejaVuSans-30"/>
     <path d="M 10.796875 72.90625 
L 49.515625 72.90625 
L 49.515625 64.59375 
L 19.828125 64.59375 
L 19.828125 46.734375 
Q 21.96875 47.46875 24.109375 47.828125 
Q 26.265625 48.1875 28.421875 48.1875 
Q 40.625 48.1875 47.75 41.5 
Q 54.890625 34.8125 54.890625 23.390625 
Q 54.890625 11.625 47.5625 5.09375 
Q 40.234375 -1.421875 26.90625 -1.421875 
Q 22.3125 -1.421875 17.546875 -0.640625 
Q 12.796875 0.140625 7.71875 1.703125 
L 7.71875 11.625 
Q 12.109375 9.234375 16.796875 8.0625 
Q 21.484375 6.890625 26.703125 6.890625 
Q 35.15625 6.890625 40.078125 11.328125 
Q 45.015625 15.765625 45.015625 23.390625 
Q 45.015625 31 40.078125 35.4375 
Q 35.15625 39.890625 26.703125 39.890625 
Q 22.75 39.890625 18.8125 39.015625 
Q 14.890625 38.140625 10.796875 36.28125 
z
" id="DejaVuSans-35"/>
    </defs>
    <g transform="translate(555.810918 79.740573)scale(0.16 -0.16)">
     <use xlink:href="#DejaVuSans-32"/>
     <use x="63.623047" xlink:href="#DejaVuSans-6e"/>
     <use x="127.001953" xlink:href="#DejaVuSans-33"/>
     <use x="190.625" xlink:href="#DejaVuSans-30"/>
     <use x="254.248047" xlink:href="#DejaVuSans-35"/>
     <use x="317.871094" xlink:href="#DejaVuSans-35"/>
    </g>
   </g>
   <g id="text_3">
    <!-- Q1 -->
    <defs>
     <path d="M 12.40625 8.296875 
L 28.515625 8.296875 
L 28.515625 63.921875 
L 10.984375 60.40625 
L 10.984375 69.390625 
L 28.421875 72.90625 
L 38.28125 72.90625 
L 38.28125 8.296875 
L 54.390625 8.296875 
L 54.390625 0 
L 12.40625 0 
z
" id="DejaVuSans-31"/>
    </defs>
    <g transform="translate(519.971418 130.725073)scale(0.16 -0.16)">
     <use xlink:href="#DejaVuSans-51"/>
     <use x="78.710938" xlink:href="#DejaVuSans-31"/>
    </g>
    <!--     2n3054 -->
    <defs>
     <path d="M 37.796875 64.3125 
L 12.890625 25.390625 
L 37.796875 25.390625 
z
M 35.203125 72.90625 
L 47.609375 72.90625 
L 47.609375 25.390625 
L 58.015625 25.390625 
L 58.015625 17.1875 
L 47.609375 17.1875 
L 47.609375 0 
L 37.796875 0 
L 37.796875 17.1875 
L 4.890625 17.1875 
L 4.890625 26.703125 
z
" id="DejaVuSans-34"/>
    </defs>
    <g transform="translate(490.668918 148.641573)scale(0.16 -0.16)">
     <use xlink:href="#DejaVuSans-20"/>
     <use x="31.787109" xlink:href="#DejaVuSans-20"/>
     <use x="63.574219" xlink:href="#DejaVuSans-20"/>
     <use x="95.361328" xlink:href="#DejaVuSans-20"/>
     <use x="127.148438" xlink:href="#DejaVuSans-32"/>
     <use x="190.771484" xlink:href="#DejaVuSans-6e"/>
     <use x="254.150391" xlink:href="#DejaVuSans-33"/>
     <use x="317.773438" xlink:href="#DejaVuSans-30"/>
     <use x="381.396484" xlink:href="#DejaVuSans-35"/>
     <use x="445.019531" xlink:href="#DejaVuSans-34"/>
    </g>
   </g>
   <g id="text_4">
    <!-- D2 -->
    <defs>
     <path d="M 19.671875 64.796875 
L 19.671875 8.109375 
L 31.59375 8.109375 
Q 46.6875 8.109375 53.6875 14.9375 
Q 60.6875 21.78125 60.6875 36.53125 
Q 60.6875 51.171875 53.6875 57.984375 
Q 46.6875 64.796875 31.59375 64.796875 
z
M 9.8125 72.90625 
L 30.078125 72.90625 
Q 51.265625 72.90625 61.171875 64.09375 
Q 71.09375 55.28125 71.09375 36.53125 
Q 71.09375 17.671875 61.125 8.828125 
Q 51.171875 0 30.078125 0 
L 9.8125 0 
z
" id="DejaVuSans-44"/>
    </defs>
    <g transform="translate(545.938918 275.945823)scale(0.16 -0.16)">
     <use xlink:href="#DejaVuSans-44"/>
     <use x="77.001953" xlink:href="#DejaVuSans-32"/>
    </g>
    <!-- 500mA -->
    <defs>
     <path d="M 52 44.1875 
Q 55.375 50.25 60.0625 53.125 
Q 64.75 56 71.09375 56 
Q 79.640625 56 84.28125 50.015625 
Q 88.921875 44.046875 88.921875 33.015625 
L 88.921875 0 
L 79.890625 0 
L 79.890625 32.71875 
Q 79.890625 40.578125 77.09375 44.375 
Q 74.3125 48.1875 68.609375 48.1875 
Q 61.625 48.1875 57.5625 43.546875 
Q 53.515625 38.921875 53.515625 30.90625 
L 53.515625 0 
L 44.484375 0 
L 44.484375 32.71875 
Q 44.484375 40.625 41.703125 44.40625 
Q 38.921875 48.1875 33.109375 48.1875 
Q 26.21875 48.1875 22.15625 43.53125 
Q 18.109375 38.875 18.109375 30.90625 
L 18.109375 0 
L 9.078125 0 
L 9.078125 54.6875 
L 18.109375 54.6875 
L 18.109375 46.1875 
Q 21.1875 51.21875 25.484375 53.609375 
Q 29.78125 56 35.6875 56 
Q 41.65625 56 45.828125 52.96875 
Q 50 49.953125 52 44.1875 
z
" id="DejaVuSans-6d"/>
    </defs>
    <g transform="translate(545.938918 293.862323)scale(0.16 -0.16)">
     <use xlink:href="#DejaVuSans-35"/>
     <use x="63.623047" xlink:href="#DejaVuSans-30"/>
     <use x="127.246094" xlink:href="#DejaVuSans-30"/>
     <use x="190.869141" xlink:href="#DejaVuSans-6d"/>
     <use x="288.28125" xlink:href="#DejaVuSans-41"/>
    </g>
   </g>
   <g id="text_5">
    <!-- C2 -->
    <g transform="translate(445.498918 266.971323)scale(0.16 -0.16)">
     <use xlink:href="#DejaVuSans-43"/>
     <use x="69.824219" xlink:href="#DejaVuSans-32"/>
    </g>
    <!-- 100$\mu$F -->
    <defs>
     <path d="M 8.5 -20.796875 
L 8.5 54.6875 
L 17.484375 54.6875 
L 17.484375 20.703125 
Q 17.484375 13.625 20.84375 10 
Q 24.21875 6.390625 30.8125 6.390625 
Q 38.03125 6.390625 41.671875 10.484375 
Q 45.3125 14.59375 45.3125 22.796875 
L 45.3125 54.6875 
L 54.296875 54.6875 
L 54.296875 12.59375 
Q 54.296875 9.671875 55.140625 8.28125 
Q 56 6.890625 57.8125 6.890625 
Q 58.25 6.890625 59.03125 7.15625 
Q 59.8125 7.421875 61.1875 8.015625 
L 61.1875 0.78125 
Q 59.1875 -0.34375 57.390625 -0.875 
Q 55.609375 -1.421875 53.90625 -1.421875 
Q 50.53125 -1.421875 48.53125 0.484375 
Q 46.53125 2.390625 45.796875 6.296875 
Q 43.359375 2.4375 39.8125 0.5 
Q 36.28125 -1.421875 31.5 -1.421875 
Q 26.515625 -1.421875 23.015625 0.484375 
Q 19.53125 2.390625 17.484375 6.203125 
L 17.484375 -20.796875 
z
" id="DejaVuSans-3bc"/>
     <path d="M 9.8125 72.90625 
L 51.703125 72.90625 
L 51.703125 64.59375 
L 19.671875 64.59375 
L 19.671875 43.109375 
L 48.578125 43.109375 
L 48.578125 34.8125 
L 19.671875 34.8125 
L 19.671875 0 
L 9.8125 0 
z
" id="DejaVuSans-46"/>
    </defs>
    <g transform="translate(445.498918 284.887823)scale(0.16 -0.16)">
     <use transform="translate(0 0.78125)" xlink:href="#DejaVuSans-31"/>
     <use transform="translate(63.623047 0.78125)" xlink:href="#DejaVuSans-30"/>
     <use transform="translate(127.246094 0.78125)" xlink:href="#DejaVuSans-30"/>
     <use transform="translate(190.869141 0.78125)" xlink:href="#DejaVuSans-3bc"/>
     <use transform="translate(254.492188 0.78125)" xlink:href="#DejaVuSans-46"/>
    </g>
    <!-- 50V -->
    <defs>
     <path d="M 28.609375 0 
L 0.78125 72.90625 
L 11.078125 72.90625 
L 34.1875 11.53125 
L 57.328125 72.90625 
L 67.578125 72.90625 
L 39.796875 0 
z
" id="DejaVuSans-56"/>
    </defs>
    <g transform="translate(445.498918 302.836823)scale(0.16 -0.16)">
     <use xlink:href="#DejaVuSans-35"/>
     <use x="63.623047" xlink:href="#DejaVuSans-30"/>
     <use x="127.246094" xlink:href="#DejaVuSans-56"/>
    </g>
   </g>
   <g id="text_6">
    <!-- + -->
    <defs>
     <path d="M 46 62.703125 
L 46 35.5 
L 73.1875 35.5 
L 73.1875 27.203125 
L 46 27.203125 
L 46 0 
L 37.796875 0 
L 37.796875 27.203125 
L 10.59375 27.203125 
L 10.59375 35.5 
L 37.796875 35.5 
L 37.796875 62.703125 
z
" id="DejaVuSans-2b"/>
    </defs>
    <g transform="translate(421.623168 275.540473)scale(0.16 -0.16)">
     <use xlink:href="#DejaVuSans-2b"/>
    </g>
   </g>
   <g id="text_7">
    <!-- R1 -->
    <defs>
     <path d="M 44.390625 34.1875 
Q 47.5625 33.109375 50.5625 29.59375 
Q 53.5625 26.078125 56.59375 19.921875 
L 66.609375 0 
L 56 0 
L 46.6875 18.703125 
Q 43.0625 26.03125 39.671875 28.421875 
Q 36.28125 30.8125 30.421875 30.8125 
L 19.671875 30.8125 
L 19.671875 0 
L 9.8125 0 
L 9.8125 72.90625 
L 32.078125 72.90625 
Q 44.578125 72.90625 50.734375 67.671875 
Q 56.890625 62.453125 56.890625 51.90625 
Q 56.890625 45.015625 53.6875 40.46875 
Q 50.484375 35.9375 44.390625 34.1875 
z
M 19.671875 64.796875 
L 19.671875 38.921875 
L 32.078125 38.921875 
Q 39.203125 38.921875 42.84375 42.21875 
Q 46.484375 45.515625 46.484375 51.90625 
Q 46.484375 58.296875 42.84375 61.546875 
Q 39.203125 64.796875 32.078125 64.796875 
z
" id="DejaVuSans-52"/>
    </defs>
    <g transform="translate(445.498918 152.186573)scale(0.16 -0.16)">
     <use xlink:href="#DejaVuSans-52"/>
     <use x="69.482422" xlink:href="#DejaVuSans-31"/>
    </g>
    <!-- 2.2K -->
    <defs>
     <path d="M 10.6875 12.40625 
L 21 12.40625 
L 21 0 
L 10.6875 0 
z
" id="DejaVuSans-2e"/>
     <path d="M 9.8125 72.90625 
L 19.671875 72.90625 
L 19.671875 42.09375 
L 52.390625 72.90625 
L 65.09375 72.90625 
L 28.90625 38.921875 
L 67.671875 0 
L 54.6875 0 
L 19.671875 35.109375 
L 19.671875 0 
L 9.8125 0 
z
" id="DejaVuSans-4b"/>
    </defs>
    <g transform="translate(445.498918 170.103073)scale(0.16 -0.16)">
     <use xlink:href="#DejaVuSans-32"/>
     <use x="63.623047" xlink:href="#DejaVuSans-2e"/>
     <use x="95.410156" xlink:href="#DejaVuSans-32"/>
     <use x="159.033203" xlink:href="#DejaVuSans-4b"/>
    </g>
    <!-- 50V -->
    <g transform="translate(445.498918 188.019573)scale(0.16 -0.16)">
     <use xlink:href="#DejaVuSans-35"/>
     <use x="63.623047" xlink:href="#DejaVuSans-30"/>
     <use x="127.246094" xlink:href="#DejaVuSans-56"/>
    </g>
   </g>
   <g id="text_8">
    <!-- C1 -->
    <g transform="translate(304.266418 198.070323)scale(0.16 -0.16)">
     <use xlink:href="#DejaVuSans-43"/>
     <use x="69.824219" xlink:href="#DejaVuSans-31"/>
    </g>
    <!--  1000$\mu$F -->
    <g transform="translate(260.338918 215.986823)scale(0.16 -0.16)">
     <use transform="translate(0 0.78125)" xlink:href="#DejaVuSans-20"/>
     <use transform="translate(31.787109 0.78125)" xlink:href="#DejaVuSans-31"/>
     <use transform="translate(95.410156 0.78125)" xlink:href="#DejaVuSans-30"/>
     <use transform="translate(159.033203 0.78125)" xlink:href="#DejaVuSans-30"/>
     <use transform="translate(222.65625 0.78125)" xlink:href="#DejaVuSans-30"/>
     <use transform="translate(286.279297 0.78125)" xlink:href="#DejaVuSans-3bc"/>
     <use transform="translate(349.902344 0.78125)" xlink:href="#DejaVuSans-46"/>
    </g>
    <!-- 50V -->
    <g transform="translate(294.313918 233.935823)scale(0.16 -0.16)">
     <use xlink:href="#DejaVuSans-35"/>
     <use x="63.623047" xlink:href="#DejaVuSans-30"/>
     <use x="127.246094" xlink:href="#DejaVuSans-56"/>
    </g>
   </g>
   <g id="text_9">
    <!-- + -->
    <g transform="translate(324.423168 206.639473)scale(0.16 -0.16)">
     <use xlink:href="#DejaVuSans-2b"/>
    </g>
   </g>
   <g id="text_10">
    <!-- R2 -->
    <g transform="translate(624.282168 151.650573)scale(0.16 -0.16)">
     <use xlink:href="#DejaVuSans-52"/>
     <use x="69.482422" xlink:href="#DejaVuSans-32"/>
    </g>
   </g>
   <g id="text_11">
    <!-- 56$\Omega$ 1W -->
    <defs>
     <path d="M 33.015625 40.375 
Q 26.375 40.375 22.484375 35.828125 
Q 18.609375 31.296875 18.609375 23.390625 
Q 18.609375 15.53125 22.484375 10.953125 
Q 26.375 6.390625 33.015625 6.390625 
Q 39.65625 6.390625 43.53125 10.953125 
Q 47.40625 15.53125 47.40625 23.390625 
Q 47.40625 31.296875 43.53125 35.828125 
Q 39.65625 40.375 33.015625 40.375 
z
M 52.59375 71.296875 
L 52.59375 62.3125 
Q 48.875 64.0625 45.09375 64.984375 
Q 41.3125 65.921875 37.59375 65.921875 
Q 27.828125 65.921875 22.671875 59.328125 
Q 17.53125 52.734375 16.796875 39.40625 
Q 19.671875 43.65625 24.015625 45.921875 
Q 28.375 48.1875 33.59375 48.1875 
Q 44.578125 48.1875 50.953125 41.515625 
Q 57.328125 34.859375 57.328125 23.390625 
Q 57.328125 12.15625 50.6875 5.359375 
Q 44.046875 -1.421875 33.015625 -1.421875 
Q 20.359375 -1.421875 13.671875 8.265625 
Q 6.984375 17.96875 6.984375 36.375 
Q 6.984375 53.65625 15.1875 63.9375 
Q 23.390625 74.21875 37.203125 74.21875 
Q 40.921875 74.21875 44.703125 73.484375 
Q 48.484375 72.75 52.59375 71.296875 
z
" id="DejaVuSans-36"/>
     <path d="M 72.609375 8.6875 
L 72.609375 0 
L 43.3125 0 
L 43.3125 8.6875 
Q 51.953125 13.421875 56.78125 21.53125 
Q 61.625 29.640625 61.625 39.5 
Q 61.625 51.21875 55.171875 58.296875 
Q 48.734375 65.375 38.1875 65.375 
Q 27.640625 65.375 21.171875 58.265625 
Q 14.703125 51.171875 14.703125 39.5 
Q 14.703125 29.640625 19.53125 21.53125 
Q 24.421875 13.421875 33.109375 8.6875 
L 33.109375 0 
L 3.8125 0 
L 3.8125 8.6875 
L 19.390625 8.6875 
Q 11.671875 15.484375 8.109375 22.75 
Q 4.59375 30.03125 4.59375 39.015625 
Q 4.59375 54.546875 13.96875 64.15625 
Q 23.296875 73.78125 38.1875 73.78125 
Q 52.984375 73.78125 62.40625 64.15625 
Q 71.78125 54.59375 71.78125 39.5 
Q 71.78125 30.03125 68.3125 22.796875 
Q 64.84375 15.578125 56.984375 8.6875 
z
" id="DejaVuSans-3a9"/>
     <path d="M 3.328125 72.90625 
L 13.28125 72.90625 
L 28.609375 11.28125 
L 43.890625 72.90625 
L 54.984375 72.90625 
L 70.3125 11.28125 
L 85.59375 72.90625 
L 95.609375 72.90625 
L 77.296875 0 
L 64.890625 0 
L 49.515625 63.28125 
L 33.984375 0 
L 21.578125 0 
z
" id="DejaVuSans-57"/>
    </defs>
    <g transform="translate(603.090918 188.555573)scale(0.16 -0.16)">
     <use transform="translate(0 0.78125)" xlink:href="#DejaVuSans-35"/>
     <use transform="translate(63.623047 0.78125)" xlink:href="#DejaVuSans-36"/>
     <use transform="translate(127.246094 0.78125)" xlink:href="#DejaVuSans-3a9"/>
     <use transform="translate(203.662109 0.78125)" xlink:href="#DejaVuSans-20"/>
     <use transform="translate(235.449219 0.78125)" xlink:href="#DejaVuSans-31"/>
     <use transform="translate(299.072266 0.78125)" xlink:href="#DejaVuSans-57"/>
    </g>
   </g>
   <g id="text_12">
    <!-- C3 -->
    <g transform="translate(694.870918 232.520823)scale(0.16 -0.16)">
     <use xlink:href="#DejaVuSans-43"/>
     <use x="69.824219" xlink:href="#DejaVuSans-33"/>
    </g>
    <!-- 470$\mu$F -->
    <defs>
     <path d="M 8.203125 72.90625 
L 55.078125 72.90625 
L 55.078125 68.703125 
L 28.609375 0 
L 18.3125 0 
L 43.21875 64.59375 
L 8.203125 64.59375 
z
" id="DejaVuSans-37"/>
    </defs>
    <g transform="translate(694.870918 250.437323)scale(0.16 -0.16)">
     <use transform="translate(0 0.78125)" xlink:href="#DejaVuSans-34"/>
     <use transform="translate(63.623047 0.78125)" xlink:href="#DejaVuSans-37"/>
     <use transform="translate(127.246094 0.78125)" xlink:href="#DejaVuSans-30"/>
     <use transform="translate(190.869141 0.78125)" xlink:href="#DejaVuSans-3bc"/>
     <use transform="translate(254.492188 0.78125)" xlink:href="#DejaVuSans-46"/>
    </g>
    <!-- 50V -->
    <g transform="translate(694.870918 268.386323)scale(0.16 -0.16)">
     <use xlink:href="#DejaVuSans-35"/>
     <use x="63.623047" xlink:href="#DejaVuSans-30"/>
     <use x="127.246094" xlink:href="#DejaVuSans-56"/>
    </g>
   </g>
   <g id="text_13">
    <!-- + -->
    <g transform="translate(682.659168 241.089973)scale(0.16 -0.16)">
     <use xlink:href="#DejaVuSans-2b"/>
    </g>
   </g>
   <g id="text_14">
    <!-- R3 -->
    <g transform="translate(792.070918 198.086573)scale(0.16 -0.16)">
     <use xlink:href="#DejaVuSans-52"/>
     <use x="69.482422" xlink:href="#DejaVuSans-33"/>
    </g>
    <!-- 10K -->
    <g transform="translate(792.070918 216.003073)scale(0.16 -0.16)">
     <use xlink:href="#DejaVuSans-31"/>
     <use x="63.623047" xlink:href="#DejaVuSans-30"/>
     <use x="127.246094" xlink:href="#DejaVuSans-4b"/>
    </g>
    <!-- 1W -->
    <g transform="translate(792.070918 233.919573)scale(0.16 -0.16)">
     <use xlink:href="#DejaVuSans-31"/>
     <use x="63.623047" xlink:href="#DejaVuSans-57"/>
    </g>
   </g>
   <g id="text_15">
    <!-- $V_{out}$ -->
    <defs>
     <path d="M 30.609375 48.390625 
Q 23.390625 48.390625 19.1875 42.75 
Q 14.984375 37.109375 14.984375 27.296875 
Q 14.984375 17.484375 19.15625 11.84375 
Q 23.34375 6.203125 30.609375 6.203125 
Q 37.796875 6.203125 41.984375 11.859375 
Q 46.1875 17.53125 46.1875 27.296875 
Q 46.1875 37.015625 41.984375 42.703125 
Q 37.796875 48.390625 30.609375 48.390625 
z
M 30.609375 56 
Q 42.328125 56 49.015625 48.375 
Q 55.71875 40.765625 55.71875 27.296875 
Q 55.71875 13.875 49.015625 6.21875 
Q 42.328125 -1.421875 30.609375 -1.421875 
Q 18.84375 -1.421875 12.171875 6.21875 
Q 5.515625 13.875 5.515625 27.296875 
Q 5.515625 40.765625 12.171875 48.375 
Q 18.84375 56 30.609375 56 
z
" id="DejaVuSans-6f"/>
     <path d="M 8.5 21.578125 
L 8.5 54.6875 
L 17.484375 54.6875 
L 17.484375 21.921875 
Q 17.484375 14.15625 20.5 10.265625 
Q 23.53125 6.390625 29.59375 6.390625 
Q 36.859375 6.390625 41.078125 11.03125 
Q 45.3125 15.671875 45.3125 23.6875 
L 45.3125 54.6875 
L 54.296875 54.6875 
L 54.296875 0 
L 45.3125 0 
L 45.3125 8.40625 
Q 42.046875 3.421875 37.71875 1 
Q 33.40625 -1.421875 27.6875 -1.421875 
Q 18.265625 -1.421875 13.375 4.4375 
Q 8.5 10.296875 8.5 21.578125 
z
M 31.109375 56 
z
" id="DejaVuSans-75"/>
     <path d="M 18.3125 70.21875 
L 18.3125 54.6875 
L 36.8125 54.6875 
L 36.8125 47.703125 
L 18.3125 47.703125 
L 18.3125 18.015625 
Q 18.3125 11.328125 20.140625 9.421875 
Q 21.96875 7.515625 27.59375 7.515625 
L 36.8125 7.515625 
L 36.8125 0 
L 27.59375 0 
Q 17.1875 0 13.234375 3.875 
Q 9.28125 7.765625 9.28125 18.015625 
L 9.28125 47.703125 
L 2.6875 47.703125 
L 2.6875 54.6875 
L 9.28125 54.6875 
L 9.28125 70.21875 
z
" id="DejaVuSans-74"/>
    </defs>
    <g transform="translate(877.930918 216.003073)scale(0.16 -0.16)">
     <use transform="translate(0 0.09375)" xlink:href="#DejaVuSans-56"/>
     <use transform="translate(69.365234 -16.3125)scale(0.7)" xlink:href="#DejaVuSans-6f"/>
     <use transform="translate(112.192383 -16.3125)scale(0.7)" xlink:href="#DejaVuSans-75"/>
     <use transform="translate(156.557617 -16.3125)scale(0.7)" xlink:href="#DejaVuSans-74"/>
    </g>
   </g>
  </g>
 </g>
 <defs>
  <clipPath id="p633ea0da02">
   <rect height="354.152743" width="914.159057" x="10.7" y="10.7"/>
  </clipPath>
 </defs>
</svg>
