<?xml version="1.0" encoding="utf-8" standalone="no"?>
<!DOCTYPE svg PUBLIC "-//W3C//DTD SVG 1.1//EN"
  "http://www.w3.org/Graphics/SVG/1.1/DTD/svg11.dtd">
<!-- Created with matplotlib (https://matplotlib.org/) -->
<svg height="145.062pt" version="1.1" viewBox="0 0 506.6532 145.062" width="506.6532pt" xmlns="http://www.w3.org/2000/svg" xmlns:xlink="http://www.w3.org/1999/xlink">
 <defs>
  <style type="text/css">
*{stroke-linecap:butt;stroke-linejoin:round;}
  </style>
 </defs>
 <g id="figure_1">
  <g id="patch_1">
   <path d="M 0 145.062 
L 506.6532 145.062 
L 506.6532 0 
L 0 0 
z
" style="fill:none;"/>
  </g>
  <g id="axes_1">
   <g id="patch_2">
    <path clip-path="url(#p4ae0c49f05)" d="M 474.1326 52.641 
L 464.4126 57.231 
L 464.4126 52.6563 
L 464.4126 52.6563 
L 464.4126 52.6257 
L 464.4126 52.6257 
L 464.4126 48.051 
z
" style="stroke:#000000;stroke-linejoin:miter;stroke-width:1.5;"/>
   </g>
   <g id="line2d_1">
    <path clip-path="url(#p4ae0c49f05)" d="M 44.8326 52.641 
L 44.8326 34.281 
L 32.5206 15.921 
L 57.1446 15.921 
L 44.8326 34.281 
" style="fill:none;stroke:#000000;stroke-linecap:round;stroke-width:1.5;"/>
   </g>
   <g id="line2d_2">
    <path clip-path="url(#p4ae0c49f05)" d="M 44.8326 52.641 
L 56.9826 52.641 
L 69.1326 52.641 
" style="fill:none;stroke:#000000;stroke-linecap:round;stroke-width:1.5;"/>
   </g>
   <g id="line2d_3">
    <path clip-path="url(#p4ae0c49f05)" d="M 69.1326 52.641 
L 69.1326 37.341 
L 101.5326 37.341 
L 101.5326 67.941 
L 69.1326 67.941 
L 69.1326 52.641 
" style="fill:none;stroke:#000000;stroke-linecap:round;stroke-width:1.5;"/>
   </g>
   <g id="line2d_4">
    <path clip-path="url(#p4ae0c49f05)" d="M 83.7126 47.439 
L 86.9526 42.543 
" style="fill:none;stroke:#000000;stroke-linecap:round;stroke-width:1.5;"/>
   </g>
   <g id="line2d_5">
    <path clip-path="url(#p4ae0c49f05)" d="M 83.7126 62.739 
L 86.9526 57.843 
" style="fill:none;stroke:#000000;stroke-linecap:round;stroke-width:1.5;"/>
   </g>
   <g id="line2d_6">
    <path clip-path="url(#p4ae0c49f05)" d="M 75.6126 52.641 
L 76.635758 51.64742 
L 77.658916 50.761509 
L 78.682074 50.079271 
L 79.705232 49.674635 
L 80.728389 49.591451 
L 81.751547 49.838734 
L 82.774705 50.389685 
L 83.797863 51.184601 
L 84.821021 52.137341 
L 85.844179 53.144659 
L 86.867337 54.097399 
L 87.890495 54.892315 
L 88.913653 55.443266 
L 89.936811 55.690549 
L 90.959968 55.607365 
L 91.983126 55.202729 
L 93.006284 54.520491 
L 94.029442 53.63458 
L 95.0526 52.641 
" style="fill:none;stroke:#000000;stroke-linecap:round;stroke-width:1.5;"/>
   </g>
   <g id="line2d_7">
    <path clip-path="url(#p4ae0c49f05)" d="M 75.6126 44.991 
L 76.635758 43.99742 
L 77.658916 43.111509 
L 78.682074 42.429271 
L 79.705232 42.024635 
L 80.728389 41.941451 
L 81.751547 42.188734 
L 82.774705 42.739685 
L 83.797863 43.534601 
L 84.821021 44.487341 
L 85.844179 45.494659 
L 86.867337 46.447399 
L 87.890495 47.242315 
L 88.913653 47.793266 
L 89.936811 48.040549 
L 90.959968 47.957365 
L 91.983126 47.552729 
L 93.006284 46.870491 
L 94.029442 45.98458 
L 95.0526 44.991 
" style="fill:none;stroke:#000000;stroke-linecap:round;stroke-width:1.5;"/>
   </g>
   <g id="line2d_8">
    <path clip-path="url(#p4ae0c49f05)" d="M 75.6126 60.291 
L 76.635758 59.29742 
L 77.658916 58.411509 
L 78.682074 57.729271 
L 79.705232 57.324635 
L 80.728389 57.241451 
L 81.751547 57.488734 
L 82.774705 58.039685 
L 83.797863 58.834601 
L 84.821021 59.787341 
L 85.844179 60.794659 
L 86.867337 61.747399 
L 87.890495 62.542315 
L 88.913653 63.093266 
L 89.936811 63.340549 
L 90.959968 63.257365 
L 91.983126 62.852729 
L 93.006284 62.170491 
L 94.029442 61.28458 
L 95.0526 60.291 
" style="fill:none;stroke:#000000;stroke-linecap:round;stroke-width:1.5;"/>
   </g>
   <g id="line2d_9">
    <path clip-path="url(#p4ae0c49f05)" d="M 101.5326 52.641 
L 113.6826 52.641 
L 125.8326 52.641 
" style="fill:none;stroke:#000000;stroke-linecap:round;stroke-width:1.5;"/>
   </g>
   <g id="line2d_10">
    <path clip-path="url(#p4ae0c49f05)" d="M 125.8326 52.641 
L 125.8326 67.941 
L 150.1326 52.641 
L 125.8326 37.341 
L 125.8326 52.641 
" style="fill:none;stroke:#000000;stroke-linecap:round;stroke-width:1.5;"/>
   </g>
   <g id="line2d_11">
    <path clip-path="url(#p4ae0c49f05)" d="M 150.1326 52.641 
L 162.2826 52.641 
L 174.4326 52.641 
" style="fill:none;stroke:#000000;stroke-linecap:round;stroke-width:1.5;"/>
   </g>
   <g id="line2d_12">
    <path clip-path="url(#p4ae0c49f05)" d="M 174.4326 52.641 
L 174.4326 37.341 
L 206.8326 37.341 
L 206.8326 67.941 
L 174.4326 67.941 
L 174.4326 52.641 
" style="fill:none;stroke:#000000;stroke-linecap:round;stroke-width:1.5;"/>
   </g>
   <g id="line2d_13">
    <path clip-path="url(#p4ae0c49f05)" d="M 189.0126 47.439 
L 192.2526 42.543 
" style="fill:none;stroke:#000000;stroke-linecap:round;stroke-width:1.5;"/>
   </g>
   <g id="line2d_14">
    <path clip-path="url(#p4ae0c49f05)" d="M 189.0126 62.739 
L 192.2526 57.843 
" style="fill:none;stroke:#000000;stroke-linecap:round;stroke-width:1.5;"/>
   </g>
   <g id="line2d_15">
    <path clip-path="url(#p4ae0c49f05)" d="M 180.9126 52.641 
L 181.935758 51.64742 
L 182.958916 50.761509 
L 183.982074 50.079271 
L 185.005232 49.674635 
L 186.028389 49.591451 
L 187.051547 49.838734 
L 188.074705 50.389685 
L 189.097863 51.184601 
L 190.121021 52.137341 
L 191.144179 53.144659 
L 192.167337 54.097399 
L 193.190495 54.892315 
L 194.213653 55.443266 
L 195.236811 55.690549 
L 196.259968 55.607365 
L 197.283126 55.202729 
L 198.306284 54.520491 
L 199.329442 53.63458 
L 200.3526 52.641 
" style="fill:none;stroke:#000000;stroke-linecap:round;stroke-width:1.5;"/>
   </g>
   <g id="line2d_16">
    <path clip-path="url(#p4ae0c49f05)" d="M 180.9126 44.991 
L 181.935758 43.99742 
L 182.958916 43.111509 
L 183.982074 42.429271 
L 185.005232 42.024635 
L 186.028389 41.941451 
L 187.051547 42.188734 
L 188.074705 42.739685 
L 189.097863 43.534601 
L 190.121021 44.487341 
L 191.144179 45.494659 
L 192.167337 46.447399 
L 193.190495 47.242315 
L 194.213653 47.793266 
L 195.236811 48.040549 
L 196.259968 47.957365 
L 197.283126 47.552729 
L 198.306284 46.870491 
L 199.329442 45.98458 
L 200.3526 44.991 
" style="fill:none;stroke:#000000;stroke-linecap:round;stroke-width:1.5;"/>
   </g>
   <g id="line2d_17">
    <path clip-path="url(#p4ae0c49f05)" d="M 180.9126 60.291 
L 181.935758 59.29742 
L 182.958916 58.411509 
L 183.982074 57.729271 
L 185.005232 57.324635 
L 186.028389 57.241451 
L 187.051547 57.488734 
L 188.074705 58.039685 
L 189.097863 58.834601 
L 190.121021 59.787341 
L 191.144179 60.794659 
L 192.167337 61.747399 
L 193.190495 62.542315 
L 194.213653 63.093266 
L 195.236811 63.340549 
L 196.259968 63.257365 
L 197.283126 62.852729 
L 198.306284 62.170491 
L 199.329442 61.28458 
L 200.3526 60.291 
" style="fill:none;stroke:#000000;stroke-linecap:round;stroke-width:1.5;"/>
   </g>
   <g id="line2d_18">
    <path clip-path="url(#p4ae0c49f05)" d="M 206.8326 52.641 
L 223.0326 52.641 
L 239.2326 52.641 
" style="fill:none;stroke:#000000;stroke-linecap:round;stroke-width:1.5;"/>
   </g>
   <g id="line2d_19">
    <path clip-path="url(#p4ae0c49f05)" d="M 266.88773 63.459734 
L 243.97747 41.822266 
" style="fill:none;stroke:#000000;stroke-linecap:round;stroke-width:1.5;"/>
   </g>
   <g id="line2d_20">
    <path clip-path="url(#p4ae0c49f05)" d="M 266.88773 41.822266 
L 243.97747 63.459734 
" style="fill:none;stroke:#000000;stroke-linecap:round;stroke-width:1.5;"/>
   </g>
   <g id="line2d_21">
    <path clip-path="url(#p4ae0c49f05)" d="M 255.4326 67.941 
L 255.4326 83.241 
L 255.4326 98.541 
" style="fill:none;stroke:#000000;stroke-linecap:round;stroke-width:1.5;"/>
   </g>
   <g id="line2d_22">
    <path clip-path="url(#p4ae0c49f05)" d="M 245.7126 113.841 
L 246.735758 112.84742 
L 247.758916 111.961509 
L 248.782074 111.279271 
L 249.805232 110.874635 
L 250.828389 110.791451 
L 251.851547 111.038734 
L 252.874705 111.589685 
L 253.897863 112.384601 
L 254.921021 113.337341 
L 255.944179 114.344659 
L 256.967337 115.297399 
L 257.990495 116.092315 
L 259.013653 116.643266 
L 260.036811 116.890549 
L 261.059968 116.807365 
L 262.083126 116.402729 
L 263.106284 115.720491 
L 264.129442 114.83458 
L 265.1526 113.841 
" style="fill:none;stroke:#000000;stroke-linecap:round;stroke-width:1.5;"/>
   </g>
   <g id="line2d_23">
    <path clip-path="url(#p4ae0c49f05)" d="M 271.6326 52.641 
L 287.8326 52.641 
L 304.0326 52.641 
" style="fill:none;stroke:#000000;stroke-linecap:round;stroke-width:1.5;"/>
   </g>
   <g id="line2d_24">
    <path clip-path="url(#p4ae0c49f05)" d="M 304.0326 52.641 
L 304.0326 37.341 
L 336.4326 37.341 
L 336.4326 67.941 
L 304.0326 67.941 
L 304.0326 52.641 
" style="fill:none;stroke:#000000;stroke-linecap:round;stroke-width:1.5;"/>
   </g>
   <g id="line2d_25">
    <path clip-path="url(#p4ae0c49f05)" d="M 318.6126 47.439 
L 321.8526 42.543 
" style="fill:none;stroke:#000000;stroke-linecap:round;stroke-width:1.5;"/>
   </g>
   <g id="line2d_26">
    <path clip-path="url(#p4ae0c49f05)" d="M 318.6126 62.739 
L 321.8526 57.843 
" style="fill:none;stroke:#000000;stroke-linecap:round;stroke-width:1.5;"/>
   </g>
   <g id="line2d_27">
    <path clip-path="url(#p4ae0c49f05)" d="M 310.5126 52.641 
L 311.535758 51.64742 
L 312.558916 50.761509 
L 313.582074 50.079271 
L 314.605232 49.674635 
L 315.628389 49.591451 
L 316.651547 49.838734 
L 317.674705 50.389685 
L 318.697863 51.184601 
L 319.721021 52.137341 
L 320.744179 53.144659 
L 321.767337 54.097399 
L 322.790495 54.892315 
L 323.813653 55.443266 
L 324.836811 55.690549 
L 325.859968 55.607365 
L 326.883126 55.202729 
L 327.906284 54.520491 
L 328.929442 53.63458 
L 329.9526 52.641 
" style="fill:none;stroke:#000000;stroke-linecap:round;stroke-width:1.5;"/>
   </g>
   <g id="line2d_28">
    <path clip-path="url(#p4ae0c49f05)" d="M 310.5126 44.991 
L 311.535758 43.99742 
L 312.558916 43.111509 
L 313.582074 42.429271 
L 314.605232 42.024635 
L 315.628389 41.941451 
L 316.651547 42.188734 
L 317.674705 42.739685 
L 318.697863 43.534601 
L 319.721021 44.487341 
L 320.744179 45.494659 
L 321.767337 46.447399 
L 322.790495 47.242315 
L 323.813653 47.793266 
L 324.836811 48.040549 
L 325.859968 47.957365 
L 326.883126 47.552729 
L 327.906284 46.870491 
L 328.929442 45.98458 
L 329.9526 44.991 
" style="fill:none;stroke:#000000;stroke-linecap:round;stroke-width:1.5;"/>
   </g>
   <g id="line2d_29">
    <path clip-path="url(#p4ae0c49f05)" d="M 310.5126 60.291 
L 311.535758 59.29742 
L 312.558916 58.411509 
L 313.582074 57.729271 
L 314.605232 57.324635 
L 315.628389 57.241451 
L 316.651547 57.488734 
L 317.674705 58.039685 
L 318.697863 58.834601 
L 319.721021 59.787341 
L 320.744179 60.794659 
L 321.767337 61.747399 
L 322.790495 62.542315 
L 323.813653 63.093266 
L 324.836811 63.340549 
L 325.859968 63.257365 
L 326.883126 62.852729 
L 327.906284 62.170491 
L 328.929442 61.28458 
L 329.9526 60.291 
" style="fill:none;stroke:#000000;stroke-linecap:round;stroke-width:1.5;"/>
   </g>
   <g id="line2d_30">
    <path clip-path="url(#p4ae0c49f05)" d="M 336.4326 52.641 
L 348.5826 52.641 
L 360.7326 52.641 
" style="fill:none;stroke:#000000;stroke-linecap:round;stroke-width:1.5;"/>
   </g>
   <g id="line2d_31">
    <path clip-path="url(#p4ae0c49f05)" d="M 360.7326 52.641 
L 360.7326 67.941 
L 385.0326 52.641 
L 360.7326 37.341 
L 360.7326 52.641 
" style="fill:none;stroke:#000000;stroke-linecap:round;stroke-width:1.5;"/>
   </g>
   <g id="line2d_32">
    <path clip-path="url(#p4ae0c49f05)" d="M 385.0326 52.641 
L 397.1826 52.641 
L 409.3326 52.641 
" style="fill:none;stroke:#000000;stroke-linecap:round;stroke-width:1.5;"/>
   </g>
   <g id="line2d_33">
    <path clip-path="url(#p4ae0c49f05)" d="M 409.3326 52.641 
L 409.3326 37.341 
L 441.7326 37.341 
L 441.7326 67.941 
L 409.3326 67.941 
L 409.3326 52.641 
" style="fill:none;stroke:#000000;stroke-linecap:round;stroke-width:1.5;"/>
   </g>
   <g id="line2d_34">
    <path clip-path="url(#p4ae0c49f05)" d="M 414.1926 52.641 
L 436.8726 52.641 
" style="fill:none;stroke:#000000;stroke-linecap:round;stroke-width:1.5;"/>
   </g>
   <g id="line2d_35">
    <path clip-path="url(#p4ae0c49f05)" d="M 432.0126 44.991 
L 432.0126 60.291 
" style="fill:none;stroke:#000000;stroke-linecap:round;stroke-width:1.5;"/>
   </g>
   <g id="line2d_36">
    <path clip-path="url(#p4ae0c49f05)" d="M 441.7326 52.641 
L 457.9326 52.641 
L 474.1326 52.641 
" style="fill:none;stroke:#000000;stroke-linecap:round;stroke-width:1.5;"/>
   </g>
   <g id="patch_3">
    <path clip-path="url(#p4ae0c49f05)" d="M 255.4326 67.941 
C 259.72889 67.941 263.849794 66.328895 266.88773 63.459734 
C 269.925666 60.590572 271.6326 56.698607 271.6326 52.641 
C 271.6326 48.583393 269.925666 44.691428 266.88773 41.822266 
C 263.849794 38.953105 259.72889 37.341 255.4326 37.341 
C 251.13631 37.341 247.015406 38.953105 243.97747 41.822266 
C 240.939534 44.691428 239.2326 48.583393 239.2326 52.641 
C 239.2326 56.698607 240.939534 60.590572 243.97747 63.459734 
C 247.015406 66.328895 251.13631 67.941 255.4326 67.941 
z
" style="fill:none;stroke:#000000;stroke-linejoin:miter;stroke-width:1.5;"/>
   </g>
   <g id="patch_4">
    <path clip-path="url(#p4ae0c49f05)" d="M 255.4326 129.141 
C 259.72889 129.141 263.849794 127.528895 266.88773 124.659734 
C 269.925666 121.790572 271.6326 117.898607 271.6326 113.841 
C 271.6326 109.783393 269.925666 105.891428 266.88773 103.022266 
C 263.849794 100.153105 259.72889 98.541 255.4326 98.541 
C 251.13631 98.541 247.015406 100.153105 243.97747 103.022266 
C 240.939534 105.891428 239.2326 109.783393 239.2326 113.841 
C 239.2326 117.898607 240.939534 121.790572 243.97747 124.659734 
C 247.015406 127.528895 251.13631 129.141 255.4326 129.141 
z
" style="fill:none;stroke:#000000;stroke-linejoin:miter;stroke-width:1.5;"/>
   </g>
   <g id="patch_5">
    <path clip-path="url(#p4ae0c49f05)" d="M 432.0126 52.641 
L 419.0526 44.991 
L 419.0526 60.291 
z
" style="stroke:#000000;stroke-linejoin:miter;stroke-width:1.5;"/>
   </g>
   <g id="text_1">
    <!-- RF filter -->
    <defs>
     <path d="M 44.390625 34.1875 
Q 47.5625 33.109375 50.5625 29.59375 
Q 53.5625 26.078125 56.59375 19.921875 
L 66.609375 0 
L 56 0 
L 46.6875 18.703125 
Q 43.0625 26.03125 39.671875 28.421875 
Q 36.28125 30.8125 30.421875 30.8125 
L 19.671875 30.8125 
L 19.671875 0 
L 9.8125 0 
L 9.8125 72.90625 
L 32.078125 72.90625 
Q 44.578125 72.90625 50.734375 67.671875 
Q 56.890625 62.453125 56.890625 51.90625 
Q 56.890625 45.015625 53.6875 40.46875 
Q 50.484375 35.9375 44.390625 34.1875 
z
M 19.671875 64.796875 
L 19.671875 38.921875 
L 32.078125 38.921875 
Q 39.203125 38.921875 42.84375 42.21875 
Q 46.484375 45.515625 46.484375 51.90625 
Q 46.484375 58.296875 42.84375 61.546875 
Q 39.203125 64.796875 32.078125 64.796875 
z
" id="DejaVuSans-82"/>
     <path d="M 9.8125 72.90625 
L 51.703125 72.90625 
L 51.703125 64.59375 
L 19.671875 64.59375 
L 19.671875 43.109375 
L 48.578125 43.109375 
L 48.578125 34.8125 
L 19.671875 34.8125 
L 19.671875 0 
L 9.8125 0 
z
" id="DejaVuSans-70"/>
     <path id="DejaVuSans-32"/>
     <path d="M 37.109375 75.984375 
L 37.109375 68.5 
L 28.515625 68.5 
Q 23.6875 68.5 21.796875 66.546875 
Q 19.921875 64.59375 19.921875 59.515625 
L 19.921875 54.6875 
L 34.71875 54.6875 
L 34.71875 47.703125 
L 19.921875 47.703125 
L 19.921875 0 
L 10.890625 0 
L 10.890625 47.703125 
L 2.296875 47.703125 
L 2.296875 54.6875 
L 10.890625 54.6875 
L 10.890625 58.5 
Q 10.890625 67.625 15.140625 71.796875 
Q 19.390625 75.984375 28.609375 75.984375 
z
" id="DejaVuSans-102"/>
     <path d="M 9.421875 54.6875 
L 18.40625 54.6875 
L 18.40625 0 
L 9.421875 0 
z
M 9.421875 75.984375 
L 18.40625 75.984375 
L 18.40625 64.59375 
L 9.421875 64.59375 
z
" id="DejaVuSans-105"/>
     <path d="M 9.421875 75.984375 
L 18.40625 75.984375 
L 18.40625 0 
L 9.421875 0 
z
" id="DejaVuSans-108"/>
     <path d="M 18.3125 70.21875 
L 18.3125 54.6875 
L 36.8125 54.6875 
L 36.8125 47.703125 
L 18.3125 47.703125 
L 18.3125 18.015625 
Q 18.3125 11.328125 20.140625 9.421875 
Q 21.96875 7.515625 27.59375 7.515625 
L 36.8125 7.515625 
L 36.8125 0 
L 27.59375 0 
Q 17.1875 0 13.234375 3.875 
Q 9.28125 7.765625 9.28125 18.015625 
L 9.28125 47.703125 
L 2.6875 47.703125 
L 2.6875 54.6875 
L 9.28125 54.6875 
L 9.28125 70.21875 
z
" id="DejaVuSans-116"/>
     <path d="M 56.203125 29.59375 
L 56.203125 25.203125 
L 14.890625 25.203125 
Q 15.484375 15.921875 20.484375 11.0625 
Q 25.484375 6.203125 34.421875 6.203125 
Q 39.59375 6.203125 44.453125 7.46875 
Q 49.3125 8.734375 54.109375 11.28125 
L 54.109375 2.78125 
Q 49.265625 0.734375 44.1875 -0.34375 
Q 39.109375 -1.421875 33.890625 -1.421875 
Q 20.796875 -1.421875 13.15625 6.1875 
Q 5.515625 13.8125 5.515625 26.8125 
Q 5.515625 40.234375 12.765625 48.109375 
Q 20.015625 56 32.328125 56 
Q 43.359375 56 49.78125 48.890625 
Q 56.203125 41.796875 56.203125 29.59375 
z
M 47.21875 32.234375 
Q 47.125 39.59375 43.09375 43.984375 
Q 39.0625 48.390625 32.421875 48.390625 
Q 24.90625 48.390625 20.390625 44.140625 
Q 15.875 39.890625 15.1875 32.171875 
z
" id="DejaVuSans-101"/>
     <path d="M 41.109375 46.296875 
Q 39.59375 47.171875 37.8125 47.578125 
Q 36.03125 48 33.890625 48 
Q 26.265625 48 22.1875 43.046875 
Q 18.109375 38.09375 18.109375 28.8125 
L 18.109375 0 
L 9.078125 0 
L 9.078125 54.6875 
L 18.109375 54.6875 
L 18.109375 46.1875 
Q 20.953125 51.171875 25.484375 53.578125 
Q 30.03125 56 36.53125 56 
Q 37.453125 56 38.578125 55.875 
Q 39.703125 55.765625 41.0625 55.515625 
z
" id="DejaVuSans-114"/>
    </defs>
    <g transform="translate(61.849163 83.179125)scale(0.12 -0.12)">
     <use xlink:href="#DejaVuSans-82"/>
     <use x="69.482422" xlink:href="#DejaVuSans-70"/>
     <use x="127.001953" xlink:href="#DejaVuSans-32"/>
     <use x="158.789062" xlink:href="#DejaVuSans-102"/>
     <use x="193.994141" xlink:href="#DejaVuSans-105"/>
     <use x="221.777344" xlink:href="#DejaVuSans-108"/>
     <use x="249.560547" xlink:href="#DejaVuSans-116"/>
     <use x="288.769531" xlink:href="#DejaVuSans-101"/>
     <use x="350.292969" xlink:href="#DejaVuSans-114"/>
    </g>
    <!-- #1 -->
    <defs>
     <path d="M 51.125 44 
L 36.921875 44 
L 32.8125 27.6875 
L 47.125 27.6875 
z
M 43.796875 71.78125 
L 38.71875 51.515625 
L 52.984375 51.515625 
L 58.109375 71.78125 
L 65.921875 71.78125 
L 60.890625 51.515625 
L 76.125 51.515625 
L 76.125 44 
L 58.984375 44 
L 54.984375 27.6875 
L 70.515625 27.6875 
L 70.515625 20.21875 
L 53.078125 20.21875 
L 48 0 
L 40.1875 0 
L 45.21875 20.21875 
L 30.90625 20.21875 
L 25.875 0 
L 18.015625 0 
L 23.09375 20.21875 
L 7.71875 20.21875 
L 7.71875 27.6875 
L 24.90625 27.6875 
L 29 44 
L 13.28125 44 
L 13.28125 51.515625 
L 30.90625 51.515625 
L 35.890625 71.78125 
z
" id="DejaVuSans-35"/>
     <path d="M 12.40625 8.296875 
L 28.515625 8.296875 
L 28.515625 63.921875 
L 10.984375 60.40625 
L 10.984375 69.390625 
L 28.421875 72.90625 
L 38.28125 72.90625 
L 38.28125 8.296875 
L 54.390625 8.296875 
L 54.390625 0 
L 12.40625 0 
z
" id="DejaVuSans-49"/>
    </defs>
    <g transform="translate(76.487288 96.6165)scale(0.12 -0.12)">
     <use xlink:href="#DejaVuSans-35"/>
     <use x="83.789062" xlink:href="#DejaVuSans-49"/>
    </g>
   </g>
   <g id="text_2">
    <!-- LNA -->
    <defs>
     <path d="M 9.8125 72.90625 
L 19.671875 72.90625 
L 19.671875 8.296875 
L 55.171875 8.296875 
L 55.171875 0 
L 9.8125 0 
z
" id="DejaVuSans-76"/>
     <path d="M 9.8125 72.90625 
L 23.09375 72.90625 
L 55.421875 11.921875 
L 55.421875 72.90625 
L 64.984375 72.90625 
L 64.984375 0 
L 51.703125 0 
L 19.390625 60.984375 
L 19.390625 0 
L 9.8125 0 
z
" id="DejaVuSans-78"/>
     <path d="M 34.1875 63.1875 
L 20.796875 26.90625 
L 47.609375 26.90625 
z
M 28.609375 72.90625 
L 39.796875 72.90625 
L 67.578125 0 
L 57.328125 0 
L 50.6875 18.703125 
L 17.828125 18.703125 
L 11.1875 0 
L 0.78125 0 
z
" id="DejaVuSans-65"/>
    </defs>
    <g transform="translate(126.04635 31.785375)scale(0.12 -0.12)">
     <use xlink:href="#DejaVuSans-76"/>
     <use x="55.712891" xlink:href="#DejaVuSans-78"/>
     <use x="130.517578" xlink:href="#DejaVuSans-65"/>
    </g>
   </g>
   <g id="text_3">
    <!-- RF filter -->
    <g transform="translate(167.149163 83.179125)scale(0.12 -0.12)">
     <use xlink:href="#DejaVuSans-82"/>
     <use x="69.482422" xlink:href="#DejaVuSans-70"/>
     <use x="127.001953" xlink:href="#DejaVuSans-32"/>
     <use x="158.789062" xlink:href="#DejaVuSans-102"/>
     <use x="193.994141" xlink:href="#DejaVuSans-105"/>
     <use x="221.777344" xlink:href="#DejaVuSans-108"/>
     <use x="249.560547" xlink:href="#DejaVuSans-116"/>
     <use x="288.769531" xlink:href="#DejaVuSans-101"/>
     <use x="350.292969" xlink:href="#DejaVuSans-114"/>
    </g>
    <!-- #2 -->
    <defs>
     <path d="M 19.1875 8.296875 
L 53.609375 8.296875 
L 53.609375 0 
L 7.328125 0 
L 7.328125 8.296875 
Q 12.9375 14.109375 22.625 23.890625 
Q 32.328125 33.6875 34.8125 36.53125 
Q 39.546875 41.84375 41.421875 45.53125 
Q 43.3125 49.21875 43.3125 52.78125 
Q 43.3125 58.59375 39.234375 62.25 
Q 35.15625 65.921875 28.609375 65.921875 
Q 23.96875 65.921875 18.8125 64.3125 
Q 13.671875 62.703125 7.8125 59.421875 
L 7.8125 69.390625 
Q 13.765625 71.78125 18.9375 73 
Q 24.125 74.21875 28.421875 74.21875 
Q 39.75 74.21875 46.484375 68.546875 
Q 53.21875 62.890625 53.21875 53.421875 
Q 53.21875 48.921875 51.53125 44.890625 
Q 49.859375 40.875 45.40625 35.40625 
Q 44.1875 33.984375 37.640625 27.21875 
Q 31.109375 20.453125 19.1875 8.296875 
z
" id="DejaVuSans-50"/>
    </defs>
    <g transform="translate(181.787288 96.6165)scale(0.12 -0.12)">
     <use xlink:href="#DejaVuSans-35"/>
     <use x="83.789062" xlink:href="#DejaVuSans-50"/>
    </g>
   </g>
   <g id="text_4">
    <!-- Mixer -->
    <defs>
     <path d="M 9.8125 72.90625 
L 24.515625 72.90625 
L 43.109375 23.296875 
L 61.8125 72.90625 
L 76.515625 72.90625 
L 76.515625 0 
L 66.890625 0 
L 66.890625 64.015625 
L 48.09375 14.015625 
L 38.1875 14.015625 
L 19.390625 64.015625 
L 19.390625 0 
L 9.8125 0 
z
" id="DejaVuSans-77"/>
     <path d="M 54.890625 54.6875 
L 35.109375 28.078125 
L 55.90625 0 
L 45.3125 0 
L 29.390625 21.484375 
L 13.484375 0 
L 2.875 0 
L 24.125 28.609375 
L 4.6875 54.6875 
L 15.28125 54.6875 
L 29.78125 35.203125 
L 44.28125 54.6875 
z
" id="DejaVuSans-120"/>
    </defs>
    <g transform="translate(238.881975 28.725375)scale(0.12 -0.12)">
     <use xlink:href="#DejaVuSans-77"/>
     <use x="86.279297" xlink:href="#DejaVuSans-105"/>
     <use x="114.0625" xlink:href="#DejaVuSans-120"/>
     <use x="173.195312" xlink:href="#DejaVuSans-101"/>
     <use x="234.71875" xlink:href="#DejaVuSans-114"/>
    </g>
   </g>
   <g id="text_5">
    <!-- Local -->
    <defs>
     <path d="M 30.609375 48.390625 
Q 23.390625 48.390625 19.1875 42.75 
Q 14.984375 37.109375 14.984375 27.296875 
Q 14.984375 17.484375 19.15625 11.84375 
Q 23.34375 6.203125 30.609375 6.203125 
Q 37.796875 6.203125 41.984375 11.859375 
Q 46.1875 17.53125 46.1875 27.296875 
Q 46.1875 37.015625 41.984375 42.703125 
Q 37.796875 48.390625 30.609375 48.390625 
z
M 30.609375 56 
Q 42.328125 56 49.015625 48.375 
Q 55.71875 40.765625 55.71875 27.296875 
Q 55.71875 13.875 49.015625 6.21875 
Q 42.328125 -1.421875 30.609375 -1.421875 
Q 18.84375 -1.421875 12.171875 6.21875 
Q 5.515625 13.875 5.515625 27.296875 
Q 5.515625 40.765625 12.171875 48.375 
Q 18.84375 56 30.609375 56 
z
" id="DejaVuSans-111"/>
     <path d="M 48.78125 52.59375 
L 48.78125 44.1875 
Q 44.96875 46.296875 41.140625 47.34375 
Q 37.3125 48.390625 33.40625 48.390625 
Q 24.65625 48.390625 19.8125 42.84375 
Q 14.984375 37.3125 14.984375 27.296875 
Q 14.984375 17.28125 19.8125 11.734375 
Q 24.65625 6.203125 33.40625 6.203125 
Q 37.3125 6.203125 41.140625 7.25 
Q 44.96875 8.296875 48.78125 10.40625 
L 48.78125 2.09375 
Q 45.015625 0.34375 40.984375 -0.53125 
Q 36.96875 -1.421875 32.421875 -1.421875 
Q 20.0625 -1.421875 12.78125 6.34375 
Q 5.515625 14.109375 5.515625 27.296875 
Q 5.515625 40.671875 12.859375 48.328125 
Q 20.21875 56 33.015625 56 
Q 37.15625 56 41.109375 55.140625 
Q 45.0625 54.296875 48.78125 52.59375 
z
" id="DejaVuSans-99"/>
     <path d="M 34.28125 27.484375 
Q 23.390625 27.484375 19.1875 25 
Q 14.984375 22.515625 14.984375 16.5 
Q 14.984375 11.71875 18.140625 8.90625 
Q 21.296875 6.109375 26.703125 6.109375 
Q 34.1875 6.109375 38.703125 11.40625 
Q 43.21875 16.703125 43.21875 25.484375 
L 43.21875 27.484375 
z
M 52.203125 31.203125 
L 52.203125 0 
L 43.21875 0 
L 43.21875 8.296875 
Q 40.140625 3.328125 35.546875 0.953125 
Q 30.953125 -1.421875 24.3125 -1.421875 
Q 15.921875 -1.421875 10.953125 3.296875 
Q 6 8.015625 6 15.921875 
Q 6 25.140625 12.171875 29.828125 
Q 18.359375 34.515625 30.609375 34.515625 
L 43.21875 34.515625 
L 43.21875 35.40625 
Q 43.21875 41.609375 39.140625 45 
Q 35.0625 48.390625 27.6875 48.390625 
Q 23 48.390625 18.546875 47.265625 
Q 14.109375 46.140625 10.015625 43.890625 
L 10.015625 52.203125 
Q 14.9375 54.109375 19.578125 55.046875 
Q 24.21875 56 28.609375 56 
Q 40.484375 56 46.34375 49.84375 
Q 52.203125 43.703125 52.203125 31.203125 
z
" id="DejaVuSans-97"/>
    </defs>
    <g transform="translate(278.1126 110.433562)scale(0.12 -0.12)">
     <use xlink:href="#DejaVuSans-76"/>
     <use x="55.697266" xlink:href="#DejaVuSans-111"/>
     <use x="116.878906" xlink:href="#DejaVuSans-99"/>
     <use x="171.859375" xlink:href="#DejaVuSans-97"/>
     <use x="233.138672" xlink:href="#DejaVuSans-108"/>
    </g>
    <!-- Oscillator -->
    <defs>
     <path d="M 39.40625 66.21875 
Q 28.65625 66.21875 22.328125 58.203125 
Q 16.015625 50.203125 16.015625 36.375 
Q 16.015625 22.609375 22.328125 14.59375 
Q 28.65625 6.59375 39.40625 6.59375 
Q 50.140625 6.59375 56.421875 14.59375 
Q 62.703125 22.609375 62.703125 36.375 
Q 62.703125 50.203125 56.421875 58.203125 
Q 50.140625 66.21875 39.40625 66.21875 
z
M 39.40625 74.21875 
Q 54.734375 74.21875 63.90625 63.9375 
Q 73.09375 53.65625 73.09375 36.375 
Q 73.09375 19.140625 63.90625 8.859375 
Q 54.734375 -1.421875 39.40625 -1.421875 
Q 24.03125 -1.421875 14.8125 8.828125 
Q 5.609375 19.09375 5.609375 36.375 
Q 5.609375 53.65625 14.8125 63.9375 
Q 24.03125 74.21875 39.40625 74.21875 
z
" id="DejaVuSans-79"/>
     <path d="M 44.28125 53.078125 
L 44.28125 44.578125 
Q 40.484375 46.53125 36.375 47.5 
Q 32.28125 48.484375 27.875 48.484375 
Q 21.1875 48.484375 17.84375 46.4375 
Q 14.5 44.390625 14.5 40.28125 
Q 14.5 37.15625 16.890625 35.375 
Q 19.28125 33.59375 26.515625 31.984375 
L 29.59375 31.296875 
Q 39.15625 29.25 43.1875 25.515625 
Q 47.21875 21.78125 47.21875 15.09375 
Q 47.21875 7.46875 41.1875 3.015625 
Q 35.15625 -1.421875 24.609375 -1.421875 
Q 20.21875 -1.421875 15.453125 -0.5625 
Q 10.6875 0.296875 5.421875 2 
L 5.421875 11.28125 
Q 10.40625 8.6875 15.234375 7.390625 
Q 20.0625 6.109375 24.8125 6.109375 
Q 31.15625 6.109375 34.5625 8.28125 
Q 37.984375 10.453125 37.984375 14.40625 
Q 37.984375 18.0625 35.515625 20.015625 
Q 33.0625 21.96875 24.703125 23.78125 
L 21.578125 24.515625 
Q 13.234375 26.265625 9.515625 29.90625 
Q 5.8125 33.546875 5.8125 39.890625 
Q 5.8125 47.609375 11.28125 51.796875 
Q 16.75 56 26.8125 56 
Q 31.78125 56 36.171875 55.265625 
Q 40.578125 54.546875 44.28125 53.078125 
z
" id="DejaVuSans-115"/>
    </defs>
    <g transform="translate(278.1126 123.870937)scale(0.12 -0.12)">
     <use xlink:href="#DejaVuSans-79"/>
     <use x="78.710938" xlink:href="#DejaVuSans-115"/>
     <use x="130.810547" xlink:href="#DejaVuSans-99"/>
     <use x="185.791016" xlink:href="#DejaVuSans-105"/>
     <use x="213.574219" xlink:href="#DejaVuSans-108"/>
     <use x="241.357422" xlink:href="#DejaVuSans-108"/>
     <use x="269.140625" xlink:href="#DejaVuSans-97"/>
     <use x="330.419922" xlink:href="#DejaVuSans-116"/>
     <use x="369.628906" xlink:href="#DejaVuSans-111"/>
     <use x="430.810547" xlink:href="#DejaVuSans-114"/>
    </g>
   </g>
   <g id="text_6">
    <!-- IF filter -->
    <defs>
     <path d="M 9.8125 72.90625 
L 19.671875 72.90625 
L 19.671875 0 
L 9.8125 0 
z
" id="DejaVuSans-73"/>
    </defs>
    <g transform="translate(299.148225 83.179125)scale(0.12 -0.12)">
     <use xlink:href="#DejaVuSans-73"/>
     <use x="29.492188" xlink:href="#DejaVuSans-70"/>
     <use x="87.011719" xlink:href="#DejaVuSans-32"/>
     <use x="118.798828" xlink:href="#DejaVuSans-102"/>
     <use x="154.003906" xlink:href="#DejaVuSans-105"/>
     <use x="181.787109" xlink:href="#DejaVuSans-108"/>
     <use x="209.570312" xlink:href="#DejaVuSans-116"/>
     <use x="248.779297" xlink:href="#DejaVuSans-101"/>
     <use x="310.302734" xlink:href="#DejaVuSans-114"/>
    </g>
   </g>
   <g id="text_7">
    <!-- IF -->
    <g transform="translate(367.661663 18.348)scale(0.12 -0.12)">
     <use xlink:href="#DejaVuSans-73"/>
     <use x="29.492188" xlink:href="#DejaVuSans-70"/>
    </g>
    <!-- amplifier -->
    <defs>
     <path d="M 52 44.1875 
Q 55.375 50.25 60.0625 53.125 
Q 64.75 56 71.09375 56 
Q 79.640625 56 84.28125 50.015625 
Q 88.921875 44.046875 88.921875 33.015625 
L 88.921875 0 
L 79.890625 0 
L 79.890625 32.71875 
Q 79.890625 40.578125 77.09375 44.375 
Q 74.3125 48.1875 68.609375 48.1875 
Q 61.625 48.1875 57.5625 43.546875 
Q 53.515625 38.921875 53.515625 30.90625 
L 53.515625 0 
L 44.484375 0 
L 44.484375 32.71875 
Q 44.484375 40.625 41.703125 44.40625 
Q 38.921875 48.1875 33.109375 48.1875 
Q 26.21875 48.1875 22.15625 43.53125 
Q 18.109375 38.875 18.109375 30.90625 
L 18.109375 0 
L 9.078125 0 
L 9.078125 54.6875 
L 18.109375 54.6875 
L 18.109375 46.1875 
Q 21.1875 51.21875 25.484375 53.609375 
Q 29.78125 56 35.6875 56 
Q 41.65625 56 45.828125 52.96875 
Q 50 49.953125 52 44.1875 
z
" id="DejaVuSans-109"/>
     <path d="M 18.109375 8.203125 
L 18.109375 -20.796875 
L 9.078125 -20.796875 
L 9.078125 54.6875 
L 18.109375 54.6875 
L 18.109375 46.390625 
Q 20.953125 51.265625 25.265625 53.625 
Q 29.59375 56 35.59375 56 
Q 45.5625 56 51.78125 48.09375 
Q 58.015625 40.1875 58.015625 27.296875 
Q 58.015625 14.40625 51.78125 6.484375 
Q 45.5625 -1.421875 35.59375 -1.421875 
Q 29.59375 -1.421875 25.265625 0.953125 
Q 20.953125 3.328125 18.109375 8.203125 
z
M 48.6875 27.296875 
Q 48.6875 37.203125 44.609375 42.84375 
Q 40.53125 48.484375 33.40625 48.484375 
Q 26.265625 48.484375 22.1875 42.84375 
Q 18.109375 37.203125 18.109375 27.296875 
Q 18.109375 17.390625 22.1875 11.75 
Q 26.265625 6.109375 33.40625 6.109375 
Q 40.53125 6.109375 44.609375 11.75 
Q 48.6875 17.390625 48.6875 27.296875 
z
" id="DejaVuSans-112"/>
    </defs>
    <g transform="translate(346.281038 31.785375)scale(0.12 -0.12)">
     <use xlink:href="#DejaVuSans-97"/>
     <use x="61.279297" xlink:href="#DejaVuSans-109"/>
     <use x="158.691406" xlink:href="#DejaVuSans-112"/>
     <use x="222.167969" xlink:href="#DejaVuSans-108"/>
     <use x="249.951172" xlink:href="#DejaVuSans-105"/>
     <use x="277.734375" xlink:href="#DejaVuSans-102"/>
     <use x="312.939453" xlink:href="#DejaVuSans-105"/>
     <use x="340.722656" xlink:href="#DejaVuSans-101"/>
     <use x="402.246094" xlink:href="#DejaVuSans-114"/>
    </g>
   </g>
   <g id="text_8">
    <!-- Demodulator -->
    <defs>
     <path d="M 19.671875 64.796875 
L 19.671875 8.109375 
L 31.59375 8.109375 
Q 46.6875 8.109375 53.6875 14.9375 
Q 60.6875 21.78125 60.6875 36.53125 
Q 60.6875 51.171875 53.6875 57.984375 
Q 46.6875 64.796875 31.59375 64.796875 
z
M 9.8125 72.90625 
L 30.078125 72.90625 
Q 51.265625 72.90625 61.171875 64.09375 
Q 71.09375 55.28125 71.09375 36.53125 
Q 71.09375 17.671875 61.125 8.828125 
Q 51.171875 0 30.078125 0 
L 9.8125 0 
z
" id="DejaVuSans-68"/>
     <path d="M 45.40625 46.390625 
L 45.40625 75.984375 
L 54.390625 75.984375 
L 54.390625 0 
L 45.40625 0 
L 45.40625 8.203125 
Q 42.578125 3.328125 38.25 0.953125 
Q 33.9375 -1.421875 27.875 -1.421875 
Q 17.96875 -1.421875 11.734375 6.484375 
Q 5.515625 14.40625 5.515625 27.296875 
Q 5.515625 40.1875 11.734375 48.09375 
Q 17.96875 56 27.875 56 
Q 33.9375 56 38.25 53.625 
Q 42.578125 51.265625 45.40625 46.390625 
z
M 14.796875 27.296875 
Q 14.796875 17.390625 18.875 11.75 
Q 22.953125 6.109375 30.078125 6.109375 
Q 37.203125 6.109375 41.296875 11.75 
Q 45.40625 17.390625 45.40625 27.296875 
Q 45.40625 37.203125 41.296875 42.84375 
Q 37.203125 48.484375 30.078125 48.484375 
Q 22.953125 48.484375 18.875 42.84375 
Q 14.796875 37.203125 14.796875 27.296875 
z
" id="DejaVuSans-100"/>
     <path d="M 8.5 21.578125 
L 8.5 54.6875 
L 17.484375 54.6875 
L 17.484375 21.921875 
Q 17.484375 14.15625 20.5 10.265625 
Q 23.53125 6.390625 29.59375 6.390625 
Q 36.859375 6.390625 41.078125 11.03125 
Q 45.3125 15.671875 45.3125 23.6875 
L 45.3125 54.6875 
L 54.296875 54.6875 
L 54.296875 0 
L 45.3125 0 
L 45.3125 8.40625 
Q 42.046875 3.421875 37.71875 1 
Q 33.40625 -1.421875 27.6875 -1.421875 
Q 18.265625 -1.421875 13.375 4.4375 
Q 8.5 10.296875 8.5 21.578125 
z
M 31.109375 56 
z
" id="DejaVuSans-117"/>
    </defs>
    <g transform="translate(386.259788 83.179125)scale(0.12 -0.12)">
     <use xlink:href="#DejaVuSans-68"/>
     <use x="77.001953" xlink:href="#DejaVuSans-101"/>
     <use x="138.525391" xlink:href="#DejaVuSans-109"/>
     <use x="235.9375" xlink:href="#DejaVuSans-111"/>
     <use x="297.119141" xlink:href="#DejaVuSans-100"/>
     <use x="360.595703" xlink:href="#DejaVuSans-117"/>
     <use x="423.974609" xlink:href="#DejaVuSans-108"/>
     <use x="451.757812" xlink:href="#DejaVuSans-97"/>
     <use x="513.037109" xlink:href="#DejaVuSans-116"/>
     <use x="552.246094" xlink:href="#DejaVuSans-111"/>
     <use x="613.427734" xlink:href="#DejaVuSans-114"/>
    </g>
   </g>
  </g>
 </g>
 <defs>
  <clipPath id="p4ae0c49f05">
   <rect height="130.662" width="492.2532" x="7.2" y="7.2"/>
  </clipPath>
 </defs>
</svg>
