<?xml version="1.0" encoding="utf-8" standalone="no"?>
<!DOCTYPE svg PUBLIC "-//W3C//DTD SVG 1.1//EN"
  "http://www.w3.org/Graphics/SVG/1.1/DTD/svg11.dtd">
<!-- Created with matplotlib (http://matplotlib.org/) -->
<svg height="566pt" version="1.1" viewBox="0 0 375 566" width="375pt" xmlns="http://www.w3.org/2000/svg" xmlns:xlink="http://www.w3.org/1999/xlink">
 <defs>
  <style type="text/css">
*{stroke-linecap:butt;stroke-linejoin:round;}
  </style>
 </defs>
 <g id="figure_1">
  <g id="patch_1">
   <path d="M 0 566.08 
L 375.906863 566.08 
L 375.906863 0 
L 0 0 
z
" style="fill:none;"/>
  </g>
  <g id="axes_1">
   <g id="line2d_1">
    <path clip-path="url(#p406f8e6b0d)" d="M 45.959403 205.775 
L 45.959403 218.015 
L 37.859403 218.015 
L 54.059403 218.015 
M 40.289403 221.687 
L 51.629403 221.687 
M 44.339403 225.359 
L 47.579403 225.359 
" style="fill:none;stroke:#000000;stroke-linecap:round;stroke-width:1.5;"/>
   </g>
   <g id="line2d_2">
    <path clip-path="url(#p406f8e6b0d)" d="M 45.959403 68.84 
L 54.869403 68.84 
L 63.779403 68.84 
" style="fill:none;stroke:#000000;stroke-linecap:round;stroke-width:1.5;"/>
   </g>
   <g id="line2d_3">
    <path clip-path="url(#p406f8e6b0d)" d="M 63.779403 87.965 
L 63.779403 49.715 
L 133.927461 87.965 
L 63.779403 126.215 
L 63.779403 87.965 
M 133.927461 87.965 
" style="fill:none;stroke:#000000;stroke-linecap:round;stroke-width:1.5;"/>
   </g>
   <g id="line2d_4">
    <path clip-path="url(#p406f8e6b0d)" d="M 133.927461 87.965 
L 153.367461 87.965 
L 153.367461 87.965 
M 185.767461 87.965 
L 185.767461 87.965 
L 205.207461 87.965 
" style="fill:none;stroke:#000000;stroke-linecap:round;stroke-width:1.5;"/>
   </g>
   <g id="line2d_5">
    <path clip-path="url(#p406f8e6b0d)" d="M 205.207461 87.965 
" style="fill:none;stroke:#000000;stroke-linecap:round;stroke-width:1.5;"/>
   </g>
   <g id="line2d_6">
    <path clip-path="url(#p406f8e6b0d)" d="M 205.207461 87.965 
L 223.027461 87.965 
L 240.847461 87.965 
" style="fill:none;stroke:#000000;stroke-linecap:round;stroke-width:1.5;"/>
   </g>
   <g id="line2d_7">
    <path clip-path="url(#p406f8e6b0d)" d="M 240.847461 87.965 
" style="fill:none;stroke:#000000;stroke-linecap:round;stroke-width:1.5;"/>
   </g>
   <g id="line2d_8">
    <path clip-path="url(#p406f8e6b0d)" d="M 205.207461 87.965 
L 205.207461 106.325 
L 213.307461 108.875 
L 197.107461 113.975 
L 213.307461 119.075 
L 197.107461 124.175 
L 213.307461 129.275 
L 197.107461 134.375 
L 205.207461 136.925 
L 205.207461 155.285 
" style="fill:none;stroke:#000000;stroke-linecap:round;stroke-width:1.5;"/>
   </g>
   <g id="line2d_9">
    <path clip-path="url(#p406f8e6b0d)" d="M 205.207461 155.285 
" style="fill:none;stroke:#000000;stroke-linecap:round;stroke-width:1.5;"/>
   </g>
   <g id="line2d_10">
    <path clip-path="url(#p406f8e6b0d)" d="M 205.207461 155.285 
L 223.027461 155.285 
L 240.847461 155.285 
" style="fill:none;stroke:#000000;stroke-linecap:round;stroke-width:1.5;"/>
   </g>
   <g id="line2d_11">
    <path clip-path="url(#p406f8e6b0d)" d="M 240.847461 155.285 
" style="fill:none;stroke:#000000;stroke-linecap:round;stroke-width:1.5;"/>
   </g>
   <g id="line2d_12">
    <path clip-path="url(#p406f8e6b0d)" d="M 205.207461 155.285 
L 125.583432 155.285 
L 45.959403 155.285 
" style="fill:none;stroke:#000000;stroke-linecap:round;stroke-width:1.5;"/>
   </g>
   <g id="line2d_13">
    <path clip-path="url(#p406f8e6b0d)" d="M 45.959403 155.285 
" style="fill:none;stroke:#000000;stroke-linecap:round;stroke-width:1.5;"/>
   </g>
   <g id="line2d_14">
    <path clip-path="url(#p406f8e6b0d)" d="M 45.959403 155.285 
L 45.959403 131.1875 
L 45.959403 107.09 
" style="fill:none;stroke:#000000;stroke-linecap:round;stroke-width:1.5;"/>
   </g>
   <g id="line2d_15">
    <path clip-path="url(#p406f8e6b0d)" d="M 45.959403 107.09 
L 54.869403 107.09 
L 63.779403 107.09 
" style="fill:none;stroke:#000000;stroke-linecap:round;stroke-width:1.5;"/>
   </g>
   <g id="line2d_16">
    <path clip-path="url(#p406f8e6b0d)" d="M 45.959403 155.285 
L 45.959403 165.23 
L 45.959403 165.23 
M 45.959403 195.83 
L 45.959403 195.83 
L 45.959403 205.775 
" style="fill:none;stroke:#000000;stroke-linecap:round;stroke-width:1.5;"/>
   </g>
   <g id="line2d_17">
    <path clip-path="url(#p406f8e6b0d)" d="M 29.759403 38.24 
L 126.959403 38.24 
L 224.159403 38.24 
" style="fill:none;stroke:#000000;stroke-dasharray:1.5,2.475;stroke-dashoffset:0;stroke-width:1.5;"/>
   </g>
   <g id="line2d_18">
    <path clip-path="url(#p406f8e6b0d)" d="M 224.159403 38.24 
L 224.159403 145.34 
L 224.159403 252.44 
" style="fill:none;stroke:#000000;stroke-dasharray:1.5,2.475;stroke-dashoffset:0;stroke-width:1.5;"/>
   </g>
   <g id="line2d_19">
    <path clip-path="url(#p406f8e6b0d)" d="M 224.159403 252.44 
L 126.959403 252.44 
L 29.759403 252.44 
" style="fill:none;stroke:#000000;stroke-dasharray:1.5,2.475;stroke-dashoffset:0;stroke-width:1.5;"/>
   </g>
   <g id="line2d_20">
    <path clip-path="url(#p406f8e6b0d)" d="M 29.759403 252.44 
L 29.759403 145.34 
L 29.759403 38.24 
" style="fill:none;stroke:#000000;stroke-dasharray:1.5,2.475;stroke-dashoffset:0;stroke-width:1.5;"/>
   </g>
   <g id="line2d_21">
    <path clip-path="url(#p406f8e6b0d)" d="M 240.847461 87.965 
L 273.247461 87.965 
L 275.947461 80.315 
L 281.347461 95.615 
L 286.747461 80.315 
L 292.147461 95.615 
L 297.547461 80.315 
L 302.947461 95.615 
L 305.647461 87.965 
L 338.047461 87.965 
" style="fill:none;stroke:#000000;stroke-linecap:round;stroke-width:1.5;"/>
   </g>
   <g id="line2d_22">
    <path clip-path="url(#p406f8e6b0d)" d="M 338.047461 87.965 
L 338.047461 210.365 
L 346.147461 212.915 
L 329.947461 218.015 
L 346.147461 223.115 
L 329.947461 228.215 
L 346.147461 233.315 
L 329.947461 238.415 
L 338.047461 240.965 
L 338.047461 363.365 
" style="fill:none;stroke:#000000;stroke-linecap:round;stroke-width:1.5;"/>
   </g>
   <g id="line2d_23">
    <path clip-path="url(#p406f8e6b0d)" d="M 338.047461 363.365 
L 305.647461 363.365 
L 302.947461 371.015 
L 297.547461 355.715 
L 292.147461 371.015 
L 286.747461 355.715 
L 281.347461 371.015 
L 275.947461 355.715 
L 273.247461 363.365 
L 240.847461 363.365 
" style="fill:none;stroke:#000000;stroke-linecap:round;stroke-width:1.5;"/>
   </g>
   <g id="line2d_24">
    <path clip-path="url(#p406f8e6b0d)" d="M 45.959403 481.175 
L 45.959403 493.415 
L 37.859403 493.415 
L 54.059403 493.415 
M 40.289403 497.087 
L 51.629403 497.087 
M 44.339403 500.759 
L 47.579403 500.759 
" style="fill:none;stroke:#000000;stroke-linecap:round;stroke-width:1.5;"/>
   </g>
   <g id="line2d_25">
    <path clip-path="url(#p406f8e6b0d)" d="M 45.959403 344.24 
L 54.869403 344.24 
L 63.779403 344.24 
" style="fill:none;stroke:#000000;stroke-linecap:round;stroke-width:1.5;"/>
   </g>
   <g id="line2d_26">
    <path clip-path="url(#p406f8e6b0d)" d="M 63.779403 363.365 
L 63.779403 325.115 
L 133.927461 363.365 
L 63.779403 401.615 
L 63.779403 363.365 
M 133.927461 363.365 
" style="fill:none;stroke:#000000;stroke-linecap:round;stroke-width:1.5;"/>
   </g>
   <g id="line2d_27">
    <path clip-path="url(#p406f8e6b0d)" d="M 133.927461 363.365 
L 153.367461 363.365 
L 153.367461 363.365 
M 185.767461 363.365 
L 185.767461 363.365 
L 205.207461 363.365 
" style="fill:none;stroke:#000000;stroke-linecap:round;stroke-width:1.5;"/>
   </g>
   <g id="line2d_28">
    <path clip-path="url(#p406f8e6b0d)" d="M 205.207461 363.365 
" style="fill:none;stroke:#000000;stroke-linecap:round;stroke-width:1.5;"/>
   </g>
   <g id="line2d_29">
    <path clip-path="url(#p406f8e6b0d)" d="M 205.207461 363.365 
L 223.027461 363.365 
L 240.847461 363.365 
" style="fill:none;stroke:#000000;stroke-linecap:round;stroke-width:1.5;"/>
   </g>
   <g id="line2d_30">
    <path clip-path="url(#p406f8e6b0d)" d="M 240.847461 363.365 
" style="fill:none;stroke:#000000;stroke-linecap:round;stroke-width:1.5;"/>
   </g>
   <g id="line2d_31">
    <path clip-path="url(#p406f8e6b0d)" d="M 205.207461 363.365 
L 205.207461 381.725 
L 213.307461 384.275 
L 197.107461 389.375 
L 213.307461 394.475 
L 197.107461 399.575 
L 213.307461 404.675 
L 197.107461 409.775 
L 205.207461 412.325 
L 205.207461 430.685 
" style="fill:none;stroke:#000000;stroke-linecap:round;stroke-width:1.5;"/>
   </g>
   <g id="line2d_32">
    <path clip-path="url(#p406f8e6b0d)" d="M 205.207461 430.685 
" style="fill:none;stroke:#000000;stroke-linecap:round;stroke-width:1.5;"/>
   </g>
   <g id="line2d_33">
    <path clip-path="url(#p406f8e6b0d)" d="M 205.207461 430.685 
L 223.027461 430.685 
L 240.847461 430.685 
" style="fill:none;stroke:#000000;stroke-linecap:round;stroke-width:1.5;"/>
   </g>
   <g id="line2d_34">
    <path clip-path="url(#p406f8e6b0d)" d="M 240.847461 430.685 
" style="fill:none;stroke:#000000;stroke-linecap:round;stroke-width:1.5;"/>
   </g>
   <g id="line2d_35">
    <path clip-path="url(#p406f8e6b0d)" d="M 205.207461 430.685 
L 125.583432 430.685 
L 45.959403 430.685 
" style="fill:none;stroke:#000000;stroke-linecap:round;stroke-width:1.5;"/>
   </g>
   <g id="line2d_36">
    <path clip-path="url(#p406f8e6b0d)" d="M 45.959403 430.685 
" style="fill:none;stroke:#000000;stroke-linecap:round;stroke-width:1.5;"/>
   </g>
   <g id="line2d_37">
    <path clip-path="url(#p406f8e6b0d)" d="M 45.959403 430.685 
L 45.959403 406.5875 
L 45.959403 382.49 
" style="fill:none;stroke:#000000;stroke-linecap:round;stroke-width:1.5;"/>
   </g>
   <g id="line2d_38">
    <path clip-path="url(#p406f8e6b0d)" d="M 45.959403 382.49 
L 54.869403 382.49 
L 63.779403 382.49 
" style="fill:none;stroke:#000000;stroke-linecap:round;stroke-width:1.5;"/>
   </g>
   <g id="line2d_39">
    <path clip-path="url(#p406f8e6b0d)" d="M 45.959403 430.685 
L 45.959403 440.63 
L 45.959403 440.63 
M 45.959403 471.23 
L 45.959403 471.23 
L 45.959403 481.175 
" style="fill:none;stroke:#000000;stroke-linecap:round;stroke-width:1.5;"/>
   </g>
   <g id="line2d_40">
    <path clip-path="url(#p406f8e6b0d)" d="M 29.759403 313.64 
L 126.959403 313.64 
L 224.159403 313.64 
" style="fill:none;stroke:#000000;stroke-dasharray:1.5,2.475;stroke-dashoffset:0;stroke-width:1.5;"/>
   </g>
   <g id="line2d_41">
    <path clip-path="url(#p406f8e6b0d)" d="M 224.159403 313.64 
L 224.159403 420.74 
L 224.159403 527.84 
" style="fill:none;stroke:#000000;stroke-dasharray:1.5,2.475;stroke-dashoffset:0;stroke-width:1.5;"/>
   </g>
   <g id="line2d_42">
    <path clip-path="url(#p406f8e6b0d)" d="M 224.159403 527.84 
L 126.959403 527.84 
L 29.759403 527.84 
" style="fill:none;stroke:#000000;stroke-dasharray:1.5,2.475;stroke-dashoffset:0;stroke-width:1.5;"/>
   </g>
   <g id="line2d_43">
    <path clip-path="url(#p406f8e6b0d)" d="M 29.759403 527.84 
L 29.759403 420.74 
L 29.759403 313.64 
" style="fill:none;stroke:#000000;stroke-dasharray:1.5,2.475;stroke-dashoffset:0;stroke-width:1.5;"/>
   </g>
   <g id="patch_2">
    <path clip-path="url(#p406f8e6b0d)" d="M 169.567461 103.265 
C 173.863751 103.265 177.984654 101.652895 181.02259 98.783734 
C 184.060526 95.914572 185.767461 92.022607 185.767461 87.965 
C 185.767461 83.907393 184.060526 80.015428 181.02259 77.146266 
C 177.984654 74.277105 173.863751 72.665 169.567461 72.665 
C 165.27117 72.665 161.150267 74.277105 158.112331 77.146266 
C 155.074395 80.015428 153.367461 83.907393 153.367461 87.965 
C 153.367461 92.022607 155.074395 95.914572 158.112331 98.783734 
C 161.150267 101.652895 165.27117 103.265 169.567461 103.265 
z
" style="fill:none;stroke:#000000;stroke-linejoin:miter;stroke-width:1.5;"/>
   </g>
   <g id="patch_3">
    <path clip-path="url(#p406f8e6b0d)" d="M 205.207461 90.26 
C 205.851904 90.26 206.47004 90.018184 206.92573 89.58781 
C 207.38142 89.157436 207.637461 88.573641 207.637461 87.965 
C 207.637461 87.356359 207.38142 86.772564 206.92573 86.34219 
C 206.47004 85.911816 205.851904 85.67 205.207461 85.67 
C 204.563017 85.67 203.944882 85.911816 203.489191 86.34219 
C 203.033501 86.772564 202.777461 87.356359 202.777461 87.965 
C 202.777461 88.573641 203.033501 89.157436 203.489191 89.58781 
C 203.944882 90.018184 204.563017 90.26 205.207461 90.26 
z
" style="stroke:#000000;stroke-linejoin:miter;stroke-width:1.5;"/>
   </g>
   <g id="patch_4">
    <path clip-path="url(#p406f8e6b0d)" d="M 240.847461 90.26 
C 241.491904 90.26 242.11004 90.018184 242.56573 89.58781 
C 243.02142 89.157436 243.277461 88.573641 243.277461 87.965 
C 243.277461 87.356359 243.02142 86.772564 242.56573 86.34219 
C 242.11004 85.911816 241.491904 85.67 240.847461 85.67 
C 240.203017 85.67 239.584882 85.911816 239.129191 86.34219 
C 238.673501 86.772564 238.417461 87.356359 238.417461 87.965 
C 238.417461 88.573641 238.673501 89.157436 239.129191 89.58781 
C 239.584882 90.018184 240.203017 90.26 240.847461 90.26 
z
" style="fill:#ffffff;stroke:#000000;stroke-linejoin:miter;stroke-width:1.5;"/>
   </g>
   <g id="patch_5">
    <path clip-path="url(#p406f8e6b0d)" d="M 205.207461 157.58 
C 205.851904 157.58 206.47004 157.338184 206.92573 156.90781 
C 207.38142 156.477436 207.637461 155.893641 207.637461 155.285 
C 207.637461 154.676359 207.38142 154.092564 206.92573 153.66219 
C 206.47004 153.231816 205.851904 152.99 205.207461 152.99 
C 204.563017 152.99 203.944882 153.231816 203.489191 153.66219 
C 203.033501 154.092564 202.777461 154.676359 202.777461 155.285 
C 202.777461 155.893641 203.033501 156.477436 203.489191 156.90781 
C 203.944882 157.338184 204.563017 157.58 205.207461 157.58 
z
" style="stroke:#000000;stroke-linejoin:miter;stroke-width:1.5;"/>
   </g>
   <g id="patch_6">
    <path clip-path="url(#p406f8e6b0d)" d="M 240.847461 157.58 
C 241.491904 157.58 242.11004 157.338184 242.56573 156.90781 
C 243.02142 156.477436 243.277461 155.893641 243.277461 155.285 
C 243.277461 154.676359 243.02142 154.092564 242.56573 153.66219 
C 242.11004 153.231816 241.491904 152.99 240.847461 152.99 
C 240.203017 152.99 239.584882 153.231816 239.129191 153.66219 
C 238.673501 154.092564 238.417461 154.676359 238.417461 155.285 
C 238.417461 155.893641 238.673501 156.477436 239.129191 156.90781 
C 239.584882 157.338184 240.203017 157.58 240.847461 157.58 
z
" style="fill:#ffffff;stroke:#000000;stroke-linejoin:miter;stroke-width:1.5;"/>
   </g>
   <g id="patch_7">
    <path clip-path="url(#p406f8e6b0d)" d="M 45.959403 157.58 
C 46.603846 157.58 47.221982 157.338184 47.677672 156.90781 
C 48.133363 156.477436 48.389403 155.893641 48.389403 155.285 
C 48.389403 154.676359 48.133363 154.092564 47.677672 153.66219 
C 47.221982 153.231816 46.603846 152.99 45.959403 152.99 
C 45.314959 152.99 44.696824 153.231816 44.241133 153.66219 
C 43.785443 154.092564 43.529403 154.676359 43.529403 155.285 
C 43.529403 155.893641 43.785443 156.477436 44.241133 156.90781 
C 44.696824 157.338184 45.314959 157.58 45.959403 157.58 
z
" style="stroke:#000000;stroke-linejoin:miter;stroke-width:1.5;"/>
   </g>
   <g id="patch_8">
    <path clip-path="url(#p406f8e6b0d)" d="M 45.959403 195.83 
C 50.255693 195.83 54.376597 194.217895 57.414533 191.348734 
C 60.452469 188.479572 62.159403 184.587607 62.159403 180.53 
C 62.159403 176.472393 60.452469 172.580428 57.414533 169.711266 
C 54.376597 166.842105 50.255693 165.23 45.959403 165.23 
C 41.663113 165.23 37.542209 166.842105 34.504273 169.711266 
C 31.466337 172.580428 29.759403 176.472393 29.759403 180.53 
C 29.759403 184.587607 31.466337 188.479572 34.504273 191.348734 
C 37.542209 194.217895 41.663113 195.83 45.959403 195.83 
z
" style="fill:none;stroke:#000000;stroke-linejoin:miter;stroke-width:1.5;"/>
   </g>
   <g id="patch_9">
    <path clip-path="url(#p406f8e6b0d)" d="M 169.567461 378.665 
C 173.863751 378.665 177.984654 377.052895 181.02259 374.183734 
C 184.060526 371.314572 185.767461 367.422607 185.767461 363.365 
C 185.767461 359.307393 184.060526 355.415428 181.02259 352.546266 
C 177.984654 349.677105 173.863751 348.065 169.567461 348.065 
C 165.27117 348.065 161.150267 349.677105 158.112331 352.546266 
C 155.074395 355.415428 153.367461 359.307393 153.367461 363.365 
C 153.367461 367.422607 155.074395 371.314572 158.112331 374.183734 
C 161.150267 377.052895 165.27117 378.665 169.567461 378.665 
z
" style="fill:none;stroke:#000000;stroke-linejoin:miter;stroke-width:1.5;"/>
   </g>
   <g id="patch_10">
    <path clip-path="url(#p406f8e6b0d)" d="M 205.207461 365.66 
C 205.851904 365.66 206.47004 365.418184 206.92573 364.98781 
C 207.38142 364.557436 207.637461 363.973641 207.637461 363.365 
C 207.637461 362.756359 207.38142 362.172564 206.92573 361.74219 
C 206.47004 361.311816 205.851904 361.07 205.207461 361.07 
C 204.563017 361.07 203.944882 361.311816 203.489191 361.74219 
C 203.033501 362.172564 202.777461 362.756359 202.777461 363.365 
C 202.777461 363.973641 203.033501 364.557436 203.489191 364.98781 
C 203.944882 365.418184 204.563017 365.66 205.207461 365.66 
z
" style="stroke:#000000;stroke-linejoin:miter;stroke-width:1.5;"/>
   </g>
   <g id="patch_11">
    <path clip-path="url(#p406f8e6b0d)" d="M 240.847461 365.66 
C 241.491904 365.66 242.11004 365.418184 242.56573 364.98781 
C 243.02142 364.557436 243.277461 363.973641 243.277461 363.365 
C 243.277461 362.756359 243.02142 362.172564 242.56573 361.74219 
C 242.11004 361.311816 241.491904 361.07 240.847461 361.07 
C 240.203017 361.07 239.584882 361.311816 239.129191 361.74219 
C 238.673501 362.172564 238.417461 362.756359 238.417461 363.365 
C 238.417461 363.973641 238.673501 364.557436 239.129191 364.98781 
C 239.584882 365.418184 240.203017 365.66 240.847461 365.66 
z
" style="fill:#ffffff;stroke:#000000;stroke-linejoin:miter;stroke-width:1.5;"/>
   </g>
   <g id="patch_12">
    <path clip-path="url(#p406f8e6b0d)" d="M 205.207461 432.98 
C 205.851904 432.98 206.47004 432.738184 206.92573 432.30781 
C 207.38142 431.877436 207.637461 431.293641 207.637461 430.685 
C 207.637461 430.076359 207.38142 429.492564 206.92573 429.06219 
C 206.47004 428.631816 205.851904 428.39 205.207461 428.39 
C 204.563017 428.39 203.944882 428.631816 203.489191 429.06219 
C 203.033501 429.492564 202.777461 430.076359 202.777461 430.685 
C 202.777461 431.293641 203.033501 431.877436 203.489191 432.30781 
C 203.944882 432.738184 204.563017 432.98 205.207461 432.98 
z
" style="stroke:#000000;stroke-linejoin:miter;stroke-width:1.5;"/>
   </g>
   <g id="patch_13">
    <path clip-path="url(#p406f8e6b0d)" d="M 240.847461 432.98 
C 241.491904 432.98 242.11004 432.738184 242.56573 432.30781 
C 243.02142 431.877436 243.277461 431.293641 243.277461 430.685 
C 243.277461 430.076359 243.02142 429.492564 242.56573 429.06219 
C 242.11004 428.631816 241.491904 428.39 240.847461 428.39 
C 240.203017 428.39 239.584882 428.631816 239.129191 429.06219 
C 238.673501 429.492564 238.417461 430.076359 238.417461 430.685 
C 238.417461 431.293641 238.673501 431.877436 239.129191 432.30781 
C 239.584882 432.738184 240.203017 432.98 240.847461 432.98 
z
" style="fill:#ffffff;stroke:#000000;stroke-linejoin:miter;stroke-width:1.5;"/>
   </g>
   <g id="patch_14">
    <path clip-path="url(#p406f8e6b0d)" d="M 45.959403 432.98 
C 46.603846 432.98 47.221982 432.738184 47.677672 432.30781 
C 48.133363 431.877436 48.389403 431.293641 48.389403 430.685 
C 48.389403 430.076359 48.133363 429.492564 47.677672 429.06219 
C 47.221982 428.631816 46.603846 428.39 45.959403 428.39 
C 45.314959 428.39 44.696824 428.631816 44.241133 429.06219 
C 43.785443 429.492564 43.529403 430.076359 43.529403 430.685 
C 43.529403 431.293641 43.785443 431.877436 44.241133 432.30781 
C 44.696824 432.738184 45.314959 432.98 45.959403 432.98 
z
" style="stroke:#000000;stroke-linejoin:miter;stroke-width:1.5;"/>
   </g>
   <g id="patch_15">
    <path clip-path="url(#p406f8e6b0d)" d="M 45.959403 471.23 
C 50.255693 471.23 54.376597 469.617895 57.414533 466.748734 
C 60.452469 463.879572 62.159403 459.987607 62.159403 455.93 
C 62.159403 451.872393 60.452469 447.980428 57.414533 445.111266 
C 54.376597 442.242105 50.255693 440.63 45.959403 440.63 
C 41.663113 440.63 37.542209 442.242105 34.504273 445.111266 
C 31.466337 447.980428 29.759403 451.872393 29.759403 455.93 
C 29.759403 459.987607 31.466337 463.879572 34.504273 466.748734 
C 37.542209 469.617895 41.663113 471.23 45.959403 471.23 
z
" style="fill:none;stroke:#000000;stroke-linejoin:miter;stroke-width:1.5;"/>
   </g>
   <g id="text_1">
    <!-- I -->
    <defs>
     <path d="M 9.8125 72.90625 
L 19.671875 72.90625 
L 19.671875 0 
L 9.8125 0 
z
" id="DejaVuSans-49"/>
    </defs>
    <g transform="translate(167.207461 92.38)scale(0.16 -0.16)">
     <use xlink:href="#DejaVuSans-49"/>
    </g>
   </g>
   <g id="text_2">
    <!-- F -->
    <defs>
     <path d="M 9.8125 72.90625 
L 51.703125 72.90625 
L 51.703125 64.59375 
L 19.671875 64.59375 
L 19.671875 43.109375 
L 48.578125 43.109375 
L 48.578125 34.8125 
L 19.671875 34.8125 
L 19.671875 0 
L 9.8125 0 
z
" id="DejaVuSans-46"/>
    </defs>
    <g transform="translate(236.246211 79.2825)scale(0.16 -0.16)">
     <use xlink:href="#DejaVuSans-46"/>
    </g>
   </g>
   <g id="text_3">
    <!-- $R_s$ -->
    <defs>
     <path d="M 44.390625 34.1875 
Q 47.5625 33.109375 50.5625 29.59375 
Q 53.5625 26.078125 56.59375 19.921875 
L 66.609375 0 
L 56 0 
L 46.6875 18.703125 
Q 43.0625 26.03125 39.671875 28.421875 
Q 36.28125 30.8125 30.421875 30.8125 
L 19.671875 30.8125 
L 19.671875 0 
L 9.8125 0 
L 9.8125 72.90625 
L 32.078125 72.90625 
Q 44.578125 72.90625 50.734375 67.671875 
Q 56.890625 62.453125 56.890625 51.90625 
Q 56.890625 45.015625 53.6875 40.46875 
Q 50.484375 35.9375 44.390625 34.1875 
z
M 19.671875 64.796875 
L 19.671875 38.921875 
L 32.078125 38.921875 
Q 39.203125 38.921875 42.84375 42.21875 
Q 46.484375 45.515625 46.484375 51.90625 
Q 46.484375 58.296875 42.84375 61.546875 
Q 39.203125 64.796875 32.078125 64.796875 
z
" id="DejaVuSans-52"/>
     <path d="M 44.28125 53.078125 
L 44.28125 44.578125 
Q 40.484375 46.53125 36.375 47.5 
Q 32.28125 48.484375 27.875 48.484375 
Q 21.1875 48.484375 17.84375 46.4375 
Q 14.5 44.390625 14.5 40.28125 
Q 14.5 37.15625 16.890625 35.375 
Q 19.28125 33.59375 26.515625 31.984375 
L 29.59375 31.296875 
Q 39.15625 29.25 43.1875 25.515625 
Q 47.21875 21.78125 47.21875 15.09375 
Q 47.21875 7.46875 41.1875 3.015625 
Q 35.15625 -1.421875 24.609375 -1.421875 
Q 20.21875 -1.421875 15.453125 -0.5625 
Q 10.6875 0.296875 5.421875 2 
L 5.421875 11.28125 
Q 10.40625 8.6875 15.234375 7.390625 
Q 20.0625 6.109375 24.8125 6.109375 
Q 31.15625 6.109375 34.5625 8.28125 
Q 37.984375 10.453125 37.984375 14.40625 
Q 37.984375 18.0625 35.515625 20.015625 
Q 33.0625 21.96875 24.703125 23.78125 
L 21.578125 24.515625 
Q 13.234375 26.265625 9.515625 29.90625 
Q 5.8125 33.546875 5.8125 39.890625 
Q 5.8125 47.609375 11.28125 51.796875 
Q 16.75 56 26.8125 56 
Q 31.78125 56 36.171875 55.265625 
Q 40.578125 54.546875 44.28125 53.078125 
z
" id="DejaVuSans-73"/>
    </defs>
    <g transform="translate(177.887461 141.34)scale(0.16 -0.16)">
     <use transform="translate(0 0.09375)" xlink:href="#DejaVuSans-52"/>
     <use transform="translate(70.439453 -16.3125)scale(0.7)" xlink:href="#DejaVuSans-73"/>
    </g>
   </g>
   <g id="text_4">
    <!-- S -->
    <defs>
     <path d="M 53.515625 70.515625 
L 53.515625 60.890625 
Q 47.90625 63.578125 42.921875 64.890625 
Q 37.9375 66.21875 33.296875 66.21875 
Q 25.25 66.21875 20.875 63.09375 
Q 16.5 59.96875 16.5 54.203125 
Q 16.5 49.359375 19.40625 46.890625 
Q 22.3125 44.4375 30.421875 42.921875 
L 36.375 41.703125 
Q 47.40625 39.59375 52.65625 34.296875 
Q 57.90625 29 57.90625 20.125 
Q 57.90625 9.515625 50.796875 4.046875 
Q 43.703125 -1.421875 29.984375 -1.421875 
Q 24.8125 -1.421875 18.96875 -0.25 
Q 13.140625 0.921875 6.890625 3.21875 
L 6.890625 13.375 
Q 12.890625 10.015625 18.65625 8.296875 
Q 24.421875 6.59375 29.984375 6.59375 
Q 38.421875 6.59375 43.015625 9.90625 
Q 47.609375 13.234375 47.609375 19.390625 
Q 47.609375 24.75 44.3125 27.78125 
Q 41.015625 30.8125 33.5 32.328125 
L 27.484375 33.5 
Q 16.453125 35.6875 11.515625 40.375 
Q 6.59375 45.0625 6.59375 53.421875 
Q 6.59375 63.09375 13.40625 68.65625 
Q 20.21875 74.21875 32.171875 74.21875 
Q 37.3125 74.21875 42.625 73.28125 
Q 47.953125 72.359375 53.515625 70.515625 
z
" id="DejaVuSans-53"/>
    </defs>
    <g transform="translate(235.768711 146.6025)scale(0.16 -0.16)">
     <use xlink:href="#DejaVuSans-53"/>
    </g>
   </g>
   <g id="text_5">
    <!-- V -->
    <defs>
     <path d="M 28.609375 0 
L 0.78125 72.90625 
L 11.078125 72.90625 
L 34.1875 11.53125 
L 57.328125 72.90625 
L 67.578125 72.90625 
L 39.796875 0 
z
" id="DejaVuSans-56"/>
    </defs>
    <g transform="translate(40.486903 184.945)scale(0.16 -0.16)">
     <use xlink:href="#DejaVuSans-56"/>
    </g>
   </g>
   <g id="text_6">
    <!-- SMU1 -->
    <defs>
     <path d="M 9.8125 72.90625 
L 24.515625 72.90625 
L 43.109375 23.296875 
L 61.8125 72.90625 
L 76.515625 72.90625 
L 76.515625 0 
L 66.890625 0 
L 66.890625 64.015625 
L 48.09375 14.015625 
L 38.1875 14.015625 
L 19.390625 64.015625 
L 19.390625 0 
L 9.8125 0 
z
" id="DejaVuSans-4d"/>
     <path d="M 8.6875 72.90625 
L 18.609375 72.90625 
L 18.609375 28.609375 
Q 18.609375 16.890625 22.84375 11.734375 
Q 27.09375 6.59375 36.625 6.59375 
Q 46.09375 6.59375 50.34375 11.734375 
Q 54.59375 16.890625 54.59375 28.609375 
L 54.59375 72.90625 
L 64.5 72.90625 
L 64.5 27.390625 
Q 64.5 13.140625 57.4375 5.859375 
Q 50.390625 -1.421875 36.625 -1.421875 
Q 22.796875 -1.421875 15.734375 5.859375 
Q 8.6875 13.140625 8.6875 27.390625 
z
" id="DejaVuSans-55"/>
     <path d="M 12.40625 8.296875 
L 28.515625 8.296875 
L 28.515625 63.921875 
L 10.984375 60.40625 
L 10.984375 69.390625 
L 28.421875 72.90625 
L 38.28125 72.90625 
L 38.28125 8.296875 
L 54.390625 8.296875 
L 54.390625 0 
L 12.40625 0 
z
" id="DejaVuSans-31"/>
    </defs>
    <g transform="translate(146.641211 202.4475)scale(0.16 -0.16)">
     <use xlink:href="#DejaVuSans-53"/>
     <use x="63.476562" xlink:href="#DejaVuSans-4d"/>
     <use x="149.755859" xlink:href="#DejaVuSans-55"/>
     <use x="222.949219" xlink:href="#DejaVuSans-31"/>
    </g>
   </g>
   <g id="text_7">
    <!-- $R_c$ -->
    <defs>
     <path d="M 48.78125 52.59375 
L 48.78125 44.1875 
Q 44.96875 46.296875 41.140625 47.34375 
Q 37.3125 48.390625 33.40625 48.390625 
Q 24.65625 48.390625 19.8125 42.84375 
Q 14.984375 37.3125 14.984375 27.296875 
Q 14.984375 17.28125 19.8125 11.734375 
Q 24.65625 6.203125 33.40625 6.203125 
Q 37.3125 6.203125 41.140625 7.25 
Q 44.96875 8.296875 48.78125 10.40625 
L 48.78125 2.09375 
Q 45.015625 0.34375 40.984375 -0.53125 
Q 36.96875 -1.421875 32.421875 -1.421875 
Q 20.0625 -1.421875 12.78125 6.34375 
Q 5.515625 14.109375 5.515625 27.296875 
Q 5.515625 40.671875 12.859375 48.328125 
Q 20.21875 56 33.015625 56 
Q 37.15625 56 41.109375 55.140625 
Q 45.0625 54.296875 48.78125 52.59375 
z
" id="DejaVuSans-63"/>
    </defs>
    <g transform="translate(280.487461 73.9275)scale(0.16 -0.16)">
     <use transform="translate(0 0.09375)" xlink:href="#DejaVuSans-52"/>
     <use transform="translate(70.439453 -16.3125)scale(0.7)" xlink:href="#DejaVuSans-63"/>
    </g>
   </g>
   <g id="text_8">
    <!-- $R_{ch}$ -->
    <defs>
     <path d="M 54.890625 33.015625 
L 54.890625 0 
L 45.90625 0 
L 45.90625 32.71875 
Q 45.90625 40.484375 42.875 44.328125 
Q 39.84375 48.1875 33.796875 48.1875 
Q 26.515625 48.1875 22.3125 43.546875 
Q 18.109375 38.921875 18.109375 30.90625 
L 18.109375 0 
L 9.078125 0 
L 9.078125 75.984375 
L 18.109375 75.984375 
L 18.109375 46.1875 
Q 21.34375 51.125 25.703125 53.5625 
Q 30.078125 56 35.796875 56 
Q 45.21875 56 50.046875 50.171875 
Q 54.890625 44.34375 54.890625 33.015625 
z
" id="DejaVuSans-68"/>
    </defs>
    <g transform="translate(301.587461 230.08)scale(0.16 -0.16)">
     <use transform="translate(0 0.09375)" xlink:href="#DejaVuSans-52"/>
     <use transform="translate(70.439453 -16.3125)scale(0.7)" xlink:href="#DejaVuSans-63"/>
     <use transform="translate(108.925781 -16.3125)scale(0.7)" xlink:href="#DejaVuSans-68"/>
    </g>
   </g>
   <g id="text_9">
    <!-- $R_c$ -->
    <g transform="translate(280.487461 349.3275)scale(0.16 -0.16)">
     <use transform="translate(0 0.09375)" xlink:href="#DejaVuSans-52"/>
     <use transform="translate(70.439453 -16.3125)scale(0.7)" xlink:href="#DejaVuSans-63"/>
    </g>
   </g>
   <g id="text_10">
    <!-- I -->
    <g transform="translate(167.207461 367.78)scale(0.16 -0.16)">
     <use xlink:href="#DejaVuSans-49"/>
    </g>
   </g>
   <g id="text_11">
    <!-- F -->
    <g transform="translate(236.246211 354.6825)scale(0.16 -0.16)">
     <use xlink:href="#DejaVuSans-46"/>
    </g>
   </g>
   <g id="text_12">
    <!-- $R_s$ -->
    <g transform="translate(177.887461 416.74)scale(0.16 -0.16)">
     <use transform="translate(0 0.09375)" xlink:href="#DejaVuSans-52"/>
     <use transform="translate(70.439453 -16.3125)scale(0.7)" xlink:href="#DejaVuSans-73"/>
    </g>
   </g>
   <g id="text_13">
    <!-- S -->
    <g transform="translate(235.768711 422.0025)scale(0.16 -0.16)">
     <use xlink:href="#DejaVuSans-53"/>
    </g>
   </g>
   <g id="text_14">
    <!-- V -->
    <g transform="translate(40.486903 460.345)scale(0.16 -0.16)">
     <use xlink:href="#DejaVuSans-56"/>
    </g>
   </g>
   <g id="text_15">
    <!-- SMU2 -->
    <defs>
     <path d="M 19.1875 8.296875 
L 53.609375 8.296875 
L 53.609375 0 
L 7.328125 0 
L 7.328125 8.296875 
Q 12.9375 14.109375 22.625 23.890625 
Q 32.328125 33.6875 34.8125 36.53125 
Q 39.546875 41.84375 41.421875 45.53125 
Q 43.3125 49.21875 43.3125 52.78125 
Q 43.3125 58.59375 39.234375 62.25 
Q 35.15625 65.921875 28.609375 65.921875 
Q 23.96875 65.921875 18.8125 64.3125 
Q 13.671875 62.703125 7.8125 59.421875 
L 7.8125 69.390625 
Q 13.765625 71.78125 18.9375 73 
Q 24.125 74.21875 28.421875 74.21875 
Q 39.75 74.21875 46.484375 68.546875 
Q 53.21875 62.890625 53.21875 53.421875 
Q 53.21875 48.921875 51.53125 44.890625 
Q 49.859375 40.875 45.40625 35.40625 
Q 44.1875 33.984375 37.640625 27.21875 
Q 31.109375 20.453125 19.1875 8.296875 
z
" id="DejaVuSans-32"/>
    </defs>
    <g transform="translate(123.714961 485.59)scale(0.16 -0.16)">
     <use xlink:href="#DejaVuSans-53"/>
     <use x="63.476562" xlink:href="#DejaVuSans-4d"/>
     <use x="149.755859" xlink:href="#DejaVuSans-55"/>
     <use x="222.949219" xlink:href="#DejaVuSans-32"/>
    </g>
   </g>
  </g>
 </g>
 <defs>
  <clipPath id="p406f8e6b0d">
   <rect height="544.68" width="354.506863" x="10.7" y="10.7"/>
  </clipPath>
 </defs>
</svg>
