<?xml version="1.0" encoding="utf-8" standalone="no"?>
<!DOCTYPE svg PUBLIC "-//W3C//DTD SVG 1.1//EN"
  "http://www.w3.org/Graphics/SVG/1.1/DTD/svg11.dtd">
<!-- Created with matplotlib (http://matplotlib.org/) -->
<svg height="510pt" version="1.1" viewBox="0 0 337 510" width="337pt" xmlns="http://www.w3.org/2000/svg" xmlns:xlink="http://www.w3.org/1999/xlink">
 <defs>
  <style type="text/css">
*{stroke-linecap:butt;stroke-linejoin:round;stroke-miterlimit:100000;}
  </style>
 </defs>
 <g id="figure_1">
  <g id="patch_1">
   <path d="M 0 510.12 
L 337.268058 510.12 
L 337.268058 0 
L 0 0 
z
" style="fill:none;"/>
  </g>
  <g id="axes_1">
   <g id="line2d_1">
    <path clip-path="url(#p30cbfface8)" d="M 26.64 177.795 
L 26.64 190.035 
L 18.54 190.035 
L 34.74 190.035 
M 20.97 193.707 
L 32.31 193.707 
M 25.02 197.379 
L 28.26 197.379 
" style="fill:none;stroke:#000000;stroke-linecap:round;stroke-width:1.5;"/>
   </g>
   <g id="line2d_2">
    <path clip-path="url(#p30cbfface8)" d="M 26.64 40.86 
L 35.55 40.86 
L 44.46 40.86 
" style="fill:none;stroke:#000000;stroke-linecap:round;stroke-width:1.5;"/>
   </g>
   <g id="line2d_3">
    <path clip-path="url(#p30cbfface8)" d="M 44.46 59.985 
L 44.46 21.735 
L 114.608058 59.985 
L 44.46 98.235 
L 44.46 59.985 
M 114.608058 59.985 
" style="fill:none;stroke:#000000;stroke-linecap:round;stroke-width:1.5;"/>
   </g>
   <g id="line2d_4">
    <path clip-path="url(#p30cbfface8)" d="M 114.608058 59.985 
L 134.048058 59.985 
L 134.048058 59.985 
M 166.448058 59.985 
L 166.448058 59.985 
L 185.888058 59.985 
" style="fill:none;stroke:#000000;stroke-linecap:round;stroke-width:1.5;"/>
   </g>
   <g id="line2d_5">
    <path clip-path="url(#p30cbfface8)" d="M 185.888058 59.985 
" style="fill:none;stroke:#000000;stroke-linecap:round;stroke-width:1.5;"/>
   </g>
   <g id="line2d_6">
    <path clip-path="url(#p30cbfface8)" d="M 185.888058 59.985 
L 203.708058 59.985 
L 221.528058 59.985 
" style="fill:none;stroke:#000000;stroke-linecap:round;stroke-width:1.5;"/>
   </g>
   <g id="line2d_7">
    <path clip-path="url(#p30cbfface8)" d="M 221.528058 59.985 
" style="fill:none;stroke:#000000;stroke-linecap:round;stroke-width:1.5;"/>
   </g>
   <g id="line2d_8">
    <path clip-path="url(#p30cbfface8)" d="M 185.888058 59.985 
L 185.888058 78.345 
L 193.988058 80.895 
L 177.788058 85.995 
L 193.988058 91.095 
L 177.788058 96.195 
L 193.988058 101.295 
L 177.788058 106.395 
L 185.888058 108.945 
L 185.888058 127.305 
" style="fill:none;stroke:#000000;stroke-linecap:round;stroke-width:1.5;"/>
   </g>
   <g id="line2d_9">
    <path clip-path="url(#p30cbfface8)" d="M 185.888058 127.305 
" style="fill:none;stroke:#000000;stroke-linecap:round;stroke-width:1.5;"/>
   </g>
   <g id="line2d_10">
    <path clip-path="url(#p30cbfface8)" d="M 185.888058 127.305 
L 203.708058 127.305 
L 221.528058 127.305 
" style="fill:none;stroke:#000000;stroke-linecap:round;stroke-width:1.5;"/>
   </g>
   <g id="line2d_11">
    <path clip-path="url(#p30cbfface8)" d="M 221.528058 127.305 
" style="fill:none;stroke:#000000;stroke-linecap:round;stroke-width:1.5;"/>
   </g>
   <g id="line2d_12">
    <path clip-path="url(#p30cbfface8)" d="M 185.888058 127.305 
L 106.264029 127.305 
L 26.64 127.305 
" style="fill:none;stroke:#000000;stroke-linecap:round;stroke-width:1.5;"/>
   </g>
   <g id="line2d_13">
    <path clip-path="url(#p30cbfface8)" d="M 26.64 127.305 
" style="fill:none;stroke:#000000;stroke-linecap:round;stroke-width:1.5;"/>
   </g>
   <g id="line2d_14">
    <path clip-path="url(#p30cbfface8)" d="M 26.64 127.305 
L 26.64 103.2075 
L 26.64 79.11 
" style="fill:none;stroke:#000000;stroke-linecap:round;stroke-width:1.5;"/>
   </g>
   <g id="line2d_15">
    <path clip-path="url(#p30cbfface8)" d="M 26.64 79.11 
L 35.55 79.11 
L 44.46 79.11 
" style="fill:none;stroke:#000000;stroke-linecap:round;stroke-width:1.5;"/>
   </g>
   <g id="line2d_16">
    <path clip-path="url(#p30cbfface8)" d="M 26.64 127.305 
L 26.64 137.25 
L 26.64 137.25 
M 26.64 167.85 
L 26.64 167.85 
L 26.64 177.795 
" style="fill:none;stroke:#000000;stroke-linecap:round;stroke-width:1.5;"/>
   </g>
   <g id="line2d_17">
    <path clip-path="url(#p30cbfface8)" d="M 10.44 10.26 
L 107.64 10.26 
L 204.84 10.26 
" style="fill:none;stroke:#000000;stroke-dasharray:1.000000,3.000000;stroke-dashoffset:0.0;stroke-width:1.5;"/>
   </g>
   <g id="line2d_18">
    <path clip-path="url(#p30cbfface8)" d="M 204.84 10.26 
L 204.84 117.36 
L 204.84 224.46 
" style="fill:none;stroke:#000000;stroke-dasharray:1.000000,3.000000;stroke-dashoffset:0.0;stroke-width:1.5;"/>
   </g>
   <g id="line2d_19">
    <path clip-path="url(#p30cbfface8)" d="M 204.84 224.46 
L 107.64 224.46 
L 10.44 224.46 
" style="fill:none;stroke:#000000;stroke-dasharray:1.000000,3.000000;stroke-dashoffset:0.0;stroke-width:1.5;"/>
   </g>
   <g id="line2d_20">
    <path clip-path="url(#p30cbfface8)" d="M 10.44 224.46 
L 10.44 117.36 
L 10.44 10.26 
" style="fill:none;stroke:#000000;stroke-dasharray:1.000000,3.000000;stroke-dashoffset:0.0;stroke-width:1.5;"/>
   </g>
   <g id="line2d_21">
    <path clip-path="url(#p30cbfface8)" d="M 221.528058 59.985 
L 253.928058 59.985 
L 256.628058 52.335 
L 262.028058 67.635 
L 267.428058 52.335 
L 272.828058 67.635 
L 278.228058 52.335 
L 283.628058 67.635 
L 286.328058 59.985 
L 318.728058 59.985 
" style="fill:none;stroke:#000000;stroke-linecap:round;stroke-width:1.5;"/>
   </g>
   <g id="line2d_22">
    <path clip-path="url(#p30cbfface8)" d="M 318.728058 59.985 
L 318.728058 182.385 
L 326.828058 184.935 
L 310.628058 190.035 
L 326.828058 195.135 
L 310.628058 200.235 
L 326.828058 205.335 
L 310.628058 210.435 
L 318.728058 212.985 
L 318.728058 335.385 
" style="fill:none;stroke:#000000;stroke-linecap:round;stroke-width:1.5;"/>
   </g>
   <g id="line2d_23">
    <path clip-path="url(#p30cbfface8)" d="M 318.728058 335.385 
L 286.328058 335.385 
L 283.628058 343.035 
L 278.228058 327.735 
L 272.828058 343.035 
L 267.428058 327.735 
L 262.028058 343.035 
L 256.628058 327.735 
L 253.928058 335.385 
L 221.528058 335.385 
" style="fill:none;stroke:#000000;stroke-linecap:round;stroke-width:1.5;"/>
   </g>
   <g id="line2d_24">
    <path clip-path="url(#p30cbfface8)" d="M 26.64 453.195 
L 26.64 465.435 
L 18.54 465.435 
L 34.74 465.435 
M 20.97 469.107 
L 32.31 469.107 
M 25.02 472.779 
L 28.26 472.779 
" style="fill:none;stroke:#000000;stroke-linecap:round;stroke-width:1.5;"/>
   </g>
   <g id="line2d_25">
    <path clip-path="url(#p30cbfface8)" d="M 26.64 316.26 
L 35.55 316.26 
L 44.46 316.26 
" style="fill:none;stroke:#000000;stroke-linecap:round;stroke-width:1.5;"/>
   </g>
   <g id="line2d_26">
    <path clip-path="url(#p30cbfface8)" d="M 44.46 335.385 
L 44.46 297.135 
L 114.608058 335.385 
L 44.46 373.635 
L 44.46 335.385 
M 114.608058 335.385 
" style="fill:none;stroke:#000000;stroke-linecap:round;stroke-width:1.5;"/>
   </g>
   <g id="line2d_27">
    <path clip-path="url(#p30cbfface8)" d="M 114.608058 335.385 
L 134.048058 335.385 
L 134.048058 335.385 
M 166.448058 335.385 
L 166.448058 335.385 
L 185.888058 335.385 
" style="fill:none;stroke:#000000;stroke-linecap:round;stroke-width:1.5;"/>
   </g>
   <g id="line2d_28">
    <path clip-path="url(#p30cbfface8)" d="M 185.888058 335.385 
" style="fill:none;stroke:#000000;stroke-linecap:round;stroke-width:1.5;"/>
   </g>
   <g id="line2d_29">
    <path clip-path="url(#p30cbfface8)" d="M 185.888058 335.385 
L 203.708058 335.385 
L 221.528058 335.385 
" style="fill:none;stroke:#000000;stroke-linecap:round;stroke-width:1.5;"/>
   </g>
   <g id="line2d_30">
    <path clip-path="url(#p30cbfface8)" d="M 221.528058 335.385 
" style="fill:none;stroke:#000000;stroke-linecap:round;stroke-width:1.5;"/>
   </g>
   <g id="line2d_31">
    <path clip-path="url(#p30cbfface8)" d="M 185.888058 335.385 
L 185.888058 353.745 
L 193.988058 356.295 
L 177.788058 361.395 
L 193.988058 366.495 
L 177.788058 371.595 
L 193.988058 376.695 
L 177.788058 381.795 
L 185.888058 384.345 
L 185.888058 402.705 
" style="fill:none;stroke:#000000;stroke-linecap:round;stroke-width:1.5;"/>
   </g>
   <g id="line2d_32">
    <path clip-path="url(#p30cbfface8)" d="M 185.888058 402.705 
" style="fill:none;stroke:#000000;stroke-linecap:round;stroke-width:1.5;"/>
   </g>
   <g id="line2d_33">
    <path clip-path="url(#p30cbfface8)" d="M 185.888058 402.705 
L 203.708058 402.705 
L 221.528058 402.705 
" style="fill:none;stroke:#000000;stroke-linecap:round;stroke-width:1.5;"/>
   </g>
   <g id="line2d_34">
    <path clip-path="url(#p30cbfface8)" d="M 221.528058 402.705 
" style="fill:none;stroke:#000000;stroke-linecap:round;stroke-width:1.5;"/>
   </g>
   <g id="line2d_35">
    <path clip-path="url(#p30cbfface8)" d="M 185.888058 402.705 
L 106.264029 402.705 
L 26.64 402.705 
" style="fill:none;stroke:#000000;stroke-linecap:round;stroke-width:1.5;"/>
   </g>
   <g id="line2d_36">
    <path clip-path="url(#p30cbfface8)" d="M 26.64 402.705 
" style="fill:none;stroke:#000000;stroke-linecap:round;stroke-width:1.5;"/>
   </g>
   <g id="line2d_37">
    <path clip-path="url(#p30cbfface8)" d="M 26.64 402.705 
L 26.64 378.6075 
L 26.64 354.51 
" style="fill:none;stroke:#000000;stroke-linecap:round;stroke-width:1.5;"/>
   </g>
   <g id="line2d_38">
    <path clip-path="url(#p30cbfface8)" d="M 26.64 354.51 
L 35.55 354.51 
L 44.46 354.51 
" style="fill:none;stroke:#000000;stroke-linecap:round;stroke-width:1.5;"/>
   </g>
   <g id="line2d_39">
    <path clip-path="url(#p30cbfface8)" d="M 26.64 402.705 
L 26.64 412.65 
L 26.64 412.65 
M 26.64 443.25 
L 26.64 443.25 
L 26.64 453.195 
" style="fill:none;stroke:#000000;stroke-linecap:round;stroke-width:1.5;"/>
   </g>
   <g id="line2d_40">
    <path clip-path="url(#p30cbfface8)" d="M 10.44 285.66 
L 107.64 285.66 
L 204.84 285.66 
" style="fill:none;stroke:#000000;stroke-dasharray:1.000000,3.000000;stroke-dashoffset:0.0;stroke-width:1.5;"/>
   </g>
   <g id="line2d_41">
    <path clip-path="url(#p30cbfface8)" d="M 204.84 285.66 
L 204.84 392.76 
L 204.84 499.86 
" style="fill:none;stroke:#000000;stroke-dasharray:1.000000,3.000000;stroke-dashoffset:0.0;stroke-width:1.5;"/>
   </g>
   <g id="line2d_42">
    <path clip-path="url(#p30cbfface8)" d="M 204.84 499.86 
L 107.64 499.86 
L 10.44 499.86 
" style="fill:none;stroke:#000000;stroke-dasharray:1.000000,3.000000;stroke-dashoffset:0.0;stroke-width:1.5;"/>
   </g>
   <g id="line2d_43">
    <path clip-path="url(#p30cbfface8)" d="M 10.44 499.86 
L 10.44 392.76 
L 10.44 285.66 
" style="fill:none;stroke:#000000;stroke-dasharray:1.000000,3.000000;stroke-dashoffset:0.0;stroke-width:1.5;"/>
   </g>
   <g id="patch_2">
    <path clip-path="url(#p30cbfface8)" d="M 150.248058 75.285 
C 154.544348 75.285 158.665252 73.672895 161.703188 70.803734 
C 164.741124 67.934572 166.448058 64.042607 166.448058 59.985 
C 166.448058 55.927393 164.741124 52.035428 161.703188 49.166266 
C 158.665252 46.297105 154.544348 44.685 150.248058 44.685 
C 145.951767 44.685 141.830864 46.297105 138.792928 49.166266 
C 135.754992 52.035428 134.048058 55.927393 134.048058 59.985 
C 134.048058 64.042607 135.754992 67.934572 138.792928 70.803734 
C 141.830864 73.672895 145.951767 75.285 150.248058 75.285 
z
" style="fill:none;stroke:#000000;stroke-linejoin:miter;stroke-width:1.5;"/>
   </g>
   <g id="patch_3">
    <path clip-path="url(#p30cbfface8)" d="M 185.888058 62.28 
C 186.532501 62.28 187.150637 62.038184 187.606327 61.60781 
C 188.062018 61.177436 188.318058 60.593641 188.318058 59.985 
C 188.318058 59.376359 188.062018 58.792564 187.606327 58.36219 
C 187.150637 57.931816 186.532501 57.69 185.888058 57.69 
C 185.243614 57.69 184.625479 57.931816 184.169788 58.36219 
C 183.714098 58.792564 183.458058 59.376359 183.458058 59.985 
C 183.458058 60.593641 183.714098 61.177436 184.169788 61.60781 
C 184.625479 62.038184 185.243614 62.28 185.888058 62.28 
z
" style="stroke:#000000;stroke-linejoin:miter;stroke-width:1.5;"/>
   </g>
   <g id="patch_4">
    <path clip-path="url(#p30cbfface8)" d="M 221.528058 62.28 
C 222.172501 62.28 222.790637 62.038184 223.246327 61.60781 
C 223.702018 61.177436 223.958058 60.593641 223.958058 59.985 
C 223.958058 59.376359 223.702018 58.792564 223.246327 58.36219 
C 222.790637 57.931816 222.172501 57.69 221.528058 57.69 
C 220.883614 57.69 220.265479 57.931816 219.809788 58.36219 
C 219.354098 58.792564 219.098058 59.376359 219.098058 59.985 
C 219.098058 60.593641 219.354098 61.177436 219.809788 61.60781 
C 220.265479 62.038184 220.883614 62.28 221.528058 62.28 
z
" style="fill:#ffffff;stroke:#000000;stroke-linejoin:miter;stroke-width:1.5;"/>
   </g>
   <g id="patch_5">
    <path clip-path="url(#p30cbfface8)" d="M 185.888058 129.6 
C 186.532501 129.6 187.150637 129.358184 187.606327 128.92781 
C 188.062018 128.497436 188.318058 127.913641 188.318058 127.305 
C 188.318058 126.696359 188.062018 126.112564 187.606327 125.68219 
C 187.150637 125.251816 186.532501 125.01 185.888058 125.01 
C 185.243614 125.01 184.625479 125.251816 184.169788 125.68219 
C 183.714098 126.112564 183.458058 126.696359 183.458058 127.305 
C 183.458058 127.913641 183.714098 128.497436 184.169788 128.92781 
C 184.625479 129.358184 185.243614 129.6 185.888058 129.6 
z
" style="stroke:#000000;stroke-linejoin:miter;stroke-width:1.5;"/>
   </g>
   <g id="patch_6">
    <path clip-path="url(#p30cbfface8)" d="M 221.528058 129.6 
C 222.172501 129.6 222.790637 129.358184 223.246327 128.92781 
C 223.702018 128.497436 223.958058 127.913641 223.958058 127.305 
C 223.958058 126.696359 223.702018 126.112564 223.246327 125.68219 
C 222.790637 125.251816 222.172501 125.01 221.528058 125.01 
C 220.883614 125.01 220.265479 125.251816 219.809788 125.68219 
C 219.354098 126.112564 219.098058 126.696359 219.098058 127.305 
C 219.098058 127.913641 219.354098 128.497436 219.809788 128.92781 
C 220.265479 129.358184 220.883614 129.6 221.528058 129.6 
z
" style="fill:#ffffff;stroke:#000000;stroke-linejoin:miter;stroke-width:1.5;"/>
   </g>
   <g id="patch_7">
    <path clip-path="url(#p30cbfface8)" d="M 26.64 129.6 
C 27.284444 129.6 27.902579 129.358184 28.358269 128.92781 
C 28.81396 128.497436 29.07 127.913641 29.07 127.305 
C 29.07 126.696359 28.81396 126.112564 28.358269 125.68219 
C 27.902579 125.251816 27.284444 125.01 26.64 125.01 
C 25.995556 125.01 25.377421 125.251816 24.921731 125.68219 
C 24.46604 126.112564 24.21 126.696359 24.21 127.305 
C 24.21 127.913641 24.46604 128.497436 24.921731 128.92781 
C 25.377421 129.358184 25.995556 129.6 26.64 129.6 
z
" style="stroke:#000000;stroke-linejoin:miter;stroke-width:1.5;"/>
   </g>
   <g id="patch_8">
    <path clip-path="url(#p30cbfface8)" d="M 26.64 167.85 
C 30.93629 167.85 35.057194 166.237895 38.09513 163.368734 
C 41.133066 160.499572 42.84 156.607607 42.84 152.55 
C 42.84 148.492393 41.133066 144.600428 38.09513 141.731266 
C 35.057194 138.862105 30.93629 137.25 26.64 137.25 
C 22.34371 137.25 18.222806 138.862105 15.18487 141.731266 
C 12.146934 144.600428 10.44 148.492393 10.44 152.55 
C 10.44 156.607607 12.146934 160.499572 15.18487 163.368734 
C 18.222806 166.237895 22.34371 167.85 26.64 167.85 
z
" style="fill:none;stroke:#000000;stroke-linejoin:miter;stroke-width:1.5;"/>
   </g>
   <g id="patch_9">
    <path clip-path="url(#p30cbfface8)" d="M 150.248058 350.685 
C 154.544348 350.685 158.665252 349.072895 161.703188 346.203734 
C 164.741124 343.334572 166.448058 339.442607 166.448058 335.385 
C 166.448058 331.327393 164.741124 327.435428 161.703188 324.566266 
C 158.665252 321.697105 154.544348 320.085 150.248058 320.085 
C 145.951767 320.085 141.830864 321.697105 138.792928 324.566266 
C 135.754992 327.435428 134.048058 331.327393 134.048058 335.385 
C 134.048058 339.442607 135.754992 343.334572 138.792928 346.203734 
C 141.830864 349.072895 145.951767 350.685 150.248058 350.685 
z
" style="fill:none;stroke:#000000;stroke-linejoin:miter;stroke-width:1.5;"/>
   </g>
   <g id="patch_10">
    <path clip-path="url(#p30cbfface8)" d="M 185.888058 337.68 
C 186.532501 337.68 187.150637 337.438184 187.606327 337.00781 
C 188.062018 336.577436 188.318058 335.993641 188.318058 335.385 
C 188.318058 334.776359 188.062018 334.192564 187.606327 333.76219 
C 187.150637 333.331816 186.532501 333.09 185.888058 333.09 
C 185.243614 333.09 184.625479 333.331816 184.169788 333.76219 
C 183.714098 334.192564 183.458058 334.776359 183.458058 335.385 
C 183.458058 335.993641 183.714098 336.577436 184.169788 337.00781 
C 184.625479 337.438184 185.243614 337.68 185.888058 337.68 
z
" style="stroke:#000000;stroke-linejoin:miter;stroke-width:1.5;"/>
   </g>
   <g id="patch_11">
    <path clip-path="url(#p30cbfface8)" d="M 221.528058 337.68 
C 222.172501 337.68 222.790637 337.438184 223.246327 337.00781 
C 223.702018 336.577436 223.958058 335.993641 223.958058 335.385 
C 223.958058 334.776359 223.702018 334.192564 223.246327 333.76219 
C 222.790637 333.331816 222.172501 333.09 221.528058 333.09 
C 220.883614 333.09 220.265479 333.331816 219.809788 333.76219 
C 219.354098 334.192564 219.098058 334.776359 219.098058 335.385 
C 219.098058 335.993641 219.354098 336.577436 219.809788 337.00781 
C 220.265479 337.438184 220.883614 337.68 221.528058 337.68 
z
" style="fill:#ffffff;stroke:#000000;stroke-linejoin:miter;stroke-width:1.5;"/>
   </g>
   <g id="patch_12">
    <path clip-path="url(#p30cbfface8)" d="M 185.888058 405 
C 186.532501 405 187.150637 404.758184 187.606327 404.32781 
C 188.062018 403.897436 188.318058 403.313641 188.318058 402.705 
C 188.318058 402.096359 188.062018 401.512564 187.606327 401.08219 
C 187.150637 400.651816 186.532501 400.41 185.888058 400.41 
C 185.243614 400.41 184.625479 400.651816 184.169788 401.08219 
C 183.714098 401.512564 183.458058 402.096359 183.458058 402.705 
C 183.458058 403.313641 183.714098 403.897436 184.169788 404.32781 
C 184.625479 404.758184 185.243614 405 185.888058 405 
z
" style="stroke:#000000;stroke-linejoin:miter;stroke-width:1.5;"/>
   </g>
   <g id="patch_13">
    <path clip-path="url(#p30cbfface8)" d="M 221.528058 405 
C 222.172501 405 222.790637 404.758184 223.246327 404.32781 
C 223.702018 403.897436 223.958058 403.313641 223.958058 402.705 
C 223.958058 402.096359 223.702018 401.512564 223.246327 401.08219 
C 222.790637 400.651816 222.172501 400.41 221.528058 400.41 
C 220.883614 400.41 220.265479 400.651816 219.809788 401.08219 
C 219.354098 401.512564 219.098058 402.096359 219.098058 402.705 
C 219.098058 403.313641 219.354098 403.897436 219.809788 404.32781 
C 220.265479 404.758184 220.883614 405 221.528058 405 
z
" style="fill:#ffffff;stroke:#000000;stroke-linejoin:miter;stroke-width:1.5;"/>
   </g>
   <g id="patch_14">
    <path clip-path="url(#p30cbfface8)" d="M 26.64 405 
C 27.284444 405 27.902579 404.758184 28.358269 404.32781 
C 28.81396 403.897436 29.07 403.313641 29.07 402.705 
C 29.07 402.096359 28.81396 401.512564 28.358269 401.08219 
C 27.902579 400.651816 27.284444 400.41 26.64 400.41 
C 25.995556 400.41 25.377421 400.651816 24.921731 401.08219 
C 24.46604 401.512564 24.21 402.096359 24.21 402.705 
C 24.21 403.313641 24.46604 403.897436 24.921731 404.32781 
C 25.377421 404.758184 25.995556 405 26.64 405 
z
" style="stroke:#000000;stroke-linejoin:miter;stroke-width:1.5;"/>
   </g>
   <g id="patch_15">
    <path clip-path="url(#p30cbfface8)" d="M 26.64 443.25 
C 30.93629 443.25 35.057194 441.637895 38.09513 438.768734 
C 41.133066 435.899572 42.84 432.007607 42.84 427.95 
C 42.84 423.892393 41.133066 420.000428 38.09513 417.131266 
C 35.057194 414.262105 30.93629 412.65 26.64 412.65 
C 22.34371 412.65 18.222806 414.262105 15.18487 417.131266 
C 12.146934 420.000428 10.44 423.892393 10.44 427.95 
C 10.44 432.007607 12.146934 435.899572 15.18487 438.768734 
C 18.222806 441.637895 22.34371 443.25 26.64 443.25 
z
" style="fill:none;stroke:#000000;stroke-linejoin:miter;stroke-width:1.5;"/>
   </g>
   <g id="text_1">
    <!-- I -->
    <defs>
     <path d="M 9.8125 72.90625 
L 19.671875 72.90625 
L 19.671875 0 
L 9.8125 0 
z
" id="BitstreamVeraSans-Roman-49"/>
    </defs>
    <g transform="translate(147.888057707 64.4)scale(0.16 -0.16)">
     <use xlink:href="#BitstreamVeraSans-Roman-49"/>
    </g>
   </g>
   <g id="text_2">
    <!-- F -->
    <defs>
     <path d="M 9.8125 72.90625 
L 51.703125 72.90625 
L 51.703125 64.59375 
L 19.671875 64.59375 
L 19.671875 43.109375 
L 48.578125 43.109375 
L 48.578125 34.8125 
L 19.671875 34.8125 
L 19.671875 0 
L 9.8125 0 
z
" id="BitstreamVeraSans-Roman-46"/>
    </defs>
    <g transform="translate(216.926807707 51.3025)scale(0.16 -0.16)">
     <use xlink:href="#BitstreamVeraSans-Roman-46"/>
    </g>
   </g>
   <g id="text_3">
    <!-- $R_s$ -->
    <defs>
     <path d="M 44.28125 53.078125 
L 44.28125 44.578125 
Q 40.484375 46.53125 36.375 47.5 
Q 32.28125 48.484375 27.875 48.484375 
Q 21.1875 48.484375 17.84375 46.4375 
Q 14.5 44.390625 14.5 40.28125 
Q 14.5 37.15625 16.890625 35.375 
Q 19.28125 33.59375 26.515625 31.984375 
L 29.59375 31.296875 
Q 39.15625 29.25 43.1875 25.515625 
Q 47.21875 21.78125 47.21875 15.09375 
Q 47.21875 7.46875 41.1875 3.015625 
Q 35.15625 -1.421875 24.609375 -1.421875 
Q 20.21875 -1.421875 15.453125 -0.5625 
Q 10.6875 0.296875 5.421875 2 
L 5.421875 11.28125 
Q 10.40625 8.6875 15.234375 7.390625 
Q 20.0625 6.109375 24.8125 6.109375 
Q 31.15625 6.109375 34.5625 8.28125 
Q 37.984375 10.453125 37.984375 14.40625 
Q 37.984375 18.0625 35.515625 20.015625 
Q 33.0625 21.96875 24.703125 23.78125 
L 21.578125 24.515625 
Q 13.234375 26.265625 9.515625 29.90625 
Q 5.8125 33.546875 5.8125 39.890625 
Q 5.8125 47.609375 11.28125 51.796875 
Q 16.75 56 26.8125 56 
Q 31.78125 56 36.171875 55.265625 
Q 40.578125 54.546875 44.28125 53.078125 
" id="BitstreamVeraSans-Roman-73"/>
     <path d="M 44.390625 34.1875 
Q 47.5625 33.109375 50.5625 29.59375 
Q 53.5625 26.078125 56.59375 19.921875 
L 66.609375 0 
L 56 0 
L 46.6875 18.703125 
Q 43.0625 26.03125 39.671875 28.421875 
Q 36.28125 30.8125 30.421875 30.8125 
L 19.671875 30.8125 
L 19.671875 0 
L 9.8125 0 
L 9.8125 72.90625 
L 32.078125 72.90625 
Q 44.578125 72.90625 50.734375 67.671875 
Q 56.890625 62.453125 56.890625 51.90625 
Q 56.890625 45.015625 53.6875 40.46875 
Q 50.484375 35.9375 44.390625 34.1875 
M 19.671875 64.796875 
L 19.671875 38.921875 
L 32.078125 38.921875 
Q 39.203125 38.921875 42.84375 42.21875 
Q 46.484375 45.515625 46.484375 51.90625 
Q 46.484375 58.296875 42.84375 61.546875 
Q 39.203125 64.796875 32.078125 64.796875 
z
" id="BitstreamVeraSans-Roman-52"/>
    </defs>
    <g transform="translate(157.928057707 112.145)scale(0.16 -0.16)">
     <use transform="translate(0.0 0.09375)" xlink:href="#BitstreamVeraSans-Roman-52"/>
     <use transform="translate(71.319921875 -31.40625)scale(0.7)" xlink:href="#BitstreamVeraSans-Roman-73"/>
    </g>
   </g>
   <g id="text_4">
    <!-- S -->
    <defs>
     <path d="M 53.515625 70.515625 
L 53.515625 60.890625 
Q 47.90625 63.578125 42.921875 64.890625 
Q 37.9375 66.21875 33.296875 66.21875 
Q 25.25 66.21875 20.875 63.09375 
Q 16.5 59.96875 16.5 54.203125 
Q 16.5 49.359375 19.40625 46.890625 
Q 22.3125 44.4375 30.421875 42.921875 
L 36.375 41.703125 
Q 47.40625 39.59375 52.65625 34.296875 
Q 57.90625 29 57.90625 20.125 
Q 57.90625 9.515625 50.796875 4.046875 
Q 43.703125 -1.421875 29.984375 -1.421875 
Q 24.8125 -1.421875 18.96875 -0.25 
Q 13.140625 0.921875 6.890625 3.21875 
L 6.890625 13.375 
Q 12.890625 10.015625 18.65625 8.296875 
Q 24.421875 6.59375 29.984375 6.59375 
Q 38.421875 6.59375 43.015625 9.90625 
Q 47.609375 13.234375 47.609375 19.390625 
Q 47.609375 24.75 44.3125 27.78125 
Q 41.015625 30.8125 33.5 32.328125 
L 27.484375 33.5 
Q 16.453125 35.6875 11.515625 40.375 
Q 6.59375 45.0625 6.59375 53.421875 
Q 6.59375 63.09375 13.40625 68.65625 
Q 20.21875 74.21875 32.171875 74.21875 
Q 37.3125 74.21875 42.625 73.28125 
Q 47.953125 72.359375 53.515625 70.515625 
" id="BitstreamVeraSans-Roman-53"/>
    </defs>
    <g transform="translate(216.449307707 118.6225)scale(0.16 -0.16)">
     <use xlink:href="#BitstreamVeraSans-Roman-53"/>
    </g>
   </g>
   <g id="text_5">
    <!-- V -->
    <defs>
     <path d="M 28.609375 0 
L 0.78125 72.90625 
L 11.078125 72.90625 
L 34.1875 11.53125 
L 57.328125 72.90625 
L 67.578125 72.90625 
L 39.796875 0 
z
" id="BitstreamVeraSans-Roman-56"/>
    </defs>
    <g transform="translate(21.1675 156.965)scale(0.16 -0.16)">
     <use xlink:href="#BitstreamVeraSans-Roman-56"/>
    </g>
   </g>
   <g id="text_6">
    <!-- SMU1 -->
    <defs>
     <path d="M 9.8125 72.90625 
L 24.515625 72.90625 
L 43.109375 23.296875 
L 61.8125 72.90625 
L 76.515625 72.90625 
L 76.515625 0 
L 66.890625 0 
L 66.890625 64.015625 
L 48.09375 14.015625 
L 38.1875 14.015625 
L 19.390625 64.015625 
L 19.390625 0 
L 9.8125 0 
z
" id="BitstreamVeraSans-Roman-4d"/>
     <path d="M 8.6875 72.90625 
L 18.609375 72.90625 
L 18.609375 28.609375 
Q 18.609375 16.890625 22.84375 11.734375 
Q 27.09375 6.59375 36.625 6.59375 
Q 46.09375 6.59375 50.34375 11.734375 
Q 54.59375 16.890625 54.59375 28.609375 
L 54.59375 72.90625 
L 64.5 72.90625 
L 64.5 27.390625 
Q 64.5 13.140625 57.4375 5.859375 
Q 50.390625 -1.421875 36.625 -1.421875 
Q 22.796875 -1.421875 15.734375 5.859375 
Q 8.6875 13.140625 8.6875 27.390625 
z
" id="BitstreamVeraSans-Roman-55"/>
     <path d="M 12.40625 8.296875 
L 28.515625 8.296875 
L 28.515625 63.921875 
L 10.984375 60.40625 
L 10.984375 69.390625 
L 28.421875 72.90625 
L 38.28125 72.90625 
L 38.28125 8.296875 
L 54.390625 8.296875 
L 54.390625 0 
L 12.40625 0 
z
" id="BitstreamVeraSans-Roman-31"/>
    </defs>
    <g transform="translate(127.321807707 174.4675)scale(0.16 -0.16)">
     <use xlink:href="#BitstreamVeraSans-Roman-53"/>
     <use x="63.4765625" xlink:href="#BitstreamVeraSans-Roman-4d"/>
     <use x="149.755859375" xlink:href="#BitstreamVeraSans-Roman-55"/>
     <use x="222.94921875" xlink:href="#BitstreamVeraSans-Roman-31"/>
    </g>
   </g>
   <g id="text_7">
    <!-- $R_c$ -->
    <defs>
     <path d="M 48.78125 52.59375 
L 48.78125 44.1875 
Q 44.96875 46.296875 41.140625 47.34375 
Q 37.3125 48.390625 33.40625 48.390625 
Q 24.65625 48.390625 19.8125 42.84375 
Q 14.984375 37.3125 14.984375 27.296875 
Q 14.984375 17.28125 19.8125 11.734375 
Q 24.65625 6.203125 33.40625 6.203125 
Q 37.3125 6.203125 41.140625 7.25 
Q 44.96875 8.296875 48.78125 10.40625 
L 48.78125 2.09375 
Q 45.015625 0.34375 40.984375 -0.53125 
Q 36.96875 -1.421875 32.421875 -1.421875 
Q 20.0625 -1.421875 12.78125 6.34375 
Q 5.515625 14.109375 5.515625 27.296875 
Q 5.515625 40.671875 12.859375 48.328125 
Q 20.21875 56 33.015625 56 
Q 37.15625 56 41.109375 55.140625 
Q 45.0625 54.296875 48.78125 52.59375 
" id="BitstreamVeraSans-Roman-63"/>
    </defs>
    <g transform="translate(260.848057707 43.995)scale(0.16 -0.16)">
     <use transform="translate(0.0 0.09375)" xlink:href="#BitstreamVeraSans-Roman-52"/>
     <use transform="translate(71.319921875 -31.40625)scale(0.7)" xlink:href="#BitstreamVeraSans-Roman-63"/>
    </g>
   </g>
   <g id="text_8">
    <!-- $R_{ch}$ -->
    <defs>
     <path d="M 54.890625 33.015625 
L 54.890625 0 
L 45.90625 0 
L 45.90625 32.71875 
Q 45.90625 40.484375 42.875 44.328125 
Q 39.84375 48.1875 33.796875 48.1875 
Q 26.515625 48.1875 22.3125 43.546875 
Q 18.109375 38.921875 18.109375 30.90625 
L 18.109375 0 
L 9.078125 0 
L 9.078125 75.984375 
L 18.109375 75.984375 
L 18.109375 46.1875 
Q 21.34375 51.125 25.703125 53.5625 
Q 30.078125 56 35.796875 56 
Q 45.21875 56 50.046875 50.171875 
Q 54.890625 44.34375 54.890625 33.015625 
" id="BitstreamVeraSans-Roman-68"/>
    </defs>
    <g transform="translate(281.788057707 200.885)scale(0.16 -0.16)">
     <use transform="translate(0.0 0.09375)" xlink:href="#BitstreamVeraSans-Roman-52"/>
     <use transform="translate(71.319921875 -31.40625)scale(0.7)" xlink:href="#BitstreamVeraSans-Roman-63"/>
     <use transform="translate(109.80625 -31.40625)scale(0.7)" xlink:href="#BitstreamVeraSans-Roman-68"/>
    </g>
   </g>
   <g id="text_9">
    <!-- $R_c$ -->
    <g transform="translate(260.848057707 319.395)scale(0.16 -0.16)">
     <use transform="translate(0.0 0.09375)" xlink:href="#BitstreamVeraSans-Roman-52"/>
     <use transform="translate(71.319921875 -31.40625)scale(0.7)" xlink:href="#BitstreamVeraSans-Roman-63"/>
    </g>
   </g>
   <g id="text_10">
    <!-- I -->
    <g transform="translate(147.888057707 339.8)scale(0.16 -0.16)">
     <use xlink:href="#BitstreamVeraSans-Roman-49"/>
    </g>
   </g>
   <g id="text_11">
    <!-- F -->
    <g transform="translate(216.926807707 326.7025)scale(0.16 -0.16)">
     <use xlink:href="#BitstreamVeraSans-Roman-46"/>
    </g>
   </g>
   <g id="text_12">
    <!-- $R_s$ -->
    <g transform="translate(157.928057707 387.545)scale(0.16 -0.16)">
     <use transform="translate(0.0 0.09375)" xlink:href="#BitstreamVeraSans-Roman-52"/>
     <use transform="translate(71.319921875 -31.40625)scale(0.7)" xlink:href="#BitstreamVeraSans-Roman-73"/>
    </g>
   </g>
   <g id="text_13">
    <!-- S -->
    <g transform="translate(216.449307707 394.0225)scale(0.16 -0.16)">
     <use xlink:href="#BitstreamVeraSans-Roman-53"/>
    </g>
   </g>
   <g id="text_14">
    <!-- V -->
    <g transform="translate(21.1675 432.365)scale(0.16 -0.16)">
     <use xlink:href="#BitstreamVeraSans-Roman-56"/>
    </g>
   </g>
   <g id="text_15">
    <!-- SMU2 -->
    <defs>
     <path d="M 19.1875 8.296875 
L 53.609375 8.296875 
L 53.609375 0 
L 7.328125 0 
L 7.328125 8.296875 
Q 12.9375 14.109375 22.625 23.890625 
Q 32.328125 33.6875 34.8125 36.53125 
Q 39.546875 41.84375 41.421875 45.53125 
Q 43.3125 49.21875 43.3125 52.78125 
Q 43.3125 58.59375 39.234375 62.25 
Q 35.15625 65.921875 28.609375 65.921875 
Q 23.96875 65.921875 18.8125 64.3125 
Q 13.671875 62.703125 7.8125 59.421875 
L 7.8125 69.390625 
Q 13.765625 71.78125 18.9375 73 
Q 24.125 74.21875 28.421875 74.21875 
Q 39.75 74.21875 46.484375 68.546875 
Q 53.21875 62.890625 53.21875 53.421875 
Q 53.21875 48.921875 51.53125 44.890625 
Q 49.859375 40.875 45.40625 35.40625 
Q 44.1875 33.984375 37.640625 27.21875 
Q 31.109375 20.453125 19.1875 8.296875 
" id="BitstreamVeraSans-Roman-32"/>
    </defs>
    <g transform="translate(104.395557707 457.61)scale(0.16 -0.16)">
     <use xlink:href="#BitstreamVeraSans-Roman-53"/>
     <use x="63.4765625" xlink:href="#BitstreamVeraSans-Roman-4d"/>
     <use x="149.755859375" xlink:href="#BitstreamVeraSans-Roman-55"/>
     <use x="222.94921875" xlink:href="#BitstreamVeraSans-Roman-32"/>
    </g>
   </g>
  </g>
 </g>
 <defs>
  <clipPath id="p30cbfface8">
   <rect height="495.72" width="322.868057707" x="7.2" y="7.2"/>
  </clipPath>
 </defs>
</svg>
