<?xml version="1.0" encoding="utf-8" standalone="no"?>
<!DOCTYPE svg PUBLIC "-//W3C//DTD SVG 1.1//EN"
  "http://www.w3.org/Graphics/SVG/1.1/DTD/svg11.dtd">
<!-- Created with matplotlib (https://matplotlib.org/) -->
<svg height="282.06725pt" version="1.1" viewBox="0 0 307.756 282.06725" width="307.756pt" xmlns="http://www.w3.org/2000/svg" xmlns:xlink="http://www.w3.org/1999/xlink">
 <defs>
  <style type="text/css">
*{stroke-linecap:butt;stroke-linejoin:round;}
  </style>
 </defs>
 <g id="figure_1">
  <g id="patch_1">
   <path d="M 0 282.06725 
L 307.756 282.06725 
L 307.756 0 
L 0 0 
z
" style="fill:none;"/>
  </g>
  <g id="axes_1">
   <g id="patch_2">
    <path clip-path="url(#p0c9180b699)" d="M 51.035 213.068 
C 55.760919 213.068 60.293913 211.294685 63.635643 208.138607 
C 66.977372 204.982529 68.855 200.701368 68.855 196.238 
C 68.855 191.774632 66.977372 187.493471 63.635643 184.337393 
C 60.293913 181.181315 55.760919 179.408 51.035 179.408 
C 46.309081 179.408 41.776087 181.181315 38.434357 184.337393 
C 35.092628 187.493471 33.215 191.774632 33.215 196.238 
C 33.215 200.701368 35.092628 204.982529 38.434357 208.138607 
C 41.776087 211.294685 46.309081 213.068 51.035 213.068 
z
" style="fill:none;stroke:#000000;stroke-linejoin:miter;stroke-width:1.5;"/>
   </g>
   <g id="patch_3">
    <path clip-path="url(#p0c9180b699)" d="M 256.721 213.068 
C 261.446919 213.068 265.979913 211.294685 269.321643 208.138607 
C 272.663372 204.982529 274.541 200.701368 274.541 196.238 
C 274.541 191.774632 272.663372 187.493471 269.321643 184.337393 
C 265.979913 181.181315 261.446919 179.408 256.721 179.408 
C 251.995081 179.408 247.462087 181.181315 244.120357 184.337393 
C 240.778628 187.493471 238.901 191.774632 238.901 196.238 
C 238.901 200.701368 240.778628 204.982529 244.120357 208.138607 
C 247.462087 211.294685 251.995081 213.068 256.721 213.068 
z
" style="fill:none;stroke:#000000;stroke-linejoin:miter;stroke-width:1.5;"/>
   </g>
   <g id="patch_4">
    <path clip-path="url(#p0c9180b699)" d="M 44.501 131.315 
C 45.145444 131.315 45.763579 131.073184 46.219269 130.64281 
C 46.67496 130.212436 46.931 129.628641 46.931 129.02 
C 46.931 128.411359 46.67496 127.827564 46.219269 127.39719 
C 45.763579 126.966816 45.145444 126.725 44.501 126.725 
C 43.856556 126.725 43.238421 126.966816 42.782731 127.39719 
C 42.32704 127.827564 42.071 128.411359 42.071 129.02 
C 42.071 129.628641 42.32704 130.212436 42.782731 130.64281 
C 43.238421 131.073184 43.856556 131.315 44.501 131.315 
z
" style="stroke:#000000;stroke-linejoin:miter;stroke-width:1.5;"/>
   </g>
   <g id="patch_5">
    <path clip-path="url(#p0c9180b699)" d="M 117.401 131.315 
C 118.045444 131.315 118.663579 131.073184 119.119269 130.64281 
C 119.57496 130.212436 119.831 129.628641 119.831 129.02 
C 119.831 128.411359 119.57496 127.827564 119.119269 127.39719 
C 118.663579 126.966816 118.045444 126.725 117.401 126.725 
C 116.756556 126.725 116.138421 126.966816 115.682731 127.39719 
C 115.22704 127.827564 114.971 128.411359 114.971 129.02 
C 114.971 129.628641 115.22704 130.212436 115.682731 130.64281 
C 116.138421 131.073184 116.756556 131.315 117.401 131.315 
z
" style="stroke:#000000;stroke-linejoin:miter;stroke-width:1.5;"/>
   </g>
   <g id="patch_6">
    <path clip-path="url(#p0c9180b699)" d="M 117.401 119.84 
C 118.045444 119.84 118.663579 119.598184 119.119269 119.16781 
C 119.57496 118.737436 119.831 118.153641 119.831 117.545 
C 119.831 116.936359 119.57496 116.352564 119.119269 115.92219 
C 118.663579 115.491816 118.045444 115.25 117.401 115.25 
C 116.756556 115.25 116.138421 115.491816 115.682731 115.92219 
C 115.22704 116.352564 114.971 116.936359 114.971 117.545 
C 114.971 118.153641 115.22704 118.737436 115.682731 119.16781 
C 116.138421 119.598184 116.756556 119.84 117.401 119.84 
z
" style="fill:#ffffff;stroke:#000000;stroke-linejoin:miter;stroke-width:1.5;"/>
   </g>
   <g id="patch_7">
    <path clip-path="url(#p0c9180b699)" d="M 263.255 131.315 
C 263.899444 131.315 264.517579 131.073184 264.973269 130.64281 
C 265.42896 130.212436 265.685 129.628641 265.685 129.02 
C 265.685 128.411359 265.42896 127.827564 264.973269 127.39719 
C 264.517579 126.966816 263.899444 126.725 263.255 126.725 
C 262.610556 126.725 261.992421 126.966816 261.536731 127.39719 
C 261.08104 127.827564 260.825 128.411359 260.825 129.02 
C 260.825 129.628641 261.08104 130.212436 261.536731 130.64281 
C 261.992421 131.073184 262.610556 131.315 263.255 131.315 
z
" style="stroke:#000000;stroke-linejoin:miter;stroke-width:1.5;"/>
   </g>
   <g id="patch_8">
    <path clip-path="url(#p0c9180b699)" d="M 190.355 131.315 
C 190.999444 131.315 191.617579 131.073184 192.073269 130.64281 
C 192.52896 130.212436 192.785 129.628641 192.785 129.02 
C 192.785 128.411359 192.52896 127.827564 192.073269 127.39719 
C 191.617579 126.966816 190.999444 126.725 190.355 126.725 
C 189.710556 126.725 189.092421 126.966816 188.636731 127.39719 
C 188.18104 127.827564 187.925 128.411359 187.925 129.02 
C 187.925 129.628641 188.18104 130.212436 188.636731 130.64281 
C 189.092421 131.073184 189.710556 131.315 190.355 131.315 
z
" style="stroke:#000000;stroke-linejoin:miter;stroke-width:1.5;"/>
   </g>
   <g id="patch_9">
    <path clip-path="url(#p0c9180b699)" d="M 190.355 119.84 
C 190.999444 119.84 191.617579 119.598184 192.073269 119.16781 
C 192.52896 118.737436 192.785 118.153641 192.785 117.545 
C 192.785 116.936359 192.52896 116.352564 192.073269 115.92219 
C 191.617579 115.491816 190.999444 115.25 190.355 115.25 
C 189.710556 115.25 189.092421 115.491816 188.636731 115.92219 
C 188.18104 116.352564 187.925 116.936359 187.925 117.545 
C 187.925 118.153641 188.18104 118.737436 188.636731 119.16781 
C 189.092421 119.598184 189.710556 119.84 190.355 119.84 
z
" style="fill:#ffffff;stroke:#000000;stroke-linejoin:miter;stroke-width:1.5;"/>
   </g>
   <g id="patch_10">
    <path clip-path="url(#p0c9180b699)" d="M 153.878 242.801 
C 154.522444 242.801 155.140579 242.559184 155.596269 242.12881 
C 156.05196 241.698436 156.308 241.114641 156.308 240.506 
C 156.308 239.897359 156.05196 239.313564 155.596269 238.88319 
C 155.140579 238.452816 154.522444 238.211 153.878 238.211 
C 153.233556 238.211 152.615421 238.452816 152.159731 238.88319 
C 151.70404 239.313564 151.448 239.897359 151.448 240.506 
C 151.448 241.114641 151.70404 241.698436 152.159731 242.12881 
C 152.615421 242.559184 153.233556 242.801 153.878 242.801 
z
" style="stroke:#000000;stroke-linejoin:miter;stroke-width:1.5;"/>
   </g>
   <g id="patch_11">
    <path clip-path="url(#p0c9180b699)" d="M 153.878 39.515 
C 154.522444 39.515 155.140579 39.273184 155.596269 38.84281 
C 156.05196 38.412436 156.308 37.828641 156.308 37.22 
C 156.308 36.611359 156.05196 36.027564 155.596269 35.59719 
C 155.140579 35.166816 154.522444 34.925 153.878 34.925 
C 153.233556 34.925 152.615421 35.166816 152.159731 35.59719 
C 151.70404 36.027564 151.448 36.611359 151.448 37.22 
C 151.448 37.828641 151.70404 38.412436 152.159731 38.84281 
C 152.615421 39.273184 153.233556 39.515 153.878 39.515 
z
" style="stroke:#000000;stroke-linejoin:miter;stroke-width:1.5;"/>
   </g>
   <g id="patch_12">
    <path clip-path="url(#p0c9180b699)" d="M 44.501 211.946 
L 47.312419 205.639832 
L 49.41044 207.95154 
L 56.964457 201.836383 
L 56.985543 201.859617 
L 49.431526 207.974773 
L 51.529547 210.286482 
z
" style="stroke:#000000;stroke-linejoin:miter;stroke-width:1.5;"/>
   </g>
   <g id="patch_13">
    <path clip-path="url(#p0c9180b699)" d="M 263.255 211.946 
L 256.226453 210.286482 
L 258.324474 207.974773 
L 250.770457 201.859617 
L 250.791543 201.836383 
L 258.34556 207.95154 
L 260.443581 205.639832 
z
" style="stroke:#000000;stroke-linejoin:miter;stroke-width:1.5;"/>
   </g>
   <g id="line2d_1">
    <path clip-path="url(#p0c9180b699)" d="M 56.975 201.848 
L 44.501 211.946 
L 44.501 217.556 
" style="fill:none;stroke:#000000;stroke-linecap:round;stroke-width:1.5;"/>
   </g>
   <g id="line2d_2">
    <path clip-path="url(#p0c9180b699)" d="M 68.855 196.238 
L 56.975 196.238 
" style="fill:none;stroke:#000000;stroke-linecap:round;stroke-width:1.5;"/>
   </g>
   <g id="line2d_3">
    <path clip-path="url(#p0c9180b699)" d="M 56.975 185.018 
L 56.975 207.458 
" style="fill:none;stroke:#000000;stroke-linecap:round;stroke-width:1.5;"/>
   </g>
   <g id="line2d_4">
    <path clip-path="url(#p0c9180b699)" d="M 56.975 190.628 
L 44.501 180.53 
L 44.501 174.92 
" style="fill:none;stroke:#000000;stroke-linecap:round;stroke-width:1.5;"/>
   </g>
   <g id="line2d_5">
    <path clip-path="url(#p0c9180b699)" d="M 250.781 201.848 
L 263.255 211.946 
L 263.255 217.556 
" style="fill:none;stroke:#000000;stroke-linecap:round;stroke-width:1.5;"/>
   </g>
   <g id="line2d_6">
    <path clip-path="url(#p0c9180b699)" d="M 238.901 196.238 
L 250.781 196.238 
" style="fill:none;stroke:#000000;stroke-linecap:round;stroke-width:1.5;"/>
   </g>
   <g id="line2d_7">
    <path clip-path="url(#p0c9180b699)" d="M 250.781 185.018 
L 250.781 207.458 
" style="fill:none;stroke:#000000;stroke-linecap:round;stroke-width:1.5;"/>
   </g>
   <g id="line2d_8">
    <path clip-path="url(#p0c9180b699)" d="M 250.781 190.628 
L 263.255 180.53 
L 263.255 174.92 
" style="fill:none;stroke:#000000;stroke-linecap:round;stroke-width:1.5;"/>
   </g>
   <g id="line2d_9">
    <path clip-path="url(#p0c9180b699)" d="M 44.501 174.92 
L 44.501 151.97 
L 44.501 129.02 
" style="fill:none;stroke:#000000;stroke-linecap:round;stroke-width:1.5;"/>
   </g>
   <g id="line2d_10">
    <path clip-path="url(#p0c9180b699)" d="M 44.501 129.02 
L 44.501 98.42 
L 36.401 95.87 
L 52.601 90.77 
L 36.401 85.67 
L 52.601 80.57 
L 36.401 75.47 
L 52.601 70.37 
L 44.501 67.82 
L 44.501 37.22 
" style="fill:none;stroke:#000000;stroke-linecap:round;stroke-width:1.5;"/>
   </g>
   <g id="line2d_11">
    <path clip-path="url(#p0c9180b699)" d="M 44.501 129.02 
" style="fill:none;stroke:#000000;stroke-linecap:round;stroke-width:1.5;"/>
   </g>
   <g id="line2d_12">
    <path clip-path="url(#p0c9180b699)" d="M 44.501 129.02 
L 64.751 129.02 
L 67.451 121.37 
L 72.851 136.67 
L 78.251 121.37 
L 83.651 136.67 
L 89.051 121.37 
L 94.451 136.67 
L 97.151 129.02 
L 117.401 129.02 
" style="fill:none;stroke:#000000;stroke-linecap:round;stroke-width:1.5;"/>
   </g>
   <g id="line2d_13">
    <path clip-path="url(#p0c9180b699)" d="M 117.401 129.02 
" style="fill:none;stroke:#000000;stroke-linecap:round;stroke-width:1.5;"/>
   </g>
   <g id="line2d_14">
    <path clip-path="url(#p0c9180b699)" d="M 117.401 129.02 
L 117.401 123.2825 
L 117.401 117.545 
" style="fill:none;stroke:#000000;stroke-linecap:round;stroke-width:1.5;"/>
   </g>
   <g id="line2d_15">
    <path clip-path="url(#p0c9180b699)" d="M 117.401 117.545 
" style="fill:none;stroke:#000000;stroke-linecap:round;stroke-width:1.5;"/>
   </g>
   <g id="line2d_16">
    <path clip-path="url(#p0c9180b699)" d="M 117.401 129.02 
L 178.151 162.629 
L 238.901 196.238 
" style="fill:none;stroke:#000000;stroke-linecap:round;stroke-width:1.5;"/>
   </g>
   <g id="line2d_17">
    <path clip-path="url(#p0c9180b699)" d="M 263.255 174.92 
L 263.255 151.97 
L 263.255 129.02 
" style="fill:none;stroke:#000000;stroke-linecap:round;stroke-width:1.5;"/>
   </g>
   <g id="line2d_18">
    <path clip-path="url(#p0c9180b699)" d="M 263.255 129.02 
" style="fill:none;stroke:#000000;stroke-linecap:round;stroke-width:1.5;"/>
   </g>
   <g id="line2d_19">
    <path clip-path="url(#p0c9180b699)" d="M 263.255 129.02 
L 263.255 98.42 
L 255.155 95.87 
L 271.355 90.77 
L 255.155 85.67 
L 271.355 80.57 
L 255.155 75.47 
L 271.355 70.37 
L 263.255 67.82 
L 263.255 37.22 
" style="fill:none;stroke:#000000;stroke-linecap:round;stroke-width:1.5;"/>
   </g>
   <g id="line2d_20">
    <path clip-path="url(#p0c9180b699)" d="M 263.255 129.02 
L 243.005 129.02 
L 240.305 136.67 
L 234.905 121.37 
L 229.505 136.67 
L 224.105 121.37 
L 218.705 136.67 
L 213.305 121.37 
L 210.605 129.02 
L 190.355 129.02 
" style="fill:none;stroke:#000000;stroke-linecap:round;stroke-width:1.5;"/>
   </g>
   <g id="line2d_21">
    <path clip-path="url(#p0c9180b699)" d="M 190.355 129.02 
" style="fill:none;stroke:#000000;stroke-linecap:round;stroke-width:1.5;"/>
   </g>
   <g id="line2d_22">
    <path clip-path="url(#p0c9180b699)" d="M 190.355 129.02 
L 190.355 123.2825 
L 190.355 117.545 
" style="fill:none;stroke:#000000;stroke-linecap:round;stroke-width:1.5;"/>
   </g>
   <g id="line2d_23">
    <path clip-path="url(#p0c9180b699)" d="M 190.355 117.545 
" style="fill:none;stroke:#000000;stroke-linecap:round;stroke-width:1.5;"/>
   </g>
   <g id="line2d_24">
    <path clip-path="url(#p0c9180b699)" d="M 190.355 129.02 
L 129.605 162.629 
L 68.855 196.238 
" style="fill:none;stroke:#000000;stroke-linecap:round;stroke-width:1.5;"/>
   </g>
   <g id="line2d_25">
    <path clip-path="url(#p0c9180b699)" d="M 44.501 217.556 
L 44.501 229.031 
L 44.501 240.506 
" style="fill:none;stroke:#000000;stroke-linecap:round;stroke-width:1.5;"/>
   </g>
   <g id="line2d_26">
    <path clip-path="url(#p0c9180b699)" d="M 44.501 240.506 
L 153.878 240.506 
L 263.255 240.506 
" style="fill:none;stroke:#000000;stroke-linecap:round;stroke-width:1.5;"/>
   </g>
   <g id="line2d_27">
    <path clip-path="url(#p0c9180b699)" d="M 263.255 240.506 
L 263.255 229.031 
L 263.255 217.556 
" style="fill:none;stroke:#000000;stroke-linecap:round;stroke-width:1.5;"/>
   </g>
   <g id="line2d_28">
    <path clip-path="url(#p0c9180b699)" d="M 153.878 240.506 
" style="fill:none;stroke:#000000;stroke-linecap:round;stroke-width:1.5;"/>
   </g>
   <g id="line2d_29">
    <path clip-path="url(#p0c9180b699)" d="M 153.878 240.506 
L 153.878 252.746 
L 145.778 252.746 
L 161.978 252.746 
M 148.208 256.418 
L 159.548 256.418 
M 152.258 260.09 
L 155.498 260.09 
" style="fill:none;stroke:#000000;stroke-linecap:round;stroke-width:1.5;"/>
   </g>
   <g id="line2d_30">
    <path clip-path="url(#p0c9180b699)" d="M 44.501 37.22 
L 153.878 37.22 
L 263.255 37.22 
" style="fill:none;stroke:#000000;stroke-linecap:round;stroke-width:1.5;"/>
   </g>
   <g id="line2d_31">
    <path clip-path="url(#p0c9180b699)" d="M 153.878 37.22 
" style="fill:none;stroke:#000000;stroke-linecap:round;stroke-width:1.5;"/>
   </g>
   <g id="line2d_32">
    <path clip-path="url(#p0c9180b699)" d="M 153.878 37.22 
L 153.878 31.4825 
L 153.878 25.745 
" style="fill:none;stroke:#000000;stroke-linecap:round;stroke-width:1.5;"/>
   </g>
   <g id="text_1">
    <!-- Q1 -->
    <defs>
     <path d="M 39.40625 66.21875 
Q 28.65625 66.21875 22.328125 58.203125 
Q 16.015625 50.203125 16.015625 36.375 
Q 16.015625 22.609375 22.328125 14.59375 
Q 28.65625 6.59375 39.40625 6.59375 
Q 50.140625 6.59375 56.421875 14.59375 
Q 62.703125 22.609375 62.703125 36.375 
Q 62.703125 50.203125 56.421875 58.203125 
Q 50.140625 66.21875 39.40625 66.21875 
z
M 53.21875 1.3125 
L 66.21875 -12.890625 
L 54.296875 -12.890625 
L 43.5 -1.21875 
Q 41.890625 -1.3125 41.03125 -1.359375 
Q 40.1875 -1.421875 39.40625 -1.421875 
Q 24.03125 -1.421875 14.8125 8.859375 
Q 5.609375 19.140625 5.609375 36.375 
Q 5.609375 53.65625 14.8125 63.9375 
Q 24.03125 74.21875 39.40625 74.21875 
Q 54.734375 74.21875 63.90625 63.9375 
Q 73.09375 53.65625 73.09375 36.375 
Q 73.09375 23.6875 67.984375 14.640625 
Q 62.890625 5.609375 53.21875 1.3125 
z
" id="DejaVuSans-81"/>
     <path d="M 12.40625 8.296875 
L 28.515625 8.296875 
L 28.515625 63.921875 
L 10.984375 60.40625 
L 10.984375 69.390625 
L 28.421875 72.90625 
L 38.28125 72.90625 
L 38.28125 8.296875 
L 54.390625 8.296875 
L 54.390625 0 
L 12.40625 0 
z
" id="DejaVuSans-49"/>
    </defs>
    <g transform="translate(7.2 200.653)scale(0.16 -0.16)">
     <use xlink:href="#DejaVuSans-81"/>
     <use x="78.710938" xlink:href="#DejaVuSans-49"/>
    </g>
   </g>
   <g id="text_2">
    <!-- Q2 -->
    <defs>
     <path d="M 19.1875 8.296875 
L 53.609375 8.296875 
L 53.609375 0 
L 7.328125 0 
L 7.328125 8.296875 
Q 12.9375 14.109375 22.625 23.890625 
Q 32.328125 33.6875 34.8125 36.53125 
Q 39.546875 41.84375 41.421875 45.53125 
Q 43.3125 49.21875 43.3125 52.78125 
Q 43.3125 58.59375 39.234375 62.25 
Q 35.15625 65.921875 28.609375 65.921875 
Q 23.96875 65.921875 18.8125 64.3125 
Q 13.671875 62.703125 7.8125 59.421875 
L 7.8125 69.390625 
Q 13.765625 71.78125 18.9375 73 
Q 24.125 74.21875 28.421875 74.21875 
Q 39.75 74.21875 46.484375 68.546875 
Q 53.21875 62.890625 53.21875 53.421875 
Q 53.21875 48.921875 51.53125 44.890625 
Q 49.859375 40.875 45.40625 35.40625 
Q 44.1875 33.984375 37.640625 27.21875 
Q 31.109375 20.453125 19.1875 8.296875 
z
" id="DejaVuSans-50"/>
    </defs>
    <g transform="translate(277.781 200.653)scale(0.16 -0.16)">
     <use xlink:href="#DejaVuSans-81"/>
     <use x="78.710938" xlink:href="#DejaVuSans-50"/>
    </g>
   </g>
   <g id="text_3">
    <!-- R1 -->
    <defs>
     <path d="M 44.390625 34.1875 
Q 47.5625 33.109375 50.5625 29.59375 
Q 53.5625 26.078125 56.59375 19.921875 
L 66.609375 0 
L 56 0 
L 46.6875 18.703125 
Q 43.0625 26.03125 39.671875 28.421875 
Q 36.28125 30.8125 30.421875 30.8125 
L 19.671875 30.8125 
L 19.671875 0 
L 9.8125 0 
L 9.8125 72.90625 
L 32.078125 72.90625 
Q 44.578125 72.90625 50.734375 67.671875 
Q 56.890625 62.453125 56.890625 51.90625 
Q 56.890625 45.015625 53.6875 40.46875 
Q 50.484375 35.9375 44.390625 34.1875 
z
M 19.671875 64.796875 
L 19.671875 38.921875 
L 32.078125 38.921875 
Q 39.203125 38.921875 42.84375 42.21875 
Q 46.484375 45.515625 46.484375 51.90625 
Q 46.484375 58.296875 42.84375 61.546875 
Q 39.203125 64.796875 32.078125 64.796875 
z
" id="DejaVuSans-82"/>
    </defs>
    <g transform="translate(11.8635 87.535)scale(0.16 -0.16)">
     <use xlink:href="#DejaVuSans-82"/>
     <use x="69.482422" xlink:href="#DejaVuSans-49"/>
    </g>
   </g>
   <g id="text_4">
    <!-- V1 -->
    <defs>
     <path d="M 28.609375 0 
L 0.78125 72.90625 
L 11.078125 72.90625 
L 34.1875 11.53125 
L 57.328125 72.90625 
L 67.578125 72.90625 
L 39.796875 0 
z
" id="DejaVuSans-86"/>
    </defs>
    <g transform="translate(17.706 133.435)scale(0.16 -0.16)">
     <use xlink:href="#DejaVuSans-86"/>
     <use x="68.408203" xlink:href="#DejaVuSans-49"/>
    </g>
   </g>
   <g id="text_5">
    <!-- R3 -->
    <defs>
     <path d="M 40.578125 39.3125 
Q 47.65625 37.796875 51.625 33 
Q 55.609375 28.21875 55.609375 21.1875 
Q 55.609375 10.40625 48.1875 4.484375 
Q 40.765625 -1.421875 27.09375 -1.421875 
Q 22.515625 -1.421875 17.65625 -0.515625 
Q 12.796875 0.390625 7.625 2.203125 
L 7.625 11.71875 
Q 11.71875 9.328125 16.59375 8.109375 
Q 21.484375 6.890625 26.8125 6.890625 
Q 36.078125 6.890625 40.9375 10.546875 
Q 45.796875 14.203125 45.796875 21.1875 
Q 45.796875 27.640625 41.28125 31.265625 
Q 36.765625 34.90625 28.71875 34.90625 
L 20.21875 34.90625 
L 20.21875 43.015625 
L 29.109375 43.015625 
Q 36.375 43.015625 40.234375 45.921875 
Q 44.09375 48.828125 44.09375 54.296875 
Q 44.09375 59.90625 40.109375 62.90625 
Q 36.140625 65.921875 28.71875 65.921875 
Q 24.65625 65.921875 20.015625 65.03125 
Q 15.375 64.15625 9.8125 62.3125 
L 9.8125 71.09375 
Q 15.4375 72.65625 20.34375 73.4375 
Q 25.25 74.21875 29.59375 74.21875 
Q 40.828125 74.21875 47.359375 69.109375 
Q 53.90625 64.015625 53.90625 55.328125 
Q 53.90625 49.265625 50.4375 45.09375 
Q 46.96875 40.921875 40.578125 39.3125 
z
" id="DejaVuSans-51"/>
    </defs>
    <g transform="translate(70.30225 151.8875)scale(0.16 -0.16)">
     <use xlink:href="#DejaVuSans-82"/>
     <use x="69.482422" xlink:href="#DejaVuSans-51"/>
    </g>
   </g>
   <g id="text_6">
    <!-- Set -->
    <defs>
     <path d="M 53.515625 70.515625 
L 53.515625 60.890625 
Q 47.90625 63.578125 42.921875 64.890625 
Q 37.9375 66.21875 33.296875 66.21875 
Q 25.25 66.21875 20.875 63.09375 
Q 16.5 59.96875 16.5 54.203125 
Q 16.5 49.359375 19.40625 46.890625 
Q 22.3125 44.4375 30.421875 42.921875 
L 36.375 41.703125 
Q 47.40625 39.59375 52.65625 34.296875 
Q 57.90625 29 57.90625 20.125 
Q 57.90625 9.515625 50.796875 4.046875 
Q 43.703125 -1.421875 29.984375 -1.421875 
Q 24.8125 -1.421875 18.96875 -0.25 
Q 13.140625 0.921875 6.890625 3.21875 
L 6.890625 13.375 
Q 12.890625 10.015625 18.65625 8.296875 
Q 24.421875 6.59375 29.984375 6.59375 
Q 38.421875 6.59375 43.015625 9.90625 
Q 47.609375 13.234375 47.609375 19.390625 
Q 47.609375 24.75 44.3125 27.78125 
Q 41.015625 30.8125 33.5 32.328125 
L 27.484375 33.5 
Q 16.453125 35.6875 11.515625 40.375 
Q 6.59375 45.0625 6.59375 53.421875 
Q 6.59375 63.09375 13.40625 68.65625 
Q 20.21875 74.21875 32.171875 74.21875 
Q 37.3125 74.21875 42.625 73.28125 
Q 47.953125 72.359375 53.515625 70.515625 
z
" id="DejaVuSans-83"/>
     <path d="M 56.203125 29.59375 
L 56.203125 25.203125 
L 14.890625 25.203125 
Q 15.484375 15.921875 20.484375 11.0625 
Q 25.484375 6.203125 34.421875 6.203125 
Q 39.59375 6.203125 44.453125 7.46875 
Q 49.3125 8.734375 54.109375 11.28125 
L 54.109375 2.78125 
Q 49.265625 0.734375 44.1875 -0.34375 
Q 39.109375 -1.421875 33.890625 -1.421875 
Q 20.796875 -1.421875 13.15625 6.1875 
Q 5.515625 13.8125 5.515625 26.8125 
Q 5.515625 40.234375 12.765625 48.109375 
Q 20.015625 56 32.328125 56 
Q 43.359375 56 49.78125 48.890625 
Q 56.203125 41.796875 56.203125 29.59375 
z
M 47.21875 32.234375 
Q 47.125 39.59375 43.09375 43.984375 
Q 39.0625 48.390625 32.421875 48.390625 
Q 24.90625 48.390625 20.390625 44.140625 
Q 15.875 39.890625 15.1875 32.171875 
z
" id="DejaVuSans-101"/>
     <path d="M 18.3125 70.21875 
L 18.3125 54.6875 
L 36.8125 54.6875 
L 36.8125 47.703125 
L 18.3125 47.703125 
L 18.3125 18.015625 
Q 18.3125 11.328125 20.140625 9.421875 
Q 21.96875 7.515625 27.59375 7.515625 
L 36.8125 7.515625 
L 36.8125 0 
L 27.59375 0 
Q 17.1875 0 13.234375 3.875 
Q 9.28125 7.765625 9.28125 18.015625 
L 9.28125 47.703125 
L 2.6875 47.703125 
L 2.6875 54.6875 
L 9.28125 54.6875 
L 9.28125 70.21875 
z
" id="DejaVuSans-116"/>
    </defs>
    <g transform="translate(104.2635 108.8625)scale(0.16 -0.16)">
     <use xlink:href="#DejaVuSans-83"/>
     <use x="63.476562" xlink:href="#DejaVuSans-101"/>
     <use x="125" xlink:href="#DejaVuSans-116"/>
    </g>
   </g>
   <g id="text_7">
    <!-- V2 -->
    <g transform="translate(268.925 133.435)scale(0.16 -0.16)">
     <use xlink:href="#DejaVuSans-86"/>
     <use x="68.408203" xlink:href="#DejaVuSans-50"/>
    </g>
   </g>
   <g id="text_8">
    <!-- R2 -->
    <g transform="translate(274.595 87.535)scale(0.16 -0.16)">
     <use xlink:href="#DejaVuSans-82"/>
     <use x="69.482422" xlink:href="#DejaVuSans-50"/>
    </g>
   </g>
   <g id="text_9">
    <!-- R4 -->
    <defs>
     <path d="M 37.796875 64.3125 
L 12.890625 25.390625 
L 37.796875 25.390625 
z
M 35.203125 72.90625 
L 47.609375 72.90625 
L 47.609375 25.390625 
L 58.015625 25.390625 
L 58.015625 17.1875 
L 47.609375 17.1875 
L 47.609375 0 
L 37.796875 0 
L 37.796875 17.1875 
L 4.890625 17.1875 
L 4.890625 26.703125 
z
" id="DejaVuSans-52"/>
    </defs>
    <g transform="translate(216.15625 151.8875)scale(0.16 -0.16)">
     <use xlink:href="#DejaVuSans-82"/>
     <use x="69.482422" xlink:href="#DejaVuSans-52"/>
    </g>
   </g>
   <g id="text_10">
    <!-- Reset -->
    <defs>
     <path d="M 44.28125 53.078125 
L 44.28125 44.578125 
Q 40.484375 46.53125 36.375 47.5 
Q 32.28125 48.484375 27.875 48.484375 
Q 21.1875 48.484375 17.84375 46.4375 
Q 14.5 44.390625 14.5 40.28125 
Q 14.5 37.15625 16.890625 35.375 
Q 19.28125 33.59375 26.515625 31.984375 
L 29.59375 31.296875 
Q 39.15625 29.25 43.1875 25.515625 
Q 47.21875 21.78125 47.21875 15.09375 
Q 47.21875 7.46875 41.1875 3.015625 
Q 35.15625 -1.421875 24.609375 -1.421875 
Q 20.21875 -1.421875 15.453125 -0.5625 
Q 10.6875 0.296875 5.421875 2 
L 5.421875 11.28125 
Q 10.40625 8.6875 15.234375 7.390625 
Q 20.0625 6.109375 24.8125 6.109375 
Q 31.15625 6.109375 34.5625 8.28125 
Q 37.984375 10.453125 37.984375 14.40625 
Q 37.984375 18.0625 35.515625 20.015625 
Q 33.0625 21.96875 24.703125 23.78125 
L 21.578125 24.515625 
Q 13.234375 26.265625 9.515625 29.90625 
Q 5.8125 33.546875 5.8125 39.890625 
Q 5.8125 47.609375 11.28125 51.796875 
Q 16.75 56 26.8125 56 
Q 31.78125 56 36.171875 55.265625 
Q 40.578125 54.546875 44.28125 53.078125 
z
" id="DejaVuSans-115"/>
    </defs>
    <g transform="translate(167.6525 108.8625)scale(0.16 -0.16)">
     <use xlink:href="#DejaVuSans-82"/>
     <use x="69.419922" xlink:href="#DejaVuSans-101"/>
     <use x="130.943359" xlink:href="#DejaVuSans-115"/>
     <use x="183.042969" xlink:href="#DejaVuSans-101"/>
     <use x="244.566406" xlink:href="#DejaVuSans-116"/>
    </g>
   </g>
   <g id="text_11">
    <!-- Vcc -->
    <defs>
     <path d="M 48.78125 52.59375 
L 48.78125 44.1875 
Q 44.96875 46.296875 41.140625 47.34375 
Q 37.3125 48.390625 33.40625 48.390625 
Q 24.65625 48.390625 19.8125 42.84375 
Q 14.984375 37.3125 14.984375 27.296875 
Q 14.984375 17.28125 19.8125 11.734375 
Q 24.65625 6.203125 33.40625 6.203125 
Q 37.3125 6.203125 41.140625 7.25 
Q 44.96875 8.296875 48.78125 10.40625 
L 48.78125 2.09375 
Q 45.015625 0.34375 40.984375 -0.53125 
Q 36.96875 -1.421875 32.421875 -1.421875 
Q 20.0625 -1.421875 12.78125 6.34375 
Q 5.515625 14.109375 5.515625 27.296875 
Q 5.515625 40.671875 12.859375 48.328125 
Q 20.21875 56 33.015625 56 
Q 37.15625 56 41.109375 55.140625 
Q 45.0625 54.296875 48.78125 52.59375 
z
" id="DejaVuSans-99"/>
    </defs>
    <g transform="translate(139.608 19.3575)scale(0.16 -0.16)">
     <use xlink:href="#DejaVuSans-86"/>
     <use x="68.408203" xlink:href="#DejaVuSans-99"/>
     <use x="123.388672" xlink:href="#DejaVuSans-99"/>
    </g>
   </g>
  </g>
 </g>
 <defs>
  <clipPath id="p0c9180b699">
   <rect height="263.8995" width="271.9386" x="17.9087" y="10.96775"/>
  </clipPath>
 </defs>
</svg>
