<?xml version="1.0" encoding="utf-8" standalone="no"?>
<!DOCTYPE svg PUBLIC "-//W3C//DTD SVG 1.1//EN"
  "http://www.w3.org/Graphics/SVG/1.1/DTD/svg11.dtd">
<!-- Created with matplotlib (https://matplotlib.org/) -->
<svg height="280.131625pt" version="1.1" viewBox="0 0 290.18225 280.131625" width="290.18225pt" xmlns="http://www.w3.org/2000/svg" xmlns:xlink="http://www.w3.org/1999/xlink">
 <defs>
  <style type="text/css">
*{stroke-linecap:butt;stroke-linejoin:round;white-space:pre;}
  </style>
 </defs>
 <g id="figure_1">
  <g id="patch_1">
   <path d="M 0 280.131625 
L 290.18225 280.131625 
L 290.18225 0 
L 0 0 
z
" style="fill:none;"/>
  </g>
  <g id="axes_1">
   <g id="patch_2">
    <path clip-path="url(#p502c80a93d)" d="M 48.188125 211.132375 
C 52.914044 211.132375 57.447038 209.35906 60.788768 206.202982 
C 64.130497 203.046904 66.008125 198.765743 66.008125 194.302375 
C 66.008125 189.839007 64.130497 185.557846 60.788768 182.401768 
C 57.447038 179.24569 52.914044 177.472375 48.188125 177.472375 
C 43.462206 177.472375 38.929212 179.24569 35.587482 182.401768 
C 32.245753 185.557846 30.368125 189.839007 30.368125 194.302375 
C 30.368125 198.765743 32.245753 203.046904 35.587482 206.202982 
C 38.929212 209.35906 43.462206 211.132375 48.188125 211.132375 
z
" style="fill:none;stroke:#000000;stroke-linejoin:miter;stroke-width:2;"/>
   </g>
   <g id="patch_3">
    <path clip-path="url(#p502c80a93d)" d="M 241.994125 211.132375 
C 246.720044 211.132375 251.253038 209.35906 254.594768 206.202982 
C 257.936497 203.046904 259.814125 198.765743 259.814125 194.302375 
C 259.814125 189.839007 257.936497 185.557846 254.594768 182.401768 
C 251.253038 179.24569 246.720044 177.472375 241.994125 177.472375 
C 237.268206 177.472375 232.735212 179.24569 229.393482 182.401768 
C 226.051753 185.557846 224.174125 189.839007 224.174125 194.302375 
C 224.174125 198.765743 226.051753 203.046904 229.393482 206.202982 
C 232.735212 209.35906 237.268206 211.132375 241.994125 211.132375 
z
" style="fill:none;stroke:#000000;stroke-linejoin:miter;stroke-width:2;"/>
   </g>
   <g id="patch_4">
    <path clip-path="url(#p502c80a93d)" d="M 41.654125 129.379375 
C 42.298569 129.379375 42.916704 129.137559 43.372394 128.707185 
C 43.828085 128.276811 44.084125 127.693016 44.084125 127.084375 
C 44.084125 126.475734 43.828085 125.891939 43.372394 125.461565 
C 42.916704 125.031191 42.298569 124.789375 41.654125 124.789375 
C 41.009681 124.789375 40.391546 125.031191 39.935856 125.461565 
C 39.480165 125.891939 39.224125 126.475734 39.224125 127.084375 
C 39.224125 127.693016 39.480165 128.276811 39.935856 128.707185 
C 40.391546 129.137559 41.009681 129.379375 41.654125 129.379375 
z
" style="stroke:#000000;stroke-linejoin:miter;stroke-width:2;"/>
   </g>
   <g id="patch_5">
    <path clip-path="url(#p502c80a93d)" d="M 114.554125 129.379375 
C 115.198569 129.379375 115.816704 129.137559 116.272394 128.707185 
C 116.728085 128.276811 116.984125 127.693016 116.984125 127.084375 
C 116.984125 126.475734 116.728085 125.891939 116.272394 125.461565 
C 115.816704 125.031191 115.198569 124.789375 114.554125 124.789375 
C 113.909681 124.789375 113.291546 125.031191 112.835856 125.461565 
C 112.380165 125.891939 112.124125 126.475734 112.124125 127.084375 
C 112.124125 127.693016 112.380165 128.276811 112.835856 128.707185 
C 113.291546 129.137559 113.909681 129.379375 114.554125 129.379375 
z
" style="stroke:#000000;stroke-linejoin:miter;stroke-width:2;"/>
   </g>
   <g id="patch_6">
    <path clip-path="url(#p502c80a93d)" d="M 248.528125 129.379375 
C 249.172569 129.379375 249.790704 129.137559 250.246394 128.707185 
C 250.702085 128.276811 250.958125 127.693016 250.958125 127.084375 
C 250.958125 126.475734 250.702085 125.891939 250.246394 125.461565 
C 249.790704 125.031191 249.172569 124.789375 248.528125 124.789375 
C 247.883681 124.789375 247.265546 125.031191 246.809856 125.461565 
C 246.354165 125.891939 246.098125 126.475734 246.098125 127.084375 
C 246.098125 127.693016 246.354165 128.276811 246.809856 128.707185 
C 247.265546 129.137559 247.883681 129.379375 248.528125 129.379375 
z
" style="stroke:#000000;stroke-linejoin:miter;stroke-width:2;"/>
   </g>
   <g id="patch_7">
    <path clip-path="url(#p502c80a93d)" d="M 175.628125 129.379375 
C 176.272569 129.379375 176.890704 129.137559 177.346394 128.707185 
C 177.802085 128.276811 178.058125 127.693016 178.058125 127.084375 
C 178.058125 126.475734 177.802085 125.891939 177.346394 125.461565 
C 176.890704 125.031191 176.272569 124.789375 175.628125 124.789375 
C 174.983681 124.789375 174.365546 125.031191 173.909856 125.461565 
C 173.454165 125.891939 173.198125 126.475734 173.198125 127.084375 
C 173.198125 127.693016 173.454165 128.276811 173.909856 128.707185 
C 174.365546 129.137559 174.983681 129.379375 175.628125 129.379375 
z
" style="stroke:#000000;stroke-linejoin:miter;stroke-width:2;"/>
   </g>
   <g id="patch_8">
    <path clip-path="url(#p502c80a93d)" d="M 145.091125 240.865375 
C 145.735569 240.865375 146.353704 240.623559 146.809394 240.193185 
C 147.265085 239.762811 147.521125 239.179016 147.521125 238.570375 
C 147.521125 237.961734 147.265085 237.377939 146.809394 236.947565 
C 146.353704 236.517191 145.735569 236.275375 145.091125 236.275375 
C 144.446681 236.275375 143.828546 236.517191 143.372856 236.947565 
C 142.917165 237.377939 142.661125 237.961734 142.661125 238.570375 
C 142.661125 239.179016 142.917165 239.762811 143.372856 240.193185 
C 143.828546 240.623559 144.446681 240.865375 145.091125 240.865375 
z
" style="stroke:#000000;stroke-linejoin:miter;stroke-width:2;"/>
   </g>
   <g id="patch_9">
    <path clip-path="url(#p502c80a93d)" d="M 145.091125 37.579375 
C 145.735569 37.579375 146.353704 37.337559 146.809394 36.907185 
C 147.265085 36.476811 147.521125 35.893016 147.521125 35.284375 
C 147.521125 34.675734 147.265085 34.091939 146.809394 33.661565 
C 146.353704 33.231191 145.735569 32.989375 145.091125 32.989375 
C 144.446681 32.989375 143.828546 33.231191 143.372856 33.661565 
C 142.917165 34.091939 142.661125 34.675734 142.661125 35.284375 
C 142.661125 35.893016 142.917165 36.476811 143.372856 36.907185 
C 143.828546 37.337559 144.446681 37.579375 145.091125 37.579375 
z
" style="stroke:#000000;stroke-linejoin:miter;stroke-width:2;"/>
   </g>
   <g id="patch_10">
    <path clip-path="url(#p502c80a93d)" d="M 41.654125 210.010375 
L 44.465544 203.704207 
L 46.563565 206.015915 
L 54.117582 199.900758 
L 54.138668 199.923992 
L 46.584651 206.039148 
L 48.682672 208.350857 
z
" style="stroke:#000000;stroke-linejoin:miter;stroke-width:2;"/>
   </g>
   <g id="patch_11">
    <path clip-path="url(#p502c80a93d)" d="M 248.528125 210.010375 
L 241.499578 208.350857 
L 243.597599 206.039148 
L 236.043582 199.923992 
L 236.064668 199.900758 
L 243.618685 206.015915 
L 245.716706 203.704207 
z
" style="stroke:#000000;stroke-linejoin:miter;stroke-width:2;"/>
   </g>
   <g id="line2d_1">
    <path clip-path="url(#p502c80a93d)" d="M 54.128125 194.302375 
L 66.008125 194.302375 
" style="fill:none;stroke:#000000;stroke-linecap:round;stroke-width:2;"/>
   </g>
   <g id="line2d_2">
    <path clip-path="url(#p502c80a93d)" d="M 54.128125 205.522375 
L 54.128125 183.082375 
" style="fill:none;stroke:#000000;stroke-linecap:round;stroke-width:2;"/>
   </g>
   <g id="line2d_3">
    <path clip-path="url(#p502c80a93d)" d="M 41.654125 172.984375 
L 41.654125 178.594375 
L 54.128125 188.692375 
" style="fill:none;stroke:#000000;stroke-linecap:round;stroke-width:2;"/>
   </g>
   <g id="line2d_4">
    <path clip-path="url(#p502c80a93d)" d="M 41.654125 215.620375 
L 41.654125 210.010375 
L 54.128125 199.912375 
" style="fill:none;stroke:#000000;stroke-linecap:round;stroke-width:2;"/>
   </g>
   <g id="line2d_5">
    <path clip-path="url(#p502c80a93d)" d="M 224.174125 194.302375 
L 236.054125 194.302375 
" style="fill:none;stroke:#000000;stroke-linecap:round;stroke-width:2;"/>
   </g>
   <g id="line2d_6">
    <path clip-path="url(#p502c80a93d)" d="M 236.054125 183.082375 
L 236.054125 205.522375 
" style="fill:none;stroke:#000000;stroke-linecap:round;stroke-width:2;"/>
   </g>
   <g id="line2d_7">
    <path clip-path="url(#p502c80a93d)" d="M 236.054125 188.692375 
L 248.528125 178.594375 
L 248.528125 172.984375 
" style="fill:none;stroke:#000000;stroke-linecap:round;stroke-width:2;"/>
   </g>
   <g id="line2d_8">
    <path clip-path="url(#p502c80a93d)" d="M 236.054125 199.912375 
L 248.528125 210.010375 
L 248.528125 215.620375 
" style="fill:none;stroke:#000000;stroke-linecap:round;stroke-width:2;"/>
   </g>
   <g id="line2d_9">
    <path clip-path="url(#p502c80a93d)" d="M 41.654125 172.984375 
L 41.654125 150.034375 
L 41.654125 127.084375 
" style="fill:none;stroke:#000000;stroke-linecap:round;stroke-width:2;"/>
   </g>
   <g id="line2d_10">
    <path clip-path="url(#p502c80a93d)" d="M 41.654125 127.084375 
L 41.654125 96.484375 
L 33.554125 93.934375 
L 49.754125 88.834375 
L 33.554125 83.734375 
L 49.754125 78.634375 
L 33.554125 73.534375 
L 49.754125 68.434375 
L 41.654125 65.884375 
L 41.654125 35.284375 
" style="fill:none;stroke:#000000;stroke-linecap:round;stroke-width:2;"/>
   </g>
   <g id="line2d_11">
    <path clip-path="url(#p502c80a93d)" d="M 41.654125 127.084375 
" style="fill:none;stroke:#000000;stroke-linecap:round;stroke-width:2;"/>
   </g>
   <g id="line2d_12">
    <path clip-path="url(#p502c80a93d)" d="M 41.654125 127.084375 
L 61.904125 127.084375 
L 64.604125 119.434375 
L 70.004125 134.734375 
L 75.404125 119.434375 
L 80.804125 134.734375 
L 86.204125 119.434375 
L 91.604125 134.734375 
L 94.304125 127.084375 
L 114.554125 127.084375 
" style="fill:none;stroke:#000000;stroke-linecap:round;stroke-width:2;"/>
   </g>
   <g id="line2d_13">
    <path clip-path="url(#p502c80a93d)" d="M 114.554125 127.084375 
" style="fill:none;stroke:#000000;stroke-linecap:round;stroke-width:2;"/>
   </g>
   <g id="line2d_14">
    <path clip-path="url(#p502c80a93d)" d="M 114.554125 127.084375 
L 114.554125 121.346875 
L 114.554125 115.609375 
" style="fill:none;stroke:#000000;stroke-linecap:round;stroke-width:2;"/>
   </g>
   <g id="line2d_15">
    <path clip-path="url(#p502c80a93d)" d="M 114.554125 115.609375 
" style="fill:none;stroke:#000000;stroke-linecap:round;stroke-width:2;"/>
   </g>
   <g id="line2d_16">
    <path clip-path="url(#p502c80a93d)" d="M 114.554125 127.084375 
L 169.364125 160.693375 
L 224.174125 194.302375 
" style="fill:none;stroke:#000000;stroke-linecap:round;stroke-width:2;"/>
   </g>
   <g id="line2d_17">
    <path clip-path="url(#p502c80a93d)" d="M 248.528125 172.984375 
L 248.528125 150.034375 
L 248.528125 127.084375 
" style="fill:none;stroke:#000000;stroke-linecap:round;stroke-width:2;"/>
   </g>
   <g id="line2d_18">
    <path clip-path="url(#p502c80a93d)" d="M 248.528125 127.084375 
" style="fill:none;stroke:#000000;stroke-linecap:round;stroke-width:2;"/>
   </g>
   <g id="line2d_19">
    <path clip-path="url(#p502c80a93d)" d="M 248.528125 127.084375 
L 248.528125 96.484375 
L 240.428125 93.934375 
L 256.628125 88.834375 
L 240.428125 83.734375 
L 256.628125 78.634375 
L 240.428125 73.534375 
L 256.628125 68.434375 
L 248.528125 65.884375 
L 248.528125 35.284375 
" style="fill:none;stroke:#000000;stroke-linecap:round;stroke-width:2;"/>
   </g>
   <g id="line2d_20">
    <path clip-path="url(#p502c80a93d)" d="M 248.528125 127.084375 
L 228.278125 127.084375 
L 225.578125 134.734375 
L 220.178125 119.434375 
L 214.778125 134.734375 
L 209.378125 119.434375 
L 203.978125 134.734375 
L 198.578125 119.434375 
L 195.878125 127.084375 
L 175.628125 127.084375 
" style="fill:none;stroke:#000000;stroke-linecap:round;stroke-width:2;"/>
   </g>
   <g id="line2d_21">
    <path clip-path="url(#p502c80a93d)" d="M 175.628125 127.084375 
" style="fill:none;stroke:#000000;stroke-linecap:round;stroke-width:2;"/>
   </g>
   <g id="line2d_22">
    <path clip-path="url(#p502c80a93d)" d="M 175.628125 127.084375 
L 175.628125 121.346875 
L 175.628125 115.609375 
" style="fill:none;stroke:#000000;stroke-linecap:round;stroke-width:2;"/>
   </g>
   <g id="line2d_23">
    <path clip-path="url(#p502c80a93d)" d="M 175.628125 115.609375 
" style="fill:none;stroke:#000000;stroke-linecap:round;stroke-width:2;"/>
   </g>
   <g id="line2d_24">
    <path clip-path="url(#p502c80a93d)" d="M 175.628125 127.084375 
L 120.818125 160.693375 
L 66.008125 194.302375 
" style="fill:none;stroke:#000000;stroke-linecap:round;stroke-width:2;"/>
   </g>
   <g id="line2d_25">
    <path clip-path="url(#p502c80a93d)" d="M 41.654125 215.620375 
L 41.654125 227.095375 
L 41.654125 238.570375 
" style="fill:none;stroke:#000000;stroke-linecap:round;stroke-width:2;"/>
   </g>
   <g id="line2d_26">
    <path clip-path="url(#p502c80a93d)" d="M 41.654125 238.570375 
L 145.091125 238.570375 
L 248.528125 238.570375 
" style="fill:none;stroke:#000000;stroke-linecap:round;stroke-width:2;"/>
   </g>
   <g id="line2d_27">
    <path clip-path="url(#p502c80a93d)" d="M 248.528125 238.570375 
L 248.528125 227.095375 
L 248.528125 215.620375 
" style="fill:none;stroke:#000000;stroke-linecap:round;stroke-width:2;"/>
   </g>
   <g id="line2d_28">
    <path clip-path="url(#p502c80a93d)" d="M 145.091125 238.570375 
" style="fill:none;stroke:#000000;stroke-linecap:round;stroke-width:2;"/>
   </g>
   <g id="line2d_29">
    <path clip-path="url(#p502c80a93d)" d="M 145.091125 238.570375 
L 145.091125 250.810375 
L 136.991125 250.810375 
L 153.191125 250.810375 
M 139.421125 254.482375 
L 150.761125 254.482375 
M 143.471125 258.154375 
L 146.711125 258.154375 
" style="fill:none;stroke:#000000;stroke-linecap:round;stroke-width:2;"/>
   </g>
   <g id="line2d_30">
    <path clip-path="url(#p502c80a93d)" d="M 41.654125 35.284375 
L 145.091125 35.284375 
L 248.528125 35.284375 
" style="fill:none;stroke:#000000;stroke-linecap:round;stroke-width:2;"/>
   </g>
   <g id="line2d_31">
    <path clip-path="url(#p502c80a93d)" d="M 145.091125 35.284375 
" style="fill:none;stroke:#000000;stroke-linecap:round;stroke-width:2;"/>
   </g>
   <g id="line2d_32">
    <path clip-path="url(#p502c80a93d)" d="M 145.091125 35.284375 
L 145.091125 29.546875 
L 145.091125 23.809375 
" style="fill:none;stroke:#000000;stroke-linecap:round;stroke-width:2;"/>
   </g>
   <g id="text_1">
    <!-- Q1 -->
    <defs>
     <path d="M 39.40625 66.21875 
Q 28.65625 66.21875 22.328125 58.203125 
Q 16.015625 50.203125 16.015625 36.375 
Q 16.015625 22.609375 22.328125 14.59375 
Q 28.65625 6.59375 39.40625 6.59375 
Q 50.140625 6.59375 56.421875 14.59375 
Q 62.703125 22.609375 62.703125 36.375 
Q 62.703125 50.203125 56.421875 58.203125 
Q 50.140625 66.21875 39.40625 66.21875 
z
M 53.21875 1.3125 
L 66.21875 -12.890625 
L 54.296875 -12.890625 
L 43.5 -1.21875 
Q 41.890625 -1.3125 41.03125 -1.359375 
Q 40.1875 -1.421875 39.40625 -1.421875 
Q 24.03125 -1.421875 14.8125 8.859375 
Q 5.609375 19.140625 5.609375 36.375 
Q 5.609375 53.65625 14.8125 63.9375 
Q 24.03125 74.21875 39.40625 74.21875 
Q 54.734375 74.21875 63.90625 63.9375 
Q 73.09375 53.65625 73.09375 36.375 
Q 73.09375 23.6875 67.984375 14.640625 
Q 62.890625 5.609375 53.21875 1.3125 
z
" id="DejaVuSans-81"/>
     <path d="M 12.40625 8.296875 
L 28.515625 8.296875 
L 28.515625 63.921875 
L 10.984375 60.40625 
L 10.984375 69.390625 
L 28.421875 72.90625 
L 38.28125 72.90625 
L 38.28125 8.296875 
L 54.390625 8.296875 
L 54.390625 0 
L 12.40625 0 
z
" id="DejaVuSans-49"/>
    </defs>
    <g transform="translate(7.2 198.1655)scale(0.14 -0.14)">
     <use xlink:href="#DejaVuSans-81"/>
     <use x="78.710938" xlink:href="#DejaVuSans-49"/>
    </g>
   </g>
   <g id="text_2">
    <!-- Q2 -->
    <defs>
     <path d="M 19.1875 8.296875 
L 53.609375 8.296875 
L 53.609375 0 
L 7.328125 0 
L 7.328125 8.296875 
Q 12.9375 14.109375 22.625 23.890625 
Q 32.328125 33.6875 34.8125 36.53125 
Q 39.546875 41.84375 41.421875 45.53125 
Q 43.3125 49.21875 43.3125 52.78125 
Q 43.3125 58.59375 39.234375 62.25 
Q 35.15625 65.921875 28.609375 65.921875 
Q 23.96875 65.921875 18.8125 64.3125 
Q 13.671875 62.703125 7.8125 59.421875 
L 7.8125 69.390625 
Q 13.765625 71.78125 18.9375 73 
Q 24.125 74.21875 28.421875 74.21875 
Q 39.75 74.21875 46.484375 68.546875 
Q 53.21875 62.890625 53.21875 53.421875 
Q 53.21875 48.921875 51.53125 44.890625 
Q 49.859375 40.875 45.40625 35.40625 
Q 44.1875 33.984375 37.640625 27.21875 
Q 31.109375 20.453125 19.1875 8.296875 
z
" id="DejaVuSans-50"/>
    </defs>
    <g transform="translate(263.054125 198.1655)scale(0.14 -0.14)">
     <use xlink:href="#DejaVuSans-81"/>
     <use x="78.710938" xlink:href="#DejaVuSans-50"/>
    </g>
   </g>
   <g id="text_3">
    <!-- R1 -->
    <defs>
     <path d="M 44.390625 34.1875 
Q 47.5625 33.109375 50.5625 29.59375 
Q 53.5625 26.078125 56.59375 19.921875 
L 66.609375 0 
L 56 0 
L 46.6875 18.703125 
Q 43.0625 26.03125 39.671875 28.421875 
Q 36.28125 30.8125 30.421875 30.8125 
L 19.671875 30.8125 
L 19.671875 0 
L 9.8125 0 
L 9.8125 72.90625 
L 32.078125 72.90625 
Q 44.578125 72.90625 50.734375 67.671875 
Q 56.890625 62.453125 56.890625 51.90625 
Q 56.890625 45.015625 53.6875 40.46875 
Q 50.484375 35.9375 44.390625 34.1875 
z
M 19.671875 64.796875 
L 19.671875 38.921875 
L 32.078125 38.921875 
Q 39.203125 38.921875 42.84375 42.21875 
Q 46.484375 45.515625 46.484375 51.90625 
Q 46.484375 58.296875 42.84375 61.546875 
Q 39.203125 64.796875 32.078125 64.796875 
z
" id="DejaVuSans-82"/>
    </defs>
    <g transform="translate(11.678813 85.0475)scale(0.14 -0.14)">
     <use xlink:href="#DejaVuSans-82"/>
     <use x="69.482422" xlink:href="#DejaVuSans-49"/>
    </g>
   </g>
   <g id="text_4">
    <!-- V1 -->
    <defs>
     <path d="M 28.609375 0 
L 0.78125 72.90625 
L 11.078125 72.90625 
L 34.1875 11.53125 
L 57.328125 72.90625 
L 67.578125 72.90625 
L 39.796875 0 
z
" id="DejaVuSans-86"/>
    </defs>
    <g transform="translate(17.49975 130.9475)scale(0.14 -0.14)">
     <use xlink:href="#DejaVuSans-86"/>
     <use x="68.408203" xlink:href="#DejaVuSans-49"/>
    </g>
   </g>
   <g id="text_5">
    <!-- R3 -->
    <defs>
     <path d="M 40.578125 39.3125 
Q 47.65625 37.796875 51.625 33 
Q 55.609375 28.21875 55.609375 21.1875 
Q 55.609375 10.40625 48.1875 4.484375 
Q 40.765625 -1.421875 27.09375 -1.421875 
Q 22.515625 -1.421875 17.65625 -0.515625 
Q 12.796875 0.390625 7.625 2.203125 
L 7.625 11.71875 
Q 11.71875 9.328125 16.59375 8.109375 
Q 21.484375 6.890625 26.8125 6.890625 
Q 36.078125 6.890625 40.9375 10.546875 
Q 45.796875 14.203125 45.796875 21.1875 
Q 45.796875 27.640625 41.28125 31.265625 
Q 36.765625 34.90625 28.71875 34.90625 
L 20.21875 34.90625 
L 20.21875 43.015625 
L 29.109375 43.015625 
Q 36.375 43.015625 40.234375 45.921875 
Q 44.09375 48.828125 44.09375 54.296875 
Q 44.09375 59.90625 40.109375 62.90625 
Q 36.140625 65.921875 28.71875 65.921875 
Q 24.65625 65.921875 20.015625 65.03125 
Q 15.375 64.15625 9.8125 62.3125 
L 9.8125 71.09375 
Q 15.4375 72.65625 20.34375 73.4375 
Q 25.25 74.21875 29.59375 74.21875 
Q 40.828125 74.21875 47.359375 69.109375 
Q 53.90625 64.015625 53.90625 55.328125 
Q 53.90625 49.265625 50.4375 45.09375 
Q 46.96875 40.921875 40.578125 39.3125 
z
" id="DejaVuSans-51"/>
    </defs>
    <g transform="translate(68.786469 148.432187)scale(0.14 -0.14)">
     <use xlink:href="#DejaVuSans-82"/>
     <use x="69.482422" xlink:href="#DejaVuSans-51"/>
    </g>
   </g>
   <g id="text_6">
    <!-- Set -->
    <defs>
     <path d="M 53.515625 70.515625 
L 53.515625 60.890625 
Q 47.90625 63.578125 42.921875 64.890625 
Q 37.9375 66.21875 33.296875 66.21875 
Q 25.25 66.21875 20.875 63.09375 
Q 16.5 59.96875 16.5 54.203125 
Q 16.5 49.359375 19.40625 46.890625 
Q 22.3125 44.4375 30.421875 42.921875 
L 36.375 41.703125 
Q 47.40625 39.59375 52.65625 34.296875 
Q 57.90625 29 57.90625 20.125 
Q 57.90625 9.515625 50.796875 4.046875 
Q 43.703125 -1.421875 29.984375 -1.421875 
Q 24.8125 -1.421875 18.96875 -0.25 
Q 13.140625 0.921875 6.890625 3.21875 
L 6.890625 13.375 
Q 12.890625 10.015625 18.65625 8.296875 
Q 24.421875 6.59375 29.984375 6.59375 
Q 38.421875 6.59375 43.015625 9.90625 
Q 47.609375 13.234375 47.609375 19.390625 
Q 47.609375 24.75 44.3125 27.78125 
Q 41.015625 30.8125 33.5 32.328125 
L 27.484375 33.5 
Q 16.453125 35.6875 11.515625 40.375 
Q 6.59375 45.0625 6.59375 53.421875 
Q 6.59375 63.09375 13.40625 68.65625 
Q 20.21875 74.21875 32.171875 74.21875 
Q 37.3125 74.21875 42.625 73.28125 
Q 47.953125 72.359375 53.515625 70.515625 
z
" id="DejaVuSans-83"/>
     <path d="M 56.203125 29.59375 
L 56.203125 25.203125 
L 14.890625 25.203125 
Q 15.484375 15.921875 20.484375 11.0625 
Q 25.484375 6.203125 34.421875 6.203125 
Q 39.59375 6.203125 44.453125 7.46875 
Q 49.3125 8.734375 54.109375 11.28125 
L 54.109375 2.78125 
Q 49.265625 0.734375 44.1875 -0.34375 
Q 39.109375 -1.421875 33.890625 -1.421875 
Q 20.796875 -1.421875 13.15625 6.1875 
Q 5.515625 13.8125 5.515625 26.8125 
Q 5.515625 40.234375 12.765625 48.109375 
Q 20.015625 56 32.328125 56 
Q 43.359375 56 49.78125 48.890625 
Q 56.203125 41.796875 56.203125 29.59375 
z
M 47.21875 32.234375 
Q 47.125 39.59375 43.09375 43.984375 
Q 39.0625 48.390625 32.421875 48.390625 
Q 24.90625 48.390625 20.390625 44.140625 
Q 15.875 39.890625 15.1875 32.171875 
z
" id="DejaVuSans-101"/>
     <path d="M 18.3125 70.21875 
L 18.3125 54.6875 
L 36.8125 54.6875 
L 36.8125 47.703125 
L 18.3125 47.703125 
L 18.3125 18.015625 
Q 18.3125 11.328125 20.140625 9.421875 
Q 21.96875 7.515625 27.59375 7.515625 
L 36.8125 7.515625 
L 36.8125 0 
L 27.59375 0 
Q 17.1875 0 13.234375 3.875 
Q 9.28125 7.765625 9.28125 18.015625 
L 9.28125 47.703125 
L 2.6875 47.703125 
L 2.6875 54.6875 
L 9.28125 54.6875 
L 9.28125 70.21875 
z
" id="DejaVuSans-116"/>
    </defs>
    <g transform="translate(103.058813 107.342813)scale(0.14 -0.14)">
     <use xlink:href="#DejaVuSans-83"/>
     <use x="63.476562" xlink:href="#DejaVuSans-101"/>
     <use x="125" xlink:href="#DejaVuSans-116"/>
    </g>
   </g>
   <g id="text_7">
    <!-- V2 -->
    <g transform="translate(254.198125 130.9475)scale(0.14 -0.14)">
     <use xlink:href="#DejaVuSans-86"/>
     <use x="68.408203" xlink:href="#DejaVuSans-50"/>
    </g>
   </g>
   <g id="text_8">
    <!-- R2 -->
    <g transform="translate(259.868125 85.0475)scale(0.14 -0.14)">
     <use xlink:href="#DejaVuSans-82"/>
     <use x="69.482422" xlink:href="#DejaVuSans-50"/>
    </g>
   </g>
   <g id="text_9">
    <!-- R4 -->
    <defs>
     <path d="M 37.796875 64.3125 
L 12.890625 25.390625 
L 37.796875 25.390625 
z
M 35.203125 72.90625 
L 47.609375 72.90625 
L 47.609375 25.390625 
L 58.015625 25.390625 
L 58.015625 17.1875 
L 47.609375 17.1875 
L 47.609375 0 
L 37.796875 0 
L 37.796875 17.1875 
L 4.890625 17.1875 
L 4.890625 26.703125 
z
" id="DejaVuSans-52"/>
    </defs>
    <g transform="translate(202.760469 148.432187)scale(0.14 -0.14)">
     <use xlink:href="#DejaVuSans-82"/>
     <use x="69.482422" xlink:href="#DejaVuSans-52"/>
    </g>
   </g>
   <g id="text_10">
    <!-- Reset -->
    <defs>
     <path d="M 44.28125 53.078125 
L 44.28125 44.578125 
Q 40.484375 46.53125 36.375 47.5 
Q 32.28125 48.484375 27.875 48.484375 
Q 21.1875 48.484375 17.84375 46.4375 
Q 14.5 44.390625 14.5 40.28125 
Q 14.5 37.15625 16.890625 35.375 
Q 19.28125 33.59375 26.515625 31.984375 
L 29.59375 31.296875 
Q 39.15625 29.25 43.1875 25.515625 
Q 47.21875 21.78125 47.21875 15.09375 
Q 47.21875 7.46875 41.1875 3.015625 
Q 35.15625 -1.421875 24.609375 -1.421875 
Q 20.21875 -1.421875 15.453125 -0.5625 
Q 10.6875 0.296875 5.421875 2 
L 5.421875 11.28125 
Q 10.40625 8.6875 15.234375 7.390625 
Q 20.0625 6.109375 24.8125 6.109375 
Q 31.15625 6.109375 34.5625 8.28125 
Q 37.984375 10.453125 37.984375 14.40625 
Q 37.984375 18.0625 35.515625 20.015625 
Q 33.0625 21.96875 24.703125 23.78125 
L 21.578125 24.515625 
Q 13.234375 26.265625 9.515625 29.90625 
Q 5.8125 33.546875 5.8125 39.890625 
Q 5.8125 47.609375 11.28125 51.796875 
Q 16.75 56 26.8125 56 
Q 31.78125 56 36.171875 55.265625 
Q 40.578125 54.546875 44.28125 53.078125 
z
" id="DejaVuSans-115"/>
    </defs>
    <g transform="translate(155.763438 107.342812)scale(0.14 -0.14)">
     <use xlink:href="#DejaVuSans-82"/>
     <use x="69.419922" xlink:href="#DejaVuSans-101"/>
     <use x="130.943359" xlink:href="#DejaVuSans-115"/>
     <use x="183.042969" xlink:href="#DejaVuSans-101"/>
     <use x="244.566406" xlink:href="#DejaVuSans-116"/>
    </g>
   </g>
   <g id="text_11">
    <!-- Vcc -->
    <defs>
     <path d="M 48.78125 52.59375 
L 48.78125 44.1875 
Q 44.96875 46.296875 41.140625 47.34375 
Q 37.3125 48.390625 33.40625 48.390625 
Q 24.65625 48.390625 19.8125 42.84375 
Q 14.984375 37.3125 14.984375 27.296875 
Q 14.984375 17.28125 19.8125 11.734375 
Q 24.65625 6.203125 33.40625 6.203125 
Q 37.3125 6.203125 41.140625 7.25 
Q 44.96875 8.296875 48.78125 10.40625 
L 48.78125 2.09375 
Q 45.015625 0.34375 40.984375 -0.53125 
Q 36.96875 -1.421875 32.421875 -1.421875 
Q 20.0625 -1.421875 12.78125 6.34375 
Q 5.515625 14.109375 5.515625 27.296875 
Q 5.515625 40.671875 12.859375 48.328125 
Q 20.21875 56 33.015625 56 
Q 37.15625 56 41.109375 55.140625 
Q 45.0625 54.296875 48.78125 52.59375 
z
" id="DejaVuSans-99"/>
    </defs>
    <g transform="translate(132.604875 17.837812)scale(0.14 -0.14)">
     <use xlink:href="#DejaVuSans-86"/>
     <use x="68.408203" xlink:href="#DejaVuSans-99"/>
     <use x="123.388672" xlink:href="#DejaVuSans-99"/>
    </g>
   </g>
   <g id="patch_12">
    <path clip-path="url(#p502c80a93d)" d="M 114.554125 117.904375 
C 115.198569 117.904375 115.816704 117.662559 116.272394 117.232185 
C 116.728085 116.801811 116.984125 116.218016 116.984125 115.609375 
C 116.984125 115.000734 116.728085 114.416939 116.272394 113.986565 
C 115.816704 113.556191 115.198569 113.314375 114.554125 113.314375 
C 113.909681 113.314375 113.291546 113.556191 112.835856 113.986565 
C 112.380165 114.416939 112.124125 115.000734 112.124125 115.609375 
C 112.124125 116.218016 112.380165 116.801811 112.835856 117.232185 
C 113.291546 117.662559 113.909681 117.904375 114.554125 117.904375 
z
" style="fill:#ffffff;stroke:#000000;stroke-linejoin:miter;stroke-width:2;"/>
   </g>
   <g id="patch_13">
    <path clip-path="url(#p502c80a93d)" d="M 175.628125 117.904375 
C 176.272569 117.904375 176.890704 117.662559 177.346394 117.232185 
C 177.802085 116.801811 178.058125 116.218016 178.058125 115.609375 
C 178.058125 115.000734 177.802085 114.416939 177.346394 113.986565 
C 176.890704 113.556191 176.272569 113.314375 175.628125 113.314375 
C 174.983681 113.314375 174.365546 113.556191 173.909856 113.986565 
C 173.454165 114.416939 173.198125 115.000734 173.198125 115.609375 
C 173.198125 116.218016 173.454165 116.801811 173.909856 117.232185 
C 174.365546 117.662559 174.983681 117.904375 175.628125 117.904375 
z
" style="fill:#ffffff;stroke:#000000;stroke-linejoin:miter;stroke-width:2;"/>
   </g>
  </g>
 </g>
 <defs>
  <clipPath id="p502c80a93d">
   <rect height="263.8995" width="258.8706" x="15.655825" y="9.032125"/>
  </clipPath>
 </defs>
</svg>
