<?xml version="1.0" encoding="utf-8" standalone="no"?>
<!DOCTYPE svg PUBLIC "-//W3C//DTD SVG 1.1//EN"
  "http://www.w3.org/Graphics/SVG/1.1/DTD/svg11.dtd">
<svg xmlns:xlink="http://www.w3.org/1999/xlink" width="387.72pt" height="66.9113pt" viewBox="0 0 387.72 66.9113" xmlns="http://www.w3.org/2000/svg" version="1.1">
 <metadata>
  <rdf:RDF xmlns:dc="http://purl.org/dc/elements/1.1/" xmlns:cc="http://creativecommons.org/ns#" xmlns:rdf="http://www.w3.org/1999/02/22-rdf-syntax-ns#">
   <cc:Work>
    <dc:type rdf:resource="http://purl.org/dc/dcmitype/StillImage"/>
    <dc:date>2022-10-08T08:29:23.281743</dc:date>
    <dc:format>image/svg+xml</dc:format>
    <dc:creator>
     <cc:Agent>
      <dc:title>Matplotlib v3.6.0, https://matplotlib.org/</dc:title>
     </cc:Agent>
    </dc:creator>
   </cc:Work>
  </rdf:RDF>
 </metadata>
 <defs>
  <style type="text/css">*{stroke-linejoin: round; stroke-linecap: butt}</style>
 </defs>
 <g id="figure_1">
  <g id="patch_1">
   <path d="M 0 66.9113 
L 387.72 66.9113 
L 387.72 0 
L 0 0 
L 0 66.9113 
z
" style="fill: none"/>
  </g>
  <g id="axes_1">
   <g id="line2d_1">
    <path d="M 10.26 49.0013 
L 40.86 49.0013 
L 40.86 41.3513 
L 71.46 41.3513 
L 71.46 56.6513 
L 40.86 56.6513 
L 40.86 49.0013 
M 71.46 49.0013 
L 102.06 49.0013 
" clip-path="url(#pd25c9b2497)" style="fill: none; stroke: #000000; stroke-width: 2; stroke-linecap: round"/>
   </g>
   <g id="line2d_2">
    <path d="M 102.06 49.0013 
L 132.66 49.0013 
L 132.66 41.3513 
L 163.26 41.3513 
L 163.26 56.6513 
L 132.66 56.6513 
L 132.66 49.0013 
M 163.26 49.0013 
L 193.86 49.0013 
" clip-path="url(#pd25c9b2497)" style="fill: none; stroke: #000000; stroke-width: 2; stroke-linecap: round"/>
   </g>
   <g id="line2d_3">
    <path d="M 193.86 49.0013 
L 224.46 49.0013 
L 224.46 41.3513 
L 255.06 41.3513 
L 255.06 56.6513 
L 224.46 56.6513 
L 224.46 49.0013 
M 255.06 49.0013 
L 285.66 49.0013 
" clip-path="url(#pd25c9b2497)" style="fill: none; stroke: #000000; stroke-width: 2; stroke-linecap: round"/>
   </g>
   <g id="line2d_4">
    <path d="M 285.66 49.0013 
L 316.26 49.0013 
L 316.26 41.3513 
L 346.86 41.3513 
L 346.86 56.6513 
L 316.26 56.6513 
L 316.26 49.0013 
M 346.86 49.0013 
L 377.46 49.0013 
" clip-path="url(#pd25c9b2497)" style="fill: none; stroke: #000000; stroke-width: 2; stroke-linecap: round"/>
   </g>
   <g id="line2d_5">
    <path d="M 10.26 49.0013 
L 40.86 49.0013 
L 40.86 41.3513 
L 71.46 41.3513 
L 71.46 56.6513 
L 40.86 56.6513 
L 40.86 49.0013 
M 71.46 49.0013 
L 102.06 49.0013 
" clip-path="url(#pd25c9b2497)" style="fill: none; stroke: #000000; stroke-width: 2; stroke-linecap: round"/>
   </g>
   <g id="line2d_6">
    <path d="M 102.06 49.0013 
L 132.66 49.0013 
L 132.66 41.3513 
L 163.26 41.3513 
L 163.26 56.6513 
L 132.66 56.6513 
L 132.66 49.0013 
M 163.26 49.0013 
L 193.86 49.0013 
" clip-path="url(#pd25c9b2497)" style="fill: none; stroke: #000000; stroke-width: 2; stroke-linecap: round"/>
   </g>
   <g id="line2d_7">
    <path d="M 193.86 49.0013 
L 224.46 49.0013 
L 224.46 41.3513 
L 255.06 41.3513 
L 255.06 56.6513 
L 224.46 56.6513 
L 224.46 49.0013 
M 255.06 49.0013 
L 285.66 49.0013 
" clip-path="url(#pd25c9b2497)" style="fill: none; stroke: #000000; stroke-width: 2; stroke-linecap: round"/>
   </g>
   <g id="line2d_8">
    <path d="M 285.66 49.0013 
L 316.26 49.0013 
L 316.26 41.3513 
L 346.86 41.3513 
L 346.86 56.6513 
L 316.26 56.6513 
L 316.26 49.0013 
M 346.86 49.0013 
L 377.46 49.0013 
" clip-path="url(#pd25c9b2497)" style="fill: none; stroke: #000000; stroke-width: 2; stroke-linecap: round"/>
   </g>
   <g id="text_1">
    <g clip-path="url(#pd25c9b2497)">
     <!-- R1 -->
     <g transform="translate(47.840664 21.694425) scale(0.125 -0.125)">
      <defs>
       <path id="DejaVuSans-52" d="M 2841 2188 
Q 3044 2119 3236 1894 
Q 3428 1669 3622 1275 
L 4263 0 
L 3584 0 
L 2988 1197 
Q 2756 1666 2539 1819 
Q 2322 1972 1947 1972 
L 1259 1972 
L 1259 0 
L 628 0 
L 628 4666 
L 2053 4666 
Q 2853 4666 3247 4331 
Q 3641 3997 3641 3322 
Q 3641 2881 3436 2590 
Q 3231 2300 2841 2188 
z
M 1259 4147 
L 1259 2491 
L 2053 2491 
Q 2509 2491 2742 2702 
Q 2975 2913 2975 3322 
Q 2975 3731 2742 3939 
Q 2509 4147 2053 4147 
L 1259 4147 
z
" transform="scale(0.015625)"/>
       <path id="DejaVuSans-31" d="M 794 531 
L 1825 531 
L 1825 4091 
L 703 3866 
L 703 4441 
L 1819 4666 
L 2450 4666 
L 2450 531 
L 3481 531 
L 3481 0 
L 794 0 
L 794 531 
z
" transform="scale(0.015625)"/>
      </defs>
      <use xlink:href="#DejaVuSans-52"/>
      <use xlink:href="#DejaVuSans-31" x="69.482422"/>
     </g>
    </g>
    <g clip-path="url(#pd25c9b2497)">
     <!-- 500K -->
     <g transform="translate(40.13168 35.691691) scale(0.125 -0.125)">
      <defs>
       <path id="DejaVuSans-35" d="M 691 4666 
L 3169 4666 
L 3169 4134 
L 1269 4134 
L 1269 2991 
Q 1406 3038 1543 3061 
Q 1681 3084 1819 3084 
Q 2600 3084 3056 2656 
Q 3513 2228 3513 1497 
Q 3513 744 3044 326 
Q 2575 -91 1722 -91 
Q 1428 -91 1123 -41 
Q 819 9 494 109 
L 494 744 
Q 775 591 1075 516 
Q 1375 441 1709 441 
Q 2250 441 2565 725 
Q 2881 1009 2881 1497 
Q 2881 1984 2565 2268 
Q 2250 2553 1709 2553 
Q 1456 2553 1204 2497 
Q 953 2441 691 2322 
L 691 4666 
z
" transform="scale(0.015625)"/>
       <path id="DejaVuSans-30" d="M 2034 4250 
Q 1547 4250 1301 3770 
Q 1056 3291 1056 2328 
Q 1056 1369 1301 889 
Q 1547 409 2034 409 
Q 2525 409 2770 889 
Q 3016 1369 3016 2328 
Q 3016 3291 2770 3770 
Q 2525 4250 2034 4250 
z
M 2034 4750 
Q 2819 4750 3233 4129 
Q 3647 3509 3647 2328 
Q 3647 1150 3233 529 
Q 2819 -91 2034 -91 
Q 1250 -91 836 529 
Q 422 1150 422 2328 
Q 422 3509 836 4129 
Q 1250 4750 2034 4750 
z
" transform="scale(0.015625)"/>
       <path id="DejaVuSans-4b" d="M 628 4666 
L 1259 4666 
L 1259 2694 
L 3353 4666 
L 4166 4666 
L 1850 2491 
L 4331 0 
L 3500 0 
L 1259 2247 
L 1259 0 
L 628 0 
L 628 4666 
z
" transform="scale(0.015625)"/>
      </defs>
      <use xlink:href="#DejaVuSans-35"/>
      <use xlink:href="#DejaVuSans-30" x="63.623047"/>
      <use xlink:href="#DejaVuSans-30" x="127.246094"/>
      <use xlink:href="#DejaVuSans-4b" x="190.869141"/>
     </g>
    </g>
   </g>
   <g id="text_2">
    <g clip-path="url(#pd25c9b2497)">
     <!-- R1 -->
     <g transform="translate(141.218789 19.413175) scale(0.125 -0.125)">
      <defs>
       <path id="ComicSansMS-52" d="M 3519 -34 
Q 3400 -34 3297 66 
Q 2263 1088 997 1441 
L 1022 828 
L 1038 213 
Q 1038 75 948 -17 
Q 859 -109 725 -109 
Q 591 -109 502 -17 
Q 413 75 413 213 
Q 413 459 389 948 
Q 366 1438 366 1684 
Q 366 1972 428 2540 
Q 491 3109 491 3394 
Q 491 3553 461 3865 
Q 431 4178 431 4338 
Q 431 4516 531 4650 
Q 650 4816 859 4800 
L 1613 4741 
Q 2041 4688 2334 4531 
Q 3600 3859 3600 2891 
Q 3600 2416 3169 2050 
Q 2822 1756 2303 1603 
Q 3275 1081 3756 503 
Q 3838 403 3838 291 
Q 3838 159 3742 62 
Q 3647 -34 3519 -34 
z
M 1528 4097 
L 1066 4134 
L 1097 3756 
Q 1119 3525 1119 3378 
Q 1119 3128 1078 2756 
L 1013 2134 
Q 1056 2134 1148 2131 
Q 1241 2128 1288 2128 
Q 2084 2128 2481 2341 
Q 2656 2438 2806 2594 
Q 2972 2769 2972 2891 
Q 2972 3325 2478 3700 
Q 2025 4044 1528 4097 
z
" transform="scale(0.015625)"/>
       <path id="ComicSansMS-31" d="M 2200 -3 
L 1578 -3 
L 959 0 
Q 741 0 653 28 
Q 494 84 494 266 
Q 494 581 984 581 
L 1134 578 
L 1263 572 
Q 1263 722 1236 1015 
Q 1209 1309 1209 1456 
Q 1209 1853 1281 2663 
Q 1350 3459 1347 3872 
Q 928 3547 813 3547 
Q 688 3547 595 3640 
Q 503 3734 503 3856 
Q 503 4003 772 4213 
Q 941 4331 1250 4594 
Q 1525 4872 1775 4872 
Q 1984 4872 1984 4631 
Q 1984 4559 1965 4417 
Q 1947 4275 1947 4203 
Q 1947 4100 1958 3890 
Q 1969 3681 1969 3578 
Q 1969 3222 1894 2515 
Q 1819 1809 1819 1456 
Q 1819 1275 1844 1015 
Q 1869 756 1872 591 
L 2200 597 
Q 2331 597 2417 511 
Q 2503 425 2503 297 
Q 2503 166 2417 81 
Q 2331 -3 2200 -3 
z
" transform="scale(0.015625)"/>
      </defs>
      <use xlink:href="#ComicSansMS-52"/>
      <use xlink:href="#ComicSansMS-31" x="62.841797"/>
     </g>
    </g>
    <g clip-path="url(#pd25c9b2497)">
     <!-- 500K -->
     <g transform="translate(132.699258 34.744425) scale(0.125 -0.125)">
      <defs>
       <path id="ComicSansMS-35" d="M 1756 -197 
Q 869 -197 450 459 
Q 394 550 394 634 
Q 394 756 491 845 
Q 588 934 709 934 
Q 838 934 953 797 
Q 1119 597 1203 541 
Q 1406 403 1756 403 
Q 2297 403 2653 816 
Q 2994 1209 2994 1763 
Q 2994 2219 2844 2503 
Q 2650 2863 2247 2863 
Q 1913 2863 1700 2772 
Q 1531 2700 1359 2525 
L 1019 2153 
Q 881 2013 738 2013 
Q 613 2013 525 2102 
Q 438 2191 438 2316 
Q 438 2378 488 2872 
Q 594 3856 594 4166 
Q 594 4275 539 4404 
Q 484 4534 484 4597 
Q 484 4788 813 4788 
Q 875 4788 1001 4777 
Q 1128 4766 1191 4766 
Q 1372 4766 1734 4778 
Q 2097 4791 2278 4791 
Q 2363 4791 2534 4784 
Q 2706 4778 2791 4778 
Q 2850 4778 2962 4801 
Q 3075 4825 3131 4825 
Q 3253 4825 3347 4734 
Q 3441 4644 3441 4525 
Q 3441 4175 2700 4175 
Q 2603 4175 2456 4181 
Q 2309 4188 2278 4188 
L 1750 4178 
L 1222 4163 
Q 1222 4022 1106 3122 
Q 1534 3463 2247 3463 
Q 2934 3463 3297 2925 
Q 3603 2469 3603 1763 
Q 3603 919 3109 372 
Q 2597 -197 1756 -197 
z
" transform="scale(0.015625)"/>
       <path id="ComicSansMS-30" d="M 1909 -122 
Q 959 -122 522 747 
Q 191 1416 191 2488 
Q 191 3394 622 4069 
Q 1131 4859 2006 4859 
Q 2828 4859 3288 4159 
Q 3684 3553 3684 2681 
Q 3684 1281 3240 579 
Q 2797 -122 1909 -122 
z
M 2003 4256 
Q 1422 4256 1081 3666 
Q 797 3172 797 2538 
Q 797 1509 1075 993 
Q 1353 478 1909 478 
Q 2572 478 2859 1234 
Q 3059 1759 3059 2566 
Q 3059 3413 2795 3834 
Q 2531 4256 2003 4256 
z
" transform="scale(0.015625)"/>
       <path id="ComicSansMS-4b" d="M 3603 -128 
Q 3128 -128 2250 706 
L 1316 1647 
L 1316 1603 
L 1313 -34 
Q 1313 -344 1041 -344 
Q 863 -344 756 -188 
Q 669 -59 669 91 
Q 669 822 712 2278 
Q 756 3734 756 4463 
Q 756 4597 845 4690 
Q 934 4784 1066 4784 
Q 1200 4784 1289 4690 
Q 1378 4597 1378 4463 
Q 1378 4159 1341 3519 
Q 1303 2900 1306 2572 
Q 1725 2969 2253 3569 
L 3150 4609 
Q 3256 4731 3388 4731 
Q 3513 4731 3609 4637 
Q 3706 4544 3706 4409 
Q 3706 4203 2900 3309 
Q 2344 2700 1750 2116 
Q 2125 1722 2925 984 
L 3253 709 
Q 3431 572 3638 503 
Q 3884 422 3884 194 
Q 3884 88 3819 -9 
Q 3738 -128 3603 -128 
z
" transform="scale(0.015625)"/>
      </defs>
      <use xlink:href="#ComicSansMS-35"/>
      <use xlink:href="#ComicSansMS-30" x="61.035156"/>
      <use xlink:href="#ComicSansMS-30" x="122.070312"/>
      <use xlink:href="#ComicSansMS-4b" x="183.105469"/>
     </g>
    </g>
   </g>
   <g id="text_3">
    <g clip-path="url(#pd25c9b2497)">
     <!-- R1 -->
     <g transform="translate(230.879141 22.123331) scale(0.125 -0.125)">
      <defs>
       <path id="Peralta-Regular-52" d="M 5516 1619 
L 5281 84 
L 3922 84 
L 2809 1875 
Q 2569 1856 2291 1856 
Q 2184 1856 2075 1856 
Q 1966 1856 1850 1863 
L 1797 781 
L 2791 722 
L 2847 84 
L 300 -122 
L 300 872 
L 1191 819 
L 1019 3475 
L 359 3341 
L 231 4288 
Q 459 4356 692 4407 
Q 925 4459 1150 4496 
Q 1375 4534 1584 4561 
Q 1794 4588 1978 4606 
Q 2409 4647 2809 4653 
Q 3316 4653 3755 4568 
Q 4194 4484 4514 4318 
Q 4834 4153 5011 3908 
Q 5188 3663 5166 3341 
Q 5150 3116 5033 2900 
Q 4916 2684 4692 2500 
Q 4469 2316 4141 2172 
Q 3813 2028 3372 1947 
L 4513 850 
L 5019 978 
L 5025 1619 
L 5516 1619 
z
M 2138 2272 
Q 2297 2272 2509 2280 
Q 2722 2288 2944 2320 
Q 3166 2353 3375 2415 
Q 3584 2478 3739 2587 
Q 3894 2697 3973 2858 
Q 4053 3019 4013 3250 
Q 3997 3338 3928 3430 
Q 3859 3522 3728 3597 
Q 3597 3672 3401 3720 
Q 3206 3769 2938 3769 
Q 2806 3769 2682 3762 
Q 2559 3756 2439 3745 
Q 2319 3734 2197 3715 
Q 2075 3697 1941 3675 
L 1869 2278 
Q 1938 2272 2003 2272 
Q 2069 2272 2138 2272 
z
" transform="scale(0.015625)"/>
       <path id="Peralta-Regular-31" d="M 3378 -50 
L 409 -50 
L 331 891 
L 1550 1006 
L 1403 2881 
L 331 2681 
L 197 3547 
L 2194 4025 
L 2081 1056 
L 3378 1178 
L 3378 -50 
z
" transform="scale(0.015625)"/>
      </defs>
      <use xlink:href="#Peralta-Regular-52"/>
      <use xlink:href="#Peralta-Regular-31" x="87.597656"/>
     </g>
    </g>
    <g clip-path="url(#pd25c9b2497)">
     <!-- 500K -->
     <g transform="translate(220.38207 35.539347) scale(0.125 -0.125)">
      <defs>
       <path id="Peralta-Regular-35" d="M 3853 1216 
Q 3853 956 3787 762 
Q 3722 569 3603 428 
Q 3484 288 3318 195 
Q 3153 103 2959 48 
Q 2766 -6 2548 -28 
Q 2331 -50 2106 -50 
Q 1544 -50 1086 19 
Q 628 88 225 206 
L 372 1197 
Q 706 1047 1006 967 
Q 1306 888 1538 850 
Q 1806 806 2041 800 
Q 2241 800 2417 844 
Q 2594 888 2722 972 
Q 2850 1056 2919 1181 
Q 2988 1306 2975 1466 
Q 2966 1628 2894 1739 
Q 2822 1850 2692 1919 
Q 2563 1988 2373 2017 
Q 2184 2047 1941 2047 
Q 1750 2041 1541 2009 
Q 1363 1981 1136 1925 
Q 909 1869 678 1759 
L 294 1906 
L 691 3909 
L 3853 3909 
L 3763 2969 
L 1275 3053 
L 991 2234 
Q 1178 2313 1376 2356 
Q 1575 2400 1741 2419 
Q 1934 2441 2119 2444 
Q 2278 2444 2467 2426 
Q 2656 2409 2848 2362 
Q 3041 2316 3222 2231 
Q 3403 2147 3542 2009 
Q 3681 1872 3765 1678 
Q 3850 1484 3853 1216 
z
" transform="scale(0.015625)"/>
       <path id="Peralta-Regular-30" d="M 4475 1991 
Q 4475 1709 4433 1448 
Q 4391 1188 4294 961 
Q 4197 734 4039 548 
Q 3881 363 3645 230 
Q 3409 97 3090 23 
Q 2772 -50 2356 -50 
Q 1763 -50 1356 111 
Q 950 272 700 548 
Q 450 825 340 1197 
Q 231 1569 231 1991 
Q 231 2413 340 2783 
Q 450 3153 700 3429 
Q 950 3706 1356 3865 
Q 1763 4025 2356 4025 
Q 2938 4025 3341 3865 
Q 3744 3706 3995 3429 
Q 4247 3153 4361 2783 
Q 4475 2413 4475 1991 
z
M 4038 1991 
Q 4038 2200 3963 2384 
Q 3888 2569 3697 2706 
Q 3506 2844 3181 2923 
Q 2856 3003 2356 3003 
Q 1841 3003 1511 2923 
Q 1181 2844 993 2706 
Q 806 2569 736 2384 
Q 666 2200 666 1991 
Q 666 1850 694 1720 
Q 722 1591 794 1477 
Q 866 1363 987 1270 
Q 1109 1178 1296 1111 
Q 1484 1044 1745 1008 
Q 2006 972 2356 972 
Q 2869 972 3195 1051 
Q 3522 1131 3709 1270 
Q 3897 1409 3967 1593 
Q 4038 1778 4038 1991 
z
" transform="scale(0.015625)"/>
       <path id="Peralta-Regular-4b" d="M 6094 878 
L 6075 84 
L 3384 0 
L 3384 984 
L 3988 959 
L 3297 2169 
Q 3084 2097 2882 2045 
Q 2681 1994 2501 1956 
Q 2322 1919 2169 1897 
Q 2016 1875 1900 1863 
L 1856 922 
L 3072 878 
L 3053 84 
L 366 0 
L 366 984 
L 1191 953 
L 1038 3603 
L 366 3584 
L 366 4569 
L 3072 4459 
L 3053 3669 
L 1991 3628 
L 1925 2284 
Q 2250 2306 2525 2392 
Q 2800 2478 3026 2600 
Q 3253 2722 3433 2869 
Q 3613 3016 3748 3162 
Q 3884 3309 3979 3443 
Q 4075 3578 4134 3675 
L 3378 3738 
L 3397 4531 
L 6106 4506 
L 6053 3513 
L 5247 3578 
Q 5125 3369 4965 3192 
Q 4806 3016 4623 2867 
Q 4441 2719 4239 2598 
Q 4038 2478 3828 2381 
L 5094 916 
L 6094 878 
z
" transform="scale(0.015625)"/>
      </defs>
      <use xlink:href="#Peralta-Regular-35"/>
      <use xlink:href="#Peralta-Regular-30" x="64.599609"/>
      <use xlink:href="#Peralta-Regular-30" x="138.183594"/>
      <use xlink:href="#Peralta-Regular-4b" x="211.767578"/>
     </g>
    </g>
   </g>
   <g id="text_4">
    <g clip-path="url(#pd25c9b2497)">
     <!-- R1 -->
     <g transform="translate(322.877383 21.694425) scale(0.125 -0.125)">
      <defs>
       <path id="DejaVuSerif-52" d="M 3066 2316 
Q 3284 2256 3442 2114 
Q 3600 1972 3725 1716 
L 4403 331 
L 4972 331 
L 4972 0 
L 3872 0 
L 3144 1484 
Q 2934 1916 2759 2042 
Q 2584 2169 2278 2169 
L 1581 2169 
L 1581 331 
L 2241 331 
L 2241 0 
L 353 0 
L 353 331 
L 947 331 
L 947 4331 
L 353 4331 
L 353 4666 
L 2719 4666 
Q 3400 4666 3770 4341 
Q 4141 4016 4141 3419 
Q 4141 2938 3870 2661 
Q 3600 2384 3066 2316 
z
M 1581 2503 
L 2503 2503 
Q 2975 2503 3200 2726 
Q 3425 2950 3425 3419 
Q 3425 3888 3200 4109 
Q 2975 4331 2503 4331 
L 1581 4331 
L 1581 2503 
z
" transform="scale(0.015625)"/>
       <path id="DejaVuSerif-31" d="M 909 0 
L 909 331 
L 1722 331 
L 1722 4213 
L 781 3603 
L 781 4013 
L 1919 4750 
L 2350 4750 
L 2350 331 
L 3163 331 
L 3163 0 
L 909 0 
z
" transform="scale(0.015625)"/>
      </defs>
      <use xlink:href="#DejaVuSerif-52"/>
      <use xlink:href="#DejaVuSerif-31" x="75.292969"/>
     </g>
    </g>
    <g clip-path="url(#pd25c9b2497)">
     <!-- 500K -->
     <g transform="translate(314.961367 35.691691) scale(0.125 -0.125)">
      <defs>
       <path id="DejaVuSerif-35" d="M 3219 4666 
L 3219 4153 
L 1081 4153 
L 1081 2816 
Q 1244 2928 1461 2984 
Q 1678 3041 1947 3041 
Q 2703 3041 3140 2622 
Q 3578 2203 3578 1478 
Q 3578 738 3136 323 
Q 2694 -91 1894 -91 
Q 1572 -91 1234 -12 
Q 897 66 544 225 
L 544 1131 
L 897 1131 
Q 925 688 1179 453 
Q 1434 219 1894 219 
Q 2388 219 2653 544 
Q 2919 869 2919 1478 
Q 2919 2084 2655 2407 
Q 2391 2731 1894 2731 
Q 1613 2731 1398 2631 
Q 1184 2531 1019 2322 
L 750 2322 
L 750 4666 
L 3219 4666 
z
" transform="scale(0.015625)"/>
       <path id="DejaVuSerif-30" d="M 2034 219 
Q 2513 219 2750 744 
Q 2988 1269 2988 2328 
Q 2988 3391 2750 3916 
Q 2513 4441 2034 4441 
Q 1556 4441 1318 3916 
Q 1081 3391 1081 2328 
Q 1081 1269 1318 744 
Q 1556 219 2034 219 
z
M 2034 -91 
Q 1275 -91 848 546 
Q 422 1184 422 2328 
Q 422 3475 848 4112 
Q 1275 4750 2034 4750 
Q 2797 4750 3222 4112 
Q 3647 3475 3647 2328 
Q 3647 1184 3222 546 
Q 2797 -91 2034 -91 
z
" transform="scale(0.015625)"/>
       <path id="DejaVuSerif-4b" d="M 353 0 
L 353 331 
L 947 331 
L 947 4331 
L 353 4331 
L 353 4666 
L 2175 4666 
L 2175 4331 
L 1581 4331 
L 1581 2566 
L 3591 4331 
L 3084 4331 
L 3084 4666 
L 4634 4666 
L 4634 4331 
L 4109 4331 
L 2106 2572 
L 4347 331 
L 4878 331 
L 4878 0 
L 3794 0 
L 1581 2216 
L 1581 331 
L 2175 331 
L 2175 0 
L 353 0 
z
" transform="scale(0.015625)"/>
      </defs>
      <use xlink:href="#DejaVuSerif-35"/>
      <use xlink:href="#DejaVuSerif-30" x="63.623047"/>
      <use xlink:href="#DejaVuSerif-30" x="127.246094"/>
      <use xlink:href="#DejaVuSerif-4b" x="190.869141"/>
     </g>
    </g>
   </g>
   <g id="text_5">
    <g clip-path="url(#pd25c9b2497)">
     <!-- R1 -->
     <g transform="translate(47.840664 21.694425) scale(0.125 -0.125)">
      <use xlink:href="#DejaVuSans-52"/>
      <use xlink:href="#DejaVuSans-31" x="69.482422"/>
     </g>
    </g>
    <g clip-path="url(#pd25c9b2497)">
     <!-- 500K -->
     <g transform="translate(40.13168 35.691691) scale(0.125 -0.125)">
      <use xlink:href="#DejaVuSans-35"/>
      <use xlink:href="#DejaVuSans-30" x="63.623047"/>
      <use xlink:href="#DejaVuSans-30" x="127.246094"/>
      <use xlink:href="#DejaVuSans-4b" x="190.869141"/>
     </g>
    </g>
   </g>
   <g id="text_6">
    <g clip-path="url(#pd25c9b2497)">
     <!-- R1 -->
     <g transform="translate(141.218789 19.413175) scale(0.125 -0.125)">
      <use xlink:href="#ComicSansMS-52"/>
      <use xlink:href="#ComicSansMS-31" x="62.841797"/>
     </g>
    </g>
    <g clip-path="url(#pd25c9b2497)">
     <!-- 500K -->
     <g transform="translate(132.699258 34.744425) scale(0.125 -0.125)">
      <use xlink:href="#ComicSansMS-35"/>
      <use xlink:href="#ComicSansMS-30" x="61.035156"/>
      <use xlink:href="#ComicSansMS-30" x="122.070312"/>
      <use xlink:href="#ComicSansMS-4b" x="183.105469"/>
     </g>
    </g>
   </g>
   <g id="text_7">
    <g clip-path="url(#pd25c9b2497)">
     <!-- R1 -->
     <g transform="translate(230.879141 22.123331) scale(0.125 -0.125)">
      <use xlink:href="#Peralta-Regular-52"/>
      <use xlink:href="#Peralta-Regular-31" x="87.597656"/>
     </g>
    </g>
    <g clip-path="url(#pd25c9b2497)">
     <!-- 500K -->
     <g transform="translate(220.38207 35.539347) scale(0.125 -0.125)">
      <use xlink:href="#Peralta-Regular-35"/>
      <use xlink:href="#Peralta-Regular-30" x="64.599609"/>
      <use xlink:href="#Peralta-Regular-30" x="138.183594"/>
      <use xlink:href="#Peralta-Regular-4b" x="211.767578"/>
     </g>
    </g>
   </g>
   <g id="text_8">
    <g clip-path="url(#pd25c9b2497)">
     <!-- R1 -->
     <g transform="translate(322.877383 21.694425) scale(0.125 -0.125)">
      <use xlink:href="#DejaVuSerif-52"/>
      <use xlink:href="#DejaVuSerif-31" x="75.292969"/>
     </g>
    </g>
    <g clip-path="url(#pd25c9b2497)">
     <!-- 500K -->
     <g transform="translate(314.961367 35.691691) scale(0.125 -0.125)">
      <use xlink:href="#DejaVuSerif-35"/>
      <use xlink:href="#DejaVuSerif-30" x="63.623047"/>
      <use xlink:href="#DejaVuSerif-30" x="127.246094"/>
      <use xlink:href="#DejaVuSerif-4b" x="190.869141"/>
     </g>
    </g>
   </g>
  </g>
 </g>
 <defs>
  <clipPath id="pd25c9b2497">
   <rect x="7.2" y="7.2" width="373.32" height="52.5113"/>
  </clipPath>
 </defs>
</svg>
