<svg xmlns="http://www.w3.org/2000/svg" xml:lang="en" height="51.356199999999994pt" width="198.39999999999998pt" viewBox="-2.0 23.5438 198.39999999999998 51.356199999999994"><path d="M 0.0,64.8 L 32.4,64.8 L 32.4,56.699999999999996 L 64.8,56.699999999999996 L 64.8,72.89999999999999 L 32.4,72.89999999999999 L 32.4,64.8 M 64.8,64.8 L 97.19999999999999,64.8" style="stroke:black;fill:none;stroke-width:2;stroke-linecap:round;stroke-linejoin:round;" /><path d="M 97.19999999999999,64.8 L 129.6,64.8 L 129.6,56.699999999999996 L 162.0,56.699999999999996 L 162.0,72.89999999999999 L 129.6,72.89999999999999 L 129.6,64.8 M 162.0,64.8 L 194.39999999999998,64.8" style="stroke:black;fill:none;stroke-width:2;stroke-linecap:round;stroke-linejoin:round;" /><path d="M 0.0,64.8 L 32.4,64.8 L 32.4,56.699999999999996 L 64.8,56.699999999999996 L 64.8,72.89999999999999 L 32.4,72.89999999999999 L 32.4,64.8 M 64.8,64.8 L 97.19999999999999,64.8" style="stroke:black;fill:none;stroke-width:2;stroke-linecap:round;stroke-linejoin:round;" /><path d="M 97.19999999999999,64.8 L 129.6,64.8 L 129.6,56.699999999999996 L 162.0,56.699999999999996 L 162.0,72.89999999999999 L 129.6,72.89999999999999 L 129.6,64.8 M 162.0,64.8 L 194.39999999999998,64.8" style="stroke:black;fill:none;stroke-width:2;stroke-linecap:round;stroke-linejoin:round;" /><g><g><g><symbol id="STIXTwoMath-Regular_1657" width="829" height="51.216" viewBox="0 -31.524 829 51.216"><path d="M 8.004 -11.064 L 9.948 -11.064 L 9.948 -10.248 L 8.556 -10.248 L 4.956 3.18 L 4.452 3.18 L 1.656 -3.828 L 0.408 -3.348 L 0.216 -3.684 L 2.124 -5.004 L 2.364 -5.004 L 4.74 1.116 L 4.788 1.116 Z " /></symbol><use href="#STIXTwoMath-Regular_1657" transform="translate(22.249 10.872) scale(1.167)" fill="black" /><symbol id="STIXTwoMath-Regular_3326" width="539" height="51.216" viewBox="0 -31.524 539 51.216"><path d="M 6.024 -5.664 L 5.16 -1.416 Q 5.16 -1.416, 5.13 -1.26 Q 5.1 -1.104, 5.1 -0.972 Q 5.1 -0.852, 5.148 -0.786 Q 5.196 -0.72, 5.34 -0.72 Q 5.532 -0.72, 5.706 -0.834 Q 5.88 -0.948, 6.018 -1.098 Q 6.156 -1.248, 6.228 -1.344 L 6.468 -1.164 Q 6.096 -0.588, 5.688 -0.234 Q 5.28 0.12, 4.74 0.12 Q 4.068 0.12, 4.068 -0.456 Q 4.068 -0.588, 4.098 -0.726 Q 4.128 -0.864, 4.152 -1.02 L 4.068 -1.02 Q 3.12 0.144, 2.064 0.144 Q 1.416 0.144, 1.002 -0.36 Q 0.588 -0.864, 0.588 -1.908 Q 0.588 -2.724, 0.846 -3.426 Q 1.104 -4.128, 1.536 -4.65 Q 1.968 -5.172, 2.52 -5.46 Q 3.072 -5.748, 3.66 -5.748 Q 4.14 -5.748, 4.428 -5.568 Q 4.716 -5.388, 4.908 -5.112 L 4.956 -5.112 L 5.388 -5.664 Z M 4.668 -4.128 Q 4.668 -4.608, 4.398 -4.95 Q 4.128 -5.292, 3.624 -5.292 Q 3.18 -5.292, 2.814 -5.01 Q 2.448 -4.728, 2.19 -4.26 Q 1.932 -3.792, 1.794 -3.21 Q 1.656 -2.628, 1.656 -2.028 Q 1.656 -1.2, 1.914 -0.924 Q 2.172 -0.648, 2.616 -0.648 Q 3.216 -0.648, 3.624 -1.026 Q 4.032 -1.404, 4.296 -2.172 Q 4.416 -2.532, 4.5 -2.91 Q 4.584 -3.288, 4.626 -3.618 Q 4.668 -3.948, 4.668 -4.128 Z " /></symbol><use href="#STIXTwoMath-Regular_3326" transform="translate(33.855 10.872) scale(1.167)" fill="black" /><symbol id="STIXTwoMath-Regular_1139" width="464" height="51.216" viewBox="0 -31.524 464 51.216"><path d="M 5.568 -1.92 L 5.184 0 L 0.456 0 L 0.456 -0.408 L 2.28 -2.232 Q 2.88 -2.844, 3.276 -3.342 Q 3.672 -3.84, 3.87 -4.344 Q 4.068 -4.848, 4.068 -5.472 Q 4.068 -6.144, 3.666 -6.546 Q 3.264 -6.948, 2.568 -6.948 Q 1.98 -6.948, 1.566 -6.696 Q 1.152 -6.444, 0.816 -5.772 L 0.528 -5.892 Q 0.804 -6.768, 1.404 -7.248 Q 2.004 -7.728, 2.88 -7.728 Q 3.564 -7.728, 4.08 -7.47 Q 4.596 -7.212, 4.89 -6.75 Q 5.184 -6.288, 5.184 -5.652 Q 5.184 -5.124, 4.962 -4.638 Q 4.74 -4.152, 4.302 -3.636 Q 3.864 -3.12, 3.228 -2.472 L 1.644 -0.972 L 1.644 -0.912 L 2.484 -0.948 L 4.152 -0.948 Q 4.632 -0.948, 4.824 -1.164 Q 5.016 -1.38, 5.22 -1.92 Z " /></symbol><use href="#STIXTwoMath-Regular_1139" transform="translate(41.625 16.865) scale(0.817)" fill="black" /><symbol id="STIXTwoMath-Regular_1196" width="658" height="51.216" viewBox="0 -31.524 658 51.216"><path d="M 7.896 -2.7 L 4.752 -2.7 L 4.752 0.48 L 3.888 0.48 L 3.888 -2.7 L 0.744 -2.7 L 0.744 -3.516 L 3.888 -3.516 L 3.888 -6.696 L 4.752 -6.696 L 4.752 -3.516 L 7.896 -3.516 Z " /></symbol><use href="#STIXTwoMath-Regular_1196" transform="translate(49.587 10.872) scale(1.167)" fill="black" /><symbol id="STIXTwoMath-Regular_3327" width="483" height="51.216" viewBox="0 -31.524 483 51.216"><path d="M 2.376 -4.824 L 2.436 -4.824 Q 2.82 -5.256, 3.222 -5.502 Q 3.624 -5.748, 4.104 -5.748 Q 4.812 -5.748, 5.304 -5.238 Q 5.796 -4.728, 5.796 -3.648 Q 5.796 -2.916, 5.574 -2.232 Q 5.352 -1.548, 4.926 -1.014 Q 4.5 -0.48, 3.876 -0.168 Q 3.252 0.144, 2.448 0.144 Q 1.428 0.144, 0.552 -0.3 L 1.908 -7.272 Q 1.92 -7.308, 1.938 -7.446 Q 1.956 -7.584, 1.956 -7.692 Q 1.956 -7.896, 1.83 -7.968 Q 1.704 -8.04, 1.524 -8.04 Q 1.428 -8.04, 1.296 -8.028 Q 1.164 -8.016, 1.164 -8.016 L 1.164 -8.328 L 2.82 -8.46 L 3.084 -8.46 Z M 2.208 -3.792 L 1.62 -0.792 Q 1.74 -0.684, 1.998 -0.522 Q 2.256 -0.36, 2.628 -0.36 Q 3.348 -0.36, 3.816 -0.792 Q 4.284 -1.224, 4.512 -1.956 Q 4.74 -2.688, 4.74 -3.6 Q 4.74 -4.416, 4.452 -4.746 Q 4.164 -5.076, 3.756 -5.076 Q 3.372 -5.076, 3.072 -4.872 Q 2.772 -4.668, 2.556 -4.374 Q 2.34 -4.08, 2.208 -3.792 Z " /></symbol><use href="#STIXTwoMath-Regular_3327" transform="translate(62.778 10.872) scale(1.167)" fill="black" /><use href="#STIXTwoMath-Regular_1139" transform="translate(70.1 16.865) scale(0.817)" fill="black" /><rect x="33.855" y="34.742" width="41.096" height="0.952" fill="black" /></g></g></g><g><g><g><symbol id="Asana-Math_743" width="793" height="59.736" viewBox="0 -38.1 793 59.736"><path d="M 9.516 -12.948 L 5.58 0.708 L 2.256 -6.252 L 0.912 -5.748 L 0.756 -6.012 L 3.18 -7.308 L 5.664 -2.04 L 8.784 -12.948 Z " /></symbol><use href="#Asana-Math_743" transform="translate(121.027 6.084) scale(1.167)" fill="black" /><symbol id="Asana-Math_1792" width="406" height="59.736" viewBox="0 -38.1 406 59.736"><path d="M 3.252 -2.448 Q 2.292 -1.104, 1.572 -0.486 Q 0.852 0.132, 0.456 0.132 Q 0.288 0.132, 0.168 -0.138 Q 0.048 -0.408, 0.048 -0.804 Q 0.048 -1.512, 0.3 -2.484 Q 0.552 -3.456, 0.948 -4.248 Q 1.176 -4.692, 1.5 -4.992 Q 1.824 -5.292, 2.388 -5.568 Q 2.832 -5.784, 3.288 -5.784 Q 3.684 -5.784, 4.308 -5.556 L 4.704 -5.772 L 4.824 -5.664 L 3.72 -1.116 Q 3.708 -1.08, 3.708 -0.984 Q 3.708 -0.708, 3.888 -0.708 Q 4.116 -0.708, 4.788 -1.272 L 4.872 -1.02 Q 3.516 0.108, 3.12 0.108 Q 2.832 0.108, 2.832 -0.312 Q 2.832 -0.624, 2.904 -0.924 Z M 3.828 -4.968 Q 3.156 -5.196, 2.808 -5.196 Q 2.376 -5.196, 2.13 -5.004 Q 1.884 -4.812, 1.668 -4.32 Q 1.356 -3.6, 1.134 -2.682 Q 0.912 -1.764, 0.912 -1.188 Q 0.912 -0.708, 1.128 -0.708 Q 1.416 -0.708, 1.914 -1.182 Q 2.412 -1.656, 2.928 -2.412 Q 3.24 -2.88, 3.438 -3.438 Q 3.636 -3.996, 3.828 -4.968 Z " /></symbol><use href="#Asana-Math_1792" transform="translate(132.129 6.084) scale(1.167)" fill="black" /><symbol id="Asana-Math_21" width="468" height="59.736" viewBox="0 -38.1 468 59.736"><path d="M 0.192 -0.276 L 2.232 -2.448 Q 3.24 -3.528, 3.666 -4.266 Q 4.092 -5.004, 4.092 -5.676 Q 4.092 -6.444, 3.636 -6.894 Q 3.18 -7.344, 2.4 -7.344 Q 1.8 -7.344, 1.458 -7.104 Q 1.116 -6.864, 0.972 -6.348 L 0.816 -5.796 L 0.468 -5.796 L 0.672 -7.428 Q 1.116 -7.872, 1.59 -8.07 Q 2.064 -8.268, 2.712 -8.268 Q 3.852 -8.268, 4.512 -7.668 Q 5.172 -7.068, 5.172 -6.036 Q 5.172 -5.364, 4.848 -4.764 Q 4.524 -4.164, 3.648 -3.24 L 1.464 -0.924 Q 2.484 -0.948, 3.684 -0.948 Q 4.884 -0.948, 5.616 -0.984 L 5.616 0.036 Q 4.596 0.036, 4.014 0.03 Q 3.432 0.024, 3.216 0.012 Q 3 0, 2.868 0 Q 2.736 0, 2.526 0.012 Q 2.316 0.024, 1.746 0.03 Q 1.176 0.036, 0.192 0.036 Z " /></symbol><use href="#Asana-Math_21" transform="translate(138.331 13.031) scale(0.852)" fill="black" /><symbol id="Asana-Math_14" width="604" height="59.736" viewBox="0 -38.1 604 59.736"><path d="M 7.248 -2.892 L 4.368 -2.892 L 4.368 0 L 3.66 0 L 3.66 -2.892 L 0.78 -2.892 L 0.78 -3.6 L 3.66 -3.6 L 3.66 -6.456 L 4.368 -6.456 L 4.368 -3.6 L 7.248 -3.6 Z " /></symbol><use href="#Asana-Math_14" transform="translate(146.542 6.084) scale(1.167)" fill="black" /><symbol id="Asana-Math_1793" width="433" height="59.736" viewBox="0 -38.1 433 59.736"><path d="M 2.82 -8.664 L 1.788 -3.888 Q 2.34 -4.596, 2.706 -4.938 Q 3.072 -5.28, 3.54 -5.52 Q 4.068 -5.784, 4.524 -5.784 Q 4.812 -5.784, 4.944 -5.616 Q 5.196 -5.304, 5.196 -4.512 Q 5.196 -3.324, 4.656 -2.202 Q 4.116 -1.08, 3.252 -0.468 Q 2.424 0.132, 1.68 0.132 Q 1.188 0.132, 0.816 -0.126 Q 0.444 -0.384, 0.444 -0.732 Q 0.444 -0.816, 0.456 -0.852 L 1.668 -7.464 Q 1.692 -7.608, 1.692 -7.752 Q 1.692 -8.04, 1.284 -8.04 L 0.708 -8.04 L 0.756 -8.292 Q 1.884 -8.4, 2.676 -8.796 Z M 3.864 -5.088 Q 3.6 -5.088, 3.198 -4.866 Q 2.796 -4.644, 2.496 -4.332 Q 1.872 -3.672, 1.608 -2.724 Q 1.344 -1.776, 1.344 -1.212 Q 1.344 -0.432, 2.196 -0.432 Q 3.144 -0.432, 3.72 -1.644 Q 4.332 -2.976, 4.332 -4.224 Q 4.332 -5.088, 3.864 -5.088 Z " /></symbol><use href="#Asana-Math_1793" transform="translate(159.005 6.084) scale(1.167)" fill="black" /><use href="#Asana-Math_21" transform="translate(165.473 13.031) scale(0.852)" fill="black" /><rect x="132.129" y="35.428" width="38.444" height="0.826" fill="black" /></g></g></g><g><g><g><symbol id="STIXTwoMath-Regular_1657" width="829" height="51.216" viewBox="0 -31.524 829 51.216"><path d="M 8.004 -11.064 L 9.948 -11.064 L 9.948 -10.248 L 8.556 -10.248 L 4.956 3.18 L 4.452 3.18 L 1.656 -3.828 L 0.408 -3.348 L 0.216 -3.684 L 2.124 -5.004 L 2.364 -5.004 L 4.74 1.116 L 4.788 1.116 Z " /></symbol><use href="#STIXTwoMath-Regular_1657" transform="translate(22.249 10.872) scale(1.167)" fill="black" /><symbol id="STIXTwoMath-Regular_3326" width="539" height="51.216" viewBox="0 -31.524 539 51.216"><path d="M 6.024 -5.664 L 5.16 -1.416 Q 5.16 -1.416, 5.13 -1.26 Q 5.1 -1.104, 5.1 -0.972 Q 5.1 -0.852, 5.148 -0.786 Q 5.196 -0.72, 5.34 -0.72 Q 5.532 -0.72, 5.706 -0.834 Q 5.88 -0.948, 6.018 -1.098 Q 6.156 -1.248, 6.228 -1.344 L 6.468 -1.164 Q 6.096 -0.588, 5.688 -0.234 Q 5.28 0.12, 4.74 0.12 Q 4.068 0.12, 4.068 -0.456 Q 4.068 -0.588, 4.098 -0.726 Q 4.128 -0.864, 4.152 -1.02 L 4.068 -1.02 Q 3.12 0.144, 2.064 0.144 Q 1.416 0.144, 1.002 -0.36 Q 0.588 -0.864, 0.588 -1.908 Q 0.588 -2.724, 0.846 -3.426 Q 1.104 -4.128, 1.536 -4.65 Q 1.968 -5.172, 2.52 -5.46 Q 3.072 -5.748, 3.66 -5.748 Q 4.14 -5.748, 4.428 -5.568 Q 4.716 -5.388, 4.908 -5.112 L 4.956 -5.112 L 5.388 -5.664 Z M 4.668 -4.128 Q 4.668 -4.608, 4.398 -4.95 Q 4.128 -5.292, 3.624 -5.292 Q 3.18 -5.292, 2.814 -5.01 Q 2.448 -4.728, 2.19 -4.26 Q 1.932 -3.792, 1.794 -3.21 Q 1.656 -2.628, 1.656 -2.028 Q 1.656 -1.2, 1.914 -0.924 Q 2.172 -0.648, 2.616 -0.648 Q 3.216 -0.648, 3.624 -1.026 Q 4.032 -1.404, 4.296 -2.172 Q 4.416 -2.532, 4.5 -2.91 Q 4.584 -3.288, 4.626 -3.618 Q 4.668 -3.948, 4.668 -4.128 Z " /></symbol><use href="#STIXTwoMath-Regular_3326" transform="translate(33.855 10.872) scale(1.167)" fill="black" /><symbol id="STIXTwoMath-Regular_1139" width="464" height="51.216" viewBox="0 -31.524 464 51.216"><path d="M 5.568 -1.92 L 5.184 0 L 0.456 0 L 0.456 -0.408 L 2.28 -2.232 Q 2.88 -2.844, 3.276 -3.342 Q 3.672 -3.84, 3.87 -4.344 Q 4.068 -4.848, 4.068 -5.472 Q 4.068 -6.144, 3.666 -6.546 Q 3.264 -6.948, 2.568 -6.948 Q 1.98 -6.948, 1.566 -6.696 Q 1.152 -6.444, 0.816 -5.772 L 0.528 -5.892 Q 0.804 -6.768, 1.404 -7.248 Q 2.004 -7.728, 2.88 -7.728 Q 3.564 -7.728, 4.08 -7.47 Q 4.596 -7.212, 4.89 -6.75 Q 5.184 -6.288, 5.184 -5.652 Q 5.184 -5.124, 4.962 -4.638 Q 4.74 -4.152, 4.302 -3.636 Q 3.864 -3.12, 3.228 -2.472 L 1.644 -0.972 L 1.644 -0.912 L 2.484 -0.948 L 4.152 -0.948 Q 4.632 -0.948, 4.824 -1.164 Q 5.016 -1.38, 5.22 -1.92 Z " /></symbol><use href="#STIXTwoMath-Regular_1139" transform="translate(41.625 16.865) scale(0.817)" fill="black" /><symbol id="STIXTwoMath-Regular_1196" width="658" height="51.216" viewBox="0 -31.524 658 51.216"><path d="M 7.896 -2.7 L 4.752 -2.7 L 4.752 0.48 L 3.888 0.48 L 3.888 -2.7 L 0.744 -2.7 L 0.744 -3.516 L 3.888 -3.516 L 3.888 -6.696 L 4.752 -6.696 L 4.752 -3.516 L 7.896 -3.516 Z " /></symbol><use href="#STIXTwoMath-Regular_1196" transform="translate(49.587 10.872) scale(1.167)" fill="black" /><symbol id="STIXTwoMath-Regular_3327" width="483" height="51.216" viewBox="0 -31.524 483 51.216"><path d="M 2.376 -4.824 L 2.436 -4.824 Q 2.82 -5.256, 3.222 -5.502 Q 3.624 -5.748, 4.104 -5.748 Q 4.812 -5.748, 5.304 -5.238 Q 5.796 -4.728, 5.796 -3.648 Q 5.796 -2.916, 5.574 -2.232 Q 5.352 -1.548, 4.926 -1.014 Q 4.5 -0.48, 3.876 -0.168 Q 3.252 0.144, 2.448 0.144 Q 1.428 0.144, 0.552 -0.3 L 1.908 -7.272 Q 1.92 -7.308, 1.938 -7.446 Q 1.956 -7.584, 1.956 -7.692 Q 1.956 -7.896, 1.83 -7.968 Q 1.704 -8.04, 1.524 -8.04 Q 1.428 -8.04, 1.296 -8.028 Q 1.164 -8.016, 1.164 -8.016 L 1.164 -8.328 L 2.82 -8.46 L 3.084 -8.46 Z M 2.208 -3.792 L 1.62 -0.792 Q 1.74 -0.684, 1.998 -0.522 Q 2.256 -0.36, 2.628 -0.36 Q 3.348 -0.36, 3.816 -0.792 Q 4.284 -1.224, 4.512 -1.956 Q 4.74 -2.688, 4.74 -3.6 Q 4.74 -4.416, 4.452 -4.746 Q 4.164 -5.076, 3.756 -5.076 Q 3.372 -5.076, 3.072 -4.872 Q 2.772 -4.668, 2.556 -4.374 Q 2.34 -4.08, 2.208 -3.792 Z " /></symbol><use href="#STIXTwoMath-Regular_3327" transform="translate(62.778 10.872) scale(1.167)" fill="black" /><use href="#STIXTwoMath-Regular_1139" transform="translate(70.1 16.865) scale(0.817)" fill="black" /><rect x="33.855" y="34.742" width="41.096" height="0.952" fill="black" /></g></g></g><g><g><g><symbol id="Asana-Math_743" width="793" height="59.736" viewBox="0 -38.1 793 59.736"><path d="M 9.516 -12.948 L 5.58 0.708 L 2.256 -6.252 L 0.912 -5.748 L 0.756 -6.012 L 3.18 -7.308 L 5.664 -2.04 L 8.784 -12.948 Z " /></symbol><use href="#Asana-Math_743" transform="translate(121.027 6.084) scale(1.167)" fill="black" /><symbol id="Asana-Math_1792" width="406" height="59.736" viewBox="0 -38.1 406 59.736"><path d="M 3.252 -2.448 Q 2.292 -1.104, 1.572 -0.486 Q 0.852 0.132, 0.456 0.132 Q 0.288 0.132, 0.168 -0.138 Q 0.048 -0.408, 0.048 -0.804 Q 0.048 -1.512, 0.3 -2.484 Q 0.552 -3.456, 0.948 -4.248 Q 1.176 -4.692, 1.5 -4.992 Q 1.824 -5.292, 2.388 -5.568 Q 2.832 -5.784, 3.288 -5.784 Q 3.684 -5.784, 4.308 -5.556 L 4.704 -5.772 L 4.824 -5.664 L 3.72 -1.116 Q 3.708 -1.08, 3.708 -0.984 Q 3.708 -0.708, 3.888 -0.708 Q 4.116 -0.708, 4.788 -1.272 L 4.872 -1.02 Q 3.516 0.108, 3.12 0.108 Q 2.832 0.108, 2.832 -0.312 Q 2.832 -0.624, 2.904 -0.924 Z M 3.828 -4.968 Q 3.156 -5.196, 2.808 -5.196 Q 2.376 -5.196, 2.13 -5.004 Q 1.884 -4.812, 1.668 -4.32 Q 1.356 -3.6, 1.134 -2.682 Q 0.912 -1.764, 0.912 -1.188 Q 0.912 -0.708, 1.128 -0.708 Q 1.416 -0.708, 1.914 -1.182 Q 2.412 -1.656, 2.928 -2.412 Q 3.24 -2.88, 3.438 -3.438 Q 3.636 -3.996, 3.828 -4.968 Z " /></symbol><use href="#Asana-Math_1792" transform="translate(132.129 6.084) scale(1.167)" fill="black" /><symbol id="Asana-Math_21" width="468" height="59.736" viewBox="0 -38.1 468 59.736"><path d="M 0.192 -0.276 L 2.232 -2.448 Q 3.24 -3.528, 3.666 -4.266 Q 4.092 -5.004, 4.092 -5.676 Q 4.092 -6.444, 3.636 -6.894 Q 3.18 -7.344, 2.4 -7.344 Q 1.8 -7.344, 1.458 -7.104 Q 1.116 -6.864, 0.972 -6.348 L 0.816 -5.796 L 0.468 -5.796 L 0.672 -7.428 Q 1.116 -7.872, 1.59 -8.07 Q 2.064 -8.268, 2.712 -8.268 Q 3.852 -8.268, 4.512 -7.668 Q 5.172 -7.068, 5.172 -6.036 Q 5.172 -5.364, 4.848 -4.764 Q 4.524 -4.164, 3.648 -3.24 L 1.464 -0.924 Q 2.484 -0.948, 3.684 -0.948 Q 4.884 -0.948, 5.616 -0.984 L 5.616 0.036 Q 4.596 0.036, 4.014 0.03 Q 3.432 0.024, 3.216 0.012 Q 3 0, 2.868 0 Q 2.736 0, 2.526 0.012 Q 2.316 0.024, 1.746 0.03 Q 1.176 0.036, 0.192 0.036 Z " /></symbol><use href="#Asana-Math_21" transform="translate(138.331 13.031) scale(0.852)" fill="black" /><symbol id="Asana-Math_14" width="604" height="59.736" viewBox="0 -38.1 604 59.736"><path d="M 7.248 -2.892 L 4.368 -2.892 L 4.368 0 L 3.66 0 L 3.66 -2.892 L 0.78 -2.892 L 0.78 -3.6 L 3.66 -3.6 L 3.66 -6.456 L 4.368 -6.456 L 4.368 -3.6 L 7.248 -3.6 Z " /></symbol><use href="#Asana-Math_14" transform="translate(146.542 6.084) scale(1.167)" fill="black" /><symbol id="Asana-Math_1793" width="433" height="59.736" viewBox="0 -38.1 433 59.736"><path d="M 2.82 -8.664 L 1.788 -3.888 Q 2.34 -4.596, 2.706 -4.938 Q 3.072 -5.28, 3.54 -5.52 Q 4.068 -5.784, 4.524 -5.784 Q 4.812 -5.784, 4.944 -5.616 Q 5.196 -5.304, 5.196 -4.512 Q 5.196 -3.324, 4.656 -2.202 Q 4.116 -1.08, 3.252 -0.468 Q 2.424 0.132, 1.68 0.132 Q 1.188 0.132, 0.816 -0.126 Q 0.444 -0.384, 0.444 -0.732 Q 0.444 -0.816, 0.456 -0.852 L 1.668 -7.464 Q 1.692 -7.608, 1.692 -7.752 Q 1.692 -8.04, 1.284 -8.04 L 0.708 -8.04 L 0.756 -8.292 Q 1.884 -8.4, 2.676 -8.796 Z M 3.864 -5.088 Q 3.6 -5.088, 3.198 -4.866 Q 2.796 -4.644, 2.496 -4.332 Q 1.872 -3.672, 1.608 -2.724 Q 1.344 -1.776, 1.344 -1.212 Q 1.344 -0.432, 2.196 -0.432 Q 3.144 -0.432, 3.72 -1.644 Q 4.332 -2.976, 4.332 -4.224 Q 4.332 -5.088, 3.864 -5.088 Z " /></symbol><use href="#Asana-Math_1793" transform="translate(159.005 6.084) scale(1.167)" fill="black" /><use href="#Asana-Math_21" transform="translate(165.473 13.031) scale(0.852)" fill="black" /><rect x="132.129" y="35.428" width="38.444" height="0.826" fill="black" /></g></g></g></svg>